<svg viewBox="0 0 392 100" xmlns="http://www.w3.org/2000/svg"><g id="figure"><path d="m34.9 4.1c-12.5 17.4-23.3 36.1-32.2 55.7-.6 1.7-1.2 3.2.3 4.6 17.8 13.6 37.3 24.9 58 33.5 2 .4 3.3-.4 4.3-2.1 12.2-17.4 22.8-35.9 31.8-55.2.8-1.8 1.3-3.5-.4-5-17.4-13.1-36.4-24.2-56.4-32.8-2.2-1-3.6-1.4-5.4 1.3zm25.3 15.8c1.2 5.5 2.5 11.1 3.7 16.6l-4.2-2.1-4.8 8.7c7.6 7.5 15.2 14.9 22.8 22.4-4.8 1.3-9.5 2.6-14.3 3.9-4.6-5.2-9.4-10.5-14-15.7-1.5 2.8-3 5.5-4.5 8.2l3 11.7c-3.7.9-7.5 1.9-11.2 2.8-4.1-15.2-8.1-30.3-12.2-45.5 3.8-1 7.6-2 11.3-3l5.1 19.2c2.8-6.1 5.6-12.1 8.4-18.2-1.5-.8-3.1-1.5-4.6-2.3 5.2-2.2 10.3-4.5 15.5-6.7z"/><path d="m147.6 19.8-.3 20.6-7.2-5.5-6 8.4 14.8 35.6h-11.2l-11-26.5-9.8 13.2v13.3h-10.1v-53.3h10.1v26.9l16.5-22.7-5.9-4.5z"/><path d="m154.7 25.6v9.8h9.4v-9.8zm9.4 13.7h-9.4v39.5h9.4z"/><path d="m203.8 53.7v25.1h-9.4v-24.4c0-7.7-5.2-7.6-6-7.6-1 0-7.9.5-8 11.6v20.4h-9.4v-39.5h8.6v7.9c3.1-6.2 7-8.7 11.8-8.7 9.9 0 12.4 7.8 12.4 15.2z"/><path d="m227.3 38.5c-3.5 0-8.4.6-12.5 4.2-6.3 5.7-6.7 13.4-6.7 16.1 0 3 .6 6 1.6 8.8 3.2 8.4 8.9 12 16.5 12 9.6 0 14.9-6.4 16.9-11.3 1.2-2.9 1.8-6 1.8-9.1 0-4.1-.7-8.2-2.8-11.9-4.3-7.3-10.9-8.8-14.8-8.8zm2.1 8.2c1.6.6 2.9 1.8 3.7 3.3 1.5 2.6 1.9 5.9 1.9 8.9 0 2.8-.3 5.9-1.5 8.5-.8 1.8-2.4 3.3-4.3 3.9-2 .6-4.3.6-6.2-.4-1.7-.9-2.9-2.5-3.6-4.2-1.1-2.6-1.4-5.7-1.3-8.5.1-3 .6-6.3 2.3-8.8 1.1-1.6 2.7-2.7 4.6-3 .9-.1 2.6-.3 4.4.3z"/><path d="m282.3 47.1c2.9-5.3 7-8.6 12.9-8.6 6.9 0 12.7 4.6 12.7 12.7v27.6h-9.8v-24.4c0-1.6-.1-5.8-3.8-7-2.8-.9-10.8-1.2-10.8 10.8v20.6h-9.9v-24.4c0-1.8-.2-6.5-4.4-7.3-4.8-.9-10.3 2.3-10.3 11.1v20.6h-9.7v-39.5h9.2v7.2c1.6-2.9 4.9-8 12.4-8 3.2 0 8.9.7 11.5 8.6z"/><path d="m322.1 39.9c-3 1.1-7.6 3.8-8.5 10.3l8.1 1.2c.5-2.7 1.8-5.9 8-6.1 4-.1 7.5.7 8.4 3.8.4 1.4.3 3 .3 4.5-3.9-.1-7.9.1-11.7.7-3.2.5-6.7 1.5-9.4 3.4-3.5 2.4-4.9 5.9-4.9 9.7 0 5.7 3.5 9.4 7.1 11 1.8.8 3.8 1.2 5.8 1.2 5.2 0 10.3-1.8 13.2-7.7.2 2.4.6 4.6 1.3 6.9h9c-.8-2.7-1.3-5.4-1.3-8.2 0-5.8 0-11.5 0-17.3.2-10.9-6.5-14.9-16.5-14.9-.9 0-4.9.1-8.9 1.5zm16.3 19.1c0 1.3 0 2.7-.1 4-.1 2.7-1.3 5.2-3.2 7.1-1.9 1.8-4.4 2.3-6.9 2.2-1.7-.1-3.5-.4-4.7-1.7-2-2.1-2-5.7 0-7.8 1.3-1.4 3.1-2.2 4.9-2.7 3.4-.9 7.4-1.1 10-1.1z"/><path d="m363.4 45.2v-5.9h-9v52.6h9.6v-17.7c1.4 2.2 3.5 3.9 6.1 4.7s5.6.9 8.3.2 5.1-2.5 6.7-4.8c3.5-5.2 4.4-11.1 4.4-15.6 0-3.3-.5-7.9-2.6-12.1-2.7-5.3-6.6-8.1-11.7-8.1-6 0-9.8 3.4-11.8 6.7zm8.8 1.1c5.2.1 6.8 5.9 7.2 9.9.3 3.5.2 7.5-1.1 10.9-.6 1.6-1.5 3.2-3.1 4.1-2 1.1-4.7 1.1-6.7-.1-1.6-1-2.9-2.5-3.7-4.2-.9-1.9-.8-3.9-.8-6 .1-2.6-.2-5.4.5-7.9.9-3.4 3.6-6.8 7.7-6.7z"/></g></svg>