<svg viewBox="0 0 100 100" xmlns="http://www.w3.org/2000/svg"><g><path fill="#101010" d="m40.3 2.8c20 8.6 39 19.7 56.4 32.8 1.7 1.5 1.2 3.2.4 5-9 19.3-19.6 37.8-31.8 55.2-1 1.7-2.3 2.5-4.3 2.1-20.7-8.6-40.2-19.9-58-33.5-1.5-1.4-.9-2.9-.3-4.6 8.9-19.6 19.7-38.3 32.2-55.7 1.8-2.7 3.2-2.3 5.4-1.3z"/><path fill="#ffc947" d="m36.7 4.3c-12.8 17.6-23.7 36.7-32.7 56.6-.4.8-.7 1.6 0 2.3 17.3 13.2 36.2 24.1 56.2 32.6 1.7.8 2.7.9 3.7-.9 12.4-17.7 23.2-36.5 32.3-56.1.3-.6.2-1.5-.4-1.9-17.3-13.1-36.2-24-56.1-32.6-1.3-.6-2.1-.9-3 0zm23.5 15.6c1.2 5.5 2.5 11.1 3.7 16.6l-4.2-2.1-4.8 8.7c7.6 7.5 15.2 14.9 22.8 22.4-4.8 1.3-9.5 2.6-14.3 3.9-4.6-5.2-9.4-10.5-14-15.7-1.5 2.8-3 5.5-4.5 8.2l3 11.7c-3.7.9-7.5 1.9-11.2 2.8-4.1-15.2-8.1-30.3-12.2-45.5 3.8-1 7.6-2 11.3-3l5.1 19.2c2.8-6.1 5.6-12.1 8.4-18.2-1.5-.8-3.1-1.5-4.6-2.3 5.2-2.2 10.3-4.5 15.5-6.7z"/></g></svg>