<svg viewBox="0 0 100 100" xmlns="http://www.w3.org/2000/svg"><g id="figure"><path d="m34.9 4.1c-12.5 17.4-23.3 36.1-32.2 55.7-.6 1.7-1.2 3.2.3 4.6 17.8 13.6 37.3 24.9 58 33.5 2 .4 3.3-.4 4.3-2.1 12.2-17.4 22.8-35.9 31.8-55.2.8-1.8 1.3-3.5-.4-5-17.4-13.1-36.4-24.2-56.4-32.8-2.2-1-3.6-1.4-5.4 1.3zm25.3 15.8c1.2 5.5 2.5 11.1 3.7 16.6l-4.2-2.1-4.8 8.7c7.6 7.5 15.2 14.9 22.8 22.4-4.8 1.3-9.5 2.6-14.3 3.9-4.6-5.2-9.4-10.5-14-15.7-1.5 2.8-3 5.5-4.5 8.2l3 11.7c-3.7.9-7.5 1.9-11.2 2.8-4.1-15.2-8.1-30.3-12.2-45.5 3.8-1 7.6-2 11.3-3l5.1 19.2c2.8-6.1 5.6-12.1 8.4-18.2-1.5-.8-3.1-1.5-4.6-2.3 5.2-2.2 10.3-4.5 15.5-6.7z"/></g></svg>