<svg viewBox="0 0 202 100" xmlns="http://www.w3.org/2000/svg"><g id="figure" fill="#fff"><g transform="scale(.1)"><path d="m1482.8 147.7c2.4-21.3 4.8-42.9 7.2-64.2-65.3-24.1-165.1-63.5-428.2-63.5-229.4 0-385 46.4-479 91.3-17.6 156.5-35.2 312.8-52.8 469.4 65.9 34.2 170 67.3 322.1 79.3 19.9-168.1 39.1-336.4 58.8-504.5 26.2-15.7 222.6-89.4 571.9-7.8z"/><path d="m1018.5 286.3c-3.9 31.7-17.9 152.4-17.9 152.4s61.3-9.8 116.3-12.2c12-.5 23.8-.8 34.5-.4l-27.4 215.1c166.3-12 255.3-42.8 312.8-62.5l34.4-294.6v-1c-218.8-43.2-452.7 3.2-452.7 3.2z"/><path d="m203.9 738c-79.4.6-133.2 15.9-165.7 31.5-6.1 54.2-12.1 108.3-18.2 162.5 29.1 15.1 79.5 29.8 158.8 29.2 87.6-.6 128.8-15.6 153.3-24.3l11.9-105.9c-52 .4-104.3.8-156.3 1.2-1.3 11.3-2.3 22.5-3.6 33.8 16.9-.1 33.8-.3 50.7-.4-1.8 16.3-3.7 32.6-5.5 48.9-30.8.2-61.5.5-92.3.7 4.9-43.5 9.7-87 14.6-130.5 52.1-.4 124.2-1 197.7-1.5.9-7.7 1.7-15.5 2.6-23.2-22.6-8.4-60.4-22.7-148-22z"/><path d="m457.5 923.5 10.5-94.1 88.8-.7-10.6 94.1zm-87.1-100.9c-4.1 36.4-8.2 72.7-12.3 109.1 0 0 40.3 27.8 139.2 27.1s146.6-29.2 146.6-29.2c4.1-36.4 8.1-72.7 12.2-109.1 0 0-41-27.8-139.9-27.1s-145.8 29.2-145.8 29.2z"/><path d="m824.5 791.1c-97 .7-141.4 18.5-141.4 18.5-.7 6-1.3 12.1-2 18.2 61.2-.5 122.4-.9 183.6-1.4-1.1 9.5-2.1 19-3.2 28.5-9.4.1-52.1.4-72.4.6-50.7.4-98.9 7.1-116.5 15.8-1.2 10.7-7.7 68.8-7.7 68.8s41.9 17.1 140.8 16.4 145.3-22.1 145.3-22.1c4.4-38.7 8.8-77.5 13.1-116.2 0 0-36.8-27.9-139.6-27.1zm33.4 95.9c-1.2 11.2-2.4 22.3-3.7 33.5-29.6.2-59.1.5-88.7.7 1.3-11.2 2.4-22.3 3.7-33.5 29.6-.2 59.1-.5 88.7-.7z"/><path d="m1044.7 735.3c-33 .2-50.5 11.1-50.5 11.1-7.3 64.9-14.6 129.7-21.8 194.6 0 0 15.1 10.6 48.1 10.4 34.4-.3 50.4-11.1 50.4-11.1 7.3-64.9 14.6-129.8 21.9-194.7 0 0-13.3-10.6-48.1-10.3z"/><path d="m1108 806.4c-5 44.6-9.9 89.1-14.9 133.7 0 0 15.4 10.6 46.9 10.4 35.1-.3 51.6-11.1 51.6-11.1 4.3-38.5 8.6-77 12.9-115.5 38-.3 76-.5 114.1-.8.7-6.1 1.3-12.1 2-18.2 0 0-33.7-17-102.5-17s-110.1 18.5-110.1 18.5z"/><path d="m1343.5 747.9s-3.9 26.9-4.9 36.2c0 0 16.4-10.6 50.6-10.9 31-.2 47.3 10.2 47.3 10.2 1.4-12 2.8-24 4.1-36 0 0-10.3-10.5-48.1-10.2-17.1-.1-35.6 2.9-49 10.7zm-7.3 57.7c-5.1 45.1-10.1 90.2-15.2 135.2 0 0 13.2 10.5 47.8 10.2 34.2-.2 50.1-11 50.1-11 5.1-45.2 10.2-90.3 15.3-135.5 0 0-16.1-10.4-47.1-10.2-30.6.2-50.9 11.3-50.9 11.3z"/><path d="m1469.8 747.2c-7.2 64.2-14.4 128.4-21.7 192.6 0 0 15 10.4 47.8 10.2 34.2-.2 50.1-10.9 50.1-10.9 7.2-64.2 14.4-128.4 21.6-192.6 0 0-13.1-10.5-47.7-10.3-32.8.2-50.1 11-50.1 11z"/><path d="m1596.9 746.2c-7.2 64.2-14.5 128.5-21.7 192.7 0 0 14.9 10.4 47.7 10.2 34.2-.2 50.2-10.9 50.2-10.9 7.2-64.2 14.3-128.5 21.6-192.7 0 0-13.1-10.4-47.7-10.2-32.7.2-50.1 10.9-50.1 10.9z"/><path d="m1861 787.1c-97 .7-140.3 18.5-140.3 18.5-.7 6-1.3 12.1-2 18.2 61.2-.5 121.3-.9 182.5-1.4-1.1 9.5-2.1 18.3-3.2 27.8-9.4.1-52.1.4-72.4.6-50.7.4-97.8 7.1-115.4 15.8-1.2 10.7-7.7 68.2-7.7 68.2s40.8 17.1 139.7 16.4 144.7-21.8 144.7-21.8c4.4-38.7 8.8-76.5 13.1-115.2 0 0-36.2-27.9-139-27.1zm33.4 95.1c-1.2 11.2-2.4 21.9-3.7 33.1-29.6.2-58.4.5-88 .7 1.3-11.2 2.4-21.9 3.7-33.1 29.6-.2 58.4-.5 88-.7z"/><path d="m1890.7 958.4-.2 2.3h11.5l-2.2 18.1s1.6 1.2 5.5 1.2 5.9-1.2 5.9-1.2l2.2-18.1h11.4l.3-2.3c-2.6-1-7.6-2.3-16.8-2.3s-15.7 1.4-17.6 2.3z"/><path d="m1929.1 959.5-2.3 19.3s1.6 1.2 5.3 1.2c3.9 0 6.2-1.2 6.2-1.2l2.2-18.1h9.3l-2.2 18.1s2 1.2 5.5 1.2c3.4 0 5.9-1.2 5.9-1.2l2.2-18.1h9.4l-2.2 18.1s2.2 1.2 5.6 1.2c3.5 0 5.8-1.2 5.8-1.2l2.3-19.3s-4.7-3.4-26.1-3.4-26.9 3.4-26.9 3.4z"/></g></g></svg>