<svg viewBox="0 0 180 100" xmlns="http://www.w3.org/2000/svg" xmlns:xlink="http://www.w3.org/1999/xlink"><g><path d="m54.2 78.2c8.3 12.7 21.4 19.9 34.8 19.8 13.4.1 26.5-7.1 34.8-19.8h-4.5c-4 5.4-14.1 15.8-30.3 15.8s-26.3-10.4-30.3-15.8z"/><path d="m89 2c-24 0-43 21.9-43 47.5 0 .4.1.6.1.6l2.7 8.4h33l-2.8-9h-29.5c0-23.7 17.5-43.5 39.5-43.5s39.5 19.8 39.5 43.5h-29.5l-2.8 9h33l2.7-8.4s.1-.2.1-.6c0-25.6-19-47.5-43-47.5z"/><path d="m2 73.6h1.8v-4.8h7.2c1.4 0 2.3-.5 2.3-2.3v-3c0-1.8-.9-2.3-2.3-2.3h-9zm7.8-10.8c1.4 0 1.6.3 1.6 1.6v1c0 1.5-.2 1.7-1.6 1.7h-6v-4.3z"/><path d="m17.8 61.2v12.4h1.8v-4.8h3.1c.2.1.6.2.7.4l4.1 4.4h2.7l-4.8-4.8h1.4c1.4 0 2.3-.5 2.3-2.3v-3c0-1.8-.9-2.3-2.3-2.3zm1.8 1.6h6c1.4 0 1.6.3 1.6 1.6v1c0 1.5-.2 1.7-1.6 1.7h-6z"/><path d="m36.6 61.2c-2 0-2.6.8-2.6 3v6.6c0 2.2.8 2.8 2.6 2.8h7.8c1.8 0 2.6-.6 2.6-2.8v-6.6c0-2.2-.6-3-2.6-3zm-.7 1.7h9.2v9h-9.2z"/><path d="m54.3 63.2h4.6c.6 0 1.1 0 1.6.2 1 .4.9 1.4 1 2.3l-1.6.4v-1.3h-6.5v2.6h5.9c1.8 0 2.3.5 2.3 2.8 0 2.8-.4 3.2-2.3 3.2h-5.3c-.7 0-1.5 0-2-.4-.7-.5-.5-1.6-.6-2.3l1.6-.4v1.5h7v-2.8h-6c-2 0-2.2-.5-2.2-3.2 0-2.3.8-2.6 2.5-2.6z"/><path id="a" d="m65.5 73.4h1.7v-4h6c1.2 0 2-.3 2-1.8v-2.5c0-1.5-.8-1.9-2-1.9h-7.7zm6.7-8.7c.9 0 1.2.3 1.2 1.1v.9c0 1-.2 1.2-1.2 1.2h-5v-3.2z"/><path id="b" d="m87.7 63.2v1.6h-7.4v2.6h4.5v1.5h-4.5v3h7.5v1.5h-9.2v-10.2z"/><use transform="translate(12.7)" xlink:href="#b"/><path d="m104.6 63.2v10.2h5.6c4.4 0 5.5-2.6 5.5-5.2 0-2-1-5-5.5-5zm6.1 1.6c2.7.2 3.2 1.7 3.2 3.4s-.4 3.4-3.2 3.6h-4.3v-7z"/><path d="m126.8 63.2h-7.2v10.2h1.7v-4h2.5l3.6 4h2.3l-3.9-4h1c1.2 0 2-.3 2-1.8v-2.5c0-1.5-.8-1.9-2-1.9zm-5.5 1.5h4.6c.9 0 1.2.3 1.2 1.1v1c0 1-.2 1.2-1.2 1.2h-4.6z"/><path d="m134.9 63.2c-1.7 0-2.2.6-2.2 2.5v5.2c0 1.9.7 2.5 2.2 2.5h6.6c1.5 0 2.3-.6 2.3-2.5v-5.2c0-1.9-.6-2.5-2.3-2.5zm-.5 1.5h7.7v7.2h-7.7z"/><use transform="translate(82.2)" xlink:href="#a"/><use transform="translate(82.4)" xlink:href="#b"/><path d="m175.5 67.3c-.2-.3-.2-.7-.2-1-.1-.6-.3-.6-.7-.6h-.3v1.6h-.7v-3.7h1.2c.9 0 1.5.3 1.5 1 0 .5-.4.7-.7.8l.2.2c.2.2.3.5.3.8 0 .1 0 .6.2.9m-1.4-2.2c.3 0 .6-.1.6-.5s-.3-.4-.6-.4h-.6v.9"/><path d="m174.9 62.3c-1.8 0-3.2 1.4-3.2 3.2s1.4 3.1 3.2 3.1 3.1-1.3 3.1-3.1-1.3-3.2-3.1-3.2zm0 .5c1.4 0 2.6 1.3 2.6 2.7s-1.2 2.6-2.6 2.6-2.7-1.2-2.7-2.6 1.3-2.7 2.7-2.7z"/></g></svg>