<svg viewBox="0 0 308 100" xmlns="http://www.w3.org/2000/svg"><g fill="#2c84dc"><path d="m42.1 98c-21.8 0-34.9-17.3-35.1-35.3-.1-5.7 1.3-11.3 4-16.4 1.3-2.4 1.1-5.1-.7-6.9l-3.5-3.5c-1.6-1.6-2.1-4-.6-5.8s4.2-2.2 5.8-.6l4.9 4.9c1.4 1.4 3.7 1.3 5.3 0 1.9-1.6 2.1-4.4.6-5.9l-19.6-19.5c-.8-.8-1.2-1.8-1.2-2.8 0-2.3 1.8-4.2 4.1-4.2 1 0 2.1.4 2.9 1.2l24 24c1.7 1.7 4.4 1.6 6 0 1.6-1.7 1.6-4.2-.1-5.9l-11.5-11.5c-1.6-1.6-1.6-4.2 0-5.8s4.2-1.6 5.8 0l34.8 34.9c6.8 6.8 9.3 15.6 9.3 23.8-.1 17.2-13.7 35.3-35.2 35.3zm0-60.8c-13.6.2-25.5 11.4-25.5 25.5s11.4 25.6 25.5 25.6 25.6-11.5 25.6-25.6c0-18.9-17.3-25.6-25.6-25.5z"/><path d="m89.5 37.6h10.6c6.2 0 12.9 3.1 12.9 12.9v1.8c0 5-1.4 7.4-5 9.4 4 1.9 5 5.4 5 10v2.8c0 9-4.2 13.8-13.5 13.8h-10zm7.3 20.8h3c3.6 0 6.4-1.4 6.4-7.1 0-5.2-2.5-6.9-6.4-6.9h-3zm0 22.7h3c5.5 0 6.4-2.9 6.4-8.5s-1.6-7.7-6.4-7.7h-3z"/><path d="m116.6 37.6h7.3v43.5h14.4v7.3h-21.7z"/><path d="m153.6 37.6h6.1l11.4 50.8h-7.3l-2.1-10.9h-10l-2.1 10.9h-7.3zm3.1 14.6h-.1l-3.6 18.4h7.3z"/><path d="m174.8 82 13.7-37.6h-13v-6.8h20.9v5.7l-14 38.2h14v6.8h-21.6z"/><path d="m200.6 37.6h21.6v6.8h-14.4v15h12.6v6.8h-12.6v14.9h14.4v7.3h-21.6z"/><path d="m226.6 37.6h10.9c10.1 0 12.7 6.3 12.7 15.1v1.5c0 5.1-1.3 14.4-12.6 14.4h-3.7v19.8h-7.3zm7.3 24.1h3.5c6.2 0 6-4.1 5.9-8.5 0-4.7 0-8.7-5.7-8.7h-3.8z"/><path d="m253.4 49.6c0-7.1 5.3-12.5 12.2-12.5 6.4 0 12.3 4.9 12.3 12.5v26.8c0 7.7-6 12.4-12.3 12.4s-12.2-4.7-12.2-12.4zm7.3 26.8c0 2.8 2 5.1 4.9 5.2 3 .1 4.9-2.2 4.9-5.2v-26.8c0-2.9-2-5.2-4.9-5.2s-4.9 2.3-4.9 5.2z"/><path d="m282.4 37.6h10.8c7.9 0 12.8 4.3 12.8 13.1v23.8c0 13.4-9.6 13.9-13.4 13.9h-10.2zm7.3 44h3.3c3.5 0 5.7-3.2 5.7-7.1v-23.8c0-4.2-2.4-6.3-5.7-6.3h-3.3z"/></g></svg>