<svg viewBox="0 0 480 100" xmlns="http://www.w3.org/2000/svg"><g id="figure" fill="#fff"><path d="m67.4 59.1-24.8-10.5c-8.5-3.6-13.9-8.4-13.9-13.8 0-10.9 21.3-19.7 47.7-19.7h32.9c1.4 0 2.8-.5 3.8-1.4l13.2-11.6h-21.6c-71.6 0-78.1 28.4-78.1 28.4s4.2-21.3 35.6-28.5h-17.2c-13.3 0-24.4 8.9-28 21l-15 50.8h50.9c11.4 0 20.8-3.8 20.8-8.5 0-2.4-2.4-4.6-6.3-6.2z"/><path d="m76.7 24.9c-10.6 0-19.1 3.5-19.1 7.9 0 2.3 2.3 4.3 6 5.7l24.6 9.2c10.2 3.8 16.5 9.5 16.5 15.6 0 11.7-22.9 21-51.1 21h-29.8c-1.4 0-2.6.5-3.6 1.3l-14 12.4h21.2c71.6 0 78.1-28.4 78.1-28.4s-4.3 21.2-35.6 28.4h18c13.3 0 24.5-9 28.1-21.1l15.3-52z"/><path d="m190.3 25c-19 0-34.4 6.4-34.4 14.3 0 3.9 3.9 7.4 10 10l17.8 7.5c2.8 1.2 4.5 2.8 4.5 4.5 0 3.4-6.7 6.1-14.9 6.1h-21.8c-1.2 0-2.5.4-3.4 1.2l-7.2 6.4h32.9c20.4 0 36.8-6.8 36.8-15.2 0-4.4-4.6-8.5-11.9-11.2l-17.7-6.6c-2.7-1-4.3-2.6-4.3-4.2 0-3.2 6.2-5.7 13.8-5.7h22.5c1.3 0 2.6-.4 3.4-1.2l6.4-5.9z"/><path d="m268.5 25h-39.1c-1.5 0-2.8 1.1-3.2 2.4l-14 47.5h15c1.5 0 2.7-1 3.1-2.3l6.5-22.2 2.7 4.2c.6.9 1.7 1.4 2.8 1.4h14.5c17.5 0 26.4-6.3 29.5-16.9.3-1.1.4-2.1.4-3.1-.1-8.2-8-11-18.2-11zm-17.8 24.1h-13.6l5-17h12.5c5.2 0 14.7.4 13 7.5-1.8 7.2-10.1 9.5-16.9 9.5z"/><path d="m312.9 25h-14.7c-1.5 0-2.8 1.1-3.2 2.4l-14 47.5h14.7c1.5 0 2.8-1 3.2-2.3z"/><path d="m362.2 25h-39.6c-1.5 0-2.7 1-3.1 2.3l-14.1 47.6h15.4c1.5 0 2.7-1 3.1-2.3l7.1-23.9 15.7 24c.9 1.4 2.4 2.2 4.2 2.2h17.2l-13.8-20.8c15.3-.5 22.6-5.1 25.5-15 .3-1.1.5-2.1.5-3.1 0-8.4-8.5-11-18.1-11zm-17.2 22.2h-13.6l4.4-15.1h12.6c5.1 0 14.3.3 12.9 7.5-2.1 7.1-9.5 7.6-16.3 7.6z"/><path d="m406.7 25h-14.6c-1.5 0-2.8 1.1-3.2 2.4l-14 47.5h14.7c1.5 0 2.8-1 3.2-2.3z"/><path d="m414.2 25c-1.5 0-2.7 1.1-3.1 2.4l-1.5 4.7h23.6l-12.9 42.9h14.7c1.5 0 2.7-1 3.1-2.3l12.3-40.6h17.5c1.3 0 2.5-.4 3.4-1.2l6.7-5.9z"/></g></svg>