<svg viewBox="0 0 266 100" xmlns="http://www.w3.org/2000/svg"><g id="figure"><path d="m57.14 5.68c-9.06-1.31-18.32.74-26.31 5.01-11.56 6.18-19.23 19.46-17.76 30.64 2.34 17.88 12.17 21.86 15.34 23.89 0 0 2.76-4.92 5.78-6.64 8.64-4.94 18.19-1.64 21.92 6.36 3.05 6.54 1.06 14.92-5.06 18.94-9.14 6-21.34 3.46-29.64-2.59-8.05-5.86-14.92-14.02-17.25-23.97-1.07-4.6-1.34-9.34-1.25-14.04-2.84 13.61.82 26.78 12.49 37.76 10.34 9.73 24.77 13.94 37.49 8.63 8.36-3.49 15.88-10.72 17.46-20.04.44-2.61.64-5.25.59-7.89-7.07.83-13.89-3.87-16.07-10.57-2.54-7.8 1.74-17.28 9.87-19.53 8.9-2.47 18.12 3.66 21.5 11.87 3.79 9.22 2.92 19.65-.68 28.73-3.74 9.43-11.18 17.02-20.1 21.6 15.15-5.63 21.75-15.23 25.82-28.99 4.46-15.07-1.11-32.22-15.34-39.67-8.2-4.29-17.42-5.75-26.65-.78-1.2.64-2.03 1.23-2.49 1.59 1.56 2.43 2.92 6.24 2.76 9.39-.42 8.79-7.97 15.87-16.7 14.88-17.99-2.03-14.93-20.77-9.77-27.49 8.05-10.5 21.15-15.38 33.79-14.7 7.47.4 14.66 3.17 20.89 7.26-5.64-5.29-13.02-8.54-20.63-9.65z"/><path d="m125.51 50.59c-.33.17-.17.33 0 0 1.83-1.66 3.49-4.16 5.82-6.82 1.16-1.5 4.66-5.66 6.32-5.99 1.83-.5 4.66 1.16 3.66 3.83 3.16-.83 3.83-3.66 5.16-6.65 3.49-7.32 6.82-14.8 10.81-21.62 1.16-1.83 3.66-6.82 6.32-6.32 4.82.83-.17 10.15-1.5 12.31-2.99 5.32-6.49 9.48-10.15 13.64-3.66 3.99-7.15 7.15-8.32 13.14 1.16-1.5 2-3.16 3.33-4.82 1-1.5 2.5-3.99 4.49-3.66 3.66.5.33 6.49-1.33 7.82 2-.17 5.99-2.33 7.82-4.32.83-.83 1.33-2.5 2.16-2.5 1 0 1 1.16.5 1.83.83-1 3.66-4.32 5.49-2.16s-2.83 5.82-2.5 6.65c.33.5 1.83-.67 2.33-.83 1-.67 1.5-1 2.16-1.66 1.16-1 2.66-3.99 3.66-3.83.67.17.83 1 .33 1.66.83-1.33 4.49-4.66 5.82-2 1 2-1.66 4.16-2.33 5.49 1.5-.5 4.16-1.5 5.82-2.83.83-.67 1.83-2.5 2.5-2.5 2.83.33-2.5 4.82-2.33 5.82 3.49-.5 5.82-2.5 7.82-4.82.5-.5 1.83-2.5 2.5-2.33 2.16.5-1.33 3.49-2.33 4.66-6.99 8.48-11.81 17.13-16.63 28.61-.33.67-1.66 5.32-2.99 4.49-.67-.33.33-1.66.5-3.16.33-2.16-.17-3.83-1.16-5.16-5.16-7.98-23.12-4.49-31.44-3.99-2.5.17-5.66.67-6.15.17-1.33-1.5 1.83-2 3.33-2.5 9.15-3.49 18.46-6.65 28.28-8.15-2 1-4.16 1.5-6.15 2-6.49 2-12.31 4.49-18.46 6.65 9.81-.33 30.77-3.66 33.27 7.65 3.49-9.15 7.82-17.3 13.64-23.62-1.5.67-7.15 2.99-5.66-1.16-.83.17-6.32 3.83-7.15 1.5-.33-.83 1.33-2.33 1.66-2.83.83-1.16 1.5-1.66 1.5-3.16-1.16-.17-2 1.66-3.16 3.16-1.5 2-4.32 5.32-4.16 1.5-2 .67-2 2-3.99 2.5-1 .17-3.16 0-3.33-.33-.67-1.16 3.99-5.16 3.33-6.49-.17-.5-2.99 2.66-3.33 3.16-1.16 1.33-2.99 5.16-4.16 3.16-.17-.33 1.16-2.99 0-2.33-1.5.83-2.83 1.83-4.16 2.5-.83.33-5.16 2.5-5.82.83-.5-.83 2-2.99 2.33-3.33.83-1.16 1.5-2.16 1.83-3.99-1.66.5-2.66 2.33-4.32 4.82-.67 1.16-3.66 5.49-5.16 3.49-1-1.33 1.5-4.16 1.5-5.66-2.33.67-3.99 3.33-6.15 5.16-2.5 2.16-6.15 3.66-5.49-1.16-1.5 1.16-2.83 2.99-4.49 4.82-1.5 1.66-3.66 3.33-4.82 4.99-2 2.66-3.49 6.15-5.49 9.31-3.99 6.49-7.32 12.31-11.48 18.46-1.33 1.83-4.99 7.98-6.99 7.82-2-.17-2.66-5.82-2.33-8.48 1.16-12.81 11.48-17.3 18.8-22.79 2-1.5 5.49-3.99 6.82-5.66 1-1.16 1.66-3.16 2.5-4.66 5.99-10.81 10.81-23.12 16.13-34.1-3.33 2.5-7.32 5.82-11.48 9.65-3.66 3.33-8.48 7.32-9.65 11.81-1.16 4.49 2.83 2.83 4.66 1 1.5-1.5 2.5-3.83 1.33-4.66 3.16.5 1.42 2.77.17 4.66-.74 1.12-1.5 2.33-2.5 2.99-2.99 2.16-6.82 1-5.99-3.49 1.16-5.99 7.15-10.81 11.81-14.64 4.99-4.16 10.98-7.49 13.81-12.14 1.16-1.83 3.16-9.48 5.99-8.98 3.49.67-.83 5.66-1.5 6.32-1.16 1.33-3.16 2.83-3.83 3.99-.83 1.16-1.33 2.99-2.16 4.66-4.82 11.14-9.98 23.45-15.47 33.43zm20.46-43.91c.33-1 1.83-1.66 1.33-2.99-.5.83-1.66 2-1.33 2.99zm15.14 10.48c.33-.67 3.49-6.65 1.66-7.15-.5-.17-1.83 1.16-2 1.5-4.66 5.66-8.48 16.63-11.81 22.79 4.32-5.16 8.82-10.65 12.14-17.13zm-21.62 24.62c1.16-.5-.5-2.5-1.16-1.66-.33.5.5 2 1.16 1.66zm-6.32 5.99c.5.5 2.33-1.16 2.66-1.5.33-.33 2-2 2-2.5 0-.33-1.83-1.66-1.5-2.5-.5.67-4.32 5.49-3.16 6.49zm-35.11 34.43c-.17 1.5-.17 5.49.67 5.82.67.17 2.16-2.33 2.83-3.16 6.49-7.98 12.14-16.8 17.47-25.62 0-.17 0-.5-.33-.33-6.82 6.99-19.3 10.31-20.63 23.29z"/><path d="m220.98 25.48c.5-1.33 2.33-1.33 3.49-2 2.5-1.33 5.32-3.49 6.15-7.49 1.83-8.48-7.32-2.33-9.48-.33-2.99 2.83-4.16 4.99-6.15 7.65-2 2.66-3.83 5.16-5.66 8.32-1.66 2.5-6.82 10.98-2 12.81 4.16 1.5 8.65-3.16 10.65-5.82.5-.67 2.99-4.66 4.16-3.83 1 .67-1.16 3.83-1.83 4.99-1 1.83-1.83 3.33-2.5 5.32 5.49-.67 11.14-1.5 17.13-1.66-4.49.83-8.65 1.33-13.47 2.16-.83.17-3.66.17-4.49.83-1 .83-1.83 4.32-2.66 6.15-2.33 5.66-3.83 9.98-6.32 15.97-.5 1.16-1 3.99-2.83 2.66-.5-.5 1.83-7.82 1.83-10.65-.17-3.49-2.16-4.99-4.49-6.65-1.16-.83-2.5-2-3.99-2-1.5-.17-4.66 1.83-6.32 2.66-1.5.67-7.98 3.99-8.48.33-.5-3.33 5.32-4.66 8.65-4.82 1.83-.17 3.99.33 5.82.17 1.5-.17 5.99-1.83 8.48-2.5 1.33-.33 2.66-.83 4.49-1.16 1.33-.33 3.83-.67 4.49-1 1-.67 1-2.66 1.83-3.66-2.83 1.5-5.99 6.15-11.48 4.66-1.33-.33-3.33-2.33-3.33-4.16-.17-3.83 2.5-8.48 4.16-11.31 3.66-6.15 7.82-11.98 12.97-16.97 2.66-2.5 6.99-6.49 10.98-4.82 5.82 2.5-.5 11.81-3.16 13.81-2 1.16-4.32 2.33-6.65 2.33zm-7.32 25.28c.5-1.16 1.83-3.83 1-3.66-4.49 1.16-9.31 2.33-13.47 4.16 4.82 2 7.98 5.32 7.82 11.31 1.16-3.83 2.99-7.98 4.66-11.81zm-20.63 1.5c0-.17.33-.33-.17-.33-2.16.83-4.99 1-6.32 2.66 2.33-.5 4.16-1.66 6.49-2.33z"/><path d="m262.03 80.2h-122.59c-.33 0-.67-.5-.33-.83.54-.63 1.22-1 2-1h122.42c.33 0 .67.5.33.83-.48.6-1.06 1-1.83 1z"/><path d="m166.06 95.01h-1v-8.98h1.16v3.16c.5-.67 1-.83 1.83-.83 1.38 0 2.66.67 2.66 3.16 0 .91-.23 3.49-2.83 3.49-.83 0-1.33-.33-1.83-1zm0-3.16c0 2.41 1.45 2.5 1.66 2.5.46 0 1.83-.29 1.83-2.5.03-1.35-.66-2.43-1.66-2.5-.33-.02-1.83.13-1.83 2.5zm5.99 5.82-.17-1s.5.16.67.17c.99.04 1.5-1.64 1.5-1.66l-2.5-6.49h1.16l1.33 3.83.5 1.5.5-1.5 1.33-3.83h1.16l-2.5 6.65c-.46 1.22-1.06 2.66-2.16 2.66-.36 0-.83-.33-.83-.33z"/><path d="m223.61 84.03h-3.33c-.33 0-.57.18-.67.5l-3.33 10.81h3.33c.33 0 .57-.18.67-.5zm21.46 0h-3.33c-.33 0-.57.18-.67.5l-3.33 10.81h3.33c.33 0 .57-.18.67-.5zm-28.11.83c-.5-.67-1.66-1-3.49-1 0 0-5.99 0-8.98 0-.33 0-.67.17-.67.5l-3.33 10.81h3.49c.33 0 .57-.18.67-.5l1.5-4.99.67 1c.17.17.33.33.67.33h3.33c3.99 0 5.96-1.51 6.65-3.83.3-1.01 0-1.66-.5-2.33zm-3.66 2.5c-.51 1.66-2.33 2.16-3.83 2.16h-3.16l.5-1.5.67-2.5h2.83c1.16 0 2.13.03 2.66.67.3.36.49.66.33 1.16zm33.43-3.16c-.33 0-.57.18-.67.5l-.33 1.16h5.32l-2.99 9.81h3.33c.33 0 .57-.18.67-.5l2.83-9.31h3.99c.33 0 .55-.09.83-.33l1.5-1.33zm-8.32.83c-.54-.63-1.66-1-3.49-1h-8.98c-.33 0-.57.18-.67.5l-3.33 10.81h3.49c.33 0 .57-.18.67-.5l1.66-5.49 3.49 5.49c.17.33.5.5 1 .5h3.99l-3.16-4.82c3.49-.17 5.11-1.18 5.82-3.33.28-.85-.04-1.63-.5-2.16zm-3.66 2.33c-.51 1.66-2.16 1.66-3.66 1.66h-3.16l1-3.49h2.83c1.16 0 2.13.03 2.66.67.3.36.49.66.33 1.16zm-39.09-3.33c-4.32 0-7.82 1.5-7.82 3.16 0 .83.82 1.7 2.33 2.33l3.99 1.66c.69.29 1 .67 1 1 0 .83-1.5 1.33-3.49 1.33h-4.99c-.33 0-.56.08-.83.33l-1.66 1.5h7.49c4.66 0 8.48-1.5 8.48-3.49 0-1-1-2-2.66-2.5-1.16-.35-3.66-1.41-3.99-1.5-.33-.08-1-.5-1-1 0-.67 1.5-1.33 3.16-1.33h5.16c.33 0 .55-.09.83-.33l1.5-1.33z"/></g></svg>