<svg viewBox="0 0 153 100" xmlns="http://www.w3.org/2000/svg" xmlns:xlink="http://www.w3.org/1999/xlink"><g id="figure"><g transform="scale(.1)" fill="#fff"><path d="m1456.1 20.2c30.7 0 53.9 25.2 53.9 54.7 0 30.5-23.9 54.4-53.9 54.4-31.1 0-54.4-25-54.4-54.4 0-30.1 24-54.7 54.4-54.7zm41.4 54.7c0-24.5-18.6-43.6-41.4-43.6-23.8 0-41.4 20.3-41.4 43.6 0 24.8 18.8 43.4 41.4 43.4 22.9 0 41.4-18.9 41.4-43.4zm-50.8 31.4h-12.7v-60.5c7.3-1.1 13.8-1.6 19.3-1.6 21.7 0 26.1 8.1 26.1 18 0 7.1-3.8 11.8-11.6 14v.6c5.4 1.1 8.6 5.9 9.6 14.6.8 6.9 2 11.8 3.1 14.9h-13.1c-1.1-1.5-2.2-6.5-3.6-15.6-1-6.2-4.7-9-11.3-9.1h-5.8zm0-34.6h6c8.9 0 13.2-3 13.2-8.8s-4.1-8.9-12.3-8.9c-3.6 0-6.5 0-6.9.1z"/><path id="a" d="m263.6 781.6c157.6 0 224.3-77.1 223.9-211.5-.2-74.2-24.9-168.1-109.2-184.7 49.5-18.9 83.1-66.1 82.5-150.4-1.3-171.5-94-215-190.6-215h-250.2v761.6zm16.2-527.1c0 56.7-42.3 53.1-75.4 53.1v-106.6c28.2-.1 75.4-3.2 75.4 53.5zm20.4 281c0 64.5-54.2 56.5-95.8 57.4v-122.2c40.3-.4 95.8-1.8 95.8 64.8z"/><use transform="translate(495)" xlink:href="#a"/><path d="m1011.5 781.3h371.4v-207.2h-177.5v-80.1h156.9v-193.9h-157.1v-72.7h173.1v-207.3h-366.8z"/><path id="b" d="m22 976.4h22.8c27.8 0 34.3-14.8 34.3-38.8 0-14.2-4.5-27.9-15.2-31.6 10.1-4.4 12.2-19.6 12.2-29.7 0-21-10.4-31.6-35.6-31.6h-18.5zm34.7-93.1c.2 12.2-2.7 15.5-16.2 13.8l.1-26.2c9.1.1 15.9.3 16.1 12.4zm-16 65.3-.2-27.3c12.9-1.4 19.5.5 19.5 13.6s-6.6 15.3-19.3 13.7z"/><path d="m113.1 975.8h18.6l.6-47.6 15.6 47.6h22.2l-18.7-51.8c14.2-11 15.5-17.6 15.5-35.3 0-34.4-11.4-43.8-29.8-43.8h-24zm18.8-103.1c8.6-.2 15.8-.1 15.8 16.4 0 15.8-5.6 17.8-15.8 17.8z"/><path d="m220.7 975.9v-131h-20.6v131z"/><path d="m253.4 876.2 16.2.6v99.1h19.3v-99.1l16.5-.6v-31.4h-52z"/><path id="c" d="m349.2 845.3-24.5 130.7 18.9-.1 4.5-23.1h26.6l5.2 23.1 18.9.1-24.5-130.7zm12.2 27.3 9.8 54.2h-17.8z"/><path id="d" d="m446.9 975.6v-81.8l32.1 81.9h19.6v-131h-18.9v84.4l-32.2-84.4h-19.9v130.9z"/><use transform="translate(108.8)" xlink:href="#d"/><path d="m665.9 975.9v-131h-20.6v131z"/><use transform="translate(370.8)" xlink:href="#c"/><use transform="translate(832)" xlink:href="#b"/><path d="m979.8 842.1c-19.7 0-40 25-39.8 66.6.1 35.2 13.7 70.7 39.8 70.7s39.7-35.5 39.8-70.7c.2-41.6-20.1-66.6-39.8-66.6zm0 30.2c12.4 0 20 21.6 20 36.4 0 16-7.4 40.6-20 40.6s-20-24.6-20-40.6c0-14.8 7.6-36.4 20-36.4z"/><path d="m1063.3 975.7 13.5-44.4 14.7 44.4h22.2l-25-65.3 22.6-65.6h-23.6l-10.9 37.7-10.4-37.7h-23.3l22.2 65.6-25.2 65.3z"/><path d="m1163.7 975.9v-131h-20.6v131z"/><use transform="translate(773.6)" xlink:href="#d"/><path d="m1344 900v27.8h19.4c-1 15.3-9.3 24.2-17.5 24.2-15.9-.1-19.3-31.2-19.3-38.8 0-29.3 9.9-41.3 18.3-41.4 7.6-.1 13.3 10.9 17.3 14.9l15.2-14.1c-3.5-17.2-18.3-30.5-33.2-30.5-23.6 0-37.1 33.4-37.2 68.2-.1 35.6 14.4 69.7 37.2 69.7 37.5 0 38.8-53.7 38.8-80z"/></g></g></svg>