<svg viewBox="0 0 82 100" xmlns="http://www.w3.org/2000/svg"><g transform="scale(.1)"><path d="m287 20c-6.1 0-14.7 2.6-22.5 10l-30.5 29c-11 10.4-16.5 22.5-18.8 28.3l-192.2 473.7c-3.9 9.7-4.4 15.8 1 23l18 24c7 9.4 9.2 9.1 25 1l129-66c9.6-4.9 17-11.5 20-19l65-165h179c17.5 0 24-5.2 38-14l157.9-99c7.3-4.6 14.7-15.2 17.1-21l60-147c2.1-5.3 3.5-11.9 3.5-17 0-18.3-13.9-41-44.2-41zm97 86h160l-68 170h-160z" fill="#8f8f8f"/><path d="m350.5 385c-6.1 0-14.7 2.6-22.5 10l-30.5 29c-11 10.4-16.5 22.5-18.8 28.3l-192.2 473.7c-3.9 9.7-4.4 15.8 1 23l18 24c7 9.4 9.2 9.1 25 1l129-66c9.6-4.9 17-11.5 20-19l65-165h179c17.5 0 24-5.2 38-14l157.9-99c7.3-4.6 14.7-15.2 17.1-21l60-147c2.1-5.3 3.5-11.9 3.5-17 0-18.3-13.9-41-44.2-41zm97 86h160l-68 170h-160z" fill="#161616"/></g></svg>