<svg viewBox="0 0 135 100" xmlns="http://www.w3.org/2000/svg"><g id="figure" fill="#fff"><path d="m90.8 2c.6.4 1.5.8 2.1 1.3.9.8 2 .8 3 1.1.5.1 1.2.3 1.7.4 1 .1 1.8.8 2.6 1.4 1.5 1.3 3 2.5 4.5 3.8.5.4 1 .6 1.5.8.3.1.4.3.6.4 1.2 1.2 2.3 2.5 3.6 3.6 1.8 1.5 3.6 3.1 5.4 4.5 3.5 2.7 7.2 5.3 10.7 8 .6.5 1.4 1 2.1 1.5.1.1.2.2.3.2 1.2.3 2 .9 2.8 1.9.5.8.9 1.5 1.3 2.4-1 .1-2.1.3-3.1.3-.1 0-.4-.2-.5-.3-.4-.5-.9-.9-1.3-1.4-.6.6-1.3 1.2-1.9 1.8.5.6 1 1.3 1.5 1.9 1.5 1.8 3 3.7 4 5.8.5 1 .9 2 .9 3.2 0 .9-.5 1.3-1.4 1.2-.8-.1-1.4-.4-2-.8-1.8-1-3.6-2.1-5.4-3.1-1.5-.8-3-1.5-4.7-1.9-1.3-.3-1.4-.9-.5-1.8.4-.4.8-.9 1.2-1.3.5-.6.5-1 0-1.5-.9-1-1.7-2.1-2.7-3-4.1-4-8.5-7.7-13-11-.5-.4-1-.6-1.6-1-.1-.1-.4-.3-.5-.6-.8-1.3-.8-1.3-2.2-1-5 .8-9.6 2.4-14 5-.6.4-1.3.8-1.8 1.2-.8.6-1.7.9-2.6 1.3-1.5.6-2.9 1.5-4.3 2.4-.8.5-1.7 1-2.5 1.5-.9.5-1.5 1.2-1.7 2.3-.1.6-.5 1.3-1.1 1.6-1 .5-2.1 1-3.1 1.5-.8.4-1.6.8-2.4 1.1-.4.1-.4.3-.3.7.3.9.7 1.2 1.6 1.2s1.6.1 2.5.5c.5.3 1.3.4 1.8.4 1.9 0 3.9-.1 5.8-.2 1.5-.1 3.1-.2 4.5-.5 1.7-.4 3.4-.3 5.1-.6 5.8-.5 11.5-.5 17.3-.5 1.5 0 3 .4 4.4.9 5.8 1.8 11.3 3.9 16.6 6.9 1.9 1 3.9 2.2 5.4 3.6.5.5 1.1 1.2 1.5 1.7.6 1 .4 1.8-.6 2.4h-.2c-.9.5-1 .6-1.8-.2-.1-.1-.3-.5-.4-.6l-.1.2.1 40.1c-1.6-2-3.7-3.6-6-4.6-.3-.1-.3-.2-.3-.5v-34.1c0-1.3-.6-2.3-1.7-2.1-.8.1-1.3.7-1.3 1.3v28.2l-6.4-1.9v-25.7c0-1.5-1-2.1-1.8-1.9-.9.3-1.4.8-1.4 1.7l.1 25-6-1.1c-.3 0-.4-.1-.4-.4v-23.6c0-1.4.3-2.7.9-3.9.9-1.4 2-2.4 3.7-2.9 2.2-.8 4.2-.8 6.4.1.6.3 1.4.7 2 1.1.6-.4 1.3-.9 1.9-1.4-.1 0-.3-.1-.4-.1-3.6-1-7.2-2.1-10.9-3.1-1-.3-2.2-.4-3.2-.5-1.8-.1-3.7-.3-5.5-.4-1.5-.1-3-.1-4.5-.2-1.3 0-2.6-.2-3.9-.2-1.4 0-2.8.3-4.1.4-2.1.3-3.9.6-6 1-.5.1-1.1 0-1.6 0-1.4-.1-2.9-.1-4.3.2-1.3.3-2.6.4-3.8.7-.4.1-.8.4-1.2.7s-.8.2-1.2.1c-.8-.3-1.5-.7-2.3-.8-2.2-.5-4.3-.3-6.4.6-1.4.5-2.4 1.4-3.2 2.6-.3.4-.7.8-1.1 1.2s-.5.3-.9 0c-.3-.4-.6-.6-.9-1-.9-1.5-2.3-2.5-4.1-3-1.5-.4-3-.8-4.7-.5-2.1.2-3.7 1.2-5.4 2.3-.5.3-.9.3-1.3-.2-.8-.9-1.6-1.4-2.7-1.7-1.4-.3-2.8-.1-4.1.3-.9.3-1.8.6-2.7.9-1.5.4-3.1.2-4.5-.6s-2.7-1.5-4.1-2.3c-.8-.4-1.6-.7-2.2-1.1-1.7-.8-3.3-.7-5-.3-3.2.7-8.6 2.7-8.6 2.7.3-1 .3-2.2.8-3.1.3-.4.6-.6.9-.9.1-.1.3 0 .4 0 .5.1 1 .2 1.4-.1 1.4-.8 2.7-1.7 4.2-2.4 1-.5 2.2-.3 3.2-.2 3.2.6 6.2 1.9 9.3 2.9.8.3 1.4.3 2.2.3.6 0 1.3.1 1.9 0 2.3-.3 4.4-.6 6.5-2 .1-.1.3-.3.4-.3.8-.6 1-1 .7-1.9-.3-.8-.9-1.3-1.7-1.3h-1.7c-1.2 0-1.4-.8-1.5-1.6 0-.3-.2-.5-.3-.6-1.8-1.3-3.6-2.5-5.4-3.8-2.8-2.1-5.6-4.1-8.4-6-.5-.4-1.2-.7-1.8-1.1-.8-.5-1.7-.3-2.3.2s-1.2 1-1.7 1.6c-.8 1-1.4 2.1-2.2 3.1-.3.4-.6.8-1 1.2-.9.8-1.1 1.8-1 3 .1 1.4.4 2.9.5 4.4.1.6 0 1.3-.4 1.9-.3.5-.7.8-1.3.8-.3 0-.4-.1-.4-.4-.1-1.8-.8-3.5-1.4-5-.6-1.8-1.3-3.6-1.9-5.4-.1-.5-.3-1.2-.4-1.8v-1c.1-.4.2-.8.3-1.2 1 .1 1.8-.2 2.7-.7.8-.5 1.5-1 2.1-1.8-.3 0-.3.1-.6.2s-.6.3-.9.4c-.4.1-.8-.1-.9-.5s-.2-.6.1-.9c.1-.1.3-.3.4-.4 1.5-1.7 3.4-3 5.3-4.3 1-.8 2-1.6 3.2-2.2.4-.3.5-.4.6-.8 0-.1 0-.3.1-.4.3-.9.4-1.9.7-2.8.1-.8.3-.8.9-.5 0 0 1.7.4 6.3 3.8 3.1 2.2 6 4.5 9.1 6.8 1.9 1.4 3.8 2.8 6 3.8.9.4 1.8.6 2.7.6.1 0 .4 0 .5-.1.3-.4.7-.6 1.2-.7 2.2-.4 4.2-.5 6.4.3.8.3 1.4.5 2.2.5 1.3.1 2.4 0 3.7-.4 2.3-.6 4.5-1.6 6.7-2.8 4.1-2.2 8-4.7 11.9-7.3 3.6-2.4 7.2-4.9 10.8-7.3 1-.6 2.2-1.3 3.2-1.8 1.4-.5 2.8-1 4.2-1.4-.4-.3-.2-.3-.1-.3z"/><path d="m9.7 63.2h1.3c.5 0 .9-.3.9-.8v-10.5c-.1-.5-.6-.6-1-.6h-2.2v35.9c0 .4-.1.6-.4.7-3.6 1.3-5.7 4.5-5.8 4.6v-46.9h9.9c1.3 0 2.5.3 3.5 1.1 1.4.9 1.8 2.2 2.1 3.7.1 1 .2 1.9.2 2.9v9c0 1.2-.2 2.2-.7 3.2-.6 1.4-1.7 2.5-3.2 3s-3.1.4-4.6.4z"/><path d="m19.8 47.2h6.3v29.8c-2.1.5-4.2.9-6.3 1.4z"/><path d="m35.6 75.5c-2.1.3-4.2.6-6.3.9v-7c0-.5 0-.5-.5-.5h-1.5v-5.2c0-.3.1-.4.4-.4h1.6v-15.7c0-.4.1-.4.4-.4h5.9z"/><path d="m54 74c-2.2.1-4.3.3-6.4.4v-5.1c0-.3-.1-.4-.4-.4h-1.8v-5.6h1.8c.3 0 .4 0 .4-.3v-9.9c0-1.6-1.3-1.9-1.6-1.9-.7 0-1.8.4-1.8 2v21.6c-2.2.3-4.2.3-6.3.6v-22.3c0-5.8 4.5-7.6 8.3-7.6 3.9 0 7.8 2.6 7.8 7.5z"/><path d="m62.7 73.7c-2.2 0-4.4.2-6.5.2v-21.6c0-4.5 3.6-7 8.2-7 5.9 0 7.9 4.7 7.9 10.1v18.5h-6.4v-20.7c0-1.2-.5-2-1.7-2-1.1 0-1.5.9-1.5 1.9z"/><path d="m82.1 74.3c-2.2-.1-4.2-.3-6.3-.3v-23.7c0-.5 0-.6-.5-.6h-1.7c-.1 0-.4-.2-.4-.3l-2.4-4.4h16.5l-2.6 4.4c-.1.3-.4.3-.7.3h-1.9z"/><path d="m101.3 68c0 5.7-4.5 7.8-7.8 7.8-2.6 0-7.9-2.3-7.9-7.8v-15.6c0-4.4 3.2-7 7.9-7 5 0 7.8 3.1 7.8 7zm-9.3.5c0 .8.6 1.5 1.5 1.5.8 0 1.4-.6 1.4-1.5v-16.2c0-.8-.6-1.6-1.4-1.6-1 0-1.5.8-1.5 1.6z"/><path d="m12 98v-2.4c0-.3.1-.4.4-.4.5 0 .7-.3.8-.8.9-4.1 1.9-8.1 2.8-12.2 0-.3.1-.3.4-.4 1.5-.3 3-.6 4.5-1 .9 3.8 2 7.6 2.9 11.4.1.3.3.4.5.3.1 0 .3 0 .5-.1v2.6c-1.8.4-3.5.7-5.3 1.1v-2.7c.3-.1.6-.2.9-.3-.1-.4-.2-.6-.3-1 0-.1-.3-.1-.3-.1-1 .1-1.9.3-2.8.6-.1 0-.2.2-.2.3-.1.4-.2.7-.3 1.1.4 0 .6-.1 1-.1v2.7c-.9.1-1.7.4-2.5.6-1.2.4-2.1.6-3 .8zm7.3-8.3c-.4-1.3-.6-2.4-.9-3.6h-.1c-.3 1.3-.6 2.6-.9 3.9.6-.1 1.3-.2 1.9-.3z"/><path d="m31.4 91.5h.9v2.4c-1.7.4-3.6.6-5.4.9v-2.7c.3 0 .6-.2.9-.3v-9.5c-.3 0-.5.2-.9.2-.1 0-.1.1-.1.2v.7c0 .3-.1.4-.4.4-1 .1-2.1.4-3.1.5v-4c4.1-.6 8.2-1.3 12.3-1.9v3.9c-1.2.1-2.2.5-3.4.6v-1.3c-.4 0-.7.1-1.1.1.3 3.3.3 6.6.3 9.8z"/><path d="m37.3 93.4v-2.7c.3 0 .5 0 .6-.1.1 0 .4-.2.4-.3v-9.2c-.4 0-.6 0-1 .1v-2.3c0-.3 0-.4.3-.4 1.7-.2 3.4-.3 5.1-.5v2.7c-.3 0-.6.1-.9.1v3.3c1.3-.1 2.6-.2 4-.3v-3.5c-.3 0-.6 0-.9.1v-2.7c1.8-.1 3.6-.3 5.4-.4v2.7h-.7c-.3 0-.4 0-.4.3v9.2h1.1v2.7c-1.8.1-3.6.3-5.4.4v-2.7c.3 0 .6-.1.9-.1v-3.5c-1.3.1-2.6.3-4 .4v3.3h.9v2.7c-1.8.3-3.6.6-5.4.7z"/><path d="m51.8 92.1v-2.7c.3 0 .6 0 .9-.1v-9.5h-.9v-2.7l5.4-.3v2.7c-.3 0-.6 0-.9.1v9.3c0 .3.1.4.4.4h2.3v-1.3h3.4v3.8c-3.6-.1-7.1 0-10.6.3z"/><path d="m63.9 88.9h1v-9.1c0-.4-.1-.5-.5-.5h-.5v-2.7c3.7 0 7.3.1 11 .1v4h-3.5v-.9c0-.3.1-.3-.2-.3h-2.6c-.1 0-.2.2-.2.3v3.2h4.7v2.8h-4.7v3.5h2.9c.1 0 .3-.2.3-.3v-.9h3.4v4c-3.7 0-7.3-.1-11-.1-.1-1.3-.1-2.2-.1-3.1z"/><path d="m80.9 79.8c-.3 0-.6 0-1-.1v1.2c-1.2 0-2.3-.1-3.5-.1v-4c4.1.3 8.3.6 12.5.9v4c-.3 0-2.9-.3-3.1-.3s-.2-.1-.2-.3v-.6c-.3-.2-.6-.1-1.1-.2v9.5c.4 0 .7.1 1.1.1v2.7c-1.8-.1-3.6-.3-5.4-.4v-2.7h.7c.1 0 .3 0 .3-.3z"/><path d="m95.8 90.8v2.7c-1.8-.3-3.6-.3-5.4-.6v-2.7c.3 0 .6 0 .9.1v-9.5c-.3 0-.6-.1-.9-.1v-2.7c1.7.1 3.5.3 5.2.5.3 0 .3.1.3.4v2.3c-.4 0-.6 0-1-.1v9.1c0 .4.1.5.4.5.1.1.4.1.5.1z"/><path d="m108 84.4c-1.2-.3-2.3-.3-3.3-.6v-1.1c0-.1-.2-.2-.2-.2-1.3-.3-3.2-.5-3.7-.5v9.1c0 .4.1.5.4.5 1.4.2 2.5.5 3.3.5v-1.2c1.2.3 2.4.4 3.4.7v2.3c0 .1-.1.3-.1.3-.6.4-1.4.7-2 1-.3.1-.6-.1-1-.2-1.7-.3-3.3-.4-5-.7-.1 0-.4-.2-.5-.3-.5-.5-1.2-1-1.7-1.4-.1-.1-.3-.2-.3-.5v-11.3c0-.3.2-.4.3-.5.5-.3 1.2-.6 1.7-.9.3-.1.5-.1.8-.1 1.8.3 3.5.6 5.3.9.1 0 .3.1.4.1.6.5 1.4 1.2 2 1.8.1 0 .1.1.1.2.1.5.1 1.3.1 2.1z"/><path d="m119.8 86.8c-.8-.1-1.6-.4-2.2-.5h-.1c-.4-.1-.8.1-.9-.2-.1-.1 0-.6-.1-.9 0-.1-.1-.3-.1-.3-1.2-.3-2.2-.5-3.4-.8v3.2c0 .1.2.3.3.3 1.4.3 2.8.6 4.1.9.3 0 .3.1.6.4.6.5 1.2 1.1 1.7 1.7.1.1.1.2.1.3v5.3c0 .3.1.3-.2.4-.4.1-.8.2-1.1.5-.5.4-1.2.4-1.8.3-1.7-.4-3.1-.8-4.8-1.1-.1 0-.3-.1-.4-.1-.6-.5-1.4-1.2-2-1.7-.1-.1-.1-.2-.1-.2v-2.3c1.2.3 2.3.5 3.5.6v1.3l3.5.8v-3.4c-.4-.1-1-.2-1.5-.2-1-.3-2-.4-3-.7-.1 0-.3-.1-.4-.1-.6-.5-1.3-1.2-1.8-1.7-.1-.1-.3-.2-.3-.5v-5.1c0-.3.2-.4.3-.5.5-.3 1.1-.6 1.6-.9.1-.1.5-.2.6-.2 1.8.4 3.6.8 5.5 1.2.1 0 .3.2.4.3.6.5 1.2 1.1 1.8 1.6.1.1.2.4.2.5z"/></g></svg>