<svg viewBox="0 0 353 100" xmlns="http://www.w3.org/2000/svg"><g id="figure"><g fill="#fff" transform="scale(.1)"><path d="m20 20v124.6l45.1 4.1v690.8l-45.1 10.8v129.7l270-79c93.1-27.2 106.2-113.7 106.2-245.9 0-147.2-7.4-158.3-69.5-198.7 71.1-36.1 68.6-114.3 69.5-183.1 1.3-99.5-8.2-197.3-116.7-213.8zm128.5 144.4 94.1 6.9c67.6 5 69.4 36.7 67.9 119.5-1.7 94-3.4 111.8-66.1 113.8l-95.9 3.1zm159.2 494.6c-.3 78.3 2.9 127-48.7 137.9l-113.9 24.1v-299.5l110.5-8.9c47.3-3.8 52.6 33.9 52.1 146.4z"/><path d="m416.2 310v403.1c0 59.4 16.4 151.2 90.7 138.4l118.7-20.5c81.3-14 129-70.5 129-140.7v-425.4c0-55-8.1-147.1-95.4-158.2l-117.1-14.9c-136.9-17.4-125.9 128-125.9 218.2zm196.4-116.2c42.6 2.9 55.9 22.1 55.9 71.1v400.2c0 44.5-21.9 60.9-64.5 68.8l-67.6 12.5c-39.5 7.3-41-34.6-41-78.2v-355.1c0-75.8 7.1-126.9 50.5-123.9z"/><path d="m869.7 126.7 81.8 226.6 92.1-215.1 94.8 6.7v80.7l-38.4-.5-95.9 217.2c-4.9 11.2-.2 20.3 4.3 30.6l91.6 210.2 41-1v81.5l-100.8 9.7-86.4-220.7-96.1 241.2-97.7 11.1v-89.5l40.7-5.4 99-241.8c2.6-6.2 6.1-12.7 3.4-19.5l-92.6-235.6-41.3-3.6v-90.8z"/><path d="m1156.1 145.6v79.5l43.5 2.8-6 451.1-43.9 4.1v78.7l269.8-15.9c98.3-5.8 116.5-62.7 117.4-158 1.2-126.2-7.5-122.8-71-154.6 63.7-26.2 70.2-37.1 70.7-137.1.6-119.8-52.7-138.5-158.9-142.4zm242.9 87.5c43.6.9 52 26.9 51.5 69.2-1 78.3-8.8 95.4-47.2 95.4h-116.9v-166.9zm4.3 241c42.5-.2 46.9 32.9 47.2 103.1s-9.2 90.6-56.9 92.3l-107.2 3.8v-198.7z"/><path d="m1713.3 156.7c-49.7-.9-115.1 8-115.1 134.3v278.2c0 87.1-2.8 173.6 111 173.6h124.9c96.9 0 107.9-82.1 107.9-119.2v-329.8c0-119.9-54.4-133.9-119.2-135.1zm73.1 75.4c41.4 0 67.9 7.2 67.9 55.1v301c0 47.1-6.9 72.6-45.9 72.6h-83.3c-26 0-39.5-11.9-39.5-56.4v-294.4c0-71.3 11.9-77.9 65.1-77.9z"/><path d="m2152.5 146.9v79.3l-43.6 5.6.1 436.9c39.9 1.5 81.7 3.1 123.5 4.6v-118.9l79.3.7v202.1c-110-6.2-219.6-13.2-330-16.7v-78.4l45.6-1.8-1.5-429.8-46.7-1.8v-77.2z"/><path d="m2500.7 138.7v83.9l-41.7.5v464.8l123.3 10.6v-131.1l77.9 6.2v220.8c-109.7-13.3-217.3-23.7-328.9-32.6v-79.7l45.1 1-.9-455.2-48.6.8v-79.7z"/><path d="m3047.7 88.2-1.1 223.1-82.8.5v-115.4l-144.8 9.5v204.1l159.7 3.3v99.5l-159.7-5.9v216.4l154.3 18v-135.7l80.3 7.2v242.8c-116.2-22.3-235.5-42.1-358.5-58.9v-90l40.5 2.5v-500.7l-44.6 1.3v-88c120.8-10.3 238.5-22 356.7-33.6z"/><path d="m3510 148.5-44.9 4.3v816.2l-78.7-24.4-202.6-673.8v621.2l-117.7-26.9v-100.5l40.3 4.4v-578.5l-44.1 2.1v-109.5l137.7-18.2c86.3 258.3 152.6 478.7 188.4 640v-667l121.6-17.2z"/></g></g></svg>