<svg viewBox="0 0 140 100" xmlns="http://www.w3.org/2000/svg"><clipPath id="a"><path d="m480 14.4v169.3l440-159.1v-10.2zm440 40.6-440 159.1v46.3l440-159.1zm0 76.7-440 159.1v163.6h440z"/></clipPath><g id="figure"><g fill="#fff" transform="scale(.1)"><path clip-path="url(#a)" d="m700 20c-118.4 0-214.4 96-214.4 214.4s96 214.4 214.4 214.4 214.4-96 214.4-214.4-96-214.4-214.4-214.4zm134.8 289.6c-29.7 48.4-79 76-148.8 76.1-18 0-22.1-29.3 5.2-29.6 64.2-.6 95-24.1 123-67.8 10-15.7 36.5-4.7 20.6 21.3z"/><path d="m20 522.3v48.6l17.6 1.6v269.4l-17.6 4.2v50.6l105.3-30.8c36.3-10.6 41.4-44.3 41.4-95.9 0-57.4-2.9-61.7-27.1-77.5 27.7-14.1 26.7-44.6 27.1-71.4.5-38.8-3.2-77-45.5-83.4zm50.1 56.3 36.7 2.7c26.4 1.9 27.1 14.3 26.5 46.6-.7 36.7-1.3 43.6-25.8 44.4l-37.4 1.2zm62.1 189c-.1 30.5 1.1 53.4-19 57.7l-44.4 9.4v-116.8l43.1-3.5c18.5-1.5 20.5 9.3 20.3 53.2z"/><path d="m174.5 635.4v157.2c0 23.2 6.4 59 35.4 54l46.3-8c31.7-5.5 50.3-27.5 50.3-54.9v-165.9c0-21.5-3.2-57.4-37.2-61.7l-45.7-5.8c-53.4-6.8-49.1 49.9-49.1 85.1zm76.6-45.3c16.6 1.2 21.8 8.6 21.8 27.7v156.1c0 17.4-8.5 23.7-25.1 26.8l-26.4 4.9c-15.4 2.8-16-13.5-16-30.5v-138.5c0-29.5 2.8-49.5 19.7-48.3z"/><path d="m351 563.9 31.9 88.4 35.9-83.9 37 2.6v31.5l-15-.2-37.4 84.7c-1.9 4.4 0 7.9 1.7 11.9l35.7 82 16-.4v31.8l-39.3 3.8-33.7-86.1-37.5 94.1-38.1 4.3v-34.9l15.9-2.1 38.6-94.3c1-2.4 2.3-4.9 1.3-7.6l-36.1-91.9-16.1-1.4v-35.4z"/><path d="m462 571.3v31l16.9 1.1-2.3 175.9-17.1 1.6-.1 30.7 105.3-6.2c38.3-2.3 45.4-24.4 45.8-61.6.5-49.2-2.9-47.9-27.7-60.3 24.8-10.2 27.4-14.5 27.6-53.5.2-46.7-20.6-54-62-55.5zm94.7 34.1c17 .3 20.3 10.5 20.1 27-.4 30.5-3.4 37.2-18.4 37.2h-45.6v-65.1zm1.7 94c16.6-.1 18.3 12.8 18.4 40.2s-3.6 35.3-22.2 36l-41.8 1.5v-77.5z"/><path d="m679.3 575.6c-19.4-.4-44.9 3.2-44.9 52.4v108.5c0 34-1.1 67.7 43.3 67.7h48.7c37.8 0 42.1-32 42.1-46.5v-128.6c0-46.8-21.2-52.2-46.5-52.7zm28.5 29.4c16.2 0 26.5 2.8 26.5 21.5v117.4c0 18.4-2.7 28.3-17.9 28.3h-32.5c-10.1 0-15.4-4.7-15.4-22v-114.8c0-27.8 4.6-30.4 25.4-30.4z"/><path d="m850.6 571.8v30.9l-17 2.2v170.4c15.6.6 31.9 1.2 48.2 1.8v-46.4l30.9.3v78.8c-42.9-2.4-85.6-5.1-128.7-6.5v-30.6l17.8-.7-.6-167.6-18.2-.7v-30.1z"/><path d="m986.4 568.6v32.7l-16.3.2v181.3l48.1 4.1v-51.1l30.4 2.4v86c-42.8-5.2-84.8-9.1-128.3-12.6v-31.1l17.6.4-1.1-177.5-18.2.3v-31.1z"/><path d="m1199.7 548.9-.4 87-32.3.2v-45l-56.5 3.7v79.6l62.3 1.3v38.8l-62.3-2.3v84.4l60.2 7v-52.9l31.3 2.8v94.7c-45.3-8.7-91.8-16.5-139.8-23v-35.1l15.8 1v-195.3l-17.4.5v-34.3c47.1-4 93-8.6 139.1-13.1z"/><path d="m1380 572.4-17.5 1.7v318.3l-30.7-9.5-79-262.8v242.3l-45.9-10.5v-39.2l15.7 1.7v-225.6l-17.2.8v-42.7l53.7-7.1c33.6 100.7 59.5 186.7 73.5 249.6v-260.1l47.4-6.7z"/><path d="m287.7 979.3h10.4l-9.8-14.5c5.2-1.9 8.7-6 8.7-12.6v-.1c0-8.4-5.7-13.6-15.3-13.6h-18.6v40.8h8.8v-12.9h7.2zm.2-26.7v.1c0 3.4-2.5 5.8-6.9 5.8h-9.1v-11.7h9c4.4 0 7 2 7 5.8z"/><path d="m317 979.3h31v-7.9h-22.1v-8.5h19.1v-7.9h-19.1v-8.3h21.7v-7.9h-30.6z"/><path d="m376.9 946.9h22v-8.1h-31v40.5h9v-15.7h19.4v-8.1h-19.4z"/><path d="m418 979.3h29.2v-8h-20.2v-32.5h-9z"/><path d="m466 979.3h30.9v-7.9h-22.1v-8.5h19.2v-7.9h-19.2v-8.3h21.8v-7.9h-30.6z"/><path d="m542.2 979.3h10.5l-14.2-20.7 13.6-19.8h-10.2l-8.6 13.1-8.5-13.1h-10.4l13.6 19.9-14.2 20.6h10.1l9.2-13.9z"/><path d="m635.3 968.1c0-5.5-2.9-8.2-7.6-10 2.9-1.6 5.3-4.1 5.3-8.7v-.1c0-6.4-5.1-10.5-13.4-10.5h-18.9v40.5h19.4c9.2 0 15.2-3.7 15.2-11.1zm-11.1-17.3v.1c0 3-2.6 4.3-6.5 4.3h-8.3v-8.6h8.9c4 0 5.9 1.6 5.9 4.2zm2.2 16.3c0 3-2.4 4.4-6.3 4.4h-10.7v-8.9h10.4c4.6 0 6.6 1.7 6.6 4.4z"/><path d="m696 959.1v-.2c0-11.5-9-20.8-21.5-20.8s-21.6 9.4-21.6 20.9v.5c0 11.5 9 20.5 21.5 20.5s21.6-9.4 21.6-20.9zm-9.3 0v.1c0 7-5 12.7-12.2 12.7s-12.2-5.9-12.2-12.9v-.1c0-7 4.9-12.7 12.1-12.7s12.3 5.9 12.3 12.9z"/><path d="m738.5 979.3h10.5l-14.2-20.7 13.6-19.8h-10.2l-8.6 13.1-8.5-13.1h-10.4l13.6 19.9-14.2 20.6h10.1l9.2-13.9z"/><path d="m768 979.3h9v-40.5h-9z"/><path d="m827.6 979.3h7.6v-40.5h-8.8v25l-19.1-25h-8.1v40.5h8.8v-25.8z"/><path d="m893.9 973.6v-17.6h-17.7v7.7h9.1v5.8c-2.3 1.6-5.3 2.5-8.5 2.5-7.2 0-12.2-5.6-12.2-13v-.1c0-6.9 5.1-12.7 11.6-12.7 4.7 0 7.5 1.6 10.6 4.2l5.6-6.8c-4.2-3.6-8.6-5.5-15.9-5.5-12.3 0-21.3 9.4-21.3 20.9v.2c0 12 8.8 20.8 21.4 20.8 7.4 0 13.1-2.9 17.3-6.4z"/><path d="m978.5 968.1c0-5.5-2.9-8.2-7.6-10 2.9-1.6 5.3-4.1 5.3-8.7v-.1c0-6.4-5.1-10.5-13.4-10.5h-18.9v40.5h19.4c9.2 0 15.2-3.7 15.2-11.1zm-11.1-17.3v.1c0 3-2.6 4.3-6.5 4.3h-8.3v-8.6h8.9c4 0 5.9 1.6 5.9 4.2zm2.2 16.3c0 3-2.4 4.4-6.3 4.4h-10.6v-9h10.3c4.6 0 6.7 1.7 6.7 4.4z"/><path d="m1028.1 979.3 9.3-.1-17.3-40.8h-8.3l-17.5 40.9h9.2l3.7-9h17.2zm-12.4-30.1 5.5 13.1h-10.8z"/><path d="m1055.8 979.3h29.1v-8h-20.2v-32.5h-8.9z"/><path d="m1103.6 979.3h29.2v-8h-20.2v-32.5h-9z"/></g></g></svg>