<svg viewBox="0 0 334 100" xmlns="http://www.w3.org/2000/svg"><g fill="#fff"><path d="m2 98v-61h22.7v54.5c0 3.6-2.9 6.5-6.5 6.5zm22.7-96h-22.7v22.2h22.7z"/><path d="m102.9 24.7v-22.7h-34.2c-15.7 0-28.4 12.7-28.4 28.4v67.6h16.2c3.6 0 6.5-2.9 6.5-6.5v-24.2h32.3v-18.6h-32.3v-14.9c0-5 4.1-9.1 9.1-9.1z"/><path d="m141.3 2h-22.6v96h16.2c3.6 0 6.4-2.9 6.4-6.5"/><path d="m234.1 24.7v-22.7h-77.1v22.7h27.2v73.3h16.2c3.6 0 6.5-2.9 6.5-6.5v-66.8z"/></g><g fill="#0091da"><path d="m294.9 42.1-40.1-40.1h27.8c2.8 0 5.5 1.1 7.5 3.1l8.7 8.8c3.1 3.1 5 7.2 5 11.6 0 1.8-.6 9.8-7.4 16.6-.2.2-.4.3-.7.3s-.6-.1-.8-.3z"/><path d="m315.8 30.8c-.6-.6-1.2-.7-1.6-.7-1.3 0-2.3.9-2.5 2.1-.9 6.6-4 12.9-8.7 17.6l-48.2 48.2h27.8c2.8 0 5.5-1.1 7.5-3.1l39.7-39.8c1.4-1.4 2.2-3.2 2.2-5.1s-.8-3.7-2.2-5.1z"/></g></svg>