<svg viewBox="0 0 1184 100" xmlns="http://www.w3.org/2000/svg" xmlns:xlink="http://www.w3.org/1999/xlink"><g id="figure" fill="#fff"><path d="m77.9 2-5.2 29.3-2.6 20.6-23.7-49.9h-28.2l-16.2 93.8h28.6l5.2-28.9 2.7-23.3 23.7 52.2h28.2l16.1-93.8z"/><path d="m144.5 27.5c-22.6 0-40.2 12.8-44 36-.5 2.6-.7 4.9-.7 7.2-.1 18.1 13.7 27.3 32.7 27.3 21.4 0 39.8-11.2 44.3-35.6.4-2.4.6-4.8.6-7 0-17.1-11.9-27.9-32.9-27.9zm5.6 34.5c-2.3 12.4-7.5 18-14.6 18-6.8 0-10.6-5.6-8.3-18 1.5-7.5 5.7-16.9 14.7-16.9 6.8-.4 10.1 7.2 8.2 16.9z"/><path id="a" d="m234.7 27.9c-1.1 0-2.2-.4-3.3-.4-10.2 0-17.8 4.9-23.4 15.4h-.3l2.2-13.5h-24l-11.7 66.4h26.3l4.2-22.9c2.6-14.2 9-19.5 19.5-19.5 1.9 0 3.8.3 5.3.7z"/><path d="m289.6 2-6 34.1c-4.5-6.7-9.8-8.6-18.4-8.6-15.8 0-30.8 14.3-34.6 36.4-.5 3-.8 5.8-.8 8.5 0 14.5 8.1 25.2 25.2 25.2 8.6 0 14.7-2.5 22.6-10.8l-1.5 9h23.7l16.5-93.8zm-24.4 76.5c-8.6 0-9-8.3-7.9-15 1.1-7.5 5.3-15.8 13.9-15.8s9.8 8.3 8.5 15.8-5.5 15-14.5 15z"/><path d="m321.6 29.4-11.7 66.4h26.7l11.7-66.4z"/><path id="b" d="m375 63.5c1.5-7.9 4.8-18 14.6-18 3 0 4.9.7 6.4 2.6 1.5 1.5 1.9 4.2 1.5 6.8h26.7c.1-1 .1-2 .1-3-.1-17.3-15-24.4-31.7-24.4-22.2 0-40.2 13.1-44.3 35.6-.5 2.4-.7 4.8-.7 7 0 18 13.5 27.5 32.6 27.5 18.4 0 36.2-7.4 41.8-27.7h-26.3c-1.9 5.3-5.3 10.1-12.6 10.1s-10-6.8-8.1-16.5z"/><path d="m508.4 2h-105.6l-3.8 20.6h38l-12.8 73.2h29.7l13.2-73.2h37.6z"/><use transform="translate(293.9)" xlink:href="#a"/><path d="m568.5 27.5c-26.3 0-37.9 8.3-40.2 22.5h25.5c1.5-5.6 6.8-6.4 10.6-6.4 2.6 0 8.6.8 7.5 5.7-2.3 12.4-47.3-1.2-52.6 28.8-.3 1.5-.5 2.9-.5 4.2 0 10.9 9.4 15.7 20.8 15.7 9.8 0 18.1-1.9 26.7-9v7.1h27.4l.4-1.1c-3-2.6-2.7-4.8-1.9-8.6l5.6-31.1c.5-3.4.9-6.7.9-9.7 0-10.9-5.3-18.1-30.2-18.1zm-14.3 55.1c-5.3 0-7.9-2.2-7.5-5.6 1.5-8.6 12.8-6.7 22.2-10.9-1.1 9.4-5.3 16.5-14.7 16.5z"/><use transform="translate(252.2)" xlink:href="#b"/><path d="m730.2 29.4-20.7 20.2 8.3-47.6h-26.4l-16.5 93.8h26.3l3.4-18.4 6-4.9 9.8 23.3h32l-20.7-40.5 29.3-25.9z"/><path d="m800.1 33v13h-13v12h13v13h12v-13h13v-12h-13v-13z"/><path d="m852 98v-61h22.7v54.5c0 3.6-2.9 6.5-6.5 6.5zm22.7-96h-22.7v22.2h22.7z"/><path d="m952.9 24.7v-22.7h-34.2c-15.7 0-28.4 12.7-28.4 28.4v67.6h16.2c3.6 0 6.5-2.9 6.5-6.5v-24.2h32.3v-18.6h-32.3v-14.9c0-5 4.1-9.1 9.1-9.1z"/><path d="m991.3 2h-22.6v96h16.2c3.6 0 6.4-2.9 6.4-6.5"/><path d="m1084.1 24.7v-22.7h-77.1v22.7h27.2v73.3h16.2c3.6 0 6.5-2.9 6.5-6.5v-66.8z"/><path d="m1144.9 42.1-40.1-40.1h27.8c2.8 0 5.5 1.1 7.5 3.1l8.7 8.8c3.1 3.1 5 7.2 5 11.6 0 1.8-.6 9.8-7.4 16.6-.2.2-.4.3-.7.3s-.6-.1-.8-.3z"/><path d="m1165.8 30.8c-.6-.6-1.2-.7-1.6-.7-1.3 0-2.3.9-2.5 2.1-.9 6.6-4 12.9-8.7 17.6l-48.2 48.2h27.8c2.8 0 5.5-1.1 7.5-3.1l39.7-39.8c1.4-1.4 2.2-3.2 2.2-5.1s-.8-3.7-2.2-5.1z"/></g></svg>