<svg viewBox="0 0 161 100" xmlns="http://www.w3.org/2000/svg"><g id="figure" fill="#fff"><path d="m61.1 2 11.4 21.5 3.7-21.5h14.5l-2.1 13.3 16.6 10.2v18.4l-20.5-14.4-3.3 11.1 6 11.3h-16.1l-15.5-29.6z"/><path d="m8 63.3-.1 14.9 5.3-7.1h6.7l-6.7 8.9 7.8 9.9h-7.3l-5.7-7.4v7.4h-6v-26.6z"/><path d="m25.9 62.8c-2.1 0-3.5 1.3-3.5 3.2s1.4 3.3 3.5 3.3 3.5-1.5 3.5-3.3c0-1.9-1.4-3.2-3.5-3.2zm-3.1 27.1h6v-18.8h-6z"/><path d="m52.4 79.3v10.6h-5.9v-10.3c0-2.6-1.6-3.8-3.5-3.8-2.2 0-3.8 1.7-3.8 4.1v10h-6v-18.8h5.2l.4 2.2c2-2.4 4.9-2.6 6.2-2.6 4.3 0 7.4 3.2 7.4 8.6z"/><path d="m66.1 70.7c-6.1 0-10.6 3.6-10.6 9.7 0 4.8 2.8 9.9 10.6 9.9 5.7 0 10.1-3.9 10.1-9.9 0-6.1-4.7-9.7-10.1-9.7zm4.1 9.7c0 2.5-1.5 4.8-4.1 4.8-3.2 0-4.6-2.1-4.6-4.8 0-2.8 1.7-4.6 4.6-4.6 2 0 4.1 1.8 4.1 4.6z"/><path d="m95.9 73.6c1.9-2.5 4.8-2.9 6.6-2.9 4.1 0 7.6 2.5 7.6 7.6v11.6h-6v-10.6c0-1.9-1-3.1-2-3.4-1.9-.6-4.3.5-4.3 3.7v10.3h-6v-10.6c0-.8-.1-2.9-1.9-3.4-1.9-.6-4.4.6-4.4 3.7v10.3h-6v-18.8h5.2l.3 2.1c1.9-2.2 4.4-2.5 5.6-2.5 1.5 0 3.8.5 5.3 2.9z"/><path d="m113.2 79.9c0 9.8 7.3 10.3 8.9 10.3s4.2-.3 6.2-2.5l.5 2.2h5.1v-18.8h-5.2l-.4 2.2c-1.7-2-4.1-2.6-6.6-2.6-4.2 0-8.5 3.9-8.5 9.2zm14.9.5c0 4.6-4.6 5.8-7.1 4.1-2.1-1.4-2.5-5.2-.9-7.2 1.1-1.4 2.6-1.6 3.4-1.6 2 .1 4.5 1.2 4.6 4.7z"/><path d="m143.8 73.3-.3-2.2h-5.2v26.9h5.9v-10c1.2 1.1 2.7 1.8 4.3 2.1 5.4.8 10.5-2.5 10.5-9.7 0-5.8-4-9.7-8.8-9.7-3.4 0-5.3 1.4-6.4 2.6zm8.7 4.6c.5 1 .7 2.1.6 3.2-.1 1-.4 1.9-1.1 2.7-1.6 1.8-4.7 2-6.4.3-.8-.8-1.3-1.8-1.4-2.9-.2-1.4.2-2.9 1.2-4 .9-1.1 2.2-1.4 3.6-1.4s2.7.8 3.5 2.1z"/></g></svg>