<svg viewBox="0 0 492 100" xmlns="http://www.w3.org/2000/svg"><g id="figure"><path d="m66.4 2-4 24.4 30.9 18.9v33.9l-38.1-26.6-6.1 20.5 10.9 21h-29.6l-28.4-54.9 9.6-37.2 21.1 39.8 6.8-39.8z"/><path d="m139.3 17.9-.1 34.4 12.1-16.4h15.7l-15.6 20.6 18.1 22.7h-16.9l-13.3-17-.1 17h-13.7v-61.3z"/><path d="m181 16.6c-4.8 0-8.2 3.1-8.2 7.5 0 4.3 3.2 7.5 8 7.5s8.2-3.4 8.2-7.5c0-4.4-3.2-7.5-8-7.5zm-7.1 62.6h13.8v-43.3h-13.8z"/><path d="m242.6 54.7v24.5h-13.8v-23.8c-.1-5.9-3.5-8.8-8-8.8-5.1 0-8.8 3.9-8.9 9.5v23.1h-13.7v-43.3h11.9l.9 5.1c4.6-5.5 11.3-6 14.4-6 10 0 17.1 7.2 17.2 19.7z"/><path d="m274.5 35c-14.2 0-24.5 8.2-24.5 22.3 0 11.2 6.4 22.9 24.5 22.9 13.2 0 23.2-9 23.2-22.9 0-14-10.6-22.3-23.2-22.3zm9.5 22.3c0 5.8-3.6 11.1-9.5 11.2-7.5.1-10.8-4.9-10.8-11.2 0-6.4 4-10.7 10.8-10.7 4.7 0 9.5 4.2 9.5 10.7z"/><path d="m343.6 41.7c4.4-5.8 11.1-6.7 15.3-6.7 9.4-.1 17.4 5.7 17.4 17.5v26.7h-13.8v-24.5c0-4.5-2.1-7-4.5-7.7-4.4-1.3-10 .9-10.1 8.4v23.8h-13.7v-24.5c0-1.8-.4-6.5-4.5-7.7-4.5-1.4-10.1 1.2-10.2 8.4v23.8h-13.8v-43.3h11.9l.8 4.8c4.3-5.2 10-5.7 12.8-5.7 3.5.1 8.9 1.1 12.4 6.7z"/><path d="m396.4 36.6c-3.5 1.4-6.7 3.8-8.8 7-2.4 3.6-3.9 8.2-3.9 12.5 0 4.7.5 9 2.6 13.1 1.5 2.9 3.6 5.5 6.3 7.4 3.4 2.4 7.5 3.5 11.7 3.5 3.9 0 7.9-1 11.1-3.1 1.3-.8 2.4-1.8 3.4-2.9l1 5.2 11.9-.1v-43.3h-12l-.9 5.1c-2.7-3-6.3-4.9-10.2-5.6-1.5-.3-3.1-.4-5.2-.4s-4.6.6-7 1.6zm11.2 10c1.9 0 3.8.5 5.5 1.4 1.6.9 2.8 2.3 3.7 3.9.9 1.7 1.3 3.6 1.4 5.5 0 2.5-.6 4.9-2.1 6.9-1.1 1.6-2.8 3-4.7 3.6-3.1 1-6.9.7-9.6-1.2-2.2-1.5-3.5-3.9-4-6.5-.7-3.4-.2-7.2 2-10 2.5-3.2 6.1-3.7 7.9-3.7z"/><path d="m454.8 41-.8-5.1h-12v62.1h13.8v-23c2.7 2.6 6.2 4.2 9.9 4.8 4.5.7 9.3.1 13.4-2 9.4-4.9 10.9-14.9 10.9-20.5-.1-7.3-3.3-16.8-12.3-20.6-2.7-1.2-5.6-1.7-8-1.7-7.9 0-12.4 3.3-14.9 6zm20.1 10.6c1.2 2.2 1.6 4.8 1.4 7.3-.2 2.3-1 4.6-2.6 6.4-3.6 4.2-10.9 4.5-14.8.6-1.8-1.8-2.8-4.3-3.1-6.8-.4-3.2.4-6.7 2.6-9.2 2.1-2.5 5.3-3.4 8.5-3.3 3.3.1 6.2 2.1 8 5z"/></g></svg>