<svg viewBox="0 0 426 100" xmlns="http://www.w3.org/2000/svg"><g id="figure"><path d="m39.8 2-37.7 37.7v58.3h81.3c10.5 0 17.3-6.3 17.3-16.2v-79.8zm-7.6 65.3h37.8v-5.5h-43.3l-13.4-13.4 36.9-36.8h11.1l-36.9 36.9 5.4 5.4h48v21.2h-37.8zm59 13.4c0 4.9-4 7.7-8.9 7.7h-29l-7.8-7.8h34.5c2.5 0 3.3-.5 3.3-3v-29.1h-51.1l36.8-36.9h11.1l-29.1 29h40.2z"/><path d="m111.6 36.7v15.8h37.3v5.5h-37.3v5.3h44.4v-16.1h-37.3v-5.2h37.3v-5.3z"/><path d="m162 36.7v26.6h7.1v-10.6h30.2v10.6h7.1v-26.6h-7.1v10.3h-30.2v-10.3z"/><path d="m219.6 57.6v-15.2h30.2v15.2zm-7.1-20.9v26.6h44.3v-26.6z"/><path d="m262.8 36.7v26.6h44.4v-5.7h-37.3v-15.2h37.3v-5.7z"/><path d="m313.3 36.7v26.6h10l7.9-7.9 13.7 7.9h13.7l-22.4-12.9 13.8-13.7h-9.9l-19.8 19.7v-19.7z"/><path d="m152.5 91.4h-30.2v-15.1h30.2zm-40.9-20.9v5.8h3.6v15.1h-3.6v5.8h45.5c1.4 0 2.5-1.2 2.5-2.5v-21.7c0-1.4-1.2-2.5-2.5-2.5z"/><path d="m202.9 91.4h-30.2v-15.1h30.2zm-37.3-20.9v26.7h44.4v-26.7z"/><path d="m216 70.5v26.7h44.4v-5.8h-37.3v-15.1h37.3v-5.8z"/><path d="m266.4 70.5v5.8h18.6v20.9h7.1v-20.9h18.7v-5.8z"/><path d="m354.1 91.4h-30.2v-15.1h30.2zm-37.3-20.9v26.7h44.4v-26.7z"/><path d="m374.3 75.8h29.2v5.3h-29.2zm38.4 21.4-18.6-10.8h16.5v-15.9h-43.4v26.7h7.1v-10.8h7.5l18.7 10.8z"/><path d="m420.2 73h-.9v1.2h.9c.5 0 .7-.2.7-.6s-.3-.6-.7-.6zm1.8 3.3h-1l-.9-1.3h-.8v1.3h-.9v-4.1h1.9c1 0 1.6.4 1.6 1.3 0 .6-.3 1.2-.9 1.4zm-2-5.4c-3.1 0-4.7 3.8-2.5 6s6 .6 6-2.5c0-1.9-1.6-3.5-3.5-3.5zm0 7.4c-3.5 0-5.2-4.2-2.7-6.7s6.6-.7 6.6 2.8c0 2.2-1.7 3.9-3.9 3.9z"/></g></svg>