<svg viewBox="0 0 609 100" xmlns="http://www.w3.org/2000/svg" xmlns:xlink="http://www.w3.org/1999/xlink"><mask id="a"><path d="m2 2v96h605v-96z" fill="#fff"/><path d="m65.7 18.3c3.2.4 7 1.6 6.8 5.6-1 8-3 15.9-4.2 23.9 5.1-7.9 10.4-15.7 15.9-23.3 2.3-3.1 5.7-7.2 14.4-7.2 2.4 0 10.5 1.4 10.5 8.4 0 3.5-1.9 6.4-4.1 9.2-5.1 6.1-10 12.3-15 18.4 3.4 6 6.5 12.1 10 18 .6 1.7 3.4.8 4.8 1.1 2 4.2 2.7 9.9-1 13.4-3.6 3.1-9.4 3.4-13.9 3.6-3.7 0-7.9.2-11.4-1.1-2.9-1.2-3.8-3.9-4.9-6.5-2.8-7.2-5.6-14.3-7.7-21.7-1.5 9.6-3.3 19.1-5.1 28.6-3.6.3-7.4 1.1-11.2 1.1-10.7 0-13.3-5.5-13.4-10.8-.1-3.4.6-7 1.2-10.1 1.8-9.5 3.5-19.1 5.3-28.6 2-1.1 4-2.1 6-3.2-8.9-.8-18.4-1.2-26.9-3.9 4.6-3.3 9.6-3.2 15.1-4.2-9.4-1.1-18.5-1.3-27.6-4.2 2.1-1.2 4.2-2.2 6.6-2.7 6.1-1.3 12.5-2 18.7-2.7 10.2-.9 20.9-1.9 31.1-1.1z"/><path id="b" d="m135.8 10c-5.9 0-12.7 2.6-14.8 8.7-1.3 4.2-.3 9.6 4.2 11.4 5.2 2 11.7 1.7 16.4-1.3 3.1-2 5-5.8 5-9.5 0-2.5-.9-4.9-2.7-6.7-2.1-1.8-5.1-2.6-8.1-2.6zm-8.4 25.6c-6.8.3-14.6.6-20.2 5 2.9 1.8 6 3 9.2 4.1-1.6 8.8-3 17.5-4.5 26.3-.6 3.9-1.2 8.4-.1 12.3 1.9 5.7 7.8 6.2 12.9 6.2 5.5 0 11.3-.8 16-3.4 3.5-1.9 6.1-5.4 5.6-9.5-.3-2.8-2.1-4.6-3.9-6.6-1.9.2-3.7.4-5.6.6.5-8.3 2.7-16.6 3.8-24.8.3-2.9.6-6.1-1.9-8.2-2.9-2.3-7.8-1.9-11.3-2z"/><path id="c" d="m202.5 10.2c-3.9 0-7.9.4-10.1 2.6-2.3 2.3-3.1 5.9-3.8 9-1 5.2-1.7 10.4-2.5 15.6-8.8-3.1-19-1.6-26.3 4.4-7.8 6.4-11.5 16.7-11.5 26.6 0 7.4 2.1 21.6 17.8 21.6 4.1 0 8.1-1.1 11.3-3.5 2.5-1.9 4-4.4 5.5-7.1.2 3.3-.6 6.3 2.4 8.5 4.5 3 11.6 1.7 16.6.8 5-1.1 11.5-3.8 12.5-9.5.7-3.9-1.1-6.4-3.6-9.1-2 .2-4 .3-6 .4 2.9-18.8 6.6-37.5 9.9-56.2-3.6-2.7-7.8-4.1-12.2-4.1zm-18.9 44.5c-.9 5-1.2 10.3-2.9 15.1-2.6 1.5-5.9 2.2-7.9-.6-2.3-3.8-.3-9.9 2.9-12.7 2.4-2.2 4.9-1.7 7.9-1.8z"/><use transform="translate(68.1)" xlink:href="#c"/><use transform="translate(176)" xlink:href="#b"/><path d="m360.8 37.1c-.7 3.7-2 7.1-3.2 10.7 5.2-7.7 12.1-12.2 21.4-12.2 8.5.2 10.7 3.7 13.2 8 4.8-5.4 10.9-8 18.1-8 4 .1 12.6 1.3 13.4 10.2.7 7.9-2.4 16.5-3.3 24.5 2.3.3 5.3-.9 7.4 1.4 1.5 1.6 2.3 3.7 2.3 5.8 0 2.7-1 5.4-3.3 7.1-5.5 4.5-14.4 5-21.2 4.8-3.8-.1-7.8-1-9-5.2-1.9-9.3 3.7-19.4 2.3-28.5-2.2-.5-4.1.1-6.1 1.2-1.7 8.9-3 16.7-5.6 31.6-5.1.8-10.7 1.4-15.9.6-2.8-.4-5.4-2-6.2-4.9-2-9.2 3.7-19.4 2.4-28.4-2.6-1-4.4.2-6.7 1.1-1.5 10.6-3.4 21.2-5.1 31.8-3.1.5-6.6 1.1-10 1.1-3.2 0-6.4-.5-9-2.1-4.1-2.7-4-7.3-3.7-11.7 1-10.1 4.3-20 6-30.1-5.7-1-11-1.6-15.7-5.2 7.2-4.3 15.8-5 24-5.1 4.5 0 9.1.4 13.5 1.5z"/><path id="d" d="m466.5 35.6c-2.4 0-4.8.1-7.2.4-10.2 1.4-19.5 7.1-23.9 16.6-1.9 4.1-3.1 9-3.1 13.8 0 5.9 1.6 11.7 5.5 16 4.9 5.6 12 7.5 19.3 7.5 5.1 0 17.4-1.1 25.3-10.1 5-5.5 7.1-13.3 7.1-20.6 0-5.9-1.3-14.2-8.2-19.2-4.4-3.2-9.5-4.4-14.8-4.4zm-3.4 18.3c3.4.2 4.1 3.6 4.4 6.5.1 3.7-.9 8.6-4 10.9-2.9 2-6.9 1-7.7-2.7-1.5-7 2.2-14.9 7.3-14.7z"/><path d="m515.8 20.9c4.6 0 9.1 1.1 13.2 3.7-1 4.3-2 8.6-2.9 13 4.5-.2 9.1-.4 13.6-.5.9 2.6 1.7 5.4 1.7 8.1 0 2.4-.6 4.7-2.4 6.8-3.5 3.8-10.9 2.5-15.6 2.5-.6 4.1-1.7 8.1-2 12.2-.2 1.3.1 2.5.9 3.5 3.7.7 6.6-.8 9.9-2 1.7 1.3 4.1 2.7 4.8 4.8 1.6 4.1.2 8.6-3.1 11.4-5.8 5-15.4 5.5-19.8 5.5-4.6 0-10.2-.4-13.9-3.1-3.8-2.8-4.9-7.3-4.7-11.8.4-7 2.3-14.1 3.6-21-1.8-.1-3.7-.1-5.5-.4-1.2-1.8-1.9-4.2-1.9-6.6s.7-4.8 2.4-6.5c1.7-1.9 4.8-2.7 7.2-3.6.6-3.7.9-8.2 2.7-11.6.9-1.8 2.9-4.4 11.8-4.4z"/><use transform="translate(109.4)" xlink:href="#d"/></mask><g id="figure" fill="#fff"><path mask="url(#a)" d="m140.7 2.4c4.5.9 8.9 3.3 11.4 7.4 3 5 3.2 11.6 1.1 17-1.3 3.3-3.6 5.5-5.9 8.1.5 2.1 1.1 4.3 1.6 6.4 2.7-2.9 5.3-5.8 8.7-8 6.6-4.4 14-5.6 21.8-5.7 1-5.9 1.8-13.3 5.3-18.3 2.9-4.2 7.5-6.5 12.5-6.9 6.9-.6 14.7 0 20.5 4.2 3 2.2 5.4 4.9 4.8 8.9-1.1 8-2.8 16.1-4.2 24.1 2.6-2.3 5-4.6 7.9-6.5 6.4-4.2 13.6-5.4 21.2-5.5 1.1-5.7 1.9-12.4 4.9-17.4 2.5-4.3 6.9-7 11.8-7.7 5.7-.7 12-.4 17.4 1.7 4.1 1.5 6.9 4.4 9.3 7.9 2.6-3.1 5.1-5.9 8.9-7.6 5.7-2.7 12.6-3.1 18.7-1.6 5.8 1.6 10.4 6.1 11.5 12.1 1.1 5.2 0 10.1-2.1 14.9 8.8-2.2 17.8-3 26.8-2.1 3.5.3 6.8 1.7 10.3 2 5-.7 9.5-2.7 14.7-2.3 5.1 0 9.5 1.7 13.8 4.1 8.8-4.4 19.9-6.1 28.9-1.4 5.2 2.7 7.6 7.4 9.4 12.7 5.4-6.7 12.5-11.5 20.9-13.7 12.2-3.1 25.2-2.4 35.4 5.6 2-1.4 3.9-2.8 5.9-4.2 1.3-4.9 2.2-9.8 6.2-13.3 4.5-4 11.3-4.7 17.1-4.5 6.2.2 13.6 2 17.9 6.8 2.4 2.6 1.5 5.8 1.5 9.1 2.2.4 4.6.5 6.7 1.3 2.1 1.2 3.5 3.9 4.9 5.8 4.7-3.2 9.7-5.8 15.3-7 9.4-2.1 20.6-2 29.2 2.9 7.3 4.1 12.1 11.6 13.5 19.8.4 2.7.6 5.4.6 8.2 0 5.8-1.1 11.8-3.5 17-3.4 7.6-9.6 13.7-17.2 17.1-8.8 4-19 5-28.5 3.3-6.3-1.1-11.5-4.4-16.2-8.6-5.3 4.8-10.9 7.6-18 8.7-8.3 1.1-18.2 1.4-25.8-2.6-4.2-2.1-6.6-5.6-8.9-9.5-10.5 11.4-26.4 14.7-41.3 11.8-5.3-1.1-9.8-3.8-14-7.1-3.9 2.9-7.8 5.4-12.6 6.4-9.3 2-18.6 2.8-27.2-2.1-2.5 1.2-4.9 2.4-7.7 2.8-8.2 1.2-16.2 1.5-23.7-2.8-6.8 4.2-15.7 4.3-23.3 3-5.5-1-9.2-4.2-12.3-8.6-8.3 8.3-20 9.7-31.2 8.9-4.7-.3-8.5-2.5-12.2-5.3-10 5.8-24.2 8.1-34.7 2.5-5.5 2.5-10.9 3.6-17 3.2-5.9-.2-10.8-2.8-15.4-6.4-3.4 1.9-6.7 3.8-10.5 4.8-8.6 2.1-17.2 2.7-25.2-1.6-4.8 2.2-9 3.4-14.7 3.4-7.8 0-12.4-2.5-17.8-6.7-8.8 5.8-19.1 7.1-29.4 6-3.9-.5-7-2.3-10.3-4.3-4.1 2.1-8.2 3.8-12.9 4.2-6 .6-12.6.9-18.5-.8-3.3-.9-5.4-3.1-7.8-5.3-1.6 1.9-3 4.4-5.6 5.1-5.2 1.4-10.9 1.6-16.3 1.5-5.9-.2-11.8-2.4-15.4-7.3-3.5-4.8-4-10.8-3.3-16.5 1.3-10.1 3.9-20 5.2-30.1-4.5-.7-9.6-1.2-13.8-3-2.7-1.1-4.1-3.8-5.7-6.1-3-1-6.9-1.7-9.3-3.9-1.8-1.5-2.6-3.9-2.6-6.3 0-1.5.2-2.9.8-4.1 2.3-4.3 8-5.7 12.4-6.5 12.2-2.1 24.5-3.4 36.9-4 6.1-.2 13.1-.6 19 1.3 3.5 1.1 5.7 3.6 8.1 6.1 2.6-2.4 4.8-4.8 8.1-6.2 8.8-3.4 18.7-2.5 26 3.8 2-3.2 3.9-6.2 7-8.4 4.4-3.2 9.6-4.5 14.8-4.5 1.8 0 3.6.1 5.4.4z"/></g></svg>