<svg viewBox="0 0 436 100" xmlns="http://www.w3.org/2000/svg"><g fill="#010101"><path d="m6.6 80.5 54.5-.3c7.7 0 10.9-4.1 10.9-11.8 0-5.3-2.3-8.2-8-8.8-8.7-.9-17.6 0-34.3-.7-17.7-.6-27.7-10-27.7-26 0-2.1.2-4.2.5-6.5 2.1-14.3 9.4-22.8 24.4-23.4 20.3-1 40.6-.4 60.8-.7.4 0 .5.1.7.3v16.8l-53.5.4c-8 .3-12.8 5.9-11.8 13.2.7 6 4.9 9.2 11.5 9.2 9.5 0 18.8-.4 27.9 0 14.1.4 29.3 4.4 29.8 19.3.2 2 .2 3.9.2 5.9 0 3.9-.3 7.7-.9 11.5-2.3 11.9-11.5 17.9-22.7 18.2-11.7.4-23.4.5-35 .5-9.3 0-18.6-.1-28-.1.6-5.6.8-11.3.7-17z"/><path d="m142.5 49.1c12.9 16.1 25.5 32.2 38.4 48.6h-25.8c-11.5-15.1-23.4-30.4-35.7-46.8v46.8h-20.3v-95.1h20v45.8c12.6-15.4 24.8-30.4 37.4-45.8h24.4c-13.3 15.7-25.8 31.1-38.4 46.5z"/><path d="m206 2.3v58.4c0 3 .3 6 .7 9 .4 5.9 5.1 10.5 10.9 11.2 3.1.5 6.2.8 9.3.7h24.6v16.1h-9.8c-9.9-.3-19.9 0-29.7-1.1-15.7-1.7-23.8-10.5-25.3-26.2-.6-6.9-.7-13.9-.7-21.3v-47.1c6.7.3 13.3.3 20 .3z"/><path d="m340.5 2.3v17.1c-17.5 20.3-35 40.5-53.1 61.1h53.1v16.9h-80.4v-17.2c17.8-19.9 35.6-40.1 54.1-61.1h-54.1v-17.1c26.9.3 53.5.3 80.4.3z"/></g><g fill="#f2cd14"><path d="m415.8 51.2c-12.9 15.7-25.5 31.4-38.4 46.8h-25.5c12.9-15.7 25.5-31.1 38.4-46.8-12.9-16.1-25.5-32.2-38.8-48.9h25.3c12.9 16 25.8 32.5 39 48.9z"/><path d="m385.8 98c12.9-16.1 25.5-31.4 38.4-46.8-12.9-16.1-25.5-32.2-38.8-48.9h9.8c13 16.1 25.9 32.2 38.8 48.9-12.9 15.7-25.8 31.4-38.4 46.8z"/></g></svg>