<svg viewBox="0 0 332 100" xmlns="http://www.w3.org/2000/svg" xmlns:xlink="http://www.w3.org/1999/xlink"><g transform="scale(.1)"><g fill="#fbae3b"><path d="m1865.7 692.5h37l-.3-610.6h-36.7z"/><path d="m458.4 806.3h42.2v-16.2h-103v16.2h42.2v132.2h18.6z"/><path d="m609.6 938.5v-76.5c0-16.6-10.1-36.2-34.9-36.2-17.1 0-27.2 8.4-34.1 23.1h-.6l-.1-58.8h-16.8v148.6l16.8-.2v-59.2c0-35.1 25.8-39.6 31.3-39.6 14.3 0 21.5 10.5 21.5 31.4v67.4z"/><path id="a" d="m718.6 905.2c-4.8 13-15.1 21.2-29.4 21.2-11.5 0-23-6.3-28.2-16.7-4.1-8.2-4.5-16.2-4.5-24.8h79.9v-2.8c0-29.2-15-56.3-48.1-56.3-32.9 0-50.8 27.5-50.8 57.8 0 30.7 17.1 57 50.4 57 21 0 40.2-12.1 46.7-32.2zm-61.2-32.9c.6-17.3 12.5-33.5 30.9-33.5 19.5 0 29.6 15.3 29.4 33.5z"/><path d="m839.5 938.5h18.6v-148.4h-18.6z"/><path id="b" d="m983.5 938.5v-76.5c0-16.1-11.3-36.1-35.2-36.2-17.1 0-28.2 8.4-35.1 23.1h-.6l-.1-20.3h-15.8v110.1l16.8-.2v-59.2c0-35.1 25.8-38.9 31.3-38.9 8.4 0 21.8 3.8 21.8 24.1v74z"/><path d="m1070.7 925.9-13 1.1c-13.8 0-17.5-6.6-17.5-19.4v-66.4h24.4v-13.5h-24.4v-28.9l-16.9 1.7v27.2h-19.5v13.5h19.5v63.5c0 21.9 7.1 35.9 31.1 35.9l16.3-1.3z"/><use transform="translate(447.8)" xlink:href="#a"/><path id="c" d="m1214.3 828.6v109.9h16.8v-55.4c0-26.9 16.7-40.9 33.4-40.9h3.8v-16.2l-6.2-.4c-17.7 0-27.1 13.9-32.3 28.8h-.4v-25.8z"/><path d="m1294.5 938.5h16.9v-148.4h-16.9z"/><path id="d" d="m1390.3 940.6c33.3 0 51-27 51-57.7 0-29-16-57.1-48.2-57.1-33.1 0-50.6 26.4-50.6 56.9 0 29 14.9 57.9 47.8 57.9zm-23.4-85.4c4.8-9.5 14.3-15.5 24.9-15.5 9.5 0 18.6 4.9 23.8 12.9 5.6 8.9 6.9 19.7 6.9 30.1 0 9.5-.9 19.4-5.4 28.1-5.2 10-14.1 15.8-25.3 15.8-9.9 0-19.2-5.4-24-13.8-4.8-8.7-6.3-20.1-6.3-30.1 0-8.9 1.3-19.5 5.4-27.5z"/><path d="m1536.1 899.3c-2.8 14.9-10.9 26.8-27.3 26.8-22.9 0-28.3-25.9-28.3-43.6 0-18.4 6.5-42.4 29.4-42.4 15.8 0 24.7 12.1 26.2 26.6l15.5-2.8c-3.7-22.7-18.3-38.1-42.1-38.1-32.7 0-47 29.2-47 57.8 0 28.8 14.1 57 46.8 57 23.6 0 38.4-16.2 42.3-38.5z"/><path d="m1670.2 938.5-38.8-71 34.2-38.5h-18.2l-50.8 56.1v-95h-16.9v148.4h16.9v-34l23.6-27.2 32 61.2z"/><path d="m1694.2 938.5h16.8v-109.9h-16.8zm-.9-129.3h18.6v-19.1h-18.6z"/><use transform="translate(851.6)" xlink:href="#b"/><path d="m1878.6 892.2c-8.9 4.1-15.1 8.9-15.1 19.7 0 8.2 4.3 13.2 10.6 17.3-10.4 3.7-16.7 10.8-16.7 22.3 0 12.1 8.3 19.9 18.9 24.2 9.5 3.9 22 4.3 32.2 4.3 21.2 0 54.3-3.7 54.3-31.6 0-10.8-6.7-20.3-16.9-24.2-8.6-3.3-22.7-3.4-32.2-3.9-7.8-.4-18.4 0-26-1.7-4.8-1.1-8.2-4.1-8.2-9.3 0-5.6 6.5-10.2 11.7-10.2 4.1 0 9.9 1.8 14.9 1.8 10 0 20-2.4 27.9-8.5 8.3-6.4 14.1-16.7 14.1-27.5 0-10-3.9-19.6-10.6-27 1.7-11.5 9.4-12.5 19.4-12.5h1.8l-.3-13.7-4.3-.2c-14.9 0-22.5 3.5-25.3 19.1-6.9-3.2-14.7-4.8-22.3-4.8-22.1 0-42.1 13.6-42.1 37.4 0 11.9 4.9 21.7 14.2 29zm27.9-53c13.4 0 24.5 10.1 24.5 24 0 14.7-9.8 24.5-24.5 24.5-14.9 0-24.6-9.3-24.6-24.3 0-14.1 10.4-24.2 24.7-24.2zm-20.6 95c11.9 1.5 30.7 1.3 37.2 1.7 11.5.7 23.3 2.6 23.3 13.2 0 6.7-3.5 10.1-9.5 12.9-7.4 3.4-20.1 4.8-28.3 4.8-11.2 0-34.6-2.6-34.6-17.7 0-7.8 5.4-11.9 11.9-14.9z"/><path d="m2073.7 938.5v-70.3h59.9v-14.9h-59.9v-47.2h72.2v-16h-90.8v148.4z"/><path d="m2163.5 938.5h16.9v-148.4h-16.9z"/><use transform="translate(869.2)" xlink:href="#d"/><use transform="translate(990.8)" xlink:href="#d"/><use transform="translate(1247)" xlink:href="#c"/><path d="m2652.6 806.3h42.2v-16.2h-103v16.2h42.2v132.2h18.6z"/><path d="m2719.7 938.5h16.8v-109.9h-16.8zm-.9-129.3h18.6v-19.1h-18.6z"/><path d="m2776.4 938.5h16.9v-148.4h-16.9z"/><use transform="translate(2186)" xlink:href="#a"/></g><g fill="#22346a"><path d="m281.4 439.7v-94h-136.2v-68.4h177.7v-99.6h-302.9v418.9h125.2v-156.8zm402.3 54.3h-164.3v-316.3h-129.5v418.9h293.8zm382.8 2.5h-188.7v-67.8h152.6v-93.4h-152.6v-61.1h188.7v-96.5h-314.5v418.9h314.5zm463.3-318.8h-115.4l-67.2 113-65.3-113h-149.6l129.4 202.1-134.9 216.8h117.9l77.5-131.9 77.6 131.9h149l-140.5-224.1zm92.2 418.9h129.4v-418.9h-129.4z"/><path d="m2227.4 278.8 86.1-.3v-100.8h-296.2v100.8l88 .3v317.8h122.1zm163 317.8h129.4v-418.8l-129.4-.1zm526.9-102.6h-164.3v-316.3h-129.5v418.9h293.8zm382.7 2.5h-188.7v-67.8h152.7v-93.4h-152.7v-60.7l188.7-.4v-96.5h-314.5v418.9h314.5z"/><path d="m3162.7 108.2h12v-77.6h29.8v-10.6h-71.6l.1 10.6h29.7zm64.4-74.4 24.9 74.4h11.5l24.9-74.6v74.6h11.6v-88.2h-17.1l-25 75.1-25.3-75.1h-17.1v88.2h11.6z"/></g></g></svg>