<svg viewBox="0 0 472 100" xmlns="http://www.w3.org/2000/svg"><g id="figure" fill="#fff"><path d="m265.4 98h5.4v-87.2h-5.4z" /><path d="m2 24.5v59.8h17.9v-22.4h19.4v-13.4h-19.4v-9.8h25.3v-14.2zm52.8 0v59.8h41.9v-14.6h-23.5v-45.2zm51.7 0v59.8h44.9v-14.3h-27v-9.7h21.8v-13.3h-21.8v-8.7h27v-13.8zm54.3 0 18.5 28.9-19.3 30.9h16.8l11.1-18.8 11.1 18.8h21.2l-20-32 17.3-27.8h-16.4l-9.6 16.1-9.4-16.1zm69.9 0v59.8h18.5v-59.8zm56.2 0v14.4h12.6v45.4h17.4v-45.4h12.3v-14.4zm53.2 0v59.8h18.5v-59.8zm33.4 0v59.8h41.9v-14.6h-23.5v-45.2zm51.6 0v59.8h44.9v-14.3h-26.9v-9.7h21.8v-13.3h-21.8v-8.7h26.9v-13.8z"/><path d="m450.3 14.6h1.7v-11.1h4.3v-1.5h-10.2v1.5h4.2zm9.2-10.6 3.6 10.6h1.6l3.6-10.6v10.6h1.7v-12.6h-2.5l-3.6 10.7-3.6-10.7h-2.5v12.6h1.7z"/></g></svg>