<svg viewBox="0 0 720 100" xmlns="http://www.w3.org/2000/svg" xmlns:xlink="http://www.w3.org/1999/xlink"><g id="figure"><path d="m80.4 2c-17.6 0-32.6 5.4-45 16s-21.8 25.2-28.7 44.1l-4.7 12.9 17.4-.2h54.9c5.9 0 11.2-1 16-3.1s8.8-5.9 12.2-11.4h-5.6c-1.9 2.6-4.2 4.9-7 6.7-10.3 6.7-23.9 4.1-29.2-4-.5-.8-.8-1.8-1.2-2.7h-35.2l3.7-10.3c5.2-14.5 12.9-25.7 23.1-33.9s22.7-12.2 37.7-12.2h7.6l.7-1.9zm77.4 22.7-17.2.3h-55c-5.9 0-11.1 1-15.9 3.1s-8.8 5.9-12.2 11.4h5.6c1.9-2.6 4.1-4.9 6.9-6.7 10.3-6.6 23.9-4 29.2 4.1.5.8.8 1.7 1.2 2.5h35.3l-3.8 10.3c-5.3 14.4-12.9 25.7-23.1 33.9s-22.7 12.2-37.7 12.2h-7.5l-.8 1.9h16.6c17.6 0 32.6-5.4 45-16s21.8-25.2 28.7-44.1z"/><path d="m94.8 40.2-4.7 4c-2.2-2.9-4.9-4.4-8.1-4.4-5.7 0-10.9 4.5-11.9 10.5-1.3 8 4.5 10.6 8.3 10.6 3.9.1 6.9-2.1 9.7-4.5l3.1 4.2c-4.6 3.9-8.1 6-13.7 6-8.1 0-14.7-5.5-12.7-16.3 2.1-11.4 11.9-16.3 18.5-16.3 2.9 0 7.4.4 11.5 6.2z"/><path id="a" d="m162.1 24.7c-2.4 0-4.3 1.9-4.3 4.3s1.9 4.3 4.3 4.3 4.3-1.9 4.3-4.3-1.9-4.3-4.3-4.3zm0 .6c2 0 3.7 1.7 3.7 3.7s-1.7 3.7-3.7 3.7-3.7-1.7-3.7-3.7 1.7-3.7 3.7-3.7zm-2 1v.3c.1 0 .7 0 .7.2v4.1c0 .1 0 .1-.1.1h-.5v.3h1.9v-.3h-.4c-.1 0-.2 0-.2-.1v-1.9h.2c.2 0 .5.1.6.2.3.3.7 1.5 1 1.8.1.1.2.2.4.2h.6v-.3c-.2 0-.3 0-.4-.1-.4-.4-.8-1.8-1.2-2 .8-.1 1.1-.5 1.1-1.2 0-.5-.1-1.3-1.7-1.3zm1.9.3c.7 0 1.2.2 1.2 1s-.6 1-1.6 1h-.2v-1.6c0-.2.2-.4.6-.4z"/><path id="b" d="m232.5 18.1c-14 0-17.6 7-19.1 10.1h58.2l-1.6 8.3c-2.6 14.5-11.3 33.8-38.7 33.8h-45l2.8-15.8h41.1c8.3 0 15.3-3 19-10.6h-58l1.4-7.7c2.7-14.9 11.5-33.8 38.8-33.8h44.9l-2.8 15.8"/><path d="m329.4 17.5-9.7 52.7h-18.5l9.8-52.7h-25.4l2.9-15.3h69.4l-2.7 15.3"/><path d="m446.1 2.2-13.3 68.1h-18.8l4.9-26h-37.3l-5.2 26h-18.2l7.7-39.8c2.7-14 16.5-28.3 31.8-28.3m-11.5 26.7h35.7l2.2-11h-21.9c-12 0-15.2 7-16 11z"/><path d="m468.6 45.6c.4 8.4 6.1 9.9 15.3 9.9h22.2l2.1-11.2h-14.4l3-15.9h33.1l-7.6 41.8h-45.7c-14.9 0-26.5-5.7-26.6-22.9-.1-12.6 3.8-45 39.8-45h44.8l-2.9 15.8h-40.8c-11.2 0-15.6 4-18.4 9-2.9 5-4.1 13.8-3.9 18.5z"/><path d="m604.4 70.2h-42.7c-16.4 0-22.4-8.7-22.4-22.3 0-2.8.8-45.7 33.7-45.7h44l-2.9 15.2h-37.5c-7.6 0-13.9 3.4-15.8 10.9h51.3l-2.9 15.4h-51.2c-1 7.1 3 10.8 11.8 10.8h37.5"/><use transform="translate(430.3)" xlink:href="#b"/><use transform="translate(551.6 -22.7)" xlink:href="#a"/><path id="c" d="m204 80.4-3.4 2.6c-1.6-1.9-3.6-3-6-3-3.7 0-7.8 2.6-8.6 7.1-.8 4.6 2.2 7.1 6.1 7.1 1.4 0 3.7-.3 7.1-3l2.2 2.8c-2.7 2.1-5.6 4-10 4-6 0-9.7-3.7-9.7-8.7 0-7.6 7.2-13 13.8-13 1.7 0 5.5.1 8.5 4.1z"/><path d="m266.7 76.3h4.4l2.6 7.4 5.4-7.4h4.4l-8.5 11.6-1.7 9h-4.1l1.6-9"/><use transform="translate(161.5)" xlink:href="#c"/><path d="m431.6 76.3h4.2l-3.1 16.9h6l-.8 3.7h-10"/><path d="m515.5 76.3h4l-3.8 20.6h-4.1"/><path d="m589.6 76.3h4l6.7 13.6 2.5-13.7 4.1.1-3.8 20.6h-3.9l-6.7-13.6-2.5 13.6h-4.1"/><path d="m688 80.1-3.3 2.8c-1.4-1.8-3.4-2.8-5.8-2.8-5.7 0-9.1 4.8-9 8.4 0 .9.4 5.6 6.6 5.7 2.8.1 4.8-1.4 6.5-3.5h-6.2l.7-3.7h10.9l-.1.9c-1 4.9-5.4 10.1-12.6 10.1-7.3 0-9.8-5-9.8-8.9 0-5.4 4.6-12.8 13.8-12.8 4.1 0 7.1 1.8 8.3 3.8z"/></g></svg>