<svg viewBox="0 0 524 100" xmlns="http://www.w3.org/2000/svg"><g fill="#086372" transform="scale(.1)"><path d="m888.4 199.2c-19.6 48.9-32.6 100.7-42.1 152.5-8.2 44.9-21.1 131.8-16.3 212-49.2 66.3-113.2 97.2-186.7 130.2 19.3-21.1 39-41.9 57.6-63.6 45.5-53.1 62.2-169 39.5-243.1-22.2-72.3-79.7-123-156.6-123.8-64.7-1.1-97.9 28.3-141.9 68.2 3.8-19.2 8.4-38.3 12.5-57.4-49.9-.1-99.8-.2-149.7-.1-63.5.1-170.7 6-276.9 140.8-5.3 6.7-7.8 15-7.8 23.4 0 9.1 3.5 18.1 9.1 25.4l56 71.9c9.6 12.4 13.1 10.8 24.2-6.4 16.1-24.8 44-63.2 77.6-72.4 13.3-3.7 31.2-5.1 43.9 5.2 23.3 18.9 16 38.9 11.1 60.5l-101.6 447.8c-.6 2.4.6 8.6 7 8.6h114c24.8 0 36-18.9 37.9-27.2l90.9-404.3c22.1-98.4 82.1-124.6 122.5-123.1 78.8 2.9 80.4 72.4 75.8 109-10 78.7-66.4 128.2-117.5 126.7-11.5-.3-21.8-4-32.3-8.1l-21.4 93c-7.8 33.7 10.3 46.7 23.3 51.6 47.5 17.7 97.5 22.9 148 22.5 78-.6 160.9-12.9 226.3-54.2 22-13.9 35.8-23.7 58.4-22.3 14.9 1.2 29.3 7.4 40.2 18.1 33.1 32.4 75.8 54.1 122.3 57.8 69.7 5.5 139.5-16.6 197.5-54.6 17.4-11.4 39.3-12.4 54-8.6 16.6 4.3 25.9 15 43.1 28.2 29.6 22.8 67.1 35.4 104.5 35.6 63.1.3 114.5-21.5 155.1-44.5 30.5 33.9 68 43.4 98.5 44.4 56.3 1.8 99-14.6 140.8-32.7-1.6 7.4-3.1 14.8-4.8 22.2 40.5-.1 81.2.5 121.7 0 31.2-.4 37.4-19.1 43.3-44.9 18.9-83.1 37.7-166.3 56.5-249.5 6.3-27.7 27.7-85.4 97.1-84.7 45 .5 59.5 47.6 52.8 75.3-10.7 44.1-19.2 88.9-30.3 132.9-32.9 130.8 57.2 183 123.1 182 49.8-.7 98.9-18.6 131-33.3-1.6 7.4-3.4 14.8-5 22.2 40.7 0 81.5.5 122.2 0 32.1-.4 37.5-21.3 43.5-47.6 13.6-59.3 26.7-118.6 40.5-177.8 15 66.7 27.6 123.8 77.2 175 54.2 55.9 123.9 61.3 157.8 61.8 20.1.3 46-.5 59.8-5.7l39.2-166.9c-22.3 13.5-46.7 23.3-72.7 24.6-47.8 2.3-75.9-37.1-79.2-41.8-56.4-80.9-70.8-118.6-71.9-122.2 63.4-63.4 130.2-125.8 195.6-188.1 16.7-15.9 15.9-33.5 3.6-55.1-15.4-27-36.6-60.4-53.3-88.8-4.7-8-14.4-3.8-17.3-1-53.1 50.7-116.5 111.7-168.9 161.2.8-43.7 6.5-86.7 17-129.2 13-52.7 24.9-105.7 36.4-158.8 3.9-17.8.1-18.9-18.2-18.9-34.1.1-68.4-.2-102.5.2-17.1.2-32.8 12.7-36.5 29.5-34.6 155.8-69.7 313.9-104 469.6-1.4 6.4-4.3 11.9-7.7 17.4-23.4 38-56.9 90.3-102.1 94.2-24.1 2.1-58.6-11.9-43.8-76.5 9.3-40.9 19.1-81.7 28.7-122.5 19.5-82.7-14.5-172.1-100-175.9-20-.9-40.3.7-60 4.5-46.4 8.9-74.1 35.2-107.9 58.6l12.4-52.7h-125.8c-27.2 0-34 20.6-38.9 42.9-14.2 64.4-28.6 128.9-43 193.3-2.5 11.3-3.8 21.7-10 31.8-15.1 24.5-31.6 50.5-52.4 70.4-31 29.7-63.6 31-80.9 19.5-20.6-13.7-21.2-41.9-14.6-70.7l19.9-87h-122.7c-13.8 0-26.9 6.9-33.9 18.4-10.4 17-14.6 77.6-31.5 112-27.7 56.5-76.3 73.2-110.9 62.7-47.6-14.5-52.8-63-50.1-97.2 7.2-91.4 76-162.8 175.4-161.5 31.6.4 63.3 4.1 94.7 7.4 7.4.8 11.7.1 12.9-10.7l13.3-117c2-17.3-1.9-19.5-18.6-20.4-49.8-3.6-104.3-9.4-153.5-.9-63.4 10.9-121.9 41.9-167.5 87-43.8 43.4-75.3 99-92.6 158-3.3 11.2-5 21.5-12.3 31.2-27 35.8-61.6 67.2-101.8 87.4-27.6 13.9-57.5 21.9-88.6 19.3-39.2-3.3-53.5-16.6-73.8-47 15.6-10.8 31.8-20.2 46.9-31.6 63.7-48.1 113.1-115.7 142.7-189.7 20.7-51.8 31.9-108.4 32-164.3.1-114.7-37.8-198.7-126.8-198.8-103.4-.1-165.6 89.1-201.7 179.2zm162.5 9c48.5 0 38.4 66 34.7 83.7-11 52.7-41.9 99.6-80.1 136.9-10.8 10.5-19.8 9.6-29.6 3-12.5-8.4-9.4-25.6-6-46.7 5.3-33.3 10.7-66.8 20.2-99.2 6.7-22.8 24.2-77.7 60.8-77.7z"/><path d="m4749.8 30.2c-31.8.5-37 24.1-42.6 49.3-14.6 62.2-28.6 124.7-43.2 186.9-16.8.3-33.5-1-50.2-1.9-63.6-3.3-127.2 14.8-180.6 49.3-68.2 44.1-117.4 112.6-142.7 189.4-4.9 14.8-6.9 31.1-15 43.9-26.1 40.8-59.7 98.4-116.1 92.3-27.2-4.4-39.1-31.9-30.6-72.7 6.3-30.4 14.4-60.4 20.5-90.9-41-.1-81.9.2-122.9-.1-17.5-.1-33.5 13-37.4 30-4.9 21.3-10.2 42.6-14.7 64-11.7 55-52.1 101.5-104 101.1-42.8-.3-70.3-38.7-70.2-78.7.3-95.2 57.3-164.9 139.1-179.5 43.7-7.8 92.1 1.3 136.1 4.2 6.7.5 8.5-5.9 9.1-11.4 4.1-37.9 8.4-77 12.5-114.9 2-18.8-.4-20.2-12.3-21.3-42.5-4-84.6-7.5-127.3-5.2-54.6 2.9-107.6 21.8-152.9 52.4-68.7 46.4-116.9 118.4-140 197.5-2.6 8.8-4.3 19-9 26.8-29 48.1-66.4 90.2-117.4 115.3-27 13.3-54.6 25.1-81.8 38 10.2-11.9 20.9-23.2 31.3-34.9 54-53.7 69.7-94 75.3-184.6 6.8-110.4-49.9-180-114.2-202.2-49.2-17-107.7-9.8-149.6 21.9-15.4 11.7-29.5 25.1-44.5 37.4 3.8-19.1 8.5-38.1 12.4-57.2-41.7.1-83.6-.8-125.3 0-28.2.6-34.7 21.1-40.1 44.2l-149.4 643.4c-3.4 14.8 1.8 18 15.8 18h104.9c30.4 0 35.5-24 40.9-47.9 30.2-134.4 60.3-268.9 90.6-403.3 14.3-63.4 73.2-110.2 126.8-102.4 44.8 5.6 65.8 34.8 68.2 78.7 1.1 41.4-11.2 85.2-38.6 116.7-17.5 20.1-40.7 35.3-67.5 39.1-16 2.3-30.2-1.7-45-7.4-7.4 31.6-14.3 63.3-21.8 94.8-8.3 34.9 16.3 46.9 23.8 49.7 57.1 21.3 120.3 24.8 180.7 21.5 62.7-3.4 125.2-16.1 180.7-46.4 18.4-10 32-20 51.6-19.7 16.5.5 32.6 7.3 44.7 19 29.9 28.8 69.9 46.2 111.4 48 66.4 2.9 125.7-22.9 162.8-44.5 37.5 41.8 84.5 47.1 126.1 43.8 45.8-3.6 89.7-18.6 128.9-42.4 15.8-11.2 32.5-19.6 52.1-19.7 20.4-.7 35.4 10.3 50.1 22.7 30.5 25.2 69.3 39.8 108.9 40.4 58.7 1.6 118.5-22.9 156-44.8 24.6 27.3 58 42.7 94.6 44.5 40.7 2 82-6 119.6-21.8 58.8-24.7 108.1-69 146.9-119 5.2-6.7 7.7-14.7 7.7-22.8 0-7.8-2.5-15.7-7.2-22.3-19.3-27.2-39.6-54.8-61.1-82.3-2.2-2.8-7.5-2.6-9.8.3-28.7 40-49.9 82.6-105.4 87.8-52.7-1-41.3-63.7-38.1-77.6 37.8-165.8 79.8-351.1 117.4-516.9 1.9-10.3.7-15.4-8.8-15.5-36.7-.5-73.5 0-110.2-.1zm-117.8 379.5c-9.7 42-18.5 84.2-28 126.3-9.1 49.8-25.3 100.6-72.4 126.6-38.7 19-83.5 8.8-102.9-35.4-8-18.2-7.6-38.6-5.6-57.9 8.7-83.5 63-142 137.1-155.8 24.3-4.5 46.8-2.9 71.7-3.8z"/><path d="m5142.8 651.9c-42.6 0-77.2 34.5-77.2 77s34.6 77 77.2 77 77.2-34.5 77.2-77-34.6-77-77.2-77z"/></g></svg>