<svg viewBox="0 0 325 100" xmlns="http://www.w3.org/2000/svg" xmlns:xlink="http://www.w3.org/1999/xlink"><g fill="#fff"><path d="m71.3 2c-13.1-.1-17.3 22.7-16.9 35.4-3 4.3-7.5 6.7-12.1 8.6l3.6-4c2.1-2.3 3.4-6.8 3.4-11.5 0-7.3-4.6-12.8-10.9-12.8-3.8-.1-6.4 2.4-9.1 4.7l.8-3.8h-11.4c-6.2.1-11.7 3.2-16.3 9.2-.3.3-.4.8-.4 1.3 0 .6.2 1.2.5 1.6l4 5.2c.3.4.7.2.8 0 1.7-2.8 3.9-5.6 6.7-5.6 2.4 0 2.7 2.2 2.7 2.7l-6.9 30.7c0 .2 0 .7.6.7h7.4c1 0 2.1-.8 2.3-1.8l6.1-27.6c1-4.2 4.5-6.7 7.3-6.7 3.5 0 5.4 1.9 5.4 5.5 0 5.9-3.9 9.9-7.5 9.9-.8 0-1.6-.2-2.3-.5l-1.5 6.6c-.2 1.1.4 2.3 1.5 2.7 2.7 1 5.7 1.5 9.2 1.5 7.1 0 12.2-1.3 16.3-4.3 1.6-1 3.8-.9 5.2.4 2.4 2.5 5.6 3.9 9.1 3.9 4 0 8.1-1.3 11.8-3.7 1.7-1 3.8-.7 5.2.6 2.1 2 5 3.1 7.9 3.1 3.6.1 6.8-1.3 9.9-2.9 1.8 2 4.1 2.8 6.7 2.9 3.1.1 6-.9 8.8-2.1l-.3 1.4h8.1c1 0 2.1-.8 2.3-1.8l3.9-17.4c1.2-4.9 4.6-5.5 6.1-5.5 4.1.1 3.7 4.5 3.6 4.9l-2.2 9.7c-1.6 6.9 3.5 10.8 8 10.9 3.1 0 5.9-1.1 8.7-2.2l-.3 1.4h8.1c1 0 2.1-.8 2.3-1.8l2.9-12.9 1.1 4.5c2.1 7.1 7.2 11 14.5 11 1.1 0 3.2-.2 3.5-.5l2.5-10.7c-.9.6-3.2 1.6-4.7 1.6-2 0-3.6-1-4.9-2.5-2.6-3.6-4.2-6.9-4.9-8.3l12.9-12.3c.7-.7.8-2 .3-2.9l-3.7-6.4c-.3-.5-.8-.3-1-.1l-11.1 10.7c.1-6.6 2.3-13 3.6-19.4.1-.4-.1-.7-.5-.7h-7.4c-1 0-2.1.9-2.3 1.9l-6.9 31.1c-1.8 3.2-4.3 6.8-7.4 6.8-2.5 0-3.1-2.6-2.4-5.1l1.7-7.7c1.4-5.3-.7-11.6-6.7-11.6-4.5.1-6.1.7-10.6 4.1l.9-3.5h-8.2c-1 0-2.1.9-2.3 1.9l-3.3 15.1c-5.6 10.4-11.5 7.4-9.9 1.8l1.3-5.7h-8.2c-1 0-2 .8-2.2 1.8l-1.1 4.6c-.7 3.1-3 6.4-6.6 6.4-2.9 0-4.6-2.6-4.6-5.1 0-7 4.7-12 11.3-12 1.6 0 3.9.2 6.4.5.5.1.7-.4.7-.6l.9-8.3c.1-.2-.1-.7-.6-.7-2.4-.3-4.8-.4-7.2-.4-9.7 0-17.9 7-20.5 17.3-.2.8-5.3 8.1-12.1 8-2.7 0-4.5-1-5.6-3.1 9.2-5.3 14.3-15.3 14.4-25.1.1-11.3-5.1-13-8.2-13zm237.1 1.4c-1 0-2 .8-2.2 1.8l-3.1 13.4c-.9-.1-1.8-.2-4.2-.2-9.6 0-18 7.1-20.4 17.2-1.5 3.1-3.7 6.5-7.4 7-.8 0-3.6-.3-2.6-5l1.4-5.6h-8.1c-1 0-2.1.8-2.3 1.8-.4 1.5-.7 3-1 4.5-.7 3-3 6.3-6.6 6.3-2.9 0-4.6-2.5-4.6-5 0-6.9 4.6-11.9 11.2-11.9 1.6 0 3.9.2 6.4.5.1 0 .6.1.7-.5l.9-8.2c0-.4-.1-.6-.5-.7-2.2-.2-5.3-.4-7.3-.4-9.6 0-17.8 6.9-20.4 17.1-2 5.4-7.9 8.4-13.3 10.6 5-5.3 6.8-7.2 7-15.2.2-7.2-4.5-12.5-10.8-12.5-3.8-.1-6.6 2-9.1 4.4l.8-3.7h-8.1c-1 0-2.1.8-2.3 1.8l-9.9 42.8c-.1.3.1.7.6.7h7.3c1 0 2.1-.8 2.3-1.8l6.1-27.2c1-4.1 4.5-6.6 7.2-6.6 3.5 0 5.4 1.8 5.4 5.4 0 5.8-3.9 9.7-7.5 9.7-.8 0-1.6-.2-2.3-.5l-1.4 6.6c-.2 1.1.4 2.3 1.5 2.7 2.7 1 5.6 1.5 9.1 1.5 6.5 0 11.5-1.2 15.5-3.8 1.6-.9 3.5-.7 4.9.5 2.1 2.1 4.9 3.3 7.9 3.3 3.5.1 6.9-1.2 9.9-2.9 1.8 1.9 4.2 2.9 6.7 2.9 3.7 0 7.2-1.1 10.5-3.3 1.6-1.1 3.8-1 5.3.2 2.1 2 4.9 3.1 7.8 3.1 3.6.1 6.9-1.3 9.8-2.9 1.8 1.9 4.1 2.9 6.7 2.9 6.3 0 11.9-3.1 16.6-9.2.3-.4.5-.8.5-1.3s-.2-1.1-.5-1.5l-3.9-5.2c-.2-.3-.6-.2-.7 0-1.6 2.8-3.9 5.6-6.7 5.6-3.3 0-2.8-3.7-2.5-5l7.6-33.5c.1-.5-.2-.7-.5-.7zm-239.6 10.8c1.2 0 2.4.8 2.4 3.1-.1 6.4-5.3 11.8-6.5 11.8-1 0-1.5-.9-1.4-1.7.8-5.1 1.9-13.2 5.5-13.2zm229.9 23.7c-.7 3.1-2.9 6.8-6.8 6.8-2.9 0-4.7-2.6-4.6-5 .3-8.5 8.5-11.8 12-11.8h1.3c-.2 1.7-1.2 6.7-2 10.1z"/><path d="m27.4 87.8-3.6-7.8h-1.9l4.6 9.7v4.2h1.8v-4.2l4.6-9.7h-1.9z"/><path id="a" d="m41 90.3v-2.9c0-2.1-1.1-3.8-4.1-3.8s-4.1 1.7-4.1 3.8v2.9c0 2.1 1.1 3.8 4.1 3.8s4.1-1.7 4.1-3.8zm-1.7-3v3.1c0 1.5-.8 2.2-2.4 2.2s-2.4-.7-2.4-2.2v-3.1c0-1.4.8-2.2 2.4-2.2s2.4.7 2.4 2.2z"/><path id="b" d="m43.9 83.8v7.7c0 1.6.6 2.6 2.2 2.6 1.2 0 3-.6 4.1-1.1l.1.9h1.4v-10.1h-1.7v7.6c-1.1.6-2.7 1-3.4 1-.6 0-1-.2-1-.9v-7.7z"/><path id="c" d="m59.6 83.6c-1 .4-2.1 1-2.8 1.6l-.1-1.4h-1.5v10.1h1.7v-7c.8-.6 1.9-1.2 2.9-1.7z"/><path id="d" d="m68.2 93.9v-10.1h-1.8v10.1zm0-11.8v-2.5h-1.8v2.5z"/><path id="e" d="m79.5 93.9v-7.8c0-1.6-.6-2.5-2.2-2.5-1.2 0-3 .5-4.1 1l-.2-.8h-1.4v10.1h1.8v-7.7c1.1-.6 2.7-1 3.4-1 .6 0 .9.3.9 1v7.7z"/><path id="f" d="m87.9 92.4c-.6.2-1.1.2-1.6.2-.9 0-1.1-.4-1.1-1.1v-6.3h2.8l.1-1.4h-2.9v-2.8l-1.7.2v2.6h-1.8v1.4h1.8v6.6c0 1.7.8 2.3 2.5 2.3.7 0 1.5-.2 2.1-.4z"/><path id="g" d="m91.9 90.4v-.9h6v-2.1c0-2.1-.8-3.8-3.8-3.8s-4 1.6-4 3.7v3.1c0 2.3 1 3.7 4 3.7 1.3 0 2.6-.2 3.6-.6l-.2-1.4c-1.1.3-2.2.5-3.2.5-2 0-2.4-.6-2.4-2.2zm0-3.2c0-1.4.6-2.2 2.2-2.2s2.1.8 2.1 2.2v.9h-4.3z"/><use transform="translate(45.6)" xlink:href="#c"/><path id="h" d="m114.4 86.8c0-2.2-.9-3.2-3.8-3.2-1.1 0-2.4.2-3.4.4l.2 1.4c.8-.2 2.1-.3 3.1-.3 1.6 0 2.2.4 2.2 1.7v1.5h-2.7c-2 0-3.1.8-3.1 2.9 0 1.8.8 2.9 2.7 2.9 1.2 0 2.4-.3 3.3-.9l.1.7h1.4zm-1.7 5c-.8.5-1.7.8-2.6.8-1.2 0-1.5-.4-1.5-1.4s.4-1.4 1.5-1.4h2.6z"/><path d="m121 94.1c.9 0 2-.1 2.5-.3l-.2-1.5c-.8.2-1.5.3-2.2.3-1.7 0-2.3-.5-2.3-2.1v-3.3c0-1.6.6-2.1 2.3-2.1.7 0 1.4 0 2.2.2l.2-1.4c-.5-.2-1.6-.3-2.5-.3-3.2 0-4 1.3-4 3.6v3.2c0 2.3.8 3.7 4 3.7z"/><use transform="translate(43.4)" xlink:href="#f"/><use transform="translate(67.7)" xlink:href="#d"/><path d="m142.3 92.5-2.8-8.7h-1.7l3.3 10.1h2.4l3.3-10.1h-1.7z"/><use transform="translate(58.1)" xlink:href="#g"/><path d="m169.3 79.5c-.7-.2-1.4-.3-2.1-.3-1.9 0-2.9.9-2.9 2.7v1.9h-1.7v1.4h1.7v8.7h1.8v-8.7h2.7l.2-1.4h-2.9v-1.7c0-1 .2-1.4 1.3-1.4.4 0 1.2.1 1.7.2z"/><use transform="translate(127.1)" xlink:href="#b"/><path id="i" d="m184 93.9v-14.5l-1.7.2v14.3z"/><use transform="translate(5.2)" xlink:href="#i"/><path d="m192.3 88.8h5.2v-1.4h-5.2z"/><path d="m208.4 86.7c0-1.9-.8-3.1-2.9-3.1-1.3 0-2.5.3-3.2.7v-4.9l-1.8.2v14.1c1.2.3 2.7.4 3.6.4 3.5 0 4.3-1.5 4.3-3.8zm-6.1-.8c.7-.3 1.8-.8 2.7-.8 1.2 0 1.7.6 1.7 1.6v3.7c0 1.4-.3 2.2-2.4 2.2-.6 0-1.3-.1-2-.2z"/><use transform="translate(178.1)" xlink:href="#a"/><path d="m221.7 91c0 2 1 3.1 3 3.1 1.3 0 2.5-.4 3.3-1.1l.2.9h1.4v-14.5l-1.7.2v4.3c-.8-.2-2-.3-2.9-.3-2.4 0-3.3 1.3-3.3 3.3zm6.2.4c-.7.7-1.9 1.2-2.9 1.2-1.2 0-1.5-.6-1.5-1.6v-4.1c0-1.2.4-1.8 1.6-1.8.7 0 1.9.1 2.8.3z"/><path d="m234.2 98h1.6l1.5-4.1 3.3-10.1h-1.7l-2.8 8.7-2.8-8.7h-1.7l3.3 10.1h.7z"/><use transform="translate(164.4)" xlink:href="#f"/><use transform="translate(199.8)" xlink:href="#c"/><use transform="translate(154.3)" xlink:href="#h"/><use transform="translate(205.5)" xlink:href="#d"/><use transform="translate(205.5)" xlink:href="#e"/><use transform="translate(197.7)" xlink:href="#g"/><use transform="translate(243.3)" xlink:href="#c"/></g></svg>