<svg viewBox="0 0 660 100" xmlns="http://www.w3.org/2000/svg"><g id="figure" fill="#fff"><path d="m18.5 58.6c-9 0-16.5-7.8-16.5-17v-23.3c0-9 7.3-16.1 16.5-16.1h58.1c9.1 0 16.4 7.3 16.4 16.5v7h-18.4v-.7c0-1.1-.5-1.7-1.6-1.7h-48.1c-1.1 0-1.7.6-1.7 1.7v11.2c0 .7.5 1.2 1.2 1.2h54.9c9.2 0 16.4 7.4 16.4 16.5v27.6c0 9.1-7.2 16.5-16.4 16.5h-60.8c-9 0-16.4-7.4-16.4-16.5v-7h21.1v.9c0 1.1.6 1.7 1.7 1.7h48.1c1.1 0 1.6-.6 1.6-1.7v-15.7c0-.9-.7-1.1-1.1-1.1z"/><path d="m130.7 37.3h40.9c5.7 0 9.5-3.9 10.3-7.6v-27.7h21.1v29.1c0 7.4-3.8 12.7-11.4 16 9.4 3.1 14.1 8.9 14.1 17.7v33.2h-21.1v-31.8c-.9-4.2-5-7.6-10.3-7.6h-43.6v39.4h-21.1v-96h21.1z"/><path d="m219.6 2h21.1v96h-21.1z"/><path d="m254.6 37.7h43.8v21.2h-43.8z"/><path d="m333.4 43.9h46.5c3.5 0 6.2-2.8 6.2-6.2v-8.9c0-3.2-2.7-6.2-6.3-6.2h-46.4zm50.3-41.9c13.1 0 23.8 10.9 23.8 24.4v12.9c0 5.6-3.8 9.9-11.5 13.1 7.7 3.2 11.5 7.8 11.5 13.7v31.9h-21.4v-31.6c0-1.4-1.4-2.7-3-2.7h-49.7v34.3h-21.1v-96h21.1v4.3c4.1-2.9 8.6-4.3 13.5-4.3z"/><path d="m445.5 23.7c-1.8 0-2.7.9-2.7 2.6v47.5c0 1.7.9 2.6 2.7 2.6h47c1.8 0 2.6-.9 2.6-2.6v-47.5c0-1.7-.8-2.6-2.6-2.6zm47.2-21.7c13.2 0 23.8 10.7 23.8 24v48c0 13.6-10.8 24-23.8 24h-47.5c-13.1 0-23.8-10.6-23.8-24v-48c0-13.3 10.6-24 23.8-24z"/><path d="m582.4 76.7c.8 0 1.2-.4 1.2-1.2v-73.5h21.3v73.5c0 .8.4 1.2 1.2 1.2h29.7c.8 0 1.1-.4 1.1-1.2v-73.5h21.1v79.5c0 9.4-7.5 16.5-16.4 16.5h-33.4c-6 0-11.1-3.3-14-8.1-2.8 4.9-8 8.1-14 8.1h-33.4c-9.2 0-16.4-7.6-16.4-16.5v-79.5h21.1v73.5c0 .8.4 1.2 1.1 1.2z"/></g></svg>