<svg viewBox="0 0 388 100" xmlns="http://www.w3.org/2000/svg" xmlns:xlink="http://www.w3.org/1999/xlink"><g id="figure" fill="#fff"><path d="m50 2c-26.5 0-48 21.5-48 48s21.5 48 48 48 48-21.5 48-48c.1-26.5-21.5-48-48-48zm0 88.2c-22 0-39.7-18.1-39.7-40.2 0-22 17.6-39.8 39.7-39.8 22 0 40.3 17.7 40.3 39.8s-18.3 40.2-40.3 40.2zm-24.6-32.1c-3.9 1.2-7.4 2.4-10 3.5.8 2.6 2 5.1 3.4 7.4 4-.8 5.1-5 5.2-5.2zm49.8-20.3-1.6 6.3c5.2.1 9.6.8 13.3 1.9-.6-4.9-2.1-9.4-4.4-13.5-3.6-.3-6.3 2-7.3 5.3zm-25-24.4c-20.3 0-36.6 16.5-36.6 36.8 0 2.3.2 4.6.6 6.8 4.6-2 8.7-3.7 12.8-5l6.4-24.9h15.9s-2.6 10.1-5.2 20.1c4.6-1 9.1-1.7 13.4-2.2 1.4-5.6 2.5-9.7 2.5-9.7 0-.1 2.4-7.8 10-8.1h8.9c-6.7-8.4-17.1-13.8-28.7-13.8zm15.5 61.1h-15.9s3-11.6 5.7-22.2c-4.3.4-8.8 1-13.3 1.8-1.8 6.8-3.1 12.3-3.1 12.3 0 .1-2.4 7.8-10.1 8.1h-6.4c6.8 7.7 16.6 12.6 27.6 12.6 18.9 0 34.6-14.4 36.6-32.8-4.2-1.2-9.3-2-15.3-2.3z"/><path d="m151.7 35.2-3.2 10.5h-13.1l3.1-10.5h-8.3c-4.2 0-5.2 3.4-5.2 3.4l-8.4 28.1h12.4l3.6-11.6h13.2l-3.6 11.6h8.3c4.3 0 5.3-4.1 5.3-4.1l8.3-27.4z"/><path id="o" d="m199.9 38.4c-3-2.3-6.8-3.5-13-3.5-6.1 0-10.8 1.2-15.2 3.5-6.3 3.3-7.4 7.8-8.9 12.5-.7 2.3-1.5 4.9-1.5 7 0 2.2.7 3.8 2.9 5.5 3 2.3 6.8 3.5 13 3.5 6.1 0 10.8-1.2 15.2-3.5 6.4-3.3 7.4-7.8 8.9-12.5.8-2.4 1.5-4.7 1.5-6.9 0-2.1-.8-4-2.9-5.6zm-11 12.5c-1.8 5.7-2.8 6.8-4.2 7.7-1.1.8-3 1.4-5.3 1.4s-3.8-.6-4.5-1.4c-.8-.9-1.3-2 .5-7.7s2.8-6.7 4.2-7.7c1.1-.8 3-1.4 5.3-1.4s3.9.7 4.5 1.4c.8.9 1.2 1.9-.5 7.7z"/><path d="m261.1 42h3.7l2-6.9h-16l-7.4 24.6h-7.1l-3.3-6.3c4.4-1.3 9.4-4 10.7-8.2 1.6-5.2-3-10.1-14.2-10.1h-20l-9.4 31.5h12.4l7.5-24.5h7c3.4 0 4.9 1.6 4.4 3.2s-2.9 3.1-6.3 3.1l-2.1 7 6.1 11.2h20.3c2.8.1 5-2.8 5.6-4.6z"/><path d="m269.8 35.1-2 6.9h19.1c1.8.1 1.2 1.4.4 1.9l-29.3 16.7-1.7 6h37.4l2-6.9h-18.2l19.8-11.3c1-.6 1.2-.9 1.6-1.6l2.3-5.5c.4-.9.5-1.6.5-2.6 0-1.5-2.1-3.6-7.1-3.6"/><use transform="translate(137.7)" xlink:href="#o"/><path d="m373.6 35.2-4.7 15.8-11.4-15.8h-10.9l-9.5 31.5h12.4l4.8-15.9 11.4 15.9h5.4c5.6 0 6.8-4.6 6.8-4.6l8.1-26.9z"/><path d="m252 91h2.1l1.6-5.1h5.6l.4-1.2h-5.6l1.2-3.7h6l.4-1.2h-8.1z"/><path d="m270.5 91h2l3.6-11.3h-2z"/><path d="m285 81h4.5l-3.2 10h2l3.2-10h4.6l.4-1.3h-11z"/><path d="m313.7 84.5c-.6 1.8-.9 3.1-1.3 4.6h-.1c-.3-1.2-.8-2.3-1.5-3.7l-3-5.7h-2.1l-3.6 11.3h1.8l1.6-4.8c.6-1.9 1-3.2 1.3-4.7h.1c.4 1.2.9 2.5 1.6 3.7l2.9 5.7h2l3.6-11.3h-1.8z"/><path d="m324.5 91h8.4l.4-1.2h-6.4l1.3-4.1h5.7l.4-1.2h-5.8l1.1-3.5h6.2l.3-1.2h-8z"/><path id="s" d="m345.3 82.7c-.5 1.6.8 2.6 3 3.2 1.8.6 2.4 1.2 2.1 2.2-.4 1.1-1.8 1.8-3.8 1.8-1.3 0-2.5-.2-3.2-.6l-.9 1.2c.6.4 2.1.7 3.6.7 3.5 0 5.7-1.6 6.3-3.3.5-1.6-.5-2.5-2.8-3.3-1.8-.6-2.7-1.1-2.3-2.2.2-.8 1.3-1.7 3.3-1.7 1.3 0 2.3.4 2.7.6l.9-1.2c-.6-.3-1.6-.6-3.1-.6-2.8 0-5.2 1.4-5.8 3.2z"/><use transform="translate(18.7)" xlink:href="#s"/></g></svg>