<svg viewBox="0 0 356 100" xmlns="http://www.w3.org/2000/svg" xmlns:xlink="http://www.w3.org/1999/xlink"><defs><linearGradient id="f1" gradientTransform="matrix(0 47.3 47.3 0 134.6 9.3)" gradientUnits="userSpaceOnUse" spreadMethod="pad" x1="0" x2="1" y1="0" y2="0"><stop offset="0" stop-color="#024d36"/><stop offset=".039186" stop-color="#024d36"/><stop offset=".257191" stop-color="#33b652"/><stop offset=".524802" stop-color="#33b652"/><stop offset=".778202" stop-color="#33b652"/><stop offset=".939653" stop-color="#024d36"/><stop offset="1" stop-color="#024d36"/></linearGradient><linearGradient id="f2" gradientTransform="matrix(28.5 24.1 -24.1 28.5 140.6 1.3)" gradientUnits="userSpaceOnUse" spreadMethod="pad" x1="0" x2="1" y1="0" y2="0"><stop offset="0" stop-color="#1266ac"/><stop offset=".237242" stop-color="#6ac2ee"/><stop offset=".465102" stop-color="#6ac2ee"/><stop offset=".656372" stop-color="#6ac2ee"/><stop offset="1" stop-color="#1266ac"/></linearGradient><linearGradient id="f3" gradientTransform="matrix(-58.2 64.5 -64.5 -58.2 203.7 1.3)" gradientUnits="userSpaceOnUse" spreadMethod="pad" x1="0" x2="1" y1="0" y2="0"><stop offset="0" stop-color="#861a10"/><stop offset=".190184" stop-color="#f36018"/><stop offset=".371821" stop-color="#f8a46b"/><stop offset=".441718" stop-color="#f8a46b"/><stop offset=".660733" stop-color="#f36018"/><stop offset=".693252" stop-color="#f36018"/><stop offset=".730559" stop-color="#f36018"/><stop offset="1" stop-color="#861a10"/></linearGradient><linearGradient id="f4" gradientTransform="matrix(-27.6 -23.5 23.5 -27.6 210.3 63.3)" gradientUnits="userSpaceOnUse" spreadMethod="pad" x1="0" x2="1" y1="0" y2="0"><stop offset="0" stop-color="#1266ac"/><stop offset=".284355" stop-color="#6ac2ee"/><stop offset=".452556" stop-color="#6ac2ee"/><stop offset=".549792" stop-color="#6ac2ee"/><stop offset="1" stop-color="#1266ac"/></linearGradient><linearGradient id="f5" gradientTransform="matrix(0 48.5 -48.5 0 216.4 9.3)" gradientUnits="userSpaceOnUse" spreadMethod="pad" x1="0" x2="1" y1="0" y2="0"><stop offset="0" stop-color="#024d36"/><stop offset=".022536" stop-color="#024d36"/><stop offset=".248015" stop-color="#33b652"/><stop offset=".524802" stop-color="#33b652"/><stop offset=".778202" stop-color="#33b652"/><stop offset=".939653" stop-color="#024d36"/><stop offset="1" stop-color="#024d36"/></linearGradient></defs><g fill="#445660"><path d="m33.6 28.6-21.5-.7v-8.3c0-2 0-4.1 3.8-4.1h21v-4.7c-4.2-3.4-20.7-4.6-23.8-4.8-5.4 0-11.1 2.7-11.1 11.1v42.7c8.4-1.8 10.2-8 10.2-8v-14.2l21.5-.7z"/><path d="m75.5 50.4h-18.2c-2.1 0-4.5.1-4.5-3.8v-36.4c-1.5-1.6-5.7-2.8-10.2-3.6v42.9c0 8.1 5.3 10.3 11 10.3h1.4c9.9-.8 19.2-3.8 19.2-3.8l1.3-.8z"/><path d="m80.8 17.7v31.6c0 8.3 5.4 10.3 10 10.6 11.6.2 24.5-4 24.5-4l.4-.3v-5.3h-20.3c-2.1 0-4.5.1-4.5-3.8v-8.3l21.5-.7v-8.2l-21.5-.7v-8.3c0-2 0-4.1 3.8-4.1h21v-4.2c-3.3-3.7-20.7-5-24.2-5.3-4.9.2-10.7 2.3-10.7 11"/><path d="m262.9 13.8-10.7 34.1-10.4-35c-2.1-5.6-5.9-6.1-7-6.1h-5.6l16 50.9c.9 1.4 2.3 2.5 4.5 2.5h5.3c2 0 3.4-1.1 4.3-2.4l16.6-51.2h-5.7c-1.1 0-5.4.6-7.3 7.1"/><path d="m282.5 59.8h10.2v-53.1h-10.2z"/><path d="m298.8 16v.1h14.4v36.6c.8 1.7 3.3 5.8 9.8 7.2h.4v-43.9h4.9c10-1 9.8-9.3 9.8-9.3v.1-.1h-27.3c-11.6 0-11.9 8.5-11.9 9.3"/><path d="m343.3 9.1h1.3v4.1h1.5v-4.1h1.3v-1.3h-4.1z"/><path d="m352.5 7.8-1.5 2.6-1.5-2.6h-1.5v5.4h1.5v-2.8l.8 1.6h1.3l.8-1.6v2.8h1.5v-5.4z"/></g><g fill="#787878"><path d="m47.5 97.9h-6.8v-16.4h6.6c3.2 0 5 1.8 5 4.6 0 1.8-1.2 3-2 3.4 1 .5 2.3 1.5 2.3 3.7 0 3.1-2.1 4.7-5 4.7m-.6-13.5h-3.1v3.8h3.1c1.4 0 2.1-.8 2.1-1.9s-.8-1.9-2.1-1.9m.2 6.6h-3.3v4h3.3c1.4 0 2.1-.9 2.1-2s-.7-2-2.1-2"/><path d="m69.7 97.9-1-2.9h-5.8l-1 2.9h-3.3l5.9-16.3h2.5l6 16.3zm-3.8-11.5-2.1 5.9h4.1z"/><path d="m89.4 97.9-6.5-10.1v10.1h-3.2v-16.4h2.8l6.5 10v-10h3.2v16.3z"/><path d="m110.9 96.3c-1.1 1.1-2.6 1.6-4.3 1.6h-5.9v-16.4h5.9c1.7 0 3.2.5 4.3 1.6 1.8 1.8 1.7 4.1 1.7 6.5 0 2.5.2 4.8-1.7 6.7m-2.2-10.9c-.5-.7-1.3-1-2.4-1h-2.4v10.6h2.4c1.1 0 1.8-.3 2.4-1s.7-1.9.7-4.4-.1-3.5-.7-4.2"/><path d="m125 98c-2.5 0-4.4-.5-6-2.2l2.1-2.1c1 1 2.4 1.4 3.9 1.4 1.9 0 2.9-.7 2.9-2 0-.6-.2-1.1-.5-1.4s-.7-.5-1.4-.6l-2-.3c-1.4-.2-2.4-.6-3.2-1.4s-1.2-1.8-1.2-3.2c0-2.9 2.2-5 5.7-5 2.3 0 3.9.6 5.3 1.9l-2 2c-1-1-2.3-1.1-3.3-1.1-1.7 0-2.5.9-2.5 2.1 0 .4.1.8.5 1.2.3.3.8.6 1.5.6l1.9.3c1.5.2 2.4.6 3.1 1.3.9.8 1.3 2 1.3 3.5 0 3.2-2.6 5-6.1 5"/><path d="m157.3 97.9-3.2-6.5h-2.3v6.5h-3.2v-16.4h6.4c3.3 0 5.3 2.3 5.3 5 0 2.3-1.4 3.7-3 4.3l3.6 7zm-2.5-13.5h-3v4.3h3c1.4 0 2.3-.9 2.3-2.2s-.9-2.2-2.3-2.2"/><path d="m168.3 97.9v-16.4h10.8v2.8h-7.6v3.8h6.4v2.8h-6.4v4h7.6v2.8z"/><path d="m186.9 97.9v-16.4h3.2v13.5h7.4v2.8z"/><path d="m214 96.2c-1.1 1.1-2.5 1.8-4.4 1.8s-3.3-.6-4.4-1.8c-1.7-1.7-1.6-3.7-1.6-6.5s0-4.9 1.6-6.5c1.1-1.1 2.6-1.8 4.4-1.8 1.9 0 3.3.6 4.4 1.8 1.7 1.7 1.6 3.7 1.6 6.5s0 4.9-1.6 6.5m-2.4-11.1c-.5-.5-1.2-.9-2-.9-.9 0-1.6.3-2.1.9-.6.7-.8 1.4-.8 4.6 0 3.1.2 3.9.8 4.6.5.5 1.2.9 2.1.9s1.6-.3 2-.9c.6-.7.8-1.4.8-4.6 0-3.1-.2-3.9-.8-4.6"/><path d="m232.6 97.9-1-2.9h-5.8l-1 2.9h-3.3l5.9-16.3h2.5l6 16.3zm-3.8-11.5-2.1 5.9h4.1z"/><path d="m252.8 96.3c-1.1 1.1-2.6 1.6-4.3 1.6h-5.9v-16.4h5.9c1.7 0 3.2.5 4.3 1.6 1.8 1.8 1.7 4.1 1.7 6.5 0 2.5.2 4.8-1.7 6.7m-2.2-10.9c-.6-.7-1.3-1-2.4-1h-2.4v10.6h2.4c1.1 0 1.8-.3 2.4-1s.7-1.9.7-4.4-.1-3.5-.7-4.2"/><path d="m262.4 97.9v-16.4h10.8v2.8h-7.6v3.8h6.4v2.8h-6.4v4h7.6v2.8z"/><path d="m291.1 96.3c-1.1 1.1-2.6 1.6-4.3 1.6h-5.9v-16.4h5.9c1.7 0 3.2.5 4.3 1.6 1.8 1.8 1.7 4.1 1.7 6.5 0 2.5.2 4.8-1.7 6.7m-2.2-10.9c-.5-.7-1.3-1-2.4-1h-2.4v10.6h2.4c1.1 0 1.8-.3 2.4-1s.7-1.9.7-4.4-.1-3.5-.7-4.2"/></g><g><path fill="url(#f1)" d="m125.2 32.1c0 9.6 1.3 20.1 6.3 25.9 3.3-.7 8.8-2.5 12.3-6.1-4.2-12.7-4.1-26.5.1-38.5-3.3-3.5-8.4-5.2-11.7-6.1-6.1 6.2-7 16.7-7 24.8z"/><path fill="url(#f2)" d="m132.6 6.7c15.5 1.7 23.9 13.6 33 24.2l9.2-10.5c-7.4-9-16.7-18.8-28.9-18.4-4.7.2-10.1 2-13.3 4.7z"/><path fill="url(#f3)" d="m183 14.1c-9.7 11-19.1 22.8-27.7 32.5-6.1 6.8-14 11.1-22.8 12.2 4 4.5 11.4 4.7 15.7 4.5 8.3-.8 17-7.2 21.1-11.9 8.5-9.5 18.4-21.7 27.7-32.6 5.6-6.3 13.1-10.7 21.1-11.9-4.1-2.6-8.7-4.6-13.4-4.6-9.2 0-15.6 5.1-21.7 11.8z"/><path fill="url(#f4)" d="m177.6 45.1c4.1 9.9 23.8 21.8 35.9 17 3.3-1.5 4.5-2.3 5.6-3.3-14.6-2.1-24.2-13.6-32.4-24.5z"/><path fill="url(#f5)" d="m207.2 52.1c3.5 3.7 9 5.4 12.3 6.1 6.7-14.4 9.5-40.1-.6-50.4-3.4.8-8.4 2.6-11.8 6 4.6 14.5 4.1 24.8.1 38.4z"/></g></svg>