<svg viewBox="0 0 400 100" xmlns="http://www.w3.org/2000/svg"><g fill="#ff147a"><path d="m22.6 2.2c-11.6 0-20.6 11.9-20.6 27.6 0 10.9 5.9 27.2 20.6 27.2h36c14.7 0 20.6-16.3 20.6-27.2 0-15.7-9-27.6-20.6-27.6zm3.1 14h29.8c7.4 0 8.3 7.2 8.3 13.6 0 6.6-1.1 13.2-8.3 13.2h-29.8c-7.2 0-8.3-6.6-8.3-13.2 0-6.4.9-13.6 8.3-13.6z"/><path d="m101 23.7v-8.2h40c5.6.1 5.7 8.2 0 8.2zm13.5 12.3c10.5.1 15 .4 21.5 7.7l8.5 9.6c2.4 2.8 4.1 4 6.9 4 3.7 0 6.6-3 6.6-7.2 0-2.4-1.5-5.2-3.6-7.2l-7.1-6.7c1.8-.2 7.5-.5 9.1-4.1 1-2.1.9-5.5.9-11.2.1-6.2.3-10.2-.8-13.5-1.1-3.4-3.4-5.2-8.2-5.2h-51.6c-3.2 0-6.2.8-7.6 2.9-1.3 1.8-1.7 4.7-1.7 7.9v36c0 6 2.8 8 7.1 8 3.7 0 6.9-2.3 6.9-8v-13z"/><path d="m182.1 2.1c-4 0-15.9 1.5-15.9 17.9v19.3c0 16.4 11.9 17.9 15.9 17.9h43.8c5.6 0 12-.3 12-6.9.1-7-6.5-7.3-12-7.3h-45.8l-.1-26.7h45.9c5.5 0 12.1-.3 12-7.3-.1-6.6-6.4-6.9-12-6.9zm16.4 20.6c-3.9 0-7 3.1-7 7v.4c0 3.9 3.1 7 7 7h11.3c3.9 0 7-3.1 7-7v-.4c0-3.9-3.1-7-7-7z"/><path d="m251.9 2c-3.8 0-6.8 3.1-6.8 7v41.5c0 3.9 3 7 6.8 7s6.9-3.1 6.9-7v-17.6c.5 2 2.5 4.4 4.6 5.3l41.3 18.9c.9.4 1.9.5 2.8.5 4.5 0 7.1-3.6 7.1-7.1 0-2.6-1.5-5.1-4.1-6.3l-31.6-14.3 31.6-14.3c2.6-1.2 4.1-3.7 4.1-6.4 0-3.5-2.7-6.8-7.2-6.9-1 0-1.8.1-2.7.5l-41.3 18.8c-2 .9-4.1 3.2-4.6 5.2v-17.8c0-3.9-3.1-7-6.9-7z"/><path d="m355.9 21.5c3.2-4.4 4.6-1.1 6.9 1.9l21.4 28.7c1.7 2.3 3.2 4.9 7.2 5 3.5.1 6.6-2.8 6.6-6 0-2.3-1-5.2-3.1-7.9l-27.8-36.8c-2.1-2.6-5.4-4-8.5-4-3 0-6 1.2-8.3 4l-28.3 37.5c-1.8 2.4-2.7 4.8-2.7 6.7 0 6.1 6.7 6.5 10.7 6.5h32.4c3.9 0 6.7-3.3 6.7-6.7 0-3.7-3.1-7.5-6.7-7.5h-22.3z"/></g><g fill="#414141"><path d="m283.8 81.8h-8.3v1.5h3.2v14.6h1.8v-14.6h3.3z"/><path d="m298.4 93.9c-.5-2.5-1.4-3.3-2.5-3.6v-.2c1.9-.8 2.9-2.1 2.9-4.1 0-1.3-.4-2.3-1.2-3.1-.9-.8-2.1-1.1-3.9-1.1-1 0-2.1 0-2.9.2v15.9h1.8v-7.1h1c1.8 0 2.6.8 3 3.1.4 2.1.7 3.5.9 4h1.8c-.5-1.3-.7-2.7-.9-4zm-5.6-4.4v-6.3c.3-.1.6-.1 1-.1 2.2 0 3.1 1.2 3.1 3.1 0 2-1.4 3.3-3.3 3.3z"/><path d="m311.6 81.8h-2.1l-4 16.1h1.8l1.1-4.9h4.2l1.1 4.9h1.8zm-2.8 9.8 1.7-7.8h.1l1.6 7.8z"/><path d="m325.1 97.9h1.8v-16.1h-1.8z"/><path d="m344.2 97.9h1.7v-16.1h-1.6v13.3l-5.5-13.3h-1.8v16.1h1.6v-13.4z"/><path d="m356 97.9h1.8v-16.1h-1.8z"/><path d="m375.1 97.9h1.7v-16.1h-1.6v13.3l-5.5-13.3h-1.8v16.1h1.6v-13.4z"/><path d="m385.3 96.4c1.1 1.1 2.3 1.6 4.1 1.6 1.1 0 2.4-.2 3.1-.5v-7.9h-4v1.3h2.3v5.5c-.2.1-.6.2-1.4.2-3.9 0-4.3-4.7-4.3-6.7 0-6.3 3.6-6.8 4.7-6.8.8 0 1.4.2 2 .4l.4-1.4c-.6-.3-1.4-.4-2.4-.4-3.2 0-6.6 2.2-6.6 8.4 0 2.7.7 5 2.1 6.3z"/></g></svg>