<svg viewBox="0 0 470 100" xmlns="http://www.w3.org/2000/svg"><g id="figure" fill="#fff"><path d="m136.6 69.3c-5.7 1.8-13.2 1.6-17.8-1.8-2.6-1.9-4.5-4.6-5.6-7.6-1.1-3.2-1.6-6.5-1.6-9.9 0-5.7 1.3-10.5 3.9-14.5s6.8-5.9 12.7-5.9c5.7 0 11.6 1.9 16.3 3.5v-7.5c-5.6-1.3-11.3-2.2-16.2-2.3-8.4 0-14.8 2.6-19 7.6s-6.2 11.4-6.2 19.1c-.1 4.7.9 9.4 2.8 13.8 1.6 3.9 4.4 7.3 8 9.6 3.6 2.2 8.3 3.3 14.4 3.3 5.6.1 11.3-1.3 16.3-2.8v-20.9h-8z"/><path d="m171.7 46.8-12.7-22.2h-9.2l17 29.6v21.2h8v-21.2l18.2-29.6h-7.6z"/><path d="m223 62.3-13.5-37.7h-10.6v50.8h7v-38.6l12.6 35.3h7.4l13.1-35.3v38.6h7.5v-50.8h-9.5z"/><path d="m271.5 44.6c-2.7-1.6-5.4-3.1-7-5.6-1.6-2.6-.7-5.5 1-7.3 1.3-1.5 3.3-2.2 6.1-2.2 4.3.1 8.8 1.9 12.4 3.4v-7.5c-4.3-1.2-8.9-2-12.7-2.1-3.3 0-6.1.6-8.3 1.8s-3.9 3-5.2 5.1-1.9 4.4-1.9 6.8c0 2.7.8 5.3 2.4 7.5 1.7 2.3 4.8 4.7 9.4 7.3l3.5 2c3.8 2.1 7.7 4.8 7.7 9.1 0 2-.9 4-2.4 5.3-1.6 1.5-3.7 2.3-6.5 2.3-5.2 0-10.4-2.4-14.5-4.3v8.1c4.5 1.3 9.1 2.4 13.5 2.4 5.9 0 10.3-1.4 13.4-4.4 2.9-2.7 4.6-6.5 4.6-10.5 0-2.8-.8-5.5-2.4-7.8s-4.8-4.8-7.1-6.1z"/><path d="m289.8 30.8h17.7v44.6h8v-44.6h17.7v-6.2h-43.4z"/><path d="m339.6 75.4h8v-50.8h-8z"/><path d="m382.2 70.2c-5.6 0-9.8-1.8-12.8-5.5s-4.5-8.5-4.5-14.6c0-5.8 1.3-10.7 3.9-14.7 2.6-3.9 6.8-5.9 12.7-5.9 5.7 0 11.6 2.2 16.3 3.8v-7.7c-5.4-1.1-11.2-2.3-16.2-2.3-8.5 0-14.8 2.6-18.9 7.6s-6.3 11.4-6.3 19.1c0 7.6 2 13.9 6 19 3.9 5.1 10.4 7.7 18.8 7.7 5.8.1 11.9-1.6 16.6-4v-7.1c-5.2 2.6-10.2 4.6-15.6 4.6z"/><path d="m442.6 24.6h-8.4l-19.6 23.7v-23.7h-7.5v50.8h7.5v-24.5l21.3 24.5h10.2l-23.5-26.5z"/><path d="m447.7 26.2h3.3v8.1h2.2v-8.1h3.3v-1.6h-8.8z"/><path d="m465.2 24.6-2 5.6-2-5.6h-3.1v9.7h1.8v-6.4l2.1 5.6h1.6l2.1-6.2v7h2.3v-9.7z"/><path d="m45.1 98c-1.2 0-2.4-.3-3.4-.9l-36.2-20.6c-2.1-1.2-3.5-3.5-3.5-6v-41c0-2.5 1.4-4.8 3.5-6l36.2-20.6c1.1-.6 2.1-.9 3.4-.9 1.1 0 2.4.4 3.4.9l36.2 20.6c2.1 1.2 3.5 3.5 3.5 6v41c0 2.5-1.4 4.8-3.5 6l-36.2 20.6c-1 .6-2.2.9-3.4.9zm-38.8-73c-1.6.9-2.6 2.6-2.6 4.5v41c0 1.9 1 3.6 2.6 4.5l36.2 20.6c1.6.9 3.5.9 5.1 0l36.2-20.6c1.6-.9 2.7-2.6 2.7-4.5v-41c0-1.9-1.1-3.6-2.7-4.5l-36.2-20.6c-1.6-.9-3.5-.9-5.1 0z"/><path d="m81.3 41.5-36.2-20.7-36 20.7v-12.1l36-20.5 36.2 20.5z"/><path d="m9 70.5 31.4 18.1v-31.5l-15.2-9.2v12.3l4.3 2.5v8l-9.7-5.5v-23.6l-10.8 6.2z"/><path d="m50 88.4v-20l10.9-5.7v7.9l9.6-5.6v-4.8l-20.5-11.9v-17.6l10.9 6.5v4.2l20.5 11.8v17.5z"/></g></svg>