<svg viewBox="0 0 660 100" xmlns="http://www.w3.org/2000/svg"><g id="figure"><path d="m62.2 84.7c-10.2 3.1-23.7 2.9-32-3.2-4.6-3.4-8.1-8.3-10.1-13.7-2-5.7-2.9-11.7-2.9-17.8 0-10.3 2.3-18.9 7-26.1s12.2-10.6 22.8-10.6c10.2 0 20.8 3.5 29.3 6.3v-13.5c-9.9-2.3-20.2-4-29-4.1-15.1 0-26.7 4.6-34.1 13.7-7.5 9-11.2 20.4-11.2 34.3-.1 8.5 1.7 17 5 24.8 2.9 7.1 7.9 13.1 14.4 17.3 6.4 4 15 5.9 25.9 5.9 10.1.1 20.2-2.3 29.3-5v-37.6h-14.4z"/><path d="m125.3 44.2-22.8-39.9h-16.5l30.6 53.2v38.1h14.4v-38.1l32.6-53.2h-13.7z"/><path d="m217.5 72.1-24.2-67.8h-19.1v91.3h12.6v-69.3l22.7 63.4h13.3l23.5-63.4v69.4h13.5v-91.4h-17.1z"/><path d="m304.7 40.3c-4.8-2.9-9.8-5.5-12.6-10.1-2.8-4.7-1.2-9.8 1.8-13.1 2.4-2.6 5.9-4 11-4 7.8.1 15.8 3.4 22.3 6.1v-13.4c-7.8-2.1-15.9-3.7-22.8-3.8-5.9 0-11 1-14.9 3.2-3.9 2.1-7.1 5.4-9.3 9.2-2.3 3.7-3.4 7.9-3.4 12.2 0 4.8 1.4 9.6 4.3 13.5 3 4 8.6 8.4 16.9 13.1l6.3 3.5c6.9 3.8 13.8 8.5 13.9 16.4 0 3.6-1.6 7.2-4.3 9.6-2.8 2.6-6.6 4.1-11.7 4.1-9.3-.1-18.7-4.3-26.1-7.7v14.6c8.1 2.4 16.4 4.3 24.3 4.3 10.5 0 18.6-2.6 24.1-7.9 5.3-4.8 8.2-11.7 8.3-18.9 0-5.1-1.4-9.9-4.3-14s-8.6-8.6-12.8-11z"/><path d="m337.6 15.5h31.9v80.2h14.4v-80.2h31.8v-11.2h-78z"/><path d="m427.2 95.7h14.4v-91.4h-14.4z"/><path d="m503.7 86.3c-10 0-17.6-3.3-23-9.9s-8.1-15.3-8.1-26.2c0-10.5 2.3-19.3 7-26.4 4.7-7 12.2-10.6 22.8-10.6 10.2 0 20.8 3.9 29.3 6.8v-13.9c-9.7-2-20.1-4-29-4.1-15.2 0-26.5 4.6-34 13.7s-11.3 20.4-11.3 34.3c0 13.6 3.6 25.1 10.7 34.2s18.6 13.8 33.9 13.8c10.5.1 21.3-2.8 29.8-7.2v-12.8c-9.3 4.6-18.4 8.2-28 8.3z"/><path d="m612.3 4.3h-15.1l-35.2 42.6v-42.6h-13.5v91.4h13.5v-44.1l38.3 44h18.3l-42.2-47.6z"/><path d="m621.5 7.2h5.9v14.6h4v-14.6h5.9v-2.9h-15.8z"/><path d="m652.9 4.3-3.6 10.1-3.5-10.1h-5.6v17.4h3.2v-11.4l3.8 10.1h2.9l3.8-11.1v12.6h4.1v-17.6z"/></g></svg>