<svg viewBox="0 0 274 100" xmlns="http://www.w3.org/2000/svg"><g id="figure"><path d="m270.958 28.518c0-.295-.33-.334-.604-.337h-.663v.702h.6c.159 0 .667.054.667-.365zm.227 1.66h-.327l-.641-1.039h-.526v1.039h-.254v-2.252h.982c.592 0 .793.223.793.597 0 .44-.308.606-.704.616zm.789-1.173c0-.999-.794-1.797-1.788-1.797-1.002 0-1.802.797-1.802 1.797 0 1.014.8 1.811 1.802 1.811.994 0 1.788-.797 1.788-1.811zm-3.844 0c0-1.131.923-2.051 2.056-2.051 1.127 0 2.042.92 2.042 2.051 0 1.137-.914 2.066-2.042 2.066-1.134 0-2.056-.929-2.056-2.066zm-27.886 35.906c2.044 2.858 6.001 4.473 9.403 4.473 3.34 0 6.99-1.553 9.153-4.162 2.475-2.984 2.29-7.082 2.29-10.749v-27.898h5.196v29.329c0 5.093-.368 9.135-4.08 12.984-3.217 3.481-7.857 5.345-12.558 5.345-4.392 0-8.907-1.677-12.063-4.785-4.082-3.916-4.579-8.202-4.581-13.544v-29.329h5.2v29.639c0 1.74-.126 5.715 2.04 8.697zm-20.536-29.201c-1.859-3.233-4.083-5.098-8.041-5.098-4.148 0-7.735 2.984-7.735 7.27 0 4.038 4.145 5.904 7.297 7.334l3.096 1.364c6.063 2.674 11.197 5.717 11.197 13.173 0 8.2-6.558 14.478-14.662 14.478-7.487 0-13.052-4.847-14.538-12.118l5.073-1.429c.681 4.783 4.331 8.698 9.342 8.698s9.59-3.854 9.59-9.131c0-5.467-4.267-7.333-8.6-9.319l-2.847-1.245c-5.444-2.484-10.142-5.281-10.142-11.993 0-7.266 6.121-11.928 13.052-11.928 5.196 0 9.585 2.671 12.062 7.27zm-71.634 14.289c0 10.561 8.535 19.385 19.113 19.387 10.579 0 19.115-8.826 19.115-19.387 0-10.624-8.412-19.385-19.115-19.387-10.701 0-19.113 8.762-19.113 19.387zm43.424.06c0 13.486-11.011 24.173-24.31 24.173-13.3 0-24.311-10.687-24.311-24.173 0-13.42 11.011-24.292 24.311-24.292 13.298 0 24.31 10.873 24.31 24.292zm-76.207 18.517h5.194c5.814 0 11.939-1.429 11.939-8.571 0-7.273-6.929-8.33-12.618-8.33h-4.514zm0-21.373h1.978c5.876 0 10.887-.685 10.887-7.953 0-7.084-4.456-7.829-10.826-7.829h-2.04zm-5.199-20.629h7.673c8.475 0 15.586 3.107 15.586 12.677 0 3.79-1.422 7.021-4.577 9.132 5.568 1.368 8.844 6.403 8.844 11.994 0 9.319-7.484 13.046-16.701 13.046h-10.826z"/><path d="m73.957 70.268c-.627-5.276-2.774-9.767-6.218-13.291-3.888-3.992-9.378-6.747-16.079-8.188 1.13-4.429 3.359-8.743 6.447-12.051 3.151-3.362 7.153-5.674 11.854-6.133-.726 6.768-4.281 13.3-9.776 16.356 6.73-3.325 12.094-8.895 13.563-16.339 4.658.479 8.835 2.579 11.974 5.731 3.598 3.61 5.823 8.596 5.823 14.103 0 5.51-2.225 10.495-5.823 14.108-3.092 3.103-7.189 5.181-11.766 5.704zm-10.575 15.823c-3.6 3.608-8.559 5.837-14.046 5.837-5.491 0-10.446-2.228-14.042-5.837-3.089-3.113-5.164-7.229-5.685-11.819 5.253-.625 9.728-2.785 13.235-6.247 3.975-3.909 6.717-9.427 8.154-16.154 4.405 1.137 8.704 3.375 11.996 6.476 3.35 3.17 5.657 7.19 6.11 11.911-6.739-.735-13.245-4.3-16.283-9.825 3.309 6.772 8.846 12.153 16.269 13.629-.481 4.679-2.57 8.874-5.706 12.03zm-55.333-36.553c0-5.515 2.219-10.49 5.814-14.1 3.097-3.107 7.188-5.182 11.768-5.711.622 5.278 2.769 9.763 6.212 13.294 3.889 3.989 9.388 6.737 16.088 8.188-1.137 4.431-3.365 8.739-6.457 12.05-3.146 3.358-7.151 5.68-11.851 6.142.73-6.774 4.279-13.312 9.778-16.363-6.739 3.324-12.095 8.893-13.566 16.346-4.659-.49-8.839-2.593-11.973-5.741-3.594-3.614-5.814-8.589-5.814-14.104zm28.156-35.63c3.6-3.612 8.558-5.842 14.048-5.843 5.485 0 10.44 2.232 14.037 5.843 3.092 3.107 5.162 7.229 5.684 11.823-5.253.627-9.725 2.781-13.235 6.24-3.974 3.905-6.709 9.43-8.154 16.157-4.406-1.133-8.703-3.375-11.993-6.48-3.348-3.163-5.651-7.18-6.111-11.903 6.735.728 13.247 4.296 16.284 9.824-3.309-6.766-8.849-12.153-16.266-13.628.481-4.685 2.571-8.871 5.705-12.033zm61.377 36.093c0-13.21-10.42-23.967-23.459-24.444-.469-13.093-11.178-23.56-24.328-23.557-13.154 0-23.865 10.464-24.33 23.557-13.039.475-23.463 11.234-23.465 24.444 0 13.203 10.424 23.963 23.459 24.438.471 13.094 11.179 23.561 24.33 23.561 13.156 0 23.862-10.467 24.332-23.558 13.038-.473 23.462-11.232 23.461-24.44zm-15.685 32.225-1.244 3.575h-.405l-1.144-3.576-.201 3.602h-.506l.286-4.139h.678l1.12 3.395 1.183-3.395h.678l.259 4.137h-.526zm-6.884-.08v-.456h3.049v.456h-1.256v3.681h-.537v-3.682z"/></g></svg>