<svg viewBox="0 0 571 100" xmlns="http://www.w3.org/2000/svg"><g id="figure" fill="#fff"><path d="m155.9 18.7v43.9c0 12.3-6.6 15.3-20.3 15.4h-11.1l-13 20h24.1c27 0 40.5-11.8 40.5-35.4v-43.9z"/><path d="m232.6 17.5c-15.8 0-27.7 3.2-35.6 9.6-7.9 6.5-11.7 16.7-11.7 30.6 0 14 3.9 24.1 11.7 30.6s19.7 9.7 35.6 9.7c15.8 0 27.5-3.2 35.4-9.7s11.9-16.6 11.9-30.6c0-13.9-4-24.1-11.9-30.6-7.9-6.4-19.7-9.6-35.4-9.6zm21.2 23.9c3.9 2.6 6.1 7.3 6.1 16.3 0 8.8-2 13.5-6.1 16.3-2.6 1.8-6.7 3.7-21.2 3.7s-18.7-1.9-21.3-3.7c-4-2.7-6-7.5-6-16.3 0-9.1 2.1-13.7 6-16.3 2.5-1.7 6.8-3.7 21.3-3.7s18.7 2 21.2 3.7z"/><path d="m335.3 17.5c-15.8 0-27.7 3.2-35.6 9.6-7.9 6.5-11.7 16.7-11.7 30.6 0 14 3.9 24.1 11.7 30.6s19.7 9.7 35.6 9.7c15.8 0 27.5-3.2 35.4-9.7s11.9-16.6 11.9-30.6c0-13.9-4-24.1-11.9-30.6-7.9-6.4-19.7-9.6-35.4-9.6zm21.2 23.9c3.9 2.6 6.1 7.3 6.1 16.3 0 8.8-2 13.5-6.1 16.3-2.6 1.8-6.7 3.7-21.2 3.7s-18.7-1.9-21.3-3.7c-4-2.7-6-7.5-6-16.3 0-9.1 2.1-13.7 6-16.3 2.5-1.7 6.8-3.7 21.3-3.7s18.7 2 21.2 3.7z"/><path d="m392.7 18.7v79.3h57.2l13-20.1h-50.2v-59.2z"/><path d="m502.8 27.5-41.5 70.5h23.5l30.8-53.4s17.2 30.4 19.1 33.6h-27.8l-11.9 19.8h74l-40.4-70.2c-2.8-5-6.9-9.1-12.8-9.1-6 0-10.1 4.1-13 8.8z"/><path d="m542.3 20.9a5.8 5.8 0 00-5.8 5.8 5.8 5.8 0 005.8 5.8 5.8 5.8 0 005.8-5.8 5.8 5.8 0 00-5.8-5.8zm0 1a4.8 4.8 0 014.8 4.8 4.8 4.8 0 01-4.8 4.8 4.8 4.8 0 01-4.8-4.8 4.8 4.8 0 014.8-4.8z"/><path d="m539.7 23.6v6.2h1.6v-2.4h.2c.6-.1 1.1 1.5 1.7 2.4h1.9l-1.1-1.9c-.2-.4-.5-.7-1-.8 1.2-.3 1.7-.9 1.7-1.7-.1-1.4-1-1.8-1.8-1.8zm1.6 1.1h1c.3 0 .8.2.8.7 0 .6-.5.8-.8.8h-1z"/><path d="m52.1 2c-1.1 0-2.3.5-2.9 1.6l-9.4 18.2s-1.4 2.1-.4 4.3 23.5 45.7 23.5 45.7c.5.9-.2 2-1.2 2h-19.6c-1 0-1.7-1.1-1.3-2l6.4-12.4s1.8-3.3-2.3-3.3h-19.9c-2.1 0-3.8.8-4.9 2.9l-17.7 34.1c-.3.5-.4 1.1-.4 1.6 0 1.7 1.4 3.3 3.3 3.3h93.2c1.9 0 3.3-1.6 3.3-3.3 0-.5-.2-1.1-.5-1.6l-46.4-89.5c-.6-1.1-1.7-1.6-2.8-1.6z"/></g></svg>