<svg viewBox="0 0 697 100" xmlns="http://www.w3.org/2000/svg"><g id="figure" fill="#fff"><path d="m248.2 17.4c-22.6 0-43 4-58.3 10.7-12.5 5.7-26.1 14.7-26.3 29.4.1 15.3 14.7 24.3 26.3 29.5 15.3 6.7 35.7 10.7 58.3 10.7s43-4 58.3-10.7c12.5-5.7 26.2-14.6 26.3-29.5 0-15.6-14.7-24.2-26.3-29.4-15.3-6.7-35.7-10.7-58.3-10.7zm0 10.2c21.3 0 40.7 3.8 54.2 9.8 8.1 4.1 20 10.3 20.2 20.1-.5 10.7-12 16.5-20.2 20.2-13.5 6-32.9 9.8-54.2 9.8s-40.7-3.8-54.2-9.8c-8.1-4.1-20-10.3-20.2-20.1.7-10.7 12-16.5 20.2-20.2 13.5-6 32.9-9.8 54.2-9.8z"/><path d="m685.5 2c5.4 0 9.6 4.4 9.6 9.6 0 5.4-4.3 9.6-9.6 9.6-5.5 0-9.6-4.3-9.6-9.6.1-5.4 4.3-9.5 9.6-9.6zm0 1.6c-4.4 0-8 3.6-8 8 .2 4.5 3.6 8.1 8 8.1 4.5-.3 8-3.7 8-8.1-.1-4.5-3.6-8-8-8zm4.7 10.1c-.7 2.2-2.6 3.5-4.7 3.5-3.3-.1-4.9-2.6-5-5.5 0-3.1 2.1-5.5 5-5.5 2.1.1 3.9 1.3 4.5 3.1l-1.5.4c-.6-1.4-1.8-2-3-2-2 .1-3.3 2.1-3.3 4 0 2.2 1.2 4 3.3 4 1.7-.1 2.6-1.1 3.1-2.5z"/><path d="m128.9 98v-35.4h-108.2v-10.7h108.2v-34.5h10.5v80.6z"/><path d="m12.3 17.4v80.6h-10.4v-80.6z"/><path d="m640.9 97.4-93.5-32.8c-4.9-1.7-6.8-4.5-6.8-6.5 0-1.9 1.9-4.7 6.8-6.4l97-34.6h22.3l-108.4 41 108.4 39.3z"/><path d="m532.6 17.4v80.6h-10.5v-80.6z"/><path d="m444.2 17.2c-24.4 0-46.5 3.9-62.9 10.7-13.1 5.4-28.6 14.4-28.6 29.6 0 16.1 16.5 24.6 28.6 29.6 16.5 6.7 38.5 10.7 62.9 10.7 19.6 0 37.7-2.6 52.6-7.1l-3-10.1c-13.7 4.1-30.3 6.6-49 6.6-23.2 0-45-3.5-59.6-9.8-8.3-3.6-21.6-10.6-21.9-19.9-.3-8.3 13.4-16.3 21.9-19.8 14.7-6 35.8-9.9 59-9.9 19 0 36.5 2.6 50.3 6.8l3.1-10.1c-15.1-4.6-33.4-7.3-53.4-7.3z"/></g></svg>