<svg viewBox="0 0 117 100" xmlns="http://www.w3.org/2000/svg" xmlns:xlink="http://www.w3.org/1999/xlink"><defs><g id="p3"><path id="p3-1" d="m28.8 57.7c1.3-.2 2.9-.1 3.8 1 1.2 1.2 1.2 3.2.3 4.6-.5.7-1.3 1.1-2.1 1.2-1.2.3-2.6.2-3.6-.6-.5-.4-.9-.9-1.1-1.5-.3-1-.3-2.2.3-3.1.6-.8 1.4-1.5 2.4-1.6z"/><path d="m52.7 2c-16.2 0-31.2 8.2-40.1 21.7h2.1c8.6-12.5 22.8-20 38-20s29.5 7.5 38.1 20h2.1c-8.9-13.5-24-21.7-40.2-21.7zm-40.1 74.3c8.9 13.5 23.9 21.7 40.1 21.7s31.3-8.2 40.2-21.7h-2.1c-8.6 12.5-22.9 20-38.1 20s-29.4-7.5-38-20z"/><path d="m52.7 5.6c-14.1 0-27.3 6.7-35.6 18.1h5.4c7.6-8.8 18.6-13.9 30.2-13.9 11.7 0 22.8 5.1 30.4 13.9h5.4c-8.4-11.4-21.7-18.1-35.8-18.1zm-35.6 70.7c8.3 11.4 21.5 18.1 35.6 18.1s27.5-6.8 35.8-18.1h-5.4c-7.6 8.8-18.8 13.9-30.4 13.9s-22.6-5.1-30.2-13.9z"/><path d="m4.7 37.4c-1.1 0-2.5.3-2.5 2.3l.1 23.5c0 .6.5 1.2 1 1.2l7.9.1c2.7.1 5.4 0 7.9-1 2.5-1.2 4-3.9 4-6.8 0-2.5-.3-4.1-2.5-6.1-.2-.1-.1-.3-.1-.4.9-1.3 1.3-2.3 1.5-3.8.1-1.4 0-2.8-.5-4.1-1.2-2.4-3.8-4.3-6.5-4.6-1.6-.1-3.2-.1-4.8-.1zm6 6.3c.9 0 1.9.1 2.8.2.5 0 1.2.2 1.4.7.3.8.3 1.8-.1 2.5-.6.7-1.4.9-2.5.9-1 0-2.2.4-2.9-.4-.7-1-.8-2.4-.1-3.5.4-.3.9-.3 1.4-.4zm2.3 10.3c.9 0 2.2-.1 2.8.6s.6 1.8.3 2.7c-.4.9-1.2 1-2.1 1-1.1.1-2.3 0-3.4 0-.6 0-1.1-.1-1.5-.5-.5-.5-.2-1.2-.2-2.1 0-.8.3-1.4 1.2-1.6 1-.2 1.9-.1 2.9-.1z"/><path d="m41 38.6c.4.5.5 1.2.7 1.8.2 1 .6 1.8.9 2.8.8 2.8 1.7 5.7 2.5 8.6.6-.7.7-1.6 1-2.4.9-1.9 1.2-4 2-5.9.5-1.3.9-2.7 1.4-4 .3-.7 1-1.3 1.7-1.5.8-.1 1.5.5 1.9 1.1.7 1.2 1.1 2.7 1.6 4 .4 1.5 1 2.9 1.5 4.3.6 1.4.8 2.9 1.5 4.3.7-.7.6-1.4.8-2.3.4-1.5.8-3.1 1.3-4.6.7-2.1 1.2-4.2 2.1-6.2.3-.5.9-1 1.5-1h4c.6 0 1.2 0 1.9.3.2.2.2.6.2.9-.2 1-.7 2.1-1.1 3.1-.8 2.5-1.9 4.9-2.7 7.4-.8 2.2-1.5 4.5-2.5 6.6-1 2.6-1.8 5.4-2.9 7.9-.4.8-1.3.9-2.1 1-1.2.2-2.2-.7-2.5-1.8-1.3-2.8-2.1-5.9-3.4-8.7-.3-.6-.4-1.2-1-1.6-.2.7-.5 1.5-.8 2.2-.2.5-2.6 6.5-2.9 7.2-.3.9-.7 1.8-1.5 2.4-.6.3-1.4.4-2.1.3-.7-.3-1.3-.8-1.6-1.6-1.1-2.7-6.3-17.2-7.2-19.1-.5-1.3-.9-2.5-1.4-3.8-.3-.8-.2-1.6-.2-2.4 0-.6 3.3-.1 5.3-.2.8-.1 1.5.3 2.1.9z"/><path d="m84.7 37.6c-2.1 0-3.3.6-3.3 1.9.2 7-.2 14 0 21 .1.6 0 1.6.1 2.4.1.9.7 1.6 1.3 1.6 2 0 3.9.1 5.9 0 .9 0 1.7.1 2.5.1 2.6 0 5.4-.6 7.7-2.1 2-1.4 4.6-3.9 5.3-7.4.3-1.5.5-3 .5-4.5-.1-2.1-.5-4.2-1.5-6.1-.5-.9-1-1.8-1.7-2.5s-1.2-1.5-2-2c-1.9-1.4-4.2-2.2-6.6-2.3zm6.3 6.2c2.4 0 4.4.9 5.8 2.9 1.2 1.7 1.1 4.6.9 6.5-.2 1.7-1.4 3-2.7 4s-2.8 1-4.4 1.1c-.8 0-2-.2-2.2-1.1-.2-.8.1-1.8 0-2.6-.1-2.4 0-4.7-.1-7.1 0-1-.1-3 .5-3.3.7-.3 1.4-.4 2.2-.4z"/><use xlink:href="#p3-1" transform="translate(43.4)"/><use xlink:href="#p3-1" transform="translate(81.3)"/></g><g id="p2"><path id="p2-1" d="m28.4 58.2v.6c-.2 0-.4-.1-.6-.1v.5c-.2.1-.5.1-.7.2.2.3.3.6.4.9-.3 0-.5-.1-.8-.1.1.3.2.6.3.8-.2.1-.3.2-.5.3.6.2 1.1.1 1.7 0-.2-.2-.4-.5-.6-.7.5-.1.9-.3 1.4-.4 0-.4-.1-.7 0-1.1.2.2.4.3.6.5-.1-.3-.1-.6-.2-.9-.3-.1-.7-.2-1-.3zm2.6.5c-.3 0-.6 0-.9.1 0 .4.4.7.6 1.1h.8c.2-.2.4-.4.5-.6-.2-.1-.3-.1-.5-.1v.5c-.2-.1-.4-.1-.7-.1 0-.2 0-.5.1-.7zm1.3 1.6c-.2.1-.6.2-.7.5-.2.5-.4 1.2.1 1.5.3-.2.4-.5.6-.8-.1-.1-.3-.3-.4-.4.1-.3.3-.5.4-.8zm-2.5 0c-.3 0-.7.1-.9.3 0 .4-.1.9.3 1.1.4.3 1.1.3 1.4-.1.1-.3.1-.5.1-.8-.2-.4-.5-.5-.9-.5zm-1.6 1c-.2.1-.4.2-.5.2-.2 0-.4 0-.6 0-.1.6-.4 1 0 1.6.3-.1.6-.2.8-.3.1.2.3.4.6.5v.5c.5 0 1 0 1.6-.1.5-.1 1.1-.3 1.6-.4 0-.2 0-.4-.1-.6-.3-.2-.8-.3-1.2-.3-.6 0-1.3.5-1.8.2-.2-.4-.3-.9-.5-1.4zm-.7 1.1h.1c.1.3-.3.6-.4.2.1-.2.2-.2.3-.2z"/><path d="m6.8 40.1c-.9 0-1.5.9-1.5 1.3l-.1 18.9c0 .9.7 1.5 1.6 1.5l6.9.1c1.2-.1 2.5-.1 3.5-.8 1.6-.9 2.8-2.7 2.9-4.6.1-1.8 0-3.4-2.1-4.9-.5-.4-1.1-.4-1.1-.8 0-.7.7-1 1-1.5 1-1.4 2.1-3.6.2-6.8-.4-.6-2.4-2.1-3.6-2.2zm4.8.9c1.3 0 2.6.1 3.9.5.8.3 1.5 1.1 2 1.8.6.9.6 2.2.6 3.3 0 1.2-.9 2.5-1.9 3.1-1.1.6-2.5.8-3.7.8-1.8 0-3.5 0-5.3 0-.5 0-1.2-.6-1.2-1.1 0-1.7.1-3.4.1-5.1 0-.6-.1-1.2-.1-1.8 0-.7.6-1.5 1.9-1.5zm.2 10.3c1.4 0 3 0 4.2.3 1.3.4 2.5 1.4 3 2.6.3.9.3 1.9.2 2.8-.3 2.1-2.1 3.6-4.2 3.8-.7.1-1.3.2-2 .2-1.3 0-3.8-.1-4.9-.1-1.2 0-2.1.1-2.1-1.4v-5.9c0-1.8.3-2.3 2-2.3z"/><path d="m64.5 41c.5 0 .5.7.4 1-.7 2-1.2 4-2.1 5.9-1.3 4.1-2.6 8.2-3.9 12.3-.1.4-.8 1.2-1.2.7-.6-1-.9-2.1-1.3-3.2-1.4-3.6-2.9-7.3-4.3-10.9-.1-.4-.4-.6-.8-.8-.7 1.1-1.4 3.6-2.3 5.6-.5 1.4-1.2 2.6-1.6 4-.4 1.5-1.2 2.8-1.7 4.3-.1.4-.3.8-.6 1.1-.6.5-1-.8-1.2-1.3-.5-1.3-.7-2.7-1.3-4-.5-1.4-2.8-8.9-3.6-10.7-.5-1.4-1-2.7-.9-4.1 1 .7 1.2 2.1 1.6 3.2 1.2 3.6 2.3 7.2 3.5 10.8.3 1.1.8 2.2 1.1 3.3.1.3.3 1 .7.8.3-.4.6-.9.8-1.4 1-2.7 2.1-5.4 3.1-8.1.4-1.4 1-2.7 1.5-4 .3-.7.4-1.4 1.3-1.5.5.8.8 1.6 1.1 2.5.9 1.8 1.4 3.8 2.3 5.7.8 2.1 1.6 4.2 2.4 6.3.2.4.3.4.7.5.4-.6.6-1.5.9-2.2 1-3 2-6 3-9 .6-1.9 1.1-3.8 1.8-5.6.2-.4.4-1.2.6-1.2z"/><path d="m86.1 40.2c-1.2 0-1.6.3-1.6 1.1v5.8c-.1 1.8 0 3.6 0 5.4-.1 2.2.1 4.6 0 6.8 0 2.2.7 2.5 3.1 2.5 1.7.1 3.6.1 5.3 0 1.3-.3 2.8-.5 3.8-1.3.7-.5 1.5-1 2.2-1.6 1.3-1.5 2.2-3.3 2.6-5.3.2-1.4.5-2.6.3-4-.1-1-.5-1.9-.8-2.9-.2-.8-.7-1.4-1.2-2.1s-.8-1.4-1.5-1.9c-.9-.7-1.9-1.3-2.9-1.7-2.5-.9-5.1-.7-7.6-.7-.6 0-1.1-.1-1.7-.1zm7.4 1.1c1.9.4 4.1 1.4 5.2 3.1.8 1 1.3 2.1 1.8 3.3.2.6.3 1.2.4 1.9.3 1.4-.1 2.9-.3 4.4-.1.9-.6 1.6-1 2.3-.9 1.7-2.4 3.3-4.3 3.9-.8.2-1.6.7-2.4.7-2.1 0-4.2.2-6.3.1-.8-.1-1-.7-1.2-1.4-.1-1.2-.1-2.5-.1-3.7 0-4.4 0-8.7 0-13.1-.1-.8.5-1.6 1.3-1.7z"/><path d="m16.6 47.6a.1.1 0 00-.1.1.1.1 0 00.1.1.1.1 0 00.1-.1.1.1 0 00-.1-.1zm-2.4 1c-.1.2-.2.5-.2.7.3-.1.6-.2.9-.3-.2-.2-.4-.3-.7-.5zm-6.3 3.7c-.3 0-.5.4-.3.7.3.2.5-.4.5-.6-.1-.1-.2-.1-.2-.1zm2.4.1c-.4.1-.8.3-1.2.4.4.1.5.4.5.9.7-.2.6-.7.7-1.3zm-1 .9-.2.1v.2l.2.1.2-.1v-.2zm-1.6.3c-.2 0-.2.2-.2.6.3-.2.7 0 .5-.5-.1-.1-.2-.1-.3-.1zm13.8.2c-.3 0-.6.1-.6.5h.8c-.1.5-.3 1.1-.4 1.6.3-.2.5-.3.8-.5-.1-.6-.3-1.1-.5-1.6-.1 0-.1 0-.1 0zm-17.4 3.8-.2.9c-.2 0-.4 0-.5.1v.7c.2-.1.3-.1.5-.2.1-.5.2-1 .2-1.5zm17.8.5c-.4.2-.4.4-.5.8.3-.1.6-.1.8-.2-.1-.2-.1-.4-.3-.6zm-18.7 2c-.3 0-.3.4 0 .5.2-.1.3-.3.2-.5-.1 0-.1-.1-.2-.1zm.5 2.6c.1.5.3.6.7.7-.1-.2-.2-.5-.4-.7-.1 0-.2 0-.4 0z"/><path d="m51 38.9c-.1 0-.2 0-.3.1-.3.3-.5.7-.6 1.1-.1.3-.3.5 0 .8l.2-.2c.1.2.3.3.5.5-.4-.1-.8 0-1.2.1 0 .2 0 .4-.1.6-.2.1-.4.3-.6.4v1c.3-.3.5-.6.8-.9.1 1-.8 1.4-1.3 2.1.6 0 1.4 0 1.9-.4-.3 0-.6-.1-1-.1.7-.4 1.5-.5 2.3-.6.2.4.4.5.8.6 0-.2 0-.4-.1-.6.1-.2.2-.3.3-.5.2 0 .4 0 .6.1.1.2.1.3.2.5h-.5v.3c.2 0 .5-.1.7-.1 0-.2-.1-.4-.2-.7-.1-.5-.4-.8-.7-1.2l.4-.1c-.2-.2-.4-.4-.6-.6 0-.2 0-.4.1-.7-.2 0-.4 0-.5 0-.1.1-.1.3-.2.4v-.4c-.4-.1-.9-.1-1.4-.3 0-.2 0-.3.1-.4.7.2 1.3.4 2 .3-.3-.4-.7-.8-1.1-1.2-.1.3-.2.5-.3.8 0-.2.1-.5.1-.7 0 0-.3-.1-.6-.1zm.7 2.8h.1c.3.1.5.4.6.5-.5-.1-.9-.2-1.4-.4.2 0 .4-.2.6-.2zm9.3 2.4s-.1 0-.2.1c-.1.2 0 .3.2.4.3-.1.2-.4 0-.4zm-7.6.2c-.2 0-.4.1-.6.2.6.7.8 1.1.9 2 .2 0 .5-.1.7-.1.2.1.3.3.5.4.1-.6-.3-.8-.5-1.3-.1-.4-.1-.8-.1-1.1-.4-.1-.6-.2-.9-.2zm-3.7.8-1.3.2c.1.2.2.3.4.5.3-.1.7-.3 1-.4 0-.1 0-.2 0-.3zm-.5 1.2c-.6.1-.6.3-.8.8.4-.2.6-.5.8-.8zm6.1 2.1-.3 1.5c.3.1.6.3.9.4-.2.2-.4.4-.6.5l.2.2c.3-.1.6-.3.9-.4-.3-.9-.8-1.7-1-2.3zm-7.1.3c-.4.1-.7.2-1.1.3.3.1.6.3.9.4.1-.2.2-.5.2-.7zm3.8.2c-.2.1-.4.2-.6.4.4.1.7.2 1.1.3 0-.1-.1-.3-.1-.4-.1-.1-.2-.1-.3-.2zm7.6.6.1.7c-.3.3-.6.6-.9.9.3.1.6.3.9.4 0-.2 0-.4-.1-.7.2-.3.5-.5.7-.8-.2-.2-.5-.4-.7-.6zm-8.9 1.1c-.2 0-.4.1-.5.1v1.1c.2-.4.4-.8.5-1.2zm1.6 1c-.4.1-.8.1-1.2.2.1.2.2.4.3.6.4.1.8.2 1.2.4-.3-.3-.5-.5-.8-.8.2-.1.4-.3.6-.4zm6.4 0s-.1.2-.2.5c-.1.2-.2.5-.2.7-.4-.3-.5-.7-1.1-.6.3.6.7.7 1.2 1 0 .6.2.9-.6 1.1-.2-.6-.4-.5-1-.6.2.7.3.8 1 1-.2.3-.3.6-.5.9h1c0-.2 0-.3 0-.5-.2-.2-.4-.5-.6-.7.3-.2.7-.4 1-.5v-.3c.2-.1.4-.3.6-.4-.2-.1-.4-.1-.6-.2-.1-.2-.2-.4-.3-.6.4-.2.7-.1 1.1 0-.3-.3-.6-.6-.9-.9zm-1.8 0c-.2.1-.3.2-.2.4.3.2.6-.3.2-.4zm-1.2.3c.5.6 1 1.2 1.8 1.5-.1-.4-.1-.8-.4-1.1-.3 0-.6 0-.9 0-.2-.1-.3-.2-.5-.4zm-2.2.9c-.5.1-.7.2-1 .7.4-.1.7-.3 1-.7zm-3.8.5s-.1 0-.2.1c-.1.2-.1.4.2.5.3-.1.2-.5 0-.5zm12.4.4c-.1 0-.1 0-.1 0-.1.3.3.5.5.3.1-.2-.2-.4-.4-.4zm-7.9.6-1 .1c.2.1.5.3.7.4-.2.2-.3.3-.5.5.2.3.5.5.7.8 0-.6 0-1.1 0-1.7zm7.6.6c0 .2.2.9.5.5.4-.3-.2-.5-.5-.5zm-12.4.6c-.3 0-.7.1-1 .2.3.5.7.1 1-.2zm5.7.6c-.2.2-.5.4-.7.6.1.3.1.7.2 1 .2.1.5.2.7.3-.2.2-.3.4-.5.6.2.3.4.5.7.7.1.2.1.5.2.7.3-.1.6-.2.9-.3-.3-.4-.4-.8-1-.7.2-.4.4-.6.3-1.1-.2-.2-.5-.3-.7-.4 0-.5 0-.9-.2-1.4zm-7.1.9c-.1.3-.2.5-.3.8.2 0 .3.1.4.1 0-.3 0-.6-.2-.9zm12 3c0 .2 0 .4.1.6-.2.1-.4.2-.5.3.1.2.2.4.3.6h.5c.1-.5.2-1 .2-1.5-.2 0-.3 0-.5 0zm-4 .2.1 1.6h.8c-.2.2-.3.4-.5.6.3.3.6.6 1 .8.1.2.3.4.4.5.3-.2.5-.4.8-.6l.2.4-.1-.3.3-.1c0-.3-.1-.5-.1-.8l.8.2c-.2-.1-.4-.2-.7-.2v-.4c-.3 0-.5-.1-.8-.1-.2.1-.5.3-.7.4-.1-.5-.1-1-.2-1.4-.2 0-.3 0-.5 0-.3-.2-.6-.4-.9-.6zm-12.7.2-.3.3c.3.6.7 0 .3-.3zm3.7.3c-.5.1-.7.4-1 .7.6-.1.7-.2 1-.7z"/><path d="m87.5 38.1-.1.1v.2l.1.1.1-.1v-.2zm-2.1.3c-.2.2-.5.3-.7.5.4.1.7.2 1.1.3-.1-.3-.3-.5-.4-.8zm-1.1 1.2-1.1.3c.2.1.4.1.5.2-.2.5-.3.8-.1 1.3.2-.4.4-.8.5-1.2.2-.1.3-.2.5-.3-.1-.1-.2-.2-.3-.2zm-1.9 4.7c.2.2.5.3.7.5.1.2.2.3.2.5 0-.3 0-.5 0-.8-.3-.2-.6-.1-.9-.2z"/><use xlink:href="#p2-1"/><use xlink:href="#p2-1" transform="translate(43.4)"/><use xlink:href="#p2-1" transform="translate(81.3)"/></g><g id="p1"><mask id="m1"><use xlink:href="#p3" fill="#fff"/><use xlink:href="#p2" /></mask><use xlink:href="#p3" mask="url(#m1)" /></g></defs><use fill="#2a364e" xlink:href="#p1"/></svg>