<svg viewBox="0 0 596 100" xmlns="http://www.w3.org/2000/svg" xmlns:xlink="http://www.w3.org/1999/xlink"><mask id="a"><path d="m546.2 2v48h47.8v-48z" fill="#fff"/><path d="m564.5 25.1h7.3c2.8 0 4.4-1.4 4.4-4.1 0-3.3-2.2-3.9-4.5-3.9h-7.2zm-4.5-11.7h12.2c5.6 0 8.4 2.6 8.4 6.9 0 4.9-3.4 6.2-4.2 6.5v.1c1.5.2 3.8 1.3 3.8 5.3 0 3 .4 5.8 1.4 6.8h-4.8c-.7-1.1-.7-2.5-.7-3.8 0-4.7-1-6.7-5.1-6.7h-6.5v10.5h-4.5z"/></mask><mask id="b"><path d="m2 2v96h440.1v-96z" fill="#fff"/><path id="c" d="m67 32.5c10.8 0 13.6 2 13.7 9.2h-37.8c.3-6.8 3.9-9.2 13.6-9.2zm-10.4-8.1c-15.9 0-22.4 5.7-22.4 19.6v6.8c0 13.8 6.5 19.4 22.4 19.4h12.8c16.8 0 20.4-7.4 20.3-13.5v-2h-9v1.3c0 2.7-1.3 6.3-12.9 6.3h-11.1c-10.4 0-13.6-2.7-13.8-11.2v-1.4h46.7l.1-4.2c0-15.5-5.9-21.1-22.5-21.1z"/><path d="m117.9 24.5c-14.2 0-19.5 3.6-19.5 13.2 0 11.7 6 12.9 19.5 12.9h17.6c6.6 0 7.6 1.6 7.6 5.3 0 5.4-.7 6.1-7.7 6.1h-19.1c-8.1 0-10-.7-10-7.3v-1.7h-8v1c0 11.9 4.7 16.3 16.5 16.3h17.2c12.7 0 20-2 20-12.2 0-4.9 0-8.4-3.2-11.6-3.2-3.3-8.3-3.5-16.2-3.5h-11.6c-12.1 0-14-.7-14-5.3 0-4.5 1.7-5.1 14-5.1h6.6c11.3 0 14.4.9 14.4 4.2v2.7h8.4v-3.8c0-10-10.8-11.2-20.3-11.2z"/><path d="m184.2 24.4c-14.3 0-21.3 5.7-21.3 17.5v10.8c0 11.8 7 17.5 21.3 17.5h12.2c13.6 0 19.7-5.1 19.7-16.5v-2.1h-8.2v1.4c0 6.9-3 9-13.1 9h-10.1c-10.3 0-13.1-2.4-13.1-10.9v-9.9c0-6.4 3.4-8.7 12.9-8.7h10c10.1 0 12.8 1 12.9 8.2v1h8.1v-2c0-10.8-6.1-15.3-21.2-15.3z"/><path d="m245.2 48.9h10.2c10.1 0 13.1 1.1 13.1 4.7v3.8c0 3.6-2.9 4.6-13.1 4.6h-10.2c-11.5 0-13.2-.9-13.2-7 0-5.1 2.2-6.1 13.2-6.1zm-.3-24.5c-13.5 0-19.3 4-19.3 13.3v2h9l.1-2.1c.2-4.2 1.6-4.9 11.2-4.9h10.2c10 0 12.9 1.9 12.9 8.7v3.7c-3.1-2.6-7.4-3.9-13.7-3.9h-12c-15 0-20.6 3.9-20.6 14.2 0 10.8 5.6 14.8 20.7 14.8h11.4c6.4 0 11.2-.8 14.2-4.2v3.6h8.3v-28.5c0-11.4-6.4-16.7-20.1-16.7z"/><path d="m296.5 45.1c0-10.1 2.7-12.4 14.5-12.4h9.4c11.8 0 14.5 2.3 14.5 12.4v5c0 9.8-2.7 12.1-14.5 12.1h-9.4c-11.8 0-14.5-2.3-14.5-12.1zm14.2-20.6c-6.9 0-11.8 1-14.9 5.1v-4.5h-7.6v59h8.4v-18.3c3 3 6.8 4.5 12.4 4.5h13.2c15 0 21.4-5.8 21.4-19.3v-6.7c0-14.1-6.2-19.8-21.4-19.8z"/><use transform="translate(317.7)" xlink:href="#c"/></mask><g id="figure" fill="#fff"><path mask="url(#b)" d="m442.1 14c0-6.6-5.4-12-12-12h-416.1c-6.6 0-12 5.4-12 12v72c0 6.6 5.4 12 12 12h416.1c6.6 0 12-5.4 12-12z"/><path d="m442.3 86c0 6.4 5.2 12 11.6 12 6.9 0 14.2-4.7 23.3-13.8l17.5-17.5c14.8-14.8 18.3-25.4 10.5-33.2l-.7-.7 11.1-11.1 1.8 1.7c13 12.3 9.3 30.1-10.8 50.2l-20.1 20.1c-1.5 1.5-3 3-4.5 4.3h44.3c6.6 0 12-5.4 12-12v-72c0-6.6-5.4-12-12-12h-30.5c1.8 1.6 6.2 5.8 9 9.1l-62.5 62.5zm0-31.8 41.7-41.7c-13.6-14.2-22.2-12.7-40.3 5.5l-1.4 1.4z"/><path mask="url(#a)" d="m570.3 2.5c-13.1 0-23.7 10.7-23.7 23.8s10.6 23.7 23.7 23.7 23.7-10.6 23.7-23.7-10.6-23.8-23.7-23.8z"/></g></svg>