<svg viewBox="0 0 766 100" xmlns="http://www.w3.org/2000/svg" xmlns:xlink="http://www.w3.org/1999/xlink"><defs><path id="a" d="m20 84.3h97.6c8.1 5.5 18.1 10.4 29.7 14.7h-100.9c-10.4-4.4-19.4-9.4-26.4-14.7z"/><path id="b" d="m2.8 63.5h94.9c2.5 5.2 6.5 10 11.8 14.7h-96.7c-4.6-4.7-8-9.7-10-14.7z"/><path id="c" d="m3.2 42.6h92.7c-.8 2.6-1.2 5.3-1.2 8.1 0 2.2.3 4.4.8 6.6h-94.2c-.2-1.2-.3-2.5-.3-3.7 0-3.8.8-7.4 2.2-11z"/><path id="d" d="m21.3 21.8h90.1c-5.6 4.6-10 9.5-12.8 14.7h-92.1c3.5-5.2 8.4-10.1 14.8-14.7z"/><path id="e" d="m66.3 1h85.1c-12.2 4.3-22.9 9.2-31.6 14.7h-89c9.9-5.6 21.9-10.5 35.5-14.7z"/></defs><g id="figure"><path d="m170.1 64.6c-1.2.5-2.5 1-4.2 1.6-1.7.5-3.6.8-5.9.8-4.8 0-8.6-1.7-11.6-4.9-3-3.3-4.4-7.7-4.6-13.4 0-3.4.7-6.5 1.8-9.2 1.2-2.7 3.1-5.1 5.5-6.8 2.5-1.7 5.5-2.6 9-2.6 2.2 0 4.2.3 5.7.8 1.6.5 2.9 1 3.8 1.6l1.8-5.7c-.9-.5-2.3-1-4.3-1.6-2-.5-4.2-.8-6.9-.9-7.3.1-13 2.5-17.2 7-4.3 4.6-6.4 10.4-6.5 17.7.1 7.2 2.1 12.9 6 17.2s9.2 6.4 16 6.5c3 0 5.6-.4 7.8-.9s3.8-1.2 4.8-1.7l-1.3-5.5"/><path d="m204.7 56.4c-.1 2.9-1.2 5.5-3.3 7.5-2.1 2.1-4.9 3.3-8.5 3.4-2.2 0-4-.7-5.6-2.1s-2.3-3.5-2.3-6.5c.1-3.3 1.2-5.6 3.1-7.2 2.1-1.6 4.6-2.6 7.5-3.1 3-.5 6-.8 9-.7zm7-13.7c0-3.1-.4-6.1-1.4-8.8-.9-2.7-2.6-5.1-5.1-6.9s-5.7-2.7-10.2-2.7c-2.6 0-5.2.4-7.5 1-2.5.7-4.6 1.7-6.5 2.9l1.7 4.8c1.6-1.2 3.4-2 5.3-2.5 2-.5 3.9-.8 6-.8 3.5.1 6 .9 7.4 2.5 1.6 1.6 2.5 3.3 2.7 5.3.4 2 .5 3.6.4 5.1-8.6 0-15.2 1.4-19.9 4.3s-6.9 7.2-7 12.8c0 3.5 1.2 6.5 3.4 9.1 2.3 2.6 5.6 3.9 10 4 3.3 0 6.1-.8 8.5-2.1 2.3-1.3 4-3 5.3-4.8h.3l.7 6h6.5c-.3-1.7-.5-3.4-.5-5.3-.1-2-.1-3.8-.1-5.7v-18"/><path d="m246.3 24.6c-.4 0-.8-.1-1-.1-.4 0-.7-.1-1-.1-2.9 0-5.5 1-7.7 2.9-2.2 1.8-3.9 4.2-4.9 7.2h-.3l-.4-9h-6.2c.1 2.2.3 4.4.3 6.8 0 2.3.1 4.7.1 7.2v32.5h7v-25.4c0-2.6.4-5.2 1.3-7.4.9-2.3 2.2-4.2 3.9-5.7 1.7-1.4 3.9-2.2 6.4-2.2h1.4c.4 0 .8.1 1.2.1z"/><path d="m284.8 52.8c0 3.8-1.2 7.2-3.5 9.9s-5.3 4.2-9.2 4.3c-3 0-5.6-.9-7.5-2.5-2.1-1.7-3.5-3.8-4.6-6.5-1-2.7-1.6-5.7-1.6-9.1 0-5.5 1.3-9.9 3.6-13.4 2.5-3.5 5.9-5.3 10.3-5.5 2.1 0 4 .5 5.9 1.6 2 1 3.5 2.6 4.7 4.6 1.3 2.1 1.8 4.7 2 7.7zm7-49.2h-7v27.9h-.1c-1-2-2.7-3.6-5.1-4.9-2.2-1.3-5.1-2.1-8.6-2.1-3.6 0-7 1-10 3s-5.5 4.8-7.3 8.5c-1.8 3.6-2.7 8.2-2.7 13.4.1 7.3 2 13 5.5 17.2s8.1 6.4 13.5 6.4c3.8-.1 6.9-.9 9.5-2.6s4.4-3.8 5.7-6.2h.3l.4 7.9h6.2c-.1-1.6-.1-3.5-.3-5.5-.1-2.1-.1-4-.1-6v-56.7"/><path d="m313.1 25.3h-7v46.3h7zm1-13c0-1.3-.4-2.5-1.2-3.4s-2-1.3-3.4-1.3-2.5.5-3.4 1.4-1.3 2.1-1.3 3.4c0 1.4.4 2.6 1.3 3.4.8.9 2 1.4 3.3 1.4 1.4 0 2.5-.4 3.4-1.3s1.3-2.1 1.3-3.5"/><path d="m359.3 48.4c-.1 5.3-1.4 9.8-4 13.3s-6 5.3-10.3 5.5c-4.3-.1-7.7-2-10.2-5.5s-3.8-7.9-3.9-13.1c0-3 .5-6 1.4-8.8 1-2.9 2.5-5.2 4.6-7s4.8-2.9 8.2-2.9c3.4.1 6.1 1 8.2 3s3.6 4.3 4.6 7.2c.9 2.9 1.4 5.7 1.4 8.5zm-13.9-24.1c-4 0-7.7.9-10.9 2.9-3.3 2-5.9 4.7-7.8 8.3-2 3.6-3 8.1-3 13.4.1 7.5 2.2 13.4 6.1 17.6s9 6.2 15 6.4c3.5 0 6.9-.8 10.2-2.5s6-4.4 8.2-7.9c2.1-3.6 3.3-8.3 3.4-14.1-.1-7.2-2.1-13-5.9-17.3s-8.9-6.5-15.4-6.6"/><path d="m402.1 26.5c-1.3-.8-2.9-1.4-4.8-2-2-.5-4-.8-6.4-.8-4.9.1-9 1.4-11.8 4-2.9 2.6-4.4 6-4.4 9.9 0 2.7.9 5.2 2.9 7.5s4.9 4.3 9.1 6c2.7 1.2 4.7 2.3 5.9 3.5s1.7 2.6 1.7 4.4-.7 3.3-2 4.4c-1.3 1.2-3.3 1.7-5.9 1.7-2.1 0-4-.4-6-1-2-.7-3.5-1.3-4.8-2.1l-2.2 7.3c1.6.9 3.5 1.7 5.7 2.2s4.6.9 7 .9c5.3 0 9.6-1.3 12.8-3.8 3.1-2.5 4.7-6 4.8-10.5 0-3.4-1-6.2-3-8.5s-4.9-4.2-8.9-5.7c-2.9-1.2-4.8-2.3-6.1-3.4-1.2-1-1.8-2.3-1.8-3.9s.7-3 1.7-4c1.2-1 2.9-1.7 5.1-1.7 2 0 3.6.4 5.2.9s2.7 1.2 3.8 1.8l2.2-7.2"/><path d="m415.4 24.8h-6.6v7.4h6.6v24.2c0 3 .3 5.6.9 7.7.5 2.1 1.4 3.6 2.6 4.9 1 1.2 2.3 2.1 3.9 2.6 1.6.7 3.4.9 5.3.9 1.7 0 3.1-.1 4.4-.3 1.3-.1 2.3-.5 3.3-.8l-.4-7.5c-.5.1-1.2.3-1.8.4-.7.1-1.4.1-2.5.1-2.1 0-3.6-.7-4.6-2.1-.9-1.4-1.4-3.6-1.4-6.5v-23.6h11.2v-7.4h-11.2v-11.6l-9.8 3.1z"/><path d="m468.5 24c-.4-.1-.8-.1-1.2-.1s-.8 0-1.3 0c-2.6 0-4.9.9-7.2 2.6-2.2 1.7-3.9 4-4.9 7h-.4l-.4-8.6h-8.6c.1 2.2.3 4.4.3 6.8 0 2.3.1 4.8.1 7.5v32.5h9.9v-24.8c0-4.2 1-7.4 2.9-9.9 2-2.5 4.6-3.6 7.9-3.8 1 0 2.1.1 2.9.3z"/><path d="m506.5 48.1c0 4.8-1 8.8-3.1 12.1s-4.8 4.9-8.5 5.1c-3.6-.1-6.5-1.8-8.5-5.1-2.1-3.3-3-7.2-3.1-12 0-2.7.4-5.5 1.2-8.1s2.1-4.7 3.8-6.5c1.7-1.7 4-2.6 6.8-2.6 2.7.1 4.9.9 6.6 2.7 1.7 1.7 2.9 3.9 3.6 6.4.8 2.6 1.2 5.2 1.2 7.8zm-11.2-24.3c-4.2 0-7.9 1-11.3 2.9-3.4 2-6 4.7-7.9 8.5-2 3.6-3 8.2-3 13.4.1 7.7 2.2 13.5 6.1 17.7 4 4.2 9.1 6.2 15.2 6.4 3.6 0 7-.8 10.4-2.5s6.1-4.4 8.2-8.1c2.2-3.6 3.3-8.3 3.4-14.2-.1-7.3-2.1-13.1-5.9-17.4s-9-6.5-15.5-6.6"/><path d="m565.1 43c0-4.8-.9-8.6-2.3-11.5-1.6-2.9-3.5-4.8-5.9-6-2.3-1.2-4.8-1.8-7.3-1.8-3.5.1-6.5.9-9 2.5s-4.2 3.4-5.3 5.5h-.3l-.5-7h-8.6c.1 2 .1 4 .3 6.1.1 2.1.1 4.4.1 7v33.7h9.9v-27.9c.1-3.8 1.2-6.6 3.3-8.6s4.3-2.9 6.9-3c3.3.1 5.6 1.3 7 3.6 1.3 2.3 2 5.2 2 8.6v27.5h9.9v-28.7"/><path d="m606.3 52.1c-.1 3.9-1.2 6.9-3.3 8.8-2.1 2-4.4 3-7 3-3.6-.1-6.5-1.6-8.5-4.4-2-2.9-3-6.6-3-11.3 0-5.1 1.2-9.1 3.3-12 2.1-3 4.9-4.4 8.3-4.6 3.1.1 5.5 1.2 7.3 3.4 1.8 2.1 2.7 4.8 2.9 7.9zm1.6-27.3-.4 6.2h-.1c-.9-2-2.5-3.6-4.6-5.1-2.1-1.4-4.8-2.2-8.3-2.2s-6.6.9-9.6 2.9-5.5 4.7-7.3 8.3-2.9 8.2-2.9 13.5c.1 6.6 1.8 12.1 5.2 16.4 3.4 4.2 7.8 6.4 13.4 6.5 3 0 5.7-.7 7.9-2s3.9-2.9 5.2-4.9h.1v4.6c-.1 5.3-1.3 9.1-3.6 11.5-2.3 2.3-5.6 3.5-9.4 3.5-2.6 0-5.1-.4-7.3-1-2.2-.7-4-1.4-5.5-2.3l-2.2 7.7c1.8 1.2 4.2 2 6.8 2.5s5.3.9 8.1.9c5.5-.1 9.8-1 13-2.9 3.1-1.8 5.5-4.2 6.9-6.9 1.4-2.9 2.3-5.7 2.7-8.7s.5-5.7.5-8.1v-26.8c0-3.1 0-5.7.1-7.9.1-2.1.1-4 .3-5.6h-8.7"/><use xlink:href="#a"/><use xlink:href="#e" transform="matrix(-1 0 0 1 765.2 0)"/><use xlink:href="#b"/><use xlink:href="#d" transform="matrix(-1 0 0 1 765.2 0)"/><use xlink:href="#c"/><use xlink:href="#c" transform="matrix(-1 0 0 1 765.2 0)"/><use xlink:href="#d"/><use xlink:href="#b" transform="matrix(-1 0 0 1 765.2 0)"/><use xlink:href="#e"/><use xlink:href="#a" transform="matrix(-1 0 0 1 765.2 0)"/></g></svg>