<svg viewBox="0 0 488 100" xmlns="http://www.w3.org/2000/svg"><g id="figure" fill="#fff"><path d="m88.63 2h-44.69c-13.14 0-22.01 4.89-27.45 16.56l-10.9 23.38c-5.58 11.97-1.18 16.56 12.02 16.56h44.68c13.85 0 22.35-5.09 27.7-16.56l10.9-23.38c4.55-9.76 3.56-16.56-12.26-16.56zm-67.07 48.86c-6.37-5.34 3.04-18.85 21.07-30.23 17.99-11.35 37.74-16.25 44.12-10.92 6.37 5.32-3.05 18.87-21.05 30.23-18 11.38-37.76 16.26-44.14 10.92z"/><path d="m312.33 32.5c3.74-8.1 5.62-15.53-11.78-15.53l-86.01-.01 4.19-9-28.98.07-4.16 8.93-60.5-.06c-3.53 0-17.26.75-22.81 12.69l-7.86 16.92c-3.47 7.46.85 11.95 10.86 11.96l46.23.03 6.63-10.05s-5 1.9-11.77 1.92l-18.45.06c-2.13.01-6.66.01-4.6-4.42l7.77-16.68c1.3-2.79 4.32-4.27 8.2-4.27l42.53-.03-10.48 22.63c-2.39 5.17-1.2 10.9 12.39 10.88l35.89-.04 6.32-9.66s-4.2 1.57-9.38 1.57h-12.53c-3.51 0-5.15.06-3.84-2.75l10.58-22.63 71.87-.01c5.71 0 3.15 5.41-2.71 5.41h-27.58c-6.21 0-14.81.7-20.19 10.1 0 0-3.04 6.29-3.51 7.51-3 7.69.51 10.46 11.05 10.46h23.07c6.48 0 10.1-1.98 12.18-4.49l-.64 4.49h28.81c-.78-1.11-1.85-2.07-.3-5.43zm-34.43 12.04c-2.28 4.92-3.45 5.89-7.22 5.89h-8.35c-4.63 0-5.78-.84-4.51-3.56l2.29-4.9c1.07-2.29 3.66-3.45 7.78-3.45h12.8z"/><path d="m389.26 58.5h-35.24c1.19-.89 2.55-1.64 3.66-2.76 1.46-1.47 2.63-3.84 3.97-6.72l9.54-20.48c1.31-2.8.7-3.52-3.2-3.52h-10.57c-4.04 0-5.22 1.02-6.38 3.52l-9.54 20.48c-1.23 2.65-1.93 4.49-2.08 5.5-.16 1.04.15 2.37.87 3.98h-35.18c.85-.45 1.83-.78 2.73-1.43 1.45-1.05 3-3.85 4.95-8.03l10.5-22.53c2.35-5.04 2.45-6.13 1.19-9.55h29.78l-1.18 4.34c3.25-2.81 5.5-4.34 9.9-4.34h23.26c12.76 0 16.79 5.05 12.06 15.17l-7.9 16.91c-1.2 2.56-1.88 4.39-2.05 5.44-.17 1.07.14 2.41.91 4.02"/><path d="m432.56 34.15 2.64-5.67c.93-2 2.16-3.46 5.84-3.46h11.83c2.81 0 3.7 1.16 2.63 3.46l-2.65 5.67zm50.48-4.66c4.2-9.01 1.67-12.53-10.76-12.53h-43.95c-12.02 0-17.92 3.11-22.31 12.53l-7.68 16.48c-4.25 9.12-1.62 12.53 10.63 12.53h57.63l6.68-9.92c-5.02 1.72-6.14 1.85-13.82 1.85h-27.83c-4.43 0-6.01-1.41-4.7-4.21l1.8-3.85h48.31z"/><path d="m482.53 56.49c0 2.45-1.89 4.35-4.28 4.35-2.37 0-4.29-1.9-4.29-4.35 0-2.41 1.92-4.33 4.3-4.33s4.27 1.92 4.27 4.33zm-7.75 0c0 2.06 1.57 3.67 3.49 3.68s3.47-1.62 3.47-3.66-1.55-3.68-3.47-3.68-3.49 1.64-3.49 3.66zm2.66 2.52h-.77v-4.83c.41-.06.79-.11 1.37-.11 1.85 0 1.95.91 1.95 1.36 0 .64-.43 1.03-.95 1.18v.04c.42.08.71.46.81 1.17.11.75.23 1.04.31 1.19h-.81c-.11-.15-.22-.59-.33-1.23-.1-.62-.43-.86-1.04-.85h-.54zm0-2.67h.56c.64 0 1.18-.23 1.18-.83 0-.42-.31-.85-1.18-.85-.25 0-.42.02-.56.04z"/><path d="m12.47 66.7c-5.77 0-10.47 4.7-10.47 10.47v20.83h473.53c5.77 0 10.47-4.7 10.47-10.47v-20.83zm208.93 7.91c.54 0 1.03.19 1.03.19.98.4 6.42 3.63 16.91 10.51l1.35.88v-9.79c0-.94.75-1.41 2.27-1.41 1.59 0 2.38.47 2.38 1.41v13.16c0 1.08-.85 1.92-2.39 1.62-1.15-.23-6.14-2.95-14.9-8.84l-3.48-2.33v9.49c0 .93-.78 1.4-2.33 1.4-1.56 0-2.34-.46-2.34-1.4v-13.16c0-1.43.8-1.74 1.49-1.73zm-193.2.38h20.77c1.56 0 2.34.47 2.34 1.43 0 .94-.78 1.42-2.34 1.42h-18.45v3.68h18.45c1.56 0 2.34.48 2.34 1.43s-.78 1.42-2.34 1.42h-18.45v5.13c0 .94-.78 1.4-2.33 1.4s-2.33-.47-2.33-1.41v-13.09c0-.68.61-1.41 2.34-1.41zm70.57 0c1.55 0 2.32.46 2.32 1.4v13.1c0 .94-.77 1.41-2.32 1.41s-2.33-.47-2.33-1.41v-13.1c0-.94.78-1.4 2.33-1.4zm52.25 0h20.76c1.55 0 2.33.48 2.33 1.43s-.78 1.42-2.34 1.42h-8.08v11.66c0 .93-.78 1.4-2.33 1.4s-2.32-.47-2.32-1.4v-11.66h-8.03c-1.55 0-2.32-.47-2.32-1.42s.77-1.43 2.33-1.43zm144.27 0h20.77c1.56 0 2.34.48 2.34 1.43s-.78 1.42-2.34 1.42h-18.45v3.68h18.45c1.56 0 2.34.48 2.34 1.43s-.78 1.42-2.34 1.42h-18.45v3.68h18.45c1.56 0 2.34.48 2.34 1.43s-.78 1.42-2.34 1.42h-20.77c-.64 0-2.33-.1-2.33-1.41v-13.09c0-1.35 1.32-1.41 2.33-1.41zm71.36 0h20.76c1.55 0 2.33.47 2.33 1.43 0 .95-.78 1.42-2.34 1.42h-18.43v3.75h18.65c2.21 0 2.12 1.23 2.12 2.16v5.75c0 1.21-1.31 1.4-2.33 1.4h-20.76c-1.56 0-2.34-.47-2.34-1.42s.79-1.43 2.34-1.43h18.44v-3.61h-18.66c-1.83 0-2.12-.82-2.12-1.75v-6.3c0-1.27 1.71-1.4 2.34-1.4zm72.41 0h20.75c1.56 0 2.33.47 2.33 1.43 0 .95-.77 1.42-2.33 1.42h-18.44v3.75h18.65c2.21 0 2.12 1.23 2.12 2.16v5.75c0 1.21-1.3 1.4-2.33 1.4h-20.75c-1.56 0-2.34-.47-2.34-1.42s.78-1.43 2.34-1.43h18.43v-3.61h-18.65c-1.83 0-2.12-.82-2.12-1.75v-6.3c0-1.27 1.71-1.4 2.34-1.4z"/></g></svg>