<svg viewBox="0 0 492 100" xmlns="http://www.w3.org/2000/svg"><defs><clipPath id="x1"><path d="m377.1 2 26.9 33.6-50.4 34.2h136.4v-67.8zm58.6 50h7.9c1.3 0 2.3 1.1 2.3 2.4v7.9c0 1.3-.9 2.3-2.2 2.3h-8c-1.3 0-2.4-1-2.4-2.3v-7.9c0-1.3 1.1-2.4 2.4-2.4zm0 1.5c-.2 0-.9.4-.9.9v7.9c0 .5.4.9.9.9h8c.5 0 .8-.4.8-.9v-7.9c0-.6-.6-.9-.8-.9zm.7 1.5h4.4c1.2 0 2 .6 2 2.1 0 .9-.5 1.7-1.4 1.9l1.6 2.7h-2l-1.4-2.6h-1.6v2.6h-1.6zm1.6 1.4v1.4h2.4c.4 0 .9-.3.9-.7s-.4-.7-.9-.7z"/></clipPath></defs><g fill="#fff"><path d="m60.2 98-58.2-96h20.8l47.8 78.7zm53.1-87.1c4.1-6.8.5-8.9-3.7-8.9h-79l8.8 14.7h30.7c5.7 0 5.7 2.1 2.6 6.8l-2.6 3.2c-1.3 1.8-3.5 2.7-5.7 2.6h-17.2l27.1 45.1 11.9-19.4-9.3-15.7h8.3c6.8 0 12.5-2.7 17.7-11.6z"/><path d="m94 43.5-1.4 4.1h-1l-1.3-4.1v4.1h-1v-4.7h1.6l1.1 3.2 1-3.2h2.1v4.7h-1.1zm-7.2 4.1h-1.1v-4.1h-1.6v-.6h4.7v.6h-2z"/><path d="m237 33c-6.1 13.2-19.7 17.8-37.4 17.8l16.6 18.9h-33.8l-30.1-35.2h46.2c10.4 0 16.7-15.2 4.7-15.2h-43.1l-26.5 50.4h-33.3l35.3-67.7h79.1c16.9 0 26.3 5.4 26.3 16.1 0 5-1.8 10.2-4 14.9z"/><path d="m290.6 19.3-17.7 33.1h33.3c14 0 18.2-2.2 23.4-9.5 2.3-3.7 4.3-7.5 6.2-11.5 4.2-8.4 1.5-12.1-7.3-12.1zm72.3 24.1c-12.5 22-30.7 26.3-53.6 26.3h-78.5l35.3-67.7h80.7c22.4 0 31.2 10 21.3 32z"/><path clip-path="url(#x1)" d="m354.9 69.7 49.8-34-26.7-33.7h34l14.8 18.4 26.7-18.4h36.5l-50.7 34.5 27.1 33.2h-34.7l-14.8-17.8-26 17.8z"/><path d="m126.3 82.3h-23.9c-2.1 0-4.7 1-5.2 2.6l-3.2 6.3c-1.2 2.3 1 3.1 2.6 3.1h19.3l2.1-4.2h-8.9l1.6-3.1h13.5l-4.7 9.9h-26.5c-5.6 0-5.4-3.6-4.7-4.7l3.7-7.8c1.6-3.1 5.7-4.8 10.4-4.8h24.9z"/><path d="m132 96.9 8.8-17.3h-5.2l-8.8 17.3z"/><path d="m164.2 82.3-10.9 7.8h13.5zm3.2 10.5h-17.7l-5.2 4.1h-5.2l23.9-17.3h5.7l5.7 17.3h-5.7z"/><path d="m215.2 97-6.3-.1-15-13.6-7.3 13.6h-5.2l9.4-17.3h5.7l15.1 13.7 7.2-13.7h5.2l-8.8 17.4v-.1z"/><path d="m260.9 82.3h-13l-7.2 14.6h-5.2l7.2-14.6h-13l1.6-2.7h31.2z"/><path d="m284.4 96.9 8.8-17.3h-5.2l-8.8 17.3z"/><path d="m325.4 97-6.3-.1-15-13.6-7.3 13.6h-5.2l8.9-17.3h6.2l15.1 13.7 7.2-13.7h5.2l-8.8 17.4v-.1z"/><path d="m349.3 79.6c-4.7 0-8.8 2.2-10.4 5.3-.4.8-.6 1.9 0 2.6 1.2 1.6 3.2 2.1 5.2 2.1h14.8c1.3 0 2.7.3 2.9 1.1.7 2.4-2.9 3.6-4.1 3.6h-15.6c-.8 0-1.5-.4-2.1-1v-.6h-5.2c-.2.3-.3.6-.3.9 0 .4.1.9.3 1.3.7 1.5 2.6 2 5.2 2h16.6c4.7 0 8.7-2.1 10.4-5.2.7-1.2.9-2.7 0-3.7-1.2-1.3-3-1.5-4.7-1.5h-15.6c-1.6 0-2.4-.5-1.5-1.9.7-1.1 1.7-2.3 3.1-2.3h14.6c.5 0 1.1.2 1.5.5.3.3.1.8.5 1h5.2c.2-.5.3-.9.3-1.3 0-2.2-2.5-2.9-5.5-2.9z"/><path d="m377 96.9 9.3-17.3h-5.2l-9.3 17.3z"/><path d="m415.9 82.3h-18.7l-6.3 12h18.8c2.1 0 4.8-.8 5.7-2.6l3.1-6.3c.4-.9-.2-3-2.6-3.1zm4.7 9.4c-2.1 3.7-5.8 5.2-11.5 5.2h-24.4l8.8-17.3h25c3 0 6.1 1.1 6.1 3.6 0 .5-.2.8-.4 1.2 0 0-1.5 3.6-3.6 7.3z"/><path d="m462.2 82.3h-24.1l-2.4 4.7h20.8l-1.6 2.6h-20.5l-2.4 4.7h23.9l-1.5 2.6h-29.1l8.8-17.3h29.1z"/></g></svg>