<svg viewBox="0 0 94 100" xmlns="http://www.w3.org/2000/svg"><g fill="#fff" transform="scale(.1)"><path d="m335 91.4c-14.1 30.4-45.4 41-86.2 41l38.3 43.6h-77.9l-69.4-81.1h106.5c24 0 38.5-35.1 10.8-35.1h-99.3l-61.1 116.2h-76.7l81.2-156h182.4c38.9 0 60.6 12.4 60.6 37.1 0 11.5-4.2 23.5-9.2 34.3z"/><path d="m459.5 59.9-40.8 76.2h76.8c32.3 0 44.1-3.7 53.9-21.9l14.2-26.5c10.2-19.1 3.5-27.8-16.8-27.8zm166.6 55.5c-28.2 51-70.7 60.6-123.5 60.6h-180.8l81.3-156h185.9c51.6 0 76 25.1 49.1 73.7z"/><path d="m608.7 176 114.7-78.3-61.5-77.7h78.3l34.1 42.4 61.6-42.4h84.1l-116.8 79.5 62.4 76.5h-80l-34-41-60 41z"/><path d="m454.8 980-434.8-757.1 158 .1 357 620.6z"/><path d="m861 293.2c10-16.7 14.2-29.7 14.2-39.8 0-22.5-20.6-30.4-43.4-30.4h-599.7l66.7 115.9h235.2c45 0 43.7 15.7 20.5 53.6l-15.5 25.3c-9.1 14.9-27.6 20.5-45 20.5h-138l205.4 360.6 94.1-158-71.2-123.8h49.4c53.6 0 106-21.8 147.8-91.5z"/></g></svg>