<svg viewBox="0 0 324 100" xmlns="http://www.w3.org/2000/svg" xmlns:xlink="http://www.w3.org/1999/xlink"><g id="figure" fill="#fff"><path d="m137.9 21.2v29.2l12.8-12.8c.7-.7 2-2.1 3.2-2.1h10.1c1.9 0 2.5 2.1 1.7 3l-17.2 17.2 18.3 21c.5.6 1.4 1.4 1.4 2 0 1.1-1.1 2-2.2 2h-9.7c-1.8 0-2.9-1.1-4-2.3l-14.4-16.2v16c0 1.8-1.2 2.5-2.8 2.5h-7.3c-1.9 0-2.6-.9-2.6-2.5v-57c0-1.4.7-2.2 2.6-2.2h7.6c1.3 0 2.5.4 2.5 2.2z"/><path id="a" d="m188.5 78.2c0 1.7-1.2 2.4-2.3 2.4h-7.9c-.9 0-2.7 0-2.7-2.4v-40.4c0-1.5.7-2.3 2.7-2.3h7.9c1.6 0 2.3 1 2.3 2.3z"/><path id="b" d="m243.4 54.9v23.3c0 1.2-1 2.3-2.2 2.3h-8.4c-1.9 0-2.9-.3-2.9-2.3v-23c0-4.6-1.3-10.6-9.6-10.2-2.9.1-8.1 2.2-8.1 9.6v23.6c0 1.8-1.1 2.3-2.7 2.3h-8c-1.8 0-2.6-.9-2.6-2.3v-39.6c0-1.9.5-3.2 2.4-3.2h7.3c2.5 0 3 .9 3 3.2v2.4c4.3-5.3 10.1-6.5 14.4-6.5 4.1 0 17.4 1.6 17.4 20.4z"/><use transform="translate(54.8)" xlink:href="#b"/><use transform="translate(132.9)" xlink:href="#a"/><path d="m5 2c-1.7 0-3 1.3-3 3v90c0 1.7 1.3 3 3 3h90c1.7 0 3-1.3 3-3v-90c0-1.7-1.3-3-3-3zm29 17.9h13v17.3l17.3-17.3h15.8l-30.4 30.4 30.4 30.3h-16.3l-16.8-16.7v16.7h-13v-14.6l-8.1 8.1-8.2-7.6 16-16-16-16 8.2-8.1 8.1 8.1z"/><path d="m177.8 17.7c-1.6 0-2.8 1.2-2.8 2.8v5.3c0 1.6 1.2 2.8 2.8 2.8h141.4c1.6 0 2.8-1.2 2.8-2.8v-5.3c0-1.6-1.2-2.8-2.8-2.8z"/></g></svg>