<svg viewBox="0 0 534 100" xmlns="http://www.w3.org/2000/svg"><g id="figure" fill="#fff"><g transform="scale(.1)"><path d="m653.1 20 468.6 355.4-468.6 355.5z"/><path d="m129.4 416.6 523.7 397.2 523.7-397.2 109.4 83.2-633.1 480.2-633.1-480.2z"/><path d="m2000.7 139.3h-259.1c-194.5 0-218.8 136-218.8 203.6v310.3c0 67.6 24.3 203.9 218.8 203.9h259.1v-130.8h-263.9c-60.4 0-80.3-40-80.3-73.1v-310.3c0-33.1 19.9-73 80.3-73h263.9z"/><path d="m2055.6 139.3h479.7v130.6h-345.8v164.9h298.8v131.1h-298.8v159.6h346.6v130.9h-480.5z"/><path d="m2712.6 139 271.9 449.5v-449.5h134v717.6h-119.7l-271.8-438.1v438.1h-133.9v-717.6z"/><path d="m3668.4 139v131.1h-179.9v586.5h-133.2v-586.5h-180.2v-131.1z"/><path d="m3856.7 139v449c0 96.5 49.2 143.6 118.9 143.6s119.4-46.8 119.4-143.6v-449h133.4v469.4c0 102.6-69.1 254.6-252.8 254.6s-252.7-149-252.7-254.6v-469.4z"/><path d="m4283.8 139v717.6h133.9l.2-264.3h97.8l134 264.3h156.1l-153.9-289c116.1-45.7 126.8-164.2 126.8-196.5-.1-84.2-48.7-232.1-228.1-232.1zm249.9 131.4c90.3 0 107.9 59.5 107.9 100.7 0 39.3-19.9 98.6-107.9 98.6h-115.8v-199.3z"/><path d="m4895.4 139 140.4 303.7 138.2-303.7h146l-219.8 445.7v271.9h-132.1v-271.9l-219-445.7z"/><path d="m5206.3 757.7c-27.2 0-49.3 22.2-49.3 49.4s22.1 49.3 49.3 49.3 49.4-22.1 49.4-49.3-22.2-49.4-49.4-49.4zm0 8.8c22.5 0 40.7 18.2 40.7 40.6s-18.2 40.5-40.7 40.5-40.8-18.1-40.8-40.5 18.3-40.6 40.8-40.6zm-19.7 14v55.1h11.4v-23.1c4.1 1 10.7-.2 13.3 3.3 4 5.4 3.6 13.3 5 19.8h12c-2-10-2.2-19-8.7-27.4 4.5-3.6 7.8-7.9 7.8-12.5.1-13.7-12.3-16.1-22.9-16.1s-13 .7-17.9.9zm28.7 16.3c.1 7.2-7.1 8-17.3 8.1v-17.1c10.7-.9 17.2 1.4 17.3 9z"/></g></g></svg>