<svg viewBox="0 0 517 100" xmlns="http://www.w3.org/2000/svg"><g id="figure"><path d="m19.8 29.1c0-4.8 3.3-9.5 10.5-9.5h34v-17.4h-36.2c-15.4 0-26.1 12.3-26.1 24.9v45.7c0 12.6 10.8 24.9 26.1 24.9h36.2v-17.4h-33.9c-7.2 0-10.6-4.7-10.6-9.5z"/><path d="m136.9 97.7h-63.8v-95.5h63.8v17.5h-46v21.9h39.8v17.5h-39.8v21.2h46z"/><path d="m215.8 97.7h-15.9l-36.2-58.4v58.4h-17.9v-95.5h15.9l36.2 59.8v-59.8h17.9z"/><path d="m286.5 19.7h-23.9v78h-17.8v-78h-23.9v-17.5h65.6z"/><path d="m359 62.9c0 19.7-14.6 35-33.6 35.1-20.2-.2-33.5-16.5-33.6-35.1v-60.9h17.8v60.2c.1 10.2 6.5 18.3 15.8 18.4 10.9-.3 15.8-9.7 15.9-18.4v-60.2h17.7z"/><path d="m437 97.7h-20.7l-17.8-35.2h-12.8v35.2h-17.9v-95.6h35.8c17.9.1 29.6 14.3 29.7 30.8-.3 11.8-6.5 22.3-16.7 26.4zm-34.5-78.1h-16.8v26.6h16.8c8-.2 12.8-6.5 12.9-13.3-.2-7.9-6-13.2-12.9-13.3z"/><path d="m505.8 2.2-29.1 59.2v36.3h-17.7v-36.3l-29.1-59.2h19.4l18.7 40.5 18.5-40.5z"/><path d="m514.7 84.4c0 7.4-5.8 13.3-13.2 13.3-7.3 0-13.3-5.9-13.3-13.3 0-7.3 6-13.3 13.3-13.3s13.2 6 13.2 13.3zm-23.3 0c0 5.9 4.5 10.6 10.1 10.6 5.6.1 10.1-4.6 10.1-10.6 0-5.9-4.5-10.7-10.1-10.7s-10.1 4.8-10.1 10.7zm7.8 7.7h-3.1v-14.8c1.2-.2 2.4-.4 4.7-.4 3.3-.1 6.4 1.2 6.4 4.4 0 1.8-1.3 3-2.9 3.4v.1c1.3.2 2.2 1.4 2.4 3.6.3 2.3.6 3.2.8 3.7h-3.3c-.3-.5-.5-1.8-.8-3.8-.2-1.6-1.2-2.3-2.8-2.3h-1.4zm1.5-8.5c1.8 0 3.2-.6 3.2-2.1 0-1.2-.9-2.2-3-2.2-.7 0-1.3-.1-1.7 0v4.3z"/></g></svg>