<svg viewBox="0 0 164 100" xmlns="http://www.w3.org/2000/svg" xmlns:xlink="http://www.w3.org/1999/xlink"><g id="figure"><g transform="scale(.1)"><path d="m818.9 20 197.1 149.5-197.1 149.5z"/><path d="m598.6 186.8 220.3 167.1 220.3-167.1 46 35-266.3 202-266.3-202z"/><path d="m221.6 525.8h-109.3c-82 0-92.3 57.4-92.3 85.9v130.9c0 28.5 10.3 86 92.3 86h109.3v-55.2h-111.3c-25.5 0-33.9-16.8-33.9-30.8v-130.9c0-14 8.4-30.8 33.9-30.8h111.3z"/><path d="m244.9 525.9 202.4-.3-.1 55.3h-145.8v69.6h126v55.3h-126v67.3h146.2v55.2h-202.7z"/><path d="m521.3 525.7 114.7 189.6v-189.6h56.5v302.7h-50.5l-114.6-184.8v184.8h-56.5v-302.7z"/><path d="m924.1 525.7v55.3h-75.9v247.4h-56.2l-.3-247.4h-75.7v-55.3z"/><path d="m1004.1 525.7v189.4c0 40.7 20.7 60.6 50.1 60.6s50.4-19.8 50.4-60.6v-189.4h56.2v198c0 43.3-29.1 107.4-106.6 107.4s-106.6-62.9-106.6-107.4v-198z"/><path d="m1184.1 525.7v302.7l56.5.1.1-111.6h40.7l56.5 111.5h65.4l-64.4-121.9c49-19.3 52.6-69.3 52.6-82.9 0-35.5-19.1-97.9-94.8-97.9zm105.4 55.4c38.1 0 45.5 25.1 45.5 42.5 0 16.6-8.4 41.6-45.5 41.6h-48.8v-84.1z"/><path d="m1441.1 525.7 59.2 128.1 58.6-128.1h61.1l-92.1 188v114.7h-56v-114.7l-92.1-188z"/><path d="m1572.6 786.7c-11.5 0-20.8 9.3-20.8 20.8s9.3 20.8 20.8 20.8 20.8-9.3 20.8-20.8-9.3-20.8-20.8-20.8zm0 3.7c9.5 0 17.2 7.7 17.2 17.1s-7.7 17.1-17.2 17.1-17.2-7.7-17.2-17.1 7.7-17.1 17.2-17.1zm-8.3 5.9v23.3h4.8v-9.8c1.7.4 4.5-.1 5.6 1.4 1.7 2.3 1.5 5.6 2.1 8.4h5.1c-.8-4.2-1-8.1-3.7-11.6 1.9-1.5 3.3-3.3 3.3-5.3.1-5.8-5.2-6.8-9.7-6.8s-5.5.3-7.5.4zm12.1 6.9c0 3.1-3 3.4-7.3 3.4v-7.2c4.5-.4 7.3.6 7.3 3.8z"/><path d="m220.1 947.7 31.5-68.7h16.3v100.9h-13.5v-78.1l-28.6 64.1h-11.3l-28.6-64.1v78.1h-13.3v-100.9h16.3z"/><path id="a" d="m312.8 979.9h14.4l9.1-27.6h40l9.2 27.6h15.1l-34.9-100.9h-17.9zm59.3-40.2h-31.6l16-47z"/><path id="b" d="m445.4 879v100.9h13.9v-39.6h24.5l20.3 39.7h15.3l-20.5-39.7c12.2-1.7 17.4-7.7 17.4-21.4v-20.5c0-14-7.5-19.4-20.7-19.4zm56.9 21v18.9c0 7.2-2.3 8.8-9.3 8.8h-33.7v-36.2h33.7c6.6 0 9.3 1 9.3 8.5z"/><path id="c" d="m633.4 879v12.5h-29.9v88.4h-14v-88.4h-29.5v-12.5z"/><path d="m692.2 879.1v100.8h-13.9v-100.8z"/><use transform="translate(424)" xlink:href="#a"/><path d="m883.4 879v88.2h47.8v12.7h-61.8v-100.9z"/><g transform="translate(717.5)"><use xlink:href="#a"/><use xlink:href="#b"/><use xlink:href="#c"/></g><path d="m1443.5 879c6.3 0 12.8 1.4 16.7 6.8 4.9 6.9 3.4 23.2 3.4 23.2l-13.6.1-.2-10c-.1-5.9-3-7.9-8.2-7.9h-23.7c-8.7 0-9.9 5.8-9.9 12.5 0 12.1 1.1 13.4 8.5 15.2 9.6 2.3 19.1 4.3 28.7 6.6 18.7 3.9 20.1 11.7 20.1 27.6 0 20.3-4.2 26.9-22.5 26.9h-27.8c-9.6 0-21.1-2.1-21.1-21.2v-10.2h13.6v10.1c0 6.8.6 8.9 12.6 8.9h24.1c6.5 0 7.2-3.6 7.2-12.8 0-5.2.6-13.3-4.7-15.2-8.1-2.9-17-3.8-25.4-6.1-7.3-2-17.2-3.1-22.7-8.8-4.7-4.8-4.4-12.5-4.4-19.3s-.2-14.8 3.8-20.1c3.7-4.8 9.7-6.3 17.6-6.3z"/></g></g></svg>