<svg viewBox="0 0 242 100" xmlns="http://www.w3.org/2000/svg"><g id="figure"><path d="m17.4 82.4c0-26.9.1-45.9.1-58.5 0-11.7 0-17.8-.1-19.4-4.3-1.2-10.7-1.3-15.4 0v90.8c0 1.9 1.3 2.5 2 2.5h33.8c1-1.8 1.5-5 1.5-8 0-2.9-.4-5.7-1.5-7.4z"/><path d="m55.6 4.5v65c2.5 19.8 14.2 28.5 26 28.5 12.8 0 25.7-10.2 27.1-28v-65c-.9-1.8-4.1-2.7-7.5-2.7-3.1 0-6.3.8-7.9 2.2-.5 14.3.9 46.1-.5 65-1.7 15.2-17.8 19.6-21.4-.5-.3-4.1-.3-62.6-.4-64.5-.7-1.2-4.5-2.2-8.1-2.2-3.1 0-6 .5-7.3 2.2z"/><path d="m127.9 6.5v88.8c.9 1.2 4.4 2.6 8 2.6 2.7 0 5.5-.8 7.4-3.1v-45.2l16.4 45.7c3.3 3 11.3 3.4 13.9 0l16.4-44.7v44.7c1.8 1.8 4.8 2.6 7.7 2.6 3.2 0 6.3-1 7.7-2.1v-89.3c-.2-1.3-3.7-4.5-8.2-4.5-2.1 0-4.4.6-6.7 2.5l-23.8 62h-.5l-23.4-62c-1.8-1.6-4.1-2.3-6.4-2.3-3.6 0-7.3 1.7-8.5 4.3z"/><path d="m224.7 4v92.3c2 .9 4.6 1.4 7.2 1.4 3 0 5.9-.6 8.1-1.9v-91.3c-2-1.6-5-2.4-8-2.4-2.7 0-5.3.7-7.3 1.9z"/></g></svg>