<svg viewBox="0 0 466 100" xmlns="http://www.w3.org/2000/svg" xmlns:xlink="http://www.w3.org/1999/xlink"><g transform="scale(.1)"><g fill="#29439d"><path d="m500 55.7c-245 0-444.3 199.3-444.3 444.3s199.3 444.3 444.3 444.3 444.3-199.3 444.3-444.3-199.3-444.3-444.3-444.3zm-480 444.3c0-264.7 215.3-480 480-480s480 215.3 480 480-215.3 480-480 480-480-215.3-480-480z"/><path d="m411.5 298h-120c-97.4 0-118.5 45.2-118.5 97.5v293.5.1l52.5-.1v-166.5h78.5l17-49h-95.5v-75c0-34.2 20.6-51.5 61.5-51.5h130.5c103 0 130 89.3 130 146.5 0 57.7-27 145.9-129.5 146h-97l-17 49.5h110c115.8 0 189.5-71.7 189.5-195.5 0-123.2-71.2-195.5-192-195.5z"/><path id="a" d="m1196 332.1h73.5l-11.1 34.8h-62.4v117.6h-37.1v-207.6c0-55 36.7-68.7 80.9-68.7h46.5l-11 34.8h-36c-29 0-43.3 12.1-43.3 36.2z"/><path d="m1367.1 484.5h-37.2v-276.4h37.2z"/><path id="b" d="m1410.5 484.5v-179.6c0-32.2 9.5-100.7 90.4-100.7 30.4 0 90.8 9.1 90.8 81.4 0 39.4-21.6 55.7-52.1 65.5v1.6c37.5 14.5 49.7 36.1 49.7 102.2v29.6h-37.1v-50.5c0-34.2-17.6-63.6-65.9-63.6h-21.4v-34.8h27.6c39 0 62.1-19.3 62.1-52.1 0-27.3-21.2-44.6-52.5-44.6-45.5 0-54.5 31.6-54.5 66v179.6z"/><path id="c" d="m1777.1 242.9h-69.9c-26.5 0-39.9 10.8-39.9 32.4 0 9.7.4 28.3 65.2 52.5 43.4 16.2 60.9 36.7 60.8 78.3-.1 71.2-74.4 78.5-87.4 78.5h-73v-34.8h60.5c27.5 0 60.7-9.8 60.7-44.2 0-24.2-18.2-37-58.8-52.1-29.4-10.9-67.5-30-67.5-79.4 0-59.5 53.9-66 77-66h72.3z"/><path d="m1809 208.1h173.8l-11 34.8h-57.3v241.6h-37.2v-241.6h-68.3z"/><path d="m2136.6 449.8c72.4 0 91.6-62.2 91.6-103.4 0-39.7-18.2-103.2-91.6-103.4h-21.3v206.8zm-4.8 34.8h-53.7v-276.5h53.7c84.6 0 136.3 50.4 136.3 138.3s-51.7 138.2-136.3 138.2z"/><path id="d" d="m2293.9 484.5v-208.4c0-52 36.4-67.9 76.9-67.9h80.2l-11.1 34.8h-65.5c-29 0-43.4 12.1-43.4 36.3v45.1h91.2l-11.1 34.7h-80.1v90.8h120.1l-11.1 34.6z"/><path d="m2626 449.8v-82.9h-40.6v-34.8h77.8v152.4h-60.9c-84.8 0-136.2-50.5-136.2-138.2s51.4-138.2 136.2-138.2h45.5v34.8h-50.2c-72.1 0-91.6 61.4-91.7 103.4-.1 38.5 17.3 103.5 91.7 103.5z"/><use transform="translate(1296)" xlink:href="#b"/><use transform="translate(637.7)" xlink:href="#d"/><use transform="translate(838.5)" xlink:href="#d"/></g><g fill="#f79210"><path d="m806.5 347 17-49h-103.5c-53.4 0-106 23.5-106 93v2c14.6 30.7 23 65.2 23 102s-8.4 71.3-23 102v92h52.5v-167h78.5l17-49h-95.5v-75c0-34.3 20.6-51 61.5-51z"/><use transform="translate(2227.6)" xlink:href="#a"/><path d="m3578.3 484.5h-37.1v-276.4h37.1z"/><path d="m3622.2 208.1h173.8l-11 34.8h-57.3v241.6h-37.2v-241.6h-68.3z"/><path d="m3997.5 208.1v201.8l-115.7-201.8h-42.8v276.4h37.2v-211.4l121.2 211.4h37.1v-276.4z"/><use transform="translate(1783.8)" xlink:href="#d"/><use transform="translate(2644.9)" xlink:href="#c"/><use transform="translate(2846.7)" xlink:href="#c"/><path d="m1188.2 593.6s.7 2 1.1 3.2c-1.2.3-2 .6-2.8.7-3.2.2-6 1.1-6 4.8.1 4.2-.8 9 4.5 11.1 19 7.3 39.7 5.3 59.6 5.5-11.9 11-11.4 12-20.4 19.9-5.1 4.5-9.7 10.2-15.7 13.1-6.3 3.1-14.3 2.5-21.2 3.9-12.5 2.5-25.3 3.9-38.1 4.4-4 .2-5.9 1.7-5.6 5.5.1 1-.4 2.6-1.2 3.2-5.5 3.8-6.4 7.7-2.6 13 4.9 6.8 11.5 10.5 20 10.9 1.7.1 3.3 1.2 5 1.9-.9 1.4-1.6 3.1-2.8 4.2-4 3.6-8.8 6.5-12.2 10.5-8.4 9.5-16 19.7-24.4 29.4-9.5 11-22.9 24.4-46 50.9-2.4 2.6-4.1 5.8-6.1 8.5 4.2.1 8.8 2.8 13 1.9 5.8-2.6 11.4-5.8 17.2-8.4 1.4-.6 3.1-.3 4.8-.4-.5 1.4-.5 3-1.4 4.1-8.9 9.1-16.2 19.6-23.9 29.7.4.4.8.9 1.2 1.3 2.2-1.2 4.2-2.2 6.2-3.7 10.9-8.9 22.2-17.6 34.1-25.2 3.7-2.4 8-4.3 11.2-7.1 10.9-9.6 32.1-32.5 45.5-45.4 37.5-36.1 43.2-37.5 50.7-45.6 9.1-9.8 19.7-14.5 32.9-15.4 54.5-4.7 109.1-8.9 163.7-13.2 3-.2 6.6-3.5 8.5-3.4 13.8 1.6 23-6.2 32.7-15.6h-10.2v-4.4c-2.6-.3-5-.5-7.4-.8 3.6-2 7.2-3.8 10.7-3.6 4.3.2 7.7-.2 11.9-1.6 8.2-2.5 17.4-2.1 26.2-3.1 4.8-.6 9.5-1.7 14.3-2.6-.1-.5-.2-.9-.3-1.4-.9-.5-1.7-1-2.8-1.6 2.1-.8 3.7-1.2 5.3-1.8-.1-.5-.1-1-.2-1.6-1.4-.1-2.8-.3-4.2-.3-10 .5-19.9 1.5-29.9 1.5-14.8 0-22.7-2-38.9-.9-41.9 1.6-83.5 6.9-125.2 11.1-5.2.5-10.4.1-16.5 0 2-2.4 1.8-2.8 3.4-3.7 7.9-4.3 15.2-10 19.9-17.6 11.4-18.4 34.7-11.8 52.3-14.9 19.9-3.5 40.7-2.3 61.1-3.4 6.8-.3 16.5-3.2 17.9-3.3 6.5-.6 13.5 1.9 19.2-3.7.7-.7 2.1-.6 3.2-.7 14.4-1.1 28.7-2 43-3.3 2.9-.3 6.8-.7 8.5-2.7 4-4.7 9.4-4.1 14.3-5.5 2.1-.6 4.9-.2 4-3.2-.4-1.4-2.7-2.3-4.5-3-1.4-.6-3-.5-4.5-.7 0-.5 0-1-.1-1.5 1.6-.4 3.1-1 4.7-1.1 6-.1 11.9.2 17.9 0 8.8-.7 10.6-1 23.3-.1 1.9 0 6.8-2.7 9.5-3.1 5.9-.8 11.7-1.3 17.7-2.1 2.4-.3 4.5-1.3 6.9-1.7 6.7-1.2 13.9 2.2 20.1-2.8-1.2-.4-2.3-.7-3.4-1.1 5.2-1.1 10.7.2 16-3.8-9.1-.5-17.2-1.2-25.2-1.2-17.7-.2-35.5.1-53.2-.1-2.1 0-4.1-1.5-6.2-2.2-1.8-.6-3.5-1.4-5.3-1.5-2.8-.1-5.8.6-8.6.6-79.3-.2-82.7 5.5-119 3.1-18.1-1.2-36 .5-53.6 4.2-38.6 8.2-108.5 13.8-164.8 21.8z"/><path d="m1745.1 549.8c.1-6.4-2.5-10.2-7.4-12.1-9.5-3.7-18.7-2-27.3 2.4-10.6 5.4-21.2 11-30.9 17.7-14.2 9.9-58.3 43.4-84.8 64.7-27.9 22.1-54.5 45.5-81.4 68.7-6.5 5.5-12.7 11.2-18.4 17.4-15.2 16.5-29.8 33.7-44.4 50.7-6.4 7.4-11.1 16-14.3 25.4-1.3 3.7.5 4.5 3.4 4.1 1.6-.2 3.1-1.6 4.7-2.4 8.5-4.4 16.4-9.6 24.4-14.8 1.4-.9 2.5-1.9 3.9-2.9 4.9-3.4 7.4-10.3 14.7-9.9.6 0 1.7-.9 1.6-1.3-.2-3.4 2.4-2.7 4.4-3.6 13.3-4.5 22.9-14.7 33.2-23.8 10.1-8.7 21.5-15.4 32.5-22.6 1.9-1.3 3.2-3.6 5-5 9.5-7.3 19.2-14.5 28.6-21.9 22.4-18.8 45.4-36.6 68.2-54.9 10.5-8.3 22.3-15.1 30.7-26 .8-1.1 2.8-2.1 4.2-1.9 5.2.7 7.2-3.4 10-6.2.7-.7 1-1.8 1.7-2.3 29-23 30.7-22.5 35.4-26.1 3.4-2.6 5-5.7 3.1-10-.5-1.1-.9-3-.8-3.4z"/><path d="m1818.8 721.6c2.2-2.5 3.9-5.7 6.5-7.7 11-8.5 22.2-16.7 31.7-26.9 4.7-5.2 13.1-6.2 15.5-13.8.1-.4 1.4-.7 2.2-.8 7.8-.9 12.9-6.1 17.8-11.5 2.6-2.8 2.7-6.2.3-9.7-4.4-6.7-11-8.3-18.3-8.6-7.6-.4-15.3-1-22.9-1.1-2.4 0-5.4.5-7.4 1.8-7.3 5-14.8 9.9-23.2 12.7-51.6 18-103 36.7-154.9 54-1.2.4-2.6 0-5.1 0 1.9-1.7 2.6-2.3 3.5-3 6.8-4.8 13.5-9.4 20.2-14.2 4.3-3.1 7.3-8.2 13.1-9.4.7-.2 1.1-1.5 1.7-2.2 1.4-1.9 2.6-3.9 4.3-5.6 5.3-5.3 10.8-10.2 16-15.5 3.9-4 3-9.9-1.9-12.6-1.8-1-3.7-1.9-5.2-3.3-2.9-2.5-11.1-4.1-13.9-1.7-4.9 4.3-9.8 3.4-15.3 2.1-2.4-.5-5.7-.4-7.6.8-30.2 19-58.6 41-85.6 64.3-7.2 6.2-13.5 13.6-19.8 20.9-4.3 5-5.5 9.4-.1 15.8 6.6 7.8 13.4 11.6 23.3 10 8.5-1.4 49-13.2 63.3-18.1 17.2-5.9 34.3-13.1 51.3-19.6 21-8 41.9-15.9 62.9-23.8 1.7-.6 3.6-.4 6.5-.9-1.4 2.3-1.9 3.3-2.7 4.2-7.5 8.7-14.5 13.7-20.6 27.2-2.5 5.5-7.6 9.3-12.1 13.3-4.6 4.1-5.7 9.7-2.3 14.7 2.8 4.1 6.2 8.1 10 11.3 4.1 3.4 9.2 1.7 13.9.8 2.8-.5 4.5-1.8 4.6-5.1 0-.8 2.3-2 3.8-2.3 11.7-2.9 23.4-5.5 35.1-8.4 22.6-5.7 41.6-15 69.5-23.7 6.3-2 12.3-4.4 18.4-7 7.1-3 15.3-4.6 21.5-9 5.2-3.7 11.6-3.6 16.6-7.1 1.4-1 4 .2 6.2.4-.6 1.9-.6 4.1-1.9 5.5-15.3 15.4-28.7 32.4-42.5 49-3.8 4.6-3.6 6.9 1.7 9.7 1.1.6 2.2 1.1 3.5 1.8-1.8 3.7.6 4.8 3.4 5 1.9.1 3.7-.6 5.6-1 2.5-.7 5-2.8 7.4.2.3.4 2-.2 2.9-.7 7.7-3.9 14.5-9.3 21.3-14.6.4-.3.3-1.2.6-1.7 1.3-1.7 2.3-3.6 4-4.7 5.1-3.2 10.8-5.7 15.7-9.2 6-4.2 11.1-9.6 16.9-13.9 13.1-9.7 25.5-20.1 38.3-30 2.9-2.3 6.9-3.4 9.8-5.8 6.2-5 14.7-7.1 18.5-14.9.2-.5 1.1-.6 1.7-1 2.8-2 6.3-3.6 8.3-6.2 1.5-2.1 2.1-6 1.1-8.3-2.4-5.3-7.6-9.3-13.1-9.6-9.4-.5-19.3-.7-28.2 1.9-18.8 5.5-28.3 13.3-57.3 22.4-44.1 12.3-87.8 27.3-129.9 43.5-2.3.9-4.7 1.6-7 2.5"/><path d="m2148.1 581c-2.5-1.6-3.7-2.2-3.8-2.2.6-3.1.9-5.4 1.4-7.8-2.4-.3-4.8-1.1-7.2-.9-2.2.2-4.2 1.5-6.5 2-2.1.4-5.6-1.4-6.7-1.2-3.4.7-6.9 1.9-10.3 2.6-17.2 3.3-34.2 7.3-49.7 16-4.9 2.8-7.1 10.7-4.5 13.6-.2 2.7-1.2 5.2-.4 6.7 5.2 10.1 22.9 15.9 31.5 8.9 8.9-7.2 20.3-8.1 29.3-14.3 3.8-2.6 8-4.5 13-7.2-2.8-1.2-4-1.6-5.7-2.3 1.7-1 2.7-1.6 4-2.3-1-1.1-1.7-1.9-2.3-2.5"/><path d="m2071.4 737.9c5.3-2.2 10.5-4.9 15.8-6.9 15.4-5.9 30.8-11.6 46.2-17.5 12.2-4.7 24.5-9.6 36.6-14.5 8.7-3.5 17.4-7.4 26.1-11.1 6.3-2.7 3.9-6.3 1.9-10.5-.9-2.1-1.3-5.3-2.7-5.8-5.2-.2-10.6 1.5-16 2.9-5.9 1.6-11.6 3.5-17.4 5.5-4.3 1.5-8.5 3.3-12.8 5-2 .8-4.5.7-5.9 2-4.8 4.8-10.1 8.1-17.1 8.8-.5 0-.9.9-1.4 1.3-2.4 1.7-4.6 4-7.1 4.7-6.4 1.7-13 1.8-17.9 7.3-2.3 2.4-5.7 3.8-8.6 5.7-7.6 4.9-15.4 9.7-22.8 14.8-4.7 3.2-10.1 6-11.8 13.7 0 0 10.4-3.6 14.9-5.4zm97.1 12.3c2.4-1.8 6.4-1.8 5.5-7.4-.4-2.4 4.7-5.5 7-8.5 5.9-7.9 11.6-16 17.3-24 .7-1 .4-2.6.6-3.9-1.2-.1-2.5-.6-3.6-.2-2 .7-4.1 1.4-5.4 2.9-6.1 6.6-13.8 9.1-22.4 9.5-4.8.2-8.5 1.3-10.3 6.7-1.7 5.3-6.1 3.3-10 2.2-2.7 3.8-5.8 7.2-11.3 5.5-.6-.2-1.6.7-2.4 1.2-2.1 1.6-3.9 3.8-6.1 4.7-10.4 4.2-20.6 8.9-31.4 11.7-11.3 2.9-21.4 8.2-32.1 12.1-11.2 4.1-23.3 4.1-33.9-3.4-6.2-4.4-8.3-12.8-5-19.5 5.3-10.6 14.8-17.3 23.3-24.6 12.7-11 27.7-18.2 42.3-26.4 8.3-4.7 16.7-9.6 25.3-13.6 10.1-4.7 20.6-8.6 31-12.9 3.9-1.6 7.7-3.7 11.7-5.2 4.4-1.6 8.9-2.6 13.4-3.9.9-.3 2.1.3 2.8-.2 7.9-5.4 17.7-3.8 26.2-6.8 2.4-.9 5.4-.9 8-.9 4-.1 8.2.7 12.1.2 9.6-1.3 16.3 3.6 22.1 10 5.9 6.5 5.5 6.4 12.4 1.3 15.8-10 29.4-22.8 43.9-34.4 5.4-4.3 11.4-7.8 17.3-11.5 6-3.8 28.8-18.1 64.8-40.3 5-3.1 10.2-6 15.2-9.1 7-4.4 19.1-3.6 24.1 1.7 4.2 4.5 3.2 10.2 3.5 15.5 0 .7-1.1 1.4-1.8 2-4.1 3.6-9.4 6.2-10.5 12.6-.2 1-3.3 1.3-4.7 2.3-11.3 7.9-23.6 14.2-33.9 23.7-5.2 4.9-11.9 8.3-17.7 12.5-13.6 10.7-28.1 20-42.3 29.9-9.5 6.7-18.9 13.8-28.3 20.8-.6.5-1.2.8-2 1-3.5.8-7.7.4-6.9 6.1.1.7-2.4 2.2-3.9 2.7-2.9 1-6.2 1.3-6.8 5.2 0 .3-.2.7-.4.8-4.3 1.7-8.7 3.3-12.9 5-6.4 2.6-6.8 5.5-10.3 8.2-6.7 5.1-13 10.7-20.4 14.8-9.2 5.1-15.3 12.8-21.2 20.9-5 7-10.3 2-14 16.5-.9 3.4-1 6.9-5.5 8.2-1.1.3-2 2.6-2.2 4.1-.8 5-4.5 4-7.5 3.4-3.1-.6-5.7-2.2-5-6.3 1.1-6.2 2.1-12.2 3-18.4.2-1.3-.4-2.5-.8-4.3z"/><path id="e" d="m2519.8 757.1c0 2.5-.8 3.9-3.9 3.9h-11.7c-2.7 0-3.6-1.4-3.6-3.9l-.3-167.4c0-2.5 1.1-3.8 3.9-3.8h11.7c3 0 3.9 1.3 3.9 3.8z"/><path id="f" d="m2775.2 761h-10.6c-2 0-3-.5-3.9-1.8l-73.6-121.1c-6.1-9.8-9.3-15.9-9.6-16.7v135.7c0 2.5-1.1 3.9-3.9 3.9h-10.6c-3 0-4.2-1.4-4.2-3.9v-167.4c0-2.5 1.1-3.8 4.2-3.8h10.7c2 0 2.7.5 3.3 1.6l75.3 122.8c2.3 3.6 8.3 15.5 8.3 15.5v-136c0-2.5 1.1-3.8 3.9-3.8h10.7c3 0 3.9 1.3 3.9 3.8v167.4c0 2.5-.9 3.8-3.9 3.8z"/><use transform="translate(260)" xlink:href="#f"/><path id="g" d="m3275.3 624.3c0-14.9-11.1-24.7-40.5-24.7-29.2 0-40.3 9.8-40.3 24.7v98.4c0 15 11.1 24.7 40.3 24.7 29.5 0 40.5-9.7 40.5-24.7zm-100.5-2.8c0-20.6 14.4-37.6 60-37.6 46.1 0 60.3 17 60.3 37.6v104c0 20.6-14.2 37.6-60.3 37.6-45.6 0-60-16.9-60-37.6z"/><path d="m3411.4 589.7c-.9-2.5.3-3.8 3-3.8h12.8c2.7 0 3.9 1.3 4.7 3.8l39.8 121.3c3.5 10.5 6.2 25.3 6.4 26.6.3-1.3 3-16 6.6-26.6l40.1-121.3c.9-2.5 2-3.8 4.7-3.8h11.7c3 0 4.2 1.3 3.3 3.8l-55.6 167.4c-.8 2.5-2.3 3.9-5 3.9h-12c-3 0-4.4-1.4-5.2-3.9z"/><path d="m3705.2 636.4c-2.7-8.2-6.3-28.4-6.9-31.2-.5 2.8-4.2 22.8-7 31.2l-20.5 60.3h54.7zm4.5-46.7 55.5 167.4c.9 2.5-.3 3.9-3.3 3.9h-12c-2.7 0-4.2-1.4-5-3.9l-15.3-45.8h-63.6l-15 45.8c-.8 2.5-2 3.9-4.7 3.9h-11.2c-2.7 0-3.9-1.4-3-3.9l55.3-167.4c.8-2.5 2.3-3.8 5.3-3.8h12c2.7 0 4.2 1.3 5 3.8"/><path d="m3973.5 589.7v8.1c0 2.8-1.4 3.8-4.2 3.8h-47.8v155.5c0 2.5-1.1 3.9-3.9 3.9h-11.9c-3 0-4.2-1.4-4.2-3.9v-155.5h-47.8c-3 0-4.2-1.1-4.2-3.8v-8.1c0-2.8 1.1-3.8 4.2-3.8h115.6c2.8 0 4.2 1 4.2 3.8z"/><use transform="translate(1592.7)" xlink:href="#e"/><use transform="translate(1073.7)" xlink:href="#g"/><use transform="translate(1846.6)" xlink:href="#f"/></g></g></svg>