<svg viewBox="0 0 193 100" xmlns="http://www.w3.org/2000/svg" xmlns:xlink="http://www.w3.org/1999/xlink"><g id="figure" fill="#fff"><g transform="scale(.1)"><path d="m905.2 198.9h-77.2c-62.7 0-76.3 29.1-76.3 62.7v188.9.1l33.8-.1v-107.2h50.5l10.9-31.5h-61.5v-48.3c0-22 13.3-33.1 39.6-33.1h83.9c66.3 0 83.7 57.4 83.7 94.2 0 37.1-17.4 94-83.3 94h-62.4l-11 31.8h70.8c74.5 0 121.9-46.1 121.9-125.8 0-79.3-45.8-125.7-123.5-125.7z"/><path d="m1060.1 769.4c22.2 36.5 33.1 78.1 33.1 110.6 0 21.4-5.6 53.5-32 76.6-10.1 8.8-32.2 23.4-69.3 23.4-13.5 0-39.8.1-91.9-25.3-8.7-4.3-18.2-8.7-26.1-14-.5-.3-.6-1.2 0-1.6l28.4-22c1.4-1.1 2.5-.8 4.2 0 6.4 3 12.6 6.2 19.1 9 14.9 6.3 30.9 10.7 47.1 11.7 19.2 1.2 38.2-3.6 53.2-16 18-14.9 24.8-33.3 24.7-52.6-.1-22.5-9.5-46.2-21.6-67.1-1.6-2.8-1.3-3.9 0-5.4l25.8-29.3c2-2.3 4.1 0 5.3 2z"/><path d="m40.6 828.1h115.5l-4.5 29h-82.9l-3.8 24.1h69.5l-4.5 28.7h-69.5l-7.8 49.1h-32.6z"/><path d="m206.6 828.1-16.2 102h77.3l-4.5 28.9h-110l20.7-130.9z"/><path d="m297 828.1h31.7l-12.6 79.1c-2.3 14.4-2.8 25.6 26.5 25.6 26.6 0 32.3-8.4 35-25.6l12.6-79.1h30.9l-12.2 77.3c-6.9 43.7-18.2 55.2-66.8 55.2-58.8 0-63.4-15-56.8-57.5z"/><path d="m479 828.1-20.5 130.9h-32.1l20.5-130.9z"/><path d="m506.7 828.1-20.8 130.9h46.9c38.7 0 63.9-.2 80.1-21.7 12.7-16.9 16.4-43.1 16.6-63.9.2-21.3-4.2-45.3-60-45.3zm52 28.5c21.3 0 37.2 2.3 37.2 18.6 0 10.6-1.1 21.3-4.1 31.4-5.1 17.1-14.7 23.5-38.2 23.5h-29.2l11.6-73.5z"/><path d="m962.2 43c-157.6 0-285.9 128.2-285.9 285.8s128.2 285.9 285.8 285.9 285.9-128.3 285.9-285.9-128.2-285.8-285.8-285.8zm-308.9 285.8c0-170.3 138.6-308.8 308.9-308.8s308.8 138.5 308.8 308.8-138.6 308.9-308.9 308.9-308.8-138.6-308.8-308.9z"/><path d="m1159.3 230.4 11-31.5h-66.6c-34.4 0-68.2 15.1-68.2 59.8v1.3c9.4 19.8 14.8 41.9 14.8 65.6s-5.4 45.8-14.8 65.6v59.2h33.7v-107.4h50.6l10.9-31.5h-61.5v-48.3c0-22.1 13.3-32.8 39.6-32.8z"/><path d="m1040.2 740.4c3 3.8 6 8.3 8.6 12.4.8 1.2.9 1.5 0 2.6-8.3 10-16.5 18.9-24.9 28.1-37.6 41.1-118.9 125.2-194.2 169.6-42.6 25.1-67.4 26.9-79.5 26.9-42.3 0-73.1-28.7-73.1-63.6 0-38.1 37.7-66.7 79.7-66.5 38.4.2 77.3 22.2 97.7 35.5 3.7 2.4 4.4 2.9.1 6.3-7.8 6.2-16.2 12.1-25 17.7-3.3 2.1-4.1 2.2-7.8-.2-19.8-12.8-39.7-26.6-63.6-28-23.8-1.4-45.8 13.4-45.6 36.4.1 10.6 7.1 32.9 36.2 34.9 18.3 1.3 43-5.3 76.2-24.9 61.7-36.4 138.8-112.1 198.5-171.9 4.6-4.6 10.5-10.8 15.2-15.3.4-.4.9-.7 1.5 0z"/><path id="a" d="m1153.9 831.1-20.3 127.9h32.3l7-44.8h28.3l27.3 44.8h37.5l-27.9-46.3c18.9-4.7 26.7-12.1 32.2-32 2.5-8.9 2.4-18.2 2.4-21.1 0-27.4-18.7-31.5-52-31.5h-62.8c-2.5 0-3.6.8-4 3zm66.9 55.2h-43.5l4.9-29.8h41.9c13.6 0 16.5 4.4 15.7 13.5-.7 7.9-4.6 16.3-19 16.3z"/><path d="m1306 844.3c-20.8 21.7-21.2 64.9-21.2 68.5 0 31.2 13.6 48.3 63.1 48.3 26.1 0 42.5-2.7 59-16.5 21.1-17.7 23-68.6 23-70.9-.1-37.8-23.7-47.5-61.2-47.5-19.4 0-45.9.6-62.7 18.1zm58.6 10c26.4 0 31.8 8.9 31.8 21 0 2.1-.2 29.1-9.6 43.8-5 7.8-13.7 13.9-34.4 13.9-35.9 0-34.1-16-34.1-25.9 0-6.2 1.4-27.2 10.1-39.9 7.7-11.2 23.7-12.9 36.2-12.9z"/><path d="m1450.6 828.1h26.6l10.5 83.2 37-80.4c.6-1.4 1.7-2.5 3-2.5h27.4l12.1 83.3 37.2-83.6h32.9l-60.2 130.9h-31.6l-11.7-83-38.6 83h-32l-18.1-124.9c-.8-5.8.1-6 5.5-6z"/><path d="m1650 828.1-20.7 130.9h118.1l4.5-28.9h-85.4l3.8-23.7h70.4l4.7-27.7h-70.7l3.4-21.7h84.3l4.5-28.9z"/><use transform="translate(637.3)" xlink:href="#a"/></g></g></svg>