<svg viewBox="0 0 109 100" xmlns="http://www.w3.org/2000/svg" xmlns:xlink="http://www.w3.org/1999/xlink"><g id="figure"><g transform="scale(.1)"><path d="m545.1 43c-157.6 0-285.9 128.2-285.9 285.8s128.2 285.9 285.8 285.9 285.9-128.3 285.9-285.9-128.2-285.8-285.8-285.8zm-308.9 285.8c0-170.3 138.6-308.8 308.9-308.8s308.8 138.5 308.8 308.8-138.6 308.9-308.9 308.9-308.8-138.6-308.8-308.9z"/><path d="m488.1 198.9h-77.2c-62.7 0-76.3 29.1-76.3 62.7v188.9.1l33.8-.2v-107.1h50.5l10.9-31.5h-61.4v-48.3c0-22 13.3-33.1 39.6-33.1h83.9c66.3 0 83.7 57.4 83.7 94.2 0 37.1-17.4 94-83.3 94h-62.4l-11 31.8h70.8c74.5 0 121.9-46.1 121.9-125.8 0-79.3-45.8-125.7-123.5-125.7z"/><path id="a" d="m56.2 834.1h21.7l-3.3 10.3h-18.4v34.7h-10.9v-61.3c0-16.2 10.8-20.3 23.8-20.3h13.8l-3.3 10.3h-10.6c-8.6 0-12.8 3.6-12.8 10.7z"/><path d="m106.7 879.1h-11v-81.6h11z"/><path id="b" d="m119.5 879.1v-53c0-9.5 2.8-29.7 26.7-29.7 9 0 26.8 2.7 26.8 24 0 11.6-6.4 16.4-15.4 19.3v.5c11.1 4.3 14.7 10.7 14.7 30.2v8.7h-10.9v-14.9c0-10.1-5.2-18.8-19.5-18.8h-6.3v-10.2h8.1c11.5 0 18.3-5.7 18.3-15.4 0-8.1-6.2-13.2-15.4-13.2-13.4 0-16.1 9.3-16.1 19.5v53z"/><path id="c" d="m227.7 807.8h-20.6c-7.8 0-11.8 3.2-11.8 9.6 0 2.9.2 8.4 19.3 15.5 12.8 4.8 17.9 10.8 17.9 23.1 0 21-22 23.1-25.8 23.1h-21.5v-10.2h17.8c8.1 0 18-2.9 18-13.1 0-7.1-5.4-10.9-17.4-15.4-8.7-3.2-19.9-8.8-19.9-23.4 0-17.6 15.9-19.5 22.7-19.5h21.3z"/><path d="m237.2 797.5h51.3l-3.3 10.3h-16.9v71.3h-11v-71.3h-20.1z"/><path d="m332.5 868.9c21.4 0 27-18.4 27-30.6 0-11.7-5.3-30.6-27-30.5h-6.4v61.1zm-1.4 10.2h-15.9v-81.6h15.9c25 0 40.2 14.9 40.2 40.8s-15.2 40.7-40.2 40.8z"/><path id="d" d="m378.9 879.1v-61.5c0-15.3 10.7-20.1 22.7-20.1h23.7l-3.3 10.3h-19.3c-8.6 0-12.8 3.6-12.8 10.7v13.4h26.9l-3.3 10.2h-23.6v26.8h35.4l-3.3 10.2z"/><path d="m476.9 868.9v-24.5h-11.9v-10.3h22.9v45h-18c-25 0-40.2-14.9-40.2-40.8s15.2-40.8 40.2-40.8h13.5v10.3h-14.8c-21.3 0-27.1 18.1-27.1 30.5 0 11.4 5.1 30.7 27.1 30.6z"/><use transform="translate(381.2)" xlink:href="#b"/><use transform="translate(188.2)" xlink:href="#d"/><use transform="translate(247.5)" xlink:href="#d"/><path d="m742.2 230.4 11-31.5h-66.6c-34.4 0-68.2 15.1-68.2 59.8v1.3c9.4 19.8 14.8 41.9 14.8 65.6s-5.4 45.8-14.8 65.6v59.2h33.7v-107.4h50.6l10.9-31.5h-61.5v-48.3c0-22.1 13.3-32.8 39.6-32.8z"/><use transform="translate(654.7)" xlink:href="#a"/><path d="m756.7 879.1h-11v-81.6h11z"/><path d="m769.6 797.5h51.3l-3.2 10.3h-17v71.3h-11v-71.3h-20.1z"/><path d="m880.4 797.5v59.6l-34.2-59.6h-12.6v81.6h11v-62.4l35.8 62.4h10.9v-81.6z"/><use transform="translate(525.2)" xlink:href="#d"/><use transform="translate(778)" xlink:href="#c"/><use transform="translate(837.5)" xlink:href="#c"/><path d="m53.9 911.3s.2.6.3 1c-.4.1-.6.2-.8.2-.9 0-1.8.3-1.8 1.4 0 1.2-.1 2.7 1.4 3.3 5.6 2.2 11.7 1.5 17.6 1.6-3.5 3.2-3.4 3.6-6.1 5.9-1.5 1.3-2.8 2.9-4.6 3.8-1.9.9-4.2.8-6.2 1.2-3.7.7-7.5 1.2-11.3 1.3-1.2 0-1.7.5-1.6 1.6 0 .3-.2.7-.4.9-1.6 1.1-1.9 2.3-.8 3.9 1.4 2 3.4 3.1 5.9 3.2.5 0 1 .4 1.5.6-.3.4-.5.9-.8 1.2-1.2 1.1-2.6 1.9-3.6 3.1-2.5 2.8-4.7 5.8-7.2 8.7-2.8 3.2-6.8 7.2-13.6 15-.7.8-1.2 1.7-1.8 2.5 1.2 0 2.6.9 3.8.6 1.7-.8 3.4-1.7 5.1-2.5.4-.2.9-.1 1.4-.2-.2.4-.2 1-.4 1.3-2.6 2.7-4.7 5.7-7 8.7.1.1.2.3.3.4.6-.4 1.3-.7 1.9-1.1 3.2-2.6 6.5-5.2 10-7.4 1.1-.7 2.4-1.3 3.3-2.1 3.2-2.8 9.4-9.6 13.4-13.4 11.1-10.7 12.8-11.1 15-13.5 2.7-2.9 5.8-4.2 9.7-4.5 16.1-1.4 32.3-2.6 48.4-3.9.9 0 1.9-1 2.5-1 4.1.5 6.7-1.8 9.6-4.6h-3v-1.3c-.8-.1-1.5-.2-2.2-.3 1.1-.6 2.2-1.1 3.2-1 1.3 0 2.3-.1 3.5-.5 2.4-.7 5.1-.6 7.7-.9 1.4-.2 2.9-.5 4.3-.8 0-.2-.1-.2-.1-.4-.2-.2-.5-.3-.8-.5.6-.2 1-.3 1.5-.5 0-.2 0-.3 0-.5-.4 0-.8 0-1.2 0-3 .2-5.9.4-8.9.4-4.4 0-6.6-.6-11.4-.3-12.4.5-24.7 2.1-37 3.3-1.5.2-3.1 0-4.9 0 .6-.7.5-.8 1-1.1 2.3-1.3 4.5-3 5.9-5.2 3.4-5.4 10.2-3.5 15.4-4.4 5.9-1 12.1-.7 18.1-1 2-.1 4.9-1 5.3-1 1.9-.2 3.9.6 5.6-1.1.2-.2.7-.2 1-.2 4.3-.3 8.5-.5 12.7-.9.9-.1 2-.2 2.5-.8 1.2-1.4 2.8-1.3 4.2-1.7.6-.2 1.5 0 1.2-.9-.1-.4-.9-.7-1.4-.9-.4-.2-.9-.2-1.3-.2 0-.2 0-.3 0-.4.5-.1.9-.3 1.4-.3h5.3c2.6-.2 3.2-.4 6.9-.1.6 0 2-.8 2.8-.9 1.7-.2 3.4-.4 5.2-.6.7-.1 1.3-.4 2-.5 2-.4 4.2.7 6-.8-.4-.1-.8-.3-1.1-.4 1.5-.3 3.2.1 4.8-1.1-2.7-.2-5.1-.3-7.5-.3-5.2 0-10.5-.1-15.7-.1-.6 0-1.2-.4-1.8-.6-.5-.2-1.1-.4-1.6-.4-.8 0-1.7.1-2.5.1-23.4 0-24.4 1.7-35.1 1-5.3-.4-10.7.1-15.9 1.2-11.4 2.4-32 4-48.6 6.4z"/><path d="m218.3 898.4c0-1.9-.7-3-2.2-3.6-2.8-1.1-5.5-.6-8 .7-3.1 1.6-6.3 3.2-9.2 5.2-4.2 2.9-17.2 12.8-25 19.1-8.2 6.5-16.1 13.5-24 20.3-1.9 1.6-3.8 3.4-5.5 5.2-4.5 4.9-8.8 9.9-13.1 14.9-1.9 2.2-3.3 4.7-4.2 7.5-.4 1.1.2 1.3 1 1.2.5 0 .9-.5 1.4-.7 2.5-1.3 4.8-2.8 7.2-4.3.4-.2.8-.6 1.2-.9 1.4-1 2.1-3 4.3-2.9.2 0 .5-.3.5-.4 0-1 .7-.8 1.3-1.1 3.9-1.3 6.8-4.3 9.8-7 3-2.6 6.4-4.6 9.6-6.7.6-.4 1-1 1.5-1.4 2.8-2.2 5.6-4.3 8.4-6.5 6.6-5.5 13.4-10.8 20.1-16.2 3.1-2.5 6.6-4.5 9.1-7.7.2-.3.8-.6 1.2-.5 1.5.2 2.2-1.1 3-1.9.2-.2.3-.5.5-.6 8.6-6.8 9-6.7 10.4-7.8 1-.8 1.6-1.6 1-2.9-.2-.3-.3-.9-.3-1z"/><path d="m240.1 949.1c.6-.7 1.1-1.7 1.9-2.3 3.2-2.5 6.5-4.9 9.3-7.9 1.4-1.5 3.9-1.9 4.6-4.1 0-.1.4-.2.7-.2 2.3-.2 3.8-1.8 5.2-3.4.8-.8.8-1.9.1-2.9-1.3-2-3.2-2.4-5.4-2.5s-4.6-.3-6.8-.3c-.7 0-1.6.1-2.2.5-2.2 1.5-4.3 2.9-6.8 3.7-15.2 5.3-30.4 10.9-45.7 16-.4.1-.9 0-1.6 0 .6-.5.8-.7 1.1-.9 2-1.4 3.9-2.8 5.9-4.2 1.3-.9 2.2-2.4 3.9-2.8.2 0 .3-.4.5-.6.4-.6.8-1.2 1.3-1.7 1.6-1.6 3.2-2.9 4.7-4.5 1.2-1.2.9-3-.5-3.8-.5-.3-1.2-.5-1.6-.9-.9-.7-3.3-1.3-4.1-.6-1.4 1.3-2.9 1.1-4.5.7-.7-.2-1.6-.2-2.2.2-8.9 5.6-17.3 12.1-25.3 19-2.1 1.8-4 3.9-5.9 6.1-1.3 1.5-1.6 2.8 0 4.7 1.9 2.3 4 3.5 6.9 3 2.5-.4 14.5-4 18.7-5.4 5.1-1.7 10.1-3.9 15.1-5.8 6.2-2.4 12.4-4.7 18.6-7 .5-.2 1-.2 1.9-.3-.4.7-.6 1-.8 1.3-2.2 2.6-4.3 4-6.1 8-.7 1.6-2.2 2.7-3.5 3.9-1.4 1.2-1.7 2.9-.7 4.4.8 1.2 1.8 2.4 2.9 3.3 1.2 1 2.7.5 4.1.2.8-.2 1.4-.5 1.4-1.5 0-.2.7-.6 1.1-.7 3.5-.9 6.9-1.5 10.4-2.4 6.7-1.7 12.3-4.4 20.5-7 1.9-.6 3.6-1.3 5.4-2.1 2.1-.9 4.6-1.4 6.4-2.7 1.5-1.1 3.4-1.1 4.9-2.1.4-.3 1.2.1 1.8.2-.2.6-.2 1.2-.6 1.6-4.5 4.5-8.4 9.6-12.5 14.5-1.1 1.4-1.1 2 .5 2.8.3.2.6.4 1 .6-.5 1.1.2 1.3 1 1.4.6 0 1.1-.2 1.7-.3.7-.2 1.5-.8 2.2.1.1.1.5 0 .8-.2 2.3-1.2 4.3-2.7 6.3-4.3.1-.1.1-.4.2-.6.4-.5.7-1 1.2-1.3 1.5-.9 3.2-1.8 4.6-2.8 1.8-1.2 3.3-2.8 5-4.1 3.9-2.9 7.5-5.9 11.3-8.8.9-.7 2-1 2.9-1.7 1.8-1.5 4.4-2.1 5.5-4.4 0-.2.3-.2.5-.3.8-.6 1.8-1.1 2.4-1.9.4-.6.7-1.7.4-2.4-.7-1.6-2.3-2.8-3.9-2.9-2.8-.2-5.7-.2-8.3.6-5.5 1.6-8.3 3.9-16.9 6.6-13 3.6-26 8.1-38.4 12.9-.7.2-1.3.5-2 .7"/><path d="m337.3 907.6c-.7-.5-1.2-.7-1.2-.7.2-.9.2-1.6.4-2.3-.7-.1-1.4-.3-2.1-.2-.6 0-1.2.4-1.9.6-.6.1-1.7-.4-2-.4-1 .2-2 .6-3 .8-5.1 1-10.1 2.1-14.7 4.7-1.4.8-2.1 3.1-1.3 4 0 .8-.4 1.6-.2 2 1.5 3 6.8 4.7 9.3 2.6 2.6-2.1 6-2.4 8.7-4.2 1.1-.8 2.3-1.3 3.8-2.1-.8-.4-1.2-.5-1.7-.7.5-.3.8-.5 1.2-.7-.3-.3-.5-.5-.7-.7"/><path d="m319.3 951.9c4.5-1.7 9.1-3.5 13.6-5.2 3.6-1.4 7.2-2.9 10.8-4.3 2.6-1 5.1-2.1 7.7-3.2 1.9-.8 1.2-2 .6-3.2-.2-.6-.4-1.6-.8-1.7-1.5 0-3.1.5-4.7.9-1.7.5-3.5 1-5.2 1.6-1.3.4-2.4 1-3.7 1.5-.6.2-1.4.2-1.8.6-1.4 1.4-2.9 2.4-5 2.6-.2 0-.2.3-.4.4-.7.5-1.4 1.1-2.1 1.3-1.9.5-3.9.6-5.3 2.2-.7.7-1.6 1.1-2.5 1.7-2.2 1.4-4.6 2.9-6.8 4.4-1.4.9-3 1.7-3.5 4 0 0 3.1-1 4.5-1.6s3-1.4 4.6-2zm24 5.6c.7-.5 1.9-.4 1.6-2.1-.1-.7 1.4-1.6 2.1-2.5 1.7-2.3 3.4-4.7 5.1-7.1.2-.3.2-.8.2-1.2-.4 0-.8-.1-1.1 0-.6.2-1.2.3-1.6.8-1.8 1.9-4.1 2.7-6.6 2.8-1.4 0-2.5.4-3 2s-1.8 1-3 .7c-.8 1.1-1.7 2.1-3.3 1.6-.2 0-.5.1-.7.3-.6.5-1.2 1.1-1.8 1.4-3.1 1.2-6.1 2.7-9.3 3.5-3.3.9-6.3 2.4-9.5 3.6-3.3 1.2-6.9 1.2-10-1-1.8-1.3-2.5-3.8-1.5-5.8 1.6-3.1 4.4-5.1 6.9-7.3 3.7-3.2 8.2-5.4 12.5-7.8 2.5-1.4 5-2.8 7.5-4 3-1.4 6-2.5 9.1-3.8 1.2-.5 2.3-1.1 3.5-1.5 1.3-.5 2.6-.8 3.9-1.2.2-.1.6.1.8 0 2.3-1.6 5.3-1.1 7.8-2 .7-.2 1.5-.3 2.3-.3 1.2 0 2.4.3 3.6.1 2.8-.4 4.8 1 6.5 2.9s1.7 1.9 3.7.4c4.7-3 8.7-6.7 13-10.1 1.6-1.3 3.4-2.3 5.1-3.4 1.8-1.1 8.5-5.3 19.1-11.9 1.5-.9 3-1.8 4.5-2.7 2.1-1.3 5.6-1.1 7.1.5 1.2 1.3.9 3 1 4.6 0 .2-.3.4-.5.6-1.2 1.1-2.8 1.8-3.1 3.7 0 .3-1 .4-1.4.7-3.3 2.3-7 4.1-10 6.9-1.5 1.4-3.5 2.5-5.2 3.7-4 3.2-8.3 6-12.5 8.9-2.8 2-5.5 4-8.3 6.1-.2.2-.5.2-.7.3-1 .2-2.2.1-2 1.8 0 .2-.7.7-1.1.8-.9.3-1.9.4-2.1 1.6 0 .1 0 .2-.1.2-1.3.5-2.6 1-3.8 1.5-1.9.8-2 1.6-3 2.4-2 1.5-3.9 3.1-6.1 4.3-2.7 1.5-4.5 3.8-6.2 6.2-1.5 2.1-3.1.6-4.2 4.9-.2 1-.3 2-1.6 2.4-.3.1-.5.8-.6 1.2-.2 1.5-1.3 1.2-2.2 1s-1.7-.6-1.5-1.8c.3-1.8.6-3.7.9-5.5 0-.4-.1-.7-.2-1.2z"/><path id="e" d="m447 959.6c0 .7-.3 1.1-1.2 1.1h-3.4c-.8 0-1.1-.3-1.1-1.1v-49.4c0-.7.3-1.2 1.1-1.2h3.5c.9 0 1.1.4 1.1 1.2z"/><path id="f" d="m519.2 960.7c-.6 0-.9-.1-1.1-.5l-21.7-35.7c-1.8-2.9-2.8-4.8-2.9-5v40.1c0 .7-.3 1.1-1.1 1.1h-3.1c-.9 0-1.3-.3-1.3-1.1v-49.4c0-.7.4-1.2 1.3-1.2h3.1c.6 0 .8.2 1 .5l22.2 36.3c.7 1.1 2.5 4.6 2.5 4.6v-40.2c0-.7.3-1.1 1.1-1.1h3.2c.9 0 1.1.4 1.1 1.1v49.4c0 .7-.2 1.1-1.1 1.1z"/><use transform="translate(76.8)" xlink:href="#f"/><path id="g" d="m670 920.4c0-4.4-3.3-7.4-12-7.4-8.6 0-11.8 3-11.8 7.4v29c0 4.4 3.2 7.3 11.8 7.3 8.7 0 12-2.9 12-7.3zm-29.7-.8c0-6.1 4.2-11.1 17.7-11.1 13.6 0 17.8 5 17.8 11.1v30.7c0 6.1-4.2 11.1-17.8 11.1-13.5 0-17.7-5-17.7-11.1z"/><path d="m710.2 910.2c-.2-.7.1-1.2.9-1.2h3.7c.8 0 1.2.5 1.4 1.2l11.8 35.8c1 3.1 1.8 7.4 1.9 7.8.1-.4.9-4.7 1.9-7.8l11.9-35.8c.2-.7.5-1.2 1.3-1.2h3.5c.9 0 1.3.5 1 1.2l-16.4 49.4c-.2.7-.7 1.1-1.5 1.1h-3.6c-.9 0-1.3-.3-1.5-1.1z"/><path d="m796.9 924c-.8-2.4-1.8-8.5-2-9.3-.2.8-1.3 6.8-2.1 9.3l-6 17.8h16.1zm1.3-13.8 16.4 49.4c.2.7-.1 1.1-1 1.1h-3.5c-.8 0-1.3-.3-1.5-1.1l-4.5-13.5h-18.8l-4.4 13.5c-.2.7-.6 1.1-1.4 1.1h-3.3c-.8 0-1.2-.3-.9-1.1l16.4-49.4c.2-.7.6-1.2 1.5-1.2h3.6c.8 0 1.2.5 1.4 1.2"/><path d="m876.1 910.2v2.4c0 .8-.4 1.1-1.2 1.1h-14.1v45.9c0 .7-.4 1.1-1.2 1.1h-3.5c-.9 0-1.2-.3-1.2-1.1v-45.9h-14.2c-.9 0-1.2-.3-1.2-1.1v-2.4c0-.8.3-1.2 1.2-1.2h34.2c.8 0 1.2.4 1.2 1.2z"/><use transform="translate(470.1)" xlink:href="#e"/><use transform="translate(317)" xlink:href="#g"/><use transform="translate(545.1)" xlink:href="#f"/></g></g></svg>