<svg viewBox="0 0 589 100" xmlns="http://www.w3.org/2000/svg" xmlns:xlink="http://www.w3.org/1999/xlink"><g id="figure"><g transform="scale(.1)"><path d="m500 20c-127.3 0-249.4 50.6-339.4 140.6s-140.6 212.1-140.6 339.4 50.6 249.4 140.6 339.4 212.1 140.6 339.4 140.6 249.4-50.6 339.4-140.6 140.6-212.1 140.6-339.4-50.6-249.4-140.6-339.4-212.1-140.6-339.4-140.6zm0 40c116.7 0 228.6 46.4 311.1 128.9s128.9 194.4 128.9 311.1-46.4 228.6-128.9 311.1-194.4 128.9-311.1 128.9-228.6-46.4-311.1-128.9-128.9-194.4-128.9-311.1 46.4-228.6 128.9-311.1 194.4-128.9 311.1-128.9z"/><path d="m293 297h117c109.7 0 194 60.1 194 195 0 66.4-20.5 198-194 198h-107l17-52h90c91.4 0 136-61.5 136-146 0-66.3-32.1-144-136-144h-121c-36.1 0-63 9.9-63 55v69h96l-18 51h-78v167h-54v-290c0-75 42.2-103 121-103z"/><path id="a" d="m1177.5 487h100.5l-15 49h-85.5v160h-52v-287.3c0-66.8 54.2-90.2 101-90.2h75l-15 49h-51.2c-39.6 0-57.8 17.5-57.8 50.5"/><path id="b" d="m1410.5 696h-52v-377.5h52z"/><path id="c" d="m1469 696v-245.3c0-87 45.3-137.7 124-137.7 79 0 124 40.3 124 111.5 0 53.8-29.3 76.1-71 89.5v2c51.2 19.8 67.9 49.3 67.9 139.5l.1 40.5h-51v-69c0-45.7-26.9-86-90-86h-30v-48.5h32c42.6 0 91-12.5 91-71 0-34.9-25.3-60.5-71-60.5-57.7 0-74.5 35.4-74.5 89.5v245.5z"/><path id="d" d="m1970 367h-96c-36.2 0-55 15.6-55 43 0 30.9 31.8 48.4 67.5 62.5 59.6 23.5 105.5 41.3 105.5 116.5 0 23.6-11.2 107-134 107h-87v-48h84c42.6 0 82-17.2 82-60 0-42.9-45.4-54.8-89.5-73.5-42.1-17.9-82.5-41.7-82.5-105.5 0-80.5 70.1-90 106.5-90h98.5z"/><path id="e" d="m2011 319h238l-15 48h-78v329h-52v-329h-93z"/><path d="m2462 648c95.8 0 121.5-86.9 121.5-141.1 0-52.5-24.6-139.9-121.5-139.9h-32v281zm-6 48h-77v-377h77c116.8 0 183 73.5 183 188s-66.2 188.9-183 189z"/><path id="f" d="m2672 696v-279c0-88.2 60.6-98 117-98h99l-16 49h-90c-39.6 0-58 16-58 49v60h124.5l-15 48h-109.5v123h164l-16 48z"/><path d="m3125 648v-112h-56v-49h107v209h-83c-120.5 0-186-73-186-188.5 0-119.8 70.5-188.5 186-188.5h62v49h-68.5c-119.2 0-124.5 118.8-124.5 139.5 0 24.1 10.3 140.5 124.5 140.5z"/><use transform="translate(1766)" xlink:href="#c"/><use transform="translate(869)" xlink:href="#f"/><use transform="translate(1141)" xlink:href="#f"/><path d="m735 297c-74.3 0-116 24.8-120.5 90.5 14.5 27.9 22.5 62.6 22.5 104.5 0 29.1-3.9 70.8-23 108.4v89.6h54v-167h78l18-51h-96v-69c0-45.1 26.9-55 63-55h77l16-51z"/><use transform="translate(3036)" xlink:href="#a"/><use transform="translate(3015)" xlink:href="#b"/><use transform="translate(2471)" xlink:href="#e"/><path d="m4993 319v274l-157-274h-59v377h51v-288l164.9 287.9.1.1h51v-377z"/><use transform="translate(2432)" xlink:href="#f"/><use transform="translate(3604)" xlink:href="#d"/><use transform="translate(3878)" xlink:href="#d"/></g></g></svg>