<svg viewBox="0 0 757 100" xmlns="http://www.w3.org/2000/svg" xmlns:xlink="http://www.w3.org/1999/xlink"><g id="figure"><g transform="scale(.1)"><path d="m4163 138.6c88.7 145.9 132.5 311.9 132.5 441.9 0 85.7-22.4 213.9-128 306-40.3 35.2-128.9 93.5-277 93.5-53.9 0-158.9.5-367-101-34.8-17-71.8-34.8-103.5-56-1.9-1.3-3.3-4.8-1-6.5l113.5-88c5.7-4.4 10.1-3.2 17 0 25.6 11.8 50 25 76 36 59.6 25.1 123.9 43 188.5 47 76.6 4.7 152.4-14.4 212.5-64 72.1-59.5 99-133.2 98.5-210.5-.6-89.8-37.8-184.3-86-268-6.5-11.2-6.2-15.7-1-21.5l104-117c8.1-9.1 16.1 0 21 8.1z"/><path d="m102.5 373h461.5l-18 116h-331.5l-15.1 96h277.6l-18 115h-277.5l-31.1 196h-130.4z"/><path d="m765.7 373-64.7 407.5h308.8l-17.8 115.5h-439.7l82.7-523z"/><path d="m1127.2 373h126.7l-50.4 316c-9.2 57.6-11.3 102.3 105.6 102.3 106.4 0 129.3-33.6 140.2-102.3l50.2-316h123.5l-48.8 308.8c-27.6 174.8-72.6 220.8-266.9 220.8-234.9 0-253.9-60.1-227.2-230.1z"/><path d="m1854.2 373-81.8 523h-128.4l82-523z"/><path d="m1965.2 373-83.2 523h187.5c154.6 0 255.2-.7 320-86.5 50.9-67.5 65.1-172.4 66.5-255.5-.1-85-17.1-181-240-181zm207.8 114c85.2 0 148.6 9 148.6 74 0 42.3-4.5 85-16.6 125.5-20.4 68.4-58.5 94-152.5 94h-116.7l46.4-293.5z"/><path d="m4083.5 22.5c11.9 15.1 24.2 33.1 34.5 49.5 3 4.8 3.1 6.1-.5 10.5-33.1 39.9-65.4 75.3-99 112-150.3 164.4-475.2 500.4-776 678-170.2 100.5-269.7 107.5-318 107.5-168.9 0-292-114.5-292-254 0-152.4 150.7-267 318.5-266 153.3.9 308.9 88.9 390.5 142 14.9 9.7 17.5 11.5.5 25-31 24.7-65 48.6-100 71-13.1 8.4-16.3 8.5-31-1-79.2-51.3-159.1-106.5-254.5-112-95.1-5.5-182.8 53.4-182 145.5.4 42.2 28.2 131.4 144.5 139.5 73 5.1 171.7-21.2 304.5-99.5 246.6-145.3 555-448.1 793.5-687 18.5-18.5 41.7-43.1 60.5-61 1.5-1.4 3.8-2.9 6 0z"/><path id="a" d="m4528 385-81 511h129l28-179h113l109 179h150l-111.5-185c75.4-18.7 106.7-48.3 128.6-127.9 9.8-35.7 9.9-72.4 9.9-84.1.1-109.4-75-126-208-126h-251c-9.9 0-14.6 3.1-16 12zm267.5 220.5h-174l19.5-119h167.5c54.5 0 66.3 17.6 63 54-2.9 31.7-18.3 65-76 65z"/><path d="m5136 437.5c-83.2 86.7-85 259.6-85 274 .2 124.6 54.8 193.1 252.5 193 104.2-.1 169.5-10.8 235.5-66 84.5-70.7 92-274.4 92-283.5-.4-151-94.7-189.6-244.5-189.5-77.5.1-183.3 1.9-250.5 72zm234 40c105.5 0 127 35.6 127 84 0 8.4-.6 116.3-38 175-19.9 31.2-54.7 55.5-137.5 55.5-143.4 0-136.5-64-136.5-103.5 0-24.7 5.6-108.6 40.5-159.5 30.8-44.9 94.5-51.5 144.5-51.5z"/><path d="m5714 373h106l42 332.5 148-321.5c2.5-5.4 6.9-10 12-10h109.5l48.5 333 148.5-334h131.5l-240.5 523h-126.5l-46.5-331.5-154.5 331.5h-128l-72-499c-3.4-23.3.3-24 22-24z"/><path d="m6510.7 373-82.7 523h472l17.8-115.5h-341.1l15-94.5h281.3l19-111h-282.7l13.7-86.5h337l17.8-115.5z"/><use transform="translate(2547)" xlink:href="#a"/></g></g></svg>