<svg viewBox="0 0 674 100" xmlns="http://www.w3.org/2000/svg"><g id="figure"><path d="m672 87.5c0 5.8-4.7 10.5-10.5 10.5s-10.6-4.7-10.6-10.5 4.8-10.6 10.6-10.6 10.5 4.8 10.5 10.6zm-1.8 0c0-5-3.9-9-8.7-9s-8.7 3.9-8.7 9 3.8 8.9 8.7 8.9c4.8 0 8.7-3.9 8.7-8.9zm-8-6.2c2.8 0 4.2 1.1 4.2 3.4 0 2-1.3 3.4-3.2 3.4l3.4 5.4h-2.1l-3.4-5.4h-1.7v5.4h-2v-12.2zm-2.8 5.3h2.4c1.5 0 2.6-.3 2.6-1.9 0-1.4-1.3-1.8-2.6-1.8h-2.4z"/><path d="m2 50c0 45.1 46.1 47.3 55.4 47.3 30.6 0 43.5-8.4 44.1-8.7 1.9-1.1 4.2-3.2 4.2-7.3v-31.2c0-2.9-2.3-5.2-5.2-5.2h-38.4c-2.9 0-4.8 2.3-4.8 5.2v3.3c0 2.9 1.9 5.2 4.8 5.2h22.2c2.2 0 3.9 1.7 3.9 3.9v14.5c-4.4 1.8-24.4 7.6-40.5 3.8-23.3-5.6-25.2-24.8-25.2-30.6 0-4.8 1.5-29 30.1-31.5 23.2-2 38.1 7.2 38.7 7.5 2.8 1.4 5.6.4 7-2.5l2.9-5.9c1.2-2.4.8-5.1-2.1-6.9-.9-.6-16.5-8.9-41.7-8.9-40.4 0-55.4 25.6-55.4 48z"/><path d="m176.9 7.9c-1.1-2.2-4.1-4.1-6.6-4.1h-5.1c-2.5 0-5.4 1.8-6.5 4.1l-40.4 84.4c-1.1 2.3.1 3.8 2.6 3.8h9.3c3.7 0 5.4-1.6 6.4-3.7s3.2-6.5 3.6-7.4c.6-1.2 2.4-2 4.9-2h43.4c2.5 0 4.2.5 4.9 2 .5 1 2.7 5.2 3.8 7.4s2.9 3.7 6.5 3.7h13.6c2.5 0 3.6-1.8 2.7-3.6zm-25.6 62.1c-2.5 0-3.6-1.9-2.6-4.2l15.9-34.1c1.1-2.3 2.8-2.3 3.8 0l15.5 34.1c1 2.3-.1 4.2-2.6 4.2z"/><path d="m304.1 61c-1.5-2-.6-4.4 1.8-5.1 13.2-3.9 21-10.1 21-24.7 0-27.2-27.1-27.4-41.9-27.4h-45.8c-2.5 0-4.6 2-4.6 4.5v83.7c0 2.5 2.1 4.1 4.6 4.1h10.8c2.5 0 4.6-1.6 4.6-4.1v-33.3l20.6-.1c2.5 0 5.7 1.8 7.2 3.8l21.4 30c1.9 2.7 3.8 3.7 6.3 3.7h14.2c2.5 0 3-2.4 2.1-3.6zm-23.6-16.1h-21.3c-2.5 0-4.6-2-4.6-4.5v-17c0-2.5 2.1-4.5 4.6-4.5h21.3c9.8 0 26.2-.3 26.2 13 0 13.5-16.5 13-26.2 13z"/><path d="m406.3 56c-1.2 2.2-3.2 2.2-4.4 0l-26.2-48.2c-1.2-2.2-3.4-4-6.6-4h-14.2c-2.5 0-4.6 2-4.6 4.5v83.6c0 2.5 1.7 4.2 4.6 4.2h8.8c2.5 0 4.4-1.6 4.4-4v-60.8l32.8 60.8c1.2 2.2 4 2.2 5.2 0l33-60.6v60.6c0 2.4 2 4 4.5 4h10.2c2.5 0 4.6-1.2 4.6-4.5v-83.3c0-2.5-2.1-4.5-4.6-4.5h-13.6c-3.5 0-5.6 1.7-6.8 3.9z"/><path d="m489.4 8.3v83.9c0 2.3 2 3.9 4.5 3.9h11.1c2.5 0 4.5-1.6 4.5-4.1v-83.7c0-2.5-1.6-4.5-4.1-4.5h-11.5c-2.8 0-4.5 1.9-4.5 4.5z"/><path d="m625 3.8c-2.9 0-4.5 1.8-4.5 4.5v53.1c0 2.5-1.4 3.1-3.1 1.3l-53.6-55.6c-1.7-1.8-4.3-3.3-7.7-3.3h-10.1c-3.2 0-4.6 1.6-4.6 3.3v85.7c0 1.7 1.7 3.3 4.2 3.3h10.1c2.5 0 4.3-1.3 4.3-3.6v-56.4c0-2.5 1.4-3.1 3.1-1.3l55.9 58.1c1.7 1.8 4 3.2 7.8 3.2h7.6c2.5 0 4.5-2 4.5-4.5v-83.3c0-2.5-2-4.5-4.5-4.5z"/></g></svg>