<svg viewBox="0 0 358 100" xmlns="http://www.w3.org/2000/svg"><g id="figure" fill="#fff"><g transform="scale(.2)"><path d="m270.3 349.8h-101.6c-7.6 0-12.6 6.2-12.6 13.8v8.5c0 7.6 5 13.8 12.6 13.8h58.8c5.7 0 10.3 4.6 10.3 10.3v38.4c-11.6 4.7-64.5 20.3-107 10.1-61.7-14.7-66.4-65.6-66.4-80.8 0-12.8 3.9-76.8 79.5-83.3 61.3-5.2 98.8 18.1 102 19.8 7.1 3.8 14.8 1.2 18.7-6.6l7.7-15.5c3.1-6.3 2.2-13.1-5.6-18.2-3.2-2.1-43.5-23.5-110.1-23.6-142.5-.1-146.6 113.4-146.6 126.4 0 119.2 121.9 125.2 146.4 125.2 80.9 0 115.1-22 116.5-22.8 5.1-2.9 11.2-8.6 11.2-19.4v-82.2c0-7.6-7.3-13.9-13.8-13.9z"/><path d="m471.9 251.8c-3-5.9-10.8-10.8-17.4-10.8h-13.5c-6.6 0-14.3 4.9-17.2 10.9l-106.8 223c-2.9 6 .3 10.1 6.9 10.1h24.7c9.7 0 14.2-4.4 16.9-9.9l9.6-19.6c1.6-3.2 6.2-5.3 12.8-5.3h114.9c6.6 0 10.7 1.4 12.8 5.3l10 19c3 5.7 7.8 10.6 17.3 10.6h35.8c6.6 0 9.5-5 7.1-9.7zm11.6 164.2h-79.1c-6.6 0-9.8-5-7-11l42.1-90.1c2.8-6 7.4-6 10.1 0l40.9 90.1c2.7 6-1.3 11-7 11z"/><path d="m812.7 378.8c36.5-10.3 55-27 55.4-65.2.7-71.3-70.5-72.6-110.5-72.6h-121.2c-6.6 0-12 5.4-12 12v221.1c0 6.6 5.4 10.9 12 10.9h28.7c6.6 0 12-4.2 12-10.9l.1-88 54.4-.2c6.6 0 15.1 4.4 19 9.9l56.4 79.4c5.1 7.2 10.2 9.8 16.9 9.8h37.5c6.6 0 7.7-6.2 5.4-9.5l-58.6-83.5c-3.8-5.4-2.1-11.3 4.5-13.2zm-67.2-29h-56.2c-6.6 0-12-5.4-12-12v-44.8c0-6.6 5.4-12 12-12h56.2c25.9 0 69.2-.7 69.5 34.5.3 34.1-39.9 34.3-69.5 34.3z"/><path d="m1203.3 241h-36c-9.2 0-14.8 4.7-18 10.4l-71.6 127.5c-3.2 5.8-8.5 5.8-11.7 0l-69.2-127.2c-3.1-5.8-9-10.8-17.4-10.8h-37.6c-6.6 0-12 5.4-12 12v220.9c0 6.6 4.3 11.1 12 11.1h23.3c6.6 0 11.4-4.2 11.4-10.6 0-3.1.4-160.7.4-160.7s84.2 156.5 86.4 160.6c3.1 5.8 10.8 5.9 14 0 2.2-4.1 87.1-160.2 87.1-160.2s.2 155.6.2 160.2c0 6.4 5.1 10.6 11.7 10.6h26.9c6.6 0 12-3.3 12-12v-219.8c0-6.6-5.4-12-11.9-12z"/><path d="m1339.6 241h-30.3c-6.6 0-12 4.1-12 12.5v221.3c0 6.1 5.4 10.2 12 10.2h29.2c6.6 0 12-4.2 12-10.9v-221.1c0-6.6-4.3-12-10.9-12z"/><path d="m1680.1 241h-24.6c-6.6 0-12 4.4-12 10.7v141.5c0 6.6-3.7 8.1-8.2 3.4l-141.7-146.9c-4.6-4.8-11.3-8.6-20.4-8.6h-26.6c-8.4 0-12 4.5-12 9v226.2c0 4.5 4.3 8.8 10.9 8.8h26.7c6.6 0 11.3-3.6 11.3-9.7v-149c0-6.6 3.8-8.1 8.4-3.3l147.7 153.5c4.6 4.8 10.4 8.5 20.5 8.5h20.1c6.6 0 12-5.4 12-12v-220c0-6.6-5.2-12.1-12.1-12.1z"/><path d="m1642 180c10.5 0 16-9 16-16 0-2.7-.8-5.4-2.2-7.9l-79.7-138.1c-3-5.1-8-8-13.8-8-5.9 0-10.9 2.9-13.8 8l-79.8 138.2c-1.5 2.5-2.2 5.1-2.2 7.8 0 7.4 5.7 16 16 16z"/><path d="m1724.3 462.1c0 15.4 12.5 27.9 27.9 27.9s27.8-12.5 27.8-27.9-12.5-27.9-27.8-27.9-27.9 12.5-27.9 27.9zm4.8 0c0-13.3 10.1-23.7 23.1-23.7s23.1 10.3 23.1 23.7-10.3 23.6-23.1 23.6c-13 0-23.1-10.3-23.1-23.6zm36.1-7.2c0-6.2-3.7-9.2-11.2-9.2h-12.5v32.6h5.3v-14.4h4.5l9.1 14.4h5.6l-9.2-14.4c5.1 0 8.4-3.8 8.4-9zm-18.4 4.9v-9.9h6.4c3.4 0 6.7 1.1 6.7 4.8 0 4.2-2.6 5.1-6.7 5.1z"/></g></g></svg>