<svg viewBox="0 0 242 100" xmlns="http://www.w3.org/2000/svg" xmlns:xlink="http://www.w3.org/1999/xlink"><g id="figure" fill="#fff"><path d="m4.9 2-2.9 15.2h17.7l-10.2 53.7h21.5l10.2-53.7h17.8l2.9-15.2z"/><path d="m80.7 18.4c-15.1 0-27.4 12.4-29.7 27s6.2 27.2 21.3 27.2c5.9 0 12.5-2.3 16.5-7.3l.2-.1-.9 5.7h18l8.1-50.8h-18l-.8 4.9c-3.1-4.5-8.9-6.6-14.7-6.6zm2.3 15.7c7.3 0 10.7 5.2 9.7 11.4-1 6.4-6.1 11.4-13.4 11.4s-10.7-5-9.7-11.4c1-6.2 6.1-11.4 13.4-11.4z"/><path d="m156.3 70.1 2.5-14.8c-19.1 5.7-23.5-2.5-23.3-9.4.2-6.7 9.2-17.4 26.4-9.2.1.1 2.4-14.2 2.4-14.2-19.6-10.8-42-1.3-47.1 21.7-3.1 14 7.6 36.8 39.1 25.9z"/><path d="m237.7 20.2h-23.2l-10.8 10.5-7.4-10.5h-22.8l16.9 23.2-29.7 27.5h23.6l15.5-15 10.6 15h23.6l-20.9-27.5z"/><path d="m237 67.1v2.5h.4v-1h.5c.2 0 .4.1.4.3v.3c0 .2.1.3.1.4h.4s-.1-.2-.1-.4v-.2c0-.1.1-.4-.3-.6.3-.1.4-.4.4-.6 0-.6-.5-.7-1-.7zm.4.4h.4c.3 0 .5 0 .5.3s-.2.4-.4.4h-.5z"/><path d="m237.9 66.1c-1.2 0-2.2 1.1-2.2 2.3 0 1.4 1.1 2.2 2.2 2.2s2.1-.8 2.1-2.2c0-1.8-1.5-2.3-2.1-2.3zm0 .4c1.1 0 1.7.9 1.7 1.9 0 1.6-1.2 1.9-1.7 1.9-1 0-1.8-.8-1.8-1.9 0-1 .7-1.9 1.8-1.9z"/><path d="m96.2 82.5-4.5 11.9h2.1l1.1-2.8h4.5l1 2.8h2.2l-4.6-11.9zm.9 2.5 1.7 5h-3.4z"/><path d="m115.2 89.8v2.4c-.5.5-1.2.7-2.3.7-2.8 0-3.1-3-3.1-4.1v-.8c0-1.3.3-4 2.9-4 1.4 0 2.3.7 2.5 2.1h2c-.2-1.6-1.2-3.8-4.6-3.8s-4.9 2.5-4.9 5.7v1c0 3.8 2.5 5.5 5.1 5.5 1.6 0 3.3-.4 4.4-1.7v-4.5h-4.5v1.5z"/><path id="a" d="m122.9 85.4c-1.8 0-3.7 1-3.7 2.7h2c0-.7.5-1.2 1.5-1.2 1.3 0 1.6.9 1.6 1.5v.6h-1.2c-1.3 0-2.3.2-3 .7s-1.1 1.2-1.1 2.2c0 1.4 1.2 2.7 3 2.7.9 0 1.8-.3 2.4-1 .1.4.1.6.2.8h2v-.1c-.2-.5-.3-1.1-.3-1.9v-4s.2-3-3.4-3zm1.4 4.8v1.8c-.1.1-.8.9-1.9.9-.9 0-1.4-.6-1.4-1.2 0-1.3 1.5-1.4 1.6-1.4h1.6z"/><path d="m130.3 86.5v-1h-1.9v8.9h2v-6c.3-.7.9-1.1 1.8-1.1.3 0 .5.1.8.1v-1.9c-.2-.1-.4-.1-.7-.1-.9 0-1.4.4-2 1.1z"/><path id="b" d="m141.2 86.7c-.4-.9-1.2-1.3-2.4-1.3-1.1 0-2 .3-2.6 1v-.9h-1.9v8.9h2v-6.4c.3-.6.9-1 1.7-1 1 0 1.6.5 1.6 1.5v5.9h1.9v-6.1c.1-.5.8-1.3 1.8-1.3 1.1 0 1.6.6 1.6 1.6v5.8h2v-5.8c0-1.6-.6-3.2-3.1-3.2-1.1 0-2 .4-2.6 1.3z"/><path d="m148.9 83.2c0 .2.1 1.1 1.1 1.1 1.1 0 1.1-1 1.1-1.1 0-.3 0-1.1-1.1-1.1-1 0-1.1.9-1.1 1.1zm.1 2.3v8.9h2v-8.9z"/><path id="c" d="m155.1 86.5-.1-1h-1.9v8.9h2v-6.3c.4-.7 1-1 1.8-1 1.2 0 1.5.6 1.6 1.6v5.7h2v-5.9c-.1-2.1-1.4-3.1-2.9-3.1s-1.8.3-2.5 1.1z"/><path d="m171.4 84c1.2 0 2.3.4 2.5 2.4l2-.1c-.2-2.1-1.5-4-4.6-4s-4.9 2.5-4.9 5.7v1.1c.1 3.8 2.3 5.4 4.9 5.4 3 0 4.4-1.7 4.6-4h-2c-.2 1.5-.8 2.4-2.6 2.4-2.3 0-2.7-2.3-2.7-4v-1c0-1.7.5-3.9 2.8-3.9z"/><path d="m181.4 85.4c-1.1 0-4.2.4-4.2 4.8 0 2.1 1.4 4.3 4.2 4.3 2.6 0 4.1-1.8 4.1-4.4 0-1.4-.5-4.7-4.1-4.7zm0 1.6c1.6 0 2.1 1.5 2.1 2.9 0 1.3-.4 3-2.1 3-1.1 0-2.2-.7-2.2-2.8 0-1.3.4-3.1 2.2-3.1z"/><use transform="translate(52.9)" xlink:href="#b"/><path d="m203.7 86.4-.1-.9h-1.9v12.3h2v-4.2c.6.6 1.4.9 2.4.9 2.1 0 3.4-1.7 3.4-4.6s-1.3-4.5-3.4-4.5c-1 0-1.8.3-2.4 1zm1.8.6c1.7 0 2 1.7 2 2.9 0 .6 0 3.1-2 3.1-.8 0-1.4-.4-1.8-1.1v-3.9c.3-.7 1-1 1.8-1z"/><use transform="translate(91.9)" xlink:href="#a"/><use transform="translate(67.1)" xlink:href="#c"/><path d="m232.7 91.5-1.9-6h-2.1l3.1 8.9-.3.7c-.2.4-.3.8-.6 1-.5.3-1 .2-1.5.2v1.5c.3.1.6.2.9.2 1.3 0 2.2-.7 2.8-2.2l3.5-10.2h-2.1z"/></g></svg>