<svg viewBox="0 0 135 100" xmlns="http://www.w3.org/2000/svg" xmlns:xlink="http://www.w3.org/1999/xlink"><g id="figure" transform="scale(.1)"><path d="m898.2 222.8c65.6 0 118.8 53.1 118.8 118.7s-53.2 118.8-118.8 118.8-118.7-53.2-118.7-118.8 53.1-118.7 118.7-118.7z"/><path d="m1331 20h-875c-37 0-72.6 6.3-105.8 17.8h442.3c-11.5 4-22.8 8.7-33.6 13.9h-120.9c-7.9 3.8-15.6 7.9-23.2 12.3h-148.3c-6.6 3.9-13.2 8.1-19.5 12.4h-172.9c-6.8 4.7-13.5 9.5-19.9 14.7l442.2.1c-5.5 4.4-10.9 9.1-16.1 13.9h-120.9c-4.3 4-8.6 8.1-12.7 12.3l-148.3.1c-3.9 4-7.7 8.1-11.4 12.3h-173c-4.2 4.8-8.3 9.7-12.2 14.8h442.2c-3.5 4.5-6.9 9.2-10.1 13.9h-121c-2.8 4.1-5.5 8.2-8.1 12.4h-148.4c-2.6 4.1-5 8.1-7.4 12.3h-172.9c-2.8 4.9-5.4 9.9-7.9 14.9h442.2c-2.3 4.6-4.4 9.1-6.5 13.8h-120.9c-1.8 4.1-3.5 8.2-5.1 12.4h-148.4c-1.6 4.1-3.2 8.2-4.6 12.4h-172.9c-1.7 4.9-3.3 9.8-4.7 14.8h442.2c-1.3 4.6-2.6 9.1-3.7 13.8h-120.9c-1 4.1-2 8.2-2.8 12.4h-148.3c-.8 4.1-1.6 8.2-2.3 12.4h-172.9c-.8 4.9-1.5 9.8-2.1 14.8h442.3c-.5 4.6-.7 9.3-1 13.9h-121.2c-.3 4.1-.5 8.2-.6 12.3h-148.4c-.1 3.5-.2 6.9-.2 10.4l.1 2h-173c0 5 .1 10 .4 14.9h442.2c.3 4.6.6 9.2 1 13.8h-120.9c.4 4.1.9 8.3 1.4 12.4h-148.3c.5 4.1 1.2 8.2 1.9 12.3h-173c.9 5 1.9 10 3 14.9h442.2c1 4.7 2.2 9.2 3.4 13.8h-120.9c1.1 4.2 2.3 8.3 3.6 12.4h-148.3c1.3 4.2 2.6 8.3 4.1 12.4h-172.9c1.8 5 3.7 9.9 5.7 14.8h657.1c-40-26.6-66.4-72.1-66.4-123.7 0-82 66.4-148.4 148.4-148.4h308.3z"/><path d="m296.3 527h-173.1l-13.3 17.3h448.6l-10 17.4h-123.8l-7.1 12.3h-148.5l-7.1 12.4h-183.9l-13.1 17.3h459.3l-10 17.3h-123.6l-7.2 12.4h-148.4l-7.1 12.4h-194.9l-13.1 17.3h878.3c177.6 0 321.5-144 321.5-321.6 0-43.8-8.8-85.5-24.7-123.6h-214.8c40 26.6 66.3 72 66.3 123.6 0 82-66.4 148.4-148.3 148.4h-308.3l-7.2 12.4h-123.8l-7.1 12.4h-148.5z"/><path d="m55.1 736.8c-16.4 0-29.7 13.3-29.7 29.7v39.6c0 18 14.9 29.5 29.7 29.5h91.5c9.7 0 9.7 15 0 15h-121.2v44.5h138.5c16.4 0 29.7-13.3 29.7-29.7v-42c0-16.4-13.3-29.7-29.7-29.7h-94c-9.7 0-9.7-14.9 0-14.9h121.2v-42z"/><path d="m210.9 736.8v128.6c0 16.4 13.3 29.7 29.7 29.7h108.8c16.4 0 29.7-13.3 29.7-29.7v-128.6h-42.1v106.3c0 4.1-3.3 7.5-7.4 7.5h-69.2c-4.1 0-7.5-3.4-7.5-7.5v-106.3z"/><path d="m398.9 736.8v158.3h42v-116.3h76.7c4.1 0 7.4 3.4 7.4 7.5v108.8h42.1v-128.6c0-16.4-13.3-29.7-29.7-29.7z"/><path d="m616.5 736.8c-16.4 0-29.7 13.3-29.7 29.7v128.6h42.1v-59.5l116.2.1v-.2-41.8h-111.3c-9.7 0-9.7-14.9 0-14.9h111.3v-42z"/><path d="m762.4 736.8v128.6c0 16.4 13.3 29.7 29.7 29.7h108.9v-44.5h-89.1c-4.1 0-7.4-3.4-7.4-7.5v-106.3z"/><path d="m945.5 736.8c-16.4 0-29.7 13.3-29.7 29.7v98.9c0 16.4 13.3 29.7 29.7 29.7h128.6v-44.5h-111.3c-9.8 0-9.6-15 0-15l111.3.1v-.2-41.8h-111.3c-9.7 0-9.7-14.9 0-14.9h111.3v-42z"/><path d="m1086.9 736.8 67.3 74.9-75.1 83.4h56.5l46.9-52.1 46.9 52.1h59.9l-76.8-85.4 65.6-72.9h-56.5l-37.4 41.5-37.4-41.5z"/><path id="a" d="m53.7 937.3h-30.2v7h10.2v34.8h8.6v-34.8h10z"/><path d="m105.4 937.3h-8.4v41.8h8.4v-18.6h12v18.6h8.5v-41.8h-8.5v16.2h-12z"/><path d="m199.2 937.3h-23.9v41.8h24.4v-7.2h-15.8v-11.2h11.8v-6.9h-12v-9.6h14.4z"/><path id="b" d="m301.6 969.7-3.2 6.5c4.2 2.4 9.6 3.8 14.3 3.8 10.4 0 17.2-5.6 17.2-14.1 0-6.2-3.6-10.5-10.5-12.4l-5.1-1.4c-3.5-1-4.6-2-4.6-4.2 0-2.8 2.4-4.8 5.8-4.8 3.1 0 6 .9 9.8 3.2l3.9-6.1c-3.7-2.6-8.8-4.2-13.9-4.2-8.8 0-14.9 5.4-15 13-.1 6.8 4.1 9.9 10 11.6l4.6 1.3c3.7 1.1 5.5 2.7 5.5 5.4 0 3.7-2.6 5.7-7.4 5.7-4.2 0-7.5-1.3-11.4-3.3"/><path id="c" d="m376.9 937.3v41.8h8.4v-15.4h6.6c3.8 0 13.6-2 13.6-13.5 0-10.4-8.5-12.9-15.6-12.9zm8.4 6.8h5.4c3.6 0 5.7 2.3 5.7 6.2 0 4.2-1.8 6.5-5.2 6.5h-5.9z"/><path id="d" d="m464 979.8c16.8 0 18-16.4 18-21.4-.1-13.8-6.9-21.6-18-21.6-11.7 0-18.1 9.1-18.1 21.6 0 4.8 1.4 21.4 18.1 21.4zm0-36.5c8 0 8.4 9 8.3 15.1-.1 10.7-2.5 14.9-8.3 14.9-6.4 0-8.7-4.4-8.7-14.9 0-6.8.9-15.1 8.7-15.1z"/><path d="m526.6 937.3v41.8h8.2v-17.5c2.8 1 3.9 3.1 8.2 10.6l3.9 6.9h10s-7.7-13.2-10.1-16.2c3.4-1.9 7.6-7 7.6-13.3 0-7.3-4.9-12.3-12.3-12.3zm11.2 6.7c4.2 0 7.8.7 7.8 5.8 0 4.8-4 5.4-8 5.5h-2.8v-11.3z"/><use transform="translate(572.5)" xlink:href="#a"/><use transform="translate(368.1)" xlink:href="#b"/><path d="m798 959.1c0 11.4 6.4 20.7 18.7 20.7 4.7 0 8.3-1.2 11.6-3.9l-3.9-5.3c-2.5 2-4.6 2.7-7.1 2.7-8.9-.1-9.8-8.2-9.8-15.7 0-7.6 2.1-14.5 9.4-14.5 2.4 0 4.6.7 6.7 2.3l3.8-5.7c-2.3-2-6.3-3.3-10.5-3.3-7.8 0-18.9 5.4-18.9 22.7z"/><use transform="translate(422.7)" xlink:href="#d"/><path d="m950.2 937.3-3.9 41.8h8.3l1.5-21.8c.2-2.6.3-5 .3-7.5.4 2.4 1.1 5.3 1.7 7.3l6 22h7.1l6.6-22.9c.7-2.5 1.1-4 1.6-6.4 0 2.2.1 4.4.3 7l1.6 22.3h8.2l-3.7-41.8h-10.7l-5.7 20.9c-.6 2.5-1.1 4.4-1.5 6.6-.4-2.2-.6-3.6-1.4-6.6l-5.5-20.9z"/><use transform="translate(659.6)" xlink:href="#c"/><path d="m1116.3 937.2-13.7 41.9h8.8l2.9-9.9h12.3l3 9.9h9l-13.2-41.9zm.1 25c.9-2.8 1.4-4.8 2.2-7.8l2-8 1.7 7.4c.9 4 2.3 8.4 2.3 8.4z"/><path d="m1192 937.3h-9.4v41.8h8.2l-.3-17.9c-.1-3.5-.1-8.4-.4-11.8.8 2.6 3.3 8.5 5.7 13.7l7.1 16h8.8v-41.8h-8l.2 17.1c.1 2.9.3 8.3.6 11.5-.8-3-2.4-7.4-4.5-11.9z"/><path d="m1264.9 937.3h-10.1l13 24.6v17.2h8.7v-17.2l13.4-24.6h-10l-5.4 11.6-2.2 5.2c-.5-1.6-1-3.1-2.1-5.4z"/></g></svg>