<svg viewBox="0 0 92 100" xmlns="http://www.w3.org/2000/svg"><g transform="scale(.1)"><path d="m259 20c-19.5 0-37.2 14-41.5 33l-196.3 873.7c-6.9 30.9 17.5 53.3 42.8 53.3h597c19.5 0 37.2-14 41.5-33l196.3-873.7c7-31-17.5-53.3-42.8-53.3z"/><path fill="#fff" d="m659 321c-30 0-45 15-45 44 0 14 3.9 26.1 16 34l29 19c7.2 4.7 12 8 12 14v7c0 7-3 12-12 12-7 0-12-6-12-13v-9c0-4-4-8-8-8h-18c-4 0-7 4-7 8v8c0 30 20 41 44 41 31 0 47-13 47-45 0-20-3.5-26.8-20-37l-26-16c-8-4.9-12-6.9-12-14v-5c0-8.1 5-12 12-12 6 0 12 4 12 13v5c0 4 4 8 8 8h17c4 0 8-4 8-8v-5c0-27-19-41-45-41zm-355 5c-4 0-8 4-8 8v132c0 4 4 8 8 8h61c4 0 7-3 7-7v-15c0-4-3-8-7-8h-35v-110c0-4-4-8-8-8zm87 0c-4 0-7 3-7 7v134c0 4 4 7 8 7h66c4 0 8-3 8-7v-15c0-4-4-8-8-8h-41v-33h36c4 0 7-3 7-7v-14c0-4-3-7-7-7h-36v-27h40c4 0 7-4 7-8v-15c0-4-3-7-7-7zm91 0c-4 0-7 4-7 8v13c0 4 3 8 7 8h19v111c0 4 4 8 8 8h18c4 0 8-4 8-8v-111h18c4 0 8-4 8-8v-13c0-4-4-8-8-8zm96 1c-4 0-7 4-7 8v40c0 4 3 8 7 8h19c4 0 7-4 7-8v-40c0-4-3-8-7-8zm81 181c-30 0-45 15-45 44 0 14 3.9 25.1 16 33l29 19c7.2 4.7 12 9 12 15v7c0 7-3 12-12 12-7 0-12-7-12-14v-8c0-4-4-8-8-8h-18c-4 0-8 4-8 8v9c0 30 21 40 45 40 31 0 47-14 47-45 0-20-3.6-25.7-20-36l-27-17c-8-5-11-8-11-14v-5c0-8 5-13 12-13 6 0 12 5 12 14v5c0 4 4 8 8 8h17c4 0 8-4 8-8v-5c0-27-19-41-45-41zm-478 4c-4 0-8 4-8 8v133c0 4 4 8 8 8h53c16 0 31-12 31-28v-24c0-15-7-23-21-26 14-5 17-13 17-29v-14c0-15-13-28-29-28zm215 0c-4 0-8 4-8 8v133c0 4 4 8 8 8h18c4 0 8-4 8-8v-72l31 72c1.8 4.1 3 8 8 8h20c4 0 9-4 9-8v-133c0-4-4-8-8-8h-18c-4 0-8 4-8 8v74l-31-74c-1.7-4.1-4-8-9-8zm120 0c-4 0-8 4-8 8v133c0 4 4 8 8 8h54c15 0 30-14 30-29v-93c0-15-15-27-30-27zm-208 0c-4 0-7 4-8 8l-29 133c-.9 4 4 8 8 8h91c7 0 8.7-4.9 8-8l-28-133c-1-4-4-8-8-8zm-102 27h15c5 0 9 3 9 9v15c0 7-4 8-9 8h-15zm335 1h15c5 0 10 4 10 9v75c0 5-5 10-10 10h-15zm-216 11 16 83h-32zm-119 46h17c5 0 9 1 9 9v19c0 7-4 9-9 9h-17z"/></g></svg>