<svg viewBox="0 0 427 100" xmlns="http://www.w3.org/2000/svg" xmlns:xlink="http://www.w3.org/1999/xlink"><clipPath id="a"><path d="m19.5 19.5.5 961h880.5v-961zm639.5 301.5c26 0 45 14 45 41v5c0 4-4 8-8 8h-17c-4 0-8-4-8-8v-5c0-9-6-13-12-13-7 0-12 3.9-12 12v5c0 7.1 4 9.1 12 14l26 16c16.5 10.2 20 17 20 37 0 32-16 45-47 45-24 0-44-11-44-41v-8c0-4 3-8 7-8h18c4 0 8 4 8 8v9c0 7 5 13 12 13 9 0 12-5 12-12v-7c0-6-4.8-9.3-12-14l-29-19c-12.1-7.9-16-20-16-34 0-29 15-44 45-44zm-355 5h18c4 0 8 4 8 8v110h35c4 0 7 4 7 8v15c0 4-3 7-7 7h-61c-4 0-8-4-8-8v-132c0-4 4-8 8-8zm87 0h66c4 0 7 3 7 7v15c0 4-3 8-7 8h-40v27h36c4 0 7 3 7 7v14c0 4-3 7-7 7h-36v33h41c4 0 8 4 8 8v15c0 4-4 7-8 7h-66c-4 0-8-3-8-7v-134c0-4 3-7 7-7zm91 0h71c4 0 8 4 8 8v13c0 4-4 8-8 8h-18v111c0 4-4 8-8 8h-18c-4 0-8-4-8-8v-111h-19c-4 0-7-4-7-8v-13c0-4 3-8 7-8zm96 1h19c4 0 7 4 7 8v40c0 4-3 8-7 8h-19c-4 0-7-4-7-8v-40c0-4 3-8 7-8zm81 181c26 0 45 14 45 41v5c0 4-4 8-8 8h-17c-4 0-8-4-8-8v-5c0-9-6-14-12-14-7 0-12 5-12 13v5c0 6 3 9 11 14l27 17c16.4 10.3 20 16 20 36 0 31-16 45-47 45-24 0-45-10-45-40v-9c0-4 4-8 8-8h18c4 0 8 4 8 8v8c0 7 5 14 12 14 9 0 12-5 12-12v-7c0-6-4.8-10.3-12-15l-29-19c-12.1-7.9-16-19-16-33 0-29 15-44 45-44zm-478 4h51c16 0 29 13 29 28v14c0 16-3 24-17 29 14 3 21 11 21 26v24c0 16-15 28-31 28h-53c-4 0-8-4-8-8v-133c0-4 4-8 8-8zm127 0h34c4 0 7 4 8 8l28 133c.7 3.1-1 8-8 8h-91c-4 0-8.9-4-8-8l29-133c1-4 4-8 8-8zm88 0h20c5 0 7.3 3.9 9 8l31 74v-74c0-4 4-8 8-8h18c4 0 8 4 8 8v133c0 4-5 8-9 8h-20c-5 0-6.2-3.9-8-8l-31-72v72c0 4-4 8-8 8h-18c-4 0-8-4-8-8v-133c0-4 4-8 8-8zm120 0h54c15 0 30 12 30 27v93c0 15-15 29-30 29h-54c-4 0-8-4-8-8v-133c0-4 4-8 8-8zm-310 27v32h15c5 0 9-1 9-8v-15c0-6-4-9-9-9zm335 1v94h15c5 0 10-5 10-10v-75c0-5-5-9-10-9zm-216 11-16 83h32zm-119 46v37h17c5 0 9-2 9-9v-19c0-8-4-9-9-9z"/></clipPath><g id="figure" fill="#fff"><g transform="scale(.1)"><path clip-path="url(#a)" d="m259 20c-19.5 0-37.2 14-41.5 33l-196.3 873.7c-6.9 30.9 17.5 53.3 42.8 53.3h597c19.5 0 37.2-14 41.5-33l196.3-873.7c7-31-17.5-53.3-42.8-53.3z"/><path d="m1023.8 353.6-.6-38.4h-49.2v472.8h54v-153c1.8 4.8 15 37.2 79.8 37.2 119.4 0 124.2-114 124.2-182.4 0-121.8-46.8-178.2-124.2-178.2-55.2 0-79.2 37.2-84.6 42zm78 7.8c21 0 50.4 6 66.6 52.2 7.2 21 10.8 42.6 10.8 79.8 0 37.8-4.2 62.4-13.2 86.4-13.2 31.2-34.8 43.8-65.4 43.8-18.6 0-48.6-1.8-64.2-46.2-7.8-21.6-12-45.6-12-84 0-37.8 3-59.4 10.2-80.4 14.4-43.8 44.4-51.6 67.2-51.6z"/><path d="m1430 311.6c-70.2 0-115.2 42-123.6 102-3 22.2-3.6 48.6-3.6 79.2s1.2 57.6 4.2 81c8.4 57 48.6 101.4 123 101.4 73.2 0 115.8-43.8 123.6-101.4 3-18.6 4.2-45.6 4.2-81 0-34.2-1.2-60.6-4.2-79.2-7.8-56.4-51-102-123.6-102zm0 43.2c40.2 0 70.8 27.6 75.6 67.8 1.8 16.8 2.4 40.2 2.4 70.8 0 30-.6 54-2.4 71.4-5.4 38.4-33 67.2-75.6 67.2-41.4 0-70.2-25.2-75-67.2-1.8-16.8-3-41.4-3-72s1.2-53.4 3-70.2c5.4-40.8 34.2-67.8 75-67.8z"/><path d="m1602.8 320 95.4 352.8h57.6l55.8-269.4 70.2 269.4h52.8l91.8-352.8h-52.2l-64.8 273-73.2-273h-47.4l-70.8 273-64.2-273z"/><path d="m2066.6 514.4c0 24 .6 39.6 4.2 61.2 8.4 51.6 43.8 99.6 121.8 99.6 70.8 0 125.4-47.4 127.2-106.2h-46.8c-.6 31.8-34.2 63-80.4 63s-70.8-28.8-75-66.6c-1.8-16.2 0-51 0-51h204.6c0-18-.6-75.6-1.8-91.2-5.4-66-57-111.6-128.4-111.6-73.2 0-117.6 41.4-123 111.6-1.8 12.6-2.4 72.6-2.4 91.2zm202.2-41.4h-152.4c0-12 .6-35.4 1.2-51 1.8-40.8 33.6-64.2 74.4-64.2 45.6 0 73.8 31.2 75.6 64.2 1.2 19.8 1.2 37.2 1.2 51z"/><path d="m2443.4 321.2h-49.8v351.6h49.8v-216.6c0-69.6 48.6-85.2 105-80.4v-61.8c-57.6 0-105 45-105 45z"/><path d="m2600.6 212v379.8c0 56.4 81.6 83.4 139.2 83.4 76.2 0 118.8-31.2 134.4-105 4.8-20.4 7.2-51.6 7.2-82.8 0-97.2-25.8-130.8-43.8-148.8-18.6-18.6-40.8-22.8-70.8-22.8-61.2 0-78.6 28.2-84 34.8v-138.6zm138 178.2c21 0 42.6 12.6 49.8 37.8 4.2 13.2 6 34.2 6 61.8 0 24.6-1.8 55.8-5.4 71.4-6 27.6-27.6 41.4-50.4 41.4-21.6 0-45.6-7.2-49.8-25.8-3.6-13.2-5.4-60-5.4-87 0-24.6 1.8-45 5.4-61.2 6-25.8 28.2-38.4 49.8-38.4z"/><path d="m2940.8 436.4h71.4c2.4-66.6 109.2-70.8 109.2 0v29.4h-54.6c-94.8 0-142.2 28.2-142.2 103.8 0 38.4 10.2 65.4 31.2 81.6 21.6 16.2 48 24 79.8 24 68.4 0 95.4-52.2 95.4-52.2v48h77.4v-247.2c0-82.2-81.6-113.4-130.8-113.4-115.2 0-136.2 83.4-136.8 126zm181.2 84v32.4c0 39.6-42.6 54-77.4 54-20.4 0-40.8-10.2-40.8-37.8 0-38.4 48.6-48 70.8-48.6z"/><path d="m3361.4 349.4v-32.4h-82.8v353.4h85.2v-227.4c0-57.6 114-88.2 114 0v227.4h81v-241.8c0-66.6-46.2-120.6-103.2-120.6s-82.8 33.6-94.2 41.4z"/><path d="m3822.2 212v121.8c-19.2-21.6-49.2-26.4-76.8-27.6-60 0-97.2 36-111.6 108-4.2 23.4-6.6 48-6.6 73.2 0 28.2 2.4 54 7.2 77.4 16.2 73.8 51.6 106.8 108 106.8 58.8 0 85.2-34.2 88.2-38.4v37.2h82.2v-458.4zm-53.4 178.2c51.6 0 54 56.4 54 99.6.6 45 1.8 111-54 111.6-60.6.6-57.6-65.4-58.2-111.6-.6-59.4 6-99.6 58.2-99.6z"/><path d="m3977.6 417.8c0 30 8.4 60 25.8 75.6 45 40.2 97.2 32.4 135 45.6 15 4.8 18 22.8 18 31.8 0 13.2-16.2 30.6-43.8 30.6-27 0-43.2-9.6-52.2-34.8h-86.4c0 31.2 12.6 60.6 38.4 79.8s57 28.2 100.2 28.2 73.8-9 99-28.2c25.8-19.2 38.4-45 38.4-78.6 0-30-9.6-60.6-28.8-75.6-47.4-38.4-110.4-21.6-141.6-38.4-16.8-10.2-13.8-27.6-13.8-37.2 0-15 19.2-33 45-33 20.4 0 46.8 4.2 46.2 42.6h86.4c0-34.2-12-67.8-37.2-88.2-24.6-21-55.2-31.2-96.6-31.2s-70.8 10.2-95.4 30-36.6 46.8-36.6 81z"/></g></g></svg>