<svg viewBox="0 0 92 100" xmlns="http://www.w3.org/2000/svg" xmlns:xlink="http://www.w3.org/1999/xlink"><clipPath id="a"><path d="m19.5 19.5.5 961h880.5v-961zm639.5 301.5c26 0 45 14 45 41v5c0 4-4 8-8 8h-17c-4 0-8-4-8-8v-5c0-9-6-13-12-13-7 0-12 3.9-12 12v5c0 7.1 4 9.1 12 14l26 16c16.5 10.2 20 17 20 37 0 32-16 45-47 45-24 0-44-11-44-41v-8c0-4 3-8 7-8h18c4 0 8 4 8 8v9c0 7 5 13 12 13 9 0 12-5 12-12v-7c0-6-4.8-9.3-12-14l-29-19c-12.1-7.9-16-20-16-34 0-29 15-44 45-44zm-355 5h18c4 0 8 4 8 8v110h35c4 0 7 4 7 8v15c0 4-3 7-7 7h-61c-4 0-8-4-8-8v-132c0-4 4-8 8-8zm87 0h66c4 0 7 3 7 7v15c0 4-3 8-7 8h-40v27h36c4 0 7 3 7 7v14c0 4-3 7-7 7h-36v33h41c4 0 8 4 8 8v15c0 4-4 7-8 7h-66c-4 0-8-3-8-7v-134c0-4 3-7 7-7zm91 0h71c4 0 8 4 8 8v13c0 4-4 8-8 8h-18v111c0 4-4 8-8 8h-18c-4 0-8-4-8-8v-111h-19c-4 0-7-4-7-8v-13c0-4 3-8 7-8zm96 1h19c4 0 7 4 7 8v40c0 4-3 8-7 8h-19c-4 0-7-4-7-8v-40c0-4 3-8 7-8zm81 181c26 0 45 14 45 41v5c0 4-4 8-8 8h-17c-4 0-8-4-8-8v-5c0-9-6-14-12-14-7 0-12 5-12 13v5c0 6 3 9 11 14l27 17c16.4 10.3 20 16 20 36 0 31-16 45-47 45-24 0-45-10-45-40v-9c0-4 4-8 8-8h18c4 0 8 4 8 8v8c0 7 5 14 12 14 9 0 12-5 12-12v-7c0-6-4.8-10.3-12-15l-29-19c-12.1-7.9-16-19-16-33 0-29 15-44 45-44zm-478 4h51c16 0 29 13 29 28v14c0 16-3 24-17 29 14 3 21 11 21 26v24c0 16-15 28-31 28h-53c-4 0-8-4-8-8v-133c0-4 4-8 8-8zm127 0h34c4 0 7 4 8 8l28 133c.7 3.1-1 8-8 8h-91c-4 0-8.9-4-8-8l29-133c1-4 4-8 8-8zm88 0h20c5 0 7.3 3.9 9 8l31 74v-74c0-4 4-8 8-8h18c4 0 8 4 8 8v133c0 4-5 8-9 8h-20c-5 0-6.2-3.9-8-8l-31-72v72c0 4-4 8-8 8h-18c-4 0-8-4-8-8v-133c0-4 4-8 8-8zm120 0h54c15 0 30 12 30 27v93c0 15-15 29-30 29h-54c-4 0-8-4-8-8v-133c0-4 4-8 8-8zm-310 27v32h15c5 0 9-1 9-8v-15c0-6-4-9-9-9zm335 1v94h15c5 0 10-5 10-10v-75c0-5-5-9-10-9zm-216 11-16 83h32zm-119 46v37h17c5 0 9-2 9-9v-19c0-8-4-9-9-9z"/></clipPath><g id="figure" fill="#fff"><g transform="scale(.1)"><path clip-path="url(#a)" d="m259 20c-19.5 0-37.2 14-41.5 33l-196.3 873.7c-6.9 30.9 17.5 53.3 42.8 53.3h597c19.5 0 37.2-14 41.5-33l196.3-873.7c7-31-17.5-53.3-42.8-53.3z"/></g></g></svg>