<svg viewBox="0 0 509 100" xmlns="http://www.w3.org/2000/svg" xmlns:xlink="http://www.w3.org/1999/xlink"><g id="figure"><path d="m45 2c-19.5 0-43 10.7-43 26.6 0 10.2 11.3 16.8 23.3 17.8 10.1 1 20-.2 30-1.8-9.1 8-18.3 16-27.4 24 7.3-1.1 14.7-2.4 22-3.6.4 0 .7-.2 1-.5 8.8-8.5 17.6-16.9 26.5-25.3 4.9 2.6 9.5 5.7 13.8 9.2-11.3-21.3-36.3-28.3-52.7-26.1-1.3 3.2 1.8 8.2 3.9 9 7.8.6 15 .6 23.1 3.1-6.1 1.5-37.8 3.8-49.3-3.4 7.6-11.3 19.6-17.5 33.3-17.6 19.1.5 42.9 10.8 58.5 29.3-7.6-21.8-31.6-40.7-63-40.7zm54.5 10.5c-1.3 5.5 2.5 9.7 3.9 9.8 8.7.5 13.5 2 20.2 6.3-.6-9.5-10.7-15.2-24.1-16.1z"/><path d="m155.8 13.8v35h31.2v12.1h-45.7v-47.1z"/><path d="m235.5 25.5v8h-27.6v5.5h26.1v7.5h-26v5.5h28.2v8.9h-39.1v-35.4z"/><path d="m246.1 13.8v47.1h13.9v-33.8l18.9 33.8h9.8l17.9-33.8v33.8h13.9v-47.1h-21.3l-15.4 30.7-16.4-30.7z"/><path d="m341.1 25.3c-5.5 0-10 4.5-10 10v16c0 5.5 4.5 10 10 10h28.1c5.5 0 10-4.5 10-10v-16c0-5.5-4.5-10-10-10zm6 9h16c2.8 0 5 2.2 5 5v7.9c0 2.8-2.2 5-5 5h-16c-2.8 0-5-2.2-5-5v-7.9c0-2.8 2.2-5 5-5z"/><path d="m405.5 25.5 20.4 24.9v-24.9h11.3v35.4h-17l-20.1-25.9v25.9h-10.8v-35.4z"/><path d="m446.8 25.5v35.6h37.5c5.5 0 10-4.5 10-10v-15.6c0-5.5-4.5-10-10-10zm31.4 8.8c2.8 0 5 2.2 5 5v7.4c0 2.8-2.2 5-5 5h-20.2v-17.4z"/><path id="a" d="m503.3 32.9c-.2-.4-.3-.9-.4-1.3-.1-.8-.5-1.1-1.1-1h-.3v2.3h-1.1v-5.3h1.8c1.3 0 2.1.3 2.2 1.4 0 .8-.7 1.1-1.1 1.2.2.1.3.2.4.3.3.3.3.8.4 1.2 0 .1.1.7.4 1.2m-2.2-3.2c.5 0 1-.1 1-.6s-.5-.7-1-.7h-.8v1.3"/><path id="b" d="m502.3 25.6c-2.6 0-4.7 2.1-4.7 4.7s2.1 4.7 4.7 4.7 4.7-2.1 4.7-4.7-2.1-4.7-4.7-4.7zm0 .8c2.1 0 3.9 1.8 3.9 3.9s-1.8 3.9-3.9 3.9-3.9-1.8-3.9-3.9 1.8-3.9 3.9-3.9z"/><use transform="translate(-158.1 52.6)" xlink:href="#b"/><use transform="translate(-158.1 52.6)" xlink:href="#a"/><path d="m2 79.8v15.9h1.9v-6.2h11.6c4.2 0 4.6-2.2 4.6-5.1 0-2.7-.4-4.6-4.6-4.6zm13.3 1.5c1.9 0 2.7.9 2.6 3.1-.1 2.7-.7 3.3-2.6 3.3h-11.4v-6.4z"/><path d="m29.1 79.6c-2.8.1-4.8 1-5 5-.1.9-.1 2.1-.1 3 0 1.1.1 2.1.1 3.2.1 3.6 2.2 4.9 5 5 1.8 0 3.5.1 5.3.1 1.7 0 3.5-.1 5.2-.1 2.8-.1 5-1.5 5-5 0-1.1.1-2.1.1-3.2 0-.9-.1-2.1-.1-3-.1-3.8-2.2-4.9-5-5-1.7 0-3.5-.1-5.2-.1-1.8 0-3.5.1-5.3.1zm.9 1.5c1.5 0 2.9-.1 4.4-.1 1.4 0 2.8.1 4.2.1 2.8.1 3.9.7 4 4.5 0 .6.1 1.4.1 2 0 .8-.1 1.4-.1 2.2-.2 3.7-1.2 4.1-4 4.2-1.4 0-2.8.1-4.2.1-1.5 0-2.9-.1-4.4-.1-2.8-.1-3.7-.6-3.9-4.2 0-.8-.1-1.4-.1-2.2 0-.6.1-1.4.1-2 .2-3.2 1.1-4.4 3.9-4.5z"/><path d="m56.2 94 6.3-14.1h2.7l6.2 14.1 6.7-14.2h2.3l-7.7 16.1h-2.6l-6.2-14.3-6.4 14.3h-2.5l-7.7-16.1h2.3z"/><path d="m99.9 79.8v1.5h-13.8v5.3h13.3v1.6h-13.3v5.8h14v1.7h-16v-15.9z"/><path d="m104.8 79.8v15.9h1.9v-6.4h11.3c1.7-.1 2.9.7 2.9 2v4.4h2.1v-4.6c0-1.8-1.3-2.3-2.8-2.6 2.5-.5 3.1-1.9 3.1-4.2 0-3.6-1.5-4.5-5.5-4.5zm16.3 4.5c0 2.3-.8 3.1-3.1 3.2h-11.3v-6.2h11.3c2.1.1 3.1 1 3.1 3z"/><path d="m143.7 79.8v1.5h-13.8v5.3h13.3v1.6h-13.3v5.8h14v1.7h-16v-15.9z"/><path d="m148.6 79.8v16h13.7c4.9 0 6-3.4 6-8.2 0-5.8-1.1-7.8-6-7.8zm13.3 1.5c3.8.1 4.2 1.8 4.2 6.3 0 3.2.1 6.4-4.2 6.4h-11.3v-12.7z"/><path d="m180.5 79.8v15.9h13.1c3.8 0 5.4-1.3 5.4-4.6 0-2.5-.6-3.9-3.2-3.9 2.2-.9 2.5-1.3 2.6-3.4 0-2.4-.9-4-4.8-4zm15.9 4c0 2.4-2 2.7-3.1 2.7h-10.8v-5.2h10.8c1.9 0 3.1.2 3.1 2.5zm.5 7.3c0 2.5-1.4 2.8-3.3 2.9h-11.1v-5.8h11.1c2.3 0 3.3.4 3.3 2.9z"/><path d="m204 79.8 7.4 7.3 7.3-7.3h2.9l-9.3 9.1-.1 6.8h-1.8l-.1-6.8-9.1-9.1z"/><path d="m237.7 79.7v5.8h11v-5.8h4.8v16.2h-4.8v-6.4h-11v6.4h-4.7v-16.2z"/><path d="m263.6 79.6c-2.8.1-4.8 1-5 5-.1.9-.1 2.1-.1 3 0 1.1.1 2.1.1 3.2.1 3.6 2.2 4.9 5 5 1.8 0 4 .1 5.8.1 1.7 0 4-.1 5.7-.1 2.8-.1 5-1.5 5-5 0-1.1.1-2.1.1-3.2 0-.9-.1-2.1-.1-3-.1-3.8-2.2-4.9-5-5-1.7 0-4-.1-5.7-.1-1.8 0-4 .1-5.8.1zm5.8 4c5.6.1 6.1.3 6.2 4-.2 4.3-.7 4.4-6.2 4.5-5.7-.1-6.2-.3-6.2-4.5.1-3.8.6-3.9 6.2-4z"/><path d="m289.9 79.7v16.2h-4.8v-16.2z"/><path id="c" d="m312.5 80.4c1.2.9 1.3 2.6 1.3 4.2h-4.5c-.7-1.9-3.2-1.6-5.1-1.6-3.1.1-4.6.4-4.6 1.5 0 1 .7 1.3 2 1.3 2.8.1 5.2-.2 7.9 0 1.2.1 2.6.3 3.9 1.1 1.1.9 1.4 2.6 1.4 3.9 0 1.4-.3 3.1-1.4 4-1.4.9-3 1-4.3 1-2.9.1-5.8.2-8.5.2-1.3 0-3.4-.1-4.6-1-1.4-1.1-1.2-3-1.2-4.3 1.5 0 3.1.1 4.8 0 .5 2.1 3.3 1.7 5.2 1.7 5.1-.1 5.2-.8 5.2-1.5 0-1.2-.8-1.3-2.4-1.4-3-.1-6-.1-9.2-.2-2.9 0-3.8-3.1-3.8-4.7 0-1.8.5-3.6 1.7-4.1 2.2-1 4.8-1 7.3-1 3.6 0 7.8.1 8.9.9z"/><path d="m337.6 79.7v4.1h-7.2v12.1h-4.8v-12.1h-7.2v-4.1z"/><path d="m376.9 79.7v3.8h-12.1v2.5h12.1v3.4h-12.1v6.5h-4.9v-16.2z"/><path d="m386.2 79.7v16.2h-5v-16.2z"/><path d="m409.3 79.7v4.1h-7.2v12.1h-4.8v-12.1h-7.2v-4.1z"/><path d="m421.2 79.7 9.4 11.8.1-11.8h4.7v16.2h-7.9l-9.3-12v12h-4.8v-16.2z"/><path d="m458.3 79.7.1 3.6h-13.1v2.7h12v3.3h-12v2.7h13.1v3.9h-17.9v-16.2z"/><use transform="translate(168)" xlink:href="#c"/><use transform="translate(192.2)" xlink:href="#c"/></g></svg>