<svg viewBox="0 0 289 100" xmlns="http://www.w3.org/2000/svg"><g id="figure" transform="scale(.1)"><path d="m1446.7 20c-195.3 0-360.2 132.7-407.2 313.2-12.4 47.6-15.2 100.2-15.2 128.8 0 1.2 1.7 1.4 2 .2 25.7-95.9 92-192.6 264.9-217.7 0 62.6-39.9 120.4-98.8 194.4-48.2 60.6-48.1 130.1-46.8 151.5.1 1.2 1.7 1.3 2 .1 10.8-46.1 28.6-83.3 63-121.3 93.7-103.6 133.1-129.6 133.1-231.7 36.9-3.7 64.4-4.4 83.6-4.4-.9 37.9 2.5 341.6 18.4 389.5.3.9 1.7.9 2 0 15.9-47.9 19.3-351.6 18.4-389.5 19.2 0 46.7.7 83.6 4.4 0 102.1 39.4 128.1 133.1 231.7 34.4 38 52.2 75.2 63 121.3.3 1.2 1.9 1.1 2-.1 1.3-21.4 1.4-90.9-46.8-151.5-58.9-74-98.8-131.8-98.8-194.4 172.9 25.1 239.2 121.8 264.9 217.7.3 1.2 2 1 2-.2 0-28.6-2.8-81.2-15.2-128.8-47-180.5-211.9-313.2-407.2-313.2zm-14.6 50.6c-.4 8.6-2.9 58.1-4.8 122.9-34.9.6-61.6 2.3-87 4-16-66.3-86.1-72-100.5-72.4 84.5-50.6 161.7-54.9 192.3-54.5zm29.2 0c30.6-.4 107.8 3.9 192.3 54.5-14.4.4-84.5 6.1-100.5 72.4-25.4-1.7-52.1-3.4-87-4-1.9-64.8-4.4-114.3-4.8-122.9zm-252.4 75.1c56.5 5.3 77.2 45.2 77.2 56.5-81.9 11.4-146.8 40.7-196.7 87.5 40.6-79.8 76.1-114.1 119.5-144zm475.6 0c43.4 29.9 78.9 64.2 119.5 144-49.9-46.8-114.8-76.1-196.7-87.5 0-11.3 20.7-51.2 77.2-56.5z"/><path d="m198.2 897.7v-23.5l-8.2-8.2h-137.1l-32.9-31.3v-121.4l32.9-32.9h234.2v74.1h-167.9l-8.2 8.2v23.5l8.2 8.2h137l33 32.1v120.6l-33 32.9h-234.1v-74.1h167.9z"/><path d="m415.2 980h-91v-299.6h91z"/><path d="m540.7 905.9h137.6v74.1h-228.5v-299.6h90.9z"/><path d="m754.6 980-113.6-299.6h97.9l70.4 201.6 70.4-201.6h97.9l-113.6 299.6z"/><path d="m1089.3 905.9h171.6v74.1h-262.6v-299.6h262.6v74.1h-171.6v39.9h151v71.6h-151z"/><path d="m1422.7 884.5h-37.9v95.5h-90.9v-299.6h260.1l32.9 32.9v132.9l-41.1 38.3h-24.7l66.2 95.5h-99.6zm64.2-67.1 8.3-8.2v-46.5l-8.3-8.2h-102.1v62.9z"/><path d="m1914.6 846.2v100.9l-32.9 32.9h-261.3v-299.6h261.3l32.9 32.9v100.8l-19.3 16.1zm-203.3-46.1h103.3l8.3-8.2v-29.2l-8.3-8.2h-103.3zm0 105.8h103.3l8.3-8.2v-29.2l-8.3-8.3h-103.3z"/><path d="m1931.1 980 111.5-299.6h110.8l111.5 299.6h-95.1l-14.4-39.5h-114.8l-14.4 39.5zm200.9-105.8-33.8-98.7-34.2 98.7z"/><path d="m2380.5 905.9h155.6v74.1h-221.8l-32.9-32.9v-233.8l32.9-32.9h221.8v74.1h-155.6l-8.2 8.2v135z"/><path d="m2656 980h-91v-299.2h91v114.4h25.5l87.3-114.4h101.2l-87.3 114.4h34.6l32.9 32.9v151.9h-90.9v-102.9l-8.2-8.2h-95.1z"/></g></svg>