<svg viewBox="0 0 328 100" xmlns="http://www.w3.org/2000/svg"><g fill="#fff"><path d="m21.3 2h-19.3v48.8c0 5.3 4.2 9.5 9.5 9.5h75.3v-14.6h-65.5z"/><path d="m102.3 2v48.8c0 5.3 4.2 9.5 9.5 9.5h75.3v-14.6h-65.5v-8.5h65.5v-12.1h-65.5v-8.5h65.5v-14.6z"/><path d="m262.8 2-37.1 25.5v-25.5h-19.3v59.5l27.9-19.2 26.2 18h32.4l-42.4-29.1 42.4-29.2z"/><path d="m306.7 2v48.8c0 5.3 4.2 9.5 9.5 9.5h9.8v-58.3z"/></g><path fill="#e4032e" d="m2 89.5c.5 4.8 4.6 8.5 9.5 8.5h195.1v-8.5z"/><path fill="#ffed00" d="m326 89.5c-.5 4.8-4.6 8.5-9.5 8.5h-110.1v-8.5z"/></svg>