<svg viewBox="0 0 507 100" xmlns="http://www.w3.org/2000/svg"><g id="figure"><path d="m34.2 2c-7.1 0-10.4 6-12.1 12.3l-19.5 73.2c-.3 1-.6 2.3-.6 3.4 0 5.3 4.9 7.1 9.6 7.1h101.5c9.7 0 14-2.5 16.6-12.2l17.2-64.5c.5-1.8.8-3.7.8-5.5 0-11.1-10.9-13.8-17.2-13.8zm2.4 10.5h23.1l-3.9 14.5h-23.1zm29.9.1h68.3l-3.9 14.4h-68.4zm-35.4 19.8h23.2l-14.8 54.9h-23zm28.7 0h19.2c4.4 0 9.5 1.7 9.5 10.1 0 2.6-.4 5.1-1.1 7.6l-9.9 37.2h-23.2l11-41.1c.3-1.2-.1-2.8-1.5-2.8h-7.2zm30.7 0h21.1c7.9 0 14.9.8 14.9 10.1 0 4-1.3 7.6-2.3 11.5l-8.9 33.3h-23.1l11-41.4c.3-1.2-.5-2.5-1.9-2.5h-7.9c.4-4-.6-7.7-2.9-11z"/><path d="m164.1 17.6-3.1 11.4h18.6l3.2-11.4zm48.3 15.7c-2.6 0-4.2 2.7-5.3 4.8-.1-2.3-1.6-4.6-4-4.6h-19.9c-2.3 0-4.4 1.3-5.7 3l.9-3h-18.7l-11.8 44.2h18.6l8.6-32.2c.6-2.1 1.8-3.5 4-3.5h6.6c2.6 0 1.4 3.2 1 4.8l-8.3 30.9h18.7l9-33.2c.3-1 1.2-2.3 2.3-2.3h7.8c2.4 0 1.6 2.4 1.2 4l-8.4 31.5h18.7l7.1-26.6c.9-3.3 1.8-6.8 1.8-10.2 0-2.5-1-7.6-8-7.6z"/><path d="m249.4 33.5-16.3 60.8h20.3l4.5-16.6h23.8c10.2 0 13.3-10.3 14.1-13.3l4.6-17.1c.5-1.9.8-3.7.8-5.6 0-6.5-4.9-8.2-8-8.2zm29.2 8.7c1.1 0 2.7.1 1.9 3.1l-5.2 19.3c-.6 2.1-1.5 4.4-3.9 4.4h-8.7c-2.4 0-2-2.3-1.6-3.9l5.6-20.5c.3-1.2 1.5-2.4 2.6-2.4z"/><path d="m308.5 33.4h20.3l-9 33.3c-.3 1.2.8 2.3 1.9 2.3h9.4c2.1 0 2.8-1.9 3.3-3.6l8.6-32h20.5l-11.9 44.3h-44.1c-3.8 0-7.9-3.1-7.9-9.3 0-1.3.2-2.7.5-3.9z"/><path d="m373.2 17.6h20.6l-16.1 60.1h-20.6z"/><path d="m409.7 33.5h35l-2.1 8.1h-26.7c-1 0-2.6.3-2.9 1.3l-.8 2.9c-.2.7 1 1 1.8 1h19.9c8.9 0 7.8 7 7.1 9.6l-2.3 8.9c-1.2 4.8-5 12.4-15.1 12.4h-38.5l2.1-8h28.7c1 0 2.3-.3 2.6-1.3l.8-2.6c.3-1-.7-1.8-1.6-1.8h-20.2c-3.5 0-8.8-1.4-6.5-9.6l3-10.9c1.7-6.1 8.1-10 15.7-10z"/><path d="m462.7 33.3c-5.8 0-10.8 2.6-13.6 13.1l-4.9 18.5c-.6 2.1-.9 4.3-.9 6.5 0 5.1 3.8 6.3 7.4 6.3h42.6l2.4-8.7h-28.3c-1.9 0-3.5-2-3-3.8l1.3-4.9h34.3l4-14.6c.5-1.9 1-4 1-6 0-5.7-6-6.4-7.2-6.4zm19.6 8.8c1.4 0 2.3 1.5 2 2.8l-1.8 6.9h-14.4l2-7.4c.3-1.3 1.9-2.3 2.6-2.3z"/></g></svg>