<svg viewBox="0 0 560 100" xmlns="http://www.w3.org/2000/svg"><g id="figure" fill="#fff"><g transform="scale(.1)"><path d="m279.4 257.2v148.7h260.9v192.9h-260.9v371.7h-259.4v-934.7h589.9v221.4z"/><path d="m717.5 35.8h257.8v934.7h-257.8z"/><path d="m1081.2 35.8v218.4h206v716.3h257.4v-716.3h206v-218.4z"/><path d="m2197.8 388.5c-90.1-13-140.8-25.3-140.8-83.8 0-36.4 15.8-87 147.1-87 63.3 0 145.5 7.9 242 23.7l11.1 3.2v-204l-9.5-1.6c-83.1-8.3-166.3-19-249.9-19-248.3 0-373.3 98.1-373.3 291 0 210.3 131.1 259.4 259.4 278.4l31.7 4.7c91.8 13.6 145.5 25.4 145.5 90.2 0 63.3-47.5 96.4-147.1 96.4-79.1 0-181.9-17.4-264.1-33.2l-12.7-3.2v204.1l7.9 1.6c104.4 20.6 191.4 28.4 284.7 28.4 242 0 370.1-104.3 370.1-303.6 0-240.4-161.3-266-291-284.7z"/><path d="m2591.2 35.8v218.4h206v716.3h257.4v-716.3h206v-218.4z"/><path d="m3570.8 499.2c0-140.8-1.5-253 107.6-253 107.5 0 109.1 112.2 109.1 253s-1.6 254.6-109.1 254.6-107.6-113.8-107.6-254.6zm-251.4 0c0 202.4 0 480.8 365.3 480.8 352.7 0 351.1-278.4 351.1-480.8s1.6-479.2-351.1-479.2c-365.3 0-365.3 276.8-365.3 479.2z"/><path d="m4157.1 35.8v934.7h257.8v-305.2c31.6 1.6 50.6 1.6 66.4 1.6l147.1 303.6h251.5l-161.4-349.5c106-55.4 161.4-158.2 161.4-278.4 0-235.7-193-306.8-435-306.8zm259.4 207.2h72.7c104.4 0 145.5 25.3 145.5 107.5 0 80.7-41.1 107.6-145.5 107.6h-72.7z"/><path d="m4990.1 35.8v934.7h588.3v-221.4h-330.5v-150.3h289.4v-192.9h-289.4v-148.7h332.1v-221.4z"/></g></g></svg>