<svg viewBox="0 0 300 100" xmlns="http://www.w3.org/2000/svg"><g id="figure"><path d="m126.2 2h-100.6l-23.6 96h100.4c28.5 0 38.9-23.7 38.9-35.9.1-6-2.1-12-7.4-14.5 8.2-5.5 13.8-15.9 14-27 0-13.7-10.6-18.6-21.7-18.6zm-25.5 22.6c3.6 0 7.5-.7 9.1 3 1.4 4-.8 10.4-4.6 12.4-1.6.9-3.2.9-5 .9h-47l4.4-16.3zm-8.7 33.6c7.1 0 10.7-.3 11.8 3.6.9 3.2.3 7.9-3.9 11.4-2.5 2.1-5.2 2.3-9.7 2.3h-45.2l4.6-17.3z"/><path d="m260.7 2-8.2 33.3h-57.1l8.1-33.3h-37.4l-23.4 96h37.3l9.4-38.3h57.1l-9.3 38.3h37.4l23.4-96z"/></g></svg>