<svg viewBox="0 0 87 100" xmlns="http://www.w3.org/2000/svg"><defs><clipPath id="c"><path d="m43.5 5c-13.6 0-24.8 3.4-38.4 7.1v20.4c0 25 6.2 42.1 25 56.1 2.7 2 11.8 6.8 13.4 6.8s10.7-4.8 13.4-6.8c18.8-14 25-31.1 25-56.1 0-6.8-.1-13.6-.1-20.4-13.6-3.7-24.7-7.1-38.3-7.1z"/></clipPath><mask id="m"><path fill="#fff" d="m2 2v96h83v-96z"/><path d="m35 28.5 1 2 2.4.3-1.9 1.5.6 2.3-2.1-1.2-1.9 1.2.4-2.2-1.8-1.5 2.3-.3z"/><path d="m44.1 27.5 1.2 2.4 2.6.2-1.9 1.8.5 2.6-2.3-1.3-2.3 1.5.5-2.7-2-1.7 2.6-.3z"/><path d="m53.3 28.5 1 2 2.4.3-1.9 1.5.6 2.3-2.1-1.2-1.9 1.2.4-2.2-1.7-1.5 2.2-.3z"/><path d="m51.3 76.6c-.6 0-1.3.5-1.8.9l-2.2 1.8 4.4 5.3 2.6-2.2c.6-.5 1.1-1 1.1-1.6 0-.7-.4-1.5-1.1-1.8-.5-.2-.9 0-1.4.1.1-.4.3-.8.2-1.3-.3-1.2-1.5-1.2-1.8-1.2zm.2 2.7-1 .9-.9-1 1-.8c.6-.5 1.3.5.9.9zm1.1.8c.6-.5 1.8.4.7 1.3l-1.1.9-.9-1.1z"/><path d="m55.4 72.3-1.6 1.6 3.5 6.2 1.2-1.2-.8-1.2 1.4-1.4 1.3.7 1.4-1.5zm.5 2.3 1.9 1-.8.8z"/><path d="m59.5 67.4-2 2.7c1.8 1.3 3.7 2.6 5.5 3.9l1.3-1.6-2.2-1.6.5-.6 2.6.8c.5-.6 1.1-1.2 1.5-1.8l-3.2-.7c0-.4.1-.8 0-1.2-.3-.8-1.3-1.3-1.8-1.3-.8 0-1.3.2-2.2 1.4zm2.3 1.6-.7 1.1-1.4-.9.9-1.1c.2-.3.6-.3 1-.1.3.2.4.7.2 1z"/><path d="m65.2 59.8c-1 0-1.5.8-2 1.7l-1.4 2.5 6 3.2 1.9-3.3c.3-.5.4-1 .2-1.5-.3-.7-1.1-1.3-1.9-1.3-.5 0-.8.3-1.1.6 0-.4 0-.9-.2-1.2-.3-.5-.9-.7-1.5-.7zm.5 2.6-.7 1.2-1-.5.7-1.3c.3-.6 1.4 0 1 .6zm2.4 1.4-.6 1.1-1.2-.6.7-1.4c.4-.7 1.6-.1 1.1.9z"/><path d="m66.8 53 1.5.6-1.1 2.9 1 .4.9-2.4 1.3.5-.9 2.4 1.1.4 1.2-2.9 1.5.6-1.9 4.8-6.4-2.5z"/><path d="m73.2 48.5 1.6.4-1 4.6-6.7-1.8.5-1.9 5 1.2z"/><path d="m73.9 42 1.6.2-.5 4.8-6.7-1 .2-2 5.1.7z"/></mask><mask id="n"><path fill="#fff" d="m43.5 2c-14.8 0-27.7 3.2-41.3 7.8-.1 9.5-.2 14.4-.2 22.7 0 12.8.3 39.8 24.5 56.8 7 4.9 14.9 8.7 17 8.7s10-3.8 17-8.7c24.2-17 24.5-44 24.5-56.8 0-10 0-13.5-.2-22.7-13.6-5.1-26.8-7.8-41.3-7.8z"/><path clip-path="url(#c)" d="m2 2v96h83v-96z"/></mask></defs><g id="figure" fill="#fff"><path mask="url(#m)" d="m77.9 38.1c.1 20.5-9.7 39.3-26.2 48.8-7.8-2.6-15.5-7.5-15.7-16.5-.1-5.7 4.2-14 13.3-15 3.6-.4 6.1.9 8.9 5.1 1.6-5.2 2.6-8.9-.4-14-.7-1.2-1.9-2.1-3.2-2.6-.1 0-.3-.1-.4-.2s-.1-.2-.2-.4c-.8-1.6-1.8-3.2-3.3-4.3-5.1-3.7-7.9-4.1-13.7-5-12.5-2-27.3 3.7-28 4l-.3-.2c.4-.4 14-12.5 34.2-12.5 13.5 0 25.6 4.7 35 12.8z"/><path d="m14.2 13.5-3.5 1.4-2.6 20.2 2.8-1.7.3-3.4 2.6-1.5.3 2.5 2.8-1.3zm-1.7 5.2.9 6.1-1.6.8z"/><path d="m28.5 10.2v14.4l-2.4.6v-8.5l-1.6 9.3-2.4.9-1.5-8.9-.1 9.7-2.3 1.1v-16.5l3.4-.9 1.7 9.9 1.8-10.7z"/><path d="m37 9.1v3.2l-4.2.5v2.2l3.9-.5v2.8l-3.9.4v2.4l4.2-.4v3.1l-6.5 1.1v-14.1z"/><path d="m41.1 8.9c-.7 0-1.6 0-2.3.2v13.3h2.5v-3.8c.5-.1 1.2-.2 1.7.1.3.2.4.5.4.8v2.9l2.4.1v-3.2c0-1-.3-1.9-1.1-2.5 1.3-.9 1.4-2.9 1.4-3.9 0-4.2-4.7-4-5-4zm2.3 4.2c0 .6.1 1.1 0 1.7 0 .2-.4.6-.6.6-.5 0-.9-.1-1.4-.1v-3.1c.7-.1 1.2-.1 1.6.1s.4.5.4.8z"/><path d="m47.7 9.2h2.5v13.8c-.8-.1-1.7-.4-2.5-.5z"/><path d="m55.5 9.4c1.2 0 2.3.8 3 1.4.6.5.9 2.2.9 5-.8-.2-1.7-.4-2.5-.6 0-.6.1-1.2-.3-1.8-.4-.5-1.2-.5-1.6 0-.7 1-.9 4.1-.2 5.9.2.6.6 1.1 1.2 1.4.5.2.9-.2 1-.6s0-.9 0-1.4c.9.2 1.7.3 2.4.5 0 .5-.1 1-.1 1.5-.1 1-.1 2.1-.6 3-.3.6-1.7.6-2.1.6-4.1 0-4.7-5.6-4.7-7.7 0-7.6 3.6-7.2 3.6-7.2z"/><path d="m62.7 11-2.5 14.4 2.5.9.5-2.7 2.7.9.3 3.3 2.5 1.3-2.4-17.2zm1.6 4.4 1 5.9-1.8-.6z"/><path d="m70.1 12.9 3.4 1.3 2.7 13.2v-12.3l2.3 1v18.9l-3.5-2.1-2.6-13.5h-.1v11.8l-2.2-1.3z"/><path d="m31.5 35.5c-6.9 0-16 1.6-22.4 4.7 0 2.5 1.2 9.9 1.3 10.4 5.8-2.2 12.9-1.4 14.5-.4-4.2-.4-10.6 1.5-13.7 3.9 1 3.6 1.4 4.8 2 6.5.8-.8 8-7.2 14.4-8.4-3.3 1.6-10.6 7.3-13.1 12 .5 1.3 2.3 4.5 4 6.8.5-1.2 4.5-11.8 10.9-15.9-4.9 5.4-7.7 11.1-9.3 18.3 1.3 2.2 3.7 4.8 5.5 6.2l.5.1c-2.3-12.3 4.8-19.9 4.9-20-5 7-2.7 15.9 0 24 .3.8 1 1.2 1.6 1.6 3.7 2.6 7.1 4.2 11.3 5.6.2.1.5.1.7 0 1.5-.6 3.2-1.9 4.5-2.7-7.9-3.4-14.4-7.6-14.7-17.2-.3-8.6 5.6-16.8 15.6-17.6 2.8-.2 5.1 1.1 7.4 2.5.2-1 .2-2.2.1-3.2-.2-3.7-1.5-5.1-4.1-7.3-.2-.2-.6 0-.8-.2-.2-.1-.2-.4-.3-.6-4.1-7.8-15-9.1-20.8-9.1zm12.8 9.1c2.1.1 3.8.9 5.9 1.1-.8.3-1.1 1.2-1.8 1.6-.2.1-.5.1-.7-.1-1.1-.9-2.4-1.7-3.4-2.6z"/><path mask="url(#n)" d="m2 2v96h83v-96z"/></g></svg>