<svg viewBox="0 0 608 100" xmlns="http://www.w3.org/2000/svg"><g id="figure" fill="#fff"><path d="m25.2 97.2c-2.54.07-23.2.11-23.2-16.7v-58.3c0-16.96 16.24-18.96 23.2-18.8l49.2 1.1v8.2h-46c-9.07 0-13.6 3.67-13.6 11.1v22l52.6.7v7.7l-52.6.7v21.9c0 4.18.66 10.99 14.3 11h45.4v8.1z"/><path d="m108.6 50.3h31.7c18.59 0 19.8-11.23 19.8-19.4 0-6.29-.47-18.41-19.8-18.4h-31.7zm-12.8 46.4v-93.3h44.5c20.09 0 32.38 5.54 32.4 27.5.01 12.93-3.84 21.48-19 25.5l24.6 40.3h-13.1l-22.9-38.3c-11.21.27-22.49-.19-33.7-.4v38.7z"/><path d="m260.58 54.7-27.78-.5v-7.7l39.9-.6v47c-15.07 2.84-25.16 4.4-41.1 4.4-29.74 0-41.5-9.09-41.5-47.6 0-36.37 12.28-47.2 42.4-47.2 9.33 0 23.62 1.36 33.8 3.5v7.4c-10.58-1.08-21.16-1.86-31.8-1.9-23.39 0-31.7 7.64-31.7 38.3 0 31.67 7.66 38.5 31.4 38.5 8.46 0 18.26-.78 26.4-1.6l.02-32z"/><path d="m341.1 50.4-24.2 18.3v-36.6zm26.6 0-24.2 18.3v-36.6z"/><path d="m302.9 50.4c-.05 34.89 9.89 40.8 35.8 40.8 30.9 0 35.95-12.19 35.9-40.8 0-34.86-10.01-40.8-35.9-40.8-31.25 0-35.76 14.1-35.8 40.8zm35.8 47.6c-35.77 0-48.4-9.25-48.4-47.6 0-38.36 13.91-48.4 48.4-48.4 35.63 0 48.5 9.53 48.5 48.4 0 38.37-12.75 47.6-48.5 47.6z"/><path d="m404.5 96.7v-74.5c0-18.51 19.44-18.9 23.2-18.8l47 1.3v8h-44c-7.65 0-13.52 3.19-13.5 11v22.2l50.4.7v7.7l-50.4.6v41.8z"/><path d="m492.9 96.7h12.8v-93.3h-12.8z"/><path d="m557.1 96.7v-84.2h-36.5v-9.1h85.4v9.1h-36.3v84.2z"/></g></svg>