<svg viewBox="0 0 304 100" xmlns="http://www.w3.org/2000/svg"><g fill="#fff" class="figure"><path d="m2 2v42.2h19.2c8-.4 12.5-1.9 14.3-9.2l-22.8 1.3v-10.3l21.6-.1c-1.6-2.1-3.6-3.6-6.2-4.1 1.4-.7 2.6-1.3 3.6-2.5 3.7-4.4 3-12.1-1.8-15.4-2.2-1.6-4.7-1.9-9.4-1.9zm17.3 8.6c1.4.1 2.8.6 3.4 2 .8 1.9.4 5.1-2 5.6l-7.3.3c0-2.7 0-5.3 0-8z"/><path d="m41.3 2v23.9h10.2v-23.9zm10.2 32-10.2.6v9.6h10.2z"/><path d="m70.9 12.9c-10.1 0-12.3 4.2-13.4 9.5l9.6 1.1c.6-1.3 1-2.5 2.5-3.1 1.6-.6 3.8-.9 5.3 0 1 .7 1 2.3 1.2 3.4-1.9.9-3.9 1.5-6 2h15.8c.5-12.8-8.4-12.9-15-12.9zm5.1 19.8c-.1 3.7-3.8 6.5-7.3 5.4-2.1-.9-2.2-3.1-1.1-4.9l-10.7.5c-.1.9-.2 1.7-.2 2.6 0 3.9 2.6 8.6 10.1 8.6 3.7 0 7.3-1.4 9.7-4.4.2 1.4.6 2.5 1.2 3.7h9.5c-2-3.9-1.1-7.8-1.3-12z"/><path d="m106.1 12.9c-1.5 0-3 .2-4.5.5-5.9 1.1-10.1 6.5-10.7 12.3h10.2c.6-1.4 1-2.6 2.2-3.6 1.6-1.4 4-1.5 5.8-.6 1.3.7 1.7 2 2.2 3.4l9.6-1.5c-1.2-4-3.3-7.5-7.3-9.2-2.3-.9-5-1.3-7.5-1.3zm-5.1 18.8-10.1.4c.5 4.7 3.2 9.2 7.5 11.3 2.5 1.2 5.5 1.5 8.3 1.5 2.7 0 6.6-.2 10-3.1 2.5-2.1 4-5.3 4.6-8.4l-9.5-1.2c-.6 1.4-1 2.8-2.3 3.8-2.1 1.7-5.5 1.2-7.1-1-.8-1-1.1-2.1-1.4-3.3z"/><path d="m126 2v23.6l21.5-.1-.6-1.2 9.6-10.6h-12.6l-7.6 10.1v-21.8zm23.7 27.9-23.7.8v13.6l10.3-.1v-7.9l3.9-4.4 5.3 12.3h11.5z"/><path d="m172.3 2-10.2 6v5.7h-3.8v8.5h3.8v3.3h10.2v-3.3h5.5v-8.5h-5.5zm0 27.2-10.2.2c0 3.2-.2 6.7.5 9.8 1.2 5 5 5.7 8.8 5.7 2.3 0 4.6-.5 6.8-1l-.8-8c-1.7.5-4.5 1.3-4.8.1-.4-2.3-.3-4.5-.3-6.8z"/><path d="m192.8 2h-10.2v23.4h10.5c.4-.8.6-1.6 1.3-2.2 1.2-1.3 3.4-1.6 4.7-.3.7.6 1 1.7 1.3 2.5h10.3c-.1-3.5-.3-7.4-2.9-10.1-2.7-2.7-6.9-3-10.3-1.6-2 .8-3.3 2.2-4.7 3.8zm17.9 26.2-10.3.3v15.7h10.3zm-17.9.4-10.2.3v15.3h10.2z"/><path d="m230.7 12.9c-1.5 0-3 .2-4.5.5-5.6 1.4-9.6 6.3-10.5 11.9h10.2c.5-1.2 1-2.6 2.1-3.4 1.5-1.2 3.7-1.3 5.2-.1 1.2.9 1.5 2.2 2.1 3.5h10.2c-.8-4.5-3.2-8.7-7.4-10.8-2.3-1.1-4.8-1.6-7.4-1.6zm15.2 14.5-10.3.2c0 2.6.2 5.4-1.5 7.6-1.5 2-4.5 2.4-6.3.7-2.2-1.9-2.3-5.4-2.2-8.1l-10.2.2c0 3.6.5 7 2.4 10.1 3.4 5.5 8.7 6.8 13.1 6.8 8.8 0 12.6-5.9 14-10 .8-2.4 1-5 1-7.5z"/><path d="m266.8 12.9c-.8 0-1.6.1-2.4.4-2.3 1.1-3.1 3.2-4.2 5.3l.1-5h-9.5v11.7l11.1-.2c1.9-3.9 3.3-3.5 6.6-2.2l3.1-8.4c-1.6-.8-3.1-1.6-4.8-1.6zm-5.3 14.1-10.7.3v16.9h10.2c-.2-5.7-.4-11.6.5-17.2z"/><path d="m282.7 18.6v-5h-9.4v11.5h10.6c.4-.8.8-1.8 1.5-2.3 1.3-.9 3.1-1 4.3.1.6.5 1 1.4 1.3 2.1h5.9l.1 1.4-5.9.1v17.7h10.2v-19.9c0-5.8-2-11.4-8.9-11.4-3.3 0-7.2 2.4-9.7 5.7zm-9.4 8.2v17.4h10.1c0-3.6 0-7.2 0-10.8 0-2.3-.1-4.5.2-6.7z"/><path d="m46 70.1c-3.8 0-7.3 2-9.4 5.2-1.4 2.2-1.9 4.3-1.9 5.4 0 4.5 2.9 9 7.1 10.5 1.4.5 2.3 1.8 3.6 2.7 3.3 2.4 7.2 4.1 11.2 4.1.4 0 .6-.2 1-.4-3.9-.4-7.2-2.3-8.9-5.9 3-.8 5.6-2.5 7.2-5.2 1.9-3 2-7.1.4-10.3-2.1-4.3-6.5-6.1-10.3-6.1zm0 1.1c1.8 0 3.5.6 4.8 1.9 1.9 1.9 2.5 4.7 2.6 7.3s-.4 5.7-2.1 7.8c-1.9 2.3-5.3 3.5-8.1 2.1-2.7-1.3-4-4.2-4.4-7-.3-2.8-.2-6.2 1.3-8.7 1.6-2.8 4.3-3.4 5.9-3.4z"/><path d="m16.8 70.6v1.4h-11v7.4h7.3v1.4h-7.3v9.3h11v1.3h-14.6v-20.8z"/><path d="m79.9 70.6v13.7c0 1.8.7 3.4 2 4.6 2.4 2.2 6 2.1 8.9.1 1.4-1.2 2-2.9 2-4.7v-13.7h1.6v10.7c0 5.2-.2 7.1-3.4 9.3-1.7 1-3.6 1.3-5.5 1.3-3.3 0-6.4-.9-8.1-3.8-1-1.6-1.1-3.5-1.1-5.3v-12.2z"/><path d="m117.7 70.6v20.8h-3.5v-20.8z"/><path d="m137.9 70.6v20.8h3.5v-9.5c3 .3 5.9.7 8.6-1 1.5-.9 2.3-2.7 2.3-4.4 0-1.4-.5-2.8-1.5-3.7-1.7-1.6-3.9-2.1-6.2-2.2zm8.8 2.4c2.3 1.6 2.7 5.5.3 7.3-1.7 1.2-3.7.8-5.6.4v-8.4l2.3-.1c.9 0 2.1.2 3 .8z"/><path d="m173.9 70.6 8.2 16 8.1-16h3.5v20.9h-3.5v-17.3l-9 17.3-9.2-17.1v17.1h-1.6v-20.9z"/><path d="m228.5 70.6v1.4h-11v7.4h7.3v1.4h-7.3v9.3h11v1.3h-14.6v-20.8z"/><path d="m249.2 70.6 13.8 15.4v-15.4h1.6v21.6l-15.7-17.4v16.7h-1.6v-20.9z"/><path d="m301.4 70.6v1.4h-7.6v19.4h-3.4v-19.4h-7.6v-1.4z"/></g></svg>