<svg viewBox="0 0 752 100" xmlns="http://www.w3.org/2000/svg"><g fill="#fff"><path d="m24.4 2h31.2c10.7 0 23.2 9.1 23.2 22.1 0 18.1-16.5 32.3-33.2 32.3h-24.3l-6.8 35.6c-.6 3.2-3.5 6.1-7 6-3.2 0-5.5-2.4-5.5-5.5 0-1.7.5-3.4.8-5.1l8.4-43.5h34.4c10.1 0 20.4-7.6 20.6-17.5.1-6.2-5-11.9-13.5-11.9h-28.1c-3.9 0-6.7-1.5-6.8-6.1 0-3.3 3.2-6.4 6.6-6.4z"/><path d="m284.2 2h35.7c3.4 0 4.7 2.6 4.7 4.1 0 3.4-2.3 7.3-6.2 7.3h-30.4c-10.9 0-18.2 11.1-18.2 19.2 0 6 4.9 11.1 12.4 11.1h9.2c12.3 0 21.6 10.1 21.5 22.9-.2 18-15.5 31.4-33.9 31.4h-27.5c-3.4 0-5.6-2.2-5.5-5.7.1-3.2 2.7-6.3 7.3-6.3h27.7c11.5 0 19.7-10.3 19.7-19.5 0-6.5-5.6-10.9-11.7-10.9h-9.4c-12.8 0-21.9-10-21.9-22.9 0-16.7 16.5-30.7 26.5-30.7z"/><path d="m107.3 2.3c2.9 0 5.7 2.8 4.9 7.1l-10.6 55.5c-2.2 11.7 5.5 20.6 15.2 20.7 8.3.1 24-3.5 27.9-24.1l9.8-51.7c.7-3.9 2.2-7.5 7.4-7.5 3.6 0 5.9 3.1 5.2 6.9l-10.7 56.1c-3.6 18.7-20.5 32.6-40.2 32.7-15.5.1-27.4-11.7-27.5-27.3 0-2.2.2-4.4.6-6.6l10.4-54.5c.8-4.3 2.6-7.3 7.6-7.3z"/><path d="m201.2 9-14.5 76.5h38.3c2.6 0 5.5 2.8 5.5 5.4 0 3.7-2.9 7.1-6.5 7.1h-45c-6.4 0-6.2-5.4-6-6.7l15.6-81.8c.8-4 3.1-7.1 7.3-7.3 2.8 0 6.1 2.5 5.3 6.8z"/><path d="m358.6 2.1h53.3c4.2 0 8.3 1.1 8.3 5.6 0 3.6-3.1 7-6.7 7h-51.4l-5.2 29.2 49 .1c3.1 0 6.8 1.5 6.4 6.1-.4 5-4.8 6.4-9 6.4h-48.6l-5.3 29.5h49c5.9 0 7.1 3.7 6.5 6.3-.9 3.8-3 5.7-8.7 5.7h-55.7c-2.5 0-4.9-3-4.2-6.7l14.9-83c.7-4 3.9-6.2 7.4-6.2z"/><path d="m506.6 2.3c3.1 0 5.5 2.6 5.4 5.7-.1 3.7-3.4 6.7-7 6.7h-39.2l-14.3 75.4c-.8 4-2.6 7.8-7.7 7.8-4.7 0-5.5-4.2-4.7-8.4l15.4-81.3c.3-1.3 1.5-5.9 8-5.9z"/><path d="m569.2 2c-35.7.3-57.8 32.1-58 54.6-.3 25.9 17 41.2 39.7 41.4 30.1.2 57.8-26.3 57.9-57.4 0-20.5-16.2-38.8-39.6-38.6zm-2.2 12.5c21.3-.2 29.2 17.3 29.2 26.1.1 27.8-23.1 45-45.2 44.8-14.1-.1-28-11.7-27.2-29.3 1-22.3 21.5-41.4 43.2-41.6z"/><path d="m646.3 9-14.5 76.5h38.3c2.6 0 5.5 2.8 5.5 5.4 0 3.7-2.9 7.1-6.5 7.1h-45c-6.4 0-6.2-5.4-6-6.7l15.6-81.8c.8-4 3.1-7.1 7.3-7.3 2.8 0 6.1 2.5 5.3 6.8z"/><path d="m720.7 9-14.5 76.5h38.3c2.6 0 5.5 2.8 5.5 5.4 0 3.7-2.9 7.1-6.5 7.1h-45c-6.4 0-6.2-5.4-6-6.7l15.6-81.8c.8-4 3.1-7.1 7.3-7.3 2.8 0 6.1 2.5 5.3 6.8z"/></g></svg>