<svg viewBox="0 0 156 100" xmlns="http://www.w3.org/2000/svg"><g id="figure"><path d="m109.9 97.5v-3.5h-3.6v-6.6h3.6v-3.5h-3.6v-6.6h3.6v-3.5h-7v23.7zm-35.7-5c0 1.1-.9 2-2 2s-2-.9-2-1.4v-19.2h-3.5v18.7c0 3 2.4 5.5 5.5 5.5 3 0 5.5-2.5 5.5-5.5v-18.7h-3.5zm5-15.2h4.5v20.1h3.5v-20.1h6.3v20.2h3.4v-20.2h4.5v-3.4h-22.2zm50.3 20.1v-10h3.5v-3.5h-3.5v-6.6h3.5v-3.5h-7v23.6zm10-23.5h-3.5v23.6h6.9v-3.5h-3.5zm8.9 9-2.2-9h-3.4l3.8 13.6v10h3.5v-10l3.9-13.6h-3.4zm-31.4-9h-3.9v23.6h3.2v-10.9c.5.1 1 0 1.4 0l2.7 10.9h3.5l-3.3-12c1.7-1.2 2.8-3.2 2.8-6-.1-2.7-2.9-5.6-6.4-5.6zm-.7 9.2v-5.7c1-.2 2 .1 2.7.8.5.5.9 1.3.9 2.1s-.3 1.5-.9 2.2c-.6.6-1.7.9-2.7.7zm-58-9.2h-3.9v23.6h3.9c3.9 0 6.4-2.8 6.4-6.4 0-2.2-1.1-4.2-3-5.4 1.8-1.2 3-3.2 3-6.1s-3-5.8-6.4-5.8zm-.7 20v-5.7c1-.2 2 .1 2.7.8.5.5.9 1.3.9 2.1s-.3 1.5-.9 2.2c-.6.6-1.7.9-2.7.7zm0-10.8v-5.7c1-.2 2 .1 2.7.8.5.5.9 1.3.9 2.1s-.3 1.5-.9 2.2c-.6.6-1.7.9-2.6.7z"/><path d="m9.1 45.7c10 17.3 26.3 26.6 36.4 20.8s10.2-24.6.2-41.9c-10-17.4-26.3-26.7-36.4-20.9-10.1 5.9-10.2 24.6-.2 42zm53-21.1c-10 17.3-9.9 36.1.2 41.9s26.4-3.5 36.4-20.8c10-17.4 9.9-36.1-.2-42-10.1-5.8-26.3 3.5-36.4 20.9z"/></g></svg>