<svg viewBox="0 0 412 100" xmlns="http://www.w3.org/2000/svg"><g id="figure" fill="#d30b0b"><path d="m280.9 29.2-20.8-21c-5.3-5.3-3.8-5.2-3.8-5.2l-29.3-1s.2 7.6-5.9 14.5c-6 6.9-10.5 11.2-15.2 15.1-4.7-3.9-9.1-8.2-15.2-15.1-6-6.9-5.8-14.5-5.8-14.5l-29.4.9s1.5 0-3.8 5.3l-20.5 21s23.4 22.9 23.8 23.3-1.5 1.8-1.5 1.8l36.7 1s-9.6-2.9-15.4-8.2c-7.1-6.6-16.2-16.7-16.2-17.9 0-3.4 13.1-12.7 13.2-12.8s-1.4 1.8 6.2 11.1c7.6 9.2 28 29.2 28 29.2s20.4-19.9 28-29.2c7.7-9.3 6.2-11 6.2-11.1s13.2 9.4 13.2 12.8c0 1.2-9 11.5-16.2 17.9-5.9 5.3-15.4 8.2-15.4 8.2l36.7-1s-1.9-1.4-1.5-1.8 23.9-23.3 23.9-23.3z"/><path d="m2.2 70.4v27.6l6.7-.3v-20.4c7.3.2 14.6.3 21.9.5v18.9l7-.2v-18.6l16.9.3c1.4 1.1 2.9 2.2 4.3 3.2v14.1l6.7-.2v-15.4c-2.8-2.4-5.8-4.8-8.7-7.4-18.2-.6-36.5-1.2-54.8-2.1z"/><path d="m75.5 80.1v8.2c2.9 2.3 5.7 4.5 8.7 6.7 15.4-.4 30.7-.7 46.2-1v-4.8c-14.6.1-29.2.3-43.8.5-1.7-1.2-3.5-2.3-5.2-3.5v-4c1.7-1.2 3.5-2.4 5.2-3.4 14.6.2 29.2.4 43.8.5v-4.8c-15.4-.3-30.7-.6-46.2-1.1-3 2.2-5.8 4.4-8.7 6.7z"/><path d="m141.6 74.6v19.1c15.4-.2 30.7-.2 46.2-.3l8.7-5.8v-6.8l-8.7-5.8c-15.4-.1-30.7-.2-46.2-.4zm43.8 14.3c-12.6 0-25.2.1-37.7.2v-9.6c12.6.1 25.2.1 37.7.1l5.2 3v3.3z"/><path d="m227.2 74.9c-9.2 6.2-18.5 12.3-27.8 18.5h10l5.4-3.6c10.8 0 21.5 0 32.3.2 1.8 1.2 3.5 2.5 5.4 3.7l9.4.1c-9.1-6.5-18.2-12.8-27.4-18.9zm-7.1 11.3c3.6-2.4 7.2-4.8 10.9-7.2 3.6 2.4 7.2 4.8 10.7 7.3z"/><path d="m283.5 89.7c-7.2-5.2-14.3-10.2-21.5-15.1l-9.4.1c9.1 6.2 18.2 12.7 27.4 19.4l7.2.2c9.2-6.5 18.5-13.5 27.8-20.9l-10 .3c-7.1 5.7-14.2 11-21.4 16.1z"/><path d="m322.6 95.2 6.7.2v-22.4l-6.7.2z"/><path d="m387 70.8c-15.4.7-30.8 1.3-46.1 1.8v23.1c15.4.5 30.8 1.2 46.1 1.8 2.9-2.7 6.2-5.5 9.1-8.3v-10.1c-3-2.9-6.2-5.6-9.1-8.3zm-2.3 20.2c-12.6-.3-25.2-.6-37.7-.8v-12c12.6-.2 25.2-.5 37.7-.8 1.7 1.4 3.4 2.9 5.1 4.3v4.8c-1.7 1.5-3.4 3-5.1 4.4z"/><path d="m404.5 72.2v.7h-1.3v3.5h-.9v-3.5h-1.3v-.7zm4.5 4.2-.2-3.4-1.1 3.4h-.9l-1-3.4-.2 3.4h-.8l.3-4.2h1.3l1 3.2 1.1-3.2h1.2l.3 4.2z"/></g></svg>