<svg viewBox="0 0 1030 100" xmlns="http://www.w3.org/2000/svg"><g id="figure" fill="#fff"><path d="m264.6 49.7-36.4-36.8c-9.3-9.3-6.6-9.2-6.6-9.2l-51.5-1.7s.3 13.3-10.3 25.4-18.3 19.6-26.6 26.5c-8.3-6.9-16-14.4-26.6-26.5s-10.3-25.4-10.3-25.4l-51.5 1.5s2.7 0-6.6 9.3l-36.2 36.9s41.1 40.2 41.8 40.9-2.6 3.2-2.6 3.2l64.4 1.7s-16.8-5-27.1-14.3c-12.5-11.6-28.5-29.4-28.5-31.4 0-5.9 23-22.2 23.2-22.4s-2.5 3.2 10.8 19.4 49.2 51.2 49.2 51.2 35.7-34.9 49.2-51.2 10.8-19.2 10.8-19.4 23.2 16.5 23.2 22.4c0 2-15.9 20.1-28.5 31.4-10.3 9.3-27.1 14.3-27.1 14.3l64.4-1.7s-3.3-2.5-2.6-3.2 42-40.9 42-40.9z"/><path d="m312.9 25.9v48.4l11.8-.6v-35.7l38.4.9v33.2l12.3-.5v-32.5l29.6.5c2.5 1.9 5.1 3.8 7.6 5.7v24.7l11.8-.3v-27.1c-5.1-4.2-10.2-8.5-15.3-13-32-1-64-2.2-96.2-3.7z"/><path d="m441.6 42.9v14.3c5.1 4 10.1 7.9 15.3 11.8 26.9-.7 53.9-1.3 81-1.8v-8.4c-25.6.2-51.2.5-76.8.8-3-2-6.1-4-9.1-6.2v-6.8c3-2 6.1-4.1 9.1-6 25.6.3 51.2.6 76.8.8v-8.4c-26.9-.5-53.9-1.1-81-1.9-5.2 3.9-10.2 7.8-15.3 11.8z"/><path d="m557.5 33.3v33.5c26.9-.3 53.9-.4 81-.6l15.3-10.1v-12l-15.3-10.1c-26.9-.2-53.9-.4-81-.7zm76.9 25c-22.1 0-44.1.1-66.2.3v-16.9c22.1.2 44.1.2 66.2.2l9.2 5.2v5.8z"/><path d="m707.7 33.8c-16.2 10.9-32.5 21.6-48.7 32.4h17.6l9.4-6.3c18.9 0 37.7.1 56.6.4 3.2 2.2 6.2 4.3 9.4 6.5l16.5.2c-16-11.5-32-22.4-48-33.2zm-12.5 19.9c6.4-4.2 12.7-8.4 19.1-12.6 6.4 4.2 12.6 8.4 18.8 12.8z"/><path d="m806.4 59.8c-12.6-9.3-25.1-18-37.7-26.6l-16.5.1c16 10.9 32 22.3 48 34.1l12.6.3c16.2-11.5 32.5-23.6 48.7-36.6l-17.5.5c-12.5 9.9-25 19.3-37.6 28.2z"/><path d="m874.9 69.4 11.8.3v-39.2l-11.8.3z"/><path d="m988 26.6c-26.9 1.2-54 2.4-80.9 3.2v40.6c26.9.8 54 2 80.9 3.2 5.1-4.7 11-9.6 16-14.5v-18c-5.2-5.1-10.9-9.8-16-14.5zm-4.1 35.4c-22.1-.5-44.1-1.1-66.2-1.4v-21c22.1-.3 44.1-.9 66.2-1.4 3 2.5 6 5.1 8.9 7.6v8.4c-3 2.7-6 5.3-8.9 7.8z"/><path d="m1018.6 29.1v1.2h-2.3v6.2h-1.5v-6.2h-2.3v-1.2zm7.9 7.4-.4-6-2 6h-1.5l-1.7-6-.4 6h-1.4l.5-7.4h2.2l1.7 5.6 1.9-5.6h2.1l.5 7.4z"/></g></svg>