<svg viewBox="0 0 525 100" xmlns="http://www.w3.org/2000/svg"><g><path d="m219.1 2h41.1v32.7l-5.7-.2v31l5.7-.2v32.7h-38.2l-7.5-14.9v14.9h-41.3v-4.7c-5.9 4.1-12.6 4.7-16.3 4.7h-19.4c-8.2 0-13-2.2-16.1-4.3v4.3h-25.2c-5.9 0-11.8-1.2-15-6.3v6.3h-79.2v-32.7l5.7.2v-31l-5.7.2v-32.7h88.2c7.3 0 19.1 1.9 23.7 13.5 2.2-5 8.2-13.3 23.6-13.5h19.3c8.8 0 13.6 2.5 16.4 4.5v-4.5h38.3l7.6 15.3z"/><path d="m505.8 34.5v31l5.7-.2v32.7h-41.4v-21l-11.2 20.1-11.1-20.1v21h-41.4v-32.7l5.7.2v-31h-4.2l-12.4 24.9v6.1l5.6-.2v32.7h-48.3v-32.7l5.7.2v-6.1l-10.8-21.6v60.2h-44.8c-13.5 0-25.9-5.4-25.9-24.6v-46.3c0-16 9.2-25.1 25.8-25.1h69.7l4.5 11.2 4.5-11.2h62.9l14.5 27.1 14.8-27.1h37.8v32.7z"/><path d="m517.4 93h.5c.6 0 1.1-.2 1.1-.7 0-.4-.3-.7-1-.7h-.6zm0 2.7h-1.2v-4.8c.4-.1 1.1-.1 1.9-.1.9 0 1.3.1 1.6.3s.5.5.5 1c0 .6-.4 1.1-1.1 1.2.4.2.8.3 1 1.2.1.7.2.9.3 1.1h-1.2c-.1-.2-.3-.5-.4-1.1-.1-.5-.3-.7-.9-.7h-.5zm-3-2.5c0 2.1 1.6 3.8 3.7 3.8s3.7-1.7 3.7-3.8-1.6-3.8-3.7-3.8-3.7 1.7-3.7 3.8zm8.6 0c0 2.7-2.2 4.8-4.9 4.8s-4.9-2.1-4.9-4.8 2.2-4.8 4.9-4.8 4.9 2.1 4.9 4.8z"/></g><g fill="#e5e3e6"><path d="m503.9 9.6h-25.7l-19.3 35.5-19.1-35.5h-25.8v17.2l5.7-.2v46.8l-5.7-.2v17.2h26.3v-42.7l18.6 33.7 18.7-33.7v42.6l26.3.1v-17.2l-5.7.2v-46.8l5.7.2zm-94.8 0h-22.5l-9.6 24.2-9.6-24.2h-22.6v17.2l5.7-.2 15.6 31v15.8l-5.7-.2v17.2h33.2v-17.2l-5.7.2v-15.8l15.5-31 5.7.2zm-69 32.3h-27.5v16.2h6.7v15.3h-12.9v-46.8h12.9v6.4h19.9v-23.4h-36.3c-18.3.2-18.3 12.5-18.3 19.4v44.4c0 11.9 5.6 17 18.3 17h37.2z"/><path d="m73.7 26.6h12.6v16.1h-12.6zm40.2 46.6-5.7.2v-6.4c0-3.6-.2-6.1-.5-7.6-.7-3.6-3.9-7.8-10.3-9.5 8.1-3.3 10.8-7.2 10.8-15.2v-8.1c.3-11.3-5.7-17-18-17h-44.1v17.2l5.7-.2v46.8l-5.7-.2v17.2h27.6v-32.7h12.6v22.9c0 7.8 2.1 9.8 9.9 9.8h17.7zm27.2-46.6h12.1v46.8h-12.1zm34 2.8c0-13.7-5.6-19.8-18.3-19.8h-19.3c-13.1-.2-18.3 8.3-18.3 19.8v41.2c0 13.7 5.7 19.8 18.3 19.8h19.3c13.1.2 18.3-8.3 18.3-19.8zm51.6 20-19.9-39.8h-26v17.2l5.7-.2v46.8l-5.7-.2v17.2h26.2v-39.5l19.7 39.5h25.9v-17.2l-5.7.2v-46.8l5.7.2v-17.2h-25.9zm-184.6-39.8h-32.5v17.2l5.7-.2v46.8l-5.7-.2v17.2h32.5v-17.2l-5 .2v-46.8l5 .2z"/></g></svg>