<svg viewBox="0 0 525 100" xmlns="http://www.w3.org/2000/svg"><g id="figure"><path d="m2 2v32.7l5.7-.2v31l-5.7-.2v32.7h79.2v-6.3c3.2 5.1 9.1 6.3 15 6.3h25.2v-4.3c3.1 2.1 7.9 4.3 16.1 4.3h19.4c3.7 0 10.4-.6 16.3-4.7v4.7h41.3v-14.9l7.5 14.9h38.2v-32.7l-5.7.2v-31l5.7.2v-32.7h-41.1v15.3l-7.6-15.3h-38.3v4.5c-2.8-2-7.6-4.5-16.4-4.5h-19.3c-15.4.2-21.4 8.5-23.6 13.5-4.6-11.6-16.4-13.5-23.7-13.5zm7.6 7.6h32.5v17.2l-5-.2v46.8l5-.2v17.2h-32.5v-17.2l5.7.2v-46.8l-5.7.2zm36.5 0h44.1c12.3 0 18.3 5.7 18 17v8.1c0 8-2.7 11.9-10.8 15.2 6.4 1.7 9.6 5.9 10.3 9.5.3 1.5.5 4 .5 7.6v6.4l5.7-.2v17.2h-17.7c-7.8 0-9.9-2-9.9-9.8v-22.9h-12.6v32.7h-27.6v-17.2l5.7.2v-46.8l-5.7.2zm91.4 0h19.3c12.7 0 18.3 6.1 18.3 19.8v41.2c0 11.5-5.2 20-18.3 19.8h-19.3c-12.6 0-18.3-6.1-18.3-19.8v-41.2c0-11.5 5.2-20 18.3-19.8zm43.3 0h26l19.9 39.8v-39.8h25.9v17.2l-5.7-.2v46.8l5.7-.2v17.2h-25.9l-19.7-39.5v39.5h-26.2v-17.2l5.7.2v-46.8l-5.7.2zm-107.1 17v16.1h12.6v-16.1zm67.4 0v46.8h12.1v-46.8z"/><path d="m302.8 2c-16.6 0-25.8 9.1-25.8 25.1v46.3c0 19.2 12.4 24.6 25.9 24.6h44.8v-60.2l10.8 21.6v6.1l-5.7-.2v32.7h48.3v-32.7l-5.6.2v-6.1l12.4-24.9h4.2v31l-5.7-.2v32.7h41.4v-21l11.1 20.1 11.2-20.1v21h41.4v-32.7l-5.7.2v-31l5.7.2v-32.7h-37.8l-14.8 27.1-14.5-27.1h-62.9l-4.5 11.2-4.5-11.2zm.1 7.6h36.3v23.4h-19.9v-6.4h-12.9v46.8h12.9v-15.3h-6.7v-16.2h27.5v48.5h-37.2c-12.7 0-18.3-5.1-18.3-17v-44.4c0-6.9 0-19.2 18.3-19.4zm41.9 0h22.6l9.6 24.2 9.6-24.2h22.5v17.2l-5.7-.2-15.5 31v15.8l5.7-.2v17.2h-33.2v-17.2l5.7.2v-15.8l-15.6-31-5.7.2zm69.2 0h25.8l19.1 35.5 19.3-35.5h25.7v17.2l-5.7-.2v46.8l5.7-.2v17.2l-26.3-.1v-42.6l-18.7 33.7-18.6-33.7v42.7h-26.3v-17.2l5.7.2v-46.8l-5.7.2z"/><path d="m517.4 93h.5c.6 0 1.1-.2 1.1-.7 0-.4-.3-.7-1-.7h-.6zm0 2.7h-1.2v-4.8c.4-.1 1.1-.1 1.9-.1.9 0 1.3.1 1.6.3s.5.5.5 1c0 .6-.4 1.1-1.1 1.2.4.2.8.3 1 1.2.1.7.2.9.3 1.1h-1.2c-.1-.2-.3-.5-.4-1.1-.1-.5-.3-.7-.9-.7h-.5zm-3-2.5c0 2.1 1.6 3.8 3.7 3.8s3.7-1.7 3.7-3.8-1.6-3.8-3.7-3.8-3.7 1.7-3.7 3.8zm8.6 0c0 2.7-2.2 4.8-4.9 4.8s-4.9-2.1-4.9-4.8 2.2-4.8 4.9-4.8 4.9 2.1 4.9 4.8z"/></g></svg>