<svg viewBox="0 0 396 100" xmlns="http://www.w3.org/2000/svg" xmlns:xlink="http://www.w3.org/1999/xlink"><g fill="#fff"><path d="m28.6 52.4c-2.4-7.8-2.8-7.8-3.9-11.8-1-3.6-4-4.4-5.3-1-1 2.7-1.5 5.7-2.3 8.5-.3 1.1-.7 2.2-.9 3.3-.1.6-.4.8-1 .9-.8.1-3.1.5-10.4 1.7-.7.1-.8 0-.8-.7 0-1.7-.1-3.4-.1-5.1-.1-7.7-.6-14.2-1.8-19.6-.1-.2-.1-.5-.1-.7 0-.6.3-1 1-1.2 2.8-.9 11.7-2.4 15.4-2.4 1.2 0 1.9.6 2.2 1.7.4 1.2.1 2.2.7 3.5 5.9-4.4 11.1-5.6 13.7-5.6 14.6 0 24.5 10.6 24.5 25.3 0 2.2-.1 3.7-.3 5.3 0 .1-.3.1-.5.1-3.3-.7-6.6-1.1-10-1.7-.6-.1-.8-.4-.9-.9-3-14.3-4-17.8-4.7-20.2-.3-1-4-8.2-6.7 3.6-2.3 10.1-4.9 20.2-5.6 23h-.2c-.7-2-1.4-4-2-6z"/><path d="m29 69.3c.5 1.3 2.9 3.1 4.2-.4 1.9-5.1 3.1-11.6 6.5-23.9.1-.3.2-.6.3-.9.3.3.4.7.5 1.1 1.3 5.3 1.3 7.2 2.5 10.5.3.8.8 1.2 1.7 1.3 4.6.4 9.4.1 14 .1-.9 6.2-7 17.2-20.5 18.8-5.5.8-10.7-1.2-15.4-3.5-.7-.3-.9-.1-.9 1.4.1 7.5.6 14.9.5 22.4 0 1.2-.5 1.7-1.7 1.7-2.8 0-5.5.1-8.3.1-2 0-4.3-.1-6.1-.2-1.2-.1-1.8-.7-1.8-1.9 0-2.1 0-4.1 0-6.2.1-12.2-.4-22.2-.4-31.7 0-1.2 0-1.2 1.2-1.2 4.1 0 8.2-.1 12.3 0 1.2 0 1.9-.5 2.3-1.6.7-1.7 1.3-3.4 1.8-5.2.1-.3.1-.8.4-1 2.4 6.7 4.4 13.8 6.9 20.3z"/><path d="m83.2 75.6c-6.2 0-12.6-2.2-15.2-9.8-1.4-3.9-1.9-12.1-1.9-17.6 0-6.6.2-15.6 2.2-21.2.4-1 1.1-1.5 2.2-1.5 7.4 0 13.3.2 14.5.2 1.1 0 1.5.6 1.4 1.7-.2 1.4-.7 5.5-.9 8.1-.5 7.1-.3 16.8.5 20.1.7 3 2.7 4.7 5.8 4.9 3.4.2 5.9-2.1 7-3.2 1-1 1.5-2.3 1.5-3.7 0-8.3.1-16.6.1-24.9 0-.6 0-1.3.1-1.9.1-.7.3-1 1-1.1 1-.2 15.8 0 16.8.1 1.1.1 1.5.4 1.5 1.6.1 3.2-.2 6.4-.3 9.6-.3 6.9-.5 15.5-.3 20.8s.5 15.2.4 15.8c-.1.7-.6 1.2-1.3 1.4-1.2.4-4.7.6-8.7.6-2.2 0-4.6-.1-6.9-.3-1.5-.1-1.8-.5-2-2-.2-1.6-.4-4.3-.9-4.6-5.2 3.5-10.4 6.9-16.6 6.9z"/><path id="a" d="m127.8 4.2c0-.3-.1-.5-.1-.8 0-.8.2-1.4 1.1-1.4h18.2c1.4 0 1.8.2 1.8 1.3 0 .5-.1 1.1-.1 1.6-.3 4.3-.4 7.6-.6 11.9-.8 15.3-.8 30.7-.7 46 0 4.9.2 7.4.4 10.2.1 2.2-2.3 2.2-4 2.3-2.2.1-4.3.2-6.5.2-1.6 0-3.2-.1-4.8-.2-3.6-.2-3.7-1-3.7-2.2 0-4 0-8.1.1-12.1.1-5.8.1-11.4.1-17.2 0-6.1 0-12.3 0-18.7s-.3-15.2-1.2-20.9z"/><path d="m181.4 22.2c2.2 3.1 4.1 6.4 5.7 9.8.2.3.2.7.2 1s-.2 1.5-1.2 1.3c-4.1-.9-6.9.6-8.1 1.5-1.7 1.2-2.8 3.8-1.2 6.2 1.5 2.2 2.8 3.2 5.7 6.6 2.2 2.6 3.6 5.6 3.8 9 .2 3.6-.7 6.9-2.7 9.9-.7 1.1-6.8 6.9-16.4 9-1.2.3-2.5.5-3.8.5-.5 0-.9-.2-1.2-.5-1.6-1.5-4.6-6.2-6.6-9.8-.2-.4-.9-1.6-.9-2.2 0-.4.3-.6.8-.7 3.3-.8 6.9-.6 9.8-2.6 1.8-1.2 2.4-3 1.6-5-1.3-3.3-4.2-5.8-6.5-8.4-4.1-4.6-4.5-11.1-1.4-16.2 1.5-2.5 3.7-4.4 6.1-6 6.2-4.2 11.8-4.7 13.7-4.7 1.3 0 2 .4 2.6 1.3z"/><path d="m224.3 43.2c0-3.1-1.7-5.4-4.5-6.9-2.5-1.3-5.6-.9-7.6.9-2.1 1.9-3 4.4-2.9 7.2.1 1.5 1.4 1.2 2.6 1.2 3.7-.1 7.3-.7 10.8-1.2.9-.1 1.6-.3 1.6-1.2zm-3.4 18.9c4.9.2 9.1-2 13-4.6.7-.5.9-.4 1.5.3.9 1 3.2 4.8 5 9 .8 1.8.7 2-.7 3.4-5.8 5.8-15.2 6.4-19.4 6.4-14.4 0-27.7-9-27.7-27 0-15.2 10.1-27.4 25.8-27.4 14.9 0 24.1 12.4 24.1 24.3.1 2.8-.5 6-3.6 6.3l-28.7 2.8c.7 4.1 5.7 6.4 10.7 6.5z"/><path d="m272.9 26.5c2.5-1.1 5.2-1.8 8-1.7.5 0 1 .1 1.5.3.7.2.9.6.9 1.3 0 1.1-.1 2.1-.2 3.2-.7 4.3-.3 8.6-.3 13 0 1.3-.7 2.1-2 2.1-2.8.1-5.7-.5-9 0-4.3.7-4.6 3.1-4.4 9.7 0 6.2.3 12.3.6 18.5.1 1.7-.4 2.2-2.1 2.3-2.5.1-4.9.2-7.4.2-2.2 0-4.3-.1-6.5-.2s-3-.6-3-2c0-.3 0-.4.1-24.6 0-3.7-.1-7.4-.5-11.1-.3-3-.8-5.9-1.6-8.8-.1-.3-.2-.6-.2-.9-.1-.9.3-1.3 1.2-1.4 4.4-.5 7-.9 14.6-2.4.5-.1 1.2-.2 1.7-.2s.7.2.9.8c.6 1.6.2 2.8.7 4.7.1.3.2.7.5.9 2.1-1.4 4.2-2.7 6.5-3.7z"/><path d="m304.2 48.4c-.5 6.2 3.3 11.2 8.6 11.5 5.5.3 9.3-4.3 9.6-9.8.2-4.5-2.3-11-9.3-11-4.8 0-8.5 4.3-8.9 9.3zm35.5 1.5c-.1 14.2-9.9 26.4-26.8 26.3-13-.1-26-9.2-25.9-26.8.1-11.8 7.6-26.4 26-26.4 19.2 0 26.8 14.4 26.7 26.9z"/><use transform="matrix(1 0 0 1 216.7 0)" xlink:href="#a"/><use transform="matrix(1 0 0 1 245.2 0)" xlink:href="#a"/></g></svg>