<svg viewBox="0 0 636 100" xmlns="http://www.w3.org/2000/svg" xmlns:xlink="http://www.w3.org/1999/xlink"><g transform="scale(.1)"><g fill="#808080"><path id="a" d="m491.5 256.6c-188.9 0-268.8 108.7-313.2 201.9l-127.4 267.4c-17.1 35.8-30.9 79.2-30.9 115.1 0 64.3 38.9 138 169.4 138h603.3c126.6 0 232.3-78.5 298.4-199.5 9-16.5 14.5-64.8-38.5-64.8h-323.2c-30.9 0-53 16.9-61.8 35.3l-26.5 55.3c-5.3 11.1-18.9 25-42.2 25h-160.4l87-181.4h583.1c38.2 0 57.6-26.1 64.7-41.1l58.9-124.5c19.1-40.4 30.4-75.8 30.4-108.9.1-97.8-93.4-117.8-167.8-117.8zm0 58.4h603.3c43.5 0 109.3 4.6 109.3 59.4 0 19.4-7.6 47.8-24.5 83.5l-58.5 123.6c-3.3 7-5.3 8.9-12.6 8.9h-619.8l-100 209.3c-26.6 55.7 2.2 89.1 51.4 89.1h158.8c58.3 0 87.6-42.2 98.1-64.4l20.3-43.1c2.1-4.5 5.9-8.2 12.1-8.2h297.6c-38.6 61.9-113.9 146.9-236.3 146.9h-601.3c-58.2 0-108.8-12.6-111-79-.8-23.6 8.2-54.2 25.1-89.6l128.1-268.8c52.8-110.8 135.1-167.6 259.9-167.6zm164.8 29.1c-36.7 0-65.2 21.9-79.6 52.5l-76.2 161.5h259.4l65.2-136.5c19.4-40.5.2-77.5-47.1-77.5zm.1 58.5h113l-46.4 97.1h-130.3l36.5-77.3c7-14.8 15.8-19.8 27.2-19.8z"/><path d="m1360.3 256.5c-42.7 0-54.9 30.9-54.9 47.4l12 580.6c1.1 51.8 13.3 81.7 61 81.7h222.5c32 0 53.5-20.3 105.6-72.6 30.2-30.3 130.7-129.2 195.4-194.1 124.1-124.5 362.1-365.1 371-374 10.9-10.9 17-22.8 17-33.6 0-13.2-8.5-35.4-43.4-35.4h-49.6c-29.3 0-104.6 7.2-125.4 28.3l-338.7 343.9v-322.5c0-29.1-24.2-49.7-56.6-49.7zm3.8 58.5h310.5v456.4l436.7-443.9c39.4-11.6 76.7-12.5 88.3-12.5 0 0-230.3 231.9-345.7 347.5-116.6 116.8-217.8 213.7-254 244l-222.5 1z"/><use transform="translate(2040.8)" xlink:href="#a"/><path d="m4089 255.5c-43.4 0-101.7 1.1-134.6 30.2l-223.6 198.3 66.8-134.6c24.9-50.1 6.8-92.9-53.9-92.9h-242.5c-23.6 0-49.1 11.6-64 42.7l-279.2 585.6c-6.8 14.2-12.6 27.3-12.6 41.2 0 28.3 21.9 53 53.7 53h244.3c25.9 0 46.3-16.3 60-29.7l409.7-399.1c5.6 28.5 32.9 32.8 46.3 32.8h322.3c38.3 0 57.7-28.3 64.2-42.2l77.9-165.6c8.9-18.9 14.7-36.1 14.7-54.2 0-8.9-1.9-65.5-81.5-65.5zm0 58.6h274.5c18.8 0 18 13.4 10.8 28.7l-81.1 172.2c-2.8 6-5.5 9.5-11.5 9.5h-302c3.7-4.6 11.2-22.4 11-34-.4-22.1-9.8-38.8-36.9-38.5-21.1.3-36.6 13-48.6 24.6l-433.5 421.8c-8.7 8.5-16 22.2-28.3 22.2h-238l284.7-596.6c2.8-5.9 5.2-9 11.1-9h248.3l-205.7 412.8 445-394.8c17.9-15.9 60.5-18.9 100.2-18.9z"/></g><g fill="#ff4438"><path d="m4908.8 20c-106.3 0-221.3 42.7-293.6 194.9l-259.5 546.7c-25.2 53.1-61.8 70.9-107 70.9h-147.9c-20.6 0-35.9 11.6-44.6 29.3l-18 36.7c-5.3 10.9-7.7 22.9-7.7 35 0 30.9 22 45.5 40 45.5h483c109.6 0 177.3-88.9 216.4-170.7l205.1-429.5h113c32.3 0 60.8-22.1 66.5-46.1l8.3-35c1.6-6.6 2.9-12.8 3.2-21 .4-10.9-7-41.4-46.8-41.4h-80.7l21.5-34.9c16-25.9 26.7-34.8 78.4-34.8h108.4c38.1 0 64-30.6 68-46.6l9.5-37.5c1.7-6.7 3.5-12.2 3.5-21 0-5-1-40.5-47-40.5zm355 58.4-4 18.9c-.6 2.9-4.7 9.9-13 9.9h-108.4c-81.1 0-104.2 24.1-129.9 65.5l-74.9 121h168.9l-3.8 19.9c-1.1 5.6-5.5 6.8-10.7 6.8h-149.8l-221.1 463.1c-25.9 54.3-77.3 137.1-163.6 137.1h-461l14.5-29.7h141.7c52.6 0 119.7-19.4 160.3-105l259.1-545.9c55.7-117.3 139.3-161.6 240.6-161.6z"/><path d="m5492.9 248.4c-13.5 0-27.1 2.7-40.5 4.9l-237.6 39.7c-9.7 1.6-28.7 10.5-41.6 37.5l-264.2 554.5c-3.6 7.5-6.7 13.7-6.7 32 0 41.8 26.5 63 47 63h400.6c20.9 0 32.7-18.5 37.8-36.3 5.6-19.5 13.8-38.1 22.4-56.6 11.4-24.6 2.5-53.6-30.3-53.6h-63.5c-22.5 0-30.9-2.3-15.5-35l225-477c4.6-9.7 8.9-18.7 8.9-31.2 0-21.9-18.9-41.9-41.8-41.9zm-27.9 62-219.4 463.6c-30.3 64.1-12.3 117.7 68.9 117.7h29.3s-4.1 9.4-5.3 12.8c-2.5 7.2-4.5 15.3-4.7 16h-366c-8.4 0-9.4-3.8-5.5-12l266.4-558.5z"/><path d="m6193.3 71c-13.2 0-44.3 3.5-57 5l-273 32.9c-27.5 3.3-49.7 19.8-62.5 46.6 0 0-346.9 728-347.6 729.5s-6.4 3.9-6.4 32 21.2 63 47.5 63h718.6c20.9 0 33.2-18.5 37.8-36.5 5.1-20.3 15.1-39.6 23.1-57s8.5-54-32.5-54h-292c-25.7 0-27.8-8.6-15.8-33.9l199.6-419.8h130.3c30.8 0 54.1-18.9 64.2-42.9 5.1-12 5.3-25.9 8.4-38.6 1.6-6.3 4-12.3 4-20 0-11.8-7.5-42-47.2-42h-97.8l40.5-71.7c7.2-12.8 10.9-25.8 10.9-40.2 0-33.7-33.9-52.4-53.1-52.4zm-5.3 57.4-93.2 165.4h182.3l-3.9 19.8c-1.1 5.3-4.8 6.7-9.8 6.7h-167.2l-215.5 453.2c-26.4 55.4-19.6 117.4 68.7 117.4h257.8c-5.1 9.3-7.3 19.7-10.7 29.7h-680.9c-10.2 0-12.1-5.3-9.4-11l347.6-729.3c3.9-8.3 8.7-12.4 18.2-13.6z"/></g></g></svg>