<svg viewBox="0 0 198 100" xmlns="http://www.w3.org/2000/svg"><g id="figure"><path d="m68.2 61.3c-8-19.9 10.6-42.1 39.5-59.3h-31.3c-30.4 21.1-40.6 46.4-8.2 59.3"/><path d="m84.3 66h54.2c-9.8-2.3-14.8-9.3-10.4-22.3 4.7-14 20.2-29.5 38.5-41.7h-38.2c-10.9 6.3-21.2 13.7-30.2 22.4-15.6 15-20.1 30.5-13.9 41.6"/><path d="m23.4 92c-3.9.5-6.2.7-8.4.7-3.7 0-6.4-.6-6.4-3.6v-2.1c0-3 2.7-3.6 6.4-3.6 2.2 0 3.4.1 8.4.7v-5.2c-2.8-.3-7.6-.7-10.2-.7-4.5 0-10.8.2-10.8 8.9v2c0 8.7 6.3 8.9 10.8 8.9 2.7 0 7.5-.4 10.2-.7z"/><path d="m48.5 90.5v-4.8c0-7.5-6.1-7.5-9.4-7.5h-4.3c-3.3 0-9.4 0-9.4 7.5v4.8c0 7.5 6.1 7.5 9.4 7.5h4.3c3.3 0 9.4 0 9.4-7.5m-12.2 2.4c-3.6-.1-4.7-.6-4.7-2.3v-5c0-1.7 1-2.3 4.7-2.3h1.4c3.6 0 4.7.6 4.7 2.3v5c0 1.8-1.1 2.3-4.7 2.3z"/><path d="m50.8 85.4v12.4h6.2v-12.4c0-1.9 1.3-2.2 5.4-2.2 2.3 0 5.5.3 5.5.3v-5.2l-1.4-.1s-3.2-.2-6.4-.2c-3.3 0-9.3 0-9.3 7.5"/><path d="m69.2 97.8h6.2v-14.9c.8-.1 2.5-.2 4.4-.1 4 .1 5.4.4 5.4 2.3v12.8h6.2v-12.8c0-7.3-6.1-7.4-9.3-7.5s-6.4.1-6.4.1-6.5.5-6.5.5z"/><path d="m101.3 74.8h-6.5v5.8h6.5z"/><path d="m94.8 97.8h6.5v-15.5h-6.5z"/><path d="m111 74.8h-6.5v23h6.5z"/><path d="m120.9 74.8h-6.5v23h6.5z"/><path d="m124 85v5.7c0 7.3 6.1 7.3 9.3 7.3 3.1 0 6.4-.2 6.4-.2s5.3-.5 5.3-.5v-5.1s-4.5.5-4.6.5c-1.7.1-3.4.2-4.9.2-4.1 0-5.4-.3-5.4-2.2v-.4h14.8v-4.8h-14.8v-.4c0-1.9 1.4-2.2 5.4-2.2 2.2 0 4.3.2 4.9.2l4.6.5v-5.1l-5.3-.5c-.1 0-3.2-.2-6.4-.2-3.3 0-9.3 0-9.3 7.3"/><path d="m147.9 86.4v2.9c0 8.5 6.2 8.6 10.7 8.6 3.9 0 12.2-1.3 12.2-1.3v-17.6s-8.3-1.3-12.2-1.3c-4.4 0-10.7.2-10.7 8.6m17.1-3.1v9c-.8.2-1.9.5-4.7.5-3.7 0-6.3-.5-6.3-3.5v-2.9c0-2.9 2.7-3.5 6.3-3.5 2.8 0 3.9.3 4.7.5"/><path d="m182.7 97.8c3.2 0 6.4-.2 6.4-.2s6.5-.6 6.5-.6v-18.5h-6.2v13.8c-.9.1-2.5.2-4.4.2-4.1 0-5.4-.3-5.4-2.2v-11.8h-6.2v11.8c0 7.5 6.1 7.5 9.3 7.5"/></g></svg>