<svg viewBox="0 0 489 100"  xmlns="http://www.w3.org/2000/svg"><g id="figure"><path d="m32.1 91c-11.9-29.9 16-63.2 59.3-89h-46.9c-45.6 31.7-61.1 69.7-12.4 89"/><path d="m56.3 98h81.3c-14.6-3.4-22.1-13.8-15.5-33.5 7-20.9 30.3-44.2 57.8-62.5h-57.4c-16.3 9.4-31.8 20.6-45.3 33.6-23.5 22.5-30.1 45.8-20.9 62.4"/><path d="m190.5 68.3c-6.7.8-10.7 1.2-14.4 1.2-6.4 0-11-1-11-6.2v-3.5c0-5.1 4.7-6.2 11-6.2 3.9 0 5.8.2 14.4 1.2v-9c-4.7-.5-13-1.2-17.6-1.2-7.7 0-18.5.3-18.5 15.3v3.5c0 14.9 10.8 15.3 18.5 15.3 4.6 0 12.9-.8 17.6-1.2z"/><path d="m233.6 65.8v-8.3c0-12.9-10.5-12.9-16.1-12.9h-7.4c-5.6 0-16.1 0-16.1 12.9v8.3c0 12.9 10.5 12.9 16.1 12.9h7.4c5.6 0 16.1 0 16.1-12.9m-21 4.1c-6.2-.1-8-1-8-4v-8.6c0-3 1.8-3.9 8-4h2.3c6.3.1 8.1.9 8.1 4v8.6c0 3-1.8 3.9-8.1 4z"/><path d="m237.6 57.1v21.3h10.7v-21.3c0-3.3 2.3-3.9 9.3-3.9 4 0 9.5.5 9.5.5v-8.9l-2.3-.2c-.1 0-5.6-.4-11-.4-5.6 0-16.1 0-16.1 12.9"/><path d="m269.3 78.4h10.7v-25.7c1.5-.1 4.4-.3 7.5-.3 7 .1 9.3.7 9.3 3.9v22h10.7v-21.7c0-12.6-10.5-12.8-16.1-12.9-5.4-.1-10.9.2-11 .2 0 0-11.1.8-11.1.8z"/><path d="m324.5 38.8h-11.2v9.9h11.2z"/><path d="m313.3 78.4h11.2v-26.6h-11.2z"/><path d="m341.2 38.8h-11.2v39.6h11.2z"/><path d="m358.1 38.8h-11.2v39.6h11.2z"/><path d="m363.5 56.4v9.7c0 12.6 10.5 12.6 16.1 12.6 5.4 0 10.9-.4 11-.4 0 0 9.1-.8 9.1-.8v-8.8s-7.8.8-7.8.8c-2.9.2-5.8.4-8.4.4-7 0-9.3-.5-9.3-3.8v-.7h25.5v-8.2h-25.5v-.8c0-3.2 2.3-3.8 9.3-3.8 3.8 0 7.4.3 8.4.4l7.8.8v-8.8l-9.1-.8c-.1 0-5.6-.4-11-.4-5.6 0-16.1 0-16.1 12.6"/><path d="m404.6 58.8v5c0 14.5 10.7 14.9 18.3 14.9 6.6 0 21-2.2 21-2.2v-30.4s-14.4-2.2-21-2.2c-7.6 0-18.3.3-18.3 14.9m29.5-5.3v15.5c-1.4.3-3.2.8-8 .8-6.3 0-10.9-.9-10.9-6v-5.1c0-5 4.6-6 10.9-6 4.8 0 6.6.4 8 .8"/><path d="m464.6 78.4c5.4 0 10.9-.4 11-.4 0 0 11.1-1 11.1-1v-31.8h-10.7v23.8c-1.5.1-4.4.3-7.5.3-7 0-9.3-.5-9.3-3.8v-20.3h-10.7v20.3c0 12.9 10.5 12.9 16.1 12.9"/></g></svg>