<svg viewBox="0 0 570 100" xmlns:xlink="http://www.w3.org/1999/xlink" xmlns="http://www.w3.org/2000/svg"><g id="figure" fill="#fff"><path d="m14.3 2c-6.8 0-12.3 5.5-12.3 12.3v66.4c0 2.1.6 4.3 1.6 6.1 3.5-13.1 8.9-28.5 16.1-46.3 4.2-10.5 7.2-18.6 8.8-24.3 1.1-4.2 4.3-6.6 5.9-7.5 1.7-.9 6.8-1.4 10.6 1.5 5.6 3.9 15.5 11.1 29.8 21.6 7.8 5.9 13.8 10.9 18.1 15.3v-32.8c.1-6.8-5.4-12.3-12.2-12.3z"/><path d="m64.5 56.8c-2.5 1.4-4.9 2.7-7.2 4-.8.4-1.5.9-2.3 1.3-3.7 2-8.9 3.8-13.9 7.1-.8.5-1.7 1.1-2.5 1.7-6.7 4.1-17.7 16.1-18.1 13.6.3-5.3 4.8-12 9.4-16.5 3-3.3 16.6-10.5 21.5-13.3 1.6-.6 2.3-1.2 3.3-1.6 2.8-1.3 4.4-1.8 6.6-3.1.6-.4 1.2-.9 1.7-1.5 1.6-1.6 5.7-5.4 4.2-7.3-.3-.4.4.4-.9-1.4-2.5-3.3-7-7.3-13.5-11.8-9.5-6.6-18.5-9.7-19.1-7.2l-9.5 27.9c-.1.7-.3 1.4-.4 2.2-.2.8-.3 1.6-.5 2.5-1.5 5.3-5.3 22.9-5.6 23.8-.3 4.4-2.2 10-3.5 15.9h66.4c6.8 0 12.3-5.5 12.3-12.3v-18.6c-.1 0-3.3-2.9-4.7-4.1-8.5-7.4-13.3-6.8-21.3-2.7-.9.5-1.8.9-2.7 1.4z"/><path d="m173.3 59.2c-1.2 0-2.3-.6-2.6-1.3l-6.4-14.5h-31.8l-6.4 14.5c-.3.7-1.4 1.3-2.6 1.3h-14.7c-1.4 0-2.5-.5-2.5-1.3l.2-.4 22.7-47.8c3.3-7.1 13.3-7.8 19.2-7.8s15.9.7 19.2 7.8l22.7 47.8.2.4c0 .8-1.1 1.3-2.5 1.3zm-22.7-47.1c-.4-.9-.8-1.2-2.2-1.2s-1.8.3-2.2 1.2l-10 22.6h24.4z"/><path d="m266.5 59.2c-1.5 0-2.1-.8-2.8-1.5l-19.9-20.3h-1.9c-3.6 0-9.1-.2-12.3-.3v20.7c0 .8-1.1 1.5-2.6 1.5h-13.8c-1.5 0-2.8-.7-2.8-1.5v-52.5c0-1.5 1.7-2.1 4.4-2.3 7.2-.6 17-1 27.1-1 21.3 0 39.9 4.2 39.9 17.2v.7c0 8.1-7.3 13.1-18.7 15.5l21.7 22.3.3.6c0 .5-.6.9-1.7.9zm-3.9-40c0-5.7-6.9-8.2-20.8-8.2-2.9 0-9.8.2-12.3.3v17.1c2.2.1 10 .2 12.3.2 14.2 0 20.8-2.1 20.8-8.8z"/><path d="m346.9 11.5v46.3c0 .8-1.2 1.5-2.8 1.5h-13.6c-1.5 0-2.8-.7-2.8-1.5v-46.3h-24.2c-1.5 0-2.8-.5-2.8-1.4v-6c0-.8 1.2-1.5 2.8-1.5h67.7c1.5 0 2.8.6 2.8 1.5v6c0 .8-1.2 1.4-2.8 1.4z"/><path d="m396.9 59.2c-4 0-7.1-.8-7.1-2.8v-4.2c0-.9.4-1.8 1.8-2.9l43.9-36.2.4-.7c0-.4-.4-.6-1.4-.6h-38.5c-1.5 0-2.6-.5-2.6-1.4v-6.3c0-.8 1.1-1.5 2.6-1.5h55.8c4 0 7.3.9 7.3 2.9v4.4c0 1.1-.8 2.2-1.9 3.1l-43.2 35.6c-.4.3-.5.6-.5.8 0 .3.3.5 1.2.5h42.6c1.5 0 2.8.5 2.8 1.4v6.4c0 .8-1.2 1.5-2.8 1.5z"/><path d="m522.2 11.5v46.3c0 .8-1.2 1.5-2.8 1.5h-13.7c-1.5 0-2.8-.7-2.8-1.5v-46.3h-24.2c-1.5 0-2.8-.5-2.8-1.4v-6c0-.8 1.2-1.5 2.8-1.5h67.7c1.5 0 2.8.6 2.8 1.5v6c0 .8-1.2 1.4-2.8 1.4z"/><path d="m558.7 7c0-2.5 2.1-4.6 4.6-4.6s4.6 2.1 4.6 4.6c0 2.6-2.1 4.6-4.6 4.6-2.6 0-4.6-2-4.6-4.6zm.7 0c0 2.2 1.7 3.9 3.9 3.9s3.9-1.7 3.9-3.9c0-2.1-1.8-3.9-3.9-3.9-2.2 0-3.9 1.8-3.9 3.9zm5.8 2.8h-.5l-.1-.1-1.4-2.2h-.2-.7v2.1l-.2.2h-.4l-.3-.2v-5.2l.3-.4c.2 0 .9-.1 1.3-.1 1.4 0 2.2.4 2.2 1.7v.1c0 .9-.4 1.3-1.2 1.5l1.3 2.1v.2zm-.9-4.1c0-.7-.4-.9-1.3-.9-.3 0-.5 0-.8 0v1.9h.8c1 0 1.3-.2 1.3-.9z"/><path id="a" d="m116 98h-1.3l-.5-.5v-4.5c-1 .2-2.1.3-2.9.3-3.6 0-5.5-2.2-5.5-6.1v-1.8c0-3.8 1.7-6.2 5.5-6.2 1.5 0 3.3.2 4.6.6.4.1.5.2.5.6v17.2l-.5.5m-1.8-16.8c-.7-.1-1.9-.2-2.9-.2-2.5 0-3.3 1.7-3.3 4.3v1.8c0 2.7.8 4.3 3.3 4.3.8 0 2.1-.1 2.9-.2z"/><path id="b" d="m131.3 93h-1.3l-.5-.5v-.5c-1.4.8-2.5 1.2-4 1.2-3 0-4.4-1.9-4.4-5.2v-8.2c0-.3.2-.5.5-.5h1.2l.5.5v8.2c0 2.5.9 3.3 2.8 3.3 1.1 0 2.2-.4 3.4-1v-10.5c0-.2.2-.5.5-.5h1.2l.5.5v12.8z"/><path id="c" d="m145.7 93h-1.2l-.5-.5v-.6c-1.2.7-2.5 1.2-3.9 1.2-2.1 0-4.1-.9-4.1-4.1v-.3c0-2.7 1.6-4.1 6-4.1h1.9v-1c0-2.1-.7-2.8-2.7-2.8-1.6 0-2.8.1-3.8.2h-.1c-.2 0-.5-.1-.5-.4v-.9c0-.3.2-.4.5-.5 1-.2 2.2-.3 3.9-.3 3.5 0 4.9 1.8 4.9 4.7v8.7l-.5.5m-1.7-6.7h-1.9c-3 0-3.8.7-3.8 2.5v.3c0 1.8.9 2.3 2.3 2.3 1.2 0 2.2-.3 3.4-1z"/><path id="d" d="m153 93h-1.3l-.5-.5v-17.8c0-.2.2-.5.5-.5h1.3l.5.5v17.9z"/><path id="e" d="m160.6 77.1h-1.3l-.5-.5v-2l.5-.5h1.3c.3 0 .5.2.5.5v2c0 .3-.2.5-.5.5m-.1 16h-1.2c-.3 0-.5-.2-.5-.5v-12.8c0-.3.2-.5.5-.5h1.2c.3 0 .5.2.5.5v12.8c0 .3-.2.5-.5.5"/><path id="f" d="m173 93.1c-.5.1-1.2.1-1.6.1-2.3 0-3.4-.6-3.4-3.4v-8.7l-2.4-.3c-.3 0-.5-.2-.5-.5v-.7c0-.3.2-.4.5-.4h2.4v-2.5c0-.2.2-.4.5-.5l1.3-.2h.1l.4.4v2.7h2.7c.3 0 .5.2.5.5v.9c0 .3-.2.5-.5.5h-2.7v8.7c0 1.4.3 1.6 1.3 1.6h1.4c.3 0 .5.1.5.3v.9c0 .2-.1.4-.5.4"/><path d="m187.9 79.9-4.1 14.4c-.8 2.7-1.7 3.7-4.6 3.7-.7 0-1.6-.1-2.1-.2-.3-.1-.5-.2-.5-.4v-.9l.5-.4h.1c.6.1 1.7.2 2.2.2 1.4 0 2.1-.4 2.5-2.1l.2-1h-.3c-.8 0-1.4-.2-1.9-1.7l-3.3-11.5v-.2c0-.2.2-.4.5-.4h1.4l.4.4 3 10.9c.1.5.3.6.5.6h.4l3.1-11.5.5-.4h1.4l.4.4z"/><path id="g" d="m203.6 93.2c-.9 0-2.7-.1-4-.4-.3-.1-.5-.2-.5-.5v-.9l.5-.4h.1c1.2.2 3 .3 3.9.3 1.6 0 2.5-.4 2.5-1.8 0-.8-.5-1.2-1.9-2.1l-2.5-1.5c-1.5-.9-2.6-2-2.6-3.6 0-2.6 2-3.3 4.5-3.3 1.4 0 2.7.1 3.9.3.3.1.5.2.5.5v.8c0 .3-.2.4-.4.4h-.1c-.9-.1-2.5-.2-3.9-.2s-2.3.2-2.3 1.5c0 .7.6 1.2 1.7 1.9l2.5 1.5c2.1 1.2 2.8 2.3 2.8 3.8 0 2.6-1.9 3.6-4.7 3.6"/><path id="h" d="m217.8 93.2c-.8 0-2-.1-2.9-.3v4.5c0 .2-.2.5-.5.5h-1.3c-.2 0-.5-.2-.5-.5v-17.2c0-.3.1-.5.5-.6 1.3-.3 3.1-.6 4.6-.6 3.7 0 5.5 2.4 5.5 6.2v1.8c0 3.9-1.8 6.1-5.5 6.1m3.3-7.9c0-2.6-.8-4.3-3.3-4.3-1.1 0-2.2.1-2.9.2v9.9c.8.2 2.1.2 2.9.2 2.5 0 3.3-1.6 3.3-4.3z"/><path d="m232.7 93.2c-3.7 0-5.6-2.4-5.6-6.1v-1.9c0-3.7 1.9-6.1 5.6-6.1s5.6 2.4 5.6 6.1v1.9c0 3.7-1.9 6.1-5.6 6.1m3.4-8c0-2.6-1-4.2-3.4-4.2-2.3 0-3.4 1.6-3.4 4.2v1.9c0 2.6 1 4.2 3.4 4.2 2.3 0 3.4-1.6 3.4-4.2z"/><path d="m248.3 81c-1.2 0-2.2.3-3.5 1.1v10.5l-.5.5h-1.2l-.5-.5v-12.8l.5-.5h1.2c.3 0 .5.2.5.5v.5c1.3-.9 2.4-1.2 3.5-1.2.3 0 .5.2.5.4v1c0 .3-.2.4-.5.4"/><use xlink:href="#f" transform="translate(86.5)"/><use xlink:href="#g" transform="translate(64.1)"/><use xlink:href="#c" transform="translate(147.7)"/><path id="i" d="m308.8 93h-1.2c-.3 0-.5-.2-.5-.5v-8.2c0-2.5-.9-3.3-2.8-3.3-1 0-2.2.4-3.4 1v10.6l-.5.5h-1.2l-.5-.5v-12.8l.5-.5h1.3c.3 0 .5.2.5.5v.5c1.4-.8 2.5-1.2 4-1.2 3 0 4.4 1.9 4.4 5.2v8.2z"/><path d="m323.7 92.8c-1.6.3-3.1.4-4.6.4-3.7 0-5.5-2.4-5.5-6.2v-1.8c0-3.9 1.8-6.1 5.5-6.1.8 0 2 .1 2.9.2v-4.7c0-.2.2-.5.5-.5h1.3c.2 0 .4.2.4.5v17.5c0 .3-.1.5-.5.6m-1.7-11.6c-.8-.2-2.1-.2-2.9-.2-2.5 0-3.3 1.5-3.3 4.2v1.8c0 2.7.8 4.3 3.3 4.3.9 0 2.1-.1 2.9-.2z"/><path id="j" d="m346.7 93h-1.2l-.5-.5v-8.2c0-2.5-1.1-3.3-2.7-3.3-.8 0-2.4.2-3.5.7v10.8l-.5.5h-1.2l-.5-.5v-17.8c0-.3.2-.5.5-.5h1.3c.3 0 .5.2.5.5v5.2c1.2-.5 2.8-.8 3.8-.8 2.7 0 4.5 1.5 4.5 5.2v8.2z"/><path id="k" d="m362.2 86.9h-8.4v.3c0 3 1.2 4.1 3.5 4.1 1.5 0 3.3-.1 4.5-.3h.1l.4.3v.9c0 .3-.1.5-.5.6-1.4.3-2.8.4-4.5.4-2.9 0-5.7-1.4-5.7-6v-2.3c0-3.6 2-5.9 5.6-5.9 3.7 0 5.5 2.3 5.5 5.9v1.4c0 .3-.2.6-.5.6m-1.8-1.9c0-2.8-1.1-3.9-3.3-3.9s-3.4 1.2-3.4 3.9v.2h6.6z"/><use xlink:href="#c" transform="translate(230.4)"/><use xlink:href="#d" transform="translate(230.4)"/><use xlink:href="#f" transform="translate(222.8)"/><use xlink:href="#j" transform="translate(63.4)"/><use xlink:href="#k" transform="translate(71)"/><use xlink:href="#a" transform="translate(331.7)"/><use xlink:href="#b" transform="translate(331.7)"/><use xlink:href="#e" transform="translate(309.8)"/><use xlink:href="#h" transform="translate(263.3)"/><path d="m506.9 93h-1.2c-.3 0-.5-.2-.5-.5v-8.9c0-2.1-1-2.7-2.3-2.7-.9 0-2 .3-2.9.7.2.6.2 1.2.2 2v8.9l-.4.5h-1.3l-.4-.5v-8.9c0-2.2-.6-2.6-1.9-2.6-.9 0-2 .5-3.1 1v10.6l-.5.5h-1.3l-.4-.5v-12.8l.5-.5h1.3c.3 0 .5.2.5.5v.5c1-.6 2.3-1.2 3.7-1.2 1.1 0 1.9.3 2.5 1 1.4-.7 2.9-1 4.2-1 2.3 0 4.1 1.1 4.1 4.6v8.9c0 .3-.2.5-.5.5"/><use xlink:href="#k" transform="translate(160.2)"/><use xlink:href="#i" transform="translate(228.5)"/><use xlink:href="#f" transform="translate(376)"/></g></svg>