<svg viewBox="0 0 352 100" xmlns="http://www.w3.org/2000/svg" xmlns:xlink="http://www.w3.org/1999/xlink"><g id="figure" fill="#fff"><path d="m63.7 2-9.9 70.6h-51.6l8.3-58h29l-.9 6.5h-9.7l-6.3 45h12.8l9.1-64.1z"/><path d="m88.4 14.6-8.2 58h-19.2l8.1-58z"/><path d="m148.9 2-8.1 57.8h-29l.9-6.4h9.6l6.3-44.9h-12.7l-9 64.2h-19.4l9.9-70.7z"/><path d="m173.7 14.6-7.1 51.5h12.7l7.3-51.5h19.3l-8.1 58h-51.4l8.1-58z"/><path d="m215 2h19.2l-9.9 70.6h-19.3z"/><path d="m291.2 14.6-3.1 22.5h-19.3l2.2-16h-12.8l-2.7 19.3h32.1l-4.5 32.2h-51.4l3.1-22.6h19.3l-2.2 16.1h12.8l2.7-19.2h-32.1l4.5-32.3z"/><path d="m349.7 14.6-4.3 32.3h-29l.9-6.5h9.6l2.8-19.3h-12.8l-6.4 45h12.8l1.5-9.9h19.3l-2.4 16.4h-51.4l8.1-58z"/><path d="m16 85.6c-.7.5-1.2.8-1.9 1.3-1.6-1-3.1-1.9-5-1.2-.7.4-1 .9-.8 1.4.7 1.2 2.9 1.4 4.2 1.8 2.3.6 4.3 2.2 4.1 4.8-.3 2.5-2.7 3.6-4.9 4-2.6.3-4.8-1.1-6.5-2.8.7-.5 1.4-1.1 2.1-1.6 1.6 1.5 3.4 2.5 5.6 1.6 1.1-.5 1.7-2.1.6-2.9-2-1.2-5.2-1.1-6.9-2.8-1.5-1.6-1.1-4.1.7-5.3 2.9-1.9 6.5-.8 8.7 1.7z"/><path d="m47.1 83 4.1 8.5 4.2-8.5h2.5v14.5h-2.5v-8.7l-4.2 8.6-4.2-8.6v8.7h-2.5v-14.5z"/><path id="a" d="m91.6 83-6.1 14.5h2.8l1.4-3.4h6.2l1.5 3.4h2.8l-6-14.5zm3.2 8.5h-3.9l1.9-4.8z"/><path id="b" d="m127.4 83v14.5h2.5v-5.7h3.8c.8 1.9 1.5 3.8 2.3 5.7h2.9c-.8-2-1.7-4.1-2.5-6.1 1.1-1.1 2.2-2 2.2-3.7 0-2.4-1.5-4.3-3.8-4.6-.9-.1-1.9-.1-2.3-.1zm7.5 2.8c1.5.5 1.6 2.8 0 3.3-1.6.2-3.4.1-5 .1v-3.5c1.7 0 3.4-.1 5 .1z"/><path d="m177.3 85.7h-4.1v11.8h-2.5v-11.8h-4.2v-2.5h10.8z"/><path d="m206.7 83.1 1.6 9 2.1-9h2.6l2.1 9 1.5-9h2.7l-2.7 14.4h-2.5l-2.5-9.6-2.2 9.6h-2.6l-2.7-14.4z"/><path d="m257 83.1v2.6h-7.8v2.7h4.2v2.6h-4.2v3.8h8.1v2.7h-10.7v-14.4z"/><use transform="translate(199)" xlink:href="#a"/><use transform="translate(199.1)" xlink:href="#b"/></g></svg>