<svg viewBox="0 0 736 100" xmlns="http://www.w3.org/2000/svg" xmlns:xlink="http://www.w3.org/1999/xlink"><g id="figure" fill="#fff"><path d="m141.1 18.1v64h15.6v-25.9h19.5v-12.1h-19.5v-13.5h26.1v-12.5z"/><path d="m194.7 18.1v64h36.1v-12h-20.5v-52z"/><path d="m267.3 17.2c-18.1 0-32.9 13.6-32.9 32.8s14.8 32.8 32.9 32.8 32.7-13.6 32.7-32.8-14.5-32.8-32.7-32.8zm0 14.2c10.2 0 16.9 7.2 16.9 18.6 0 11.2-6.7 18.6-16.9 18.6-10.4 0-16.9-7.4-16.9-18.6 0-11.4 6.5-18.6 16.9-18.6z"/><path d="m303.5 18.1 16.2 64h18.9l10.5-42.1 10.3 42.1h18.8l16.7-64h-16.8l-9.3 46.6-10.9-46.6h-17.1l-11.4 46.6-9.2-46.6z"/><path d="m406.9 18.4v63.7h8.3v-28.7h22.5v-6.7h-22.5v-21.5h27.7v-6.8z"/><path d="m456.2 18.4v63.7h8.3v-63.7z"/><path d="m475.4 18.4v6.8h17.4v56.9h8.4v-56.9h17.3v-6.8z"/><path d="m529.4 18.3v63.8h8.3v-50.7l33.4 50.7h8.3v-63.8h-8.3v50.7l-33.4-50.7z"/><path d="m594.3 18.3v63.8h34.3v-6.8h-26v-22h23.3v-6.8h-23.3v-21.3h26v-6.9z"/><path id="a" d="m637.3 65.1h8.9c.5 5.3 4.2 10.6 13.1 10.6 8 0 12.8-4.6 12.8-10.6 0-17.2-34.4-6.2-34.4-29.9 0-10.5 8.5-17.6 21.1-17.6 12.2 0 20.1 6.7 21.1 16.4h-9.2c-.6-4.3-4.5-9.2-12.3-9.3-6.9-.1-12.2 3.4-12.2 10.3 0 16.5 34.3 6.2 34.3 29.8 0 9.1-7.4 18-21.2 18-12.8 0-21.8-7.2-22-17.7z"/><use transform="translate(53.2)" xlink:href="#a"/><path d="m1.7 2v19.1l52.9 24.7 52.8-24.8v-19l-52.8 24.7z"/><path d="m9.8 36.1v19.1l22.1 10.3v24.4l17.2 8.1v-43.5z"/><path d="m99.5 36.1-39.4 18.4v43.5l17.3-8.1v-24.4l22.1-10.3z"/></g></svg>