<svg viewBox="0 0 217 100" xmlns="http://www.w3.org/2000/svg" xmlns:xlink="http://www.w3.org/1999/xlink"><g transform="scale(.1)"><g fill="#303a3d"><path d="m87.3 628c33.3 0 59.7 7.8 59.7 36.2 0 4.6-.2 9.2-.1 13.2h-52.3c-.2-5.9.6-12.1-.6-17.9-1.8-8.3-15.5-8.2-18.5-1.2-4.7 13.5 1.5 21.2 13.2 26.4 14.8 6.6 30.8 12.9 44.5 21.6 15 7.7 19.3 22.8 19.3 38.8.1 39.4-34.3 44.6-65.7 44.6-22.1 0-56.1-5.1-63-30.3-2.1-9.7-2.5-19.6-2.1-29.5l54.4.1c.3 8.9-.9 18.1.6 26.8 1.6 9.5 18.1 8.2 20.4-1 3.4-13-2.5-22.6-13.6-28.5-13.3-6.9-26.5-13.5-40.4-19.3-20.2-8.5-23-27.3-23-37.2.1-30.5 16.6-42.8 67.2-42.8z"/><path d="m226.9 631h57.5l-.5 55h18v-55h58v155.5h-58v-65.5h-18v65.5h-57z"/><path d="m454.8 631-30 155.5h59.1l4.6-28.5h20.6l3.7 28.5h59l-33-155.5zm44.8 42 7.4 56.7h-18l9.3-56.7z"/><path d="m637.7 631v155.5h67.7c43.5 0 64.8-2.5 64.8-35v-85.7c0-26-21.6-34.7-64.8-34.8zm67.7 26.5c3.7 0 6.9 4.7 6.9 8.3l.1 85.7c0 4.4-2.3 8.5-7 8.5h-9.7v-102.5z"/><path d="m913.6 627.9c-33.9 0-66.8 9-66.8 49.4v63.2c0 40.4 32.9 49.5 66.8 49.5 35.3 0 66.8-8.7 66.8-49.5v-63.2c0-40.8-31.5-49.4-66.8-49.4zm0 25.6c6.6.1 8.7 6 8.7 12.9v85.1c0 6.9-2.1 12.8-8.7 12.9-6.5.1-8.9-4.1-8.9-12.9v-85.1c0-8.7 2.4-13 8.9-12.9z"/><path d="m1102.8 631 12.2 97.5 15.1-97.5h59.9l13 97.5 16.1-97.5h55.8l-26.4 155.6h-70.8l-18.7-79.1-15.8 79.1h-70.7l-26-155.6z"/><path d="m1349.6 631v155.5h59.8c58.5 0 58.5-17.9 58.5-43.6 0-28.2-5.3-35.9-26-40.2v-.8c21.2-6.7 21.1-10.7 21-33.4-.1-27.6-18.9-37.5-47.5-37.5zm50.6 26.7h8c7.8 0 8.3 7.9 8.4 15.8.1 9.9-.7 18.1-6.5 18.1h-9.9zm-.2 57.9h8.1c7.8 0 9.5 9.2 9.6 21.3.1 11.8-.7 23-9.6 23h-8.1z"/><path d="m1592.3 627.9c-33.9 0-59.8 9-59.8 49.4v63.2c0 40.4 25.9 49.5 59.8 49.5 35.3 0 58.2-8.7 58.2-49.5v-63.2c0-40.8-22.9-49.4-58.2-49.4zm-.4 25.6c6.6.1 8.3 6 8.3 12.9v85.1c0 6.9-1.7 12.8-8.3 12.9-6.5.1-8.5-4.1-8.5-12.9v-85.1c0-8.7 2-13 8.5-12.9z"/><path d="m1757.2 631 9 44.4 12.1-44.4h41.6l-16.2 69.5 25 86.3h-46.4l-16.1-51.3-10.9 51.3h-48.2l18-86.3-16.9-69.5z"/><path d="m1885.7 631h84.2v29.7h-34.4v30.3h32.7l-.1 29.8h-32.6v34h37.5v31.7h-87.3z"/><path d="m2037.3 630.8v154.2h50.1v-69.1c17.1-.1 14.9 15.3 15 28.1.1 14.2-.3 28.4.2 42.6h46.6c1.4-15.1.6-30.4.7-45.6 0-9 1-19-5.5-26.4-5.7-6.5-12.6-6.3-20.3-7.9 7.3-2.7 15.1-3.6 19.8-8.8 4.2-4.7 6.2-15.6 6.2-26.9 0-9.4-2.4-18.9-7.4-25.8-9.6-13.3-33.6-14.4-52.8-14.4zm54.9 26.9c10.8.2 10.3 10.4 10.3 18.4-.1 15.2-4.9 15.4-8.9 15.3l-6-.1.2-33.4z"/><path d="m20 843v2h2130v-2z"/><path d="m652.3 979.4h8.8v-31.6h16.4c17.1 0 28.6-5.7 28.6-25.3 0-22.2-22.3-24.1-24.6-24.1h-29.2zm30.3-71.3c2.5 0 13.3 1.7 13.5 13.9.2 14.5-9.3 17-13.5 17l-21.7-.1v-30.8z"/><path id="a" d="m779.5 898.4-.2 9.4h-37.2v25.1h34.1l-.1 8.8h-34v28.1h37.2v9.6h-47.3v-81z"/><path id="b" d="m806.4 898.4v79.4h10.7v-33.2h17.6l16.7 34.7h11.9l-16.8-35.4c6.3-3.5 12.1-6.8 14.1-14.2 1.9-7.2 1.5-16.5-3.7-22.4-5.5-6.3-11.4-8.9-21.6-8.9zm32.8 9.6c7 0 11.6 6.7 11.6 12.5.2 12.8-8.2 15.5-13.7 15.5h-20.3v-28z"/><path d="m957.4 937c.1 21.1 2 43 29.2 43s28.9-21.9 29-43c.1-20.1-3-40-29-40s-29.3 19.9-29.2 40zm29.2-29.8c16.4 0 18 16.4 18 29.8 0 17.8-.1 33-18 33s-18.3-15.2-18.3-33c0-13.4 1.9-29.8 18.3-29.8z"/><path d="m937.8 898.4-.2 9.4h-39.1v26.7h34.6l-.1 8.8h-34.5v36.1h-10.4v-81z"/><use transform="translate(237.1)" xlink:href="#b"/><path d="m1134.6 898.3 24.8 48.2 24.2-48.2h9.6v81.1l-11.6-.2v-54.8l-16.5 36.1h-10.1l-18.4-37.1v55.9h-11.1v-81z"/><path d="m1253.4 898.2h-9.1l-27.4 81.1h10.4l5.3-18.8h32.3l6.7 18.8h10zm-2.9 18.9 9.8 33.6h-23.2l10.4-33.6z"/><path d="m1316.4 901.5 33 56.2v-59.4h9.1v79.5h-10.1l-33.2-59.2v60.7h-10.6v-81.1c2.2 0 9.1-1.3 11.8 3.3z"/><path d="m1444.5 923.8h-8.9c0-7.2-6.9-16.8-19.9-16.6-16.6.2-18 12.1-18.3 31.1-.2 14.3 1.5 32.9 18.4 32.9 11.6 0 19.9-12.2 19.8-17.7h8.9c0 9.3-7.3 26.5-28.8 26.5-22.5 0-29.3-18.7-29.3-41.7 0-21.8 6.5-41.4 29.5-41.4 20.2 0 28.6 14.7 28.6 26.9z"/><use transform="translate(738.1)" xlink:href="#a"/><path d="m2114 20a36 36 0 00-36 36 36 36 0 0036 36 36 36 0 0036-36 36 36 0 00-36-36zm0 5a31 31 0 0131 31 31 31 0 01-31 31 31 31 0 01-31-31 31 31 0 0131-31z"/><path d="m2099.8 37.3v40.2h7.2v-16.9c3.1.1 9 0 10.5 2.2 3.1 4.6 3.3 9.5 4.9 14.7h7.3c-1.9-7.2-2.5-13.9-7.4-19.9 3.8-1.6 5.5-5.6 5.5-10.2-.1-5.7-2.5-9.1-9.7-10.5-2.2-.4-14.6-.1-18.3.4zm21 10.4c.2 8.6-8.1 7.5-13.5 7.6l-.1-13.3s13.4-2.3 13.6 5.7z"/></g><g fill="#ee7012"><path d="m1024 20v110h-472c-32.8 0-59.9 17.2-60 37-.2 25.3 5.1 48 63 48h240c142.1 0 261.8 24.8 262 153 .2 140.7-162.1 150-275 150h-762v-109h795c32.7 0 50.9-17.2 50-46-.7-20.7-15.3-40-50-40h-265c-184 0-251.6-51.1-253-156-1.5-114.1 104-147 257.5-147z"/><path d="m1628 20c101.5 0 240.2 28 240 128 0 24.6-.8 41.5-9 67 83.6-.2 290.8 22 291 152 .1 123.8-151.8 151-234 151h-780v-109h754c32.4 0 59.1-10.7 59-49 0-14.6-13.9-37-50-37h-763v-108h486c26.4 0 52.5-15.4 52-42-.7-38.4-30.8-44-61-44h-477v-109z"/></g></g></svg>