<svg viewBox="0 0 1713 100" xmlns="http://www.w3.org/2000/svg"><g id="figure"><g><path d="m159.3 30.5-.1.2-.1.2c-1.4 2.7-3 5-5.1 6.9-2.1 1.7-4.7 3.2-7.7 4.4-2.9 1.1-6.3 1.8-10.1 2.3s-8.3.8-13.5.8h-68.4l13.9-32.9h3 61.5c9.7 0 16.7 1 21.5 3.2 5.5 2.8 6.3 7.1 6.3 9.5 0 1.7-.4 3.4-1.2 5.4zm-17.2 42.3c-2.2 5.4-6.4 9.3-12.7 11.8-5.9 2-13.6 3-23.6 3h-68.7l13.6-33.2h3.1 62c10.4 0 17.2 1.1 21.2 3.4 4.1 2 6.3 5.4 6.3 9.5 0 1.7-.4 3.6-1.2 5.5zm51.5-54.3c-4.3-15.4-58-14.1-58-14.1h-95.2l-39.4 92.5h112c29.8-.4 52.6-7.7 61-24.5 7.8-15.7-14.5-20-14.5-20 23.9-5.9 38.4-18.3 34-34"/><path id="p2" d="m362.5 51.8c-2.9 6.5-6.6 12.2-11.1 17.2-4.5 4.9-9.8 9-15.7 12.1-11.5 6.2-27 9.3-46 9.3-20 0-33.2-3.3-40.7-10.2-4.1-4.2-6.2-9.4-6.2-15.3 0-5.4 1.4-11.4 4.2-17.6 5.5-12.6 14.3-22.2 26.2-28.7 12.4-6 27.9-9.1 46.3-9.1 19.7 0 32.7 3.3 39.6 9.9 4.7 4 7 9.5 7 16.2 0 5.1-1.1 10.6-3.5 16.2zm31-38.6c-11.5-8.1-34-12.2-66.8-12.2-33 0-59.5 4.2-78.7 12.6-18.6 8.1-31.6 20.5-38.5 37.1-2.8 7.2-4.3 13.1-4.3 17.7 0 7.6 3.1 13.5 9.6 18.2 11.3 8.2 34 12.4 67.4 12.4 32.8 0 59.3-4.3 78.6-12.8 18.6-8.2 31.7-21.1 38.9-38.1 1.4-3.2 2.3-6.1 2.8-8.7s.8-5.2.8-7.8c0-7.8-3.2-13.8-9.8-18.3"/><path id="p3" d="m568.8 51.7c-5.8 13.6-13.7 23.1-23.6 28.4s-24.2 7.9-43.6 7.9h-55.5l31.6-76.1h3.1 48.6c20.3 0 32.6 2.7 38.7 8.6l.1.1.1.1c1.7 1.9 2.9 3.9 3.6 5.8.8 2 1.2 4.4 1.2 7.2 0 4.8-1.4 10.7-4.3 18zm32-36.5c-11.2-8.2-32.3-12.3-62.8-12.3 0 0-82.5 0-88.2 0-2.1 5-34.6 83.2-39.1 94h85.5c15.2 0 27.7-.7 37.2-2.2 9.2-1.3 18.3-3.6 27.1-6.7 10.9-3.7 20.4-9 28.3-15.6 7.1-5.9 12.6-13.5 16.4-22.3 2.6-6.6 3.9-12.5 3.9-17.5 0-7.4-2.7-13.1-8.3-17.4"/><path id="p4" d="m798.8 2.9c-21.7 12.4-87.3 49.8-87.3 49.8s-16.2 39.2-18.3 44.2c-4.3 0-23 0-31.7 0 3.9-9.4 17.3-41.9 17.3-41.9s-36.7-40.6-47.1-52.1h34.6c2.5 3 33.8 40.7 33.8 40.7s66.5-39.5 68.6-40.7h30.1"/><path id="p5" d="m835 96.5c-5.6-.3-10.5-.8-14.7-1.6-7.8-1.3-14.9-3.5-21.1-6.6-7.3-3.6-11.7-8.1-13.6-13.8-1-3-1-4.1-1-4.3v-.2l-.3-2.5c0-4.3 1.1-9 3.4-13.8 7.2-17.2 19.8-30 37.6-38.2 17.9-8.4 43-12.6 74.5-12.6h62.8c-1.7 4-2.6 6.3-3.6 8.6-5.6 0-66 0-66 0-18 0-32.5 3-43 8.9-10.8 6-19.3 16.3-25.2 30.5-2.6 5.8-3.8 10.8-3.8 15.2 0 5.6 2.1 10.4 6.2 13.9 5.8 5.4 17.9 8 37.9 8h62c-1.7 4.1-2.7 6.6-3.7 8.9-5.6 0-67.9 0-67.9 0z"/><path id="p6" d="m1114.5 31.3c-2.4 6-7.5 10.3-15.1 12.6-6.9 2.3-17.3 3.4-31.8 3.4h-58.4l14.8-34.9h3 51.4c14.5 0 24.2 1 29.7 3.2l.2.1.2.1c6.3 3 7.2 7.5 7.2 10 0 1.8-.4 3.8-1.2 5.7zm29-21.4c-8.5-4.7-24.4-7-47.4-7 0 0-94.4 0-100.2 0-2.1 5-34.6 83.2-39.1 94h31.9c2-4.9 16.9-40.4 16.9-40.4h55s24.4 36.7 26.8 40.4h35.7c-7.5-10.1-31.3-42.2-31.3-42.2l8-.9c13-1.4 23.9-4.5 32.4-9.3 8-4.4 13.6-10.2 16.5-16.8 0 0 1.1-3.2 1.2-3.6 0-.2.5-3.9.5-3.9 0-4.4-2.2-7.6-6.7-10.2"/><path id="p7" d="m1205.2 63.2 54.6-47.6 5.1-4.4 18.2 52.1zm87.2-60.2c-5.1 0-37.2 0-40 0-2.3 1.8-98.9 80.3-115.7 94h29.8c2.4-2.1 27.7-24.4 27.7-24.4h91.8s6.6 19.7 8.2 24.4h36.6c-4.4-10.8-36.3-88.9-38.3-94"/><path id="p8" d="m1367 55.9c5.3-12.8 10.6-22 15.7-27.6 2.5-3 5.3-5.5 8.6-7.7 3.4-2.3 7.4-4.4 11.9-6.3 9-3.7 20.2-6.6 33.2-8.5 13.1-1.9 29-2.9 47.4-2.9h56.8c-1.7 4.1-2.8 6.6-3.8 8.9-5.5 0-64.2 0-64.2 0-18.1 0-32.8 2.1-43.7 6.3-10.6 4-18.4 11.2-23.3 21.3l-3.2 6.6h120.2c-1.6 4-2.6 6.3-3.6 8.6-5.8 0-119.9 0-119.9 0s-15.4 37.3-17.5 42.3c-4.3 0-23.1 0-31.8 0 4-9.5 17.2-41 17.2-41"/><path id="p9" d="m1713 3.1c-1.7 4-2.7 6.5-3.6 8.8-5.6 0-65 0-65 0s-33 79.7-35.2 85c-4.4 0-24.4 0-33.3 0 4.5-10.8 35.2-85 35.2-85s-53.5 0-64.4 0c1.7-4 2.7-6.5 3.6-8.8h162.7"/></g></g></svg>