<svg viewBox="0 0 1064 100" xmlns="http://www.w3.org/2000/svg" xmlns:xlink="http://www.w3.org/1999/xlink"><g id="figure"><path d="m54.3 32.5c-.5-4.6-1.9-8.3-4.5-11.1-3.9-4.3-9.4-6.5-16.3-6.5h-17.8v70.2h17.8c6.9 0 12.4-2.2 16.4-6.5 2.5-2.8 4-6.7 4.5-11.7s.7-10.8.7-17.5-.2-12.3-.7-16.9zm15.2 27.5c-.1 3.6-.3 7.1-.9 10.6-.5 3.4-1.5 6.7-2.8 9.9-1.4 3.2-3.3 6-6 8.7-3.1 3.1-6.7 5.3-11 6.8-4.2 1.5-8.9 2.2-13.9 2.2h-33.8v-96.4h33.8c5.1 0 9.7.7 13.9 2.2s7.9 3.8 11 6.8c2.6 2.6 4.6 5.4 6 8.5 1.4 3 2.3 6.2 2.8 9.5s.8 6.7.9 10.1c0 3.4.1 6.9.1 10.4s0 7.1-.1 10.7"/><path d="m119.9 23.7-15 42.8h29.6zm25.3 74.4-6.6-19.4h-38l-6.6 19.4h-15.6l35.3-96.3h11.8l35.3 96.4h-15.6"/><path d="m222.6 19c-3-2.7-7-4-11.8-4h-21.7v30.3h21.7c4.9 0 8.8-1.3 11.8-3.9s4.5-6.3 4.5-11.2c0-4.8-1.5-8.5-4.5-11.2zm5.1 79.2-20.3-40.6h-18.3v40.6h-14.6v-96.4h37.4c4.6 0 8.7.7 12.4 2.1s6.8 3.3 9.4 5.8 4.6 5.5 6 8.9c1.4 3.5 2.1 7.2 2.1 11.3 0 6.9-1.9 12.6-5.5 16.9-3.7 4.3-8.3 7.2-13.7 8.7l22.2 42.6h-17.1"/><path d="m341.8 98.2h-12.7l-19.7-67.6-19.4 67.6h-12.8l-25.1-96.4h15.4l16.8 68.9 19.3-68.9h11.8l19.4 68.9 16.7-68.9h15.4l-25.2 96.4"/><path id="a" d="m381 98.2v-96.4h14.6v96.4z"/><path id="b" d="m480 98.2-44.5-67.8v67.8h-14.7v-96.4h13.4l44.6 67.7v-67.7h14.6v96.4z"/><path d="m565.7 14.9v29.4h40.1v13.1h-40.1v40.7h-14.6v-96.3h61.5v13.1h-47"/><use xlink:href="#a" transform="translate(249.2)"/><path d="m702.7 14.9v83.2h-14.7v-83.2h-26.5v-13.1h67.7v13.1z"/><use xlink:href="#b" transform="translate(325)"/><path d="m843.6 98.2v-96.4h61.6v13.1h-47v28.2h40.1v13h-40.1v29h47v13.1z"/><path id="c" d="m982.8 82.6c-1.7 3.5-4.1 6.5-7.2 8.9s-6.7 4.3-11 5.5c-4.2 1.3-8.9 1.9-13.9 1.9-7.3 0-13.7-.9-19.1-2.8s-10.4-5.2-15-9.9l9.8-9.6c3.5 3.5 7.3 5.9 11.2 7.2 4 1.3 8.4 2 13.4 2 6.3 0 11.2-1.3 14.7-3.9s5.2-6.2 5.2-10.9c0-4.4-1.3-7.8-3.8-10-1.3-1.2-2.6-2-4.1-2.6-1.4-.5-3.6-1-6.5-1.5l-11.4-1.6c-7.8-1.1-13.9-3.7-18.3-7.7-4.7-4.4-7-10.6-7-18.4 0-4.2.7-8 2.2-11.4 1.5-3.5 3.6-6.5 6.4-9s6.1-4.5 10.1-5.8c4.1-1.3 8.6-2 13.6-2 6.4 0 12 .9 16.7 2.6s9.1 4.5 13.3 8.4l-9.3 9.2c-3-2.9-6.2-4.8-9.7-5.9-3.5-1-7.2-1.6-11.3-1.6-5.7 0-10 1.4-13.1 4.3-3 2.8-4.5 6.4-4.5 10.8 0 1.8.3 3.5.9 4.9.6 1.5 1.5 2.8 2.8 4 2.5 2.3 6.1 3.7 10.8 4.5l11 1.6c4.5.7 8.1 1.6 10.8 2.8 2.7 1.1 5.1 2.6 7.2 4.4 2.6 2.3 4.6 5.2 5.9 8.5s2 7.1 2 11.2c0 4.4-.9 8.4-2.6 11.9"/><use xlink:href="#c" transform="translate(78.4)"/></g></svg>