<svg viewBox="0 0 100 100" xmlns="http://www.w3.org/2000/svg" xmlns:xlink="http://www.w3.org/1999/xlink"><g transform="scale(.1)"><path d="m52.1 500c0 247.3 200.6 447.9 447.9 447.9s447.9-200.6 447.9-447.9-200.6-447.9-447.9-447.9-447.9 200.6-447.9 447.9z" fill="#2e2a2b"/><g fill="#fff"><path d="m308.2 500c0 105.8 86.1 191.8 191.8 191.8s191.8-86 191.8-191.8-86-191.8-191.8-191.8-191.8 86-191.8 191.8z"/><path d="m183 471.8c-9.2.4-15.7 7.1-16 17.9l-.4 15.6 61.7 1.8.5-15.6c.1-4.4-.8-17.3-15.5-18.8-10.1-1-20.2-1.4-30.3-.9zm50-3.5c3.7 3.9 7.7 10.8 7.4 22.2l-.9 29.8-84.8-2.5.8-29.8c.2-6.9 2-15.5 8.6-21.7 3.1-2.9 9.4-8 25-7.8 6.2.1 12.4.4 18.6.6 9.3.3 18.6 2.4 25.3 9.2z"/><path d="m189.3 402.3 32.1 23.7 7.7-24.9zm51.2-1.4-9.8 32 14.5 10.6-4 13.1-72-54.7 3.1-9.9 90.2-4.8-4 13.1z"/><path d="m222.3 314.3-10.3 16 22.5 14.5 10.3-16.1c3.8-5.9 4.8-14-3.4-19.3-7.9-5.1-15-1.5-19.1 4.9zm69.8 27.1-39.8-4.3-8.7 13.5 30.1 19.4-7 10.8-71.4-45.9 17.8-27.7c8.5-13.3 22.7-16.6 35.1-8.7 13.7 8.8 11.2 21.9 9.8 26.4l42.2 3.8z"/><path d="m352 283.6-50.7-35.6 23.8 57.1-8.7 7.1-70.5-52.4 10.6-8.5 49.5 38.1-24.6-58 8-6.5 51.3 36.7-26.4-56.6 10.6-8.5 35.8 80.1z"/><path d="m352.6 185.7 11.7-5.3 35.3 77.2-11.7 5.3z"/><path d="m416 188.1 12.6 58.4-12.5 2.7-17.9-82.9 11.5-2.5 50.9 50-12.6-58.3 12.6-2.7 17.9 83-11.5 2.4z"/><path d="m540.6 193.1 36.7 6.1-1.4 8-36.7-6.1-6.1 36.9-8.9-1.5 13.9-83.7 52 8.6-1.3 8-43.1-7.1z"/><path d="m617.4 171 8.5 3.1-28.9 79.8-8.5-3.1z"/><path d="m677 207.7-38.5 66.5-7.8-4.6 38.4-66.4-21.2-12.3 4-7 50.4 29.1-4.1 7z"/><path d="m723.9 252.1-48.7 47.6-6.4-6.5 60.8-59.3 6 6.1-17.1 79.7 48.6-47.4 6.3 6.5-60.8 59.3-6-6.2z"/><path d="m798.3 314.5 24.9 46.4-7.1 3.9-20.7-38.5-26.3 14.2 17.5 32.7-7.1 3.9-17.6-32.8-27 14.5 20.6 38.4-7.1 3.9-24.9-46.5z"/><path d="m757.3 436.3c-3-12.3-1.8-21.4 4-31l7.5 4.6c-4.2 6.9-6.3 13.8-3.6 24.7 2.7 11.3 9.6 18.2 20 15.7 10.3-2.5 11.4-9.7 10.7-18.1l-.8-10c-1.1-13.5 3.2-23.5 16.4-26.7 13.8-3.4 25.7 4.2 29.7 20.7 2.4 10 1.8 17.8-3 26.8l-7.1-4.3c4.5-8.3 3.9-15 2.4-21-3.1-12.8-11.6-15.4-19.5-13.6-9.3 2.2-11.1 10.1-10.4 18.2l.8 9.4c1.2 14.1-3 23.8-16.8 27.4-15.2 3.9-26.4-6.6-30.3-22.8z"/><path d="m764.9 499.2c0-11.9 2.9-20.8 11.3-29.1l6.2 6.3c-5.7 5.7-9.4 11.8-9.4 23 0 11.9 5.3 20.1 15.7 20.1 12.2 0 13.8-9.3 14.7-15.1l1.6-9.8c2.1-13.2 8.7-22 22.4-22 13.9 0 23.9 10 23.8 27.3 0 9.3-2.1 17-9.4 25.2l-5.8-5.9c6.6-7.2 7.4-14 7.4-19.7.1-12.9-7.5-18-15.7-18-8.4 0-12.9 5.5-14.5 15.2l-1.5 9.3c-2.1 13.2-7.4 22.2-22.8 22.6-15.7.4-24.1-12.7-24-29.4z"/><path d="m283.1 768.4c-1.8-1.5-18.8-16.5-2.2-36.2l12.8-15.2c14.2-16.9 30.1-9.1 36-4.2 4.8 4 9 9.1 10.1 21.2l-7.2.6c-.4-6.5-2.3-12.1-7.3-16.5-2.6-2.2-14-9.9-26 4.3l-12.2 14.5c-11.9 14.1-2.9 23.6.4 26.3 2 1.7 13.6 10.5 25.5-3.5l3.5-4.1-13.3-11.1 4.3-5.2 19.1 16.1-7.3 8.6c-16.6 19.5-33.8 6.3-36.2 4.4z"/><path d="m360.7 736.8 39.3 20.3-3.1 6.1-32.6-16.9-11.6 22.4 27.8 14.3-3.2 6.1-27.7-14.4-11.9 22.9 32.6 16.8-3.1 6.1-39.4-20.4z"/><path d="m436.3 775-18.5-4.9-6.6 25.3 18.4 4.8c4.3 1.1 14.1 2.3 17.1-9 3-11.5-6.4-15.1-10.4-16.2zm-10.2 31.2-16.6-4.3-8.1 30.6-7.3-1.9 18.1-69 26.5 6.9c12.1 3.1 18.5 12.6 15.4 24.6-3.2 12.3-13.1 15-19.9 14.6l8.1 35.6-8.6-2.3z"/><path d="m526.3 793.4-19.5 43h-6.6l-19.8-43v54.2h-7.6v-71.3h7.6l23.2 50.6 22.7-50.6h7.6v71.3h-7.6z"/><path d="m573.3 778.4-3.7 39.9 25.8-6.6zm25.8 39.1-30.1 7.7-1.6 17.1-7.8 2 7.8-75.6 6.2-1.6 43 62.6-7.9 2z"/><path d="m620.1 766.1 26.8 50.5-6.7 3.6-33.4-63 6.3-3.4 60.2 32.6-26.7-50.4 6.7-3.5 33.5 63-6.4 3.4z"/><path d="m728.1 763.5-5.8 4.9-19.1-22.5-43.3-18.2 6.3-5.3 34.9 15.2-9.4-36.8 6.3-5.3 11 45.5z"/></g><g fill="#f9ae0c"><path d="m500 915.7c-229.2 0-415.7-186.5-415.7-415.7s186.5-415.7 415.7-415.7 415.7 186.5 415.7 415.7-186.5 415.7-415.7 415.7zm-480-415.7c0 264.7 215.3 480 480 480s480-215.3 480-480-215.3-480-480-480-480 215.3-480 480z"/><path id="a" d="m215.2 595.3-7.5 16.2-17.7-2.2c-4.5-.6-4.8 2.3-4.8 2.9 0 1.3 1.1 2.3 2 3.2l13.1 12.1-7.7 16.1c-.4.8-1.6 3.3.1 4.9 1.4 1.4 3.6.3 4.8-.3l15.8-8.7 12.8 12.2c1.1 1 1.9 1.8 3.3 1.8 1.7 0 3.3-1.4 2.6-4.9l-3.6-17.6 15.8-8.5c1.5-.8 2.7-1.8 2.7-3.6 0-1.9-1.8-2.7-3.3-2.9l-18.4-2.3-3.3-17.5c-.4-2.1-1.3-3.9-3.2-3.9-1.7 0-2.8 1.4-3.5 3z"/><use transform="translate(570)" xlink:href="#a"/></g><g fill="#7b7979"><path d="m409.7 488.3c2.4-39.6 30.9-73 69.5-81.4l-.1 28.1 48-47.4-47.4-48-.2 25.5c-60.7 8.8-107.2 59.2-110.9 120.7-.5 7.7 6.3 12.9 18.9 12.9 10 0 21.8-3.6 22.2-10.4z"/><path d="m578.6 388.8c-6.4-4.5-14.7-1.3-21.3 9.8-5 8.3-8.1 19.9-2.5 23.9 32.4 22.9 45.8 64.5 32.7 101.9l-23.8-14.9 15.1 65.8 65.7-15.1-21.5-13.5c24.4-56.5 5.9-122.4-44.4-157.9z"/><path d="m541.9 585c-36.5 15.6-78.9 4.8-103.8-26.1l25.2-12.3-63.8-21.9-21.9 63.8 22.9-11.2c24.8 35.8 65.1 55.9 106.8 55.9 17 0 34.2-3.3 50.7-10.3 11.2-4.8 5.6-20.3-.1-28.1-3-4.1-9.8-12.5-16-9.8z"/></g></g></svg>