<svg viewBox="0 0 95 100" xmlns="http://www.w3.org/2000/svg"><g id="figure" fill="#fff"><path d="m4 97.6c0 .1 0 .1-.1.1h-1.8c-.1 0-.1 0-.1-.1v-15.9c0-.1 0-.1.1-.1h2.3c.1 0 .2 0 .2.1l8.4 13.4v-13.4c0-.1 0-.1.1-.1h1.8c.1 0 .1 0 .1.1v15.9c0 .1 0 .1-.1.1h-2.4c-.1 0-.2 0-.2-.1l-8.3-13.1z"/><path d="m34.2 89.7c0-4.1-2-6.6-5.5-6.6-3.4 0-5.5 2.5-5.5 6.6s2.1 6.5 5.5 6.5 5.5-2.4 5.5-6.5zm-13.2 0c0-5.2 3-8.4 7.7-8.4 4.6 0 7.7 3.2 7.7 8.4 0 5-3 8.3-7.7 8.3-4.6 0-7.7-3.3-7.7-8.3z"/><path d="m53.1 97.6v-7.7h-8.5v7.7c0 .1 0 .1-.1.1h-2c-.1 0-.1-.1-.1-.1v-15.9c0-.1 0-.1.1-.1h2c.1 0 .1 0 .1.1v6.5h8.5v-6.5c0-.1 0-.1.1-.1h2c.1 0 .1 0 .1.1v15.9c0 .1 0 .1-.1.1h-2c-.1 0-.1 0-.1-.1z"/><path d="m63.8 83.3v6.1h3.9c2.1 0 3.6-.8 3.6-3 0-2.1-1.3-3.1-3.6-3.1zm3.4 7.8h-3.4v6.5c0 .1 0 .1-.1.1h-2c-.1 0-.1 0-.1-.1v-15.9c0-.1 0-.1.1-.1h5.7c3.7 0 6 1.5 6 4.7 0 2.6-1.5 4.1-3.9 4.6l4.2 6.7s0 .1-.1.1h-2.2c-.1 0-.2 0-.2-.1"/><path d="m85 96c2.8 0 5.7-1.9 5.7-6.4 0-4.3-2.6-6.3-5.8-6.3h-3.2v12.7zm-5.5 1.6v-15.9c0-.1 0-.1.1-.1h5.2c4.6 0 8.2 2.7 8.2 8 0 5.5-3.8 8.1-8.1 8.1h-5.3c-.1 0-.1 0-.1-.1z"/><path d="m46.9 46.6c-1.6.2-2.7.5-3.7.8-.4.1-.5.1-.5.4v16.8h9.6v-18.1c0-.1-.7-.1-1.7-.1-1.1 0-2.5 0-3.7.2z"/><path d="m48 2.4c-.1-.3-.4-.4-.7-.4s-.5.1-.7.4l-21.7 39.8c-.1.1-.1.3-.1.4 0 .4.3.8.7.8 1.8.1 12.1.2 22.3.2 10.4 0 20.7-.1 21.6-.2.4 0 .8-.3.8-.6 0-.2 0-.3-.1-.4z"/></g></svg>