<svg viewBox="0 0 751 100" xmlns="http://www.w3.org/2000/svg"><g id="figure" fill="#fff"><path d="m82.4 2-80.4 77.3h40.2l26.4-25.4h54l25.1-24.1h-54l28.9-27.8zm120.6 0-80.4 77.3h40.2l80.4-77.3z"/><path d="m389.6 79.3h-14.1v-34.1h-38.3v34.1h-14.1v-77.3h14.1v32h38.3v-32h14.1z"/><path d="m398.5 88.2h5c5.8 0 8.1-.5 10.8-7.9l.6-1.4-21.5-57h14.4l13.5 41.2 13.5-41.2h13.6l-21 57.3c-5.5 14.8-9.6 18.7-23 18.7h-5.9z"/><path d="m465 29.6c3.6-5.7 9.8-8.9 17.8-8.9 14.5 0 25.6 11.7 25.6 30 0 18.5-11.1 30-25.6 30-8 0-14.2-3.2-17.8-8.9v26.2h-13.2v-76h13.2zm29.6 21c0-12-5.5-19.6-14.7-19.6-8.6 0-15.5 6.4-15.5 19.6s6.9 19.7 15.5 19.7c9.2 0 14.7-7.5 14.7-19.7z"/><path d="m542.4 70.1c6.9 0 12.3-2.6 14.6-8h13c-2.8 9.2-11.7 18.6-27.1 18.6-19.2 0-30.1-14.1-30.1-30.5 0-17.3 12.3-29.5 29.3-29.5 17.4 0 28.6 12.8 28.6 30.6 0 .9-.1 1.9-.1 2.9h-44.4c1 10.7 8.7 15.9 16.2 15.9zm14.9-25.1c-.4-8.9-7.5-14.4-15.2-14.4-6.2 0-14.8 3.5-15.9 14.4z"/><path d="m602.4 34.5c-8.3 0-13.1 3.3-13.1 14.8v30h-13.2v-57.3h13v10.2c3.2-6.4 9-10.3 16.2-10.4 1 0 2.4.1 3.4.2v12.9c-2.2-.2-4.3-.4-6.3-.4z"/><path d="m626.3 14.8h-13.2v-12.8h13.2zm0 64.5h-13.2v-57.3h13.2z"/><path d="m674.6 41.7c-1.1-6.1-6.7-10.5-13.9-10.5-8.2 0-15.6 5.9-15.6 19.5s7.5 19.5 15.3 19.5c6.4 0 13-2.8 14.7-10.5l12.8.1c-2.7 13.4-14.9 21-27.7 21-17.3 0-28.8-12.9-28.8-30s11.6-30.1 29.3-30.1c13 0 24.6 8.2 26.8 21z"/><path d="m720.7 70.1c6.9 0 12.3-2.6 14.6-8h13c-2.8 9.2-11.7 18.6-27.1 18.6-19.2 0-30.1-14.1-30.1-30.5 0-17.3 12.3-29.5 29.3-29.5 17.4 0 28.6 12.8 28.6 30.6 0 .9-.1 1.9-.1 2.9h-44.4c1 10.7 8.7 15.9 16.2 15.9zm14.9-25.1c-.4-8.9-7.5-14.4-15.2-14.4-6.2 0-14.8 3.5-15.9 14.4z"/></g></svg>