<svg viewBox="0 0 374 100" xmlns="http://www.w3.org/2000/svg" xmlns:xlink="http://www.w3.org/1999/xlink"><path d="m50 2a48 48 0 00-48 48 48 48 0 0048 48 48 48 0 0048-48 48 48 0 00-48-48z" fill="#d20a11"/><path d="m91 29-8.8 13.5c-6.1-4.3-11-11-20.3-10.4-1.6.1-3 1.1-3.5 2.6-.3 1.3 1 2.5 2 3.1 10.7 6.9 27 7.6 30.7 21.2.5 1.9.8 3.8.8 5.7 0 12.4-13.3 20-26 20-9.6 0-18.3-4.1-25.8-9.9-.2-.2-.4-.4-.5-.7l10-13.8c0-.1.1-.2.4-.2 7.8 6.4 14.4 14.6 26 12.2 3.1-.6 3.6-1.7 3.5-3.9-.4-3.1-7.5-5.5-13.2-7.4-7.3-2.5-13.6-5.3-17.9-10.9-6.5-8.5-2.8-20.2 5.7-25.7 3.3-2.1 7.2-3 11.1-3 7.3 0 14.7 3 19.6 6.7l2-2.1z" fill="#fff"/><path d="m117.5 31.9.1 4c2.6-2 6.4-4.1 10.7-4.1 9.8 0 15.1 10 15.2 18.9.1 10.7-7 22.2-18.6 22.2-2.1 0-5-.4-7.3-2.3v9.4h4.9v4.9h-21.8v-5h2.8v-39.5l-2.8.4v-4.3l16.4-4.6zm0 26.9c0 2.9.8 8.8 5.4 8.6 2.1-.2 3.8-1.2 4.6-3.1 2.7-6.8 1.7-16.5-.8-20.5-1.6-2.4-4.1-4-6.9-3.9-.8 0-1.5.1-2.3.1z"/><path d="m185 37.7c4.1 3.8 6.2 9.2 6.2 14.7 0 5.7-2.1 10.8-6.1 14.6-4.5 3.8-10 5.8-15.6 5.8s-11.3-1.9-15.8-5.8c-4.1-3.8-6.2-9.1-6.2-14.7 0-5.5 2.1-10.9 6.2-14.7 4.3-3.9 9.9-5.9 15.7-5.9s11.4 2.1 15.6 6zm-8.2 19.6c.1-4.7-.9-9.5-3.1-13.7-2.1-3.9-4.4-5.8-6.8-5.8-4.7 0-5.1 7.2-5 9.1-.1 4.9 1 9.7 3.1 14.1 2 3.9 4.2 5.9 6.7 5.9 5.1 0 5.2-7.9 5.1-9.6z"/><path d="m213.8 31.9h.6l-.4 6.8c2.3-2 4.9-3.7 7.6-5.1 2-1 4.3-1.7 6.5-1.7 3.1 0 6.2.9 8.2 3.1 2.1 2.4 3 5.6 3 8.8v23h2.7v4.9h-19.6v-4.9h2.7v-20.6c0-2.6-1.3-5.2-4.2-5-3 .1-5.5 1.8-6.9 3.1v22.5h2.7v4.9h-19.5v-4.9h2.7v-26.4l-2.7.4v-4.3z"/><path d="m263.4 56.5c.7 1.4 3.7 7 10.2 6.9 4.2 0 7.4-1.9 9.4-4l2.9 3c-2.4 3.2-5.5 5.9-9 7.8-3.4 1.8-7.1 2.7-10.9 2.7-5 0-10-1.9-13.3-5.7-3.9-4.6-5.2-9.2-5.2-14.6 0-5.5 1.1-10.2 5.6-14.8 3.6-3.9 8.6-6 13.6-6 4.3 0 12.1 1.5 17 11.7.6 1.5 1.4 2.8 1.6 4.3 0 .3-.8.6-2.3 1s-2.9.9-3.6 1.2zm7.9-10c-.6-2.3-1.7-4.3-3.2-6.2-.9-1.3-2.4-2.1-4-2.2-1.1 0-2.2.5-2.8 1.5-2.2 3.9-.3 9.8.1 11z"/><path d="m303.6 23.1 4 .9v9.4h6.8l-.8 4.5c-.1.5-.2 1.7-1.1 1.7h-4.9v19.8c0 1.6.1 3.1.8 4.2 1.7 2.5 5.2.6 5.9.2l2 3c-2 2.1-6.6 6-12.6 6-7.5 0-10.2-3.6-10.2-10.9v-22.3l-3.6.2v-4.7c3.1-.8 10.7-3.7 13.7-12z"/><path d="m332.6 31.7-.7 2.2c3.2-1.4 6.5-2 9.9-2 3.7 0 7.3.9 10.2 3.3 2.5 2.4 3.9 5.8 3.7 9.2v22.4h2.7v4.9h-15.6l-1.1-3.7c-2 1.8-6 4.8-10.9 4.8-3.4 0-6.6-1.1-9-3.4-2.8-2.7-3.5-5.5-3.5-8.8 0-4.2 1.2-8 5.1-10.7 3.3-2.4 8.3-3.6 15-3.6 1.1 0 2.1.1 3.2.2v-2.1c0-2.7-2.3-4.2-5-4.2-1.7 0-3.3.4-4.7 1.2-1.6.9-2.9 2.2-4 3.7l-4.6-1.8 5.2-13.1zm9.1 19.5c-.7-.1-1.3-.2-2-.2-1.9-.1-3.8.6-5.1 2-1.3 1.5-1.7 3.3-1.8 5.3-.2 2.8 1.1 6.3 4.4 6.1 1-.1 4.4-.1 4.5-4.9z"/><path d="m365.1 17.7c-3.8 0-6.9 3.1-6.9 6.9s3.1 6.9 6.9 6.9 6.9-3.1 6.9-6.9-3.1-6.9-6.9-6.9zm0 1.2c3.1 0 5.7 2.6 5.7 5.7s-2.6 5.7-5.7 5.7-5.7-2.6-5.7-5.7 2.6-5.7 5.7-5.7z"/><path d="m366.5 28.5c-.3-.6-.4-1.4-.5-2-.2-1.2-.8-1.4-1.6-1.4h-.5v3.4h-1.6v-7.9h2.7c1.9 0 3.1.5 3.2 2.1 0 1.1-1 1.6-1.6 1.8.3.2.5.3.6.4.5.5.5 1.2.6 1.8 0 .2.1 1.1.5 1.8m-3.2-4.8c.7 0 1.4-.1 1.4-.9s-.7-1-1.4-1h-1.2v1.9"/><path d="m154.2 80.1a6.8 6.8 0 00-6.8 6.8 6.8 6.8 0 006.8 6.8 6.8 6.8 0 006.8-6.8 6.8 6.8 0 00-6.8-6.8z"/><path d="m169.3 80.1a6.8 6.8 0 00-6.8 6.8 6.8 6.8 0 006.8 6.8 6.8 6.8 0 006.8-6.8 6.8 6.8 0 00-6.8-6.8z" fill="#e30613"/><path d="m184.4 80.1a6.8 6.8 0 00-6.8 6.8 6.8 6.8 0 006.8 6.8 6.8 6.8 0 006.8-6.8 6.8 6.8 0 00-6.8-6.8z" fill="#f4ce00"/><path d="m211 93.7-1.5-13.6h-2.5l-2.5 8.7-.3 1.8-.4-1.8-2.4-8.7h-2.6l-1.5 13.6h2.1l.9-9v-1.6l.3 1.6 2.6 9h1.4l2.7-9 .4-1.6v1.6l.9 9z"/><path id="a" d="m221.9 86.5c0-2.4-1.4-3.7-4-3.7-1.3 0-2.6.5-3.6.9l.6 1.4c.3-.1 1.5-.7 2.8-.7 1.1 0 2 .5 2 1.8v.6c-1.8.2-3.2.4-4.2 1-1 .5-1.7 1.5-1.7 2.8 0 3.2 3.5 3.3 4.4 3.3 1.3 0 2.6-.2 3.7-.7zm-5.3 5.5c-.8-.8-.7-2.1-.1-2.9.7-.8 1.9-1.1 3.2-1.3v4.4c-.1 0-1.8.8-3.1-.2z"/><path d="m233.6 78.2h-2.4v4.9c-1.6-.5-6.3-.4-6.3 5.5 0 3.9 2.3 5.3 4.9 5.3s3.8-.7 3.8-.7zm-6.3 10.1c0-1.4.2-3 1.4-3.7.8-.4 1.6-.3 2.4-.2v7.8c-.1.1-1.7.5-2.7-.4s-1.1-2.6-1.1-3.5z"/><path id="b" d="m245.5 88c0-5-3.4-5.2-4.4-5.2-2.7 0-4.6 2.1-4.6 5.6 0 3.4 1.9 5.5 5 5.5.8 0 2.2-.1 3.5-.8l-.5-1.5c-1 .5-2.4.6-2.7.6-1.6.1-2.7-1-2.9-2.8l6.4-1c.2 0 .2-.2.2-.4zm-6.7 0v-.2c0-.6.1-1.2.3-1.8.1-.5.3-.9.7-1.2.7-.6 1.8-.6 2.5-.1.3.3.6.6.7 1 .2.5.2 1.3.2 1.6z"/><path d="m257.2 80.1c0-.7-.6-1.3-1.3-1.3s-1.3.6-1.3 1.3.6 1.2 1.3 1.2 1.3-.5 1.3-1.2zm0 13.6v-10.6h-2.6v10.6z"/><path id="c" d="m269 93.7v-7.3c0-2.6-1.6-3.5-4.4-3.5-1.9 0-3.3.4-4 .7v10.1h2.4v-9c.4-.2.9-.3 1.6-.3s2 0 2 2.1v7.2z"/><path d="m287.9 93.2v-7.3h-4.6v1.5h2.2v4.5c-.4.1-.7.2-1.4.2-2.2 0-3.4-2.3-3.4-5-.1-3 1.3-5.5 3.9-5.4.7 0 1.5.2 2.3.6l.7-1.6c-1.3-.7-2.7-.8-3.3-.8-4.1 0-6.2 3.2-6.2 7.1 0 4.2 2.2 7 6 7 1.6 0 3.2-.3 3.8-.8z"/><use transform="translate(54.3)" xlink:href="#b"/><path d="m302.7 83.7v10.1h2.4v-9.2c.5-.2 1.6-.3 2.2 0l.5-1.7c-2.1 0-3.9.1-5.1.8z"/><path d="m324.5 93.7v-7.3c0-2.6-1.9-3.6-4-3.6-.8 0-2.1.2-3.2 1.2-.9-.9-2-1.2-3.2-1.2-1.6 0-2.9.5-3.9.9v10h2.3v-9.1c1-.4 3.8-.6 3.7 1.6v7.5h2.3v-8.5c1.1-1.3 3.7-1.1 3.6 1.2v7.3z"/><use transform="translate(113.6)" xlink:href="#a"/><use transform="translate(78.3)" xlink:href="#c"/><path d="m359 83h-2.3l-2 7-.3 1.5-.2-1.5-1.9-6.9h-2.5l3.5 10.7-1.7 4.2h2.5z"/></svg>