<svg viewBox="0 0 139 100" xmlns="http://www.w3.org/2000/svg"><g id="figure" fill="#fff"><path d="m31 2-4.6.6v.6c1.2 0 1.2.5 1 1l-4.2 11.1c-.2.8-.6 1.8-.6 2.7 0 1.4.3 2.5 2.3 2.5 4.3 0 8.6-4.9 8.6-8 0-1.3-.6-2.6-1.9-2.6-2.6 0-3.7 1.6-5.2 3.3zm0 9.2c1.5 0-2 8.3-5.4 8.3-2.1 0 2.1-8.3 5.4-8.3z"/><path d="m41.2 9.8c-3.2 0-6.6 3.5-6.6 7.5 0 1.8 1.1 3.2 3 3.2 3.7 0 6.5-3.8 6.5-7.3 0-1.2-.3-3.4-2.9-3.4zm.4.7c2 0-1.7 9.1-3.5 9.1-2.7 0 .8-9.1 3.5-9.1z"/><path d="m59.6 2-4.2.6v.6c1 .1 1 .9.9 1.2-.6 2.1-1.2 4.1-2 6.1-.4-.6-1.2-.7-1.8-.7-3.1 0-7.5 4.8-7.5 8.5 0 1.1.3 2.2 1.8 2.2 2.8 0 4.8-2.6 6-4.7-.5 1.5-.8 2.4-1.2 4-.1.5.6.7.9.7 2.4 0 3.6-1.3 4.9-3.3.1-.2 0-.5-.2-.5-.1 0-.4.2-.5.3-.8.8-2 2-2.5 1.9-.3-.1-.1-.5 0-.7zm-6.1 8.8c1.3 0-2.4 8.3-5.8 8.2-2 0 2.9-8.3 5.8-8.2z"/><path d="m62.8 19.3c1.6-3.2 2.6-4.5 2.7-8.1 0-.7.1-1.4 1.1-1.4.6 0 1 .3 1 1.2 0 .3-.1.6-.2 1-1 3.1-1.6 4.6-3.3 7.4-1.5 2.4-4.6 7.5-8.2 7.5-.6 0-1.7-.3-1.7-1.3s1.1-1.7 1.7-1.5c1 .3.8 1.7 2.4.7 1.9-1.2 1.9-2.1 2.2-4.3.5-3.1.3-8.7-.4-8.7-.9.1-.9.8-1.6 2.3-.3.7-1.2.4-1-.4.6-2.1 1.5-3.9 4-3.9s1.4 6.6 1.3 9.5z"/><path d="m2 31.7h13.7c2.8 10.6 6 21.1 7.8 32 1.7-10.8 4.7-21.4 7.3-32h13.3c-4.8 14.7-9.4 29.4-14.2 44.1h-13.6c-4.7-14.7-9.6-29.4-14.3-44.1z"/><path d="m62.9 31.7v44.1h-12.9v-44.1z"/><path d="m74.6 16.2v59.6h12.5l-.5-4.5c3.2 3.9 7.8 5.7 12.6 5.7 9 .1 19.3-6.2 19.4-23.6.2-21.5-15.7-22.9-18.6-23-4.7-.1-9.4 1.6-12.7 5.2v-19.4zm22.6 23.8c9.3.1 8.8 12.5 8.6 15.5-.3 5.8-2.8 11.3-9.1 11.8-6.5.1-8.7-5.2-9.4-9.6-.6-3.8-.4-8.1 1-11.8 1.7-4.3 5.2-5.9 8.9-5.9z"/><circle cx="78.5" cy="11.9" r="1"/><circle cx="85.9" cy="9.8" r="1"/><circle cx="93.5" cy="9.2" r="1"/><circle cx="99.6" cy="9.7" r="1"/><circle cx="105.6" cy="11" r="1"/><circle cx="111.3" cy="13.2" r="1"/><circle cx="116.7" cy="16.3" r="1"/><circle cx="121.5" cy="20" r="1"/><circle cx="125.8" cy="24.5" r="1"/><circle cx="129.4" cy="29.5" r="1"/><circle cx="132.3" cy="35" r="1"/><circle cx="134.4" cy="40.8" r="1"/><circle cx="135.6" cy="46.9" r="1"/><circle cx="136" cy="53" r="1"/><circle cx="135.6" cy="59.2" r="1"/><circle cx="134.4" cy="65.3" r="1"/><circle cx="132.3" cy="71.1" r="1"/><circle cx="129.4" cy="76.6" r="1"/><circle cx="125.8" cy="81.5" r="1"/><circle cx="121.6" cy="86" r="1"/><circle cx="116.7" cy="89.9" r="1"/><circle cx="111.3" cy="92.9" r="1"/><circle cx="105.6" cy="95.1" r="1"/><circle cx="99.6" cy="96.5" r="1"/><circle cx="93.4" cy="97" r="1"/><circle cx="85.8" cy="96.3" r="1"/><circle cx="78.4" cy="94.1" r="1"/></g></svg>