<svg viewBox="0 0 330 100" xmlns:xlink="http://www.w3.org/1999/xlink" xmlns="http://www.w3.org/2000/svg"><g id="figure"><g fill="#005ca9"><path d="m202.9 2.1c3.8-.3 8 .6 11.3 1.1v17.3c-2-.5-3.7-1.2-5.6.1-2.1 1.6-2 4.6-2 7h7.6c-.1 5.4-.2 10.7-.2 16.1-2.3 0-4.7 0-7 0v28.1c-7.3 0-14.6 0-21.9 0 0-9.4 0-18.7 0-28-2 0-3.9 0-5.9 0 0-5.4 0-10.7 0-16.1 2-.1 3.9-.1 5.9-.2 0-4.2-.2-8.2.8-12.3.9-3.9 2.9-7.5 6.3-9.7 3.3-2.2 6.9-2.9 10.8-3.3z"/><path id="a" d="m77.2 6.8c1.9-.4 3.9-.2 5.5.9 2.4 1.5 3.7 4.5 3.1 7.4-.6 3.4-3.8 5.8-7.2 5.6-3.6-.1-6.8-3.2-6.8-6.8-.2-3.3 2.2-6.3 5.3-7.1z"/><use xlink:href="#a" transform="translate(20.6)"/><path d="m2 7.6v64h31.4c5 0 10.2-.8 14.7-3.1 3.5-1.8 6.3-4.5 7.8-8.1 2.3-5.9 1.4-13.2-3.4-17.6-2-2.1-4.5-3-7-4.3 1.4-.7 2.8-1.2 4.1-2.3 2.8-2.4 4.3-6 4.5-9.7.2-3.9-.4-7.8-2.7-11-2-3-5.1-4.8-8.4-6-4.2-1.4-8.9-1.8-13.3-1.9zm24.1 15.5c1.4 0 2.7 0 4 .4 1.2.3 2.3 1.2 2.7 2.4.4 1.9.3 4.2-1.6 5.3-2 1.3-5.2.9-7.5 1 0-3 0-6.1 0-9.1zm.6 22.7c2.2 0 4.6.1 6.4 1 3.3 1.5 3.3 6.9.1 8.5-2.7 1.4-6.5 1-9.5 1.1 0-3.5-.1-7 0-10.5h3z"/><path d="m322 7.6a6.4 6.4 0 00-6.4 6.4 6.4 6.4 0 006.4 6.4 6.4 6.4 0 006.4-6.4 6.4 6.4 0 00-6.4-6.4zm0 .9a5.5 5.5 0 015.5 5.5 5.5 5.5 0 01-5.5 5.5 5.5 5.5 0 01-5.5-5.5 5.5 5.5 0 015.5-5.5z"/><path d="m319.5 10.3c-.1 2.5 0 5-.1 7.5h1.2c0-1.1 0-2.2 0-3.3h1.1c.9.9 1.4 2.3 2.2 3.3h1.3c-.7-1.1-1.4-2.1-2.1-3.2.6-.3 1.5-.6 1.8-1.3.4-1.1 0-2.6-1.3-2.9-1.4-.2-2.7-.2-4.1-.2zm1.2 1c1.9 0 3.1-.3 3.1 1.4 0 1.3-2 1-3.1 1 0-.8 0-1.6 0-2.4z"/><path d="m80.9 25.5c-3.9 0-7.9 1.3-10.9 3.8-4.3 3.4-7 8.7-8.1 14-1.4 6.7-.4 13.8 3 19.7 1.7 3 4 5.6 7 7.3 5.4 3.2 12.6 3.2 17.7-.6 1.8-1.2 3.2-2.9 4.9-4.2.1 2.1.1 4.1.1 6.2h20.7c0-15 0-30 0-45.1-6.9-.1-13.9 0-20.8 0 0 1.9 0 3.7-.1 5.6-1.6-1.5-2.9-3.3-4.9-4.4-2.6-1.5-5.7-2.3-8.7-2.2zm8 17.2c1.7 0 3.4.8 4.5 2.1 1.3 1.7 1.3 3.7 1.1 5.7-.3 1.7-1.3 3.5-2.9 4.3-1.4.7-3.3.7-4.8.3-2.5-.8-3.5-3.4-3.6-5.8-.2-2.6 1-5.2 3.5-6.2.7-.3 1.5-.4 2.3-.4z"/><path d="m162.4 26c3.4.8 6.2 2.8 8.1 5.7 2.2 3.4 3.1 7.9 3.1 11.9v28c-7.3 0-14.6 0-21.9 0-.2-7.8 0-15.7-.1-23.5-.1-1.6-.3-3.4-1.7-4.3-1.4-.8-3.7-.6-4.6.8-.9 1.3-.9 3.2-.9 4.8v22.3c-7.3 0-14.6 0-21.9 0 0-15 0-30.1 0-45.1h20.4c.1 2.5 0 5 .1 7.5 2.4-2.3 4.2-4.8 7.1-6.6 3.6-2.1 8.2-2.4 12.2-1.5z"/><path d="m244.7 25.5c-3.9 0-7.9.7-11.5 2.2-4.7 2-8.8 5.4-11.3 9.9-2.6 4.6-3.5 10.1-2.9 15.3.5 4.3 2.3 8.4 5.2 11.5 3.2 3.4 7.4 5.7 11.9 6.9 7.4 2 15.3 1.7 22.4-1.2 4.2-1.7 8-4.4 10.5-8.3 1.1-1.6 1.7-3.3 2.3-5.1-7.1 0-14.2 0-21.2 0-.4.9-.8 1.9-1.6 2.6-1.9 1.8-5.5 1.4-6.9-.9-1.1-1.7-1.1-3.8-1.2-5.7h31.8c.3-5.5-.7-10.9-3.7-15.5-3.4-5.3-8.8-8.9-14.8-10.5-2.9-.8-6-1.2-9-1.2zm.6 12.1c1.3 0 2.6.5 3.6 1.4 1.3 1.2 1.7 2.7 1.9 4.4-3.4 0-6.9 0-10.3 0 .2-1.6.4-3 1.4-4.3.9-1 2.2-1.5 3.5-1.5z"/><path d="m315.6 25.5c0 7.4.1 14.8 0 22.3-1.8-1-3.5-2.2-5.6-2.4-2.6-.2-5.3.2-7.2 2.1-1.8 1.8-2.4 4.3-2.4 6.8v17.4c-7.3 0-14.6 0-21.9 0 0-15 0-30.1 0-45.1h21.4c0 2.1-.1 4.2.1 6.3 1.6-1.8 2.8-3.7 4.8-5 3.2-2.2 7.1-2.4 10.9-2.3z"/><path d="m2 84.6h12.7c-.5 4.4-1.2 8.9-1.8 13.3h-10.9z"/><path d="m25.8 84.6c-.7 4.4-1.2 8.9-1.9 13.3h-8.4c.6-4.4 1.2-8.8 1.8-13.3z"/><path d="m28.5 84.6h7.6c-.7 4.4-1.2 8.9-1.9 13.3h-7.5c.6-4.4 1.2-8.8 1.9-13.3z"/><path d="m44.4 84.6c-.6 4.4-1.2 8.9-1.9 13.3h-5.7c.6-4.4 1.2-8.8 1.8-13.2h5.7z"/><path d="m47.1 84.6h4.4c-.6 4.4-1.2 8.9-1.9 13.3h-4.3c.5-4.4 1.2-8.9 1.8-13.3z"/><path d="m62.3 84.7c1.5-.1 3.3 0 4.4 1 .8.8.8 1.9 1.1 2.9-.7 0-1.3 0-2 0-.2-.5-.3-1-.6-1.5-.5-.6-1.4-.6-2.1-.7-1 0-2 0-2.8.9-.6.8-.6 1.9.3 2.4 1.6.7 4 .3 5.5 1.4 1.4 1 1.2 3.1.4 4.4-.9 1.5-2.4 2.1-4.1 2.3-1.8.1-4-.1-5-1.3-.7-.8-.6-1.8-.8-2.9h2c.2.7.2 1.6.9 1.9 1.2.6 2.9.5 4.2 0 1.2-.4 1.8-2.5.5-3.1-1.6-.7-4-.3-5.5-1.4-1.3-.9-1.2-2.6-.6-3.9.7-1.6 2.4-2.4 4.1-2.6z"/><path d="m79.5 84.7c-1.3 0-2.7.1-3.9.1-.7 4.3-1.2 8.6-1.9 13h2.2c.2-1.7.5-3.3.7-5 2.4-.1 5.6.5 7.5-1.4 1.7-1.6 2-5.4-.7-6.3-1.2-.3-2.5-.4-3.9-.4zm.2 2c.8 0 1.5 0 2.3.1 1.9.2 1.3 3.5-.2 3.8-1.6.3-3.3.1-4.9.2.2-1.4.4-2.7.6-4.1h2.3z"/><path d="m97.8 84.6c-2.2 0-4.5 1.2-5.4 3.3-.8 1.9-1.1 4.3-1 6.3.2 2.1 1.3 3.2 3.3 3.7.8.1 1.6.2 2.6 0 1.7-.2 3.2-1.1 4.1-2.6 1-1.7 1.2-4 1.4-6 .1-1.7-.4-3.3-2-4.1-.9-.4-1.9-.6-3-.6zm0 2c1.2 0 2.4.4 2.7 1.7.3 1.6-.1 3.4-.4 4.9-.3 1.4-1.2 2.4-2.6 2.7s-3.4.1-3.9-1.5c-.3-1.5 0-3.2.3-4.6s1-2.7 2.5-3.1c.4-.1.9-.2 1.4-.2z"/><path id="b" d="m114.9 84.8c-1.4 0-2.7 0-4.1 0-.6 4.4-1.3 8.7-1.8 13.1h2c.4-1.8.6-3.6.9-5.4h3.2c.8 1.8 1.5 3.6 2.2 5.4h2.4c-.8-1.8-1.5-3.6-2.3-5.5.8-.5 1.7-.9 2.2-1.6.9-1.1 1.1-2.8.7-4.1-.5-1.2-1.7-1.7-3-1.9-.8-.1-1.6-.1-2.5-.1zm.1 2c.8 0 1.6 0 2.3.2 1.8.3 1.1 3.4-.4 3.5-1.6.2-3.2.1-4.8.1.2-1.3.3-2.6.5-3.8z"/><path id="c" d="m127.3 84.8h10.2c-.1.7-.2 1.3-.3 2-1.4 0-2.7 0-4.1 0-.5 3.7-1.1 7.3-1.5 11-.7 0-1.4 0-2.2.1.5-3.7 1.1-7.4 1.6-11.1-1.4 0-2.7 0-4.1 0 .1-.7.2-1.3.4-2z"/><path d="m145.2 84.8h2c1.1 2.6 2.2 5.3 3.3 7.9 1.9-2.6 3.7-5.3 5.6-7.9h1.9c-.6 4.4-1.2 8.7-1.8 13.1-.7 0-1.4 0-2.1-.1.4-2.9.8-5.9 1.3-8.8-1.5 2.1-3 4.2-4.5 6.3-.5 0-1 0-1.5 0-.9-2.1-1.8-4.2-2.7-6.3l-1.3 8.8-2.1.1c.6-4.4 1.2-8.7 1.9-13.1z"/><use xlink:href="#d" transform="translate(-69.6)"/><path d="m183.5 84.8h2c1.9 3.1 3.7 6.2 5.6 9.3.5-3.1.9-6.2 1.3-9.3h2.1c-.6 4.4-1.2 8.7-1.8 13.1-.7 0-1.3 0-2 0-1.9-3.1-3.7-6.2-5.6-9.3-.4 3.1-.8 6.2-1.3 9.3-.7 0-1.4 0-2.1 0 .6-4.3 1.2-8.7 1.8-13z"/><use xlink:href="#e" transform="translate(-84.2)"/><path d="m220.3 84.8c3.1-.1 6.2 0 9.2 0-.1.7-.2 1.3-.3 2-2.4 0-4.8 0-7.1 0-.2 1.2-.3 2.4-.5 3.6h6.2c-.1.6-.2 1.3-.3 1.9-2 0-4.1 0-6.1 0-.2 1.8-.5 3.7-.8 5.5-.7 0-1.4 0-2.2 0 .6-4.3 1.2-8.7 1.9-13z"/><path id="d" d="m241.2 84.7c-.5 0-1.1 0-1.6 0-2.6 4.3-4.9 8.7-7.4 13.1h2.2c.5-.9 1-1.9 1.5-2.8h5.8c.2.9.5 1.9.8 2.8h2.3c-1.2-4.4-2.4-8.7-3.7-13.1zm-1.3 3c.5 1.8 1 3.6 1.4 5.5-1.5 0-2.9 0-4.4 0 1-1.8 2-3.6 2.9-5.5z"/><path d="m253.1 84.8h2.1c-.3 2.2-.6 4.5-.9 6.7 2.4-2.2 4.7-4.5 7.2-6.7h2.6c-1.8 1.8-3.7 3.5-5.6 5.3 1.4 2.6 2.8 5.2 4.2 7.8-.8 0-1.7 0-2.5 0-1.1-2.1-2.2-4.2-3.3-6.3-1 .9-2 1.9-3 2.8-.2 1.2-.3 2.4-.5 3.5-.7 0-1.4 0-2.1 0 .6-4.3 1.2-8.7 1.9-13z"/><use xlink:href="#c" transform="translate(142.3)"/><path id="e" d="m286.4 84.8h2.1c-.3 2.5-.7 4.9-1.1 7.4-.1 1.1-.4 2.4.5 3.3 1.1.8 2.7.7 3.9.2 1.1-.5 1.5-1.5 1.7-2.7.4-2.7.8-5.5 1.2-8.2h2.1c-.3 2.4-.7 4.9-1 7.3-.2 1.4-.4 2.7-1.3 3.8-.9 1.2-2.3 1.7-3.7 2-.7.1-1.4.1-2.1 0-1.2-.2-2.2-.6-2.9-1.6-.9-1.2-.6-2.7-.5-4.1.4-2.5.7-5 1.1-7.5z"/><use xlink:href="#b" transform="translate(193.6)"/></g></g></svg>