<svg viewBox="0 0 483 100" xmlns="http://www.w3.org/2000/svg" xmlns:xlink="http://www.w3.org/1999/xlink"><defs><path id="mp" fill="#fff" d="m2 2h481v96h-481z"/><mask id="m1"><use xlink:href="#mp"/><path d="m139 31.6h-30.3v39h29.6c7.3 0 15.1-3.4 15.1-11.8 0-7-3.8-8.5-6.4-9.8 2.8-2 5-4.2 5-8.7 0-2.2-1-8.7-13-8.7zm-4 7.8c3.1 0 4.8.7 4.8 3.2s-1.8 3.3-4.8 3.3h-15.3l-.1-6.5zm-15.4 23v-9h14.9c5.8 0 6.8 2 6.7 4.6-.1 2.8-1.7 4.4-6.7 4.4z"/><path d="m182.3 30.5c-18.1-.1-25.2 10-25.2 20.9s8.6 21 25.2 20.9 25.1-10 25.1-20.9-7-20.8-25.1-20.9zm0 7.5c9.3 0 12.6 7.1 12.5 13.4s-3.8 12.6-12.5 12.6-12.3-6.4-12.5-12.6 3.2-13.4 12.5-13.4z"/><path d="m254 37.9c1.2 1.8 1.3 3.7 1.7 5.7h-12.4c-.1-1.5-.8-3.2-1.9-4.3-1.6-1.6-4.3-2-6.4-2.1-2.9-.1-6.1.2-8.4 2.1-1.4 1.1-1.7 3.4-.6 4.8 1 1.3 2.7 1.6 4.2 2 4.4 1 8.9 1.5 13.4 2.3 3.5.6 7.2 1.5 9.9 3.9 2.2 1.9 3.4 4.7 3.4 7.5-.2 11.8-16.8 12.6-22.3 12.6-9.9-.1-16.9-1.6-21.2-6.5-1.8-2-2-4.3-2.4-6.8l12.9.2c.1 1.8 1.4 3.2 2.8 4 2.4 1.3 5.6 1.5 8.3 1.5 2.6 0 5.9-.3 8.1-1.8 1.3-.9 2-2.6 1.1-4-.9-1.5-3.1-2.1-4.7-2.4-5.4-1.1-11.1-1.6-16.5-2.9-3.8-.9-7.6-3-9-6.8-1.3-3.4-.6-7.6 1.7-10.5 4.9-6.1 15.6-6.5 18.6-6.5 3.7 0 14.7.5 19.7 8z"/></mask><mask id="m2"><use xlink:href="#mp"/><path id="c1" d="m272.2 70.4h6.5l1.7-8.5h6.5l4.4 8.5h8.3l-5-8.7c4.2-1.4 7.4-4.3 7.4-8.9 0-5-5.2-5.4-6.9-5.4h-18zm19.6-18.3c2 0 4.2.2 3.8 2.7-.2 1.4-2.2 2.4-4.4 2.4h-9.7l1-5.1z"/><path d="m318.4 47.4-3.1 14.9c-.2 1.2.1 4.3 4.9 4.4 4.9.1 7.5-1.6 8.4-5.7l2.9-13.6h6.4l-3 14c-1.8 8.6-9.9 9.9-15.5 9.9-6.7 0-10.7-2.4-10.7-8 0-.8.4-2.2.6-3.1l2.7-12.8z"/><path id="c2" d="m364.3 47.4h-17.2l-4.9 23h17.5c6.2 0 9.6-3 10.4-7.4.5-2.6-.4-4.1-2.5-5.4 2.1-1.6 3.9-3.2 3.9-6 0-3.1-3.2-4.2-7.2-4.2zm-1.6 4.6c.6 0 1.4.8 1.2 1.9s-1 1.9-1.9 1.9h-10.3l.9-3.8zm-2.4 8.3c1.4 0 3.2.3 2.6 2.7-.4 1.5-1.4 2.6-2.8 2.6h-10.4l1-5.3z"/><use transform="translate(34.6)" xlink:href="#c2"/><path d="m439.3 47.4-1 4.6h-16.5l-.8 3.8h14l-1 4.5h-14l-1.2 5.3h16.8l-1 4.8h-23.2l4.9-23z"/><use transform="translate(171.8)" xlink:href="#c1"/></mask></defs><g id="figure"><path mask="url(#m1)" d="m78.3 23.4.6 4.4c4.5.6 8.6 2 11.8 5.4 4.5 4.7 5 12.2 2.3 17.9-1.3 2.7-3.4 4.6-5.7 6.4l13.5 16.7h-23.9l-10.8-14.1h-5.3v8h8.6l-2.9 7.7h199.5v-48h215v-4.4z"/><path d="m54 2c1.5 0 7.3.4 11.6 6.6 3.9 5.6 4.8 12.5 5 19.2h-8.2c-.8-5.3-1.8-11.7-5.8-15.6-1.5-1.4-3.3-2-5.2-2.1-11.1-1-19.8 14.1-22.2 17.7h-1.5c2-6 5.1-11.2 9.1-16.1 7.2-8.6 14.1-9.7 17.2-9.7z"/><path d="m58.8 27.8h-6.9c-.2-2-.5-5.3-2.4-6.5-4.9-2.8-12.5 4.9-14 6.5h-1.5c2.5-3.9 11.1-14.3 17.2-14.3 5.7 0 7 9.2 7.6 14.3z"/><path d="m28.7 74.4h4.1c2.1 1.3 4 1.6 5.9 1.5 2.3-.1 4.6-.1 7.6-1.5h2c-2.6 2.9-8.5 8.5-13 8.5-3.7 0-5.4-5.2-6.6-8.5z"/><path d="m16.4 74.4h8.8c1.2 3.8 2.3 7.5 5.6 10 2.8 2.2 6.6 2 9.7.5 4.8-2.3 8.8-6.5 12.2-10.5h3.8c-2.6 4.7-5.3 8.9-9.1 12.7-4 3.9-9.2 7.2-15 7.1-4.6-.1-8.5-2.6-11.1-6.2-2.9-4-4-8.8-4.9-13.6z"/><path mask="url(#m2)" d="m266 33.9h215v41.9h-215z"/><path d="m68 10.3c4.3 5 6.2 10.9 6.5 17.5h-2.9c.1-7.1-1.1-13-3.6-17.5z"/><path d="m57.3 14.4c-.3-.1-.6-.1-.9-.2-1.9-1.1-3.5-1.9-5.4-1.8-6.2.2-12.6 7.8-17 13 1.5-5.5 10-14.3 16.9-14.3 2.4 0 4.7.9 6.4 3.3z"/><path d="m57.8 17.9c3 3 3.4 6 3.5 10h-1.4c-.3-4.6-.9-6.9-2.1-10z"/><path d="m47.3 21.7c1.7 0 2.6 1.4 3 2.8-2.6.8-4.5 1.7-6.7 3.3h-3.1c1.5-2.6 5.4-6.1 6.8-6.1z"/><path d="m26.4 74.4h1.4c0 .2 1.3 5.2 3.7 8.9-2.9-2.1-4.4-5.5-5.1-8.9z"/><path d="m59.3 74.4h3c-2 4.3-4.1 8.3-7 12.1-4.5 6-10.6 11.5-18.3 11.5-4.9 0-7.7-.9-10.4-3.9 3.1 1.3 5.9 1.5 9.1.9 6.2-1.3 11.3-5.5 15.2-10.3 2.8-3.5 5.9-6.6 8.4-10.3z"/><path d="m16.5 31.7c-6.4 0-13 2.2-13 8.6 0 3.9 1.7 6.8 5 8.8-3.8 1.3-6.5 4.8-6.5 9.6 0 8.1 6.8 11.9 15.2 11.9h39.8v-14.2h11l10.4 14.2h14.1l-11.6-14.8c2.3-.8 4.4-1.5 6.1-3.2 2.2-2.2 3.6-5.3 3.7-8.5s-.9-6.4-3.1-8.6c-2.9-2.9-6.7-3.9-10.7-3.9zm19.4 7.8v6.6h-15.4c-2.4 0-4.8-.6-4.8-3.3 0-3.1 3.6-3.3 4.8-3.3zm36.9.3c3.2 0 7.3.2 7.3 4.2 0 3.9-4.2 4.3-7.3 4.3h-15.8v-8.5zm-52.3 13.7h15.4v9h-15.4c-3.7 0-6.2-1.1-6.2-4.4 0-3.6 2.9-4.6 6.2-4.6z"/></g></svg>