<svg viewBox="0 0 807 100" xmlns="http://www.w3.org/2000/svg"><g id="figure" fill="#fff"><path d="m34.5 97.2h-32.5v-95.2h32.5z"/><path d="m175.2 85c0 8.6-4.3 13-12.9 13-6.2 0-12.2-2-17.8-6.3l-61.4-46.7v52.2h-32.5v-83c0-5.5 3.5-12.2 14.3-12.2 5.9 0 11.4 1.9 16.4 5.7l61.4 46.8v-52.5h32.5z"/><path d="m322.8 2-20.9 24.7h-74.2c-4 0-6 1.2-6 3.8s2 3.9 6 3.9h53.4c25.4 0 45.1 12.3 45.1 31.7 0 18.7-19.2 31.1-45 31.1h-95.9l20.9-24.5h75c6.4 0 14.3-2.3 14.3-7 0-6.6-13-6.8-14.4-6.8h-53.4c-23.6 0-42.4-10.7-42.4-28.4 0-18 19.1-28.5 42.4-28.5z"/><path d="m363.8 48.6h58.1c8.8 0 15.8-4.2 15.8-11.1 0-7.5-7.9-10.8-15.8-10.8h-58.1zm-32.5-46.6h87.4c28.4 0 51.5 13.6 51.5 35.7 0 21.9-22.8 35.6-51.6 35.6h-54.8v23.9h-32.5z"/><path d="m512 97.2h-32.4v-95.2h32.4z"/><path d="m556.4 48.6h57.9c4.6 0 20.5-.7 20.5-10.8 0-7.4-6.8-11.1-20.5-11.1h-57.9zm-32.6-46.6h87.4c12.3 0 57 2.3 57 35.9 0 13.3-9.5 24.8-26 30.7l38 28.6h-47.3l-31.8-23.9h-44.8v23.9h-32.5z"/><path d="m804.9 72.7.1 24.5h-114v-95.2h113.9l.1 24.7h-81.5v10.1h58.1l.1 24.6h-58.2v11.3z"/></g></svg>