<svg viewBox="0 0 524 100" xmlns="http://www.w3.org/2000/svg"><g id="figure"><g transform="scale(.2)"><path d="m249.8 10c-124.3-.1-239.8 98.3-239.8 241 0 135.5 112 239 239.8 239 143.7 0 240.8-115.4 240.7-239-.1-137.6-108.5-240.9-240.7-241zm2.6 23.5c28.4-.1 81.4 6.2 132.5 46.3-57-22.3-118.5.8-170.6 29-7.8 4.2-14.9 9.4-22.8 13.4-21.7 11.6-40.7 27.6-56.2 46.6-15.2 15.4-29.4 31.8-41.6 49.7-22.2 32.5-39.6 70.3-42.2 110.1-12.4-32.1-17.4-66.8-13.9-101 10.8-106.9 101.2-193.8 214.8-194.1zm166.1 88.5c5.9 15.2 6.4 31.3 4 47.3-17.8-22-40.4-40-66.2-51.9-32.4-15-69-20.2-104.3-15.3 24.7-11.6 51.6-20.3 78.8-22.8 17.4-1.6 70.3-2.4 87.7 42.7zm-81.6-1.2c33 11.3 62.6 32.9 83.2 61.1-14.7 58.7-59 107.4-85.4 132.3-47.2 44.4-112 83.3-176.4 89.9-28.2-29-45.5-67.7-48.3-108.1-2.5-37.3 7.3-75.6 28.1-106.7 4.5-6.6 9.2-13.6 15-19.1 11-10.3 22.4-20.1 34.5-29.1 14.4-11.7 33.1-19 50.9-23.8 17.1-4.6 55.1-11.3 98.4 3.5zm104.2 25.7c8.8 16.9 15.7 34.6 20.1 53.2 7.2 30.9 7.3 62.9 1.2 94.1 1.5-34.1-5.9-67.9-22.2-98 3.1-16.3 4-32.2.9-49.3zm-4.2 63.4c13.6 28.5 45.2 128.8-46.1 202.8-87.2 70.7-168.1 38.3-202.8 16 79.8-13.1 144.2-67.7 167.5-91 21.8-21.7 58.1-57.7 81.4-127.8zm-333.5 18.2c-8.5 27.1-10.6 56.1-6.3 84.1 5.3 34.1 20.4 66.4 43.2 92.3-22-1.2-43.3-7.5-58.3-24.4-15.2-17.2-18.5-40.4-15.9-63 4.3-37.3 25.8-71 37.3-89zm31.3 202c11.4 1.6 22.9 1.7 34.3.9 23.2 17.1 49.8 28.3 78.1 33.5-62.1-2.3-102.9-27.6-112.4-34.4z"/><path d="m521.1 122.2h84.9v253.8c-28.3 0-56.6 0-84.9 0 0-84.6 0-169.2 0-253.8z"/><path d="m685 122.2c15.3 0 30.3 5.9 42.5 15.4l159.1 123.8v-139.2h85.3v218.9c0 24.3-9.4 36.8-33.8 36.8-16.9-.1-32.7-6-47.8-17.7l-158.4-123v138.8h-84.9v-223.6c0-7.9 5.8-30.3 38-30.2z"/><path d="m1107.5 122.1 248.5.1-54.8 66h-196.9c-15 0-15 20 0 20h140.3c79.7 0 120.1 40.2 120.1 84.4 0 42-37.7 83.4-121.7 83.4l-246-.1 54.7-65.6h209.6c30.8 0 30.3-36.3 0-36.3h-157c-42.5 0-107.1-19.2-107.1-77.4 0-41.7 45-74.5 110.3-74.5z"/><path d="m1377.2 122.2v253.8h84.9v-63.6h146.2c70.4 0 131.1-36.4 130.9-95.4-.3-61.8-66-94.8-130.9-94.8h-231.2zm236.2 66.1c53.4 0 53.1 58 0 58h-151.4v-57.9z"/><path d="m1763.1 122.2h84.9v253.8c-28.3 0-56.6 0-84.9 0 0-84.6 0-169.2 0-253.8z"/><path d="m2107.1 122.2h-229v253.8h85.2v-63.6h116.2l82.5 63.6h124.1l-99-76.4c41.8-15.7 67.7-45.5 67.4-82.6-.6-65.8-70.6-94.8-147.4-94.8zm22 66.1c49.9 0 50.4 57.9 0 57.9h-166v-57.9z"/><path d="m2313 122.2h297v66.1h-212.2v26.5h151.4l.4 65.7h-151.8v29.8h212.2v65.7h-297z"/></g></g></svg>