<svg viewBox="0 0 167 100" xmlns="http://www.w3.org/2000/svg"><g id="figure"><g transform="scale(.1)"><path d="m770 671.5c179.9 0 325.8-145.8 325.8-325.8 0-179.9-145.8-325.7-325.8-325.7-179.9 0-325.7 145.8-325.7 325.8 0 179.9 145.8 325.8 325.8 325.8zm2.2-620.4c162 0 293.3 131.3 293.3 293.3s-131.3 293.3-293.3 293.3-293.4-131.3-293.4-293.3 131.3-293.3 293.4-293.3z"/><path d="m808.9 640.4c137.4 0 248.9-111.4 248.9-248.9 0-137.4-111.4-248.9-248.9-248.9-137.4 0-248.8 111.4-248.8 248.8s111.4 248.9 248.8 248.9zm3.9-483c129.6 0 234.6 105 234.6 234.6s-105 234.6-234.6 234.6-234.6-105-234.6-234.6 105-234.6 234.6-234.6z"/><path d="m890 104.2c-175.3-.2-389.2 192.6-389.2 358.1 0 44.8 20.2 129.9 142.1 129.8 174.2-.1 388.3-194.9 388.2-357.1 0-73-45.4-130.7-141.2-130.8zm8.4 8.4c71.4 0 108.5 41.7 108.6 102.3 0 128.7-203.7 340.9-378.6 341.2-51.2.1-110.5-23.9-110.5-101.3-.1-143.7 213.4-342.2 380.6-342.2z"/><path d="m20 978.4h66.1v-197.8h-66.1z"/><path d="m305.2 780.5v109.1l-124.9-97.2c-10-7.7-20.9-11.7-32-11.7-27.4 0-30.4 17.4-30.4 25.1v172.6h66.1v-108.6l124.9 97c11.4 8.9 23.3 13.2 37.5 13.2 15.5 0 25-9.1 25-25.7v-173.7z"/><path d="m476.3 780.5c-48.8 0-85 24.4-85 59.2 0 33.4 33.9 59.1 86.4 59.1h108.6c41 0 37 28.6.1 28.6h-152.5l-42.6 51h195.1c52.3 0 91.6-25.7 91.6-64.8 0-40-39.7-65.8-91.7-65.8h-108.6c-16.9 0-16.8-16 0-16h150.9l42.6-51.3z"/><path d="m687.8 780.5-.1 197.9h66.1v-49.7h111.5c58.6 0 105-28.5 105-74.1 0-46.9-49-74.1-103.3-74.1zm66 51.3h118.2c43.8 0 42.5 45.6 0 45.6h-118.2z"/><path d="m988.9 978.4h66.1v-197.9h-66.1z"/><path d="m1078.4 780.5.1 197.9h66.1v-49.7h91.2l64.6 49.7h96.2l-77.2-59.6c33.4-12.1 53-36 53-63.6.1-56.7-62.3-74.7-114.2-74.7zm66.2 51.3h121.6c50.7 0 50.8 45.6 0 45.6h-121.6z"/><path d="m1418.1 780.5v197.9h231.9l-.2-51h-165.6v-23.6h118.5l-.3-51h-118.3v-21.1h165.8l-.2-51.3z"/></g></g></svg>