<svg viewBox="0 0 133 100" xmlns="http://www.w3.org/2000/svg"><g id="figure"><g transform="scale(.1)"><path d="m665 48c-163.6 0-320.6 47.6-436.3 132.4s-180.7 199.7-180.7 319.6 65 234.8 180.7 319.6 272.7 132.4 436.3 132.4 320.6-47.6 436.3-132.4 180.7-199.7 180.7-319.6-65-234.8-180.7-319.6-272.7-132.4-436.3-132.4zm2.8 52h.1l61 4.6c15.9 1.2 34.9 7 33.8 21.2l-3.3 42.7c-1.1 13.6-23.9 16.7-36.7 15.7l-61-4.7c-.7-.1-1.2-.7-1.1-1.4l6-77c.1-.8.7-1.1 1.2-1.1zm-128.2 14.6c10 .3 19.8 3.4 21.6 13l8 42.1c2.5 13.1-18.5 22.3-31.2 24.7l-60.2 11.4c-.7.1-1.3-.4-1.4-1l-14.5-75.9c-.1-.7.3-1.3 1-1.4l60.1-11.5c4.5-.9 10.6-1.6 16.6-1.4zm143.2 4.2-3.4 44.4 44.7 3.4c6.2.5 17.9-1.4 18.2-5.8l2.5-33c.3-3.9-12-5.2-16.4-5.5zm135.4 1.3c1.2-.1 2.5-.1 3.7 0 6 .2 12 1.4 16.2 2.5l26.2 6.8c18.9 4.9 33.1 13.1 29.6 26.7l-10.7 41.6c-4.3 16.7-31.9 10.7-38.8 8.9l-26.3-6.7c-10.9-2.8-33.2-12.2-29.5-26.7l10.7-41.5c2.2-8.5 10.2-11.3 18.9-11.6zm-280.4 11.8c-3.5.1-7.7.7-10.7 1.3l-44.8 8.5 8.3 43.8 44.1-8.4c5.4-1 16.9-5.7 16-10.4l-6.2-32.3c-.4-1.9-3.2-2.5-6.7-2.5zm282.4 5.8c-2.3.1-4.1.8-4.5 2.4l-8.7 33.9c-1.2 4.6 13.2 8.1 14.9 8.6l27.6 7.2c5.8 1.5 16.6 3.6 17.6-.3l8.8-33.9c1.2-4.6-12.1-8.2-15.3-9l-27.6-7.1c-3.3-.9-8.8-2.1-12.8-1.8zm-411.9 12.6c9.3.4 18.4 3.9 22.3 13.5l20.5 50.1c.2.6-.1 1.4-.8 1.6l-14.2 4.5c-.6.2-1.3-.1-1.5-.7l-8.8-21.2-57.7 24 8.8 21.2c.2.6 0 1.2-.6 1.5l-14.2 7.8c-.7.4-1.5-.1-1.7-.7l-20-50.7c-1.1-2.8-1.8-5.5-1.8-8.3 0-10.9 9.6-22.8 24.6-29l24-9.9c4.5-1.9 10.7-3.4 17.1-3.7 1.3-.1 2.7-.1 4 0zm541 12c8.5.3 18.1 4.3 24 7.3l54.6 27.5c.6.3 1 .9.6 1.6l-6.8 13.5c-.3.6-1.1.8-1.7.5l-54.6-27.4c-6.5-3.2-16.1-7.1-18.1-3.2l-15.2 30.5c-2.1 4.2 8.1 10 13.4 12.6l40.1 20 6.2-12.7-19.5-10.1c-.6-.3-.8-1-.5-1.6l6.6-13.5c.3-.6 1-.8 1.6-.5l29.6 14.3c5.6 2.7 3.9 7.6 1.6 12.2l-17.2 34.4c-.4.8-1.3.7-1.6.6l-54.8-27.4c-11.5-5.8-30.6-17.8-23.4-32.2l19.2-38.3c3.2-6.4 9.2-8.4 15.9-8.1zm-543.6 5.9c-4.4-.2-9 .8-11.8 2l-23.9 9.9c-5.9 2.4-14.4 11.7-12.1 17.4l3.4 8.3 57.8-23.9-3.5-8.4c-1.6-3.7-5.6-5.1-9.9-5.3zm-123.1 33h.8c2.5.2 5 1.5 7 3.8l51.1 59.8c.5.6.3 1.4-.3 1.8l-13 8.2c-.5.3-1.2.2-1.6-.3l-35.7-42-5.1 67.1c-.4 5-5.4 8.3-9.6 8l-66.2-5.2 36.2 41.1c.4.5.3 1.1-.1 1.6l-10.9 12c-.5.6-1.4.4-1.8-.1l-50.8-59.3c-5.7-6.7-2-15.2 7.4-14.5l78.9 6.2 6.1-79.4c.5-5.9 3.8-8.7 7.6-8.8zm784 27.4c10.8-.4 23.7 9.6 28.9 14.4l45.3 41.1c.4.4.5 1.2 0 1.8l-10.1 11.1c-.5.5-1.2.6-1.7.1l-45.3-41c-4-3.6-13.5-11.5-16.6-8l-22.8 25.3c-3.5 3.8 6.9 13.4 9.5 15.7l33.3 30 9.4-10.5-16.2-14.9c-.5-.5-.4-1.2 0-1.7l10-11.3c.4-.5 1.2-.5 1.7-.1l24.7 21.7c3.9 3.4 1.9 8.2-1.8 12.3l-25.7 28.5c-.4.5-1.3.6-1.8.1l-45.4-41c-7.3-6.6-25.3-24.7-13.9-37.3l28.8-31.8c2.8-3 6.1-4.3 9.7-4.5zm-401.6 6.4c114 0 223.5 27.9 304.1 77.6s125.9 117.1 125.9 187.4-45.3 137.7-125.9 187.4-190.1 77.6-304.1 77.6-223.5-27.9-304.1-77.6-125.9-117.1-125.9-187.4 45.3-137.7 125.9-187.4 190.1-77.6 304.1-77.6zm-526.3 215.4c.5 0 1 .2 1.2.8l10.5 32.1 33.8-.1c1.2 0 1.6 1.5.7 2.2l-27.3 19.9 10.5 32.2c.4 1.1-.9 2-1.9 1.3l-27.3-19.8-27.3 20c-.9.7-2.3-.3-1.9-1.4l10.4-32.2-27.4-19.8c-1-.7-.4-2.4.7-2.4l33.8.1 10.3-32.1c.2-.6.7-.9 1.2-.8zm1045.3 0c.5 0 1 .2 1.2.8l10.5 32.1 33.8-.1c1.2 0 1.6 1.5.7 2.2l-27.3 19.9 10.5 32.2c.3 1.1-.8 2-1.8 1.3l-27.4-19.8-27.3 20c-.9.7-2.3-.3-1.9-1.4l10.4-32.2-27.4-19.8c-1-.7-.5-2.2.7-2.2h33.8l10.4-32.2c.2-.6.7-.8 1.1-.8zm-78.5 199.1c4.1 0 7.5 3.4 7.5 7.5s-3.4 7.5-7.5 7.5-7.5-3.4-7.5-7.5 3.4-7.5 7.5-7.5zm0 1.7c-3.2 0-5.8 2.6-5.8 5.8s2.6 5.8 5.8 5.8 5.8-2.6 5.8-5.8-2.6-5.8-5.8-5.8zm-.4 1.9c.5 0 .9.1 1.4.6.6.6.6 1.4.2 2.2l.1.1c.7-.3 1.3-.2 2.1.3.9.6 1.3.8 1.6.9l-1.2 1.2c-.3 0-.9-.3-1.7-.8-.6-.4-1.1-.4-1.8.3l-.5.5 2 2-1.2 1.2-5.1-5c.4-.5 1-1.4 1.8-2.2.4-.4 1.3-1.3 2.3-1.3zm-.4 1.7c-.3 0-.7.2-1.1.6-.3.3-.5.5-.6.7l1.5 1.5.5-.6c.6-.7.9-1.4.4-1.9-.2-.2-.4-.3-.7-.3zm-16.7 7.8c.4 0 .8.1 1 .3l9.9 11.5c.4.4.5 1.2-.1 1.7l-44.4 38c-6.2 5.3-10.5 10-8.9 11.7l4.6 4.9c1.3 1.4 6.7-2.2 12.4-6.8 12-9.7 23.4-20.4 36.1-29.2 4-2.8 16.9-8.3 23.9.8l8.3 10.8c10.1 13.1-6.6 30-14.7 37l-44.2 38.2c-.3.3-1.1.5-1.7-.2l-10-11.4c-.5-.5-.3-1.4.2-1.8l44.1-38.1c4.4-3.8 13-11.9 10.4-15.1l-4.7-5.9c-2.2-2.7-10 3.5-15.9 8.4l-21.9 18c-13.3 10.9-25 19.4-33.1 10.1l-9.7-11.1c-10.7-12.2 7.6-28.4 13.7-33.7l44-37.9c.2-.1.4-.2.7-.2zm-850 7c10.2.2 20.9 5.9 26.9 11.2l19.4 17.2c11.9 10.5 21.5 30.6 10.2 43.3l-35.1 39.5c-.5.6-1.1.6-1.7.1l-11.4-10c-.6-.5-.4-1.3-.1-1.7l15.3-17.2-46.8-41.5-15.3 17.2c-.5.6-1.3.5-1.7.1l-11.3-10.1c-.5-.5-.5-1.2-.1-1.7l35.1-39.5c4.6-5.1 10.5-7 16.6-6.9zm0 18.9c-2.3.1-4.3.7-5.6 2.1l-6 6.7 46.7 41.5 6-6.7c5.3-6-1.7-16.7-6.5-21l-19.4-17.2c-3.3-3-10-5.5-15.2-5.4zm88.6 42.3c.2 0 .4 0 .6.1l84.2 44.6c.6.3.8 1.1.5 1.7l-7.1 13.4c-.3.6-1.1.8-1.7.5l-34.3-18.2-28.5 53.8c-.3.7-1.2.8-1.7.5l-13.4-7.1c-.6-.3-.8-1-.5-1.6l28.5-53.8-34.3-18.2c-.6-.3-.8-1.1-.5-1.7l7.1-13.4c.2-.4.7-.7 1.1-.6zm675.4 1.9c.5 0 1 .2 1.2.7l6.7 13.5c.3.6.1 1.4-.5 1.7l-54.8 27.2c-7.9 3.9-14.9 9-12.4 14l14.3 28.7c2.3 4.6 13.3-.5 17.9-2.8l54.8-27.2c.6-.3 1.3-.1 1.6.5l6.8 13.6c.3.6 0 1.3-.6 1.6l-54.8 27.3c-8.1 4-32.3 14.4-39.8-.8l-19.1-38.4c-8-16.1 20.4-30.7 23.4-32.2l54.8-27.3c.2-.1.3-.1.5-.1zm-572 48c.1 0 .2.1.3.1l14.5 4.3c.6.2 1.1.8.9 1.4l-7.6 27.3 59.9 16.9 7.8-26.5c.2-.6.8-1 1.5-.8l14.5 4.2c.6.2 1.1.9.9 1.5l-21.8 74.2c-.3 1-1.3.9-1.5.8l-14.6-4.2c-.6-.2-1-.9-.8-1.5l8.9-31.8-59.7-17.3-9.3 31.4c-.2.8-1 1.1-1.5.9l-14.6-4.3c-.7-.2-1-.8-.8-1.5l21.8-74.2c.2-.6.6-.9 1.2-.9zm456.8 3.2c.4 0 1 .1 1.2.8l23.8 73.6c.2.7-.1 1.3-.8 1.5l-14.5 4.7c-1.1.4-1.4-.6-1.5-.8l-23.7-73.6c-.2-.6.2-1.3.8-1.5l14.4-4.7zm-40.4 13.8c.4 0 1.2.1 1.4 1l2.8 14.9c.1.8-.4 1.3-1 1.4l-38.2 7.2 11.4 59.9c.1.6-.3 1.3-1 1.4l-14.9 2.9c-.5.1-1.3-.2-1.4-1l-11.4-59.9-38.1 7.3c-.7.1-1.3-.4-1.4-1l-2.9-14.9c-.1-.7.3-1.3 1-1.4l93.6-17.8zm-304.7 12.7h.1l15.1 1.8c.6.1 1.1.7 1 1.4l-7.4 60.4 52.2 6.5c.9.1 1.2.8 1.1 1.3l-1.8 15.1c-.1.9-1 1.1-1.4 1.1l-68.5-8.4c-.9-.1-1.2-1-1.1-1.4l9.4-76.8c.1-.7.7-1 1.3-1zm187 7.6c.7 0 1.2.4 1.2 1.2l.5 15.1c0 .7-.5 1.3-1.2 1.3l-78.9 2.2.2 13 64.1-1.8c.7 0 1.3.5 1.3 1.2l.4 16c0 .7-.5 1.3-1.2 1.3l-64.1 2.2.5 12.6 78.9-2.2c.7 0 1.3.5 1.3 1.2l.4 15.1c0 .6-.4 1.3-1.2 1.3l-95.2 2.7c-1 0-1.3-.8-1.3-1.2l-2.2-77.3c0-.7.5-1.2 1.2-1.2z"/><path d="m665 240c-234.9 0-425 117.1-425 260s190.1 260 425 260 425-117.1 425-260-190.1-260-425-260zm211.7 74.9c39-.7 55.4 29.3 55.4 29.3-2.6 21.6 4.5 23.5 12.1 26.1 27.8 9.4 28 16 27.8 16.7-7.2 22.5-38.4 23.5-38.4 23.5s2.8 7.2 4.2 10.8 3.2 5.7 2.8 8.8c-1.6 11.8-16.2 8.6-20.5 6.8s-9.6-6.2-30.8-16.3c-18.8-9-25.6-1.4-28.3 8.4-2.1-.8-23.7-9.5-46.9-23.6-25.5-15.5-39-32.3-41.5-35.5 3.1-1.7 5.8-3.2 8.1-4.3 7.1-3.5 11-8 16.4-13.7.5 0 8 3.9 22.1 7.2 10.5 2.5 22 1.7 22 1.7l.3-3.7s-22 .5-38.5-10.8c-14.8-10.2-8.8-29.9-8.8-29.9.4 0 43.3 1.7 58.4 2.4 2 .1 3.9-1 6-1.5 6.5-1.5 12.5-2.3 18.1-2.4zm-116.8 61.9c3.6 3.7 24.7 24.9 44.6 38 23.7 15.5 53.6 26.1 54.7 26.4-.9 12 6.2 40.8 17.5 39.6 11.3-1.3 39.1 8.7 50.5 16.6 7.5 5.1 53.9 31.6 70 29s30.7 6.4 13.6 17.4-51.2-.4-83.6-19.5c-32.5-19-33.7-4-33.7-4s2.4 2.7 1.7 8c-1.1 8.6-27.4 57.1-40.9 44.3s11.2-32.2 16.5-38.1-3-7.5-3-7.5-90.8 6.7-118.8-19.3c-.2-.1-15-17.5 1.7-26.4 4.6-1.8-.3-3.5-6.7.1-15.3 8.5-5.4 26.7-5.4 27.1-29.8 3.5-31.1 14.4-71.3 9.7-48.7-5.6-73.2-48-116.3 19.6-43.2 67.6-105.5 53.5-134.3 54.2s-50.4 48.8-79.6 46.8c0 0-12.8-2.3-12.9-11.9-.1-8.1 17.5-8.7 34.3-15.4s34.8-40.7 34.8-40.7l34.4-22.9c27.2-3.3 30.5-78.6 64.5-120.4-21-10.4-41.9 39.3-112.7 39.2s-80.6-34.7-80.6-34.7 55.2 22.4 103.7-2.1c111-56.1 128.7-29.1 216.4-22.8 66.6 4.8 113.1-15.6 140.9-30.3zm-354.7 152.1c8.3.5 12.9 9.9 18.8 14.3l-25.7 17.4c-22-6.7-64.4 34.2-75.7-4.2 10.4-7.6 14.1 0 22.9-.7 9.1-.8 22.8-5.8 33-10.7 9.6-4.6 20.8-16.5 26.7-16.1z"/><path d="m665 20c-171.1 0-335.1 50.6-456.1 140.6s-188.9 212.1-188.9 339.4 67.9 249.4 188.9 339.4 285 140.6 456.1 140.6 335.1-50.6 456.1-140.6 188.9-212.1 188.9-339.4-67.9-249.4-188.9-339.4-285-140.6-456.1-140.6zm0 15c167.1 0 327.4 49 445.5 136.2s184.5 205.5 184.5 328.8-66.4 241.6-184.5 328.8-278.4 136.2-445.5 136.2-327.4-49-445.5-136.2-184.5-205.5-184.5-328.8 66.4-241.6 184.5-328.8 278.4-136.2 445.5-136.2z"/></g></g></svg>