<svg viewBox="0 0 133 100" xmlns="http://www.w3.org/2000/svg"><g transform="scale(.1)"><path d="m665 20c-171.1 0-335.1 50.6-456.1 140.6s-188.9 212.1-188.9 339.4 67.9 249.4 188.9 339.4 285 140.6 456.1 140.6 335.1-50.6 456.1-140.6 188.9-212.1 188.9-339.4-67.9-249.4-188.9-339.4-285-140.6-456.1-140.6z" fill="#fff"/><path d="m665 48c-163.6 0-320.6 47.6-436.3 132.4s-180.7 199.7-180.7 319.6 65 234.8 180.7 319.6 272.7 132.4 436.3 132.4 320.6-47.6 436.3-132.4 180.7-199.7 180.7-319.6-65-234.8-180.7-319.6-272.7-132.4-436.3-132.4zm0 187c114 0 223.5 27.9 304.1 77.6s125.9 117.1 125.9 187.4-45.3 137.7-125.9 187.4-190.1 77.6-304.1 77.6-223.5-27.9-304.1-77.6-125.9-117.1-125.9-187.4 45.3-137.7 125.9-187.4 190.1-77.6 304.1-77.6z" fill="#ee2722"/><g fill="#231f20"><path d="m665 240c-234.9 0-425 117.1-425 260s190.1 260 425 260 425-117.1 425-260-190.1-260-425-260zm211.7 74.9c39-.7 55.4 29.3 55.4 29.3-2.6 21.6 4.5 23.5 12.1 26.1 27.8 9.4 28 16 27.8 16.7-7.2 22.5-38.4 23.5-38.4 23.5s2.8 7.2 4.2 10.8 3.2 5.7 2.8 8.8c-1.6 11.8-16.2 8.6-20.5 6.8s-9.6-6.2-30.8-16.3c-18.8-9-25.6-1.4-28.3 8.4-2.1-.8-23.7-9.5-46.9-23.6-25.5-15.5-39-32.3-41.5-35.5 3.1-1.7 5.8-3.2 8.1-4.3 7.1-3.5 11-8 16.4-13.7.5 0 8 3.9 22.1 7.2 10.5 2.5 22 1.7 22 1.7l.3-3.7s-22 .5-38.5-10.8c-14.8-10.2-8.8-29.9-8.8-29.9.4 0 43.3 1.7 58.4 2.4 2 .1 3.9-1 6-1.5 6.5-1.5 12.5-2.3 18.1-2.4zm-116.8 61.9c3.6 3.7 24.7 24.9 44.6 38 23.7 15.5 53.6 26.1 54.7 26.4-.9 12 6.2 40.8 17.5 39.6 11.3-1.3 39.1 8.7 50.5 16.6 7.5 5.1 53.9 31.6 70 29s30.7 6.4 13.6 17.4-51.2-.4-83.6-19.5c-32.5-19-33.7-4-33.7-4s2.4 2.7 1.7 8c-1.1 8.6-27.4 57.1-40.9 44.3s11.2-32.2 16.5-38.1-3-7.5-3-7.5-90.8 6.7-118.8-19.3c-.2-.1-15-17.5 1.7-26.4 4.6-1.8-.3-3.5-6.7.1-15.3 8.5-5.4 26.7-5.4 27.1-29.8 3.5-31.1 14.4-71.3 9.7-48.7-5.6-73.2-48-116.3 19.6-43.2 67.6-105.5 53.5-134.3 54.2s-50.4 48.8-79.6 46.8c0 0-12.8-2.3-12.9-11.9-.1-8.1 17.5-8.7 34.3-15.4s34.8-40.7 34.8-40.7l34.4-22.9c27.2-3.3 30.5-78.6 64.5-120.4-21-10.4-41.9 39.3-112.7 39.2s-80.6-34.7-80.6-34.7 55.2 22.4 103.7-2.1c111-56.1 128.7-29.1 216.4-22.8 66.6 4.8 113.1-15.6 140.9-30.3zm-354.7 152.1c8.3.5 12.9 9.9 18.8 14.3l-25.7 17.4c-22-6.7-64.4 34.2-75.7-4.2 10.4-7.6 14.1 0 22.9-.7 9.1-.8 22.8-5.8 33-10.7 9.6-4.6 20.8-16.5 26.7-16.1z"/><path d="m665 20c-171.1 0-335.1 50.6-456.1 140.6s-188.9 212.1-188.9 339.4 67.9 249.4 188.9 339.4 285 140.6 456.1 140.6 335.1-50.6 456.1-140.6 188.9-212.1 188.9-339.4-67.9-249.4-188.9-339.4-285-140.6-456.1-140.6zm0 15c167.1 0 327.4 49 445.5 136.2s184.5 205.5 184.5 328.8-66.4 241.6-184.5 328.8-278.4 136.2-445.5 136.2-327.4-49-445.5-136.2-184.5-205.5-184.5-328.8 66.4-241.6 184.5-328.8 278.4-136.2 445.5-136.2z"/><path d="m271 209.8-5.8 75.3-74.9-5.9c-12.4-1-19 11.4-10.7 21.1l50.8 59.3c2.2 2.5 5.8 2.4 7.8.2l10.9-12c1.8-2 1.9-5 .1-7l-29.7-33.6 56.4 4.4c7 .5 13.4-5 13.9-11.8l4.3-57.3 29.4 34.6c1.7 2 4.6 2.5 6.8 1.1l13-8.1c2.7-1.7 3.2-5.5 1.2-7.9l-51-59.8c-8-9.4-21.5-5.5-22.5 7.4z"/><path d="m385.6 150.3-23.9 9.8c-17.9 7.3-32.3 24.6-25.1 42.7l20.1 50.6c1.1 2.9 4.5 4.2 7.3 2.7l14.3-7.8c2.4-1.3 3.3-4.1 2.3-6.6l-7.3-17.5 50.4-20.9 7.2 17.5c1 2.5 3.8 3.8 6.4 3l14.2-4.4c2.8-.9 4.6-4.1 3.4-7l-20.6-50.1c-7.1-17.2-30.7-19.4-48.7-12zm26.3 24.8 1.9 4.6-50.3 20.9-1.9-4.7c-.9-2.2 4.6-9.8 9.9-12l24-10c6-2.5 14.7-2.8 16.4 1.2z"/><path d="m462.2 123.6c-2.8.5-4.7 3.3-4.2 6.1l14.5 75.9c.5 2.8 3.3 4.7 6.1 4.2l60.1-11.5c13.8-2.6 37.7-12.6 34.5-29.4l-8.1-42.1c-4-20.6-34.1-16.4-42.8-14.7zm78.6 12.6 5.9 30.9c-1.4 1.7-7.1 4.9-12.8 6l-40.1 7.7-6.8-35.9 40.9-7.8c4.7-.9 10-1.6 12.9-.9z"/><path d="m662.6 100.8-6 77c-.2 2.9 1.9 5.5 4.8 5.7l61 4.7c15 1.2 39.7-2.6 41-19.3l3.3-42.8c1.2-15.1-15.2-23.7-37.5-25.4l-61-4.7c-5-.4-5.5 4.1-5.6 4.8zm23.9 22.3 41.5 3.2c.6 0 10.2.8 12.8 2.5l-2.5 31.3c-2.5 1.8-10.1 2.9-13.9 2.5l-40.7-3.1z"/><path d="m795.4 130.7-10.7 41.5c-4.4 17.2 18.7 27.9 32.5 31.5l26.2 6.8c9 2.3 38.5 8.3 43.7-11.8l10.7-41.6c4.6-17.8-14.4-27.3-32.5-31.8l-26.2-6.5c-16.5-3.7-39-6.3-43.7 11.9zm36.6 12.7 27.6 7.1c3.5.9 9.6 2.8 12.2 4.9l-8.4 32.2c-3.3.6-9.7-.9-12.9-1.7l-27.6-7.2c-3.2-.8-9.2-2.5-11.8-4.6l8.4-32.3c1.4-.5 9.4.8 12.5 1.6z"/><path d="m929.8 168.5-19.1 38.4c-8.8 17.6 12.6 31.3 25.2 37.6l54.7 27.3c2.5 1.3 5.7.4 7-2.3l17.1-34.1c3.4-6.8 3.9-14.5-3.3-17.9l-29.6-14.1c-2.6-1.2-5.8-.5-7 2.1l-6.6 13.6c-1.2 2.6-.2 5.6 2.3 6.9l16 8.2-2.7 5.6-36.5-18.2c-2.1-1-9.4-4.9-11.3-7.7l14.6-29.4c3.7 0 10.1 3 13 4.4l54.6 27.4c2.6 1.3 5.7.3 7-2.3l6.9-13.5c1.3-2.6.2-5.7-2.4-7l-54.6-27.5c-8.4-4.2-36-16.3-45.3 2.5z"/><path d="m1053.9 230.4-28.8 31.8c-13.3 14.7 4.2 34 14.2 43l45.5 41c2.3 2.1 5.5 1.6 7.3-.4l25.7-28.5c5.1-5.7 7.7-12.5 1.6-17.9l-24.7-21.8c-2.2-1.9-5.5-1.7-7.4.5l-10 11.2c-1.9 2.1-1.8 5.4.3 7.3l13.3 12.2-4.1 4.6-30.3-27.2c-3.4-3-7-6.3-8.9-10.5l22.1-24.5c1.4.4 5.8 2.8 11.3 7.8l45.3 41.1c2.1 1.9 5.4 1.7 7.3-.4l10.2-11.1c2-2.2 1.7-5.5-.3-7.4l-45.3-41.2c-7.7-7-30.3-25.1-44.3-9.6z"/><path d="m1151.2 536.4 9.5-29.4-25-18.1c-4.1-2.9-2-9.6 3-9.6h30.9l9.4-29.4c1.5-4.8 8.4-4.8 10 0l9.6 29.4h30.9c5 0 7.1 6.3 3.1 9.3l-25 18.3 9.7 29.3c1.6 4.7-4 8.8-8.1 5.9l-25-18.1-24.9 18.2c-4 2.9-9.7-1-8.1-5.8z"/><path d="m1114 657a8.5 8.5 0 01-8.5 8.5 8.5 8.5 0 01-8.5-8.5 8.5 8.5 0 018.5-8.5 8.5 8.5 0 018.5 8.5z"/><path d="m1084.7 659.7-44 38c-15.2 13.1-24.4 27.4-14.1 39.3l9.6 11.1c11.6 13.4 28.7-1.4 38.8-9.7l21.9-17.9c3.5-2.9 6.8-6.1 11-8l3.4 4.2c-.7 1.5-3.9 5.4-9.4 10.2l-44.1 38.2c-2.2 1.9-2.4 5.3-.6 7.4l9.9 11.5c1.6 1.9 5 2.6 7.4.5l44.2-38.2c5.6-4.9 27.8-25.4 15.2-42.2l-8.5-11.3c-6.2-8.2-19.4-8.5-30.1-.9-12.3 9.1-23.9 19.2-35.7 29-2.5 2.1-4.8 4.2-7.6 5.9l-2.3-2.4c1.1-1.8 3.6-4.1 7.3-7.3l44.4-37.9c2.2-1.9 2.5-5.2.6-7.4l-10-11.5c-2-2.2-5.2-2.4-7.3-.6z"/><path d="m999.7 729.2-54.8 27.3c-4 2-34.8 18.1-25.1 37.6l19 38.4c8.8 17.8 35.8 7.2 41.3 4.5l58.7-29.2c2.7-1.4 3.6-4.6 2.4-7l-6.8-13.6c-1.3-2.6-4.4-3.7-7-2.4l-54.8 27.3c-3.9 2-8.2 4.2-12.7 4.2l-14.2-28.6c.3-1 .4-3.2 10.7-8.3l54.8-27.2c2.7-1.3 3.5-4.5 2.3-7l-6.7-13.6c-1.3-2.6-4.5-3.7-7.1-2.4z"/><path d="m885.3 780.1-14.5 4.7c-2.8.9-4.3 3.9-3.4 6.6l23.8 73.5c.8 2.6 3.6 4.4 6.6 3.4l14.4-4.7c2.7-.9 4.3-3.7 3.4-6.5l-23.7-73.6c-1-3-4.1-4.2-6.6-3.4z"/><path d="m845.6 793.8-93.6 17.7c-2.8.5-4.7 3.3-4.2 6.1l2.8 15c.5 2.8 3.2 4.7 6.1 4.1l34.3-6.5 10.6 55.9c.2.9 1.2 5.1 6.1 4.2l14.9-2.8c2.8-.5 4.6-3.4 4.1-6.2l-10.6-55.9 34.3-6.5c2.9-.5 4.6-3.3 4.1-6.1l-2.8-14.9c-.4-2.1-2.2-4.8-6.1-4.1z"/><path d="m728.6 814-95.3 2.7c-2.9.1-5.1 2.4-5 5.3l2.1 77.3c.1 3.2 2.8 5.2 5.4 5.1l95.2-2.7c2.8-.1 5.2-2.4 5.1-5.4l-.4-15.2c-.1-2.9-2.5-5.1-5.4-5l-74.9 2.1-.2-4.7 60.1-2c2.9-.1 5.1-2.5 5-5.4l-.4-16c-.1-3-2.7-5.2-5.4-5.1l-60 1.7-.1-5 74.9-2.1c2.9-.1 5.2-2.5 5.1-5.4l-.4-15.2c-.1-2.8-2.5-5.1-5.4-5z"/><path d="m536.5 810.9-9.5 76.8c-.4 2.9 1.7 5.4 4.6 5.8l68.5 8.4c2.7.3 5.4-1.4 5.8-4.5l1.9-15.1c.4-2.9-1.7-5.4-4.6-5.8l-48.2-5.9 6.9-56.5c.4-2.9-1.7-5.4-4.6-5.8l-15-1.9c-3.3-.4-5.5 1.8-5.8 4.5z"/><path d="m424.9 780.4-21.7 74.2c-.8 2.9.9 5.7 3.5 6.5l14.6 4.3c2.8.8 5.7-.7 6.5-3.5l8.1-27.6 52 15.1-7.8 27.9c-.8 2.7.9 5.6 3.6 6.4l14.6 4.3c2.5.7 5.5-.6 6.4-3.6l21.8-74.1c.8-2.8-.7-5.7-3.5-6.5l-14.6-4.3c-2.9-.9-5.7.9-6.5 3.6l-6.6 22.7-52.3-14.7 6.6-23.5c.8-2.7-.9-5.6-3.6-6.4l-14.6-4.3c-2.9-.9-5.8 1-6.5 3.5z"/><path d="m322 729.5-7.1 13.4c-1.4 2.6-.3 5.8 2.2 7.1l30.7 16.3-26.6 50.3c-1.4 2.6-.3 5.8 2.2 7.1l13.4 7.1c2.6 1.4 5.7.3 7-2.2l26.7-50.3 30.7 16.3c2.6 1.4 5.8.4 7.1-2.1l7.1-13.4c1.3-2.5.4-5.7-2.2-7.1l-84.2-44.6c-2.5-1.3-5.6-.5-7 2.1z"/><path d="m218.3 673.8-35 39.5c-1.9 2.2-1.8 5.5.4 7.4l11.4 10.1c2.2 1.9 5.4 1.6 7.3-.5l12.6-14.1 40.8 36.1-12.6 14.2c-1.9 2.2-1.6 5.5.5 7.4l11.3 10.1c2.1 1.9 5.5 1.7 7.4-.5l35.1-39.5c12.9-14.5 3.2-36.9-10.5-49l-19.4-17.2c-14.5-12.9-36.4-18.6-49.3-4zm32.2 23.1 19.5 17.2c4.4 3.8 8.9 12.1 6.1 15.3l-3.3 3.8-40.8-36.2 3.4-3.8c1.6-1.8 10.8-.1 15.1 3.7z"/><path d="m105.9 536.4 9.4-29.4-25-18.1c-4.1-3-1.9-9.6 3.1-9.6h30.9l9.4-29.4c1.5-4.8 8.4-4.8 10 0l9.6 29.4h30.9c5.1 0 7.1 6.5 3.1 9.4l-25 18.2 9.6 29.3c1.6 4.8-3.9 8.8-8 5.9l-25-18.1-25 18.2c-4 2.9-9.5-1-8-5.8z"/></g><g fill="#fff"><path d="m275 210-6.1 79.4-78.9-6.2c-9.4-.7-13.1 7.8-7.4 14.5l50.8 59.3c.4.5 1.3.7 1.8.1l10.9-12c.4-.5.5-1.1.1-1.6l-36.2-41.1 66.2 5.2c4.2.3 9.2-3 9.6-8l5.1-67.1 35.7 42c.4.5 1.1.6 1.6.3l13-8.2c.6-.4.8-1.2.3-1.8l-51.1-59.8c-5.3-6.2-14.6-5-15.4 5z"/><path d="m387.2 154-24 9.9c-15 6.2-24.6 18.1-24.6 29 0 2.8.7 5.5 1.8 8.3l20 50.7c.2.6 1 1.1 1.7.7l14.2-7.8c.5-.3.8-.9.6-1.5l-8.8-21.2 57.7-24 8.8 21.2c.2.6.9.9 1.5.7l14.2-4.5c.7-.2 1-1 .8-1.6l-20.5-50.1c-7.2-17.6-31.4-14.8-43.4-9.8zm28.4 19.5 3.5 8.4-57.8 23.9-3.4-8.3c-2.3-5.7 6.2-15 12.1-17.4l23.9-9.9c5.6-2.3 18.6-4.2 21.7 3.3z"/><path d="m523 116-60.1 11.5c-.7.1-1.1.7-1 1.4l14.5 75.9c.1.6.7 1.1 1.4 1l60.2-11.4c12.7-2.4 33.7-11.6 31.2-24.7l-8-42.1c-2.9-15.4-26.1-13.9-38.2-11.6zm21.5 18.4 6.2 32.3c.9 4.7-10.6 9.4-16 10.4l-44.1 8.4-8.3-43.8 44.8-8.5c6-1.1 16.7-2.6 17.4 1.2z"/><path d="m666.6 101.1-6 77c-.1.7.4 1.3 1.1 1.4l61 4.7c12.8 1 35.6-2.1 36.7-15.7l3.3-42.7c1.1-14.2-17.9-20-33.8-21.2l-61-4.6c-.5 0-1.2.3-1.3 1.1zm16.2 17.7 45.6 3.5c4.4.3 16.7 1.6 16.4 5.5l-2.5 33c-.3 4.4-12 6.3-18.2 5.8l-44.7-3.4z"/><path d="m799.3 131.7-10.7 41.5c-3.7 14.5 18.6 23.9 29.5 26.7l26.3 6.7c6.9 1.8 34.5 7.8 38.8-8.9l10.7-41.6c3.5-13.6-10.7-21.8-29.6-26.7l-26.2-6.8c-11.3-2.9-34.8-6.4-38.8 9.1zm33.7 7.8 27.6 7.1c3.2.8 16.5 4.4 15.3 9l-8.8 33.9c-1 3.9-11.8 1.8-17.6.3l-27.6-7.2c-1.7-.5-16.1-4-14.9-8.6l8.7-33.9c1.1-4.2 11.9-2 17.3-.6z"/><path d="m933.4 170.4-19.2 38.3c-7.2 14.4 11.9 26.4 23.4 32.2l54.8 27.4c.3.1 1.2.2 1.6-.6l17.2-34.4c2.3-4.6 4-9.5-1.6-12.2l-29.6-14.3c-.6-.3-1.3-.1-1.6.5l-6.6 13.5c-.3.6-.1 1.3.5 1.6l19.5 10.1-6.2 12.7-40.1-20c-5.3-2.6-15.5-8.4-13.4-12.6l15.2-30.5c2-3.9 11.6 0 18.1 3.2l54.6 27.4c.6.3 1.4.1 1.7-.5l6.8-13.5c.4-.7 0-1.3-.6-1.6l-54.6-27.5c-10.6-5.3-32.5-13.9-39.9.8z"/><path d="m1028.1 264.9c-11.4 12.6 6.6 30.7 13.9 37.3l45.4 41c.5.5 1.4.4 1.8-.1l25.7-28.5c3.7-4.1 5.7-8.9 1.8-12.3l-24.7-21.7c-.5-.4-1.3-.4-1.7.1l-10 11.3c-.4.5-.5 1.2 0 1.7l16.2 14.9-9.4 10.5-33.3-30c-2.6-2.3-13-11.9-9.5-15.7l22.8-25.3c3.1-3.5 12.6 4.4 16.6 8l45.3 41c.5.5 1.2.4 1.7-.1l10.1-11.1c.5-.6.4-1.4 0-1.8l-45.3-41.1c-7-6.3-27.6-22.1-38.6-9.9z"/><path d="m1155 537.6 10.4-32.2-27.4-19.8c-1-.7-.5-2.2.7-2.2h33.8l10.4-32.2c.4-1.1 1.9-1.1 2.3 0l10.5 32.1 33.8-.1c1.2 0 1.6 1.5.7 2.2l-27.3 19.9 10.5 32.2c.3 1.1-.8 2-1.8 1.3l-27.4-19.8-27.3 20c-.9.7-2.3-.3-1.9-1.4z"/><path d="m1105.5 649.5c-4.1 0-7.5 3.4-7.5 7.5s3.4 7.5 7.5 7.5 7.5-3.4 7.5-7.5-3.4-7.5-7.5-7.5zm0 1.7c3.2 0 5.8 2.6 5.8 5.8s-2.6 5.8-5.8 5.8-5.8-2.6-5.8-5.8 2.6-5.8 5.8-5.8zm-.4 1.9c-1 0-1.9.9-2.3 1.3-.8.8-1.4 1.7-1.8 2.2l5.1 5 1.2-1.2-2-2 .5-.5c.7-.7 1.2-.7 1.8-.3.8.5 1.4.8 1.7.8l1.2-1.2c-.3-.1-.7-.3-1.6-.9-.8-.5-1.4-.6-2.1-.3l-.1-.1c.4-.8.4-1.6-.2-2.2-.5-.5-.9-.6-1.4-.6zm-.4 1.7c.3 0 .5.1.7.3.5.5.2 1.2-.4 1.9l-.5.6-1.5-1.5c.1-.2.3-.4.6-.7.4-.4.8-.6 1.1-.6z"/><path d="m1087.3 662.8-44 37.9c-6.1 5.3-24.4 21.5-13.7 33.7l9.7 11.1c8.1 9.3 19.8.8 33.1-10.1l21.9-18c5.9-4.9 13.7-11.1 15.9-8.4l4.7 5.9c2.6 3.2-6 11.3-10.4 15.1l-44.1 38.1c-.5.4-.7 1.3-.2 1.8l10 11.4c.6.7 1.4.5 1.7.2l44.2-38.2c8.1-7 24.8-23.9 14.7-37l-8.3-10.8c-7-9.1-19.9-3.6-23.9-.8-12.7 8.8-24.1 19.5-36.1 29.2-5.7 4.6-11.1 8.2-12.4 6.8l-4.6-4.9c-1.6-1.7 2.7-6.4 8.9-11.7l44.4-38c.6-.5.5-1.3.1-1.7l-9.9-11.5c-.3-.3-1.3-.5-1.7-.1z"/><path d="m1001.5 732.8-54.8 27.3c-3 1.5-31.4 16.1-23.4 32.2l19.1 38.4c7.5 15.2 31.7 4.8 39.8.8l54.8-27.3c.6-.3.9-1 .6-1.6l-6.8-13.6c-.3-.6-1-.8-1.6-.5l-54.8 27.2c-4.6 2.3-15.6 7.4-17.9 2.8l-14.3-28.7c-2.5-5 4.5-10.1 12.4-14l54.8-27.2c.6-.3.8-1.1.5-1.7l-6.7-13.5c-.3-.6-1.1-.9-1.7-.6z"/><path d="m886.5 783.9-14.4 4.7c-.6.2-1 .9-.8 1.5l23.7 73.6c.1.2.4 1.2 1.5.8l14.5-4.7c.7-.2 1-.8.8-1.5l-23.8-73.6c-.3-.9-1.1-.9-1.5-.8z"/><path d="m846.3 797.7-93.6 17.8c-.7.1-1.1.7-1 1.4l2.9 14.9c.1.6.7 1.1 1.4 1l38.1-7.3 11.4 59.9c.1.8.9 1.1 1.4 1l14.9-2.9c.7-.1 1.1-.8 1-1.4l-11.4-59.9 38.2-7.2c.6-.1 1.1-.6 1-1.4l-2.8-14.9c-.2-1-1.2-1.1-1.5-1z"/><path d="m728.7 818-95.3 2.7c-.7 0-1.2.5-1.2 1.2l2.2 77.3c0 .4.4 1.2 1.3 1.2l95.2-2.7c.8 0 1.2-.7 1.2-1.3l-.4-15.1c0-.7-.6-1.2-1.3-1.2l-78.9 2.2-.5-12.6 64.1-2.2c.7 0 1.2-.6 1.2-1.3l-.4-16c0-.7-.6-1.2-1.3-1.2l-64.1 1.8-.2-13 78.9-2.2c.7 0 1.2-.6 1.2-1.3l-.5-15.1c0-.8-.5-1.2-1.2-1.2z"/><path d="m540.4 811.4-9.4 76.8c-.1.4.2 1.3 1.1 1.4l68.5 8.4c.4 0 1.3-.2 1.4-1.1l1.8-15.1c.1-.5-.2-1.2-1.1-1.3l-52.2-6.5 7.4-60.4c.1-.7-.4-1.3-1-1.4l-15.1-1.8c-.6-.1-1.3.3-1.4 1z"/><path d="m428.8 781.6-21.8 74.2c-.2.7.1 1.3.8 1.5l14.6 4.3c.5.2 1.3-.1 1.5-.9l9.3-31.4 59.7 17.3-8.9 31.8c-.2.6.2 1.3.8 1.5l14.6 4.2c.2.1 1.2.2 1.5-.8l21.8-74.2c.2-.6-.3-1.3-.9-1.5l-14.5-4.2c-.7-.2-1.3.2-1.5.8l-7.8 26.5-59.9-16.9 7.6-27.3c.2-.6-.3-1.2-.9-1.4l-14.5-4.3c-.6-.2-1.3.1-1.5.8z"/><path d="m325.5 731.4-7.1 13.4c-.3.6-.1 1.4.5 1.7l34.3 18.2-28.5 53.8c-.3.6-.1 1.3.5 1.6l13.4 7.1c.5.3 1.4.2 1.7-.5l28.5-53.8 34.3 18.2c.6.3 1.4.1 1.7-.5l7.1-13.4c.3-.6.1-1.4-.5-1.7l-84.2-44.6c-.6-.3-1.4-.1-1.7.5z"/><path d="m186.3 716c-.4.5-.4 1.2.1 1.7l11.3 10.1c.4.4 1.2.5 1.7-.1l15.3-17.2 46.8 41.5-15.3 17.2c-.3.4-.5 1.2.1 1.7l11.4 10c.6.5 1.2.5 1.7-.1l35.1-39.5c11.3-12.7 1.7-32.8-10.2-43.3l-19.4-17.2c-9.6-8.5-31.3-18-43.5-4.3zm66.9-22.1 19.4 17.2c4.8 4.3 11.8 15 6.5 21l-6 6.7-46.7-41.5 6-6.7c4-4.5 16-1 20.8 3.3z"/><path d="m109.7 537.6 10.4-32.2-27.4-19.8c-1-.7-.4-2.4.7-2.4l33.8.1 10.3-32.1c.4-1.2 2-1.1 2.4 0l10.5 32.1 33.8-.1c1.2 0 1.6 1.5.7 2.2l-27.3 19.9 10.5 32.2c.4 1.1-.9 2-1.9 1.3l-27.3-19.8-27.3 20c-.9.7-2.3-.3-1.9-1.4z"/></g></g></svg>