<svg viewBox="0 0 848 100" xmlns="http://www.w3.org/2000/svg" xmlns:xlink="http://www.w3.org/1999/xlink"><g id="figure"><path d="m50 2c-26.6 0-48 21.4-48 48s21.4 48 48 48h90c26.6 0 48-21.4 48-48s-21.4-48-48-48zm0 10h90c21.1 0 38 16.9 38 38s-16.9 38-38 38h-90c-21.1 0-38-16.9-38-38s16.9-38 38-38zm1 8c-17.2 0-31 13.4-31 30s13.8 30 31 30h88c17.2 0 31-13.4 31-30s-13.8-30-31-30zm7.9 18.9 17.5 12.3-22.7 9.9zm30 0 17.5 12.3-22.7 9.9zm30 0 17.5 12.3-22.7 9.9z"/><path d="m251.1 24.5h45.3l-3.7 16.6h-45.7c-4 0-4.8 5.5-.5 5.5h27.7c16.4 0 20.6 3.2 17 20.5-3.1 14.8-11.1 16.6-30.3 16.6h-45.2l5.1-16.3h47.5c5 0 5.5-5.9.5-5.9h-30.4c-16.2 0-16.7-8.1-14.1-20.6 2.9-13.9 12.9-16.4 26.8-16.4z"/><path id="a" d="m366.6 24.5-3.9 16.8h-21.9l-9.7 42.2h-19.9l9.7-42.2h-24l4-16.8z"/><path id="b" d="m377.9 24.5-45.6 59h22.6l7-10h33.8l3 10h21.9l-18.7-59zm13.3 34.3h-17.8l12.7-17z"/><path id="c" d="m435.6 24.5-13.6 59h20l3.3-14.6h26.3c3 0 5.1.4 4.1 4.9l-2.2 9.7h20l2.5-11.2c1.1-4.8.5-9.5-3.8-12.2 2.7-1.1 5.1-2.9 6.7-5.3 3.5-5.2 5-16.5 5-18.7 0-9.7-7.9-11.6-15.4-11.6zm41.8 16.7c5.3 0 6.4 1.1 5.5 4.8-.9 3.9-1.6 6.2-7 6.2h-26.8l2.6-11z"/><use transform="translate(226.7)" xlink:href="#a"/><use transform="translate(162.2)" xlink:href="#c"/><use transform="translate(324.2)" xlink:href="#b"/><path d="m826.3 36.5c0 3.1-.6 6.8-1.8 11.5h-20c1.4-4.8.8-6.8-4.7-6.8h-18.9c-9.3 0-11.2 4.7-12.8 12.1-2.4 11-2.9 14 4.5 14h21c7.4 0 7.8-2.7 9-7.8h19.9c-2 15.9-8.8 25-26.9 25h-27.9c-21.4 0-25.3-7.9-21.6-23.8l3.5-15c3.8-16.4 13.5-21.5 30.1-21.5h21.9c14.7 0 24.7 2.2 24.7 12.3z"/><path d="m838 25.5c-4.4 0-8 3.6-8 8s3.6 8 8 8 8-3.6 8-8-3.6-8-8-8zm0 1.3c3.6 0 6.7 3.1 6.7 6.7s-3.1 6.7-6.7 6.7-6.7-3.1-6.7-6.7 3.1-6.7 6.7-6.7zm-3.1 2.1v9.2h1.2v-3.8h1.8l2.2 3.8h1.4l-2.5-4.1c.8-.3 1.8-.9 1.8-2.5 0-2.2-1.7-2.6-3.4-2.6zm1.2 1h1.3c1.9 0 2.2.7 2.2 1.6 0 1.6-1.3 1.8-2.2 1.8h-1.3z"/></g></svg>