<svg viewBox="0 0 358 100" xmlns="http://www.w3.org/2000/svg"><g fill="#dd3825"><path d="m47.5 4.2c-12 0-36.7.3-36.7.3l5.7 10.5c11.5-6.3 21.4-7.3 31-7.5 9.6.2 19.5 1.2 31 7.5l5.7-10.5s-24.7-.3-36.7-.3zm-29.5 14.3 22 36.5 6 41h3l6-41 22-36.5h-12l-17.5 29.5-17.5-29.5zm-3 .4c-5.4 5.4-13 17.6-13 31.1 0 25.5 19.6 44.5 40.5 46-7.5-6.6-33.5-57.8-27.5-77.1zm65 0c6 19.3-20 70.5-27.5 77.1 20.9-1.5 40.5-20.5 40.5-46 0-13.5-7.6-25.7-13-31.1z"/></g><g fill="#fff"><path d="m116.4 2h9.2v25.4h31.4l-.1-25.4h9.2v59.9h-9.1v-26.7h-31.4v26.7h-9.2z"/><path d="m176.6 2h10.6l16 26.8 16-26.8h10.8l-22.3 36v23.9h-9.3v-23.9z"/><path d="m288.8 2h9.9v59.9h-9.9z"/><path d="m238.8 2h38.2v7.7h-29.1v18.5h27.9v7.7h-27.9v26h-9.1z"/><path d="m309.9 2h46.1v8.3h-18.6v51.6h-9.2v-51.6h-18.3z"/></g><g fill="#707173"><path d="m114.9 80h2.4l3.3 14 3.8-13.6h2.8l4.1 13.6 3-14h2.5l-4.2 17.6h-2.8l-3.8-13.8-4.1 13.8h-2.6z"/><path d="m143.3 80.2h13v2h-10.6v5.6h9.9v1.9h-9.9v5.9h10.6v2h-13z"/><path d="m171 80.2h-2.5l-6.3 17.4 2.6-.1 1.7-5.1h6.5l1.7 5.1 2.5.1zm-1.5 3.8h.6l2.2 6.5-5-.1z"/><path d="m189.5 80.2h-5.4v17.4h2.3v-7.5h2.9c1.6 0 4-.1 4.7.5 1.5 1.6.8 4.8 1.2 6.9l2.7.1c-1.2-3.5.4-6.2-2.2-8.7 1.2-.9 1.9-2.7 1.9-3.9-.1-4.5-3.2-4.8-8.1-4.8zm-.1 2.1c2.8 0 5.9-.3 5.9 2.7-.1 3.3-3.5 3.1-6.1 3.1h-2.8v-5.8z"/><path d="m213.3 80.2h-2.5l-6.3 17.4 2.6-.1 1.7-5.1h6.5l1.7 5.1 2.5.1zm-1.5 3.8h.6l2.2 6.5-5-.1z"/><path d="m231.4 80.3h-5.4v17.3h5.4c4.6 0 7.9-.8 7.9-4.9 0-1.7-.9-3.5-2.6-4.5 1.7-.7 1.8-2.1 1.8-3.7-.2-3.6-2.4-4.2-7.1-4.2zm0 1.9c3.6 0 4.7.4 4.7 2.3 0 1.7-.3 2.8-4.7 2.9h-3v-5.2zm0 7.1c5.1 0 5.5 1.4 5.5 3.4s-.7 3-5.5 3h-3v-6.4z"/><path d="m246.5 80.3h2.4v15.3h8.6v2h-11z"/><path d="m264.1 80.2h13v2h-10.6v5.6h9.9v1.9h-9.9v5.9h10.6v2h-13z"/><path d="m310.3 85.5c-.4-1.6-2.2-5.5-7.4-5.6-4.6 0-8.5 3.4-8.5 9.1 0 5.6 3 9 7.6 9.1 2.4 0 4.7-.8 6.1-2v1.6h2.2v-9.4h-7.3l.3 1.8h4.8v2.8c-.7 2.6-4.2 3.3-5.7 3.3-3.3-.2-5.5-1.8-5.7-7.2 0-3.5 2.1-7 6.3-7.1 3.3 0 4.4 1.8 5.2 3.7z"/><path d="m317.4 80.2 6.3 10.5.1 6.9h2.4l.1-6.9 6.3-10.5-2.8.3-4.8 8-4.8-8z"/><path d="m338.8 80.2v17.2h2.5v-13l4.6 12.9h2.8l4.6-12.9v13h2.5v-17.2h-3.5l-5 13.7-5-13.7z"/></g></svg>