<svg viewBox="0 0 429 100" xmlns="http://www.w3.org/2000/svg" xmlns:xlink="http://www.w3.org/1999/xlink"><g id="figure"><g transform="scale(.1)"><path d="m527 20 375.3 284.6-375.3 284.7z"/><path d="m107.6 337.6 419.4 318.1 419.4-318.1 87.6 66.6-507 384.6-507-384.6z"/><path d="m1609.4 115.5h-207.5c-155.8 0-175.2 109-175.2 163.1v248.5c0 54.1 19.4 163.3 175.2 163.3h207.5v-104.8h-211.3c-48.4 0-64.3-32-64.3-58.5v-248.5c0-26.5 15.9-58.5 64.3-58.5h211.3z"/><path d="m1653.8 115.5h384.1v104.6h-276.9v132.1h239.3v105h-239.3v127.8h277.6v104.8h-384.8z"/><path d="m2180.3 115.3 217.8 360v-360h107.3v574.7h-95.9l-217.6-350.9v350.9h-107.3v-574.7z"/><path d="m2946.2 115.3v105h-144.1v469.7h-106.7l-.6-469.7h-143.7v-105z"/><path d="m3097.4 115.3v359.6c0 77.3 39.4 115 95.2 115s95.6-37.5 95.6-115v-359.6h106.8v375.9c0 82.2-55.3 203.9-202.4 203.9s-202.4-119.3-202.4-203.9v-375.9z"/><path d="m3439.8 115.3v574.7h107.2l.2-211.7h78.3l107.3 211.7h125l-123.2-231.5c93-36.6 101.5-131.4 101.5-157.3-.1-67.4-38.9-185.9-182.6-185.9zm200.1 105.2c72.3 0 86.4 47.7 86.4 80.7 0 31.5-15.9 78.9-86.4 78.9h-92.7v-159.6z"/><path d="m3930 115.3 112.4 243.2 110.7-243.2h116.9l-176 356.9v217.8h-105.8v-217.8l-175.4-356.9z"/><path d="m4179.4 610.8c-21.8 0-39.5 17.7-39.5 39.5s17.7 39.5 39.5 39.5 39.5-17.7 39.5-39.5-17.7-39.5-39.5-39.5zm0 7c18 0 32.6 14.6 32.6 32.5s-14.6 32.5-32.6 32.5-32.7-14.6-32.7-32.5 14.7-32.5 32.7-32.5zm-15.8 11.2v44.3h9.1v-18.6c3.3.8 8.6-.2 10.7 2.6 3.2 4.3 2.9 10.8 4 16h9.6c-1.6-8-1.8-15.4-7-22.1 3.6-2.9 6.3-6.3 6.3-10 .1-11-9.9-12.9-18.4-12.9s-10.4.5-14.3.7zm23 13.1c.1 5.8-5.7 6.4-13.9 6.5v-13.7c8.6-.7 13.8 1.1 13.9 7.2z"/><path d="m1607.5 917.1 60.4-132.6h31.9v195.5h-26.5v-151.5l-54.8 123.8h-21.8l-55.2-123.8v151.5h-25.7v-195.5h31.5z"/><path id="a" d="m1782.5 979.3h27.8l18.7-53.3h75.2l18.6 53.3h29.2l-67.4-194.8h-34.5zm114.5-77.6h-61l30.9-90.8z"/><path id="b" d="m2036.1 784.5v195.5h26.8v-77.1h46.7l39.8 76.9h29.6l-39.6-76.9c23.5-3.2 33.6-14.9 33.6-41.4v-39.5c0-27-14.6-37.5-40-37.5zm109.8 41.2v36.7c0 13.9-4.5 17-17.9 17h-65.1v-70.1h65.1c12.8 0 17.9 1.9 17.9 16.4z"/><path id="c" d="m2395.1 784.5v26.5h-57.8v168.8h-27v-168.8h-56.9v-26.5z"/><path d="m2506.2 784.6v195.2h-26.8v-195.2z"/><use transform="translate(808.6)" xlink:href="#a"/><path d="m2871.1 784.5v169.8h91.3v25.2h-118.3v-195z"/><use transform="translate(1367.3)" xlink:href="#a"/><use transform="translate(1367.7)" xlink:href="#b"/><use transform="translate(1367.7)" xlink:href="#c"/><path d="m3937.5 784.5c12.1 0 24.7 2.6 32.3 13.1 9.5 13.2 8.4 45.6 8.4 45.6l-26 1.1-2.5-21c-1.3-11.3-5.8-15.2-15.9-15.2h-45.8c-16.8 0-19 11.1-19 24.1 0 23.3 2 25.8 16.4 29.3 18.4 4.5 36.9 10.2 55.4 14.3 36 7.9 38.8 21.1 38.8 51.8 0 39.1-8 51.9-43.4 51.9h-53.7c-18.5 0-37.3-4.2-39.5-40.9l-1.2-19.7h27v19.4c0 13 .8 17.2 23.9 17.2h46.2c12.5 0 13.9-6.9 13.9-24.7 0-9.9 1.2-24.2-9.1-27.8-15.7-5.6-32.8-7.5-49-11.8-14.1-3.8-33.2-7.5-43.9-18.5-9.1-9.3-8.5-24.2-8.5-37.2 0-13.1-.4-28.6 7.4-38.8 7.1-9.3 18.8-12.2 34-12.2z"/></g></g></svg>