<svg viewBox="0 0 193 100" xmlns="http://www.w3.org/2000/svg"><g id="figure" fill="#fff"><g transform="scale(.1)"><path d="m965.2 20v353.9l233.3-177zm-260.8 197.4-54.4 41.4 315.2 239.1 314.8-239.1-54.1-41.4-260.7 197.8z"/><path d="m258.6 618.7h-129.4c-97.1 0-109.2 67.9-109.2 101.6v155c0 33.7 12.1 101.7 109.2 101.7h129.4v-65.3h-131.7c-30.2 0-40.1-19.8-40.1-36.4v-155c0-16.6 9.9-36.4 40.1-36.4h131.7z"/><path d="m285.6 618.4h239.5v65.5h-172.6v82.3h149.1v65.5h-149.1v79.7h173v65.3h-239.9z"/><path d="m612.1 618.5 135.8 224.4v-224.4h66.9v358.3h-59.8l-135.7-218.7v218.7h-66.8v-358.3z"/><path d="m1088.2 618.5v65.5h-89.9v292.8h-66.5v-292.8h-89.9v-65.5z"/><path d="m1182.3 618.5v224.2c0 48.2 24.5 71.7 59.3 71.7s59.6-23.4 59.6-71.7v-224.2h66.5v234.4c0 51.2-34.4 127.1-126.1 127.1s-126.2-74.4-126.2-127.1v-234.4z"/><path d="m1394.7 618.5v358.3l67 .1v-132.1h48.2l66.8 132h77.4l-76.2-144.3c58-22.8 62.3-82 62.3-98.1 0-42-22.6-115.9-112.2-115.9zm124.8 65.6c45.1 0 53.8 29.7 53.8 50.3 0 19.6-9.9 49.2-53.8 49.2h-57.8v-99.5z"/><path d="m1698.3 618.5 70.1 151.7 69.3-151.7h72.3l-109 222.5v135.8h-66.3v-135.8l-109-222.5z"/><path d="m1853.9 927.4c-13.6 0-24.6 11.1-24.6 24.7s11 24.6 24.6 24.6 24.7-11 24.7-24.6-11.1-24.7-24.7-24.7zm0 4.4c11.2 0 20.4 9.2 20.4 20.3s-9.2 20.2-20.4 20.2-20.3-9.1-20.3-20.2 9.1-20.3 20.3-20.3zm-9.8 7v27.6h5.7v-11.6c2 .5 5.3-.2 6.6 1.6 2 2.7 1.8 6.7 2.5 10h6c-.9-5-1.1-9.6-4.3-13.7 2.2-1.8 3.9-3.9 3.9-6.3.1-6.9-6.2-8.1-11.5-8.1s-6.5.4-8.9.5zm14.3 8.2c0 3.7-3.5 4-8.6 4v-8.5c5.3-.5 8.6.7 8.6 4.5z"/></g></g></svg>