<svg viewBox="0 0 474 100" xmlns="http://www.w3.org/2000/svg"><g id="figure" fill="#9f1b3c"><path d="m20.7 19.1h13.9l-6.3 20.1h8.8l6.3-20.1h13.9l-18.7 59.7h-13.9l10.5-33.4h-8.8l-10.5 33.4h-13.9z"/><path d="m65.3 19.1-18.7 59.7h34.9l6.2-11.6h15.9v11.6h12.1l3.2-59.7h-13.9l-27.5 52.7h-14.9l8-25.6h15l2.1-6.9h-14.9l4.2-13.2h13.6l2.2-7zm41.1 12.9-2.2 29.2-13.7-.2z"/><path d="m137.4 19.1h13.9l-16.6 53h13.7l-2.1 6.7h-27.6z"/><path d="m216.8 19.1h13.9l-18.7 59.6h-13.9l10.5-33.2h-8.8l-10.6 33.2h-13.8l16.6-52.5h-9.6l-16.9 52.5h-13.8l16.8-52.5h-12.2l2.3-7.2h49.5l-6.3 20.3h8.7z"/><path d="m262.2 2 3 5.5c-3.3.5-6.6 1.6-9.3 3.6-6.3 4.4-7.6 11.1-6.5 18.9 1 6.9 2 13.9 2.9 20.8 2.2 17.2-1.5 23.8-7.7 28.3l9.6-.3 16.5-52.1h-12.1l2.4-8h55.8c4.2 0 11.7 5.1 11.8 14.4 0 5.9-3.5 9.8-12.1 11.9l2.2 33.9h-13.8l-1.7-32.3c6-1.3 11.2-5.6 11.2-12.4 0-3.4-1.3-7.2-6.6-6.8l-16.9 51.2h-12.4l17.1-51.9h-10.9l-16.5 52.1c-37 6.4-74.2 12.8-111.2 19.2l2.3-7.7c52.9-6.8 58.9-7.9 63.6-8.9 1.5-.3 13.1-3 15.9-11.4 2.2-6.5.7-13-.7-19.5-1.5-7.3-2.7-14.8-2.1-22.3.9-11.9 6.2-18.6 13.6-21.9 4-1.8 10.5-4.3 12.6-4.3z"/><path d="m394.1 19.3h-13.8l-27.7 52.8h-14.7l8-25.6h14.8l2.3-6.9h-14.9l4.1-13.3h13.3l2.5-7h-27.5l-18.7 59.7h34.9l6.2-11.6h16v11.6h12zm-12.5 13-2.2 29.2-13.6-.3z"/><path d="m420.6 19.1 2.9 28 19.2-28h13.9l-19.4 59.9h-13.9l11.5-36.2-21 29.3-2.8-27.8-11.1 34.7h-8.3l19-59.9z"/><path d="m465.7 15a6.3 6.3 0 00-6.3 6.3 6.3 6.3 0 006.3 6.3 6.3 6.3 0 006.3-6.3 6.3 6.3 0 00-6.3-6.3zm0 1a5.3 5.3 0 015.3 5.3 5.3 5.3 0 01-5.3 5.3 5.3 5.3 0 01-5.3-5.3 5.3 5.3 0 015.3-5.3zm-2.5 1.6v7.4h1.2v-3.2s.9-.1 1.2.1l2 3.1h1.3l-2.1-3.2c1.2-.2 1.9-.7 1.9-1.9 0-2.3-1.7-2.3-3.3-2.3zm1.2 1h1.1c1 0 2 .2 2 1.2 0 1.1-1 1.1-2 1.1h-1.1z"/></g></svg>