<svg viewBox="0 0 367 100" xmlns="http://www.w3.org/2000/svg"><g id="figure"><path d="m11.4 71.2h9.1c13.9.1 25.6-.2 28.1-.6 4.1-.6 7.1-2.1 9.7-4.7 2.5-2.5 4.2-5.8 4.8-9.4.3-1.4.3-4.3 0-5.7-.8-4.2-3.2-7.6-6.9-9.8-1.8-1-2.9-1.4-4.6-2 2.5-1.3 4.9-3.2 6.2-5.2 1.5-2.3 2.3-4.6 2.4-7.3.2-4.1-1.3-7.6-4.4-10.7-2.9-2.9-6-4.2-10.9-4.7-2.7-.3-6.1-.3-19.6-.3h-14zm29.2-50.1c4.4.2 7.5 2.8 7.5 6.7.1 3.6-3 6.1-5.9 6.7-1.3.3-4.5.4-11.8.4h-6.5v-13.9h7.5c4.1 0 8.3 0 9.2.1zm.8 24c3.6.4 4.8.8 6.5 2.1 1.7 1.4 2.5 3.6 2.6 5.4.1 3.8-2.2 6.9-5.6 7.8-1.6.4-2.6.4-11.9.5h-9.1v-16.1l8.2.1c5.1 0 8.6.1 9.3.2z"/><path d="m88 26.8c-4.6.6-8.5 2.6-11.7 6-3 3.1-4.8 7.1-5.5 12.2-.3 1.9-.4 5.7-.2 7.7.8 9.3 5.5 15.9 13 18.4 2.3.8 4.7 1.2 7.7 1.3 3.4.1 6.2-.3 8.9-1.2 5.3-1.7 9.2-5.5 11.3-10.8.2-.5.4-1 .3-1-4-.8-7.2-1.1-11.5-1.9-.8.4-1.1 2.2-1.7 3.1-1 1.4-2.5 2.5-4.2 2.9-.9.2-2.8.2-3.7 0-1.9-.3-3.5-1.2-4.9-2.6-1.2-1.2-2-2.7-2.5-4.6-.3-1-.6-3.3-.4-3.5 10.5-.1 18.4-.1 29.7-.2.1-2.1 0-4.4-.2-6.5-.4-3.5-1.2-6.3-2.4-8.9-2.9-6-8.3-9.7-15.4-10.5-1.6-.2-4.9-.2-6.3 0zm6 9c1.5.4 3.3 1.5 4.2 2.6 1.4 1.6 2.1 3.7 2.3 6.2.1.6.1 1.1.1 1.2 0 0-4 .1-8.9.1h-8.9l.1-1.3c.2-4.2 2.5-7.5 6.1-8.6 1.5-.5 3.5-.5 5-.1z"/><path d="m135.2 26.7c-3.1.3-6.3 1.1-8.3 2.1-3.2 1.6-5.6 4.4-6.6 7.4-.9 2.9-.7 6.5.6 9.1 1 2.1 3 4 5.2 5.1 2.7 1.4 7.8 3 14.9 4.6 4 .9 5.5 1.4 6.2 2.1 2.1 2.8-.3 5.4-2.8 6.3-2.3.7-6.1.8-8.5.2-4.3-1.3-5.8-3.5-6-6.3-3.9.5-7.7 1.2-11.8 1.9-.1.1.6 2.1 1.1 3.1 1.1 2.2 3.2 4.8 5.4 6.3 3.8 2.7 9.4 4.1 16.1 3.9 3.4-.1 6.1-.5 8.7-1.4 3.5-1.2 6.2-3 8.2-5.8 3-4.1 3.3-10.2.6-14.1-2-2.9-6.2-5-14.1-6.9-3.9-1.1-8.1-1.5-11.7-3.3-1.8-.9-2.1-3-.6-4.4 1.2-1.1 3.4-1.6 6.9-1.6s5.4.6 7 2.4c.6.6 1.2 2.5 1.7 2.8.3 0 11.1-1.9 11.1-2 .2-.2-.9-2.7-1.6-4-2.2-3.7-5.4-5.9-10.2-6.9-4.6-.6-6.7-.9-11.3-.6z"/><path d="m171.1 18.9v8.7h-5.5v9.2h5.5l.4 27.3c.7 4.7 4.4 7.3 8.4 8 3.2.6 8.1.1 11.4-1.2.6-.2.9-.2.8-.8l-.9-8.4s-.5.1-1.2.3c-1.5.6-6.5 1.3-6.5-.9l-.4-24.3h8.1v-9.2h-8.1l-.1-15.4z"/><path d="m193.5 27.6 14.2 43.5 11.6-.1 7.5-27.7 7.8 27.9h11.4l14.4-43.6h-11.7l-8.5 28.2-7.6-28-11.5-.1-7.6 28.3-8.5-28.3z"/><path d="m281.4 26.6c-3.6.3-6.6 1-8.8 2.2-2.7 1.4-4.9 3.7-6.3 6.8-.5 1.1-1.2 2.9-1.2 3.2 0 .1 1.2.4 5.2 1 2.9.5 5.3.9 5.3.9 1.1-1.6 2.1-3.8 3.8-4.6 3-.9 5.2-1.1 8.1-.5 4 1.1 4.4 3.1 4.3 7-3.9 1.3-7.6 2-10.6 2.6-8.4 1.7-11.3 2.8-13.8 5.1-2.5 2.4-3.6 5.2-3.6 8.9s1.2 6.5 3.7 8.9 5.5 3.6 9.7 3.9c5.1.4 9.8-1.1 13.9-4.3.8-.5 1.1-1.1 1.6-1.4.6 1.6 1 2.9 1.6 4.7h11.9l-.4-.9c-1-2.1-1.6-4.1-1.9-6.2-.4-2.6-.4-5-.3-13.8s.1-10.3-.3-12.8c-.5-3.8-1.8-5.9-4.6-7.8-2.3-1.5-5-2.4-8.8-2.8-1.8-.2-6.7-.3-8.4-.2zm10.3 26.1c0 3.9-.2 5.2-.9 6.7-2 3.1-5.4 4.7-8.5 4.7-2 .1-3.8-.8-5-2.1s-1.6-2.4-1.5-4.1c0-.8.1-1.1.4-1.6.4-.8 1.4-2 2.2-2.4 1.1-.6 3.3-1.3 7.4-2.1 2.5-.5 5.1-1.2 5.5-1.4.5-.2.5-.3.5 2.4z"/><path d="m309.4 27.5 17.1 43.7c-.9 2.4-2 5.2-3.9 6.8-2.8 2.4-6.3 2.1-10.3 1.2l.9 9c4 .6 8.3.9 11.9.2 3.7-.8 6.7-2.6 8.8-5.5.7-1 1.9-3.3 2.7-5.2.5-1.1 18.9-50.1 18.9-50.2h-12.2c-3.8 10.2-6.5 20.8-10.5 30.9-3.9-10.9-6.7-19.2-10.8-30.9z"/><path d="m8.9 2.2c-3.6.9-6.2 3.7-6.8 7.3-.1.5-.1 10.4-.1 31.6 0 25.6 0 31 .1 31.7.6 3.5 3.2 6.2 6.9 7.3.8.2.9.2 12.4.3 16.2.1 25.1-.2 28.4-.6 7.4-1.3 12.4-3.7 16.7-9 .3-.4.6-.7.6-.7s.3.3.5.6c5.5 7 14 10.7 24.5 10.7 5 0 8.9-.7 13.1-2.4 3.1-1.2 6.6-3.6 8.9-6l.8-.8 1 1c5.8 5.5 13.5 8.2 23.6 8.2 6.5 0 11.8-1.1 16.5-3.4 2.7-1.3 5-3 7.1-5.2 1-1 1.1-1.1 1.2-.9.4.7 1.6 2.4 2.1 3 2.8 3.2 7.4 5.5 12.9 6.3 1.2.2 5.9.2 7.4 0 2.8-.3 5.3-.9 7.6-1.7 2.4-.9 3.6-1.6 4.7-2.9.3-.4.6-.7.7-.7l.4.6c1.1 1.6 2.9 2.8 5.1 3.5.7.2.8.2 8 .3 7.5 0 7.8 0 9.1-.4 1.8-.6 3.8-2 4.7-3.4l.3.3c1.2 1.5 2.8 2.6 4.8 3.2l.9.3h7.5 7.5l.9-.3c2.4-.8 4.2-2.2 5.4-4.2.3-.5.7-1.6 1.4-3.5.5-1.6 1-2.9 1-3s.2.1.5.6c1.9 3.5 5.4 6.9 9.2 8.7 6.5 3.3 15.5 3.7 22.6.9l.9-.4.9.4c1.8.7 2 .7 7.5.7h4.9l.1.4c0 .2.3 2.4.5 4.7.5 4.7.7 5.6 1.4 6.9.9 1.8 2.5 3.3 4.3 4.2 2.2 1 7.3 1.7 11.8 1.6 7.6-.2 13.6-2.4 17.8-6.6 1.2-1.2 2.3-2.5 2.7-3.2 1.5-2.9 7.5-17 10-23.5 1.8-4.6 12.9-34.4 13.1-35.1.3-1.1.3-2.9 0-4.1-.9-3.5-3.6-6.1-7.3-6.8-.9-.2-1.4-.2-8.3-.2-7.3 0-7.4 0-8.2.3-2.7.8-5.2 2.8-6.2 5.3-.1.3-.6 1.7-1 3s-.8 2.5-1 2.5c-.1 0-.6-1.3-1.1-2.8s-1.1-2.9-1.2-3.2c-.9-1.9-2.8-3.5-4.8-4.3-1.7-.7-1.4-.6-9.9-.6-7.1 0-7.8 0-8.5.2-1.5.4-3 1.2-4.1 2.1l-.6.5-1.4-.7c-3.5-1.7-7-2.6-12.2-3-2-.2-6.8-.2-8.7 0-4.7.4-8.7 1.4-12.1 3.1l-1 .5-.6-.5c-1.1-.9-2.3-1.6-3.9-2-.9-.2-.9-.2-8.1-.2s-7.3 0-8.1.2c-.5.1-1.2.4-1.5.5-1.4.6-3.1 1.9-3.9 3.2-.2.3-.4.5-.4.5s-.2-.2-.3-.4c-.4-.6-1.6-1.8-2.2-2.3-1.2-.9-2.8-1.5-4.3-1.7-1.1-.1-12.6-.2-13.8 0-1.6.2-3.2.8-4.4 1.7-.7.5-1.7 1.6-2.2 2.2-.2.3-.3.4-.4.4 0 0-.2-.2-.4-.5-.4-.6-1.5-1.7-2.3-2.3-.9-.6-2.2-1.2-3.3-1.5-.9-.2-1-.2-7.9-.2h-7v-3.5c0-3.9-.1-4.7-.6-6.1-1-2.6-3-4.5-5.5-5.3-1.3-.4-2.3-.6-3.7-.5s-2.6.4-3.8.9c-2 1-13 7.4-13.6 7.9-1.9 1.5-3.1 3.9-3.3 6.5-.1.9-.1.9-.4 1-.9.4-2.4 1.5-3 2.3l-.4.5-.6-.4c-4.7-2.9-10.8-4.4-18.7-4.4-9.6 0-16.8 2.4-21.8 7.3-.8.8-1.9 2-2.2 2.5-.2.2-.2.2-1.4-1-2.4-2.4-4.8-4.2-7.7-5.6-3.7-1.8-7.3-2.8-11.7-3.1-9-.7-17.1 2-23.3 7.9l-.9.8-.1-1.4c-.2-3.8-1.3-7.3-3.3-10.6-3.5-5.6-8.9-9.5-15.5-11.1-2.2-.5-4.2-.8-7.9-1-1.8-.1-32.6-.1-32.9-.1s-.7.1-1.1.2zm42.8 4.3c1.6.5 4 1.7 5.4 2.6 4.6 3 7.9 7.8 8.9 12.9.6 2.9.5 6.5-.2 9.2l-.1.5 1.4.6c.8.3 1.4.6 1.5.6l.8-1c4.1-6.1 10.7-10.1 18-11 5.9-.7 11.9.2 16.7 2.6 4 2 6.9 4.6 9.8 8.6.4.6.8 1.1.8 1.1s.5-.7 1-1.5c1.1-1.8 1.9-2.9 3.1-4.2 3.1-3.3 7.2-5.3 12.5-6.3 5.7-1 13.5-.7 18.6.7 1.5.4 2.7.9 4 1.6 1.4.7 1.8 1 3.7 2.4.9.7 1.6 1.2 1.6 1.2s.2-.5.5-1.1c.2-.6.6-1.3.8-1.6.8-1.2 2.1-2.1 3.8-2.6l.8-.2v-1.8c0-2 .1-2.4.7-3.6.2-.5.6-.9 1.1-1.4.7-.6 1.4-1.1 7-4.3 3.4-1.9 6.5-3.6 6.8-3.8.8-.3 1.8-.5 2.9-.4 2.5.2 4.5 1.7 5.4 4l.3.8v5.3 5.3h1.5 8.5c7.7 0 7.5 0 8.9.7 1 .5 2.1 1.6 2.6 2.6.2.4.9 2.5 1.5 4.6s1.2 3.9 1.2 3.9.5-1.8 1.1-3.9 1.2-4.1 1.3-4.4c.3-.7 1-1.7 1.6-2.1.7-.5 1.7-1.1 2.4-1.3.9-.2 13.8-.2 14.7 0 1 .3 2 .9 2.8 1.6 1.1 1.1 1.3 1.7 2.5 6.3.6 2.1 1 3.8 1.1 3.7 0-.1.6-1.8 1.2-4 .6-2.1 1.3-4.2 1.5-4.6.5-.9 1.6-2 2.5-2.5 1.5-.8 1.2-.8 8.9-.8h6.9l.8.3c.9.3 2 1 2.6 1.6.2.2.6.8.8 1.3l.4.9 1.3-.9c3.6-2.4 7.7-3.7 13.1-4.1 1.7-.1 6-.1 7.9 0 5.8.4 9.7 1.6 13.2 3.9l1 .7.6-.4c.3-.2.7-.6 1-.9.7-1 1.9-1.8 3.3-2.2.6-.2 1.1-.2 8-.2 8.1 0 7.8 0 9.2.7 1.2.6 2.3 1.7 2.8 2.9.1.2 1.3 3.6 2.6 7.5 2.1 6 2.5 7 2.6 6.8.1-.1 1.1-3.3 2.4-7.1s2.4-7.1 2.6-7.4c.8-1.6 2.4-2.8 4.2-3.2.6-.1 2-.2 7.4-.2 7.5 0 7.5 0 9 .7s2.7 2.2 3.1 3.8c.2.6.2 2.2 0 2.8-.1.5-11.8 31.6-13 34.7-2.4 6-7 16.9-9.4 22.1-.7 1.6-1.3 2.3-2.8 3.8-1.6 1.6-3.1 2.5-5.3 3.5-2.8 1.2-5.3 1.8-9.1 2-3.5.2-8.9-.3-10.9-1-1.2-.5-2.4-1.5-3.1-2.7-.6-1-.7-1.7-1.2-6.6-.4-4-.5-5-.5-5.9 0-.6.1-1.2.1-1.3l.1-.2h-6.5c-5.1 0-6.6 0-7.1-.2-.7-.2-1.7-.6-2.4-1.1l-.4-.3-1 .4c-2 .9-4.1 1.5-6.4 1.9-.9.2-1.7.2-4.2.2-3.4 0-4.4-.1-7-.8-6.1-1.7-11.1-6.2-12.9-11.9-.2-.5-.6-2.3-1-4s-.7-3.1-.7-3.1c0-.1-1.2 3.4-2.6 7.6-1.8 5.5-2.7 7.9-2.9 8.3-.7 1.2-1.8 2.1-3.2 2.6l-.7.3h-6.7c-4.7 0-6.9 0-7.3-.1-.3-.1-1-.3-1.5-.5-1.1-.5-2.3-1.7-2.8-2.7-.2-.4-.7-2.1-1.2-4.1-.5-1.9-1-3.3-1-3.3 0 .1-.5 1.6-1 3.4s-1 3.6-1.2 3.9c-.7 1.4-2.4 2.8-4 3.2-1 .2-13.5.2-14.5 0-1.1-.3-2.2-.9-3-1.8-.9-.9-1.2-1.5-1.7-3.1-.2-.7-.4-1.2-.5-1.3-.1 0-2.4.2-2.9.3-.2 0-.2.1-.2.3 0 .5-.4 1.6-.8 2.2-.9 1.4-2 2.1-4.6 3-5.1 1.7-11.1 2-15.7.8-3.9-1-7.2-3.2-9-6-.9-1.3-1.4-2.4-2.1-4.7-.4-1.1-.7-2.1-.7-2.1s-.5.8-1.1 1.7c-1.4 2.2-2.3 3.4-3.7 4.7-2.4 2.3-5.2 4.1-8.6 5.3-7 2.4-17.2 2.4-24.4-.1-1.6-.6-4.3-1.9-5.6-2.7-2.2-1.5-4.1-3.3-5.9-5.5-.8-1.1-.9-1.1-1-.9-.1.1-.6.8-1.1 1.4-4.7 6.1-11.5 9.3-20.3 9.5-8 .2-14.6-1.8-19.7-6.1-2.1-1.7-3.7-3.8-5.3-6.5-.5-.9-.9-1.5-1-1.5 0 0-.5.7-1.1 1.6-1.3 2.1-2.5 3.6-3.8 4.8-3 2.5-6.4 4.5-10 5.5-3.8 1-7.7 1.1-27.9 1.1-13.4 0-14.1 0-14.7-.2-1.7-.5-3.1-1.7-3.8-3.1-.7-1.5-.7 1.1-.7-33.2v-30.9l.2-.6c.6-1.6 1.9-3 3.4-3.6 1.1-.5.6-.5 17.8-.4 11.4 0 16.7.1 18.8.4s3.8.6 5.9 1.3z"/><path d="m364.5 73.6c0 1.1-.3 1.9-1.1 2.7-.7.7-1.6 1.1-2.7 1.1-1 0-1.9-.3-2.7-1.1-.7-.7-1.1-1.6-1.1-2.7 0-1 .3-1.9 1.1-2.7.7-.7 1.6-1.1 2.6-1.1s1.9.3 2.7 1.1c.8.7 1.1 1.6 1.1 2.7zm-.7-3.1c-.9-.9-1.9-1.3-3.1-1.3s-2.2.4-3.1 1.3-1.3 1.9-1.3 3.1.4 2.2 1.3 3.1 1.9 1.3 3.1 1.3 2.2-.4 3.1-1.3 1.3-1.9 1.3-3.1-.4-2.2-1.3-3.1zm-3.2 3h-.7v-1.7h.7c.5 0 .8.1 1 .2s.3.3.3.7c0 .3-.1.6-.5.7-.3.1-.6.1-.9.1zm-1.6 2.5h.9v-1.9h.7c1 0 1.4.5 1.4 1.2v.7h.8c-.1-.3-.1-.6-.1-1 0-.6-.5-1.1-1.1-1.2.7-.1 1.1-.5 1.1-1.1s-.3-1-.7-1.2c-.3-.1-.7-.2-1.3-.2h-1.7z"/></g></svg>