<svg viewBox="0 0 680 100" xmlns="http://www.w3.org/2000/svg"><g id="figure" fill="#fff"><path d="m52.4 72.6c-6 5.9-13.3 8.2-21.3 8.3-20.8 0-28.9-13.1-29-27.5-.1-13.6 9-28 28.9-28.1 7.6 0 14.5 2.6 20.5 8.4l-9.2 9.1c-3.8-3.6-7.7-4.6-11.3-4.6-10.2 0-14.2 8.3-14.1 15.2s3.7 14.7 14.2 14.6c3.6 0 8.7-1.5 12.5-5.4l8.8 9.8z"/><path d="m93.3 24.7v32.1 2.6c0 4.1-3.7 6.3-7.8 6.3s-7.6-2.1-7.6-6.3v-5.4-29.3h-14.9v30.2 4.5c.2 14.3 10.1 21.5 22.8 21.5 12.2 0 22.6-7.1 22.6-21.5v-2.2-32.5z"/><path d="m176.2 80.8h-20.8l-4.1-4.4-5-5.4-4.8-5.2v-13.4h5.2c4.1 0 6.1-3.2 6.1-6.9s-2.1-7-6.1-7h-10.5s.1 42.4.1 42.4h-14.6l-.1-55.9h25c13.8 0 20.7 9.4 20.7 20.4 0 7.3-2.8 13.5-8.3 17.1l8.4 9.1 8.8 9.4z"/><path d="m215.4 24.9-11.2 36.6-11.2-36.6h-15.7l17 56h19.6l17-56z"/><path d="m255.5 38v7.4h12.7l7 13.3h-19.7v8.9h26.4v13.3l-40.6.1-.1-56.1 40.6-.1v13.3z"/><path d="m352.4 2.5-53.4 92.3c-.3.5-.1 1 .4 1.3.3.2.8.2 1.1-.1l73.2-58c.4-.3.5-.8.2-1.2l-19.9-34.3c-.3-.5-.8-.6-1.3-.4-.2.1-.3.2-.4.4z"/><path d="m408.5 96.5-27.6-47.6c-.3-.5-.9-.6-1.3-.4 0 0-.1 0-.1.1l-28.2 22.3c-.4.3-.5.9-.2 1.3.1.1.2.2.4.3l55.8 25.4c.5.2 1.1 0 1.3-.5.1-.3.1-.6-.1-.9z"/><path d="m450.1 24.6h-25.2v56.2h14.6v-42.5h10.5c4 0 6.1 3.4 6.1 7.1s-2.1 6.9-6.1 6.9h-5.2v13.4h5.2c13.8-.2 20.8-9.1 20.8-20.6s-6.9-20.5-20.8-20.5z"/><path d="m517.6 80.8-40.3.1-.1-56h15l.1 42.1h25.3v.4z"/><path d="m555 24h3l32.7 56.8h-15l-5.3-9.3h-21.4l7.6-13.5h5.7l-6-10.3-18.7 33.1h-15.3z"/><path d="m629.3 24.8v13.3h-.5-16.3l.1 42.7h-13.6l-.1-42.7h-15.2-1.6v-13.3z"/><path d="m651.4 38v7.4h12.7l7 13.3h-19.7v8.9h26.4v13.3l-40.6.1-.1-56.2 40.6-.1v13.3z"/></g></svg>