<svg viewBox="0 0 768 100" xmlns:xlink="http://www.w3.org/1999/xlink" xmlns="http://www.w3.org/2000/svg"><g id="figure"><path id="a" d="m37.6 26.1h-3l-32.6 54.6h15l5.3-9h21.3l-7.6-13h-5.7l6-9.9 18.7 31.8h15.2z"/><path d="m90.1 26.1v41.5h26.1v13.1h-41.5v-54.6z"/><path id="b" d="m149.5 26.1h-25.8v54.6h15v-41.9h10.8c4.1 0 6.4 3.3 6.4 6.7s-2.1 6.5-6.4 6.5h-5.3v12.7h5.3c14.3-.2 21.4-8.6 21.4-19.5 0-10.3-7.1-19.3-21.4-19.3"/><path id="c" d="m213.4 80.7v-20.7h-19.6v20.7h-15.5v-54.6h15.5v20.8h19.6v-20.8h15.2v54.6z"/><use xlink:href="#a" transform="matrix(-1 0 0 1 302.4 0)"/><path d="m318.2 92.4c-.6.9.8 1.8 1.4 1.2l71.3-56.5c.3-.3.4-1 .2-1.2l-19.4-33.4c-.5-.7-1.2-.7-1.6 0z"/><path d="m399.4 50.1c-.3-.6-1-.7-1.4-.3l-27.4 21.9c-.5.5-.5 1.3.2 1.7l54.2 24.6c.7.3 1.7-.8 1.2-1.4z"/><path d="m493.9 73.5c-6 5.9-13.3 8.3-21.4 8.3-20.8 0-29.1-13.1-29.1-27.5 0-13.6 9.1-28.2 29.1-28.2 7.7 0 14.6 2.6 20.7 8.4l-9.3 9.1c-3.8-3.6-7.7-4.6-11.4-4.6-10.3 0-14.3 8.4-14.3 15.3s3.8 14.8 14.3 14.8c3.6 0 8.8-1.5 12.6-5.3z"/><use xlink:href="#c" transform="translate(322)"/><use xlink:href="#a" transform="translate(550.9)"/><path d="m669.4 48.1-13.9 16.6h-2.8l-13.6-16.5v32.5h-15.3v-54.6h16.2l14.3 18.5 14.3-18.5h16v54.6h-15.2z"/><use xlink:href="#b" transform="translate(572.7)"/><path d="m758.6 33.1c-4.1 0-7.3-3.2-7.3-7.2s3.2-7 7.3-7 7.3 3.2 7.3 7c0 4-3.2 7.2-7.3 7.2zm.1-1.5c3 0 5.4-2.5 5.4-5.6 0-3.2-2.3-5.7-5.4-5.7-3.2 0-5.4 2.5-5.5 5.6s2.3 5.6 5.5 5.6zm-1.1-1.9h-1.6v-7c.7-.1 1.6-.3 2.8-.3 1.3 0 2 .3 2.5.5.4.3.7.9.7 1.6 0 .8-.7 1.3-1.5 1.6v.1c.7.3 1.1.8 1.3 1.7.3 1.1.4 1.5.5 1.7h-1.7c-.3-.3-.4-.9-.5-1.7s-.5-1.1-1.5-1.1h-.8zm0-4h.8c.9 0 1.6-.3 1.6-1.1 0-.7-.5-1.1-1.5-1.1-.4 0-.8 0-.9.1z"/></g></svg>