<svg viewBox="0 0 239 100" xmlns="http://www.w3.org/2000/svg" xmlns:xlink="http://www.w3.org/1999/xlink"><g id="figure"><g transform="scale(.1)"><path d="m2278.8 671.7v181.1c-489.5-159.3-831.8-184.2-1098.8-191.3-151.7-4-525.4 3.6-986.9 141.8v-623.2l41.2 13v-101.9l-214.3-71.2v110.2l49.2 15.2v696.2l-49.2 15.9v94c401.7-140.3 780.9-205 1160-205 358.1 0 759.6 63.4 1189.8 232.4v-287.3c-30.2-7.2-41.4-9.3-91-19.9z"/><path d="m348.2 247.3c0-15.9 18.1-23.3 35.1-20.9 19.2 2.7 36.1 15.1 36.1 36.9v311.2c0 20-19.1 30-36.1 30-18.1 0-35.1-10.8-35.1-32.9zm102.6 446.1c36.6-7.2 62.2-42 62.2-98v-332.1c0-59.8-31.7-111.3-70.2-121.1l-97.9-25c-31-7.9-84.2 16.8-84.2 80.4v439c0 39.1 20.1 90.1 81.2 78.1z"/><path d="m730.6 646.4c26-3.3 129-10.8 144.9-11.9v-80.3l-28.2-1.1v-257.7l25 4v-89.3c-17-2.2-103.5-12.4-125.1-15.2v91.1c9.3-.3 18.6.5 27.9 1.1l2.1 232.1c-27.9-110.3-54.5-220.9-81.3-331.5-51-6.8-101.9-14.5-152.5-24.2v94l32.9 3.9v309.1l-32.9 4v99c46.4-7.4 93.1-12.9 139.5-20.2v-89l-30-2.1 1.1-232.1z"/><path d="m896.4 485.6-1 144.2 53.2-1.1v-19.8c6.3 4 40.8 19.9 76.9 16.9 58.2-4.9 73.4-52.1 73.9-98.8.4-43.7-16.5-90.2-61.2-120.6-53.9-36.6-81.4-52.9-66.3-94.9 7.9-22.1 72-38.1 61.6 41h58.9v-129.4h-56l-1.1 10.9c-20.3-9-42.2-16.2-64.5-16.3-66.4-.4-76.6 51.9-76.5 100.1.2 75.6 20.2 96.9 67.8 127.5 70.6 45.4 69.7 93.8 39.9 103.8-31 10.4-49.8-6.8-48-63.9h-57.6z"/><path d="m1225.1 310.2h44.1c27.1 0 25.7 9 26 39.1.7 64 3 120 0 158.3-2.1 27.1-14.1 36.9-28.9 36.9-8.5-.1-21.9.3-41.2 1zm-101.6 308.4 57.5 1h114.9c35.5 0 73.4-13.1 78.1-86.3 4.1-64-1.5-147.2-2.9-223.1-1.1-58.2-33-83.1-81.7-83.1h-165.2v81h31.1l1.1 237.1h-32.9z"/><path d="m1498.3 445.4 28.9-125.4 28.9 127.2c-19.3-.3-38.5-1.1-57.8-1.8zm53.2 198c73.6 9.4 113.1 17.7 141.6 20l-1.1-88.2-26.5-3.4-50.1-287.9 28.9-2.9-2.1-88.2c-45.2 8-191.2 22-205.3 23.1v78.1l31-2.2-60 256.3-18 1.1v76.9c70.4 4.6 89.4 7.2 116 9.8l1.1-78.1-32.2-1.1 8.3-46.9c28.7 1.4 57.4 2.8 86.1 4.3l10.1 49.2-27.9-1.1z"/><path d="m1702.2 275.2 28.9-4 2.9 312.3-28.9-2.2 1 84.2c77.7 10 153.9 29 230.3 45.9v-216.1l-70.1-5.1 2.1 116.1-45.2-6.9v-340.1l36.2-5.1 1.1-100.1c-66.9 17.5-110.6 24-158.3 29.3z"/><path d="m1987.3 632.6-32.1-2.8v88.2c96.6 16.3 188.7 51.3 282.3 79.1l2.1-214.3-88.2-10.9v97.3l-66.1-10.9 1.1-189 65-2.2v67.2l88.2 12-1.1-252.3-87.1 9v70.1l-66.8 2.2 1.1-167c22-4.7 44-8.7 66.1-13v69l89.3-11.9-2.2-200.2c-57.8 17.9-117 35.8-287.3 78v105.2l36.1-9v406.2z"/><path d="m777.6 845.9v134.1h95v-27.1h-63.8v-107z"/><path id="a" d="m950.2 957.6c-33.9 0-36.7-28.1-36.7-47.8 0-26.2 8.7-48.2 36.7-48 26.2.1 35.6 21.9 35.6 48 0 19.2-1.5 47.8-35.6 47.8zm-63.5-47.8c0 57.8 37.1 70.2 63.5 70.2 26.5 0 62.3-12.3 62.3-70.2 0-38.9-21.5-70-62.3-70-38.6 0-63.5 26.5-63.5 70z"/><path id="b" d="m1037.8 845.9v134.1l26.1-2.2v-88.9c18 29.6 35.9 59.3 53.8 88.9l28.2 2.2v-134.1h-27.1v87.8c-16.8-29.4-33.9-58.6-51-87.8z"/><path d="m1214.9 956.9h-15.1v-90h15.1c32.6 0 44.1 12.4 44.1 45.1 0 30.2-4.6 44.9-44.1 44.9zm12.3-111h-54.2v134.1h54.2c29.1 0 58.2-13.6 58.2-68-.9-41.8-15.8-66.1-58.2-66.1z"/><use transform="translate(418.1)" xlink:href="#a"/><use transform="translate(415.5)" xlink:href="#b"/><path d="m2264 604.5v13h14.1v39h14.9v-39h14.1v-13z"/><path d="m2311 604.5v52h14.1v-39l9.8 39h12.3l9.7-39v39h13.1v-52h-21l-8 32.1-7.9-32.1z"/></g></g></svg>