<svg viewBox="0 0 798 100" xmlns="http://www.w3.org/2000/svg"><g id="figure" fill="#fff"><path d="m405.9 2.1h51.4l40.8 53.9 22.4-53.9h47.4l-40.6 95.9h-51.8l-40-53.8-22.8 53.8h-47.5z"/><path d="m552 98 40.6-96h46.9l-40.7 96z"/><path d="m783 76.1c1.4 0 2.4.1 3 .4 1.2.5 1.7 1.4 1.7 2.8 0 1-.4 1.7-1.1 2.2-.4.3-.9.4-1.6.5.9.1 1.5.5 1.9 1.1s.6 1.1.6 1.7v.8.8c0 .3.1.5.1.6l.1.1h-1.8v-.1-.1l-.1-.4v-.9c0-1.3-.3-2.1-1.1-2.6-.4-.2-1.1-.3-2.2-.4h-1.5v4.4h-2v-11.2h3.9m2.1 1.8c-.5-.3-1.3-.4-2.4-.4h-1.7v4h1.8c.8 0 1.5-.1 1.9-.2.8-.3 1.1-.9 1.2-1.7 0-.8-.3-1.3-.7-1.6zm5.3 11.1c-2 2-4.4 3-7.2 3s-5.2-1-7.2-3-2.9-4.4-2.9-7.2 1-5.2 3-7.2 4.3-2.9 7.2-3c2.8 0 5.2 1 7.2 3s3 4.3 3 7.2c0 2.8-1 5.2-3 7.2zm-13.4-13.4c-1.7 1.7-2.5 3.8-2.5 6.2s.8 4.5 2.5 6.2 3.8 2.6 6.2 2.6 4.5-.9 6.2-2.6 2.5-3.8 2.5-6.2-.8-4.5-2.5-6.2-3.8-2.6-6.2-2.6-4.5.9-6.2 2.6z"/><path d="m769.2 64.8h-85.5l12.4-29.3h85.4l14.2-33.5s-58.7.1-94.1.1c-35.3 0-44.9 14.2-53.2 33.5 0 .1-7 16.6-12.3 29.1-11.1 26.2 3.1 33.3 12.6 33.3h106.2z"/><path d="m167.2 2.1c-16.5 0-124.5 0-124.5 0l-40.6 95.8h124.5c39.5 0 40.8-17 47.7-33.3 11.7-27.5 12.3-28.8 12.7-29.6 10.2-23.4-3.3-32.9-19.8-32.9zm-41.7 62.8h-62.1l12.5-29.2h62.1z"/><path d="m348.8 2.1c-16.5 0-50.2 0-85.6 0-35.3 0-44.9 14.2-53.2 33.5 0 .1-7 16.6-12.3 29.1-11.1 26.2 3.1 33.3 12.6 33.3h97.9c39.5 0 40.8-17 47.7-33.3 11.7-27.5 12.3-28.8 12.6-29.7 10.3-23.4-3.3-32.9-19.8-32.9zm-41.7 62.8h-62l12.5-29.2h62.1z"/></g></svg>