<svg viewBox="0 0 499 100" xmlns="http://www.w3.org/2000/svg" xmlns:xlink="http://www.w3.org/1999/xlink"><defs><path id="p1" d="m148.2 44.4c-1.2-.8-62.3-40-63.4-40.7-1-.6-3.6-1.7-7.8-1.7s-6.8.8-8.3 1.7c-4.7 2.9-62.1 39.9-63.3 40.7s-3.4 2.6-3.4 5.6 2.1 4.8 3.4 5.6c1.2.8 58.6 37.8 63.3 40.7 1.5.9 4.1 1.7 8.3 1.7s6.7-1.1 7.8-1.7c1.1-.7 62.2-39.9 63.4-40.7s3.3-2.7 3.3-5.6c-.1-3-2.1-4.8-3.3-5.6z"/><g id="p2"><path d="m144.1 94.7c3.3 2.1 8 3.3 12.5 3.3 7.7 0 17-4.2 20.3-12.8 2.3-6.1-.5-9-5.6-10.3l-2.7-.6c-.9-.2-2.5-.4-1.9-1.8s2.4-1.9 3.5-1.9c2.8 0 4.8 1.2 6.5 2.7l7-9.1c-2.7-2.1-6.1-3.1-10.2-3.1-7.8 0-17.3 4.8-20.5 13.2-2.1 5.6 1 8.6 5.7 9.5l2.5.4c1.1.2 2.7.4 2.1 2s-2.8 2.2-4.1 2.2c-3 0-5.3-1.5-6.9-3.3l-.4-.6z"/><path d="m213.6 62.5c-2.4-1-5.3-1.4-8.2-1.4-10.5 0-21.9 8.4-25.8 18.8-3.9 10.2 1.2 18.1 11.4 18.1 2.3 0 7.2-.4 9.7-1.4l5.5-13.4c-2.9 2.1-5.8 3.3-8.7 3.3-3.9 0-6.1-3-4.6-7 1.4-3.9 5.8-7 9.7-7 2.9 0 4.9 1.7 6.3 3.6z"/><path d="m216.5 61.6-13.6 35.8h12.6l4.7-12.5h7.9l-4.7 12.5h12.6l13.5-35.8h-12.5l-4.6 12h-7.9l4.5-12z"/><path d="m252.6 61.6-13.5 35.8h13.1l13.5-35.8z"/><path d="m268.4 61.6-13.5 35.8h22.7l4.4-11.5h-9.8l9.2-24.3z"/><path d="m280 97.4h16.4c10.5 0 20.5-6.7 24.6-17.3 4.9-13.1-2.2-18.5-14.2-18.5h-13.2zm22.2-24.6h.8c4.8 0 6.9 2.2 5 7.2-1.8 4.7-5.9 6.7-10.2 6.7h-.8z"/><path d="m315.5 97.4h12.6l5.4-15h.3c-.2 1.4.5 2.7.7 4.1l2 10.9h15.2l-5.4-18.4 17.8-17.5h-14.3l-10.6 11.5c-1.2 1.3-2.5 2.6-3.4 4.1h-.3l6.1-15.6h-12.6z"/><path d="m352.3 97.4h12.7l4.4-11.4h.2l1.4 11.4h15.1l-3.5-11.6c-.3-1-.8-1.5-1.3-2.1l.1-.3c5.5-1.6 8.4-4 10.4-9.4 3.4-9-2.2-12.4-10.2-12.4h-15.8zm22.5-26h1.1c2.2 0 4 .3 3 3.1-1 2.6-3.3 2.9-5.4 3h-.9z"/><path d="m415.1 52.6c-2.1 0-4.6 1.8-5.4 4-.8 2.1.3 4 2.5 4 2.1 0 4.6-1.8 5.4-4s-.3-4-2.5-4zm11.6 0c-2.2 0-4.7 1.8-5.5 4-.8 2.1.3 4 2.5 4s4.6-1.8 5.4-4-.2-4-2.4-4zm-9.1 8.5c-10.9 0-22.6 7.3-26.8 18.5-4.3 11.5 2 18.4 12.9 18.4s22.3-6.9 26.7-18.4c4.2-11.2-1.9-18.5-12.8-18.5zm-4.5 11.7c4.1 0 5.5 3.3 4.1 7.1-1.6 4.1-5.3 6.8-9.3 6.8-3.9 0-5.6-2.7-4.1-6.8 1.4-3.8 5.2-7.1 9.3-7.1z"/><path d="m437.2 61.6-4.3 11.6 7.3-.3-9.3 24.5h13l9.3-24.5 7 .3 4.4-11.6z"/></g><g id="p3"><path d="m210 50.4h-50.1l18.2-47.6h47.6c10.9 0 13.8 10.1 12.3 14.5-1.7 5.2-5.8 15-8.7 21-2.9 5.9-7 12.1-19.3 12.1zm-22.4-18.1h22.3l4.5-11.4h-22.3z"/><path d="m284 50.4h-38.2c-12.1 0-11.5-7.6-9.4-13.3l7.4-20.6c1.6-4.1 6.6-13.7 19.4-13.7h36.4c6.7 0 15.4 1.7 12.7 10l-8.7 24.1c-1.5 4.1-6.6 13.5-19.6 13.5zm-23.9-18.1h23.8l3.7-11.4h-23.6z"/><path d="m374.7 50.4h-23l-14.8-24-9 24h-21.5l17.4-47.6h21.5l17 25.5 9.5-25.4h20.5z"/><path d="m404.1 50.4h-21.8l17.2-47.6h21.5z"/><path d="m467.3 50.4h-44.9c-8.9 0-9.7-7.5-6.4-15.3l7.1-17.6c2.8-7.3 10-14.7 19.6-14.7h41.8l-7 18h-33.8l-4.5 11.4h34.2z"/><path d="m485.9 9.2c0 2.9 2.3 5.1 5.2 5.1s5.1-2.2 5.1-5.1-2.2-5.2-5.1-5.2-5.2 2.3-5.2 5.2zm5.2 5.9c-3.7 0-6-2.9-6-5.9 0-3.3 2.7-6 6-6 3.5 0 5.9 2.8 5.9 6 0 3.3-2.6 5.9-5.9 5.9zm-.4-8.5h-.9v2.4h1c.5 0 .8-.1 1.1-.2 1-.5.8-1.6.4-1.9s-.9-.3-1.6-.3zm.2-.8c1.3 0 2.8.1 2.8 1.9 0 1.1-.6 1.4-1.5 1.6 1.2.2 1.5 1.4 1.5 1.7v1c0 .2 0 .3.1.4h-1.1v-.9c0-1.7-1-1.7-1.9-1.7h-.9v2.6h-1.2v-6.6z"/></g><g id="p4"><path d="m33.3 39.4c-2.2 0-3.9.8-5.5 2.2-.8.9-2.5 3.5-2.3 4.4.2 1.1 1.5 1.4 2.6 1.8s2.3 1.1 5.1 1.1 3.8-.4 3.8-.4c-5.1 3.3-7.1 3.1-7.1 3.6 0 .2.5.4.8.6.4.2 2.9.8 4.2.8 1.2.1 1.8-.2 3.8-.4s4.5.1 5.7.3 2.9 1.3 3.8 1.9c.8.7 1.3 1.6 1.8 1.4.5-.1 1.4-1 2.5-2 1-1 2.2-1.7 2.2-2.2.1-.4-1.4-2.5-3.4-4.7s-3.2-3-3.5-3.2-.5-.2-.9-.2c-.5 0-2.2 0-3.1-.2-.8-.2-.7.2-3.2-1.5-2.5-1.6-3.7-2.4-4.8-2.8-.7-.3-1.4-.5-2.5-.5zm-.8 3.1c0 .6-.5 1.1-1.1 1.1s-1.1-.5-1.1-1.1.5-1.1 1-1.1c.6 0 1.1.5 1.1 1.1z"/><path d="m48.7 57.9c-1 .2-2.6 1-4.1 2.2s-1.8 3.4-1.7 3.9.1 1 .3 1.6.7.7 1.3.9 2.5.2 3.2 0 .7-.6.5-1c-.1-.2-1.2-3.4-.2-5.4.6-1.3.9-1.6 1-1.7s.7-.7-.3-.5z"/><path d="m60.4 60.7c.4-.2.4-.7 0-1.1-1.5-1.6-3-3.2-4.2-5-.2-.3-.4-.4-.9-.1-.6.3-1.7.9-3.5 3-1.9 2.1-1.9 3.4-1.8 3.7.2 1.1 1.2 3.3 1.6 3.9s1.1 1.4 1.7 1.4c1.9 0 3.7.1 5.6 0 .7-.1.8-.6.2-1.2-.5-.6-1.3-1.5-1.3-1.8 0-.6 1.7-2.2 2.6-2.8z"/><path d="m109.9 47.6c-.2.2-6.4 4.7-12.9 8.3-7.9 4.3-14.2 6.1-21.9 4.9-6.9-1.1-10.6-5-13.8-8.5-3.3-3.5-4.4-5.6-7.3-8.6s-3.7-3.5-4.2-3.7-.7-.3-1.4-.4c-1.5-.2-2.1 1.2-2 1.5s.9 1.1 1.2 1.3 2.5.3 7.8 7.5 10.5 12 14.3 13.9c7.8 4.1 17.9.5 20.8-.7 7.5-3 12.9-7.5 16-10.2 3.2-2.7 4.4-4 4.6-4.3.1-.2-.3-1.6-1.2-1z"/><path d="m100.8 62.1c0 .7-.8 2.4-1 2.8-.2.3-1 .8-.6 1.2.3.4 2.1.6 2.6.6s1.7 0 1.9-.1.8-.7 1.1-1 .6-1.3.6-1.6-.9-1.2-1.4-1.5c-.5-.4-1.7-1.3-2.5-1.6s-.7.5-.7 1.2z"/><path d="m106.7 66.1c.3.5 1.9.5 3.1.5s2.5-.2 3.1-.5c.2-.2 1.9-2.9 1.7-4s-.6-1.6-2.6-4.3c-1.9-2.7-3-3.8-3.2-3.9s-.6-.1-.8.1-4.3 3.5-4.5 3.7-.2.6 0 .8c.2.3 3 3.8 3.5 4.5.4.7.5 1.1.2 1.6-.2.5-.7 1.3-.5 1.5z"/><path d="m117.3 49.1c-.2 0-1.6-.2-2.2-.2-.2 0-1.5 0-1.7.2-1.2.7-2.2 1.8-3.1 2.8-.2.2-.3.4-.1.6s.8.4 2.2.4 2.5-.8 3.4-1.4c.9-.7 1.4-1.2 1.7-1.7.3-.3.1-.7-.2-.7z"/><path d="m52.2 35.3c-.4.3-1.7 1.5-2 1.8s-.4 1.1-.2 1.2c1.5.9 2.8 2.3 4.3 3.1.6-.1 3.3-2 3.1-3.5-.2-.9-3.4-3.1-4-3.1-.5 0-.8.2-1.2.5z"/><path d="m59.4 40c-.6-.6-1.3-.2-1.8.2-.4.3-1.6 1.5-1.8 1.8s-.2 1 0 1.3c1.2 1.2 2.2 2.7 3.3 4 .3.2.6.3 1.2 0s1.9-2.3 2.2-2.9c.2-.7.1-1-.2-1.4s-2.6-2.7-2.9-3z"/><path d="m66.5 54.8c.3.2.6.1 1.1-.1.7-.5 2.2-3.7 2.5-5 .2-.7.1-.9-.2-1.2-.2-.3-5.2-3.8-5.8-3.8-.6.1-1.9 1.5-3 3.3-.2.4-.2.9 0 1.4.7 1.4 4.8 5.2 5.4 5.4z"/><path d="m71.1 57.8c1.1.6 2.9 1.1 3.9 1.3s2.2.4 2.9 0c1.3-.9 1.6-6.6 1.5-7.2-.1-.5-.3-.6-.8-.8-1.8-.3-6-1.5-6.3-1.5-.3.1-.6.3-.8.6-.6 1-1.1 2.9-2.3 4.8-.3.7 0 1.2.2 1.5.2.4.6.8 1.7 1.3z"/><path d="m87.3 58.4c.4-.2.7-.7.7-1.8-.1-1.1-.1-3.6-.3-4.6s-.7-1.1-1.3-1.1-2.2.2-3.6.3-1.6.3-1.8.6-.3.8-.5 1.8c-.1 1.7-.6 3.4-.4 5.1.2.4.2.5.6.6 1.6.3 5-.2 6.6-.9z"/><path d="m95.1 49.3c-.4-.4-.6-.3-1.3-.2-.7.2-3.5.9-4.2 1.3s-.7.9-.6 2.9.1 2.4.3 3.1.7 1.1 1.8.8c1-.3 4.4-1.8 5-2.3.7-.6.5-1 .3-1.8s-.9-3.3-1.3-3.8z"/><path d="m103 50.9c.2-.3.3-.9.1-1.6s-1.3-2.5-1.7-2.8-.6-.2-1-.1c-1.3.5-2.5 1-3.6 1.8-.4.6-.4 1.1-.3 1.6s1.1 3.1 1.3 3.4c.2.2.8.4 1.1.3.5-.1 2.8-1.3 4.1-2.6z"/><path d="m104.8 43.8c-.5.3-1.5 1.1-1.8 1.5-.3.3-.3.6-.1 1.1s1.2 2.3 1.5 2.5.6.4 1.1.2c.4-.2 2.1-1.7 2.3-1.9s.7-.8.3-1.8c-.4-1.1-1.6-2.1-2-2.1s-.8.2-1.3.5z"/><path d="m66.8 26.4c-.4-.2-.8-.3-1.6 0s-9.4 5.8-9.7 6.3c-.3.6-.3.8-.1 1.5.2.6 2.6 2.5 3.1 2.9.5.5 1.4.6 2.1 0s7.4-6.9 7.7-7.6.4-1.2.1-1.5c-.2-.3-1.1-1.4-1.6-1.6z"/><path d="m69.3 30c-.6.4-2 1.8-4.2 4.3-2.1 2.5-3.6 3.3-3.9 3.8s-.5.7 0 1.6c.4 1 3.3 3.6 4 4s.8.3 1.5-.1 7-9.4 7.2-10 .3-1.2-.1-1.5c-.5-.2-2.8-2.1-3.2-2.2s-.8-.3-1.3.1z"/><path d="m75.9 33.5c-.6.1-.7.2-1.3.8s-6.3 8.9-6.7 9.6-.4 1.3 0 1.8 4.8 3 6.4 3.2 2.1 0 2.5-.7 2.9-10.4 3.1-11.3c.2-1 .2-1.4-.2-1.8s-3.1-1.7-3.8-1.6z"/><path d="m84 35.3c-1.7-.1-2.4.1-2.8.9s-3 10.8-3 11.9 1 1.7 1.7 1.9 6.3-.1 7-.3 1.3-.5 1.5-1.2-1.1-12.2-1.5-12.7c-.4-.6-1.1-.4-2.9-.5z"/><path d="m94 34.6c-.4-.2-2-.2-3 0s-1.3.3-2 .7-.5.5-.6 1.6 1.1 9.9 1.3 10.5c.2.5.5 1.5 1.8 1.3s5.7-2 6.4-2.5c.7-.6.5-1.4.3-2-1.6-3.1-2.3-6.7-4.2-9.6z"/><path d="m100.5 33.9c-1.1-1.3-1.5-1.3-1.9-1.3-1.1.1-2.1.6-2.9 1.3-.3.3-.4.8-.2 1.2s2.9 6.2 3.1 6.9c.3 1 .8 2.1 1.2 2.4.3.4 1 .4 1.8.2.8-.3 3.2-1.9 3.6-2.4s.2-1.2-.2-2c-.5-.8-3.4-5-4.5-6.3z"/><path d="m78.4 23.2c-.4-.2-2.3-.1-5.6.6-3.4.7-4.5 1.4-4.3 2s.5.9 1 1.4 3.5 3 3.9 3.2 1.2.2 1.6-.2 3.5-4.7 4.2-5.6c.5-1-.4-1.2-.8-1.4z"/><path d="m85.7 24.1c-.6-.2-.7-.2-2-.4-1.2-.2-2.7-.2-3.2.2s-4.4 6.1-4.6 6.6-.2.9.2 1.3c.3.4 2.1 1.4 5 2.1s4.8.5 5.7.3c.7-.2 1-.5 1.1-1.1 0-.7-.9-7.2-1.1-7.8s-.5-1-1.1-1.2z"/><path d="m96.7 29.7c-.7-.7-3.9-3-5.6-3.8s-2.6-1-2.9-.8-.3.9-.2 1.6.7 3.6.9 4.8.1 1.5.8 2 1.5.2 4.6-.6 3.4-1.2 3.5-1.7c0-.5-.3-.8-1.1-1.5z"/><path d="m89.8 73c-1.6 0-2.7 1.2-2.7 2.6 0 1.5 1 2.3 2.2 2.3.7 0 1.2-.2 1.5-.5-.2 1.2-1.5 1.7-2.3 1.7h-.7v1.3h.7c1.1 0 2.1-.2 2.8-.9s1.2-1.9 1.2-3.4c0-1.7-.8-3.1-2.7-3.1zm-6 .1c-1.5 0-2.5.8-2.5 2 0 .7.2 1.3.9 1.6-.8.3-1.3.9-1.3 1.8 0 1 .9 2 2.7 2 1.7 0 2.8-.9 2.8-2.2 0-.9-.6-1.6-1.3-1.8.7-.3 1.1-.8 1.1-1.5 0-.9-.7-1.9-2.4-1.9zm-6.5.1-1.9.9.3 1.3 1.4-.7v5.7h1.6v-7.2zm20.1 0c-1.1.1-2.1.4-2.8 1.1-.8.7-1.3 1.8-1.3 3.2 0 1.7.9 3.1 2.9 3.1 1.6 0 2.6-1.2 2.6-2.6 0-1.6-1-2.4-2.2-2.4-.7 0-1.2.3-1.5.6.2-.8.7-1.7 2.3-1.7h.7v-1.3zm-29.5.3-1.6.5v1h-.7v1.2h.7v2.2c0 1.7 1 2.1 1.8 2.1.4 0 .9-.1 1.1-.2l-.1-1.3c-.8.2-1.2-.1-1.2-.9v-1.9h1.2v-1.2h-1.2zm15.8.7c.7 0 .9.4.9.9 0 .4-.3.8-.7.9-.6-.2-1.1-.5-1.1-1 0-.4.3-.8.9-.8zm7.1 1.6c0 .7-.8.9-1.1.9-.7 0-.9-.5-.9-1.2s.4-1.2 1.1-1.2.9.8.9 1.5zm-32.9-.9c-1.9 0-2.7 1.4-2.7 2.8 0 1.7 1 2.8 2.8 2.8.7 0 1.4-.1 2-.3l-.2-1.2c-.4.2-.9.3-1.5.3-.8 0-1.6-.4-1.6-1.1h3.5c.1-.1.1-.3.1-.6 0-1.3-.7-2.7-2.4-2.7zm5.4 0c-1.3 0-2.2.8-2.2 1.8 0 .7.4 1.2 1.5 1.6.7.2.8.4.9.6 0 .2-.2.4-.7.4s-1.2-.2-1.5-.4l-.3 1.2c.4.2 1 .4 1.7.4 1.6 0 2.4-.8 2.4-1.8 0-.7-.4-1.3-1.5-1.6-.7-.2-.9-.5-.9-.7s.3-.4.7-.4.9.1 1.1.3l.3-1.1c-.4-.2-.8-.3-1.5-.3zm-5.6 1.1c.8 0 1 .7.9 1.1h-1.9c.1-.4.3-1.1 1-1.1zm39.4 2c0 .7-.4 1.3-1 1.3-.8 0-1.1-.7-1.1-1.5 0-.2.1-1 1.1-1 .6 0 1 .5 1 1.2zm-13.6-.8c.7.2 1.2.6 1.2 1.3 0 .5-.4.8-1 .8s-1-.4-1.1-1c0-.5.3-.9.9-1.1zm-12.6 1.3c-.6 0-1 .4-1 1s.4 1 1 1 1-.4 1-1c0-.7-.4-1-1-1z"/></g><g id="p5"><path d="m163.2 48.2h46.8c11.1 0 14.6-5.3 17.3-10.9 2.9-6 7-15.6 8.6-20.7.9-2.9-.8-11.6-10.2-11.6h-46zm48.3-13.6h-27.2l6.3-16h27.2z"/><path d="m263.2 5c-11 0-15.6 7.7-17.3 12.4l-7.3 20.5c-2.7 7.7.1 10.3 7.3 10.3h38.2c11.6 0 16.2-8.5 17.6-12.1l8.7-23.9c.8-2.4-.7-7.2-10.6-7.2zm22.3 29.6h-28.6l5.5-16h28.3z"/><path d="m352.9 48.2h20.2l16-43.1h-15.7l-10.6 28-18.8-28.1h-18.7l-15.7 43.2h16.7l10-26.9z"/><path d="m385.5 48.2h17l15.3-43.2h-16.7z"/><path d="m442.7 5c-8.6 0-15.1 6.8-17.6 13.4l-7 17.7c-1.6 3.7-4.3 12.1 4.3 12.1h43.3l4.7-13.6h-34.3l6.2-16h33.8l5.2-13.6z"/></g><mask id="m1"><path d="m1.9 1.9v96.2h149.7v-96.2z" fill="#fff"/><use xlink:href="#p4"/></mask><mask id="m2"><path d="m1.9 1.9v96.2h498.9v-96.2z" fill="#fff"/><use xlink:href="#p5"/></mask></defs><g id="figure" fill="#fff"><use xlink:href="#p1" mask="url(#m1)"/><use xlink:href="#p2"/><use xlink:href="#p3" mask="url(#m2)"/></g></svg>