<svg viewBox="0 0 499 100" xmlns="http://www.w3.org/2000/svg" xmlns:xlink="http://www.w3.org/1999/xlink"><mask id="a"><path d="m247 61v879h867v-879z" fill="#fff"/><path id="b" d="m316.2 456.7c-.3 1-.2 1.3-.1 2.6 0 0-2.8-2.8-6.3-7.7-3.5-4.8-7.3-21.9-7.3-24.2 0-2.4 1.4-8.9 1.7-11.5.3-2.7 5.1-7.7 6-8.7s4 .7 5.1-.4c1.2-1.1 5-5.9 6.2-6.3 8.8-4.2 20.3-2 23.7-1.7 17.9.4 18.4 11.7 18.4 11.7-1.3-1.6-3.2-2.6-5.1-1.9-1.1 2.1-2.1 2.9-2.2 4.1-.4 2.3 7.6 11.6 7.7 13.6.2 1.5-3.2 2.5-3 3.7s5.4 6.7 5.4 6.7 7.7.9 8.7-.5c1-1.3-1.4-.7-.1-4.2s11.2-12.9 12.1-15.8c1.6-11.1 9.2-20.3 12.6-26.2 3.4-6 14-23.9 13.6-25.5-.4-1.5-.3-2.3.2-4.2.4-2 1.8-1.4 2.8-3.7s-2.1-16.7-1.5-19.2c.6-2.4 1.8-1.2 2.3-3.6s-1-4.7 0-6.7c1-1.9 5.1-6.1 6.6-7.2 1.6-1.1 4.5-2.7 4.5-1.4-.1 2.6-1.9 3.1-2.3 3.9-.3.7.5 2.3.1 3.7-.4 1.5-1.6 2.8-2 3.8-.4 1.2 1.8 6.3 1.1 7.4-.8 1.1 1.6.6 2.5-.7.9-1.4-.8-4.4.2-7.5 1-3 3.3-4.5 4-4.8s3.3.8 2.8 1.9c-.6 1-2.8 4.2-2.9 6.3s2.1 10.7.8 14.2c-1.2 3.5-5 9.1-5.6 10.7-.6 1.7-7.6 35.7-10.5 45.4-3 9.7-5.6 16.3-7.9 20.5-2.4 4.2-5.3 6.1-6.4 7.7-1 1.5-6.5 10.7-10.8 15.7-4.3 5.1-15.4 14.5-16.9 17s-.1 15.1.8 22.9c1 7.9 6.9 28.6 8.5 39 1.5 10.4.7 23.4-.2 33.1s-3.5 17.4-4.6 22.3c-1.2 5-1.3 10.4-1.3 10.4s2.7 1.1 4.1.4c1.5-.6-1 3.2.8 2.9 1.8-.4 13.9 7 8.4-.7-5.6-7.7 6.1-4.3 9.6-4.8s9.8-.3 12.4-2.4c2.5-2 7.3-4.1 8.7-3.9 1.5.2 3.3 4.4 4.4 4.4 1.2.1 6.9-4.2 9.4-4.8 2.5-.5 5.8 1.5 6.5 1.3.8-.2 4.1-1.6 5.2-2 1.2-.4 9-1.3 10.7-.7 1.8.7 10.1 7.9 10.5 9.5s.5 5.9.3 10-1.4 8.3-2.5 10.8c-6.7 12.4-16 28.1-16 28.1s-14.7 19.4-19.4 27.8c-9.7 17.2-12.5 23.3-14.5 28.4-.8 2.3-.7 8.2.2 9.5s11.5 9.7 13.2 11.1c1.8 1.4-.8 1.7.8 3.3 1.6 1.7 15.1 7.7 17.9 8.1s4.4-1.5 4.9-.2c1.2 3.1-1.6 3.2-3 4.5s.1 3.4-.9 4.3c-1.1.9-4.9 1-6 1.8s-.1 1.1-3.2 1.1c-3.2 0-15.5-6.3-19.6-7.4-4.1-1-10-4.6-14.2-3.8s-11.7.2-14.9.2-6.8-.4-8.6-2.2c-1.9-1.8 0-5.6 2.3-10.5 10.6-18.3 18.5-37.8 26-57.5.9-3 2.6-10.2 1.8-12.6-.7-2.4-28.1-.5-31.7 1.6s-7.8 3.9-11.9 4.4c-4.2.5-7.6-2.3-10.9-1.5s-6.8 2-11.6 2.1c-4.9.1-3.9-2.5-8.4-2.8-4.6-.3-26.1.7-29.6 2.5-3.5 1.9-5.9 3.2-8.1 4.4s-8 .5-10.6 1.7-11.5 12.5-13.6 16.8c-2.1 4.2-4.7-1.4-6.8-1.3s-5.7-.1-10.6-.4c-4.9-.4-13.5-5-15.5-4.5s-18 6.5-27.3 8.1c-9.4 1.6-18.4-1.6-18.4-1.6s-2-1.4-4.4-1c-2.5.4-7.5 2.1-12.4 2.9s-5.4 0-8-.4-15.9-3.7-18.5-3.8c-2.6 0-3.7.2-6.2.3-2.4 0-6.8 1.4-10.8 2.7s-10.1 1.2-12 1.5c-2.5-.8-3.7-1-5.1.2s-18.9 12.3-20.2 14.2c-1.3 1.8-4.6 2.1-6.4 3.9-1.7 1.8-4 2.8-6.3 1.9-2.2-.8-3-1.9-3.1-4-.1-2.2.7-4.1-.2-5s-1.4-1.5-1.3-3.3-.5-2.5 1.2-4.6c2.9-3.7 3.9-11.2 4.7-12.6 1.2-2 6.1-4.6 10.1-5.1 4.1-.5 13.9-1.6 16.5-2.7s3.2-2.4 4.9-2.5 6.1 4.7 8.3 4.3 3-1.3 5.3-1.8c2.2-.4 2.5 1 5.2.6 2.6-.4 18-7.3 24.9-9.5s16-5.9 20.1-6.2c4-.3 5.2 2.7 7.2 2.6 1.9-.1 4-.9 5.9-.2 1.8.6 4.2 4.6 6.3 4.2 2-.4 12.9-5.4 18.5-9.8s7.8-6.3 16.2-12.5 20.3-14.9 26.6-18.1c6.3-3.3 11.9-3.6 14.7-5.5s4.4-1.1 6.8-4.2c2.5-3.1 10-15.6 13.9-20.2 3.8-4.7 11.4-10 11.1-12.9-.4-2.9-.3-6.3-2.1-10.7-1.9-4.4-3.5-15-4.9-19.7-1.5-4.8-6.6-15.7-8-13.9-1.4 1.9-15.2-.7-17.5.1-2.2.9-3 .7-6.9.3-3.9-.3-7.5-7.6-8.6-11.9-1.1-4.4-2.3-9.8-2.2-13.9s0-7.7-.8-7.4c-.8.4-1.6-4.1-3.4-3.9-1.8.1-3.8 1.7-6 1.3-2.3-.4-3-1.8-1.8-2.5s5.1-3.3 6.8-4.5c1.7-1.3 3.1-1.2 1.5-3.1-1.5-1.8-4.8-2.8-6-4.3s-1.1-3.6-.3-4.2 1.1-.9 2-.1 5.5 1.9 6.2.7c.6-1.2-3-3.7-4.4-7.2-.9-2-1.6-4-.8-4.8.7-.7 3.6-.8 4 .3 1 2.4 3.5 4.9 4.2 5.5s1.9-.4 1.9-1.8c0-1.3-3.2-4.8-3.6-6.8-.4-1.8-.9-4 .2-5.2 1.1-1.1 2.5-1.7 3-.4.7 1.7 1.5 3 3.6 6.5 2.2 3.5 3 6.9 6.3 7.8 1.2.4 2 .4 3-.5 1-.8 2.3-.9 2.1-2.6s-.2-3.1.3-5.3 2.8-4.8 4.2-5.1c1.5-.3 4 .4 3.7 1.5-.3 1.2-2 7.1-2.1 9.5s-1.3 4.9-1 6.4c.2 1.5-.2 6.6-.4 7.7-.3 1.1.3 2.4-.7 3.8s-4.2 4.3-5 4.9c-.9.7-.8 3.6-.3 5.6.4 2 5.7 9.5 7.4 9.4s6.9-4.7 8.6-5c1.7-.2 1.7 1.2 3.7 1s2.6-1 3.4-1.9c.9-.9-4.4-1.2-4.8-2-.3-.7 4.6-4.1 5.5-4.7 1-.6 1.3-2.7 1.9-2.8.7-.1 8-4.5 9.8-6.1 1.8-1.7 4.8-5.9 5.4-6.8.6-1 1.7-1.6 2-3.3.3-1.8.8-7.2.6-9-.4-3.5-3.7-5-4.9-2.5z"/><path id="c" d="m487.8 717.6c-1.8-.2-6.4-.5-6 1.5.1.3 3.6 2 4.5 1.1s3.3-2.4 1.5-2.6zm161.7-408.6s9.7 15.8 10.5 22.8c.4 1.9 6.8 4 6.8 4s-1 5.2.1 5.4c.1 0 4.1-.9 8.2-4.9 0 0-3-6.7-5.9-7.3 2.5-4.8 2.4-3.5 5.2-9.3 0 0 5.2.1 6.5-.5s.3-3.1.3-3.1c-3 1.5-9.1-.4-6.4-1 2.8-.6.7-3.4 3.4-7 3.4-4.4 1.1-4.6 2.5-6.8 1.5-2.3 4.5-9.6 9.3-11.6 2.9-1.2 7.6-4.8 11.3-6.3 3.5-1.4 11.2.6 14.1.6s4.2 3.9 4.2 3.9l7.2 3.1s-3.7 2.8-3.6 1.3-2.3 3.9-2.3 3.9l3.9.8c1.5-1.1 2.5-2.5 3.8-3.8 3.5 3.7 7.3 7.2 11.1 10.7l-1.4 4.5s-.6 1-.2 2.5-2.1 2.6-2.3 3.9 1.7 8.1.7 10.3-4.6.9-4.2 3.3c.3 2.4 2.7 9.4 2.7 9.4s.5 1.3-.6 2-5.5.6-5.5.6c-1.3 2.6-3.2 5-4.8 7.5-.7.5-2.4 1.7-2.4 1.7s.2 1.6-.2 3c-.5 1.4-3.9 5.3-6.8 5.8-2.9.6-10.2-5.8-12.1-4.8s-7.1 6.5-6.6 9.3 12.8 11.3 12.8 11.3-4.3.1-3.8 1.2c.4 1 .6 2.4 2.5 3.6s6.8-.3 9.9.8 8.9 4 12.5 9.3c3.7 5.3 10.8 21.8 11.5 23.4s10 8.6 17.7 16.6 19.2 21.1 19.2 21.1-5.6-.1-5.7 1c-.2 1.1-.7 2.4-.7 2.4s2.1 2 4.6 2.4c2.5.3 5.3 0 8.9.7 2.2 1.2 4 2.8 4 2.8s5.7-.1 8.9 1.2 14.2 11.1 17.9 13.7 17.2 8.4 18.6 10.8c-.6 1.8 1.6 3.6 1.6 3.6l8.3 2.6s4.1 1.8 5.9 3.4c1.8 1.7 9.5 6.2 9.5 6.2s2.1.6.6-1.4-11-7.4-11-7.4 5.1 1.8 6.1 2c1 .1 1.6-.3 3.9.9s4.5 4.1 6.6 6.4 6.3 3.1 7.1 6.9c.7 3.8.4 5.4.6 5-1.4 4.9-1.9 2.2-2.6 3.2s-.2 7.2-2 8.1c-1.9.9-3.3-.3-3.3-.3s1.2 1.7.3 3c-.9 1.2-1.3 2.2-3 1.7-1.7-.6-8.7-10.2-9.9-12-1.5-1.5-2.2-1.4-1.6 1.3 1.9 2.1 3.3 4.2 3.9 6.6.6 2.5.5 3.6-.6 5.4-.8 1.2-2 2.2-3.7-.8-.6-1.1-2.2-3.3-3.4-5.6-1.4-2.6-3.3-6.8-4.9-7.5-1.7-.8-11.4-9.2-13.3-11.8-1.9-2.7-.6-4-3.8-6.2-2.7-1.9-7.7-2-13.6-3.7s-24.5-8.6-33.3-13.8c-8.8-5.1-23.5-20.4-28.5-24.3-4.9-3.9-15.9-8.5-22.5-14.5s-12.7-18.7-15-19.8-4.6-2-7.5-.1c-2.9 1.8-6.6 4.2-10.2 9.4s-4.5 6.7-8.1 13.5-6.3 5.6-7.8 14.9c-1.5 9.4-.4 20.4-1.4 23.8-.9 3.4-1.5 1.4-2.2 3.7-.8 2.4-1 2.7.1 4.4 1.2 1.8 2 .6 3.1 3.2 1 2.6-.6 4.7.4 6.4s12.1 4.5 10.9 5.8c-1.2 1.2-4.4 3.6-2.8 5.2 1.7 1.4 2.5.3 4.2.3 1.8 0 5 2.4 5 2.4s.4.7 3.7 1.2c3.3.7 3 .3 5.2 0 2.2-.4 1.9-1 4.3-.6 2.4.3 3.1.3 6.9 2.5s10.2 6.8 11.2 8.3c1 1.4-2.2.7-3.8.2-1.6-.6-2.6-1.6-5-2.4-2.4-.7-8.7-1.2-10.4-.4-1.7.9-3.6 1.2-2.1 2.2 1.6 1.1 13.2.4 13.6 1.7.5 1.3-3.2.5-2.9 1.7.2 1.2 1 .9 2.1 3.6 1.1 2.8-.7 2.9 2.1 3.2 2.9.2 0 0 3.4-.7s6.4-2.1 8.1-.3c1.7 1.7 4.4 5 2.9 5.6-1.2-1.5-2.7-3-4.4-3.3-1.8-.2.9 3.4.1 4.4-.8.9-3.4.6-4.3 1.1-1 .5-.6 2.5 1.3 2.1s3.5.3 6.1.9c2.5.8 9.9 11.6 14.5 14.4 4.6 2.7 20 11.6 21.8 18.4 1.9 6.8-4.5 22.7-4.5 27.9 0 5.1-13.7 61.8-17.6 68.3-1.4 7.1-2.1 6-2.6 10s-2.5 19.4-1.2 21.8 5.7 8.5 9.7 9.6 3.9.2 6.1 1 2.1 3.7 4.4 4.8c2.2 1.1 8.8.7 10.5 1.6s1.4 3.6 4.1 3.6c1.6 0 1 .3 2.6 1.1 1.6.9 2.7.5 3.9.3 1.2-.1 4.2.4 3.5-.8s-2.1-1.1-3.2-1.3c-9.6-1.5-8.4-3.8-10-5.2-1.6-1.3 1.5-.3 2.8.2 1.3.6 4.9 2.5 5.9 3 1.1.5-.8-2.3.7-2.4 1.4-.1 3.5 2.5 4.9 3.8 1.5 1.3 5 3.5 3.9 5.2-1.1 1.6-3.4 4.2-6.6 6.2-3.3 2.1-8-.7-10.4-.8-2.3-.1-21.6-.6-26.1.8-4.5 1.3-11.7 7.6-14.9 9s-8-.6-10.3-1.8c-2.2-1.2-4.8-11.4-6.3-16.1-1.6-4.5 4.5-32 4.2-53.8.2-11.4-2.7-24.7-1.7-32.8.9-8.1 11.5-40.8 10.5-44.5s-17.6-12.5-19.8-12.4-5.8 2.4-8.4 3.8c-2.6 1.3-11.2-2.3-13.8-3.7-11.7-5.6-15.5-8.9-24.5-14-9-5.2-33.1-18.5-35.2-18.5-2 .1-6.7 15.1-7.6 19.3s-.9 9-2.2 10.1c-5.3 4-34.5 29.6-34.5 29.6s-6.3 13.3-8.7 18.2c-6.4 8.5-19.7 15.5-22.4 19.8s-5.2 16.4-10.2 24.2c-5.1 7.9-23.3 15.9-27.6 24.3-4.2 8.4-3 9.9-5.9 13.4-2.8 3.6-3 3.1-4.2 5.2-3.4 5.2-8.2 4.9-10.9 6.9s-5.2 3.8-8.3 5.8c-3 2-4.4 1.8-6.7 5.2-2.4 3.4-2.7 2.9-4.3 5.1-1.6 2.1-5.7 3.1-8.7 2.7s-3.1-1.8-3.6-3.7c-.6-1.9 1.3-4.1.3-4.4-.9-.3-1-.3-2.2-.9-1.4-.7-1.2-3.4-2.1-5.4-.8-1.9-.8-2.5-1.1-4.2.1-5.5 1.7-10 3-11.3 1.4-1.3 5.8-2.1 5.8-2.1 1.6.1 2.6 1.5 1.4 2-1.1.6-4 2-4.6 3-.5 1 1.4 1.7 2.8.6 1.4-1.2 3.1-1.5 6.2-1.2s1.3 1.1 1.5 2.3c.2 1.1 2.3.8 3.3.2 1-.7 0-1.7 2.4-2.5 2.4-.9 1.8.2 4.5-.6 2.6-.8 2.5-1.5 5.9-3.3s3.2-2.4 3.6-3.8 1.5-1.1 1.4-2.7c-.1-1.5-1-2.3-2-2.3-.9-.1-4.5-.1-3.6-1.7 1-1.6 4.7-5.3 7.1-7 2.3-1.8 1.8-4.2 3.1-6.4s1.3-10.1 4.2-17 3.6-8.6 7.8-16.3 14.6-19.3 18.2-23.1 3.1-5.1 4-6.1c2.9-3.3 2.8-1.1 5-2.3 2.2-1.1 1.4-.8 2.6-2.7 1.3-1.9 1-2.6 1.8-4.8.9-2.2 3.8-12.9 4.5-18.7.6-5.9.7-13.6 2-15.9 4.2-7.9 3.1-1.8 4.7-4.5.5-.8-1.9-2.1-2.1-4.4s-1.1-2.8.2-3.9 18.2-25.6 19.2-26.7c1-1 .8-3.6-.7-3-1.5.5-4.1 3.9-4.5 3s.8-6.3 2-7.2c1.2-.8 2.4 1.4 4.2.8 1.8-.5 1.3-.7 1.6-1.8.3-1.2 1.5-3.5.9-4.8-.7-1.4-4.4 3.4-5 2.5s.2-6.8 1.6-8.2 12.8-8.4 15-10.4c2.3-2.1 3.5-6.9 1.9-5.7s-14.7 11.1-12.9 8.2 10.2-7.1 11.1-9.3c1-2.2-2.6-2.6-4.1-2.3-1.5.4-4.3 4.5-6.7 6.8-2.4 2.2-1.7 2.2-2.9.8s-1.5-4.2 0-5.8c1.4-1.7 1.8-2.1 3-3.4 1.2-1.2 1.2-5.1 2.1-8 1-3 .7-1.4 2.2-2.7 1.4-1.4 2-1.1 3.4-1.2 1.5-.1 5 .1 6.6 0 1.6 0 1.5 1.4 3.2 1.8s5.1-2.2 3-2.7l-12.5-2.5s3.2-1.1 3.9-2.1c.8-1.1-.8-2.5-.8-2.5s-.8-9.4.2-8.3 2.3.5 3.3.3 3.4-1.2 3.4-1.2c.4-1 3.8-20.6 4.9-26.9.6-2.1.1-18.2 2.8-31s7.1-27.4 7.7-32.5-.6-15.5 2.3-23.7c3-8.2 10.5-13.8 10.3-16.7-.3-2.9-5.3-25.9-6.2-42.9s-.8-52.1 2.8-55.4c1.7.1 5.6-1.8 5.6-1.8s1.7-1 17.8-13.4c18.3-9.1 36.8-20.6 39.6-23.1 3.3-3 16.3-13.1 19-13.5 2.7-.6 4.2.1 2.2 2.1-2 1.9-7.1 5.6-9.1 7.5s-.1 2.1 2.6 1.2 8.4-5.1 11.4-5.7 5.2 1.6 3.8 2.5c-4.2 3-4.4 3.4-7.7 4.6-2.9 1-2.5 2.9-.5 1.9 1.9-.8 2.6-2.4 6.9-4.5 2.5-1.2 6.2.1 3.5 1.9-2.3 1.6-3.8 3.3-5.6 4.7-4 3.2-6.9 5.3-6 5.3 3.4-.1 11.2-7.2 13.9-7.3 4.4-.2 1.8 1.9.7 3.5-2.1 2.7-9.2 5.8-9.9 7.5-1 2.2 5.5 2.4 7.6 3.6 2.2 1.1 5.4 7.4 1.9 6-3.4-1.5-.9.5-9.3-2.3-8.4-2.7-20-2.5-21.5-2.4s-16 9.2-23.8 16.5c-7.8 7.4-21.7 18.6-22.8 22.9 0 0 6.1 13.5 7.2 22.5s0 25.8 0 25.8z"/><path id="d" d="m1040 372.8c1.5-1.7 4.5-1.4 2-3.3-2.5-2-8.9-7.4-10.6-11.2s-4.2-12.6-5.7-13.9c-1.5-1.4-4.2-3.2-3.9-6.3.3-3 3.2-2.3 4.8-2.2 1.6.2 6.7 5.2 6.8 6.5.1 1.4 1.4 4.9 1.4 4.9s2.2 1.7 2.6.3c.4-1.3 2-13 .6-13.1-1.3-.2.4-3.9-1.1-2.4s-4.8 2.2-5.2.7c-.4-1.4 4.9-4.9 4.1-5.6-.7-.6-3.3.7-3.6-1.3s1.7-3.1 1.7-3.1 2.4-2.2 3.9-1.8c1.6.4 8.2 6.2 9.1 10.1.9 4 4.2.7 5.5.9 1.4.3 8.8 12.8 7.3 14.6-1.6 1.8 1.6 11.5.7 12.8s9.7 9.7 7 11.6c-2.6 1.9-2.6 2.2-2.9 4.4-.2 2.2-.5 2.1-.7 4.1-.2 1.9 7.2 17.4 10.5 28.6 3.3 11.1 7.1 25.9 8.3 26.6 1.3.7 1.2 10.9-1.4 15-2.6 4.2-3 25-2.8 27.6.3 2.5 3 4.7 3 7.2s-2.3 11.1-2 13c.3 2 1.6 7.1 2.2 16.8s.4.9 2.2 4.7c1.7 3.7 10.2 16.4 11.4 21 1.3 4.6-1.1 11.6 0 14 1.1 2.3 12.2 26.2 20.2 50.3 8.1 24.2 8.8 42.2 7.3 47.8-1.4 5.6 14.6 8.9 14.6 13.5 0 4.7.8 4.5-.3 7.7-1.2 3.2-3.8 5.3-4.4 7.8-.5 2.4-2.6 4.6-1.8 7.2.8 2.5 2.5 3.9 3.1 6.1.5 2.3-2.4 1.9-1.5 5.9s-.7 4.3-.7 4.3 4.7.6 3.9 2.9c-.8 2.4-8.8 6.8-9.2 5.9s-.4-3.3-1.5-3.2-4.3 7.2-27.2 13.9c-23 6.7-7.3-1.9-15.7-1.3-8.4.7-22 .5-24.8-2.9-2.9-3.4-18.9-11.5-18.9-11.5s-18.8-11.9-21-11.3c-2.2.5 4.8 9.4 4.8 9.4s2.8 8.4-.6 10.5-22.6 1.5-25.3 1.4c-2.7 0-15.6 7.3-22.1 6.5-6.6-.7-5.7-1.5-9.9-2.2-4.2-.8-8.1 3.2-11.2.1-3.2-3.1-4.7-3.9-4.7-3.9s-2.5 1.1-2.8-1.4c-.3-2.6-1.7-4.4 1.5-5.9 3.1-1.6 5.6 2.8 7.4 1.2 1.8-1.8 8-1.9 11.4-6.4 3.4-4.6 2.4 1.9 3.7.4 1.2-1.5 10.3-3.8 10.5-5.4s2.9-1.6 1.1-2.3c-1.8-.8-5.9.1-4.5-.9 1.4-.9 7.5-4.9 9.9-5.4 2.5-.5 7 .2 7.7-1.6.8-1.9 2.5-3.6-.1-3.6-2.7 0 0-2.5-2.5-2-2.5.6-4.9 1.7-6.3 1.2-1.3-.4-2.4-2-4.1-4.1-4.7-7-7.9-26.1-11.2-27-3.4-1-.8-2.6-2.2-1.7-1.5.9-2.5 8-10.1 14s-14.2 12.5-37.9 25.9c-23.7 13.6-30.5 21.6-32.4 21.9-2 .3-3 5.7-4 7.2s-1.5 10.9-5 14.1c-3.6 3.1-6.8 5-10.2 4.9-3.5-.2-7.8-1.7-10.7-5.1-2.8-3.3-3.3-4.5-11-5.1s-23.6-4.4-25.3-6 .3-3-3.3-2-2.5-1.1-4.5-2.7-7.1-3.8-7.4-5.5 5-4.2 5-4.2-.3 2.8 1.4 2.1 8.7-1 13.4-2.3c4.7-1.4 9.7-.1 12-2.2 1.2-1.1 0-1.8.7-3.2.7-1.2 3-1.6 3.4.1.4 1.8.7 1.1 2.3 1.3s3.1-2.3 5.8-1.8c3.7.8 8.3-.1 10.7-2 2.4-2 .7-1.3 6.3-3.4 5.7-2.1 13-6.2 22.9-15 9.8-8.8 16.8-16.5 28.2-32.6s6.3-6.7 11.7-13.6c5.3-6.8 4.5-9.1 12.4-17.6s8.8-9.7 15.5-14.5 7.5-4.7 12.4-5.5 5.6.1 8.2 1 5.1 2.3 4 .5c-.8-1.2-1.9-3.2-4.1-4.1-3.9-1.6-4.7-1.9-8.2-1.8-3.5.2-6.1-.9-7.6.8-1.9 2.1-7.1 5.4-10.1 8.8-.8 1-1.7 3.1-2.6 4.5-.7 1.1-2.6.1-2.5-1.8.4-4.2-.9-1.2.2-6.6s.2-4.1 3.5-7.9c3.4-3.7 4.3-2.3 5.3-4.6 1-2.4 2.7-2.7 0-2.8s-4.4 1.1-1.2-1 2.4-2.2 5.7-2.9 5.6-2.4 11.4-1.1c5.7 1.2 16 7.6 18.4 10.1s9.1 9.6 13.4 12.1c4.3 2.4 1.3.4 6.8 3.5 5.5 3.2 4.8 4.5 7.4 6.1 2.5 1.7 5.6 2.9 7.1 6.3 1.5 3.5 1.7 1.6 4.5 3 2.7 1.4 4.2.8 6.3 3.2 2.2 2.5.6 1.7 3.5 2.1 2.9.3 3.3 1.5 4.3-.1.9-1.5-7.6-11.7-11-18.9-3.5-7.3-9-13.8-10.6-20.6-1.7-6.8-2.9-12.5-5-13.8-1.9-1.3-2.2-11.8-1.7-13.7s1.5-2.1 2.8-6c1.3-4 1.4-3.2 0-5.8-1.3-2.6-1.3-7.9 0-9.4s2.9-2.1 3.3-1c.4 1.2.6 4.5.6 6.4s.4 8.3.4 8.3c2 1.1 2.4 4.7 2.8-1.1.3-5.7 1.4-2.9.2-9.3-1.2-6.5-1.8-15.1-3.1-15.5s-3.5.1-4 2.8c-.6 2.7-.1 5.8-2.1 6.6-1.9.9-1.7-1.2-2.3 1.7-.6 3 1 6-1 7-2 1.2-3.1-5.9-6.1-10.3-3-4.5-2.4-2.6-6.8-6.1s-15.6-11.1-20.5-15.9c-4.8-4.7-1.2 1.2-5.4-2s-21.4-24.3-28.5-38.1-5-10.7-9.3-13.5c-1.1-.7-2.2-3.7-2.8-5.8-1.6-5.8 1.7-.9-4.4-4.1s-11-9.6-14.1-13.2c-3.1-3.7-.7-.6-4.8-5.3-4-4.6-6.1-5.6-3.3-6.7s4.5-.3 6.1.7c3.2 1.9.9 1.5 3.1 3.7s4 7.3 4.2 3.5 2-1.1-.7-5.6c-2.8-4.5 1.5-1.5-2.9-5.3s-2.8-3.3-5.2-3.9c-4.1-.9-5.2-1.7-5.2-1.7s-1.1-2.2 4.1-2.1c4.6.1 2.4-.8 6 .8 3.6 1.5.6-.8 5.9 2.1 5.3 2.8 3.6-1.2 5.3 2.8s4.3 9.8 6 13.9-1.6 2 1.5 5.7c3.1 3.6 1.5 3.6 4.5 4.9.9.4 2.3.8 3.3 2.1 2.1 2.6 5.7 9.7 11.7 14.9 6.2 5.1 13.6 10.7 20 16.4 6.3 5.7 7.8 6.6 9.9 9.9 2 3.3 2 3.3 2.9 5 .9 1.8 1.8 2.7-.9 3-2.7.2-2.3-1.4-4.3.6-2.1 1.9-4.4.9-3.1 3.8s7.3 6.4 9.4 7.4c2 1.1 4 .5 6.6.5 2.7 0 3 .1 3.8 2.1.8 2.1 2.4.5 2.3 3.6-.1 3 .4 3.6.5 5.6s-2 1.4-.1 3c2 1.6 1.1 4.5 2 1.6s1-1.5 1-4.3c0-2.7-3 .2 1.2-3.7s4.7-1.1 5.4-4.9 3.8-2.6.5-4.9c-3.2-2.3-2-4.1-4-2.4-2.1 1.7 4.1 1.3-2.1 1.7s-4.4 1.1-7.2-.3-4.9-3.9-5.4-7 .2-4.7-1.1-6.8c-1.4-2.1-1-.4-1.5-3.8-.4-3.3 1.3-1.8-.4-3.3-1.7-1.6-.7 1-1.6-3-.9-3.9 1.5-4.3.3-4.4-1.4-.1-6.5-1.6-7-2.5-.4-.9 1.5-3.7 2.7-5.5 1.3-1.8 1.8-3.9 2.1-4.7.4-.8 3.3-3.2 2.5-3.3s-2.7.5-3.1-.6c-.4-1.2.2-1.7.3-2.4.1-.9 2-3.4 2-3.4s1.6-2.6 1.2-4c-.4-1.5-1.2-3.4.1-5.2s2.2-3.3 1.8-4c-1.3-2.3-2.3-.8-2.3-.8l-.9 2.6-4.1.6c-1.9.6 3.5-4.5 3.5-4.5s-5.1.8-5.8-.4 7.4-4.1 7.1-6.4c-.3-2.2 9.7-.5 11.2-2.5 1.6-2 7.9-5.7 13.5-5.6s11.1 1.8 13.6 1 7.3-.8 8 .4c3 1.3 6 3.9 8.7 6 0 0 1.6.5 2.3 1.1.7.7 2.2 4.7 3.5 5.1s-1.1 2.9 1.1 4.5.4 3.7 3.1 3.4c2.7-.2 2.5 2 2.9-2.1.5-4.1.7-4.3-.6-9.7s-4.2-10.4-4.2-18.2c0-7.7-.4-13.3-1.4-19.2-.9-5.9-4.2-17.8-4.2-17.8-3.6-1.5-8-4.5-6.5-6.2z"/></mask><g id="figure" transform="scale(.1)"><path d="m681 62c-238.9 0-433 195.8-433 438 0 83.5 23.1 161.6 63.1 228.1 173.9 14.1 274.2 11.9 368.9 11.9 123.6 0 243.9-3.3 370.8-12.9 39.5-66.3 62.2-144 62.2-227.1 0-242.2-193.1-438-432-438zm358.4 683.1c-134.9 12.3-240.5 15.3-357.9 15.5-121.7.2-183-3.4-359-14.5 77.9 116.4 209.5 192.9 358.5 192.9 149.4 0 280.8-77 358.4-193.9z" fill="#f79210" mask="url(#a)"/><g fill="#fff"><path d="m682 20c-261.2.1-473.4 213.9-474 479-.2 81.6 19.7 158.6 55 226l25 2c-37.6-67.1-59.2-145.3-59-228 .5-253.5 203.2-458.6 453-458 249.9.6 451.6 206.5 451 460-.2 81-20.6 157-57 223l25-3c33.7-65.8 52.8-140.8 53-220 .6-265.1-210.7-481-472-481zm501 578s142.8 18.3 138 62c-6.3 57.9-241.7 96-588 97-311.2.9-691.8-17.3-700-75-6.2-43.4 143-69 143-69-84.4 10.9-156 36-156 76 0 34.1 114.3 57.9 264 72.6 84.2 131.1 230.2 218.4 396 218.4 168.8 0 316.8-89 400.8-223.8 146.9-20 256-51.5 256.2-90.2.2-40.1-64.6-57.5-154-68zm-128.3 161.6c-81.8 120.8-219.3 199.7-374.7 199.4-152.4-.3-287-77.3-368.7-194.8 134.2 11.9 291.8 16.8 420.7 15.8 108.5-.9 222.9-8.1 322.7-20.4z"/><path d="m1462 703 21-70c9.4 8.4 30.7 21 59 21 28.9 0 49-19.5 49-46 0-81.7-124-95.3-124-214 0-75.2 48.1-123 116-123 35.2 0 66.4 10.4 84 26l-16 60c-10.1-8.4-29.5-17-54-17-26.4 0-45 17.2-45 47 0 81.9 129 95.9 129 215 0 77.1-49.3 127-109 127s-90.5-10.5-110-26z"/><path d="m1723.2 277v446h163v-69h-76v-377zm1050.8 0v446h178v-69h-92v-377zm212.2 0v83h87v-83zm163.2 0v446h72v-299l139 299h65v-446h-72v272l-128-272zm352.2 0v446h187v-69h-101v-125h87v-67h-87v-116h101v-69zm-515.4 118v328h87v-328zm722.9 67v66h65v-66z"/><path d="m2020.4 277-120 446h75l23-95h106l22 95h88l-117-446zm452.4 0v446h86v-228l93 228h96l-110-239 100-207h-85l-94 207v-207zm-420.4 106h1l39 186h-81z"/><path d="m2212.6 500c0-118.6 46.9-229 145-229 35.8 0 61.4 9.8 79 26l-17 59c-8.8-7.1-22.6-13-44-13-58.5 0-75 81.8-75 157 0 73.2 20.9 153 75 153 22.6 0 34.6-5.9 44-13l18 63c-16.4 16.2-43.1 26-82 26-98.1 0-143-106.5-143-229z"/><path d="m3736.6 277v45h72v401h56v-401h72v-45zm867.2 0v446h142v-45h-86v-401z"/><path d="m4767 703 15-46c11.9 10.4 33.9 22 66 22 36.5 0 64-24.5 64-64 0-97.7-140-109.4-140-230 0-69.9 45.9-114 105-114 34.6 0 61.9 11.1 77 26l-12 40c-11.3-9.7-30.7-21-59-21-33.9 0-57 23.5-57 63 0 96.1 144 108.8 144 229 0 72.6-46.1 121-114 121-40.9 0-68.9-9.8-89-26z"/><path id="e" d="m4006.8 499c0 89.4 14.9 182 79 182 64.7 0 79-92.6 79-182 0-90.7-16.8-184-79-184-62.3 0-79 93.3-79 184zm-56 1c0-124.4 37.5-229 135-229 97.4 0 135 104.6 135 229 0 125.1-37.6 229-135 229-97.5 0-135-103.9-135-229z"/><use transform="translate(10 6)" xlink:href="#b"/><use transform="translate(10 2)" xlink:href="#c"/><use transform="translate(13 6)" xlink:href="#d"/><use transform="translate(320)" xlink:href="#e"/></g></g></svg>