<svg viewBox="0 0 106 100" xmlns="http://www.w3.org/2000/svg" xmlns:xlink="http://www.w3.org/1999/xlink"><g id="figure" fill="#fff" transform="scale(.1)"><path d="m246.7 356.3s-2.1-2.1-4.8-5.9c-2.7-3.7-5.6-16.7-5.6-18.5s1.1-6.8 1.3-8.8c.2-2.1 3.9-5.8 4.6-6.6s3.1.4 3.9-.4c.9-.8 3.8-4.5 4.7-4.8 6.7-3.2 13.6-1.5 16.2-1.3 13.7.3 16.1 9 16.1 9-1-1.2-2.4-2-3.9-1.5-.8 1.6-1.6 2.3-1.7 3.2-.3 1.8 5.8 8.9 5.9 10.4.2 1.1-2.5 1.9-2.3 2.8s4.1 5.1 4.1 5.1 5.9.8 6.7-.3c.8-1-1.1-.6-.1-3.3s8.6-9.9 9.3-12.1c1.2-8.5 7-15.5 9.6-20 2.6-4.6 10.7-18.3 10.4-19.5-.3-1.1-.2-1.8.2-3.3.3-1.5 1.3-1 2.1-2.8s-1.6-12.8-1.1-14.7c.5-1.8 1.3-.9 1.7-2.7s-.8-3.7 0-5.2 4-4.7 5.1-5.5c1.2-.8 3.4-2.1 3.4-1.1-.1 2-1.4 2.4-1.7 3-.2.5.3 1.8 0 2.9s-1.2 2.1-1.5 2.9c-.3.9 1.4 4.8.9 5.6-.6.8 1.2.5 1.9-.5.7-1.1-.7-3.3.1-5.7.8-2.3 2.6-3.5 3.1-3.7s2.5.6 2.1 1.4c-.5.8-2.1 3.3-2.2 4.9s1.6 8.1.6 10.8c-.9 2.7-3.8 7-4.3 8.2-.5 1.3-5.8 27.4-8 34.8-2.3 7.4-4.3 12.5-6.1 15.7s-4.1 4.7-4.9 5.9c-.8 1.1-4.9 8.2-8.2 12-3.3 3.9-11.9 11.1-13 13s0 11.5.7 17.5c.8 6 5.3 21.9 6.5 29.9 1.1 8 .5 17.9-.2 25.3s-2.7 13.3-3.5 17.1c-.9 3.8-1 8-1 8s2 .8 3.1.3-.8 2.4.6 2.2c1.4-.3 10.7 5.4 6.5-.5-4.3-5.9 4.6-3.3 7.3-3.7s7.5-.2 9.5-1.8c1.9-1.5 5.6-3.2 6.7-3s2.5 3.3 3.3 3.3c.9.1 5.3-3.1 7.2-3.6 1.9-.4 4.5 1.2 5 1 .6-.2 3.2-1.3 4-1.6.9-.3 6.9-1 8.2-.5 1.4.5 7.7 6.1 8 7.3s.5 4.5.3 7.6-1.2 6.4-2 8.3c-5.1 9.5-12.2 21.5-12.2 21.5s-11.3 14.9-14.9 21.3c-7.4 13.2-9.6 17.8-11.1 21.7-.6 1.8-.5 6.3.2 7.3s8.8 7.4 10.1 8.5c1.4 1.1-.6 1.3.6 2.5 1.2 1.3 11.6 5.9 13.7 6.2s3.4-1.1 3.8-.1c.9 2.4-1.2 2.4-2.3 3.4s.1 2.9-.7 3.6-3.8.5-4.6 1.1-.1.8-2.5.8c-2.5 0-11.9-4.8-15-5.6s-7.6-3.5-10.8-2.9-9 .1-11.4.1c-2.5 0-5.2-.3-6.6-1.7-1.5-1.4-.1-4.2 1.7-8 8.1-14 14.2-28.9 19.9-44 .7-2.3 2-7.9 1.4-9.7-.5-1.8-21.5-.4-24.3 1.2s-6 3-9.1 3.4c-3.2.4-5.8-1.7-8.3-1.1s-5.2 1.5-8.9 1.6c-3.8.1-3-2-6.4-2.2-3.5-.2-20 .5-22.7 1.9-2.7 1.5-4.5 2.5-6.2 3.4s-6.1.4-8.1 1.3-8.8 9.6-10.4 12.9c-1.6 3.2-3.6-1.1-5.2-1s-4.3-.1-8.1-.3c-3.8-.3-10.4-3.9-11.9-3.5s-13.8 5-20.9 6.2c-7.2 1.2-14.1-1.2-14.1-1.2s-1.6-1.1-3.4-.8c-1.9.3-5.7 1.7-9.5 2.3s-4.1 0-6.1-.3-12.1-2.9-14.1-3c-2 0-2.9.2-4.8.3-1.8 0-5.2 1-8.3 2s-7.6 1-9.1 1.2c-1.9-.6-2.9-.8-4 .1s-14.4 9.4-15.4 10.9c-1 1.4-3.5 1.6-4.9 3-1.3 1.4-3 2.2-4.8 1.5-1.7-.6-2.3-1.5-2.4-3.1-.1-1.7.5-3.1-.2-3.8s-1.1-1.2-1-2.6-.3-1.9 1-3.5c2.2-2.8 3-8.5 3.6-9.6.9-1.5 4.6-3.5 7.7-3.9s10.6-1.3 12.6-2.1 2.5-1.8 3.8-1.9 4.6 3.6 6.3 3.3 2.3-1 4.1-1.4c1.7-.3 1.9.8 4 .5 2-.3 13.7-5.6 19-7.3s12.3-4.6 15.4-4.8 4 2.1 5.5 2 3-.6 4.5-.1c1.4.5 3.3 3.5 4.9 3.2 1.5-.3 9.8-4.1 14.1-7.5s6-4.9 12.4-9.6 15.6-11.4 20.4-13.8c4.8-2.5 9.2-2.7 11.3-4.2s3.4-.9 5.2-3.3c1.9-2.4 7.6-11.9 10.6-15.4 2.9-3.6 8.7-7.7 8.5-9.9-.3-2.2-.2-4.8-1.6-8.2-1.5-3.4-2.7-11.5-3.8-15.1-1.1-3.7-5-12-6.1-10.6-1.1 1.5-11.6-.5-13.4.1-1.7.7-2.3.5-5.3.2-3-.2-5.7-5.8-6.5-9.1-.8-3.4-1.8-7.6-1.7-10.7s0-5.8-.6-5.6c-.6.3-1.2-3.2-2.6-3-1.4.1-2.9 1.3-4.6 1-1.8-.3-2.3-1.4-1.4-1.9s3.9-2.6 5.2-3.5c1.3-1 2.3-.9 1.1-2.4-1.1-1.4-3.7-2.2-4.6-3.3s-.8-2.7-.2-3.2.8-.6 1.5 0 4.3 1.4 4.8.5-2.3-2.8-3.4-5.5c-.7-1.5-1.2-3.1-.6-3.7.5-.5 2.8-.6 3.1.2.8 1.8 2.7 3.7 3.2 4.2s1.4-.2 1.4-1.3c0-1-2.4-3.7-2.7-5.2-.3-1.4-.7-3.1.1-4 .8-.8 1.9-1.3 2.3-.3.5 1.3 1.2 2.3 2.8 5 1.7 2.7 2.3 5.2 4.8 5.9.9.3 1.5.3 2.3-.4.8-.6 1.8-.7 1.6-2s-.1-2.3.3-4 2.1-3.7 3.2-3.9 3 .3 2.8 1.1c-.2.9-1.5 5.5-1.6 7.3s-1 3.8-.8 4.9-.1 5.1-.3 5.9.3 1.8-.5 2.9-3.2 3.3-3.8 3.8c-.7.5-.7 2.8-.3 4.3.3 1.5 4.4 7.2 5.7 7.1s5.3-3.6 6.6-3.8 1.3 1 2.8.8 2-.8 2.6-1.5c.7-.7-3.4-.9-3.7-1.5-.2-.5 3.5-3.1 4.2-3.6.8-.5 1-2 1.5-2.1s6.1-3.5 7.5-4.7c1.4-1.3 3.6-4.5 4.1-5.2.5-.8 1.4-1.2 1.6-2.5.2-1.4.6-5.5.4-6.9-.3-2.7-2.8-3.8-3.4-2.5s-.5 1.5-.4 2.5z"/><path d="m378.2 554.1c-1.4-.2-4.9-.3-4.6 1.2.1.2 2.7 1.5 3.4.8s2.6-1.8 1.2-2zm131.8-295.4c.3 1.5 5.2 3.1 5.2 3.1s-.7 3.9.1 4.1c.1 0 3.2-.6 6.3-3.7 0 0-2.4-5.1-4.6-5.6 1.9-3.7 1.9-2.7 4-7.1 0 0 4 .1 5-.4s.2-2.4.2-2.4c-2.3 1.1-7-.3-4.9-.8s.5-2.5 2.6-5.3c2.6-3.4.8-3.5 1.9-5.2 1.1-1.8 3.5-7.7 7.2-9.2 2.2-.9 5.8-3.4 8.6-4.5 2.7-1.1 8.6.4 10.8.4s3.2 3 3.2 3l5.5 2.4s-2.8 2.1-2.7 1-1.8 3-1.8 3l3 .6c1.1-.8 1.9-1.9 2.9-2.9 2.7 2.8 5.6 5.5 8.5 8.2l-1.1 3.4s-.4.8-.1 1.9-1.6 2-1.8 3 1.4 6.2.6 7.9-3.5.7-3.2 2.5c.2 1.8 2 7.2 2 7.2s.4 1-.4 1.5-4.2.5-4.2.5c-1 2-2.5 3.8-3.7 5.7-.5.4-1.9 1.4-1.9 1.4s.2 1.1-.1 2.2c-.4 1.1-3 4.1-5.2 4.5-2.2.5-7.8-4.5-9.3-3.7s-5.4 5-5 7.1 9.8 8.7 9.8 8.7-3.3.1-2.9.9c.3.8.4 1.9 1.9 2.8s5.1-.2 7.5.6 6.8 3 9.6 7.1 8.3 16.7 8.8 17.9 7.7 6.6 13.6 12.7 14.7 16.2 14.7 16.2-4.3-.1-4.4.7c-.2.8-.5 1.9-.5 1.9s1.6 1.5 3.5 1.8c1.9.2 4 .1 6.8.6 1.7.9 3.1 2.1 3.1 2.1s4.4-.1 6.8.9c2.5 1 10.9 8.5 13.7 10.5s13.1 6.5 14.2 8.3c-.5 1.4 1.3 2.7 1.3 2.7l6.3 2s3.1 1.4 4.5 2.6c1.4 1.3 7.3 4.8 7.3 4.8s1.6.4.5-1.1-8.5-5.7-8.5-5.7 3.9 1.4 4.7 1.6c.8.1 1.2-.2 3 .7s3.4 3.1 5 4.9 4.9 2.3 5.5 5.2c.5 2.9.2 4.2.4 3.9-1.1 3.8-1.4 1.6-1.9 2.4s-.2 5.5-1.6 6.2c-1.5.7-2.5-.2-2.5-.2s.9 1.3.2 2.3c-.7.9-1 1.7-2.3 1.3-1.3-.5-6.6-7.8-7.5-9.2-1.1-1.1-1.8-1.1-1.3 1 1.5 1.6 2.5 3.2 3 5 .5 1.9.4 2.8-.4 4.2-.6.9-1.6 1.7-2.9-.6-.5-.8-1.7-2.5-2.6-4.3-1.1-2-2.5-5.3-3.7-5.8-1.3-.6-8.7-7-10.2-9-1.5-2.1-.5-3-2.9-4.7-2.1-1.5-5.9-1.6-10.4-2.9s-18.8-6.5-25.5-10.5c-6.7-3.9-18.1-15.7-21.9-18.7s-12.1-6.5-17.2-11.1-9.7-14.3-11.5-15.1-3.5-1.6-5.7-.1c-2.2 1.4-5 3.2-7.8 7.2s-3.4 5.1-6.2 10.3-4.9 4.4-6 11.5c-1.1 7.2-.3 15.6-1.1 18.2-.7 2.6-1.1 1-1.6 2.8-.6 1.8-.8 2.1 0 3.4.9 1.4 1.6.4 2.4 2.4s-.5 3.6.3 4.9 9.3 3.5 8.4 4.5c-.9.9-3.4 2.7-2.2 3.9 1.3 1.1 1.9.3 3.2.3 1.4 0 3.9 1.8 3.9 1.8s.3.5 2.8.9c2.5.5 2.3.2 4 0 1.7-.3 1.5-.7 3.3-.4 1.8.2 2.3.2 5.2 1.9s7.8 5.2 8.6 6.3-1.7.6-2.9.2c-1.2-.5-2-1.2-3.8-1.8-1.8-.5-6.7-.9-8-.3-1.3.7-2.7.8-1.6 1.6 1.2.8 10.1.3 10.4 1.3.4 1-2.4.4-2.2 1.3s.8.7 1.6 2.8-.5 2.2 1.6 2.4c2.2.2 0 0 2.6-.5s4.9-1.6 6.2-.2c1.3 1.3 3.3 3.8 2.2 4.3-.9-1.1-2-2.4-3.3-2.6-1.4-.2.7 2.6.1 3.4-.6.7-2.6.5-3.3.9-.8.4-.5 1.9 1 1.6s2.6.2 4.6.7c1.9.6 7.6 8.9 11.1 11s15.3 8.9 16.7 14.1c1.5 5.2-3.4 17.3-3.4 21.3 0 3.9-10.5 47.3-13.5 52.3-1.1 5.4-1.6 4.6-2 7.7s-1.9 14.9-.9 16.7 4.3 6.5 7.4 7.3 3 .2 4.7.8 1.6 2.9 3.4 3.7c1.7.8 6.7.5 8 1.2s1 2.7 3.1 2.7c1.2 0 .8.3 2 .9 1.2.7 2.1.4 3 .2.9-.1 3.2.3 2.7-.6s-1.7-.8-2.5-1c-7.3-1.1-6.4-2.9-7.6-4-1.2-1 1.1-.2 2.1.2 1 .5 3.7 1.9 4.5 2.3s-.5-1.8.6-1.9 2.6 1.9 3.7 2.9 3.8 2.7 3 4c-.8 1.2-2.6 3.4-5 4.9-2.5 1.6-6.2-.6-8-.7s-16.6-.5-20 .6c-3.4 1-9 5.8-11.4 6.9s-6.1-.2-7.9-1.1c-1.7-.9-3.7-9-4.8-12.6-1.2-3.4 3.4-24.5 3.2-41.2.2-8.7-2.1-18.9-1.3-25.1.7-6.2 8.9-31.3 8.1-34.1s-13.5-9.6-15.2-9.5-4.4 1.8-6.4 2.9c-2 1-8.6-1.7-10.6-2.8-9-4.3-11.9-6.9-18.8-10.8-6.9-4-25.3-14.1-26.9-14.1-1.5.1-5.1 11.6-5.8 14.8s-.7 6.9-1.7 7.7c-4.1 3.1-26.4 22.7-26.4 22.7s-4.9 10.1-6.7 13.9c-4.9 6.5-15 11.8-17.1 15.1s-4.1 12.6-7.9 18.6c-3.9 6-17.8 12.2-21.1 18.6-3.2 6.4-2.3 7.5-4.5 10.2-2.1 2.8-2.3 2.4-3.2 4-2.6 4-6.3 3.8-8.4 5.3s-3.9 2.9-6.3 4.4c-2.3 1.5-3.3 1.4-5.1 4s-2.1 2.2-3.3 3.9c-1.2 1.6-4.4 2.4-6.7 2.1s-2.4-1.3-2.8-2.8c-.5-1.5 1.1-3.2.3-3.4-.7-.2-.8-.2-1.7-.7-1.1-.5-.9-2.6-1.6-4.1-.6-1.5-.7-1.9-.9-3.2.1-4.2 1.3-7.7 2.3-8.7 1.1-1 4.5-1.6 4.5-1.6 1.2.1 2 1.1 1.1 1.5-.8.5-3.1 1.5-3.6 2.3-.4.8 1.1 1.3 2.2.5 1.1-.9 2.3-1.1 4.7-.9s1 .8 1.2 1.7c.2.8 1.7.7 2.5.2s0-1.3 1.8-1.9c1.8-.7 1.4.1 3.5-.5 2-.6 1.9-1.1 4.5-2.5s2.5-1.8 2.8-2.9 1.1-.9 1-2.1c-.1-1.1-.7-1.8-1.5-1.8-.7-.1-3.5-.1-2.8-1.3.8-1.2 3.7-4 5.5-5.3 1.8-1.4 1.3-3.2 2.3-4.9s1.1-7.7 3.3-13 2.7-6.6 5.9-12.5 11.2-14.8 14-17.7 2.3-3.9 3-4.7c2.2-2.5 2.2-.8 3.9-1.7 1.7-.8 1-.6 1.9-2.1 1-1.5.8-2 1.4-3.7.7-1.7 3-9.9 3.5-14.3.5-4.5.5-10.4 1.5-12.2 3.2-6 2.4-1.3 3.6-3.4.4-.6-1.4-1.6-1.6-3.4s-.9-2.2.1-3 13.9-19.6 14.7-20.4.6-2.8-.5-2.3c-1.1.4-3.1 3-3.4 2.3s.6-4.8 1.5-5.5c.9-.6 1.8 1.1 3.2.6 1.4-.4 1-.6 1.2-1.4.2-.9 1.2-2.7.7-3.7-.5-1.1-3.3 2.7-3.8 2s.1-5.2 1.2-6.3 9.8-6.5 11.5-8c1.8-1.6 2.7-5.3 1.5-4.4s-11.3 8.5-9.9 6.3 7.8-5.4 8.5-7.1c.8-1.7-2.1-2-3.2-1.8-1.1.3-3.3 3.5-5.1 5.3-1.8 1.7-1.3 1.7-2.2.6s-1.1-3.3 0-4.5c1.1-1.3 1.4-1.6 2.3-2.6.9-.9.9-3.9 1.6-6.1.8-2.3.6-1.1 1.7-2.1 1.1-1.1 1.5-.8 2.6-.9s3.8.1 5 0c1.2 0 1.2 1.1 2.5 1.4s3.9-1.7 2.3-2.1l-9.6-1.9s2.5-.8 3-1.6c.6-.8-.6-1.9-.6-1.9s-.7-7.2.1-6.4 1.8.5 2.6.3 2.6-1 2.6-1c.3-.8 2.9-15.8 3.7-20.6.5-1.6.1-13.9 2.2-23.7s5.4-21 5.9-24.9-.5-11.8 1.7-18.1c2.3-6.3 8.1-10.6 7.9-12.8s-4-19.8-4.7-32.8-.7-40 2.1-42.5c1.3.1 4.3-1.3 4.3-1.3s1.3-.8 13.6-10.3c14-7 28.2-15.8 30.3-17.7 2.5-2.3 12.5-10 14.6-10.3 2.1-.5 3.2.1 1.7 1.6s-5.5 4.2-7 5.7-.1 1.6 2 .9 6.4-3.8 8.7-4.3 4 1.2 2.9 1.9c-3.2 2.3-3.4 2.6-5.9 3.5-2.2.8-1.8 2.3-.3 1.5 1.5-.6 1.9-1.9 5.2-3.5 1.9-.9 4.8.1 2.7 1.5-1.8 1.2-2.9 2.5-4.3 3.6-3.1 2.5-5.3 4-4.6 4 2.6-.1 8.6-5.5 10.7-5.6 3.4-.2 1.3 1.5.5 2.7-1.6 2.1-7.1 4.5-7.6 5.8-.8 1.7 4.3 1.8 5.9 2.7 1.7.8 4.1 5.7 1.4 4.6-2.6-1.1-.7.4-7.1-1.7s-15.4-2-16.5-1.9-12.2 7.1-18.2 12.7c-6 5.7-16.6 14.2-17.4 17.5 0 0 4.7 10.3 5.5 17.2s0 19.8 0 19.8 7.4 12 8 17.4z"/><path d="m802.5 287.6c-1.9-1.5-6.8-5.7-8.1-8.6s-3.3-9.6-4.4-10.6c-1.1-1.1-3.2-2.5-3-4.9.2-2.3 2.5-1.7 3.7-1.6 1.2.2 5.1 3.9 5.2 4.9.1 1.1 1.1 3.8 1.1 3.8s1.6 1.3 1.9.2c.3-1 1.6-9.9.5-10-1-.2.3-2.9-.8-1.8s-3.7 1.6-4 .5 3.7-3.8 3.1-4.3c-.5-.5-2.5.5-2.7-1s1.3-2.4 1.3-2.4 1.9-1.6 3-1.3c1.2.3 6.2 4.7 6.9 7.7.7 3.1 3.2.5 4.2.7 1.1.2 6.7 9.8 5.6 11.2-1.2 1.4 1.3 8.8.6 9.8s7.4 7.3 5.3 8.8c-2 1.5-2 1.7-2.2 3.4s-.3 1.6-.5 3.1 5.5 13.3 8 21.9c2.5 8.5 5.5 19.9 6.4 20.4 1 .5.9 8.4-1.1 11.5-2 3.2-2.4 19.1-2.2 21.1.2 1.9 2.3 3.6 2.3 5.5s-1.7 8.5-1.5 10 1.2 5.5 1.7 12.9.3.6 1.7 3.5c1.3 2.8 7.8 12.6 8.7 16.1 1 3.5-.8 8.9 0 10.7s9.4 20.1 15.5 38.6c6.2 18.5 6.7 32.3 5.6 36.6s11.1 6.8 11.1 10.3c0 3.6.6 3.5-.2 5.9-.9 2.5-2.9 4.1-3.4 6-.4 1.8-1.9 3.5-1.3 5.5.6 1.9 1.8 2.9 2.3 4.6.4 1.8-1.8 1.5-1.1 4.6s-.6 3.2-.6 3.2 3.6.5 3 2.3-6.7 5.2-7 4.5-.4-2.6-1.2-2.5-3.3 5.6-20.8 10.7c-17.6 5.1-5.6-1.5-12-1s-16.9.4-19-2.2c-2.2-2.6-14.5-8.8-14.5-8.8s-14.3-9.2-16-8.7c-1.7.4 3.6 7.2 3.6 7.2s2.2 6.4-.4 8-17.3 1.2-19.4 1.1c-2.1 0-11.9 5.6-16.9 5-5.1-.5-4.4-1.2-7.6-1.7-3.2-.6-6.2 2.5-8.6.1-2.5-2.4-3.6-3-3.6-3s-1.9.8-2.1-1.1c-.2-2-1.4-3.4 1.1-4.5 2.4-1.2 4.3 2.1 5.7.9 1.4-1.4 6.1-1.5 8.7-4.9 2.6-3.5 1.9 1.4 2.9.3.9-1.1 7.8-2.9 8-4.1s2.2-1.3.8-1.8c-1.4-.6-4.5.1-3.4-.7 1.1-.7 5.8-3.7 7.6-4.1 1.9-.4 5.4.2 5.9-1.2.6-1.5 1.9-2.8-.1-2.8-2.1 0 0-1.9-1.9-1.5-1.9.5-3.7 1.3-4.8.9-1-.3-1.9-1.5-3.2-3.1-3.6-5.4-6.1-20-8.6-20.7-2.6-.8-.5-2-1.6-1.3s-2 6.1-7.8 10.7-10.9 9.6-29 19.9c-18.1 10.4-23.3 16.5-24.8 16.7s-2.3 4.4-3.1 5.5-1.1 8.3-3.8 10.8c-2.8 2.4-5.2 3.9-7.8 3.8-2.7-.2-6-1.3-8.2-3.9-2.1-2.5-2.5-3.4-8.4-3.9s-18.1-3.4-19.4-4.6.3-2.4-2.5-1.6-2-.8-3.5-2-5.4-2.9-5.6-4.2 3.8-3.2 3.8-3.2-.2 2.1 1.1 1.6 6.6-.8 10.2-1.8c3.6-1.1 7.4-.1 9.2-1.7.9-.8.1-1.3.6-2.4.5-.9 2.3-1.3 2.6 0 .3 1.4.5.8 1.7 1s2.4-1.7 4.5-1.3c2.8.6 6.4-.1 8.2-1.6s.5-1 4.8-2.6c4.4-1.6 9.9-4.8 17.5-11.5 7.5-6.7 12.9-12.6 21.6-24.9s4.9-5.1 9-10.4c4.1-5.2 3.5-7 9.5-13.5s6.7-7.4 11.8-11.1 5.7-3.6 9.5-4.2 4.3 0 6.3.7 3.9 1.8 3.1.4c-.6-.9-1.5-2.4-3.2-3.1-3-1.2-3.6-1.5-6.3-1.4-2.7.2-4.7-.7-5.8.6-1.5 1.6-5.4 4.2-7.7 6.8-.6.8-1.3 2.3-2 3.4-.5.8-2 .1-1.9-1.4.3-3.2-.7-.9.1-5s.2-3.2 2.7-6.1c2.6-2.8 3.3-1.7 4.1-3.5s2.1-2 0-2.1-3.3.8-.9-.8c2.5-1.6 1.8-1.7 4.3-2.2s4.4-1.9 8.8-.9c4.4.9 12.2 5.9 14 7.8s7 7.3 10.3 9.2c3.3 1.8 1 .3 5.2 2.7s3.7 3.5 5.7 4.7c1.9 1.3 4.3 2.2 5.4 4.8 1.1 2.7 1.4 1.2 3.5 2.3s3.2.7 4.8 2.5c1.7 1.9.5 1.3 2.7 1.6 2.2.2 2.4 1.1 3.2-.1.7-1.1-5.8-9-8.4-14.5-2.7-5.6-6.9-10.6-8.1-15.8-1.3-5.2-2.2-9.5-3.8-10.5-1.5-1-1.7-9-1.3-10.5s1.1-1.6 2.1-4.6c1-3.1 1.1-2.4 0-4.4-1-2-1-6.1 0-7.2s2.3-1.6 2.6-.8c.3.9.4 3.4.4 4.9s.3 6.3.3 6.3c1.5.8 1.9 3.6 2.2-.8.2-4.4 1-2.2.1-7.1-.9-5-1.4-11.6-2.4-11.9s-2.6.1-3 2.2c-.5 2.1-.1 4.4-1.6 5-1.5.7-1.3-.9-1.8 1.3-.5 2.3.7 4.6-.8 5.4-1.5.9-2.3-4.5-4.6-7.9s-1.8-2-5.2-4.7-12-8.5-15.7-12.2c-3.7-3.6-1 .9-4.2-1.5-3.2-2.5-16.4-18.6-21.8-29.2s-3.8-8.2-7.1-10.3c-.8-.5-1.6-2.8-2.1-4.4-1.2-4.4 1.3-.8-3.4-3.2-4.7-2.5-8.4-7.3-10.8-10.1s-.6-.4-3.7-4c-3.1-3.5-4.6-4.4-2.5-5.2s3.5-.2 4.7.6c2.5 1.5.6 1.1 2.3 2.8s3 5.6 3.2 2.7 1.6-.9-.5-4.3 1.2-1.2-2.2-4.1-2.2-2.4-4-2.9c-3.1-.7-4-1.4-4-1.4s-.8-1.7 3.2-1.6c3.5.1 1.8-.5 4.6.7 2.8 1.1.4-.6 4.5 1.6 4.1 2.1 2.7-1 4 2.1s3.3 7.5 4.6 10.6-1.2 1.6 1.2 4.4 1.1 2.8 3.4 3.8c.7.3 1.8.6 2.6 1.6 1.6 2 4.3 7.4 8.9 11.4 4.7 3.9 10.4 8.1 15.3 12.5 4.8 4.4 6 5.1 7.6 7.6 1.5 2.5 1.5 2.5 2.2 3.8.7 1.4 1.4 2.1-.7 2.3s-1.8-1-3.3.5c-1.6 1.5-3.3.7-2.3 2.9s5.6 4.9 7.2 5.7c1.5.8 3 .4 5 .4 2.1 0 2.3.1 2.9 1.6.6 1.6 1.9.3 1.8 2.7-.1 2.3.3 2.8.4 4.3s-1.6 1.1-.1 2.3.8 3.4 1.5 1.2.8-1.2.8-3.3-2.3.2.9-2.8 3.6-.8 4.1-3.7 2.9-2 .4-3.8-1.5-3.1-3-1.8c-1.6 1.3 3.1 1-1.6 1.3s-3.5.8-5.6-.3-3.7-2.9-4.1-5.3.2-3.6-.8-5.2c-1.1-1.6-.8-.3-1.2-2.9-.3-2.5 1-1.5-.3-2.6-1.3-1.2-.5.8-1.2-2.3-.7-3 1.1-3.2.2-3.3-1.1-.1-4.9-1.2-5.3-1.9-.3-.7 1.1-2.9 2-4.3 1-1.4 1.4-3 1.6-3.6.3-.6 2.5-2.4 1.9-2.5s-2 .4-2.3-.4c-.3-.9.1-1.4.2-1.9.1-.7 1.5-2.6 1.5-2.6s1.3-1.9 1-3-1-2.6 0-4 1.7-2.6 1.4-3.1c-1-1.8-1.8-.6-1.8-.6l-.6 2-3.2.5c-1.5.5 2.7-3.5 2.7-3.5s-3.9.6-4.4-.3 5.6-3.1 5.4-4.9c-.2-1.7 7.5-.4 8.6-1.9 1.2-1.5 6-4.4 10.3-4.3s8.5 1.4 10.4.8 5.6-.6 6.1.3c2.3 1 4.6 3 6.7 4.6 0 0 1.3.3 1.8.8s1.6 3.6 2.6 3.9-.8 2.3.9 3.5.3 2.8 2.4 2.6 1.9 1.5 2.2-1.6c.4-3.1.5-3.4-.5-7.5s-3.2-7.9-3.2-13.9c0-5.9-.3-10.2-1.1-14.7-.7-4.5-3.2-13.6-3.2-13.6-2.8-1.1-6.1-3.5-5-4.8s3.5-1 1.6-2.5z"/><path d="m526.8 20c-200 0-362.4 163.7-362.9 366.7-.1 62.5 15.1 121.5 42.1 173.1l19.2 1.5c-28.8-51.4-45.3-111.3-45.2-174.6.4-194.1 155.5-351.1 346.8-350.6s345.8 158.1 345.3 352.2c-.1 62-15.7 120.2-43.6 170.7l19.1-2.3c25.8-50.4 40.5-107.8 40.6-168.4.5-203-161.3-368.3-361.4-368.3zm383.6 442.5s109.4 14 105.7 47.5c-4.8 44.3-185.1 73.5-450.2 74.3-238.3.7-529.6-13.3-535.9-57.5-4.7-33.2 109.4-52.8 109.4-52.8-64.6 8.3-119.4 27.6-119.4 58.2 0 26.1 87.4 44.4 202.1 55.6 64.5 100.4 176.3 167.2 303.2 167.2 129.3 0 242.6-68.1 306.9-171.3 112.4-15.3 196-39.5 196.1-69.1.2-30.7-49.5-44.1-117.9-52.1zm-98.2 123.8c-62.6 92.5-167.9 152.9-286.9 152.6-116.7-.3-219.7-59.1-282.3-149.1 102.7 9.1 223.5 12.9 322.1 12.1 83.1-.7 170.7-6.2 247.1-15.6z"/><path d="m20 972.4 6.1-20.3c2.7 2.4 9 6.1 17.2 6.1 8.4 0 14.2-5.7 14.2-13.4 0-23.7-36-27.7-36-62.2 0-21.9 14-35.8 33.7-35.8 10.2 0 19.3 3.1 24.4 7.6l-4.6 17.4c-2.9-2.4-8.6-4.9-15.7-4.9-7.7 0-13.1 4.9-13.1 13.6 0 23.8 37.5 27.9 37.5 62.5 0 22.4-14.3 37-31.7 37s-26.3-3.1-32-7.6z"/><path d="m95.9 848.5v129.7h47.4v-20h-22.1v-109.7zm305.6 0v129.7h51.7v-20h-26.7v-109.7zm61.7 0v24.2h25.3v-24.2zm47.4 0v129.7h21v-86.9l40.4 86.9h18.9v-129.7h-20.9v79.1l-37.3-79.1zm102.4 0v129.7h54.4v-20h-29.4v-36.4h25.3v-19.5h-25.3v-33.7h29.4v-20.1zm-149.8 34.4v95.3h25.3v-95.3zm210.2 19.4v19.2h18.9v-19.2z"/><path d="m182.4 848.5-34.9 129.7h21.8l6.7-27.6h30.8l6.4 27.6h25.6l-34-129.7zm131.5 0v129.7h25v-67.1l27.1 67.1h27.9l-32-69.5 29.1-60.2h-24.8l-27.3 60.2v-60.2zm-122.2 30.9h.3l11.3 54h-23.6z"/><path d="m238.2 913.4c0-34.5 13.7-66.6 42.2-66.6 10.4 0 17.9 2.9 23 7.6l-5 17.1c-2.6-2.1-6.6-3.8-12.8-3.8-17 0-21.8 23.8-21.8 45.7 0 21.3 6.1 44.5 21.8 44.5 6.6 0 10.1-1.7 12.8-3.8l5.3 18.3c-4.8 4.7-12.6 7.6-23.9 7.6-28.5 0-41.6-31-41.6-66.6z"/><path d="m681.4 848.5v13.1h20.9v116.6h16.3v-116.6h20.9v-13.1zm252.1 0v129.7h41.3v-13.1h-25v-116.6z"/><path d="m981 972.4 4.3-13.4c3.5 3 9.9 6.4 19.2 6.4 10.6 0 18.6-7.1 18.6-18.6 0-28.4-40.7-31.8-40.7-66.9 0-20.3 13.4-33.1 30.6-33.1 10.1 0 17.9 3.3 22.3 7.6l-3.4 11.6c-3.3-2.8-9-6.1-17.2-6.1-9.9 0-16.6 6.8-16.6 18.3 0 27.9 41.9 31.7 41.9 66.6 0 21.1-13.4 35.2-33.1 35.2-11.9 0-20.1-2.9-25.9-7.6z"/><path id="a" d="m759.9 913.1c0 26 4.4 52.9 23 52.9 18.8 0 23-26.9 23-52.9 0-26.4-4.9-53.5-23-53.5s-23 27.1-23 53.5zm-16.2.3c0-36.2 10.9-66.6 39.2-66.6s39.3 30.4 39.3 66.6c0 36.4-11 66.6-39.3 66.6s-39.2-30.2-39.2-66.6z"/><use transform="translate(93)" xlink:href="#a"/></g></svg>