<svg viewBox="0 0 198 100" xmlns:xlink="http://www.w3.org/1999/xlink" xmlns="http://www.w3.org/2000/svg"><clipPath id="a"><path d="m1039 20v770h794v-770zm318.9 73.3c112.7 0 179.5 33.9 236.8 82.6l-83.5 100.8c-49.9-42.4-95.9-61.1-157.6-61.1-91.4 0-173.1 80-173.1 188.1v1.7c0 109.2 74 191.6 182.5 191.6 49.4 0 91-12.1 124.9-36.4v-86.7h-133.5v-114.5h261.8v261.7c-59 50.3-143.7 95.6-257.5 95.6-176.1 0-316.9-120.8-316.9-310v-1.7c0-169.5 131.2-311.7 316.1-311.7z"/></clipPath><g transform="scale(.1)" fill="#fff"><path d="m1636.7 697.2h-20.7l-307 41.8v2.6c0 24.7 149.7 45.4 327.7 45.4 148.6 0 323.3-16.4 323.3-45.4 0-28.4-173.6-44.4-323.3-44.4z" opacity=".25"/><path d="m20 103.6h275.6c145.2 0 227.3 77 227.3 198.9v1.7c0 59.5-20.5 146.3-129.2 186.9l147.3 215.3h-155l-129.2-192.9h-104.2v192.9h-132.6zm267 292.8c76.1 0 101.6-43.2 101.6-85.3v-1.7c0-73.6-62.1-86.1-104.2-86.1h-131.8v173.1z"/><path d="m642.6 103.6h459v119.7h-326.4v130h287.6v119.7h-287.6v233.4h-132.6z"/><path clip-path="url(#a)" d="m1831.5 393.5c0 219.6-187.6 383.8-390.7 383.8-221.1 0-380.6-177.8-380.6-374.2 0-219.9 188.9-383.1 392.6-383.1 220.5 0 378.7 177.1 378.7 373.5z"/><path d="m215.4 965.6 9.4-11.2c12.1 10.5 21.2 11.5 27.9 11.5 10.2 0 15.7-4.7 15.7-11.1-.6-20.9-49.6-6.2-49.6-40.3 0-16.8 14.1-25.9 30.2-25.9 7.9 0 19.7 1.2 32.1 11.1l-8.3 11.8c-12.1-8.8-20.8-9.1-24.1-9.1-10.6 0-14.5 5.8-14.5 10.5 0 19.6 49.7 7.4 49.7 40.4 0 15.9-12 26.4-31.5 26.4-16.5 0-28.6-6.5-37-14.1z"/><path d="m338.2 889.8h34.9c20.2 0 33.7 11.1 33.7 29.9 0 23.4-20.9 30.3-35.5 30.3h-17.7v28.5h-15.4zm33.6 46.1c11.6 0 19.2-6.2 19.2-16.2 0-11.6-9.4-15.8-19.2-15.8h-18.2v32z"/><path d="m455 934.4c0-19.9 14.3-46.1 46.5-46.1 27.7 0 46.1 21.7 46.2 46.1.1 20.2-15.6 45.6-46.2 45.6-27.8 0-46.5-21.3-46.5-45.6zm76.2 0c-.1-17.9-12.8-31.8-29.7-31.8-17.6 0-30.1 14.7-30.1 31.8 0 14.5 9.9 31.1 30.1 31.3 20.1.2 29.8-17 29.7-31.3z"/><path id="b" d="m602.4 889.8h39.5c20.5 0 33 9.8 33 29.3 0 6.4-4.1 21.9-21.2 25.8l23.9 33.6h-18.4l-21.8-30.9h-19.6v30.9h-15.4zm38.3 44c13.4 0 18.2-8.3 18.3-14.7.1-9.2-5.6-15.2-18.4-15.2h-22.7v29.9z"/><path id="c" d="m750.8 904.3h-28.1v-14.5h71.9v14.5h-28.1v74.2h-15.7z"/><path d="m841.4 889.8h17.3l26.7 68.2 26.6-68.2h16.8l-36.8 89.3h-13.7z"/><path id="d" d="m979 889.8h65.5v14.1h-50.1v22.8h44.5v14h-44.5v23.7h50.8v14.1h-66.2z"/><use xlink:href="#b" transform="translate(497.9)"/><use xlink:href="#c" transform="translate(497.9)"/><use xlink:href="#b" transform="translate(741.1)"/><path d="m1471.4 978.5h15.5v-88.7h-15.5z"/><use xlink:href="#d" transform="translate(567.7)"/><path d="m1667.9 889.8h39.7c27.6 0 29.1 18.5 29.1 22.8 0 9.5-4.9 15.6-12.6 19.8 13.8 4.9 17.5 12.3 17.5 21.8 0 16.9-14.5 24.3-32.7 24.3h-41zm36.7 37.4c6.8 0 16.6-1.8 16.6-12.3 0-9.9-10.1-11.3-15.5-11.3h-22.3v23.6zm4.6 37.5c6.5 0 17-1.7 17-12.2 0-8.7-7-12.1-18.2-12.1h-24.6v24.3z"/></g></svg>