<svg viewBox="0 0 298 100" xmlns:xlink="http://www.w3.org/1999/xlink" xmlns="http://www.w3.org/2000/svg"><g id="figure"><path id="a" d="m45.7 44.1c0 1.2 0 1.2-1.2 1.2h-9.7c-1.2 0-1.2 0-1.2-1.2 0-2.4 0-4.7 0-7.1 0-.7-.2-.9-.9-.9-3.8 0-7.6 0-11.4 0-.6 0-.9.2-1.2.7-1.4 2.6-2.9 5.1-4.3 7.6-.3.6-.7.8-1.4.8h-11.3c-1 0-1.2-.4-.7-1.2l20.5-34.1c2.4-3.8 6.5-7.8 10.4-7.8h11.5c.8 0 1 .2 1 .9zm-11.9-31.3-8.4 14.7c-.3.6 0 .6.4.6h7c.7 0 1-.2 1-1z"/><path id="b" d="m83 40.5c3-3.7 5-7.9 5.2-12.7.1-3.3-1-6-4.9-7.4-2.7-.9-5.9-1.1-8.4-1-2.8.1-7.6.4-6.9-3.3.6-2.8 3.8-3.4 6.4-3.5h16.9c.6 0 1-.1 1.1-.8.7-3 1.4-6 2.2-9 .1-.5 0-.7-.6-.7-8.2.1-16.4-.2-24.5.1-9.6.3-14.8 7.6-18.3 14.8-.2.5.4 1.2.9.8 2-2 3.5-2.9 5.1-3.5-1.1 4.2-.7 11.7 4 13.5 4.2 1.5 8.5 1.5 12.8 1.4 1.8 0 3.2 1.2 2.5 3-1.1 2.4-3.8 2.8-6 2.8-5.6 0-11.3 0-17 0-1.6 0-1.4-.1-1.8 1.4-.6 2.6-1.3 5.2-1.9 7.9-.3 1-.3 1 .8 1h15c6.1-.1 13.5 0 17.5-4.7z"/><use xlink:href="#a" transform="translate(126)"/><path d="m178.2 29.7 8.2-26.7c.2-.7.6-1 1.3-1h10.4c.7 0 .9.2.6.9l-8.9 29.4c-.6 2 0 3.2 2 4 2.3.9 4.6.9 7 .2 2.5-.9 4-2.2 4.9-4.4l8.8-29.1c.2-.7.6-1 1.3-1h11.4c.9 0 .9 0 .6.9l-9.9 32.6c-2.2 6.1-8.3 9-13.9 9.8-5.5.8-11 .9-16.5.2-4.7-.5-9.6-4.1-9.2-8.8.3-2.6 1.2-4.8 1.8-6.9z"/><path d="m251.9 44.7c.5-.1.7-.3.9-.8l2.6-9.2c.2-.9.2-.9-.7-.7-5.8 1.1-11.7 1.7-17.6.9-2-.3-3.3-2-2.8-3.7l8.1-28c.3-.9.3-.9-.6-.9h-11.1c-.7 0-1.1.2-1.3.9l-7.6 25.3c-.7 2.7-1.4 5.4-1.3 8.2.4 9.1 9.6 9.2 17 9.3 4.8.1 9.6-.4 14.3-1.2z"/><path d="m269.8 2.2c-10.8.8-14.3 7.6-18.2 14.7-.4.8.5 1.2.9.7 1.7-2 4-3.7 6.2-4.3 3.2-.8 6.5-.8 9.7-.7.8 0 .4.5.3.9-3.1 10.2-6.2 20.5-9.4 30.7-.3 1-.3 1.1.8 1.1h10.7c1.4 0 1.4 0 1.8-1.3 3.1-10.2 6.2-20.4 9.2-30.6.2-.6.4-.7 1-.7h9c.7 0 1-.2 1.2-.9l2.6-8.5c.3-1 .3-1-2.4-1-8 .3-15.9-.5-23.4 0z"/><path d="m18.1 56.5c-.6 0-1 .2-1.1.9l-8.3 39.1c-.1.7 1.1.7 1.3 0l4-18.6c.3-1.2.3-1.2 1.6-1.2h23.6c.7 0 1.1-1.4.2-1.4h-23.7c-1.1 0-1.1-.1-.9-1.2l3.2-15.2c.2-.9.5-1.1 1.4-1.1h25.6c.7 0 1-1.3.2-1.3z"/><path d="m54.2 57.2-8.5 39.3c-.1.8 1.3.8 1.4.1l8.3-39.2c.2-.9-1-.9-1.2-.2z"/><path d="m97.4 56.6h-34.2c-.5 0-.7 1.3.2 1.3h15.2c.6 0 .8.1.7.8l-8 37.9c-.2.7 1.2.7 1.3.2l8-38.1c.1-.6.4-.8 1-.8h15.6c.7 0 .7-1.3.2-1.3z"/><path d="m138.5 57.2-8.2 38-23-37.7c-.7-1.1-1.9-1.2-2.3.2l-8.2 38.6c-.2 1.1 1.1 1.1 1.2.5l8.2-38.3 23.1 37.9c.8 1.1 1.9 1 2.2-.3l8.3-38.9c.1-.7-1.1-.8-1.3 0z"/><path d="m152.6 56.6c-.8 0-1.1.2-1.2 1l-8.2 38.5c-.2.9 0 1 .8 1h29.9c.7 0 1.1-1.3.2-1.3h-28.6c-1 0-1-.1-.8-1l3.7-17.3c.2-.8.6-.8 1.2-.8h27.4c.7 0 .9-1.4.3-1.4h-27.4c-1 0-1 0-.8-1l3.3-15.4c.1-.8.4-1 1.2-1h28.7c.8 0 1-1.3.2-1.3z"/><path id="c" d="m200 56.8c-5.2 1.4-8.5 4.7-9.4 10.2-.5 3.2.7 5.7 3.6 7.2 1.2.6 2.5 1 3.8 1.3 3.5.8 6.9 1.5 10.4 2.3 2 .4 3.9.8 5.8 1.6 2.8 1.2 4.1 3.3 3.8 6.2-.2 1.7-.8 3.3-1.7 4.8-1.9 2.9-4.7 4.5-7.9 5.4-3.5 1-7 1-10.5.8-2.2-.1-4.2-.6-6.2-1.5-2.7-1.2-4.5-3.2-4.9-6.2-.2-1.5-.1-3 .1-4.5.1-.8-1.1-.9-1.3-.2-.3 1.5-.4 3.1-.3 4.6.3 2.9 1.7 5.2 4.2 6.8 1.2.7 2.4 1.2 3.7 1.5 3 .8 6.2.9 9.3.8 2.8-.1 5.6-.6 8.2-1.6 4.8-1.9 7.7-4.9 8.6-10.4.6-3.2-.6-5.6-3.4-7.2-1.2-.7-2.5-1.2-3.8-1.5-4.6-1-9.1-2-13.6-3.1-1.7-.4-3.3-.9-4.7-2-4.3-4.2.7-12 4.5-13.4 5.8-1.8 12.9-2.4 18-.3 2.4 1 4.1 2.8 4.5 5.4.2 1.2.2 2.4 0 3.6-.1 1 1.2.8 1.3.1.2-1.6.3-3 0-4.6-1.4-4.4-3.2-5.2-7.3-6.5-4.2-1.2-9.6-1-14.8.4z"/><use xlink:href="#b" transform="translate(41.4)"/><use xlink:href="#c" transform="translate(43.4)"/></g></svg>