<svg viewBox="0 0 1216 100" xmlns:xlink="http://www.w3.org/1999/xlink" xmlns="http://www.w3.org/2000/svg"><g id="figure" fill="#fff"><path id="a" d="m97.2 93.9c0 2.5-.1 2.5-2.6 2.5h-21.3c-2.5 0-2.5 0-2.5-2.6 0-5.2-.1-10.3 0-15.5 0-1.5-.5-1.9-1.9-1.9-8.3.1-16.6.1-24.8 0-1.2 0-1.9.4-2.5 1.5-3.2 5.6-6.3 11.1-9.5 16.7-.7 1.3-1.6 1.8-3.1 1.8h-24.9c-2.3 0-2.6-.8-1.5-2.6l44.8-74.5c5.2-8.3 14.1-17 22.6-17l25.2-.1c1.7 0 2.1.4 2.1 2zm-26-68.4-18.4 32.3c-.7 1.3-.1 1.4 1 1.4h15.3c1.6 0 2.2-.5 2.1-2.1z"/><path id="b" d="m178.8 86.1c6.7-8 10.9-17.3 11.4-27.8.3-7.1-2.1-13.1-10.8-16.1-5.9-1.9-12.9-2.4-18.3-2.2-6.2.3-16.7.8-15.1-7.3 1.4-6.2 8.4-7.5 14-7.5h36.9c1.3 0 2.1-.2 2.4-1.7 1.5-6.6 3.1-13.1 4.7-19.7.3-1.1 0-1.6-1.3-1.6-17.8.2-35.7-.2-53.5.4-20.9.6-32.2 16.6-40 32.3-.5 1 .9 2.6 2.1 1.6 4.3-4.3 7.6-6.4 11.2-7.7-2.5 9.2-1.4 25.6 8.7 29.4 9.1 3.3 18.5 3.2 27.9 3.2 4-.1 6.9 2.6 5.4 6.5-2.4 5.2-8.2 6.1-13.1 6.1-12.3.1-24.7.1-37.1.1-3.6 0-3.1-.2-3.9 3-1.4 5.8-2.8 11.4-4.2 17.2-.6 2.2-.6 2.3 1.8 2.3 10.9 0 21.8.1 32.7-.1 13.2-.2 29.5-.1 38.3-10.3z"/><use xlink:href="#a" transform="translate(275.4)"/><path d="m386.7 62.6 17.9-58.2c.5-1.6 1.2-2.3 2.9-2.2l22.8-.1c1.5 0 1.9.4 1.4 1.9l-19.5 64.3c-1.3 4.4 0 7 4.3 8.7 5 2 10.1 2 15.3.4 5.5-2 8.7-4.8 10.6-9.7l19.4-63.5c.5-1.6 1.2-2.3 2.9-2.2l24.8.1c1.9 0 1.9 0 1.4 1.9l-21.6 71.2c-4.7 13.4-18.2 19.6-30.4 21.4-12 1.7-24.1 1.9-36.1.4-10.4-1.2-21-9-20-19.3.7-5.8 2.6-10.4 3.9-15.1z"/><path d="m547.9 95.3c1.1-.2 1.6-.7 1.9-1.8l5.8-20.1c.5-1.9.4-1.9-1.5-1.6-12.7 2.4-25.5 3.8-38.4 1.9-4.4-.6-7.2-4.3-6.1-8l17.6-61.3c.6-1.9.6-1.9-1.4-1.9h-24.2c-1.6-.1-2.4.4-2.9 2l-16.6 55.2c-1.5 5.9-3 11.8-2.8 17.9.8 19.9 20.9 20.1 37.2 20.3 10.5.2 20.9-.9 31.3-2.6z"/><path d="m587 2.4c-23.7 1.7-31.2 16.6-39.8 32.2-.8 1.8 1.1 2.5 1.9 1.5 3.8-4.3 8.8-8.1 13.6-9.4 7-1.8 14.1-1.7 21.2-1.6 1.7 0 1 1.1.7 1.9-6.8 22.4-13.6 44.8-20.5 67.2-.6 2.2-.6 2.4 1.7 2.4h23.4c3.2 0 3.1 0 4-2.9 6.7-22.3 13.5-44.6 20.2-66.9.4-1.2 1-1.6 2.2-1.6l19.7.1c1.5.1 2.1-.5 2.5-1.9l5.6-18.6c.6-2.2.6-2.2-5.3-2.2-17.5.7-34.8-1.1-51.2 0z"/><path d="m672.9 5.7c-1.4 0-2.1.5-2.4 2l-18.2 85.5c-.3 1.4 2.3 1.5 2.8 0l8.7-40.7c.6-2.7.7-2.6 3.5-2.6h51.6c1.6.1 2.5-3.1.4-3.1h-51.8c-2.4 0-2.5-.3-2-2.6l7-33.2c.4-1.9 1.2-2.4 3.1-2.4h55.9c1.6 0 2.2-2.8.4-2.8z"/><path d="m751.8 7.2-18.6 85.9c-.2 1.7 2.7 1.7 3.1.2l18.1-85.6c.4-2-2.2-2.1-2.6-.4z"/><path d="m846.2 5.9h-74.7c-1.1 0-1.6 2.8.4 2.8h33.2c1.3 0 1.9.1 1.5 1.7l-17.5 82.8c-.3 1.5 2.6 1.5 2.8.4l17.5-83.3c.2-1.3.9-1.8 2.2-1.7h34.1c1.5 0 1.6-2.9.4-2.8z"/><path d="m936 7.2-17.9 83.1-50.3-82.4c-1.5-2.5-4.1-2.7-5 .4l-17.9 84.4c-.4 2.3 2.3 2.4 2.6 1.1l17.9-83.7 50.5 82.8c1.8 2.4 4 2.1 4.8-.7l18.1-85c.2-1.5-2.4-1.8-2.8 0z"/><path d="m966.8 5.9c-1.7 0-2.3.5-2.6 2.2l-17.9 84.2c-.4 1.9 0 2.2 1.7 2.2h65.3c1.6 0 2.5-2.8.4-2.8h-62.5c-2.1 0-2.2-.2-1.7-2.2l8.1-37.8c.4-1.8 1.2-1.7 2.7-1.7h59.8c1.5 0 2.1-3 .7-3.1h-59.9c-2.2 0-2.2-.1-1.7-2.2l7.2-33.7c.3-1.8.8-2.2 2.6-2.2h62.7c1.8 0 2.2-2.8.4-2.8z"/><path id="c" d="m1070.4 6.4c-11.4 3.2-18.6 10.4-20.5 22.3-1.1 7.1 1.5 12.5 7.9 15.7 2.6 1.4 5.5 2.2 8.3 2.8 7.6 1.7 15.2 3.3 22.7 5 4.4 1 8.6 1.7 12.7 3.5 6.2 2.7 9 7.2 8.3 13.5-.4 3.7-1.7 7.2-3.7 10.5-4.1 6.4-10.3 9.8-17.3 11.8-7.5 2.1-15.2 2.2-23 1.7-4.7-.3-9.2-1.3-13.6-3.3-6-2.7-9.7-6.9-10.7-13.6-.5-3.2-.3-6.6.2-9.8.3-1.8-2.4-2.1-2.8-.4-.7 3.3-1 6.7-.7 10.1.7 6.3 3.7 11.5 9.2 14.9 2.6 1.5 5.2 2.5 8.1 3.3 6.7 1.8 13.6 1.9 20.3 1.7 6.2-.2 12.2-1.2 17.9-3.5 10.5-4.1 16.9-10.8 18.8-22.7 1.2-6.9-1.3-12.2-7.4-15.7-2.6-1.5-5.4-2.6-8.3-3.3-10-2.3-19.8-4.4-29.7-6.8-3.7-.9-7.3-2-10.3-4.4-9.5-9.2 1.6-26.3 9.8-29.3 12.6-4 28.2-5.1 39.3-.7 5.3 2.3 8.9 6 9.8 11.8.5 2.6.4 5.2 0 7.9-.3 2.1 2.6 1.8 2.8.2.5-3.4.7-6.6 0-10.1-3-9.6-6.9-11.4-16-14.2-9.2-2.6-20.9-2.3-32.4.9z"/><use xlink:href="#b" transform="translate(90.5)"/><use xlink:href="#c" transform="translate(94.8)"/></g></svg>