<svg viewBox="0 0 636 100" xmlns="http://www.w3.org/2000/svg"><g id="figure" fill="#fff"><path d="m20.6 70.1c0 11.08-1.1 13.15-18.6 24.5l.4 3.4c23.66-10.39 28.7-18.05 28.7-29.3v-63.2h-10.5z"/><path d="m78.7 49.6 11.8-32.2h.4l12.4 32.2zm18.3-44.1h-10.7l2 5.1-28 73.1h6.1l10.6-29.6h28.1l11.4 29.6h11z"/><path d="m218.08 66.66-.38.04-23.3-61.2h-3l-21.4 61.3h-.4l-17.4-61.3h-10.7l23.6 78.2h4l22-60h.4l22.5 60h4.2l22.9-78.2h-6.7l-16.3 61.2"/><path d="m292.6 79.2c-4.38 0-9.85-.57-11.7-.8v-34.5h10c14.08 0 20.8 6.24 20.8 18.7 0 9.97-6.17 16.6-19.1 16.6m-11.7-68.3s6.14-1 11.9-1c9.59 0 15.4 4.34 15.4 14.7 0 9.96-6.7 15.1-18.4 15.1h-8.9zm19.04 30.3-.04-.3c10.39-1.94 19.1-7.59 19.1-17.4 0-11.9-11.76-18.01-25.1-18.01l-23.6.01.1 78.2h21.8c20.39 0 30.8-9.65 30.8-22.1 0-10.8-9.48-18.19-23.1-20.4"/><path d="m382.1 8.9c-13.61 0-25 11.56-25 33.6 0 24.21 13.02 37.6 27.2 37.6s25.2-11.53 25.2-33.3c0-24.23-13.19-37.9-27.4-37.9zm38.8 35.8c0 22.46-16.98 39.8-37.4 39.8-20.46 0-37.8-17.34-37.8-39.8 0-22.33 16.97-40 37-40 20.84 0 38.2 17.67 38.2 40z"/><path d="m448.2 83.7h6.4v-62.5h.5l50.4 62.5h3.2v-78.2h-6.3v58.2h-.3l-48-58.2h-11.9l6 7.6z"/><path d="m542.9 83.7h50.7l.4-4.8-40.7.9v-34.3h30.6v-4.5h-30.6v-31.7l38.2 1.1v-4.9h-48.6z"/><path d="m627 2c-3.91 0-7 3.07-7 6.99v.02c0 3.89 3.1 6.99 7 6.99 3.94 0 7-3.1 7-7 0-3.96-3.09-7-7-7zm0 1c3.41 0 6 2.71 6 6s-2.59 6-6 6-6-2.7-6-6 2.59-6 6-6zm-2.6 2.4v6.8h1v-2.59l1.8-.01 1.9 2.6h1.2l-2.1-2.7c1.01-.24 1.8-.94 1.8-2v-.1c0-1.24-1.16-2-2.5-2zm1 .9h2c.91 0 1.6.47 1.6 1.2v.1c0 .74-.65 1.1-1.6 1.1h-2z"/></g></svg>