<svg viewBox="0 0 168 100" xmlns="http://www.w3.org/2000/svg"><g id="figure" fill="#fff"><path d="m119.4 6.1c4.2 0 7.6 3.4 7.6 7.6s-3.4 7.7-7.6 7.7-7.7-3.5-7.7-7.7 3.5-7.6 7.7-7.6z"/><path d="m97.3 2c5.3 0 9.5 4.3 9.5 9.6s-4.2 9.5-9.5 9.5-9.6-4.2-9.6-9.5 4.3-9.6 9.6-9.6z"/><path d="m71.7 3.6c6.6 0 11.9 5.4 11.9 12s-5.3 11.9-11.9 11.9-12-5.3-12-11.9 5.4-12 12-12z"/><path d="m43.4 13.8c8.3 0 14.9 6.7 14.9 14.9 0 8.3-6.7 14.9-14.9 14.9-8.3 0-15-6.6-15-14.9s6.7-14.9 15-14.9z"/><path d="m20.7 39.9c10.3 0 18.7 8.3 18.7 18.6s-8.4 18.7-18.7 18.7-18.7-8.4-18.7-18.7 8.4-18.6 18.7-18.6z"/><path d="m42.1 75.6h9.3l4.1-19.6h.1l2.6 19.6h10.6l11.2-19.6h.1l-4.1 19.6h10.2l5.5-26h-16.7l-9 17.4h-.1l-1.7-17.4h-16.6z"/><path d="m89.5 75.6h11l2-9.7h12.3l1.2-5.4h-12.3l1-4.6h12.9l1.4-6.3h-24z"/><path d="m123.3 75.6h11l4.1-19.7h8.6l1.3-6.3h-28l-1.4 6.3h8.6z"/><path d="m142.4 75.7c-1.4 0-2.3-1.1-2.3-2.4 0-1.4 1-2.4 2.3-2.4s2.2 1 2.2 2.4-.9 2.4-2.2 2.4zm0-5.3c-1.6 0-2.9 1.1-2.9 2.9 0 1.7 1.2 2.9 2.9 2.9 1.5 0 2.8-1.1 2.8-2.9s-1.3-2.9-2.8-2.9zm-.6 2.8v-1h.6c.4 0 .7.1.7.5 0 .5-.3.5-.7.5zm0 .4h.5l.8 1.4h.6l-.9-1.4c.5-.1.8-.3.8-.9 0-.7-.3-1-1.1-1h-1.2v3.3h.5z"/><path d="m76.7 90.5v2.9h1.1c1.3 0 2-.6 2-1.5 0-1-.9-1.4-2.2-1.4zm0-3.8v2.7h.9c1.4 0 1.9-.6 1.9-1.5 0-.7-.3-1.2-1.6-1.2zm-1.4 7.9v-9.1h2.8c1.9 0 3 .8 3 2.2 0 1.9-1.4 2.1-1.5 2.1.1 0 1.7.4 1.7 2.1 0 1.2-.7 2.7-3.5 2.7z"/><path d="m84.2 91.3c0 1.5.6 2.2 1.7 2.2.9 0 1.7-.7 1.7-2.2 0-1.4-.6-2.3-1.7-2.3-.9 0-1.7.8-1.7 2.3zm-1.5 0c0-2 1.2-3.5 3.2-3.5 1.8 0 3.2 1.2 3.2 3.5 0 2.1-1.2 3.4-3.2 3.4-1.9 0-3.2-1-3.2-3.4z"/><path d="m94.8 89.1c-.4-.1-.7-.1-1-.1-1.1 0-2 .7-2 2.5 0 1.3.5 2.1 1.4 2.1 1.1 0 1.6-1.3 1.6-2.4zm.1 5.5c0-.4 0-.8.1-1.2h-.1c-.4.8-1.1 1.3-2.1 1.3-1.6 0-2.5-1.2-2.5-3.1 0-2.3 1.3-3.8 3.5-3.8.3 0 .6.1 1 .1v-3.1h1.4v9.8z"/><path d="m101.3 95.1c-.8 2.2-1.7 2.9-3.2 2.9-.3 0-.7-.1-.9-.1l.2-1.2c.2.1.5.1.8.1.6 0 1.3-.3 1.7-1.5l.2-.7-2.5-6.7h1.6l1.1 3.1c.2.6.4 1.1.5 1.7h.1c.1-.5.4-1.3.6-2l1-2.8h1.5z"/><path d="m105.9 92.7v-3.7h-1.3v-1.1h1.3v-2.1l1.4-.4v2.5h1.8v1.1h-1.8v3.3c0 1 .2 1.2.9 1.2.3 0 .6-.1.8-.1l.1 1.2c-.4.1-1 .1-1.4.1-1.4 0-1.8-.5-1.8-2z"/><path d="m111.8 90.4h2.9c0-1-.6-1.5-1.4-1.5s-1.4.6-1.5 1.5zm0 1c0 1.5.7 2.2 2 2.2.6 0 1.3-.1 1.9-.4l.2 1.1c-.7.3-1.6.4-2.4.4-2.1 0-3.2-1-3.2-3.4 0-2 1.1-3.5 3.1-3.5 1.9 0 2.7 1.3 2.7 2.9 0 .7-.1.7-.1.7z"/><path d="m121.4 91.5c-2 0-2.5.6-2.5 1.2 0 .5.3.9.9.9 1 0 1.6-.9 1.6-1.9zm.1 3.1c0-.4.1-1 .1-1.2-.1.2-1.2 1.3-2.3 1.3s-1.8-.7-1.8-1.8c0-1.5 1.5-2.3 3.9-2.3v-.4c0-.8-.4-1.3-1.4-1.3-.6 0-1.4.2-1.9.5l-.3-1.2c.7-.3 1.6-.4 2.5-.4 2 0 2.6.9 2.6 2.2v2.8 1.8z"/><path d="m133.4 94.6v-4.2c0-.8-.2-1.4-1-1.4-.9 0-1.7.9-1.7 2.4v3.2h-1.4v-4.2c0-.8-.2-1.4-1-1.4-.9 0-1.7 1-1.7 2.4v3.2h-1.4v-6.7h1.4c0 .4 0 1-.1 1.4 0 0 .6-1.5 2.3-1.5 1.3 0 1.7.8 1.8 1.4.3-.6 1-1.4 2.2-1.4 1.3 0 2 .7 2 2.2v4.6z"/><path d="m144.4 94.6h-1.6l-1.5-4.9-1.5 4.9h-1.5l-2.1-6.7h1.6l1.4 5 1.4-5h1.5l1.5 5 1.4-5h1.5z"/><path d="m148.8 91.3c0 1.5.6 2.2 1.7 2.2.9 0 1.7-.7 1.7-2.2 0-1.4-.6-2.3-1.7-2.3-.9 0-1.7.8-1.7 2.3zm-1.5 0c0-2 1.2-3.5 3.2-3.5 1.8 0 3.2 1.2 3.2 3.5 0 2.1-1.2 3.4-3.2 3.4-1.9 0-3.2-1-3.2-3.4z"/><path d="m158.9 89.2c-1.3-.3-2 .7-2 2.7v2.7h-1.4v-6.7h1.3c0 .4 0 1-.1 1.5.1-.1.4-1.6 2.3-1.6z"/><path d="m164.2 94.6-2.3-3.3v3.3h-1.4v-9.8h1.4v5.9l2.2-2.8h1.7l-2.4 3.1 2.6 3.6z"/></g></svg>