<svg viewBox="0 0 694 100" xmlns="http://www.w3.org/2000/svg"><g id="figure"><path d="m66.1 2h18.3c.7 0 1.6 0 2.3.1-.9 1.2-1.9 2.4-2.9 3.5-7 8.2-14 16.3-20.8 24.7-7.8 9.7-15.3 20-21.2 31 25.8-4.6 62.5-.6 82.6 25.7l-15.7 11c-42.4-40.2-94.1-10.6-106.7-2.3.6-12.1 5.5-22.3 12.2-33.2 13-21 29-40 45.8-58 2.3-2.5 2.5-2.5 6.1-2.5z"/><path d="m154.2 6.2v85.1h17.5v-33.9h32.1c8.3 11.3 16.5 22.6 24.8 33.9h20.3c-9-11.3-17.9-22.7-26.8-34 14.3-1 24.8-7.3 25-24.6.2-19.2-13.8-26.5-29.7-26.5zm63.2 15.9c7.2 0 11.5 4.2 11.4 10.7-.1 7.7-4.8 10.5-11.4 10.5h-45.6v-21.2z"/><path d="m261.8 6.2h92.5v15.9h-75v18.1h62.5v14.7h-62.5v20.6h75v15.8h-92.5z"/><path d="m372.5 6.2h92.5v15.9h-75v18.1h62.5v14.7h-62.5v20.6h75v15.8h-92.5z"/><path d="m474.7 6.2h23.3l38.3 69.5h2.1l38.3-69.5h23.2l-51.3 85.1h-22.5z"/><path d="m620 6.2-49.6 85.1h22.8l11-20.6h54l11 20.6h22.8l-49.6-85.1zm29.8 48.6h-37.2l17.5-33h2.2z"/></g></svg>