<svg viewBox="0 0 137 100" xmlns="http://www.w3.org/2000/svg"><g transform="scale(.1)"><g><path d="m537.5 20h293.5l113.2 443.3 112.4-443.3h293.4v728.6h-182.8v-555.6l-140.8 555.6h-165.5l-140.6-555.6v555.6h-182.8z"/><path d="m20 914.1 55.6-3.4c2.5 19 12 32.1 33.2 32.1 20.7 0 26-12.6 26-19.5 0-35.1-107.7-15.1-107.7-83.6 0-15.3 7-55.3 80.4-55.3 53 0 73.6 21.3 77.9 56.4l-55.1 3.2c-2.5-14.8-10.1-24.4-28.6-24.4-3.4 0-20.5.8-20.5 14.9 0 25.7 110.4 8.6 110.4 80.8 0 22.8-12.5 64.7-83.7 64.7-50 0-81.9-14.4-87.9-65.9z"/><path d="m210.6 908.5c0-38.5 23.5-71.9 78.5-71.9 55.2 0 78.9 38.7 78.9 71.9 0 37.2-23.9 71.3-78.9 71.3-55.1 0-78.5-33.5-78.5-71.3zm52.7 0c0 11.7 3 35.8 25.8 35.8s26.1-23.6 26.1-35.8c0-11.7-3.3-35.8-26.1-35.8s-25.8 24.1-25.8 35.8z"/><path d="m394.7 787.6h52.7v189.1h-52.7z"/><path d="m624.9 976.7h-49.1v-22.2c-15.4 19.2-29.3 25.3-49.5 25.3-20.4 0-46.3-8.7-46.3-52.9v-87.2h52.7v75.3c0 7.4.7 23.7 18.2 23.7 18.1-.2 21.5-18.6 21.5-33.1v-66h52.5z"/><path d="m719.7 787.6v52.1h28.9v38.4h-28.9v48.6c0 8.2.4 15.9 10.7 15.9 3.9 0 9.3-1.1 16.2-3.3l3.9 36.2c-13 2.8-25.1 4.3-36.4 4.3-37.7 0-47.1-14.2-47.1-53.5v-48.2h-19.3v-38.4h19.3v-25.2z"/><path d="m775.1 787.6h52.5v35.7h-52.5zm0 52.1h52.5l-.3 137h-52.2z"/><path d="m854.5 908.5c0-38.5 23.5-71.9 78.5-71.9 55.2 0 78.9 38.7 78.9 71.9 0 37.2-23.9 71.3-78.9 71.3-55.1 0-78.5-33.5-78.5-71.3zm52.7 0c0 11.7 3 35.8 25.8 35.8s26.1-23.6 26.1-35.8c0-11.7-3.3-35.8-26.1-35.8s-25.8 24.1-25.8 35.8z"/><path d="m1085.5 839.7v22.3c15.1-18.8 29.1-25.4 49.6-25.4 38.3 0 46.4 28.7 46.4 53v87.1h-52.8v-75.3c0-7.3-.6-23.7-18.2-23.6-18.2.1-21.4 18.6-21.4 33.1v65.8h-52.5v-137z"/><path d="m1204.3 938.6 52.1-4.9c4.1 11.7 11 17.3 24.5 17.3s20.9-6 20.9-12.9c0-23.7-91.7-3.2-91.7-58.7 0-36.1 38.3-42.8 66.6-42.8 33.2 0 56.1 3.7 68.7 36.6l-49.9 4.9c-3.3-11.3-13.2-13.8-21.4-13.8-4.6 0-17 .9-17 10.8 0 21.6 92.9.4 92.9 57.1 0 12.3-5.7 47.5-71.7 47.5-29.9 0-65.5-3.7-74-41.1z"/></g><path fill="#e52320" d="m443.8 748.6h-423.8c4.8-41.8 19.6-81.2 44.2-118.1 56.6-84.8 183-152.3 218-200.6 11.5-16 17.3-31.1 17.3-45.4 0-29.8-23.8-56.2-60.3-56.2-53.3 0-63.3 47.9-67.3 77l-141.5-11.5c9.8-70.6 33.7-118.2 93.1-144.4 26.9-11.9 64.2-17.9 111.8-17.9 49.7 0 88.4 5.7 116 17 57 23.4 89 74.4 89 131.1 0 31-9 60.6-27.2 88.8-18.1 28.2-51 59.4-99 92.9-51.3 35.8-63.6 45.3-90.9 72.2h220.6z"/></g></svg>