<svg viewBox="0 0 444 100" xmlns="http://www.w3.org/2000/svg" xmlns:xlink="http://www.w3.org/1999/xlink"><g id="figure" fill="#fff"><path id="k" d="m24.6 2.5v41.4c.4-.2.7-.4 1.1-.8 9.6-13.1 20.4-27.5 30-40.6l22.2 6c-10 13.2-19.9 26.4-29.9 39.6 10.3 14.6 20.7 29.3 31 43.9-7.9 2-15.9 4-23.9 6-9.8-14.9-19.6-29.8-29.4-44.7-.2-.4-.7-.6-1.1-.8v42.3c-7.5.7-15.1 1.5-22.6 2.2v-92.4c7.5-.7 15.1-1.4 22.6-2.1z"/><path d="m126.3 2.6c-26.9 0-48.7 21.4-48.7 47.7s21.8 47.7 48.7 47.7 48.7-21.4 48.7-47.7-21.8-47.7-48.7-47.7zm0 20.8c14.4 0 26 12 26 26.9s-11.6 26.9-26 26.9-26-12-26-26.9 11.6-26.9 26-26.9z"/><use transform="translate(183.1)" xlink:href="#k"/><path d="m291 2.5v56.1c.4 12 2.9 18.5 14.6 18.6 11.3-.1 15.8-6.1 15.9-20.9v-51.7c7.5-.7 15.1-1.4 22.6-2.1v61.9c0 20.5-16.6 33.6-38.5 33.6-20.8 0-37.2-8.4-37.2-32.2v-61.2c7.5-.7 15.1-1.4 22.6-2.1z"/><path d="m392.7 2.3c-16.3 30.3-32.5 60.7-48.8 91.1 7.3 1.6 14.6 3 21.9 4.6l9.3-19.5h34.6c3.1 6.5 6.2 13 9.3 19.5 7.7-1.5 15.3-3 23-4.6-16.6-30.3-32.6-60.9-49.3-91.1zm0 37c4 7.4 8 14.8 12 22.2h-24.2c4-7.4 8.2-14.8 12.2-22.2z"/><path d="m435.2 2c-3.8 0-6.8 3.1-6.8 7s3 7 6.8 7 6.8-3.1 6.8-7-3-7-6.8-7zm0 1.2c3.1 0 5.7 2.6 5.7 5.8s-2.6 5.8-5.7 5.8-5.7-2.6-5.7-5.8 2.6-5.8 5.7-5.8z"/><path d="m432.3 4.9v8.2h1.1v-3.6c.7 0 1.2 0 1.7.3.9.7 1.4 2.1 1.9 3.3h1.4c-.7-1.3-1.1-2.6-2.5-3.8 1.2-.3 2-.9 2-2.3 0-.7-.4-2.1-2.7-2.1zm1.1 1.1h1.8c1.4 0 1.6.7 1.6 1.3s-.5 1.2-1.6 1.2h-1.8z"/></g></svg>