<svg viewBox="0 0 1343 100" xmlns="http://www.w3.org/2000/svg" xmlns:xlink="http://www.w3.org/1999/xlink"><g fill="#c8d400"><path d="m29.2 1s-11 0-13.1 11l-14.8 76s-2.1 11 8.9 11h88s11 0 13.1-11l14.8-75.9s2.1-11-8.9-11z"/><path d="m203.2 85c14.7-.6 25.5-6.7 28.3-20.3l5.7-29.4c2.9-14.1-8.8-20.2-20.4-20.3h-42.9l-13.7 70zm-62.5 14 19.1-98h59.8c22 .1 38.7 11.9 34.5 34.3l-5.7 29.4c-4.8 23.1-23.5 34.5-47.8 34.3z"/><path d="m286 1h16.8l-16.3 84h67.2l16.2-84h16.8l-16.3 84c-2.3 8.8-11 14-19.5 14h-67.2c-8.1 0-15.6-5.8-14.1-14z"/><path d="m432 1-8.2 42.3 64.3-42.3h23.7l-73 48 56.5 50h-23.7l-50-44.1-8.6 44.1h-16.8l19-98z"/><path d="m528 1h85.7l-2.7 14h-68.9l-5.4 28h58.7l-2.7 14h-58.8l-5.4 27.9h68.9l-2.7 14h-85.7z"/></g><g fill="#3d3d3c"><path d="m637.2 1h85.7l-2.7 14h-68.9l-5.4 28h58.8l-2.7 14h-58.8l-8.2 42h-16.8z"/><path d="m761.4 1-19 98h-16.8l19-98z"/><path d="m779.8 1h94.1l-2.7 14h-38.6l-16.3 84h-16.8l16.3-84h-38.6z"/><path d="m890.2 99h-16.8l19-98h16.8l55.9 76 14.8-76h16.8l-19 98h-16.8l-56-76z"/><path d="m1025.2 1h85.7l-2.7 14h-68.9l-5.5 28h58.8l-2.7 14h-58.8l-5.4 27.9h68.9l-2.7 14h-85.7z"/><path id="p3-a" d="m1140.3 57c-8 0-15.6-5.8-14.1-14l5.5-28c2.3-8.7 11.1-14 19.5-14h57.1c8 0 15.7 5.8 14.1 14l-2.5 12.6h-16.8l2.5-12.6h-57.1l-5.4 28h57.1c8 0 15.7 5.8 14.1 14l-5.4 27.9c-2.3 8.8-11.1 14-19.5 14h-58.7c-8.1 0-15.6-5.8-14.1-14l2.4-12.6h16.8l-2.4 12.6h58.7l5.4-27.9z"/><use xlink:href="#p3-a" transform="translate(119.3)"/></g><g fill="#fff"><path id="a" d="m35.2 30.4c-3.2 0-5.3-2.6-4.7-5.9.7-3.2 3.8-5.9 7.1-5.9 3.2 0 5.3 2.6 4.7 5.9-.7 3.2-3.8 5.9-7.1 5.9z"/><use xlink:href="#a" transform="translate(31.9)"/><use xlink:href="#a" transform="translate(63.9)"/><path d="m34.7 32.9-6.5 31.7h63.9l6.5-31.7-20.6 24-11.4-24-21.1 24.2z"/><path d="m88.7 81.3h-63.9l2.2-10.8h63.9z"/></g></svg>