<svg viewBox="0 0 510 100" xmlns="http://www.w3.org/2000/svg"><g id="figure" fill="#fff"><path d="m20.4 52.1-4.1 9.9h71.4l4.1-9.9zm-7.4 17.8-11 27.4h23.6l7.1-17.8h47.8l4-9.6z"/><path d="m128.5 52.1-13.4 33.1h39.4l-4.7 12h-63.2l18.4-45.1z"/><path d="m486.2 2c-14.3.5-29.3 2.9-42.6 6.9-13.3 3.8-26.1 9-38.6 14.9-28.5 14.1-54.2 29.4-77.3 47.8l-11.4-18.6-16.1 10 17.6 34.3c7.4-6.2 15.3-12.2 23-18 34.2-24.8 69.7-47.7 109-63.7 15.4-6.6 30-10 45.1-12.5 2.5-.4 3.5-.5 5.3-.7-4.6-.3-9.3-.4-14-.4zm-222.8 49.8 20.2 45.5 16.7-10-18.2-35.5z"/><path d="m391.4 52.1-4.1 9.9h23.7l4-9.9zm-18.3 45.1h23.6l11.1-27.3h-23.7z"/><path d="m497.1 69.4-11.2 27.8h-24.1l10.5-25.6c4.4-10.2-12.1-8.2-20.9-8.2l-13.5 33.8h-23.5l18.3-45.1h37.2c11 0 33.4 1.9 27.2 17.3z"/><path d="m499.4 89.5v-2h2c1 0 1.8.1 1.8 1.1 0 1.1-1.5.9-2.6.9zm2.2-3.1h-3.3v7.9h1.1v-3.6h1.5l2 3.6h1.3l-1.9-3.6c1-.1 2-.7 2-2.2 0-1.7-1.3-2.1-2.7-2.1z"/><path d="m495.1 90.2c0-3.3 2.6-5.9 5.8-5.9s6 2.6 6 5.9c0 3.4-2.8 5.9-6 5.9s-5.8-2.5-5.8-5.9zm-1.2 0c0 4 3.1 7 7 7 4 0 7.1-3 7.1-7 0-3.9-3.1-7-7.1-7-3.9 0-7 3.1-7 7z"/><path d="m171.7 63.8c-5.7 3.3-11.5 8.9-11 16 .5 6.8 7.1 10.8 12.8 13.1 6.4 2.6 13.4 4.1 20.3 4.3 18.4.5 37.2-2.3 52-11.2 5.4-3.2 11-8.1 11.7-14.7.7-6.4-5.3-10.9-10.4-13.6-9.7-5.1-20.9-5.9-31.7-5.7-15.3.2-31.6 4.7-43.7 11.8zm56.9 14.3c-5.6 2.9-11.7 4.4-17.8 5.1-7.6.8-15.6.1-22.5-3.4-5.1-2.6-3.1-7.8 1.6-10.4 6.7-3.5 14.4-4.9 21.9-5.1 5.7-.2 13.6 1 19 3.8 5.2 2.7 1.6 8-2.2 10z"/></g></svg>