<svg viewBox="0 0 180 100" xmlns="http://www.w3.org/2000/svg"><clipPath id="a"><path d="m109.2 146.2c-49.3 0-89.2 39.9-89.2 89.2s39.9 89.2 89.2 89.2c8.2 0 16-1.3 23.6-3.2 57.4-14.4 90 2.9 107.6 58.7 5.8 18.5 14.2 34.6 27.5 48.1 40.7 41.3 41.4 78.4 1.1 118.9-17.5 17.6-30.4 40.3-30.4 67 0 49.3 39.9 89.2 89.2 89.2s89.2-39.9 89.2-89.2c0-26.8-13-49.5-30.5-67.1-41-41.2-38.8-78.6 3.9-121.4 16.3-16.3 26.6-38.6 26.6-63.5 0-49.3-39.9-89.2-89.2-89.2-8.5 0-16.7 1.3-24.5 3.4-60.2 15.8-91.8-2.7-107.7-63-10.1-38.5-44.8-67.1-86.4-67.1z"/></clipPath><g id="figure"><g transform="scale(.1)"><path d="m494 804.3 77.9-366.3h194.7l-5.7 184.2 71.6-184.2h192.6l-77.9 366.3h-135.1l48.2-227.1-93.7 227.1h-112.5l2.6-227.1-48.1 227.1z"/><path d="m1143.2 683.4-25.6 120.9h-144.9l77.9-366.3h288.4l-23.4 103.8h-143.4l-9.6 49h122l-19.4 92.6z"/><path d="m1569.7 542.1-56 262.2h-145.5l55.4-262.2h-87.3l21.9-104.1h321.4l-22 104.1z"/><path d="m1735.6 485.3c-24.5 0-44.4 19.9-44.4 44.4s19.9 44.4 44.4 44.4 44.4-19.9 44.4-44.4-19.9-44.4-44.4-44.4zm0 8.4c19.9 0 36 16.1 36 36s-16.1 36-36 36-36-16.1-36-36 16.1-36 36-36zm-16.3 13.7v44.6h11.2v-15.2h5.8l8.2 15.2h11.8l-10-17.6c5.2-1.8 8.2-6.8 8.3-12.3 0-7.6-6.9-14.7-15.9-14.7zm11.2 10h7.6c3.1 0 4.7 1.6 4.7 4.7s-1.6 4.7-4.7 4.7h-7.6z"/><path d="m910.5 864h-4.3c-.3 0-.8.3-.9.6l-5.8 32.5c-.1.4.3.6.6.6h4.3c2.8 0 4.8-1.5 6-4.8 1.4-3.7 4.1-18.9 4.3-24 .1-2.8-1.4-4.9-4.2-4.9zm-9.8 54.7h-4.3c-.3 0-.8.4-.9.8l-6.8 38.4c-.1.3.2.8.5.8h4.4c2.8 0 5.1-2.5 5.9-5.1 2-6.3 5.3-23.5 5.4-29.8.1-2.8-1.4-5.1-4.2-5.1zm19.3-9.3c4.7 3.5 6.6 8.2 6.2 15.2-.7 12.6-3.8 27.6-6.1 34.8-3.5 11.2-12.2 19.5-23 19.5h-31.8c-.9 0-1.4-.6-1.2-1.5l23-132.2c.2-1.1 1.1-1.8 2-1.8h31.4c10.8 0 16.4 7.9 16.2 19.8s-2.3 23.9-5.4 31.4c-3.2 7.5-4.8 8.7-10.8 12.2-1.2.7-1 2.2-.5 2.6z"/><path d="m977.9 885.3c2.7-17.1 4.1-22.7-2.5-22.7-3.3 0-4.8 2.3-5.6 5.3-2 7.3-11 60-12.4 69.1-2.6 16.9-4.2 22.7 2.4 22.7 3.3 0 4.8-2.2 5.6-5.2 2-7.3 11-60 12.5-69.2zm-21.4 94.7c-25.3 0-24.5-22.3-20.3-45.9 13.1-74.4 15.8-91.7 42.5-91.7 25.3 0 24.4 22.3 20.2 45.9-13.1 74.4-15.7 91.7-42.4 91.7z"/><path d="m1024.1 958.7c3.3 0 4.9-2.2 5.6-5.2 2.9-12.1 11.1-56.3 12.9-66.4 3-17.1 4.5-23.3-2.1-23.3h-4c-.2 0-.6.4-.7.7l-16.6 93.4c-.1.3 0 .8.7.8zm-28.3 20.2c-.9 0-1.4-.6-1.2-1.5l23.1-132.2c.2-.9 1-1.8 1.9-1.8h31.4c18.7 0 17.6 23.8 13.6 44.9-12.6 67.4-16.2 90.6-37.1 90.6z"/><path d="m1095.2 977.4c-.2.9-1.1 1.5-2.1 1.5h-18.1c-.8 0-1.6-.6-1.4-1.5l9.9-56.4-4.5-75.5c-.1-1 .5-2.1 1.9-2.1h18.1c1 0 1.5.9 1.5 1.8l-2.5 51.3c-.1 1.1.9 1.2 1.3 0l15.5-51.3c.3-.9 1.3-1.8 2.1-1.8h18.2c.9 0 1.8.7 1.2 2.1l-31.1 75.5z"/><path d="m1134.2 978.9c-.9 0-1.4-.6-1.2-1.5l19.9-112.8c.1-.3-.2-.6-.4-.6h-13.6c-.9 0-1.6-.8-1.4-1.7l3-17.1c.2-.9 1.1-1.8 1.9-1.8h49.8c1 0 1.6.9 1.4 1.8l-3 17.1c-.2.9-.9 1.7-1.9 1.7h-13.5c-.4 0-.7.3-.8.6l-20 112.8c-.2.9-1 1.5-1.9 1.5z"/><path d="m1250.7 843.4c.9 0 1.5.9 1.3 1.8l-3 17.1c-.2.9-.9 1.7-1.8 1.7h-26.2c-.3 0-.6.2-.7.7l-5.7 32.3c-.1.5 0 .7.3.7h20.6c.9 0 1.5.8 1.3 1.8l-3 17.3c-.2.9-1 1.6-1.9 1.6h-20.4c-.5 0-.8.1-.9.6l-6.8 38.6c-.1.5-.1.7.3.7h26.2c.9 0 1.6.7 1.4 1.6l-3 17.5c-.2.9-1 1.6-1.9 1.6h-46.5c-.9 0-1.5-.7-1.3-1.6l23-132.2c.2-.9 1.2-1.8 2.1-1.8z"/><path d="m1277.9 885.2c.3-2.4-2.9-2.5-3.4 0l-11.9 53.9c-.1.4.2.7.6.7h6.6c.3 0 .7-.3.7-.7zm-10.7 93.7c-1 0-1.5-.6-1.4-1.5l2.3-18.9c0-.3-.2-.5-.6-.5h-8.5c-.3 0-.6.2-.7.5l-4.4 18.9c-.2.9-1 1.5-1.9 1.5h-17.8c-.9 0-1.6-.7-1.3-1.9l36.5-132c.3-1.2 1.1-1.6 2-1.6h22.3c.7 0 1.5.5 1.4 1.6l-8 132c-.1 1.2-.9 1.9-2.1 1.9z"/><path d="m1327.6 978.9c-.9 0-1.5-.7-1.5-1.4l1.9-55.8c0-.8-1.1-.8-1.2 0l-9.8 55.7c-.2.9-1.1 1.5-2 1.5h-18.1c-.9 0-1.4-.7-1.2-1.6l23-132.1c.2-.9 1.1-1.8 2-1.8h20.4c.9 0 1.4.7 1.4 1.6l-1.2 66.8c0 .9.9.9 1.2 0l22.9-66.8c.3-.9 1-1.6 1.9-1.6h20.4c.9 0 1.4.9 1.2 1.8l-23.2 132.2c-.2.9-1 1.5-1.9 1.5h-18.4c-.9 0-1.4-.6-1.2-1.5l9.8-55.7c.1-.7-1-.8-1.2 0l-18 55.9c-.2.7-.8 1.3-1.7 1.3z"/><path d="m1438 901.6c-.3 1.9 2.9 2.5 3.4 0l11.7-56.4c.2-.9 1.2-1.8 2.1-1.8h18.1c.9 0 1.6.9 1.4 1.8l-36.8 132.2c-.2.9-1 1.5-1.9 1.5h-16.5c-.8 0-1.3-.6-1.2-1.5l5.4-53.3c.2-1.9-2.8-2.2-3.3 0l-12.9 53.3c-.2.9-1 1.5-1.9 1.5h-16.4c-.9 0-1.6-.6-1.5-1.5l9.8-132.2c.1-.9 1.1-1.8 2.1-1.8h18.2c.9 0 1.3.9 1.2 1.8l-8.2 56.4c-.3 2 2.8 2.3 3.3 0l11.9-56.4c.2-.9 1-1.8 1.9-1.8h17.1c.9 0 1.4.9 1.3 1.8z"/><path d="m1508.7 885.3c2.7-17.1 4.1-22.7-2.5-22.7-3.3 0-4.8 2.3-5.6 5.3-2 7.3-11 60-12.4 69.1-2.6 16.9-4.1 22.7 2.5 22.7 3.3 0 4.8-2.2 5.6-5.2 2-7.3 10.9-60 12.4-69.2zm-21.3 94.7c-25.3 0-24.5-22.3-20.3-45.9 13.1-74.4 15.7-91.7 42.4-91.7 25.3 0 24.5 22.3 20.3 45.9-13.1 74.4-15.7 91.7-42.4 91.7z"/><path d="m1572.1 864h-4.7c-.4 0-.6.3-.7.6l-5.6 32.6c-.1.4 0 .5.3.5h4.6c2.8 0 4.7-1.5 5.9-4.8 1.4-3.7 4.2-20.3 4.4-24s-2.1-4.9-4.2-4.9zm9.8 44.2c4.8 3.4 6.9 9.6 5.7 16.4l-9.2 52.8c-.2.9-1 1.5-1.9 1.5h-18.4c-.9 0-1.4-.6-1.2-1.5l9.4-53.6c.5-2.8-1.4-5.1-4.2-5.1h-4.1c-.4 0-.8.2-.9.7l-10.2 58c-.2.9-1 1.5-2 1.5h-18c-.9 0-1.6-.6-1.4-1.5l23-132.2c.2-1.1 1.2-1.8 2.1-1.8h31.5c10.8 0 16.4 7.9 16.2 19.8s-2.2 22.8-5.4 30.3c-2.8 6.6-5.6 8.8-10.7 12.1-1.1.7-1.1 2-.3 2.6z"/><path d="m1626.8 892.5c-.2.8 1 1 1.4.2l21.3-47.9c.3-.7 1.1-1.4 1.8-1.4h18.5c.9 0 1.8.9 1.2 2.1l-29.9 61.3c-.2.3-.3.6-.2 1.2l8.1 68.8c.1 1.2-.7 2.1-1.9 2.1h-17.9c-.9 0-1.5-.5-1.5-1.2l-3.9-62.1c-.1-1.1-1.1-.8-1.2 0l-10.6 61.8c-.2.9-1.1 1.5-2 1.5h-18.1c-.9 0-1.4-.6-1.2-1.5l23-132.2c.2-.9 1-1.8 1.9-1.8h18.4c.9 0 1.4.9 1.2 1.8z"/><path clip-path="url(#a)" d="m19.9 145.7v205.3l397.3-104.9v-100.4z"/><path clip-path="url(#a)" d="m19.9 350.9 397.3-104.9v153.2l-304.5 305.1h-92.8z"/><path clip-path="url(#a)" d="m417.2 399-304.7 305.3h304.7z"/><path d="m327.9 20c-49.3 0-89.2 39.9-89.2 89.2s39.9 89.2 89.2 89.2 89.2-39.9 89.2-89.2-39.9-89.2-89.2-89.2z"/><path d="m546.5 145.9c-49.3 0-89.2 39.9-89.2 89.2s39.9 89.2 89.2 89.2 89.2-39.9 89.2-89.2-39.9-89.2-89.2-89.2z"/><path d="m109.2 401.7c-49.3 0-89.2 39.9-89.2 89.2s39.9 89.2 89.2 89.2 89.2-39.9 89.2-89.2-39.9-89.2-89.2-89.2z"/></g></g></svg>