<svg viewBox="0 0 203 100" xmlns="http://www.w3.org/2000/svg"><g id="figure" fill="#fff"><path d="m47.4 16.5c-1.1 1.3-1.6 2.7-1.7 4.3-5.9 1.3-12 3-17.6 5.4-2.4 1-4.7 2.3-6.8 3.9-4.3 3.1-5.9 7.5-2.2 11.6 1.5 1.7 3.5 2.9 5.4 4 3.4 1.9 7.1 3.3 10.8 4.5 5.2 1.7 10.7 2.9 16.1 3.9s10.8 1.8 16.3 2.5c.9 1.5 2.3 2.6 3.6 3.5-4.6-.2-9.3-.7-13.9-1.3-5.1-.6-10.2-1.4-15.2-2.3-5.4-1-10.7-2.1-15.9-3.6-4-1.2-8.1-2.6-11.9-4.3-2.8-1.2-5.6-2.7-8-4.6-2.5-2.1-4.4-4.2-4.4-7.2 0-3.6 3-6.3 5.6-8 3.2-2.2 7-3.8 10.7-5.2 5.8-2.1 11.7-3.7 17.7-5 3.8-.8 7.6-1.6 11.4-2.1z"/><path d="m62 3.2c.5.5.8 1.2.8 1.9 0 1.4-.2 2.7-.4 4-.1.5-.2 1 .2 1.4.3.3.6.2 1 .1 1.4-.3 2.9-.8 4.4-.9 1.9-.1 3.8-.2 5.7-.7s3.8-1.1 5.8-1.3c.8-.1 1.7 0 2.5-.1.7-.1 1.3-.5 1.9-.7 1.5-.4 3.1-.5 4.6-1 .5-.2 1.1-.3 1.5-.7.6-.6.4-1.4.7-2.1.5-.5 1.5-.5 2.2-.5 1.1 0 2-.1 3 .5 0 .5 0 1.2-.2 1.7-.2.3-.7.5-1 .8-.4.4-.5 1-1 1.2s-1 .4-1.4.7c-1.6 1-3.3 1.9-5.1 2.6-.9.3-1.9.7-2.8.7-.5 0-1-.1-1.5.3-1.3.9-2.6 1.9-4.1 2.4-.5.2-1.1.3-1.6.3 0 .2-.2.4-.1.6.2.2.5.4.7.6 2.6 1.9 5.2 3.8 7.8 5.6.7.5 1.7.5 2.5.6 4 .6 7.8 2.7 11.1 4.9 3 2 5.7 4.3 8.4 6.7.6.5 1.1 1.1 1.9 1.2.6.1 1.3 0 1.9.1 1.1.2 2.2.7 3.3 1.1 2.5 1 4.9 2.3 7.2 3.6 4 2.2 7.8 4.5 11.6 7 .5.3 1.1.6 1.7.5 1-.2 2.2-.7 3.3-.6.7.1 1.1.5 1.5.9 1.1 1.2 2.2 2.5 3.2 3.8.4.5.8.9 1.4 1.1.4.2.7.1 1.1 0-.1-.4-.1-.6-.4-.9-1.1-1.2-2.3-2.5-3.4-3.7h1.1c1.4 1.2 2.9 2.3 4.2 3.5.3.3.5.7.5 1.2 0 .4-.2.9-.6 1.1-.6.4-1.3.3-2 .3-.9.5-1.8.9-2.9.9-1.9.1-3.5-.7-5.1-1.7-.7-.4-1-1-1.7-1.3-2.7-1.1-5.4-2.2-8.1-3.3-5.9-2.4-11.8-4.7-17.8-7-.6-.2-1.2-.2-1.8-.4-1-.3-2-.7-2.9-1.1-4.3-1.9-8.7-4-13-5.9-1.7-.7-3.4-1.5-5.1-2.1-.5-.2-1-.4-1.5-.1-1.4.6-2.8 1.5-4 2.4-1.3.9-2.5 1.9-3.7 3-.3.3-.7.6-.9 1-.1.4.2.5.5.6.5.2 1 .2 1.5.4 1.3.4 2.3 1.4 3.2 2.3 1.3 1.3 2.4 2.9 3.5 4.4.7.9 1.4 1.6 2.2 2.3s1.8 1.2 2.6 1.9 1.5 1.4 2.1 2.3c.4.6.7 1.3 1 2 .5 1.1.1 1.4-.9 1.6-2.6.4-5.2.8-7.8 1-1 .1-2.1.2-2.9.4h-2.7c0-.8.8-1.4 1.4-1.8 1.3-.8 2.6-1.5 3.9-2.4 1.7-1.1.6-2.1-.9-3-4.4-2.5-8.8-5-13-7.8-1-.7-2-1.4-2.9-2.2-.6-.5-.9-1.1-.9-1.9 0-1.1.5-2.1 1-3 1.6-2.7 3.8-5.3 5.6-7.9.3-.5.7-1.1.9-1.7-.3-.6-1.1-.9-1.7-1.1-1.8-.6-3.9-.9-5.8-1.2-.5.9-.5 1.8-.7 2.8-.6 3.1-1.4 6.1-2.8 9-.2.5-.6.8-1.1.9-1.2.3-2.4-.1-3.5-.6-2.4-1.1-4.8-2.7-7.1-4.1-.9.3-1.8.2-2.7-.1-.3-.2-.6-.4-.6-.8-.2-.5-.3-1.1-.3-1.7 0-.3.1-.5.1-.8 0-.4.3-.5.6-.7 1-.5 2.2-.7 3.3-.4.5.4.7 1.2 1.2 1.7.3.3.9.4 1.3.5 1.3.3 2.7.6 4 .9.5.1 1 .4 1.4.6-.1-1.2-.4-2.4-.4-3.6.1-1.1.3-2.1.3-3.2 0-.9-.5-1.8-.8-2.6-.4-1-.7-1.9-.5-3s.7-2.2 1.1-3.3c.1-.3.3-.6.1-.9-.2-.4-.6-.2-1-.2-1.2.2-2.7.5-3.8.1-.5-.4-.4-1.3-.5-1.9-.5-.2-1.1-.2-1.7-.2 0-1.3.3-2.7.3-4 0-.5-.2-.8-.5-1.2-.4-.5-.7-1-.9-1.5 1-.6 2.1-1 3.2-1.5 1.4-.6 2.8-.8 4-.8 1.5 0 2.7.4 3.5 1.2z"/><path d="m81.6 56.6c-.4 0-.4.7.1.9.7.2 1.4.1 2.1.2 5.9.4 11.9.8 17.8.6 5.2-.1 10.4-.3 15.6-.6 16.3-1.2 31.3-2.5 46-6.1 5.9-1.5 13.9-3.8 19.2-8.1 5.7-4.5 4.7-10.6.3-13.8-4.8-3.6-10.6-5.7-15.9-7.2-10.4-2.7-21.2-4.3-31.1-5.3-7.9-.8-15.7-1.4-23.6-1.6-5-.1-10-.1-15-.1-.5-1.2-1.3-2-2.2-2.9 2.3-.2 6.6-.2 7-.2 13.7.1 28.5 1.2 40.4 2.4 9 1 18.1 2.2 27 4.1 5.6 1.2 11.3 2.7 16.7 4.8 6.5 2.5 15 6.7 15 13.4 0 11.1-28.6 17.6-43.9 19.9-18.2 2.7-37.1 4.2-48.8 4.2-10.9 0-26.6-.7-28.6-2.5-.6-.6-.8-1.4-.8-2.2z"/><path d="m2.1 75.4h6.9v7.8h14.3v-7.8h7v22.4h-7v-8.5h-14.3v8.5h-6.9z"/><path d="m35.1 75.4v14.6c0 2.2.5 4 1.7 5.4 1.5 1.7 4 2.6 7.2 2.6h10.4c3.2 0 5.7-.9 7.2-2.6 1.2-1.4 1.7-3.2 1.7-5.4v-14.6h-6.9v13.3c0 2.8-1.7 3.5-4.1 3.5h-6.2c-2.4 0-4.1-.7-4.1-3.5v-13.3z"/><path d="m68.3 75.4v22.4h22.6c2.5 0 4.6-.8 6-2.5 1-1.3 1.4-3 1.4-4.6v-8.2c0-1.6-.4-3.3-1.4-4.6-1.4-1.7-3.5-2.5-6-2.5zm7 5.6h13.3c1 0 1.8.5 2.4 1.4.5.8.4 1.9.4 2.8v2.8c0 .9.1 2-.4 2.8-.6.9-1.4 1.4-2.4 1.4h-13.3z"/><path d="m110.9 75c-5.1 0-8.8 2.1-8.8 7.7v7.6c0 5.6 3.7 7.7 8.8 7.7h13.1c5.1 0 8.8-2.1 8.8-7.7v-7.6c0-5.6-3.7-7.7-8.8-7.7zm2.2 6h8.7c2.1 0 3.9 1 3.9 3.4v4.2c0 2.4-1.8 3.4-3.9 3.4h-8.7c-2.1 0-3.9-1-3.9-3.4v-4.2c0-2.4 1.8-3.4 3.9-3.4z"/><path d="m158.5 75.4h-21.5v22.3h6.9v-5.7h10.9c1.6 0 2.6.7 2.6 2.1v3.6h6.9v-4.8c0-2.1-1.5-3.6-3.5-4 3.5-.7 3.7-3.1 3.7-6.3 0-4.5-1.4-7.2-6-7.2zm-3.2 5.6c1.8 0 2.5.9 2.5 2.6s-.9 2.7-2.5 2.7h-11.4v-5.3z"/><path d="m179 75.4-12 22.3h7.8l1.8-4h14l1.8 4h7.8l-12-22.3zm4.6 5.3 4.2 8.2h-8.4z"/><path d="m198.1 79.6c-.2-.2-.2-.6-.3-.9-.1-.5-.2-.6-.6-.6h-.2v1.5h-.7v-3.4h1.1c.9 0 1.4.2 1.4.9 0 .5-.5.7-.7.8.4.1.5.6.5.9 0 .1.1.5.3.8m-1.4-2.1c.3 0 .6-.1.6-.4s-.3-.4-.6-.4h-.5v.8"/><path d="m197.5 74.9c-1.6 0-3 1.3-3 3s1.4 3 3 3 3-1.3 3-3-1.4-3-3-3zm0 .5c1.4 0 2.5 1.1 2.5 2.5s-1.1 2.5-2.5 2.5-2.5-1.1-2.5-2.5 1.1-2.5 2.5-2.5z"/></g></svg>