<svg viewBox="0 0 544 100" xmlns="http://www.w3.org/2000/svg" xmlns:xlink="http://www.w3.org/1999/xlink"><g id="figure" fill="#fff"><path d="m12.8 24.6h92.9v14h-92.9c-2.8 0-10.8-.9-10.8-7.3s8.3-6.7 10.8-6.7z"/><path d="m531.2 24.6h-92.9v14h92.9c2.8 0 10.8-.9 10.8-7.3s-8.3-6.7-10.8-6.7z"/><path d="m120.3 2v51h29v8.5h-38.1v-59.5z"/><path id="a" d="m208.2 2v8.6l-28.9-.1v17h24.6v8h-24.6v17.5h29v8.5h-38.1v-59.5z"/><path d="m229.2 2v59.5h25.5c3.6 0 7.2-1.2 10-3.5 4.2-3.4 6-8.3 6.1-13.6 0-3.5-1.1-6.3-2.5-8.6-1.7-2.6-4.3-4-7.1-4.9 3.2-1.7 5.9-3.9 7.6-7.2 1.4-2.9 1.4-6.6.6-10.2-.5-2.1-1.8-6.1-6.5-9-3-1.7-6.5-2.5-12.2-2.5zm22.2 8.1c2.3.1 4.8.5 6.6 2 3.4 2.9 3.8 8.7.8 12-1.7 2.1-4.3 2.8-6.9 2.9h-13.7v-16.9zm-.6 25c2.2 0 4.2.1 6.3 1 5.3 2.4 6.5 11.1 1.3 15.1-2 1.5-4.4 1.8-6.8 1.8h-13.4v-17.8z"/><use transform="translate(122.6)" xlink:href="#a"/><path d="m375.3 2h-23.7v59.5h9v-25.4h11.4l12.3 25.4h10.8l-13.7-26.4c7.4-3 9.7-7.5 10.7-11.2 1.1-3.9.9-8.3-.7-12.1-1.6-3.9-6.6-9.7-16.1-9.8zm0 8.1c2.2.1 4.4.5 6.2 2 3.7 2.9 4 10.7-1.2 14.4-1.8 1.2-3.9 1.6-6.1 1.6h-13.6v-18z"/><path d="m449.1 2v8.1h-16.3v51.4h-9.1v-51.4h-16.3v-8.1z"/><path id="b" d="m124.4 79.9v3.6h-8v3.6h7.3v3.7h-7.3v6.7h-3.8v-17.6z"/><path d="m139.5 79.9v17.6h-3.8v-17.6z"/><path d="m164 79.9v3.4h-5v14.2h-3.8v-14.2h-5.1v-3.4z"/><path d="m179.8 80 7.5 12.1v-12.2h3.9v17.6l-5.2-.1-7.6-12.4-.1 12.5h-3.8v-17.6z"/><path d="m203.7 79.9h11.9v3.6h-8.1v3.1h7.7v3.6h-7.7v3.6l8.6.1v3.6h-12.4z"/><path id="c" d="m233.9 79.4c1.9 0 3.8.7 5.3 1.9l-2.6 2.7c-1.5-1-3.3-1.5-4.9-.5-.8.6-.9 2 0 2.6 2 1.3 4.6 1.1 6.3 3 1.3 1.2 2 4.3-.4 7-1.4 1.4-3.2 1.9-5.1 1.9-2.2 0-4.2-.6-5.9-2l2.6-3.2c.7.7 1.3 1.2 2.3 1.4 1.1.3 2.5.2 3.3-.6.7-.7.6-1.9-.2-2.4-1.5-1-3.5-1.2-5.1-2.1-1-.6-1.8-1.3-2.2-2.4-.5-1.8-.2-3.8 1.1-5.2 1.5-1.6 3.4-2.1 5.5-2.1z"/><use transform="translate(22.8)" xlink:href="#c"/><use transform="translate(177.2)" xlink:href="#b"/><path d="m321.4 79.4c-5 0-9.5 3.2-9.5 9.3s4.5 9.3 9.5 9.3c4.5 0 9.5-2.5 9.5-9.3s-5-9.3-9.5-9.3zm0 3.6c3.1 0 5.5 2.1 5.5 5.7s-2.4 5.7-5.5 5.7c-2.1 0-5.4-1.3-5.4-5.7s3.3-5.7 5.4-5.7z"/><path d="m342.3 97.5h3.9v-7h2.1l3.5 7h4.7l-4.5-7.4c2.6-.7 3.8-2.5 3.8-5-.1-4.1-2.6-5.2-6.6-5.2h-6.9zm8.5-14.2c2.2 0 2.2 3.8 0 3.8h-4.6v-3.8z"/><path d="m388.8 80-7.6 17.5 4.3-.1 1.4-3.5h6.9l1.5 3.5 4.3.1-7.6-17.5zm1.6 5.1 2.3 5.4h-4.5z"/><path id="d" d="m410.3 79.9h3.9v13.9h7.2v3.7h-11.1z"/><use transform="translate(22)" xlink:href="#d"/></g></svg>