<svg viewBox="0 0 100 100" xmlns="http://www.w3.org/2000/svg"><g id="figure"><g transform="scale(.1)" fill="#fff"><path d="m500 20a480 480 0 00-480 480 480 480 0 00480 480 480 480 0 00480-480 480 480 0 00-480-480zm0 12.4a467.6 467.6 0 01467.6 467.6 467.6 467.6 0 01-467.6 467.6 467.6 467.6 0 01-467.6-467.6 467.6 467.6 0 01467.6-467.6z"/><path d="m500 131a369 369 0 00-369 369 369 369 0 00369 369 369 369 0 00369-369 369 369 0 00-369-369zm0 12.4a356.7 356.7 0 01356.7 356.6 356.7 356.7 0 01-356.7 356.7 356.7 356.7 0 01-356.7-356.7 356.7 356.7 0 01356.7-356.7z"/><path d="m279.3 386.9c38.8 11.7 104.3 23.5 104.1 73.1-.3 83.6-101.6 102.7-132 106.6-34.1 4.3-69.1 3.4-103.1-.3l1.7 11.4c34 2.5 68.6 4 102.5.1 132.4-15.2 144.1-92.4 143.6-117.5-1.2-56.7-68.8-70.8-94.8-77.8 18.8-14 41.2-17.7 63.8-17.6 65.8.3 140.2 46 144.7 57.4 18.1 46.1 10.2 83.5 2.6 101.3-19.1 44.6-75.2 86.6-141.3 114.2-64.6 27-146.9 44.3-176.2 50.7l7.4 10.9c58.5-14.3 117.6-26.8 173.7-49 54.7-22.7 123.7-62 148.6-123.2 13.4-32.9 12.2-64.1 1.7-96.8 16.2 9.9 30.4 23.4 45.4 35.2 67.5 53.3 137.8 103.8 212.9 145.8l46.5 26 4.1-10.7-28.6-17.2c5-29.2 1.8-59.2-6-87.3-7.7-31.2-25.8-57.1-46-80.6 25.5 8.9 49.8 22.5 71.5 38.6 10.9 8 23.5 17.2 32 27.8v-15.9c-27.9-24.9-61.2-48.1-98-61.3-37.2-13.3-80.5-17.9-119.2-9 12.7 19.1 26.7 34.8 25.7 59.5-.5 13.1-7.3 20.9-14.9 30.5-26.8-17.9-52.4-37.7-77.4-58-61.4-50-120.3-100.7-211.3-100.6-29.6 0-61.7 9.5-83.5 33.7zm396.3 41.1c16.5-.2 33.1 1.4 49.2 5.1 7.1 1.6 13.2 5.6 18 10.6 21.6 22.8 37.1 50 46.5 79.6 8.2 25.9 10.4 54 6.9 81.5-47.4-25.1-92-55.8-136.1-86.2 8.8-11.4 16.5-22 17.3-37.1 1-20.6-8-36-18.3-52.8 5.5-.4 11-.7 16.5-.8zm-159.1 201.3c11 9.7 26.8 19.5 30 34.9 3.2 15.1-3.6 36.8-68.8 75.2-47.7 28.1-102.1 52.3-148.1 75.4l11.6 6.7c68.9-32.7 115.1-55.9 141.8-71.3 40.2-23.3 78.7-52.1 74.4-86.5-1.5-11.8-9.7-19.5-16.4-28.6 18.3-8.2 64.6 3.3 78.4 7.5 69 21.6 132.5 72.2 152.1 91.6l7.1-9c-27.1-27.8-96.1-76.5-155.4-92.8-41.4-11.3-78.9-13.8-106.7-3.1z"/><path d="m61.2 427 60.6 40.3 2.5-14.9-13.3-8.6 4.4-26.3 15.4-3.8 2.7-15.8-70.5 18.2zm19.3-3 21.2-5-2.9 17.3z"/><path d="m74.6 365.6 12.9 4.3 6.6-19.6 47.5 15.9 4.3-12.9-47.5-15.9 6.6-19.6-12.9-4.3z"/><path d="m118.7 265.4 45.9 25.5 15-27 12.4 6.9-21.9 39.4-58.3-32.5z"/><path d="m175.4 190.1 28.6 66.9 10.3-11.1-6.4-14.5 18.1-19.6 14.9 5.3 10.9-11.8-68.9-23.3zm17.8 8.1 20.5 7.4-11.9 12.9z"/><path d="m280.8 107 34.6 53.8-8 4.8-43.7-12 18.4 28.6-11.4 7.4-34.8-54.1 7-4.5 45.7 14-19.6-30.4z"/><path d="m315.8 86.4 4.8 12.7 19.4-7.3 17.8 46.8 12.7-4.8-17.8-46.8 19.4-7.3-4.8-12.7z"/><path d="m406 58.5 10.8 62.7 13.4-2.3-10.8-62.7z"/><path d="m492 47.8c-20.2 0-30.9 15.2-30.9 31.8 0 16.7 10.7 31.8 30.9 31.8 14.2 0 23.8-8.6 25.6-10.7l-6.5-9.1c-3.2 3.3-8.6 8.2-17.3 8-11.7-.2-19.2-8.4-19.2-20.1s7.4-19.8 19.2-20.1c8.7-.2 14 4.7 17.3 8l6.5-9.1c-1.8-1.9-11.4-10.5-25.6-10.5z"/><path d="m610.2 77.3c-2.4 5.8-.8 10.3 2.3 14.3 8.5 11.1 29.7 15.9 25.6 24.1-1.5 3-7.3 3.6-12.2 1.4-9-4.1-12.2-10.6-13.2-14.7l-14.5 3.5c1.1 7.2 9.2 19.1 22.7 24.9 11 4.7 26.1 2 32.3-13 2.4-5.8.8-10.3-2.3-14.3-8.5-11.1-29.7-15.9-25.6-24.1 1.5-3 7.1-3.2 11.9-.8 6 2.9 11.4 9.1 12.5 13.3l12.9-3c-1.1-7.2-8.9-19-20.4-24-11-4.8-25.9-2.5-32.1 12.5z"/><path d="m723 103.2-58.4 43.4 13.2 7.4 12.6-9.6 23.3 13.1-1.6 15.7 14 7.9 6.7-72.5zm-3.7 19.2-2.4 21.7-15.3-8.6z"/><path d="m786.8 146.3-25 24.8c-14.8 14.6-13.6 28.8-2.8 39.8 10 10.2 24.7 12 39.6-2.6l25-24.8-10-10.1-24.6 24.3c-9 8.9-15.1 7.9-19.9 3.2-4.8-4.8-5.7-11.3 3.2-20.1l24.6-24.3z"/><path d="m882.1 262.9-53.8 34.6-4.8-8 11.9-43.7-28.6 18.4-7.4-11.4 54.1-34.8 4.5 7-13.9 45.7 30.4-19.6z"/><path d="m913.6 321.7-72.7-3.9 5.4 14.1 15.8.7 9.6 24.9-11.3 11.1 5.7 15 51.4-51.5zm-15.1 12.4-15.7 15.1-6.3-16.4z"/><path d="m919.7 398.8c-6.3.1-9.7 3.3-12.3 7.7-6.9 12.1-3 33.6-12.2 32.9-3.3-.2-6.2-5.3-6-10.7.2-9.9 5-15.3 8.4-17.9l-8.9-12c-6.2 3.8-14 15.9-14.1 30.7 0 12 8.4 24.8 24.6 24.7 6.3-.1 9.8-3.3 12.3-7.7 6.9-12.1 3-33.5 12.2-32.9 3.3.2 5.7 5.3 5.4 10.7-.3 6.6-4 14-7.4 16.7l7.8 10.7c6.2-3.8 14.1-15.6 14.2-28.1.1-12-7.8-24.8-24-24.7z"/><path d="m224.3 776.1-42 51.1 40.1 33 8.6-10.5-29.6-24.3 9-11 27.9 23 8.6-10.5-27.9-23 7.1-8.6 28.7 23.5 8.6-10.5z"/><path d="m276.9 840.9c-3.3 5.3-2.5 10-.1 14.5 6.5 12.3 26.7 20.6 21.2 28-2 2.7-7.8 2.4-12.2-.6-8.2-5.5-10.2-12.4-10.6-16.7l-14.9 1.1c-.1 7.2 5.9 20.4 18.3 28.4 10.1 6.5 25.4 6.3 34-7.5 3.3-5.3 2.5-10 .1-14.5-6.5-12.3-26.7-20.6-21.2-28 2-2.7 7.5-1.9 11.9 1.2 5.4 3.8 9.7 10.9 10.1 15.2l13.2-.8c.1-7.2-5.6-20.2-16.1-27.1-10-6.5-25.1-6.8-33.7 7z"/><path d="m351.7 858.8-3.9 13 19.8 5.9-14.3 48 13 3.9 14.3-48 19.8 5.9 3.9-13z"/><path d="m422.6 929.1a8.7 8.7 0 00-8.7 8.7 8.7 8.7 0 008.7 8.7 8.7 8.7 0 008.7-8.7 8.7 8.7 0 00-8.7-8.7z"/><path d="m548.9 923.9c-10.4 1.2-9.6 6.7-9.3 8.9l.4 3.8 40.5-4.6 1.5 13.5-54.4 6.1-1.8-16.2c-1.9-16.7 6.3-21.6 15.5-24.4 10.6-3.2 22.6-3.3 21.6-12-.4-3.3-2.7-7.6-14.5-6.4-13.8 1.4-15 9.3-15.5 14.6l-12 .9c-.8-16.9 7.5-26.6 24.4-28.5 16.5-1.8 29.4 1.6 31.4 19.2 2 17.8-16.9 23.8-27.9 25z"/><path d="m626.8 861.9c-20.4 5.1-22.4 23.8-18.1 40.9s14.9 32.6 35.3 27.5 22.1-23.7 17.8-40.8-14.6-32.7-35-27.5zm3.5 13.8c11.5-2.9 15.3 7.8 17.7 17.2 2.4 9.5 4.1 20.6-7.5 23.5-11.5 2.9-15.5-7.7-18-17.1-2.5-9.5-3.8-20.7 7.8-23.6z"/><path d="m714.6 870.3c-8.9 5.4-5.9 10.1-4.7 12l2 3.3 34.9-21.2 7.1 11.6-46.8 28.4-8.5-13.9c-8.7-14.4-3.4-22.3 3.8-28.6 8.3-7.4 19.1-12.5 14.6-19.9-1.7-2.8-5.6-5.8-15.8.3-11.9 7.1-9.7 14.7-7.9 19.8l-10.5 5.8c-7.8-15-4.4-27.3 10.2-36.1 14.2-8.6 27.4-10.9 36.5 4.2 9.3 15.4-5.3 28.7-14.8 34.4z"/><path d="m758.8 788.2c-16.1 13.6-9.7 31.2 1.6 44.7 11.4 13.5 27.7 22.8 43.7 9.3 16.1-13.5 9.5-31-1.9-44.5-11.3-13.5-27.4-23-43.5-9.4zm9.2 10.9c9.1-7.7 17.2.3 23.5 7.7 6.3 7.5 12.7 16.8 3.6 24.4-9.1 7.7-17.3-.1-23.7-7.5s-12.5-16.9-3.4-24.6z"/></g></g></svg>