<svg viewBox="0 0 445 100" xmlns="http://www.w3.org/2000/svg" xmlns:xlink="http://www.w3.org/1999/xlink"><path d="m77.3 98c-1.8 0-2.4-3.2-2.9-5.4-6.5-25.7-12.2-51.5-18.8-77.2l1.9-.1c4.8 14.4 8.1 30.8 15.4 44.1 1.8 3.4 4.7 8.3 8.5 8.3 3.5 0 6.7-2.1 19.5-26.9 15.1-29.1 15.9-32.1 20.1-38.8-4.8 16.9-10.7 34-16.6 51.2-4.4 12.9-9.7 25.7-18.1 36.5-2.5 3.2-6.8 8.3-9 8.3z" fill="#f14b25"/><g fill="#232122"><path d="m45.7 2c1.8 0 2.4 3.2 2.9 5.4 6.5 25.7 12.3 51.5 18.9 77.2l-2 .1c-4.8-14.4-8.1-30.8-15.4-44.1-1.8-3.4-4.7-8.2-8.5-8.2-3.5 0-6.7 2-19.5 26.8-15.1 29.1-15.9 32.1-20.1 38.8 4.8-16.9 10.7-34 16.6-51.2 4.4-12.9 9.7-25.7 18.1-36.5 2.5-3.2 6.8-8.3 9-8.3z"/><path id="a" d="m153.4 62.6-3.4 7.8-20.1-.9c-15-.7-12.9 5.3-7 5.5l8.6.3c4.2.1 5.4 2.6-.2 3.5l-14.3 2.4c-3.5.6-3.8 4.1 2 3.8l27.6-1.4-3 8.1-34.1-.7c-6-.1-6.7-3.5-5.4-7.3 1.4-4.2 3.1-5.1 7.3-6.6-4-1.9-3.4-5-1.2-8.3 2-3.1 5.7-5 9.6-5.1z"/><path d="m199.7 62.1-17.1 13.5 15.3 16-9.7-.1-11.5-11.4c-7.6 5.9-14.2 11.2-24.2 11.9l19.6-16.4-11.8-11.4c6.2-.3 12.8 3.3 18 6.5l7.9-6.7c.7-.6 1.7-1.2 2.5-1.2z"/><path d="m203.2 62.7 43.4 1.3-3.4 6.6h-19.8l-4.6 13.2c-.5 1.4 1 2 2.9 1.9l4.7-.2-1.6 5.5-12.8.5c-2.2.1-4.3-1.9-3.5-3.9l6.2-16.1c-2.4-.4-5.8-.5-8.3-1.7-1.7-.8-3.4-2.2-3.3-5.2z"/><path d="m288.6 62.8c2.5 0 2.7 3.2 2.7 4.2 0 3.6-.2 13.5-15 17.6l4 7.3h-9.1l-4.7-8.2c-3.5 0-5 .8-10.2.9 4.1-7.4 18-6.3 22.2-7.4 2.4-.6 3.3-3.8 3.9-6.1-8.9.1-17.9.2-26.7 1.1l-4.4 19.4-9.1.1 8.2-28.1c12.9-.4 21.1-.8 38.2-.8z"/><use transform="translate(186.4)" xlink:href="#a"/><path d="m387.4 91.2h-9.4l5.6-16.4c.5-1.4 1.4-4.1-.1-4.2-6.3-.3-11.5-.3-17.9-.1-3.6.1-7.7 5.8-11.8 10.2-4.5 4.7-12.4 11-19.5 10.2 4.2-4.7 8.6-9.4 12.6-14.2 10.1-12.1 12.2-13.1 22.8-13.1 7.5 0 25.8-.1 23.2 8.7-1.8 6.3-3.7 12.6-5.5 18.9z"/><path d="m369.1 74c1.9 0 3.1.5 6.7.7l-5.2 16.8c-2.9.4-5.7.8-7.9.9z"/><use transform="translate(289.6)" xlink:href="#a"/></g></svg>