<svg viewBox="0 0 274 100" xmlns="http://www.w3.org/2000/svg" xmlns:xlink="http://www.w3.org/1999/xlink"><g id="figure"><path d="m73.4 6.8 4.4-2.7-.4-2.1-6.9 2.9-5.4 12.7-11.6 17.5-6.1 5 8.8 1.8-29.7.4-18.2 6-6.3 6.2 7.7 8.1 4.1-1.9-1.5-1.8-2.7.5-2.2-2.9 4.2-3.9s17.6-2.3 17.6-2.4c0-.2 12.5 2 12.5 2l-7.7 2.4-7.1 7.3.9 11.1-8.5 8.9-.4 5.4-4.5 4.5 2.1 1 4-2.4 2.6-4.8 12.4-3.7 2.1-7.3 7.7 4.4.9 11.8 4.4 3.4 2.6 3.9 1.9-.3-1.2-4.6-3-3.1 7-12.9-1.3-4.4-9.8-6.3-4.3-.6 11.3-3.5 5.9-3.7 12.7-1 2.1-3.4-1.7-2 2.4-3.6-2.4-4.1-10.5-2.2 5.6-10.1s2.4-15.6 2.4-15.6l5.5-4.8v-1.7l-4.2 2 1.8-5.2"/><path d="m115.7 55.5v-17.3h-10.9v6.5h1.9v10.7c0 .9-.3 1.8-2.2 1.8-1.8 0-2.1-.7-2.1-1.8v-27.5c0-1 .4-1.7 2.1-1.7 1.9 0 2.2.8 2.2 1.7v5.7h8.9v-5.7c0-5.5-3.6-8.1-11.1-8.1-7.4 0-11.1 2.7-11.1 8.1v27.5c0 5.4 3.6 8.1 11.1 8.1s11.2-2.6 11.2-8.1z"/><path d="m133.5 63v-42.6h-9v42.6z"/><path id="x" d="m165.2 36.4v-8.8c0-5.2-2.9-7.2-10.4-7.2h-11.6v42.5h12.1c7.1 0 10.2-2.3 10.2-7.7v-8.7c0-2.3-.9-4-2.8-5.1 1.7-1.1 2.5-2.7 2.5-4.9zm-13 8.3h2.4c1.8 0 1.9.6 1.9 1.4v9c0 .6 0 1.2-1.8 1.2h-2.6zm4.2-8.7c0 1.7-.2 2.2-1.9 2.2h-2.3v-11.1h2.4c1.6 0 1.8.3 1.8 1.9z"/><use transform="translate(30.1)" xlink:href="#x"/><path d="m203.6 28v27.5c0 5.4 3.6 8.1 11.1 8.1 7.4 0 11.1-2.6 11.1-8.1v-27.5c0-5.5-3.6-8.1-11.1-8.1s-11.2 2.7-11.2 8.1zm9 0c0-.8.2-1.7 2.2-1.7 1.9 0 2.1.8 2.1 1.7v27.4c0 1.1-.4 1.8-2.1 1.8-1.9 0-2.2-.9-2.2-1.8z"/><path d="m258.3 62.9v-42.5h-8.2v13.8c0 3.3.1 6.4.2 9.2l-7.6-23h-8.4v42.5h8.2v-13.6c0-3-.1-6.3-.2-9.4l7.7 23.1z"/><path d="m268.2 23.2c-.3-.4-.3-.9-.3-1.4-.1-.8-.5-.9-1.1-1h-.3v2.3h-1.1v-5.3h1.9c1.3 0 2.1.3 2.2 1.4 0 .8-.7 1.1-1.1 1.2.2.1.3.2.4.3.3.3.3.8.4 1.2 0 .1.1.8.4 1.2m-2.2-3.3c.5 0 .9-.1 1-.6 0-.5-.5-.7-1-.7h-.8v1.3"/><path d="m267.3 15.8c-2.6 0-4.7 2.1-4.7 4.7s2.1 4.7 4.7 4.7 4.7-2.1 4.7-4.7-2.1-4.7-4.7-4.7zm0 .8c2.1 0 3.9 1.7 3.9 3.9 0 2.1-1.8 3.9-3.9 3.9s-3.9-1.7-3.9-3.9c0-2.1 1.8-3.9 3.9-3.9z"/><path id="y" d="m96.9 75.2c.1-1.2 1.8-1.2 2.9-1.2 1.5 0 3 .4 4.5 1.2l.2.1 1.3-1.7-.2-.2c-1.5-1.1-3.4-1.7-5.6-1.7-1.6 0-3 .3-3.9 1-1 .7-1.5 1.6-1.5 2.8 0 1.1.5 2 1.3 2.5 2.3 1 4.6.5 7 1.2.9.3 1.1.8 1.1 1.2 0 .5-.3.9-.8 1.2-.6.3-1.5.5-2.6.5-1.8 0-3.4-.5-5-1.6l-.2-.1-1.2 1.8.2.2c1.5 1.3 3.5 2 6.2 2 1.9 0 3.2-.3 4.2-1s1.5-1.7 1.5-3c0-1-.3-1.8-1-2.4-2.2-2.3-8.5-.5-8.4-2.5z"/><path d="m113.1 72v11.9h10v-2.3h-7.8v-9.6z"/><path d="m128.4 83.9h2.4l1.2-2.5h6.5l1.2 2.5h2.4l-5.6-11.9h-2.4zm9-4.8h-4.3l2.2-4.6 2.2 4.6"/><path d="m157.7 75.6.1.1 2-.8-.2-.3c-1.4-2-3.4-3.1-6-3.1-1.8 0-3.3.5-4.6 1.6-1.4 1.2-2.1 2.8-2.1 4.7 0 2 .7 3.5 2.1 4.7 1.2 1 2.8 1.6 4.6 1.6 1.3 0 2.4-.2 3.4-.6s1.8-1.1 2.6-2.1l.2-.3-1.9-1.2-.1.2c-1 1.2-2.3 1.8-4 1.8-1.4 0-2.5-.4-3.4-1.1-.8-.7-1.2-1.7-1.2-2.9s.4-2.1 1.2-2.8c.8-.8 1.9-1.2 3.3-1.2 1.8 0 3.1.6 4.1 1.8z"/><path d="m175.4 72-6.7 5.6v-5.6h-2.2v11.9h2.2v-3.6l2.8-2.3 4.8 5.9h2.8l-5.9-7.3 5.6-4.6z"/><path d="m184.7 72v11.9h10v-2.3h-7.8v-9.6z"/><path d="m203.1 83.9v-11.9h-2.2v11.9z"/><path d="m213.1 72h-2.5v11.9h2.2v-8.9l7.3 8.9h2.5v-11.9h-2.2v8.9z"/><path d="m238.3 78.8v-2.2h-5.9v-2.4h8.5v-2.3h-10.7v11.9h11.1v-2.3h-8.9v-2.8z"/><use transform="translate(152.9)" xlink:href="#y"/></g></svg>