<svg viewBox="0 0 371 100" xmlns="http://www.w3.org/2000/svg"><g id="figure"><path d="m77.8 4.1-.4-2.1-6.9 2.9-5.4 12.7-11.6 17.5-6.1 5 8.8 1.8-29.7.4-18.2 6-6.3 6.2 7.7 8.1 4.1-1.9-1.5-1.8-2.7.5-2.2-2.9 4.2-3.9s17.6-2.3 17.6-2.4c0-.2 12.5 2 12.5 2l-7.7 2.4-7.1 7.3.9 11.1-8.5 8.9-.4 5.4-4.5 4.5 2.1 1 4-2.4 2.6-4.8 12.4-3.7 2.1-7.3 7.7 4.4.9 11.8 4.4 3.4 2.6 3.9 1.9-.3-1.2-4.6-3-3.1 7-12.9-1.3-4.4-9.8-6.3-4.3-.6 11.3-3.5 5.9-3.7 12.7-1 2.1-3.4-1.7-2 2.4-3.6-2.4-4.1-10.5-2.2 5.6-10.1s2.4-15.6 2.4-15.6l5.5-4.8v-1.7l-4.2 2 1.8-5.2z"/><path d="m129.6 74.2v-26.5h-16.7v10h2.9v16.4c0 1.4-.4 2.7-3.4 2.7-2.7 0-3.2-1-3.2-2.7v-42.1c0-1.5.5-2.5 3.2-2.5 3 0 3.3 1.3 3.3 2.5v8.8h13.6v-8.7c0-8.4-5.6-12.5-17-12.5s-17 4.1-17 12.5v42.1c0 8.3 5.6 12.4 17 12.4 11.5 0 17.1-4 17.1-12.4z"/><path d="m156.9 85.7v-65.3h-13.7v65.3z"/><path d="m201.5 52.6c2.6-1.7 3.9-4.1 3.9-7.6v-13.5c0-7.9-4.5-11-15.9-11h-17.8v65.1h18.6c10.9 0 15.6-3.5 15.6-11.8v-13.4c0-3.6-1.4-6.2-4.4-7.9zm-16.1 5.1h3.7c2.8 0 3 .9 3 2.2v13.7c0 .9 0 1.8-2.7 1.8h-4zm6.4-13.4c0 2.6-.4 3.3-2.9 3.4h-3.6v-16.9h3.7c2.5 0 2.7.5 2.7 2.9v10.7"/><path d="m251.5 45v-13.5c0-7.9-4.5-11-15.9-11h-17.8v65.1h18.6c11 0 15.6-3.5 15.6-11.8v-13.4c0-3.6-1.4-6.2-4.4-7.9 2.6-1.7 3.9-4.1 3.9-7.6zm-19.9 12.7h3.7c2.8 0 3 .9 3 2.2v13.7c0 .9 0 1.8-2.7 1.8h-4zm6.5-13.4c0 2.6-.4 3.3-2.9 3.3h-3.6v-16.8h3.7c2.5 0 2.7.5 2.7 2.9v10.7"/><path d="m264.2 32v42.1c0 8.3 5.6 12.4 17.1 12.4 11.4 0 17-4 17-12.4v-42.1c0-8.4-5.6-12.5-17-12.5-11.5 0-17.1 4.1-17.1 12.5zm13.7 0c0-1.2.4-2.6 3.3-2.6 2.8 0 3.2 1.3 3.2 2.6v42c0 1.7-.5 2.7-3.2 2.7-2.9 0-3.3-1.3-3.3-2.7z"/><path d="m335.2 85.6h12.8v-65.1h-12.6v21.1c0 5.1.1 9.8.3 14.2l-11.6-35.3h-13v65.1h12.6v-21c0-4.7-.1-9.6-.4-14.5l11.8 35.5"/><path d="m363.2 24.7c-.4-.6-.4-1.4-.5-2.1-.2-1.3-.8-1.4-1.7-1.5h-.5v3.5h-1.7v-8.2h2.8c2 0 3.3.5 3.3 2.2 0 1.2-1 1.7-1.7 1.9.3.2.5.3.6.4.5.5.5 1.2.6 1.9 0 .2.1 1.2.5 1.9m-3.3-5c.7 0 1.4-.1 1.5-.9 0-.8-.7-1.1-1.5-1h-1.3v2"/><path d="m361.7 13.5c-4 0-7.2 3.2-7.2 7.2s3.2 7.2 7.2 7.2 7.2-3.2 7.2-7.2-3.2-7.2-7.2-7.2zm0 1.3c3.3 0 5.9 2.7 5.9 5.9 0 3.3-2.7 5.9-5.9 5.9-3.3 0-5.9-2.7-5.9-5.9 0-3.3 2.7-5.9 5.9-5.9z"/></g></svg>