<svg viewBox="0 0 603 100" xmlns="http://www.w3.org/2000/svg" xmlns:xlink="http://www.w3.org/1999/xlink"><g fill="#fff"><path id="d" d="m110.34 23.98h27.84v7.06c-6.97 0-13.94 0-20.9 0v10.41h20.9v7c-6.96 0-13.94 0-20.9 0v10.36h20.9v7.06c-9.29 0-18.56 0-27.84 0 0-13.97 0-27.93 0-41.91z"/><path d="m150.15 23.98h9.02c3.94 5.06 7.88 10.14 11.82 15.19 3.95-5.06 7.91-10.11 11.86-15.18h8.97c-5.44 6.98-10.89 13.95-16.33 20.93 5.46 6.99 10.91 13.98 16.36 20.97-2.98 0-5.98 0-8.96 0-3.96-5.09-7.93-10.15-11.9-15.24-3.94 5.08-7.9 10.15-11.85 15.24-3 0-6.01 0-9.02 0 5.48-6.99 10.95-13.98 16.43-20.97-5.47-6.97-10.92-13.95-16.39-20.93z"/><path d="m213.77 24.06c6.39-.67 12.11 1.77 16.82 5.95-1.61 1.68-3.23 3.34-4.85 5-3.07-2.3-6.16-4.15-10.15-3.99-7.35-.01-13.68 6.21-13.78 13.55-.23 7.25 5.6 13.74 12.85 14.19 4.31.42 7.73-1.41 11.07-3.86 1.63 1.62 3.28 3.24 4.9 4.88-4.49 3.95-9.86 6.44-15.96 6.03-10.66-.41-19.77-9.61-19.91-20.33-.4-10.79 8.27-20.53 19.01-21.43z"/><use transform="translate(132.2)" xlink:href="#d"/><path id="e" d="m282.36 23.98h7v34.83h20.9v7.06c-9.3 0-18.6 0-27.9 0 0-13.96 0-27.93 0-41.9z"/><use transform="translate(37.6)" xlink:href="#e"/><use transform="translate(247.2)" xlink:href="#d"/><path id="f" d="m413.63 23.96c-5.43-.01-10.86.05-16.28 0v41.9h7.01v-13.95h11.71c2.69 4.65 5.38 9.3 8.07 13.95h8.11c-2.85-4.95-5.67-9.9-8.53-14.85 4.55-2.57 7.97-6.38 8.41-11.79.92-7.65-5.37-15.01-13.08-15.21-1.81-.03-3.61-.05-5.42-.05zm-.07 7.04c1.84 0 3.68.03 5.52.13 3.57.28 6.29 3.67 6.05 7.18-.14 3.24-2.76 6.16-6.03 6.44-4.89.31-9.84 0-14.74.03v-13.76c3.06.05 6.14-.03 9.21-.03z"/><path d="m460.49 23.9c-.45.88-.89 1.77-1.34 2.65-6.51 13.13-13.09 26.21-19.64 39.32h7.87c1.17-2.32 2.36-4.63 3.51-6.96 6.4-.07 12.81-.03 19.21-.03 1.16 2.34 2.34 4.68 3.51 7.01h7.83c-7.02-13.98-13.95-28-20.96-41.98zm0 15.86c2.09 4.01 4.04 8.07 6.08 12.11h-12.16c2.03-4.03 4-8.1 6.09-12.11z"/><path d="m479.29 23.98h34.96v7.06c-4.63 0-9.26 0-13.89 0v34.83c-2.35 0-4.7 0-7.06 0 0-11.61 0-23.22 0-34.83-4.67 0-9.34 0-14.01 0 0-2.36 0-4.71 0-7.06z"/><path d="m537.63 23.97c-1.77 0-3.54.23-5.26.65-9.14 2.37-16.01 11.36-15.51 20.88.01 10.86 9.59 20.4 20.46 20.34 11.17.53 21.41-9.15 21.42-20.35.45-9.15-5.85-17.63-14.39-20.52-2.16-.69-4.44-1.01-6.72-1zm.18 7.02c6.94.04 13.22 5.55 13.78 12.68.83 7.78-5.53 15.01-13.36 15.12-7.16.38-13.63-5.24-14.26-12.39-.86-6.97 4.02-13.63 10.84-15.08 1-.23 2.01-.34 3-.33z"/><use transform="translate(168.8)" xlink:href="#f"/></g><g fill="#ff1a01"><path d="m49.95 2c-2.75.03-5.45.26-7.98.69-23.05 3.93-39.93 23.89-39.97 47.27 0 26.53 21.51 48.04 48.04 48.04s48.04-21.51 48.04-48.04c0-9.36-2.74-18.52-7.88-26.35h-5.11v6.28h-10.69c4.68 5.65 7.25 12.74 7.27 20.07 0 17.47-14.16 31.64-31.63 31.64s-31.63-14.16-31.64-31.64c.04-14.33 9.71-26.84 23.57-30.5v35.87h16.22v-52.68c-2.7-.47-5.49-.67-8.24-.65zm16.31 2.75v5.42h5.38v-3.11c-1.74-.88-3.54-1.64-5.38-2.3zm6.27 2.78v2.64h4.41c-1.42-.95-2.89-1.84-4.41-2.64zm-12.55 3.54v5.38h5.38v-5.38zm6.27 0v5.38h5.38v-5.38zm6.27 0v5.38h5.38v-5.38zm6.27.43v4.95h5.38v-.26c-1.68-1.69-3.47-3.27-5.38-4.69zm-18.82 5.84v2.68c1.86.62 3.66 1.4 5.38 2.35v-5.03zm6.27 0v5.38h5.38v-5.38zm6.27 0v5.38h5.38v-5.38zm6.27 0v5.38h5.38v-5.38zm6.27 0v5.38h4.51c-1.31-1.89-2.74-3.69-4.31-5.38zm-17.64 6.27c1.49.99 2.89 2.11 4.19 3.34v-3.34zm5.09 0v4.21c.4.38.8.77 1.18 1.16h4.2v-5.38zm6.27 0v5.38h5.38v-5.38z"/><path d="m109.26 84.46 2.1-.33q.18 1.26.98 1.94.82.67 2.27.67 1.47 0 2.17-.59.71-.6.71-1.41 0-.72-.63-1.13-.44-.28-2.17-.72-2.34-.59-3.25-1.02-.9-.44-1.37-1.19-.46-.77-.46-1.69 0-.84.38-1.55.39-.72 1.05-1.19.5-.37 1.35-.62.86-.26 1.84-.26 1.48 0 2.59.43 1.12.43 1.65 1.16.53.72.73 1.94l-2.08.28q-.14-.97-.83-1.51-.67-.54-1.91-.54-1.47 0-2.09.48-.63.48-.63 1.13 0 .41.26.74.26.34.82.57.32.12 1.88.54 2.26.6 3.14.99.9.38 1.41 1.11.51.73.51 1.82 0 1.06-.63 2.01-.62.93-1.78 1.45-1.17.51-2.65.51-2.44 0-3.73-1.02-1.28-1.02-1.63-3.01z"/><path id="a" d="m122.89 73.33v-2.44h2.13v2.44zm0 14.87v-12.55h2.13v12.55z"/><path d="m128.92 88.21v-12.55h1.9v1.76q.59-.92 1.57-1.48.98-.57 2.23-.57 1.39 0 2.28.58.9.58 1.26 1.62 1.49-2.2 3.88-2.2 1.87 0 2.87 1.04 1 1.03 1 3.18v8.61h-2.12v-7.9q0-1.27-.21-1.83-.2-.57-.74-.91-.54-.34-1.28-.34-1.32 0-2.2.89-.87.88-.87 2.81v7.29h-2.13v-8.15q0-1.42-.52-2.13-.52-.71-1.7-.71-.9 0-1.67.47-.76.47-1.1 1.38-.34.91-.34 2.62v6.51z"/><path d="m149.75 93.02v-17.36h1.94v1.63q.68-.96 1.55-1.43.86-.48 2.09-.48 1.61 0 2.84.83 1.23.83 1.86 2.34.63 1.5.63 3.3 0 1.93-.7 3.47-.69 1.54-2.01 2.36-1.31.82-2.76.82-1.06 0-1.91-.45-.84-.45-1.38-1.13v6.11zm1.93-11.01q0 2.42.98 3.58.98 1.16 2.38 1.16 1.42 0 2.42-1.19 1.02-1.21 1.02-3.72 0-2.4-.99-3.59-.98-1.19-2.35-1.19-1.36 0-2.41 1.27-1.04 1.26-1.04 3.69z"/><path d="m163.84 88.21v-17.32h2.13v17.32z"/><path d="m169.84 93.04-.24-2q.7.19 1.22.19.71 0 1.14-.24.43-.24.7-.66.2-.32.65-1.58.05-.18.19-.52l-4.76-12.57h2.29l2.61 7.27q.51 1.38.91 2.91.37-1.47.87-2.86l2.68-7.31h2.13l-4.77 12.76q-.77 2.07-1.19 2.85-.57 1.05-1.3 1.54-.73.5-1.75.5-.62 0-1.37-.26z"/><path id="b" d="m198.68 84.17 2.2.27q-.52 1.93-1.93 2.99-1.41 1.06-3.59 1.06-2.75 0-4.37-1.69-1.61-1.7-1.61-4.76 0-3.17 1.63-4.91 1.63-1.75 4.23-1.75 2.52 0 4.11 1.71 1.59 1.71 1.59 4.82 0 .19 0 .57h-9.36q.12 2.07 1.17 3.17 1.05 1.1 2.62 1.1 1.17 0 2-.61.83-.62 1.31-1.96zm-6.98-3.44h7.01q-.14-1.58-.8-2.37-1.02-1.23-2.64-1.23-1.47 0-2.47.98-.99.98-1.1 2.62z"/><path id="c" d="m204.73 88.21v-10.89h-1.88v-1.66h1.88v-1.34q0-1.26.22-1.88.31-.83 1.08-1.34.78-.52 2.17-.52.9 0 1.98.21l-.32 1.86q-.66-.12-1.25-.12-.97 0-1.37.41-.4.41-.4 1.55v1.16h2.44v1.66h-2.44v10.89z"/><use transform="translate(7)" xlink:href="#c"/><use transform="translate(28.5)" xlink:href="#b"/><path d="m240.89 83.61 2.09.27q-.34 2.16-1.76 3.39-1.41 1.22-3.46 1.22-2.58 0-4.15-1.68-1.56-1.69-1.56-4.83 0-2.03.67-3.56.68-1.52 2.04-2.28 1.38-.77 3-.77 2.04 0 3.34 1.04 1.3 1.03 1.67 2.93l-2.07.32q-.3-1.26-1.05-1.9-.74-.64-1.81-.64-1.61 0-2.61 1.16-1 1.15-1 3.64 0 2.53.97 3.67.97 1.15 2.53 1.15 1.25 0 2.09-.77.84-.77 1.06-2.36z"/><path d="m250.12 86.3.31 1.88q-.9.19-1.61.19-1.16 0-1.8-.37-.64-.37-.9-.96-.26-.6-.26-2.52v-7.22h-1.56v-1.66h1.56v-3.11l2.11-1.28v4.38h2.14v1.66h-2.14v7.34q0 .91.11 1.17.12.26.36.41.26.16.73.16.36 0 .93-.08z"/><use transform="translate(130)" xlink:href="#a"/><path d="m262.4 88.21-4.77-12.55h2.25l2.69 7.52q.44 1.22.8 2.53.28-.99.79-2.39l2.79-7.66h2.19l-4.75 12.55z"/><use transform="translate(81.6)" xlink:href="#b"/></g></svg>