<svg viewBox="0 0 410 100" xmlns="http://www.w3.org/2000/svg"><g fill="#fff"><path d="m44 24.5h-13.7v18.8h-28.3v-41.3h56.8l13.8 14.7v37l-14.1 14.8h-28.2v29.5h-28.3v-49.5h42z"/><path d="m114.1 98h-28.3v-96h56.7l13.9 14.7v22.1l-4.4 4.6h-23.9v-18.9h-13.9v24h36.6l5.6 5.4v44.1h-28.2v-29.3h-14.1z"/><path d="m169.4 43.3v-26.6l14.1-14.7h42.6l13.9 14.7v26.6h-28.1v-18.7h-14.2v18.7z"/><path d="m197.6 75.7h14v-27.2h28.4v34.9l-13.9 14.6h-42.6l-14.1-14.7v-34.8h28.2z"/><path d="m253.3 2h28v41.3h-28z"/><path d="m323.7 83.4-13.8 14.6h-42.7l-13.9-14.6v-34.9h28v27h14.3v-73.5h28.1z"/><path d="m408 43.3h-28.6v-18.7h-13.9v50.9h13.9v-27h28.6v34.5l-14.3 15h-56.6v-96h56.7l14.2 15.1z"/></g></svg>