<svg viewBox="0 0 784 100" xmlns="http://www.w3.org/2000/svg"><g id="figure" fill="#e50113"><path d="m105.9 2v52.4l46.7-52.4h25.2v95.9h-26.6v-58.7l-46.2 58.7h-25.2v-58.7l-45.6 58.8h-32.2l78.3-96z"/><path d="m220.8 2v96h-27.2v-96z"/><path d="m306.4 64.6v-62.6h25.5v96h-28.5l-43.6-64.7v64.7h-24.8v-96h29.9z"/><path d="m395.5 2c-12.8 0-36.1 1.5-47.4 16-5.7 7.4-7.5 17.2-7.5 32s2.9 24.4 8.6 31.8c11.3 14.5 33.5 16.2 46.3 16.2s35.1-2.6 46.4-17.1c5.8-7.4 8.4-16 8.4-30.9s-1.7-24.6-7.5-32c-11.3-14.5-34.5-16-47.3-16zm0 17.2c10.3.3 20.3 3.2 24.7 9 4.2 5.6 4.8 12.3 4.8 21.8s-.8 15.3-5 20.9c-4.4 5.8-14.2 9.5-24.5 9.8-10.3-.3-19.4-3.4-23.8-9.2-4.2-5.6-5.9-12-5.9-21.5s.6-16.2 4.8-21.8c4.4-5.8 14.6-8.7 24.9-9z"/><path d="m484.7 2v63.2c.6 14.5 14 15.7 25 15.5 8.2 0 20.8-1.4 20.7-13l.2-65.7h25.4v65.7c.1 26.6-31.7 30.1-46.3 30.3-15.6 0-50.2-4.1-50.2-30.3l-.1-65.7z"/><path d="m632.9 2c17.1 0 32.4 12.7 33 33.8.3 20.1-16.4 26.4-20.3 27.6l25.1 34.6h-31.3l-29.6-50.2h17.4c4.1.1 10.8-4.7 10.8-11.7-.2-11.6-7.6-12.1-12.1-12.3h-32v73.2h-25.5v-95z"/><path d="m702.6 2 79.4 96h-33.2l-45.7-56.3v56.3h-26.3v-96z"/></g></svg>