<svg viewBox="0 0 535 100" xmlns="http://www.w3.org/2000/svg"><g id="figure" fill="#fff"><path d="m30.8 71.8 15 26h-16.2l-12.1-25.8 10.6-22.2h15.3zm-28.8 26v-48h12.3v48z"/><path d="m66.8 97.8h-19.8v-36h9.3v28.3h12.2l-1.8 7.6"/><path d="m73.4 97.8v-36h20.9l-.7 7.6h-11v6h9v7.3h-9v7.3h12.3v7.7h-21.6"/><path d="m124.7 69.4h-8.4v28.3h-9.3v-28.3h-8.4v-7.6h27.1l-1.1 7.6"/><path d="m153.9 69.4h-8.4v28.3h-9.3v-28.3h-8.4v-7.6h27.1l-1.1 7.6"/><path d="m160.1 97.8v-36h20.9l-.7 7.6h-11v6h9v7.3h-9v7.3h12.3v7.7h-21.6"/><path d="m200.6 69.4c2.9 0 4.3.8 4.3 3.4 0 2.4-1.1 3.9-4.2 3.9h-2.6v-7.3zm16.1 28.4c-1.2-2.7-4.2-9.3-5.4-11.8-.9-1.9-2.4-3.5-3.6-3.9 4.2-.7 7.5-3.9 7.5-10.1 0-6-3.4-10.3-14-10.3h-12.4v36h9.2v-14.2c2 0 2.8.5 4.2 4.2l3.8 10.1z"/><path d="m246.6 72.5c0 13.3-2.8 15-6.2 15h-4.1v-27.6h3.8c3.7 0 6.5 1.4 6.5 12.6zm13.6.4c0-9.8-2.4-16.4-7.8-20.2-3.9-2.7-8.1-3-11.4-3h-16.9v47.9h17.4c6.5 0 10.3-2.1 13.3-5.8 4.3-5.2 5.4-11.6 5.4-19.1"/><path d="m276.2 98c-5.4 0-9.6-1.3-13.3-3.3l3.2-7.2c2.6 1.5 6.4 2.9 10.1 2.9 3.6 0 5.1-1.3 5.1-3.3 0-1.6-1.1-2.3-3.6-2.9l-4.2-1.1c-5.2-1.4-8.8-4.2-8.8-10.4 0-7.1 5.9-11.9 13.9-11.9 5 0 9.6 1.3 12.8 3.5l-4.4 6.6c-2.4-1.6-5.6-2.5-8.1-2.5-2.4 0-3.7 1.1-3.7 2.6 0 1.2.8 2.4 3.5 3l3.7.9c3.9 1 9.4 2.7 9.4 10 0 8.6-6.4 13.2-15.7 13.2"/><path d="m312.2 98c-4.4 0-8.5-1.3-11.8-5-2.8-3.1-4.1-7.8-4.1-12.9 0-4.5.7-7.9 2.5-11.1 3-5.6 8.3-8.2 14.5-8.2 3.7 0 7.5 1 9.2 2.6l-3.9 6.8c-1.6-1.2-3.4-1.9-5.4-1.9-1.6 0-3.1.4-4 1.4-1.8 1.8-2.3 3.7-2.3 7.9 0 5.9.3 8.8 1.8 10.5 1.2 1.4 2.7 2.3 4.6 2.3 2.3 0 4.2-.6 6.2-2.4l4 6.3c-2.3 2.1-5.9 3.7-11.2 3.7"/><path d="m344.9 97.4v-15.1h-7.4v15.1h-9.2v-36h9.2v13.2h7.4v-13.2h9.2v36z"/><path d="m390.3 86.3c0 3.1-.1 4.5-.9 5.9-1.5 3-5.5 5.8-12.6 5.8-5.7 0-9.6-1.5-11.8-4.5-1.3-2-1.8-2.8-1.8-7.6v-24.5h9.3v23.5c0 3.3 1 5.5 4.3 5.5s4.2-1.9 4.2-5.4v-23.6h9.2v24.9"/><path d="m417 97.4-6.3-12.5c-.9-1.9-2-4.4-2.8-6.8.2 1.4.5 4.7.5 9.1v10.2h-8.8v-36h8.9l6.6 12.3c1 1.9 2.1 4.4 3 6.9-.3-2.1-.3-5.7-.3-8v-11.2h8.8v36h-9.5"/><path d="m449.7 98c-6 0-10.1-1.9-13.2-6.1-2.4-3.4-3.4-6.9-3.4-11.8 0-7.7 3-14.3 9-17.4 2.7-1.4 5-1.9 8.2-1.9 4.7 0 9.1 1.5 12.5 4.5l-5.1 5.7c-1.9-1.9-4.6-2.8-7.3-2.8-4.8 0-6.8 3.4-6.8 11.4 0 7.2 2.1 10.7 6.4 10.7 1.2 0 2.4-.1 3.4-.5v-5.6h-4.4l-1-7.3h14.7v17.5c-4.1 2.5-8.3 3.6-13 3.6"/><path d="m470.3 97.4v-36h20.9l-.7 7.6h-11v6h9v7.3h-9v7.3h12.3v7.7h-21.6"/><path d="m518.9 97.4h-19.9v-36h9.3v28.3h12.2l-1.8 7.6"/><path d="m523 73.6c-3.2 0-5.8-2.7-5.8-6s2.6-6 5.8-6 5.8 2.7 5.8 6-2.6 6-5.8 6zm0-14c-4.4 0-8 3.6-8 8s3.6 8 8 8 8-3.6 8-8-3.6-8-8-8zm3.6 11.9s-.9-1.4-1.4-2.3c-.3-.4-.6-.9-1.1-1.1 1.1-.1 1.9-1 1.9-2.2 0-1.5-1-2.5-2.6-2.5h-3.3v8.2h2.1v-3.2c.2.1.4.5 1.2 1.8.3.5.5.8.9 1.4zm-2.9-5.7c0 .6-.3.8-1.1.8h-.5v-1.7h.6c.7 0 1.1.2 1.1.8"/><path d="m282.5 27.1h.2c1.3-5.3 3.6-11.1 6.6-12.2 1.6-.6 2.5 0 3 1.3.2.6.4 2 .4 3 0 2.2-.5 9.8-.5 10.1 0 .5.1.8.4.7.7-.2 2.1-2.3 2.8-4.1.5-.3.7 0 .8.3-.6 3.1-3 6.1-5.2 6.9-.4.1-1.1-.2-1.3-.6-.1-.4-.1-.7 0-3s.2-6.7.4-9c.1-.8.1-2.4-.2-3.2-.2-.5-.4-.9-1-.7-1 .3-2.6 3.2-3.8 6.7-1.1 3.4-1.6 7.1-2.4 12.3-.1.4-.2.6-.5.7-.4.2-1.6.4-1.5-.6 0-.6.1-13.6.1-14.2s-.1-1-.5-.9c-.9.3-2 1.7-2.9 3.3-.3.1-.6-.1-.7-.4.8-2.6 2.6-5.1 4.6-5.9 1-.3 1.7.2 1.6 1.3l-.2 7.9"/><path d="m306.8 13.6c1.1-.2 1.9.4 2.4 1.1-.2 2.6-1.2 6.5-3.8 10.1-2 2.6-3.1 3.4-3.5 3.5s-.7-.2-.8-.7c-.6-3 .9-8.9 3.1-11.8 1.1-1.4 1.6-2 2.6-2.2zm3-1.1c-.3-.4-.8-.7-1-.7-.3-.1-.6-.1-1-.1-1.1.2-2.1.7-3.5 1.9-1.5 1.3-3 3.3-4.4 6.4-2 4.3-2.3 7.8-2.1 8.8.2 1.2 1.1 2.2 2.3 2 2-.4 5.6-4.1 7.9-8.3h.1l-.7 4c-.1 1-.2 1.4-.1 1.7s.5 1.1 1.4.9c2.3-.4 4.8-3.3 6.1-6-.1-.3-.4-.5-.7-.4-2 2.5-3 3.5-3.7 3.6-.3.1-.6-.1-.5-.9.6-4 2.4-13.9 2.8-15.6-.4-.5-1.5-.7-2.2-.2z"/><path d="m323.2 12-2.6 11.5c-.2.8.1 1.1.4 1 .6-.1 3.2-2.5 4.4-4.3.4 0 .7.2.7.7-2 3.7-5.7 6.7-7.4 6.9-.6.1-1.2-.5-1.3-1s.1-1.2.3-2.5l2.7-12-3.3.3c-.1-.4-.1-1 .3-1.2l3.3-.9 1.9-4.4c.4-.3 1.2-.3 1.6.1l-.8 4.3 4.6-.5c.3.4.2 1.3-.3 1.6l-4.6.5"/><path d="m332.5 22.7c-.4 1-.2 1.4.3 1.4.6 0 2.4-1.3 4.6-3.4 4-3.7 6.3-8.5 7.8-11.1.9-.1 1.9.3 2.1.8-.5 1.1-3.4 8-5.3 13-.2.5-.3 1.1.1 1.1.8 0 3.1-1.9 4.2-3.2.4-.1.7.1.7.6-1.2 2-5.3 5.2-7.6 5.1-.7 0-1.3-.8-1-1.5l3.1-7.7h-.1c-3.2 3.8-8.6 9-10.9 8.9-1.7-.1-1.9-1.8-1.1-3.6l4.2-10.2c.3-.8.4-1.2 0-1.2-.8 0-3.1 1.8-4.1 2.8-.4.1-.8-.3-.7-.7 1.2-1.7 5.5-4.9 7.5-4.8.6 0 1.5.6 1.2 1.3zm4.1-18.4c.1-1.4 1.1-2.3 2.2-2.3s1.6.9 1.6 1.7c-.1 1.5-1.1 2.3-2.2 2.3-1 0-1.6-.7-1.6-1.7zm7.4.2c.1-1.4 1.1-2.3 2.2-2.3s1.6.9 1.6 1.7c-.1 1.5-1.1 2.3-2.2 2.3-1 0-1.6-.7-1.6-1.7"/><path d="m357 15.6-2.7 5h.2c1.6-2.1 4.2-5.1 5.6-6.3 1.2-1.1 2.4-1.8 3.4-1.7 1.5.2 1.4 1.7 1.3 2.3s-.7 1.8-1.3 2.4c-.6.5-1.3.5-1.3-.4 0-1.1-.2-1.7-.6-1.8s-.9.3-1.7 1c-3.1 2.8-6.3 7.5-9.3 12-.2.3-.5.4-.8.4-.5-.1-1.6-.4-1.2-1.3.8-1.6 4.7-8.5 6.5-12.4.2-.4.2-.9-.2-.9-1.1-.2-2.4.8-3.3 1.7-.4 0-.7-.3-.6-.8 1.7-2 3.6-3.5 5.6-3.2 2.1.3.9 3.1.3 4.1"/><path d="m364.9 28.1c-.5.9-.6 1.3-.2 1.4.9.2 3.3-1.4 5.7-3.1.4.1.6.3.5.7-1.5 1.8-4.9 4.6-8.4 3.9-1.2-.3-1.5-.9-1.3-1.6s.5-1.4 1.7-3.3l11.2-18c1.7-2.7 1.3-3.2.8-3.6l-.7-.5c-.2-.2-.1-.6.1-.7.8-.1 3.5-.3 5.5 0l.2.3c-.9 1.4-1.6 2.4-4.1 6.5z"/><path d="m380 20.6c.3-.4.4-.7.1-.8s-1.5.1-4 1.2c-.4-.1-.5-.5-.3-.8 2.9-2 6.5-2.6 7.9-2.2.3.1.4.4.5.6.2.3.1.7-.7 1.7l-8 10.3c-.3.4-.4.8-.1.9.7.2 3.2-.6 5.1-1.9.4.2.5.5.4.9-.9 1-6.1 3.5-9 2.8-.2-.1-.4-.2-.6-.5-.2-.4-.2-.8.1-1.1zm8.4-10.2c-.3 1.3-1.6 2.3-2.9 2-1.1-.3-1.2-1.2-1-2 .2-.9 1.3-2.4 2.9-2 .9.3 1.3 1 1 1.9"/><path d="m399.7 25.5c-.5 1.6-2.2 1.4-2.6 1.3s-.7-.5-.6-1c.1-1.1.6-2.2-.7-2.7-.9-.3-2.4.2-4.2 1.7-1.9 1.6-4.2 4.5-5.3 7.5-.7 2-.1 2.9.9 3.2 1.3.4 3.2-.2 5.1-1.1.4.1.6.5.3.8-2.2 1.6-5.3 2.5-7.8 1.8-1.6-.5-2.7-2.1-1.7-5.2.8-2.6 3.8-6.8 8.3-8.9 2.2-1 4.2-1.3 6-.7 2 .6 2.6 2.1 2.3 3.3"/><path d="m410.1 18.9c1.7-2.4 2.1-2.9 1.6-3.5l-.7-.8c0-.2 0-.4.3-.5.7-.1 3.6.2 5 .6l.1.3c-1.5 2-4 5.2-5.5 7.3l-8 10.8.1.1c4.1-3.1 6.7-4 8.5-4.6s3.2-.7 4.3-.3c1.8.6 2 2.1 1.6 3.5-.9 2.8-3.9 6.3-6.2 8.4-1.2 1.1-2.3 1.8-3.7 2.5-1.8.9-2.9.8-3.4.6-1.3-.4-1.2-1.3-1.1-1.6.2-.7 1-1.1 1.5-.9.2.1.3.2.5.4.2.3.6.8.9.9.6.2 1.2-.3 2.3-1.5 1.9-2.3 5.5-7.2 6.2-9.5.2-.8.1-1.3-.5-1.5s-1.6 0-2.5.4c-2.1.7-3.9 1.6-6.8 3.7-2.6 1.8-5.9 5.1-7.6 6.8-.3.3-.5.4-.9.3s-1.5-.6-.8-1.4l14.9-20.2"/><path d="m439.5 37.2c-.2.7-.7 1-1.1 1.1-.3 0-.5-.1-.7-.5-.5-.9-.9-1.6-2.2-1.9-1.2-.3-1.9.6-2.1 1.2-.2.9-.2 1.8.5 4.1.6 2 1 3.2.4 4.9-.3 1.1-1.3 2.5-3.1 3.4-1.3.7-3 .8-4.5.4-1.6-.4-2.2-1.9-2-2.8.1-.4.4-.8 1-1.2.4-.2.9-.1 1.1.3.4.7 1.4 2.1 2.4 2.4 1 .2 2.2-.5 2.6-1.8.2-.7 0-2.1-.6-4-.6-2-.7-3.5-.5-4.2.4-1.6 1.4-2.6 3.5-3.7 1.4-.7 2.8-.7 3.4-.6 1.5.4 2.1 1.9 1.9 3"/><path d="m449.8 38.3c.3 0 .6 0 1.1.1 1.8.3 3.1 1.6 2.8 3.6-.3 1.8-1.2 4.7-3.7 7.5-2.2 2.5-4.7 2.7-5.2 2.7-.7-.1-1.2-.7-1.4-1.2-.1-.3-.1-.7.1-1.1zm1.8-3.6c-.1-.7-1.7-1.3-2.3-1l-1.8 3.2c-2.1.2-3.9.7-5.5 1.5-.2.4 0 .8.3.9 1.9-.6 2.9-.9 4.5-1.1l-11.2 20.6c-.9 1.6-1.2 2.6-3.6 2.6h-.9c-.3.2-.4.6-.1.9 2.8.4 6-.4 9.2.1.4-.1.8-.9.4-1s-2 0-2 0c-1.7.1-1.1-.2.5-3.2l2.5-4.7c.2-.4.4-.6.8-.6.6.3.9.4 1.3.5.2 0 3.4.4 6.4-1.5 3.6-2.2 6.5-5.2 7.1-9.1.6-4-3-5.4-4.9-5.7-.8-.1-1.3-.1-1.6-.2l1.3-2.4"/><path d="m465.8 41.4c.2-.4.3-.8 0-.8s-1.4.4-3.7 2c-.4-.1-.6-.4-.5-.8 2.5-2.5 5.9-3.8 7.3-3.7.3 0 .5.3.6.5.2.3.2.7-.4 1.8l-5.9 11.6c-.2.4-.3.9.1.9.7.1 3.1-1.3 4.6-2.8.4.1.6.4.6.8-.7 1.2-5.3 4.7-8.3 4.4-.2 0-.5-.2-.7-.4-.2-.3-.3-.7-.1-1.2zm6.3-11.6c-.1 1.3-1.1 2.6-2.4 2.5-1.1-.1-1.5-1-1.4-1.7.1-.9.8-2.6 2.5-2.5 1 .1 1.4.8 1.4 1.7"/><path d="m482.8 39.6c.8 0 1 .6 1 1s-.4 1.6-1.7 2.9c-1.6 1.5-2.9 2.3-5.7 3.1.5-1.2 1.5-3.2 3.2-4.9 1.5-1.6 2.6-2 3.2-2zm.9-1.3c-1.2 0-2.9.3-5.1 2-4.7 3.5-6.4 8.7-6.4 11.3 0 2.1.8 4.5 3.4 4.5 1.8 0 4.2-.6 6.8-3.8.1-.4-.2-.7-.5-.7-1.9 1.6-2.9 2.4-4.5 2.4-1.1 0-2-1-2-2.4 0-1.7.3-3 .6-3.8 6.1-1.6 10.3-3.7 10.4-6.9 0-1.1-.9-2.5-2.6-2.6"/><path d="m491.1 52.4c-.3 1-.2 1.4.2 1.4.9 0 2.8-2.2 4.7-4.5.4-.1.7.1.7.6-1 2.2-3.5 5.8-7 6-1.3.1-1.7-.5-1.7-1.2s.1-1.4.8-3.6l5.8-20.3c.9-3 .4-3.4-.2-3.7l-.8-.3c-.2-.2-.2-.5 0-.7.7-.3 3.3-1.3 5.3-1.5l.2.2c-.5 1.5-.8 2.8-2.2 7.4l-5.8 20.3"/><path d="m508.2 37.7c.8-.1 1 .5 1.1.9s-.2 1.7-1.4 3c-1.4 1.6-2.6 2.6-5.3 3.7.4-1.3 1.2-3.3 2.6-5.2 1.4-1.8 2.4-2.3 3-2.3zm.7-1.4c-1.2.1-2.8.6-4.8 2.5-4.2 4-5.4 9.3-5.1 12 .2 2.1 1.3 4.3 3.9 4.1 1.8-.2 4.1-1.1 6.4-4.5.1-.4-.2-.7-.6-.7-1.7 1.8-2.7 2.7-4.2 2.9-1.1.1-2.1-.8-2.3-2.2-.2-1.7 0-3.1.2-3.8 5.9-2.3 9.9-4.8 9.5-8-.1-1.1-1.2-2.4-2.9-2.3"/><path d="m519.6 43.8.1.1c2.2-5 5.5-10.4 8.6-10.9 1.6-.3 2.5.5 2.7 1.8.1.7 0 2-.1 3-.4 2.2-2.2 9.5-2.2 9.9-.1.4-.1.8.2.8.7-.1 2.5-1.9 3.4-3.5.6-.2.7.1.8.5-1.1 3-4 5.5-6.3 5.9-.4.1-1.1-.4-1.2-.9-.1-.4 0-.7.5-2.9s1.3-6.6 1.9-8.8c.2-.8.5-2.4.3-3.2-.1-.5-.2-1-.8-.9-1 .2-3.1 2.7-4.9 6-1.7 3.1-2.8 6.7-4.5 11.7-.1.4-.3.6-.7.6-.5.1-1.6.2-1.4-.9.1-.6 2.4-13.4 2.5-14s0-1-.3-.9c-1 .2-2.3 1.3-3.4 2.8-.3.1-.6-.2-.6-.5 1.2-2.4 3.4-4.6 5.5-5 1-.2 1.6.5 1.4 1.5z"/></g></svg>