<svg viewBox="0 0 196 100" xmlns="http://www.w3.org/2000/svg"><g id="figure" transform="scale(.1)"><path d="m219.9 20h-199.9v321.2h79.4v-250.7h103.5c28.6 0 58.9 15.2 58.9 57.1 0 32.1-23.2 57.1-54.4 57.1h-79.4v66.9h56.2c45.6 0 69.6 24.1 69.6 71.4v68.7h83.8v-91.9c0-48.2-33.9-73.2-66.9-81.2 50.7-17.5 77.6-56.5 77.6-104.3 0-60.6-56.1-114.3-128.4-114.3z"/><path d="m453.6 215.4c0-32.1 25.9-58 57.1-58h65.1l-52.6 88.3h78.5l52.6-82.1v-72.2h-157c-68.7 0-124 56.2-124 124.9s55.3 124.9 124 124.9h157v-67.8h-143.6c-31.2 0-57.1-25.9-57.1-58z"/><path d="m773.9 215.2c0-32.1 25.9-58 57.1-58h65.1l-52.6 88.3h78.5l52.6-82.1v-72.2h-157c-68.7 0-124 56.2-124 124.9s55.3 124.9 124 124.9h157v-67.8h-143.6c-31.2 0-57.1-25.9-57.1-58z"/><path d="m1194.1 90.5h-53.5v67.8h36.6c29.4 0 53.5 25.9 53.5 57.1 0 38.4-31.2 58-51.7 58h-66.1v-253.4h-82v321.2h148.1c64.8 0 135.6-49.1 135.6-121.8 0-66-49.1-128.9-120.5-128.9z"/><path d="m1493 86.9c-89.2 0-148.1 52.7-148.1 131.2 0 74.9 64.2 131.1 148.1 131.1 87.4 0 149-54.4 149-131.1 0-78.5-59.8-131.2-149-131.2zm0 198.1c-37.5 0-66.9-30.3-66.9-66.9s30.3-66.9 66.9-66.9 66.9 30.3 66.9 66.9-29.4 66.9-66.9 66.9z"/><path d="m1863.3 207.4c55.3-17 71.3-47.3 71.3-108v-8.9h-81.1v13.4c0 40.1-17 69.6-55.4 69.6h-38.3v-153.5h-82.1v321.2h82.1v-99.9h29.4c41 0 66 23.1 66 60.6v39.3h82.1v-36.6c0-48.2-21.4-82.9-74-97.2z"/><path d="m649.9 662.4c-245.4 87.4-381.9 183.7-473.8 300.6h303.4c29.4-41.9 142.8-160.5 355.1-242.6-59.8-20.5-160.6-51.8-184.7-58z"/><path d="m595.5 963h275.7c53.5-82.1 109.7-123.1 171.3-167.7-47.3-18.7-95.5-36.5-144.6-53.5-175.8 76.7-273.8 180.2-302.4 221.2z"/><path d="m776.6 476.8h-671.8c677.2 123.1 1003.7 281 1530.1 503.2-46.4-33-770.9-459.5-858.3-503.2z"/><path d="m1250.4 683.8c210.6-83.9 341.6-132 689.6-216.8-189.1 12.5-605.8 40.1-893.1 97.2-.9-.9 199 116.9 203.5 119.6z"/></g></svg>