<svg viewBox="0 0 484 100" xmlns="http://www.w3.org/2000/svg" xmlns:xlink="http://www.w3.org/1999/xlink"><g><path d="m63.1 97.8-26.8-29.8c1.3.1 2.6.1 4 .1 9.2 0 20.7-5.8 20.7-20.5 0-17.7-14.6-22.2-27.6-22.2h-31.4v72.3h14.1v-32.2l29.1 32.3zm-46.9-60h17c7.8 0 14.8 2.4 14.8 9.9s-4.3 10.1-14.8 10.1h-17z"/><path id="a" d="m116.7 71.7v-10.2c0-14.9-10.4-23.2-24.6-23.7h-2.7c-14.3.4-24.5 8.7-24.5 23.6v12.6c0 14.2 10.5 23 24.1 23.7h3.2c17.1 0 23.5-8.6 24.3-18.5h-12.9c-.3 1.9-.9 6.6-11.7 6.6-1.9 0-4.5-.5-6.4-1.1-8-2.7-6.7-12.5-6.7-13zm-37.9-11.2c0-7.6 5.1-10.8 11.1-11h1.9c6.1.3 11.2 3.6 11.2 11v1h-24.2z"/><use transform="translate(58.7)" xlink:href="#a"/><path d="m197 41.9v-18.1h-14v72.3h2.4s6.2-3.5 6.5-3.6c.9 1 7.1 5.5 15.5 5.5h3.1c14.1-.3 24.3-9.1 24.3-23.6v-12.6c0-14.2-10.2-23.7-24.4-23.7-6.5 0-10.9 1.7-13.4 3.8zm23.9 32.5c0 7.9-5.5 10.9-11 11.3h-2c-5.6-.4-11-3.5-11-11.3v-12.7c0-8.1 5.4-10.9 11-11.3.7 0 1.3-.1 2 0 5.5.4 11 3.3 11 11.4z"/><path d="m293.8 74.3c0 14.8-10.3 23.3-24.5 23.7h-3c-14.2-.6-24.3-8.9-24.3-23.7v-12.7c0-14.9 10.2-23.1 24.5-23.5h2.8c14.3.4 24.5 8.7 24.5 23.5zm-37.9-12.6v12.7c0 7.8 5.3 10.9 11 11.3h2c5.5-.4 10.9-3.4 10.9-11.3v-12.7c0-8-5.4-11-11-11.3h-1.9c-5.6.3-11 3.2-11 11.3z"/><path d="m315.2 63.3s20.9-23.8 22.1-25.1h17.4l-25.3 28.6 26.6 29.5h-17.7l-23.2-25.7v25.7h-14v-72.3h14.1z"/><path d="m420.7 2-49.3 85.4 2.4 3.7 31.4-21 17.7-30.9 2.1-37.2zm7.7 0 2.1 37.2 17.7 30.9 31.4 21 2.4-3.7-49.3-85.4zm-19.1 75.2-33.6 17.1 2 3.4h98l2-3.4-33.6-17.1z"/></g></svg>