<svg viewBox="0 0 470 100" xmlns="http://www.w3.org/2000/svg"><g id="figure" fill="#fff"><g transform="scale(.1)"><path d="m868.1 413.7-267 158.7c-16.8 10-36.2 10.7-53.1.8l-140.8-82.3c-8.5-5-8.7-17.6.4-22.5l248.8-133.4c14.3-7.7 30-8.8 44.6-1.8z"/><path d="m808.1 220.3-152.8 88.3c-37.7 21.8-80.8 21.7-118.4 0l-76.9-44.4c-10-5.8-21.5-5.8-31.6 0l-180.3 104.1c-10 5.8-15.8 15.8-15.8 27.4v208.3c0 11.6 5.8 21.7 15.8 27.5l180.3 104.1c10 5.8 21.6 5.8 31.6 0l180.3-104.1c10-5.8 15.8-15.9 15.8-27.5v-33.2l212-122.5v260c0 23.2-11.5 43.1-31.6 54.7l-360.8 208.3c-9.4 5.4-34.7 16.5-63.3 0l-360.8-208.3c-20.1-11.6-31.6-31.5-31.6-54.7v-416.6c0-23.2 11.5-43.1 31.6-54.7l360.8-208.3c15.3-8.8 39.4-14 63.3-.2z"/><path d="m3038.8 185c-38 0-69 31-69 69s31 69 69 69h308.5c38 0 69-31 69-69s-31-69-69-69zm0 246c-38 0-69 31-69 69s31 69 69 69h308.5c38 0 69-31 69-69s-31-69-69-69zm0 246c-38 0-69 31-69 69s31 69 69 69h308.5c38 0 69-31 69-69s-31-69-69-69z"/><path d="m1544.9 539.6c0 52-4.7 93.9-14.1 125.8-17 57.3-79 155.1-233 155.1-126.2 0-189.2-79.5-207.7-115.2-25.6-44.9-31.4-96.6-31.4-147.5v-116.1c0-34.8 1.2-70.6 12.4-104.1 35.5-106.5 126.5-158.5 226.7-158.5 75 0 132.5 20 172.7 60.2s64.7 89.7 73.6 148.8h-106.8c-26.6 0-49.5-12.7-63.6-35.4-12.4-19.9-31.8-35.5-75.9-35.5-48.8.9-70.3 28.9-78.9 73.1-3.5 19.8-5.3 56.3-5.3 109.4s1.8 89.8 5.3 109.8c5.3 29.9 19.2 72.7 78.9 72.7 68.4 0 93-44 93-92.2v-8.8h-18.3c-41.2 0-74.8-33.6-74.8-74.9v-54.6h247.2z"/><path d="m1955.9 558.2v256.9h-80.2c-41.2 0-74.9-33.5-74.9-74.8v-182.1l-190.5-373.9h121.3c29.9 0 55.4 16.4 67.9 43.6l79.3 172.1 78.7-170.5c12.8-27.6 38.1-45.1 68.6-45.1l120.2-.1z"/><path d="m2829.2 815.1h-80.3c-41.2 0-74.9-33.5-74.9-74.8v-227.3l-67.9 118.3c-13.7 23.9-37.4 37.6-64.9 37.6h-12.5c-27.5 0-51.2-13.7-64.9-37.6l-67.9-118.3v302.1h-80.3c-41.2 0-74.8-33.5-74.8-74.8v-556h106.5c28.9 0 53.6 15.1 66.7 40.8l121 237.3 120.9-237.3c13.1-25.7 37.8-40.8 66.7-40.8h106.6z"/><path d="m3867.1 387.2c0-29.7-22.3-63.7-67.4-63.7h-87.8v127.6h87.8c45 0 67.4-34.3 67.4-63.9zm56.1 427.9c-29.6 0-54.9-15.9-67.6-42.6l-91.3-192.1h-52.3v234.7h-80.2c-41.2 0-74.9-33.5-74.9-74.8v-556h249.8c153.3 0 215.4 111.1 215.4 202.8 0 103.9-75.7 151.2-102.8 164.8l136.5 263.2z"/><path d="m4447.9 591.8-53.1-168.3-56.7 168.3zm232.1 223.3h-107.1c-33.3 0-61.6-20.7-71.5-52.5l-12.8-41.3h-194.1l-14 42.5c-10.3 31.2-38.2 51.3-71 51.3h-108l211.6-581.5c11-30.1 38.2-49.3 70.3-49.3h67.1z"/></g></g></svg>