<svg viewBox="0 0 50 100" xmlns="http://www.w3.org/2000/svg"><defs><mask id="m"><path d="m2 2h46v96h-46z" fill="#fff"/><path d="m20.1 7c-1.8 0-3.4 1-4.3 2.5l-7.9 13.6c-.4.8-.6 1.6-.6 2.5v48.8c0 .9.2 1.8.6 2.5l7.9 13.6c.9 1.5 2.5 2.5 4.3 2.5h9.8c1.8 0 3.4-1 4.3-2.5l7.9-13.6c.4-.8.6-1.6.6-2.5v-48.8c0-.9-.2-1.8-.6-2.5l-7.9-13.6c-.9-1.5-2.5-2.5-4.3-2.5zm1 3.7h7.8c1.2 0 2.2.7 2.8 1.7l6.9 12c.3.5.7.9.7 1.5v18.2c0 1.3-1.5 2.1-2.5 1.5l-24.6-13c-.8-.4-1.1-1.2-1.1-2.1v-4.6c0-.6 0-1 .3-1.5l6.9-12c.6-1 1.9-1.7 2.8-1.7zm-7.9 43.7 24.6 13c.8.4 1.1 1.2 1.1 2.1v4.6c0 .6 0 1-.3 1.5l-6.9 12c-.6 1-1.9 1.7-2.8 1.7h-7.8c-1.2 0-2.2-.7-2.8-1.7l-6.9-12c-.3-.5-.7-.9-.7-1.5v-18.2c0-1.3 1.5-2.1 2.5-1.5z"/></mask></defs><g fill="#fff"><path d="m2 2h46v96h-46z" mask="url(#m)"/><path d="m10.8 37.6v11.1h1.9v-4h.8c2.3 0 3.1-.9 3.1-3.6s-.8-3.5-3.1-3.5zm1.9 1.8h.8c.9 0 1.2.2 1.2 1.7s-.4 1.8-1.2 1.8h-.8z"/><path d="m17.8 42.5v7.9c0 2.3 1.1 3.5 3.1 3.5s2.9-1.2 2.9-3.5v-7.9h-1.9v7.9c0 1.1-.2 1.5-1 1.5s-1.2-.4-1.2-1.5v-7.9z"/><path d="m25.8 46.8v11.1h1.8v-4.9h.8l1.6 4.9h2.1l-2.1-5.7 2.1-5.4h-2.1l-1.6 4.6h-.8v-4.6z"/><path d="m32.5 51 2.4 7.9v3.5h2v-3.5l2.3-7.9h-2.1l-.9 4.7-.2 1.1-.4-1.1-1.1-4.7z"/></g></svg>