<svg viewBox="0 0 42 100" xmlns="http://www.w3.org/2000/svg"><path fill="#999" d="m12.5 2-10.5 18.6v58.8l10.5 18.6h17l10.5-18.6v-58.8l-10.5-18.6z"/><path fill="#fff" d="m13 2.8-10.2 17.9v58.6l10.2 17.9h16l10.2-17.9v-58.6l-10.2-17.9z"/><path d="m14.5 5.9h13l9 15.6v30l-31-30z"/><path d="m27.5 95.1h-13l-9-15.6v-30l31 30z"/><g fill="#fe0018"><path d="m15.7 7.5h10.6l8.5 14.6v24.9l-26.9-26z"/><path d="m26.3 93.5h-10.6l-8.5-14.6v-24.9l26.9 26z"/></g><path d="m5.8 43.3h2.1v-5.6h1.8c2.5 0 3-2.6 3-4 0-1.9-.5-3.7-2.9-3.7h-4zm3.3-11.4c.8 0 1.4.3 1.4 1.8 0 1.8-.8 2-1.4 2h-1.2v-3.8z"/><path d="m13.9 39v8.9c0 .9.3 2.2 1.5 2.2 1.3 0 1.4-1.1 1.4-2.2v-8.9h2.1v8.9c0 3.7-1.8 4.1-3.6 4.1-1.6 0-3.5-.4-3.5-4.1v-8.9z"/><path d="m23.1 47v6l2.5-6h2.4l-2.7 5.7 2.8 7.7h-2.3l-2-5.3-.7 1.3v4h-2.1v-13.4z"/><path d="m30.6 56.7 1 2.9.7 2.6.6-2.6 1-2.9h2.3l-2.9 7.6v5.7h-2.1v-5.7l-2.8-7.6z"/></svg>