<svg viewBox="0 0 291 100" xmlns="http://www.w3.org/2000/svg" xmlns:xlink="http://www.w3.org/1999/xlink"><mask id="m"><path d="m2 2v96h287v-96z" fill="#fff"/><path d="m45.5 28.1-15.1 43h47.5l4.1-12.1h-28.9l10.8-30.9z"/><path d="m102.8 28.1-15 42.9h53.5l1.9-11.9-32.9-.1 1.6-4.9h24.3l3.6-10.5h-24.1l1.7-4.9h34.4l3.6-10.6z"/><path d="m170.4 28.1-15 43h18.2l7.3-18.5 11.3 18.5h19.7l-13.9-24.5 27.4-18.5h-19.6l-22.7 16.1 5.5-16.1z"/><path d="m241.1 28.1-15.7 43h19.2l15.7-43z"/><path d="m63.3 28.6-10.8 30.8h28.9l-3.8 11.2h-46.5l14.7-42z"/><path d="m140.9 70.6h-52.5l14.7-42h51.7l-3.3 9.6h-34.5l-1.9 5.8h24.1l-3.4 9.6h-24.2l-1.9 5.8h33.1z"/><path d="m188 28.6-5.8 16.7 23.7-16.7h18.1l-26.5 17.9 13.6 24.1h-18.6l-11.6-19-7.6 19h-17.3l14.7-42z"/><path d="m259.7 28.6-15.4 42h-18.3l15.4-42z"/><path id="x1" d="m194.1 82.2-1.6-4.9h.9l1.1 3.9 1.1-3.9h.9l1 3.9 1.2-3.9h.9l-1.6 4.9h-.9l-1.1-3.8-1 3.8z"/><use transform="translate(7.2)" xlink:href="#x1"/><use transform="translate(14.4)" xlink:href="#x1"/><path d="m215 82.2v-1h1v1z"/><path d="m217.5 82.2v-6.8h.9v6.8z"/><path id="x2" d="m223.4 80.6.8.1c-.4 1.4-1.7 1.7-2.3 1.7-.8 0-2.4-.3-2.4-2.6 0-2.6 2.1-2.7 2.4-2.7 1.4 0 2.3 1.1 2.3 2.7v.2h-3.8c.1 1.2.8 1.7 1.5 1.7.8 0 1.1-.4 1.5-1.1zm-3-1.3h2.9c0-.5-.3-1.4-1.4-1.4-.8 0-1.4.5-1.5 1.4z"/><path d="m225.3 82.2v-6.8h.9v3.9l2.1-2h1.1l-2 1.8 2.2 3.1h-1.1l-1.7-2.5-.6.5v2z"/><path d="m230.3 76.4v-1h.9v1zm0 5.8v-4.9h.9v4.9z"/><path d="m232.8 82.2v-1h1v1z"/><path d="m238.7 82.2v-.6c-.3.5-.9.7-1.5.7-1.2 0-2.2-1-2.2-2.6s.9-2.5 2.2-2.5c.3 0 .9 0 1.4.6v-2.4h.9v6.8zm-2.8-2.4c0 1.8 1.2 1.9 1.4 1.9.3 0 1.4-.2 1.4-1.9 0-.5-.2-1.9-1.5-1.9-1.2 0-1.3 1.3-1.3 1.9z"/><use transform="translate(21.1)" xlink:href="#x2"/></mask><g id="figure" fill="#fff"><rect id="a" height="96" rx="5.3" width="287" x="2" y="2" mask="url(#m)"/></g></svg>