<svg viewBox="0 0 293 100" xmlns="http://www.w3.org/2000/svg"><g id="figure" fill="#fff"><path d="m26.9 2c-2.4 0-9.4.6-11 8.2l-1.2 5.7h52.4l2.9-13.9z"/><path d="m56.7 64.1.6-2.7h-36l3.1-15h26l2.4-11.4h-26l2.7-12.8h-16.4l-11.1 53.4h43.3c7.6 0 10-5 11.4-11.5z"/><path d="m72.5 22.2 12.4 25-25.2 28.4h16.9l18-20.4 9.2 20.4h17.8l-12.9-27.5 23.5-25.9h-16.5l-16.8 19.1-9.1-19.1z"/><path d="m155.3 15.9 2.9-13.9h-5.2c-2.4 0-9.6.6-11.2 8.2l-1.2 5.7z"/><path d="m139.2 22.2-11.2 53.4h14.7l11.1-53.4z"/><path d="m172.7 22.2c-7.5 0-10.6 3.3-12.1 10.5l-6.8 32.5c-.3 1.6-.5 2.9-.5 4.1 0 4.3 2.4 6.3 8.2 6.3h19.1c7.9 0 10.2-5.9 10.9-9.2l.6-2.8h-20.6c-1.5 0-2.9-.2-2.3-2.9l4.8-22.7c.5-2.2 1.2-3 3.5-3h22.7l-9.9 47.2c-.5 2.3-1.3 3-3.6 3h-35.2l-2.7 12.8h42.8c7.6 0 10.7-3.2 12.2-10.4l13.7-65.4z"/><path d="m263.7 38c.4-1.8.6-3-2.6-3h-20.6c-2.2 0-2.9.7-3.4 3l-4.5 21.7c-.4 1.8-.4 2.9 2.1 2.9h20.7c2.5 0 3.4-.8 3.8-2.9zm-39.1 37.6c-5.8 0-8.2-2-8.2-6.3 0-1.2.2-2.5.5-4.1l6.8-32.5c1.5-7.2 4.6-10.5 12.1-10.5h35.9c6 0 8.3 2.1 8.3 6.4 0 1.2-.2 2.5-.5 4.1l-6.8 32.5c-1.5 7.2-4.6 10.4-12.2 10.4z"/><path d="m283.2 22.2c0-1.9 1.4-3.4 3.3-3.4s3.4 1.5 3.4 3.4-1.5 3.5-3.4 3.5-3.3-1.6-3.3-3.5zm-1.1 0c0 2.5 1.9 4.4 4.4 4.4s4.5-1.9 4.5-4.4c0-2.4-2-4.3-4.5-4.3s-4.4 1.9-4.4 4.3z"/><path d="m285.9 22v-1.2c.4-.1 1.5-.1 1.5.6 0 .5-.4.6-1 .6zm1.6.4v-.1c.5-.2.9-.5.9-1-.1-1.1-.9-1.3-1.9-1.3-.7 0-1.2.1-1.6.2v4.2h1v-1.7h.4c.5 0 .8.2.9.7s.3.8.4 1h1c-.1-.2-.2-.3-.3-1-.1-.6-.4-.8-.8-1z"/></g></svg>