<svg viewBox="0 0 135 100" xmlns="http://www.w3.org/2000/svg"><g id="figure"><path d="m28.5 78.1 3.4-16.5h27.1l3.5-16.7h-27.1l2.5-11.7h-22.4l-13.5 64.8h98.5c2.7 0 11.9-.7 14.4-10.7l2.3-9.2z"/><path d="m106.5 21.9-3.5 16.5h-27l-3.5 16.7h27l-2.5 11.7h22.5l13.5-64.8h-98.6c-2.7 0-11.7.8-14.3 10.8l-2.4 9.1z"/><path d="m121 94.4v-.9c.1 0 .2-.1.4-.1.5 0 .7.2.7.5 0 .4-.3.5-.7.5zm1.3.3v-.1c.4-.1.7-.4.7-.8 0-.3-.2-.6-.4-.7s-.5-.3-1.1-.3-1 .1-1.3.2v3.3h.8v-1.3h.3c.4 0 .6.1.7.5s.2.7.3.8h.8c-.1-.1-.1-.3-.2-.8s-.3-.7-.6-.8z"/><path d="m118.9 94.6c0-1.5 1.1-2.7 2.6-2.7s2.6 1.2 2.6 2.7-1.1 2.7-2.6 2.7-2.6-1.2-2.6-2.7zm-.9 0c0 1.9 1.6 3.4 3.5 3.4s3.4-1.5 3.4-3.4-1.5-3.4-3.4-3.4-3.5 1.5-3.5 3.4z"/></g></svg>