<svg viewBox="0 0 374 100" xmlns="http://www.w3.org/2000/svg"><g id="figure" fill="#fff"><path d="m28.5 78.1 3.4-16.5h26.8l3.5-16.7h-26.8l2.5-11.7h-22.4l-13.5 64.8h98.2c2.7 0 11.9-.7 14.4-10.7l2.3-9.2z"/><path d="m106.2 21.9-3.5 16.5h-26.7l-3.5 16.7h26.7l-2.5 11.7h22.5l13.5-64.8h-98.3c-2.7 0-11.7.8-14.3 10.8l-2.4 9.1z"/><path d="m201.7 38.8 9.7 19.4-19.7 22.2h13.2l14-15.9 7.2 15.9h13.9l-10.1-21.4 18.3-20.2h-12.8l-13.1 14.9-7.1-14.9z"/><path d="m253.6 38.8-8.7 41.6h11.4l8.7-41.6z"/><path d="m350.6 51c.3-1.4.5-2.3-2-2.3h-16.1c-1.7 0-2.2.5-2.6 2.3l-3.5 17c-.3 1.5-.3 2.2 1.6 2.2h16.1c2 0 2.7-.6 3-2.2zm-30.5 29.4c-4.6 0-6.4-1.5-6.4-4.9 0-.9.1-2 .4-3.2l5.3-25.4c1.2-5.6 3.5-8.1 9.4-8.1h28c4.7 0 6.5 1.5 6.5 4.9 0 .9-.1 2-.4 3.2l-5.3 25.4c-1.2 5.6-3.6 8.1-9.5 8.1z"/><path d="m166.2 23c-1.9 0-7.4.5-8.6 6.4l-.9 4.5h40.8l2.3-10.9z"/><path d="m266.2 33.8 2.2-10.8h-4.2c-1.9 0-7.4.5-8.6 6.4l-.9 4.4z"/><path d="m279.7 38.8c-5.9 0-8.3 2.5-9.5 8.1l-5.3 25.4c-.3 1.2-.4 2.3-.4 3.2 0 3.4 1.9 4.9 6.5 4.9h14.8c6.4 0 8.1-4.4 8.6-7.2l.4-2.2h-16c-1.2 0-2.2-.1-1.8-2.2l3.7-17.7c.4-1.7.9-2.4 2.7-2.4h17.7l-7.7 36.8c-.4 1.8-.9 2.4-2.7 2.4h-27.5l-2.2 10h33.4c5.9 0 8.3-2.6 9.5-8.2l10.8-50.9z"/><path d="m189.4 71.4.5-2.1h-28.1l2.5-11.7h20.2l1.9-8.8-20.3-.1 2.1-9.9h-12.8l-8.6 41.6h33.7c4.2 0 7.2-2 8.9-9z"/><path d="m368.1 38.6v-.9c.1 0 .2-.1.4-.1.5 0 .7.2.7.5 0 .4-.3.5-.7.5zm1.3.3v-.1c.4-.1.7-.4.7-.8 0-.3-.2-.6-.4-.7s-.5-.3-1.1-.3-1 .1-1.3.2v3.3h.8v-1.3h.3c.4 0 .6.1.7.5s.2.7.3.8h.8c-.1-.1-.1-.3-.2-.8s-.3-.7-.6-.8z"/><path d="m366 38.8c0-1.5 1.1-2.7 2.6-2.7s2.6 1.2 2.6 2.7-1.1 2.7-2.6 2.7-2.6-1.2-2.6-2.7zm-.9 0c0 1.9 1.6 3.4 3.5 3.4s3.4-1.5 3.4-3.4-1.5-3.4-3.4-3.4-3.5 1.5-3.5 3.4z"/></g></svg>