<svg viewBox="0 0 378 100" xmlns="http://www.w3.org/2000/svg"><g fill="#00b2ba"><path d="m79.5 50c0 5.1 4.1 9.3 9.3 9.3 5.1 0 9.3-4.1 9.3-9.3 0-5.1-4.1-9.3-9.3-9.3-5.1 0-9.3 4.1-9.3 9.3z"/><path d="m59.7 50c0 4.5 3.7 8.2 8.2 8.2s8.2-3.7 8.2-8.2-3.7-8.2-8.2-8.2-8.2 3.7-8.2 8.2z"/><path d="m59.7 29.1c0 4.5 3.7 8.2 8.2 8.2s8.2-3.7 8.2-8.2-3.7-8.2-8.2-8.2-8.2 3.7-8.2 8.2z"/><path d="m59.7 70.8c0 4.5 3.7 8.2 8.2 8.2s8.2-3.7 8.2-8.2-3.7-8.2-8.2-8.2-8.2 3.7-8.2 8.2z"/><path d="m39.9 50c0 4 3.2 7.2 7.2 7.2s7.2-3.2 7.2-7.2-3.2-7.2-7.2-7.2-7.2 3.2-7.2 7.2z"/><path d="m39.9 29.1c0 4 3.2 7.2 7.2 7.2s7.2-3.2 7.2-7.2-3.2-7.2-7.2-7.2-7.2 3.2-7.2 7.2z"/><path d="m39.9 70.9c0 4 3.2 7.2 7.2 7.2s7.2-3.2 7.2-7.2-3.2-7.2-7.2-7.2-7.2 3.2-7.2 7.2z"/><path d="m39.9 91.8c0 4 3.2 7.2 7.2 7.2s7.2-3.2 7.2-7.2-3.2-7.2-7.2-7.2-7.2 3.2-7.2 7.2z"/><path d="m39.9 8.2c0 4 3.2 7.2 7.2 7.2s7.2-3.2 7.2-7.2-3.2-7.2-7.2-7.2-7.2 3.2-7.2 7.2z"/><path d="m20.1 50c0 3.4 2.8 6.2 6.2 6.2s6.2-2.8 6.2-6.2-2.8-6.2-6.2-6.2-6.2 2.8-6.2 6.2z"/><path d="m20.1 70.8c0 3.4 2.8 6.2 6.2 6.2s6.2-2.8 6.2-6.2-2.8-6.2-6.2-6.2-6.2 2.8-6.2 6.2z"/><path d="m20.1 29.2c0 3.4 2.8 6.2 6.2 6.2s6.2-2.8 6.2-6.2-2.8-6.2-6.2-6.2-6.2 2.8-6.2 6.2z"/><path d="m7.4 44.8c-2.9 0-5.2 2.3-5.2 5.2 0 2.8 2.3 5.2 5.2 5.2 2.8 0 5.2-2.3 5.2-5.2s-2.3-5.2-5.2-5.2"/></g><g fill="#002537"><path d="m171.2 21c0 3.4 2.8 6.2 6.2 6.2s6.2-2.8 6.2-6.2-2.8-6.2-6.2-6.2-6.2 2.8-6.2 6.2z"/><path d="m302.2 21c0 3.4 2.8 6.2 6.2 6.2s6.2-2.8 6.2-6.2-2.8-6.2-6.2-6.2-6.2 2.8-6.2 6.2z"/><path d="m172.4 91.8h9.9v-55.2h-9.9z"/><path d="m303.5 91.8h9.9v-55.2h-9.9z"/><path d="m357.2 46.5v-9.9h-14.5v-21.4h-9.9v21.4h-7.9v9.9h7.9v29.6c0 8.7 7.1 15.8 15.8 15.8h8.5v-9.9h-7.8c-4 0-6.7-2.9-6.7-6.9v-28.6z"/><path d="m227.2 46.5v-9.9h-14.6v-21.4h-9.9v21.4h-7.9v9.9h7.9v29.6c0 8.7 7.1 15.8 15.8 15.8h8.5v-9.9h-7.8c-4 0-6.7-2.9-6.7-6.9v-28.6z"/><path d="m134.4 36.6h-7.9v9.9h7.9v45.4h9.9v-45.4h15.9v-9.9h-16v-11.4c0-4.2 2.9-7.3 6.7-7.3h9.1v-9.8h-8.6c-9.5 0-17.2 7.7-17.2 17.2z"/><path d="m266.6 82.7c-9.9 0-17.9-8.3-17.9-18.5s8-18.5 17.9-18.5 17.9 8.3 17.9 18.5-8 18.5-17.9 18.5zm.9-47c-8.9 0-15.2 4.1-18.9 8.8v-36.4h-10v83.7h10.1v-7.8c3.7 4.7 10 8.8 18.9 8.8 15.6 0 27-12.2 27-28.5 0-16.7-14.8-28.2-27-28.6z"/><path d="m369.8 86.9h1.2c.7 0 1.1-.3 1.1-.9 0-.5-.4-.9-1.1-.9h-1.2zm2.8 3.1-1.6-2.5h-1.2v2.5h-.7v-5.5h1.9c1 0 1.7.6 1.7 1.5 0 .7-.4 1.2-1 1.4l1.6 2.6zm2.6-2.6c0-2.4-1.8-4.3-4.2-4.3s-4.2 1.8-4.2 4.3c0 2.4 1.8 4.3 4.2 4.3s4.2-1.8 4.2-4.3zm-9.1 0c0-2.8 2.1-4.9 4.9-4.9s4.9 2.1 4.9 4.9-2.1 4.9-4.9 4.9-4.9-2.1-4.9-4.9z"/></g></svg>