<svg viewBox="0 0 247 100" xmlns="http://www.w3.org/2000/svg"><g id="figure="><path d="m82.4 2.1 40.9 41.2 40.9-41.2-25 13.3-15.9 15.8-15.9-15.8zm17 2.8 23.9 24.2 23.9-24.2-23.9 16.4z"/><path d="m1.9 51.4 5.5 5.1v8h26.6v-13.1l5.5 5.8v25.8l-5.5-5.1v-7.9h-26.6v13l-5.5-5.1z"/><path d="m34.2 49.4h7.6l11.2 12 11.4-12h7.6l-16.2 16.8-.1.5v16.4h-5.4v-16.4l-.1-.5z"/><path d="m72 51.6h25.2c2.9 0 6.2 2.1 6.2 6.5v5.5c0 3.9-2.8 6.5-6 6.5h-25.9v8l-5.5 5.2v-18.7h30.4c.9 0 1.6-.6 1.6-1.5v-4.5c0-1-.7-1.6-1.6-1.6h-29.6z"/><path d="m154.9 57.6v6.2c0 2.8-2.6 6.2-6.2 6.2h-6l26 27.9-38.7-33.3h18.5c.6 0 .9-.5.9-1v-5.7c0-.5-.4-1-.9-1h-37.2c-.5 0-.9.4-.9 1v6.7h17.4l5.1 5.4h-22.5v6.6c0 .5.3 1 .9 1h28.9l5.1 5.5h-34.1c-3.2 0-6.2-2.7-6.3-6.2v-19.3c.1-3.4 3-6 6.1-6.1h37.7c3 0 6.1 2.4 6.2 6.1z"/><path d="m164.7 51.5-7.3.1v31.3h7.3zm-7.3.1v-.1zm1.2 1.1h5v29.1h-5z"/><path d="m174 51.6c-3.3 0-6.8 2.7-6.8 7.5v16.6c0 2.6 1.7 7.3 6.8 7.3h31.6l-6.8-7.2-24.2-.1v-16.8h31l-6.8-7.3zm0 1.1h24l4.9 5h-28.6c-.6 0-.9.4-.9 1v17.3c0 .5.4.9.9.9h23.9l4.7 5h-28.9c-2.8-.1-5.6-2.6-5.6-6.2v-16.6c0-3.5 2.6-6.3 5.6-6.4z"/><path d="m238.2 51.6h-23.3c-4.9 0-8.1 2.7-8.1 7.8v15.9c0 5.3 2.9 7.8 8.1 7.8h30.2l-6.8-7.2h-24.2v-4.9h31l-6.9-7.3h-24.1v-4.7h31zm-.5 1.2 4.7 5h-28.3c-.7 0-1.2.4-1.2 1.2v5.9h24.8l4.7 4.9-29.5.1v6c0 .9.5 1.1 1.2 1.1h23.7l4.6 4.9h-27.5c-3.8 0-6.7-2.4-6.9-6.6v-15.9c.1-5.1 3.6-6.5 6.9-6.6z"/></g></svg>