<svg viewBox="0 0 101 100" xmlns:xlink="http://www.w3.org/1999/xlink" xmlns="http://www.w3.org/2000/svg"><g id="figure" fill="#fff"><path d="m10.4 2c-4.5 0-5.3 3.3-5.3 6v19.2h-2.6c-.3 0-.5.2-.5.5 0 .2.2.6.5.6h9.9c.3 0 .5-.3.5-.6 0-.2-.2-.5-.5-.5h-1.4v-19.3h79.2v16.9h-.9c-.3 0-.5.3-.5.5 0 .3.2.5.5.5h9.2c.3 0 .5-.3.5-.5 0-.3-.2-.5-.5-.5h-2.6v-16.8c0-2.7-.8-6-5.3-6zm0 3.8h80.4c1.2 0 1.6 1 1.6 2.1v16.9h-.9v-16.6c0-1-.4-1.7-1.4-1.7h-78.9c-1.1 0-1.5.7-1.5 1.7v19h-.9v-19.3c0-1.1.4-2.1 1.6-2.1z"/><path d="m89.3 52c-.3 0-.5.3-.5.6 0 .2.2.5.5.5h.9v20.2l-36.7 17.7c-.8.4-2.1 1.1-2.7 1.1-1.2-.1-2.3-.6-3.4-1.1l-36.4-17.7.1-13h1.3c.3 0 .4-.3.4-.5s-.1-.5-.4-.5h-9.9c-.3 0-.5.3-.5.5 0 .3.2.5.5.5h2.6v12.9c0 2.7 1.5 4.6 5.3 6.4l37 17.8c1.1.5 2.2.6 3.4.6.9 0 1.9-.2 2.7-.6l37.1-17.7c4.1-1.9 5.3-3.8 5.3-6.5v-20.1h2.6c.3 0 .5-.2.5-.5 0-.2-.2-.6-.5-.6zm2.3 1.1h.8v20.2c0 1.1-.5 1.6-1.6 2.1l-37.3 18c-.8.4-1.8.9-2.7.9-1.2 0-2.3-.4-3.4-.9l-37-18c-1-.5-1.6-1-1.6-2.1v-13h.9v12.7c0 1 .6 1.4 1.5 1.9l36.2 17.4c1.1.5 2.3 1.2 3.4 1.2.8 0 1.9-.6 2.7-1l36.6-17.5c1-.5 1.5-1 1.5-2z"/><path d="m29.1 21.1c-.2 0-.4-.1-.4-.2l-.9-2h-4.3l-.9 2c0 .1-.2.2-.4.2h-2c-.2 0-.4 0-.3-.2l3.1-6.7c.5-1 1.9-1.1 2.7-1.1s2.1.1 2.6 1.1l3.1 6.7c.1.2-.2.2-.3.2zm-3.2-6.6c-.1-.2-.5-.2-.6 0l-1.3 3.2h3.3z"/><path d="m42 21.1c-.2 0-.3-.1-.4-.2l-2.8-2.9c-.5 0-.7 0-1.9 0v2.9c0 .1-.2.2-.4.2h-1.9c-.2 0-.4-.1-.4-.2v-7.3c0-.2.3-.3.7-.3 1-.1 2.3-.2 3.7-.2 2.4 0 5.5.5 5.5 2.5 0 1-.7 1.8-2.6 2.2l3 3.1c.1.1-.1.2-.2.2zm-5.1-4.4c1.6.1 4.6.4 4.6-1.1s-3-1.2-4.6-1.1z"/><path d="m53.1 14.5v6.4c0 .1-.2.2-.4.2h-1.9c-.2 0-.3-.1-.3-.2v-6.4h-3.4c-.2 0-.4-.1-.4-.2v-.9c0-.1.2-.2.4-.2h9.4c.2 0 .4.1.4.2v.9c0 .1-.2.2-.4.2z"/><path d="m60 21.1c-.6 0-1-.1-1-.4v-.6c0-.1.1-.2.3-.4l6.1-5c.1-.1 0-.2-.2-.2h-5.3c-.2 0-.4-.1-.4-.2v-.9c0-.1.2-.2.4-.2h7.7c.6 0 1 .1 1 .4v.6c0 .2 0 .3-.2.4l-6 5s-.2.2.1.2h5.9c.2 0 .4.1.4.2v.9c0 .1-.2.2-.4.2z"/><path d="m77.4 14.5v6.4c0 .1-.2.2-.4.2h-1.9c-.2 0-.4-.1-.4-.2v-6.4h-3.4c-.2 0-.4-.1-.4-.2v-.9c0-.1.2-.2.4-.2h9.4c.2 0 .4.1.4.2v.9c0 .1-.2.2-.4.2z"/><path d="m26.4 33.1c-.2.3-8.2 13.7-8.4 14.3h-.1c.1-.5 3.7-14.3 3.8-14.6 0-.2-.1-.3-.2-.4-.5-.5-.9-1-1.4-1.5-.2-.1-.4 0-.5.1-1.3 1.1-5.1 3.5-7.5 4.5s-4.2 2.1-5.8 4.2c-.8 1-1.3 2.4-1.3 3.7 0 2.6 1.6 4.5 4 4.5 3 0 4.8-2.4 5-3.2.1-.3-.4-.4-.6-.6-.3-.3-.6-.9-1-.4-1 1.1-1.8 1.7-3.4 1.7-1.8 0-3.2-3.7 1-6.3 2.8-1.7 5.6-3.1 8.5-4.5-2.5 10.6-5.5 21.4-5.5 21.4 1-.1 2-.3 2.9-.5 0 0 4.8-8 5.1-8.5 1-1.8 6.6-11 7.4-12.2s1.7-2.5 3-3.1c.8-.4 1.5-.3 2.3-.3.5 0 1 .2 1.1.2.2-.1.4-.6.4-.7s-1-2.1-3.2-2.1-4.3 2.1-5.6 4.3z"/><path d="m33.9 32.6c.8.2 1.2 1.3 1.1 2.1-.2 1.2-1.1 2-2.3 1.8-.8-.1-1.2-.6-1.2-1.7 0-1.8 1.3-2.4 2.4-2.2z"/><path d="m55.8 27.2-2.9 5.9-2.8.4-.9 1.7 2.8-.3s-4.6 10-7.6 13.3c-.7.8-2.2 2.5-3.7 2.5-.5 0-.2-1.1 0-1.5 2.3-4.7 4.7-9.5 4.9-10.1.7-2.1-.2-3.5-1.6-3.5-1.2 0-2.1.7-3 1.4-.5.4-1 1-1.4 1.5 0-.3.5-1.1.9-2-.2-.1-3.1.4-3.1.4s-3.6 7.5-6.5 12c-.9 1.4-3.5 3.9-4.7 3.8-.5 0-.5-.4-.4-.7 1.8-4 4-8.4 6.8-14 .1-.3.2-.5.2-.5l-3 .4s-6.6 12.7-6.8 14.1c-.1.3-.1.5-.1.8 0 1.9 1.4 2.3 2.4 2.3 2.1-.1 3.8-2.3 4.1-2.3l-.6 1.4 3.1-.5c3.6-7.6 5.7-10.8 6.3-11.7.2-.3 2.3-3 3.7-3.5.4-.1 1.2-.1.5 1.4-.3.7-3.2 6.5-4.1 8.2s-1.5 4.8 1.1 4.8c3.4 0 5.4-3 5.8-3.3-.1 1.1.6 2.2 1.8 2.2 3.6.1 5.9-3.2 5.9-3.2s-.2 2.2 1.7 2.2c2.6 0 4.4-1.8 5.2-2.7.8 1.5 1 1.7 2 1.7 2.5 0 4.1-1.9 5.8-3.3 0 .3.1 2.1 1.6 2.2 1.3.1 3-.5 3.9-1.5 0 1.8-3.4 3-4.7 3.9-1.6 1.2-3 2.8-2.9 4.9.1 1.7 1.8 1.9 2.3 1.9 3.7-.3 5.3-5.1 6.8-8.1.1-.2 2.6-1.6 2.8-1.8 2.4-1.8 4.6-4 4.7-4.4 0-.1.2-.2.2-.1-.2 1.1 1.4 2.8 2.6 2.9 3.3.2 4.8-.6 7.7-3.4.3-.3 3.4-3.5 3.4-3.9 0-.7-.7-1.8-1.4-.8-1 1.4-2.1 2.6-3.4 3.8-1.4 1.2-3.4 2.3-4.6 2.2-1.1-.1-1.9-1.3-.9-3.5.1-.3.4-.9.4-.9s1.1.2 2.2 0c4.7-.9 7-6.7 7.1-7.9 0-.3.2-3-1.9-3.1-3.1-.2-5.2 1.1-6.7 3.9-.7 1.3-2 4-2.7 5.3-.3.5-3.2 5.8-8.1 9 .1-.4 6.8-13.4 7-13.8l-2 .2c.3-.9-.9-2.6-2.5-2.6-4.2-.1-6.6 5.5-8 8.6-1.2 2.6-3.1 4.9-5.1 7-.5.6-1.5 1.5-2.3 1-.9-.5.5-2.6.8-3.2.2-.4 4.1-8.3 4.3-8.8l-1.7.3c0-1.9-1.7-2.9-2.6-2.9-2.4.1-3.9 1.5-5.3 3.4-.8 1.1-3.1 6.4-4.1 7.7-2.5 3.4-3.7 5.4-5.9 5.6-.8.1-.8-.6 0-1.9.1-.3 4.3-8.9 6.6-13.3l2.6-.5.9-1.7-2.6.4 2.9-5.9zm36.1 4.2c2 .2-.3 3.8-.6 4.4-1 1.8-2.6 2.5-4.2 2.3 0 0 1.1-2.3 2.2-4.7.5-1 1.9-2.1 2.6-2zm-13 4c-.8 2.2-2.5 5.9-5.9 10-.3.3-1.5 1.2-2.4 1-.4-.1-.2-.8.3-1.8.7-1.5 4-8.4 5.4-10.2.2-.3 1.3-1.1 2.2-.7.5.2.6 1.2.4 1.7zm-19.9 11.5c-.8.9-1.5 1.8-2.9 1.6-.5-.1-.2-1 0-1.4 1.5-3 3.2-7 4.6-9.4.7-1.2 1.4-2.1 2.8-2 .5 0 1.2.5.9 1.4s-3.2 7.4-5.4 9.8zm12 4.5c-.1.6-.7 1.8-1 2.4-.2.3-1 1.8-1.6 1.4-.7-.4-.2-1.3.5-2.2.6-.7 1.5-1.3 2.1-1.6z"/><path id="a" d="m35.4 61.3c0 3.2 3.1 3.4 3.1 5.6 0 .5-.1 1.1-.7 1.1-.9 0-1-1.2-.9-1.8h-1.6v.8c0 .7.4 2.4 2.5 2.4.7 0 2.4-.2 2.4-2.6 0-3-3.3-3.1-3.3-5.7 0-.5.5-.7.9-.7.7 0 .8.8.8 1.4h1.5c.1-1.8-.6-2.9-2.4-2.9-.9 0-2.3.5-2.3 2.4z"/><path id="b" d="m41.3 59v10.3h4.4v-1.5h-2.7v-2.9h2.1v-1.5h-2.1v-2.9h2.7v-1.5z"/><path d="m47.3 59.1c-.1 0-.4 0-.4.1v10.1h1.6v-4.2c1.6 0 1.6.7 1.6 1.8v2c0 .1.1.3.2.4h1.5c0-.3-.1-.4-.1-2.5 0-.4.1-.8 0-1.2 0 0-.2-.9-.9-1.3v-.1c.2-.2 1-.6 1-2.2 0-1.8-.4-2.9-2.1-2.9zm2.1 1.4c.7 0 .8 1.1.8 1.5s-.2 1.6-.8 1.6h-.8v-3.1z"/><path d="m53 59v10.3h1.6v-10.3z"/><use xlink:href="#b" transform="translate(14.7)"/><use xlink:href="#a" transform="translate(26.1)"/><path d="m81.3 52.3h.7c-2.9 15.1-16.9 25.3-30.8 25.3-16 0-26.4-10.6-29.5-18.6h.7c5.6 11.8 17.1 17.9 28.8 17.9 10.3 0 26.1-7.2 30.1-24.6z"/><path d="m27.9 70.9 1.9 1.5-.5.7-1.3-1-.9 1.2 1 .8-.4.6-1.1-.8-.9 1.2 1.2 1-.5.7-1.9-1.5z"/><path d="m31.5 75.4-.7-.5c.4-.5.3-.8-.1-.9-.3-.1-.5.2-.6.4-.4.9.4 2-.1 3-.2.3-.4.9-1.1.9-1.1 0-1.8-.9-1.1-1.9l.3-.4.5.5c-.3.2-.5.7 0 .9.3.1.5 0 .6-.2.3-.3-.1-2.2-.1-2.6.1-1.1 1.2-1.9 2.1-1.3.6.4.9 1.2.3 2.1z"/><path d="m32.5 74.3 2.4 1.4-.4.8-.8-.5-2.3 4.1-.8-.5 2.3-4.1-.8-.5z"/><path d="m37.9 77.1.5.3-2.2 5.1-.8-.5 1.7-3.7-.6-.3.2-.6c.6 0 .7.2 1.2-.3z"/><path d="m38.4 80.8c0 .5.6.8 1 .8.2 0 .4-.1.5-.1.1.2-.3 1.1-.5 1.2s-.6 0-.7-.2.1-.4.1-.6l-.8-.2c-.2.5-.2 1.3.3 1.6.2.2.6.3.9.3 1 0 1.2-.4 2.2-3.6.4-1.1-.3-2-1.4-2s-1.6 2.3-1.6 2.8zm1.7-1.9c.3 0 .6.1.6.4 0 .4-.3.8-.4 1.2-.1.3-.4.5-.7.4s-.3-.5-.2-.8c.1-.4.3-1.2.7-1.2z"/><path d="m42.2 81.4c-.6.4-.8 1.1-.8 1.8 0 .9.4 1.4 1.2 1.5.7.1 1.1-.2 1.4-1 .4-1.2.2-1.3 0-1.8.4-.1.6-.6.7-1.1.2-1-.2-1.5-.9-1.7-.8-.2-1.4.2-1.6.9s-.2 1.3 0 1.4zm.7-1.1c.2-.5.4-.6.8-.5.3.1.3.5.2.9-.1.5-.4.7-.8.6-.3-.1-.4-.5-.2-1zm.4 3c-.1.3-.2.8-.7.6s-.4-.9-.3-1.3c.1-.3.4-.6.8-.4.3.2.3.6.2 1.1z"/><path d="m46.6 79.7.6.2-.9 5.5-.9-.3.7-4-.7-.2.1-.6c.6-.1.7 0 1.1-.6z"/><path d="m50.5 82.3c-.4 0-.6.2-.6.6s.2.6.6.6.6-.2.6-.6-.2-.6-.6-.6z"/><path d="m54.2 81.6.1 1.2c.1.9.3 2.2 1.5 2.2 1 0 1.4-.8 1.3-1.7l-.2-1.6-1.2.2.1.7.5-.1c.1.5.4 1.5-.3 1.6-.6.1-.6-.4-.7-1s-.2-1.5-.2-2c0-.7-.1-.9.3-1s.5.4.6 1.1l.8-.1c0-.5-.1-1.8-1.3-1.8-1.4 0-1.4 1.2-1.3 2.3z"/><path d="m57.2 79.1 2.3-.5.2.8-1.5.3.3 1.4 1.2-.3.2.8-1.2.3.4 1.6 1.4-.3.2.8-2.3.5z"/><path d="m61.9 77.9c-.6 0-1.8.5-1.9.6l1.8 5.2.9-.4-.8-2.1c.5-.2.6-.2.8.1.5.7.5 1.6.9 1.8l.8-.3c-.4-.1-.5-2.4-1.5-2.3.7-1-.1-2.6-1-2.6zm-.3.9c.1-.1.4 0 .6.4.1.3.4.9-.1 1.1l-.4.2-.6-1.5z"/><path d="m66.4 75.8 2.4 4.9-.7.4-1.7-3.3 1 3.5-.7.4-2.2-2.9 1.6 3.2-.7.4-2.4-5 1.1-.5 2.2 3-1.1-3.6z"/><path d="m68.5 74.4-1.1.7 2.2 5.2.7-.5-.4-.9.8-.5.7.8.8-.6zm0 1.3 1.7 2.1-.6.4z"/><path d="m71.8 72 3.4 4.4-.8.6-3.1-2.4 2.3 3-.7.6-3.3-4.5.9-.7 2.5 2-1.8-2.5z"/><path d="m74.8 69.7 1.3 3.3 1.4 1.6-.7.7-1.2-1.4-3.3-2.1.7-.6 2.1 1.4-.9-2.2z"/></g></svg>