<svg viewBox="0 0 745 100" xmlns="http://www.w3.org/2000/svg"><g id="figure" fill="#fff"><g transform="scale(.1)"><path d="m723.5 20c-83.9 0-262.9 6.5-321 129l-364.5 768c-8.1 17-18 34.7-18 45 0 7.9 13.8 18 46.5 18h238.5c20.6 0 40.6-5.1 49.5-25.5l105-238.5c176-.3 352-.2 528 0l105 238.5c8.9 20.4 28.9 25.5 49.5 25.5h238.5c32.7 0 46.5-10.1 46.5-18 0-10.3-9.9-28-18-45l-364.5-768c-58.1-122.5-237.1-129-321-129zm0 150.3c20.3 0 28.9 5.4 37.5 25.2l163.5 373.5h-402l163.5-373.5c8.6-19.7 17.2-25.2 37.5-25.2z"/><path d="m1835 36.5c-53.3 5.1-75 14.2-75 45v864c0 30 28.3 34.5 52.5 34.5h219c33.2 0 54-6.5 54-37.5v-333c78.9 1.3 156.6 4.6 235.5 4.5l351 357c7.1 7.2 25.8 9 39 9h268.5c14.4 0 34.5-2 34.5-16.5 0-6.2-20.9-26.6-31.5-37.5l-336-345c80.6-18.2 164.2-45 229.5-97.5 76.8-61.7 82.6-131.2 82.5-169.5-.2-81.5-41.3-154.3-141-205.5-153.5-78.9-384.4-88.5-543-88.5-96.3 0-285.1 1.8-439.5 16.5zm712.5 168c84.9 30.6 90.9 82.4 90 118.5-1.3 47.8-23.7 99.4-120 124.5-142 32.3-287.6 20.4-432 18v-288c235.2-9.4 363-8.7 462 27z"/><path d="m3272 56v97.5c0 26.5 63.3 27 85.5 27h364.5v762c0 29.4 21.5 37.5 52.5 37.5h219c31 0 52.5-8.1 52.5-37.5v-762h364.5c22.2 0 85.5-.5 85.5-27v-97.5c0-26.4-57.6-27-85.5-27h-1053c-26.4 0-85.5.7-85.5 27z"/><path d="m4869.5 29h916.5c49.4 0 136.5 9 136.5 46.5v78c0 23.3-16.2 40.1-33 54l-696 574.5c-34.7 28.7-34.7 40.5 16.5 40.5h658.5c35.5 0 70.5 4.9 70.5 22.5v99c0 27.5-10.9 36-70.5 36h-993c-33.4 0-112.5-5.2-112.5-46.5v-76.5c0-22.5 23.1-40.9 39-54l720-594c14.9-12.3 11.7-22.5-18-22.5h-634.5c-15.1 0-46.5.8-46.5-15.7v-125.3c0-15 30.7-16.5 46.5-16.5z"/><path d="m6206 56v97.5c0 26.5 63.3 27 85.5 27h364.5v762c0 29.4 21.5 37.5 52.5 37.5h219c31 0 52.5-8.1 52.5-37.5v-762h364.5c22.2 0 85.5-.5 85.5-27v-97.5c0-26.4-57.6-27-85.5-27h-1053c-26.4 0-85.5.7-85.5 27z"/></g></g></svg>