<svg viewBox="0 0 236 100" xmlns="http://www.w3.org/2000/svg" xmlns:xlink="http://www.w3.org/1999/xlink"><g transform="scale(.2)"><g fill="#1476c6"><path d="m103.4 89.8c-1.7 0-3.3-.9-3.7-1.8l-8.8-20.2h-44.4l-8.9 20.2c-.4.9-1.9 1.8-3.6 1.8h-20.5c-1.9 0-3.4-.7-3.4-1.8 0-.1.2-.5.2-.6l31.6-66.6c4.7-9.8 18.5-10.8 26.8-10.8s22.1 1 26.8 10.8l31.6 66.6c.1.2.2.5.2.6 0 1.1-1.5 1.8-3.4 1.8zm-31.6-65.7c-1.1-2.4-5.1-2.4-6.2 0l-13.9 31.6h34z"/><path d="m233.4 89.8c-2.1 0-2.8-1.1-3.8-2.1l-27.8-28.4h-2.7c-5 0-12.8-.3-17.2-.4v28.8c0 1.2-1.5 2.1-3.6 2.1h-19.3c-2.1 0-3.9-.9-3.9-2.1v-73.1c0-2.1 2.3-2.9 6.2-3.2 10-.9 23.7-1.4 37.8-1.4 29.7 0 55.6 5.8 55.6 24v1c0 11.3-10.3 18.2-26.1 21.6l30.3 31.1c.3.3.4.6.4.8 0 .8-.7 1.3-2.3 1.3zm-5.4-55.8c0-8-9.6-11.4-28.9-11.4-4.1 0-13.7.3-17.2.5v23.9c3.1.1 13.9.3 17.2.3 19.9 0 28.9-2.9 28.9-12.3z"/><path id="a" d="m345.5 23.2v64.5c0 1.2-1.7 2.1-3.8 2.1h-19.1c-2.1 0-3.9-.9-3.9-2.1v-64.5h-33.8c-2.1 0-3.8-.7-3.8-1.9v-8.4c0-1.2 1.7-2.1 3.8-2.1h94.4c2.1 0 3.8.9 3.8 2.1v8.4c0 1.2-1.7 1.9-3.8 1.9z"/><path d="m415.2 89.8c-5.6 0-9.9-1-9.9-3.9v-5.9c0-1.3.7-2.4 2.6-4l61.1-50.5c.4-.3.6-.6.6-.9 0-.5-.5-.9-1.9-.9h-53.7c-2.1 0-3.6-.7-3.6-1.9v-8.9c0-1.2 1.5-2 3.6-2h77.8c5.6 0 10.2 1.3 10.2 4v6.2c0 1.5-1.1 3-2.7 4.3l-60.2 49.6c-.6.4-.8.9-.8 1.2 0 .4.4.6 1.8.6h59.4c2.1 0 3.8.7 3.8 1.9v9c0 1.2-1.7 2.1-3.8 2.1z"/><use transform="translate(244.4)" xlink:href="#a"/></g><g fill="#ffff"><path d="m10 171.9v162.3c0 40.9 34.8 86.5 95.5 86.5h9.1v-41.4h-4.7c-38.6 0-57.9-30.7-57.9-55.6v-48.4h51.3v-41.7h-51.3v-61.7zm31.9 9.1v61.9h52.3v22.6h-52.3v56.7c0 45.6 35.9 66.8 63.6 67v22.5c-47.8-1-86.2-33.5-85.9-81.1.3-49.8-.5-99.7 0-149.6z"/><path d="m157.1 170.2v249.1h42v-95.6c0-33.3 24.6-55.3 55.7-54.9 20.1.2 51.6 17.6 51.6 54.9v95.6h42.3v-93.1c0-72.8-58.7-99.3-92.2-99.2-20.8 0-40.6 4.7-57.4 16v-72.8zm9.1 9.1h22.8v84.6c23.6-25.2 51.6-27.6 67.5-27.6 21.5.1 81.7 16.6 82.2 91.7l.6 82.2h-22.8v-88.5c0-38.9-32.7-63.1-61.7-62.8-43.8.4-65.8 31.7-65.8 62.8v88.5h-22.8z"/><path d="m380.6 324.3c0 54 44.9 95.7 96 95.7 34.5 0 62.2-16.6 80-40.6l-34.8-23.6c-11.9 13.5-27.9 22.7-46.3 22.2-15.9-.4-37.2-8.8-48.6-33.4h144.9c.8-6.4 1.8-12.5 1.8-18.9 0-57.4-42.7-98.5-96.6-98.5-54 0-96.4 43.9-96.4 97.1zm183.3 10.7h-150.5c5.9 30.5 32 52.4 62.3 53.1 9 .2 30.2-1.4 47.7-19.3l18.9 12.8c-18.5 20.4-43.4 29.8-67 29.3-47.3-.9-85.6-40.5-85.6-86 0-49 40.9-88.6 87-88.6 49.6 0 93.9 45.5 87.2 98.7zm-150.1-23.1h126.9c-6.5-32.5-33.8-52.9-63.5-52.7s-57.3 20.2-63.4 52.7zm113.5-9.5h-100.2c9-20.7 28.8-32.8 50.1-33s41 12.3 50.1 33z"/><path d="m619.4 320.7v169.3h34.6v-72h60.5c55 0 94.5-45.2 94.5-95.3 0-50-39.9-94.4-97-94.6-40-.1-92.6 34.9-92.6 92.6zm154.6 2c.3 26.5-19.4 60.7-62.5 60.7h-57.5v-61.7c0-32.6 30.9-58.4 60.1-58.4 35.6-.1 59.6 32 59.9 59.4z"/><path d="m952.7 263.3c-53.6 0-64.9 43.9-64.9 59.4v95.3h-35.1v-95.3c0-53.8 44.5-95.4 100-95.4z"/><path d="m1074 227c-53 0-96 43-96 96s43 96 96 96 96-43 96-96-43-96-96-96zm0 34.4c34 0 61.6 27.6 61.6 61.6s-27.6 61.6-61.6 61.6-61.6-27.6-61.6-61.6 27.6-61.6 61.6-61.6z"/></g></g></svg>