<svg viewBox="0 0 227 100" xmlns="http://www.w3.org/2000/svg"><g id="figure" fill="#fff"><g transform="scale(.1)"><path d="m126.5 20c-12.7 0-39.6 1-48.4 19.5l-55 115.7c-1.2 2.6-2.7 5.3-2.7 6.9 0 1.2 2.1 2.7 7 2.7h36c3.1 0 6.2-.7 7.5-3.8l15.8-36c26.5-.1 53.1 0 79.6 0l15.8 36c1.3 3.1 4.4 3.8 7.5 3.8h36c4.9 0 7-1.5 7-2.7 0-1.6-1.5-4.3-2.7-6.9l-55-115.7c-8.8-18.5-35.7-19.5-48.4-19.5zm0 22.7c3.1 0 4.3.8 5.6 3.8l24.7 56.3h-60.6l24.7-56.3c1.3-3 2.5-3.8 5.6-3.8z"/><path d="m294.2 22.5c-8 .8-11.3 2.2-11.3 6.8v130.3c0 4.5 4.3 5.2 7.9 5.2h33c5 0 8.1-1 8.1-5.7v-50.2c11.9.2 23.7.7 35.6.7l52.9 53.8c1.1 1.1 3.9 1.4 5.9 1.4h40.5c2.2 0 5.2-.3 5.2-2.5 0-.9-3.2-4-4.8-5.6l-50.6-52.1c12.2-2.7 24.7-6.8 34.6-14.7 11.6-9.3 12.4-19.8 12.4-25.6 0-12.3-6.2-23.3-21.2-31-23.2-11.9-58-13.3-81.9-13.3-14.5 0-43 .3-66.3 2.5zm107.4 25.3c12.8 4.6 13.7 12.4 13.6 17.9-.2 7.2-3.6 15-18.1 18.8-21.4 4.9-43.4 3.1-65.2 2.7v-43.4c35.5-1.4 54.8-1.4 69.7 4z"/><path d="m510.9 25.4v14.7c0 4 9.6 4.1 12.9 4.1h55v114.9c0 4.4 3.3 5.7 8 5.7h32.9c4.7 0 8-1.3 8-5.7v-114.9h54.9c3.3 0 12.9-.1 12.9-4.1v-14.7c0-4-8.7-4-12.9-4h-158.8c-4 0-12.9 0-12.9 4z"/><path d="m751.9 21.4h138.2c7.5 0 21.3 1.3 21.3 7v11.7c0 3.5-2.9 6.1-5.4 8.2l-105.3 86.6c-5.2 4.3-5.2 6.1 2.5 6.1h99.3c5.4 0 11.2.7 11.2 3.4v15c0 4.2-2.2 5.4-11.2 5.4h-149.7c-5 0-17.1-.8-17.1-7v-11.6c0-3.4 3.6-6.1 6-8.1l108.6-89.6c2.3-1.9 1.8-3.4-2.7-3.4h-95.7c-2.3 0-7 .2-7-2.3v-19c0-2.3 4.6-2.4 7-2.4z"/><path d="m953.7 25.4v14.7c0 4 9.6 4.1 12.9 4.1h55v114.9c0 4.4 3.3 5.7 8 5.7h32.9c4.7 0 8-1.3 8-5.7v-114.9h54.9c3.3 0 12.9-.1 12.9-4.1v-14.7c0-4-8.7-4-12.9-4h-158.8c-4 0-12.9 0-12.9 4z"/><path d="m465.4 437.2c2.1 4-1.5 7.8-4 10.6-5.8 6.3-15.2 7-23 10.9-47.5 23.6-87.9 57.1-123.4 96.2-10.2 11.2-21.2 21.6-31.3 32.9-26.6 29.6-49.4 64.1-74.3 95.2-23.3 29-55.1 66.2-95.8 66.3-4.3 0-19.6-.6-26.7-6.5-40.7-33.7-66.9-105.4-66.9-160.3 0-22.6 4.5-37.1 16-69.2 6.1-14.4 11.1-24.1 20.9-3 7 15.9 12.4 32.4 16.2 49.4 5.9 26.7 7.6 53.9 14.4 80.3 17.2 66.9 70.7 41 108.2 4.3 26.9-26.3 49.4-57.9 76.3-84.3 7.5-7.4 15.9-13.8 23.5-21.1 36.6-35.2 77.6-65.8 124.3-86.3 11.7-5.1 23.4-11 35.6-14.7 3.4-.9 6.5-1.9 10-.7z"/><path d="m511.1 317.9c19.9-4 31.5 19.6 29.6 47.2-.5 7.4-1.6 17.7-7.9 22.6-8.2 6.4-19.5 9.4-29.7 10-5 .3-10.9.4-14.2-4-5.7-7.6-8.6-17.3-8.6-26.8 0-24 12.1-45.3 30.8-49z"/><path d="m460.4 538.1c3.4 2.4 2.6 7.2 2.4 10.8-1.5 23.2-4.7 46.4-6.8 69.6-3.5 38.2-7.8 75.4-24.3 110.6-3.3 7.1-10.1 11.8-16.7 15.5-10.6 6-22.9 8.5-35 7.5-6-.5-12.2-5.9-12.6-12.2-.6-10.5 1.8-21.7 4.3-31.9 6-24.2 15.1-47.6 26.1-69.9 13.2-26.8 24.6-54.6 38.4-81.1 2.9-5.6 6-11.8 10.3-16.5 3.2-3.5 9.8-5.2 13.9-2.4z"/><path d="m757.1 329.3c1.8 4.3-.7 8.7-2.7 12.7-12.7 25.5-29.3 48.4-43 73.2-8.5 15.4-15.7 31.5-24.3 46.9-4.4 7.9-8.7 15.8-13.2 23.6 19 1.7 38 1.7 57.1 2.7 11.9.6 78.5 4.4 95.4 7.9 12.3 2.5 15 19.3 9.3 25.2-6.2 6.5-16.1 7.4-24.4 6.8-43.5-3.3-63.1-6.1-144.7-8.9-7.1 33.6-11.9 68.3-10.3 102.7 1.9 40.5 11.2 66.2 52.8 93.3 20 13.1 39.2 5.6 59.4 5 8.2 0 14 8.2 12.9 16-.6 4.7-2.1 10.8-7.2 12.7-18.4 6.8-37.8 12-57.4 12.6-38.2 2.4-61.5-20.7-77.5-53.2-15.7-31.9-21.3-68.9-20.1-104.3.9-27.7 12.7-55.7 10-82.9-30.2 3.9-60.5 7-90.9 8.7-8.1 1.6-16.1-8.1-15.8-18 .3-8.6 5.9-16.1 13.5-20.6 13.3-7.9 31.9-8 46.9-9.2 19.9-1.5 40.1-1.1 59.9 1.9 7.6-20.3 17.9-39.4 26.7-59.2 8.1-18.1 19.3-33.4 29.5-50.8 7.5-12.9 16.4-25 25.7-36.7 20.3-25.5 31.1-11.3 32.4-8.1z"/><path d="m1082 522.2c26.4-4.1 32.8 5.9 31.4 12.4-2.1 9.6-5.2 20.9-12.2 28.2-8.5 8.8-15.9 17.3-27 22.9-13.2 6.7-27.5 7.7-42.1 7.1-11.6-.5-21.1 3.4-32.2 5.7-11.9 2.4-24.4 5.8-35 11.7-6.9 3.8-12.6 8.6-19 13.2-30.8 21.9-35.5 62.6-35 68.3 1.2 14.4 16.6 29.6 52.5 15.1 50.4-20.4 102.9-47.3 155.8-60 46.1-11 82.5-5.3 96.3 30.9 7.1 18.6 7.2 40.8 5.6 60.4-1 12.8-2.2 27.3-7.9 39-.9-.2-1.3-.7-1.5-1.7-3.4-13.5-7.2-26.2-14.8-38-26.6-41-75.7-41.6-116.6-33.8-42.7 8.1-83.8 25.7-123.3 43.3-33 14.7-68.7 7-80.7-13.6-9.4-16.1-10.1-35.9-6-53.7 9.8-42.6 66.4-87.5 77.2-95.7 23.6-18 51.3-32 78.5-43.9 23.7-10.4 41.6-15.6 56-17.8z"/><path d="m1418.5 373.8c-27.8 43.5-50.6 78.5-70.2 140.3-9.7 30.6-14 63.6-16.2 95.5-.9 13-3.7 24.5-1.5 37.5 6.3 36.4 14.5 43.3 27.1 52.2 12.3 8.7 26.3 14.5 41.1 17.9 12.6 2.9 30 1.1 37.1 7.4 4.3 3.8 4.3 11.9-.4 15.9-17.5 14.6-59.7 14.2-63 14.1-15.1-.3-58.9-3.2-71.7-28.7-9.3-18.6-13.3-40.3-13.1-61 .2-17.7.4-35.6 2.1-53.2 3.3-33.8 13.6-67.2 24.3-99.4 13.4-40.4 27.5-83.6 49.8-120 10.6-17.3 23.1-32.7 34.6-49.4 16.1-23.4 39.3-22.1 36-4.4-3.7 19.8-9.7 25.5-16 35.3z"/><path d="m1652.1 330.6c4.8-1.7 9.1-.3 12.4 3.4 5.7 6.5 8.7 15.6 10 24 1.5 10-1.8 18.8-6.7 27.3-4.3 7.4-9.5 15.9-16.5 21-5.3 3.8-12.8 4.3-18-.1-8.5-7.2-15.5-16.9-18.3-27.7-2.5-9.4-.7-18.8 4.8-26.9 7.8-11.5 19.7-16.6 32.3-21z"/><path d="m1611.5 554.3c.1 19.6-2.2 39.1-3.4 58.6-2.4 37.7-3.1 73.1-15.4 109.4-3.3 9.8-5.9 20.1-14.6 26.5-27.6 20.4-54.7 10.9-55.7.1-1-10.6 1-22 3.4-32.3 5.8-25.1 15.1-49.4 25.7-72.9 13-28.7 25.3-57.8 38.5-86.4 5.3-11.4 9.5-15.6 14.5-14.7 6.7 1.3 7 5.6 7 11.7z"/><path d="m1897.6 325.6c3.5.5 8 1.7 8.7 5.7 1.1 7-2.7 12.8-6.4 18.4-6.8 10.1-41.6 47.8-68.9 100.6-6.2 11.9-14.5 29.2-11.9 37.7 11.5 6.5 28.6 3 42.7 3.1 18.7.1 37.5-1 55.7 3.3 4.9 1.2 11 3.1 13.4 8-1.6 12.8-11.5 24-23.9 27.6-20.3 5.9-42.6-.7-63.1-2-11.8-.8-23.9-2.1-35.7-1.5-4.3.2-5.1 4.5-5.9 7.7-4.7 17.6-7 36-9.8 54-3.1 20.1-8.9 38.1-8.4 58.9 1.3 54.8 40.4 71.1 77.7 74.1 5.6.5 11.8-.2 17.1 1.7 4.6 1.6 11.1 6.1 11 11.6-.1 5.9-7.2 9.5-12 11.1-23.1 7.6-49.7 9.1-72.9 1.1-43.6-15-61.6-64.9-59.4-92.5 3-38 10.9-76.3 23.1-112.5 1.8-5.3 3.4-10.5 4.6-16-14.3-4.5-30.5-4.6-45.4-4.9-14.1-.3-29.8 3.2-43.2-1.3-5.9-2-11.2-6.7-10.8-13.4.3-6.4 1.8-13.2 9.3-14.5 19-3.4 39.7-2.1 59-2.5 12.8-.3 26.6 1.5 39.2-.8 3.2-4.2 4.7-9.9 6.8-14.7 8.4-19.5 16.7-39.1 25.6-58.4 5-10.8 33.7-60.6 55.6-79.9 7.9-6.9 17.6-11.3 28.2-9.7z"/><path d="m2236 489.3c6.4.7 14.1 4.3 14 11.4 0 4.8-3.8 9.1-5.9 13.4-24.8 49.6-54.4 96.6-87.5 141-50.8 68.2-112.8 131.7-165.8 198.2-20.6 25.9-39.5 53.1-60.6 78.6-11.3 13.7-21.5 31.7-35 43.5-7.4 6.4-14 4.7-15.7 3.1-4.4-4.3-1.7-14.9 1.4-20.9 10.1-19.9 23.4-38.6 35.7-57.1 29.2-43.9 66.2-71.9 89.8-117.2 32.1-61.8 19.4-114.2-1.7-176.1-6.3-18.4-14.4-36-21-54.3-4-11.1-4.6-22.7-3-34.3 1.2-8.5 5.6-27.4 21.4-17.7 25 18.3 35.9 50.5 46.6 78.3 13.6 35.4 13.6 51.2 12.9 94.6-.1 8.8-1.3 16.5 2.8 24.6 5.1-2.4 9.8-5.2 13.9-9.2 12.5-12.2 23.7-26.6 34.2-40.6 30-40.1 57.7-82.2 84.2-124.7 5.9-9.5 12.4-18.6 18.8-27.7 4.2-6 13.8-7.6 20.5-6.9z"/></g></g></svg>