<svg viewBox="0 0 440 100" xmlns="http://www.w3.org/2000/svg" xmlns:xlink="http://www.w3.org/1999/xlink"><g id="figure" fill="#fff"><g transform="scale(.1)"><path d="m20 968.2h185.9v-47.8h-28.6c-26.2 0-38-30.9-38-73.8v-597.6l150.2 717.9h71.5l150.4-720.3v611.8c0 42.9-7.3 62-31.1 62h-33.5v47.8h268.4v-47.8h-20.4c-23.9 0-30.8-19.1-30.8-62v-714.4c0-42.9 6.9-61.9 30.8-61.9h20.4v-47.7h-224.2l-116.8 589.1-124.1-589.1h-230.1v47.7h19c23.8 0 38.1 28.7 38.1 72.8v691.7c0 42.9-14.3 73.8-38.1 73.8h-19z"/><path id="a" d="m857.6 548.5c3.6-212.3 10.8-235 53.7-235 47.7 0 43 27.5 43 235zm216 200.1h-50.1c3.6 152.6-21.6 167-77.7 167-82.3 0-88.1-42.8-88.1-295.6v-21.5h227.6c0-255.2-48.8-343.6-174-343.6-115.7 0-205 122.9-205 367.4 0 268.3 82.2 357.7 205 357.7 116.9 0 176.6-50.1 162.3-231.4z"/><path d="m1084.9 968.2h217.1v-47.8h-13.2c-15.5 0-17.7-3.5-17.7-17.8v-456.8c0-58.4 9.5-103.8 60.8-103.8 37 0 40.4 22.8 40.4 71.7v485.2c0 17.9-8.2 21.5-21.3 21.5h-13.2v47.8h206.3v-47.8h-10.8c-16.7 0-21.4-4.8-21.4-23.9v-509.1c0-85.9-31-132.5-115.7-132.5-54.9 0-96.6 32.2-127.6 81.1v-77.4l-184.8 13.1v47.7h23.8c15.5 0 23.9 7.1 23.9 33.3v540.3c0 21.5-4.8 27.4-23.9 27.4h-22.7z"/><path d="m1547.9 290.7c119.3-89.4 143.2-156 103.9-216.9-21.5-33.4-70.3-55-106.1-25.2-42.9 35.8-32.2 99 47.7 133.6-14.3 16.7-47.8 50.2-75.2 76.4z"/><path d="m1922.5 805.9c0-109.7-37.9-157.4-116.8-244.3-74.9-82.5-104-113.4-104-181.4 0-39.4 13.4-64.3 58.7-64.3s71.5 17.6 79.8 86.8l8.3 67h52.5v-202.8h-42.9c-2.4 25-2.4 39.5-9.6 35.9-10.7-9.5-52.6-47.9-112.2-47.9-82.3 0-156.2 52.5-156.2 168.2 0 108.5 37.2 151.5 117 242.2 69.2 78.6 103.8 113.1 103.8 177.5 0 51.3-14.4 79.9-68.1 79.9-45.3 0-75.2-20.9-89.5-111.5l-9.4-62.6h-52.5v219.6h44.1c4.8-22.7 16.8-44.2 27.5-37 15.5 17.9 51.2 48.8 109.6 48.8 102.6 0 159.9-69.2 159.9-174.1z"/><path d="m1943.7 968.2h270.9v-47.8h-27.5c-25 0-32.3-8.2-32.3-49.9v-346h181.4v346c0 41.7-8.2 49.9-32.1 49.9h-27.7v47.8h269.6v-47.8h-23.9c-25 0-32.1-8.2-32.1-49.9v-738.3c0-42.9 7.1-50.1 32.1-50.1h23.9v-47.7h-269.6v47.7h27.7c23.9 0 32.1 7.2 32.1 50.1v336.2h-181.4v-336.2c0-42.9 7.3-50.1 32.3-50.1h27.5v-47.7h-270.9v47.7h25.2c25 0 32.2 7.2 32.2 50.1v762.1c0 20.3-7.2 26.1-32.2 26.1h-25.5z"/><use transform="translate(1830.7)" xlink:href="#a"/><path d="m3080.6 783.3c0-157.4 10.6-178.9 94.1-225.4v252.8c0 50.1-8.4 87.1-52.5 87.1-38.2 0-41.6-25.1-41.6-114.5zm106.1 111c11.9 54.9 27.5 85.7 100.2 85.7 83.5 0 102.5-50 102.5-147.8h-43c0 70.4-2.2 77.4-17.7 77.4-14.3 0-14.4-5.9-14.4-45.3v-434c0-139.5-75.2-175.4-174.2-175.4-126.4 0-198.2 88.4-150.3 176.6 20.1 37.1 59.9 47.8 93.2 22.7 34.6-26.1 40.4-81.2-47.9-125.3 11.9-10.7 46.5-20.2 70.4-20.2 69.2 0 69.2 25 69.2 89.4v121.6c-171.7 58.4-231.3 90.6-231.3 275.5 0 143.1 54.9 184.8 119.3 184.8 70.4 0 104.9-49.9 124-85.7z"/><path d="m3405.7 968.2h220.5v-47.8h-28.5c-15.5 0-21.6-5.9-21.6-25v-875.4l-187.3 14.4v47.7h26.3c15.5 0 22 4.7 22 23.8l-.4 791.9c0 17.9-2.5 22.6-19.2 22.6h-11.8z"/><path d="m3665.9 823.8c0 113.3 15.5 156.2 127.6 156.2 72.8 0 121.8-31 121.8-134.7v-101.3h-51.5v112c0 41.7-5.9 58.4-29.8 58.4-23.8 0-28.6-16.6-28.6-53.6v-541.4h107.4v-52.5h-106.1v-184.8h-49c-54.9 165.8-79.8 184.8-125.1 184.8h-14.5v51.2h47.8z"/><path d="m3936.4 968.2h201.5v-47.8h-13.2c-15.5 0-17.9-3.5-17.9-17.8v-456.8c0-58.4 9.6-103.8 60.9-103.8 37 0 40.6 22.8 40.6 71.7v485.2c0 17.9-8.3 21.5-21.4 21.5h-13.2v47.8h206.3v-47.8h-10.7c-16.7 0-21.4-4.8-21.4-23.9v-509.1c0-85.9-31.1-132.5-115.8-132.5-54.8 0-94.3 32.2-125.3 81.1v-316l-187.3 14.4v47.7h24c15.5 0 23.8 7.2 23.8 33.4v777.5c0 21.5-4.7 27.4-23.8 27.4h-7.1z"/></g></g></svg>