<svg viewBox="0 0 241 100" xmlns="http://www.w3.org/2000/svg" xmlns:xlink="http://www.w3.org/1999/xlink"><g transform="scale(.1)"><path d="m89.5 636.7h2230.9c28.3 0 51.4 33.1 51.4 72.9v179.3c0 39.8-23.2 72.9-51.4 72.9h-2230.9c-28.2 0-51.3-33.1-51.3-72.9v-179.3c0-39.8 23-72.9 51.3-72.9z" fill="#fff"/><path d="m89.5 636.7c-28.3 0-51.3 33.1-51.3 72.9v179.3c0 39.8 23.1 72.9 51.3 72.9h1073.7c54.2-47.7 84.3-101.7 84.3-157.7 0-60.5-35.3-116.8-98-167.4z" fill="#bbbdbe"/><g id="a"><path d="m26.1 33.4v32h13.4c16.8 0 17.5 30.7 17.5 36.2v374.3c0 19.7-6 36.8-17.5 36.8h-13.4v32h106.8v-32h-18.6c-15.8 0-17.5-25.6-17.5-36.8v-293.3l75.7 361.5h43.7l75.7-362.7v300.9c0 28.6-6.7 30.4-13.7 30.4h-21.2v32h151.4v-32h-14.1c-7.1 0-13.6-1.9-13.6-30.4v-386.5c0-27.9 6.1-30.4 13.6-30.4h14.1v-32h-126.9l-60.8 306.3-64.5-306.3z"/><path id="b" d="m511.2 152.7c-32.4 0-61.3 17.5-81.6 51.3s-32.4 84.1-32.4 150.6c0 72.9 11 121.7 31 152.8s49 43.8 83 43.8c32.1 0 57.2-7 73-27s21.6-52.1 17.7-101.5l-.1-2.9h-33.1l.1 3.2c1.3 41.1-2.2 63.3-8.5 74.5-5.5 9.7-13.5 12.7-30.4 12.7-22.4 0-31.9-6.3-37.5-26.6-6.1-22.1-7.1-61.9-7.1-130.3v-8.5h123.2v-3.1c0-69.2-6.5-116.1-22-146.2s-40.7-42.8-75.3-42.8zm0 37.9c10.9 0 15.8 2.3 18.2 18.8 2.4 16.8 2 48.3 2 102.1h-46c1-54.9 2.4-86.4 6.3-102.8 3.8-16 9.4-18.1 19.5-18.1z"/><path d="m773.4 152.7c-27.8 0-49.3 15.3-65.9 37.9v-36.1l-106.2 7.5v31.8h15.9c4.7 0 9.9.5 9.9 14.9v292.3c0 10.8-2.3 11.7-9.8 11.7h-15.4v32h123.6v-32h-10.2c-6 0-6.6-.5-6.6-6.5v-247.1c0-40.9 10.2-53.1 29.9-53.1 15.7 0 18.8 7.2 18.8 35.7v262.5c0 7-2.1 8.5-8.5 8.5h-10.2v32h117.8v-32h-8.9c-6.7 0-8.5-.8-8.5-9.8v-275.4c0-41.1-12.8-74.8-65.7-74.8z"/><path d="m839 81.5c4 13.5 16 26.3 35.7 35.8-8.3 9.3-23.8 25-37.6 38.2l-2.2 2.1 20.1 21.8 2.2-1.7c32.5-24.4 52.3-45.7 61.2-65.7 18.5-41.4-12.8-78.6-44.2-78.6-20.7 0-42.8 22.4-35.2 48.1z"/><path d="m869.2 246.8c0 29.7 5.2 50.9 15.8 70.6 20.2 37.5 69.9 81.9 90.1 113 18.6 28.5 25.9 83.6-20.2 83.6-21.8 0-37.5-8.9-45.3-58l-5.6-36.2h-34.1v124.9h29.5l.5-2.4c1.8-8.8 5.5-16.5 8.8-18.1.7-.3.7-.4 1.2 0 9 10.2 28.9 27 61.1 27 56.7 0 89.6-38.3 89.6-97.3 0-30-5.3-52-16-72.2-21.6-40.8-70.9-81.4-91-113.6-13.1-21-27.2-76.2 16.2-76.2 22.2 0 35.7 7.8 40.1 44.3l4.9 38.9h34.2v-115.9h-29.2l-.2 2.8c-.6 6.8-1 12.2-1.6 15.2-.1.5-.1.4-.2.7-7.1-7-32.1-25.2-59.4-25.2-57.1 0-89.2 38.5-89.2 94.1z"/><path d="m1066 33.4v32h16.7c10 0 14.3.8 14.3 24v412.3c0 8.2-1.5 11-14.3 11h-16.7v32h152.7v-32h-18c-9.9 0-14.3-1-14.3-23.9v-184h91.9v184c0 23-5 23.9-14.3 23.9h-18v32h152v-32h-16c-9.9 0-14.3-1-14.3-23.9v-399.4c0-23.2 4.2-24 14.3-24h16v-32h-152v32h18c9.5 0 14.3.9 14.3 24v178.8h-91.9v-178.8c0-23.2 4.2-24 14.3-24h18v-32z"/><use transform="translate(989.5)" xlink:href="#b"/><path d="m1637.7 183.7c-31.5 38.4-4.5 84 18.8 89.3 22.6 5.2 49.5-15.2 43.6-40.4-2.9-12.4-13.7-25.1-34.3-36.5 8.2-4.6 18.6-8.1 31.5-8.1 33.6 0 34.3 9.8 34.3 45.3v63.6c-45.3 15.5-76.4 27.7-96.5 48.9-20.4 21.6-28.6 52-28.6 102.3 0 24.5 1.4 103.1 67.6 103.1 40.1 0 58.5-28.9 66.1-41.9 6.2 24.3 14.9 41.9 55.2 41.9 50.3 0 58.6-34.1 58.6-83.1v-3.1h-29.5v3.1c0 38.9-1.7 38.9-6.5 38.8-3.2-.1-4.7-.4-4.7-21.4v-234.8c0-38.3-10.4-63.1-28.1-78.1-17.5-14.8-41.7-19.9-68.5-19.9-16 0-55.9 2.9-79 31zm93.9 141.7v131.1c0 34.4-8.4 44-25.3 44-16.7 0-19.4-8.5-19.4-58.9 0-42.5 1.6-66.4 8.3-82.2 6.1-14.5 17.6-23.1 36.4-34z"/><path d="m1954.8 25.4-107.5 8.2v31.8h17.3c6.5 0 8.5 1.1 8.5 9.8v428.4c0 8.6-1.2 9.1-7.2 9.1h-9.5v32h125.5v-32h-18.5c-5.7 0-8.6-1-8.6-10.4z"/><path d="m2047.6 59.2-.7 2.1c-14.8 44.7-25.7 69.6-35.4 82.8s-17.6 15.1-29.4 15.1h-10.9v33.9h25.8v270.5c0 60.8 8.1 87.6 72.2 87.6 41.8 0 68.9-19.1 68.9-76v-57.9h-34v63.7c0 26.3-5 28.5-13 28.5-7.8 0-12.4-2-12.4-25.9v-289.8h58.1v-34.6h-57.4v-100z"/><path d="m2241.6 25.4-107.5 8.2v31.8h16c5.1 0 9.8.8 9.8 15v420.6c0 10.7-2.2 11.7-9.8 11.7h-6.9v32h115.2v-32h-10.2c-6.1 0-6.6-.5-6.6-6.5v-247.1c0-41.2 10.4-53.1 29.8-53.1 15.9 0 18.9 7.3 18.9 35.7v262.5c0 7-2.1 8.5-8.5 8.5h-10.2v32h117.8v-32h-8.9c-6.8 0-8.5-.8-8.5-9.8v-275.4c0-41.3-13-74.8-65.7-74.8-27.7 0-48.4 15.2-64.7 37.7z"/></g><use fill="#970209" transform="translate(-5.4 -5.4)" xlink:href="#a"/><g fill="#d4021d"><path d="m23.8 536.3h100.6v-25.9h-15.5c-14.2 0-20.6-16.7-20.6-39.9v-323.3l81.3 388.4h38.7l81.3-389.7v331c0 23.2-3.9 33.5-16.8 33.5h-18.1v25.9h145.2v-25.9h-11c-12.9 0-16.7-10.3-16.7-33.5v-386.5c0-23.2 3.8-33.5 16.7-33.5h11v-25.8h-121.3l-63.2 318.7-67.1-318.7h-124.5v25.8h10.3c12.9 0 20.6 15.5 20.6 39.4v374.2c0 23.2-7.7 39.8-20.6 39.9h-10.3z"/><path id="c" d="m476.8 309.2c1.9-114.8 5.8-127.1 29-127.1 25.8 0 23.3 14.8 23.3 127.1zm116.8 108.3h-27.1c1.9 82.6-11.7 90.3-42 90.3-44.5 0-47.7-23.1-47.7-159.9v-11.6h123.2c0-138.1-26.5-185.9-94.2-185.9-62.6 0-110.9 66.5-110.9 198.8 0 145.2 44.4 193.5 110.9 193.5 63.2 0 95.5-27.1 87.8-125.2z"/><path d="m599.6 536.3h117.4v-25.9h-7.1c-8.4 0-9.6-1.9-9.6-9.6v-247.1c0-31.6 5.2-56.2 32.9-56.2 20 0 21.9 12.4 21.9 38.8v262.5c0 9.7-4.5 11.6-11.6 11.6h-7.1v25.9h111.6v-25.9h-5.8c-9 0-11.6-2.6-11.6-12.9v-275.4c0-46.5-16.8-71.7-62.6-71.7-29.7 0-52.2 17.4-69 43.9v-41.9l-100 7.1v25.8h12.9c8.4 0 12.9 3.8 12.9 18v292.3c0 11.6-2.6 14.8-12.9 14.8h-12.3z"/><path d="m849.9 169.8c64.5-48.4 77.5-84.5 56.2-117.4-11.7-18-38-29.7-57.4-13.6-23.2 19.4-17.4 53.6 25.8 72.3-7.7 9-25.9 27.1-40.7 41.3z"/><path d="m1052.1 448.5c0-59.4-20.5-85.2-63.2-132.2-40.5-44.6-56.2-61.3-56.2-98.1 0-21.3 7.2-34.8 31.7-34.8s38.7 9.6 43.2 47l4.5 36.2h28.4v-109.7h-23.2c-1.3 13.5-1.3 21.3-5.2 19.4-5.8-5.2-28.4-25.9-60.7-25.9-44.5 0-84.5 28.4-84.5 91 0 58.7 20.1 81.9 63.3 131 37.5 42.5 56.1 61.3 56.1 96.1 0 27.7-7.8 43.2-36.8 43.2-24.5 0-40.7-11.3-48.4-60.3l-5.1-33.9h-28.4v118.8h23.8c2.6-12.3 9.1-23.9 14.9-20 8.4 9.7 27.7 26.4 59.3 26.4 55.5 0 86.5-37.4 86.5-94.2z"/><path d="m1063.7 536.3h146.5v-25.9h-14.9c-13.6 0-17.4-4.4-17.4-27v-187.1h98.1v187.1c0 22.6-4.5 27-17.4 27h-14.9v25.9h145.8v-25.9h-12.9c-13.5 0-17.4-4.4-17.4-27v-399.4c0-23.2 3.9-27.1 17.4-27.1h12.9v-25.8h-145.8v25.8h14.9c12.9 0 17.4 3.9 17.4 27.1v181.9h-98.1v-181.9c0-23.2 3.8-27.1 17.4-27.1h14.9v-25.8h-146.5v25.8h13.6c13.6 0 17.4 3.9 17.4 27.1v412.3c0 11-3.8 14.1-17.4 14.1h-13.6z"/><use transform="translate(989.5)" xlink:href="#c"/><path d="m1678.4 436.3c0-85.2 5.7-96.8 50.9-122v136.8c0 27.1-4.5 47.1-28.4 47.1-20.6 0-22.5-13.5-22.5-61.9zm57.4 60c6.5 29.7 14.8 46.4 54.2 46.4 45.2 0 55.5-27.1 55.5-80h-23.3c0 38.1-1.2 41.9-9.6 41.9-7.7 0-7.8-3.2-7.8-24.5v-234.8c0-75.5-40.7-94.9-94.2-94.9-68.4 0-107.2 47.8-81.3 95.5 10.9 20 32.4 25.9 50.4 12.3 18.7-14.1 21.8-43.9-25.9-67.8 6.5-5.8 25.2-10.9 38.1-10.9 37.4 0 37.4 13.6 37.4 48.4v65.8c-92.9 31.6-125.1 49-125.1 149 0 77.4 29.7 100 64.5 100 38.1 0 56.8-27 67.1-46.4z"/><path d="m1854.1 536.3h119.3v-25.9h-15.4c-8.4 0-11.7-3.2-11.7-13.5v-473.6l-101.3 7.8v25.8h14.2c8.4 0 11.7 2.6 11.7 12.9v428.4c0 9.7-1.4 12.2-10.4 12.2h-6.4z"/><path d="m1994.7 458.2c0 61.3 8.5 84.5 69.1 84.5 39.4 0 65.8-16.8 65.8-72.9v-54.8h-27.8v60.6c0 22.6-3.2 31.6-16.1 31.6s-15.5-9-15.5-29v-292.9h58.1v-28.4h-57.4v-100h-26.5c-29.7 89.7-43.2 100-67.7 100h-7.8v27.7h25.8z"/><path d="m2140.9 536.3h109v-25.9h-7.1c-8.4 0-9.7-1.9-9.7-9.6v-247.1c0-31.6 5.2-56.2 32.9-56.2 20 0 22 12.4 22 38.8v262.5c0 9.7-4.5 11.6-11.6 11.6h-7.1v25.9h111.6v-25.9h-5.8c-9 0-11.6-2.6-11.6-12.9v-275.4c0-46.5-16.8-71.7-62.6-71.7-29.7 0-51 17.4-67.8 43.9v-171l-101.3 7.8v25.8h12.9c8.4 0 12.9 3.9 12.9 18.1v420.6c0 11.6-2.6 14.8-12.9 14.8h-3.8z"/><path d="m102.3 723.1v133.4h20.5v-37.5h146.7c14.3 0 21.3-13.7 21.3-26.2v-43.5c0-12.5-7-26.2-21.3-26.2zm20.5 25.5h133.5c9.8 0 13 8.3 13 14.2v16.5c0 5.9-3.2 14.2-13 14.2h-133.5z"/><path d="m512.4 722.1v107.3c0 19.7 4.6 26.4 20.6 26.4h59.7c14.5 0 14.8-9.4 14.8-12.5 0 3 .3 12.5 14.8 12.5h58.1c16 0 20.6-6.7 20.6-26.4v-107.3h-22.1v93.8c0 6.9-4 12.9-11.7 12.9h-35.7c-8.8 0-14.6-4.8-14.6-20.8v-85.9h-20.5v85.9c0 16-5.8 20.8-14.6 20.8h-35.6c-7.7 0-13-.9-13-12.9v-93.8z"/><path d="m327.6 723.1c-14.9 0-20.6 8.1-20.6 26.4v80.3c0 18.3 5.7 26.4 20.6 26.4h147c14.9 0 20.6-8.1 20.6-26.4v-80.3c0-18.3-5.7-26.4-20.6-26.4zm13.2 26h120.6c12.2 0 13 1.9 13 13.9v53.3c0 12-.8 13.9-13 13.9h-120.6c-12.2 0-13-1.9-13-13.9v-53.3c0-12 .8-13.9 13-13.9z"/><path d="m717.6 722.6h188.4v26.3h-167.7v26.4h167.7v29.2h-167.7v24.4h167.7v26.9h-188.4z"/><path d="m923.2 722.9v132.9h20.5v-36.4h119c8.5 0 15 3.9 18.4 10.4s5.1 15.1 5.1 26h24.5c.3-14.5-.7-24.8-3.2-31-2.5-6.1-6.8-11.3-12.7-15.7 13.3-4.8 16.6-14.5 16.6-25.9v-34.1c0-12.5-7-26.2-21.3-26.2zm20.5 25.7h133.2c9.8 0 13 8.3 13 14.2v16c0 5.9-3.2 14.2-13 14.2h-133.2z"/></g><path d="m1298.5 722.6h188.4v26.3h-84v106.9h-20.4v-106.9h-84z"/><path d="m1524.1 723.1c-14.9 0-20.6 8.1-20.6 26.4v80.3c0 18.3 5.7 26.4 20.6 26.4h147c14.9 0 20.6-8.1 20.6-26.4v-80.3c0-18.3-5.7-26.4-20.6-26.4zm13.2 26h120.6c12.2 0 13 1.9 13 13.9v53.3c0 12-.8 13.9-13 13.9h-120.6c-12.2 0-13-1.9-13-13.9v-53.3c0-12 .8-13.9 13-13.9z"/><path d="m1729.7 723.1c-14.9 0-20.6 8.1-20.6 26.4v80.3c0 18.3 5.7 26.4 20.6 26.4h147c14.9 0 20.6-8.1 20.6-26.4v-80.3c0-18.3-5.7-26.4-20.6-26.4zm13.2 26h120.6c12.2 0 13 1.9 13 13.9v53.3c0 12-.8 13.9-13 13.9h-120.6c-12.2 0-13-1.9-13-13.9v-53.3c0-12 .8-13.9 13-13.9z"/><path d="m1914.3 722.6h20.7v106.3h167.7v26.9h-188.4z"/><path d="m2140.9 722.9c-15.4 0-21.3 5.9-21.3 21.4v37c0 16.5 5.1 22.7 21.3 22.7h132.3c9.8 0 13 4.8 13 10.7v3.5c0 5.9-3.2 10.7-13 10.7h-153.7v27.1h166.9c15.4 0 21.3-7.2 21.3-22.7v-35.2c0-16.5-5.1-22.7-21.3-22.7h-132.9c-11.1 0-13-4.8-13-10.7v-5.3c0-5.9 2.2-10.7 13-10.7h154.2v-25.8z"/><path d="m89.5 618.5c-38.1 0-69.5 40.1-69.5 91.1v179.3c0 51 31.4 91.1 69.5 91.1h2230.9c38 0 69.6-40.2 69.6-91.2v-179.2c0-51-31.6-91.1-69.6-91.1zm0 18.2h2230.9c28.3 0 51.4 33.1 51.4 72.9v179.3c0 39.8-23.2 72.9-51.4 72.9h-2230.9c-28.2 0-51.3-33.1-51.3-72.9v-179.3c0-39.8 23-72.9 51.3-72.9z"/></g></svg>