<svg viewBox="0 0 241 100" xmlns="http://www.w3.org/2000/svg" xmlns:xlink="http://www.w3.org/1999/xlink"><g id="figure"><g transform="scale(.1)"><path d="m89.5 618.5c-38.1 0-69.5 40.1-69.5 91.1v179.3c0 51 31.4 91.1 69.5 91.1h2230.9c38 0 69.6-40.2 69.6-91.2v-179.2c0-51-31.6-91.1-69.6-91.1zm1060 18.2h1170.9c28.3 0 51.4 33.1 51.4 72.9v179.3c0 39.8-23.2 72.9-51.4 72.9h-1157.2c54.2-47.7 84.3-101.7 84.3-157.7 0-60.5-35.3-116.8-98-167.4zm-637.1 85.4h20.8v93.8c0 12 5.3 12.9 13 12.9h35.6c8.8 0 14.6-4.8 14.6-20.8v-85.9h20.5v85.9c0 16 5.8 20.8 14.6 20.8h35.7c7.7 0 11.7-6 11.7-12.9v-93.8h22.1v107.3c0 19.7-4.6 26.4-20.6 26.4h-58.1c-14.5 0-14.8-9.5-14.8-12.5 0 3.1-.3 12.5-14.8 12.5h-59.7c-16 0-20.6-6.7-20.6-26.4zm205.2.5h188.4v26.3h-167.7v26.4h167.7v29.2h-167.7v24.4h167.7v26.9h-188.4zm580.9 0v26.3h84v106.9h20.4v-106.9h84v-26.3zm615.8 0v133.2h188.4v-26.9h-167.7v-106.3zm-991.1.3h166.9c14.3 0 21.3 13.7 21.3 26.2v34.1c0 11.4-3.3 21.1-16.6 25.9 5.9 4.4 10.2 9.6 12.7 15.7 2.5 6.2 3.5 16.5 3.2 31h-24.5c0-10.9-1.7-19.5-5.1-26s-9.9-10.4-18.4-10.4h-119v36.4h-20.5zm1217.7 0c-15.4 0-21.3 5.9-21.3 21.4v37c0 16.5 5.1 22.7 21.3 22.7h132.3c9.8 0 13 4.8 13 10.7v3.5c0 5.9-3.2 10.7-13 10.7h-153.7v27.1h166.9c15.4 0 21.3-7.2 21.3-22.7v-35.2c0-16.5-5.1-22.7-21.3-22.7h-132.9c-11.1 0-13-4.8-13-10.7v-5.3c0-5.9 2.2-10.7 13-10.7h154.2v-25.8zm-2038.6.2h167.2c14.3 0 21.3 13.7 21.3 26.2v43.5c0 12.5-7 26.2-21.3 26.2h-146.7v37.5h-20.5zm225.3 0h147c14.9 0 20.6 8.1 20.6 26.4v80.3c0 18.3-5.7 26.4-20.6 26.4h-147c-14.9 0-20.6-8.1-20.6-26.4v-80.3c0-18.3 5.7-26.4 20.6-26.4zm1196.5 0c-14.9 0-20.6 8.1-20.6 26.4v80.3c0 18.3 5.7 26.4 20.6 26.4h147c14.9 0 20.6-8.1 20.6-26.4v-80.3c0-18.3-5.7-26.4-20.6-26.4zm205.6 0c-14.9 0-20.6 8.1-20.6 26.4v80.3c0 18.3 5.7 26.4 20.6 26.4h147c14.9 0 20.6-8 20.6-26.4v-80.3c0-18.3-6-26.4-20.9-26.4zm-1606.9 25.5v44.9h133.5c9.8 0 13-8.3 13-14.2v-16.5c0-5.9-3.2-14.2-13-14.2zm820.9 0v44.4h133.2c9.8 0 13-8.3 13-14.2v-16c0-5.9-3.2-14.2-13-14.2zm-602.9.5c-12.2 0-13 1.9-13 13.9v53.3c0 12 .8 13.9 13 13.9h120.6c12.2 0 13-1.9 13-13.9v-53.3c0-12-.8-13.9-13-13.9zm1196.5 0h120.6c12.2 0 13 1.9 13 13.9v53.3c0 12-.8 13.9-13 13.9h-120.6c-12.2 0-13-1.9-13-13.9v-53.3c0-12 .8-13.9 13-13.9zm205.6 0h120.6c12.2 0 13 1.9 13 13.9v53.3c0 12-.8 13.9-13 13.9h-120.6c-12.2 0-13-1.9-13-13.9v-53.3c0-12 .8-13.9 13-13.9z"/><path d="m20 535.8h101.2v-26h-15.6c-14.3 0-20.7-16.8-20.7-40.2v-325l81.7 390.5h38.9l81.8-391.8v332.8c0 23.4-3.9 33.7-16.9 33.7h-18.2v26h146v-26h-11.1c-13 0-16.8-10.3-16.8-33.7v-388.6c0-23.4 3.8-33.7 16.8-33.7h11.1v-26h-122l-63.6 320.5-67.4-320.5h-125.2v26h10.4c13 0 20.7 15.6 20.7 39.6v376.2c0 23.4-7.7 40.1-20.7 40.2h-10.4z"/><path id="a" d="m475.5 307.5c1.9-115.5 5.7-127.8 29.1-127.8 26 0 23.5 14.9 23.5 127.8zm117.4 108.9h-27.2c1.9 83-11.8 90.8-42.3 90.8-44.8 0-47.9-23.3-47.9-160.8v-11.7h123.9c0-138.8-26.7-186.9-94.8-186.9-62.9 0-111.5 66.9-111.5 199.9 0 146 44.7 194.5 111.5 194.5 63.6 0 96.1-27.2 88.3-125.8z"/><path d="m599 535.8h118v-26h-7.1c-8.4 0-9.7-1.9-9.7-9.7v-248.4c0-31.8 5.2-56.5 33.1-56.5 20.1 0 22 12.4 22 39v263.9c0 9.7-4.6 11.7-11.7 11.7h-7.1v26h112.2v-26h-5.8c-9.1 0-11.7-2.6-11.7-13v-276.9c0-46.7-16.8-72.1-62.9-72.1-29.8 0-52.5 17.5-69.4 44.1v-42.1l-100.6 7.1v26h13c8.4 0 13 3.8 13 18.1v293.9c0 11.7-2.6 14.9-13 14.9h-12.3z"/><path d="m850.6 167.3c64.9-48.7 77.9-84.9 56.5-118-11.7-18.1-38.2-29.9-57.7-13.7-23.4 19.5-17.5 53.9 26 72.7-7.8 9.1-26.1 27.2-41 41.5z"/><path d="m1053.9 447.5c0-59.7-20.7-85.6-63.6-132.9-40.8-44.9-56.4-61.6-56.4-98.6 0-21.4 7.2-35 31.8-35 24.7 0 39 9.6 43.5 47.2l4.5 36.4h28.6v-110.3h-23.4c-1.3 13.6-1.3 21.4-5.2 19.5-5.8-5.2-28.6-26-61-26-44.8 0-85 28.6-85 91.5 0 59 20.3 82.4 63.7 131.7 37.7 42.8 56.4 61.6 56.4 96.6 0 27.9-7.8 43.5-37 43.5-24.7 0-40.9-11.4-48.7-60.7l-5.1-34h-28.6v119.4h23.9c2.6-12.3 9.2-24 15-20.1 8.4 9.7 27.9 26.5 59.7 26.5 55.8 0 86.9-37.6 86.9-94.7z"/><path d="m1065.6 535.8h147.3v-26h-15c-13.6 0-17.5-4.5-17.5-27.2v-188.1h98.7v188.1c0 22.7-4.5 27.2-17.5 27.2h-15v26h146.6v-26h-13c-13.6 0-17.5-4.5-17.5-27.2v-401.6c0-23.4 3.9-27.2 17.5-27.2h13v-26h-146.6v26h15c13 0 17.5 3.8 17.5 27.2v182.9h-98.7v-182.9c0-23.4 3.9-27.2 17.5-27.2h15v-26h-147.3v26h13.7c13.6 0 17.5 3.8 17.5 27.2v414.6c0 11-3.9 14.2-17.5 14.2h-13.7z"/><use transform="translate(994.9)" xlink:href="#a"/><path d="m1683.7 435.3c0-85.6 5.7-97.4 51.1-122.7v137.5c0 27.2-4.5 47.4-28.5 47.4-20.8 0-22.6-13.5-22.6-62.2zm57.7 60.3c6.5 29.8 14.9 46.6 54.5 46.6 45.4 0 55.8-27.2 55.8-80.4h-23.5c0 38.3-1.2 42.1-9.6 42.1-7.8 0-7.9-3.2-7.9-24.6v-236.1c0-75.9-40.9-95.4-94.7-95.4-68.8 0-107.7 48-81.7 96 10.9 20.2 32.6 26.1 50.7 12.4 18.8-14.2 21.9-44.2-26.1-68.2 6.5-5.8 25.3-10.9 38.3-10.9 37.6 0 37.6 13.6 37.6 48.6v66.2c-93.4 31.8-125.8 49.2-125.8 149.8 0 77.8 29.9 100.5 64.9 100.5 38.3 0 57.1-27.1 67.5-46.6z"/><path d="m1860.3 535.8h120v-26h-15.5c-8.4 0-11.8-3.2-11.8-13.6v-476.2l-101.8 7.8v26h14.2c8.4 0 11.8 2.6 11.8 13v430.7c0 9.7-1.3 12.3-10.4 12.3h-6.5z"/><path d="m2001.7 457.3c0 61.6 8.5 84.9 69.5 84.9 39.6 0 66.1-16.9 66.1-73.3v-55.1h-27.9v61c0 22.7-3.2 31.7-16.2 31.7s-15.6-9-15.6-29.1v-294.5h58.4v-28.6h-57.7v-100.5h-26.6c-29.8 90.2-43.5 100.5-68.1 100.5h-7.9v27.9h26z"/><path d="m2148.7 535.8h109.6v-26h-7.2c-8.4 0-9.7-1.9-9.7-9.7v-248.4c0-31.8 5.2-56.5 33.1-56.5 20.1 0 22.1 12.4 22.1 39v263.9c0 9.7-4.6 11.7-11.7 11.7h-7.1v26h112.2v-26h-5.8c-9.1 0-11.7-2.6-11.7-13v-276.9c0-46.7-16.8-72.1-62.9-72.1-29.8 0-51.3 17.5-68.2 44.1v-171.9l-101.9 7.8v26h13c8.4 0 13 3.9 13 18.2v422.9c0 11.7-2.6 14.9-13 14.9h-3.8z"/></g></g></svg>