<svg viewBox="0 0 432 100" xmlns="http://www.w3.org/2000/svg" xmlns:xlink="http://www.w3.org/1999/xlink"><g transform="scale(.1)"><g id="a"><path d="m29.8 44.2v57.8h24.2c30.3 0 31.6 55.5 31.6 65.5v676.4c0 35.7-10.8 66.5-31.6 66.5h-24.2v57.9h193v-57.9h-33.6c-28.6 0-31.7-46.3-31.7-66.5v-530l136.8 653.3h79l136.8-655.5v543.8c0 51.7-12.1 54.9-24.7 54.9h-38.4v57.9h273.7v-57.9h-25.5c-12.8 0-24.6-3.4-24.6-54.9v-698.5c0-50.5 11.1-55 24.6-55h25.2l.3-57.8h-229.4l-109.9 553.6-116.5-553.6z"/><path d="m759 352.5c-36.8 61.2-58.6 152-58.6 272.2 0 131.7 19.9 220 56 276.1s88.6 79.2 150 79.2c57.9 0 103.5-12.6 132-48.8s39.1-94.1 32-183.4l-.2-5.3h-59.8l.1 5.8c1.3 74.3-3.9 114.5-15.3 134.7-10 17.6-24.5 22.9-55 22.9-40.5 0-57.5-11.4-67.7-48.1-11.1-39.9-12.9-112-12.9-235.5v-15.3h222.7v-5.6c0-125.1-11.7-209.9-39.8-264.2s-73.6-77.4-134.1-77.4-112.6 31.5-149.4 92.7zm147.4-24.2c19.7 0 28.6 4.1 32.9 34 4.4 30.3 3.7 87.3 3.7 184.5h-83.2c1.8-99.2 4.4-156.2 11.4-185.8 6.8-28.9 17-32.7 35.2-32.7z"/><path d="m1261.2 328.3v-65.2l-191.9 13.5v57.5h28.7c8.5 0 17.9.8 17.9 26.9v528.3c0 19.4-4.1 21.1-17.7 21.1h-27.8v57.9h223.3v-57.9h-18.4c-10.8 0-11.9-.8-11.9-11.7v-446.6c0-73.9 18.3-96 54-96 28.4 0 34 13.1 34 64.6v474.4c0 12.6-3.9 15.3-15.4 15.3h-18.4v57.9h212.9v-57.9h-16.1c-12.1 0-15.4-1.5-15.4-17.7v-497.7c0-74.2-23.2-135.2-118.7-135.2-50.1 0-89.1 27.7-119.1 68.5z"/><path d="m1498.9 131.1c7.2 24.4 29 47.6 64.5 64.7-15 16.8-43.1 45.3-68 69.1l-4 3.8 36.4 39.4 3.9-3.1c58.7-44 94.4-82.5 110.6-118.7 33.4-74.8-23-142.1-79.8-142.1-37.3 0-77.4 40.4-63.6 86.9z"/><path d="m1582 557.5c36.6 67.7 126.2 148.1 162.8 204.2 33.6 51.6 46.8 151.1-36.5 151.1-39.3 0-67.9-16.2-81.9-104.8l-10.1-65.5h-61.6v225.8h53.3c2.2-10.7 7.8-32.6 16.8-37.1 1.2-.6 1.2-.7 2.2 0 16.3 18.4 52.2 48.8 110.4 48.8 102.5 0 161.9-69.1 161.9-175.8 0-54.3-9.5-94-28.9-130.5-39.1-73.7-128.1-147-164.4-205.3-23.6-37.9-49.1-137.7 29.2-137.7 40.1 0 64.5 14 72.5 80l8.9 70.3h61.8v-209.4h-52.8l-.4 5c-.9 9.6-2.2 26.4-3.2 28.8-12.8-12.6-58.1-45.6-107.4-45.6-103.1 0-161.2 69.8-161.2 170.1 0 55.4 9.4 91.9 28.6 127.6z"/><path d="m1908.3 44.2v57.8h30.2c18.1 0 25.8 1.4 25.8 43.4v745.1c0 14.7-2.7 19.9-25.8 19.9h-30.2v57.9h276v-57.9h-32.6c-17.9 0-25.8-1.8-25.8-43.2v-332.5h166.1v332.5c0 41.5-9.2 43.2-25.9 43.2h-32.5v57.7l274.7.2v-57.9h-28.9c-17.9 0-25.9-1.8-25.9-43.2v-721.8c0-41.9 7.6-43.4 25.9-43.4h28.9v-57.8h-274.7v57.8h32.5c17.2 0 25.9 1.6 25.9 43.4l-.1 323.2h-166v-323.5c0-41.8 7.5-43.1 25.8-43.1h32.6v-57.8z"/><path d="m2546.8 352.5c-36.8 61.2-58.6 152-58.6 272.2 0 131.7 19.9 220 56 276.1s88.6 79.2 150 79.2c57.9 0 103.5-12.6 132-48.8s39.1-94.1 32-183.4l-.2-5.3h-59.8l.1 5.8c1.3 74.3-3.9 114.5-15.3 134.7-10 17.6-24.5 22.9-55 22.9-40.5 0-57.5-11.4-67.7-48.1-11.1-39.9-12.9-112-12.9-235.5v-15.3h222.7v-5.6c0-125.1-11.7-209.9-39.8-264.2s-73.6-77.4-134.1-77.4-112.6 31.5-149.4 92.7zm147.4-24.2c19.7 0 28.6 4.1 32.9 34 4.4 30.3 3.7 87.3 3.7 184.5h-83.2c1.8-99.2 4.4-156.2 11.4-185.8 6.8-28.9 17-32.7 35.2-32.7z"/><path d="m2941.5 315.8c-57 69.3-8.1 151.8 34 161.4 40.9 9.3 89.4-27.4 78.8-73-5.2-22.3-24.8-45.2-62-65.9 14.8-8.3 33.6-14.7 56.9-14.7 60.7 0 62 17.8 62 81.9v114.9c-81.8 27.9-138.2 50.1-174.4 88.4-36.8 39-51.7 93.9-51.7 184.9 0 44.3 2.6 186.3 122.2 186.3 72.5 0 105.6-52.3 119.4-75.7 11.1 43.8 27 75.7 99.8 75.7 90.9 0 105.9-61.6 105.9-150.2v-5.6h-53.3v5.6c0 70.4-3.2 70.2-11.8 70.1-5.8-.1-8.5-.6-8.5-38.6v-424.4c0-129.1-64.9-177-174.5-177.1-29 0-101 5.1-142.8 56zm169.7 256.2v237c0 62.2-15.2 79.4-45.7 79.4-30.2 0-35.1-15.4-35.1-106.5 0-76.8 2.8-119.9 15-148.5 11.1-26.1 31.7-41.7 65.8-61.4z"/><path d="m3514.6 29.8-194.3 14.8v57.4h31.2c11.7 0 15.4 2.1 15.4 17.8v774.2c0 15.6-2.1 16.4-13 16.4h-17.2v57.9h226.8v-57.9h-33.4c-10.2 0-15.5-1.7-15.5-18.8z"/><path d="m3682.3 90.8-1.3 3.8c-26.8 80.9-46.4 125.9-64 149.7s-31.7 27.3-53.1 27.3h-19.7v61.2h46.6v488.9c0 109.9 14.7 158.3 130.5 158.3 75.6 0 124.5-34.4 124.5-137.3v-104.7h-61.4v115.1c0 47.6-9 51.5-23.5 51.5-14.1 0-22.4-3.5-22.4-46.8v-523.7h105v-62.5h-103.8v-180.8z"/><path d="m4032.9 29.8-194.3 14.8v57.4h28.9c9.3 0 17.7 1.5 17.7 27.2v760.1c0 19.4-4 21.1-17.7 21.1h-12.5v57.9h208.2v-57.9h-18.4c-11 0-11.9-.9-11.9-11.7v-446.6c0-74.5 18.7-96 53.8-96 28.7 0 34.2 13.4 34.2 64.6v474.4c0 12.6-3.9 15.3-15.4 15.3h-18.4v57.9h212.9v-57.9h-16.1c-12.3 0-15.4-1.4-15.4-17.7v-497.7c0-74.6-23.5-135.2-118.7-135.2-50.1 0-87.4 27.6-116.9 68.2z"/></g><use fill="#970209" transform="translate(-9.8 -9.8)" xlink:href="#a"/><g fill="#d4021d"><path d="m25.6 953.1h181.8v-46.8h-28c-25.6 0-37.2-30.1-37.2-72.1v-584.3l146.9 701.9h69.9l147-704.3v598.2c0 42-7.1 60.5-30.4 60.6h-32.7v46.8h262.4v-46.8h-19.9c-23.3 0-30.2-18.6-30.2-60.6v-698.5c0-42 6.9-60.5 30.2-60.5h19.9v-46.6h-219.2l-114.2 575.9-121.3-575.9h-225v46.6h18.6c23.3 0 37.2 28.1 37.2 71.2v676.3c0 42-13.9 72-37.2 72.1h-18.6z"/><path d="m844.2 542.7c3.5-207.5 10.5-229.7 52.5-229.7 46.7 0 42.1 26.8 42.1 229.7zm211.2 195.7h-49c3.5 149.2-21.1 163.2-75.9 163.2-80.4 0-86.2-41.8-86.2-289v-21h222.6c0-249.5-47.8-335.9-170.2-335.9-113.1 0-200.4 120.2-200.4 359.2 0 262.3 80.3 349.7 200.4 349.7 114.3 0 172.7-49 158.7-226.2z"/><path d="m1066.2 953.1h212.2v-46.8h-12.9c-15.2 0-17.3-3.4-17.3-17.4v-446.6c0-57.1 9.4-101.5 59.5-101.5 36.1 0 39.5 22.3 39.5 70.1v474.4c0 17.5-8.1 21-20.9 21h-12.9v46.8h201.7v-46.8h-10.5c-16.3 0-20.9-4.6-20.9-23.3v-497.8c0-84-30.4-129.5-113.2-129.5-53.6 0-94.4 31.5-124.7 79.3v-75.7l-180.7 12.8v46.6h23.3c15.2 0 23.3 7 23.3 32.6v528.2c0 21-4.7 26.8-23.3 26.8h-22.2z"/><path d="m1518.6 290.7c116.6-87.4 139.9-152.6 101.5-212.1-21.1-32.6-68.7-53.7-103.7-24.6-42 35-31.5 96.8 46.6 130.6-14 16.3-46.7 49-73.5 74.7z"/><path d="m1884 794.4c0-107.3-37-154-114.2-238.9-73.3-80.6-101.6-110.8-101.6-177.3 0-38.5 13-62.9 57.3-62.9s69.9 17.3 78.1 84.9l8.1 65.5h51.3v-198.3h-41.9c-2.3 24.5-2.4 38.6-9.4 35.1-10.5-9.3-51.4-46.8-109.7-46.8-80.5 0-152.7 51.3-152.7 164.4 0 106.1 36.3 148.1 114.4 236.8 67.7 76.9 101.4 110.6 101.4 173.6 0 50.1-14 78.1-66.5 78.1-44.3 0-73.5-20.4-87.5-109l-9.2-61.2h-51.4v214.7h43.1c4.7-22.2 16.4-43.2 26.9-36.2 15.2 17.5 50.1 47.7 107.2 47.7 100.3 0 156.3-67.6 156.3-170.2z"/><path d="m1904.1 953.1h264.8v-46.8h-26.9c-24.5 0-31.5-8-31.5-48.8v-338.2h177.3v338.2c0 40.8-8.1 48.8-31.4 48.8h-27v46.8h263.5v-46.8h-23.3c-24.5 0-31.4-8-31.4-48.8v-721.8c0-42 6.9-49 31.4-49h23.3v-46.6h-263.5v46.6h27c23.3 0 31.4 7 31.4 49v328.7h-177.3v-328.7c0-42 7-49 31.5-49h26.9v-46.6h-264.8v46.6h24.6c24.5 0 31.5 7 31.5 49v745.1c0 19.8-7 25.5-31.5 25.5h-24.6z"/><path d="m2631.7 542.7c3.5-207.5 10.5-229.7 52.5-229.7 46.7 0 42.1 26.8 42.1 229.7zm211.2 195.7h-49c3.5 149.2-21.1 163.2-75.9 163.2-80.4 0-86.2-41.8-86.2-289v-21h222.6c0-249.5-47.8-335.9-170.2-335.9-113.1 0-200.4 120.2-200.4 359.2 0 262.3 80.3 349.7 200.4 349.7 114.3 0 172.7-49 158.7-226.2z"/><path d="m3015 772.3c0-153.9 10.4-174.9 92-220.4v247.2c0 49-8.2 85.1-51.3 85.1-37.3 0-40.7-24.5-40.7-111.9zm103.8 108.5c11.7 53.6 26.8 83.8 97.9 83.8 81.6 0 100.3-48.9 100.3-144.5h-42.1c0 68.8-2.1 75.7-17.3 75.7-14 0-14.1-5.8-14.1-44.3v-424.3c0-136.4-73.5-171.5-170.3-171.5-123.6 0-193.7 86.4-146.9 172.6 19.7 36.2 58.5 46.8 91.1 22.2 33.9-25.6 39.5-79.4-46.8-122.5 11.7-10.5 45.5-19.7 68.8-19.7 67.6 0 67.6 24.4 67.6 87.4v118.9c-167.9 57.1-226.1 88.6-226.1 269.3 0 139.9 53.6 180.7 116.6 180.7 68.8 0 102.6-48.8 121.3-83.8z"/><path d="m3332.6 953.1h215.6v-46.8h-27.9c-15.2 0-21.1-5.7-21.1-24.4v-855.9l-183.1 14.1v46.6h25.7c15.2 0 21.1 4.6 21.1 23.3v774.2c0 17.5-2.5 22.1-18.8 22.1h-11.5z"/><path d="m3586.7 811.9c0 110.8 15.2 152.7 124.8 152.7 71.1 0 119-30.3 119-131.7v-99h-50.3v109.5c0 40.8-5.8 57.1-29.1 57.1s-28-16.3-28-52.4v-529.4h105v-51.3h-103.7v-180.7h-47.9c-53.6 162.1-78.1 180.7-122.4 180.7h-14.1v50.1h46.7z"/><path d="m3850.9 953.1h197v-46.8h-12.9c-15.2 0-17.5-3.4-17.5-17.4v-446.6c0-57.1 9.4-101.5 59.5-101.5 36.1 0 39.7 22.3 39.7 70.1v474.4c0 17.5-8.1 21-20.9 21h-12.9v46.8h201.7v-46.8h-10.5c-16.3 0-20.9-4.6-20.9-23.3v-497.8c0-84-30.4-129.5-113.2-129.5-53.6 0-92.2 31.5-122.5 79.3v-309l-183.1 14.1v46.6h23.4c15.2 0 23.3 7.1 23.3 32.7v760.1c0 21-4.6 26.8-23.3 26.8h-6.9z"/></g></g></svg>