<svg viewBox="0 0 113 100" xmlns="http://www.w3.org/2000/svg" xmlns:xlink="http://www.w3.org/1999/xlink"><g transform="scale(.1)"><g fill="#e50914"><path d="m391.4 39.4c0 10.7-8.7 19.3-19.4 19.3s-19.3-8.6-19.3-19.3 8.6-19.4 19.3-19.4 19.4 8.7 19.4 19.4z"/><path d="m504.3 39.4c0 10.7-8.7 19.3-19.4 19.3s-19.3-8.6-19.3-19.3 8.6-19.4 19.3-19.4 19.4 8.7 19.4 19.4z"/><path d="m623 39.4c0 10.7-8.7 19.3-19.4 19.3s-19.3-8.6-19.3-19.3 8.6-19.4 19.3-19.4 19.4 8.7 19.4 19.4z"/><path d="m321.2 225.7h235.9c16.6-54.7 31.9-105.8 49.4-159.9-29 20.8-48.6 34.2-68.5 48.3-16.3-13.5-34.5-29.4-54.3-48.3-26.7 17.7-49.4 32.8-74.2 48.3-14.7-17.1-23.9-29.1-38.3-48.5z"/><path d="m41 906.7-21 73.3h24.4l6.6-23h28.1c6.7 0 12.7-4.1 14.8-11.3l8-27.5c2.1-7.1-1.5-11.5-8.2-11.5zm21.8 9.2h15.3l-9.2 32h-15.3z"/><path d="m155.3 906.7-21 73.3h24.4l6.6-23h7l1.7 23h24.4l-1.8-23.3c4.9-1 9.9-4.6 11.7-11.1l7.7-27.4c2.1-7.4-1.5-11.5-8-11.5zm21.8 9.2h15.2l-9.2 32h-15.2z"/><path id="a" d="m281 906.7c-6.5 0-12.6 4.2-14.7 11.5l-14.4 50.3c-2 6.9 1 11.5 8.1 11.5h41.3c6.7 0 12.7-4.4 14.7-11.5l14.5-50.3c2.1-7.1-1.5-11.5-8.2-11.5zm10.4 9.2h15.3l-15.8 55h-15.3z"/><path d="m445.5 906.7-21 73.3h52.7c6.7 0 12.8-4.4 14.8-11.5l5.2-18.3c1-3.5-1.1-6-2.7-6.9 2.7-1 5.7-3.7 6.6-6.8l5.3-18.3c2.2-7.5-1.8-11.5-8.2-11.5zm21.8 9.2h15.3l-6.6 22.9h-15.3zm-9.2 32h15.3l-6.6 23h-15.3z"/><use transform="translate(290.2)" xlink:href="#a"/><path d="m672.6 906.7 10.7 41.9-31.7 31.4h10.7l23.1-23 5.8 23h24.5l-10.4-40.6 33-32.7h-10.8l-24.3 24.2-6.1-24.2z"/><path d="m786.8 906.7-21 73.3h24.5l21-73.3z"/><path d="m861.4 906.7-21 73.3h24.4l13.3-46 3.5 46h24.5l21-73.3h-24.4l-13.3 46.1-3.6-46.1z"/><path d="m988.7 906.7c-6.7 0-12.8 4.5-14.8 11.5l-14.4 50.3c-2 7.2 1.3 11.5 8.1 11.5h41.3c6.7 0 12.7-4.4 14.7-11.5l6.3-22.1h-33.6l-2.6 9.2h9.2l-4.4 15.3h-15.3l15.8-55h15.3l-3.5 12.1h24.5l2.7-9.8c2.1-7.6-1.7-11.5-8.1-11.5z"/></g><g><path d="m317.7 244.5-111.1 379.5h231.3l115.5-379.5z"/><path d="m567.1 387.9 49.4-161 165.9-161.2h234.5l-277.5 263.2 304.6 293.5-234.5 1.6z"/><path id="b" d="m108.6 659.7-62.9 214.8h89l65.6-214.8c0 .2-1.3.3-4 .3z"/><path d="m266.8 659.7-63.8 62-19.1 62 93.4 90.8 90.2-.6-117.2-112.9 106.8-101.3z"/><use transform="translate(323.4)" xlink:href="#b"/><path d="m547.9 683.6-54.4 190.9 59.6.4 34.1-117.6z"/><path d="m633.8 659.7h-77l109.3 215.1 92.4.1 65-215.2h-78.6l-37.7 107.1-42.9-83.8c-10.4-20.4-29-23.3-30.5-23.3z"/><path d="m844.2 659.7-54.3 165.1c-8.1 24.7 12.4 50.2 42.9 50.1l215.5-.4 37.1-134.4h-101.6l-12.6 49.8h20.9l-11 34.3h-51.1c-27.3 0-38.9-6.6-35.2-18.1l32.3-99.4h168.2l14.7-47z"/><path d="m180.8 582.7a20.4 20.4 0 00-20.4 20.4 20.4 20.4 0 0020.4 20.4 20.4 20.4 0 0020.4-20.4 20.4 20.4 0 00-20.4-20.4zm0 3.9a16.5 16.5 0 0116.5 16.5 16.5 16.5 0 01-16.5 16.5 16.5 16.5 0 01-16.5-16.5 16.5 16.5 0 0116.5-16.5zm-9.2 5.6v21.8h5.4v-8.6c.6-.1 1.6-.2 2.8 1.2.7.8 2.2 3.2 4.3 7.4h6.2c-2.3-4.1-3.5-6.2-3.5-6.3-1.4-2.3-2.2-2.7-3.5-3.2 2.8-.7 5.8-2.4 5.8-6.2 0-5-4.1-6.1-7.8-6.1zm5.4 3.8h2.5c2.1 0 4.1.6 4.1 2.7s-1.8 2.8-4.1 2.8h-2.5z"/></g></g></svg>