<svg viewBox="0 0 1075 100" xmlns="http://www.w3.org/2000/svg"><g id="figure"><path d="m90.23 2.25h-86.27c-1.05 0-1.96.77-1.96 1.79v92.17c0 .96.84 1.79 1.96 1.79h23.12c1.05 0 1.95-.77 1.95-1.79v-34.12h61.27c14.76 0 24.79-4.6 24.79-19.59v-20.54c0-15.27-10.2-19.71-24.86-19.71zm-.7 34.83c0 3.99-1.08 5.55-8.67 5.55h-51.9v-20.86h51.9c7.62 0 8.67 1.63 8.67 5.43z"/><path d="m270.7 2.25h-23.68c-1.05 0-1.96.77-1.96 1.79v38.27h-69.43v-38.27c0-.96-.84-1.79-1.96-1.79h-23.47c-1.05 0-1.96.77-1.96 1.79v92.17c0 .96.84 1.79 1.96 1.79h23.44c1.05 0 1.99-.77 1.99-1.79v-33.61h69.43v33.61c0 .96.91 1.79 1.96 1.79h23.68c1.05 0 1.95-.77 1.95-1.79v-92.17c0-.96-.9-1.79-1.95-1.79z"/><path d="m414.42 2.13h-26.12c-.7 0-1.31.33-1.68.89l-28.08 43.31-28.29-43.31c-.34-.52-.98-.89-1.68-.89h-26.12c-1.5 0-2.46 1.49-1.68 2.68l42.54 65.12-16.41 25.39c-.74 1.14.13 2.68 1.67 2.68h26.13c.7 0 1.32-.33 1.68-.89l59.72-92.3c.73-1.14-.14-2.68-1.68-2.68z"/><path d="m466.78 39.06v-17.16h74.05c.7 0 1.31-.33 1.67-.89l10.41-16.14c.67-1.04-.04-2.68-1.67-2.68h-81.94c-19.9 0-26.96 5.41-26.96 23.54v11.1c0 18.25 7.19 23.53 26.96 23.53h60.98v16.59h-84.8c-.7 0-1.31.33-1.68.89l-11.25 17.35c-.74 1.14.15 2.68 1.68 2.68h93.46c20.25 0 27.18-5.61 27.18-23.54v-11.73c0-18.1-7.14-23.54-27.14-23.54z"/><path d="m624.06 2.25h-23.47c-1.05 0-1.95.77-1.95 1.79v92.17c0 .96.83 1.79 1.95 1.79h23.47c1.05 0 1.96-.77 1.96-1.79v-92.17c0-.96-.84-1.79-1.96-1.79z"/><path d="m695.01 77.01v-54.73h63.77c.7 0 1.31-.33 1.68-.89l10.69-16.46c.73-1.13-.13-2.68-1.68-2.68h-74.82c-20.02 0-26.96 5.49-26.96 23.54v48.54c0 18.25 7.09 23.6 26.96 23.6h63.92c.7 0 1.32-.33 1.68-.89l11.24-17.35c.73-1.12-.1-2.68-1.71-2.68z"/><path d="m883.17 3.02c-.36-.56-.98-.89-1.68-.89h-26.12c-.7 0-1.32.33-1.68.89l-59.72 92.3c-.73 1.13.13 2.68 1.67 2.68h26.13c.7 0 1.31-.33 1.68-.89l45.05-69.53 31.99 49.37h-36.81c-1.12 0-1.97.39-2.86 1.79l-10.62 16.58c-.67 1.04.05 2.68 1.68 2.68h89.41c1.38 0 2.47-1.44 1.67-2.68z"/><path d="m997.28 77.01v-72.97c0-.96-.83-1.79-1.95-1.79h-23.47c-1.05 0-1.96.77-1.96 1.79v92.17c0 .96.84 1.79 1.96 1.79h99.19c1.05 0 1.95-.77 1.95-1.79v-17.35c0-.96-.83-1.85-1.95-1.85"/><path d="m1061.34 14.76h-2.66v3.76h-2.09v-10.91h5.3c1.74 0 4.26.67 4.34 3.45.05 1.93-1.24 2.84-2.8 3.32l3.22 4.14h-2.38zm.41-5.36h-3.07v3.64h3.07c1.44 0 2.52-.73 2.52-1.85 0-1.45-1.31-1.79-2.52-1.79z"/><path d="m1060.92 23.81c-6.57 0-11.95-4.84-11.95-10.9s5.38-10.91 11.95-10.91 11.94 4.91 11.94 10.91-5.38 10.9-11.94 10.9zm0-20.47c-5.8 0-10.48 4.34-10.48 9.57s4.75 9.63 10.48 9.63c5.72 0 10.47-4.34 10.47-9.63s-4.75-9.57-10.47-9.57z"/></g></svg>