<svg viewBox="0 0 170 100" xmlns="http://www.w3.org/2000/svg"><g fill="#fff"><path d="m8.6 2.2-6.4 5.1v34.1h12v-10.5l7.2.6 6.4-6.1v-10.3l-6.3-8.2zm8.9 10.9v10.2l-3.4-.6v-10.6z"/><path d="m35.7 10.8-8.5 30.6h11l1.1-5.3h5.9l1 5.3h11.4l-8.8-28zm8.5 18.2h-3.6l1.9-8.1z"/><path d="m61.3 15 22.1 1.3v5.9h-10.9v4.3h8.7v6.2h-8.5l-.1 8.7h-11.3z"/><path d="m110.2 21.6-10.8.5v3.7l8.8-.3v6.4l-8.8.3v9.2h-11.2v-25.1l22-1.4z"/><path d="m135.1 10.5v6.3l-8.9 1.9v4.9l6.9-.9v6.8l-6.9.9v4.6h8.7v6.4h-20.1v-27z"/><path d="m166.5 4.8v36.6h-9.3l-6.7-12.2v12.2h-10.7v-31.9l10.1-3.2 5.5 12.3v-14.2l5.2-2.4z"/><path d="m23 48.9 5.9 3.6-.1 7-10.8.8v-4l-3.6.2v7.2l7.2-1.1 8.4 4.4v10l-6.5 7.5-14.7 5.2-6.8-3.5v-7.8l12.1-3.2v4.8l3.6-1.1-.1-7.7-7 1.5-8.6-3.2v-14.8l5.4-5.8z"/><path d="m39.4 48.9v31.6l11.7-2.1v-8.4l7.6-.7 7-4.6v-11l-7.5-4.8zm15.7 7-.1 6.9-3.7.2v-7.1z"/><path d="m79.5 48.9-7.2 6.2v14.9l6.7 5.9h14l7.2-5.6v-15.3l-7.3-6.1zm9.3 7v12.7l-4.3.1v-12.8z"/><path d="m108.5 48.9v28.1l11.4 1.5v-10.3l3.8.5v10.4l11.8 2.5v-12.2l-3.8-3.8 3.8-1.6v-10.4l-6.5-4.7zm15.3 7v5l-3.5-.3v-4.7z"/><path d="m167.8 56.7h-6.9v29.7l-7.4.5-4.5-1.4v-28.8h-7v-7.8h25.8z"/><path d="m56 87.6v10.4h3.2c.7 0 1.1-.5 1.1-1.3v-3.2c0-.5-.6-.9-1-.9.4 0 .9-.4.9-1v-2.6c0-.9-.6-1.4-1.7-1.4zm1.3 1.2h1c.3 0 .5 0 .5.5v2.2c0 .4-.2.5-.5.5h-1zm0 4.4h1c.4 0 .7.1.7.5v2.6c0 .4-.4.5-.7.5h-1z"/><path d="m68.7 87.6c-.7 0-1.3.5-1.3 1.2v8c0 .6.4 1.2 1.3 1.2h2c.7 0 1.3-.5 1.3-1.2v-8c0-.6-.4-1.2-1.3-1.2zm.5 1.2h1c.4 0 .5.2.5.7v6.6c0 .4-.2.7-.5.7h-1c-.4 0-.5-.2-.5-.7v-6.6c0-.4.2-.7.5-.7z"/><path d="m78.7 87.6 1.2 5.1-1.3 5.3h1.2l1-3.9 1 3.9h1.2l-1.3-5.3 1.2-5.1h-1.2l-.9 3.7-.9-3.7z"/><path d="m89.7 87.6h1.4v10.4h-1.4z"/><path d="m99.7 87.6 1.5 4.7v-4.7h1.4v10.4h-1.4v-2.8l-1.5-3.9v6.7h-1.4v-10.4z"/><path d="m114 88.8v1.6h-1.3v-.9c0-.4-.2-.7-.5-.7h-.7c-.3 0-.5.3-.5.7v6.6c0 .4.2.7.5.7h1.2v-2.8h-.8v-1.1h2.1v5.1h-3c-.7 0-1.3-.5-1.3-1.2v-8c0-.6.6-1.2 1.3-1.2h1.7c.8 0 1.3.5 1.3 1.2z"/><path d="m164 79.6c-.7 0-1.2.5-1.2 1.2v4.4c0 .7.5 1.2 1.2 1.2h2.6c.7 0 1.2-.5 1.2-1.2v-4.4c0-.7-.5-1.2-1.2-1.2zm.1.5h2.4c.4 0 .8.4.8.8v4.2c0 .4-.4.8-.8.8h-2.4c-.4 0-.8-.4-.8-.8v-4.2c0-.4.4-.8.8-.8z"/><path d="m164.2 80.8v4.4h.7v-1.9h.4l.6 1.9h.7l-.6-1.8c.2 0 .6-.2.6-.5v-1.6c0-.2-.2-.5-.5-.5zm.7.7h.7c.1 0 .3.1.3.3v.6c0 .2-.1.3-.3.3h-.7z"/></g><g fill="#c20116"><path d="m3.7 8.2v31.6h8.9v-10.7l8.3.8 5.2-5v-9.3l-5.7-7.4-11.5-4.2zm15.3 3.7v13.2l-6.5-1.1v-14z"/><path d="m36.9 12.5-7.6 27.3h7.6l1.1-5.2h8.5l.9 5.2h8l-7.8-25zm6.6 6.2 2.6 11.8h-7.4l2.6-12.1z"/><path d="m63 16.8 18.9 1v2.9h-10.9v7.4h8.6v3.1h-8.6v8.6h-8z"/><path d="m108.7 16.6v3.4l-10.9.7v6.6l8.7-.2v3.2l-8.7.3v9.2h-8v-22z"/><path d="m133.5 15.6-8.9 1.8v8.1l7-1v3.5l-7.1 1.1v7.4h8.8v3.3h-16.9v-24.1l17.1-3.4z"/><path d="m164.9 5.7v34.1h-6.8l-9.1-17v17h-7.6v-29.2l7.6-2.4 8 18.1v-21l3.5-1.6z"/><path d="m22.8 50.4 4.7 3v4.6l-7.7.6v-3.8l-6.7.2v10.4l8.3-1.2 7.3 3.8v8.4l-5.8 6.8-13.8 4.8-5.3-2.8v-5.6l8.9-2.3v4.9l6.8-2.1v-10.7l-8.6 1.6-7.1-2.6v-13l4.7-5z"/><path d="m40.9 50.4v28.2l8.7-1.6v-8.4l8.6-.8 6-3.9v-9.3l-6.3-4.2zm15.6 3.9v9.9l-6.9.3v-10.2z"/><path d="m80.2 50.4-6.3 5.6v13.3l5.7 5h12.7l6.4-4.9v-13.7l-6.4-5.3zm10.2 3.9v15.9l-7.5.1v-16z"/><path d="m110 50.4v25.3l8.4 1v-10.2l6.9.8v10.6l8.7 1.8v-9.6l-5.2-5 5.2-2.2v-8.5l-5.7-4zm15.3 3.9v8.3l-6.6-.6v-7.7z"/><path d="m166.2 50.5v4.6h-6.9v29.8l-5.5.5-3.3-1.2v-29.1h-7v-4.6z"/></g></svg>