<svg viewBox="0 0 170 100" xmlns="http://www.w3.org/2000/svg"><g id="figure" fill="#fff"><path d="m8.6 2.2-6.4 5.1v34.1h12v-10.5l7.2.6 6.4-6.1v-10.3l-6.3-8.2zm.3 1.8 11.5 4.2 5.7 7.4v9.3l-5.2 5-8.3-.8v10.7h-8.9v-31.6zm3.6 6v14l6.5 1.1v-13.2zm1.6 2.1 3.4 1v10.2l-3.4-.6z"/><path d="m35.7 10.8-8.5 30.6h11l1.1-5.3h5.9l1 5.3h11.4l-8.8-28zm1.2 1.7 10.7 2.3 7.8 25h-8l-.9-5.2h-8.5l-1.1 5.2h-7.6zm4.4 5.9-2.6 12.1h7.4l-2.6-11.8zm1.2 2.5 1.7 8.1h-3.6z"/><path d="m61.3 15v26.4h11.3l.1-8.7h8.5v-6.2h-8.7v-4.3h10.9v-5.9zm1.7 1.8 18.9 1v2.9h-10.9v7.4h8.6v3.1h-8.6v8.6h-8z"/><path d="m110.2 14.9-22 1.4v25.1h11.2v-9.2l8.8-.3v-6.4l-8.8.3v-3.7l10.8-.5zm-1.5 1.7v3.4l-10.9.7v6.6l8.7-.2v3.2l-8.7.3v9.2h-8v-22z"/><path d="m135.1 10.5-20.3 3.9v27h20.1v-6.4h-8.7v-4.6l6.9-.9v-6.8l-6.9.9v-4.9l8.9-1.9zm-1.6 1.8v3.3l-8.9 1.8v8.1l7-1v3.5l-7.1 1.1v7.4h8.8v3.3h-16.9v-24.1z"/><path d="m160.6 2-5.2 2.4v14.2l-5.5-12.3-10.1 3.2v31.9h10.7v-12.2l6.7 12.2h9.3v-36.6zm-.1 1.7 4.4 2v34.1h-6.8l-9.1-17v17h-7.6v-29.2l7.6-2.4 8 18.1v-21z"/><path d="m7.4 48.9-5.4 5.8v14.8l8.6 3.2 7-1.5.1 7.7-3.6 1.1v-4.8l-12.1 3.2v7.8l6.8 3.5 14.7-5.2 6.5-7.5v-10l-8.4-4.4-7.2 1.1v-7.2l3.6-.2v4l10.8-.8.1-7-5.9-3.6zm1.1 1.5h14.3l4.7 3v4.6l-7.7.6v-3.8l-6.7.2v10.4l8.3-1.2 7.3 3.8v8.4l-5.8 6.8-13.8 4.8-5.3-2.8v-5.6l8.9-2.3v4.9l6.8-2.1v-10.7l-8.6 1.6-7.1-2.6v-13z"/><path d="m39.4 48.9v31.6l11.7-2.1v-8.4l7.6-.7 7-4.6v-11l-7.5-4.8zm1.5 1.5h17l6.3 4.2v9.3l-6 3.9-8.6.8v8.4l-8.7 1.6zm8.7 3.9v10.2l6.9-.3v-9.9zm1.7 1.6h3.8l-.1 6.9-3.7.2z"/><path d="m79.5 48.9-7.2 6.2v14.9l6.7 5.9h14l7.2-5.6v-15.3l-7.3-6.1zm.7 1.5h12.1l6.4 5.3v13.7l-6.4 4.9h-12.7l-5.7-5v-13.3zm2.7 3.9v16l7.5-.1v-15.9zm1.6 1.6h4.3v12.7l-4.3.1z"/><path d="m108.5 48.9v28.1l11.4 1.5v-10.3l3.8.5v10.4l11.8 2.5v-12.2l-3.8-3.8 3.8-1.6v-10.4l-6.5-4.7zm1.5 1.5h18.3l5.7 4v8.5l-5.2 2.2 5.2 5v9.6l-8.7-1.8v-10.6l-6.9-.8v10.2l-8.4-1zm8.7 3.9v7.7l6.6.6v-8.3zm1.6 1.6h3.5v5l-3.5-.3z"/><path d="m142 48.9v7.8h7v28.8l4.5 1.4 7.4-.5v-29.7h6.9v-7.8zm1.5 1.6h22.7v4.6h-6.9v29.8l-5.5.5-3.3-1.2v-29.1h-7z"/><path d="m56 87.6v10.4h3.2c.7 0 1.1-.5 1.1-1.3v-3.2c0-.5-.6-.9-1-.9.4 0 .9-.4.9-1v-2.6c0-.9-.6-1.4-1.7-1.4zm1.3 1.2h1c.3 0 .5 0 .5.5v2.2c0 .4-.2.5-.5.5h-1zm0 4.4h1c.4 0 .7.1.7.5v2.6c0 .4-.4.5-.7.5h-1z"/><path d="m68.7 87.6c-.7 0-1.3.5-1.3 1.2v8c0 .6.4 1.2 1.3 1.2h2c.7 0 1.3-.5 1.3-1.2v-8c0-.6-.4-1.2-1.3-1.2zm.5 1.2h1c.4 0 .5.2.5.7v6.6c0 .4-.2.7-.5.7h-1c-.4 0-.5-.2-.5-.7v-6.6c0-.4.2-.7.5-.7z"/><path d="m78.7 87.6 1.2 5.1-1.3 5.3h1.2l1-3.9 1 3.9h1.2l-1.3-5.3 1.2-5.1h-1.2l-.9 3.7-.9-3.7z"/><path d="m89.7 87.6h1.4v10.4h-1.4z"/><path d="m99.7 87.6 1.5 4.7v-4.7h1.4v10.4h-1.4v-2.8l-1.5-3.9v6.7h-1.4v-10.4z"/><path d="m114 88.8v1.6h-1.3v-.9c0-.4-.2-.7-.5-.7h-.7c-.3 0-.5.3-.5.7v6.6c0 .4.2.7.5.7h1.2v-2.8h-.8v-1.1h2.1v5.1h-3c-.7 0-1.3-.5-1.3-1.2v-8c0-.6.6-1.2 1.3-1.2h1.7c.8 0 1.3.5 1.3 1.2z"/><path d="m164 79.6c-.7 0-1.2.5-1.2 1.2v4.4c0 .7.5 1.2 1.2 1.2h2.6c.7 0 1.2-.5 1.2-1.2v-4.4c0-.7-.5-1.2-1.2-1.2zm.1.5h2.4c.4 0 .8.4.8.8v4.2c0 .4-.4.8-.8.8h-2.4c-.4 0-.8-.4-.8-.8v-4.2c0-.4.4-.8.8-.8z"/><path d="m164.2 80.8v4.4h.7v-1.9h.4l.6 1.9h.7l-.6-1.8c.2 0 .6-.2.6-.5v-1.6c0-.2-.2-.5-.5-.5zm.7.7h.7c.1 0 .3.1.3.3v.6c0 .2-.1.3-.3.3h-.7z"/></g></svg>