<svg viewBox="0 0 437 100" xmlns="http://www.w3.org/2000/svg" xmlns:xlink="http://www.w3.org/1999/xlink"><clipPath id="a"><path d="m20 20v960h826v-960zm412 105.6c1.4 13.4-1.2 26.2 2.9 39.4 2.5-.6 4.9-1.2 7.4-1.8 1.4 1.6 2.8 3.1 4.2 4.7-1.1 3.2-2 6.5-2.6 9.9 2.6-1.6 5.1-3.2 7.4-5.2.5-2.2.9-4.4 1.4-6.7 2.5.8 5 1.6 7.5 2.5-.1 1.9 0 3.7-.1 5.6 2.8 2 5.7 6.2 9.2 6.6 6.5-1.4 8.2-6.9 11.5-11.9l1.1-.3-.1 2.9c4.4 2.3 3.7 3.1 4.5 7.6 4-2.6 7.6-5.3 10.9-8.7 1-5.2 1.1-6 6.1-8.4-.8-2-1.5-4.1-2.2-6.1l5.8-2.9 9.7-.1c1.1-3.5 2.4-6.1 4.6-9 1.9 2.2 3.9 4.3 6.1 6.2 1.5 3.5 2.1 7.1 2.5 10.9 4.4 1.4 8.8 2.7 12.9 5-4.2 4.3-8.3 8.6-11.2 14-.7 1.5-1.4 2.8-2.1 4.3 0 2.4-.1 5-.1 7.4 1 1.1 2.1 2.1 3.1 3.2 4.2-.4 8.2-1 12.2-2.3 2 .8 3.9 1.7 5.9 2.5.9 1.8 1.7 3.6 2.6 5.4 0 3 .1 6 .1 9-1.3 1.1-2.8 2.2-4.1 3.3 0 5.9-.4 11.5 1.4 17.3-3.5 3.1-7 5.7-11 8.1-.3 5.5.4 10.3-2 15.4-.2 4.4-.2 8.8-.2 13.2-4.5 2.2-8.4 3.9-11.1 8.4-2.3.5-5.6.1-7.1 2-1.4 2.8-2.4 5.7-3.6 8.6 0 4 .1 8 .2 12 1.3 1.7 2.5 3.4 3.6 5.2-.5 4.8-1.7 9.6-2.3 14.4 1.1 1.2 2.1 2.3 3.2 3.5-.9 1.2-1.8 2.3-2.7 3.5-.1 2.3-.1 4.6-.2 6.9 3.7 1.1 7.4 1.7 11.2 2.1 1.7 1.5 3.3 2.9 5 4.4-.1 1.5-.1 3.1-.2 4.6-1.2 1-2.5 2.1-3.7 3.1.3 6.7-1.9 11.5-4.7 17.4-2.3 1.6-4.6 3.3-7 4.8-1.7 6.1-3.2 12-2.2 18.4 1.2 4.7 4.2 7.6 7.4 11 .2 1.3.5 2.6.7 3.9 3.1 4 5.8 8.3 8.4 12.7 6.6 1.5 12.9 2.7 19.7 2.5 1.6-3.1 2.9-4.7 5.7-6.7 2.3 1.1 4.5 2 6.9 2.8 2.8-1.2 5-3.9 7.3-5.8 1.7-.3 3.4-.5 5-.8 1.8 4.1 2.1 8.2 2.4 12.6 3-.1 6-.1 8.9-.5 1.5-1.8 2.8-3.7 4-5.7 1.8 0 3.7.1 5.5.1 1.9 2.9 3.9 5.7 6 8.5 6.9-.3 9.4-4 13.8-8.5-1.3-1.4-2.5-2.8-3.8-4.2 1.2-1.3 2.5-2.5 3.7-3.8 4 0 7.9.1 11.9.1 3.6-3.7 7.3-7.4 11-11 0-1.5 0-3.1 0-4.6 4.4-1.1 8.8-2.1 13.3-2.7 1-1.2 2-2.3 3-3.5l6.3-.2c5.1-4.6 4.7-4.6 10.9-2.1 2.7.1 5.3.3 8 .4 0 2.1.1 4.2.1 6.3 8.3-2.1 15.4-2.8 24-2.4-.4 6.1-1.7 12-2.8 18 5.6-1.4 11-2.3 16.8-2.3 5.5 4.7 8.9 6 16.2 6.4 2-2.2 3.9-4.3 5.9-6.5 4.8.1 9.4.1 13.9 2.2 1.1-1 2.1-1.9 3.2-2.9-.1-2-.1-3.9-.2-5.9 3.1-3 6-6.3 9.5-8.9 4-3 8.6-1.9 13.4-2.1 1.7 1 3.4 1.9 5.1 2.8-.3 5.4.6 10.1-2.9 14.7-1.9 1.2-4 2.2-6 3.2-3.6 2.8-7.5 5.3-10.5 8.8-3.7.1-7.3.2-11 .2-2.1 3.7-4.4 5.5-8.1 7.5-1.5.7-3 1.5-4.5 2.2-1.8.1-3.7.2-5.5.3-2 3.2-4 5.2-7.1 7.3v6.3l4.5.3c-.7 3.5-1.5 7-2.5 10.4.8 1.2 1.7 2.5 2.5 3.7 3.1-.5 6.1-1.1 9.1-2.1 4.4-.3 8.8-.4 13.2-.5 2 2 3.9 4.1 5.9 6.2-5.5 5.7-12.5 6.2-20 6-1.5 3-3.1 6-4.7 9-5.1 2.7-10.9 2.2-10.1 9.7 5.1 3.6 10.8 7.9 17.3 5.6 4.7 2.5 8.5 3.3 13.8 3.6 2.2 2 4.3 4.1 6.5 6.1 1.2-.8 2.3-1.5 3.5-2.3 3.4 1 6.8 1.5 10.2 2-3.8 10-.3 22-2.3 32.4-2.1 7.2-4.7 14.2-7.1 21.3-.3 2.9-.6 5.8-1 8.7l-3.9-3.2c-5.9.1-11.3-.8-16.9 1.5-1.9.2-3.9.4-5.8.5-.3 2.7-.7 5.5-1 8.2-4.9-2.6-9.7-2.4-15.1-2.5 0 2.7-.1 5.3-.1 7.9l-4 .4v4.8c1.5 1.4 3 2.9 4.5 4.3 5.5 1.5 11.2 2.9 16.5 4.9-2.9 2.4-5.9 4.8-9.1 6.9 0 2.8.1 5.7.1 8.5 3.5 0 6.9.1 10.4.2 2.5 1.8 5.1 3.6 7.7 5.2-.4 3.6-.9 7.1-1.8 10.6-1.8 0-3.8-.1-5.6-.1-1.4-1.4-2.8-2.8-4.2-4.2-8.1 5.6-20.9-2-28.6-5.6-5.5.1-10.1-.1-15.2-2.2-.6-5.5-1.8-10.8-2.6-16.2-6.6-2.2-13.1-.3-18.6-4-3-3.4-5.6-7.2-8.7-10.6-.1-1.6-.1-3.1-.2-4.7-2.6 0-5.1 0-7.7 0l-.2-3.9c-5.4-2-8.4-2.5-14-.9-5.7-1.6-9.1-1.4-14.6.6-2.9-.8-5.9-1.6-8.8-2.3-.1 4.4-.2 8.7-.3 13.1-4.6-1.4-9.1-2.9-13.7-4.5v15.7c-1.6 0-3.3.1-4.9.1-3.3-3.3-6.6-6.7-9.8-10.1-1.2.2-2.3.4-3.5.6-3 .8-5.9 1.5-8.9 2.1-1.4-5.5-2.6-10.9-3-16.5-6 0-12 .1-18.1.1-2.7 4.5-6 7.8-10.2 11-1.8 2.9-3.7 5.7-5.6 8.6-4.2.3-9.6-.8-13.4 1.2-1.8 2.7-3 5.7-4.4 8.6-2.7.1-5.5.2-8.2.6-1.4 1.6-2.8 3.3-4 5-2.5 1.4-5 2.7-7.4 4.3-5.2 9.1-3.8 18.3-1 28h6.4c2.6 2.5 5.5 4.7 8.3 7 1.2 3.2 2.7 6.4 4 9.6-.6 2.6-1.2 5.2-1.7 7.9 3.2 3.1 6.5 6.2 9.6 9.3-3.1 1.6-6.2 3.1-9.2 4.8.6 3.6 2 7.3 2 10.9-2.2 3.7-6.2 6.3-8.8 9.9 1.6 3.2 3.3 6.5 4.9 9.7-4.4 6.9-4.3 13.1-4.1 21-1.3 1.3-2.6 2.6-3.9 3.9 0 2.7-.1 5.3-.1 8 4.4 4.5 8.3 7.2 14 9.7-.1 2.5-.1 5.1-.2 7.6 2.2 3.4 4.5 6.6 6.7 10 1.5 1.6 2.9 3.4 4.3 5.1 1.8.1 3.7.2 5.5.3 2.8 2.1 5.7 4.1 8.6 6.1 1.5 3.4 3.1 6.7 4.7 10-3.1 8.3-3.4 15.8 2 23.2-2.3 4-4.6 7.9-6.9 11.9l-3.9.2c-1.9 2.8-4 5.6-6.1 8.3-.9-2-1.9-4.1-2.8-6.1-.1-4.5-.2-9.1-.5-13.6-1.7 2.7-3.4 5.5-5.1 8.3-1.5-2.2-3.1-4.5-4.6-6.7.1-2.1.3-4.3.4-6.4-3.2 1.7-6.3 3.3-9.7 4.5-3.4-3.8-6.7-7.7-10.2-11.4-.1-1.8-.1-3.8-.2-5.6-2-1.3-4.8-2.2-5.8-4.5.2-2.5 1.1-5 1.8-7.4-5.3-2.5-7.9-6.7-10.9-11.4l-2.8.7c.3 9.2-1.1 19.3 1.5 28.1-1.6 2.4-3.2 4.8-4.7 7.3-1.6 0-3.1-.1-4.7-.1 0 4.2 0 8.4-.1 12.6-1.9 1.1-3.7 2.3-5.4 3.6-.3 2.5-.6 5-.7 7.6-2.9 1.4-5.9 2.7-8.8 4-1.5-8.8.2-17.3-3-25.8h-9.7c0 3.5 0 7.1-.1 10.6-3.8 2.2-5.3 4-7.3 7.9-.7-2.4-.3-6.7-2.6-8-3.2-.7-6.5-.7-9.8-1-.9 2.8-1.6 5.7-2.4 8.5-6.9 3.9-10-.8-15.3-4.7-6.6 1.3-5.1 6-8.8 10.2-3.9.4-7.9.3-11.8.3-1.1-.9-2.3-1.7-3.4-2.6-2.9-7.9-1.7-15.8-1.8-24.3 1.6-1.9 3.3-3.8 4.9-5.7-1.8-2.4-3.8-4.7-5.6-7h-5.3v-5.9c-3.9 0-7.7 0-11.6 0-.2-1.5-.5-3.1-.7-4.6-2.7 2.1-5.4 4-8.1 6.1-3-.8-6.1-1.5-9.1-2.2-1.6 5.5-3.2 10.9-5.4 16.2l-4.7.4v10.7c-4.4 4.4-8.3 6.9-8.3 13.8-2.1 3-4 6.2-6.4 9-3.9.5-7-1.1-10.6-2.3-.8-1.7-1.5-3.4-2.3-5.1 0-1.5-.1-2.9-.1-4.4 2.3 0 4.6-.1 6.9-.1 2-3.9 4-7.6 6.4-11.2 1.5 1.4 3.1 2.9 4.6 4.3 1.2-1.3 2.4-2.5 3.6-3.8.9-6.5.7-15.6 8.2-18.1-1.4-7-5-15.3-2.7-22.2-2.5-1.7-5.2-3.4-7.4-5.5.6-1.5 1.3-3 2-4.5-7.2-2-10.4-2.6-14.2-9.5.9-2.9 2-5.8 3-8.7h4.3c-1-4.3-2.6-6.8-5.5-10.1-2.2.2-4.5.3-6.8.5-1.3-8.4-2.8-16.5-2.5-25 2.7-2.6 5.4-5.3 8.1-8 0-2.8 0-5.4 0-8.2 2.6-.9 5.1-1.9 7.7-2.8.2-2.7.3-5.4.5-8.1.8-2.4 1.5-4.7 2.1-7.1 3-2.5 6.3-4.7 9.2-7.3.3-2.7.3-5.3.4-8-2.4-2.4-4.9-4.7-7.3-7.1.9-4.3 1.4-8.7 1.8-13.1-3.9-1.8-7.9-3.3-11.9-4.9-.8-2.5-1.6-5.1-2.5-7.6 2.5-7.1 7-14.8 13.7-18.7 1.1-3.2 2-6.4 2.8-9.6-1.5-1.3-3.2-2.6-4.7-3.9 0-4.1 0-8.2 0-12.3-1.2-1.2-2.3-2.4-3.5-3.6-.5-5.4-1.3-7.2-4.8-11.2-8.4.5-15.3-.1-23.3-2.3 0 2.9.1 5.7.1 8.6-9.9 3.1-21.3 1.2-31.6 1.7-.5-3.7.7-9.6-1.5-12.7-5.4-1.9-11.2-2.8-16.8-3.8-5.3-1.7-7.4-1.9-12.3 1.2-2.4-1.5-4.7-3.1-7-4.6-5.5 1.6-10.5 2.3-16.2 2.3-2.6 4.1-4.5 8.3-6.4 12.7-1.5 2.2-2.9 4.5-4.3 6.8-3.8.1-7.6.1-11.4.2-5.7 4.5-8.9 6.1-16.4 5.9-4.5 2.3-6.7 6-9.8 9.8-3.9.6-7.1-.1-10.6-1.9-9.5.2-18.3 2.9-28 2 0-6.5 0-12.9.1-19.4-3.7-.9-7.4-1.9-11.1-2.8-1.8-1.8-3.6-3.7-5.4-5.5-2.1 0-4.3-.1-6.5-.1-1.1-1.3-2.2-2.6-3.3-3.9-2.8 0-5.6-.1-8.4-.1-2.8-2.9-5.7-5.7-8.6-8.6 1.2-2.4 2.4-4.7 3.6-7.1 1.6-.1 3.3-.2 4.9-.3.6-3.2 1.1-6.5 1.6-9.7h12.7c1.7-1.7 3.3-3.4 5-5.1-5-1.7-9.7-3.3-13.9-6.6h-6c-2.8-4.7-4.3-8.5-4.7-14h12.3l.1 4c4.1 0 8.4.1 12.5-.3 3.2-2.4 5.3-6.2 8.1-9.1 4.6-4.3 9.7-7.2 12.4-13.2l4.6-2c0-1.5 0-2.9 0-4.4-2.3-1.1-4.6-2.2-6.9-3.3-2.9-4.7-4.3-5.1-9.6-6.5-3.5-.4-7-.8-10.5-1.1-1.8-1.9-3.5-3.8-5.3-5.7h-7.3v-5.4c4.5-.6 8.6-1.6 12.9-2.9 2.3-1.6 4.6-3.1 6.9-4.6.1-2.1.2-4.2.3-6.3-6.8-.2-10.3-1.9-15.5-6-6.6-1.5-13-2.7-19.8-2.5-5.6-3-8.5-7-11.6-12.4 2-1.5 4.1-2.8 6.2-4.2 1.9-3.6 4-7.1 6.4-10.4.2-5.7 1-10.2 3.1-15.5 1.3 1.7 2.5 3.4 3.8 5.1 4.4-1 8.7-2 13.2-2.6 0-2.6.1-5.3.1-7.9 2.3.5 4.4.8 6.7 1.1 5.9.5 11.7 1.3 17.6 1.5 3.2-5.4 4.3-7.8 11-8.9.1 2.9.2 5.8.3 8.7 2.4 0 4.7.1 7.1.1 1.1 1.2 2.2 2.2 3.3 3.4 1.6.8 3.2 1.5 4.8 2.3 2.6.1 5.3.2 7.9.2 1.2-1.6 2.4-3.1 3.6-4.7 2.7.9 5.3 1.9 8 3 2.8 2.6 5.7 4.7 9.1 6.5 2.3-3.5 3.8-7.3 7.7-9.2 6 5.7 11.4 9.7 19.1 13 2.1-1.8 4.2-3.6 6.3-5.4-.1-6.5 1.1-12.4 2.5-18.7 1.7-.4 3.4-.9 5.1-1.3 1.1 2.3 2.1 4.7 3.2 7 1.5-.1 2.9-.1 4.4-.2l3.3 3.6c3.1.5 6.2 1.1 9.2 2.1 4 .2 8 .3 12.1.4.9 1.9 1.9 4 2.8 5.9 3.7 0 7.3-.1 11-.1 0 2.7.1 5.3.1 8 1.6 3.2 3.2 6.5 4.7 9.8h24.4c.9-4.1 2-8.1 3-12.2 6.3 1.6 12.1 2.5 18.6 2.6 1.6-2.8 3.3-5.5 4.9-8.2h5.5l.3 6.5c.9 1.8 1.7 3.6 2.6 5.4 2.1 0 4.3.1 6.4.1.9-2 1.8-4.1 2.8-6.1-1.8-6.5-2.1-13.1-3.4-19.7-2.9 0-5.7 0-8.6 0-.9-2-1.8-4-2.7-6.1-2.4.1-4.7.1-7.1.2l-.1-5.9c2.4-.1 4.7-.2 7-.3l3.2 3.6c2.6-5.1 5.2-10.3 7.9-15.3 5.1 0 10.2.1 15.3.1 3.5-10.4 1.9-20.3 2.3-31.1-3.4-1.3-7-2.4-10.1-4.2-2-2.5-3.7-5.2-5.5-7.9 3-8.5 2.2-18.4-.2-26.9-1.5-6.6-7.4-10.2-8.9-17 9.4-.4 17.7 1.2 26.7-2.1-.1-7.6 0-15.3 0-22.9-1.8-1.7-3.6-3.3-5.4-5 .7-2.7 1.4-5.5 2-8.2 4.9-7.8 3.7-14.8 1.1-23.1 2.1-.1 4.1-.1 6.2-.1 0-1.7.1-3.3.1-5l-6-5.7c0-2.5-.1-5-.2-7.5-1.9-2.8-3.2-5.4-4.4-8.6 5.3 2.7 9.4 6.7 14 10.3.2-2.7.4-5.4.6-8.1-1.3-1.2-2.5-2.4-3.7-3.6-.5-3.1-1.1-6.3-1.9-9.4 1.8-4.7 1.9-7 0-11.7-.3-1.6-.5-3.3-.8-5-2.8-3.7-4.8-7.4-6.5-11.7 2-1 4-2.2 6-3.2.9.7 1.8 1.3 2.7 2h9.3c3.7 3.5 7.4 6.8 10.8 10.6-.1 1.9-.2 3.8-.4 5.6 6.4 3.5 9.3 8.9 12.5 15.1 1.8-.8 3.7-1.6 5.5-2.4 0-1.7 0-3.5 0-5.2 1.7 0 3.4-.1 5.1-.1.9-1.8 1.7-3.4 2.6-5.2 0-1.3.1-2.6.1-3.9-1.9-1.9-4-3.7-5.9-5.6v-7.9c1.6-1.7 3.3-3.5 4.9-5.2 2 .1 3.9.3 5.9.4 3-5 5.5-10 10.6-13.5z"/></clipPath><g id="figure" fill="#fff"><g transform="scale(.1)"><path clip-path="url(#a)" d="m133 56c-37.2 9.2-113 36-113 75 0 182 1 366 1 548 0 16-3 29 4 44 19 41 91.1 99.8 173 148.9 85 50.9 198 108.1 235 108.1 35 0 150-57.2 235-108.1 81.9-49.1 154.9-107.5 173-148.9 5.9-13.6 4.5-28 4.5-44 .2-182.7.3-365.3.5-548 0-39-75.8-65.7-113-75-86.8-21.7-177-36-300-36-104 0-212.2 14.2-300 36z"/><path d="m1555 267-149.9 501h117.3l147.2-501zm-314.1 0-149.2 501h115l60.1-204h153.9l72.1-90.5h-199.3l61.1-206.5z"/><path d="m1726.3 404h167c59.7 0 90.2 12.2 90.2 58.3 0 10-.7 20.9-3.5 31l-78 278.9h-101.3l48.1-160.7h-76.4c-19 0-41.1-.1-57.1 10-14.1 8.9-20 24.8-20 41.1 0 18.4 19 26.4 36 26.4h94.2l-87.2 81.9c-77.1 0-96.9-4.3-114.7-16.6-17.5-12.1-40.5-28.6-40.5-70.7 0-43.1 21.9-97.4 53.8-117.1 29.8-18.4 68-25.1 102.1-25.1h126.2l10-36c4.5-16.4.4-18.2-23-18.2h-195l58.1-74c4-5 7-9.2 11-9.2z"/><path id="b" d="m2056.5 400-109 368h107.6l73.3-249.5h75.6c29.3 0 42.3-7.7 58.5-29.5l66.5-89h-107.6l-91.7 113.8 33.4-113.8z"/><path d="m2381.2 267-149.2 501.2h115.6l18.6-62.7 40.4 64.3c25 0 49.4-.2 74.4-1 68.1-2.2 116.5-31.8 146.1-80.2 25.5-41.8 37.9-91 37.9-138.1 0-59.1-34.8-115.6-85-138.3-31.9-14.4-84-12-124.1-13l39.1-132.2zm107.8 226c36 0 60.2 42.5 58.9 75.5-1.8 46.1-15.3 93.6-59.9 101.5-37.1 6.6-76.1 9.6-114.2 9.6l55.1-186.6z"/><path d="m2785.4 259.5-29 99h107.4l28.4-99zm-37.7 140.7-109.6 367.8h107.8l107.5-367.8z"/><path d="m3008.5 400.2-19.8 68.1 76.8-65.1h101.5c50.3 0 67.3 34.2 67.3 74.3 0 30-10.2 59.8-17.6 89l-52.1 205.3h-113l64-212.3c20.1-66.6 18.3-67.9-58.6-66.9-26 .3-53.8.8-77.7 7.2l-78.6 268.5-107.3-.6 109-367.5z"/><path d="m3401.8 412.2c-48.3 12.2-88.3 44.9-118.2 84.1-25.2 32.9-45.2 72.6-51.1 114.7-5.1 36 3.9 72.7 21.1 104.7 18.9 35.1 47.1 50.7 86.1 53.1 25.1 1.6 52.8 1 77.8 1l60.1-72.3-22.2 73.1c-11.5 37.9-20.4 51.6-56.6 58.1-59 10.6-128.8 2.6-192.3-3.2l27 87.5c47.1 6 95.9 7 142 7 91.4 0 149.9-15.8 185.5-139l110.5-380.8h-133.5c-50.5 0-98.4 2.5-136.2 12zm137.7 75.8-59.6 201.1h-77.9c-33.9 0-47.7-23.4-53.6-49.5-5.2-23-1.5-48.3 8-69.1 28.5-62.3 53.8-82.5 111.5-82.5z"/><path d="m3855.3 405.2c-170.2 0-217.8 193.5-217.8 248.4 0 74.1 46.1 120.4 116.7 120.4h143.2l50.1-87h-143.2c-38.2 0-72.3-14.7-66.8-65.2h244c8-30 12.9-66 13-97 .2-86.6-56.7-119.6-139.2-119.6zm-5 75.7c21.4-.6 35.1 6.6 44.7 19.6 8.6 11.6 8.1 27.7 7.3 45.9h-136.9c6-16 14.3-30.8 27-43.1 16.3-15.7 38.9-21.8 57.9-22.4z"/><use transform="translate(2021)" xlink:href="#b"/><path d="m4154.6 784.1c-2-3-2-7-2-10-1-6-4-7-8-7h-3v17h-8v-40.1h14c10 0 16 3.1 16 11.1 0 6-5 8-8 9 2 1 2 1 3 2 2 2 2 6 3 9 0 1 0 6 2 9m-16-24c4 0 7-1 7-5s-3-5-7-5h-6v10"/><path d="m4147.6 729c-19.1 0-35.1 16-35.1 35.1s16 35.1 35.1 35.1 35.1-16 35.1-35.1-16-35.1-35.1-35.1zm0 6c16 0 29.1 13.1 29.1 29.1s-13.1 29.1-29.1 29.1-29.1-13.1-29.1-29.1 13.1-29.1 29.1-29.1z"/></g></g></svg>