<svg viewBox="0 0 412 100" xmlns="http://www.w3.org/2000/svg"><g id="figure" fill="#fff"><path d="m37.69 26.78h-20.25v-10.66h22.76v-12.7h-38.1v57.73h15.34v-21.27h20.25z"/><path d="m48.46 3.42h13.85v57.73h-13.85z"/><path d="m88.16 61.49h14.37v-44.77h17.02v-13.64h-49.1v13.64h17.7z"/><path d="m193.31 3.44s-7.8 32.85-8.17 34.56c-.18-.94-5.59-18.39-5.59-18.39h-23.22s-5.56 15.4-5.92 17.02c-.14-.87-8.23-33.2-8.23-33.2h-15.79l16.19 57.73h15.15l7.95-24.67c.85-2.86 1.3-4.94 2-7.73.7 2.57 1.33 5.32 2 7.73l8.08 24.64h15.11l16.24-57.69z"/><path d="m174.29 3.42h-13.16l-3 10.05h19.41z"/><path d="m266.79 44c1.52-3.72 2.28-7.7 2.25-11.71.03-3.99-.74-7.95-2.25-11.64-1.58-3.67-3.86-7-6.72-9.79-2.86-2.85-6.25-5.09-9.99-6.61-3.77-1.51-7.79-2.27-11.85-2.25-4.04-.03-8.04.74-11.79 2.25-3.75 1.5-7.16 3.75-10.01 6.61-2.88 2.77-5.16 6.09-6.7 9.78-1.56 3.67-2.35 7.58-2.36 11.5-.02 4 .77 8.01 2.36 11.77 1.54 3.68 3.82 7.01 6.7 9.78 2.86 2.84 6.26 5.07 10.01 6.54 3.74 1.54 7.74 2.35 11.79 2.38 4.04-.03 8.03-.82 11.78-2.33s7.18-3.73 10.09-6.54c2.86-2.77 5.14-6.08 6.7-9.74zm-14.51-5.01c-.68 2-1.77 3.84-3.19 5.41-2.72 3-6.39 4.62-10.14 4.82-4.67.11-8.73-1.77-11.65-4.74-2.82-3.11-4.22-7.17-4.22-12.18 0-4.84 1.42-8.88 4.26-12.11 2.7-3.17 6.68-4.96 10.84-4.86 4.13-.05 8.08 1.72 10.78 4.86 2.86 3.26 4.29 7.3 4.3 12.11.05 2.27-.28 4.53-.97 6.69z"/><path d="m333.18 44c1.52-3.72 2.28-7.7 2.25-11.71.03-3.99-.74-7.95-2.25-11.64-1.58-3.67-3.86-7-6.72-9.79-2.86-2.85-6.25-5.09-9.99-6.61-3.77-1.51-7.8-2.27-11.86-2.25-4.04-.03-8.04.74-11.79 2.25-3.75 1.5-7.16 3.75-10.01 6.61-2.88 2.77-5.16 6.09-6.7 9.78-1.56 3.67-2.35 7.58-2.36 11.5-.02 4 .77 8.01 2.36 11.77 1.54 3.68 3.82 7.01 6.7 9.78 2.86 2.84 6.26 5.07 10.01 6.54 3.74 1.54 7.74 2.35 11.79 2.38 4.04-.03 8.03-.82 11.78-2.33s7.18-3.73 10.09-6.54c2.86-2.77 5.14-6.08 6.7-9.74zm-14.51-5.01c-.68 2-1.77 3.84-3.19 5.41-2.72 3-6.39 4.62-10.14 4.82-4.67.11-8.73-1.77-11.65-4.74-2.82-3.11-4.22-7.17-4.22-12.18 0-4.84 1.42-8.88 4.26-12.11 2.7-3.17 6.68-4.96 10.84-4.86 4.13-.05 8.08 1.72 10.78 4.86 2.86 3.26 4.29 7.3 4.3 12.11.05 2.27-.28 4.53-.97 6.69z"/><path d="m379.57 8.89a25.3 25.3 0 00-9.36-4.21q-5.16-1.24-18.23-1.24h-11.51v57.72h14.04q10.94 0 15.92-1.3a25.41 25.41 0 009.13-4.09 24.43 24.43 0 007.96-9.8 32.88 32.88 0 002.72-13.62 32.84 32.84 0 00-2.72-13.62 23.7 23.7 0 00-7.95-9.84zm-7.36 35.46c-2.72 2.57-8.37 3.86-14.3 3.86h-3.21v-31.83h3.21c5.91 0 11.58 1.3 14.3 3.9 2.72 2.59 4.08 6.63 4.08 12.09s-1.37 9.47-4.08 11.98z"/><path d="m401.35 2.37c4.69 0 8.48 3.88 8.52 8.54 0 4.83-3.87 8.48-8.52 8.52-4.73-.02-8.55-3.97-8.54-8.52.01-4.81 3.97-8.53 8.54-8.54zm0 1.41c-4.07-.07-7.08 3.24-7.12 7.12.23 4 3.25 7.07 7.12 7.11 4-.23 7.07-3.23 7.11-7.11-.24-3.98-3.22-7.08-7.11-7.12zm-3.74 11.84v-9.18h3.15c2.12.01 3.85.54 3.92 2.49.03 1.52-1.27 2.47-2.62 2.59.32.14.58.3.78.49 1.04 1.18 1.61 2.22 2.48 3.62h-1.81c-.71-1.23-1.37-2.6-2.36-3.58-.51-.5-1.26-.32-2.06-.32v3.9zm1.48-5.17h1.8c1.29.03 2.2-.32 2.23-1.4-.04-1.17-1.39-1.37-2.34-1.37l-1.7-.01z"/><path d="m68.05 82.91c-.85-.82-1.85-1.47-2.94-1.92-1.08-.44-2.24-.68-3.4-.68-2.38 0-4.67.94-6.39 2.59-.85.81-1.53 1.78-1.98 2.86s-.67 2.24-.68 3.4c-.01 2.66 1.19 5.17 3.28 6.81.82.65 1.74 1.16 2.72 1.5 2.09.74 4.38.69 6.43-.14 1.1-.45 2.1-1.1 2.96-1.92.84-.8 1.5-1.77 1.94-2.85.89-2.18.9-4.63 0-6.81-.44-1.07-1.1-2.04-1.93-2.85zm-6.36 11.88c-1.44 0-2.87-.51-3.82-1.59-2.02-2.29-2.11-5.85 0-8.07 2.25-2.36 5.83-1.95 7.57 0 2.04 2.28 2.01 5.74.54 7.43s-2.85 2.23-4.28 2.23z"/><path d="m88.39 87.24h-4.96v-3.46h4.96v-3.04h-8.56v16.85h3.6v-7.29h4.96z"/><path d="m117.48 87.7-.8-.33c-1.65-.68-2.5-1.42-2.5-2.19a1.43 1.43 0 01.59-1.2 2.55 2.55 0 011.62-.48 2.9 2.9 0 011.43.33 2.39 2.39 0 01.94.99l.1.19 2.4-2.21-.09-.12a5.57 5.57 0 00-2.04-1.66 6.36 6.36 0 00-2.72-.53 6.95 6.95 0 00-4.39 1.36 4.17 4.17 0 00-1.72 3.4 4.09 4.09 0 00.89 2.62 9.53 9.53 0 003.12 2.21c.31.16.73.35 1.26.6 1.56.73 2.36 1.44 2.36 2.14a1.69 1.69 0 01-.68 1.42 3.05 3.05 0 01-1.9.54 3.4 3.4 0 01-1.8-.49 2.85 2.85 0 01-1.15-1.36l-.1-.25-2.27 2.47.06.11a4.61 4.61 0 002.14 1.92 8.12 8.12 0 003.41.68 6.74 6.74 0 004.45-1.4 4.69 4.69 0 001.68-3.77 4.15 4.15 0 00-1.07-2.81 9.07 9.07 0 00-3.21-2.18z"/><path d="m141.29 93.95c-.73.3-1.52.45-2.32.45-1.29.06-2.53-.45-3.41-1.4-1.7-2.33-1.66-5.5.1-7.78.94-.99 2.26-1.51 3.62-1.45.72 0 1.43.14 2.08.42 1.02.36 1.7.96 2.44 1.68v-4.09c-1.58-.72-3.34-1.2-4.81-1.21-2.28-.08-4.49.81-6.08 2.44-3.14 3.53-3.14 8.85 0 12.38 1.58 1.63 3.76 2.51 6.03 2.44.82 0 1.63-.11 2.41-.33.87-.29 1.63-.63 2.31-1.06l.18-4.62c-.84.75-1.71 1.72-2.57 2.11z"/><path d="m157.27 80.74-6.22 16.85h3.75l1.14-3.58h6.33l1.36 3.58h3.94l-6.31-16.85zm-.35 10.47 2.28-7.71 2.3 7.72z"/><path d="m188.7 93.49-8.97-12.75h-3.74v16.85h3.44l-.25-12.97 9.15 12.97h3.53v-16.85h-3.44z"/><path d="m213.08 82.35a6.59 6.59 0 00-2.51-1.27 16.13 16.13 0 00-3.91-.38h-4.2v16.85h4.46a14.98 14.98 0 003.77-.36 6.76 6.76 0 002.34-1.19 7.1 7.1 0 002.16-2.86 10.08 10.08 0 00.74-3.98 10.28 10.28 0 00-.69-3.94 7.17 7.17 0 00-2.16-2.87zm-1.73 10.9q-1.19 1.29-3.77 1.29h-1.83v-10.74h1.83q2.58 0 3.77 1.29 1.19 1.29 1.18 4.09 0 2.8-1.18 4.09z"/><path d="m225.73 80.74h3.6v16.85h-3.6z"/><path d="m253.36 93.49-8.97-12.75h-3.74v16.85h3.45l-.25-12.97 9.15 12.97h3.53v-16.85h-3.41z"/><path d="m270.99 80.74-6.22 16.85h3.75l1.14-3.58h6.33l1.36 3.58h3.94l-6.31-16.85zm-.35 10.47 2.28-7.71 2.29 7.72z"/><path d="m294.98 94.41-3.99-13.7h-3.98l6.23 16.85h3.41l6.27-16.85h-3.92z"/><path d="m311.62 80.74h3.6v16.85h-3.6z"/><path d="m330.23 80.74-6.22 16.85h3.75l1.14-3.58h6.33l1.36 3.58h3.94l-6.3-16.85zm-.35 10.47 2.28-7.71 2.29 7.72z"/></g></svg>