<svg viewBox="0 0 186 100" xmlns="http://www.w3.org/2000/svg"><g id="figure" fill="#fff"><path d="m42 2c-2.9 0-5.6 1.4-7.2 3.8l-32.8 48.7h22.4l19.2-28.5v28.5h21.9l19.2-28.5v28.5h40l14.3-12.6 14.3 12.6h30.7l-29.7-26.2 29.7-26.3h-30.7l-14.3 12.6-14.3-12.6h-41.5c-2.9 0-5.6 1.4-7.2 3.8l-12.1 18.1v-21.9zm56.8 1.4h25.4l14.8 13.2 14.9-13.2h26.3l-28.1 24.9 28.1 24.7h-26.3l-14.9-13.1-14.8 13.1h-25.4l28.2-24.7z"/><path d="m42 3.4h20.5v25.2l14.8-22c1.3-2 3.5-3.1 5.9-3.1l13.3-.1 28.2 24.9-28.2 24.7h-10.3v-31.7l-21.5 31.7h-19.6v-31.7l-21.5 31.7h-18.9l31.3-46.4c1.3-2 3.6-3.2 6-3.2z"/><path d="m2.3 91.3c4.3 1.7 9 2.3 13.6 2.3 7.6-.1 9.9-1.6 9.9-6 0-3.4-1.5-4.5-7.6-5.1l-4.8-.5c-8.4-.9-11-3.1-11-9.4 0-7.6 3.9-10.4 14.2-10.4 5.1 0 8.1.6 12 1.9l-.4 4.6c-3.9-1.4-8-2.1-12.2-2.1-7 0-9.2 1.4-9.2 5.6 0 3.2 1.3 4.4 7.6 5l4.9.5c8.3.8 10.9 3.2 10.9 9.7 0 7.8-3.7 10.6-14.6 10.6-5.7 0-9.2-.6-13.6-2.1z"/><path d="m34.3 62.9h27.4v4.3h-23v10.5h19.8v4.3h-19.8v11h23.4v4.4h-27.8z"/><path d="m66.1 62.9h4.4v30h21.6v4.5h-26z"/><path d="m95.3 62.9h27.5v4.3h-23.1v10.5h19.9l-.1 4.3h-19.8v11h23.4v4.4h-27.8z"/><path d="m141.8 62.2c4.1 0 7.4.6 10.8 1.9l-.4 4.6c-3.3-1.3-6.8-2-10.4-2-9.3 0-12.4 3.4-12.4 13.4s3.1 13.4 12.4 13.4c3.6 0 7.1-.6 10.4-1.9l.4 4.5c-3.4 1.3-6.9 1.9-10.8 1.9-12.2 0-16.9-4.9-16.9-17.9s4.8-17.9 16.9-17.9z"/><path d="m167 67.3h-12.5v-4.4h29.5v4.4h-12.5v30.1h-4.5z"/></g></svg>