<svg viewBox="0 0 824 100" xmlns="http://www.w3.org/2000/svg"><g id="figure" fill="#fff"><path d="m73.8 2.4c-5.2 0-9.9 2.6-12.8 6.9l-59 87.4h40.2l34.6-51.2v51.2h39.3l34.5-51.2v51.2h71.8l25.7-22.6 25.7 22.6h55.1l-53.4-47.1 53.4-47.2h-55.1l-25.7 22.7-25.7-22.7h-74.5c-5.2 0-10 2.6-12.9 6.9l-21.8 32.4v-39.3zm101.9 2.6h45.7l26.7 23.6 26.7-23.6h47.3l-50.5 44.6 50.5 44.5h-47.3l-26.7-23.5-26.7 23.5h-45.7l50.7-44.5z"/><path d="m73.8 5h36.8v45.1l26.6-39.4c2.4-3.6 6.4-5.7 10.7-5.7h23.8l50.7 44.6-50.7 44.5h-18.5v-57.1l-38.5 57.1h-35.3v-57.1l-38.6 57.1h-33.9l56.2-83.4c2.4-3.6 6.4-5.7 10.7-5.7z"/><path d="m335.5 79.9c11.6 4.5 23.9 6.4 36.3 6.3 20.3-.2 26.6-4.3 26.6-16 0-9.3-3.9-12.2-20.3-13.8l-13-1.3c-22.5-2.3-29.5-8.3-29.5-25.2 0-20.3 10.5-27.9 38.1-27.9 13.8 0 21.9 1.4 32.3 4.9l-1 12.3c-10.5-3.8-21.6-5.5-32.8-5.4-18.9.1-24.6 3.8-24.6 15 0 8.7 3.4 11.6 20.4 13.3l13 1.3c22.4 2.2 29.4 8.6 29.4 26.2 0 21-10.1 28.4-39.3 28.4-15.2 0-24.8-1.6-36.6-5.7z"/><path d="m421 3.7h73.7v11.7h-61.8v28h53.2v11.7h-53.2v29.5h62.8v11.7h-74.7z"/><path d="m506.1 3.7h12v80.6h58v12h-70z"/><path d="m584.3 3.7h73.7v11.7h-61.8v28h53.2v11.7h-53.2v29.5h62.8v11.7h-74.7z"/><path d="m708.9 2c11.1 0 19.7 1.5 28.9 5.1l-1 12.2c-8.9-3.5-18.4-5.2-27.9-5.2-25.1.1-33.3 9.1-33.3 35.9s8.2 35.8 33.3 35.9c9.5 0 19.1-1.7 27.9-5.2l1 12.2c-9.2 3.5-18.4 5.1-28.9 5.1-32.6 0-45.4-13.2-45.4-48 0-34.9 12.8-48 45.4-48z"/><path d="m776.3 15.7h-33.6v-12h79.3v12h-33.7v80.6h-12z"/></g></svg>