<svg viewBox="0 0 196 100" xmlns="http://www.w3.org/2000/svg" xmlns:xlink="http://www.w3.org/1999/xlink"><mask id="a"><path d="m420 20v960h455v-960z" fill="#fff"/><path d="m858.2 116.6c2 1.4 4.2 2.8 6.2 4.2-4.7 54.9-21.5 105.6-27.5 159.9-1.3 10.5-3 20.9-3.9 31.4-6.2 64 1.4 134.2-13.1 196.6-1.2 6.3-.7 13.3-.9 19.8-1.2 55.4-15.7 107.3-18.2 161.8-.3 7.1-2.5 13.1-4.1 19.9-8.9 37.3-11.7 75.6-10.8 113.9 1.2 41.3 6.9 82.5 17.3 122.5-1.8 1.9-4.4 3.9-5.3 6.4.6 5.2 6 4.7 9.9 5.8 7.6 1.1 13.1 6.8 18.8 11.3-13.2 3.2-25.6.8-38.6-1.6-10-1.9-18.6-1.9-28.6-.1-3.4-6.2-1.1-11.8-1.6-18.3-1.3-1.7-3.2-3.1-4.9-4.5-1.1-23.2 1.9-47.1 1.5-70.3-.5-54-.8-107.9-1.4-161.9-.2-8.8.5-17.9-.8-26.6-3.6-18.5-1.2-39-2-57.8-.1-2.4-.4-3.1-2.3-4.5-5.5 8.4-10.1 17.6-13.8 26.9-15.5 36.7-40 69.8-51.2 108.6-4.4 14.3-5.2 28.8-7.9 43.4-7.4 41.5-19.8 82.3-34.7 121.7-2.1 1.4-4.5 2.7-6.2 4.5-3.2 4.9-3 11.9-6.2 16.8-2 2.4-5.7 3.6-8.4 5-12.7 5.5-23.2 12.4-36.7 16.1-6.3 1.7-12.6 2-19.1 1.9 1.7-3.6 3.8-6.6 6.5-9.6 5.9-6.7 9.7-14.3 15.1-21.3 3.9-5.5 8.9-8.3 9.4-15.6-2.9-1.8-7.4-2.5-7.7-6.6 0-7.1 3.5-14.3 6.6-20.6 30.2-57.4 50.9-119.6 59.4-184 1-7.4 4.6-14.8 7.2-21.9 19.3-50.6 39.3-101 57.9-151.9 3.9-10.7 7-21.1 6.4-32.6-.2-6.9-2.3-13.2-4.7-19.5-8.2-22.5-13.1-47.6-23.2-69.3-8.5-14.1-24.4-22.4-40.5-24.3-26.3-3.1-51.8 4.7-77.9 6.4-6.9.4-13.1 2.7-19.8 4.1-18.1 3.9-36.4 5-54.8 4.2-4.6-6.9-9.1-14.4-14.7-20.4-2.9-2.8-5.3-5.4-9.7-5.2-15.7.1-29.8 6-45.7 3.9 6.2-3.1 12.3-6.1 18.3-9.6 6.7-3.8 14.5-7.6 22.4-6.3 5.4.9 9.7 5.2 14.8 6.4 5.1.6 8.9-5.3 12.5-8.2 3.9-4.5 10.5-1.3 15.6-1.1 49.3 5.5 94.8-12.3 145.4-10.4 11.4-.9 21.7-11.1 32.9-13.6 13.6-.9 29.2 1.4 42.8-1.4 3.3-.5 5.5-4.6 6.9-7.3 3.2-7.5 3.2-16.9 1-24.7-2.7-6.8-8.5-12.4-12.3-18.7 2.3-17-2.2-33.6 1-50.1 2.1-10.6 9.8-19.2 20.4-21.7 11.7-2.7 26.2.6 32.9 11.4-6.4-.7-10.9-4.8-16.7-6.7-4.7-.6-9.4 4.1-11.2 8.1-3.2 7.6.1 17.9-1.1 26-1.7 6.7-10 12.2-8.6 19.8 0 5.7 7.9 6.3 11.9 8.3-.5 5.7-1.9 12.5-.2 18.1 1 3.3 3.9 6.8 7.6 6.8 4.3.2 8.5-3.4 11.9-5.6.2 7.9-1 17.3 1.8 24.8 1.7 4.7 7.2 10.4 12.7 9.2 4.1-2 5.5-7.4 7-11.4 5.8-18.2 14.7-33.2 17.1-52.5 1.2-8.6-.7-16.9.1-25.5 4-42 12.8-83 16.2-125.1 2.1-1.3 4.3-2.6 6.2-4.1.2-2.3-.2-4.9-.5-7.2-2.4-14.6-3.2-28.6-8.5-42.6 1.8 1.8 3.6 3.8 5.7 5.3 4.3 1.2 5.3-5 5.6-8-.1-14-3.5-26.4-6-39.9 16.8 26.1 17.9 58.4 19.1 88.9z"/></mask><mask id="b"><path d="m1802 894v86h-933v-86z" fill="#fff"/><path d="m937.8 916.5c2.6 1.3 5.4 2.5 7.9 4.2 1.1 6.2.6 12.7.6 19s.5 12.9-.5 19.2c-1.9 2.2-5.4 3-7.9 4.4 10 .2 20 .5 30.1.1 19.6-.7 29.7-10.9 29.7-24 0-12.8-10.2-21.9-28-22.8-10.6-.6-21.3-.1-31.9-.1zm29.1 2.5c14.6.6 15.6 17.5 15.7 20.6.2 8.6-2.1 20.2-14.8 21.3-2.3.2-4.7-.1-6.8-.9-1.1-6.6-.5-13.6-.5-20.3 0-6.4-.5-13 .2-19.4 1.9-1 4.1-1.4 6.2-1.3z"/><path d="m1048.7 916.7c3.7 1.6 6.6 2.4 8.6 4.8.9 6.5.4 13.2.4 19.8 0 5.9.6 12.2-.6 18-2.7 1.7-5.7 2.6-8.6 3.9 12.7.5 18.5.5 32.5 0-2.9-1.3-5.9-2.2-8.6-3.9-1.2-5.8-.6-12.1-.6-18 0-6.6-.5-13.3.4-19.8 2-2.4 4.9-3.2 8.6-4.8-9.7-.4-21-.5-32.1 0z"/><path id="c" d="m1158.2 916.4c-8.8 0-17.2.1-26 .1-.2 5.1-.2 10.3.1 15.4 2.2-3.2 4.2-6.5 6.6-9.6 3-2.7 8.4-2.8 12.2-3.6 0 10.9.1 21.7.1 32.6 0 2.6.1 5.9-1.1 8.3-2.6 1.6-5.6 2.5-8.4 3.6 5.6.3 10.8.4 16.5.4s11-.1 16.6-.4c-2.8-1.1-5.8-2-8.4-3.6-1.2-2.4-1.1-5.7-1.1-8.3 0-10.9.1-21.7.1-32.6 3.8.8 9.2.9 12.2 3.6 2.4 3.1 4.4 6.4 6.6 9.6.3-5.1.3-10.3.1-15.4-8.8 0-17.3-.1-26.1-.1z"/><use transform="translate(105.4)" xlink:href="#c"/><path d="m1340.5 916.6c7.5-.2 15-.2 22.5-.3 6.1 10.7 11.6 21.9 17.6 32.7 5.8-10.8 11.5-21.7 17.2-32.5 7.8-.1 15.7-.2 23.5.3-2.7 1-5.5 2-8.2 3-1.9 10.1-1.2 35.2-.2 39.3.2.5 5.5 2.8 8.2 4.1-10.4.4-20.9.6-31.3 0 2.7-1.1 5.6-2.1 8.1-3.7 1.1-.7.8-25.1.7-37.7-7.6 14.3-14.6 29-22.7 43-8.8-13.2-15-28.1-23.1-41.7.1 11 0 22.2.2 33.2.1 4.5 6.4 5.4 9.7 6.9-7.6.5-15.1.4-22.7 0 2.9-1.2 8.3-3.3 8.5-4.4.9-4.9.7-33.3.1-37.9-2.5-1.7-6.2-3.4-8.1-4.3z"/><path d="m1498.4 914.7c-7.3 13.4-13.9 27.2-20.9 40.7-2 3.8-5.1 5.5-8.4 8 6.7 0 13.4.3 20.1-.3-3-1.1-6.1-2.2-9-3.5 1.3-3.2 2.6-6.4 4-9.6 6.7-.1 13.4-.1 20.1 0 1.3 3.4 2.6 6.7 3.9 10.1-2.9 1-5.8 2-8.6 3 10.1.9 20.4.3 30.6.3-4.6-2.6-7.3-4.8-9.7-9.6-5.5-10.9-11.4-21.6-17-32.5-1.3-2.6-3-4.6-5.1-6.6zm-4.6 15.9c2.9 5.5 5.8 11 8.6 16.5-5.5 0-11 0-16.5 0 2.6-5.5 5.3-11 7.9-16.5z"/><path id="d" d="m1580.1 916.5c6.4 0 12.7 0 19.1-.1 10.2 9.8 20.1 19.8 30.2 29.6-.2-8.1.7-16.4-.5-24.4-2.2-2.3-5.7-3.4-8.5-5 6.9-.2 13.8-.2 20.8 0-2.4 1.6-5.7 2.7-7.5 4.9-.9 14.7.1 29.5-.4 44.2-2.5-1.7-5-3.2-7.1-5.3-11.2-11.1-22.4-22.2-33.9-33 .2 9.6-.6 19.3.2 28.9.3 4.6 6.4 5.2 9.2 7-7.4.4-14.7.3-22.1 0 2.6-1.5 6.3-2.4 8.3-4.6.8-2 .8-32.9.2-34.9-1.8-2.8-4.3-4.4-8-7.3z"/><use transform="translate(110.1)" xlink:href="#d"/></mask><g id="figure"><g transform="scale(.1)"><path d="m841.7 20.6c2.7 2.2 4.7 5.3 6.4 8.3 4.7 8.1 8.5 16.6 10.5 25.8 4.1 19 2.7 37.9 5.4 56.6 6.9 5.3 8.6 7.2 8.6 13.6 0 5.3-1.6 23-2.1 40.3-1 31.4-2.9 62.6-7.4 93.7-1.5 10.7-.9 20.7-1 31.7-.2 46.7 2.1 94.3-8.7 140.1-2.6 10.9-7.9 20.7-10.6 31.7-12.6 50.7-6.2 107.5-10.7 160.2-3.1 36.3-9.3 71.9-15.6 107.7-2.6 14.6-5.4 29.5-6.1 44.2-2.7 58-8.9 115.6-.5 173.6-.7 1.4-1.5 2.8-2.3 4.2 8.6 1 14.7 5.9 21.6 10.7 3.6 2.4 3.2 5.8 4.1 9.6-5.1 2.6-9.8 5.3-15.6 5.7-1.5.1-3 .2-4.4.2-14 0-26.1-5.5-40.2-3.9-6.4.7-15 1.8-19.9-3.4-3.9-4.1-2.4-8.3-2-13.3-2.3-4.3-4.6-8.2-5-13.2-.8-9.4 1.8-18.6 1.3-28.1-.4-8.8.2-17.6.5-26.4 2.3-63.3-.7-128-.8-191.6 0-8.6-1.5-16.7-2.8-25.2-8.8 14.3-16.4 29-23.1 44.4-29.2 66.9-41 139.7-73.4 205.7-2.5 5.3-7.1 8.1-10.4 12.7-2.3 5.2-2.8 10.2-6.9 14.6-8.1 8.7-21.3 11.4-31.7 16.3-9.5 4.5-20 7.9-30.6 8.6-4.9.4-8-2.2-11.8-4.7 2.5-5 5.3-9.9 9-14.2 8.3-9.6 14.7-20.3 22.1-30.8-2.4-1.5-4.8-3-7.2-4.5 3.4-24.8 17.2-41.7 26.1-64.1 19.1-48.1 35.6-97.3 41.5-149 .8-7.1 4.5-13.9 7.2-20.6 21-51.3 40.2-103.3 59.1-155.4 8.6-34.1-2.7-74-30.2-96.7-17.9-15.7-38.4-29-62.9-30.5-11-.7-20.7 2.8-31.4 3.3-25.8 1.2-49.7 7.6-76 5.8-4.6-.4-9.8-.5-14.1-2.3-7.3-5.5-10.1-16.6-17-22.7-2.2-2-5.8-2.1-8.6-2.3-12-.3-23.1 5.3-34.7 4.7-4.7-.3-8.5-2.2-12.8-4 0-1.3-.2-2.6-.2-3.9 11.8-5.1 21.6-13.5 33.4-18.4 7.6-3.1 15.8-3.5 23 .7 2.9 1.2 6.8 4.5 10 2.7 3.5-2.6 6-6.5 9.5-9.2 7.1-.2 14.3 1.8 21.4 2 47.7 3.1 91.7-12.7 140.4-11.3 13.3.6 21.6-15.4 34.6-15.7 13 0 26.1-.4 39.1-.6 1.9-4.6 3.9-8.6 3.3-13.7-1-9.5-6.6-17-10.6-25.2-2.2-4.2-1.6-8.2-1.8-12.8-.2-14.4-2.8-29.4.8-43.5 2.7-10.8 10.3-20 20.8-24 9.8-3.7 21.6-6.3 31-.1 6.2 4.1 13.6 9.1 17.1 15.9 4 9.7 1.1 21.7.2 31.8-.8 6.1.7 12.1.4 18.1-1.8 11.2-11.6 22.9-11.8 34.8-.2 6.3 3.1 10.4 6.7 15.1 7.8-17.5 18.5-35.6 20.8-54.7 1-8.7-.8-17 .1-25.6 4-38.3 11.8-76.9 14.9-115.1.4-4.6.3-9.6 1.6-14 1.7-1.8 3.7-3.5 5.7-5.1 1.2-20.3-11.8-35.1-10.4-55 .3-2.1.2-4.9 2.5-5.9 3.3.1 6.3 3.6 9 5.2 0-11.6-4.7-22.4-4.9-33.9-.7-3.8 3.1-6.3 6.2-6.3.8 0 1.6.2 2.3.6z" mask="url(#a)"/><path d="m1800.8 894.5v85.5h-931v-85.5z" mask="url(#b)"/><path d="m348.3 894.5h190v85.5h-190z"/><path d="m20 606.5v215.7h71.5c53.9 0 98.8-46 98.8-107.8.1-63.7-46.9-107.9-98.8-107.9zm50.5 47.6h15c29.6 0 52 25.3 52.1 57.5.1 36.7-19.9 63.1-52.1 63.1h-15z"/><path d="m226.5 606.4h50.5v215.8h-50.5z"/><path d="m441.7 606.4v47.7h-41.6v168.1h-50.6v-168.1h-41.5v-47.7z"/><path d="m591.7 606.4v47.7h-41.8v168.1h-50.5v-168.1h-41.4v-47.7z"/><path d="m953.8 606.3 39.3 114.7 41.6-114.7h50.3l29.4 215.9h-50.6l-14.3-124.6-46.8 124.5h-20.3l-44.7-124.5-16.4 124.6h-50.3l32.9-215.9z"/><path d="m1205.6 606.3-74.7 215.9h53.7l13.4-37.6h69.2l12.8 37.6h53.9l-72.8-215.9zm27.2 66.7 20.8 68.7h-41.7z"/><path d="m1413.2 606.3 92.4 132.3v-132.3h50.7v215.9h-50.8l-92.6-132.6v132.6h-50.6v-215.9z"/><path d="m1652.7 606.3 92.4 132.3v-132.3h50.7v215.9h-50.8l-92.6-132.6v132.6h-50.6v-215.9z"/><path d="m1889.9 598.6c-27.7 0-50.1 22.4-50.1 50.1s22.4 50.1 50.1 50.1 50.1-22.4 50.1-50.1-22.4-50.1-50.1-50.1zm0 12c21 0 38.1 17.1 38.1 38.1s-17.1 38.1-38.1 38.1-38.1-17.1-38.1-38.1 17.1-38.1 38.1-38.1zm-20 11.4v52.4h11.6v-22c2.7 0 5.5-.1 8.2 0 3.7 7.4 7.6 14.8 11.6 22h12.6c-4.1-7.2-8.2-14.5-12.4-21.6 9-2.1 14-4.4 14-15.4 0-14.4-12.7-15.4-24.6-15.4zm11.6 9.5h9.7c10.9 0 13.2.9 13.2 6.5 0 3.8-3 6.3-7.5 6.3h-15.4z"/></g></g></svg>