<svg viewBox="0 0 493 100" xmlns="http://www.w3.org/2000/svg"><g id="figure"><path d="m482.7 50.7c-2 1.5-4.8 2.2-7.9 2.2-2.9 0-5.1-1.3-6.6-4-1.1-2-1.5-4.2-1.5-6.7 0-1.6.7-3.7 2.1-6.2s2.1-4.2 2.1-5.3c1.4-1.1 3.6-4.8 6.6-11 2.9-6 4.3-9.7 4.3-11.1 0-3-.9-4.6-2.7-4.6-1.2 0-2.7.9-4.6 2.4s-2.9 2.7-2.9 3.6c-1.1 1-2.3 2.6-3.6 4.8s-2.4 3.7-3.3 4.7c0 .9-.9 2.9-2.7 6.1-.5 1-.9 1.9-1.3 2.9-.8 1.5-1.5 2.2-2 2.2-1.5 0-5.4 2.1-12 6.2-5.7 3.7-9.6 6.4-11.5 8.1-1.5 1.5-2.9 2.6-4.3 3.4-2.3 1-3.9 1.8-4.9 2.5l-.1.1v-.2c-1.7.6-3.2 1.5-4.6 2.8-3.1.7-4.6 1-4.5 1-1.4 0-2.5-.6-3.1-1.7-.9-1.5-1.3-2.2-1.4-2.3 0-3.2-.4-5.5-1.2-6.8-1.2-2.2-3.8-3.2-7.6-3.2-1.1.5-1.8 1.2-2.4 2.1-2 .6-4.3 2.4-6.7 5.2-.8.2-1.7.8-2.7 1.6-.9.8-1.5 1.4-2 1.7v-.3c-.6.2-3.1 1.2-7.2 3-3 1.2-5.5 1.8-7.6 1.8-3.3 0-5.9-1-7.8-3-1.6-1.8-2.4-4-2.4-6.4 0-.1.4-.5 1.3-1.2s1.4-1.1 1.6-1.3c3.2-3.6 6.3-7.3 9.5-10.9 4.1-5.1 6.4-8.9 6.9-11.4.5-.4.9-1.2 1.3-2.2s.7-1.7 1.1-2.1c0-1.1.4-2.8 1.2-5s1.1-3.8 1.1-5c0-3.5-1.9-5.2-5.6-5.2l-2.6.7c-6.8 5.7-12.4 12.1-16.8 19.1-4.9 7.8-7.4 15.1-7.4 21.8-.3.2-.5 1.1-.5 2.5-3.6 2.6-5.8 4.3-6.7 4.9-.3.2-.6.4-.9.6-.6.4-1.7 1.1-2.8 1.9-.4.6-2.1 2-5.1 4.1-2.6 1.8-3.9 3.1-3.9 3.8 0 .5.4.8 1.3.8.3 0 2.2-.8 5.5-2.4 1.3-.7 2.2-1.2 2.9-1.5 1.2-.6 2.4-1.2 3.6-1.8.7-.4 1.2-.8 1.5-1.4 1.3-.8 3-1.7 5.2-2.6 1.5 6.7 6.4 10 14.7 10 3.8 0 9.8-1.8 18.1-5.5.3-.1.8-.4 1.5-.9s1.3-.9 1.9-1c.4-.5 1.3-1.3 2.8-2.3s2.6-1.5 3.3-1.5c.9 0 1.7.5 2.4 1.6 1 1.4 1.7 2.3 2.1 2.5.6 1.7 1.4 2.9 2.4 3.7 1.3.9 2.6 1.8 3.9 2.6 2 .2 3.3.2 3.9.2 1.3 0 3.7-.8 7.2-2.4 2.3-1.1 3.8-1.8 4.6-2.7s1.8-1.4 2.9-1.4l.7.3c-1.6 2.1-2.4 4.2-2.4 6.5s1.9 3.4 5.8 3.4c3.1 0 7.6-2.4 13.4-7.1 3.8-3.3 7.6-6.5 11.3-9.7.5 0 .9.5 1.2 1.6.3 1.2.7 2 1.1 2.3.2 1.6 1.4 3.2 3.7 4.7s4.6 2.2 6.9 2.2c2.4 0 4.9-.4 7.6-1.1 3.2-.9 5.3-1.9 6.2-3.1-.2-.7-.3-1.7-.3-3.1l.2-1.3zm-114.5-20.1c.5-.1 1.2-.9 2.1-2.5s1.4-2.6 1.4-3.1c0-.8.6-1.8 1.7-3s1.6-2 1.8-2.6c1.8-1.2 3.3-2.1 4.4-2.9 0 .4-.2 1-.5 1.9s-.5 1.7-.5 2.2c-.8.9-1.7 2.3-2.6 4.5s-1.9 3.8-2.8 4.8c-1.1 1.5-2.3 2.9-3.4 4.4-1.9 2.3-3.4 3.5-4.2 3.5 0-.9.5-2 1.3-3.6.9-1.6 1.3-2.8 1.3-3.6zm89 9.8c0 1.1-2.8 4-8.3 8.8s-8.9 7.2-10.2 7.2c0-1.2 1.7-3.8 5.2-7.8s5.9-6.1 7.3-6.4c.1-.5.9-1.3 2.6-2.6s2.8-1.9 3.4-2z"/><path d="m101.5 42.4c0-.3-.3-.8-.7-1.5s-.7-1-.8-1.2c-1.1-.6-2.1-1.3-3.2-2-.9-.5-2.6-.7-5.1-.7-.7 0-1.8.2-3.1.6s-2.3.6-2.9.7c0-.9.5-1.6 1.5-2.3-.7-.7-2.4-1-4.9-1-.7 0-4.9 2.5-12.3 7.7-6.6 4.6-10.7 7.4-12.4 8.5-1.2-2.1-3.8-3.9-7.9-5.5-2.4-1-7.7-2.6-16-4.7-5.7-1.4-8.5-2.7-8.5-3.8 1.9-1.2 6.6-3.5 14.1-6.7s12.5-5.8 15.7-7.8c5.2-3.2 8.2-6.3 8.2-9.3 0-2.7-.1-3.9-.2-3.4-4.4-4.3-11.6-6.4-22-6.4-3.5 0-8.2.4-14.1 1.1-6.6.8-11.1 1.3-13.7 1.4-2.5 1-4.4 1.7-5.7 2l-.6 1.6c-1.7.6-2.6 1.7-2.5 3.3l.9.7c1.5 0 4-.3 7.2-.8s5.7-.8 7.4-.8l1.3.5c-2.1 1.8-3.2 2.9-3.3 3.1-1.9.9-3.4 3.8-4.5 8.9-.5 3.5-.9 6.9-1.4 10.3-1.9.5-4.1 1.3-6.5 2.4l-.3 1.5c0 .5.2 1.2.8 2 2.6.6 4.1 1.3 4.7 2.1.5.6.7 2.1.7 4.3 0 1.7-.2 4.3-.6 7.7s-.7 5.9-.7 7.7c-2.9.2-5.6 1.7-8.1 4.2v.2c0 .5.4.9 1.2 1.2l2.7.9c1.6-.6 3.1-.7 4.4-.4l.6 1.8 1.6.9c1.8-.1 3.2-.5 4.3-1.2 0-.9.3-1.7.8-2.5 13.8-2.3 21.7-3.6 23.8-4.1 8.1-1.9 13.3-4.1 15.6-6.6.7-.2 1.8-.9 3.4-2 1.7-1.2 3.2-2 4.4-2.1 0 .6-.2 1.7-.6 3.1s-.5 2.3-.5 3c0 2.4 1.4 3.9 4.2 4.5.6.6 1.6 1 3.1 1.2.3.1 1.5.2 3.5.4 2.7-.6 5.3-1.1 8-1.7 3.1-.8 5.3-2.1 6.6-3.9 3-1.9 5.1-3.4 6.4-4.5.3-.6 1.6-2.4 3.9-5.3 1.4-1.8 2.1-4.2 2.1-7.4zm-74.2-20.7c-.1-.2-.2-.6-.3-1s-.2-.6-.2-.8c0 .1.4-1.5 1.3-4.4.2-1 .5-1.9.9-2.7s1.4-1.3 3.1-1.3c4 0 7.7.4 10.9 1 4.8.9 7.2 2.3 7.2 4.2 0 .7-.8 1.6-2.2 2.8-1.9 1.6-2.8 2.6-3 2.8-3.3 1.5-6.6 2.9-9.9 4.4-5.9 2.6-9 3.9-9.4 3.9-.7 0-1.1-.3-1.1-.9 0-1 .2-2.4.7-4.3.6-2.2 1.3-3.4 2-3.7zm13.4 33.9c-1.5.2-3.3.7-5.8 1.6s-4.4 1.6-5.7 1.8c-3.6 1-6.8 1.7-9.7 2.1-.7-.1-1-.2-1-.5 0-.9.2-2.2.6-3.8.5-2 .8-3.2.9-3.8.8-5.6 1.7-8.5 2.8-8.5.4 0 1.5.2 3.2.8 2 .6 3.3 1 3.8 1.1 10.6 1.9 15.9 4 15.9 6.2 0 .3-.6.9-2 1.7s-2.4 1.2-3 1.3zm47.5-1.1c-.6.7-2.1 1.8-4.7 3.1s-4.4 1.9-5.6 1.9c-2.2 0-3.3-.8-3.3-2.5 0-.8.4-2.3 1.3-4.3 1-2.3 1.9-3.4 2.7-3.4 1.2 0 2.5-.8 4.1-2.4s3.5-2.3 5.8-2.3c2.6 0 3.9 1.1 3.9 3.4 0 .9-.5 2.1-1.4 3.6s-1.9 2.5-2.9 2.8z"/><path d="m218.9 55.2c0-2.7-.3-4.2-1-4.5-.6 0-2.7 1.1-6.1 3.3-3.1 2-5 3.4-5.8 4.1l-.7-.3c0-1.2 1.4-4.2 4.1-8.8s4.1-7.7 4.1-9.4c0-1-1.1-1.5-3.4-1.5-2.2 0-4.1.6-5.7 2-1.9 1.5-3.1 2.3-3.6 2.4-5.4 3.8-9.5 6.8-12.3 8.7-.4.3-1.5.9-3.3 1.7s-2.7 1.4-2.9 1.7l-1.3.2-.6-.6c0-1.1 1.4-5 4.1-11.6.2-.6-.2-1.2-1.2-1.7s-2-.8-2.9-.8c-1.1 0-3.2 1.2-6.4 3.5-1.9 1.5-3.9 3-5.8 4.5-1.2.7-2.4 1.4-3.5 2.1-.9.5-1.5 1-2 1.4-1.8.9-3.9 1.3-6.3 1.3-2.9 0-5.1-1.3-6.6-4-1.1-2-1.6-4.2-1.6-6.7 0-1.6.7-3.7 2.1-6.2s2.1-4.2 2.1-5.3c1.4-1.1 3.6-4.8 6.6-11 2.9-6 4.3-9.7 4.3-11.1 0-3-.8-4.6-2.6-4.6-1.2 0-2.8.9-4.7 2.4s-2.9 2.7-2.9 3.6c-1.1 1-2.2 2.6-3.5 4.8s-2.5 3.6-3.4 4.6c0 .9-.8 3-2.6 6.2-.5 1-1 1.9-1.4 2.9-.8 1.5-1.4 2.2-1.9 2.2-1.5 0-5.5 2.1-12.1 6.2-5.7 3.7-9.6 6.4-11.5 8.1-1.5 1.5-2.8 2.6-4.2 3.4-2.1 1-3.7 1.7-4.8 2.4-.1 0-.1-.1-.1-.1-1.5 1-2.9 1.9-4.3 2.9-.4.6-2.1 2-5.1 4.1-2.6 1.8-3.9 3.1-3.9 3.8 0 .5.5.8 1.4.8.3 0 2.1-.8 5.4-2.4 1.3-.7 2.2-1.2 2.9-1.5 1.2-.6 2.4-1.2 3.6-1.8.6-.3 1-.6 1.3-1 .2 0 .4-.1.6-.1l.8.2c-1.6 2.1-2.5 4.3-2.5 6.6s2 3.4 5.9 3.4c3.1 0 7.5-2.4 13.3-7.1 3.8-3.3 7.6-6.5 11.3-9.7.5 0 .9.5 1.2 1.6.3 1.2.7 2 1.1 2.3.2 1.6 1.4 3.1 3.7 4.6s4.6 2.3 6.9 2.3c2.4 0 5-.4 7.7-1.1 2.9-.8 4.9-1.7 5.9-2.8l4.5-2.5c.2.2.4.9.7 2.2s.5 2.2.5 2.5 0 .8-.1 1.4-.2 1.1-.2 1.4c0 1.5 1.4 2.2 4.1 2.2 3.8 0 6.7-1.3 8.9-3.9 1.3-.1 2.6-.7 4-1.6 1.1-.7 2.1-1.5 3.2-2.3.1-.6 1-1.3 2.8-2.3 1.2-.6 2.5-1.3 3.8-2l.4.3c0 .9-.2 2.2-.8 3.9s-.9 3-.9 3.8c-1.4 1.2-3.1 4.1-5.2 8.6-4.2 2.4-7.3 4.9-9.2 7.6-.7.2-2 1.1-3.8 2.9-.6.7-1.6 2-3.1 3.6-.6.1-1.2.6-1.8 1.5s-1.3 1.4-2 1.5c-.2.5-1 1.4-2.3 2.6-1.1 1-1.6 1.9-1.6 2.8 0 1.1 1.1 1.6 3.3 1.6 4.8 0 8.4-1.7 10.9-5.2.7-.1 1.6-.8 2.6-1.8s1.8-1.6 2.3-1.8c.7-1.3 2.2-3.1 4.6-5.5 3.2-3.2 4.9-5 5.3-5.5 1.5-1.8 5.9-5 12.9-9.5m-69.8-21.9c0 1.1-2.8 4-8.3 8.8s-9 7.2-10.3 7.2c0-1.2 1.7-3.8 5.2-7.8s5.9-6.2 7.3-6.5c.1-.5.9-1.2 2.6-2.5s2.9-1.9 3.5-2z"/><path d="m254.3 45.3c0-2.1-.8-3.2-2.3-3.2h-13.5c-.4 0-1 .1-1.8.2s-1.4.1-1.9.1-1.3 0-2.4-.1-2.2-.2-2.8-.2c-.7 0-1 .6-1.7 1.6s-1.5 1.5-2.2 1.6c0 .2-.3.6-.7 1.1s-.7.8-.7 1c0 .9 1.1 1.4 3.4 1.4 1.2 0 2.9 0 5 .1s3.6.1 4.6.1c4.4 0 7.2-.2 8.4-.8 1 .4 2 .5 3.1.5 3.6 0 5.5-1.1 5.5-3.4z"/><path d="m337.5 55.1c.3-.6 1.6-2.4 3.9-5.3 1.4-1.8 2.1-4.2 2.1-7.4 0-.3-.3-.8-.7-1.5-.5-.6-.7-1-.8-1.2-1.1-.6-2.3-1.3-3.3-2-.9-.5-2.6-.7-5.1-.7-.7 0-1.7.2-3 .6s-2.2.6-2.9.7c0-.9.4-1.6 1.4-2.3-.7-.7-2.3-1-4.8-1-.7 0-4.9 2.5-12.3 7.7-4.7 3.2-8.1 5.6-10.3 7.1-.6-2.9-2.7-5.8-6-8.9-3.6-2.9-7.2-5.9-10.8-8.8-3.9-3.2-5.8-6-5.8-8.4 0-3.8 4-7.5 11.9-11.1l.3.3c0 .5-.8 1.2-2.5 2.1s-2.5 1.9-2.5 2.7c.7.7 1.7 1.1 2.8 1.2 4-1.6 7.9-3.4 11.9-5 4.7-2.3 7.1-4.7 7.1-7.3 0-2.7-1.3-4.1-3.7-4.1-6.2 0-13.9 2.7-23.3 8-9.8 5.5-14.7 10.3-14.7 14.5 0 4.5 1.7 7.9 4.9 9.9.1.7 3.5 3.4 10.1 8s9.9 8 9.9 10.2c0 .6-.6 1.2-1.7 1.7s-1.7 1.4-1.7 2.5c-2.9 2.5-5 3.7-6.1 3.8l-.8-.4c3-1 4.5-1.9 4.6-2.9l-1.6-1.2c-1.9.1-5.9 1.3-11.9 3.8-6.2 2.6-9.3 4.5-9.3 5.6 0 1 .8 1.9 2.4 2.7s3.1 1.2 4.5 1.2c3.8 0 8.9-1.5 15.2-4.6 5.5-2.6 9.8-5.1 12.8-7.7.2-.1.5-.4 1-.5.5-.2 1.2-.5 2.2-1.1.1-.1.3-.1.4-.1 1.9-.8 2.8-1.4 2.8-1.7v-.2c1-.5 1.9-.8 2.7-.9 0 .6-.2 1.6-.6 3s-.6 2.3-.6 3c0 2.4 1.5 3.9 4.3 4.6.6.6 1.5 1 3 1.2.3.1 1.6.2 3.6.4 2.7-.6 5.3-1.1 8-1.7 3.1-.8 5.3-2.1 6.6-3.9 3-1.9 5.1-3.4 6.4-4.5zm-19.6-2.3c1-2.3 1.9-3.4 2.7-3.4 1.2 0 2.6-.8 4.2-2.4s3.5-2.3 5.8-2.3c2.6 0 3.9 1.1 3.9 3.4 0 .9-.5 2.1-1.4 3.6s-1.9 2.5-2.9 2.8c-.6.7-2.1 1.8-4.7 3.1s-4.5 1.9-5.6 1.9c-2.2 0-3.3-.8-3.3-2.5 0-.8.4-2.2 1.3-4.2z"/><path d="m413.8 26.1c.9-.5 1.9-1.6 3-3.5 1.2-2.2 1.8-4.1 1.8-5.7-.3-.2-.6-.5-.9-.7s-.8-.4-1.4-.4c-1.3 0-2.6.3-3.9.8-1.6.6-2.6 1.2-2.8 1.9-1.9.5-3.4 1.3-4.7 2.5s-1.9 2.5-1.9 3.8c0 .1.4.9 1.1 2.6.2.6 2.1.9 5.3.9 1.5-.7 2.9-1.5 4.4-2.2z"/><path d="m228 86.1v-.1c4-.5 6.8-2.5 6.8-4.8 0-5.2-9.9-5.2-12.6-5.2h-16.6v21.6h16.6c5.7 0 14-1 14-6.2 0-2.7-3-4.9-8.2-5.3zm-18.7-8.4h12.9c5.9 0 8.9 1.4 8.9 4.1 0 3.5-7.5 3.6-8.9 3.6h-12.9zm12.9 18.1h-12.9v-8.6h12.9c4.6 0 10.3.6 10.3 4.1 0 3.8-5.6 4.5-10.3 4.5z"/><path d="m261.1 90.2c0 2.9-2.2 6.2-8.5 6.2-3.2.1-7.5-.4-7.5-4.3v-10.2h-3.5v10.2c0 3.6 2.6 5.9 9.9 5.9 1.9 0 7.2-.2 9.8-3.2h.1v2.8h3.2v-15.7h-3.5z"/><path d="m271.2 76v3h3.4v-3zm0 5.9v15.7h3.4v-15.7z"/><path d="m281.3 97.6h3.5v-21.6h-3.5z"/><path d="m297 77.2h-3.5v4.7h-4.9v1.7h4.9v10.6c0 2.4 1.1 3.5 6.2 3.5 1.4 0 1.8-.1 3.1-.1v-1.6c-1 0-2 .1-3 .1-1.8 0-2.8-.3-2.8-2v-10.5h5.8v-1.7h-5.8z"/><path d="m324.9 80.5v1.4h-4.8v1.7h4.8v14h3.5v-14h5.6v-1.7h-5.6v-1.3c0-1.7 0-3.1 3.8-3.1.8 0 1.7 0 2.5.1v-1.6c-1.7-.1-2.1-.1-2.9-.1-5.4 0-6.9 1.7-6.9 4.6z"/><path d="m349.2 81.5c-8.6 0-13.3 3.7-13.3 8.2 0 4.4 4.5 8.3 13.3 8.3 8.7 0 13.4-3.8 13.4-8.3 0-4.6-4.9-8.2-13.4-8.2zm0 14.9c-6.8 0-9.9-3.6-9.9-6.7 0-3.2 3.1-6.6 9.9-6.6 6.7 0 10 3.4 10 6.6 0 3.1-3.2 6.7-10 6.7z"/><path d="m371 85.6v-3.7h-3.2v15.7h3.5v-8.4c0-3.7 4.8-4.9 6.2-5.2 1.3-.3 2.7-.4 4.3-.4v-1.9c-2.5 0-4.7.3-6.6 1-1.8.7-3.2 1.6-4.1 2.9"/><path d="m404.8 76h-3.7v21.6h25.7v-1.8h-22z"/><path d="m430 76v3h3.4v-3zm0 5.9v15.7h3.4v-15.7z"/><path d="m442 80.5v1.4h-4.8v1.7h4.8v14h3.5v-14h5.6v-1.7h-5.6v-1.3c0-1.7 0-3.1 3.8-3.1.8 0 1.7 0 2.5.1v-1.6c-1.7-.1-2.1-.1-2.9-.1-5.4 0-6.9 1.7-6.9 4.6z"/><path d="m465.7 81.5c-9.5 0-12.8 4.5-12.8 8.3 0 7.6 9.7 8.3 12.8 8.3s10.2-.2 12.4-5.6h-3.5c-1.4 3.2-5.3 4-8.9 4-6.3 0-9.3-3.1-9.3-6.1h21.8c0-7.9-8.9-8.8-12.5-8.8zm-9.3 7.2c.5-2.6 3.3-5.6 9.3-5.6 5.5 0 8.8 2.7 9 5.6z"/><path d="m485.9 22.9c-2.8 0-5.1 2.3-5.1 5.1s2.3 5.1 5.1 5.1 5.1-2.3 5.1-5.1-2.3-5.1-5.1-5.1zm0 .8c2.4 0 4.3 1.9 4.3 4.3s-1.9 4.3-4.3 4.3-4.3-1.9-4.3-4.3 1.9-4.3 4.3-4.3zm-.3 1.4c-.7 0-1.1 0-1.6.1v5.7h.9v-2.4h.6c.7 0 1.1.3 1.3 1 .1.7.2 1.2.3 1.4h1c-.1-.2-.3-.4-.4-1.3-.1-.8-.4-1.3-.9-1.4.6-.2 1.1-.7 1.1-1.4 0-.5-.1-1.7-2.3-1.7zm0 .7c1 0 1.3.5 1.3 1 0 .7-.6 1-1.3 1h-.7v-1.9c.2 0 .4-.1.7-.1z"/></g></svg>