<svg viewBox="0 0 372 100" xmlns:xlink="http://www.w3.org/1999/xlink" xmlns="http://www.w3.org/2000/svg"><clipPath id="a"><path d="m20 20v221.5h75.6 598.6c-5.7-38.8-17.4-76.1-34.8-111.2-28.8-58-54.7-76.1-111.4-107.9v-2.4zm707.3 0v57.3c21.5 54.6 45.6 105.4 55.2 164.2h121.8 75.7v-221.5zm-707.3 311.5v189.1h1.5c1.8-1.6 3.6-3.1 5.4-4.7 19.9-40.6 47.7-74.4 87.9-96.7 34.1-18.9 71.6-30.5 110.2-31.9 40.2-1.4 80.9 7 117.1 24.9-7.2 23-14.9 45.9-24.3 68.1-32.4-13.3-58.3-18.8-93.6-18.1 16.7 39.3 113.3 196.6 122.7 209.4 33.4-27.7 48.5-53.5 49.1-99.1v-241h-344.1zm467.5 0v647.6.9h131.5v-15c-28.9-31.4-56.2-61.5-75.7-100-22.4-44.4-32.3-95.1-18.9-144 8.3-30.4 26.4-52.8 44.3-77.9-21.4-28.9-42-57.2-48.6-93.5-8-44.1 10.8-91.9 48.3-116.7 23.5-15.5 50.6-26.4 78.9-26.5l155.5-.8.1-74.1zm405.4 0v151h-165.8c-43.3.3-117.3-8.4-117.3 57.3 0 59.4 44.7 52.9 89.1 43 49-10.9 102.9 1.1 149 20 42 17.2 68.9 53.3 91.3 91h40.8v-362.3h-30.6zm-734.1 151.6c-28.8 16.4-55.9 40.2-56.7 75.3-.9 42.6 31.2 137 181.3 137.3-10.6-21.9-82.7-146.4-124.6-212.6zm601.1 177.8c-118.7.5-152.6 61.3-151.3 108.1 1.9 68.9 47.7 124.6 92.9 157.2 2.3 2 7.5 3 11.5 3.8h101.1v-67l-29.5-39.5c24.2-13.3 50.5-26 61.9-52.9 3.8-8.9 6.1-19.5 6.1-30.1.2-72.4-83.1-79.6-92.7-79.6zm-739.9 18.1v301h376v-244.9c-52.5 28.4-95.5 41.3-154.9 37.8-97.8-3.6-164-67-185.3-93.9z"/></clipPath><g id="figure"><g transform="scale(.1)"><path clip-path="url(#a)" d="m500 20a480 480 0 00-480 480 480 480 0 00480 480 480 480 0 00480-480 480 480 0 00-480-480z"/><path d="m1219.8 755.6h234.2c133.3 0 177.9-68.1 177.9-136.2 0-62.9-31.5-95.3-90.1-118 38.9-24.5 62.7-58.2 62.7-104.2-.1-101.7-98.5-124.7-154.6-124.7h-230.1zm210.2-389.9c37.9.1 69.6 8.3 69.6 44.9 0 44.5-37.1 52.9-69.6 52.9h-105.5v-98zm19.3 188.1c34.3 0 77.4 10.4 77.4 52.9 0 41.5-34.5 55-77.4 55h-124.8v-107.9z"/><path d="m2165 269.3 208.2 486.2h-111.6l-146.7-362.8-146.2 362.8h-109.4l207.5-486.2z"/><path d="m2734.6 272.4v189.2h196.5v-189.2h107.5v483.1h-107.5v-196.7h-196.5v196.7h-106.5v-483.1z"/><path d="m3700 272.5v93.7h-259.5v95.8h228.5v95.4h-228.5v103.1h259.5v95h-364.2v-483z"/></g></g></svg>