<svg viewBox="0 0 1094 100" xmlns="http://www.w3.org/2000/svg"><g id="figure" fill="#fff"><path d="m2 2h26.6l61.9 57.2 62.6-57.2h26.6v96h-26.7v-67.3l-59.6 55.1h-6.1l-58.7-55.1v67.3h-26.6z"/><path d="m313.9 20.4 56.5 77.6h34.7l-75.6-96h-30.7l-73.5 96h30.7z"/><path d="m507 98h-30.8v-77.6h-62.2v-18.4h155.2v18.4h-62.2z"/><path d="m723.1 61.3h30.6s16.4.6 16.4-18.4v-22.5s1.5-18.4-16.4-18.4h-128.6v96h30.6v-79.7h79.2c4.7 0 4.5 4.2 4.5 4.2v18.6s.2 3.8-4.5 3.8h-50.6v16.4l55.1 36.7h45z"/><path d="m878.8 98h-30.6v-96h30.6z"/><path d="m996.4 49.4-59.6-47.4h40.4l38.3 32.6 39.7-32.6h36.8l-57.7 47.7 57.7 48.3h-38.9l-38.4-33.4-41.1 33.4h-39z"/><path d="m314 58.6c-7.3 0-13.2 5.9-13.2 13.1 0 7.3 5.9 13.1 13.2 13.1s13.1-5.8 13.1-13.1c0-7.2-5.8-13.1-13.1-13.1z"/></g></svg>