<svg viewBox="0 0 275 100" xmlns="http://www.w3.org/2000/svg"><g fill="#fff"><path d="m55.82 2h-37.8c-3.6 0-16.05 2.76-16.02 18.32l.1 59.48c.02 13.95 10.86 18.2 16.67 18.2 5.3 0 16.63-3.48 16.63-18.2v-9.4h21c16.78 0 33.17-14.2 33.2-34.1.02-14.29-10.8-34.3-33.78-34.3zm4.68 4.5c14.21 2.48 24.9 14.58 25 29.6.12 16.75-13.27 30.3-29.13 30.3h-31.77c-7.75 0-13.98.66-18.6 6.6v-20.55c0-8.54 10.19-9.45 14.2-9.45h31.42c17.97 0 18.91-14.13 18.8-18.3-.35-8.26-3.83-13.28-9.92-18.2zm-6.4 27.1c2.36 0 4 .73 4 2.7 0 2.14-1.61 2.7-4 2.7h-16.8v-5.4z"/><path d="m105.92 2v96h-1.7v-96z"/><path d="m129.63 11.06c-1.2.01-2.44.08-3.63.1v18.87h3.34l-.02-7.05c2.17.03 4.24.09 6.11-1.2 2.55-1.76 2.94-5.73 1.23-8.18-1.64-2.28-4.45-2.56-7.03-2.54zm3.8 3.59c1 1.12.94 3.59-.07 4.69-1.03 1.12-2.68.79-4.04.85v-6.32c1.38-.06 3.03-.26 4.11.78z"/><path d="m141.09 11.23h3.33v18.8h-3.33z"/><path d="m155.15 11.32c2.81-.61 5.67-.16 8.31.92l-.84 3.01c-2.29-1.33-5.45-1.94-7.9-.79-2.06.97-2.72 3.06-2.89 5.19-.16 2.09.13 4.76 1.64 6.35 1.32 1.39 3.14 1.65 4.97 1.5 1.67-.13 3.1-.82 4.5-1.7l.85 2.89c-2.8 1.46-5.87 2.12-9 1.4-2.82-.65-5.11-2.81-5.95-5.57-.88-2.9-.74-6.33.72-9.03 1.15-2.13 3.23-3.66 5.59-4.17z"/><path d="m167.24 11.26h3.29l.01 8.13c2.55-2.48 4.86-5.11 6.7-8.16h3.64c-2.19 2.95-4.51 5.78-7.06 8.43l8.42 10.37h-3.87l-6.68-8.22-1.16 1.1v7.12h-3.29z"/><path d="m187.83 11.23v15.9h7.83v2.9h-11.12v-18.8z"/><path d="m198.66 11.23h10.87v2.84h-7.56v4.53h5.69v2.91h-5.69v5.62h8.16v2.9h-11.47z"/><path d="m218.03 11.04c-1.46-.01-3.01.13-4.33.18v18.81c2.99.24 6.95.85 9.7-.61 2.69-1.43 3.66-5 2.19-7.59-.64-1.13-1.69-1.67-2.81-2.23 2.55-1.92 2.35-6.42-.63-7.8-1.23-.57-2.66-.75-4.12-.76zm.62 2.74c.55 0 1.1.07 1.53.32 1.33.78 1.03 2.84.16 3.86s-2.1.76-3.3.84l.03-4.89c.48-.06 1.03-.13 1.58-.13zm.35 7.38c.86.01 1.73.1 2.43.49 1.99 1.09 1.8 4.58-.25 5.54-1.21.56-2.83.34-4.14.38v-6.31c.6-.05 1.29-.11 1.96-.1z"/><path d="m234.73 11.22-7.29 18.81h3.47l1.94-5.47h7.04l2.13 5.47h3.61l-8-18.81zm1.46 3.92 2.67 6.82h-5.1z"/><path d="m251.06 11.23v15.9h7.83v2.9h-11.15v-18.8z"/><path d="m265.2 11.23v15.9h7.8v2.9h-11.1v-18.8z"/><path d="m126.01 36.26h5.08v17.66c0 4.49 1.99 7.46 6.67 7.46 5.31 0 7.23-2.98 7.23-7.46v-17.66h4.86v18.76c0 8.95-7.66 10.66-12.09 10.66-3.62 0-11.75-1.09-11.75-10.66z"/><path d="m157.12 36.26h6.23l12.67 21.16v-21.16h5.01v28.92h-6.18l-12.63-21.1v21.1h-5.1z"/><path d="m193.79 36.26v28.91h-5.11v-28.91z"/><path d="m198.49 36.26h21.79v4.42h-8.35v24.5h-5.05v-24.5h-8.39z"/><path d="m241.74 36.26v4.42h-11.66v6.94h8.76v4.42h-8.76v8.72h12.56v4.42h-17.63v-28.92z"/><path d="m248.14 36.24v28.95c4.73.44 9.69.91 14.36-.09 9.95-2.12 10.5-10.08 10.5-13.88 0-6.79-1.82-11.17-8.16-14.09-5.17-1.6-11.33-1.1-16.7-.89zm14.68 4.96c3.88 1.55 4.84 5.27 4.76 9.8-.05 3.01-.5 7.03-3.73 9-3.16 1.92-7.12 1.46-10.65 1.31v-21.01c3.24-.06 6.52-.23 9.62.9z"/><path d="m273 74.2v1h-147.06v-1z"/><path d="m133.44 82.22v1.23h-2.68v1.4h2.28v1.27h-2.28v1.54h2.68v1.24h-4.08v-6.68z"/><path d="m137.39 82.22 1.06 4.93 1.16-4.93h1.53l-1.66 6.68h-1.94l-1.68-6.68z"/><path d="m147.77 82.22v1.23h-2.68v1.4h2.28v1.27h-2.28v1.54h2.68v1.24h-4.08v-6.68z"/><path d="m152.35 82.18c-.58 0-1.79.08-1.79.08v6.64h1.38v-2.71c.5-.01.8 0 1.01.55l.83 2.16h1.36l-1.19-2.69c.8-.11 1.16-1.09 1.16-1.94 0-1.64-1.37-2.09-2.76-2.09zm-.46 1.24c.68.02 1.75-.11 1.75.88 0 1.08-.52 1.08-1.75 1.08z"/><path d="m157.28 82.21h1.56l1.08 2.85 1.04-2.85h1.58l-1.9 4.14v2.55h-1.4v-2.55z"/><path d="m164.63 82.21h4.54v1.2h-1.51v5.49h-1.46v-5.49h-1.57z"/><path d="m171.76 82.22h1.45v2.63h1.88v-2.63h1.39v6.68h-1.39v-2.78h-1.88v2.78h-1.45z"/><path d="m179.42 82.22h1.41v6.68h-1.41z"/><path d="m183.76 82.22h1.44l2.14 3.97v-3.97h1.29v6.68h-1.5l-2.1-4.06.03 4.06h-1.3z"/><path d="m196.49 84.62h-1.26c-.02-.94-.45-1.29-1.28-1.29-.89 0-1.11.94-1.11 2 0 2.33.55 2.55 1.31 2.55.29 0 .98-.19.98-.19v-1.21h-.89v-1.19h2.26l-.01 3.08c-.76.35-1.67.63-2.46.63-2.28.01-2.61-1.63-2.61-3.68 0-1.32.26-3.22 2.57-3.22 1.79 0 2.5.94 2.5 2.52z"/><path d="m202.87 82.22v6.68h1.44v-2.54c1.66.01 3.13.06 3.13-1.97 0-2.04-1.71-2.2-2.71-2.2s-1.86.03-1.86.03zm1.44 1.17h.94c1.06 0 1.11 1.98.09 1.98h-1.03z"/><path d="m210.08 82.22h1.41v6.68h-1.41z"/><path d="m219.12 84.8h-1.28c0-.86-.21-1.59-1.02-1.58-.8.01-1.31.91-1.28 2.3.04 2.07.78 2.35 1.25 2.35.6 0 1.07-.39 1.08-1.31h1.24c.02 1.56-.81 2.41-2.35 2.41-2.03 0-2.57-1.81-2.57-3.39 0-1.76.53-3.49 2.53-3.49 1.86 0 2.4 1.05 2.4 2.71z"/><path d="m221.91 82.22h1.45l-.01 2.53 1.59-2.53h1.74l-1.9 2.69 1.89 3.98h-1.6l-1.13-2.62-.59.53v2.1h-1.44z"/><path d="m229.22 82.22h1.42v5.44h2.46v1.24h-3.88z"/><path d="m239.74 82.22v1.23h-2.68v1.4h2.28v1.27h-2.28v1.54h2.68v1.24h-4.08v-6.68z"/><path d="m244.2 82.2c-.56 0-1.68.02-1.68.02v6.68h1.93c2.35 0 2.82-.7 2.81-1.93-.01-.97-.58-1.3-1.03-1.48.33-.22.71-.65.69-1.56-.03-1.38-1.22-1.73-2.72-1.73zm-.26 1.22c.71 0 1.49-.03 1.5.81.01.76-.78.71-1.5.71zm0 2.62c.8-.01 1.87-.02 1.86.85-.01.98-1.1.87-1.86.87z"/><path d="m253.08 82.22h-1.93l-1.68 6.68h1.51l.37-1.46h1.52l.37 1.46h1.51zm-1.02 1.77.59 2.22h-1.05z"/><path d="m257.29 82.22h1.42v5.44h2.46v1.24h-3.88z"/><path d="m263.73 82.22h1.42v5.44h2.46v1.24h-3.88z"/></g></svg>