<svg viewBox="0 0 480 100" xmlns="http://www.w3.org/2000/svg" xmlns:xlink="http://www.w3.org/1999/xlink"><g id="figure" fill="#123c63"><path d="m67.4 59.1-24.8-10.5c-8.5-3.6-13.9-8.4-13.9-13.8 0-10.9 21.3-19.7 47.7-19.7h32.9c1.4 0 2.8-.5 3.8-1.4l13.2-11.6h-21.6c-71.6 0-78.1 28.4-78.1 28.4s4.2-21.3 35.6-28.5h-17.2c-13.3 0-24.4 8.9-28 21l-15 50.8h50.9c11.4 0 20.8-3.8 20.8-8.5 0-2.4-2.4-4.6-6.3-6.2z"/><path d="m76.7 24.9c-10.6 0-19.1 3.5-19.1 7.9 0 2.3 2.3 4.3 6 5.7l24.6 9.2c10.2 3.8 16.5 9.5 16.5 15.6 0 11.7-22.9 21-51.1 21h-29.8c-1.4 0-2.6.5-3.6 1.3l-14 12.4h21.2c71.6 0 78.1-28.4 78.1-28.4s-4.3 21.2-35.6 28.4h18c13.3 0 24.5-9 28.1-21.1l15.3-52z"/><path d="m190.3 2.2c-19 0-34.4 6.4-34.4 14.3 0 3.9 3.9 7.4 10 10l17.8 7.5c2.8 1.2 4.5 2.8 4.5 4.5 0 3.4-6.7 6.1-14.9 6.1h-21.8c-1.2 0-2.5.4-3.4 1.2l-7.2 6.4h32.9c20.4 0 36.8-6.8 36.8-15.2 0-4.4-4.6-8.5-11.9-11.2l-17.7-6.6c-2.7-1-4.3-2.6-4.3-4.2 0-3.2 6.2-5.7 13.8-5.7h22.5c1.3 0 2.6-.4 3.4-1.2l6.4-5.9z"/><path d="m268.5 2.2h-39.1c-1.5 0-2.8 1.1-3.2 2.4l-14 47.5h15c1.5 0 2.7-1 3.1-2.3l6.5-22.2 2.7 4.2c.6.9 1.7 1.4 2.8 1.4h14.5c17.5 0 26.4-6.3 29.5-16.9.3-1.1.4-2.1.4-3.1-.1-8.2-8-11-18.2-11zm-17.8 24.1h-13.6l5-17h12.5c5.2 0 14.7.4 13 7.5-1.8 7.2-10.1 9.5-16.9 9.5z"/><path d="m312.9 2.2h-14.7c-1.5 0-2.8 1.1-3.2 2.4l-14 47.5h14.7c1.5 0 2.8-1 3.2-2.3z"/><path d="m362.2 2.2h-39.6c-1.5 0-2.7 1-3.1 2.3l-14.1 47.6h15.4c1.5 0 2.7-1 3.1-2.3l7.1-23.9 15.7 24c.9 1.4 2.4 2.2 4.2 2.2h17.2l-13.8-20.8c15.3-.5 22.6-5.1 25.5-15 .3-1.1.5-2.1.5-3.1 0-8.4-8.5-11-18.1-11zm-17.2 22.2h-13.6l4.4-15.1h12.6c5.1 0 14.3.3 12.9 7.5-2.1 7.1-9.5 7.6-16.3 7.6z"/><path d="m406.7 2.2h-14.6c-1.5 0-2.8 1.1-3.2 2.4l-14 47.5h14.7c1.5 0 2.8-1 3.2-2.3z"/><path d="m414.2 2.2c-1.5 0-2.7 1.1-3.1 2.4l-1.5 4.7h23.6l-12.9 42.9h14.7c1.5 0 2.7-1 3.1-2.3l12.3-40.6h17.5c1.3 0 2.5-.4 3.4-1.2l6.7-5.9z"/><path d="m133.7 62.7h344.3v.8h-344.3z"/><path d="m169.1 76.7c-1.9 0-3.4.7-4.3 1.9s-1.3 3.3-1.3 6.2c0 2.5.4 4.3 1.2 5.3.9 1 2.2 1.5 4.3 1.5h7.9v4h-8.1c-2.6 0-5.5-.2-8-2.8-2.1-2.3-2.6-5.2-2.6-8.2 0-4 .9-7.1 2.6-9s4.4-2.9 8.1-2.9h7.9v4z"/><path id="a" d="m190.3 72.3c9.9 0 11.3 6.7 11.3 11.7 0 5.7-1.7 12.1-11.3 12.1-10.7 0-11.3-7.9-11.3-12.1 0-10.1 6-11.7 11.3-11.7zm-6.2 11.7c0 2.7.3 8.2 6.2 8.2 5.2 0 6-4.5 6-8.2 0-3.9-1-7.8-6-7.8-5.1 0-6.2 4.2-6.2 7.8z"/><path d="m204.8 72.7h7l5.8 17.6 5.7-17.6h7v22.9h-4.7l.4-17.8-5.8 17.8h-5.1l-6-18 .5 18h-4.8z"/><path d="m235 95.6v-22.9h11.6c4.2 0 8.3 1.1 8.4 5.9 0 1.5-.2 3.8-3.3 5.5 2.8 1.3 3.4 2.9 3.4 5.2 0 4.8-3.3 6.3-7.7 6.3zm4.7-18.7v5.2h7c2.6 0 3.1-1.3 3.1-2.6 0-.7 0-2.6-3.1-2.6zm7.1 14.7c2.4 0 3-1 3-2.7 0-2-.9-2.6-3-2.6h-7.1v5.3z"/><path d="m265.2 72.7h5l9.7 22.9h-5.3l-2.1-5.5h-9.8l-2 5.5h-5.1zm2.3 4.6-3.2 8.8h6.7z"/><path id="b" d="m286.4 76.8h-7.3v-4h19.6v4h-7.3v18.8h-5z"/><path id="c" d="m332.4 76.9h-11.8c-3 0-3.6 1.1-3.6 3 0 2.1 1.8 2.5 3 2.5h6.3c2.6 0 4.5.5 5.6 1.5s1.6 2.6 1.6 4.9-.6 4.1-1.8 5.2-3.3 1.6-6 1.6h-12.7v-4.1h11.9c3 0 3.6-.9 3.6-2.5 0-1.2-.3-2.7-3.3-2.7h-5.6c-2.6 0-4.5-.5-5.7-1.5-1.2-1.1-1.8-2.7-1.8-5 0-2.4.6-4.2 1.9-5.4 1.2-1.1 3.3-1.7 6-1.7h12.4z"/><path d="m337 72.7h10.4c5.3 0 9.6 1.8 9.6 7.5 0 6.1-4.4 7.4-9.4 7.4h-5.8v8h-4.8zm4.8 4.2v6.6h5.8c4.1 0 4.3-2.3 4.3-3.3 0-2-.7-3.3-4.6-3.3z"/><use transform="translate(180)" xlink:href="#a"/><path d="m384.7 72.7h11.8c4.5 0 7.8 1.4 7.8 6.9 0 1.9-.6 5.6-4.6 6.4l5.7 9.6h-5.3l-5-8.9h-5.6v8.9h-4.8zm4.8 4.2v5.7h5.8c3.2 0 4.2-1 4.2-2.9 0-2.3-1.6-2.8-4.2-2.8z"/><use transform="translate(126.9)" xlink:href="#b"/><use transform="translate(114.7)" xlink:href="#c"/></g></svg>