<svg viewBox="0 0 421 100" xmlns="http://www.w3.org/2000/svg"><g id="figure" fill="#fff"><path d="m73.8 2c-12.5 0-23.5.5-35.3 4.2-33.8 10.5-36.5 38.4-36.5 55.3 0 21.5 15.2 36.5 57.9 36.5 23.5 0 28-1.7 31.6-1.7h47.8l25.5-19.6 18.4 19.6h47.8c15.3 0 11.9 1.7 35.2 1.7 24.4 0 39.6-2.6 50.8-15 8.9 12.6 21.3 15 40.1 15 33 0 42.3-6.1 61.9-36.8h-60.2l10.3-56.8h-43.2l-1.8 10.8c-14.4-14.1-31.7-13.1-50.4-13.1-14.2 0-17.9 2.1-25.6 2.1h-54.1l-22.3 16.5-15.8-16.7-48.9.1c-9.3 0-12.4-2.1-33.2-2.1zm-.1 8.5c30.8-.1 44.3 5.3 47.6 22.1 1.7 8.9 1 17.9-1.5 26.5h-72.7c-6 0-8.5 10.5-1.6 10.5h69.9c-12.5 16-21.8 19.5-51.3 19.5-28.8 0-53.6-3.3-53.6-31 0-7.4 2-33.5 27.6-42.6 11-3.9 23.5-4.9 35.6-5zm201.6 0c24.9.2 43.9 2.6 47.7 22.1 1.7 8.9 1 17.9-1.5 26.5h-72.7c-5.9 0-8.7 10.5-1.6 10.5h69.9c-14.4 19.5-28.9 19.4-51.9 19.4-22.1 0-47.7-.1-52.5-24.4-1.5-9.8.5-20.2 4.5-29.2 8.5-19.2 30.9-25.1 58.1-24.9zm-88.2 38.3 37.6 38.7h-37.8l-21.4-22.2-29.1 22.3h-38.5l51.6-39.2-34.2-35.8h36.9l18.7 19.5 25.8-19.5h38zm146.2-36.1 25.4.3-8.7 48.4c-1.4 7.8-.1 8.3 6.7 8.3h45.8c-14.2 20.1-25.9 19.4-50 19.4-16.8 0-31.7-5.7-29.1-20.6zm-282.2 19.7c-5.1 0-7.5 10.1-1.8 10.1h38.8c4.8 0 6.4-10.1 3.4-10.1zm201.7 0c-4.4 0-7.6 10.1-2.4 10.1h39.4c4.7 0 6.4-10.1 3.4-10.1z"/></g></svg>