<svg viewBox="0 0 814 100" xmlns="http://www.w3.org/2000/svg"><g id="figure"><path d="m29.9 30.2c.8-4.6 4.8-8 9.6-8h89.3l3.6-20.1h-92.9c-14.5 0-26.8 10.3-29.4 24.5l-7.7 41.9c-2.6 14.1 7.4 29.4 24.6 29.4h88.3l3.5-20.1h-91.9c-3.2 0-5-3.2-4.6-5.5z"/><path d="m157.7 30.3c.8-4.7 4.7-8.1 9.4-8.1h62.9c3.1 0 5.2 3.2 4.8 5.5l-7.1 42c-.8 4.7-4.9 8.1-9.5 8.1h-62.9c-3.1 0-5.2-3.2-4.8-5.6zm72.2-28.2h-62.9c-14.5 0-26.9 10.6-29.3 24.8l-7.1 42c-2.4 14 7.9 29 24.6 29h63c14.5 0 26.9-10.5 29.3-24.9l7.1-42c2.4-14.2-8.1-28.9-24.7-28.9z"/><path d="m318.2 63.9-31.5-56.6c-4.7-8.5-17.1-6.1-18.8 3.2l-15.6 87.4h20.5l10-56 24.5 44.1c3.3 5.9 11.5 6.9 16.2 1.7l40.6-44.7-9.4 54.9h20.5l14.4-84c1.7-10.1-11.5-16-18.3-8.5z"/><path d="m490.9 42.6c-.9 4.6-4.8 7.9-9.4 7.9h-67.8l3.6-20.6c.8-4.7 4.9-7.8 9.5-7.8h62.2c3.2 0 5.2 3 4.7 5.5zm-64-40.5c-14.5 0-26.9 10.3-29.4 24.4l-12.8 71.4h20.5l4.8-27.1h71.6c14.5 0 26.8-10.4 29.3-24.6l2.7-15.1c2.6-14.4-8.2-29-24.6-29z"/><path d="m538.1 60h97.8l3.2-20.1h-97.4l1.7-9.9c.8-4.5 4.8-7.9 9.6-7.9h89.6l3.3-20.1h-92.9c-14.5 0-26.8 10.2-29.4 24.3l-7.7 42c-2.5 13.8 7.1 29.4 24.5 29.4h88.8l3.3-20.1h-92.1c-3.2 0-4.9-3.1-4.5-5.4z"/><path d="m790.1 2h-32.8l-43.2 33.6-34.3-33.6h-28.9l47.1 46.2-64 49.8h32.8l45.7-35.6 36.3 35.6h29l-49.1-48.1z"/><path d="m796.4 67c-8.6 0-15.6 6.9-15.6 15.5 0 8.8 7 15.5 15.6 15.5 8.8 0 15.6-6.7 15.6-15.5 0-8.6-6.8-15.5-15.6-15.5zm0 2.5c7.1 0 13.1 5.6 13.1 13s-6 13-13.1 13c-7 0-13.1-5.6-13.1-13 0-7.2 6-13 13.1-13zm-5.4 4.5v17.5h2.5v-8.1h3.2l4.1 8.1h2.7l-4.2-8.1c2.1-.1 4.5-1.4 4.5-4.8 0-3.7-2.9-4.6-6-4.6zm2.5 2.4h3.8c2.2 0 4 .2 4 2.4 0 2.5-3.3 2-5.6 2h-2.2z"/></g></svg>