<svg viewBox="0 0 568 100" xmlns="http://www.w3.org/2000/svg" xmlns:xlink="http://www.w3.org/1999/xlink"><g id="figure" fill="#fe2727"><g transform="scale(.1)"><path d="m585.7 24.4c-107 0-221.7 22.8-299.6 100.5-53.9 53.6-107.5 107.4-161.2 161.2-77.7 77.9-100.5 192.6-100.5 299.6 0 97.1-4.4 198.7-4.4 297.8 0 14.1.4 34.7.4 48.4 73.8-52.6 133.4-124.3 197.9-187.8 2.4-97.8-8.3-194.3-11.7-291.9-2.5-72.4-16-150.4 39.6-206s133.6-42.1 206-39.6c97.6 3.4 194.1 14.1 291.9 11.7 63.5-64.5 135.2-124.1 187.8-197.9-16.5 0-32.7-.4-48.4-.4-101.7 0-187.1 4.4-297.8 4.4z"/><path d="m414.3 975.6c107 0 221.7-22.8 299.6-100.5 53.9-53.6 107.5-107.4 161.2-161.2 77.7-77.9 100.5-192.6 100.5-299.6 0-97.1 4.4-198.7 4.4-297.8 0-14.1-.4-34.7-.4-48.4-73.8 52.6-133.4 124.3-197.9 187.8-2.4 97.8 8.3 194.3 11.7 291.9 2.5 72.4 16 150.4-39.6 206s-133.6 42.1-206 39.6c-97.6-3.4-194.1-14.1-291.9-11.7-63.5 64.5-135.2 124.1-187.8 197.9 16.5 0 32.7.4 48.4.4 101.7 0 187.1-4.4 297.8-4.4z"/><path d="m1868 21.1c.2 122.7-.5 245.4.3 368.2-107.5-135.4-320.6-137.2-446.5-27.5-75.2 65.6-112.5 164.2-112.5 262.9 0 186.2 129.1 342.5 324.7 342.6 63.6 0 163-16.2 234.7-110-.9 36.6-.8 73.2-.7 109.8h195.3v-946zm-31.6 494.7c41.3 65.2 41.1 162.5-3.7 225.9-53.4 75.6-168.9 89.7-244.5 42.3-117.1-73.4-101.1-287.6 35-333.2 70.8-23.7 167.3-7.4 213.2 65z"/><path id="a" d="m2135.2 626.3c0 192.5 140.5 341.2 374 341.2 90.8 0 256.7-27.4 339.6-221.4l-187.6-18.3c-14.2 72-84.3 95.5-153.5 95.7-100.2.4-165-61.1-175.2-167.3h528.6c.6-9.5 2.1-19.1 2-28.5-2.6-167.4-128-344.2-355-344.2-217.7 0-372.9 145.8-372.9 342.8zm524.6-78.4h-324.4c22.5-80.5 86.5-120.7 170.5-122 89.4-1.4 147 39.3 153.9 122z"/><path d="m3109.9 631.6c.1 118.5 60.8 172.2 127 173.7 94 2.2 171-67.1 171-184.9v-316.5h185.1v663.2h-185.1c0-40.6-.1-81.2.2-121.8-54.2 79.2-133 122.6-231.1 122.6-146.2 0-249.8-97.3-249.7-254.4l.3-409.6h182.1z"/><path d="m3984.3 283.4c86.1 0 186.8 22.8 247.5 89.4 28.7 31.4 39.6 68.5 46 109.3l-182.7 9.5c-8.3-26.4-16.1-49.4-41.1-64.9-41-25.5-110.7-27.4-151.9-2.1-27.3 16.8-40.8 51.6-15.7 76.1 28.5 27.9 79.4 33.7 117.5 41.1 79.9 15.5 180.2 26.5 243.5 82 35.5 31.1 50.4 73.4 50.4 124.6-.1 118.3-99.4 219.3-314.7 219-82.9-.1-200.5-16-274.5-92.9-37-38.4-53.2-84.6-55.8-137.3l188.2-9.8c6.7 27.8 11.6 52.9 34.2 72.7 43.1 37.6 112.3 43.7 165.4 28.8 33.7-9.5 64.9-36.6 55.9-73.8-7.5-31.3-43.6-43-71.7-51.5-91.9-27.8-212.8-32.1-292.7-89.4-78.1-56-72.3-179.9-9.3-244.9 66.1-68.2 170.6-85.9 261.5-85.9z"/><use transform="translate(2218)" xlink:href="#a"/><path d="m5660 315c-6.9 58.7-13.3 117.5-19.1 176.4-71.5-43.9-160.1-46.1-228.5 4.4-52.8 39-70.3 101.3-71 164.4-1.2 102.3 0 204.6-.2 306.9h-195.4v-663.2h195.4c.1 32.8.4 65.9-.9 98.6 13.9-33.3 33.4-60.4 65.1-78.7 76.5-44.3 171.6-52.1 254.6-21.6z"/></g></g></svg>