<svg viewBox="0 0 895 100" xmlns="http://www.w3.org/2000/svg" xmlns:xlink="http://www.w3.org/1999/xlink"><g id="figure" fill="#fff"><path d="m294.4 53.2c2.6 0 5.2 0 7.8.1 7.6.1 10.6-2.4 11.5-6.3.9-4.1-.5-6.4-8.7-6.6-2.6-.1-5.2-.1-7.7-.2-1 4.3-1.9 8.7-2.9 13m2.2 24.9c9.1-.2 12.9-2.5 14-7.4s-1.7-7-10.8-7c-2.6 0-5.2 0-7.8.1-1.1 4.8-2.1 9.7-3.2 14.5 2.6-.1 5.2-.1 7.8-.2zm19.5-48.3c19 .7 25.8 6 23.5 15.5-1.8 7.6-9.1 11.2-17.7 13v.2c8.7.5 16.3 4.3 14.1 14.1-1 4.4-3.7 8.2-7 10.4-4.8 3.3-9.2 4.8-22.7 5.3-15.4.6-30.8 1.2-46.1 1.9 4.4-21.1 8.9-41.8 13.3-62.1 14.3.6 28.5 1.2 42.8 1.7z"/><path d="m375.5 58.9c-2.7 11.1 2.3 16.2 11 16s16.3-5.3 19-16c2.7-10.8-2.3-15.8-11-15.9s-16.3 4.8-19 15.9zm8 28.3c-30.6 1-38.9-11.5-34.9-28.3 2.6-10.8 9.3-18.5 17.6-22.7 6.9-3.6 15.2-5.6 31.3-5.2 30.6.9 38.9 12.6 34.9 27.9-2 7.9-6.6 14.2-12.9 18.4-8.1 5.5-19.9 9.5-36.1 9.9z"/><path d="m470.5 33.9v31.3h.3c6.7-10.4 13.4-20.8 20-31 9.8.1 19.6.2 29.4.3 1.1 10.2 2.2 20.4 3.2 30.6h.3c5.5-10.2 11-20.3 16.6-30.5 7.9 0 15.8.1 23.7.1-9.4 16.2-18.8 32.4-28.2 48.7-11.1.1-22.2.1-33.2.3-1-10-2.1-20-3.1-30h-.3c-6.5 10-12.9 20.1-19.4 30.3-11.2.1-22.3.3-33.5.5-.5-17-.9-33.9-1.3-50.9 8.5.2 17 .3 25.5.4z"/><path d="m634.5 34.4c-.9 3.4-1.9 6.9-2.8 10.3-10.4.1-20.8.1-31.2.1-.9 3.4-1.8 6.7-2.8 10.1h29.7c-.9 3.4-1.9 6.9-2.8 10.3-9.9 0-19.8 0-29.7 0-1.7 6-3.3 12-4.9 18h-26.4c4.4-16.2 8.9-32.4 13.3-48.6 19.2 0 38.4-.1 57.6-.2z"/><path d="m675.3 33.9c-3.4 12.6-6.7 25.2-10.1 37.7 9.6.1 19.3.1 28.9.2-1.1 4.1-2.2 8.2-3.3 12.3-18.4-.3-36.8-.5-55.3-.7 4.4-16.3 8.9-32.7 13.3-49.2 8.8-.1 17.6-.2 26.4-.3z"/><path d="m778.5 31.7c-.9 3.9-1.9 7.7-2.8 11.5-11.5.2-23 .4-34.5.5-.8 3.2-1.6 6.5-2.5 9.7 10.8-.1 21.6-.1 32.4-.2-.9 3.8-1.9 7.6-2.8 11.4-10.8-.1-21.6-.1-32.4-.2-.8 3.2-1.6 6.4-2.5 9.6 11.6.2 23.2.3 34.9.5-.9 3.8-1.9 7.5-2.8 11.3-20.1-.5-40.3-1-60.4-1.4 4.4-16.9 8.9-34 13.3-51.2 20-.4 40-.9 60-1.5z"/><path d="m794.2 31.2c11.5-.4 22.9-.7 34.4-1.2 3.4 5.8 6.7 11.8 10.1 17.8 6.3-6.1 12.6-12.4 18.9-18.9 10.8-.4 21.6-.9 32.4-1.4-11.4 10.7-22.9 20.9-34.3 30.6 7.3 10.2 14.6 20.7 21.9 31.5-11.5-.5-22.9-1-34.3-1.4-3.6-6.8-7.2-13.4-10.9-20-6.8 6.5-13.6 12.7-20.5 18.9-10.6-.4-21.2-.7-31.7-1 11.7-9 23.4-18.3 35.1-28-7-9.2-14-18.2-20.9-27z"/><path id="r" d="m886.6 85.4h1.2c.4 0 1.1 0 1.1-.8 0-.9-.7-.9-1.1-.9h-1.2zm-.8-2.3h1.9c.4 0 1.8 0 1.8 1.4 0 .2 0 1-1 1.3.6.1.8.4.8 1 .1.7.1 1.2.3 1.7h-.8c-.1-.4-.2-.6-.3-1.4s-.3-1-1.2-1h-.9v2.5h-.8zm1.8 7.2c2.5 0 4.5-2 4.5-4.5 0-2.4-1.9-4.4-4.5-4.4-2.4 0-4.4 2-4.4 4.4 0 2.5 2 4.5 4.4 4.5zm0 .6c-2.7 0-5-2.2-5-5.1 0-2.8 2.4-5 5-5 2.8 0 5.1 2.2 5.1 5s-2.3 5.1-5.1 5.1z"/><path d="m2 50c0 15.1 17.2 28.6 44 37.4 13.4-1.7 30.9-4.5 43.6-7.2 37.4-7.8 40.1-19.6 2.3-29.3-15.4-4-30.6-7.2-30.6-7.2s13.9-.9 16.3-1.4c11.3-.9 29.7-3.3 46.6-6.2 30-5.1 29.9-16 3.2-22.6-13.9-3.4-27.1-5.8-27.1-5.8s25.5-.5 55.8 4.9c16.3 2.9 27 6.1 33.6 8.5 7.1 2.7 6.3 6.3.2 8.7-9.4 3.7-37.1 10.7-57.2 14.2-5.4.9-5.3 3.9-.5 5.3 16 4.5 33.7 10.8 39.1 13.2 7.1 3.2 5.9 7-.5 9.5-15.1 5.8-45.8 16.1-81.6 19.1-8.7.8-18.2.9-27.1.8 17 3.9 36.7 6.1 57.7 6.1 65 0 117.7-21.5 117.7-48s-52.7-48-117.7-48c-65.1 0-117.8 21.5-117.8 48z"/><use transform="matrix(.8 0 0 .8 -475.7 15.4)" xlink:href="#r"/></g></svg>