<svg viewBox="0 0 332 100" xmlns="http://www.w3.org/2000/svg" xmlns:xlink="http://www.w3.org/1999/xlink"><g id="figure" fill="#fff"><path d="m19.8 78.5h4c4 0 5.5-1.3 6-3.3.5-2.1-.2-3.3-4.5-3.4-1.3 0-2.7-.1-4-.1-.5 2.2-1 4.5-1.5 6.7zm1.2 12.9c4.7-.1 6.7-1.3 7.3-3.8s-.9-3.6-5.6-3.6c-1.3 0-2.7 0-4 0-.6 2.5-1.1 5-1.7 7.5 1.3 0 2.7-.1 4-.1zm10.1-25c9.8.4 13.4 3.1 12.2 8-.9 3.9-4.7 5.8-9.2 6.8v.1c4.5.3 8.5 2.2 7.3 7.3-.5 2.3-1.9 4.2-3.6 5.4-2.5 1.7-4.8 2.5-11.8 2.7-8.1.3-16 .6-24 1 2.3-11 4.6-21.7 6.9-32.2z"/><path d="m71.6 73.2c-4.5-.1-8.4 2.5-9.8 8.2-1.4 5.8 1.2 8.4 5.7 8.3s8.4-2.7 9.8-8.3-1.2-8.2-5.7-8.2zm-5.7 22.9c-15.9.5-20.1-6-18.1-14.7 1.3-5.6 4.8-9.6 9.1-11.8 3.6-1.8 7.9-2.9 16.2-2.7 15.9.5 20.2 6.5 18.1 14.5-1.1 4.1-3.4 7.3-6.7 9.5-4.2 2.9-10.3 4.9-18.7 5.2z"/><path d="m111 68.4v16.2h.1c3.5-5.4 6.9-10.8 10.4-16.1 5.1.1 10.2.1 15.3.2.6 5.3 1.1 10.6 1.7 15.8h.1c2.9-5.3 5.7-10.5 8.6-15.8h12.3c-4.9 8.4-9.7 16.8-14.6 25.2-5.7 0-11.5.1-17.2.1-.5-5.2-1.1-10.4-1.6-15.5h-.1c-3.3 5.2-6.7 10.4-10 15.7-5.8.1-11.6.2-17.4.3-.2-8.8-.5-17.6-.7-26.4 4.4.1 8.8.2 13.2.2z"/><path d="m196 68.7c-.5 1.8-1 3.6-1.5 5.4-5.4 0-10.8 0-16.2.1-.5 1.7-1 3.5-1.4 5.2h15.4c-.5 1.8-1 3.6-1.5 5.3-5.1 0-10.3 0-15.4 0-.9 3.1-1.7 6.2-2.6 9.3-4.6 0-9.1 0-13.7 0 2.3-8.4 4.6-16.8 6.9-25.2 10 0 19.9 0 29.9-.1z"/><path d="m217.2 68.5c-1.7 6.6-3.5 13.1-5.2 19.6 5 0 10 .1 15 .1-.6 2.1-1.1 4.2-1.7 6.4-9.6-.2-19.1-.3-28.7-.4 2.3-8.5 4.6-17 6.9-25.5 4.6 0 9.1-.1 13.7-.2z"/><path d="m270.7 67.3c-.5 2-1 4-1.5 6-6 .1-11.9.2-17.9.3-.4 1.7-.8 3.4-1.3 5 5.6 0 11.2-.1 16.8-.1-.5 2-1 3.9-1.4 5.9-5.6 0-11.2-.1-16.8-.1-.4 1.7-.8 3.3-1.3 5 6 .1 12 .2 18.1.3-.5 2-1 3.9-1.4 5.8-10.4-.3-20.9-.5-31.3-.7 2.3-8.8 4.6-17.6 6.9-26.5 10.4-.2 20.8-.5 31.1-.8z"/><path d="m278.8 67.1c5.9-.2 11.9-.4 17.8-.6 1.8 3 3.5 6.1 5.2 9.2 3.3-3.2 6.5-6.4 9.8-9.8 5.6-.2 11.2-.5 16.8-.7-5.9 5.5-11.9 10.8-17.8 15.8 3.8 5.3 7.6 10.7 11.3 16.3-5.9-.3-11.9-.5-17.8-.7-1.9-3.5-3.8-7-5.6-10.4-3.5 3.3-7.1 6.6-10.6 9.8-5.5-.2-11-.4-16.5-.5 6.1-4.6 12.1-9.5 18.2-14.5-3.6-4.8-7.2-9.4-10.8-14z"/><use transform="matrix(1.3 0 0 1.3 33.6 39.6)" xlink:href="#r"/><path id="r" d="m225.8 42.7c.1 0 .4 0 .4-.3s-.3-.3-.4-.3h-.5v.7zm0-.9c.2 0 .7 0 .7.5 0 .1 0 .4-.4.5.2.1.3.2.3.4 0 .3.1.5.1.7h-.3c0-.1-.1-.2-.1-.6 0-.3-.1-.4-.5-.4h-.4v1h-.3v-2.1zm-1.8 1.1c0 1 .8 1.8 1.8 1.8s1.8-.8 1.8-1.8c0-.9-.8-1.8-1.8-1.8s-1.8.8-1.8 1.8zm1.8 2c-1.1 0-2-.9-2-2s.9-2 2-2 2 .9 2 2-.9 2-2 2z"/><path d="m106.8 26.9c0 7.8 8.9 14.8 22.8 19.4 7-.9 16-2.3 22.6-3.7 19.4-4 20.8-10.2 1.2-15.2-8-2.1-15.9-3.7-15.9-3.7s7.2-.5 8.5-.7c5.8-.5 15.4-1.7 24.2-3.2 15.5-2.7 15.5-8.3 1.6-11.7-7.2-1.9-14-3.2-14-3.2s13.2-.3 28.9 2.5c8.5 1.5 14 3.2 17.4 4.4 3.7 1.4 3.2 3.2.1 4.5-4.9 1.9-19.2 5.6-29.6 7.4-2.8.5-2.8 2-.3 2.7 8.3 2.3 17.4 5.6 20.3 6.8 3.7 1.6 3.1 3.6-.3 4.9-7.8 3-23.7 8.4-42.3 9.9-4.5.4-9.4.5-14.1.4 8.8 2 19 3.2 29.9 3.2 33.7 0 61-11.1 61-24.9.1-13.6-27.3-24.7-61-24.7s-61 11.1-61 24.9z"/></g></svg>