<svg viewBox="0 0 371 100" xmlns="http://www.w3.org/2000/svg"><g id="figure"><path d="m50 2c-26.5 0-48 21.5-48 48s21.5 48 48 48 48-21.5 48-48-21.5-48-48-48zm3.7 8.4c15.3 1.4 28.4 11.5 33.7 26l-9.9-4.5-2.4-.4s-9.2-3.5-9.6-4.2-3.2-3.6-3.7-3.8c-1.3-.6-8.1-2.7-8.6-3-.6-.3-.8-1.8-.7-2.6s.7-1.9.7-1.9c.5-1.8.5-3.7.5-5.6zm-7.4.1c-.1 1.9.2 3.7.5 5.5 0 0 .6 1.1.7 1.9s-.1 2.3-.7 2.6c-.5.3-6.7 2.1-8.6 3-.5.2-3.3 3.1-3.7 3.8s-9.5 4.2-9.5 4.2l-2.4.4-9.9 4.4c5.3-14.4 18.3-24.4 33.6-25.8zm13.1 21.4s3.9 1.8 10 3.2c.2.1 2.4 1.4 2.4 1.4l16.7 3.5c.8 3.3 1.3 6.6 1.3 10 0 13.5-7 26.1-18.4 33.4-.2-.7-3.2-12.2-4.1-13.9-.4-.5-.8-.9-1.2-1.2-.6-.7-.9-1.2-.9-1.2s-3.9-13.7-4.6-15.6-3-6.2-3-6.2l-.2-7s2-4.6 2-6.4zm-16.8 6.4-.2 7s-2.3 4.3-3 6.2-4.9 15.6-4.9 15.6-.4.5-1 1.2c-.3.2-.6.7-.9 1.2-.9 1.7-3.9 13-4.1 13.8-11.4-7.3-18.3-19.8-18.3-33.3 0-3.4.5-6.7 1.4-10l16.5-3.5s2.2-1.3 2.4-1.4c6.1-1.4 10.1-3.2 10.1-3.2 0 .9 2 6.4 2 6.4zm8.3 16c.4.7 9.2 16.6 9.2 16.6l1.1 3 7.9 10.9c-5.8 3.2-12.4 5-19.1 5-6.5 0-13-1.6-18.7-4.7l8.2-11.2.8-3s8.5-16.2 8.8-16.6.5-.9.9-.9.5.2.9.9z"/><path d="m114.7 36h14.4l11.7 21.7 12.2-21.7h14.2v28.1h-8.6v-20.5l-11.9 20.4h-11.6l-11.8-20.4v20.5h-8.6zm53.7 28.1 19.2-28.1h9l19.4 28.1h-9.7l-5.4-7.4h-17.5l-4.9 7.4zm28-14.7-4.2-6.2-4.2 6.2zm114.2 7.6h-35.3v-14h35.3v-7h-35.3c-4.2 0-8.8 3.3-8.8 7.5v13.1c0 4.2 4.6 7.5 8.8 7.5h35.3zm21.9-1.3v8.3h8.9v-8.3l20.3-19.8h-11.4l-13.3 12.8-13.3-12.8h-11.4zm-101-3.6 19 12h14.1l-17.5-10.6h6.6c4.8 0 9.2-3.9 9.2-8.7 0-4.9-4.3-8.8-9.2-8.8h-36v28h9.3l-.1-21h26.1c1 0 1.7.7 1.7 1.7s-.7 1.8-1.7 1.8-21.6 0-21.6 0zm135.2-16.3c-1.3 0-2.2 1.1-2.2 2.3s.9 2.3 2.2 2.3c1.2 0 2.3-1 2.3-2.3s-1-2.3-2.3-2.3zm0 4.1c-1 0-1.7-.8-1.7-1.8s.7-1.8 1.7-1.8 1.8.8 1.8 1.8-.8 1.8-1.8 1.8zm.3-3h-1.2v2.3h.5v-.9h.4l.5.9h.6l-.6-.9c.4 0 .7-.3.7-.7 0-.6-.4-.7-.9-.7zm0 1h-.7v-.6h.7c.2 0 .4 0 .4.3s-.1.3-.4.3z"/></g></svg>