<svg viewBox="0 0 552 100" xmlns="http://www.w3.org/2000/svg"><g fill="#fff"><path d="m75.1 2h-73.1v91.4h50.3v-27.4h22.8c32 0 64-7.3 64-32s-32-32-64-32zm16.5 32c0 8.2-6.4 10-16.5 10h-22.8v-20.1h22.8c10.1 0 16.5 1.9 16.5 10.1z"/><path d="m289.8 59.6v-57.6h-50.3v54.9c0 12.3-8.2 17.3-25.1 17.3s-25.2-5-25.2-17.3v-54.9h-50.3v9c5.7 5.8 9.2 13.4 9.2 23s-3.5 17.2-9.2 23v2.6c0 27.4 21.1 38.4 75.5 38.4s75.4-11 75.4-38.4z"/><path d="m351.4 39.3 64.6-37.3h-64l-53.2 30.7v37l18.9-11 41.4 34.7h56.9z"/><path d="m550 2h-56.9l-38.7 32.4-31.2-26.1-33.7 19.4 39.8 33.4v32.3h50.3v-32.3z"/></g></svg>