<svg viewBox="0 0 310 100" xmlns="http://www.w3.org/2000/svg"><g id="figure"><path d="m6.3 34c-2.3 0-4.3 1.9-4.3 4.2v58.7h15.9c2.3 0 4.3-1.9 4.3-4.2v-54.5c0-2.3-1.9-4.2-3.1-4.2zm10.8-31c2.2 0 4 1.7 4 4v11.3c0 2.3-1.8 4-4 4h-11.1c-2.2 0-4-1.8-4-4v-11.3c0-2.2 1.8-4 4-4z"/><path d="m266 5c-1.1-1.1-3.4-1.9-5-1.9h-26.2c14.2 13.8 28.5 27.5 42.8 41.3.1.1.2.3.4.3s.4-.2.5-.4c2.5-4 4-8.4 4-13.1 0-5.1-2-11.4-6.7-16.2z"/><path d="m292 31.8c-.7-.7-1.5-1.1-2.1-1.1-.9 0-1.7.8-1.7 2.1 0 4.7-1.2 9.1-3.3 13.2-2.6 5.1-7.7 8.9-11.8 12.9l-38.3 37h26.5c1.5 0 2.9-.6 3.9-1.7l41-40.2c1.2-1.3 1.8-2.8 1.8-4.2 0-1.7-.7-3.2-1.8-4.3z"/><path d="m56.4 2.7c-18.1.6-25.3 14-25.3 27l-.4 67.2h16.5c2.4 0 4.3-1.8 4.3-4.2l-.1-26.6c0-2.4 1.6-4.3 4.1-4.3h15.6c2.4 0 4.3-1.9 4.3-4.2v-9.6c0-2.4-1.9-4.3-4.3-4.3h-19.7v-11.3c0-6.8 3.7-9.6 11.8-9.6l22.7-.1c2.4 0 4.3-1.8 4.3-4.2v-12.2c0-2.4-1.9-4.3-3.1-4.3z"/><path d="m115.7 3.1h-11.6c-2.4 0-4.3 1.9-4.3 4.3v90.6h15.9c2.4 0 4.3-1.9 4.3-4.3v-86.3c0-2.4-1.9-4.3-4.3-4.3z"/><path d="m214.5 2-30.2.6c-3 .1-3.5 2.4-1.5 4.2 6.8 6.1 7.9 15.8 7.9 16.3l23.8.2c2.4 0 4.3-2 4.3-4.4v-12.5c0-2.4-1.9-4.4-4.3-4.4zm-29.9 27.7c0-13-7.3-26.4-25.4-27l-25.3-.7c-2.4 0-4.3 1.9-4.3 4.3v12.2c0 2.3 1.9 4.2 4.3 4.2l18.5.1c8.1 0 11.8 2.8 11.8 9.6l-.4 64.5h16.7c2.4 0 4.3-1.8 4.3-4.2z"/></g></svg>