<svg viewBox="0 0 1062 100" xmlns="http://www.w3.org/2000/svg" xmlns:xlink="http://www.w3.org/1999/xlink"><g fill="#fff"><path d="m13.6 74-11.6 15.4c11.671 4.786 37.458 8.653 63.7 8.6 28.063-.06 56.63-4.597 69.3-17.7 9.939-10.282 13.387-28.686-7.2-36.6-20.59-7.917-43.416-7.8-54.1-7.8s-9.114-10.719-.8-12.7c8.312-1.978 37.615-6.906 68.1 2.2l11.1-14.8c-9.42-3.448-30.502-8.637-55.8-8.6-18.233-.006-38.935 2.759-59 11.3-9.137 3.89-26.357 18.187-18.2 35 6.337 13.056 44.988 13.311 63.2 14.1 11.081.483 12.992 11.333 2.7 14.9s-46.06 6.198-71.4-3.3z"/><path d="m270.4 96.1c-5.981.343-14.967.811-25.4.8-39.106-.06-94.031-5.183-94-38.6.03-35.114 57.287-53.242 110-53.3 11.473 0 22.629.801 33.1 2.5l-12.1 15.2c-32.463-3.959-70.197-.096-79.7 28.4-9.503 28.504 37.56 30.481 62.9 28.1z"/><path d="m303.2 10.6h40.6l-9.7 32.5h61l9.7-32.5h40.5l-25.1 85.5h-41.4l10-32.3h-61l-9.4 32.3h-40.8z"/><path d="m492.2 10.5 11 53.3 37.3-53.3h44.7l10.72 53.569 37.48-53.569h30.1l-60.4 85.6h-39.7l-11.9-58.8-40.8 58.8h-40l-17.4-85.6z"/><path d="m672.3 10.5h40.9l-26 85.6h-40.8z"/><path id="a" d="m701.6 96.1 25.4-85.6h43.8l42.5 51.6 14.9-51.6h40.8l-25.4 85.6h-38l-46.6-56.6-17.2 56.6z"/><use transform="translate(158)" xlink:href="#a"/><path d="m1048.1 10.6c-6.58 0-11.9 4.865-11.9 11.8s5.32 11.8 11.9 11.8c6.53 0 11.9-4.865 11.9-11.8s-5.37-11.8-11.9-11.8zm0 1.6c5.41 0 9.9 4.432 9.9 10.2s-4.49 10.2-9.9 10.2c-5.47 0-9.9-4.432-9.9-10.2s4.43-10.2 9.9-10.2zm-4.4 3.3v13.8h1.9v-6.1h2.5l3.6 6.1h2.5l-3.9-6.1c2.02-.248 3.3-1.328 3.3-3.8 0-2.723-1.53-3.9-4.7-3.9zm1.9 1.7h3.1c1.46 0 2.7.495 2.7 2.2 0 2.121-1.53 2.2-3.3 2.2h-2.5z"/></g></svg>