<svg viewBox="0 0 584 100" xmlns="http://www.w3.org/2000/svg"><g id="figure" fill="#fff"><path d="m144.4 6 85.8 30.1c6.6 2.3 9.8 8.1 9.8 13.9s-3.2 11.6-9.8 13.9l-85.8 30.1c-7.5 2.6-15.5 4-23.4 4s-15.7-1.3-23.3-4l-85.9-30.1c-6.6-2.3-9.8-8.1-9.8-13.9s3.2-11.6 9.8-13.9l85.9-30.1c7.5-2.6 15.4-4 23.3-4s15.8 1.3 23.4 4zm64.6 43h-52.7c-.7 0-1.3-.7-1.3-1.4v-19c0-.8-.8-1.4-1.6-1.2l-56.4 14c-.8.2-1.7-.4-1.7-1.2l-.1-11.4c0-.9-.8-1.5-1.7-1.2l-60.8 21.2c-1.2.4-.9 2.2.4 2.2h52.7c.7 0 1.3.6 1.3 1.3v19c0 .8.8 1.5 1.6 1.3l56.5-14c.8-.2 1.6.4 1.6 1.2v11.3c0 .9 1 1.6 1.8 1.3l60.7-21.2c1.2-.4 1-2.2-.3-2.2z"/><path d="m319.2 27.8v-8.3c0-.7-.6-1.3-1.3-1.3h-54c-1.6 0-2.9 1.4-2.9 3v24.6c0 1.6 1.3 3 2.9 3h41.9c.2 0 .4.3.4.5v8.2c0 .2-.2.5-.4.5h-43.6c-.7 0-1.2.6-1.2 1.3v8.3c0 .7.5 1.3 1.2 1.3h54c1.6 0 3-1.4 3-3v-24.9c0-1.6-1.4-3-3-3h-41.8c-.2 0-.4-.2-.4-.4v-8.1c0-.2.2-.4.4-.4h43.5c.7 0 1.3-.6 1.3-1.3z"/><path d="m371.4 38h-31.2c-.3 0-.5-.2-.5-.5v-18c0-.7-.6-1.3-1.3-1.3h-10.4c-.7 0-1.3.6-1.3 1.3v48.1c0 .7.6 1.3 1.3 1.3h10.4c.7 0 1.3-.6 1.3-1.3v-18.3c0-.3.2-.5.5-.5h31.2c.3 0 .5.2.5.5v18.3c0 .7.6 1.3 1.3 1.3h10.5c.7 0 1.3-.6 1.3-1.3v-48.1c0-.7-.6-1.3-1.3-1.3h-10.5c-.7 0-1.3.6-1.3 1.3v18c0 .3-.2.5-.5.5z"/><path d="m405.4 57.5v-28c0-.2.3-.4.5-.4h31.3c.2 0 .5.2.5.4v28c0 .2-.3.5-.5.5h-31.3c-.2 0-.5-.3-.5-.5zm-11.7 11.4h55.7c.7 0 1.3-.6 1.3-1.3v-48.1c0-.7-.6-1.3-1.3-1.3h-55.7c-.7 0-1.2.6-1.2 1.3v48.1c0 .7.5 1.3 1.2 1.3z"/><path d="m459.5 68.9h55.7c.7 0 1.2-.6 1.2-1.3v-8.3c0-.7-.5-1.3-1.2-1.3h-43.6c-.2 0-.4-.3-.4-.5v-28c0-.2.2-.4.4-.4h43.6c.7 0 1.2-.6 1.2-1.3v-8.3c0-.7-.5-1.3-1.2-1.3h-55.7c-.7 0-1.3.6-1.3 1.3v48.1c0 .7.6 1.3 1.3 1.3z"/><path d="m537.1 52.1 28.6-33.4c.2-.3.5-.5.9-.5h14.6c.6 0 1 .8.6 1.2l-20.3 23.3c-.4.5-.4 1.2 0 1.7l20.3 23.4c.4.4.1 1.1-.5 1.1h-14.7c-.4 0-.7-.2-.9-.5l-12.3-13.5c-.5-.6-1.4-.6-1.9 0l-11.1 13.5c-.2.3-.5.5-.9.5h-14.9c-.7 0-1.3-.6-1.3-1.3v-48.1c0-.7.6-1.3 1.3-1.3h10.5c.7 0 1.2.6 1.2 1.3v32.3c0 .4.5.6.8.3z"/><path d="m327.8 74.9c-.7 0-1.2.5-1.2 1.2v3.6c0 .7.5 1.2 1.2 1.2h.4c.2 0 .4.2.4.4v9.5c0 .2-.2.5-.4.5h-.4c-.7 0-1.2.5-1.2 1.2v3.6c0 .7.5 1.2 1.2 1.2h20.5c2.2 0 3.9-1.7 3.9-3.9v-15c0-2-1.9-3.4-3.9-3.5zm17.7 6.7v9c0 .4-.3.7-.7.7h-9c-.3 0-.5-.3-.5-.5v-9.5c0-.2.2-.4.5-.4h9c.4 0 .7.3.7.7z"/><path d="m383.6 74.9h-23.1c-.7 0-1.3.5-1.3 1.2v19.9c0 .7.6 1.3 1.3 1.3h23.1c.7 0 1.2-.6 1.2-1.3v-19.9c0-.7-.5-1.2-1.2-1.2zm-17.7 15.9v-9.4c0-.3.2-.5.5-.5h11.3c.3 0 .4.2.4.5v9.4c0 .3-.1.5-.4.5h-11.3c-.3 0-.5-.2-.5-.5z"/><path d="m416.7 74.9h-23.1c-.7 0-1.3.5-1.3 1.2v19.9c0 .7.6 1.3 1.3 1.3h23.1c.7 0 1.3-.6 1.3-1.3v-3.4c0-.7-.6-1.3-1.3-1.3h-17.2c-.2 0-.4-.3-.4-.5v-9.5c0-.2.2-.4.4-.4h17.2c.7 0 1.3-.6 1.3-1.3v-3.5c0-.7-.6-1.2-1.3-1.2z"/><path d="m449.3 74.9h-23.1c-.7 0-1.3.5-1.3 1.2v3.5c0 .7.6 1.3 1.3 1.3h7.7c.2 0 .5.2.5.4v14.7c0 .7.6 1.3 1.3 1.3h4.1c.7 0 1.3-.6 1.3-1.3v-14.7c0-.2.3-.4.5-.4h7.7c.7 0 1.3-.6 1.3-1.3v-3.5c0-.7-.6-1.2-1.3-1.2z"/><path d="m482.4 74.9h-23c-.7 0-1.3.5-1.3 1.2v19.9c0 .7.6 1.3 1.3 1.3h23c.7 0 1.3-.6 1.3-1.3v-19.9c0-.7-.6-1.2-1.3-1.2zm-17.6 15.9v-9.4c0-.3.2-.5.5-.5h11.2c.3 0 .5.2.5.5v9.4c0 .3-.2.5-.5.5h-11.2c-.3 0-.5-.2-.5-.5z"/><path d="m512.8 93.2c1.6-.1 3.5-1.3 3.5-3.6v-11.2c0-2-1.6-3.5-3.6-3.5h-20.6c-.7 0-1.3.5-1.3 1.2v19.9c0 .7.6 1.3 1.3 1.3h4.1c.7 0 1.3-.6 1.3-1.3v-2.8h5.9c.4 0 .8.1 1 .4l2.5 3.2c.2.3.6.5 1 .5h6.4c.4 0 .6-.4.4-.7l-2.2-2.7c-.4-.5-.2-.7.3-.7zm-4.5-6.2h-10.3c-.2 0-.4-.3-.4-.5l-.1-5.2c0-.2.2-.4.5-.4h10.4c.7 0 1.2.5 1.2 1.2v3.6c0 .9-.8 1.3-1.3 1.3z"/></g></svg>