<svg viewBox="0 0 150 100" xmlns="http://www.w3.org/2000/svg" xmlns:xlink="http://www.w3.org/1999/xlink"><g fill="#696566"><path d="m18.82 20.38-4.16-1.07v-6.73l-3.26-1.15v22.04h5.95v6.14h-6.02l.01 28.51 3.35-1.19v-10.94l4.78-1.62v16.15l-17.46 7.01v-5.48l3.13-1.45-.02-61.68-3.12-1.42v-5.5l16.82 6.8z"/><path d="m29.32 16.76-1.73-.42s2.62 27.16 2.75 27.1c-.01.02 2.07-25.99 2.07-25.99l-1.54-.34v-5.01l8.41 1.74v4.96l-1.67-.3-4.88 48.51-4.94 1.18-5.81-53.32-1.53-.44v-5.13l8.88 2.42z"/><path d="m55.15 26.63-3.78-.39v-5.73l-2.84-.33v14.59l4.94-.01.01 5.41h-4.95v19.18l3.03-.35.01-8.68 4.38-.43v13.56l-15.64 2.06v-4.96l2.52-.4v-40.77l-1.89-.3v-4.95l14.21 1.87z"/><path d="m64.8 35.32v-13.79l3.47.13v13.66zm8.73 7.36c-.03-3.19-1.92-3.91-1.92-3.91.81-.6 1.87-1.58 1.88-3.13 0-1.76-.01-9.48-.01-13.67-.12-1.59-.42-4.69-5.26-5.12-1.59-.18-11.27-.68-11.27-.68v4.88l2.52.19-.01 37.05-1.86.13.01 4.88 9.1-.53-.01-4.86-1.97.07v-16.61c0-.01 3.85 0 3.85 0l.01 15.71c.13 3.68.34 5.78 6.44 5.57 0 0 .01-4.84 0-4.85-1.48-.01-1.5-1.19-1.5-1.19z"/><path d="m86.29 21.39-2.29.11.01 36.51 3.25.18v-9.37l4.45.24v14.35l-15.07-.74v-4.86l1.86.03.01-36.14-2.32.03v-4.86l10.11-.35z"/><path d="m101.79 47.43 1.27-13.87 1.4 14.23zm9.49 13.74-6.02-46.71-4.58.67-5.4 43.72-1.84-.17v4.88l8.79 1.06v-4.93l-1.45-.19.53-6.5 3.48.48.52 6.66-1.59-.24v4.94l9.3 1.66v-4.98z"/><path d="m125.97 21.81-4.21 1.39v-7.16l-3.12.77v9.84c0 .29-.01.7.16 1.17 1.36 3.8 7.78 12.54 8.82 15.36.08.21.14.83.14 1.03 0 3.9.01 21.27.01 23.7 0 1.15-1.24 1.88-2.2 1.68-1.88-.39-7.29-1.8-9.44-2.43-.48-.14-1.37-1.01-1.37-2.16-.01-3.01 0-11.05 0-11.05l4.56 1v7.93l2.99.74v-17.92c0-.21-.07-.74-.13-.89-1.05-2.71-7.29-11.67-8.74-15.04-.27-.64-.32-1.19-.32-1.68v-12.96c0-1.03.95-2.17 1.86-2.49 1.81-.65 6.84-2.15 9.29-2.69.85-.19 1.71.47 1.7 1.39z"/><path d="m146.19 14.6-3.85 1.54v-6.92l-2.65 1.09.02 58.91 2.21.9v5.34l-10.2-3.97v-5.15l2.46.83-.01-54.84-2.65.9v6.74l-3.71 1.27.01-11.96 18.34-7.27z"/><path d="m145.81 74.65h-.41v.98h.43c.48-.01.73-.2.74-.48-.01-.47-.37-.49-.76-.5zm.06-.33c.34 0 .58.03.74.1.28.12.42.35.42.69 0 .24-.09.42-.27.53-.09.06-.23.11-.4.13.21.04.37.13.47.27s.15.28.15.42c0 .13 0 .28.01.4 0 .08.03.12.05.18h-.46c-.03-.04-.02-.1-.02-.14v-.22c0-.31-.09-.52-.26-.62-.11-.06-.28-.09-.53-.09h-.37v1.07h-.48v-2.72zm-1.46-.14c-.41.42-.62.92-.62 1.51s.21 1.1.61 1.52c.42.42.92.63 1.51.63s1.09-.21 1.5-.63c.42-.41.62-.92.62-1.52 0-.59-.21-1.09-.62-1.51-.41-.41-.92-.62-1.5-.62s-1.09.21-1.5.62zm1.5 3.99c-.69 0-1.27-.24-1.75-.72-.48-.49-.72-1.07-.72-1.76 0-.68.24-1.26.72-1.74s1.06-.72 1.74-.72c.69 0 1.27.24 1.75.72s.73 1.06.73 1.74c0 .69-.25 1.28-.73 1.76s-1.07.72-1.75.72z"/></g><g fill="#fdc835"><path d="m105.25 78.4c-12.94.27-24.68 3.94-33.61 9.7-.58.37-1.28.3-1.59.17-1.44-.55-8.26-3.12-8.48-3.2-.25-.1-.81-.18-.34-.8 1.07-1.41 2.97-2.45 4.47-3.31 2.54-1.46 5.53-2.63 8.29-3.57-1.87.12-3.86.41-5.55.75-4.07.85-8.41 2.14-12.01 4.28-.59.35-1.37.06-1.37.06l-5.2-1.88s-.87-.26.05-.75c5.91-3.2 12.85-5.42 20.37-6.53.88-.13 1.76-.24 2.65-.34-2.12-.16-4.47-.21-6.36-.17-11.3.24-21.69 3.04-30.08 7.61-.33.19-.37.65-.1.76 3.74 1.74 36.19 16.74 36.24 16.76.37.17.85-.03 1.07-.33 6.48-8.5 17.52-15.03 30.83-17.89 2.32-.51 4.72-.89 7.17-1.15-2.13-.12-4.27-.21-6.47-.17z"/></g></svg>