<svg viewBox="0 0 395 100" xmlns="http://www.w3.org/2000/svg"><g id="figure"><g fill="#fff"><path d="m2.1 2h20.3c15.5 0 24.4 6.4 24.4 19.3 0 6.5-3.2 12-9.3 15.6 7.9 5 11.1 9.1 11.1 18.5 0 14.8-10 21.6-25.3 21.6h-21.2zm19.4 29.7c6.5 0 10.8-3.8 10.8-8.9 0-5.5-3.2-9-10-9h-5.8v17.9zm-5 33.4h6c7.5 0 11.6-4.3 11.6-10.8 0-7.2-5.1-10.7-12.6-10.7h-5z"/><path d="m72.2 20.1c-13.2 0-20 5.6-20 20.4v16.1c0 14.8 6.8 20.4 20 20.4s20.1-5.5 20.1-20.4v-16.1c0-14.9-6.9-20.4-20.1-20.4zm.1 10.5c4.6 0 7.7 2.2 7.7 6.6v22.7c0 4.4-3.1 6.6-7.7 6.6s-7.7-2.3-7.7-6.6v-22.7c0-4.3 3.1-6.6 7.7-6.6z"/><path d="m124.3 2.1v19.1c-4.1-1.5-8.7-1.3-13.1-1.2-10.4.3-14.5 7.7-14.5 21.8v13.4c0 14.1 4.2 21.8 14.5 21.8 5.3 0 10.4-.7 13.1-3.9v3.9h13.1l.1-74.9zm0 60.5c-2.6 2.7-5.2 3.9-8.1 3.9-3.6 0-8-1.2-8-12.2v-11.7c0-10.9 2.8-12.4 7.7-12.5 7-.1 8.4 3.2 8.4 3.2z"/><path d="m144.2 86.2c1.2.2 2.5.2 3.9.2 5.8 0 9.6-5 9.6-7.5 0-3.4-1.1-7.3-2.5-12.1l-13.2-46.1h13.4l9 37.8h.2l8.2-37.8h13.4l-15.2 56.9c-4.1 15.4-9.4 20.4-22.6 20.4-1.2 0-2.8-.1-4.2-.2z"/><path d="m240 2.1-9.1 33.1c-1.2 4.6-2.2 10.1-2.2 10.1h-.2s-.9-5.6-2.1-10.1l-9.1-33.1h-22.9l-8.6 74.7h19l3.3-38.5c.4-5.1.7-11.1.7-11.1h.2s1.1 5.8 2.6 11.1l10.9 38.5h12.2l11-38.5c1.4-5.3 2.6-11.1 2.6-11.1h.2s.3 6 .7 11.1l3.3 38.5h19l-8.7-74.7z"/><path d="m303.2 19.6c-9.4 0-18.3 2.1-23.4 4.1l4.7 13.2c4.2-1.6 10.7-3.3 16.2-3.3 5.1 0 7.4 1.9 7.4 4.8v1.4c-16.8 1-31.4 4.8-31.4 19.1 0 12.2 10.5 18.9 28.9 18.9 9.4 0 15.5-1.2 21.3-3v-33.8c0-15.2-7.4-21.4-23.7-21.4zm4.9 44.7c-1.5.3-3 .4-4.5.4-4.8 0-8.2-1.8-8.2-5.6 0-6.2 4.6-6.6 12.7-6.9z"/><path d="m331.7 20.9 17.2 27-18.9 28.9h23.1l8.2-15.5h.2l8.2 15.5h23.2l-18.9-28.9 17.2-27h-22.6l-7.1 14.4h-.2l-7.1-14.4z"/></g></g></svg>