<svg viewBox="0 0 416 100" xmlns="http://www.w3.org/2000/svg"><g id="figure" fill="#181a1d"><path d="m78.5 18.2c.2-.4 0-.9-.5-.9h-10.4c-.9 0-1.6.5-1.9 1.1l-17.1 26.3c-.3.4-.8.4-1.1 0l-17.1-26.3c-.4-.7-1.1-1.1-1.9-1.1h-10.4c-.5 0-.7.6-.5.9l21.4 31.9c.6.9 1.1 2 1.2 3.1l6 43.9c.1.5.4.9.9.9h1.8c.4 0 .9-.4 1-.9l6-43.9c.1-1.1.6-2.2 1.2-3.1m28.2-48.1h-74.5c-.3 0-.5.4-.4.9l5.5 10.6c.1.2.5.4.9.2 9.7-5 20.3-7.5 31.2-7.5s21.5 2.5 31.2 7.5c.3.2.8.2 1-.2l5.4-10.6c.2-.3.1-.9-.3-.9zm-32 95.7c11.3-1.5 21.7-7 29.2-15.6s11.5-19.7 11.5-31.1c-.1-11.4-4-22.5-11.5-31.2-.3-.4-1.2-.2-1.2.4-.9 9.3-2.6 18.4-5 27.4-5.6 21.4-14.5 39.3-23.4 49.3-.4.5 0 .9.4.8zm-10.6 0c-11.4-.9-21.7-7-29.2-15.6s-11.5-19.8-11.5-31.1c0-11.4 4.1-22.5 11.6-31.2.4-.5 1.2-.2 1.2.4.9 9.3 2.5 18.4 4.9 27.4 5.7 21.4 14.5 39.3 23.4 49.3.2.2.3.9-.4.8z"/><path d="m161.6 28.4v44.2h-7.2v-18.8h-34.9v18.8h-.5l-6.7-6.7v-37.5h7.2v18.8h34.9v-18.8z"/><path d="m209.8 28.4h8.5l-22.2 27.6v16.6h-7.2v-16.6l-22.2-27.6h8.5l17.3 20.1z"/><path d="m229.1 72.7c-4.4 0-7.9-3.6-7.9-7.9v-28.2c0-4.4 3.6-7.9 8-7.9h28c4.3 0 8 3.5 8 7.9v2.7h-6.7v-1.7c0-1.6-.7-2.3-2.2-2.3h-26.2c-1.4-.1-2.3.9-2.3 2.3v26.3c0 1.3.8 2.2 2.3 2.2h26.2c1.3 0 2.2-.6 2.2-2.2v-8.6h-10.3v-.5l6.1-6.2h10.9v16.2c0 4.3-3.6 7.9-8 7.9z"/><path d="m272 72.7v-44h40.3v6.6h-33.6v12.1h27.1v6.7h-27.1v12h33.7v6.6z"/><path d="m319.2 72.7v-36.1c0-4.4 3.6-8 7.9-7.9h28.1c4.3 0 8 3.4 8 7.9v36.1h-6.7v-15.4h-30.7v15.4zm6.6-22h30.7v-13.1c0-1.7-.8-2.3-2.3-2.3h-26.2c-1.3 0-2.2.9-2.2 2.3z"/><path d="m370 72.7v-44h36c4.4 0 8 3.6 8 8v12.4c0 4.4-3.7 7.9-8 7.9h-4.4l12.2 15.3v.4h-7.7l-13.2-15.7h-16.4v15.7zm8.8-22.4h26.3c1.5 0 2.2-.6 2.2-2.2v-10.5c0-1.6-.8-2.3-2.2-2.3h-26.3c-1.2-.1-2.2.8-2.2 2.3v10.5c0 1.3.9 2.2 2.2 2.2z"/></g></svg>