<svg viewBox="0 0 238 100" xmlns="http://www.w3.org/2000/svg" xmlns:xlink="http://www.w3.org/1999/xlink"><g id="figure" fill="#fff"><path id="e" d="m187.7 3.5v43.5h10.3v-9.8l6.4 9.8h12.3l-7.7-11.5c6.8-4.7 8.2-9.1 8.2-15.7 0-6.8-4.6-16.3-18.5-16.3zm11.1 10.1h2.6c1 0 1.9.2 2.5.7 2.2 1.7 2.2 3.2 2.2 5.5s-.2 4.4-2.2 5.9c-.7.5-1.4 1-2.5 1h-2.6z"/><path id="m" d="m80.4 3.5-4.7 43.5h10.3l2.3-21.7 6 12c1.3 2.4 1.9 2.4 3.4 0l6-12 2.3 21.7h10.3l-4.7-43.5h-7.4l-8.2 16.3-8.2-16.3z"/><path id="r" d="m160.9 3.5h23.5v10.3h-13.3v6.2h11.4l2.6 10.3h-13.9v6.6h13.3v10.1h-23.6v-16.8l-2.5-10.3h2.5z"/><path d="m12.8 55.9v-53.6h10.3v17.1h8.2v-17.1h10.2v43.5h-10.2v-16.2h-8.2v17.5z"/><path d="m60.9 2c-7.7-.1-15.4 5.4-15.3 15.6v3h-2.4l2.3 10.4v16h10.3v-16.1h8.3v16.1h10.1v-26.4-3c0-10.3-6.8-15.5-13.3-15.6zm-1.9 10.3c1.6 0 3.3.9 3.3 2.7v5.7h-6.6v-5.7c0-1.8 1.6-2.7 3.3-2.7z"/><path d="m2.7 84.5c4.8.6 11.9 1.8 11.9-2.9 0-3.2-3-4.1-6.2-6.6-3.6-2.8-6.1-5.1-6.1-11.9 0-3.5 1.9-7.1 5.7-9.2 3.6-2 9-2.6 14.1-1.5v9.6c-6.5-.9-8.1.9-8.2 3 0 2.1 2.8 3.4 6.3 5.6 4 2.6 6 5.7 6 11.2 0 6.2-3.6 11.9-11.6 13.5-3.2.6-7.5.2-11.9-.4z"/><path d="m23.8 53.3h22.8v10.3h-6.3v33.2h-10.3v-33.2h-6.3z"/><path d="m105.1 96.8v-43.5h9.7l11.8 11.6v-11.6h10.3v43.5h-10.1v-17.7l-11.4-10.9v28.6z"/><path d="m169.3 63.4c-12.4-5-20.9.5-21.2 10 .2 8.5 5 11.7 10.9 12.6v-17.3h10.3v27.3c-2.8 1.2-6.9 1.9-10.3 1.9-12.9 0-23.2-11.5-23.2-22.2 0-15 12.3-23.5 23.2-23.5 4.3 0 7 .8 10.3 2.2z"/><path d="m171 53.3h22.8v10.3h-6.3v33.2h-10.3v-33.2h-6.3z"/><path d="m206.7 96.8h-10.2v-16.2l-2.6-10.1h2.6v-17.2h10.3v17.2h8.3v-17.2h10.1v43.5h-10.1v-16.2h-8.3z"/><path d="m231.5 52.6c-2.5 0-4.4 1.8-4.4 4.2s1.9 4.3 4.4 4.2c2.8 0 4.2-2.1 4.2-4.2s-1.5-4.2-4.2-4.2zm0 .7c1.9 0 3.6 1.5 3.6 3.6 0 2-1.7 3.6-3.6 3.6s-3.6-1.6-3.6-3.6 1.6-3.6 3.6-3.6zm-1.8 1.1v4.8h.7v-2.1h1l1.1 2.1h.8l-1.1-2.1c.8-.1 1.1-.5 1.1-1.4 0-1-.4-1.4-1.7-1.4zm.7.5h1.1c.6 0 1.1.2 1.1.8 0 .8-.5.8-1.2.8h-1z"/><use transform="translate(-138.5 49.8)" xlink:href="#e"/><use transform="translate(41.7)" xlink:href="#m"/><use transform="translate(-81.5 49.8)" xlink:href="#r"/></g></svg>