<svg viewBox="0 0 323 100" xmlns="http://www.w3.org/2000/svg"><g id="figure"><path d="m67.7 38.3c1.7 1.2 3.9 1.7 6.5 1.7 6.3 0 14.7-3.1 22.1-6.5-2.1-5.7-5.2-10.8-9.2-15.2 0 .2.1.2.1.4.6 5.2-4.2 10.1-10.8 10.9s-12.4-2.9-13-8.1 4.1-10.1 10.7-10.9c1.6-.2 3.1-.1 4.5.2-8-5.5-17.6-8.8-28.1-8.8-19.8 0-36.9 11.6-44.5 28.3 11.2-9.5 31.2-15.6 42.1-11.7s10.7 12.4 19.6 19.7z"/><path d="m49 63c-1.7-6.2-9.8-8.4-20.4-13.1 0 0 28.7-2.3 30.6 9.8s-20.8 32.1-20.8 32.1 13.4-16.9 10.6-28.8zm-13-36.7c-11.3 0-23.2 6.9-23.2 15 0 13.4 14.3 9.1 28.7 18.7 9.3 6.2-1.7 23.2-10.2 34.1 5.9 2.5 12.4 3.9 19.2 3.9 7.2 0 14-1.6 20.1-4.3-5.9-4.1-9.8-10.9-9.8-18.5 0-12.6 10.3-22.7 23.1-22.7 5.6 0 10.8 2 14.8 5.2.4-2.5.6-5.1.6-7.7 0-4.2-.6-8.2-1.6-12.1-6.6 4.8-14.6 8.9-22.3 10.8-7.8 2-17.1-5.3-24.1-15.7-3.2-4.7-9.4-6.7-15.3-6.7z"/><path d="m2 55.4c1.8 16 11.6 29.6 25.4 36.9 2.2-5.9 3.9-11.1 3.9-15.5 0-7.1-4.6-12.6-19-16.7-4.4-1.3-7.8-2.8-10.3-4.7z"/><path d="m146.6 91.8h-19.2v-83.5h19.2z"/><path d="m225.3 89.5c-3.5 1.7-11.4 3.6-21.7 3.6-29.3 0-44.3-18-44.3-41.8 0-28.5 20.7-44.4 46.3-44.4 9.9 0 17.4 2.1 20.8 3.8l-3.9 15c-3.9-1.6-9.2-3.1-16-3.1-15.2 0-27 9-27 27.6 0 16.7 10 27.2 27.1 27.2 5.8 0 12.1-1.2 15.9-2.7z"/><path d="m304.8 88c-5.9 2-17.1 4.7-28.3 4.7-15.5 0-26.6-3.9-34.4-11.3-7.8-7.2-12-18-11.9-30.3.1-27.7 20.6-43.6 48.3-43.6 10.9 0 19.4 2 23.5 4l-4 15.1c-4.7-2-10.4-3.5-19.7-3.5-15.9 0-28 8.9-28 27 0 17.2 10.9 27.3 26.6 27.3 4.4 0 7.9-.5 9.4-1.2v-17.5h-13v-14.7h31.5z"/><path d="m315.2 18.3c-3.3 0-5.9-2.4-5.9-5.6 0-3.1 2.6-5.7 5.9-5.7s5.8 2.6 5.8 5.7c0 3.2-2.5 5.6-5.8 5.6zm0-1.1c2.5 0 4.3-2 4.3-4.5s-1.8-4.5-4.3-4.5-4.4 2-4.4 4.5 1.9 4.5 4.4 4.5zm-1-1.6h-1.3v-5.6c.5-.1 1.3-.2 2.2-.2 1.1 0 1.6.1 2 .4s.6.7.6 1.2c0 .7-.5 1.2-1.2 1.4 0 0 .7 0 1 1.4.2.9.3 1.2.4 1.4h-1.4c-.2-.2-.3-.7-.4-1.4-.1-.6-.5-.9-1.2-.9h-.7zm0-3.2h.7c.7 0 1.3-.2 1.3-.8 0-.5-.3-.9-1.2-.9-.4 0-.6.1-.8.1z"/></g></svg>