<svg viewBox="0 0 588 100" xmlns="http://www.w3.org/2000/svg"><g id="figure"><path d="m123.8 19.4c4.2-2.7 7.7-5 11.7-8 5.8-4.2 6.6-6.1-4-8.5-8.5-1.9-11.2-2.7-20.2 2.7-12.5 7.1-49.4 32.9-86.8 68.7-9.6 1.6-17.5 5.3-20.7 7.7-3.2 2.4-3.5 2.9-.3 7.4 4.2 6.1 4.2 6.4 11.1 2.9 3.7-1.9 9.3-5 14.1-8.8 21.2-4 68.7-4.2 127.1 12.2 5.3 1.6 6.6 2.4 2.9-5.8-3.7-8-3.2-7.4-13.3-9.8-37.8-9.5-78.1-10.6-101.5-8.5 23.6-19.6 41.9-35 65.3-49.1 8.8.3 8.8.5 14.6-3.2z"/><path d="m141.8 16.4c-5.3 1.6-5.8 1.6-5.6 6.9.3 6.1.8 6.1 4.5 4.8s21.8-6.9 26.8-8.5c4-1.1 4-2.1 3.5-5.8-1.1-5.6-1.9-5-7.2-3.7-4.2 1.1-16.5 4.8-21.8 6.6z"/><path d="m92.7 58.9c-2.7 2.9-2.7 1.9-.3 9 1.1 3.5 2.1 8.5 6.9 2.9s26.8-23.9 31.1-27.3c4.2-3.5 4.2-4 .5-10.4-4-6.9-5.6-5-9.6-1.9-4 3.2-19.9 17-28.9 27.3z"/><path d="m214.3 34.7c8-3.5 12.5 3.5 3.7 5.3-4.5 1.1-9 2.4-13.8 2.7 4-3.5 8.2-7.2 10.1-8zm-39.8-15.6c-5.8 5-12.2 10.9-18.8 17.5-7.4-1.9-13.8-4-15.1-4.5-1.9-.8-2.9-.5-2.7 2.1.5 4.2 1.9 8.2 9 11.1-5.6 5.8-11.1 12.2-17.3 19.1-2.4 2.9-2.4 3.2.8 8.2 2.9 4.5 4.5 3.7 6.4 1.6 6.4-6.6 14.9-15.9 24.2-24.9 6.1 1.3 13 2.1 17 2.7-1.6 2.1-3.2 4-4.5 6.1-2.7 3.7-2.1 6.4.5 10.9 2.7 4.5 6.1 8.2 16.5 4.2 10.1-4 19.1-10.4 21.2-13.5 2.1-3.5 2.4-4-2.9-2.7-5.3 1.6-12.2 4.8-22.8 6.1 1.6-2.9 4.2-6.4 7.4-10.1 9 .5 22 .3 32.9-5 6.9-3.5 5.6-9.6 1.6-15.7-4-5.8-8.2-10.1-20.4-5-7.2 2.9-14.3 8.5-21 14.9-4.8-.5-11.9-1.3-15.9-2.1 8.5-8 17.5-15.1 26.5-20.2 8.8-5 13.3-4.2 15.1-.3 1.1 2.7 3.2 3.7 5.6 1.9 2.4-1.9 4-5 3.7-8.5-.5-7.7-5.3-12.5-14.3-11.9-11.4.5-20.2 6.9-32.6 17.8z"/><path d="m351.2 5.3c-35 0-66.1 3.7-97.7 9.3-5.6 1.1-4.8 2.1-2.7 6.6s4 4.8 6.1 4.2c4-.5 8-1.3 12.5-2.1-4.5 4-9.3 8.5-14.1 13.3-5 .8-10.4 1.6-15.1 2.7-4.8 1.1-4.2 1.3-2.7 6.1 1.3 3.7 2.1 5 4 4.5h.8c-10.4 10.9-19.9 22.3-26.8 31.8-2.4 3.5-2.9 5-.5 11.1 2.7 7.2 3.7 7.7 6.6 3.5 9-11.9 26-31.8 43-49.4 10.9-.8 22.3-1.3 36.9-.8 4.5.3 4.5-1.6 2.1-7.4-1.9-5.3-2.4-5.6-5.3-5.6-5.6 0-13 .3-21 1.1 6.1-5.8 11.9-11.1 16.7-14.9 9-1.1 21.8-2.1 31.6-1.9 2.1 4 3.7 4 7.4 3.5s13.5-1.6 19.1-2.7c5.8-1.1 6.1-1.9 4-7.4-2.1-5.3-2.4-5.3-5-5.3z"/><path d="m485.5 36.6c7.2 1.3-2.4 7.2-22 15.1 5.6-8.2 15.9-16.5 22-15.1zm8.8 33.7c5.3-3.5 15.7-8.2 21.8-11.7 4.8 5-2.9 10.1-21.8 11.7zm-115.2-50.9c-9.3 1.3-18.6 2.9-28.1 4.5-6.9 1.3-5.3 2.7-4 7.2 1.1 3.7 2.1 5.3 5.8 4.2 3.5-.8 7.2-1.6 10.6-2.4-11.9 7.2-32.1 17.8-49.9 27.9 8.8-9 16.2-15.9 19.1-18.3 2.9-2.7 2.1-3.5-.8-8.2-3.2-5.3-3.5-6.9-7.4-3.7-4 3.2-23.9 24.2-34.5 36.1-2.7 2.9-1.6 5.3 1.9 9 3.7 3.7 4.5 4.8 11.1 1.1 6.4-3.7 35.8-21 52.8-32.9-10.6 11.1-20.2 21.8-24.7 26.3-2.7 2.9-1.9 4 1.9 7.4 3.7 3.5 4.5 4.8 11.1 1.1 5.6-3.2 36.9-24.9 55.7-38.5-8 7.4-17.5 17.3-24.4 26.3-2.4 3.2-2.4 4 1.3 8.2s4.5 4.5 8 1.1c3.5-3.5 23.1-20.7 40.6-28.1-8.2 11.7-13 17.3-15.7 20.4-2.7 3.2-1.3 4.8 3.5 8.5 4 3.2 4.2 2.7 9-.5 7.2-4.5 15.4-7.7 23.9-11.1.5 5.6 3.2 11.9 8.2 11.9 6.1 0 29.2-13 51.5-28.7 1.9 2.1 3.7 4 5.6 5.3-8.5 4-16.2 7.7-21.5 10.9-4.2 2.4-4.8 2.1-2.9 6.6 1.9 4.2 1.1 4.8 4.5 5 28.9 3.5 40.1-5.6 40.1-14.9 0-4-2.4-6.6-4.8-8.8 5-2.4 12.5-5 18.8-7.4 2.1 8.5 12.7 9.3 13.5 14.9.8 4.8-15.4 6.9-21.5 5.8s-4 2.4-.3 5.6c4.2 3.7 5 5.8 13.8 5 12.5-.8 24.7-5.6 24.7-13.5 0-11.1-13-15.7-15.1-20.2-1.6-3.7 3.7-5.3 10.6-4.2 2.7 3.2 2.1 3.2 8 2.1 2.7-.5 5-1.1 6.1-1.3 1.6-.3 1.3-.3 1.1-2.4-.3-.8-.3-2.1-.8-3.7-.8-2.9-1.1-3.5-18.6-4.8-11.1-.8-21 4.2-21.8 12.2-6.6 2.1-15.9 4.8-23.4 8-7.7-6.4-7.4-10.6 1.3-10.6 6.9 0 10.9.5 12.5.8 3.7.5 4.8-.8 4.2-4.8-.5-3.5-.5-3.5-3.2-4.8-2.7-1.1-8.5-2.4-11.7-2.4-18.3 0-25.2 8.8-21.8 17.3-9.6 5.6-31.3 16.5-36.4 18.6-4.8 2.1-7.7 3.7-6.4-3.5 13.8-4.8 36.4-12.2 36.4-19.4 0-8.8-7.4-11.1-15.4-11.1-18.6 0-31.6 16.7-34.8 28.7-3.5 1.3-9 2.4-13.3 3.7 2.9-4 6.6-11.7 8.5-16.5 2.1-4.8 2.1-5-.8-8-2.9-2.9-2.9-2.9-5.8-2.4-4.5.8-13.5 5-19.6 9 4-4 4.5-4.8 6.1-6.9 1.6-1.9.5-3.5-2.4-6.4-3.2-3.2-3.5-4.2-5.8-2.7-9.8 5.3-34.8 20.4-58.9 34.5 5.8-6.1 23.1-23.1 34.8-34.5 31.3-4.5 66.6-5.8 103.8-2.9 6.4.5 4-1.9.8-5.8-3.2-4-4-5.3-9.3-5.6-23.9-1.6-52.3-.8-83.1 2.7 1.3-1.9.3-2.9-1.9-6.9-3.2-5.3-3.5-6.9-7.4-3.7-1.3 1.1-6.4 6.4-13.5 13.5z"/></g></svg>