<svg viewBox="0 0 622 100" xmlns="http://www.w3.org/2000/svg" xmlns:xlink="http://www.w3.org/1999/xlink"><g id="figure"><path d="m19.5 6.9c-1.3-2.4-2.7-2.5-5.4-2.5h-12.1v86.1h14.1v-55.6c0-1.7 0-4.3-.4-7.2l26.4 48.9c1.6 2.9 4.1 3.5 5.7 3.5h2.2c1.6 0 4-.5 5.6-3.5l26-48.9c-.2 2.2-.3 4.9-.3 7.2v55.6h14.1v-86.1h-12.1c-2.9 0-4 .1-5.3 2.5l-25.5 47.9c-1.5 2.9-2.9 6-3.7 8.1-.7-2-1.9-5.1-3.5-8.1z"/><path id="u" d="m151.4 77.8c-16.6 0-27.4-11.2-27.4-30.3 0-18.7 10.4-30.4 27.4-30.4 16.9 0 27.1 11.6 27.1 30.4 0 19.7-11.2 30.3-27.1 30.3zm0-74.4c-26.4 0-43.8 19-43.8 44.1 0 25.2 17.5 44 43.8 44 26.9 0 43.6-19.7 43.6-44 0-25.3-17.5-44.1-43.6-44.1z"/><path d="m196.5 4.4v13.2h26v72.9h16.1v-72.9h25.9v-13.2z"/><use transform="matrix(1 0 0 1 158.5 0)" xlink:href="#u"/><path d="m379.6 90.5v-44.7c2.8-3.2 6.5-5.9 11.1-5.9 8.6 0 9.8 6.6 9.8 11.7v38.9h14.7v-38.9c0-8.1 5.3-11.7 10.8-11.7 8.1 0 10 5.8 10 11.7v38.9h14.7v-38.9c0-7.4-2.1-23.1-21-23.1-4 0-14.7 1-19.6 11.4-1.9-5.2-6-11.4-15.1-11.4-7.1 0-12.1 3.4-16.4 8.1-.6-3.3-.8-7.2-4.7-7.2h-9v61.1z"/><path d="m503 52.9h-27.7c1.1-7.2 4.8-13.9 14.7-13.9 8.6 0 13 6.1 13 13.9zm-42.6 5.8c0 21.6 13.4 32.7 30.1 32.7 8.8.1 18.9-2.6 25.2-10l-4.3-5.4c-.9-1.3-2.1-1.3-2.7-1.3-.9 0-1.8.2-2.8.8-5.8 3.3-9 4.5-14.1 4.5-12.4 0-16.2-9.1-16.8-18.2h37.8c1.9 0 2.9-.6 3.2-2.9.1-.7.2-1.6.2-2.7 0-17.6-11.1-27.7-26.5-27.7-18.4 0-29.3 13.7-29.3 30.2z"/><path d="m538.7 60.1c0-8.7 2.3-20.6 14.6-20.6 7.2 0 10.3 4 11.5 5.5l.3 27.4c-5.5 6.7-10.3 7.3-13.9 7.3-7.8 0-12.5-5.4-12.5-19.6zm41.1 30.4v-88.5h-14.7v32.3c-4.1-4.1-9.6-5.9-15.3-6-16.1 0-26.3 13.7-26.3 31.8 0 21.6 10.5 31.3 22.7 31.3 7.7 0 13.9-3.1 19.6-9.5l1.2 5.9c.6 1.8 1.9 2.7 3.8 2.7z"/><path d="m604.6 67.2c-8.5 0-15.4 6.9-15.4 15.4s6.9 15.4 15.4 15.4 15.4-6.9 15.4-15.4-6.9-15.4-15.4-15.4zm0 2.6c7.1 0 12.8 5.7 12.8 12.8s-5.7 12.8-12.8 12.8-12.8-5.7-12.8-12.8 5.7-12.8 12.8-12.8z"/><path d="m604.3 82.1h-1.5v-4.3h1.8c2 0 2.6.5 2.6 2 0 1.6-.8 2.3-2.9 2.3zm6.4-2.7c0-4.2-4.4-4.4-6.1-4.4h-5.4v15.1h3.6v-5.4h1c.4 0 .7 0 1 .5l2.4 4.4c.2.4.6.5 1.1.5h3.4l-3-5.1c-.3-.5-.7-.9-1.2-1.3 2.7-.9 3.2-2.9 3.2-4.3z"/></g></svg>