<svg viewBox="0 0 230 100" xmlns="http://www.w3.org/2000/svg" xmlns:xlink="http://www.w3.org/1999/xlink"><clipPath id="a"><path d="m20 20v735h735v-735zm381.8 101.5c-10.4 8.3-20.9 15.5-22.3 32-1.3 15.6-2.4 52.2 53.5 142.8 67.1 108.7 130.4 178.9 142.9 198.4l-482.1-333.6 20.4-22.7 108 64c4.3 2.5 7.2 1.2 11.1-.7 0 0 91.3-45.1 138-67.2 9.9-4.7 20-10 30.5-13zm-192.2 137.2 480.3 329.2-17.2 23.8-109.4-64c-4.3-2.5-7.2-.7-11.1 1.2 0 0-88.8 45.1-135.5 67.2-9.9 4.7-20 10-30.5 13 10.4-8.3 20-16.3 21-32.5 1-15.6 1.2-52.2-54.7-142.8-67.1-108.7-130.4-175.6-142.9-195.1z"/></clipPath><g id="figure" fill="#fff"><g transform="scale(.1)"><path clip-path="url(#a)" d="m385.2 20a365.2 365.2 0 00-365.2 365.2 365.2 365.2 0 00365.2 365.2 365.2 365.2 0 00365.2-365.2 365.2 365.2 0 00-365.2-365.2z"/><path d="m900 70.8h72.5v105.5h63.3v-105.5h72.5v275.1h-72.5v-108.2h-63.3v108.2h-72.5z"/><path d="m1150.2 70.8h192.7v63.7h-120.2v41.8h102.9v61.4h-102.9v44.5l120.2.1v63.6h-192.7z"/><path d="m1463.7 68.8c51.5.2 91.5 29.5 104 93.2h-74.6c-4.9-18.3-14.8-28.7-30.6-28.5-35.8.4-33.4 40.6-33.3 77 .1 35.4-2.4 71.2 32.7 72.3 28.9.9 33-23.8 33.5-33.9h-35v-59.2h107.3v61.3c0 45.6-46.2 96.5-106.3 96.7-39.8.1-71-19.1-84.2-38.7-18.8-27.9-20.6-40.2-20.5-99.8.1-68.8 4.3-81.8 26.5-107 16.9-19.2 48.2-33.5 80.5-33.4z"/><path d="m1600.7 70.8v275.1h72.5v-105.5h18.5l51 105.5h82.8l-61.8-118.2c31.7-19.1 43.4-49.3 43.4-73.4 0-35.6-27.9-83.5-88.9-83.5zm136.2 82.5c.4 22.4-13.6 25.2-22.7 25.2h-41v-46.3h41c9.5 0 22.3 1.7 22.7 21.1z"/><path d="m1843.8 70.8h192.7v63.7h-120.2v41.8h102.9v61.4h-102.9v44.5l120.2.1v63.6h-192.7z"/><path d="m2059.7 70.8h63.6l84.2 139.7v-139.7h72.5v275.1h-63.3l-84.5-139.8v139.8h-72.5z"/><path d="m903.1 491.1v214h16.9v-90.3h62.8c45 0 60.9-35.9 60.6-62-.4-38.9-28.9-61.7-57-61.7zm81.1 15.2c22.4 0 42.3 16.4 42.3 47.5 0 28.7-20.7 45.4-42.3 45.4h-64.2v-92.9z"/><path d="m1077.2 491v16.1h16v-16.1zm0 65v149.2h16v-149.2z"/><path d="m1139.5 491h16.4v182.2c0 5.6 1.5 11.1 6.4 14.4 5.4 3.7 13.6 2.7 19.9 2.9v14.6c-16 0-20.9 0-28.4-3.8-8.1-4.1-14.3-13.2-14.3-26.2z"/><path d="m1212.1 570.6 12.5 9.7c6.7-6 14.4-9.8 23.5-10.6 14.3-1.3 43.4-.9 48.3 22.4 1.9 9 .9 18.8 1.1 28h-47.7c-31.1 0-50.7 19.7-50.8 44.2-.1 33.3 35.3 42.7 48.2 42.7h10c20.9 0 28.5-5 40.4-20.2l-.1 18.3h16.1v-105c0-41-37.9-45.8-56.4-45.8-23.9.1-34.7 7.6-45.1 16.3zm85.4 64.2c0 7.1.7 31.1-8.9 43.1-7.9 9.9-19.4 13.7-31.6 14.3-21 1.1-40.7-8.2-41.5-28.2-1.1-26.9 28-29.2 37.9-29.2z"/><path d="m1374.1 506.2v49.8h26.2v15.2h-26.2v100.1c0 19.4 11.6 19.2 26.2 19.2v14.6h-16.8c-4.6 0-25.9-2.4-25.9-33.8v-100.1h-15.6v-15.2h15.6v-49.8z"/><path d="m1428.4 626.8c0 35.6 5.9 80.3 64.4 80.3 19.9 0 34.7-7.1 46.4-18.3l-11.3-10.2c-9.7 7.7-22.4 14.2-37.7 13.7-32.5-1-44.1-25.7-45-57.5h100.7v-20.5c0-32.5-21.6-59.9-57.7-60-52.5 0-59.8 50.8-59.8 72.5zm58.8-57.5c36.7-.1 42.3 34.3 42.8 51.7h-84.8c1.3-27.3 11.8-50.5 42-51.7z"/><path d="m1678.9 570-9.8 11.8c-15.7-10.4-28.7-12.6-39.4-12.5-36.9.4-39.1 21.9-39 27.9.2 10.9 7.2 19.9 22.1 22.5 13.3 2.3 27.1 2.2 40.4 4.8 25.6 5.1 33.3 23.7 33.3 38.8-.1 27.8-21.5 43.7-59.1 43.7-21.9 0-42.9-8.2-59.5-22.2l10.9-10.9c13.8 12 30.7 18 48.8 18.4 24 .1 42.5-10.2 42.4-29.3-.1-12-11-23.2-26.6-24.9-11.2-1.3-22.6-1.8-33.8-3.3-25.5-3.5-35-19.7-35.2-37.8-.2-16.8 13.1-42.8 54.5-42.8 25.4 0 40.8 9.4 50 15.8z"/><path d="m30.9 888.6 17.6 77.5 19.5-77.5h7l19.6 77.5 17.7-77.5h7.9l-21.6 90.4h-7.7l-19.2-76.8-19.6 76.8h-7.6l-21.7-90.4z"/><path id="b" d="m195.6 946.7c0 12.5 1.9 23.9 11.7 29.6 4.5 2.6 9.7 3.7 14.7 3.7 7.4 0 14.8-2.7 20.6-7.8l-4.9-4.5c-7.9 5.4-17.4 8.3-26 2.9-7.6-4.8-8.2-12.8-9.1-21h42.6v-7.8c0-23.4-18.6-26.5-24.3-26.5-21.9 0-25.3 19.8-25.3 31.4zm42.7-3.4-35.7.1c2-15.2 7-21.3 18.3-21.4 10.3-.1 16.8 8.7 17.4 21.3z"/><path id="c" d="m337.7 888.6v73c0 11.3 3.5 10.4 11.1 11.4v6.1c-11.4-.2-18.3-1-18.3-15.7v-74.8z"/><use transform="translate(100.2)" xlink:href="#c"/><path id="d" d="m578.9 936.5v42.4h-7.5v-38.7c0-17.7-14.2-18.3-16.5-18.3-15 .1-16.9 14.6-16.9 21.8v35.2h-7.1v-62.7h7.1v8.1c4.8-6.5 11.6-9.1 18.7-9.1 14.3 0 22.2 11.6 22.2 21.3z"/><use transform="translate(466.2)" xlink:href="#b"/><path id="e" d="m837 922-4.3 5.2c-4.9-3-11.1-5.2-17.1-5.3-9.6-.2-15.9 4.8-15.9 11.5 0 19.1 40.2.2 40.2 28.2 0 17.3-19.9 18.4-24.1 18.4-12.1 0-18.1-3.8-26.2-9.3 1.6-1.7 3.2-3.3 4.8-4.9 7 5.1 12.8 7.6 21.1 7.6 10.7 0 17.2-5.5 17.3-12 .2-19.7-40.2-.8-40.2-27.7 0-9.7 7.4-18.4 23.3-18.4 7.5 0 14.9 2.5 21.1 6.7z"/><use transform="translate(126.9)" xlink:href="#e"/><path d="m1147 888.6h7.6v90.4h-7.6z"/><use transform="translate(712.1)" xlink:href="#d"/><use transform="translate(845.4)" xlink:href="#d"/><path id="f" d="m1531.7 915.3c-15.1 0-24.7 11.1-24.7 26.6v11.4c0 15.5 9.4 26.7 24.7 26.7h.3c15.6 0 24.7-11.2 24.7-26.7v-11.4c0-15.5-9.5-26.6-24.7-26.6zm.3 6.6c12.2 0 17.6 10.1 17.6 24.2v3c0 14.1-5.1 24.3-17.6 24.3h-.3c-12.5 0-17.6-10.2-17.6-24.3 0-1 0-2 0-3 0-14.1 5.1-24.2 17.6-24.2z"/><path d="m1633.4 916.2h7.8l18.6 52.5 18.4-52.5h7.8l-22.6 62.8h-7.2z"/><path d="m1764.9 922.2 5.1 4.3c4.4-3.2 9.7-4.9 15-4.8 3.4.1 15.6 1.1 15.9 13l.2 8.1h-19c-12.8 0-22.7 7.4-22.6 19.1 0 11 9.4 18 22.1 18 11.6 0 13.8-2.5 19.6-8l-.3 7h7.2v-44c0-16-13-19.6-23.8-19.6-5.5 0-12.9 1-19.4 6.9zm20.6 27.2 15.7.2c.3 15.9-5 23.9-19.4 23.8-2.7-.1-15-1.7-15.1-11.5-.2-10.5 8.8-12.6 18.8-12.5z"/><path d="m1895.8 895.3h7.2v20.9h10.6v6.7h-10.6v38.7c0 11.6 2.1 10 10.7 11.4v6c-10.9-.4-17.9-.3-17.9-13.8v-42.3h-6.7v-6.7h6.7z"/><path d="m1997.8 888.5v7.2h7.6v-7.2zm0 27.7v62.7h7.5v-62.7z"/><use transform="translate(584.1)" xlink:href="#f"/><use transform="translate(1695.3)" xlink:href="#d"/></g></g></svg>