<svg viewBox="0 0 408 100" xmlns:xlink="http://www.w3.org/1999/xlink" xmlns="http://www.w3.org/2000/svg"><g id="figure"><g fill="#fff"><path d="m33.6 78.3c5.7 0 10.1-1.1 13.1-3.3s4.5-5.3 4.5-9.3c0-5.9-2.9-9.9-8.8-11.9-2.1-.7-4.7-1.1-7.8-1.1h-11.9v25.6zm.6-28.6c6.8 0 10.9-2.3 12.2-7 .4-1.4.6-2.9.6-4.5 0-3.8-.8-6.6-2.3-8.3-2.1-2.4-6-3.6-11.7-3.6h-10.3v23.4zm-24.2 28.6v-52h-8v-3h35.4c7.4 0 12.8 1.4 16.4 4.1s5.4 6.2 5.4 10.5c0 5-2.9 8.6-8.6 11-1.7.7-3.5 1.3-5.4 1.7 6 .6 10.7 2.1 13.9 4.7 3.2 2.5 4.8 5.7 4.8 9.4 0 5.1-2.3 9.1-6.9 12.1s-11.2 4.5-19.8 4.5h-35.2v-3z"/><path d="m108 56.8c-.1-3.6-.8-6.4-2.3-8.3s-3.9-2.9-7.2-2.9c-6.8 0-10.7 3.7-11.6 11.2zm11.5 17.1c-4.9 4.9-11.9 7.4-21 7.4-3 0-6.1-.5-9.4-1.5s-6-2.4-8.3-4.1c-4.7-3.7-7.1-8.3-7.1-14s2.4-10.3 7.1-13.9c4.8-3.6 10.8-5.3 18.1-5.3 10.8 0 17.6 3.4 20.3 10.2.9 2.2 1.4 4.6 1.4 7.3h-34v1.1c0 7.8 2.7 12.9 8.2 15.4 1.8.8 4.1 1.2 6.6 1.2 5.7 0 10.9-1.9 15.5-5.6z"/><path d="m147.7 52v26.2h8.6v3h-28.4v-3h7.6v-32.1h-7.7v-3.6h19.9v5.8c4.7-3.9 10.1-5.8 16.1-5.8 4.2 0 7.9.8 11.1 2.5 4.2 2.2 6.2 5.7 6.2 10.4v22.8h7.6v3h-28.4v-3h8.5v-23.6c0-2.9-.4-4.9-1.2-5.9s-1.6-1.8-2.6-2.2-2.2-.6-3.6-.6c-5.1 0-9.7 2-13.9 6z"/><path d="m236.2 75.2c-4 4.1-10.2 6.1-18.5 6.1-2.9 0-6-.4-9.3-1.3-3.2-.9-6-2.2-8.4-3.8-5-3.6-7.6-8.4-7.6-14.4s2.5-10.7 7.4-14.1 11.2-5.2 18.8-5.2c4.3 0 8.3.8 12 2.3s5.5 3.6 5.5 6.4c0 1.5-.6 2.7-1.8 3.6s-2.5 1.4-3.8 1.4c-2.2 0-3.9-.4-5.2-1.2-1.2-.8-1.8-1.9-1.8-3.2 0-2.2 1.1-3.7 3.4-4.5-2.3-1.2-5-1.7-8-1.7-9 0-13.5 5.4-13.5 16.3 0 7.7 2.7 12.6 8.2 14.8 1.8.7 3.9 1.1 6.3 1.1 5.7 0 10.3-1.4 13.8-4.2z"/><path d="m240.1 78.3h7.6v-57.8h-8.1v-3h20.3v30.7c4.6-3.8 10-5.7 16.2-5.7 4.2 0 7.9.8 11.1 2.5 4.1 2.2 6.2 5.7 6.2 10.4v22.8h7.6v3h-27.4v-3h7.6v-23.6c0-2.9-.4-4.9-1.1-5.9-.8-1-1.6-1.8-2.6-2.2s-2.4-.6-4.4-.6-4.2.5-6.6 1.5-4.6 2.5-6.6 4.5v26.2h7.6v3h-27.4z"/><path d="m397.9 18.7c-4.6 0-8.4-3.8-8.4-8.4s3.8-8.4 8.4-8.4 8.4 3.8 8.4 8.4-3.8 8.4-8.4 8.4zm0-.8c4.2 0 7.6-3.4 7.6-7.6s-3.4-7.6-7.6-7.6-7.6 3.4-7.6 7.6 3.4 7.6 7.6 7.6z"/><path d="m397.6 10.2c.8 0 1.4-.2 1.7-.6.2-.3.4-.7.4-1.2s-.1-.9-.4-1.2-.9-.5-1.8-.5h-1.4v3.4zm.1-3.8c2.6 0 3.9.7 3.9 2 0 .6-.2 1.1-.7 1.4-.5.4-1.1.6-1.9.7 1 .1 1.8.5 2.2 1.2.2.3.3.6.4.9s.2.6.3.7c.2.3.5.5.9.5h.3v.4h-.9c-.9 0-1.5-.1-1.8-.3s-.5-.5-.7-1.1c-.1-.5-.3-.8-.4-1-.2-.4-.5-.7-.8-.9s-.7-.3-1.2-.3h-1.2v3.2h1.6v.4h-4.5v-.4h1.1v-7.1h-1.1v-.3z"/><path d="m316 78 .1-57.2h-10.5v-3.3h36.5v3.3h-11.3v29l38.5-29h-8.2v-3.3h24.5v3.3h-9.6l-30.1 22.7 37.2 34.6h7.8v3.2h-34.5v-3.2h8.1l-28.2-27.2-5.4 4.1v23.2h11.2v3.2h-36.5v-3.2z"/><path d="m315 87.4c-.5 0-.8.3-.8.8 0 .2.3.6.8.6.4 0 .7-.3.8-.7 0-.3-.2-.7-.8-.7zm11.4.5c-.1 0-.1.1-.2.1-.5.2-.9.2-1.2.2v1.7h-.7v.4h.7v3.2c0 .9.4 1.7 2 1.7.2 0 .3 0 .5-.1.5-.1.8-.3 1.1-.6l-.3-.2c-.3.3-.6.4-1 .4-.2 0-.4-.1-.6-.2-.1-.1-.2-.4-.2-.7v-3.5h1.8v-.4h-1.8zm34.4 2.7v-.7h-2.3v.4h.8v4.4h-.8v.4h3.5v-.4h-1.2v-3.6c.4-.4.8-.7 1.3-.8v.3c0 .2.1.4.2.5s.3.2.5.2.4-.1.5-.2.2-.3.2-.5-.1-.4-.3-.5-.3-.2-.8-.2-1.1.3-1.7.7zm5.5-.3c-.4.3-.6.6-.6 1s.2.8.5 1.1.8.5 1.4.7 1 .3 1.3.5c.3.1.4.3.4.5 0 .1 0 .2-.1.3-.2.3-.5.4-1 .4s-1-.1-1.4-.4-.5-.5-.5-.7h-.5v1.5h.5c0-.2.1-.4.2-.5.5.3 1 .5 1.7.5.3 0 .6-.1.9-.2.8-.3 1.2-.7 1.2-1.4 0-.6-.4-1.1-1.1-1.4-.2-.1-.6-.2-1-.3s-.7-.3-1-.4c-.2-.2-.3-.3-.3-.5s.1-.3.3-.5c.2-.1.5-.2.8-.2.4 0 .7.1 1 .3s.4.4.5.7h.5v-1.4h-.4v.2c-.1.1-.1.2-.2.2-.3-.3-.8-.4-1.3-.4-.6 0-1 .1-1.5.4zm9-.4c-.9 0-1.6.2-2.1.7-.6.5-.8 1.1-.8 1.9s.3 1.4.8 1.9c.3.2.6.4 1 .6.4.1.8.2 1.1.2 1.1 0 1.9-.3 2.5-1l-.3-.2c-.5.5-1.2.8-1.8.8-.3 0-.6-.1-.8-.2-.6-.3-1-1-1-2.1v-.2h4c0-.4-.1-.7-.2-1-.3-.9-1.1-1.4-2.4-1.4zm-30.5 0c-.8 0-1.5.2-2.1.7s-.8 1.1-.8 1.9.3 1.4.8 1.9c.6.5 1.3.7 2.1.7s1.5-.2 2.1-.7c.5-.5.8-1.1.8-1.9s-.3-1.4-.8-1.9-1.2-.7-2.1-.7zm-11.2 0v.4h.6l2.6 5-.5 1.1c-.2.4-.4.7-.5.8-.1.2-.3.3-.4.3.1-.1.1-.2.1-.4 0-.3-.4-.6-.6-.6-.6 0-.8.3-.8.7 0 .6.6.8 1 .8s.7-.2 1-.4c.2-.2.4-.5.7-1l.7-1.4 2.2-5h.6v-.4h-2.1v.4h1l-1.5 3.5-1.7-3.5h.8v-.4zm15.9 0v.4h.8v3.1c0 .7.3 1.2.8 1.5.4.2.9.3 1.5.3s1.1-.2 1.6-.5v.5h2.1v-.4h-.7v-4.9h-2.4v.4h1v3.8c-.4.4-.8.6-1.3.6-.7 0-1.1-.4-1.1-1.1v-3.8zm-36.1 0v.4h.8v4.4h-.9v.4h3.3v-.4h-.9v-4.8zm61.8.4c.4 0 .7.1.9.4s.3.6.3 1.1h-2.5c.1-1 .6-1.5 1.4-1.5zm-29.4.6c.2.3.3.9.3 1.6 0 .3 0 .6-.1.9-.1.9-.6 1.4-1.3 1.4-.5 0-.9-.2-1.1-.7-.2-.4-.3-.9-.3-1.6 0-.3 0-.6.1-.9.1-.9.7-1.3 1.2-1.3.6 0 1 .2 1.2.6z"/><path id="p2-1" d="m308.3 94.7h.9v-7.8h-.9v-.4h2.4v8.2h.9v.4h-3.3z"/><path id="p2-2" d="m322.6 87.1c0-.1-.1-.2-.3-.2-.1-.1-.3-.1-.5-.1-.3 0-.5.1-.7.4-.1.2-.2.6-.2 1.1v1.5h1.1l.1.4h-1.3v4.4h1.2v.4h-3.5v-.4h.9v-4.4h-.9v-.4h.9v-1.3c0-.7.2-1.3.6-1.6.4-.4.9-.6 1.5-.6.5 0 .9.1 1.2.4.3.2.5.5.5.9 0 .3-.1.6-.5.7-.1 0-.2.1-.3.1s-.3-.1-.4-.2-.2-.2-.2-.5.2-.5.6-.5z"/><use xlink:href="#p2-1" transform="translate(71.5)"/><use xlink:href="#p2-2" transform="translate(66.5)"/></g></g></svg>