<svg viewBox="0 0 431 100" xmlns="http://www.w3.org/2000/svg"><g id="figure"><path d="m71.2 10.9c-3.5-1.8-8.6-4.9-24.1-4.9-19.8 0-39.2 14.9-39.2 38.9 0 24.1 18.4 34.9 38.2 34.9 8.6 0 13.9-1.6 25.9-7.1v-14.7s-7.2 18-22 18c-16.5 0-26.7-14-26.7-31.4 0-13.3 6.6-35.1 26.7-35.1 15 0 21.1 15.6 21.1 15.6zm-69.2-8.9h77.1v82.3h-77.1z"/><path d="m98.2 48.4c0 9.6 4.2 25.6 16.5 25.6s16.1-16 16.1-25.6-3.6-25.2-15.9-25.2-16.7 15.6-16.7 25.2zm48.8 0c0 18.9-15.2 30.7-32.3 30.7s-32.3-11.8-32.3-30.7 15.2-30.1 32.3-30.1 32.3 11.2 32.3 30.1z"/><path d="m263.1 47.6c0 22.5 8.2 24.9 16.2 24.9 10.1 0 15.6-11.8 15.6-24.9 0-18-5.5-25.9-15.5-25.9-10.1 0-16.3 7.6-16.3 25.9m-.2-28.8v10.4s2.3-12.1 19.5-12.1c15.3 0 27.1 8.9 27.1 29.8 0 16.8-11.6 31.2-27.1 31.2-7.6 0-13.7-1.8-19.1-7.1v14c0 6.3-1.9 9.4 5 11.1v1.9h-26.2v-1.7c5.1-1.9 5.5-5.4 5.5-10.4v-52.9c0-5.4 0-8.4-3.9-8.8v-1.7c7.4-.9 12.8-2 19.1-3.8"/><path d="m328.1 38.1h23.6c-.3-6.9-3.2-15.2-11.3-15.2-8.2 0-12 8.3-12.3 15.2m37.1 3.7h-37.9v6.2c0 11.8 4.1 23.6 18.5 23.6 4 0 13.9-4.3 16.2-14.3l1.8 1.3c-2.6 9.2-7.6 19.2-24.5 19.1-17.4 0-28.1-13.9-28.1-29.7 0-16.4 10.7-30.1 28.1-30.1 18.9 0 25.9 14.6 25.9 23.9"/><path d="m162.2 20c-7.4 1.6-17.1 3-17.1 3l-.7 2.7s4.2 1.8 4.2 9.7v23.8c0 9.3-.4 13.7-4.6 16.7v2.4h23v-2.4c-4.8-3.8-4.1-7.4-4.1-16.7v-15.3c0-8.7 5.4-18.8 13.7-18.8 8.9 0 11.5 8.8 11.5 18.8v23.5c0 5.6-1.8 6-3.9 8.4v2.4h22.9v-2.4c-3.3-3.5-3.8-3.2-3.8-8.4v-23.5c0-8.7 3.8-19.5 12-19.5 11.7 0 12.2 9.5 12.2 19.5v23.5c0 5.6-1.2 5.3-3.9 8.4v2.4h22.7v-2.4c-2-2.9-2.4-1.9-3.3-8.4v-29.5c0-11.8-8.9-19.7-20.7-19.7-9.7 0-16.7 3.9-21.2 11.2-2-7.1-8.9-11.2-17.6-11.2-9.5 0-13.7 2.9-21.3 9.4"/><path d="m382 50-11.2 15.4c-4 4.4-8.6 8.4-13.5 11.8v1.8h22.1v-1.8c-4.5-1.1-5.3-7.9-3.1-11l9-12.1 9 14.2c.8 1.3 2.3 3.9 2.6 4.7.7 2.1.8 3.3-2.3 4.2v1.8h25.5v-1.8c-5.8-3.6-7.2-6.7-11.1-12.5l-12.1-19.1 8.8-10.9c5.3-6.8 6.9-8.4 13.2-13.4v-1.8h-20v1.8c3.2.2 6.2 8.2 1.5 12.9l-6.7 7-8.1-11c-.8-1.3-2.6-4-2.6-4s-1.6-4.1 1.5-4.9v-1.8h-25.5v1.8c5.8 3.6 5.9 4.4 10.1 10.2"/><path d="m418.6 39.2h1.5l2.6 4.3h1.9l-2.8-4.4c1.5-.2 2.6-.9 2.6-2.7 0-2-1.2-2.9-3.6-2.9h-3.8v10h1.6zm0-1.4v-2.9h2c1 0 2.2.1 2.2 1.4 0 1.5-1.1 1.6-2.3 1.6zm1.8-8.5c-4.8 0-8.9 3.6-8.9 9 0 5.2 3.7 9 8.9 9 4.7 0 8.9-3.6 8.9-9s-4.1-9-8.9-9zm0 16.5c-4.3 0-7-3.4-7-7.5 0-4.4 3-7.5 7-7.5 3.9 0 6.9 3.1 6.9 7.5s-3 7.5-6.9 7.5z"/></g></svg>