<svg viewBox="0 0 383 100" xmlns="http://www.w3.org/2000/svg"><g transform="scale(.1)"><path d="m1722.1 447.3c-36.3 0-66.2 38.9-66.2 87.9v127.6c0 49 29.9 88 66.2 88h2020.6c36.3 0 66.2-39 66.2-88l-.1-127.6c0-49-29.8-87.9-66.1-87.9z" fill="#fff"/><g fill="#e30613"><path d="m385 23.8v355.2h79.8v-304.6h405.3v-50.6z"/><path d="m960.8 379h81.2v-355.2h-80.8z"/><path d="m1711.6 23.8v295.3l-445.5-295.3h-108.2v355.2h79.8v-295.4l445.5 295.4h108.1v-355.2z"/><path d="m2462.5 23.8v295.3l-445.5-295.3h-108.2v355.2h79.8v-295.4l445.5 295.4h108.1v-355.2z"/><path d="m2728 328.4v-304.6h-79.8v355.2h464.6v-50.6z"/><path d="m3626.6 20h-286.1c-113.8 0-182 28.5-182.3 134.5l-.3 93.5c-.3 106.9 69.5 134.7 183.2 134.7h286c113.3 0 182.3-28.1 182.3-134.5v-93.5c0-106.7-68.9-134.7-182.8-134.7zm-388.6 117.2c0-59.4 55.6-66.7 103.6-66.7h284.4c47.3 0 103.6 10.5 103.6 66.5v128.5c0 59.4-55.6 66.7-103.6 66.7h-284.4c-47.3 0-103.6-10.5-103.6-66.5z"/><path d="m3153 820.8h-79.1v125.6h79.1v-52.4l19.3-11.8-19.3-10.3z"/></g><g fill="#58585a"><path d="m1549.9 143.3c-57.7 13-122.9 27.9-155.2 33.8-123 22.6-204.3 37.5-346.4 37.5-112.7 0-196.3-14.3-277.2-28.1-81-13.9-164.7-28.2-277.8-28.2-157.4 0-252.9 10.8-350.3 45.5l-123 43.8c75.5-25.6 149.6-38.9 240.7-42.8 151.6-6.6 262.2 6.1 386.1 27.3 81 13.9 164.8 28.2 277.8 28.2 146.1 0 228-10.1 345.9-31.8 89.9-16.5 191.5-37.1 264.3-61.7l123.7-41.8c3.5-1.2 5.3-1.9 5.3-3.5 0-.4-.1-2.1-2.4-2.1-5.4 0-45.9 9-111.5 23.9z"/><path d="m2943.4 862.6c10.5 0 20.4 5.4 20.4 39.8 0 34.6-9.8 40-20.4 40-10.7 0-20.3-5.5-20.3-40 0-34.4 9.6-39.8 20.3-39.8zm-30.8 86.5h9.5v-15.5h.3c2.8 10.7 11.7 17.5 22.8 17.5 20.5 0 29.8-16.5 29.8-48.8 0-32.1-9.3-48.5-29.8-48.5-11.6 0-19.5 6.3-21.7 16.1h-.3v-46.1h-10.5z"/><path d="m3008.5 950-2.7 8.8c-3 9.8-7.4 12.4-13.8 12.4-2.3 0-4.6-.1-6.9-.3v8.7c2.1.2 4.2.4 7 .4 14.2 0 19.8-5.1 24.7-23.4l27.2-100.6h-11.3l-18.8 80.7h-.3l-20.8-80.7h-11.3z"/><path d="m3190.1 821.2v50.5h-37.1v22.2h37.1v52.5h31.8v-125.2z"/><path d="m3285.9 841-8.9 55.7h17.7zm-21.6-19.9h42.3l26.6 125.1h-31l-4.5-28.5h-24.3l-4.6 28.5h-31z"/><path d="m3445.2 946.3h28.2v-125.1h-42.9l-15.6 72.9c-1.7 8.7-2.8 16.9-3.5 22.5-3-17.4-3.3-19.3-7.2-37.1l-12.8-58.3h-42.4v125.1h27.9v-69.8c0-5-.4-15.4-.6-22.5l20.8 92.4h27.9l20.6-91.8c-.4 5.5-.4 6.6-.4 12.2z"/><path d="m3590.6 946.3h28.2v-125.1h-42.9l-15.6 72.9c-1.7 8.7-2.8 16.9-3.5 22.5-3-17.4-3.3-19.3-7.2-37.1l-12.8-58.3h-42.4v125.1h27.9v-69.8c0-5-.4-15.4-.6-22.5l20.8 92.4h27.9l20.6-91.8c-.4 5.5-.4 6.6-.4 12.2z"/><path d="m3707.6 821v22.2h-36v28.7h34v22.2h-34v30.2h36v22.2h-67.8v-125.5z"/><path d="m3805.5 905.9c0-15.3-1.3-21.5-16.9-25 10-5.1 16.5-9.2 16.5-27.8 0-22-5.9-32.1-34-32.1h-44.6v125.4h29.7v-53.4c17.7-.2 20.5-.2 20.5 13.7 0 3.5-.4 18.6-.4 21.6 0 10.3 2.2 14 4.5 18.1h29.2c-2.8-3-4.5-5.5-4.5-13.8zm-39.8-34.6h-9.5v-28.5h9.5c9.5 0 11.2 2 11.2 12.8 0 12.8-1.8 15.8-11.2 15.8z"/><path d="m1722.1 448c-36.3 0-66.2 38.9-66.2 87.9v127.6c0 49 29.9 88 66.2 88h2020.6c36.3 0 66.2-39 66.2-88v-127.6c0-49-29.9-87.9-66.2-87.9zm839.7 5.6h1180.9c33.5 0 60.6 36.9 60.6 82.3v127.6c0 45.5-27.1 82.3-60.6 82.3h-1205.5c58-47.5 90.5-100.7 90.5-157 0-47.8-23.4-93.4-65.9-135.2zm-732.7 61.5c28.9 0 61.8 2.6 71.2 34.4 12.1-30.7 31.5-34.4 66.5-34.4 72.2 0 79.4 28.3 79.4 67.1v96.9h-21v-96.9c0-38.3-14.8-44.5-57.9-45.4-37 .7-60.7 4.2-60.7 45.4v96.9h-21v-96.9c0-26.8-4.1-45.4-57.1-45.4-58.5 0-61.2 23.3-61.2 50.5v91.8h-21v-161.6h21v25.8c7.9-25.7 32.8-28.2 61.8-28.2zm1020.6 0c-29 0-53.9 2.5-61.8 28.2v-25.8h-21v161.6h21v-91.8c0-27.2 2.7-50.5 61.2-50.5 53 0 57.1 18.6 57.1 45.4v96.9h21v-96.9c0-41.2 23.7-44.7 60.7-45.4 43.1.9 57.9 7.1 57.9 45.4v96.9h21v-96.9c0-38.8-7.2-67.1-79.4-67.1-35 0-54.4 3.8-66.5 34.4-9.4-31.8-42.3-34.4-71.2-34.4zm649.6 0c-29 0-53.9 2.5-61.8 28.2v-25.8h-21v161.6h21v-91.8c0-27.2 2.7-50.5 61.2-50.5 53 0 57.1 18.6 57.1 45.4v96.9h21v-96.9c0-41.2 23.7-44.7 60.7-45.4 43.1.9 57.9 7.1 57.9 45.4v96.9h21v-96.9c0-38.8-7.2-67.1-79.4-67.1-35 0-54.4 3.8-66.5 34.4-9.4-31.8-42.3-34.4-71.2-34.4zm-1287.7.4h13c67.9 0 77.8 17.1 77.8 63.2v100.4h-21v-18.9c-9.3 18.3-21.8 21.3-51.8 21.3h-43.7c-35.1 0-55.5-10-55.5-47.7 0-17.4 2.8-29.7 8.5-36.8 9.4-11.7 34.5-14.8 62-14.8h30c23.5 0 36.1-1 50.5 19.2v-23c0-36.8-11.8-41.6-56.8-41.6h-13c-27.1 0-51.6-2.4-52.1 29.6l-22.8-.4c0-38.4 14.2-50.5 74.9-50.5zm163.5 2h31.6l55.5 61.9 55.2-61.9h31.3l-70.9 76 78.7 85.6h-31l-63.3-70.8-64.2 70.8h-31.3l79.6-85.6zm782.5.1v100.3c0 21.6 4.5 36 12.7 45.5 10.4 12 38 18.1 67.4 18.1 38.7 0 59.1-6.6 68.2-33.6v31.2h21v-161.5h-21v88.3c0 16.3-2.7 33.7-11.9 41.6-9.7 8.3-30.9 13.1-56.3 13.1-23.3 0-38.8-3.5-46-9.2-10.8-8.5-13.1-23.8-13.1-45.5v-88.3zm-486 .6v161h18.3v-161zm-470.7 85.3c-38.2 0-48 7.6-48 30.5s16.2 25.9 33 25.9h47.9c21.4 0 47-3.7 47.6-28.6 0-24.4-19.7-27.8-49.8-27.8z"/></g></g></svg>