<svg viewBox="0 0 540 100" xmlns="http://www.w3.org/2000/svg" xmlns:xlink="http://www.w3.org/1999/xlink"><g transform="scale(.1)"><g><path d="m536.3 25.4v502.4h112.9v-430.9h573.4v-71.5z"/><path d="m1350.6 527.8h114.9v-502.4h-114.3z"/><path id="a" d="m2412.4 25.4v417.7l-630.2-417.7h-153.1v502.4h112.9v-417.8l630.2 417.8h153v-502.4z"/><use transform="translate(1062.2)" xlink:href="#a"/><path d="m3850.2 456.3v-430.9h-112.9v502.4h657.3v-71.5z"/><path d="m5121.3 20h-404.7c-161 0-257.8 40.3-257.8 190.3v132.3c0 151.2 97.8 190.5 258.7 190.5h404.6c160.2 0 257.9-39.8 257.9-190.3v-132.2c0-150.9-97.5-190.6-258.7-190.6zm-549.7 165.8c0-84 78.7-94.3 146.6-94.3h402.3c66.9 0 146.6 14.8 146.6 94v181.8c0 84.1-78.7 94.4-146.6 94.4h-402.3c-67 0-146.6-14.9-146.6-94.1z"/><path d="m3908.2 633.8h-172v273.2h172v-113.9l42-25.7-42-22.5z"/></g><g><path d="m2184.2 194.4c-81.6 18.5-174 39.4-219.6 47.8-174 32-289.1 53.1-490 53.1-159.5 0-277.7-20.2-392.1-39.8-114.6-19.6-233.1-39.8-393-39.8-222.7 0-357.7 15.3-495.5 64.3l-174 61.9c106.8-36.2 211.6-54.9 340.5-60.5 214.5-9.3 371 8.7 546.2 38.7 114.6 19.6 233.1 39.9 393 39.9 206.6 0 322.5-14.3 489.3-45 127.1-23.4 270.9-52.5 373.8-87.3l175-59.2c4.9-1.7 7.6-2.6 7.6-4.9 0-.5-.2-3-3.5-3-7.6 0-64.9 12.8-157.7 33.8z" stroke-width="14.2"/><path d="m3452.4 724.7c22.9 0 44.3 11.8 44.3 86.6 0 75.2-21.4 87.1-44.3 87.1-23.3 0-44.2-11.9-44.2-87.1 0-74.8 20.9-86.6 44.2-86.6zm-67.1 188.1h20.6v-33.5h.7c6.1 23.3 25.5 38.1 49.6 38.1 44.6 0 64.8-35.8 64.8-106.1 0-69.9-20.2-105.6-64.8-105.6-25.2 0-42.4 13.7-47.3 35.1h-.7v-100.3h-22.9z"/><path d="m3594 914.8-5.8 19.1c-6.5 21.4-16 27-30.1 27-4.9 0-9.9-.3-14.9-.7v19c4.6.4 9.2.8 15.3.8 30.9 0 43.1-11.1 53.8-50.8l59.1-218.9h-24.5l-40.8 175.5h-.7l-45.3-175.5h-24.5z"/><path d="m3989 634.7v109.9h-80.8v48.2h80.8v114.2h69.1v-272.3z"/><path d="m4197.4 677.9-19.4 121.1h38.4zm-46.9-43.2h92.1l57.9 272.2h-67.5l-9.8-62h-52.9l-10.1 62h-67.5z"/><path id="b" d="m4544 906.9h61.4v-272.2h-93.4l-33.9 158.5c-3.6 18.9-6.1 36.7-7.7 49-6.5-37.8-7.2-42-15.7-80.6l-27.9-126.9h-92.2v272.2h60.6v-151.9c0-10.8-.8-33.6-1.2-49l45.3 200.9h60.6l44.9-199.7c-.8 12-.8 14.3-.8 26.6z"/><use transform="translate(316.3)" xlink:href="#b"/><path d="m5114.7 634.3v48.2h-78.4v62.5h74v48.2h-74v65.6h78.4v48.2h-147.5v-272.7z"/><path d="m5327.6 819c0-33.2-2.8-46.7-36.8-54.4 21.8-11.2 35.9-20 35.9-60.5 0-47.8-12.8-69.8-73.9-69.8h-97v272.7h64.6v-116.1c38.4-.4 44.5-.4 44.5 29.7 0 7.7-.8 40.4-.8 47 0 22.3 4.8 30.5 9.7 39.4h63.5c-6.1-6.6-9.7-12-9.7-30.1zm-86.6-75.2h-20.6v-62.1h20.6c20.6 0 24.3 4.3 24.3 27.8 0 27.9-4 34.3-24.3 34.3z"/></g></g></svg>