<svg viewBox="0 0 604 100" xmlns="http://www.w3.org/2000/svg"><g id="figure" fill="#fff"><path d="m90.4 2v37.5h-32.4v18.8h32.4v39.7h20.3v-96z"/><path d="m175.8 2 35.7 96h-21.4l-6.4-18.3h-36.8l-6.2 18.3h-21.3l35.3-96zm-22.9 60.1h24.6l-12.4-35.7z"/><path d="m240.8 2 27.7 60.8 27.4-60.8h19.9v96h-20.3v-49.5l-23.4 49.5h-8.6l-23.4-50.2v50.2h-20.3v-96z"/><path d="m353.3 2 27.6 60.8 27.7-60.8h19.9v96h-20.3v-49.5l-23.5 49.5h-8.5l-23.5-50.2v50.2h-20.2v-96z"/><path d="m509.1 2v18.7h-44v19.4h40.9v18h-40.9v21.2h44v18.7h-64.2v-96z"/><path d="m562.8 2c20.6 0 34.5 10.2 34.5 30.2 0 14.4-7 23.5-18.4 27.7l23.1 38.1h-22.9l-20.5-35.7h-15.7v35.7h-20.3v-96zm-20.2 43.3h20.5c8.7 0 14.8-4 14.8-12.6s-6.1-12.2-14.8-12.2h-20.5z"/><path d="m2 2v96h56v-96z"/></g></svg>