<svg viewBox="0 0 201 100" xmlns="http://www.w3.org/2000/svg" xmlns:xlink="http://www.w3.org/1999/xlink"><g id="figure"><g transform="scale(.1)"><path d="m35.4 20c-18.8 0 11.1 15.5 11.1 15.5 325.3 48.4 466.5 67.6 466.5 295.8s-457.3 304.2-480.8 309.7c-9.1 2.2-12.2 4.7-12.2 6.9 0 3.1 6 5.7 10 5.7.4 0 .8 0 1.2-.1 581.4-105.1 800.9-208 801-210 1.6-90.2 101.4-125.9 172.8-125.9s171.2 35.7 172.8 125.9c.1 2 219.6 104.9 801 210 .4.1.8.1 1.2.1 4 0 10-2.6 10-5.7 0-2.2-3.1-4.7-12.2-6.9-23.5-5.5-480.8-81.5-480.8-309.7s141.3-247.5 466.5-295.8c0 0 29.9-15.5 11.1-15.5-.8 0-1.7 0-2.6.1s-447.6 27.8-798.3 139.4c0 0-5 109.5-168.7 109.5s-168.7-109.5-168.7-109.5c-350.7-111.6-797.4-139.3-798.3-139.4s-1.8-.1-2.6-.1z"/><path d="m655.3 610.1c0 12.1 6.1 15.4 22.2 15.4h21.2c23.3 0 28.4-2.7 28.4-17.9 0-15.5-5-18.5-33.4-18.2-19.9.2-20.9-.6-20.9-5 0-3.4 3.1-4.4 6.6-4.4h19.4c7.4 0 8.5 1.1 8.5 5.9h17.5v-1.8c0-10.7-2.7-16.9-22.1-16.9h-24.4c-21.2 0-23 7.2-23 18.3 0 13.5 2.7 17.2 29.3 17.1 23.1-.1 24.6.6 24.6 5.3 0 2.8-1.2 4.8-7.5 4.8h-21.4c-5.6 0-7.6-1-7.6-6.5h-17.4z"/><path d="m738.9 624.8h17.5v-56.9h-17.5z"/><path d="m769.1 624.8h17.4v-41.4h.2l32.9 41.4h27v-56.9h-17.4v41.4h-.2l-32.8-41.4h-27.1z"/><path d="m857.1 604.9c0 16.1 8.7 20.6 25.1 20.6h28.2c15.9 0 21-6.1 21-17.2v-5.3h-17.5c.1 6.8-2.4 7.8-10.2 7.8h-18.7c-7.8 0-10-2.8-10-11.4v-6.1c0-8.6 3.2-11.4 11-11.4h19c6.2 0 8.2 1.8 8.2 5.2v1.6h17.5c.2-5.3-.4-9.5-1.7-12.7-2.7-6.8-11.2-8.8-26.3-8.8h-20.5c-16.7 0-25.1 4.7-25.1 20.6z"/><path d="m941.9 624.8h63.4v-13.6h-45.9v-9.2h42.5v-11.8h-42.5v-9.1h44.8v-13.2h-62.3z"/><path d="m1091.2 624.8h16v-56.9h-20.9l-24.1 15.7 7.9 11.4 21.1-13.5z"/><path d="m1132.5 612.5c0 8.4 5 13 20 13h21.2c18.8 0 24.9-5.2 24.9-22.4v-15.9c0-13.2-5.2-20-20.4-20h-24.8c-14 0-20.4 2.2-20.4 15.8v5c0 10.7 3.5 15.9 19.8 15.9h16.3c4.5 0 9.4-.5 13-4.3v6.7c0 5.3-3.6 6.9-8.5 6.9h-18.2c-5.1 0-6.9-1-6.9-4.6h-16zm25.4-20.4c-6.9 0-8.9-1.4-8.9-6.2s1.9-6.4 8.6-6.4h15.9c6.7 0 8.6 1.6 8.6 6.4s-2 6.2-9 6.2z"/><path d="m1227.8 567.2c-11.7 0-17.7 1.9-17.7 13.6v3.3c0 9.4 6.6 11.4 9.9 11.9v.2c-6.8 1-10.2 3.7-10.2 10.5v5c0 10.6 7.4 13.8 17.7 13.8h31.8c10.3 0 17.7-3.2 17.7-13.8v-5c0-6.8-3.4-9.5-10.2-10.5v-.2c3.3-.5 9.9-2.5 9.9-11.9v-3.3c0-11.7-6-13.6-17.7-13.6zm5.6 12.3h20c2.8 0 6.6.6 6.6 5.2 0 5-4.1 5.3-6.6 5.3h-20c-2.5 0-6.6-.3-6.6-5.3 0-4.8 3.9-5.2 6.6-5.2zm-.3 22.3h20.6c4 0 6.6 1.2 6.6 5.6 0 4.3-2.5 5.8-5.6 5.8h-22.6c-3.1 0-5.6-1.5-5.6-5.8 0-4.4 2.6-5.6 6.6-5.6z"/><path d="m1287.9 624.8h66.8v-12.2h-50.7c0-5.4 1.6-6.7 8.4-7l18-.9c19.4-1 23.5-4.1 23.5-19.3 0-13.1-2.9-18.2-20.6-18.2h-23c-16.4 0-22.4 4.4-22.4 15.1v6.6h16.6v-2.4c0-5.7 2-7 9.6-7h11.6c11.1 0 11.7 1 11.7 5.7 0 5.6-1 5.8-13.7 6.6l-19.9 1.2c-7.9.5-15.9 3.4-15.9 12.5z"/><path d="m128.4 744.3h165.8v90.5l94.8 21.2-94.8 22.3v101.7h-165.8z"/><path d="m294.2 834.8h95.5v-90.5h61.5v235.7h-61.5v-101.7h-95.5z"/><path d="m466.3 980 106.3-235.7h63.1l104.6 235.7h-63.9l-21.1-52.5h-104.7l-21.9 52.5zm136.8-177.6-36.4 86.5h72.5l-35.3-86.5z"/><path id="a" d="m758.1 980v-235.7h86.6l65.5 162.1h.8l61.9-162.1h86.6v235.7h-57.6v-167h-.8l-68.6 167h-47.4l-68.6-165.4h-.8v165.4z"/><use transform="translate(341.3)" xlink:href="#a"/><path d="m1440.4 980v-235.7h183.2v43.6h-121.7v50.5h109.6v40.3h-109.6v57.7h124.9v43.6z"/><path d="m1661.1 980v-235.7h130.3c50.2 0 82 29.4 82 65.1 0 27.7-13.3 48.4-44.3 59v.7c30.2 6.6 38.8 31.3 40.7 55.1 1.2 14.8.8 42.6 11.8 55.8h-61.5c-7.4-14.9-6.6-37.6-9.8-56.4-4.2-24.8-15.7-35.7-46.7-35.7h-41v92.1zm61.5-195.4v66.4h46.9c27.4 0 42.3-9.9 42.3-33.7 0-22.8-14.9-32.7-42.3-32.7z"/></g></g></svg>