<svg viewBox="0 0 473 100" xmlns="http://www.w3.org/2000/svg" xmlns:xlink="http://www.w3.org/1999/xlink"><g transform="scale(.1)"><g fill="#e60013"><path d="m57.1 129-18.3 101.9c-8 44.7 26.3 87.5 112.7 92.8 48.5 3 227.2 11.7 376 13.7 115.7 1.5 203.7 6 231.5 6 38.7 0 76.1 11.5 70.1 45.2l-5 28.2c-5.3 29.9-38 43.6-86.9 48-32.9 3-123 8.5-297.6 8.5s-346.4-24.5-367.3-26.9c-48.6-5.6-52.3 33.5-52.3 45.8 0 24.7 18.5 38 38.8 41.8 18.7 3.5 135.1 28.7 430.1 28.7 168.7 0 325.6-10 383.1-13.6 88.1-5.5 137.8-48 145.8-92.6l18.3-102.2c8-44.5-32.7-88.3-111.2-92.3-48.1-2.4-254.7-13.8-379.6-14.1-119.6-.3-201.5-4.9-229.3-6.1-39.3-1.6-76.4-9.6-70.1-45.2l5-28c5.3-29.7 37.8-43.7 86.7-48.1 32.9-3 74.5-8.5 236.4-8.5 240 0 405.8 24.2 428.8 26.9 48.7 5.8 52.3-33.8 52.3-45.6 0-24.8-18.6-38-38.9-41.9-18.7-3.6-134.9-28.8-430-28.8-168.7 0-325.8 10.1-383.3 13.6-88.2 5.3-137.8 48.2-145.8 92.8z"/><path d="m1292.9 129-58.1 324.9c-8 44.8 26 87.6 112.6 92.7 48.5 2.9 209.2 13.7 377.9 13.7 168.8 0 325.6-10.4 383.1-13.7 88.3-5.1 137.7-47.9 145.7-92.7l58.3-324.9c8-44.6-26.1-87.5-112.5-92.8-48.5-3-209.3-13.6-378.1-13.6-168.7 0-325.6 10.1-383.1 13.6-88.2 5.3-137.8 48.2-145.8 92.8zm151 277.2 41.3-229.5c4.9-27.1 35-53.1 88.4-56.2 34.9-2 129.9-8.5 232.2-8.5s199.6 6.8 229.1 8.5c21.8 1.3 76.2 12.2 68.3 56.2l-41.2 229.5c-4.9 27.1-34.9 53.1-88.3 56.1-34.8 2-130 8.5-232.4 8.5-102.2 0-199.7-6.8-229.1-8.5-32.6-1.8-75.9-14-68.3-56.1z"/><path d="m2497.4 453.9c-7.9 43.9 26.2 87.5 112.6 92.7 48.5 2.9 209.2 13.7 378 13.7 295.1 0 437.4-24.9 458.3-28.8 20.4-3.8 39-17.1 39-41.9 0-12.2-3.7-51.2-52.4-45.6-20.9 2.4-188.9 26.8-428.8 26.8-102.2 0-199.8-6.1-229.2-8.5-33-2.7-76.2-12-68.3-56.1l49.8-277.2c9-49.9-2.7-106.4-81.6-106.4-81 0-110.2 56.5-119.1 106.4z"/><path d="m3696.5 126.6-58.7 327.3c-.7 4.2-1.1 8.3-1.1 12.4-.1 40 35.3 75.6 113.6 80.3 48.5 2.9 151.4 13.7 378.1 13.7 303.9 0 437.2-24.9 458.1-28.8 22.7-4.3 43.4-20.3 38.2-51.1-5.4-32-26-39.4-51.6-36.4-20.9 2.4-189.4 26.8-428.9 26.8-136.1 0-207-6.4-228.9-8.4-45.2-4.1-75.2-17.4-69.7-48.2l5-28c5.6-31.2 42.9-44.6 86.4-45.2l530.7-6.9c21.7-.3 47.4-21.1 51.6-44.9 4.2-23.7-11.3-44.5-35.5-44.7l-528.5-5c-20.7-.2-77.9-4.5-70.3-45.5l5.2-28.2c5.4-29.4 37.8-43.3 86.8-47.8 32.9-3 102.6-8.5 231.8-8.5 190.6 0 407.9 24.5 428.8 26.9 49.1 5.7 52.4-32.9 52.4-46 .1-24.6-18.6-37.7-38.9-41.6-20.9-4-135-28.8-430.1-28.8-194.3 0-321.3 10.3-378.8 13.7-88.1 5.2-137.8 48.4-145.7 92.9z"/><path d="m3513 688.6h-144.1v228.8h144.1v-95.4l35.2-21.5-35.2-18.8z"/></g><g fill="#58585a"><path d="m4644.2 530v5.9h10.5v28.8h7v-28.8h10.3v-5.9z"/><path d="m4699.4 530-6.2 23.7-6.3-23.7h-10.5v34.7h6.5v-27.3l6.9 27.3h6.7l6.9-27.3v27.3h6.6v-34.7z"/><path d="m3131.2 765.8c19.2 0 37.1 9.9 37.1 72.6 0 63-17.9 72.9-37.1 72.9-19.5 0-37-9.9-37-72.9 0-62.7 17.5-72.6 37-72.6zm-56.2 157.6h17.3v-28.1h.5c5.1 19.5 21.4 31.9 41.6 31.9 37.4 0 54.3-29.9 54.3-88.8 0-58.5-16.9-88.5-54.3-88.5-21.1 0-35.5 11.5-39.6 29.4h-.6v-84h-19.2z"/><path d="m3249.8 925.1-4.8 16c-5.4 17.9-13.5 22.6-25.3 22.6-4.1 0-8.2-.3-12.4-.6v15.9c3.9.3 7.7.7 12.8.7 25.9 0 36-9.3 45-42.6l49.5-183.3h-20.5l-34.2 147h-.5l-38-147h-20.5z"/><path d="m3580.7 689.4v92h-67.7v40.4h67.7v95.9l57.8-.3v-228z"/><path d="m3755.2 725.5-16.2 101.5h32.1zm-39.3-36.1h77.2l48.5 228h-56.6l-8.2-52h-44.3l-8.4 52h-56.6z"/><path id="a" d="m4045.5 917.4h51.5v-228h-78.3l-28.4 132.7c-3 15.8-5.1 30.8-6.4 41.1-5.4-31.7-6.1-35.3-13.2-67.6l-23.3-106.2h-77.3v228h50.8v-127.3c0-9-.7-28.1-1-41l37.9 168.3h50.8l37.6-167.3c-.7 10.1-.7 12-.7 22.3z"/><use transform="translate(264.9)" xlink:href="#a"/><path d="m4523.6 689v40.4h-65.7v52.3h62v40.4h-62v55h65.7v40.3h-123.6v-228.4z"/><path d="m4701.9 843.7c0-27.8-2.3-39.1-30.8-45.5 18.3-9.4 30-16.8 30-50.7 0-40-10.7-58.5-61.9-58.5h-81.2v228.4h54.1v-97.2c32.2-.3 37.3-.3 37.3 24.9 0 6.4-.7 33.8-.7 39.3 0 18.7 4 25.5 8.1 33h53.2c-5.1-5.5-8.1-10-8.1-25.2zm-72.6-63h-17.2v-52h17.2c17.3 0 20.4 3.6 20.4 23.3 0 23.4-3.4 28.7-20.4 28.7z"/></g></g></svg>