<svg viewBox="0 0 290 100" xmlns="http://www.w3.org/2000/svg" xmlns:xlink="http://www.w3.org/1999/xlink"><g transform="scale(.1)"><g fill="#e30613"><path d="m381 473.9-69.4-218.5h-151.2l-140.4 524.1h160.1l60.3-266.8 76.5 266.8h128.6l76.5-266.8 60.3 266.8h160.1l-140.4-524.1h-151.2z"/><path d="m853.3 20-35.6 109.6h-115.3l93.3 67.8-35.7 109.7 93.3-67.8 93.3 67.8-35.7-109.7 93.3-67.8h-115.3z"/><path d="m927.1 779.5v-430.7h-147.6v430.7z"/><path d="m1757.2 348.8h-171.6l-158.4 394.1-154.3-192.7 190.3-201.4h-167.9l-159.7 180.7v-180.7h-143.9v430.7h143.9v-192.1l145.2 192.1h280l28.5-73.5h164.2l28.4 73.5h148.4zm-134.3 270.3 48.5-145.3 48.5 145.3z"/><path d="m1952.9 576.3c-18.1-17.3-33.9-46.3-33.9-99.7 0-134.9 92.8-135.2 229.3-135.2 120.7 0 157.4 10.2 192.4 53.5 12.6 15.6 23.4 51.6 25.5 90.9h-133.4c2.6-37.6-43.4-39.7-93.3-39.7-36.3 0-99.8-2.3-102.1 32-2.3 35.5 42.5 32.7 77 34.3 28.1 1.3 73.4 2.9 127.4 5.4 63.6 2.9 123.8 20.4 123.8 134.7 0 118.6-76.9 132.9-209.2 132.9s-162.8-10.3-193.7-37c-21.8-18.8-40.4-52.7-40.4-107.6h129.4c-2.6 37.6 52.1 39.6 102 39.6 36.3 0 89 2.8 93.5-31.8 4.6-35.3-33.8-32.9-68.3-34.5-25.5-1.2-65.7-1.8-119.6-5.4-49.8-3.4-78.5-5.7-106.4-32.4z"/><path d="m2731.6 779.5h148.4l-173.2-430.7h-171.5l-173.1 430.7h148.3l28.5-73.5h164.2zm-159-160.4 48.5-145.3 48.5 145.3z"/><path d="m2060.7 840v140h88v-58.4l10-13.1-10-11.9v-56.6z"/></g><g fill="#28282a"><path d="m20 860.3h23.5v116.8h-23.5z"/><path id="a" d="m88.2 860.3 28.5 80h.3v-80h21.6v116.8h-26.8l-28.8-81.8h-.4v81.8h-21.6v-116.8z"/><path d="m247.7 895c0-8.7-3.9-19.7-13.4-19.7-11.5 0-16 11.9-16 41 0 28.1 2.6 45.8 16.2 45.8 5.6 0 14.5-6.1 14.5-18.7v-11.9h-15.5v-17.4h38.1v63h-17.3v-10.8h-.4c-5.6 9.2-13.5 13.1-24.5 13.1-29 0-34.7-21.6-34.7-62 0-39.3 9.2-59.4 39.3-59.4 25.8 0 36.3 13.3 36.3 37z"/><path d="m352.1 860.3v19.3h-41.7v27.5h39.3v19.3h-39.3v31.4h43.4v19.3h-67v-116.8z"/><path id="b" d="m365.5 860.3h43.6c19.3 0 31 10.1 31 30.1 0 15.5-6.1 26-19.4 28.8v.3c16 2.1 18.5 11 18.8 35.7.2 12.3.8 18.6 5.2 20.9v1h-25.5c-2.3-3.3-2.8-7.7-2.9-12.3l-.7-22.4c-.3-9.2-4.4-14.7-13.9-14.7h-12.6v49.4h-23.6zm23.6 51h9.8c11.3 0 17.7-4.9 17.7-17.5 0-10.8-5.8-16.2-16.4-16.2h-11.1z"/><path d="m457 860.3h35l16.7 82.4h.4l16.8-82.4h34.9v116.8h-21.7v-93.2h-.3l-20.8 93.2h-18.3l-20.8-93.2h-.3v93.2h-21.6z"/><path id="c" d="m600.4 860.3h29.1l30.9 116.8h-24.5l-5.4-24.7h-31.1l-5.4 24.7h-24.6zm3.1 72.8h22.9l-11.3-52.5h-.3z"/><use transform="translate(607.6)" xlink:href="#a"/><path id="d" d="m781.4 860.3 15.3 45.1h.4l16.3-45.1h25.5l-30.2 70.8v46h-23.6v-46l-30.2-70.8z"/><use transform="translate(311.9)" xlink:href="#c"/><use transform="translate(919.5)" xlink:href="#a"/><path d="m1075.6 860.3h38.6c32.7 0 38.6 22.4 38.6 56.8 0 41.4-8.9 60-40.1 60h-37.1zm23.5 99.5h10.5c16.4 0 19.6-10.4 19.6-42.1 0-26.5-2.1-40.2-20.1-40.1h-10z"/><path d="m1328.3 860.3v81.5c0 11.6 2.7 20.3 13.7 20.3s13.8-8.7 13.8-20.3v-81.5h23.5v81.5c0 29.8-18.2 37.6-37.3 37.6s-37.3-6.4-37.3-37.6v-81.5z"/><use transform="translate(637.6)" xlink:href="#c"/><path d="m1413.2 940.6v3.5c0 11 3.2 18 15.6 18 7.2 0 14-4.6 14-14.4 0-10.6-5.3-14.6-20.9-20-20.9-7.2-30.6-15.8-30.6-35.3 0-22.7 14-34.4 36.2-34.4 20.9 0 35.9 9 36.1 31.4v3.3h-22.6c0-11-3.7-17.4-12.7-17.4-10.6 0-13.4 6.7-13.4 13.6 0 7.2 2.1 11.6 12.1 15.9l18.1 7.8c17.7 7.6 22.3 16.8 22.3 31 0 24.7-15.1 35.8-40.6 35.8-26.7 0-37-12.4-37.1-34v-4.8z"/><path d="m1547.6 860.3v19.3h-25.5v97.5h-23.6v-97.5h-25.5v-19.3z"/><use transform="translate(1192.2)" xlink:href="#b"/><path d="m1649.9 860.3h23.5v116.8h-23.5z"/><use transform="translate(1113.3)" xlink:href="#c"/><path d="m1828.8 860.3h39.4c19.3 0 33.2 7.2 33.2 29.6 0 12.6-6 22.2-17.6 25.5v.4c12.9 1.8 21.2 11.6 21.2 27.1 0 18.3-8.9 34.2-36.4 34.2h-39.8zm23.6 47.9h6.7c12.9 0 18.8-4.3 18.8-15.3 0-11.1-5.4-15.3-17-15.3h-8.5zm0 51.6h9.1c11.3 0 19-4.1 19-17.7s-7.7-17.5-18-17.5h-10.1z"/><use transform="translate(1157.2)" xlink:href="#d"/><path d="m2148.7 896.6h41.3v-55.9h35.4v139.3h-35.4v-58.4h-41.3"/><path d="m2272.6 840.7h47.2l29.6 139.3h-34.6l-4.9-31.8h-27.1l-5.2 31.8h-34.6zm24 22.1-9.9 61.9h19.6z"/><path id="e" d="m2505.5 840.7v139.3h-31.5v-88.6c0-6.3 0-7.5.4-13.6l-22.9 102.2h-31.1l-23.2-102.8c.2 7.9.7 19.5.7 25v77.8h-31.1v-139.3h47.2l14.3 64.9c4.3 19.7 4.8 21.9 8.1 41.2.8-6.3 2-15.3 3.9-25l17.4-81.1z"/><use transform="translate(161.9)" xlink:href="#e"/><path d="m2766.1 840.5v24.6h-40.1v32h37.8v24.7h-37.8v33.5h40.1v24.7h-75.5v-139.5z"/><path d="m2787.1 840.5h49.7c30.8 0 37.8 11 37.8 35.7 0 20.7-7.2 25.3-18.4 31 17.4 3.9 18.8 10.8 18.8 27.8v29.6c0 9.3 1.9 12 5 15.4h-32.5c-2.5-4.5-4.9-8.7-4.9-20.1 0-3.4.4-20.2.4-24.1 0-15.4-3.2-15.4-22.8-15.2v59.4h-33.1zm33.1 24.2v31.8c10.5 0 13.7 0 15.3-.4 7-1.4 7.7-6.5 7.7-17.2 0-12-1.9-14.2-12.4-14.2z"/></g></g></svg>