<svg viewBox="0 0 560 100" xmlns="http://www.w3.org/2000/svg"><g id="figure"><path d="m261.2 51.2c5.1-1.5 8.6-6.3 8.4-11.6 0-8.7-7-14-18.6-14h-38.6v53.6h38.9c12.5 0 19.7-5.6 19.7-15.3.4-6.1-3.8-11.5-9.8-12.7zm-36.7 19.1v-35.8h24.2c7.7 0 8.8 3.8 8.8 6.1 0 3-.9 7.1-8.8 7.1h-17.1l-3.2 8.1h20.9c6.4 0 9.6 2.4 9.6 7.1s-3.3 7.4-9.7 7.4zm236.5-46.5c-21.1 0-35.3 11.5-35.3 28.6s14.2 28.5 35.3 28.5 35.4-11.4 35.4-28.5-14.1-28.6-35.4-28.6zm0 47.7c-13.7 0-22.8-7.7-22.8-19.1s9.1-19 22.8-19 22.9 7.7 22.9 19.1-9.1 19.1-22.9 19.1zm-308.5-44.5c-3.6-13.5-15.1-23.3-29-24.8s-27.2 5.6-33.6 18l-32.7 63h-36.2l7.9-29.4c4.5-16.7 27.2-19.2 35.1-3.8l.9 1.7h.2l7.8-15c-17.7-20.6-51.3-13-58.4 13.3l-12.3 45.9c0 .1-.2.7-.2.8 0 .7.6 1.3 1.3 1.3h61.7c.7 0 1.4-.5 1.7-1.1l36.2-69.8c8-15.3 30.6-12.9 35.1 3.8l14.1 52.3h-54.1l-7.8-15h-.2l-8.2 15.9 6.7 12.8c.3.7 1.1 1.1 1.8 1.1h79.6c.9 0 1.4-.9 1.2-1.7zm191.7-1.2h-15.5l-32.9 27v-27.3h-12v53.7h12v-14.1l14.7-12.2 20.9 26.3h14.5l-26.2-33.3zm37.7-2c-21.1 0-35.4 11.5-35.4 28.6s14.3 28.5 35.4 28.5 35.4-11.4 35.4-28.5-14.2-28.6-35.4-28.6zm0 47.7c-13.6 0-22.8-7.7-22.8-19.1s9.2-19.1 22.8-19.1 22.8 7.7 22.8 19.1-8.9 19.1-22.8 19.1zm138.2-2.2v-43.8h-12v53.7h46.3l3.6-9.6v-.3z"/></g></svg>