<svg viewBox="0 0 201 100" xmlns="http://www.w3.org/2000/svg"><mask id="a"><path d="m20 20v960h1970v-960z" fill="#fff"/><path d="m890 599.4c-41.5 0-107.3 15.9-154.9 63.7-16.8 16.8-26.9 39.5-22.9 55.7h45v-3c-6.8-.7-9.4-3.7-9.6-3.9-.1-.2 2.9-16.7 44.8-38.8 10.8-5.7 75-38 119.6-26.3 9.6 2.5 19 6.9 24.7 13.1-3.2 3.1-7.7 8.7-7.5 15.5.1 3.8 2 7.8 5 10.6 8.9 8.2 24.4 5.6 31.3-8.3 2.4-4.8 3.3-9.8 3.6-14.4 2.3-30.5-16.9-45.2-26.1-50.5-16.2-10.6-34.1-13.4-53-13.4zm357.8 142.1c-13.7 15-27.8 28.4-45.4 38.6-1.5-4.8-3.4-9.3-6.3-13.4 1.1-2.6 1.3-5.5 1.1-7.7-1.2-11.7-16-27-34.1-23.5-2.7.5-5.5.8-7.8 2.3-8.7 2.8-18.5 5-28.2 8.1l18.4 36.8c3.6-2.5 7.4-4.7 11.4-6.4-.8 4.1.4 8.4 2 10.7 3.8 5.5 6.3 5.1 6.7 7.9.7 5.7-1.4 11.9-5 17.9l9 17.9h19.8c6.3-7.5 9.5-13.6 9.1-15.3 14.5-9.9 29.4-19.6 44.3-29.4-9.1 15.1-13.1 29-14 41.3l50-33.2v-63.1c-9.6-3.3-19.9-1.6-31 10.5z"/></mask><mask id="b"><path d="m1772 428v120h120v-120z" fill="#fff"/><path d="m1828.9 434.9c8.2 0 16.2 1.9 23.5 4-.5.5-1.1.9-1.8 1-5.6.2-10.4.2-15.9.9-1.7-1.6-4.3-4.1-5.8-5.9z"/><path d="m1835 444.5c5.1-1.5 10.7-1.2 16.1-1.7 3.8-.3 7.7-1.1 10.9 1.8 2.6 3.7 4.3 10.4 4.1 15.2-2.7 2.5-4.8 5.6-7.5 8-6.2.4-12.5-1.1-19.1-2-2.2-3.3-3.9-6.9-5.9-10.3.1-3.7 1.1-7.3 1.4-10.9z"/><path d="m1798.4 447.2c2.8 1.9 5.2 6.3 6.7 9.5-2.7 6-4.8 12.1-7.7 17.8-4-.3-14.5 3.1-17.2 3.2 1.4-11.5 9.3-23 18.1-30.4z"/><path d="m1830.8 458.6c1.6 2.3 4.1 5.3 4.6 8-3.6 5.9-7.8 11.5-11.4 17.4-5.5.9-11.7.5-17.2.3-.7-.9-2.9-7.2-3.6-9.7 1.4-4.5 5.6-13.4 6.7-16.1 0 0 14-.1 20.9.1z"/><path d="m1868.1 464.5c4.1.8 8.8 1.4 12.6 2.8 3.4 6.5 4.4 15 4.7 22.2-1.2 2.5-9.3 11-11.4 11.9-3.6-2.1-8.5-4.4-11.8-6.8.6-7.9 0-15.8-.5-23.8 2-2.2 4-4.4 6.3-6.2z"/><path d="m1839.4 505.4c-1 4.5-2.5 9.3-4.2 13.7-6.4-.1-12.9.2-19.2-.1-3.6-4-6.9-8.2-10-12.5.2-5.6.1-12.5.9-17.9 6.1.2 12 .2 17.4-.6 5.2 5.6 10.3 11.3 15.1 17.4z"/><path d="m1859.9 498.7c4.9 2.6 9.4 4.8 13.3 8.7-1.8 4.7.1 13.9-1.9 15-7 .4-13.6 3.5-20.5 3.7-.9 0-1.8-.2-2.5-.4-2.5-1.9-5.4-3.3-8-5.2.3-4.8 3-10 4.4-14.7 4.9-2.2 10.2-5.9 15.3-7.1z"/><path d="m1799.8 507.7c4 5 8.3 9.8 12.1 14.9-.2 4.7.8 10.6-.4 14.9-12.2-5.2-22-14.8-27.9-26.7v-1.4c5.4-.3 10.9-1.7 16.3-1.7z"/><path d="m1868.6 526.8c-5.7 6.3-14.1 10.9-22.2 13.2-.9.1-2.4 0-3.1-.3 1.5-3.3 3.6-7 6.1-9.6 8.4-.1 11.7-3.4 19.1-3.4z"/></mask><g transform="scale(.1)"><g mask="url(#a)"><path d="m1029.7 20c-76.7.2-97.4 50.4-97.3 83.8.1 62.3 42.9 81.9 64.3 87.8 0 0 1.5 7 .3 9.3-16.6 6.8-31.2 17.4-41 32.6-9.2-.4-44-.9-49.7-1.5-24.5-62.6-81.5-96.5-134.1-96.4-42.9 0-79.8 21.8-103.6 52.9l-1.2.6c-73.2-4.8-159.3-26.6-220.2-26.4-74.8.2-138 45.8-137.1 130 1.1 99.2 74.9 143.5 130.3 142.1 26.2-1 56.6-11.2 76.7-15.1 48-9.4 103-17.6 151.6-23.6 31.5 40 72.5 55.4 107 56 80.6-4.6 130.6-59.5 140.7-127.4 6.8-1.2 37.7-2.6 37.7-2.6 16.9 49.6 55.3 93.6 59.3 98.1 1.2 1.6-.2 3.4-.9 4.9-5.1 10.9-5 24.5-3.2 36.1l-.6 1-43.9-.1c-4.5 0-8 3.1-10.7 5.6l-10.9 10.1c-.3-8.5-5.2-15.8-13.5-15.8h-177.2c-8.1 0-11.6 7.8-11.6 16l-7.7-8.1c-3.7-3.9-7.3-7.9-13.5-7.9h-261.4c-7.9 0-13.4 6.4-13.5 14.3l-8.5-7.6c-3.4-3.1-6.3-6.6-10.8-6.6h-112.9c-11.1 0-15 10.4-15 15.6-4.9-4.4-9.8-12.3-16.6-14.5-2.7-.9-4.1-1.1-6.9-1.1-19.7 0-59-.1-59-.1-10.2 0-20 10.7-26.8 17.3l-9.8 9.7-14.2-13.8c-6-5.8-9.5-13.2-18.6-13.2h-111.4c-10.1 0-14.4 8.2-14.4 17.4v48.6c0 8.4 7.1 13.1 15.1 13.6v97c-7.6.7-15.1 5.3-15.1 13.6v54.3c0 6.2 5.4 12.1 11.4 12.1h84.4c3.6 0 5.5-2.2 8.5-3.1 2.9 1.5 5.2 3.1 8.6 3.1h42.9c8.3 0 14.1-8.1 13.5-16 1.8.2 2.7 2.4 3.9 3.6 5.2 5.5 8.8 12.4 16.8 12.4h67.2c10.1 0 13.8-10 20.6-16 0 4.4 4.3 16 16.9 16h111c5.8 0 14.7-10 19.3-14.6-.1 7.3 5.9 14.6 13.4 14.6h231.4c2.5 0 5.2-1.7 7.2-3.2 4.9 2.3 7.6 3.1 13.2 2.9h40.4c4.3 0 11.3-8 11.3-12.3v-58c0-2.9-4.8-7.7-9.3-8.2-2.5-.3-2.9-2.2-3.7-4.1l-9.1-21.7 13.2-13c4-3.3 8.9-6.6 9-11.9l.1-6.2h40.8v55.1c-7.8 0-15.3 7.2-15.3 14.2v52.8c0 6.6 7.4 13.9 14 13.9h81c7.5 0 13.8-6.4 13.8-13.9v-52.8c0-6.8-6.7-14.2-13.9-14.2l-.1-54.7 39.3-.1.7 92.1c0 1.6 1 4.8 2 5.9l30.3 32.2c2.6 2.9 5.7 5.3 9.5 5.3h68.8c4.2 0 7.1-3.1 10.1-6.2l23.6-24.9c2.7-2.9 7-6.9 7-12.4l-.1-117.3c.8-2.1 3.6-.8 5.2-.4 8.5 2.7 18.2 6.5 24 13.5.7.5.9 1.3.8 2.2-4.6 3-10 5.8-8.5 11.9 2.9 12.5 7.4 25.3 12.2 37.2 1.9 4.7 6.2 3.6 10.4 5 3.8 8.6 8.3 18.3 8.2 27.7-8.9 8.3-18.2 18.7-23.9 29-1.3 5.8 2.1 12.4 4.7 17.4 16.9 36.8 35.5 72.9 53.7 109.1 5.7 11.2 25 20 41.2 19.9 37.8-.2 83.9-44.7 74.8-99.9l-19-115.4c-.5-3-2.3-5.2-5.3-6.1-5.7-1.8-12.7.9-18.1 3-1.9.8-2.6-.6-3.1-2.5-1.8-7.6-5.1-15.3-7.6-22.8 1.7-3.3 4.1-5.8 4.5-9.9.4-4.4-4.2-28.8-10.8-37.1-2.8-3.5-6.6-4.2-10.9-3.6-1.9-10.7 15.8-38.3 18.3-42l16-13.8c2-1.7.4-4.7-1.1-7.1l-64.1-101.5c-1.6-2.6-2-3.4-1.4-6.3 2.3-11.6 4.4-20.7 5.2-29.9 1.1-12.3 1.1-24.2.7-36.3l282.5-30.3c4.2-.5 7.9-4.5 7.6-9.2-.4-5.7-6-9-11-10.3-6-1.5-12.7-.9-18.8-1.1l-273-8.4c-7.6-13.7-17.1-26.6-29.2-36.5-5.6-4.2-13.9-8.9-20.6-4.4-1.1-.4-4.8-1.7-4.1-3.3 7.6-3.6 17.4-8 21.5-15.8 4.1-7.7-1.4-15.3-3.7-18.1-1.6-1.9 3.5-3.7 4.6-5.3 2.9-4.5-.2-11.5-3.3-15.1.6-5.4-.6-9.9-3.1-14.6.9-2.4 3.3-4 5-5.8 1.2-1.3 1.1-5.5.8-6.2-3.7-8.1-11.7-11.3-18.5-15.7.7-4.9 4.2-8.2 3.2-13.6-2.6-13-17-25.5-20.5-31.4 1.2-5.8 3.1-13 1.2-18.9-22.9-14.3-61-15.2-70.5-15.2zm-422.3 545.7.9.7v47.8l-.9.7c-1.5-.8-3-1.7-4.5-1.7l-23.6-.1v-45.5h20.7c2.9 0 4.9-.5 7.4-1.9z"/><path d="m793.4 587.6.5 2.2 4.3 3.7v-5.9zm-40 19.9v5.6c5 5.6 11.5 12.1 17 17.8l4.7-3.4c-7.4-3.5-16.6-14.2-21.7-20zm352.9 40.1-21.8.4v11.9l16-.1 7.9-6.7zm-204.2 7.3v10.7l15.2 6.1.1-10.8zm-129.4 30.3c-1.1.8-2.4 1.6-3.5 2.4l-2.8 2.1c-.4.3-.7.6-1.1.9-.1.1-.1.1-.2.2 0 0 0 0-.1.1l17.3 13.4v-11zm302.3 6.5-13.1 14.7 29.9 1.5-5-16.1zm-171.6 14.7-3.3 12.8c18.9 7.2 38.1 13.8 57.6 19.5.5-.6.9-1.1 1.5-1.7 2-2.2 4.9-2.8 7.7-2.6 4.6.2 9.1 2.4 9.6 2.6 1.1.5 2.1 1.1 3 1.8.1.1.2.2.3.2 2.8 2 4.7 4.5 6.2 7.2 8 2 16.1 3.8 24.2 5.4 1.1-.6 2.1-1.3 3.2-1.9 2.1-1.2 4.1-2.3 6.1-3.3 5.2-2.5 10.2-4.6 15.1-6.1 2.5-.8 4.9-1.4 7.2-1.8 2.4-.4 4.7-.7 7-.8 5.4-.2 10.6.7 15.3 3 6.9 3.3 13 9.8 13.3 19.4v.7c6.1.4 12.2.8 18.4 1 4.8-3.9 10-7 15.2-9.5l-6.9-13.9c-60.3 2.6-146.5-8.4-200.8-32.1zm-12.8 42.8.4 1c1 1.3 1.8 2.7 2.5 4.1 2.2 4.2 3.4 8.7 3.9 13.1l21.8 5.6c3-1.8 5.8-3.6 8.7-5.6 2.8-1.9 5.5-3.9 8.1-5.9z"/><path d="m1457.7 327.8c-2.5 3-6.7 37.1-47.1 105.9-39.2 66.2-89.5 125.9-138.8 184.6l-.2 1c12.3-10.6 24.5-21.9 36.2-33.2 44.6-40.5 90.4-92.4 117.1-142.8 10.1-19 18.8-36.1 26.7-54.6-.9-15.4 4.6-41.1 5.6-53.5zm4.8 167.8c-55.7 58.2-115.5 111.9-180.8 159.2 42.6-24.2 142.3-97 184.1-151zm34 93.7c-38.2 17.8-79 38-115.5 55.8-28.4 13.9-57 27.5-86.1 39.8l.1 1c31.7-14 78.1-33.3 125.4-51.5 28-10.8 59.9-23 87.9-34.5v-.1c-2.6-1.7-8.3-6.8-11.8-10.6zm82.6 49.2c-5.7-.1-12.6 2-17.7 3.2-34.2 8-76.4 22.3-118.3 36l-.3 5.9c86.7-16 144.9-23.2 176.8-22.2 1.1 0 2.6-.6 3.5-1.1-11.4-1.4-28.6-12.3-41-21.6-.9-.1-1.9-.2-3-.2zm-262.1 80.9c-.3-.2-30.8 6.7-30.8 9.5 3.7-3.1 30-3.2 30.8-9.5z"/><path d="m1724.2 136.3c-146.9 0-266 119.1-266 266s119.1 266 266 266 266-119.1 266-266-119.1-266-266-266z"/><g fill="#fff"><path d="m1062.9 47.7c-15.7.2-27.6 10.5-30.8 24.7-.8 8.6-1.6 17.4.3 25.8.6 2.8 1 6.5 1.6 9.3-3.4-.8-3.9-3.3-6.4-5.2-6.8-5-16.7-9.3-25-6.1-7.2 2.8-9.7 10.1-9.6 18.1.1 8.5 3 17.7 6.4 23.1 7 11.1 20 17 31.6 22.2-1.5 3.5-13.7 19.1-25.8 27.1-.3 4.8.5 9.7.3 14.5.7 1.7 8.9-1.1 13.1-1.6 16.6-2.4 27.3-1.4 42.1-.4 8.4.5 34.1 5.5 48.1 12.1 6.5 3.1 13 7.2 19.2 10.6-2.5-4.4-7.6-7.8-9.5-12.6-6-3.7-12.5-7.3-18.2-11.5-2.1-1.3-1.1-3-2.2-4.9-8.3-1.5-16.4-5.2-24.1-8.6-13.5-6-26.6-13-39.1-20.9 4.9.9 44.8 24.3 79.3 21.3 5.8-.5 11.2-4 13.4-9.2 1.6-3.9-2.1-7.5-4.4-10.4-1.9-2-1.9-5.2-.8-7.5 1.3-2.8 4-4.2 6.5-6-.1-1.4-1.3-2.5-1.3-4.2-4.7-2-11-.6-16-2.2v-1c4.5-1.6 8.7-3.9 13.1-5.8-.7-3.9-2.7-7.6-3.9-11.3-2.4-.3-4.8.4-7.2.2 2.3-4.1 8.7-5.8 12-9.3.6-.4.9-1.1.8-2.1-4.6-6.3-11.5-6.8-17-11.3-3.4-7 1.8-11.5 2.3-17.9-2.5-8.7-9.5-16.7-15.5-23.4-2.1-2.8-5.7-4.4-5.5-8.4-6.1-3.6-13.8-5.4-20.8-6.8-2.3-.3-4.7-.5-7-.5zm41 42c1.5 0 3 .1 4.3.2-.5 2.7-2 5.3-3.2 7.8-7.1-2.5-15.5-2.2-21.6 2.6 2.3-8.5 12.3-10.6 20.5-10.6z"/><path d="m1218.2 489.4c-10.2 2.6-40.4 15.9-79 29.4-23.1 8.1-42.4 15.2-65.8 22.7l.1 2c5.7-.9 32.8-10.1 44.8-14.7-5.7 4.3-14.2 13.8-6.7 20.4 10.7 10.3 26.9 11.5 40.9 10.5-6.5 2-32.3 9.4-37.4 11.2-5.7-15.9-32.7-23.4-41.5-25.4l-.2 2.3c16.5 3.4 35.8 12.4 39.4 25.7 0 0 24.9-6.2 43.9-12.6 22.1-7.4 43.6-17.9 43.6-17.9-1.6-3.9-2.1-7.7-1.6-12 1-8.7 10.7-29.2 19.4-41.6zm-17.7 20.6c-3.5 10-9.2 21.3-3.2 31.3-2.9 1.7-6.5 3.2-9.8 4.6-2.8-12.5 5.9-25.6 12.1-35.5z"/></g><g fill="#df111b"><path d="m1041.2 198.3c-9.6 0-20.7.5-31.3 2.6-1.3.1-3.4 1.6-4.5.3-.9 6.7-1.6 2.7-13 8.3-10.8 5.4-22 12-26.6 24 8.1 2.1 60.5 1.3 71.9 4.7 33.9 10.2 38.4 57.9.7 73.1-17.1 5.4-36.5 4.2-57.2 6.4-5.8.6-12 1.1-17.8 1.3-.9.8-1.8 1.5-2.7 2.3 9.1 25.7 41.1 81 62.3 97 38.7-16.7 93.2-37.1 141.8-50.1 4.8-21.4 8-42.1 7.4-64.5.1-68.6-41.4-94.7-45.8-96.9-2.8-1.4-5.4-1.4-8.1-.2l.4 2.9c1.9 4.8 6.6 7.8 9.1 12.3-24.3-16-52.4-23.7-86.8-23.7zm-25.7 10.8c36.5 0 48.7 17.7 57.7 40.2 3.1 7.8 4 15.9 5.6 24 3.9 18.6 27.3 30.5 34 33.1 3 1.2 9.8 3.1 14.3 4.9-9.3 2.1-18.4.1-27.2-2.5-17.3-5.1-21-7.4-25.5-10.5-2.4 3.3-4.6 6.6-7.2 9.9-12.4 15.2-41.7 37.6-37.7 58.8 10.4 25.6 50.4 17 74.4 14.6l.1 1.6c-14.6 3.6-76.6 26.9-81.3 31.5-22.1-23.6-56.9-79.8-56.8-90.8 15.8.1 31.5-3.7 47.4-4.9 23.9-1.8 38.5 1.4 51.1-19.4 4.1-6.8 11-27.7 3.7-41.6-12.3-23.5-29.6-26.5-50.5-26.9-12.7-.3-27.4-.7-40.9-1-2.1-.1-.9-3.6.4-4.7 14.9-12.2 27.4-16.3 38.5-16.3z"/><path d="m1214.1 586.6.1.2s-9.6 5.7-33.3 14.9c-24.7 9.6-57.4 18.9-57.4 18.9 1 4.9 9.1 29.7 10.3 34.6-3.7 7.2-23.9 21-23.9 31.6 0 4.5 2.8 9.9 8.5 21.6l51.1 100.7c6.8 13.5 21 15.4 32.1 15.4 40.3 0 77.5-52 69.5-93.4l-22.1-115.3c-6.5 1.5-13 4.6-19.2 5.8-3 .6-5.2-3.5-6.6-5.7-3.6-5.6-6.2-14.5-7.1-17.3-.7-2.1-.3-9.7-2.1-12zm-62.8 28.4v.1c-5.4 5.5-16.9 10-13.3 19.4 6.8 18 34.4 9.5 49.9 8.6-16.1 5.4-48.1 17.5-51.9 5.7l-8.1-25.6c15.1-4.4 19.8-6.4 23.4-8.2zm44.9 47.9c4.3.1 10.3 2.4 11.1 8.1l14.5 96.7c3.4 24.7 7 53.9-25.8 53.6-16.6-.1-21.8-10.7-30.5-27.9l-46.2-91.3c-2.7-5.7-6-12.4-6-15.4 0-3.5 6.3-13.4 9.4-15.6-1.5 5.4-1.6 11.3 2.6 11.5 15.5.7 31.1-7 47.3-12.7 7.6-2.7 15.5-7.2 23.6-7.1z"/></g><g fill="#024b92"><path d="m1165 368.3c-48.6 12.8-95.6 30.9-142.1 49.9.9 3.3-1.3 7.1-2.8 10-5.3 9.8-4.9 27.5-2.2 33.5l2.9.3c-.8-17.9.5-29 8.5-41 6.4-3.5 49.8-23.5 71.7-25-32.2 17.8-62.3 30.4-63.2 68.8l33.9 33c2.5 1.8 1.7 4.8 1.7 7.6v15.8c0 2.6 3 3.4 5.2 3.4 18.5.3 25-.9 35.9-2.8-4.2 2.9-36.5 13.4-41.1 14.5v5.4c57.9-18.6 127.6-45.9 127.6-45.9-7-26.6-16.6-55.6-25.2-83.2 15.6 24.5 30.3 50.6 42.6 76.7 4.3-4.3 9.2-7.7 14.2-11.8-5.4-13.8-65.3-102.1-67.7-109z"/><path d="m1200.4 543s-24.2 11.5-43.7 17.9c-20.3 6.6-43.8 12.6-43.8 12.6l.2 3.2c25.5-2.6 62.1-19.1 82-25.6-30.4 17.4-85.9 30-91.6 34.6l10.6 32.6c2.9 1.6 6.4-.6 9.4 2.4 0 0 32.8-9.3 57.5-18.8 23.7-9.1 33.2-15 33.2-15 1.4-2.8 1.9-5.1 4.9-6.6.2-5.3.9-11.4-1-16.3-3-6.7-4.5-14.6-8.5-20.8-3.1 1.1-6.1 1.8-9.1-.2zm-66.7 35.2c-25.2 17.4-11.1 32 14.5 30.8-2.4.8-22.8 7.5-30.2 6.7l-9.9-29.2c8.1-2.9 17.4-6.2 25.5-8.3z"/></g><g fill="#df111b"><path d="m34 476v51h15v63h122l5-5v-79l-31-30zm66 51h24v38h-24z"/><path d="m210.6 476-29 30v84h50.4v-63h24v63h49.7v-84l-29-30z"/><path d="m312 476v51h15v63h116l-1.5-2 10.5-13v-69l-30.9-30zm66 51h24v38h-24z"/><path d="m459 476v51h15v63h91v-25h-40v-37h24v25.5l52-.5v-77z"/><path d="m607 476v51h15v63h122l5-5v-79l-31-30zm66 51h24v38h-24z"/><path d="m755.5 476v93h50v-43h11v64h51.5v-64h11v43h50v-93z"/><path d="m965.2 476-29 30v84h50.4v-63h24v63h49.7v-84l-29-30z"/></g><g fill="#024b92"><path d="m49 590 .4 63h-15.4v51h81v-51h-17v-41h2l15 41 18 51h42v-51h-8l-17-42.5 21-20.5z"/><path d="m210.6 706-29-32.5v-83.5h50.4v63h24v-63h49.7v83.5l-29 32.5z"/><path d="m312 704v-51h15v-63h116l9 10.5v75.5l-26.5 28zm66-51h24v-38h-24z"/><path d="m459 704v-51h15v-63h91v25h-40v38h24v-26.5l52 .5v77z"/><path d="m622 590 .4 63h-15.4v51h81v-51h-17v-41h2l15 41 18 51h42v-51h-8l-17-42.5 21-20.5z"/><path d="m816.5 590v63h-15v52h81v-52h-14.5v-63z"/><path d="m965.2 706-29-32.5v-83.5h50.4v63h24v-63h49.7v83.5l-29 32.5z"/></g><g fill="#fff"><path d="m49 491.5v20.5h15v157l-15-.1v20.1h50.5v-20h-16.5l1-70.5h22l33 90.5h21v-20h-3.5l-30-70.7h14.5l19-19.3v-66.5l-21-21zm36 21.5h54v66h-54z"/><path d="m217.5 491-20.5 20.5v156l20.5 21.3h53l20.5-21.3v-156l-20.5-20.5zm.5 21.5h52v156.5h-52z"/><path d="m327 491v21h15v157h-15v20.5h90l21-21v-64l-17.5-17 17.5-18.8v-56.2l-21-21.5zm36 22h54v65h-54zm0 90h54v65h-54z"/><path d="m474 491v21h15v156.5h-15v20.5h111v-47h-21v25.5h-54v-67.5h40v-20h-40v-67h54v26h21v-48z"/><path d="m622.4 491v20.5h15v157l-15-.1v20.1h50.5v-20h-16.5l1-70.5h22l33 90.5h3.9l13.5-20.3-29.9-70.4h14.5l19-19.3v-66.5l-21-21zm36 21.5h54v66h-54z"/><path d="m770 491v63h21v-41h41v155.6h-15v20.5h51v-20.5h-15v-155.6h41v41h21v-63z"/><path d="m972 491-20.5 20.5v156l20.5 21.3h53l20.5-21.3v-156l-20.5-20.5zm.5 21.5h52v156.5h-52z"/></g></g><path d="m448.4 170.1c2.7 0 7.7.4 10.3.5 70.4 4.5 140.4 21.1 211.2 25.9 1.5-.2 2.9-.7 4.2-1.7 23.5 1.9 51.1 6 73.4 18.9 24.6 14.4 34.3 39.8 34.6 70.4-.1 14.5-2.5 34.6-15.7 43.6 2.6-18.7.2-23.2-8.4-39.5-.2 12.1-8.8 50.5-31.7 57.8.4-23.7-3.2-39.3-10.1-53.8-.9 14.6-12.6 52.3-32.6 59.5 2.6-21.7 1.3-42.9-11.7-60.6-.6 25.4-11.4 55.2-32.8 69.3 3.9-29.2-.9-54.7-9.1-70.2.8 24.5-16.3 73-35 80.2 7.2-39.5-.3-55.6-6.6-77.8-.9 16.7-5.8 40.1-14.2 57.5-7.5 15.4-16.8 23.6-25.9 28.3.6-4.3 12.8-53.5-4.3-83.1-.2 12.8-.7 15.9-1.8 24.8-7.4 60.1-56.5 83.6-100.8 83.5-51.9 0-106.9-48-107.1-118.8 0-26.7 12.2-52 28.3-69.1 24.7-26.3 56.7-37.3 60.9-39.3-11.7-2.3-100.9 29.1-100.9 116.6-.1 48.3 39.7 130.1 115.4 130.4 20.3.1 44.2-6.4 61.6-10.2 58.1-12.8 114.6-19.5 171-27v1.4c-57.7 8.6-114.6 16.8-171 29.5-24.6 5.5-36.9 10.6-61.5 10.6-72.8.1-121.3-66.8-121.3-135.5 0-50.2 35.6-122 131.5-122.1z" fill="#df111b"/><path d="m776.9 143.8c-30.5 0-66.7 7.7-102.8 51.1 4.3-.1 74.3 9.4 79.6 11.1 35.1 11 51.7 46 52.8 80.4.5 64.8-36.2 81.4-36.7 81.6-15.8 8-33.7 10.2-51.1 12-28.5 3.7-26.3 3.3-48 6.2v1.4l8 7.6c37.7 35.6 72 48.7 98.9 48.8 48.2 0 132.3-48.8 132.5-151 .3-87.7-73.4-149.2-133.2-149.2zm-15 3.3c10.8-.1 23.6.9 40.1 7.8 36.8 15.4 83 68.3 83 141.7 0 41.8-12.6 71.5-27.8 91.9-32.4 43.3-69.3 50-83.8 47.5 37.4-6.1 59-28.8 66.4-38.6 32.8-43.3 34-78.8 34.4-100.6.9-42.1-20.3-114.6-80.9-139.4-8.9-3.7-30.5-8.6-41.5-9.9 3.2-.1 6.5-.3 10.1-.4z" fill="#024b92"/><g fill="#fff"><path d="m709.8 209.5c1.8 1.8 4.3.9 6.5 2.2-141.9-6.2-245.9-28.4-286.1-13.3-41.9 15.6-67.4 50-81.6 91.1-7.3-55.2 52.3-112.1 112.7-111.7 83 1.5 167.1 26.2 248.5 31.7z"/><path d="m751.5 157.5c30.3.1 60 13.7 78.7 37.7 14.3 18.4 24.9 40.8 28.3 64.1-2.2-.3-5.5-30.9-29.8-54-20.6-20.1-48-26.2-75.6-23.2-11.9 1.3-22.9 4.5-31.7 13.2-11.1-2.7-21.2-5.3-32.5-7.4 4-16.1 32.7-30.5 62.6-30.3z"/><path d="m1051.5 245.6c3.3 2.6 8.3 8.2 10.8 14.8l-147.5 1.3c-1.5-8.1-3.5-14.9-4.6-18.3z"/><path d="m1063.9 265.3c.3 1 .7 2.9 1 6.1l-148.2 3.5c-.2-1.9-.4-5.2-.6-7.1z"/><path d="m1166.4 247.4 293.2 4.8c2.4 0 6.1.4 6.1 3.5l-295.5 3c-.8-3.8-2.2-7.7-3.8-11.3z"/><path d="m1466.7 258.4.1 1-293.9 8.4c-.5-1.4-.7-2.7-1.1-4.2z"/></g><path d="m1728.3 145.6a253.5 253.5 0 00-253.5 253.5 253.5 253.5 0 00253.5 253.5 253.5 253.5 0 00253.5-253.5 253.5 253.5 0 00-253.5-253.5z" fill="#fff"/><g fill="#df111b"><path d="m1885.5 257.5c-.1 30.3-16.4 41.8-79.5 56.5-20.9 6.2-65.1 6.5-67.4 36-.4 18.9 15.2 21.8 49.6 25.6 15.5 1.7 36.3.7 65.2-.9 0 0 1.4.4 1.4 1l-.2 29s-3.1.7-5 .9c-19.4.9-39.3 3.3-58.5 2.3-27.6-1-63.2-4.4-73.5-34.7-2.6-8.5-2.6-18.5-1.4-27.2 7.9-55.5 88.2-51.3 123-73.5 11-7.1 18.3-19.2 15.1-32.1-4.1-16.5-28.4-15.3-46.3-7.9-37.7 15.8-73.1 52.3-91.7 72.6-37.8 41.3-82.2 110.9-82.2 110.9h-31c0-.1 1-4 2.2-6.4 23.8-43.9 51.5-86.4 86.1-122.5 42.4-43.7 85.6-73 144-73 43.1 0 49.8 28.1 49.8 43.3z"/><path d="m889.9 607.6c-35.8-.3-103.6 15.6-149.1 61.3-8.7 8.7-17.3 21.2-20.1 33.4-1.5 6.6-2.7 13.8 1.1 19.7 6.3 9.8 19.1 13.3 29.7 16.2 12.7 3.5 42.7 7.7 56.9 10.8 12.5 2.7 27.5 6 38.2 13.9 20 14.6-3 44.8-20.4 59.9-1.9 1.2-4 2.9-6.2 3.1-18.7 6.6-40.4 13.7-58.8 20.5-38.2 14.2-52 20.1-52 31.2s14.5 10.6 22.2 9.5c29.2-4.1 56.7-16.9 82.6-31.2 13.5-7.5 26.3-16 38.5-25.5 21.7-7.3 43.5-16.3 63.5-27.7 11.9-6.8 24-14.6 33.6-24.3.2 5.1-2 10.8-3.4 15.5-3.8 13.1-9.2 30-13.6 42.6-25.9 31.1-50.7 62.9-63.6 102.1-6 17.4-8.8 41.4 14.5 41.4 7.3 0 11.8-6.6 19.5-19.1 21.7-35.8 36.7-74.5 51.8-113.8 1-1.6 3.8-1.8 5.3-2.9 2.4.6 3.1 8.6 13 11.5 12.8 3.8 25.8-1.5 37.1-7.6 4.9-2.1 7.5-6.6 12.9-7.8 6.5-1.8 42.6-16.8 64.3-34.8 2.2-1.5 3.6-3.7 6.6-2.8-8.9 25.8-4.9 55.5 28.8 57.8 16.5 1.1 48.7-14.9 67.8-46.5.2-1.1.3-2.2.6-3.3 21.1-14.5 43-28.4 64.4-42.6 10.1-6.7 9.3 2.2 6.6 5.1-8.8 9.8-16.2 21.4-20.8 34.1-9 24.5-5.4 50.2 9.3 52.4 39.9 6 74-40.3 81-49.8-3.9 9.9-8.5 46.3 20.5 46.9 33.3.6 83.4-49.9 85.4-55 2-4.9.8-10-2.8-14.3-1.7-2-3.8-1.7-5.6 0-8.6 8.6-18.7 15.8-28.8 22.6-12.5 8.5-27.1 17.6-42.1 20.1-15.8 2.6-15.4-6.8-11.5-16.9 8.7-22.6 43-74 53.1-88.2 73.5-12.8 112.1-24 164.3-24.6 3.9 0 21.9.5 21.9-13.5 0-1.9-4-14.1-26-10.5-50.9 8.3-123.1 20.4-142.2 23.9 6.3-8.5 13.8-16.4 12.7-27.7-1.3-6.7-10.7-6.7-15.1-3.2-2.8 2.2-10.9 15.5-22.4 34.6-2.9 2.3-8.1 2.3-11.7 3-12.7 2.3-25.8 4.3-38.4 6.6-13.8 2.5-22.4 25.1-15.8 25.3 10.8.2 43.1-8.5 49.3-8.7-15.3 22.5-31.2 47.4-47.6 69.8-13.6 18.6-37.1 31-60.3 35.9-17.4 3.7-14-3.1-11.8-7.5 9.7-19.2 32.8-40.8 36.6-45.8 1.4-9.4-5.7-19.2-10-27.2.9-9.6-.1-17.9-12.1-17.8-13 .1-23.8 16.5-32.2 26.9-8.4 7.6-36.7 28-43.1 27.6.4-7.3-2.7-14.6-6.5-20.8-1.7-2.2-2.8-3.1-2-6.1 3-3.3 1.6-7.5-.1-10.9-6-7.4-15-11.9-24.7-10.8-1.9-.1-2.8 1.1-4.4 1.8-20.1 6.6-42.4 9.4-59 23.8-10.8 11.9-21.8 24.2-34 34.6-7.7 6.7-16.1 11.9-24.8 17 1-5.1 29.9-34.1 29-60.9-.2-5.2-4.2-9.8-8.8-12-16.8-8.2-54.9 9.2-85.6 42.9-.3-3.3.6-5.5 1.8-8.6 3.9-11 7.5-22 1.9-32.9-2.2-4.2-8.9-7.5-13.8-6.9-4.8 5.1-8.5 11.2-13.5 16.2-18.5 18.5-44.3 30.8-67.4 42.3l-2.6-.2c6.1-11.3 9.9-22.7 7.4-35.8-2.4-10.4-10.4-16.8-16.4-20.3-32.7-19-97.2-15.8-119.5-21.6-9.6-2.5-18.8-7-9.7-21.2 14.5-22.8 65.7-51.2 122.2-63.1 16.2-3.3 32.4-3.7 48.5.5 13.1 3.5 27.4 9.9 33.6 22.5-6.2 3.3-14.5 12.6-8 18.6 3 2.8 6.6 3.5 10.5 1.9 15.5-6.4 10.6-33.1 9.6-36.5-3.4-11.1-10.8-20.2-20.7-25.9-18.3-10.6-40.5-12.1-49.1-12.2zm286.5 158c-4 3.2-8.6 7.2-11.5 11.6-2.1 3.8 2.2 7.3 4.7 9.6 4.9 3.6 4.4 10.3 3.3 15.5-4.8 22.1-22.7 41.6-45.8 43.3-22 1.6-18.8-18.4-18.2-21.9 3.9-22.6 27.7-54.3 58.9-58.8 3-.4 6-.9 8.6.7zm-136.4 2.1c12.6 2.8.9 16.1-4.1 22.1-11.1 13.4-24.8 23.2-38.1 34.3-3.1 1.2-4.7-1.1-7.8-1.2-9.9-.5-17.5 2.6-26.7 4.3 3.1-8.1 8.3-15.6 13.7-22.3 22.4-27.7 50.8-39.9 63-37.3zm-253.2 83.4c-.8 3.6-14.5 8.8-19.8 10.9-7.8 3.2-17.8 8.3-25.4 6.9 13-9.2 31.1-15.1 45.2-17.8zm134 19.9c-2.7 4.8-7 17.4-15.3 37.2-.7 1.6-14.9 35.3-20.4 36.5-1.1-8.7 5-27.8 10.2-39.1 7.8-16.7 20.3-32.4 25.5-34.6z"/></g><g fill="#024b92"><path d="m1728 314.2c-14.1 17-20.3 39.9-13.8 61.2 7.9 25.8 40.9 30.1 40.8 69.9-.1 63-122.6 113.2-183.1 127.8l-2.8-17c45.4-15.5 143.9-58 143.8-110.8 0-30.1-29.8-33.5-29.8-65.3 0-43.8 39.2-65.1 44.8-65.8z"/><path d="m1786.1 551.4c33.2-.6 66.2 2.5 99.3 5.6l-.5 18.8c-38.2-4.6-76.7-7-115.1-7-61.4 0-126.9 4.5-187.8 15.6l-1.2-6.8c97.7-24.6 149.6-26.2 205.3-26.2z"/></g><path d="m1831.9 431.4a57 57 0 00-57 57 57 57 0 0057 57 57 57 0 0057-57 57 57 0 00-57-57z" mask="url(#b)"/></g></svg>