<svg viewBox="0 0 312 100" xmlns="http://www.w3.org/2000/svg"><g fill="#1868b0"><path d="m36.53 26.17h-6.2c-.53 0-.99-.26-1.11-.55l-2.69-6.12h-13.44l-2.69 6.12c-.12.29-.58.55-1.1.55h-6.2c-.59 0-1.05-.22-1.05-.55 0-.03.06-.09.06-.16l9.58-20.18c1.4-2.99 5.61-3.28 8.12-3.28s6.72.29 8.12 3.28l9.58 20.18c0 .07.06.13.06.16 0 .32-.47.55-1.05.55m-15.77-19.89c-.18-.39-.35-.51-.93-.51-.59 0-.76.13-.94.51l-4.21 9.56h10.29z"/><path d="m76.85 26.17h-7.13c-.64 0-.88-.32-1.17-.64l-8.41-8.6h-.82c-1.52 0-3.86-.1-5.2-.13v8.73c0 .35-.47.64-1.11.64h-5.85c-.64 0-1.17-.29-1.17-.64v-22.14c0-.65.7-.87 1.87-.97 3.04-.26 7.19-.42 11.46-.42 9 0 16.83 1.77 16.83 7.27v.29c0 3.41-3.1 5.54-7.89 6.57l9.18 9.4c.11.09.11.19.11.25 0 .23-.23.39-.7.39m-8.77-16.9c0-2.42-2.92-3.44-8.77-3.44-1.23 0-4.14.07-5.2.13v7.24c.93.03 4.21.1 5.2.1 6.02 0 8.77-.9 8.77-3.74z"/><path d="m113.9 5.99h-10.22v19.54c0 .35-.53.64-1.17.64h-5.79c-.64 0-1.17-.29-1.17-.64v-19.54h-10.23c-.64 0-1.17-.22-1.17-.58v-2.54c0-.35.53-.62 1.17-.62h28.58c.64 0 1.17.26 1.17.62v2.54c0 .35-.53.58-1.17.58"/><path d="m150.31 26.17h-25.53c-1.7 0-2.98-.32-2.98-1.19v-1.77c0-.39.18-.74.76-1.22l18.53-15.29c.11-.1.17-.19.17-.29 0-.16-.17-.26-.58-.26h-16.25c-.64 0-1.11-.22-1.11-.58v-2.7c0-.35.47-.61 1.11-.61h23.55c1.7 0 3.1.39 3.1 1.22v1.87c0 .45-.35.93-.82 1.32l-18.24 15.03c-.17.13-.23.26-.23.35 0 .13.11.19.53.19h18c.64 0 1.17.22 1.17.58v2.71c0 .35-.53.64-1.17.64"/><path d="m187.95 5.99h-10.23v19.54c0 .35-.53.64-1.17.64h-5.79c-.64 0-1.17-.29-1.17-.64v-19.54h-10.23c-.64 0-1.17-.22-1.17-.58v-2.54c0-.35.53-.62 1.17-.62h28.58c.64 0 1.17.26 1.17.62v2.54c0 .35-.53.58-1.17.58"/></g><g fill="#e50358"><path d="m2 53.59v40.82c0 2.39 1.3 3.59 3.9 3.59s3.9-1.2 3.9-3.59v-30.61c0-3.84 3.5-6.55 7.44-6.55h24.95c3.92 0 7.43 2.7 7.43 6.55v30.61c0 2.39 1.3 3.59 3.91 3.59 2.6 0 3.9-1.2 3.9-3.59v-30.61c0-7.93-6.93-13.8-15.24-13.8h-24.95c-2.86 0-5.46.63-7.81 1.89-.63-1.26-1.81-1.89-3.53-1.89-2.6 0-3.9 1.19-3.9 3.59z"/><path d="m114.59 70.41h-35.15v-6.61c0-3.85 3.51-6.55 7.43-6.55h27.72c4.12 0 7.43 2.83 7.43 6.55 0 3.78-3.42 6.61-7.43 6.61zm0-20.41h-27.72c-8.31 0-15.24 5.87-15.24 13.8v20.41c0 7.82 6.97 13.8 15.24 13.8h27.72c2.61 0 3.91-1.2 3.91-3.59 0-2.43-1.3-3.65-3.91-3.65h-27.72c-3.92 0-7.43-2.7-7.43-6.55v-6.62h35.15c8.02 0 15.25-5.63 15.25-13.79 0-7.93-6.92-13.8-15.25-13.8z"/><path d="m198.12 94.41v-40.82c0-2.39-1.31-3.59-3.91-3.59s-3.9 1.19-3.9 3.59v30.62c0 3.85-3.52 6.55-7.43 6.55h-27.72c-3.94 0-7.43-2.72-7.43-6.55v-30.62c0-2.39-1.3-3.59-3.91-3.59-2.6 0-3.9 1.19-3.9 3.59v30.62c0 7.8 6.96 13.8 15.24 13.8h27.72c2.85 0 5.46-.63 7.81-1.89.62 1.26 1.8 1.89 3.52 1.89 2.6 0 3.91-1.2 3.91-3.59z"/><path d="m213.95 53.59v40.82c0 2.39 1.31 3.59 3.91 3.59s3.9-1.2 3.9-3.59v-30.61c0-3.85 3.52-6.55 7.43-6.55h11.05c2.6 0 3.9-1.22 3.9-3.66 0-2.39-1.3-3.59-3.9-3.59h-11.05c-2.85 0-5.45.65-7.8 1.95-.63-1.3-1.81-1.95-3.53-1.95-2.6 0-3.91 1.2-3.91 3.59z"/><path d="m301.75 84.2c0 3.86-3.53 6.55-7.43 6.55h-27.72c-3.93 0-7.43-2.71-7.43-6.55v-20.41c0-3.85 3.51-6.55 7.43-6.55h27.72c3.9 0 7.43 2.69 7.43 6.55zm-7.43-34.2h-27.72c-8.33 0-15.25 5.88-15.25 13.8v20.41c0 7.81 6.97 13.8 15.25 13.8h27.72c7.8 0 15.24-5.54 15.24-13.8v-20.41c0-7.91-6.91-13.8-15.24-13.8z"/></g></svg>