<svg viewBox="0 0 306 100" xmlns="http://www.w3.org/2000/svg" xmlns:xlink="http://www.w3.org/1999/xlink"><defs><path id="p1" d="m140.8 15.6-7.7 30.3c-1.3-3-4.5-4.2-7.3-5.3l-10.9-4c-1.4-.4-4.1-1.1-3.6-2.1s1.6-.8 2.7-.8h17.8l2.7-11.1h-22.9c-7.5 0-11.3 2.4-14.3 9.8-2.4 6-1.6 11.3 5.6 14.4 4.2 1.4 8.6 3.1 12.8 4.5 1.1.3 1.6.7 1.4 1.5-.3.7-.9 1.1-1.5 1.1h-20.1c-.6 3.9-1.4 7.8-2.6 11.5h26.9c6.5.2 10-3.5 11.8-7 .1.2.4 2.2 2 3.5 2.9 2.6 6.7 3.3 10.4 3.5h38.6c10.7 0 15.7-1.5 19.9-4.4 1.2-.9 3.3-2.5 5.9-6.8-.9 3.7-2 7.5-2.9 11.2h7.4c4.8 0 8.8-1.6 10.1-6.7 1.9-7.3 3.7-14.6 5.6-21.9.7-3.3 3.8-3 6.5-3 6.7 0 7.3 3.9 5.8 9.9-1.8 7.2-3.7 14.5-5.5 21.7h7.3c4.8 0 8.9-1.6 10.2-6.7.2-.7.3-1.3.5-2 0 2.7.9 4.9 2.5 6.3 2.6 2.2 5.9 2.4 11.7 2.4h18.5c4.8 0 8.9-1.6 10.2-6.7.4-1.6.8-3.2 1.2-4.8h-20.7c-5.8 0-7.8-1-6.5-5.5h23.3c1.9 0 5.8-.4 7.6-4.7 1.5-3.6 2.7-8.7 2.7-11.9 0-6.7-3.6-8.7-8.4-9.2-4.9-.5-16.5-.8-22.4.1-3.4.5-6.7 1.5-9.5 3.6-2.4 1.9-3.9 4.7-5 7.5.1-3-1.3-5.6-3.3-7.8-3-3-8.8-3.3-11.7-3.3h-16.1c-4 0-7.3.3-10.1 2.5-2.5 2-3 5.2-3.7 8.1-.1-2.5-.9-4.7-2.5-6.7-1.7-1.9-4.7-3.9-12.8-4.3-3.3-.2-6.8-.2-10.5 0-8.1.4-12 2.3-14.9 4.3-3.3 2.3-5.5 5.8-6.9 8.7-2.7 5.5-4.3 13.4-4.3 16.4v2.1c-3-.1-6 .1-9-.2-1.4-.2-4.2-1.9-4-5.6.4-4.9 2-9.6 3.2-14.4h10c.9-1.7 1.9-3.4 3.3-5.3 1.8-2.4 4-4.2 6-5.6h-16.5l3.5-13.7c-1.6 0-7 0-9.5 0s-6.7 1.5-8 6.6zm137.4 17.5c2.4-.2 3.3-.2 5.1-.1 2.2.1 4.9.7 4.4 3.1-.2.7-1 2.3-2.6 2.3h-12.2c.4-2.9 1.6-5 5.3-5.3zm-99.4 17.9c-.1-.3-.3-1-.4-2.1-.1-2.2 1.4-8.3 2.7-10.5 1.4-2.6 3.8-4.1 6.6-4.7.9-.1 1.7-.2 3.3-.2 2.9 0 6.1.9 6.1 5.2 0 2-1.3 9.4-4.1 12.3-2.2 2.3-5 2.9-8 3-1.6 0-5-.3-6.2-3zm-128.7-28.4c-7.7.1-10.3 1.2-11.5 6.3 0 0-.2.8-1.1 4.4h21.5c5 0 5.1 2.1 4.3 5.1h-18.7c-2.8-.1-5.5.3-7.9 1.7-2 1.3-4.7 3.5-6.6 11-.7 2.8-1 4.6-1.1 6.2-.2 2.2.3 4.2 1.6 6 1.8 2 4.6 2.1 7.1 2.1h25.2c5.4 0 9.6-1.5 11.6-9.2 1.5-6 3.1-11.9 4.6-17.9 3.8-15-7.3-15.7-9.3-15.7zm-4.4 29.7c0-1.2.5-3.7 3.7-3.7h11.3l-.7 2.7c-.4 1.9-1.8 2.5-3.6 2.7h-8.4c-.5 0-2.3-.1-2.3-1.6z"/><path id="p2" d="m60.9 79.9c14.3-11.9 26.7-36 21.8-51.8-3.8-6.6-9.3-11.6-16.6-13.7-14.3-4.2-31.3-2.6-44.1 4-4.1 12.4-.6 31.4 4.5 46.2 11 6.8 24 12.3 33.4 15 .3.1.7.2 1 .3z"/><path id="p3" d="m22 18.4c-7 3.6-12.7 8.7-16.2 15-1 1.8-1.5 3.6-1.5 5.4 0 .6 0 1.2.1 1.8.9 2.6 2 5.2 3.4 7.9 3.9 6 10.8 11.2 18.7 16.1-5.1-14.8-8.6-33.8-4.5-46.2zm60.7 9.7c4.9 15.8-7.5 39.9-21.8 51.8 2.3.6 4.5.9 6.5.9 14.2 0 21.4-13.8 21.4-29 0-8.1-2.1-16.8-6.1-23.7z"/><path id="p4" d="m46.8 3.5c-6.5 0-11.4 1.4-16.7 4.4-4 2.2-6.6 5.9-8.1 10.5 8.1-4.2 17.8-6.3 27.5-6.3 5.7 0 11.3.8 16.6 2.3 7.3 2.1 12.8 7.2 16.6 13.7 0-2.9-11.9-24.6-35.9-24.6zm-20.3 61.1c6.3 18.3 10.5 22.7 18.2 22.7 5.1 0 10.8-2.9 16.2-7.4-1.7-.4-17.7-5-34.4-15.3z"/><g id="p5"><path d="m44 2c-13.6 0-27 4.4-36.5 13.9-3.7 3.7-5.2 8.4-5.2 13.6 0 3.5.8 7.2 2.1 11.1-.3-2.2 0-4.7 1.4-7.2 3.1-5.6 8.4-11 16.2-15 2.3-7 6.3-9.5 8.7-10.8 5.1-2.7 10.8-4.3 17.2-4 7.6.2 15.1 2.9 20.6 6.9s9.8 8.5 12.9 14.3c.6 1.1.9 2.1 1.3 3.3 11.4 19.9 6.5 52.7-15.3 52.7-2 0-4.2-.3-6.5-.9-2.3 1.9-5.1 3.9-8.2 5.3-3.3 1.5-6 2-8 2-6.1 0-9.8-4-12.1-8.3-1-1.9-2.1-4.1-3.1-6.5s-2-5-3-7.8c-6.9-4.2-13-9-17.1-13.9-.6-.7-1.1-1.5-1.6-2.2 8.6 17.1 25.5 35.1 37.6 44.3 4.7 3.6 9.4 5.2 13.8 5.2 18.9 0 34.2-28.8 34.2-53.8 0-12.2-3.7-23.5-12.3-30.1-10.3-7.9-23.8-12.1-37.1-12.1z"/></g><g id="p6"><path d="m108.7 72.9-3 11.5h2.5l1.5-5.7h5.8l.5-2h-5.8l.7-2.8c.2-.5.4-.7.8-.7h7.4l.5-2h-8.7c-1.3 0-2 1-2.2 1.7z"/><path d="m137.7 71.2-3.4 13.2h2.5l3.4-13.2z"/><path d="m158 71.2-.5 2h5.2l-2.9 11.2h2.5l2.9-11.2h5.1l.5-2z"/><path d="m188.3 72.6-3 11.8h2.5l2.4-9.7c.1-.4.5-.4.6 0l3.3 8.8c.2.6.5 1.1 1.9 1.1.4 0 2-.2 2.4-1.9l2.9-11.5h-2.4l-2.4 9.8c-.1.3-.5.3-.6 0l-3.3-8.9c-.4-.8-.9-1-1.9-1-1.7 0-2.3 1.3-2.4 1.5z"/><path d="m220 73-2.4 9.5c-.1.2-.1.5-.1.8 0 .4.1 1.1 1.6 1.1h8.6l.5-2h-7.1c-.7 0-1 0-.9-.5l.9-3.2h7.8l.5-2h-7.8l.6-2.7c.2-.7.4-.8 1.1-.8h7.2l.5-2h-8.6c-1.3 0-2.1.7-2.4 1.8z"/><path id="p5-1" d="m252.1 71.2c-2.5 0-3.9 2-4 4.5 0 1.2.5 1.8 1.6 2.2l4.7 1.6c.9.3 1 .7.9 1.5-.2.9-.8 1.4-1.6 1.4h-7.3l-.5 2h8.1c2 0 2.9-1.1 3.5-2.3.3-.6.4-1.4.5-2.3 0-.7 0-1.6-1.8-2.2l-4.6-1.6c-.5-.2-1.2-.6-.9-1.5.4-1.1.8-1.3 1.8-1.3h6.7l.5-2z"/><use transform="translate(28)" xlink:href="#p5-1"/></g></defs><use fill="#373e3e" xlink:href="#p5"/><use fill="#929293" xlink:href="#p4"/><use fill="#b2afaf" xlink:href="#p3"/><g fill="#fff"><use xlink:href="#p2"/><use xlink:href="#p6"/></g><use fill="#e26d2b" xlink:href="#p1"/></svg>