<svg viewBox="0 0 684 100" xmlns="http://www.w3.org/2000/svg"><g fill="#fff"><path d="m505.4 2.6c-28.1 0-48.9 21.3-48.9 47.4 0 28 23.1 48 49.1 48 27.6-.1 49-22.1 49-47.8.1-29.1-22.8-47.7-49.2-47.7zm.1 64.8c-9.8-.5-17.4-8.4-17.5-17.2.5-9.9 8.6-16.9 17.4-17 9.9.4 17.4 8.2 17.5 17.1-.3 10-8.7 17-17.4 17.1z"/></g><g fill="#5aa02c"><path d="m71.1 69.6c-.6 18.9-16.7 25.4-32.4 25.6h-36.7v-90.8h37.2c14 1 23 11.4 23.2 23.9 0 7.8-3.3 14-10 18.7 13.4 2.9 18.9 12.3 18.6 22.6zm-39.6-46.7h-6.2v17.5h6.3c5-.5 9-4.2 9.1-8.9-.2-5.4-4.6-8.6-9.2-8.6zm3.8 35h-9.8v19.5h11.5c6.6-.1 10.2-5.2 10.1-10.4-.7-6.3-4.6-9.1-11.7-9.1zm93.1 37.2h-51.3v-90.7h23.6v71h27.7zm99.1 0h-24.9l-6.1-15.7h-31.9l-6.3 15.7h-24.9l34.6-90.7h25.8zm-37-33.6-9.6-28.5-9.7 28.5zm100.1-26.9c-5.1-6.7-11.8-10-20.3-9.8-13.7.9-24.2 11.7-24.3 24 .5 14.3 9.8 25.7 24.3 25.7 9.1.2 15.6-3.9 20-9.5v28c-6.6 2.9-12.9 4.4-19.1 4.4-34.7-.5-52-29.2-49.9-49.6 3.2-28.2 24.6-45.8 50-45.7 6.6.1 13.1 1.6 19.1 4.3zm89.9 60.6h-30.5l-29.8-39.4v39.4h-23v-90.8h23v37.7l28.3-37.7h29.1l-35.7 43.2zm79.8 0h-29.1l-22.3-35v35h-23.2v-90.8h33.2c19.6.4 32.9 11.3 33.2 29.7-.4 12.7-9.4 20.9-19.7 24.3zm-42.9-72.3h-8v22.1h8.8c5.3.3 10-5.7 9.8-10.9-.3-6-5.1-11.1-10.6-11.2zm195.1 72.3h-51.5v-90.8h23.7v71h27.7zm58 0h-51.5v-90.8h23.7v71h27.7z"/><path id="p3" d="m670.5 4.4a10.9 10.9 0 00-10.9 10.9 10.9 10.9 0 0010.9 10.9 10.9 10.9 0 0010.9-10.9 10.9 10.9 0 00-10.9-10.9zm0 1.1a9.7 9.7 0 019.7 9.7 9.7 9.7 0 01-9.7 9.7 9.7 9.7 0 01-9.7-9.7 9.7 9.7 0 019.7-9.7zm.9 3.4c-.2 0-.4 0-.6 0h-4.5v12.2h2v-5.3h2.6l2.6 5.3h2.3l-2.7-5.7c1.7-.3 2.8-1.6 2.8-3.3 0-2.1-1.5-3.2-4.5-3.3zm-3.1 1.4h2c2.3 0 3.4.6 3.4 2.2 0 1.5-1 2-3.3 2h-2.1z"/></g></svg>