<svg viewBox="0 0 325 100" xmlns="http://www.w3.org/2000/svg" xmlns:xlink="http://www.w3.org/1999/xlink"><g transform="scale(.1)"><path d="m20 980h960v-960h-960z" fill="#0492d2"/><path d="m980 980h2250v-960h-2250z" fill="#33bdf2"/><g fill="#fff"><circle cx="688" cy="331" r="74"/><circle cx="312" cy="331" r="74"/><path d="m187 527c-19.2 14.8-21.7 41.7-7 60 78.3 97.7 195 155 320 155s242-56 320-155c15-19 11.8-45.7-7-60-19.2-14.7-45.4-11.6-60 7-61.5 78.4-154 122-253 122s-190.9-45.1-253-122c-16.6-20.5-43.5-19.7-60-7z"/><circle cx="1361" cy="383" r="16"/><circle cx="1300" cy="374" r="16"/><circle cx="1257" cy="374" r="16"/><circle cx="1241" cy="374" r="16"/><circle cx="1241" cy="435" r="16"/><circle cx="1241" cy="496" r="16"/><circle cx="1241" cy="557" r="16"/><circle cx="1241" cy="618" r="16"/><circle cx="1241" cy="678" r="16"/><circle cx="1300" cy="678" r="16"/><circle cx="1368" cy="671" r="16"/><path d="m1386.6 434.2c20.7 64-37.3 76.6-87 76.8-7.5 0-13.6 6.5-13.6 14 0 9.7 8 13.9 16 13.7 57.1-1.4 114.9 29 102 85.3-1.7 7.5 3.4 14 11.1 14s15.4-6.4 16.9-14c6.3-32-6.3-73.7-55-99 43-19.5 49.2-66 36.3-99.3-2.4-6.1-6.1-10-14.3-10-9.5 0-15.2 9.9-12.4 18.5z"/><circle cx="1517" cy="313" r="16"/><circle cx="1517" cy="374" r="16"/><circle cx="1517" cy="435" r="16"/><path d="m1559 660c-22.1 8.6-26.6-7.2-27-26v-144c0-8-6-14-14-14s-14 6-14 14v143c0 55.1 38.7 57 44 57 5 0 30-.9 30-17 0-7.7-6.3-14-14-14-1.7 0-3.1.3-5 1z"/><circle cx="1640" cy="496" r="16"/><circle cx="1640" cy="557" r="16"/><circle cx="1789" cy="496" r="16"/><circle cx="1789" cy="557" r="16"/><circle cx="1805" cy="678" r="16"/><path d="m1625 612c0 22 0 81 60 81 52 0 85.1-32.9 115-66 1.8-2 3.6-6.1 3.6-10 0-8-6.2-13.7-14.6-13.7-4 0-7.4 1.8-10 4.7-28 31-54 56-94 56-16.9 0-31.5-3.1-32-50.9 0-3.2-.2-15.1-13.9-15.1-7.8 0-14.1 5.6-14.1 14z"/><g id="a"><circle cx="1942" cy="490" r="16"/><circle cx="1901" cy="528" r="16"/><circle cx="1901" cy="640" r="16"/><circle cx="1948" cy="678" r="16"/><circle cx="2008" cy="687" r="16"/><circle cx="2060" cy="667" r="16"/><path d="m1999 476.8c-7.7 0-12.8 5.9-13.1 13.6-.2 5.5 3.2 10.7 8.5 12.9 29 12.1 46.6 36.7 50.6 67.7h-160c-8 0-14 6-14 14s6 15 14 15h174c8 0 14-6 14-14 0-49-23.6-87.9-66.6-107.4-.6-.3-3.8-1.8-7.4-1.8z"/></g><circle cx="2174" cy="618" r="16"/><circle cx="2190" cy="672" r="16"/><circle cx="2242" cy="678" r="16"/><path d="m2174 421c-8 0-14 6-14 14v47h-46c-8 0-14 6-14 14s6 14 14 14h46v47c0 8 6 14 14 14s14-6 14-14v-47h46c8 0 14-6 14-14s-6-14-14-14h-46v-47c0-8-6-14-14-14z"/><use transform="translate(426)" xlink:href="#a"/><circle cx="2718" cy="502" r="16"/><circle cx="2735" cy="557" r="16"/><circle cx="2735" cy="618" r="16"/><circle cx="2735" cy="678" r="16"/><circle cx="2585" cy="678" r="16"/><path d="m2568 481c-9.6 0-16.5 9.4-13 19.2 8 22 16 53.8 16 116.8 0 7.7 6.3 14 14 14s14-6.3 14-14c0-20.4-.6-38-2-53 15.4-27.9 43.8-52.6 72.7-54.1 4.9-.3 12.3-6.8 12.3-13.9-.1-8.2-6.3-14.3-14-14-30.5 1.2-57.7 19.2-77.3 41.4-2.8-12.8-5.9-23.3-9.3-32.4-2.2-5.9-7.7-10-13.4-10z"/><circle cx="2957" cy="512" r="22"/><circle cx="2908" cy="490" r="16"/><circle cx="2818" cy="642" r="16"/><circle cx="2854" cy="678" r="16"/><circle cx="2906" cy="683" r="16"/><path d="m2940 678c-2.4-6.9 2-14.9 9-17 10-2.9 10-14 10-17 0-19-36.1-32.7-67-44-40.1-14.7-81-30-81-66 0-20 14-44 43-48 7-1 15 4 16 12s-4 14.8-12 16c-19 2.8-20 20-20 21 0 16 33 28.9 63 40 40 14.9 85 32 85 70 0 32.2-22.4 43-33 43-5.5 0-10.8-3.7-13-10z"/></g></g></svg>