<svg viewBox="0 0 500 100" xmlns="http://www.w3.org/2000/svg" xmlns:xlink="http://www.w3.org/1999/xlink"><defs><path id="x1" d="m2 2 22.75 16.85 9.41-.1.54 39.38.62-.88 28.21 23.49-.21-41.32.47-.01.33-8.94h.35l.01-11.06 17.69-.09.01-.27 9.92.06 8.85 6.51.24 11.06-18.73 9.27 20.02 10.09.73 18.07-12.8 9.04-24.5.06 17.02 12.8 29.75-.14 20.7-13.31-.69-29.42-19.26-8.42 12.22-6.82.12-19.87-21.87-15.74z"/><mask id="m1"><use xlink:href="#x1" fill="#fff"/><path d="m11.41 4.51 15.35 11.22 10.81-.08v39.67l22.9 19.21-19.66-20.2.16-40.75-12.01.09zm90.43 20.7-.41.53.3 11.17-18.17 8.93 18.99 9.7v-.77l-17.76-8.86 17.28-8.76zm4.07.93-.67 11.68-15.64 8.4 16.38 8.35.58 11.8 1.75-13.18-14.88-7.52 13.81-6.78zm23.53 55.79-17.75 9.98-25.4-.09-13.23-7.15 11.8 9.35 27.35.09z"/><path d="m10.16 4.19-.96 1.04.09.09 1.04-1.13zm5.91 0-3.34 3.49.09.09 3.43-3.58zm5.85 0-5.9 5.99.09.09 5.99-6.07zm5.59 0-7.93 8.44.09.09 8-8.52zm5.93 0-10.61 10.94.09.09 10.7-11.03zm5.86 0-12.45 12.8.09.09 12.55-12.89zm5.75 0-12.21 12.77.09.09 12.3-12.86zm5.85 0-15.02 15.34.09.09 15.12-15.43zm5.9 0-20.64 21.29.09.09 20.74-21.37zm5.65 0-26.09 27.28.09.09 26.19-27.37zm5.82 0-26.4 27.35h.17l26.43-27.35zm5.74 0-26.24 27.35h.17l26.27-27.35zm5.9 0-12.36 12.89h.19l12.36-12.89zm6.06 0-12.61 12.89h.17l12.64-12.89zm5.69 0-12.45 12.89h.17l12.47-12.89zm5.9 0-12.58 12.89h.17l12.58-12.85-.05-.04zm5.83 0-12.14 12.54.1.07 12.16-12.57-.05-.04zm3.33 2.38-11.95 12.64.1.07 11.94-12.63zm3.49 2.5-12.05 12.49.1.07 12.05-12.49h-.01zm3.37 2.54-11.93 12.41.1.07 11.93-12.41zm3.29 2.56-14.51 15.01.09.09 14.51-15.01zm3.49 2.54-13.72 14.13.09.09 13.73-14.14zm3.39 2.55-14.7 14.98.05.04h.09l14.67-14.93zm-61.6 3.43-8.52 8.86h.17l8.44-8.77zm61.82 2.29-9.12 9.32h.17l9.03-9.23zm-61.66 3.79-2.7 2.78h.17l2.62-2.7zm61.82 2.41-3.2 3.12h.17l3.11-3.03z"/></mask></defs><g fill="#fff"><use mask="url(#m1)" xlink:href="#x1"/><path d="m33.61 67.13-.1 9.59 24.93 21.28 22.45-.15-45.8-38.01.14 1.74 40.27 33.56-17.13-.07-24.26-19.99-.09-7.87z"/><path d="m67.43 89.49q.21.17.32.46.11.27.05.57-.06.3-.25.51-.19.21-.47.32-.28.1-.57.05-.28-.06-.51-.25-.21-.19-.32-.46-.1-.28-.04-.57.06-.3.25-.51.19-.22.47-.32.28-.1.57-.04.3.06.5.25zm-.12.14q-.17-.15-.42-.2-.25-.05-.48.04-.24.09-.4.27-.15.19-.21.42-.05.25.04.48.09.24.27.38.19.15.42.2.25.05.47-.04.24-.09.38-.27.16-.19.2-.43.05-.25-.04-.48-.09-.24-.26-.38zm-1.35.84.77-.89.31.26q.16.14.21.22.05.09.04.19-.01.1-.07.16-.09.1-.22.11-.14.01-.26-.07.03.06.04.11.01.1-.03.28l-.04.27-.17-.15.04-.21q.05-.25.03-.33-.01-.06-.09-.14l-.09-.07-.32.38zm.58-.38.17.15q.12.11.2.11.07 0 .14-.06.04-.04.04-.09 0-.05-.03-.1-.03-.05-.14-.14l-.16-.14z"/><path d="m40.33 67.15-3.66 4.16.99.84 3.55-4.22zm1.03.9-.59.71.98.85c.4.32-.1 1.18-.63.78l-1.05-.8-.77.89 1.04.9c.4.32-.1 1.18-.63.78l-1.11-.84-.8.94 1.18.99c1.58 1.32 3.32-.85 2.15-2.15.99.95 3.11-.71.99-2.39z"/><path d="m48.65 74.92c-.51-.01-1.09.16-1.79.63-1.44 1.01-1.39 3.03-.25 4.31l.71-.85c-.37-.75-.45-1.68.24-2.51.72-.64 1.55-.52 2.02-.19l.67-.8c-.43-.33-.95-.57-1.58-.58zm1.77.71-.71.85c.76.67.55 1.69-.24 2.51-.68.62-1.56.51-2.02.16-.22.26-.47.56-.68.83.77.61 1.79 1.01 3.4-.05 1.46-1.14 1.52-3.18.25-4.31z"/><path d="m44.3 71.06c-.51-.01-1.09.16-1.79.63-1.44 1.01-1.39 3.03-.25 4.31l.71-.85c-.37-.75-.45-1.68.24-2.51.72-.64 1.53-.52 2-.19l.67-.79c-.42-.33-.94-.57-1.58-.58zm1.77.71-.71.85c.58.74.53 1.73-.24 2.51-.74.66-1.58.51-2.04.16-.22.26-.43.52-.64.79.77.61 1.78 1.05 3.38-.01 1.46-1.14 1.39-3.02.25-4.31z"/><path d="m52.56 78.27c-.33.01-.64.11-.89.31-.76.73-.78 1.45.4 2.59l.66-.78c-.85-1.24.35-1.32.87-1.06l.5-.59c-.46-.31-1.03-.5-1.54-.47zm1.71.61-.5.58c.46.43.33.95.06 1.25l.79.69c.24-.75.78-1.45-.36-2.52zm-4.29 1.42c-.64 1.61.42 2.6.57 2.72l.56-.67c-.51-.45-.41-1.05-.38-1.63zm2.88.26-.63.75c1.11 1.2.27 1.95-.98 1.15l-.56.67c.73.54 1.91.9 2.54.28.88-1.03.32-1.95-.37-2.86z"/><path d="m56.04 80.4-.77.96 2.93 2.57.85-.95zm.15 2-2.61 3.18.94.73 2.62-3.12z"/><path d="m59.48 83.35-3.56 4.12 1 .83 3.49-4.16zm1.08.93-.58.73 1.72 1.47.61-.73zm-1.4 1.58-.58.73 1.72 1.47.61-.73zm-1.5 1.79-.58.73 1.72 1.47.61-.73z"/><path d="m62.83 86.11-3.59 4.13 1 .83 3.53-4.21zm1.16.89-.62.72.56.48c.9.83-.09 2.13-1.08 1.3l-.59-.49-.63.69.62.52c.78.67-.15 1.57-.58 2.08l.84.69c.72-.72 1.11-1.35 1.08-2.56 1.47.58 2.34-1.78 1.35-2.59z"/><path d="m40.21 75.18-1.35 1.58.32.28.56-.64.59.51.24-.27-.59-.51.32-.37.89.77.25-.28zm1.86 1.6-1.35 1.58.32.28 1.35-1.58zm1.08 1.25c-.05 0-.1.01-.15.01-.42.06-.79.41-.87.83-.09.38.07.8.37 1.05.04.03.07.06.11.09.28.2.69.24 1 .07.19-.09.34-.24.46-.38-.27-.24-.54-.47-.82-.71-.09.1-.16.19-.25.28.15.12.3.25.43.37.06.05-.11.1-.16.11-.22.06-.46-.03-.59-.2-.2-.2-.22-.53-.09-.78.12-.22.38-.38.64-.36.36.03.64.37.62.73.14 0 .27-.01.41-.01.01-.26-.09-.51-.25-.71-.21-.27-.56-.45-.9-.43zm2.17 1.53-1.35 1.58.32.28.56-.64.73.62-.56.64.32.28 1.35-1.58-.32-.28-.54.63-.73-.62.54-.63zm1.99 1.71-.25.28.53.46-1.1 1.29.32.28 1.1-1.29.53.46.25-.28zm2.91 2.82c-.05 0-.1.01-.15.01-.42.06-.79.41-.87.83-.09.38.07.8.37 1.05.04.03.07.06.11.09.28.2.69.24 1 .07.19-.09.33-.24.46-.38-.27-.24-.54-.47-.82-.71-.09.1-.16.19-.25.28.15.12.3.25.43.37.06.05-.11.1-.16.11-.22.06-.46-.03-.59-.2-.2-.2-.22-.53-.09-.78.12-.22.38-.38.64-.36.36.03.64.37.62.73.14 0 .27-.01.41-.01.01-.26-.09-.51-.25-.71-.21-.27-.56-.45-.9-.43zm2.17 1.53-1.35 1.58 1.23 1.05.25-.28-.89-.77.32-.37.58.49.24-.27-.58-.49.31-.36.89.75.25-.28zm2.4 2.05-2 1.03.33.3.52-.27.66.56-.2.56.36.31.71-2.13zm-.1.47-.27.78-.45-.38zm1.67.88-1.35 1.58.32.28.52-.61.36.31-.21.87.37.31.21-.95c.21.07.5.05.68-.17.27-.32.16-.71-.12-.95zm.09.56.42.36c.16.14.16.3.06.42s-.27.14-.42 0l-.42-.36z"/><path d="m192.6 16.7c0-12.07-12.6-13.4-12.6-13.4h-35.7s5.23.61 5.2 5.7l-.3 47.7s.77 6.42-5.4 8.3l40.5-8.3s8.63-2.16 8.6-13.4c-.03-10.46-8.7-13.8-8.7-13.8 8.51-4.4 8.4-12.8 8.4-12.8zm-30 35.7c2.68-1.07 2.7-4 2.7-4v-17.2c5.63 0 13.1 4.6 13.1 11.3 0 6.44-5.4 7.8-5.4 7.8zm2.7-24.1v-12.1c0-3.49-3-4.8-3-4.8l11 .3c1.25.07 5.67.46 5.4 7.7-.27 6.97-13.4 8.9-13.4 8.9z"/><path id="a" d="m195.3 33.6c0 17.43 11.79 31.7 26 31.7 14.48 0 26-14.27 26-31.7s-11.52-31.6-26-31.6-26 14.17-26 31.6zm16.6 0c0-13.68 4.31-24.9 9.4-24.9 5.36 0 9.4 11.22 9.4 24.9.27 13.68-4.04 25-9.4 25s-9.4-11.32-9.4-25z"/><use transform="translate(55.8)" xlink:href="#a"/><path d="m314.3 65.3 20.1-4.3s16.9-3.22 16.9-16.9c0-19.55-30-13.04-30-28.4 0 0 .57-4.6 6.2-4.6h29.7s3.5-.52 3.5 5.38v43.17s.27 2.68-5.63 5.1l18.24-3.75s2.95-.27 2.95-5.63v-39.16s.22-4.51-1.66-4.51h12.7s4.5-4.65 5.3-8.4h-70.5s-18 .35-18 13.2c.13 17.35 26.8 17.24 26.8 30 0 5.9-5.01 7.23-10.1 8.3-5.1 1.34-16.7 3.8-16.7 3.8z"/><path d="m394.2 3.6s4.8.78 4.8 4.8v42.9s.84 4.05-5.6 7l39.7 7 12.6-8.6s-6.2.8-12.9 0-19.8-2.7-19.8-2.7 1.9-1.6 1.9-2.4v-15.3h17.4l3.5-8.8h-20.7v-11.3s-.26-4.3-1.6-4.3h28.7v-8z"/><path d="m498 60.7c-4.02 0-4.8-4.8-4.8-4.8v-13.1c0-8.58-8.6-12.6-8.6-12.6s8.6-2.2 8.6-14c0-13.68-16.1-12.6-16.1-12.6h-33c6.17.54 5.9 4.6 5.9 4.6v49.6c0 5.36-5.6 7.8-5.6 7.8s13.61-2.46 17.9-3.8 3.8-5.9 3.8-5.9v-24.4c13.41 0 13.7 14.2 13.7 14.2v15zm-31.9-45.6s-.32-2.86-3-3.4h10.5s6.2-.34 6.2 6.1c0 6.17-9.41 10.7-13.7 10.7z"/></g><g fill="#c90804"><path d="m147.1 81.7s0-3 4.6-3h21.2s-1.15 2.71-4.9 2.7h-13.9v2.7h14.5s-.01 2.58-4.3 2.6h-10.5v3.5c0 .27.27 2.7-6.7 2.7z"/><path d="m188.7 76v2.4h5.9v-2.4zm-.3 4.8v11.8c5.9 0 6.2-2.9 6.2-2.9v-8.9z"/><path d="m232.9 80.8h-15c-6.7 0-7 2.7-7 2.7v5.4c0 3.22 5.4 4 5.4 4h10.2v2.7h-4.3c-3.49 0-4 2.4-4 2.4h10.2c4.49 0 4.5-4 4.5-4zm-6.1 10h-9.4v-7.5h9.4z"/><path d="m248.8 92.6v-13.4s.02-3.2 6.4-3.2v4.6h9.4s6.4.27 6.4 5.1v7.2s-6.39-.75-6.4-2.9v-6.7h-8.9v9.3z"/><path d="m296.8 83.3v7.5h4.8c-.03 1.74-3.8 1.8-3.8 1.8h-3.5c-3.49 0-3.7-2.9-3.7-2.9v-6.4h-3.5v-2.5h3.5v-4.8s6.37.02 6.4 2.7v2.1h4.6c-.27 0-.85 2.5-3.8 2.5z"/><path d="m355.5 89.2s-.02 3.7 4 3.7h19.8s4.3-.29 4.3-2.7v-5.6h-18.2s1.13 2.93 4.6 2.9h6.7v2.7h-14v-8.3h21.5s-2.99-3.2-5.4-3.2h-19c-1.58 0-4.3.79-4.3 3.2z"/><path d="m417.2 88.1c3.75 0 4-1.6 4-1.6v-2.7c0-2.68-4.3-3-4.3-3h-12.1c-5.1 0-5.3 3.3-5.3 3.3v5.6c0 2.15 4.5 2.9 4.5 2.9h12.9c2.68 0 4.6-2.1 4.6-2.1h-15.9v-2.4zm-12.1-2.2v-2.6h9.6v2.6z"/><path d="m438.9 80.8c0 1.88 3.5 2.5 3.5 2.5h10.2v2.6h-12.7c-2.68 0-2.9 2.2-2.9 2.2v2.4c0 1.88 4 2.1 4 2.1h18v-8c0-3.62-4.9-3.8-4.9-3.8zm13.65 9.69h-9.39v-2.41h9.39z"/><path d="m474.8 92.9h6.2v-9.4h7.8s1.06 1.9 2.4 1.9h3.5v-1.6s-1.13-3.2-8.1-3.2c0 0-4.76-.01-6.1 1.6.27 0-1.95-1.7-5.7-1.7z"/></g></svg>