<svg viewBox="0 0 730 100" xmlns="http://www.w3.org/2000/svg"><g><path d="m22.4 35.5c.6-3.4 3.5-5.8 7-5.8h65.3l2.6-14.7h-67.9c-10.6 0-19.6 7.5-21.5 17.9l-5.6 30.7c-1.1 12 6.9 21.5 17.9 21.4h64.6l2.6-14.7h-67.2c-2.3-.2-3.7-2.3-3.4-4z"/><path d="m115.8 35.6c.6-3.4 3.5-5.8 6.9-5.9h46c2.3.1 3.7 2.3 3.5 4l-5.2 30.7c-.6 3.4-3.5 5.9-6.9 5.9h-46c-2.3-.1-3.7-2.3-3.5-4.1zm66.8-14.2c-3.5-4.1-8.6-6.4-14-6.4h-46c-10.6.1-19.6 7.7-21.4 18.1l-5.2 30.7c-.9 5.3.6 10.7 4.1 14.8s8.5 6.4 13.9 6.4h46.1c10.6-.1 19.6-7.7 21.4-18.2l5.2-30.7c.9-5.3-.6-10.7-4.1-14.8"/><path d="m272.1 17.4-38.9 42.8-23-41.4c-1.5-2.7-4.6-4.2-7.7-3.7s-5.5 2.9-6.1 6l-11.4 63.9h15l7.3-40.9 17.9 32.2c1.2 2.1 3.3 3.5 5.6 3.7 2.4.3 4.7-.6 6.3-2.4l29.7-32.7-6.9 40.1h15l10.5-61.4c.6-3.2-1.1-6.4-4-7.9-3-1.5-7.3-.7-9.4 1.7z"/><path d="m359.5 44.6c-.6 3.4-3.5 5.8-6.9 5.8h-49.6l2.7-15.1c.6-3.4 3.5-5.7 6.9-5.7h45.5c2.3.2 3.7 2.2 3.4 4zm-46.8-29.6c-10.6 0-19.6 7.5-21.5 17.8l-9.4 52.2h15l3.6-19.8h52.3c10.6 0 19.6-7.6 21.4-18l2-11c1.5-11.9-7.2-21.1-18-21.2z"/><path d="m392.4 66.2 1.6-8.9h71.5l2.4-14.7h-71.3l1.3-7.2c.6-3.3 3.5-5.8 7-5.8h65.5l2.4-14.7h-67.9c-10.6 0-19.6 7.5-21.5 17.8l-5.6 30.7c-1.6 11.9 6.7 21.5 17.9 21.4l64.9.1 2.4-14.7h-67.3c-2.3-.2-3.7-2.4-3.4-4.1z"/><path d="m578.3 15h-24l-31.6 24.5-25.1-24.5h-21.1l34.4 33.7-46.8 36.4h24l33.4-26 26.6 26h21.2l-35.9-35.2z"/><path d="m713.6 77.3v-3.2h3.2c1.6 0 2.9.1 2.9 1.7 0 1.8-2.4 1.5-4.1 1.5zm3.5-5h-5.3v12.8h1.8v-5.9h2.4l3.3 5.9h2l-3.1-5.9c1.6-.1 3.3-1 3.3-3.5 0-2.7-2.1-3.4-4.4-3.4z"/><path d="m706.6 78.5c0-5.3 4.3-9.5 9.5-9.5s9.6 4.1 9.6 9.5-4.4 9.5-9.6 9.5c-5.1 0-9.5-4.1-9.5-9.5zm-1.9 0c0 6.4 5.1 11.4 11.4 11.4 6.4 0 11.4-5 11.4-11.4 0-6.3-5-11.3-11.4-11.3-6.3 0-11.4 5-11.4 11.3z"/></g><g fill="#0097ce"><path d="m625.3 19.6h27.4v51.8h9.2v-25.9h34c-2.2-24.4-22.8-43.5-47.9-43.5s-45.7 19.1-48 43.5h25.4zm45.7 60.8h-27.4v-51.8h-9.2v25.9h-34.5c2.3 24.4 22.9 43.5 48 43.5s45.7-19.1 48-43.5h-24.9z"/></g></svg>