<svg viewBox="0 0 100 100" xmlns="http://www.w3.org/2000/svg" xmlns:xlink="http://www.w3.org/1999/xlink">
<circle id="a" fill="#f9b500" cx="50" cy="50" r="48"/>
<circle id="b" fill="#2d2d2b" cx="50" cy="50" r="41.6"/>
<circle id="c" fill="#fff" cx="50" cy="50" r="19.2"/>
<g id="d" fill="#ffffff"><path id="d01" d="m18.3 47.18c-.4.03-.73.15-.98.37-.39.34-.59.81-.61 1.43l-.05 1.56 6.17.18.05-1.56c.02-.61-.16-1.1-.53-1.46-.24-.23-.58-.37-1.02-.42s-.95-.09-1.54-.1c-.59-.02-1.08-.01-1.48.02m2.46-1.27c.32.01.63.05.93.1.3.06.59.15.86.28.28.13.52.31.75.55.26.28.45.61.57.98.12.38.17.79.16 1.23l-.09 2.98-8.49-.25.09-2.98c.01-.44.09-.85.23-1.22s.35-.68.63-.95c.24-.22.49-.39.76-.5s.55-.19.84-.23.59-.06.89-.05.61.01.92.02.62.02.94.03"/><path id="d02" d="m18.93 40.23 3.21 2.37.77-2.5zm6.92-.21-1.8.06-.98 3.2 1.46 1.06-.4 1.31-7.2-5.47.31-.99 9.03-.48z"/><path id="d03" d="m23.09 30.74c-.34.1-.63.33-.86.69l-1.03 1.6 2.25 1.45 1.03-1.61c.23-.36.32-.71.27-1.06s-.25-.64-.61-.87-.7-.29-1.05-.2m6.11 3.4-3.97-.43-.87 1.35 3.01 1.93-.7 1.08-7.14-4.59 1.78-2.77c.22-.34.47-.61.75-.82s.57-.35.88-.42c.31-.08.63-.08.95-.02.33.06.64.19.94.38.52.33.84.73.98 1.21s.14.95 0 1.43l4.22.39z"/><path id="d04" d="m36.07 27.66-.87.7-5.07-3.56 2.39 5.72-.87.7-7.04-5.23 1.06-.85 4.95 3.81-2.47-5.8.81-.65 5.13 3.66-2.64-5.66 1.06-.85z"/><path id="d05" d="m38.79 26.29-3.53-7.72 1.17-.54 3.53 7.72z"/><path id="d06" d="m46.7 23.82-5.09-5.01 1.26 5.84-1.26.27-1.79-8.3 1.15-.25 5.09 5-1.26-5.83 1.26-.27 1.79 8.3z"/><path id="d07" d="m54.57 16.23-.51 3.08 3.67.61-.13.8-3.67-.61-.61 3.69-.89-.15 1.39-8.37 5.2.86-.13.8z"/><path id="d08" d="m58.85 25.08 2.89-7.98.85.31-2.89 7.98z"/><path id="d09" d="m67.7 20.77-3.85 6.64-.78-.46 3.85-6.64-2.13-1.23.41-.7 5.04 2.91-.41.7z"/><path id="d10" d="m70.66 33.19 1.72-7.98-4.87 4.75-.63-.65 6.07-5.93.6.61-1.71 7.96 4.86-4.74.63.65-6.07 5.93z"/><path id="d11" d="m72.35 35.46 7.48-4.01 2.49 4.64-.71.38-2.06-3.84-2.64 1.41 1.76 3.28-.71.39-1.76-3.28-2.7 1.45 2.06 3.84-.72.38z"/><path id="d12" d="m77.73 45.94c-.32-.07-.61-.2-.88-.4-.26-.2-.49-.47-.68-.79-.19-.33-.34-.7-.45-1.13-.15-.62-.19-1.17-.13-1.65.07-.48.24-.96.53-1.44l.75.46c-.26.42-.41.82-.46 1.2s-.02.8.1 1.27c.15.6.39 1.04.75 1.33.35.28.77.37 1.26.25.22-.05.41-.13.57-.24s.28-.24.37-.4.13-.32.15-.47c.02-.16.01-.39-.02-.7l-.08-1c-.05-.68.03-1.24.26-1.67.27-.51.73-.84 1.39-1 .35-.09.68-.1 1-.05s.61.17.87.35.48.42.67.71c.19.3.34.65.44 1.06.13.53.16.99.11 1.41-.05.41-.19.83-.42 1.27l-.71-.43c.17-.31.28-.63.33-.95s.02-.7-.09-1.14c-.13-.56-.38-.95-.73-1.19-.35-.23-.76-.29-1.22-.18-.42.1-.7.3-.86.6-.08.16-.13.35-.16.56-.03.22-.04.44-.02.66l.08.94c.02.2.03.38.03.54s0 .3-.02.43-.05.25-.08.36-.08.22-.14.32c-.28.56-.77.92-1.46 1.09-.36.09-.71.1-1.03.04"/><path id="d13" d="m77.88 52.65c-.3-.14-.55-.34-.75-.6-.21-.26-.37-.57-.47-.93-.11-.36-.16-.76-.16-1.2 0-.64.09-1.18.27-1.63s.46-.88.86-1.27l.62.62c-.35.35-.6.7-.73 1.06-.14.36-.21.77-.21 1.25 0 .62.13 1.11.41 1.47.27.36.66.54 1.16.54.22 0 .43-.03.61-.1s.34-.17.46-.3c.12-.14.2-.28.26-.42.05-.15.1-.38.15-.69l.16-.99c.12-.68.33-1.19.65-1.56.38-.43.91-.64 1.59-.64.36 0 .69.07.98.2.3.13.55.31.75.54.21.24.37.52.48.86.12.33.17.71.17 1.13 0 .54-.08 1-.23 1.39s-.39.77-.71 1.13l-.58-.59c.24-.26.42-.54.55-.84.12-.3.19-.68.19-1.13 0-.57-.14-1.01-.42-1.33-.28-.31-.67-.47-1.14-.47-.43 0-.75.12-.98.38-.11.13-.21.3-.29.51-.08.2-.14.41-.18.64l-.15.93c-.03.2-.07.38-.11.53-.04.16-.08.29-.13.41s-.1.23-.16.33-.13.19-.21.28c-.41.48-.97.71-1.68.71-.38 0-.71-.07-1.01-.21"/><path id="d14" d="m31.15 77.12c-.26.16-.55.26-.87.3-.35.04-.7.02-1.03-.08-.34-.1-.65-.26-.94-.5-.27-.23-.48-.49-.64-.79s-.25-.61-.28-.95c-.02-.24-.01-.45.04-.65s.12-.39.24-.59c.11-.2.25-.41.43-.63s.39-.48.63-.77.46-.54.65-.76c.19-.21.37-.39.55-.54.18-.14.36-.25.54-.34.18-.08.39-.13.63-.15.7-.06 1.32.14 1.87.6.36.3.61.62.74.95.14.33.23.72.27 1.17l-.72.06c-.01-.18-.04-.34-.06-.49-.03-.15-.07-.29-.12-.42s-.12-.26-.21-.38-.2-.24-.34-.36c-.18-.15-.38-.26-.6-.33-.23-.07-.45-.09-.67-.07-.16.01-.31.05-.44.11-.14.06-.27.14-.41.26s-.3.27-.47.46-.38.43-.62.71c-.24.29-.44.53-.6.74-.16.2-.28.39-.38.55-.09.16-.16.31-.19.46-.03.14-.04.29-.03.45.01.22.08.43.19.64s.25.39.43.54c.2.17.42.29.67.36s.5.08.76.04c.22-.04.42-.12.6-.24s.35-.29.53-.5l.34-.41-1.33-1.11.43-.52 1.91 1.6-.73.87c-.27.32-.53.56-.79.72"/><path id="d15" d="m32.79 80.01 3.28-6.33 3.93 2.04-.31.61-3.26-1.69-1.16 2.23 2.78 1.44-.31.6-2.78-1.44-1.18 2.29 3.26 1.69-.31.6z"/><path id="d16" d="m44.54 78.07c-.2-.28-.5-.47-.91-.58l-1.84-.48-.66 2.53 1.84.48c.41.11.77.09 1.08-.05s.52-.42.63-.85.07-.78-.13-1.05m-1.17 6.03-.76-3.48-1.66-.44-.81 3.06-.74-.19 1.81-6.9 2.65.7c.3.08.56.19.79.35.23.15.41.34.55.55s.23.45.26.71c.04.27.02.55-.06.84-.13.51-.38.88-.74 1.13s-.78.36-1.25.33l.82 3.56z"/><path id="d17" d="m52.63 84.76v-5.42l-1.95 4.3h-.66l-1.98-4.3v5.42h-.76v-7.13h.76l2.32 5.06 2.26-5.06h.76v7.13z"/><path id="d18" d="m57.33 77.84-.37 3.98 2.58-.66zm3.54 5.33-.95-1.42-3.02.77-.16 1.71-.79.2.78-7.56.62-.16 4.3 6.27z"/><path id="d19" d="m68.04 79.89-6.03-3.28 2.68 5.05-.67.36-3.35-6.3.64-.34 6.02 3.26-2.68-5.04.67-.36 3.35 6.3z"/><path id="d20" d="m70.9 74.1 1.91 2.25-.58.49-1.91-2.25-4.33-1.82.63-.53 3.5 1.51-.94-3.68.63-.53z"/></g>
<g id="e" fill="#868686"><path id="e01" d="m40.38 49.53c.46-.23.57-.51.59-.71.24-3.96 3.09-7.29 6.96-8.13l-.02 2.81 4.8-4.74-4.74-4.8-.02 2.55c-6.07.88-10.72 5.92-11.09 12.07-.02.39.15.73.5.96s.86.33 1.4.33c.6 0 1.21-.12 1.63-.34"/><path id="e02" d="m62.3 54.67c2.44-5.63.6-12.24-4.44-15.79-.32-.23-.71-.25-1.08-.08-.8.37-1.51 1.69-1.59 2.58-.05.52.13.76.29.87 3.24 2.28 4.57 6.46 3.26 10.19l-2.38-1.49 1.51 6.58 6.58-1.51z"/><path id="e03" d="m55.09 58.71c-.41-.31-.71-.29-.89-.21-3.65 1.55-7.9.48-10.38-2.61l2.52-1.23-6.38-2.19-2.19 6.38 2.28-1.12c2.48 3.58 6.52 5.59 10.68 5.59 1.7 0 3.42-.33 5.07-1.03.36-.15.59-.46.64-.87.1-.87-.64-2.17-1.36-2.71"/></g>
<g id="f" fill="#f9b500"><path id="f01" d="m24.27 61.76c-.63-.08-1.27-.16-1.9-.24-.12-.62-.23-1.25-.35-1.87-.03-.16-.08-.24-.15-.25s-.14.06-.2.2c-.26.58-.53 1.15-.8 1.73-.63-.08-1.26-.16-1.9-.24-.15-.02-.25 0-.28.06 0 .01-.01.02-.01.03-.01.06.04.13.14.22.47.44.94.87 1.41 1.3-.28.57-.56 1.15-.83 1.73-.03.07-.05.12-.05.17-.01.05 0 .09.03.12.02.01.03.02.06.02.05.01.13-.02.22-.07l1.69-.93 1.38 1.32c.08.08.14.12.19.13.02 0 .04 0 .06-.01.03-.02.05-.06.06-.11.01-.04 0-.1-.01-.18-.13-.63-.25-1.25-.38-1.88.56-.3 1.12-.61 1.68-.91.12-.06.18-.12.19-.18v-.03c-.01-.07-.1-.11-.25-.13"/><use id="f02" xlink:href="#f01" transform="translate(57)"/></g>
</svg>