<svg viewBox="0 0 202 100" xmlns="http://www.w3.org/2000/svg"><g fill="#d10019"><path d="m197.5 79.1-.3-.7c-.1-.3-.4-.7-.6-.8-.2-.2-.3-.2-.7-.2h-.2v1.8h-.9v-4.3h2.1c.9 0 1.4.5 1.4 1.2s-.4 1.1-1.2 1.2c.4.1.5.2.9 1l.5.9zm-.9-2.5c.6 0 .8-.3.8-.6 0-.4-.3-.6-.9-.6h-.8v1.2z"/><path d="m200.7 76.9c0 2.3-1.8 4.1-4.1 4.1-2.2 0-4.1-1.8-4.1-4.1 0-2.2 1.8-4.1 4.1-4.1s4.1 1.8 4.1 4.1m-7.3 0c0 1.8 1.5 3.3 3.3 3.3s3.3-1.5 3.3-3.3-1.5-3.3-3.3-3.3-3.3 1.5-3.3 3.3"/><path d="m70.1 52.1v-.1c.1.1.1.1 0 .1m-8.5-48.6c.4 0 .5.1.6.2l.1.3s-.9.2-1 .2-.2-.1-.2-.3.1-.4.5-.4m99.3 60.9c-.5-2.2-8.7-5-11.7-6.5s-9.2-5.3-16-11.6c-7-6.3-13.1-18.3-20.9-24.2-7.9-6-16.5-7-24.8-6.4s-13.6 4.4-18.2 6.8c-2.8 1.4-6 2.4-9.1 2.5-.4.2-.9.4-1.1.6-1.2.9-2.1 2.3-2.6 2.9s.2-1 1.5-2.3c.4-.5 1-.9 1.4-1.1-.4 0-.7 0-1.1-.1-.1 0-.3 0-.4 0-.6.3-1 .9-1.6 1.7-.5.7.3-1 1.1-1.8-2.8-.7-4.4-3.4-4.4-6.6.1-4.1 6.7-8.6 7.8-8.9 1.1-.2 6.3-.6 6.9-.9.2-.1.4-.4.6-.6l-.1-.1c-.1-.1-1.5-.2-1.7-.2s-2-.1-2-.1 2 0 2.9-.1c.6-.1.9-.1 1.1-.2 0-.3 0-.5-.1-.8-.6-1.5-2.1-1.9-4.1-2.7-2-.9-2.8-1.7-4.7-1.6-2 .1-5.5 1.7-8.4 4.3-3.1 2.7-5.2 5-6.6 8.9-1.4 4-1.7 8.1-.2 12.1 1.5 3.9 3.4 6.5 6.6 9.4 3.1 2.9 6.6 5.3 6.8 6 .5 1.5 2.3 8.3 2.9 10.2.5 1.9.3 7.1-.2 9s-2.4 2.2-1.6 3.6c.4.8 7.5.6 8.6.2 1.5-.5 1.8-1.2 1.8-2h.1c-.1-1.3-.5-2.8-.4-3.3.1-.7 1.3-8.7 1.4-9.4.4-2.4 1.8-8.1 2-8.9.1-.4-2.7 17.6-2.6 18.8.1 1.4.1 2.2.1 2.8 7.5.2 6.6-.6 6.7-2.3.1-1.5-.3-2.8-.3-4.6 0-2 .5-3.4.7-3.9-.6-.1-1.1-.2-1.7-.3-2.1-.5-2.9-1.5-2.9-1.5 3.5 1.9 7.7 1.7 8.4 1.7 5 0 7.5-.3 8.4-.4-1.4-3.5-4.3-11.3 1-15.9.2-.2-4.7 4.3.3 16.6.4.6 1.2 2.9 1.9 4.8.6 1.9 0 4.9-.6 5.7-.6.9-1.5 1.7-1.1 2.5.6 1 3 .7 5.5.7 3.6 0 4.4-.5 4.8-1.2s-.1-2.4-.1-3.2c0-.9.2-1.3.3-3 .1-1.4.4-5.5.5-7.1.1-2.8 1.3-8.6 1.7-9.4.2-.4-1.1 4.1-1 8.7h.1l1.4-.1c1.1-.2 4.3-.8 4.6-.9.6-.1-1.4.6-4 1.2.4.5 1.1 1.4 2.4 2.4 1.9 1.5 3.8 3.8 3.8 4.8s-1 3-2.2 3.9-.5 2-.1 2.2c.5.3 5.9.3 7.7.1 1.8-.3 3.4-3.5 4-5.6.4-1.4-.7-5.9-.9-7.4 0-.1-3.2-2.3-3-2.2 0 0 2 1.2 3 1.7 1.1.6 10.3 5.4 14.5 7.1 4.4 1.8 21.9 6.9 22.3 7.1s1.2.5-4.7 2.5c-2.4.8-7 1.6-8.9 1.9s-7.7 1-7.6 1.4c.2.4 5.3.9 11.2.2 5.9-.8 9.5-1.9 11.6-3 2.7-1.3 3.9-2.3 3.4-4.5"/><path d="m7.6 93.6h3.7c5.7 0 7.4-3.9 7.4-7.2 0-3.9-2.1-7.2-7.4-7.2h-3.7zm4.4-18.5c8.3 0 12.5 5.2 12.5 11.4 0 6.5-4.1 11.3-13.2 11.3h-9.3v-22.8z"/><path d="m34.6 97.7h-5.7v-22.7h5.7z"/><path d="m62.7 97.7h-4.8l-12.5-14.5v14.5h-5.6v-22.7h5.2l12.1 13.9v-13.9h5.6z"/><path d="m79.9 79.4c-4.3 0-7.2 2.8-7.2 6.9s2.9 6.9 7.2 6.9 7.2-2.8 7.2-6.9c0-4.2-2.9-6.9-7.2-6.9m0 18.6c-8.3 0-13-5.9-13-11.6 0-5.5 4.4-11.6 13-11.6 8.5 0 13 6.2 13 11.6 0 5.8-4.8 11.6-13 11.6"/><path d="m122.1 95.7c-3.2 1.6-5.5 2.3-8.9 2.3-8.8 0-13.2-5.7-13.2-11.6 0-6.1 4.9-11.7 13.6-11.7 3.2 0 6 .7 8.2 2v5c-2.5-1.4-5-2.3-7.8-2.3-4.8 0-8.2 2.9-8.2 6.9 0 4.1 3.3 7 8.1 7 3 0 5-.9 8.2-2.5z"/><path d="m136.6 80.4-3.3 8.8h7zm13.3 17.3h-6.1l-1.9-4.5h-10.1l-1.7 4.5h-6l9.2-22.7h6.5z"/><path d="m158.2 84.3h3c1.5 0 3.1-.7 3.1-2.6 0-1.7-1.1-2.6-3.2-2.6h-2.9zm4.5-9.3c4.7 0 7.4 3.1 7.4 6.5 0 2.5-1.3 4.4-3.9 5.5 2.3 1.2 3 4 6.2 10.6h-6.2c-2.4-4.8-3.3-9.1-6.4-9.1h-1.6v9.2h-5.6v-22.7z"/><path d="m190.3 80.9c-3.3-1.5-5.3-2-7.2-2-2 0-3.3.7-3.3 1.9 0 3.4 11.5 2.5 11.5 10.4 0 4.3-3.6 6.9-8.7 6.9-4 0-5.9-1-8.2-2.2v-4.9c3.3 2.2 5.3 2.9 7.7 2.9 2.2 0 3.3-.8 3.3-2.1 0-3.7-11.5-2.4-11.5-10.5 0-3.9 3.4-6.5 8.6-6.5 2.5 0 4.8.5 7.7 1.8z"/></g></svg>