<svg viewBox="0 0 196 100" xmlns="http://www.w3.org/2000/svg" xmlns:xlink="http://www.w3.org/1999/xlink"><path fill="#fff" d="m93 91h83v6h-83z"/><path fill="#ffe200" d="m84.17 2.05c.27.22.47.55.65.84.46.81.85 1.67 1.05 2.59.4 1.85.29 3.73.53 5.63.25.21.55.43.73.7.18.32.14.71.13 1.06-.29 3.96-.28 7.88-.78 11.86-.09.74-.23 1.43-.26 2.18-.07 5.27.26 10.51-.77 15.72-.17.98-.64 1.8-.92 2.75-1.02 3.31-1.06 7.01-1.08 10.45.01 3.93-.24 7.85-.84 11.74-.45 3.03-1.14 6.03-1.52 9.07-.3 6.01-.98 12.25-.09 18.22-.08.12-.17.25-.25.37.85.13 1.5.61 2.18 1.1.35.24.32.58.42.95-.46.24-.88.49-1.4.56-1.2.16-2.31-.22-3.47-.36-.84-.11-1.67.16-2.49.02-.42-.08-.78-.35-.9-.76-.06-.3.02-.62.04-.92-.23-.43-.46-.81-.5-1.31-.08-.94.18-1.87.13-2.82-.04-.77 0-1.54.04-2.31.25-6.51-.06-12.95-.07-19.49 0-.86-.15-1.67-.28-2.51-.8 1.32-1.53 2.68-2.15 4.09-3.03 6.76-4.21 14.21-7.5 20.92-.26.53-.71.81-1.04 1.27-.24.52-.28 1.02-.69 1.45-.8.88-2.11 1.16-3.16 1.64-.95.46-2.01.79-3.07.86-.49.04-.79-.23-1.17-.47.25-.5.53-.99.9-1.42.83-.96 1.47-2.04 2.21-3.08-.24-.15-.48-.3-.72-.46.36-2.52 1.78-4.22 2.67-6.52 1.75-4.42 3.27-8.94 3.95-13.66.1-.65.12-1.39.37-2 2.31-5.5 4.37-11.12 6.41-16.72.86-3.41-.27-7.41-3.01-9.67-1.79-1.57-3.84-2.93-6.3-3.05-1.1-.09-2.07.28-3.14.33-2.58.12-4.97.76-7.6.58-.46-.04-.98-.05-1.4-.23-.73-.55-1.01-1.66-1.7-2.26-.22-.2-.57-.21-.86-.23-1.2-.03-2.32.53-3.48.46-.47-.03-.85-.21-1.28-.39-.01-.13-.02-.26-.03-.39 1.06-.47 1.97-1.19 3-1.7.81-.4 1.7-.57 2.54-.13.32.12.77.51 1.11.32.35-.26.61-.65.96-.92.71-.01 1.42.18 2.14.2 4.67.32 9.24-1.26 13.88-1.12 1.58.12 2.27-1.63 3.79-1.58 1.25.01 2.5-.03 3.75-.05.19-.46.38-.86.32-1.37-.1-.95-.65-1.69-1.05-2.52-.22-.42-.17-.82-.19-1.28-.02-1.46-.29-3.06.12-4.48.29-1.02 1.03-1.9 2.04-2.27.97-.38 2.16-.63 3.1-.02.62.41 1.36.92 1.71 1.59.4.97.12 2.18.03 3.19-.08.61.07 1.19.05 1.79-.17 1.12-1.17 2.3-1.18 3.5-.02.63.31 1.04.66 1.51.76-1.69 1.81-3.47 2.07-5.3.17-.98-.08-1.92.04-2.89.47-4.16 1.29-8.14 1.55-12.33-.02-.52.35-.64.67-.95.07-1.42-.52-2.55-.88-3.87-.21-.73-.19-1.48-.1-2.23.45.05.74.27 1.08.54 0-1.16-.47-2.23-.49-3.38-.08-.45.46-.76.84-.58z"/><g fill="#2e73b9"><path d="m8.6 60.64-6.57.03c-.07 7.06-.02 14.39-.02 21.56h7.25c4.31-.24 7.6-2.98 9.02-6.64 1.1-2.93.98-6.28-.34-9.12-2.13-3.91-5-5.79-9.34-5.82zm4.35 7.34c.83 1.47.95 3.35.68 4.98-.95 3.74-3.18 4.57-6.58 4.51 0-4.02 0-8.04 0-12.06 2.49-.04 4.68.44 5.9 2.57z"/><path d="m22.66 60.64h5.05v21.58h-5.05z"/><path id="x" d="m30.81 60.66 13.37-.02v4.77h-4.16v16.8h-5.06v-16.81h-4.16z"/><use transform="translate(15)" xlink:href="#x"/><path d="m90.42 60.66 4.96-.03 3.93 11.51 4.16-11.5h5.03l2.94 21.59h-5.06l-1.43-12.47-4.68 12.47h-2.03l-4.47-12.47-1.64 12.47h-5.04z"/><path d="m120.57 60.63-7.47 21.59h5.37l1.34-3.74h6.94l1.26 3.75h5.4l-7.31-21.58zm2.73 6.64 2.07 6.9h-4.17z"/><path id="y" d="m136.24 60.63h5.07l9.26 13.23v-13.24h5.06v21.58h-5.07l-9.27-13.26v13.26h-5.06z"/><use transform="translate(23.9)" xlink:href="#y"/><path d="m189 59.86c-.43 0-.85.06-1.27.18-1.17.32-2.19 1.08-2.84 2.09-.94 1.43-1.07 3.34-.34 4.89.56 1.2 1.6 2.15 2.85 2.59 1.92.69 4.17.11 5.48-1.46 1.56-1.77 1.59-4.59.1-6.41-.96-1.22-2.46-1.89-3.98-1.87zm.05 1.2c1 0 1.98.35 2.71 1.06 1.46 1.42 1.5 4.01.06 5.45-1.38 1.43-3.87 1.49-5.33.15-1.51-1.34-1.6-3.93-.27-5.43.48-.55 1.14-.94 1.85-1.11.33-.08.66-.12.99-.13z"/><path d="m187.09 62.22v5.22h1.17v-2.19h.8c.38.73.77 1.47 1.16 2.19h1.27c-.41-.72-.81-1.44-1.24-2.15.47-.16.98-.2 1.22-.69.34-.76.2-2.01-.75-2.25-1.23-.24-2.49-.09-3.65-.13zm3.09 1.01c.56.09.43 1.07-.06 1.15-.6.12-1.25.05-1.86.06 0-.43 0-.86 0-1.29.66 0 1.32-.06 1.92.07z"/><path d="m34.84 89.62h19v8.38h-19z"/><path d="m86.99 89.46v8.38h93.1v-8.38zm62.86 2.01c.17.17.34.35.45.56.61 1.15 1.21 2.31 1.82 3.46.2.43.53.63.92.86-1.04 0-2.06.06-3.1-.05.3-.09.6-.18.89-.29-.14-.34-.27-.67-.41-1.01-.66 0-1.32 0-1.98 0-.14.32-.28.65-.41.98.31.11.62.23.93.34-.68.05-1.35.05-2.03.04.32-.25.65-.42.84-.81.71-1.35 1.36-2.74 2.09-4.07zm-13.52.17c.6 1.08 1.15 2.18 1.74 3.26.58-1.08 1.15-2.17 1.73-3.25.78 0 1.57-.01 2.35.03-.28.11-.56.21-.83.31-.03.97-.07 3.17.04 3.99.26.13.54.23.8.34-1.06.04-2.11.06-3.17 0 .27-.11.56-.21.8-.37.06-1.25.09-2.65.08-3.78-.76 1.44-1.45 2.91-2.27 4.32-.88-1.33-1.51-2.81-2.31-4.18.02 1.11-.05 2.22.02 3.32-.03.48.66.51.98.69-.76.05-1.52.06-2.28 0 .28-.12.57-.22.83-.37.05-1.28.09-2.69.03-3.87-.27-.18-.55-.28-.83-.43.77-.01 1.53-.02 2.3-.02zm-40.67 0c.39 0 .78 0 1.16.02.88.04 1.8.22 2.43.88.8.82.7 2.31-.16 3.04-.63.55-1.45.73-2.27.77-1.02.03-2.04.01-3.06-.02l.79-.35.03-3.98-.82-.33c.59-.02 1.25-.03 1.9-.03zm10.83 0c.55 0 1.11 0 1.66.03-.29.12-.6.22-.86.39-.12 1.26-.11 2.7-.03 3.86.25.2.6.29.89.41-1.11.06-2.22.05-3.33 0 .3-.12.63-.22.91-.38.06-1 .09-3.1-.04-3.89-.27-.16-.57-.27-.85-.39.55 0 1.11-.02 1.66-.02zm53.45 0c1.01.98 2.01 1.98 3.02 2.96-.02-.81.07-1.64-.05-2.44-.22-.24-.59-.35-.86-.51.7-.01 1.39-.01 2.09 0-.24.16-.56.27-.74.5-.09 1.47-.02 2.95-.05 4.42-1.49-1.15-2.86-2.67-4.1-3.84.02.96-.05 1.93.02 2.89-.03.43.63.53.92.7-.74.05-1.47.04-2.21 0 .29-.19.93-.24.86-.7.04-1.09-.01-2.19.02-3.29-.28-.24-.56-.46-.84-.7h1.92zm11 0c1.01.98 2.01 1.98 3.02 2.96-.02-.81.07-1.64-.05-2.44-.22-.24-.59-.35-.86-.51.7-.01 1.39-.01 2.09 0-.24.16-.56.27-.74.5-.09 1.47-.03 2.95-.05 4.42-1.49-1.15-2.86-2.67-4.1-3.84.02.96-.05 1.93.03 2.89-.03.43.63.53.92.7-.74.05-1.47.04-2.21 0 .29-.19.93-.24.86-.7.04-1.09-.02-2.19.02-3.29-.28-.24-.56-.46-.84-.7h1.92zm-57.7 0h5.2c.04.53.06 1.03-.08 1.55-.17-.3-.32-.63-.53-.9-.29-.32-.87-.35-1.28-.43-.02 1.21-.1 2.77.08 4.11.29.14.61.24.91.35-1.12.06-2.24.06-3.36 0 .28-.11.58-.2.84-.36.16-1.35.1-2.89.09-4.11-.41.09-1.02.11-1.3.45-.2.27-.34.58-.5.88-.15-.51-.1-1.02-.08-1.54zm10.52 0h5.2c.04.53.05 1.03-.08 1.55-.17-.3-.32-.63-.53-.9-.29-.32-.87-.35-1.27-.43-.02 1.21-.1 2.77.08 4.11.29.14.61.24.91.35-1.12.06-2.24.06-3.36 0 .28-.11.58-.2.84-.36.16-1.35.1-2.89.09-4.11-.41.09-1.02.11-1.3.45-.2.27-.34.58-.5.88-.15-.51-.1-1.02-.08-1.54zm-27.41.35c-.09 0-.17 0-.26.02v4.04c1.25.04 1.95-.12 2.15-1.45.09-.67.04-1.45-.34-2.03-.23-.35-.93-.59-1.54-.57zm53.05 1.06c-.28.58-.5 1.04-.79 1.65h1.65c-.28-.55-.57-1.1-.86-1.65z"/><path d="m83.87 2c-.31.04-.6.3-.54.63.03 1.15.49 2.23.49 3.38-.34-.26-.63-.48-1.08-.53-.09.75-.11 1.49.1 2.23.36 1.32.95 2.45.88 3.87-.32.3-.69.43-.67.94-.26 4.19-1.08 8.17-1.55 12.33-.12.97.13 1.91-.04 2.89-.25 1.83-1.3 3.62-2.06 5.3-.35-.47-.68-.88-.66-1.5.01-1.2 1.01-2.38 1.18-3.5.02-.6-.12-1.19-.04-1.79.09-1.02.37-2.22-.03-3.19-.35-.68-1.09-1.18-1.71-1.59-.94-.62-2.13-.36-3.1.01-1.01.37-1.75 1.25-2.04 2.27-.41 1.43-.14 3.02-.12 4.48.02.46-.03.87.19 1.28.4.83.95 1.57 1.05 2.52.06.51-.14.91-.32 1.37-1.25.02-2.5.06-3.75.05-1.52-.04-2.21 1.71-3.79 1.58-4.64-.13-9.2 1.45-13.88 1.13-.71-.03-1.42-.21-2.13-.2-.35.27-.61.65-.96.92-.34.19-.79-.2-1.11-.32-.84-.44-1.73-.27-2.54.13-1.03.52-1.94 1.23-3 1.7.01.13.02.26.03.39.43.17.81.35 1.28.38 1.16.07 2.27-.49 3.48-.46.28.02.63.03.85.23.7.61.98 1.71 1.71 2.27.42.18.95.19 1.4.23 2.63.18 5.02-.46 7.6-.58 1.07-.05 2.05-.43 3.14-.34 2.45.13 4.51 1.49 6.3 3.06 2.74 2.26 3.87 6.26 3.01 9.67-2.04 5.6-4.09 11.22-6.4 16.72-.25.61-.27 1.35-.37 2-.68 4.73-2.21 9.24-3.96 13.66-.88 2.3-2.31 4-2.66 6.52.24.16.48.31.72.46-.73 1.04-1.37 2.13-2.21 3.08-.36.43-.64.92-.89 1.42.38.25.68.51 1.17.47 1.06-.06 2.12-.39 3.07-.86 1.05-.48 2.36-.76 3.16-1.63.41-.43.46-.94.69-1.46.33-.45.78-.74 1.04-1.26 3.29-6.71 4.47-14.17 7.5-20.92.62-1.42 1.35-2.78 2.15-4.1.13.85.28 1.65.28 2.52.01 6.54.32 12.98.07 19.49-.03.77-.07 1.54-.03 2.31.04.95-.22 1.88-.13 2.82.04.5.27.88.49 1.31-.02.3-.09.62-.04.92.12.41.49.68.9.76.82.13 1.66-.14 2.49-.02 1.16.14 2.28.52 3.48.36.52-.07.94-.32 1.4-.56-.1-.37-.08-.72-.42-.95-.69-.49-1.33-.97-2.18-1.1.08-.12.17-.24.25-.36-.89-5.97-.21-12.21.09-18.22.37-3.04 1.06-6.04 1.51-9.07.61-3.89.86-7.8.85-11.73.01-3.44.05-7.14 1.07-10.45.28-.95.75-1.77.92-2.75 1.04-5.2.7-10.44.77-15.71.03-.75.17-1.44.26-2.18.5-3.98.49-7.9.78-11.86.01-.35.05-.74-.13-1.06-.18-.28-.48-.49-.73-.7-.24-1.9-.13-3.78-.53-5.63-.2-.92-.59-1.77-1.05-2.59-.18-.29-.38-.62-.65-.84-.1-.04-.2-.06-.3-.05zm.03.75c1.67 2.54 1.83 5.96 1.93 8.91.21.14.42.29.62.44-.5 5.63-2.25 10.92-2.82 16.55-1.18 7.25 0 15.13-1.64 22.22-.12.64-.06 1.33-.08 1.98-.11 5.55-1.56 10.73-1.82 16.18-.03.74-.28 1.4-.45 2.15-.85 3.63-1.12 7.34-1.04 11.07.1 4.18.68 8.36 1.73 12.42-.19.19-.41.39-.54.63.13.54.56.46 1 .58.76.11 1.31.68 1.89 1.13-1.26.3-2.47.1-3.72-.14-1.03-.2-1.97-.23-3-.03-.35-.62-.12-1.17-.17-1.83-.14-.17-.32-.31-.49-.45-.11-2.37.21-4.82.16-7.19-.06-6.01-.1-12.01-.16-18.02-.03-.6-.18-1.19-.23-1.8-.08-1.04-.03-2.1-.03-3.14-.01-.72.1-1.37-.18-2.05-.49.77-.94 1.58-1.29 2.43-1.53 3.78-4.06 7.14-5.23 11.09-.46 1.47-.55 2.96-.83 4.46-.74 4.16-1.97 8.23-3.46 12.17-.21.14-.45.27-.63.45-.32.49-.3 1.2-.62 1.69-.2.24-.56.36-.84.49-1.26.55-2.33 1.25-3.68 1.62-.62.17-1.26.19-1.91.18.18-.36.4-.65.66-.95.59-.67.98-1.43 1.51-2.13.39-.55.89-.84.95-1.56-.3-.19-.75-.25-.78-.67.01-.71.35-1.44.66-2.06 3.02-5.74 5.09-11.96 5.94-18.39.07-.57.29-1.08.5-1.61 1.69-4.41 3.39-8.82 5.08-13.23.37-1.06.78-2.1 1.15-3.16.45-1.35.63-2.74.13-4.1-.91-2.38-1.41-5.01-2.44-7.32-.79-1.46-2.48-2.35-4.1-2.54-2.63-.31-5.2.48-7.8.64-.69.04-1.31.27-1.98.41-1.81.39-3.64.51-5.48.42-.54-.79-1.07-1.74-1.82-2.36-.3-.28-.75-.2-1.12-.19-1.41.13-2.67.58-4.11.37 1.22-.44 2.33-1.44 3.61-1.59.84-.1 1.26.45 1.98.65.51.06.9-.53 1.26-.82.39-.44 1.05-.13 1.56-.11 4.93.55 9.48-1.23 14.54-1.04 1.14-.09 2.16-1.11 3.28-1.36 1.37-.09 2.92.14 4.28-.14.33-.05.56-.45.69-.73.33-.75.32-1.68.1-2.46-.27-.69-.85-1.24-1.23-1.88.23-1.66-.19-3.26.07-4.89.17-.93.73-1.75 1.61-2.14 1.27-.53 2.95-.2 3.77.97-.67-.03-1.1-.46-1.69-.64-.48-.06-.95.41-1.12.81-.31.76.01 1.78-.11 2.59-.16.66-.99 1.22-.86 1.97-.01.58.79.63 1.19.84-.05.57-.19 1.26-.02 1.81.1.33.4.68.77.68.42.02.84-.34 1.18-.56.02.79-.09 1.72.18 2.48.18.47.72 1.05 1.26.93.42-.2.56-.74.71-1.14.58-1.83 1.47-3.33 1.71-5.26.12-.86-.07-1.69.01-2.55.41-4.23 1.29-8.31 1.63-12.54.22-.12.43-.24.65-.36-.26-1.65-.37-3.46-.95-5.01.18.18.37.39.58.54.42.11.53-.5.56-.79-.01-1.41-.35-2.67-.62-4.02z"/></g></svg>