<svg viewBox="0 0 473 100" xmlns="http://www.w3.org/2000/svg" xmlns:xlink="http://www.w3.org/1999/xlink"><g fill="#29439d"><path d="m50 4.64c-25.01 0-45.36 20.35-45.36 45.36s20.35 45.36 45.36 45.36 45.36-20.35 45.36-45.36-20.35-45.36-45.36-45.36zm0 94.36c-27.02 0-49-21.98-49-49s21.98-49 49-49 49 21.98 49 49-21.98 49-49 49"/><path d="m55.32 34.6c-3.47-3.48-8.27-5.22-14.39-5.22h-5.89v-.01h-6.04c-2.2 0-4.07.17-5.59.51-.89.2-1.73.56-2.52 1.04-.02.01-.04.03-.07.04-.53.33-1.04.7-1.52 1.15-1.79 1.71-2.68 3.97-2.68 6.78v.01 30.37.01h5.36v-.01-16.98h8.01l1.73-5.02h-9.74v-.01-7.63c0-3.49 2.09-5.24 6.27-5.24h13.35c4.22 0 7.46 1.4 9.72 4.19s3.43 6.38 3.51 10.74c-.08 4.37-1.25 7.95-3.51 10.74s-5.5 4.19-9.72 4.19h-8.44-1.45l-1.73 5.02h5.83 5.1c6.12 0 10.92-1.74 14.39-5.22 3.48-3.48 5.23-8.39 5.27-14.73-.04-6.34-1.79-11.26-5.27-14.73"/><path id="x1" d="m120.44 27.46v5.4h7.5l-1.13 3.55h-6.37v12.01h-3.79v-21.48c0-1.99.63-3.59 1.89-4.8.86-.81 1.83-1.33 2.9-1.57 1.08-.24 2.39-.36 3.95-.36h4.27l-1.13 3.55h-3.67c-2.96 0-4.43 1.24-4.43 3.71"/><path d="m137.9 48.42h-3.79v-28.22h3.79z"/><path id="x2" d="m142.33 48.42v-18.34c0-3.25.8-5.78 2.4-7.58s3.88-2.7 6.83-2.7c2.98 0 5.28.73 6.87 2.18 1.6 1.45 2.4 3.49 2.4 6.13 0 1.69-.4 3.08-1.21 4.15-.81 1.08-2.18 1.92-4.11 2.54v.16c2.02.78 3.37 1.89 4.05 3.33s1.03 3.81 1.03 7.11v3.02h-3.79v-5.16c0-2.04-.58-3.63-1.73-4.78-1.16-1.14-2.82-1.71-5-1.71h-2.18v-3.55h2.3c2.58 0 4.37-.52 5.36-1.57s1.49-2.3 1.49-3.75c0-1.37-.49-2.47-1.47-3.3s-2.28-1.25-3.89-1.25c-1.85 0-3.25.52-4.17 1.57-.93 1.05-1.39 2.77-1.39 5.16v18.34z"/><path id="x3" d="m179.76 20.2v3.55h-7.14c-2.71 0-4.07 1.1-4.07 3.31 0 1.18.6 2.18 1.8 3s2.81 1.61 4.86 2.36c.91.35 1.69.71 2.34 1.07.64.36 1.29.84 1.93 1.43.65.59 1.13 1.35 1.45 2.28s.48 2 .48 3.21c0 1.34-.28 2.55-.85 3.61-.56 1.06-1.29 1.9-2.18 2.5s-1.79 1.06-2.72 1.37-1.83.48-2.72.5c-.38.03-.92.04-1.61.04h-6.29v-3.55h6.17c1.83 0 3.32-.38 4.47-1.15s1.73-1.89 1.73-3.37c0-.73-.16-1.36-.48-1.91s-.79-1.03-1.39-1.43c-.61-.4-1.22-.75-1.85-1.05s-1.39-.6-2.28-.93c-.24-.08-.43-.15-.56-.2-4.22-1.61-6.33-4.25-6.33-7.9 0-2.26.73-3.94 2.18-5.06s3.35-1.67 5.68-1.67h7.38"/><path id="x4" d="m183.02 23.75v-3.55h17.74l-1.13 3.55h-5.85v24.67h-3.79v-24.67h-6.98"/><path d="m216.46 44.88c2.98 0 5.27-.99 6.87-2.96 1.6-1.98 2.42-4.51 2.48-7.6-.06-3.09-.88-5.62-2.48-7.6s-3.89-2.96-6.87-2.96h-2.18v21.12zm13.42-10.56c-.03 4.49-1.27 7.96-3.73 10.42s-5.85 3.69-10.18 3.69h-5.48v-28.23h5.48c4.33 0 7.72 1.23 10.18 3.69s3.7 5.93 3.73 10.42"/><path id="x5" d="m247.42 48.42h-14.91v-21.48c0-1.99.63-3.59 1.89-4.8.86-.81 1.83-1.33 2.9-1.57 1.08-.24 2.39-.36 3.95-.36h7.3l-1.13 3.55h-6.69c-2.96 0-4.43 1.24-4.43 3.71v4.6h9.31l-1.13 3.55h-8.18v9.27h12.26l-1.13 3.55"/><path d="m263.52 44.88h2.9v-8.47h-4.15v-3.55h7.94v15.56h-6.21c-4.33 0-7.72-1.23-10.18-3.69s-3.7-5.93-3.73-10.42c.03-4.49 1.27-7.96 3.73-10.42s5.85-3.69 10.18-3.69h4.64v3.55h-5.12c-2.98 0-5.28.99-6.88 2.96s-2.42 4.51-2.48 7.6c.05 3.09.88 5.62 2.48 7.6s3.89 2.96 6.88 2.96"/><use xlink:href="#x2" transform="translate(132.3)"/><use xlink:href="#x5" transform="translate(65.1)"/><use xlink:href="#x5" transform="translate(85.6)"/></g><g fill="#f79210"><path d="m73.26 34.39h8l1.73-5.02h-8.99c-2.2 0-4.07.17-5.59.51s-2.89 1.08-4.1 2.22c-1.79 1.71-2.68 3.97-2.68 6.78v.16c1.49 3.13 2.35 6.67 2.35 10.43s-.86 7.3-2.35 10.43v9.36h5.36v-16.99h8.01l1.73-5.02h-9.74v-7.64c0-3.5 2.09-5.24 6.27-5.24"/><use xlink:href="#x1" transform="translate(227.4)"/><path d="m363.63 48.42h-3.79v-28.22h3.79z"/><use xlink:href="#x4" transform="translate(185.1)"/><path d="m410.21 20.22h-3.79v20.59l-11.81-20.61h-4.37l.01.03v28.21h3.79v-21.59l12.37 21.59.01.01h3.78v-1.02-27.21"/><use xlink:href="#x5" transform="translate(182.1)"/><use xlink:href="#x3" transform="translate(270)"/><use xlink:href="#x3" transform="translate(290.6)"/><path d="m119.64 59.56c.05.09.07.2.11.32-.12.03-.2.06-.28.07-.33.02-.61.11-.61.49.01.43-.09.92.45 1.14 1.07.43 2.19.54 3.33.55.9.01 1.8 0 2.76.01-.27.25-.49.45-.71.68-.44.46-.89.93-1.37 1.35-.52.46-1 1.04-1.61 1.34-.64.31-1.46.25-2.16.39-1.28.26-2.58.4-3.89.45-.41.02-.6.18-.57.57.01.1-.04.26-.12.32-.56.39-.66.79-.27 1.33.5.69 1.17 1.07 2.04 1.11.17.01.34.13.51.2-.09.14-.16.31-.28.42-.41.37-.9.67-1.25 1.08-.86.97-1.64 2.01-2.49 3-.73.84-1.51 1.63-2.25 2.45-.82.91-1.65 1.82-2.45 2.74-.24.27-.42.59-.62.87.29.06.55.11.81.15.17.03.38.11.52.05.59-.27 1.16-.59 1.75-.86.14-.06.32-.03.49-.04-.05.14-.05.31-.14.42-.19.24-.43.44-.62.67-.41.51-.8 1.02-1.2 1.54-.21.27-.41.55-.62.82.04.04.08.09.12.13.22-.12.45-.23.65-.38.44-.33.86-.7 1.3-1.04.39-.3.8-.59 1.2-.88.32-.22.64-.44.97-.65.38-.24.81-.44 1.14-.73.6-.53 1.16-1.11 1.73-1.68.98-.98 1.93-1.99 2.92-2.95 1.01-.97 2.04-1.92 3.08-2.85.69-.62 1.47-1.13 2.09-1.8.93-1 2.01-1.49 3.36-1.58 2.12-.14 4.24-.37 6.37-.54 3.45-.27 6.89-.53 10.34-.8.13-.01.26-.08.39-.14.16-.07.33-.22.48-.21 1.41.16 2.35-.63 3.34-1.59-.42 0-.72 0-1.04 0 0-.17 0-.3 0-.45-.27-.03-.51-.05-.76-.08.37-.2.73-.39 1.09-.37.44.02.79-.03 1.22-.17.84-.26 1.77-.21 2.67-.31.49-.06.97-.18 1.46-.27-.01-.05-.02-.09-.03-.14-.09-.05-.17-.1-.28-.16.21-.08.38-.13.54-.19-.01-.05-.01-.1-.02-.16-.14-.01-.29-.03-.43-.03-1.02.05-2.03.15-3.05.15-.8 0-1.6-.07-2.4-.11-.44-.03-1.15-.01-1.58.02-1.82.12-3.63.2-5.45.36-2.45.22-4.89.53-7.33.77-.53.05-1.06.01-1.68 0 .2-.25.19-.28.35-.37.81-.44 1.52-1.04 2.03-1.8s.97-1.07 1.65-1.22c1.22-.26 2.45-.1 3.69-.3 2.04-.33 4.15-.24 6.23-.35.41-.02.81-.12 1.21-.19.21-.04.41-.13.62-.15.66-.06 1.38.2 1.96-.37.07-.07.22-.07.33-.08 1.47-.11 2.93-.2 4.39-.33.3-.03.7-.08.87-.28.41-.48.96-.42 1.46-.56.21-.06.49-.02.4-.33-.04-.14-.28-.23-.46-.3-.14-.06-.31-.05-.46-.07 0-.05 0-.11-.01-.16.16-.04.32-.1.48-.11.61-.01 1.22.02 1.83 0 .32-.01.64-.09.96-.09.47 0 .94.07 1.42.08.13 0 .27-.08.41-.13.19-.06.37-.16.56-.19.6-.08 1.2-.13 1.81-.21.24-.03.46-.13.7-.17.68-.12 1.42.22 2.05-.29-.12-.04-.23-.07-.34-.11.53-.11 1.09.02 1.63-.39-.93-.05-1.75-.12-2.57-.12-1.81-.02-3.62.01-5.43-.01-.21 0-.43-.16-.64-.23-.18-.06-.36-.14-.54-.15-.29-.01-.59.06-.88.06-1.9.04-3.8.06-5.69.13-2.15.08-4.29.38-6.45.19-1.84-.16-3.68.04-5.48.43-3.18.69-6.42.94-9.64 1.33-2.39.29-4.79.6-7.18.89"/><path d="m176.49 55.08c.01-.65-.25-1.04-.75-1.23-.97-.38-1.91-.21-2.79.24-1.08.55-2.17 1.12-3.16 1.81-1.57 1.09-3.06 2.28-4.59 3.43-.43.32-.86.65-1.29.98-.93.73-1.85 1.45-2.77 2.19-.57.46-1.12.95-1.69 1.41-.91.74-1.84 1.45-2.73 2.2-1.32 1.11-2.58 2.29-3.89 3.41-.66.56-1.3 1.14-1.88 1.77-1.55 1.69-3.04 3.44-4.53 5.18-.65.76-1.14 1.63-1.46 2.59-.13.38.05.46.35.42.16-.02.31-.16.47-.24.16-.09.32-.17.47-.26.14-.07.28-.14.41-.22.54-.34 1.09-.68 1.62-1.03.14-.09.25-.2.39-.3.5-.34.75-1.05 1.5-1.01.06 0 .18-.09.17-.13-.02-.35.25-.28.45-.37.54-.23 1.09-.47 1.55-.82.65-.49 1.21-1.1 1.84-1.61.67-.54 1.37-1.05 2.07-1.55.4-.28.85-.49 1.25-.76.19-.13.31-.37.5-.51.97-.75 1.96-1.47 2.92-2.23.85-.67 1.65-1.39 2.49-2.07 1.04-.83 2.12-1.63 3.17-2.45.45-.35.86-.74 1.31-1.09 1.07-.85 2.28-1.53 3.13-2.65.09-.11.29-.22.43-.2.53.07.73-.35 1.02-.63.07-.07.1-.18.17-.23.87-.68 1.75-1.36 2.64-2.02.31-.24.67-.42.98-.65.35-.26.51-.58.31-1.02-.06-.14-.08-.31-.09-.33"/><path d="m184.18 72.82c-.05-.07-.11-.13-.17-.2.22-.26.41-.56.67-.78.54-.45 1.13-.83 1.67-1.28.55-.46 1.09-.94 1.57-1.47s1.33-.63 1.58-1.41c.01-.04.14-.07.22-.08.8-.09 1.32-.62 1.82-1.17.27-.29.27-.64.03-1-.45-.68-1.12-.84-1.87-.87-.78-.04-1.56-.11-2.34-.12-.25 0-.55.06-.75.19-.75.51-1.51 1.01-2.37 1.3-1.16.38-2.31.81-3.47 1.22-1.47.52-2.93 1.03-4.4 1.55-1.24.44-2.47.89-3.71 1.31-1.41.49-2.82.96-4.23 1.43-.12.04-.26 0-.52 0 .19-.17.26-.24.35-.31.69-.49 1.39-.96 2.07-1.45.44-.32.74-.84 1.33-.96.07-.02.12-.15.18-.22.14-.19.27-.4.44-.57.54-.54 1.1-1.05 1.63-1.59.4-.41.3-1-.2-1.28-.18-.1-.38-.2-.53-.34-.3-.26-1.12-.41-1.41-.17-.5.44-1.01.34-1.57.21-.24-.05-.57-.04-.77.08-.92.57-1.83 1.18-2.71 1.81-.89.64-1.75 1.31-2.61 1.99-1.15.91-2.32 1.8-3.42 2.77-.73.64-1.37 1.39-2.02 2.13-.44.51-.56.96-.01 1.61.67.8 1.37 1.19 2.38 1.02.5-.08.99-.22 1.48-.36 1.66-.48 3.35-.92 4.98-1.48 1.76-.6 3.49-1.34 5.23-2 2.14-.82 4.29-1.62 6.43-2.43.17-.06.36-.05.66-.1-.14.23-.2.34-.28.43-.47.54-.98 1.05-1.42 1.61-.28.35-.45.79-.68 1.17-.15.25-.31.5-.5.72-.22.24-.49.42-.73.64-.47.42-.59.99-.24 1.5.29.42.63.82 1.02 1.15.42.35.94.17 1.42.08.28-.06.46-.18.47-.52 0-.08.24-.2.39-.23 1.19-.3 2.39-.56 3.58-.86.59-.15 1.53-.44 2.1-.64 1.66-.6 3.31-1.25 5-1.78.64-.2 1.25-.45 1.87-.71.72-.31 1.57-.47 2.2-.92.53-.38 1.18-.37 1.69-.73.14-.1.42.02.64.04-.06.19-.07.43-.2.57-.54.61-1.14 1.17-1.67 1.79-.91 1.06-1.78 2.14-2.67 3.21-.39.47-.36.7.18.99.11.06.23.11.36.18-.18.38.05.49.34.51.19.01.38-.06.57-.1.26-.07.51-.29.76.02.03.04.21-.02.3-.07.35-.2.7-.39 1.03-.62.39-.27.76-.57 1.14-.87.04-.03.03-.13.06-.18.13-.17.24-.37.41-.48.52-.33 1.1-.57 1.6-.93.61-.43 1.15-.96 1.73-1.42.54-.43 1.11-.82 1.64-1.24.76-.6 1.5-1.24 2.27-1.83.3-.23.7-.35 1-.59.63-.51 1.5-.72 1.89-1.52.02-.05.11-.06.17-.1.29-.2.65-.36.85-.63.15-.21.21-.62.11-.85-.25-.54-.78-.95-1.34-.98-.96-.05-1.97-.08-2.88.19-1.33.39-2.57 1.06-3.86 1.58-.65.27-1.32.5-1.99.71-1.34.42-2.7.81-4.05 1.23-1.47.46-2.93.91-4.38 1.42-1.62.57-3.22 1.19-4.83 1.79-.24.09-.48.16-.71.25"/><path d="m215.81 59.19c.6-.31 1.16-.59 1.82-.92-.26-.16-.38-.23-.39-.23.06-.32.1-.55.15-.79-.25-.03-.49-.11-.74-.09-.22.02-.43.15-.66.2-.11.02-.23-.02-.35-.04s-.24-.1-.34-.08c-.35.07-.7.19-1.05.26-1.76.34-3.49.75-5.07 1.64-.5.28-.73 1.08-.46 1.38-.02.28-.12.54-.04.69.53 1.03 2.33 1.62 3.21.91.91-.74 2.07-.82 2.99-1.46.39-.26.82-.46 1.33-.74-.29-.12-.41-.16-.58-.23.17-.1.28-.17.41-.24-.1-.11-.18-.2-.24-.26"/><path d="m208.28 74.84c.58-.21 1.06-.37 1.52-.55.54-.22 1.07-.5 1.61-.71 1.57-.6 3.15-1.18 4.72-1.79 1.25-.48 2.5-.97 3.74-1.47.89-.36 1.78-.74 2.66-1.14.48-.22.54-.46.28-.9-.03-.06-.06-.11-.09-.17-.09-.21-.13-.54-.27-.59-.22-.08-.51.04-.76.09-.29.06-.58.12-.87.2-.6.18-1.19.35-1.78.56-.44.15-.87.35-1.31.52-.2.08-.46.07-.6.2-.49.49-1.04.83-1.75.9-.05 0-.09.09-.14.13-.24.17-.46.41-.72.48-.65.17-1.33.19-1.83.75-.23.25-.58.39-.88.58-.78.5-1.57.99-2.33 1.51-.48.33-1.04.62-1.21 1.43zm11.43.7c.25-.18.66-.18.57-.75-.04-.25.48-.56.71-.87.6-.81 1.19-1.63 1.77-2.45.07-.1.04-.27.06-.4-.12-.01-.26-.06-.37-.02-.2.07-.42.15-.55.3-.62.67-1.41.93-2.29.97-.49.02-.87.13-1.05.68-.18.54-.62.33-1.02.22-.28.39-.59.74-1.15.57-.06-.02-.17.07-.25.12-.21.16-.39.39-.62.48-1.06.43-2.11.91-3.21 1.19-1.15.3-2.18.84-3.27 1.24-1.14.42-2.38.42-3.46-.35-.63-.45-.86-1.31-.52-1.99.54-1.08 1.51-1.76 2.38-2.51 1.3-1.12 2.83-1.87 4.32-2.7.85-.48 1.7-.97 2.58-1.38 1.03-.48 2.11-.88 3.17-1.32.4-.17.78-.38 1.19-.53.45-.16.91-.27 1.37-.4.09-.03.22.03.29-.02.81-.55 1.8-.39 2.67-.7.25-.09.55-.09.82-.09.41-.01.83.07 1.23.02.98-.13 1.67.37 2.26 1.02.6.66.56.66 1.26.14.64-.48 1.32-.9 1.94-1.39.87-.69 1.68-1.44 2.55-2.12.55-.44 1.16-.8 1.76-1.18.86-.55 1.74-1.09 2.61-1.63 1.34-.83 2.67-1.66 4.01-2.48.51-.32 1.04-.61 1.55-.93.72-.45 1.95-.37 2.46.17.43.46.33 1.04.36 1.58 0 .07-.12.15-.19.21-.42.37-.96.63-1.07 1.28-.02.1-.33.14-.48.24-1.15.81-2.41 1.45-3.46 2.42-.53.5-1.21.84-1.81 1.27-.77.56-1.52 1.14-2.29 1.69-.66.47-1.35.9-2.02 1.37-.97.69-1.93 1.41-2.89 2.12-.06.05-.13.08-.21.1-.36.08-.78.05-.7.63.01.07-.25.22-.4.27-.29.11-.63.13-.69.53 0 .03-.03.07-.05.08-.44.17-.88.33-1.31.51-.18.07-.35.16-.5.29-.2.17-.35.4-.55.55-.68.52-1.34 1.09-2.09 1.51-.94.52-1.56 1.31-2.16 2.14-.12.17-.37.37-.56.45-.57.22-.74.71-.87 1.23-.09.35-.1.71-.56.84-.11.03-.21.26-.23.41-.08.51-.45.41-.76.35-.32-.06-.59-.22-.51-.64.11-.63.22-1.25.31-1.88.02-.13-.05-.26-.09-.44"/><path id="x6" d="m255.58 76.25c0 .26-.08.39-.4.39h-1.19c-.28 0-.4-.13-.4-.39v-17.09c0-.26.11-.39.4-.39h1.19c.31 0 .4.13.4.39z"/><path id="x7" d="m282.05 76.25c0 .26-.09.39-.4.39h-1.08c-.2 0-.31-.05-.4-.18l-7.52-12.36c-.62-1-.94-1.63-.97-1.71v13.86c0 .26-.11.39-.4.39h-1.08c-.31 0-.43-.13-.43-.39v-17.09c0-.26.11-.39.43-.39h1.08c.2 0 .28.05.34.16l7.69 12.54c.23.37.85 1.58.85 1.58v-13.88c0-.26.11-.39.4-.39h1.08c.31 0 .4.13.4.39v17.09"/><use xlink:href="#x7" transform="translate(26.5)"/><path id="x8" d="m332.71 62.69c0-1.52-1.14-2.52-4.14-2.52-2.98 0-4.12 1-4.12 2.52v10.04c0 1.53 1.14 2.53 4.12 2.53 3.01 0 4.14-1 4.14-2.53zm-10.27-.29c0-2.1 1.48-3.84 6.13-3.84 4.71 0 6.16 1.74 6.16 3.84v10.62c0 2.1-1.45 3.84-6.16 3.84-4.65 0-6.13-1.73-6.13-3.84z"/><path d="m352.24 76.25-5.65-17.09c-.09-.26.03-.39.31-.39h1.31c.28 0 .4.13.48.39l4.06 12.33c.28.89.6 2.52.65 2.76.03-.13.31-1.63.68-2.71l4.09-12.38c.09-.26.2-.39.48-.39h1.19c.31 0 .43.13.34.39l-5.68 17.09c-.08.26-.23.39-.51.39h-1.22c-.31 0-.45-.13-.54-.39"/><path d="m376.59 63.92c-.28-.84-.65-2.89-.71-3.18-.03.18-.37 2.13-.71 3.13l-2.1 6.21h5.59zm.45-4.76 5.67 17.09c.09.26-.03.39-.34.39h-1.22c-.28 0-.43-.13-.51-.39l-1.56-4.68h-6.5l-1.53 4.68c-.08.26-.2.39-.48.39h-1.14c-.28 0-.4-.13-.31-.39l5.65-17.09c.08-.26.23-.39.54-.39h1.22c.28 0 .43.13.51.39"/><path d="m403.55 58.77c.28 0 .43.1.43.39v.82c0 .29-.14.39-.43.39h-4.88v15.88c0 .26-.11.39-.4.39h-1.22c-.31 0-.43-.13-.43-.39v-15.88h-4.88c-.31 0-.43-.11-.43-.39v-.82c0-.29.11-.39.43-.39h11.8"/><use xlink:href="#x6" transform="translate(162.6)"/><use xlink:href="#x8" transform="translate(109.6)"/><use xlink:href="#x7" transform="translate(188.5)"/></g></svg>