<svg viewBox="0 0 374 100" xmlns="http://www.w3.org/2000/svg"><defs><mask id="m"><path d="m2 2v98h374v-98z" fill="#fff"/><path d="m51.9 25.5v7.5h-19.5v43.7h-8.4v-51.2z"/><path d="m39.9 45.8h12v7.5h-19.4z"/><path d="m70.5 25.5v51.2h-8.5v-51.2z"/><path d="m122.6 25.5v7.5h-17.4v43.7h-8.5v-43.7h-17v-7.5z"/><path d="m156.7 28.9v9.7c-3.2-3.3-7.4-6-12.1-6-3.7 0-7.6 1.6-7.6 5 0 3.3 1.3 4.7 8.9 9.1s12.3 8.2 12.7 16.2c.1 9.3-6.7 14.4-15.2 14.4-5 0-10-1.8-13.9-4.9v-11.2c3.4 4.7 8.1 8.4 13.9 8.5 5.1.1 7.2-3.1 7.2-5.8 0-5.2-6-8-10.1-10.5-5.9-3.6-11.4-7.2-11.3-14.9s6-13.6 15.3-13.6c5.9 0 8.9 1.5 12.2 4z"/><path d="m177.5 25.5v51.2h-8.5v-51.2z"/><path d="m177.4 54.7 7.6-7.5h19v-21.7h8.4v51.2h-8.4v-22z"/><path d="m219.9 76.7h8.8l6.2-14.7h20.4l6.6 14.7h8.7l-22.9-51.2h-5.9zm32-22.4h-13.7l6.6-15.8z"/><path d="m294.8 25.5c10 0 15.8 6.6 15.8 14.7 0 11.4-9.7 14.8-18.1 14.8h-6.1l7.5-7.5c4.8-.3 7.6-2.5 8-7.2 0-6.2-5.2-7.3-8.3-7.3h-7.3v43.7h-8.5v-51.2z"/><path d="m319.1 76.7h30.3v-7.7h-21.9v-36h21.2v-7.5h-29.6z"/><path d="m335.2 47.2-7.6 7.6h20.4v-7.6z"/><path d="m354.8 28.7c0-1.9 1.4-3.4 3.3-3.4s3.4 1.5 3.4 3.4-1.5 3.5-3.4 3.5-3.3-1.6-3.3-3.5zm-1.1 0c0 2.5 1.9 4.4 4.4 4.4s4.5-1.9 4.5-4.4c0-2.4-2-4.3-4.5-4.3s-4.4 1.9-4.4 4.3z"/><path d="m357.5 28.5v-1.2c.4-.1 1.5-.1 1.5.6 0 .5-.4.6-1 .6zm1.6.4v-.1c.5-.2.9-.5.9-1-.1-1.1-.9-1.3-1.9-1.3-.7 0-1.2.1-1.6.2v4.2h1v-1.7h.4c.5 0 .8.2.9.7s.3.8.4 1h1c-.1-.2-.2-.3-.3-1-.1-.6-.4-.8-.8-1z"/></mask></defs><g><path fill="#e30a13" mask="url(#m)" d="m2 2v96l185-7 185 7v-96l-185 7z"/></g></svg>