<svg viewBox="0 0 423 100" xmlns="http://www.w3.org/2000/svg" xmlns:xlink="http://www.w3.org/1999/xlink"><g fill="#e94c27"><path d="m6.97 8.64c4.55.63 9.48 3.69 12.28 7.29-3.26 9.83-3.38 20.76.05 30.56-3.52 3.5-7.46 6.3-12.49 7.02-3.44-6.5-4.92-13.85-4.91-21.21.01-8.19 1.47-16.3 5.07-23.66z"/><path d="m20.3 2c10.77 0 17.95 6.74 24.22 14.53-3 3.74-6.04 7.48-8.94 11.3-7.67-9.29-14.45-20.97-28.25-20.17 2.88-4.54 7.92-5.66 12.97-5.66z"/><path d="m86.9 7.68c-8.84-.64-15.18 4.11-20.73 10.66-7.54 9.25-14.78 18.76-22.22 28.1-5.93 7.45-13.27 13.94-23.49 13.94-4.84 0-10.6-1.09-13.06-5.64 8.25.42 14.01-3.6 19.45-9.56 6.29-7.17 23.3-29.64 26.5-33.14 3.39-3.71 10.57-10.04 20.18-10.04 4.45 0 9.91.63 13.37 5.68z"/><path d="m87.21 8.69c3.57 7.13 5.19 15.28 5.19 23.32 0 4.33-.32 11.82-4.93 21.39-4.99-.42-9.14-3.51-12.56-6.94 3.8-10.8 2.69-22.28.07-30.76 3.34-4.03 9.2-7.01 12.23-7.01z"/><path d="m58.74 34.48c7.35 9.36 14.5 21.12 28.2 20.25-3.1 4.39-7.6 5.66-12.77 5.66-11.07.01-18.25-6.53-24.5-14.53 2.96-3.83 5.95-7.69 9.07-11.38z"/></g><g fill="#666d71"><path d="m147.38 3.67-4 11.36h-19.65c-1.35 0-2.79.99-2.8 2.47v8.08h22.32l-3.75 10.3h-18.57v10.62c0 11.08-8.09 12.28-13.52 12.24v-40.7c0-4.26 2.92-14.38 16.09-14.37z"/><path d="m165.72 3.68v39.72c0 3.35 1.65 4.1 4.47 4.1h20.39l-3.74 11.2h-17.95c-14.14 0-16.62-9.66-16.62-16.7v-38.32z"/><path d="m237.3 3.69-3.83 11.34h-21.04c-2.95 0-3.31.89-3.3 3.56v6.99h24.7l-3.74 10.3h-20.96v9.13c0 3.22 3.72 2.37 5.95 2.37h22.22l-3.83 11.33h-23.14c-6.38 0-14.64-4.86-14.64-15.82v-24.68c0-7.14 6.02-14.52 14.64-14.52z"/><path d="m239.9 3.7h15.37l10.96 17.54 11.08-17.54h15.34l-18.64 27.5 18.67 27.51h-15.37l-11.03-17.65-11.01 17.63h-15.36l18.67-27.49z"/><path d="m308.41 3.69 12.26 37.71 12.43-37.74h13.18l-16.93 51.04c-1.21 3.65-2.83 3.88-5.99 3.88h-7.26c-2.57 0-3.69-1.92-4.26-3.68l-16.56-51.21z"/><path d="m364.73 3.68v55.02h-13.46v-55.02z"/><path d="m421.1 3.68v11.35h-19.02v43.67h-13.44v-43.67h-18.88v-11.35z"/><path d="m416 48.5c-2.82 0-5.1 2.28-5.1 5.1s2.28 5.1 5.1 5.1 5.1-2.28 5.1-5.1-2.28-5.1-5.1-5.1zm0 1c2.26 0 4.1 1.84 4.1 4.1s-1.84 4.1-4.1 4.1-4.1-1.84-4.1-4.1 1.84-4.1 4.1-4.1z"/><path d="m417.05 56.05-.96-2.04h-.79v2.04h-1.03v-5.18h2.09c1.08 0 1.65.76 1.65 1.58 0 .7-.35 1.13-.87 1.44l1.07 2.16zm-1.78-4.3v1.43h1.03c.43 0 .7-.33.7-.73s-.27-.7-.7-.7z"/></g><g fill="#a5a8b6" transform="matrix(.1 0 0 .1 -.1 0)"><path d="m125 977.6v-211h84.5c41 0 65.5 23 65.5 58.8 0 23-13.6 38.5-23.8 43.6 12.8 6.4 26.9 19.1 26.9 47.3 0 39.7-27.6 61.3-65.4 61.3zm80.6-173.9h-39.6v48.6h39.6c17.9 0 26.9-10.1 26.9-24.2s-10.3-24.4-26.9-24.4m-39.6 84.5v51.2h42.2c17.9 0 26.9-11.5 26.9-25.6s-9-25.6-26.9-25.6z"/><path id="a" d="m556 977.5-13-36.8h-73.6l-12.8 36.8h-44.1l75.5-210.9h35.3l76.8 210.9zm-48.6-145-25.7 72.4h49.7z"/><path d="m865.2 977.5-80.7-123.9v123.9h-43.4v-211.1h38.3l81.1 124.8v-124.6h42.5v210.9z"/><path id="b" d="m1143.3 977.5h-75.5v-211.1h75.5c73.9 0 79.6 54.5 79.6 103.7 0 58.8-8.1 107.4-79.6 107.4zm-3.6-173.3h-29.6v135h29.6c41.5 0 41-37.5 41-69.1 0-32.6-.9-65.9-41-65.9z"/><path d="m1360 951.8 27.1-27.3c13.7 9.1 31.3 17.4 51.7 17.4 24.3 0 37.1-10.6 37.1-25 0-15.5-10.3-22.3-24.3-24.6l-27.9-4.6c-41.3-6.8-54-29.3-54-59.1 0-37.1 28.1-64 72.9-64 29.4 0 51.7 7.7 70.7 24l-26.1 27c-12-7.9-27.6-13.9-42.7-14-21.8-.1-33.9 10.4-33.9 25.7-.2 14.9 12.9 20.3 25.6 22.4l27.5 4.5c17.7 2.9 53.2 10.3 53.2 61.4 0 41-33.3 64-78.1 64-32 0-59.7-9.1-78.8-27.8z"/><path d="m1968.9 976.6-40.6-83.2h-28.1v83.2h-43.2v-210h82.8c45.5 0 69.4 29.4 69.4 64 0 29.4-14.5 44.7-36.5 57.8l44.9 88.2zm-70-172.9v55h38.5c17.9 0 29.3-11.5 29.3-28.1s-11.4-26.9-29.3-26.9z"/><path id="c" d="m2168.1 977.1v-210.5h139.5v37.7h-97.6v47.8h83.1v38h-83.1v49.1h97.9v37.9z"/><path d="m2464.1 977.1v-210.5h41.9v172.6h95.9v37.9z"/><path d="m2812.6 980c-24.3 0-41.8-10.3-56.3-25.3-21.4-22.1-20.5-47.4-20.5-83.2s0-62.7 20.5-83.2c14.1-14.1 33.3-23 56.3-23 24.3 0 44.8 8 59.3 23 21.4 22.1 20.5 47.4 20.5 83.2s0 62.7-20.5 83.2c-14.1 14.1-35 25.3-59.3 25.3zm1.2-178.9c-11.5 0-18.9 4-25.4 11.6-7.6 9-11.5 17.8-11.5 58.8 0 39.7 3.4 50 11.4 58.7 6.1 6.7 14 11.7 25.5 11.7s20.7-4.2 26.3-11.5c7.2-9.4 11.3-17.9 11.3-58.9 0-39.7-3.3-50.1-11.3-58.8-6.1-6.7-16.1-11.6-26.3-11.6z"/><use transform="translate(2611.1)" xlink:href="#a"/><use transform="translate(2285.2)" xlink:href="#b"/><use transform="translate(1496.6)" xlink:href="#c"/><use transform="translate(2892.1)" xlink:href="#b"/></g></svg>