<svg viewBox="0 0 291 100" xmlns="http://www.w3.org/2000/svg" xmlns:xlink="http://www.w3.org/1999/xlink"><g fill="#020201"><path d="m2 66.7h20.2v6.1h-12.7v6.5h9.5v5.9h-9.5v12.5h-7.5z"/><path d="m35.5 66.7v25.2h9.9v5.8h-17.5v-31z"/><path d="m63.1 66.3c-8.8 0-16 6.6-16 15.9s7.2 15.8 16 15.8 15.8-6.5 15.8-15.8-7-15.9-15.8-15.9zm0 6.9c4.9 0 8.2 3.5 8.2 9 0 5.4-3.3 9-8.2 9-5 0-8.2-3.6-8.2-9 0-5.5 3.2-9 8.2-9z"/><path d="m80.5 66.7 7.9 31h9.2l5-20.3 5 20.3h9.1l8.1-31h-8.1l-4.5 22.6-5.3-22.6h-8.3l-5.5 22.6-4.5-22.6z"/><path d="m130.6 66.8v30.9h4v-13.9h10.9v-3.3h-10.9v-10.3h13.4v-3.4z"/><path d="m154.5 66.8v30.9h4v-30.9z"/><path d="m163.8 66.8v3.4h8.4v27.5h4.1v-27.5h8.4v-3.4z"/><path d="m189.9 66.8v30.9h4.1v-24.5l16.2 24.5h4v-30.9h-4v24.6l-16.2-24.6z"/><path d="m221.4 66.8v30.9h16.6v-3.3h-12.6v-10.6h11.3v-3.4h-11.3v-10.2h12.6v-3.4z"/><path id="a" d="m242.2 89.4h4.4c.2 2.6 2 5.2 6.3 5.2 3.9 0 6.2-2.3 6.2-5.2 0-8.3-16.7-2.9-16.7-14.4 0-5.1 4.2-8.5 10.3-8.5 5.9 0 9.7 3.2 10.2 7.9h-4.5c-.3-2.1-2.2-4.4-5.9-4.5-3.3 0-5.9 1.7-5.9 5 0 8 16.6 3 16.6 14.4 0 4.4-3.6 8.7-10.3 8.7-6.2 0-10.6-3.5-10.7-8.6z"/><use transform="translate(25.8)" xlink:href="#a"/></g><g fill="#ffc220"><path d="m119.9 2 25.6 11.9 25.6-11.9v9.3l-25.6 11.9-25.6-11.9z"/><path d="m142.9 27.4v21.1l-8.4-3.9v-11.9l-10.7-4.9v-9.3z"/><path d="m167.2 27.8-10.7 4.9v11.9l-8.4 3.9v-21.1l19.1-8.9z"/></g></svg>