<svg viewBox="0 0 1006 100" xmlns="http://www.w3.org/2000/svg"><g fill="#1d1e1b"><path d="m309.6 38c.7-3.8 4-5.9 10.1-5.9l56.6.1 2.8-16.1h-62.8c-10.4 0-18.3 1.5-23.5 4.5-5.3 3.1-8.8 8.6-9.6 14.7l-5.4 30.8c-1.1 6.3.4 10.9 4.5 13.8s11 4.4 20.7 4.4h56c4.5 0 8.3-3.1 9.3-7.4l6-34.3-.8-.9h-39.6l-2.4 16.1h13.5l-1.8 10.4h-31.3c-3 0-7.1-1.3-6.6-4.7z"/><path d="m475.6 34.4c1.2-6.7-.3-11.7-4.5-14.7s-11.5-4.6-21.9-4.6h-29.8c-10.4 0-18.3 1.6-23.5 4.6-5.3 3.2-8.9 8.6-9.7 14.7l-5.4 30.9c-1.2 6.7.3 11.7 4.5 14.7s11.6 4.6 22 4.6h29.8c10.4 0 18.3-1.6 23.5-4.6 5.3-3.2 8.9-8.6 9.7-14.7zm-32.2 30.9c-.7 3.9-4 5.8-10.1 5.8h-17.9c-6 0-8.7-1.9-8-5.8l5.4-30.8c.7-3.9 4-5.9 10.1-5.9h17.9c6 0 8.6 2 8.3 3.9z"/><path d="m551.2 16.5-.5-.3h-29l-.6.3-50.3 66.5.4.8h27.7l.6-.3 7.1-10.1h39.3l3.9 10.1.5.3h27.7l.7-.8zm-33.3 40.7 14-19.7h1.1l6.9 19.7z"/><path d="m625 16.1h-26.8l-11.8 67.6 69.9-.1 2.8-16.1h-43z"/><path d="m679.2 16.1-11.7 67.5h26.8l11.8-67.5z"/><path d="m785.7 16.5-.5-.3h-29l-.7.3-50.4 66.3.4.8h27.7l.5-.3 7.2-10h39.3l3.9 10 .5.3h27.7l.7-.8zm-33.2 40.6 14-19.7h1.1l6.9 19.7z"/><path d="m893.3 16.1h-95.1l6.3 16.1h27.9l-9 51.4h26.8l9-51.4h31.3z"/><path d="m967 16.1-4.5 25.7h-36.6l4.5-25.7h-26.9l-11.8 67.5h26.9l4.4-25.7h36.6l-4.4 25.7h26.8l11.8-67.5z"/><path d="m997.8 80.3c-.4-.6-.5-1.6-.6-2.3-.3-1.4-.9-1.7-1.8-1.7h-.5v4h-1.9v-9h3.1c2.1 0 3.5.5 3.6 2.4 0 1.3-1 1.8-1.8 2 .4.3.6.3.7.5.5.5.6 1.3.7 2 0 .3.1 1.3.5 2.1m-3.6-5.5c.8 0 1.6-.2 1.6-1 0-.9-.8-1.2-1.6-1.2h-1.3v2.2"/><path d="m996.2 68c-4.3 0-7.9 3.4-7.9 7.8 0 4.3 3.6 7.8 7.9 7.8 4.4 0 7.8-3.5 7.8-7.8 0-4.4-3.4-7.8-7.8-7.8zm0 1.3c3.6 0 6.5 2.9 6.5 6.5s-2.9 6.5-6.5 6.5-6.5-2.9-6.5-6.5 2.9-6.5 6.5-6.5z"/></g><g fill="#e30b17"><path d="m252.7 2-250.7 95.5 161.9-30.3 39.3 30.5zm26.3.3-20.2 7.4-41 79.3 11.7 9z"/></g></svg>