<svg viewBox="0 0 473 100" xmlns="http://www.w3.org/2000/svg"><g fill="#fff"><path d="m165.2 37-2.8 25.4c4.5 2.4 12.4 4.6 24.8 4.5 13.7-.1 20.1-2.4 23.9-3.8l1.8-16.5h-24.2l-.7 5.4h8l-1 7.6h-14.3l2.3-20.3h30.9l.4-3.9c-3.6-1.3-9.5-3.5-22.5-3.4-8.9.6-18.7 1.3-26.6 5z"/><path d="m215.1 62.3s6.3 4.2 21.8 4.2c15.3 0 22.9-4.5 22.9-4.5l1.9-17s-6.5-4.3-21.9-4.3c-15.3-.2-22.8 4.6-22.8 4.6m29.1 1-1.6 14.7h-13.9l1.7-14.7z"/><path d="m265.8 43.6-.3 2.9h28.7l-.6 4.2h-11.2c-7.9 0-15.6 1.1-18.3 2.5l-1.2 10.8s6.6 2.5 22 2.5c15.5 0 22.7-3.4 22.7-3.4l2-18.2s-5.9-4.2-21.3-4.2c-15.6 0-22.5 2.9-22.5 2.9zm27.3 12.2-.6 5.2h-13.9l.6-5.2z"/><path d="m322.2 32.7c-5.2 0-7.9 1.8-7.9 1.8l-3.4 30.3s2.4 1.7 7.5 1.7c5.4 0 7.9-1.8 7.9-1.8l3.4-30.4s-2.1-1.6-7.5-1.6z"/><path d="m329.6 64.9s2.5 1.6 7.4 1.6c5.5 0 8.1-1.7 8.1-1.7l2-18.1h17.8l.3-2.9s-5.3-2.7-16-2.7c-10.8 0-17.2 2.9-17.2 2.9z"/><path d="m376.3 33.1c-2.7.1-5.2.5-7.6 1.7l-.8 5.7s2.6-1.7 7.9-1.7c4.9 0 7.4 1.6 7.4 1.6l.6-5.7s-1.6-1.6-7.5-1.6zm-.8 8.9c-4.7 0-7.9 1.8-7.9 1.8l-2.4 21s2.1 1.7 7.5 1.7c5.3 0 7.7-1.8 7.7-1.8l2.4-21.1s-2.4-1.6-7.3-1.6z"/><path d="m396.3 32.7c-5.2 0-7.9 1.8-7.9 1.8l-3.4 30.3s2.4 1.7 7.5 1.7c5.4 0 7.9-1.8 7.9-1.8l3.4-30.4s-2.1-1.6-7.5-1.6z"/><path d="m415.9 32.7c-5.2 0-7.9 1.8-7.9 1.8l-3.4 30.3s2.4 1.7 7.5 1.7c5.4 0 7.9-1.8 7.9-1.8l3.4-30.4s-2.1-1.6-7.5-1.6z"/><path d="m427.2 43.6-.3 2.9h28.7l-.6 4.2h-11.2c-7.9 0-15.6 1.1-18.3 2.5l-1.2 10.8s6.6 2.6 22 2.5c15.5-.1 22.7-3.4 22.7-3.4l2-18.2s-5.7-4.3-21.3-4.2-22.5 2.9-22.5 2.9zm27.3 12.2-.6 5.2h-13.9l.6-5.2z"/><path d="m464.1 68.2c-3.3 0-4.3.5-4.3.5l-.3 3s.3.3.9.3 1-.3 1-.3l.3-2.8h1.4l-.3 2.8s.3.3.9.3c.5 0 .9-.3.9-.3l.3-2.8h1.4l-.3 2.8s.4.3.9.3c.6 0 1-.3 1-.3l.3-3s-.7-.5-4.1-.5zm-10.2.4-.1.3h1.8l-.3 2.8s.2.3.9.3c.6 0 .9-.3.9-.3l.3-2.8h1.8l.1-.3c-.4-.1-1.2-.4-2.6-.4s-2.3.3-2.8.4z"/></g><g fill="#fc6714"><path d="m59.1 22.3c4.4-2.4 33.4-13.3 85.8-1.1.4-3.2.7-6.4 1.1-9.6-9.8-3.6-25.9-9.6-64.3-9.6-34.4-.1-57.7 7-71.8 13.7-2.6 23.5-5.3 46.9-7.9 70.4 9.9 5.1 25.5 10.1 48.3 11.9 3-26 6.2-52.7 8.8-75.7z"/><path d="m75.3 41.9c-1 8.2-1.9 16.4-2.7 22.9 8.3-.9 14.8-2.2 22.6-1.9l-4.1 32.3c24.9-1.8 38.3-6.5 46.9-9.4 1.6-14.8 3.7-29.5 5.2-44.3-32.8-6.5-67.9.4-67.9.4z"/></g></svg>