<svg viewBox="0 0 802 100" xmlns="http://www.w3.org/2000/svg"><g fill="#fff"><path d="m38.7 26.4c9.2 0 17.2 2.2 24.2 6.7l-3.7 9.5c-5.1-3.1-13.3-6.9-24.1-5.7-18.5 2-23.4 17.4-20.6 29.2 1.9 8 8.2 14.3 18.4 16.2 7.5 1.4 15.3.6 22.3-2.4v-14h-19.5v-9.9h30.9v29.3c-8.6 6.4-19 8-27.4 8-21.7 0-37.2-11.7-37.2-33.3 0-24.7 20.1-33.6 36.7-33.6z"/><path d="m73.7 27.6h14.6l19.5 24.4 19.6-24.4h14.1l-27.5 34.2c-.3.4-.6.8-.6 1.3v29.1h-11.6v-29.1c0-.5-.3-.9-.6-1.3z"/><path d="m169.4 27.6 22.4 49.2 22.3-49.2h16.3v64.6h-11.4v-51.2l-23.3 51.2h-8.4l-23.2-51.2v51.2h-11.1v-64.6z"/><path d="m284.8 27.6h-37.1v64.5h11.6v-23.6h26.1c6.3 0 22.3-1.9 22.3-20.6 0-8.3-3.9-20.3-22.9-20.3zm-1.6 9.9c5.5 0 12.5 1.4 12.6 10.4.1 10.5-9.5 10.7-13.5 10.7h-23v-21.1z"/><path d="m320.9 27.6v64.6h11.6v-25.3h20.5c.2 0 .6.2.7.4l17.4 24.9h13.7l-18.3-25.9c6.7-1.5 15.1-5.8 15.1-19.2 0-8.3-3.9-19.5-22.9-19.5zm11.6 9.9h24.6c5.5 0 12.5.6 12.6 9.6.1 10.5-9.5 9.9-13.5 9.9h-23.7z"/><path d="m478.5 27.6h11.5v54.6h44v9.9h-55.5z"/><path d="m556.7 27.6v39.6c0 13.4 12.4 15.8 18.7 15.8 5.7 0 19.5-1.1 19.5-15.8v-39.6h11v40.4c0 22-19.6 25.3-30.5 25.3-11.3 0-30.2-3.4-30.2-25.3v-40.4z"/><path d="m632.3 27.6 18.5 23.3 18.6-23.3h14l-24.9 31.4 26.3 33.1h-14.6l-19.9-24.9-20 24.9h-14l26.6-33.1-25.2-31.4z"/><path d="m696.5 27.6h57.4v9.9h-45.9v17.1h39.7v10h-39.7v17.6h45.9v9.9h-57.4z"/><path d="m753.9 2h18.7v3.1h-7.6v16.7h-3.5v-16.7h-7.6z"/><path d="m776.4 2h5l6.7 14.9 6.9-14.9h5v19.8h-3.6v-15.5l-6.9 15.4h-2.7l-6.9-15.4v15.4h-3.5z"/></g><g fill="#069445"><path d="m429.2 21.8c-21 0-38.1 17.1-38.1 38.1s17.1 38.1 38.1 38.1 38.1-17.1 38.1-38.1-17.1-38.1-38.1-38.1zm0 9c16.1 0 29.1 13 29.1 29.1 0 7.6-3 14.8-8.3 20.2-1.1-1.6-2.4-3.4-3.5-5.1-1.6-2.5-3.9-4.5-6.6-5.6-5.1-2.2-11.3-1.2-15.4 2.4-1.2 1.2-2.5 2.3-3.7 3.5.4-1.4.6-2.9.7-4.4 0-2.4-.5-4.8-1.1-7.2-.7-3 .1-5.8 1.3-8.5.2-.3.3-.6.7-.7.8-.3 1.5.4 2.3.4s1.2-.7 1.8-1.2c1.7.1 3.8.6 5.4.1 1.6-.6 2.3-2.1 3-3.5.5-1 .7-2.5 0-3.4-1.3-1.8-2.8-3.6-4.3-5.3-.6-.7-1.4-1.2-2.4-.8-3.2 1-6.7 1.8-9 4.3-1.4 1.4-1.8 3.1-2.8 4.8-.7 1.2-1.5 2.4-2.4 3.6-2.4 3.2-4.7 6.4-7.2 9.5-1.9 2.4-3.4 4.9-4.5 7.8-1.4-3.4-2.2-7.2-2.2-10.9 0-16.1 13-29.1 29.1-29.1z"/></g></svg>