<svg viewBox="0 0 552 100" xmlns="http://www.w3.org/2000/svg"><g><path d="m54.6 2.5v51.4h11.5v-44h58.7v-7.4z"/><path d="m137.9 2.5v51.4h11.7v-51.4z"/><path d="m166.3 2.5v51.4h11.6v-42.7l64.4 42.7h15.7v-51.4h-11.6v42.8l-64.4-42.8z"/><path d="m275 2.5v51.4h11.6v-42.7l64.4 42.7h15.7v-51.4h-11.6v42.8l-64.4-42.8z"/><path d="m381.9 2.5v51.4h67.3v-7.3h-55.7v-44.1z"/><path d="m523.5 2h-41.3c-9.8 0-16.6 1.6-20.6 4.8s-5.9 8.2-5.9 14.7v13.5c.1 6.4 1.9 11.5 5.9 14.7s10.7 4.8 20.6 4.8h41.3c9.8 0 16.6-1.6 20.6-4.8s5.9-8.2 5.9-14.7v-13.5c0-6.6-1.9-11.5-5.9-14.7s-10.7-4.8-20.6-4.8zm-56.2 17c.1-3.9 1.6-6.4 4.4-7.7s6.4-2 10.6-2h41.1c4.2 0 7.8.7 10.6 2s4.3 3.8 4.4 7.6v18.6c-.1 3.9-1.6 6.4-4.4 7.7s-6.4 2-10.6 2h-41.1c-4.2 0-7.8-.7-10.6-2s-4.3-3.8-4.4-7.6z"/><path d="m366.6 91.6-.5 1.9c-.6 2.1-1.8 2.6-3 2.6-.4 0-.9-.1-1.3-.1v1.9c.4 0 .8.1 1.3.1 3.1 0 4.1-1 5.5-4.9l5.4-21.4h-2l-4.4 17.1-4.3-17.1h-2.6zm-13.8-18.5c2.4 0 4.2 1.1 4.2 8.4 0 7.4-1.8 8.5-4.2 8.5s-4.1-1.1-4.1-8.5c0-7.3 1.7-8.4 4.1-8.4zm-6.5 18.3h2.2v-2.3c.2 1.1 2.1 2.7 4.6 2.7 4.2 0 6.4-3.4 6.4-10.3 0-6.8-2.1-10.3-6.3-10.3-2.6 0-4.3 1.4-4.7 3.5l.2-9.8h-2.4z"/><path d="m405 64.9v10.4h-9.1v5.2h9.1v10.9h5.3v-26.5z"/><path d="m428.5 64.9 9.9 26.5h-6.1l-2-5h-10.1l-1.5 5h-6l9.8-26.5zm-6.4 16.6h6.8l-3.4-9.9z"/><path d="m446.2 64.9 7.4 16.8 7.7-16.8h5.5v26.5h-5.6v-13.7l-6.2 13.7h-2.8l-6.1-13.9v13.9h-5.7v-26.5z"/><path d="m477.6 64.9 7.4 16.8 7.7-16.8h5.5v26.5h-5.6v-13.7l-6.2 13.7h-2.8l-6.1-13.9v13.9h-5.7v-26.5z"/><path d="m520.7 64.9v5.2h-12.3v5.3h11.1v5h-11.1v5.8h12.3v5.2h-18.1v-26.5z"/><path d="m535.3 64.9c5.8 0 9.6 2.8 9.6 8.3 0 4-2.1 6.5-5.3 7.7l6.4 10.5h-6.4l-5.3-9.8h-4.7v9.8h-5.2v-26.5zm-5.7 11.9h5.8c2.6 0 4-1 4-3.4s-1.4-3.5-4-3.5h-5.8z"/></g><g fill="#e10514"><path d="m239.4 16.4c-.7 0-6.5 1.3-16 3.4-8.3 1.9-17.8 4-22.5 4.9-17.8 3.3-29.5 5.5-50.1 5.5-16.3 0-28.4-2.1-40.1-4.1s-23.8-4.1-40.2-4.1c-22.8 0-36.5 1.8-50.7 6.6l-17.8 6.3c10.9-3.7 21.6-5.5 34.8-6.2 4.5-.1 9.8-.1 15.8-.1 16.3 0 28.4 2.1 40.1 4.1s23.8 4.1 40.2 4.1c21.1 0 33-1.5 50.1-4.6 13-2.4 27.7-5.3 38.2-8.9l17.9-6.1c.5-.2.8-.3.8-.6 0-.2-.4-.2-.5-.2z"/><path d="m380.3 64.9v26.5h15.4v-26.5z"/></g></svg>