<svg viewBox="0 0 381 100" xmlns="http://www.w3.org/2000/svg"><g fill="#fff"><path d="m36.9 25.5h20.1v-23.5h12.8v60h-12.8v-24.8h-20.1"/><path d="m132.8 62h-13.5l-3.9-11.4h-23.1l-3.9 11.4h-13.3l22-60h13.4zm-36.7-22.5h15.5l-7.8-22.2z"/><path d="m168.4 40 17.2-38h12.4v60h-12.6v-31l-14.7 31h-5.3l-14.7-31.4v31.4h-12.7v-60h13.1z"/><path d="m238.8 40 17.2-38h12.4v60h-12.6v-31l-14.7 31h-5.4l-14.6-31.4v31.4h-12.7v-60h13.1z"/><path d="m318.9 13.7h-27.4v12h25.5v11.3h-25.5v13.3h27.4v11.7h-40.1v-60h40.1z"/><path d="m352.5 2c12.9 0 21.6 6.3 21.6 18.9 0 9-4.5 14.7-11.6 17.3l14.5 23.8h-14.3l-12.9-22.2h-9.8v22.2h-12.7v-60zm.2 27.1c5.5 0 9.3-2.4 9.3-7.9s-3.8-7.7-9.3-7.7h-12.8v15.6z"/><path d="m208.4 82.4h7.5l5.6 10.2 5.6-10.2h7.4v15.4h-4.6l.2-11.9-6.8 11.9h-3.8l-6.7-11.9.1 11.9h-4.5z"/><path d="m252.2 82.4 8.5 15.4h-5.2l-1.5-2.7h-10l-1.5 2.7h-5.3l8.7-15.4zm.2 9.5-3.4-6.2-3.3 6.2z"/><path d="m270.3 90.1-7.3-7.7h6.2l5 5.5 5-5.5h6.1l-7.3 7.7 7.8 7.7h-6.4l-5.2-5.5-5.3 5.5h-6.3z"/><path d="m288.4 82.4h4.7v15.4h-4.7z"/><path d="m297.1 82.4h7.5l5.6 10.2 5.6-10.2h7.4v15.4h-4.6l.2-11.9-6.8 11.9h-3.8l-6.7-11.9.1 11.9h-4.5z"/><path d="m331.9 82.4v7.6c0 3.7 0 4.3 5.2 4.3 5 0 5.2-.1 5.2-4.3v-7.6h4.7v8.3c0 6.8-1.8 7.3-9.9 7.3-8.4 0-9.9-.5-9.9-7.3v-8.3z"/><path d="m350.9 82.4h7.5l5.6 10.2 5.6-10.2h7.4v15.4h-4.6l.2-11.9-6.8 11.9h-3.8l-6.7-11.9.1 11.9h-4.5z"/></g><g fill="#e10514"><path d="m2 2v60h34.9v-60z"/></g></svg>