<svg viewBox="0 0 164 100" xmlns="http://www.w3.org/2000/svg"><g fill="#fff"><path d="m82 2c-16.1 0-29.2 13.1-29.2 29.2s13.1 29.2 29.2 29.2 29.2-13.1 29.2-29.2-13.1-29.2-29.2-29.2zm10.4 53.3c-2.1.7-4.3 1-6.6 1-4.2 0-8.2-1.2-11.5-3.4 5.7-1 12.1-3.9 17.9-8.8 6.5-5.4 10.9-12 12.5-18 1.4 2.8 2.1 5.9 2.1 9.2 0 3.4-.8 6.7-2.3 9.6-2.9 4.6-7 8.3-12.1 10.4zm-31-8.5c-3.6-4.2-2.1-11.5 3-18.8-.8 2.3-1.2 4.7-1.2 7.3 0 5.7 2 10.8 5.5 14.7-3.1-.1-5.7-1.1-7.3-3.2zm39.9-33.4c1.7 2.1 2.2 4.9 1.7 8.1-4.1-5.2-10.4-8.5-17.5-8.5-1.3 0-2.5.1-3.7.3 8.2-3.9 15.9-4.2 19.5.1zm-15.5.9c6.9 0 13.1 3.4 16.9 8.6-1.4 5.7-5.7 12.4-12.4 18-6.5 5.5-13.8 8.6-19.6 9.1-3.7-3.8-5.9-9-5.9-14.7 0-5.2 1.9-9.8 5-13.5 1.9-1.8 3.8-3.4 5.7-4.8 3.1-1.7 6.5-2.7 10.3-2.7zm19.3 3.8c2.2 3.8 3.4 8.3 3.4 13 0 2.2-.4 4.3-.9 6.4.1-.7.2-1.4.2-2.2 0-3.9-2.8-10.7-2.8-10.7s.5-4.5.1-6.5zm-22.9-13.3c6.3 0 12 2.2 16.5 5.8-5.9-2.4-14.9-.7-23.2 4.7-2.9 1.4-5.4 3.5-7.4 6-6.3 6.3-10 13.7-10.2 19.8-1.3-3.1-2-6.5-2-10 0-14.5 11.8-26.3 26.3-26.3zm-14.4 48.2s2.9.3 4.4.2c2.9 2.2 6.3 3.6 10 4.1-5.2.1-10-1.6-14.4-4.3z"/><path d="m8.7 82.8h-6.5v-19.3h6.5z"/><path d="m36.6 80.3c0 1.8-.9 2.7-2.6 2.7-1.2 0-2.5-.4-3.6-1.3l-12.2-9.5v10.6h-6.4v-16.9c0-1.2.7-2.4 2.8-2.4 1.2 0 2.3.3 3.3 1.1l12.2 9.5v-10.6h6.5z"/><path d="m61.7 68.4h-14.7c-1.6 0-1.7 1.6 0 1.6h10.6c5 0 9 2.5 9 6.5 0 3.8-3.9 6.3-9 6.3h-19l4.1-5h14.9c3.6 0 4-2.8 0-2.8h-10.6c-4.6 0-8.4-2.1-8.4-5.7 0-3.7 3.8-5.8 8.4-5.8h18.9z"/><path d="m74 72.9h11.6c4.2 0 4.3-4.4 0-4.4h-11.6zm-6.4-9.4h17.4c5.6 0 10.2 2.7 10.2 7.2s-4.6 7.3-10.3 7.3h-10.9v4.8h-6.4z"/><path d="m103.5 82.8h-6.4v-19.3h6.4z"/><path d="m123.9 72.9c5.4 0 5.8-4.4 0-4.4h-11.6v4.4zm-18-9.4h17.4c6.5 0 11.3 2.4 11.3 7.3 0 4-3.9 5.7-5.2 6.2l7.6 5.8h-9.4l-6.4-4.8h-8.9v4.8h-6.4z"/><path d="m161.8 82.8h-22.7v-19.3h22.7v5h-16.2v2h11.5v5h-11.5v2.3h16.2z"/><path d="m56.1 95.9-.2.6c-.2.7-.6.9-1 .9-.2 0-.3-.1-.5-.1v.6c.1 0 .3.1.5.1 1 0 1.4-.4 1.7-1.6l1.9-6.9h-.8l-1.3 5.5-1.4-5.5h-.8zm-4.5-5.9c.7 0 1.4.3 1.4 2.7s-.7 2.7-1.4 2.7-1.4-.3-1.4-2.7.7-2.7 1.4-2.7zm-1.5 5.9v-1.1c.2.7.8 1.2 1.6 1.2 1.4 0 2.1-1.1 2.1-3.3s-.7-3.3-2.1-3.3c-.8 0-1.3.4-1.5 1.1v-3.2h-.7v8.6z"/><path d="m68.8 87.3v3.4h-2.9v1.6h2.9v3.6h1.8v-8.6z"/><path d="m76.4 87.3 3.2 8.6h-1.9l-.6-1.6h-3.3l-.5 1.6h-1.9l3.1-8.6zm-2 5.4h2.2l-1.1-3.2z"/><path d="m82.2 87.3 2.5 5.4 2.5-5.4h1.7v8.6h-1.8v-4.4l-2.1 4.4h-.7l-2.1-4.5v4.5h-1.8v-8.6z"/><path d="m92.3 87.3 2.4 5.4 2.5-5.4h1.8v8.6h-1.8v-4.4l-2.1 4.4h-.8l-2.1-4.5v4.5h-1.8v-8.6z"/><path d="m106.2 89h-3.9v1.7h3.6v1.6h-3.6v1.9h3.9v1.7h-5.7v-8.6h5.7z"/><path d="m111 87.3c1.8 0 3 .9 3 2.7 0 1.3-.6 2.1-1.6 2.5l2.1 3.4h-2.1l-1.8-3.2h-1.4v3.2h-1.8v-8.6zm-1.8 3.9h1.8c.8 0 1.3-.4 1.3-1.2s-.5-1.1-1.3-1.1h-1.8z"/></g><g fill="#e10514"><path id="p1" d="m61 87.3v8.6h4.9v-8.6z"/></g></svg>