<svg viewBox="0 0 418 100" xmlns="http://www.w3.org/2000/svg"><g><path d="m40.2 2c-21.1 0-38.2 17.1-38.2 38.2s17.1 38.2 38.2 38.2 38.2-17.1 38.2-38.2-17.1-38.2-38.2-38.2zm13.6 69.7c-2.7.9-5.6 1.4-8.6 1.4-5.5 0-10.8-1.7-15.1-4.5 7.5-1.2 15.9-5.1 23.5-11.5 8.5-7.1 14.1-15.8 16.2-23.6 1.8 3.6 2.8 7.8 2.8 12.1 0 4.5-1.1 8.8-3 12.5-3.7 6.1-9.2 10.8-15.8 13.6zm-40.7-11c-4.6-5.5-2.6-15.2 4.1-24.7-1 3-1.6 6.1-1.6 9.5 0 7.4 2.7 14.2 7.2 19.3-4.1-.1-7.5-1.5-9.7-4.1zm52.3-43.7c2.3 2.7 3 6.4 2.3 10.6-5.3-6.8-13.7-11.2-23-11.2-1.6 0-3.2.2-4.8.4 10.7-5.1 20.8-5.4 25.5.2zm-20.2 1.1c9.1 0 17.1 4.4 22.1 11.2-1.8 7.5-7.6 16.3-16.3 23.6-8.5 7.1-17.9 11.3-25.5 11.9-4.8-4.9-7.8-11.7-7.8-19.2 0-6.8 2.4-12.9 6.5-17.7 1.1-1 3.9-3.7 7.5-6.2 4-2.3 8.6-3.6 13.5-3.6zm25.1 5s4.5 10.8 4.5 16.9c0 2.9-.4 5.8-1.1 8.5.1-1 .2-1.9.2-2.9 0-5.1-3.6-14-3.6-14zm-29.9-17.5c8.2 0 15.7 2.9 21.6 7.7-7.7-3.2-19.4-1-30.3 6.1-3.8 1.9-7.1 4.6-9.7 7.9-8.3 8.2-13.1 17.8-13.4 25.8-1.7-4-2.6-8.5-2.6-13.1 0-19 15.4-34.4 34.4-34.4zm-18.8 63.2c1.8.3 3.7.3 5.7.2 3.8 2.8 8.3 4.7 13.2 5.4-11.5 0-18.7-5.6-18.9-5.6z"/><path d="m96.6 60.2h-13.5v-40.4h13.5z"/><path d="m154.9 55c0 3.7-1.7 5.5-5.3 5.5-2.6 0-5.1-.9-7.4-2.7l-25.5-19.8v22.2h-13.4v-35.2c0-2.2 1.3-5.1 5.9-5.1 2.4 0 4.7.8 6.8 2.4l25.4 19.8v-22.3h13.5z"/><path d="m207.4 30.3h-30.7c-3.6 0-3.3 3.3 0 3.3h22.1c10.5 0 18.7 5.1 18.7 13.4 0 7.9-7.8 13.2-18.6 13.2h-39.8l8.7-10.4h32.5c5.9 0 6.5-5.9 0-5.9h-23.6c-9.8 0-17.6-4.5-17.6-12 0-7.6 7.9-12 17.6-12h39.4z"/><path d="m233.1 39.6h24c8.6 0 9-9.3 0-9.3h-24zm-13.5-19.8h36.3c11.7 0 21.3 5.7 21.3 15.1 0 9.2-9.3 15.1-21.4 15.1h-22.7v10.2h-13.5z"/><path d="m294.5 60.2h-13.4v-40.4h13.4z"/><path d="m312.9 39.6h24c1.9 0 8.5-.3 8.5-4.6 0-3.1-2.8-4.7-8.5-4.7h-24zm-13.5-19.8h36.2c5 0 23.7 1 23.7 15.3 0 5.7-4.1 10.5-10.8 12.9l15.7 12.2h-19.6l-13.1-10.2h-18.6v10.2h-13.5z"/><path d="m415.9 49.8v10.4h-47.2v-40.4h47.2v10.5h-33.7v4.3h24.1l.1 10.4h-24.1v4.8z"/><path d="m294.8 87.7-.4 1.3c-.4 1.4-1.1 1.7-2 1.7-.3 0-.7-.1-1-.1v1.3c.3 0 .6.2 1 .2 2 0 2.8-.7 3.5-3.3l4-14.6h-1.6l-2.7 11.6-3-11.6h-1.6zm-9.3-12.5c1.5 0 2.9.8 2.9 5.7s-1.4 5.7-2.9 5.7-2.9-.8-2.9-5.7 1.4-5.7 2.9-5.7zm-4.4 12.4h1.4v-2.2c.4 1.5 1.6 2.4 3.2 2.4 2.9 0 4.3-2.3 4.3-6.9s-1.4-7-4.3-7c-1.7 0-2.8.9-3.1 2.3v-6.6h-1.5z"/><path d="m320.6 69.7v7h-6v3.5h6v7.3h3.8v-17.8z"/><path d="m336.5 69.7 6.6 17.8h-4l-1.2-3.4h-6.8l-1.2 3.4h-4l6.6-17.8zm-4.3 11.1h4.6l-2.3-6.6z"/><path d="m348.6 69.7 5.1 11.3 5.2-11.3h3.7v17.8h-3.8v-9.2l-4.3 9.2h-1.6l-4.4-9.3v9.3h-3.8v-17.8z"/><path d="m369.6 69.7 5.1 11.3 5.2-11.3h3.7v17.8h-3.8v-9.2l-4.3 9.2h-1.7l-4.3-9.3v9.3h-3.8v-17.8z"/><path d="m398.7 69.7v3.5h-8.2v3.6h7.6v3.3h-7.6v4h8.2v3.4h-12v-17.8z"/><path d="m408.7 69.7c3.9 0 6.4 1.9 6.4 5.6 0 2.7-1.3 4.4-3.4 5.2l4.3 7h-4.3l-3.8-6.6h-3v6.6h-3.7v-17.8zm-3.8 8h3.9c1.6 0 2.7-.7 2.7-2.3s-1.1-2.3-2.7-2.3h-3.9z"/></g><g fill="#e10514"><path d="m304.1 69.7v17.8h10.4v-17.8z"/></g></svg>