<svg viewBox="0 0 438 100" xmlns="http://www.w3.org/2000/svg"><g fill="#55585c"><path d="m13.3 5.6c-3.7 1-11.3 3.6-11.3 7.5 0 18.2.1 36.6.1 54.8 0 1.6-.3 2.9.4 4.4 1.9 4.1 9.1 10 17.3 14.9 8.5 5.1 19.8 10.8 23.5 10.8 3.5 0 15-5.7 23.5-10.8 8.2-4.9 15.4-10.8 17.3-14.9.5-1.4.5-2.8.5-4.4v-54.8c0-3.9-7.6-6.5-11.3-7.5-8.7-2.1-17.7-3.6-30-3.6-10.4 0-21.2 1.5-30 3.6z"/><path d="m155.8 26.8-14.9 49.9h11.4l14.7-49.9zm-31.6 0-14.9 50h11.4l6-20.5h15.2l7.2-8.8h-19.7l6.1-20.7z"/><path d="m173 40.6c5.9-.1 11.5-.2 16.7-.2 4.3 0 9 1.3 9 5.9 0 1-.1 2.1-.4 3.1l-7.8 27.7h-10l4.8-15.8c-2.6-.2-5.3-.2-7.9-.2-1.9 0-4.1.1-5.7 1.1-1.4.9-2.1 2.5-2 4.1.1 1.9 1.9 2.4 3.6 2.5 3.1.3 6.1.2 9.2.4l-8.3 7.8c-2.6-.1-5.5.3-8.1-.2-4.2-.8-7.5-4.2-7.5-8.4 0-4.3 2-9.5 5.5-11.7 3-1.8 6.8-2.5 10.2-2.5 4.2 0 8.4 0 12.6.2.3-1.3.7-2.5 1-3.8.1-.4.3-1 0-1.4-.3-.5-1.5-.6-2.3-.6-6.6-.1-13.6.2-19.6.3l5.9-7.5c.4-.5.7-.8 1.1-.8z"/><path d="m206.1 40.1-10.8 36.7h10.6l10.7-36.7zm16.5.1-9.3 11.5h7.6c1.3 0 2.6-.1 3.7-.8.9-.6 1.6-1.5 2.2-2.4 1.9-2.9 4.3-5.6 6.5-8.3z"/><path d="m238.7 26.8-14.9 49.9h11.4c.6-2.1 1.2-4.2 1.8-6.3l4.2 6.6c2.5 0 4.8 0 7.3-.1 6.8-.2 11.6-3.2 14.6-8 2.5-4.2 3.8-9.1 3.8-13.8 0-5.9-3.5-11.5-8.5-13.8-3.2-1.4-8.4-1.2-12.4-1.3l3.9-13.2zm10.6 22.5c4.4.1 6.2 4.3 6.2 7.6-.3 4.6-1.1 9.2-6.3 10.2-3.7.7-7.6.9-11.4.9l5.5-18.7z"/><path d="m279.3 26.1-2.9 9.6h10.6l2.7-9.6zm-3.8 14-10.9 36.6h10.6l10.7-36.6z"/><path d="m301.4 40.1-2 6.9 7.9-6.6h10c4.5 0 6.8 3.4 6.8 7.4 0 3-1 6-1.8 8.9l-5.2 20.5h-11.1l6.4-21.2c2.3-6.8 1.3-6.8-6.1-6.7-2.6 0-5.1.1-7.6.3l-8 27.2h-10.6l10.9-36.7z"/><path d="m341.1 41.3c-4.8 1.3-8.8 4.5-11.8 8.4-2.5 3.3-4.5 7.3-5.1 11.5-.5 3.6.4 7.2 2.1 10.4 1.9 3.5 4.7 5.1 8.6 5.3 2.5.2 5.1.1 7.6.1l6.2-7.4c-.7 2.6-1.5 5.1-2.2 7.6-1.1 3.8-2.1 5.1-5.7 5.8-5.9 1-13 .2-19.2-.2l2.7 8.5c4.7.6 9.6.7 14.2.7 3.5 0 7.4-.1 10.5-1.9 4.8-3 6.6-7.6 8-12.4l11-37.6c-9.2.2-19.8-.5-26.9 1.2zm13.8 7.5-6 20.3c-2.7 0-5.4 0-8.1 0-3.4-.1-4.6-2.5-5.2-5.1-.5-2.3-.1-4.8.8-6.9 2.9-6.2 5.2-8.3 11.3-8.4 2.5 0 5 .1 7.2.1z"/><path d="m386.5 40.6c-3.4 0-6.8.8-9.8 2.5-2.5 1.4-4.4 3.5-6 5.8-3.1 4.3-5.9 10.9-5.9 16.5 0 7.4 4.7 11.9 11.6 11.9h14.3l5-8.5c-4.8 0-9.5-.1-14.3-.1-4.6-.2-7.2-1.3-6.7-6.6h24.4c.8-3 1.3-6.1 1.3-9.2 0-7.2-2.8-10-8.5-11.6-1.1-.3-3.1-.7-5.4-.7zm-.5 7.4c3.1 0 4.8 1.3 5.3 3.5.3 1.1.1 2.1 0 3.2h-13.9c.6-1.6 1.4-3.1 2.7-4.3 1.6-1.6 4-2.4 5.9-2.4z"/><path d="m408.7 40.1-10.8 36.7h10.6l10.7-36.7zm16.5.1-9.3 11.5h7.6c1.3 0 2.6-.1 3.7-.8.9-.6 1.6-1.5 2.2-2.4 1.9-2.9 4.3-5.6 6.5-8.3z"/><path d="m416.7 78.7c-.2-.3-.2-.7-.2-1-.1-.6-.4-.7-.8-.7h-.3v1.7h-.8v-4h1.4c1 0 1.6.3 1.6 1.1 0 .6-.5.8-.8.9.2.1.2.1.3.2.2.2.2.6.3.9 0 .1 0 .6.2.9m-1.6-2.4c.4 0 .7-.1.7-.5s-.3-.5-.7-.5h-.6v1"/><path d="m416 73.2c-1.9 0-3.5 1.6-3.5 3.5s1.6 3.5 3.5 3.5 3.5-1.6 3.5-3.5-1.6-3.5-3.5-3.5zm0 .6c1.6 0 2.9 1.3 2.9 2.9s-1.3 2.9-2.9 2.9-2.9-1.3-2.9-2.9 1.3-2.9 2.9-2.9z"/></g><g fill="#fff"><path d="m43 12.3c.2 1.3.2 2.7.3 4h1c.1.4.1.8.2 1.2.2-.3.3-.7.5-1 .2 0 .4.1.6.1.3.5.7.9 1.1 1.4.6-.5 1-1 1.3-1.7.2.4.4.9.6 1.3.9-.6 1.2-1.4 1.6-2.3l1.2-.3c.2-.3.4-.6.6-.8.3.2.5-.3.8-.1v1.7c.4.3 1.3.2 1.1.9-.5.8-1 1.4-1 2.5.7 0 1.4-.1 2.1-.1.1.6.3 1.3.1 1.9-.2.7-.2 1.4-.2 2.1-.3.3-.7.5-1.1.8 0 .9 0 1.9-.1 2.8-.6.4-1.3.8-2 1.1-.2 1-.3 1.6.1 2.5-.1.9-.1 1.8-.1 2.7.3 0 .7.1 1 .1.2.2.4.5.6.7-.2.6-.4 1.2-.6 1.8-.3.6-.8 1-1.1 1.6-.2.6-.2 1.1.1 1.6.5.8 1 1.6 1.4 2.4.6.1 1.2.2 1.9.3.1-.2.3-.4.4-.6.6 0 1.1 0 1.7-.3h.6c.1.4.2.8.2 1.2.4-.2.9-.4 1.3-.6.1 0 .3-.1.4-.1l.9.9c.3-.2.5-.5.8-.7 0-.3.1-.6.1-.9 1.1-.1 1.4-.2 2.2-.9.1-.3.3-.5.4-.8.8-.2 1.6-.5 2.4-.8.8-.2 1.6-.1 2.1.6.7-.1 1.5-.1 2.2-.1-.1.6-.3 1.1-.4 1.6.4-.1.8-.2 1.2-.2.6.1 1.3.5 1.9.7.3-.2.6-.5.9-.6.5 0 1 .1 1.4.1 0-.3.1-.7.1-1 .5-.4 1.2-1 1.9-1 .4.1.8.4 1.2.6-.1.4-.2.8-.4 1.2-.5.5-1.3 1-1.9 1.4h-.8c-.8.9-2 1.1-2.8 2.1.2.1.5.3.7.4-.1.4-.3.7-.4 1.1 1.1-.1 2.1-.3 3.1.2-.1.2-.1.5-.2.7-.6.1-1.1.3-1.7.4-.5.6-1.2 1.1-1.8 1.6 1 .7 2.1.8 3.3.9.1.2.4.3.5.5.5.1 1 0 1.5.1-.1.8-.1 1.7-.1 2.5 0 1.3-.6 2.4-.9 3.7-1-.1-1.9.1-2.8.3v.6l-1.2-.1c-.2.3-.4.6-.6.9v.4c.6.2 1.3.4 1.9.6 0 .1-.1.3-.1.4-.2.1-.4.3-.6.4v.8h1c.2.2.5.4.7.6v1.1c-.1.1-.3 0-.4.1-1.1-.4-2.2-.2-3.2-.7-.6-.3-1.3-.4-2-.5-.1-.5-.3-1.2-.4-1.7-.5-.1-1.2-.1-1.7-.4-.4-.3-.8-.8-1.1-1.3-.4-.2-.7-.5-1.1-.7-.8 0-1.6-.1-2.4.1-.2-.1-.5-.1-.7-.2 0 .4-.1.9-.1 1.3-.4-.1-.9-.2-1.3-.3-.1.6-.1 1.1-.3 1.6-.5-.3-.9-.7-1.4-1-.4 0-.9 0-1.3 0-.1-.5-.1-1.2-.2-1.7-.5 0-1.1 0-1.6.1-.7.6-1.3 1.3-1.9 2-.3 0-.7-.1-1-.1-.2.3-.5.7-.7 1-.3 0-.4 0-.7 0-.1.3-.3.5-.4.8-.2 0-.5 0-.7 0-.3.9-.4 1.8-.3 2.7.7.2 1.4.5 1.7 1.2.3.8.3 1.6.9 2.3v.4c-.3.1-.5.2-.8.3.1.5.2.9.3 1.4-.3.1-.4.1-.7.2.1.9.3 1.6-.1 2.4v.9c-.2.4-.4.7-.5 1.1.2.6 1 .9 1.5 1.2.1.6.2 1.3.5 1.8.7.7 1.8.6 2.2 1.6.3.5.1 1 0 1.6.1.5.3 1 .4 1.5-.1.3-.4.7-.6 1-.4.3-.8.6-1.2 1-.1-.6-.3-1.1-.4-1.7-.2.2-.4.2-.6.4-.1-.4-.2-.7-.3-1.1-.3.1-.6.2-.9.3-.6-.4-.9-.9-1.2-1.6-.2-.2-.3-.4-.5-.6 0-.2.1-.4.1-.6-.4-.4-.6-.8-1-1.2-.1 1-.1 2.1 0 3.1-.3.3-.6.4-.9.7v1c-.2.1-.4.4-.6.5 0 .2-.1.5-.1.7-.3.2-.5.3-.8.5-.1-1-.3-1.8-.5-2.8-.3.1-.5.2-.8.3 0 .3.1.6.1.9-.2.1-.4.2-.6.3 0 .2-.1.3-.1.5-.4-.7-.5-.8-1.3-1.1-.2.4-.3.9-.5 1.3-.6-.2-1.2-.4-1.8-.6-.2.3-.2.7-.5 1-.5 0-1.1-.1-1.6-.2-.3-1.2-.4-2.3.2-3.4-.4-.3-.8-.6-1.2-.9-.4-.1-.7-.2-1.1-.3-.5.1-1 .2-1.5.4-.3.6-.5 1.1-.9 1.6-.1.3-.2.6-.2.9-.6.7-.9 1.4-1.3 2.2-.4 0-.9-.1-1.3-.1-.1-.3-.2-.7-.3-1 .7-.3 1.1-.7 1.5-1.3.2.1.5.2.7.2.1-.6.1-1.1.2-1.7.2-.1.4-.2.6-.3-.1-.8-.2-1.6-.3-2.4-.2 0-.4-.1-.6-.1 0-.2 0-.5 0-.7-.3-.1-.7-.1-1-.1-.1-.4-.1-.9-.2-1.3.2-.3.4-.7.6-1-.4-.2-.7-.3-1.1-.4-.2-.7-.4-1.4-.4-2.2.1-.4.5-.9.8-1.2 0-.2.1-.4.1-.6.5-.4.7-.6.9-1.3s.7-1.1 1.2-1.6c-.3-.4-.6-.8-.9-1.2 0-.5.1-1 .1-1.5-.4-.1-.9-.2-1.3-.3 0-.5 0-.9.1-1.4.2-.5.6-.9.9-1.3.2-.1.3-.1.5-.2-.1-.7-.2-1.4-.3-2.1-.2-.5-.5-1-.8-1.5-.8-.2-1.6-.3-2.4-.4v.9c-1 .1-2.1.1-3.1.1-.1-.5-.2-1-.3-1.4-1-.2-2-.4-3-.2-.2-.1-.3-.2-.5-.3-.5 0-1 .1-1.5.1-.4.7-.7 1.4-1.1 2.1h-1.1c-.6.3-1.2.4-1.8.7-.5.3-1 .9-1.6.7-1.2-.1-2.2.2-3.4.1 0-.6 0-1.4 0-2-.4-.1-.7-.2-1.1-.3-.1-.2-.3-.3-.4-.5-.4-.1-.8-.2-1.2-.3-.8-.1-1.2-.3-1.5-1.1 0-.5.6-.7.9-1 0-.2 0-.4 0-.6.7-.1 1.3-.2 1.9-.4-.6-.3-1.3-.7-2-.8-.2-.5-.4-.9-.5-1.4.3-.1.7-.1 1-.2.2.2.4.3.6.5.3 0 .6-.1.9-.1.8-.9 1.7-1.6 2.5-2.4-.3-.3-.7-.7-1-1-1.1-.2-2.1-.7-3.1-1.2.1-.1.1-.3.2-.4.9-.2 1.5-.4 2.2-.9-.6-.3-1.1-.6-1.7-.9-.8-.2-1.7-.2-2.5-.6-.3-.3-.5-.7-.7-1 .5-.5.9-1.1 1.3-1.7 0-.5.1-.8.1-1.3.2.1.5.2.7.3.3-.1.8-.1 1.1-.2 0-.2 0-.5 0-.7.8 0 1.7.1 2.5.2.1-.2.2-.4.3-.6.3-.1.7-.3 1-.4v1c.2 0 .5.1.7.1.7.4 1 .4 1.8.2.7-.2 1 .3 1.5.6.4-.3.7-.5 1.1-.8.6.5 1.1 1.1 1.9 1.3.6-.6.6-1.9.9-2.7.6.4 1.2.9 1.8 1.3.6.1 1.2.2 1.8.3.5.2 1 .4 1.4.7.3.5.4 1.1.6 1.6h2.3c.1-.4.2-.8.3-1.2.6.1 1.2.2 1.8.3.2-.3.4-.7.6-1h.7c.1.4.2.8.3 1.2.4.3.6-.3.9-.5-.1-.2-.2-.4-.3-.6 0-.3-.1-.7-.2-1-.5-.4-1.2-.7-1.8-1 0-.2 0-.4 0-.6.4 0 .7.1 1.1.1.2-.4.4-.8.6-1.2h1.6c.2-1 .3-2.1.3-3.1-.3-.1-.7-.2-1-.3-.2-.3-.5-.5-.7-.8.6-1.2.2-2.2-.2-3.3-.4-.5-.6-.8-.7-1.4.9.1 1.8.2 2.7-.1.1-1.1.3-1.9-.5-2.8.3-1.1.6-2 .3-3.1l.6-.3c-.2-.2-.3-.4-.5-.6-.2-.6-.3-1.2-.5-1.8l1.5.9c-.3-.8-.6-1.5-.6-2.4 0-.7-.1-1.2-.5-1.8 0-.3-.2-.6-.2-.9.6 0 1.2 0 1.8.1.6.3 1 .9 1.3 1.5.5.5.8 1.1 1.2 1.6.1-.2.3-.5.4-.7l.6-.3c0-.2 0-.3 0-.5-.2-.4-.5-.9-.7-1.3.2-.2.4-.4.6-.6.2 0 .5-.1.7-.1.3-.5.8-1.1 1.1-1.4z"/></g></svg>