<svg viewBox="0 0 125 100" xmlns="http://www.w3.org/2000/svg"><g><path d="m13.7 76.8v11.7c0 3.3-1.7 4.1-5.4 4.2h-2.9l-3.5 5.3h6.4c7.2 0 10.9-3.2 10.9-9.5v-11.7z"/><path d="m34 76.5c-4.2 0-7.4.9-9.5 2.6s-3.1 4.4-3.1 8.1 1 6.5 3.1 8.2 5.3 2.6 9.5 2.6 7.4-.9 9.5-2.6 3.2-4.5 3.2-8.2-1.1-6.4-3.2-8.1-5.3-2.6-9.5-2.6zm5.7 6.4c1.1.7 1.6 1.9 1.6 4.3s-.5 3.7-1.6 4.4c-.7.5-1.8 1-5.7 1s-5-.5-5.7-1c-1.1-.7-1.6-2-1.6-4.4s.6-3.6 1.6-4.3c.7-.4 1.8-1 5.7-1s5 .6 5.7 1z"/><path d="m61.2 76.5c-4.2 0-7.4.9-9.5 2.6s-3.1 4.4-3.1 8.1 1 6.5 3.1 8.2 5.3 2.6 9.5 2.6 7.4-.9 9.5-2.6 3.2-4.5 3.2-8.2-1.1-6.4-3.2-8.1-5.3-2.6-9.5-2.6zm5.7 6.4c1.1.7 1.6 1.9 1.6 4.3s-.5 3.7-1.6 4.4c-.7.5-1.8 1-5.7 1s-5-.5-5.7-1c-1.1-.7-1.6-2-1.6-4.4s.6-3.6 1.6-4.3c.7-.4 1.8-1 5.7-1s5 .6 5.7 1z"/><path d="m76.3 76.8v21.2h15.3l3.5-5.4h-13.4v-15.8z"/><path d="m105.5 79.3-11 18.7h6.2l8.2-14.3s4.5 8.2 5 9h-7.3l-3.2 5.3h19.7l-10.7-18.7c-.7-1.3-1.9-2.5-3.5-2.5s-2.6 1.2-3.4 2.5z"/><path d="m116.7 76.5c-1.1 0-2 .9-2 2s.9 2 2 2 2-.9 2-2-.9-2-2-2zm0 .3c.9 0 1.7.8 1.7 1.7s-.8 1.7-1.7 1.7-1.7-.8-1.7-1.7.8-1.7 1.7-1.7z"/><path d="m115.9 77.4v2.1h.5v-.8h.1c.2 0 .4.5.6.8h.6l-.3-.6c-.1-.1-.2-.3-.4-.3.4-.1.6-.3.6-.6 0-.5-.3-.6-.6-.6zm.5.4h.4c.4 0 .3.5 0 .5h-.4z"/></g><g fill="#c7e32b"><path id="p1" d="m63.1 2c-.8 0-1.6.4-2.1 1.2l-6.8 13.3s-1.1 1.6-.3 3.2 17.1 33.4 17.1 33.4c.3.7-.1 1.4-.8 1.4h-14.4c-.7 0-1.2-.7-.9-1.4l4.8-9.1s1.2-2.4-1.8-2.4h-14.6c-1.6 0-2.8.6-3.6 2.1l-12.9 25c-.2.4-.3.7-.3 1.1 0 1.3 1 2.4 2.4 2.4h68.2c1.4 0 2.4-1.1 2.4-2.4 0-.4-.1-.8-.3-1.2l-34-65.4c-.5-.8-1.3-1.2-2.1-1.2z"/></g></svg>