<svg viewBox="0 0 444 100" xmlns="http://www.w3.org/2000/svg"><g fill="#fff"><path d="m101.72 33.44-.06-3.84h-4.92v47.28h5.4v-15.3c.18.48 1.5 3.72 7.98 3.72 11.94 0 12.42-11.4 12.42-18.24 0-12.18-4.68-17.82-12.42-17.82-5.52 0-7.92 3.72-8.46 4.2zm7.8.78c2.1 0 5.04.6 6.66 5.22.72 2.1 1.08 4.26 1.08 7.98 0 3.78-.42 6.24-1.32 8.64-1.32 3.12-3.48 4.38-6.54 4.38-1.86 0-4.86-.18-6.42-4.62-.78-2.16-1.2-4.56-1.2-8.4 0-3.78.3-5.94 1.02-8.04 1.44-4.38 4.44-5.16 6.72-5.16z"/><path d="m142.34 29.24c-7.02 0-11.52 4.2-12.36 10.2-.3 2.22-.36 4.86-.36 7.92s.12 5.76.42 8.1c.84 5.7 4.86 10.14 12.3 10.14 7.32 0 11.58-4.38 12.36-10.14.3-1.86.42-4.56.42-8.1 0-3.42-.12-6.06-.42-7.92-.78-5.64-5.1-10.2-12.36-10.2zm0 4.32c4.02 0 7.08 2.76 7.56 6.78.18 1.68.24 4.02.24 7.08 0 3-.06 5.4-.24 7.14-.54 3.84-3.3 6.72-7.56 6.72-4.14 0-7.02-2.52-7.5-6.72-.18-1.68-.3-4.14-.3-7.2s.12-5.34.3-7.02c.54-4.08 3.42-6.78 7.5-6.78z"/><path d="m159.62 30.08 9.54 35.28h5.76l5.58-26.94 7.02 26.94h5.28l9.18-35.28h-5.22l-6.48 27.3-7.32-27.3h-4.74l-7.08 27.3-6.42-27.3z"/><path d="m206 49.52c0 2.4.06 3.96.42 6.12.84 5.16 4.38 9.96 12.18 9.96 7.08 0 12.54-4.74 12.72-10.62h-4.68c-.06 3.18-3.42 6.3-8.04 6.3s-7.08-2.88-7.5-6.66c-.18-1.62 0-5.1 0-5.1h20.46c0-1.8-.06-7.56-.18-9.12-.54-6.6-5.7-11.16-12.84-11.16-7.32 0-11.76 4.14-12.3 11.16-.18 1.26-.24 7.26-.24 9.12zm20.22-4.14h-15.24c0-1.2.06-3.54.12-5.1.18-4.08 3.36-6.42 7.44-6.42 4.56 0 7.38 3.12 7.56 6.42.12 1.98.12 3.72.12 5.1z"/><path d="m243.68 30.2h-4.98v35.16h4.98v-21.66c0-6.96 4.86-8.52 10.5-8.04v-6.18c-5.76 0-10.5 4.5-10.5 4.5z"/><path d="m259.4 19.28v37.98c0 5.64 8.16 8.34 13.92 8.34 7.62 0 11.88-3.12 13.44-10.5.48-2.04.72-5.16.72-8.28 0-9.72-2.58-13.08-4.38-14.88-1.86-1.86-4.08-2.28-7.08-2.28-6.12 0-7.86 2.82-8.4 3.48v-13.86zm13.8 17.82c2.1 0 4.26 1.26 4.98 3.78.42 1.32.6 3.42.6 6.18 0 2.46-.18 5.58-.54 7.14-.6 2.76-2.76 4.14-5.04 4.14-2.16 0-4.56-.72-4.98-2.58-.36-1.32-.54-6-.54-8.7 0-2.46.18-4.5.54-6.12.6-2.58 2.82-3.84 4.98-3.84z"/><path d="m293.42 41.72h7.14c.24-6.66 10.92-7.08 10.92 0v2.94h-5.46c-9.48 0-14.22 2.82-14.22 10.38 0 3.84 1.02 6.54 3.12 8.16 2.16 1.62 4.8 2.4 7.98 2.4 6.84 0 9.54-5.22 9.54-5.22v4.8h7.74v-24.72c0-8.22-8.16-11.34-13.08-11.34-11.52 0-13.62 8.34-13.68 12.6zm18.12 8.4v3.24c0 3.96-4.26 5.4-7.74 5.4-2.04 0-4.08-1.02-4.08-3.78 0-3.84 4.86-4.8 7.08-4.86z"/><path d="m335.48 33.02v-3.24h-8.28v35.34h8.52v-22.74c0-5.76 11.4-8.82 11.4 0v22.74h8.1v-24.18c0-6.66-4.62-12.06-10.32-12.06s-8.28 3.36-9.42 4.14z"/><path d="m381.56 19.28v12.18c-1.92-2.16-4.92-2.64-7.68-2.76-6 0-9.72 3.6-11.16 10.8-.42 2.34-.66 4.8-.66 7.32 0 2.82.24 5.4.72 7.74 1.62 7.38 5.16 10.68 10.8 10.68 5.88 0 8.52-3.42 8.82-3.84v3.72h8.22v-45.84zm-5.34 17.82c5.16 0 5.4 5.64 5.4 9.96.06 4.5.18 11.1-5.4 11.16-6.06.06-5.76-6.54-5.82-11.16-.06-5.94.6-9.96 5.82-9.96z"/><path d="m397.1 39.86c0 3 .84 6 2.58 7.56 4.5 4.02 9.72 3.24 13.5 4.56 1.5.48 1.8 2.28 1.8 3.18 0 1.32-1.62 3.06-4.38 3.06-2.7 0-4.32-.96-5.22-3.48h-8.64c0 3.12 1.26 6.06 3.84 7.98s5.7 2.82 10.02 2.82 7.38-.9 9.9-2.82c2.58-1.92 3.84-4.5 3.84-7.86 0-3-.96-6.06-2.88-7.56-4.74-3.84-11.04-2.16-14.16-3.84-1.68-1.02-1.38-2.76-1.38-3.72 0-1.5 1.92-3.3 4.5-3.3 2.04 0 4.68.42 4.62 4.26h8.64c0-3.42-1.2-6.78-3.72-8.82-2.46-2.1-5.52-3.12-9.66-3.12s-7.08 1.02-9.54 3-3.66 4.68-3.66 8.1z"/></g><g fill="#ffe51e"><path id="p1" d="m23.6 2-21.6 96h68.4l21.6-96z"/></g><g fill="#1d1d1b"><path id="p3" d="m66.9 32.1c-3 0-4.5 1.5-4.5 4.4 0 1.4.4 2.6 1.6 3.4l2.9 1.9c.7.5 1.2.8 1.2 1.4v.7c0 .7-.3 1.2-1.2 1.2-.7 0-1.2-.6-1.2-1.3v-.9c0-.4-.4-.8-.8-.8h-1.8c-.4 0-.7.4-.7.8v.8c0 3 2 4.1 4.4 4.1 3.1 0 4.7-1.3 4.7-4.5 0-2-.4-2.6-2-3.7l-2.6-1.6c-.8-.5-1.1-.7-1.2-1.4v-.5c-.1-.8.5-1.2 1.2-1.2.6 0 1.2.4 1.2 1.3v.5c0 .4.4.8.8.8h1.7c.4 0 .8-.4.8-.8v-.5c0-2.7-1.9-4.1-4.5-4.1zm-35.5.5c-.4 0-.8.4-.8.8v13.2c0 .4.4.8.8.8h6.1c.4 0 .7-.3.7-.7v-1.5c0-.4-.3-.8-.7-.8h-3.5v-11c0-.4-.4-.8-.8-.8zm8.7 0c-.4 0-.7.3-.7.7v13.4c0 .4.4.7.8.7h6.6c.4 0 .8-.3.8-.7v-1.5c0-.4-.4-.8-.8-.8h-4.1v-3.3h3.6c.4 0 .7-.3.7-.7v-1.4c0-.4-.3-.7-.7-.7h-3.6v-2.7h4c.4 0 .7-.4.7-.8v-1.5c0-.4-.3-.7-.7-.7zm9.1 0c-.4 0-.7.4-.7.8v1.3c0 .4.3.8.7.8h1.9v11.1c0 .4.4.8.8.8h1.8c.4 0 .8-.4.8-.8v-11.1h1.8c.4 0 .8-.4.8-.8v-1.3c0-.4-.4-.8-.8-.8zm9.6.1c-.4 0-.7.4-.7.8v4c0 .4.3.8.7.8h1.9c.4 0 .7-.4.7-.8v-4c0-.4-.3-.8-.7-.8zm8.1 18.1c-3 0-4.5 1.5-4.5 4.4 0 1.4.4 2.5 1.6 3.3l2.9 1.9c.7.5 1.2.9 1.2 1.5v.7c0 .7-.3 1.2-1.2 1.2-.7 0-1.2-.7-1.2-1.4v-.8c0-.4-.4-.8-.8-.8h-1.8c-.4 0-.8.4-.8.8v.9c0 3 2.1 4 4.5 4 3.1 0 4.7-1.4 4.7-4.5 0-2-.4-2.5-2-3.6l-2.7-1.7c-.8-.5-1.1-.8-1.1-1.4v-.5c0-.8.5-1.3 1.2-1.3.6 0 1.2.5 1.2 1.4v.5c0 .4.4.8.8.8h1.7c.4 0 .8-.4.8-.8v-.5c0-2.7-1.9-4.1-4.5-4.1zm-47.8.4c-.4 0-.8.4-.8.8v13.3c0 .4.4.8.8.8h5.3c1.6 0 3.1-1.2 3.1-2.8v-2.4c0-1.5-.7-2.3-2.1-2.6 1.4-.5 1.7-1.3 1.7-2.9v-1.4c0-1.5-1.3-2.8-2.9-2.8zm21.5 0c-.4 0-.8.4-.8.8v13.3c0 .4.4.8.8.8h1.8c.4 0 .8-.4.8-.8v-7.2l3.1 7.2c.2.4.3.8.8.8h2c.4 0 .9-.4.9-.8v-13.3c0-.4-.4-.8-.8-.8h-1.8c-.4 0-.8.4-.8.8v7.4l-3.1-7.4c-.2-.4-.4-.8-.9-.8zm12 0c-.4 0-.8.4-.8.8v13.3c0 .4.4.8.8.8h5.4c1.5 0 3-1.4 3-2.9v-9.3c0-1.5-1.5-2.7-3-2.7zm-20.8 0c-.4 0-.7.4-.8.8l-2.9 13.3c-.1.4.4.8.8.8h9.1c.7 0 .9-.5.8-.8l-2.8-13.3c-.1-.4-.4-.8-.8-.8zm-10.2 2.7h1.5c.5 0 .9.3.9.9v1.5c0 .7-.4.8-.9.8h-1.5zm33.5.1h1.5c.5 0 1 .4 1 .9v7.5c0 .5-.5 1-1 1h-1.5zm-21.6 1.1 1.6 8.3h-3.2zm-11.9 4.6h1.7c.5 0 .9.1.9.9v1.9c0 .7-.4.9-.9.9h-1.7z"/></g></svg>