<svg viewBox="0 0 175 100" xmlns="http://www.w3.org/2000/svg" xmlns:xlink="http://www.w3.org/1999/xlink"><g fill="#fff"><path id="e" d="m118 3.1h17.2v7.5h-9.7v4.5h8.3l1.9 7.5h-10.2v4.8h9.7v7.5h-17.2v-12.3l-1.8-7.5h1.8z"/><path id="m" d="m59.1 3.1-3.4 31.8h7.5l1.7-15.9 4.4 8.8c.9 1.7 1.4 1.7 2.5 0l4.4-8.8 1.7 15.9h7.5l-3.4-31.8h-5.4l-6.1 11.9-6-11.9z"/><path id="r" d="m137.6 3.1v31.8h7.5v-7.2l4.7 7.2h9l-5.6-8.4c5-3.4 6-6.7 6-11.5 0-5-3.3-11.9-13.5-11.9zm8.1 7.4h1.9c.7 0 1.4.2 1.8.5 1.6 1.3 1.6 2.3 1.6 4s-.1 3.2-1.6 4.3c-.5.4-1 .7-1.8.7h-1.9z"/><path d="m9.7 41.4v-39.2h7.5v12.5h6v-12.5h7.5v31.8h-7.5v-11.8h-6v12.8z"/><path d="m44.9 2c-5.6-.1-11.3 3.9-11.2 11.4v2.2h-1.8l1.7 7.6v11.7h7.5v-11.8h6.1v11.8h7.4v-19.3-2.2c0-7.5-5-11.3-9.7-11.4zm-1.4 7.5c1.2 0 2.4.6 2.4 2v4.2h-4.8v-4.2c0-1.3 1.2-2 2.4-2z"/><path d="m2.3 62.3c3.5.4 8.7 1.4 8.7-2.1 0-2.3-2.2-3-4.5-4.8-2.6-2-4.5-3.7-4.5-8.7 0-2.5 1.4-5.2 4.2-6.7 2.6-1.5 6.6-1.9 10.3-1.1v7c-4.8-.7-5.9.7-6 2.2 0 1.6 2.1 2.5 4.6 4.1 2.9 1.9 4.4 4.2 4.4 8.2 0 4.5-2.6 8.7-8.5 9.9-2.3.5-5.5.1-8.7-.3z"/><path d="m17.7 39.5h16.7v7.5h-4.6v24.3h-7.5v-24.3h-4.6z"/><path d="m77.2 71.3v-31.8h7.1l8.6 8.5v-8.5h7.5v31.8h-7.4v-12.9l-8.3-8v20.9z"/><path d="m124.1 46.9c-9.1-3.7-15.3.4-15.5 7.3.1 6.2 3.7 8.5 8 9.2v-12.6h7.5v20c-2.1.9-5 1.4-7.5 1.4-9.4 0-17-8.4-17-16.2 0-11 9-17.2 17-17.2 3.1 0 5.1.6 7.5 1.6z"/><path d="m125.4 39.5h16.7v7.5h-4.6v24.3h-7.5v-24.3h-4.6z"/><path d="m151.5 71.3h-7.5v-11.8l-1.9-7.4h1.9v-12.6h7.5v12.6h6.1v-12.6h7.4v31.8h-7.4v-11.8h-6.1z"/><path d="m169.6 39c-1.8 0-3.2 1.4-3.2 3.1 0 1.8 1.4 3.1 3.2 3.1 2 0 3.1-1.5 3.1-3.1s-1.1-3.1-3.1-3.1zm0 .5c1.4 0 2.6 1.1 2.6 2.6 0 1.4-1.2 2.6-2.6 2.6s-2.6-1.2-2.6-2.6c0-1.5 1.2-2.6 2.6-2.6zm-1.3.8v3.5h.5v-1.5h.7l.8 1.5h.6l-.8-1.5c.6-.1.8-.4.8-1 0-.7-.3-1-1.3-1zm.5.4h.8c.5 0 .8.2.8.6 0 .6-.3.6-.9.6h-.7z"/><use transform="translate(-59.6 36.4)" xlink:href="#e"/><use transform="translate(30.5)" xlink:href="#m"/><use transform="translate(-101.3 36.4)" xlink:href="#r"/></g><g fill="#dd042b"><path d="m35.7 82.6-1-.2v-.5c1-.3 1.9-.4 2.9-.5l.4.1-1.2 5.6h.1c.2-.3.3-.5.5-.8.5-.8 1.4-1.4 2.2-1.4 1.4 0 1.8 1.2 1.8 2.4 0 2.2-.9 3.9-2.6 4.8-.6.3-1.3.5-2 .5-1.1 0-2-.3-2.9-.8zm1 5.7-.6 3.1c.7.4 1.4.3 1.8-.1 1.1-1.2 1.9-3.6 1.3-4.9-.1-.2-.3-.4-.6-.4-.2 0-.4.1-.8.5-.5.4-.8 1.1-1.1 1.8z"/><path d="m42.9 86.1-1-.1v-.5c.7-.4 1.5-.6 2.1-.6s.8.3.9.7l1.2 4.5v.8h.1l.3-.8c.4-1 .7-2.1 1-3.1-.1-.6-.2-1.3-.4-1.9.4-.1.8-.2 1.1-.2.4 0 .7.1 1 .2-.3 1.2-.6 2.4-1.1 3.6s-1.1 2.5-1.8 3.7c-.6 1-1.1 1.8-1.7 2.3s-1.3.7-2 .7c-.4 0-.7-.1-1-.2 0-.9.4-1.4 1-1.8l1.1.7c.7-.4 1-1 1.2-1.7z"/><path d="m76.9 80.9c.6-.5 1-.7 1-.9s-.5-.4-1.6-.7c-.7-.2-1.3-.4-1.8-.4-.6 0-1.2.3-2.2.9-2.5 1.4-9.7 6.3-17 13.4-1.9.1-3.3 1.1-4 1.5-.3.2-.6.3-.6.5s.2.4.5.9c.5.7.6 1 1 1 .2 0 1-.3 1.2-.4.7-.4 1.8-1 2.7-1.6 4.1-.9 13.4-1 24.7 2.1.4.1.8.3 1 .3.1 0 .2-.1.2-.2 0-.2-.2-.5-.5-1.1-.8-1.5-.7-1.4-2.7-1.9-7.3-1.8-15.1-2.1-19.7-1.6 4.6-3.8 8.1-7 12.7-9.6 1.7.1 1.7.1 2.7-.6s1.7-1 2.4-1.6z"/><path d="m67.7 90.9c-.3.3-.4.5-.4.7s.1.4.3 1.1l1.4.6c.9-1.2 5.7-4.7 6.1-5.2.4-.4.5-.7.5-1s-.1-.5-.4-1.1c-.4-.7-.6-1-.9-1s-.6.2-1 .6c-.8.7-3.9 3.2-5.7 5.2z"/><path d="m77.4 82.5c-1 .3-1.3.4-1.3 1.2 0 .7.2 1.3.4 1.3.1 0 .3 0 .6-.1.6-.2 4.4-1.3 5.2-1.7.8-.3.8-.5.8-1 0-.7-.2-1-.6-1-.2 0-.6.1-1 .2-.7.2-3.1 1.1-4 1.2z"/><path d="m92.2 85.4c1.5-.8 2.6.7.9 1.1-1 .2-1.7.5-2.8.6.9-.8 1.6-1.5 1.9-1.7zm-11.3.3c-1.4-.2-2.6-.6-2.9-.7-.4-.2-.6-.2-.6.4.1.7.5 1.6 1.8 2.1-1 1.2-2.3 2.3-3.4 3.8-.2.2-.3.3-.3.5s.1.5.5 1.1c.3.4.5.5.7.5s.4-.1.5-.2c1.3-1.4 3-3.2 4.8-4.9 1.1.3 2.4.5 3.3.6-.4.5-.7.5-1 1-.3.8-.2 1.4.1 2.2.6 1 1.5 1.6 3.5 1 2-.9 3.6-2.1 4-2.8.3-.8.4-.9-.5-.6-1.2.4-2.5 1.1-4.6 1.4.4-.6 1-1.5 1.4-2 1.8.1 4.3.1 6.5-1.1.7-.3.9-.8.9-1.4 0-.5-.2-1.1-.5-1.6-.9-1.3-1.5-2-4-1.1-1.3.7-3 1.6-4.2 3-.8-.1-2.4-.3-3-.5 1.6-1.5 3.4-2.8 5.1-4 1.7-.8 2.7-.8 2.9-.1.2.6.6.8 1.2.4.5-.4.7-1.1.7-1.6 0-1.3-.9-2.2-2.8-2.2-2.2 0-3.9 1.2-5.7 2.9s-2.9 2.7-4.4 3.9z"/><path d="m100 81.6c-.8.1-.8.2-.4 1.2.3.9.6.9 1.1.9.8 0 1.5-.2 2.5-.4-1 .6-1.7 1.6-2.8 2.4-.8.2-2 .4-2.8.6-1 .2-1 .4-.7 1.2.3.7.5 1 .8.9-1.7 2-3.7 4.2-5.1 6.3-.2.3-.5.6-.5.8 0 .3.1.7.4 1.4s.6 1.1.8 1.1.4-.5.5-.6c1.8-2.3 5.2-6.1 8.4-9.7 2.2-.2 4.4-.2 7.1-.2.9 0 1 0 .5-1.3-.4-.9-.5-1-.9-1-1.3 0-2.7 0-4.2.2 1.1-1.3 2.4-2.2 3.2-3.1 1.7-.2 4.4-.4 6.3-.4.5.9.7.9 1.3.8.8-.1 2.8-.4 3.8-.6.8-.2 1.1-.3 1.1-.6 0-.2-.1-.4-.3-.8-.4-.8-.5-.9-4.1-.9s-9.8.5-16 1.8z"/><path d="m145.5 85.7c1.3.3-.6 1.6-4.4 3.1 1-1.6 3-3.3 4.4-3.1zm1.7 6.7c.9-.8 2.9-1.5 4.1-2.3 1 1.1-.4 1.9-4.1 2.3zm-22.7-10c-1.9.3-3.7.6-5.5 1-1.3.3-.9.3-.6 1.3.2.8.4.9 1 .8.8 0 1.3-.2 2.1-.4-2.4 1.3-6.4 3.4-9.8 5.4 1.7-1.7 3.3-3 3.8-3.5.6-.6.5-.7-.2-1.5-.4-1.2-.5-1.6-1.4-.9s-4.7 4.8-6.6 7c-.2.2-.4.5-.4.7 0 .4.2.6.5 1 .8.8 1 1.1 2.2.3 1.4-.5 7.2-4.2 10.5-6.3-2.1 2.1-4 4.1-5 5.1-.3.7-.2.9.4 1.4.5.5.7.7 1.1.7.3 0 .6-.2 1.1-.5 1.1-.7 7.1-4.7 10.8-7.5-1.5 1.4-3.3 3.3-4.6 5-.5.7-.5.9.3 1.7.6.8.7.9 1.5.1.7-.5 4.6-3.9 8-5.4-1.6 2.3-2.7 3.4-3.3 4-.3.7-.2 1.1.8 1.6.9.7 1 .6 1.8-.1 1.3-.7 3-1.4 4.7-2.1.1 1.2.5 2.3 1.6 2.3s5.7-2.4 10.1-5.6c.2.5.6.9 1 1.2-1.6.6-3 1.5-4.2 2.1-.7.3-.8.3-.6 1.3.3.7.1.8.9.8 5.6.8 7.9-1 7.9-2.8 0-.9-.6-1.2-1.1-1.7 1.1-.5 2.5-1.1 3.8-1.4.3 1.7 2.4 1.8 2.6 2.8s-2.8 1.2-4.2 1c-1.1-.1-.7.6-.1 1.3.9.6 1.1 1 2.8.8 2.5-.2 4.7-.9 4.7-2.4 0-2.2-2.4-3.3-2.9-4-.4-.8 1-1.1 2.2-.9.6.7.5.6 1.5.4.6-.2.8-.2 1-.3.2 0 .3-.1.3-.2 0-.4-.1-.6-.2-.8-.1-.7-.1-.8-3.6-1.1-2.2-.2-4.1.9-4.1 2.4-1.4.5-3.2 1-4.6 1.6-1.4-1.2-1.4-2.1.3-2.1 1.3 0 2.2.1 2.4.2.7.1.9-.3.8-.9-.1-.7-.3-.7-.8-1-.3-.2-1.7-.6-2.1-.6-3.8 0-5 1.8-4.2 3.6-1.9 1-6.1 3.1-7.1 3.6-1 .4-1.7.5-1.4-.8 2.8-.8 7.1-2.4 7.1-3.7 0-1.7-1.5-2.2-3-2.2-3.6 0-6.2 3.2-6.6 5.5-.8.3-1.8.6-2.7.9.6-.9 1.2-2.4 1.6-3.2.5-1.1.4-1.1-.2-1.8-.5-.3-.7-.3-1-.2-1 .1-2.7.8-3.8 1.7.6-.9.6-1 1-1.5.4-.1.2-.5-.5-1.2-.4-.7-.5-.7-1-.6-1.9 1.2-6.7 4-11.5 6.9 1-1.3 4.5-4.6 6.6-6.9 6.2-.7 13.3-1 20.5-.3 1.2.1.6-.4.2-1.3-.7-.6-.9-.9-1.8-1-4.8-.4-10.3-.2-16.4.5.3-.3.1-.6-.4-1.5-.3-.6-.5-.9-.7-.9s-.4.1-.7.4c-.3.1-1.2 1.2-2.6 2.5z"/></g></svg>