<svg viewBox="0 0 538 100" xmlns="http://www.w3.org/2000/svg" xmlns:xlink="http://www.w3.org/1999/xlink"><g fill="#fff"><path id="e" d="m176.5 3.8h27.4l-.1 12h-14.4v7.3h12.9l3.2 12.1h-16.1v7.8h14.5v12h-27.4v-19.8l-3.2-12.1h3.2z"/><path id="m" d="m81 3.8-4.8 51.2h11.2l3.3-25.6 8 14.2c1.6 2.8 1.7 2.8 3.3 0l8-14.2 1.6 25.6h12.9l-6.4-51.2h-8.1l-9.7 19.2-9.6-19.2z"/><path id="r" d="m208.7 3.7v51.3h11.3v-11.6l8.1 11.6h14.5l-8.1-13.5c8.1-5.5 9.7-10.7 9.7-18.5 0-8-6.5-19.3-22.6-19.3zm12.9 12h3.3c1.6 0 2.6.5 3.2 1.2 1.6 2.1 1.6 3.4 1.6 6.1s0 5.2-1.6 6.9c-.6.6-1.6 1.1-3.2 1.1h-3.3z"/><path d="m2 65.5v-63.2h11.3v20.2h11.3v-20.2h11.3v51.2h-11.3v-19h-9.7v20.6z"/><path d="m58 2c-8 .1-17.3 6.3-17.3 18.3v3.7h-3.2l3.2 12.1v18.9h11.3v-19h9.6v19h12.9v-31-3.7c0-12.1-8.9-18.3-16.5-18.3zm-1.2 11.1c1.6 0 3.8 1 3.8 3.2v7.8l-7.7-.1v-7.7c0-2.1 2.3-3.2 3.9-3.2z"/><path d="m261.2 40.5c5.7.7 14 2.2 14-3.4 0-3.8-3.6-4.8-7.3-7.7-4.2-3.3-7.1-6.2-7.1-14.2 0-4.1 2.3-8.2 6.8-10.7 2.8-1.5 6.4-2.5 10.3-2.5 2 0 4.1.3 6.2.7v11.3c-7.7-1.1-9.6 1-9.7 3.5 0 2.5 3.3 4 7.4 6.6 4.7 3 7.2 6.8 7.2 13.3-.1 7.3-4.3 13.9-13.8 15.8-1.3.3-2.8.4-4.4.4-3 0-6.3-.4-9.6-.8z"/><path d="m286.1 3.7h26.9v12.1h-7.4v39.2h-12.1v-39.2h-7.4z"/><path d="m381.9 55v-51.3h11.5l13.9 13.7v-13.7h12.1v51.3h-12v-20.8l-13.4-13v33.8z"/><path d="m457.6 15.6c-14.6-5.9-24.7.5-25.1 11.7.2 10.1 6 13.8 13 15v-20.4h12v32.2c-3.3 1.4-8 2.3-12 2.3-15.2 0-27.4-13.5-27.4-26.1 0-17.7 14.4-27.7 27.3-27.7 5.1 0 8.4.9 12.2 2.5z"/><path d="m459.6 3.7h27v12.1h-7.5v39.2h-12v-39.2h-7.5z"/><path d="m501.7 55h-12v-19l-3-12h3v-20.3h12v20.3h9.9v-20.3h12v51.3h-12v-19h-9.9z"/><path d="m531 2.9c-2.9 0-5.2 2.2-5.2 5s2.3 5.1 5.2 5.1c3.2 0 5-2.6 5-5.1s-1.8-5-5-5zm0 .9c2.2 0 4.1 1.7 4.1 4.1.1 2.3-1.9 4.2-4.1 4.2-2.3 0-4.3-1.9-4.2-4.2 0-2.4 1.9-4.1 4.2-4.1zm-2.2 1.2v5.8h1v-2.6h1l1.4 2.6h1l-1.5-2.6c.9-.1 1.4-.6 1.4-1.6 0-1.1-.5-1.6-2.1-1.6zm1 .7h1.2c.7 0 1.2.2 1.2.9s-.4.9-1.2.9h-1.2z"/><use transform="translate(175.4)" xlink:href="#e"/><use transform="translate(50.2)" xlink:href="#m"/><use transform="translate(106.6)" xlink:href="#r"/></g><g fill="#dd042b"><path d="m313.6 73.2-1.5-.3v-.8c1.6-.5 3.1-.7 4.7-.9l.5.3-1.8 8.9h.1c.3-.5.5-.9.8-1.3.9-1.3 2.2-2.1 3.6-2.2.4 0 .8 0 1.1.2 1.4.7 1.8 2.2 1.8 3.6 0 3.2-1.3 6.5-4.2 7.9-.9.5-2 .6-3.2.6-1.7 0-3.3-.3-4.7-1.2zm4.6 5.6c-.3 0-.6.1-.9.4-1 1-1.6 2-2.1 3.2l-1 5c.4.4 1 .5 1.5.5s1-.2 1.5-.6c1.2-1 1.6-2.5 2-3.8.2-.8.3-1.7.3-2.6 0-1.2-.4-2.1-1.3-2.1z"/><path d="m325.2 78.8-1.5-.1v-.8c1-.6 2.4-1 3.4-1 .4 0 .8.1 1 .3s.4.4.5.8l1.8 7.2.1 1.4h.1c.4-1.3 1-2.7 1.4-3.8.3-.9.5-1.7.7-2.5-.1-1.1-.3-2-.6-3.1.6-.2 1.2-.3 1.8-.3s1.1.1 1.6.3c-.4 1.9-1.1 3.8-1.9 5.8s-1.8 4.1-2.9 6c-.9 1.6-1.8 2.8-2.7 3.6s-1.9 1.3-3.1 1.3c-.9 0-1.3-.4-1.7-.8 0-1.2.8-2 1.6-2.6l1.7 1.3c1-.7 1.6-1.8 2-2.8z"/><path d="m381.3 70.4c2.1-1.5 2.3-1.8-1.1-2.6-1.2-.3-2-.5-2.9-.5-1 0-2 .3-3.5 1.3-4 2.2-15.6 10.2-27.4 21.7-3 .2-5.5 1.5-6.5 2.4-.5.3-.8.5-.8.8s.3.7.8 1.5c1.3 1.8 1.2 1.8 3.4 1 1.2-.7 3-1.8 4.5-2.7 6.7-1.4 21.6-1.5 39.9 3.5.7.2 1.2.4 1.5.4.2 0 .3-.1.3-.3 0-.3-.2-.9-.7-1.8-1.3-2.4-1.2-2.1-4.4-3-11.8-3-24.4-3.5-31.8-2.7 7.4-6.2 13.1-11.2 20.5-15.4 2.8.1 2.8.1 4.6-1.2 1.2-.9 2.7-1.6 3.6-2.4z"/><path d="m366.5 86.6c-.4.5-.7.7-.7 1s.2.7.6 1.8l2.1 1c1.5-2 8.5-7.7 9.9-8.5.6-.6.9-.8.9-1.3 0-.4-.2-1.1-.7-2-.6-1.2-1.2-1.7-1.6-1.7-.5 0-.9.5-1.5 1.1-1.2 1.2-6.4 5.1-9.2 8.4z"/><path d="m382.1 73c-1.8.6-2 .6-2 2.5 0 1.1.2 1.6.6 1.6.2 0 .5-.1 1-.3.9-.5 6.9-2.1 8.3-2.7 1.1-.3 1.4-.4 1.4-.9 0-.2-.1-.4-.1-.6-.2-1.2-.4-1.7-1-1.7-.4 0-.9.1-1.6.3-1.1.4-5 1.8-6.5 2z"/><path d="m406.1 77.9c2.5-1.3 4.1.9 1.4 1.5-1.6.4-2.9.9-4.6 1 1.4-1.3 2.7-2.3 3.2-2.5zm-18.4.3c-2.2-.2-4.1-1-4.6-1.2-.7-.3-1-.2-.9.7.2 1.1.7 2.6 2.8 3.4-1.6 1.9-3.6 3.7-5.4 6.1-.4.3-.6.5-.6.8 0 1 1.1 2.6 1.9 2.6.3 0 .7-.1.9-.3 2.2-2.3 4.9-5.2 7.8-8 1.8.5 3.8.8 5.2 1-.6.8-1.1.9-1.6 1.7-.5 1.3-.3 2.2.2 3.5 1 1.6 2.2 2.5 5.5 1.5 3.2-1.4 6-3.3 6.6-4.4.4-1.3.6-1.5-.9-1-1.9.6-3.9 1.7-7.3 2.2.6-1 1.5-2.3 2.2-3.2 2.9.2 7 .1 10.5-1.8.9-.6 1.5-1.1 1.5-2s-.4-1.9-.9-2.8c-1.4-2.1-2.5-3.2-6.5-1.8-2.2 1-4.6 2.7-6.6 5-1.3-.2-3.9-.5-4.9-.8 2.6-2.4 5.4-4.5 8.2-6.4 2.7-1.4 4.3-1.3 4.7-.1.3 1 1 1.3 1.9.7.9-.7 1.2-1.8 1.2-2.6-.1-2.4-1.6-3.9-4.6-3.9-3.3 0-6.4 2.1-10.4 5.6-2 2.1-4.1 4-5.9 5.5z"/><path d="m418.5 71.6c-1.6.2-1.3.3-.6 1.9.4 1.4 1 1.4 1.8 1.4 1.2-.1 2.5-.3 4.1-.6-1.6 1-3 2.6-4.7 3.9-1.4.3-3.2.5-4.5.9-1.7.4-1.5.5-1 2 .5 1.2.7 1.6 1.2 1.4h.1c-3.2 3.5-6.3 7.1-8.3 10.1-.5.4-.8.8-.8 1.4 0 .5.2 1.2.6 2.2.6 1.2.9 1.8 1.3 1.8.3 0 .5-.3.9-1 3-3.7 8.2-9.9 13.4-15.6 3.5-.3 7.2-.4 11.6-.3 1.6.1 1.6-.1.7-2.2-.7-1.5-.8-1.6-1.4-1.6-2 0-4.3.1-6.7.4 1.8-2.1 3.8-3.5 5.1-4.9 2.8-.4 7-.8 10.1-.7.8 1.4 1.2 1.5 2.2 1.3 1.3-.2 4.4-.6 6-1 1.3-.3 1.8-.5 1.8-1 0-.3-.1-.6-.4-1.2-.5-1.2-1-1.6-1.7-1.6-10.7 0-21.8 1.2-30.8 3z"/><path d="m491.9 78.2c2.1.5-.9 2.6-7.1 5 1.6-2.5 4.9-5.2 7.1-5zm2.7 10.8c1.5-1.3 4.8-2.5 6.7-3.8 1.6 1.8-.8 3.2-6.7 3.8zm-36.5-16.2c-3 .5-5.9 1.1-8.9 1.7-2 .4-1.5.5-1 2.1.4 1.3.6 1.5 1.6 1.3 1.3-.1 2.2-.3 3.4-.6-3.8 2.1-10.2 5.5-15.7 8.7 2.7-2.8 5.1-4.9 5.9-5.7 1-1 .8-1.3-.2-2.5-.7-1.9-.9-2.6-2.3-1.4s-7.6 7.8-10.7 11.3c-.4.4-.5.7-.5 1.1 0 .6.3 1.2.8 1.7 1.3 1.3 1.7 1.7 3.6.4 2.3-.9 11.6-6.7 16.8-10.1-3.4 3.4-6.4 6.5-8 8.1-.5 1.1-.2 1.5.7 2.3.8.7 1.2 1.1 1.8 1.1.7 0 1.2-.4 1.7-.7 1.7-1.2 11.5-7.6 17.4-12.1-2.4 2.2-5.4 5.3-7.4 8.1-.9 1.2-.9 1.4.4 2.7.9 1.3 1.2 1.4 2.5.2 1.2-.8 7.3-6.4 12.8-8.8-2.5 3.8-4.2 5.5-5.2 6.5-.5 1.2-.2 1.7 1.3 2.6 1.4 1.2 1.6 1 2.8-.2 2.1-1.2 4.9-2.3 7.7-3.4.2 1.9.7 3.7 2.5 3.7s9.2-3.8 16.3-9c.3.8.9 1.4 1.6 1.9-2.6 1-4.9 2.4-6.8 3.4-1.1.5-1.4.4-1 2 .6 1.1.3 1.3 1.5 1.4 9.1 1.3 12.7-1.6 12.7-4.5 0-1.4-.8-1.9-1.7-2.7 1.8-.9 4.1-1.8 6.1-2.3.6 2.7 3.9 2.9 4.2 4.5.3 1.5-4.7 2.1-6.9 1.7-1.8-.1-1 .8-.1 2 1.5 1 1.8 1.6 4.5 1.3 4.1-.3 7.6-1.5 7.6-3.9 0-3.6-3.7-5.2-4.5-6.4-.6-1.3 1.3-1.9 3.3-1.5.7 1 1 1.2 2.5.7 1-.2 1.7-.3 1.7-.4.4-.1.5-.1.5-.3 0-.6-.3-1.2-.4-1.5-.1-1-.1-1.2-5.8-1.7-3.6-.3-6.6 1.5-6.6 3.9-2.2.8-5.2 1.6-7.5 2.5-2.3-1.9-2.2-3.4.5-3.4 2 0 3.5.2 3.9.3 1.1.2 1.5-.3 1.3-1.3-.2-1.1-.3-1.2-1.2-1.7-.5-.4-2.6-.9-3.3-.9-6.1 0-8.2 2.9-7 5.8-3 1.6-9.9 5-11.4 5.8-1.6.6-2.7.8-2.2-1.3 4.5-1.3 11.4-4 11.4-6.1 0-2.7-2.4-3.5-4.8-3.5-5.8 0-10 5.4-10.7 9-1.3.5-3 .8-4.4 1.3 1-1.4 1.9-3.7 2.6-5 .8-1.7.8-1.9-.2-2.9-.9-.5-1.1-.6-1.7-.4-1.6.2-4.4 1.4-6.2 2.8 1-1.4 1.2-1.7 1.8-2.5.6-.2.1-.9-.9-1.9-.7-1.2-.8-1.3-1.6-1-3.1 1.9-10.9 6.5-18.6 11.1 1.6-2.1 7.5-7.4 10.8-11.1 9.9-1.2 21.3-1.6 32.9-.6 1.9.2 1-.7.3-2.1-1.1-1-1.4-1.4-2.9-1.5-7.7-.6-16.6-.3-26.4.8.5-.6.1-.9-.7-2.3-.4-.9-.6-1.5-1-1.5-.5 0-.8.4-1.2.6-.5.2-1.8 1.8-4.1 3.9z"/></g></svg>