<svg viewBox="0 0 472 100" xmlns="http://www.w3.org/2000/svg" xmlns:xlink="http://www.w3.org/1999/xlink"><g fill="#d2232e"><path d="m72 8.5h4.3v-5.5h-24.3l-12.1 52.7-12.9-52.7h-25v5.5h5.2v82.6h-5.2v5.7h19.2v-5.7h-6.1v-58.1l15.2 63.8h8.8l15-64.2v58.5h-5.7v5.7h27.9v-5.7h-4.3z"/><path id="x1" d="m98.4 34.1c3.1 0 4.6 2.4 4.6 22h-10.2c.4-19.6 2.1-22 5.6-22zm12.3 39.3v2.3c0 9.6-2.7 14.2-8.3 14.2-6.5 0-9.6-4.2-9.6-26.1v-1.6h25.4c0-25.6-5.6-35.6-19.8-35.6s-23.3 14.5-23.3 37c0 22.3 8.7 34.4 23.7 34.4 12.9 0 18.9-7.3 18.6-22.7v-1.9z"/><path d="m164.2 91.1v-49.3c0-10.2-4.6-15-12.5-15-9.8 0-13.7 7.3-13.7 7.3v-7.3l-20.8 2.3v5.6h4.7v56.4h-4.9v5.7h24.7v-5.7h-3.3v-43.1c0-7.5 2.1-10.6 5.8-10.6 2.7 0 3.8 1.6 3.8 5.8v47.9h-3.8v5.7h23.4v-5.7z"/><path d="m161.7 17.6h4.2v12.1h5.2l4.8-19.2v-7.7h-14.2z"/><path d="m207.5 78.2c0-22.1-23.7-23.5-23.7-38.1 0-5 2.5-7.5 6.5-7.5 6 0 9.1 6.1 9.5 18.8h5.4v-20.9s-6-3.7-15.2-3.7c-11 0-19.9 6.2-19.9 18.9 0 20.8 23.1 23.7 23.1 37.9 0 5.6-2.7 8.4-7.1 8.4-6.7 0-10-5.8-10.4-20.2h-5.4v22.5s6.6 3.7 16.4 3.7c12.1 0 20.8-6.9 20.8-19.8z"/><path d="m267.7 91.1v-82.6h4.8v-5.5h-28.5v5.5h5.8v38.7h-18.3v-38.7h6v-5.5h-28.9v5.5h5v82.6h-5v5.7h28.9v-5.7h-6v-37.5h18.3v37.5h-5.8v5.7h28.5v-5.7z"/><path d="m356.9 45.1c0-12.9-5.8-18.3-18.3-18.3s-21.1 9-21.1 19.6v4.1h14.4v-9.8c0-5.6 1.3-7.7 4.4-7.7s4.4 1.9 4.4 7.7v11.5c-19 6.5-24.8 11.3-24.8 27.3 0 12.5 5 18.5 13.5 18.5 7.3 0 10.6-5 12.5-8.1v6.9h18.5v-5.7h-3.5zm-16.2 12.9v21.3c0 6.2-1.3 8.7-4.8 8.7-2.7 0-4-2.3-4-9.8 0-12.7 1.1-15.8 8.8-20.2z"/><use transform="translate(195.9)" xlink:href="#x1"/><path d="m382.3 91.1v-89.1l-21.4 2.3v5.4h5.2v81.4h-3.4v5.7h24.6v-5.7z"/><path d="m405.2 98c9.4 0 13.3-5.9 13.3-14.2v-10.4h-6.2v10.4c0 4.4-.6 5.9-2.7 5.9-1.9 0-2.5-1.2-2.5-5.2v-50h11.4v-6.5h-11.2v-19.3h-6.5l-9.5 20.2h-5.7v5.4h5v46.2c0 12.1 2.1 17.5 14.6 17.5z"/><path d="m465.4 91.1v-49.3c0-10.2-4.6-15-12.7-15-9.8 0-13.8 7.3-13.8 7.3v-32.1l-20.6 2.3v5.4h4.8v81.4h-3.3v5.7l22.9-.1v-5.6h-3.3v-43.1c0-7.5 2.1-10.6 5.8-10.6 2.7 0 3.7 1.6 3.7 5.8v47.9h-3.7v5.7h24.8v-5.7z"/></g></svg>