<svg viewBox="0 0 316 100" xmlns="http://www.w3.org/2000/svg" xmlns:xlink="http://www.w3.org/1999/xlink"><g fill="#4e4e4e"><path d="m18.7 17.3c3.9 0 10.4 1.1 13.6 7.5 2.3-4.1 6.4-7.5 13.9-7.5 11.1.1 16.4 7.9 16.4 15.7v22.6h-6.8v-21.4c0-6.9-4.4-11.2-9.6-11.1-4 .1-10.5 2.6-10.5 11.1v21.4h-6.8v-21.4c0-9.2-6.8-11.1-10.2-11.1-4.6 0-9.9 3.2-9.9 11.1v21.4h-6.8v-22.6c0-10.8 8.7-15.7 16.7-15.7z"/><path id="a" d="m70.3 18.2v21.9c0 8 5.4 14.8 14.2 16.1v14.3h6.8v-14.3c8.8-1.3 14.2-8.1 14.2-16.1v-21.9h-6.9v21.6c0 6.7-4.9 10.9-10.7 10.9s-10.7-4.2-10.7-10.9v-21.6z"/><path d="m186.5 18.2v5.8h-16.6c-4.1 0-4.9 3.3-4.9 5 .1 1.8 1.3 4.1 5.1 4.2 2.9 0 5.9-.1 8.8.1 3 .2 10.9 1.4 10.9 11 0 4.9-3.8 11.3-11.9 11.3h-18.5v-5.8h17.8c4.3 0 5.8-3.1 5.8-5.7 0-2.7-2.1-4.7-5.1-4.7-2.9 0-5.9.1-8.8 0-6.6-.2-10.9-4.3-10.9-10.4 0-5.2 3.7-10.8 11.3-10.8z"/><path d="m204.9 8.8v9.4h12.8v5.8h-12.8v20.2c0 5 3.4 5.6 4.9 5.6h7.8v5.8h-9.2c-6.5 0-10.3-4.3-10.3-10.4v-21.2h-6.5v-5.8h6.5v-9.4z"/><use transform="translate(152.6)" xlink:href="#a"/><path d="m265.8 2h6.7v53.6h-6.7z"/><path d="m278.7 36.7c0 12.5 9.7 18.9 20.5 18.9h10.2v-5.8h-10c-6.1 0-12.6-3.1-13.5-10.6h28c.1-1 .1-2.1.1-3.2 0-11.7-6.4-18.7-17.5-18.7-10.6 0-17.8 8.8-17.8 19.4zm28.5-2.3h-21.4c.8-8 5.9-11.4 10.7-11.5 1.2 0 10.4.2 10.7 11.5z"/><path d="m46.9 86.2 3.2 4.5 3.3-4.5h2.8v11.5h-2.8v-7.7l-3.3 4.5-3.4-4.5v7.7h-2.7v-11.5z"/><path id="b" d="m64.2 86.2 2.6 4.4 2.3-4.4h2.8l-3.5 5.8c-.2.4-.5.7-.5 1.1v4.6h-2.8v-4.6c0-.4-.3-.8-.5-1.1l-3.9-5.8z"/><path id="c" d="m89.4 86c-4.6 0-5.7 3.4-5.7 6 0 2.5 1.1 6 5.7 6 4.7 0 5.6-3.4 5.6-6 0-2.5-1-6-5.6-6zm0 2.3c2.2 0 2.7 1.8 2.7 3.7s-.5 3.7-2.7 3.7-2.8-1.8-2.8-3.7.6-3.7 2.8-3.7z"/><path d="m101.4 86.2 1.9 8.1 2.3-8.1h2.1l2.4 8.1 1.8-8.1h3.1l-3.3 11.5h-2.7l-2.3-7.4-2.3 7.4h-2.8l-3.2-11.5z"/><path d="m121.9 86.2 5.1 6.9v-6.9h2.6v11.5h-2.1l-5.4-7v7h-2.5v-11.5z"/><path d="m142.7 86.2v11.6h5.1c1.8 0 4.5-.7 4.5-3.5 0-1.7-.8-2-1.9-2.7.9-.6 1.4-1.1 1.4-2.2 0-2.5-2.1-3.2-4.7-3.2zm4.3 4.6h-1.5v-2.4h1.5c1.2 0 1.9.2 1.9 1.2 0 1.1-.9 1.2-1.9 1.2zm2.5 3.4c0 1.4-1 1.4-2.5 1.4h-1.5v-2.8h1.5c1.5 0 2.5.2 2.5 1.4z"/><use transform="translate(73)" xlink:href="#c"/><path d="m172.9 86.2v11.5h5.4c3.1 0 5-2.3 5-5.7 0-4.9-2.9-5.8-6.7-5.8zm7.5 5.8c0 2.5-1.2 3.6-3.1 3.6h-1.6v-7.2h1.4c2.4 0 3.3 1.4 3.3 3.6z"/><use transform="translate(126.5)" xlink:href="#b"/><path d="m218.1 89.4c-1.3-.8-2.5-1.6-4.1-1.1-.8.2-1.2 1.3-.5 1.8 1.2.9 3.5.9 4.6 2.2.5.6.6 1.3.6 2 0 .8-.3 3.7-4.4 3.7-1.3 0-2.6-.3-3.8-.8v-2.6c1.3.8 2.8 1.5 4.4 1.2.9-.1 1.3-1.3.6-1.9-1.2-.9-3.3-1-4.4-2.1-.6-.6-.8-1.4-.8-2.2 0-2.2 1.8-3.6 4.4-3.6 1.4 0 2.9.5 3.4.7z"/><path d="m232.1 86.2v2.2h-3.2v9.3h-2.8v-9.3h-3.3v-2.2z"/><use transform="translate(175.2)" xlink:href="#b"/><path d="m254.4 86.2v9.4h5v2.1h-7.8v-11.5z"/><path d="m272 86.2v2.2h-5.1v2.5h4.5v2.2h-4.5v2.5h5.1v2.1h-7.9v-11.5z"/></g><g fill="#dc3511"><path d="m128.7 23.1c-5.8 1.6-9.6 7.3-9.6 13.9 0 6.8 3.4 11.5 9.6 13.8v6.2c-9.3-1.5-16.7-9.5-16.7-20 0-11.9 8.8-18.9 16.7-20.1z"/><path d="m136.3 23.1c5.8 1.6 9.6 7.3 9.6 13.9 0 6.8-3.4 11.5-9.6 13.8v6.2c9.3-1.5 16.7-9.5 16.7-20 0-11.9-8.8-18.9-16.7-20.1z"/><path d="m77.3 70.5h-75.3v-6.2h75.3z"/><path d="m98.7 64.3v6.2h130.4v-6.2z"/><path d="m314 64.3v6.2h-63.4v-6.2z"/></g></svg>