<svg viewBox="0 0 443 100" xmlns="http://www.w3.org/2000/svg" xmlns:xlink="http://www.w3.org/1999/xlink"><defs><g id="x1"><path d="m83.36 78.66c-1.12 0-2 .88-2 2s.88 2 2 2 2-.88 2-2-.88-2-2-2zm0 .32c.92 0 1.68.76 1.68 1.68s-.76 1.68-1.68 1.68-1.68-.76-1.68-1.68.76-1.68 1.68-1.68z"/><path d="m83.76 81.78c-.08-.16-.08-.36-.12-.56-.04-.36-.24-.44-.48-.44h-.16v1h-.44v-2.28h.76c.56 0 .88.12.92.6 0 .32-.24.48-.44.52.08.04.12.08.16.12.12.16.12.36.16.52 0 .08.04.32.16.52m-.92-1.36c.2 0 .4-.04.4-.28s-.2-.32-.4-.32h-.36v.6"/></g></defs><g fill="#fff"><path d="m134.9 56.6h-.2l-5.2 24.9h-12.3l7.1-33.7h20.5l5.7 19.7.7 4.2h.2l5.1-23.9h12.2l-7.1 33.7h-20l-6.2-21.5z"/><path d="m188.8 47.8h17.6l10 33.7h-15.6l-1.2-5.7h-17.4l-3.8 5.7h-13.8zm6.5 8.4h-.2l-2.1 3.7-5.8 8.6h10.6l-2.1-9.3z"/><path d="m223.1 47.7h13.6l-3.9 18.6c-1.3 6.4.4 8.4 4.7 8.4s6.9-2 8.3-8.4l3.9-18.6h13.4l-4.1 19.8c-1.1 5.3-2.6 7.5-5.3 9.8-4.1 3.5-10.3 5-17.9 5s-13.2-1.5-15.8-5c-1.1-1.5-1.7-2.9-1.7-5.1 0-1.3.2-2.8.6-4.7z"/><path d="m274.7 56.1h-9.9l1.8-8.3 33.5.1-1.8 8.2h-9.5l-5.4 25.4h-14.1z"/><path d="m303.9 47.9h14.1l-7.1 33.5h-14.1z"/><path d="m326 47.9h14.1l-5.4 25.4h12.6l-1.8 8.2h-26.6z"/><path d="m355.8 47.7h13.6l-3.9 18.6c-1.3 6.4.4 8.4 4.7 8.4s6.9-2 8.3-8.4l3.9-18.6h13.4l-4.1 19.8c-1.1 5.3-2.6 7.5-5.3 9.8-4.1 3.5-10.3 5-17.9 5s-13.2-1.5-15.8-5c-1.1-1.5-1.7-2.9-1.7-5.1 0-1.3.2-2.8.6-4.7z"/><path d="m410.8 70.6c-.4 1.9-.3 3.2.4 4.1s1.9 1.4 3.8 1.4c2.9 0 6.2-.7 6.8-3.4.1-.5 0-1.1-.3-1.5-1.5-2.1-17.2-3.7-20.8-7.7-1.5-1.6-1.6-4-1.2-5.9 1.6-7.3 9.1-10.6 22.5-10.6 12.5 0 16.7 3 16.7 8.4 0 .8-.1 1.7-.3 2.6l-13.8-.1c.3-1.9-.1-3-1-3.7s-2.2-1-3.9-1c-3 0-4.8 1.1-5.2 2.8-.1.5 0 1.2.3 1.6 1.7 2.1 17 3.6 20.6 7.6 1.1 1.2 2 2.9 1.3 6.2-1.4 6.6-8.2 10.9-23.5 10.9-14.6 0-17.3-3.4-17.3-8 0-1.1.2-2.5.4-3.7z"/><use transform="translate(355.6)" xlink:href="#x1"/></g><g fill="#0081d1"><path d="m44.4 41.7c14.2-11.7 30.6-15.3 35.3-10.1 8.5 9.3-11.8 28.3-21.9 35-22.3 14.8-45.4 18.8-52.9 9.6-1.9-2.4-2.9-5.4-2.9-8.9 0-10.5 9.1-25.5 29.2-41.1 18.2-14.1 46.6-24.2 66.5-24.2 9.4 0 23.9 2.5 23.9 18.9 0 16.1-15.8 39.6-48 57-26.8 14.5-63.6 20.1-64.4 20.1 1.9-.2 36.4-8.2 59.8-24.3 21.4-14.7 40.8-39.4 28.6-52.9-8.8-9.8-36.1-5.6-60.3 11.2-15.6 10.9-27.2 26.2-21.3 34.8 4.4 6.4 19.3 6.9 36.8-5.5 8.2-5.8 15.5-14.1 12.9-18.4-2.4-3.9-10.7-2.3-17.4 1-9.5 4.7-17.7 13-17.7 13s3.5-6.8 13.8-15.2z"/><use xlink:href="#x1"/></g></svg>