<svg viewBox="0 0 104 100" xmlns="http://www.w3.org/2000/svg"><g fill="#017eb4"><path d="m30.5 69.8c8 .2 18.8-2.6 27.8-8.4 13 9.8 24 10.3 28.6 5.4 3.3-3.6 2.6-10.2-1.2-17.3-3.9-7.1-11.8-15.1-21.4-20 2-16.1-3-25.9-9.6-27.3-4.7-1-10.2 2.8-14.3 9.7-4.1 6.8-7.2 17.7-6.7 28.4-15 6.3-20.9 15.7-18.9 22.1 1.5 4.6 7.7 7.3 15.7 7.4zm38.7-25.1c8.3 7.6 10.2 15.5 8 18.9-2.4 3.8-9 3-17.9-2.8 0 0 11.6-7.7 9.9-16.1zm-12.3-32.5c4.6.2 7.1 6.3 6.5 16.9 0 0-12.5-6.2-18.9-.5 2.4-10.9 8.3-16.7 12.4-16.4zm-4.5 23.2c4.6.1 8.3 3.8 8.2 8.4s-3.7 8.4-8.4 8.3c-4.6-.1-8.3-3.8-8.3-8.4.1-4.6 3.8-8.4 8.5-8.3zm-18.6 6s.9 13.9 9.1 16.5c-10.7 3.4-18.6 1.2-20.5-2.4-2.1-4 2-9.3 11.4-14.1zm-25.5 56.6h14.2c3.6 0 6.3-3 6.3-6.4v-3.6c0-3.4-2.9-6.2-6.3-6.2h-14.2c-3.4 0-6.3 2.8-6.3 6.2v3.6c0 3.4 2.4 6.4 6.3 6.4zm-3.2-9.9c0-1.8 1.4-3.2 3.2-3.2h14.2c1.7 0 3.2 1.4 3.2 3.2v3.6c0 1.7-1.5 3.2-3.2 3.2h-14.2c-1.7 0-3.2-1.5-3.2-3.2zm50.2 3.2c0 1.9-1.4 3.5-3.1 3.5h-14.3c-1.7 0-3.2-1.6-3.2-3.5v-2.8c0-1.9 1.5-3.5 3.2-3.5h15.3v-3.1h-15.3c-3.4 0-6.2 2.9-6.2 6.6v3c0 3.6 2.8 6.5 6.2 6.5h14.3c3.4 0 6.3-2.9 6.3-6.5v-16.2h-3.2zm9.7.5v-16.5h-3.1v16.5c0 3.4 2.9 6.2 6.3 6.2h5.8v-3.1h-5.8c-1.7-.1-3.2-1.4-3.2-3.1zm9.8-.1c0 3.4 2.9 6.3 6.3 6.3h14.3c3.4 0 6.1-2.9 6.1-6.3v-3.6c0-3.4-2.7-6.3-6.1-6.3h-14.3c-3.4 0-6.3 2.9-6.3 6.3zm23.7-3.3v3.3c0 1.7-1.4 3.2-3.1 3.2h-14.3c-1.8 0-3.2-1.5-3.2-3.2v-3.6c0-1.8 1.4-3.2 3.2-3.2h14.3c2 0 3.1 2.1 3.1 3.5z"/></g></svg>