<svg viewBox="0 0 695 100" xmlns="http://www.w3.org/2000/svg"><g fill="#181a1d"><path d="m2 3.2v93.6h19.4v-30.6h13.6c19.1 0 35-9.5 35-31.5s-15.9-31.5-35-31.5zm19.4 17h13c9.3 0 15.6 4.1 15.6 14.5s-6.1 14.4-15.6 14.4h-13z"/><path d="m97.8 3.2v93.6h64.2v-17h-44.8v-21.7h37.6v-16.5h-37.6v-21.4h42.8v-17z"/><path d="m194 3.2v93.6h61.6v-17h-42.2v-76.6z"/><path d="m325.7 2c-26.9 0-48.6 20.2-48.6 48s21.7 48 48.6 48 48.6-20.2 48.6-48-21.7-48-48.6-48zm0 17.1c17.1 0 28.6 13.3 28.6 30.9s-11.5 30.9-28.6 30.9-28.6-13.3-28.6-30.9 11.5-30.9 28.6-30.9z"/><path d="m394.8 3.2-.1 17h26.7v76.6h19.3v-76.6h26.9v-17z"/><path d="m536.6 2c-26.9 0-48.6 20.2-48.6 48s21.7 48 48.6 48 48.3-20.2 48.3-48-21.4-48-48.3-48zm0 17.1c17.1 0 28.6 13.3 28.6 30.9s-11.5 30.9-28.6 30.9-28.6-13.3-28.6-30.9 11.5-30.9 28.6-30.9z"/><path d="m615.8 2.3v94.5h18.2v-39.3c0-6.7-1.5-17-1.5-17s6.7 8.7 11.3 13l47.1 44.2h2.1v-94.5h-18.3v39.3c0 6.4 1.2 17 1.2 17s-6.4-8.4-11-12.7l-47.1-44.5z"/></g></svg>