<svg viewBox="0 0 592 100" xmlns="http://www.w3.org/2000/svg">
 <g fill="#393536"><path d="m315.5 73c3.7-12.2 11.1-39.2 18.1-70.6 3.4.1 6.8 0 10.2 0-5.7 21.2-11 42.4-16.3 63.7 11.3 0 22.6.3 33.9-.4-.7 2.2-1.4 4.7-2.1 7.3-14.6-.2-29.2-.1-43.8 0zm88.7-53.6c17.4 0 23.8 11.3 20.6 25.8-.9 4.3-7.3 28.9-33.6 28.9-20.5 0-23-15.1-20.7-26.1 3.9-18.8 18.6-28.6 33.7-28.6zm-24.7 28.7c-2.1 10.3.7 19.6 13.1 19.6 14 0 20.8-11.7 23.2-22.5 1.7-7.8 1.6-19.2-13.9-19.2-7.9 0-18.9 5.8-22.4 22.1zm87-28.7c17.2 0 23.8 10.9 20.6 25.8-2.1 9.7-10.4 28.9-33.6 28.9-19.6 0-23.3-13.8-20.7-26.1 3.9-18.9 18.6-28.6 33.7-28.6zm-24.7 28.7c-2.7 13.4 3.4 19.6 13.1 19.6 13.3 0 20.6-10.6 23.2-22.5 1.7-7.7 1.6-19.2-13.9-19.2-7.9 0-18.8 5.6-22.4 22.1zm43.5 47.9c5.2-18 14.7-55 18.7-73.4 10-2.1 17-3.2 24.4-3.2 5.4 0 9.8.9 13.4 2.6 7.3 3.5 8.4 12 8.4 16.2 0 2.3-.3 4.7-.8 7.3-1.9 9.1-10.1 28.6-30.1 28.6-7.7.2-14.7-3.4-16.8-10.6-2.7 10.9-5.4 21.5-7.8 32.5-3.1-.2-6.3-.1-9.4 0zm26.3-67.3c-2.2 6.9-4.9 17.9-5.3 19.9-.6 2.6-.8 4.9-.8 7.2.2 6.5 5.3 12 13.1 12 11.9 0 19.7-11.7 21.9-22.3.7-3.5 2.2-13.5-4.8-17.6-2.3-1.4-5.2-2.1-8.5-2.1-4.7 0-9.9 1-15.6 2.9z"/></g>
 <g fill="#0c7bc1"><path d="m2 96.3c5.2-17.9 14.6-55.2 18.6-73.7 10-2.1 17-3.2 24.4-3.2 8.9-.1 17.4 1.2 20.8 11.6 1.3 4.3 1.3 9.1.2 14.5-3 14.4-13.6 28.6-30 28.6-8 .2-14.8-3.8-16.8-10.6-2.7 10.9-5.4 21.8-7.8 32.8-3.1-.2-6.3-.1-9.4 0zm26.2-67.6c-2.2 6.9-4.8 17.9-5.2 19.9-.6 2.6-.8 4.9-.8 7.2.2 6.2 4.9 12 13.1 12 13.2 0 20.1-13.6 21.9-22.3.9-4.2.9-7.9 0-11-2-7-8.1-8.7-13.3-8.7-4.7 0-10 1-15.7 2.9zm42.4 44.3c6.5-23.4 12.3-47 17.8-70.6 3.1.1 6.2.1 9.3 0-2.7 9.5-5.2 19-7.6 28.6 5.4-8.1 13-11.5 23.6-11.6 6.7-.1 19.8 1.1 16.8 16-4.3 17.6-5.9 22.2-9.5 37.6-4.5-.2-5.7-.1-9.5 0 2.4-7.8 7.7-27.6 9.3-34.3 2.2-10.3-5.6-12.4-11.5-12.4-12.9.1-18.6 9.2-21 15.2-3.7 10.2-6 20.9-8.5 31.5-3.1-.2-6.1-.1-9.2 0zm50.4 23.9c.4-2.9.7-5.5.7-7.5 3.5 1.9 6.6 2.2 8.1 2.2 2.6 0 5.6-1 7.5-2.7 2.6-2.1 7.5-8.3 11.2-14.5-2.3-18-4.9-35.9-7.5-53.8 4.5.2 6 .2 9.6 0 .1 5 .2 5.5 1.1 13.3 1.2 10.8 2.9 21.5 3.5 32.3l9-14.2 16.1-25.2s1.9-3.3 3.6-6.2c3.7.2 5 .2 9.4 0-14.2 21.3-28.4 42.6-42.6 64-2 2.9-3.6 5-5 6.5-4.1 4.4-9 6.9-16.2 6.9-4.6 0-8.3-1.1-8.5-1.1zm63.3-24.9c.4-2.6.6-5.1.9-7.7 4.8 2.3 9.5 3.4 14 3.4 2.2 0 10.8-.6 12.3-7.4.4-2.5-.3-4.6-1.9-6.5-1.8-2-6-5.9-9.7-9.9-1.9-2.1-3.7-4.5-4.3-7.8-.2-1.4-.2-2.7.1-4.1 1-4.4 6-12.6 20.2-12.6 4 0 8.2.5 12.8 1.4-.5 2.7-.8 5.2-1.1 7.4-8.4-3.8-17.7-2.6-21.1.9-4 4.2-1.1 8.7 1 10.9 3.6 3.8 7.9 7.5 9.8 10.1 1.1 1.5 2.8 4.1 3.1 7.1.2 1.7.1 6.1-3.8 10.4-4 4.4-10.7 6.5-17.3 6.5-6 0-10.3-.7-15-2.1zm60.3-62.7c.8-3.2 1.4-5.6 1.7-7.3 2.6.1 6.8.1 10 0-.2 1-.9 3.5-1.9 7.3-3.3-.1-6.5-.1-9.8 0zm-15.8 63.7c5.1-19.2 6.6-24.3 13.4-52.4 3.1.1 6.3 0 9.4 0-4.7 16.9-9.4 35.7-13.2 52.4-3.2-.2-6.4-.1-9.6 0zm61-53.6c9.2-.1 21.3 2.7 21.3 19.3 0 9.5-4.8 20.7-12.8 27.8-7.2 6.3-15.8 7.7-21.5 7.6-7.4-.1-19.1-1.9-21.1-15.4-.5-3.4-.4-7 .4-10.7 1.1-5.6 3.4-10.7 6.6-15.2 9-12.4 22.4-13.4 27.1-13.4zm-1.6 6.6c-2.9 0-12.6.8-18.5 10.6-2.2 3.5-3.7 7.3-4.6 11.5-1.3 6.1-1 12.6 4 16.9 2.3 1.8 5.3 2.7 9.1 2.7 9.1 0 16-5.1 20-13.2 1.2-2.5 4.6-10.1 3.8-17.8-.9-9.8-10.1-10.7-13.8-10.7z"/><path d="m575.6 2c7.6 0 14.4 4.2 14.4 13.9 0 11-7.6 15.2-15.3 15.2-6.8 0-14.7-3.2-14.7-13.8 0-5.4 2.6-15.3 15.6-15.3zm-.1 1.7c-9.6 0-13.5 6.5-13.5 13.6 0 7.2 4.2 12.1 12.7 12.1 10 0 13.3-6.8 13.3-13.2 0-2.9-.9-12.5-12.5-12.5zm4.9 18.3c-.2.6-.3 1.3-.4 2.1-1.6.3-3 .5-4.4.5-2.2 0-8.5-.7-8.5-7.9 0-5.2 3.7-8.5 9-8.5 1.4 0 2.8.1 4.3.4 0 .7 0 1.5.1 2.2-1.3-.4-2.5-.7-4.2-.7-4.2 0-6.7 2.7-6.7 6.5 0 4.6 3.2 6.1 6.2 6.1 1.3 0 2.8-.2 4.6-.7z"/></g></svg>