<svg viewBox="0 0 324 100" xmlns="http://www.w3.org/2000/svg" xmlns:xlink="http://www.w3.org/1999/xlink"><g fill="#0f181f"><path d="m2 82.5v15h4.1v-4.7h6.9c2.7-.1 6-.7 6-5.1 0-2.7-1.3-5.2-6-5.2zm4.1 3.2h5.6c1.5 0 3.1 0 3.1 2 0 1.9-1.6 1.9-3.1 1.9h-5.6z"/><path d="m29.4 82.5v15h4.1v-5.5h4.3l4.6 5.5h4.7l-4.8-5.9c1.8-.6 3.3-1.8 3.3-4.3 0-2.7-1.3-4.8-6-4.8zm4.1 3.2h4.8c1.5 0 3.1-.4 3.1 1.6 0 1.9-1.6 1.6-3.1 1.6h-4.8z"/><path d="m56 90c0 7.3 7.7 8 10.4 8 3.1 0 10.2-.8 10.2-8 0-7.1-7.3-7.9-10.2-7.9-3.8 0-10.4 1.2-10.4 7.9zm10.4-4.7c3.2.1 6.1 1.1 6 4.7-.1 4.2-3.3 4.7-6 4.7-2.6 0-6.2-.6-6.2-4.7 0-3 2.1-4.7 6.2-4.7z"/><path d="m94.3 82.1c2.1 0 4.1.4 6.1.9v1.6c-4.2-2-9.6-1.5-11.1 0-.7.6-.8 1.8-.1 2.5 1.7 1.7 6.3 1.9 10 3.6 1.2.6 2.5 1.5 2.5 3.1 0 3.6-4.6 4.2-7.6 4.2-2.2 0-4.6-.3-6.7-1.1v-1.7c1.8 1.1 3.8 1.4 5.8 1.5 2.3.1 5.1 0 6.5-1.4.7-.7.8-2.1 0-2.7-2.2-1.8-5.3-2.1-8-2.8-2.1-.6-4.4-1.6-4.4-3.9 0-3.2 4.3-3.8 7-3.8z"/><path id="x1" d="m114.4 82.5v15h1.5v-5.7h6.6c2.7-.1 6.7-.5 6.7-4.7 0-2.7-1.5-4.6-6.7-4.6zm1.5 1.3h7.3c3.5 0 4.6 1.3 4.6 3.3 0 1.9-1 3.4-4.6 3.4h-7.3z"/><path id="x2" d="m154.6 82.5v1.3h-11.1v5.1h10.5v1.3h-10.5v6.1h11.3v1.2h-12.8v-15z"/><use transform="translate(26.3)" xlink:href="#x2"/><path d="m194.4 82.5v15h7.3c4.2 0 9.1-.7 9.1-7.5 0-7.5-6.5-7.5-9.1-7.5zm4.8 1.3c3.7 0 8.2-.5 9.8 3.6.5 1.7.5 3.5 0 5.2-1.5 4.1-6.1 3.7-9.8 3.7h-3.5v-12.5z"/><path d="m223.8 82.5v15.1h1.4v-6.5h7.4l4.9 6.5h1.6l-5-6.7c2-.4 3.7-1.3 3.7-4.1 0-2.7-1.5-4.3-6.7-4.3zm1.4 1.3h6.6c3.5 0 4.6 1 4.6 3 0 1.9-1 3-4.6 3h-6.6z"/><path d="m249.8 90c0 7.3 7 8 9.7 8 3.1 0 9.7-.8 9.7-8 0-7.1-6.8-7.9-9.7-7.9-3.8 0-9.7 1.2-9.7 7.9zm9.7-6.7c6 .1 8.4 3.1 8.3 6.7-.1 4.2-2.7 6.6-8.3 6.7-5.8-.1-8.2-2.6-8.2-6.7 0-3 1.4-6.6 8.2-6.7z"/><g transform="translate(167.2)"><use xlink:href="#x1"/><use xlink:href="#x2"/></g></g><g fill="#0f181f"><path d="m162 2c-.6 0-1.2.1-1.8.5l-24 14c-1.1.6-1.7 1.8-1.7 3v28c0 1.2.7 2.4 1.7 3l24 14c.6.3 1.2.5 1.8.5s1.2-.2 1.8-.5l24-14c1.1-.6 1.7-1.8 1.7-3v-28c0-1.2-.7-2.4-1.7-3l-24-14c-.6-.3-1.2-.5-1.8-.5z"/></g><g fill="#f2c85c"><path id="p3" d="m161 3.8-24 14c-.6.3-1 1-1 1.7v28c0 .7.4 1.4 1 1.7l24 14c.3.2.7.3 1 .3.4 0 .7-.1 1-.3l24-14c.6-.3 1-1 1-1.7v-28c0-.7-.4-1.4-1-1.7l-24-14c-.3-.2-.7-.3-1-.3s-.7.1-1 .3z"/></g><g fill="#0f181f"><path d="m186 19.5v28l-24 14-24-14v-28l24-14z"/></g><g fill="#f2c85c"><path id="p5" d="m176.4 21.1c4.2 0 7.2 3.3 7.2 7.1 0 3.9-3.4 6.9-7.2 6.9h-32v10.3h-4v-14h35c2.6 0 4.4-.9 4.4-3.2 0-2.4-1.8-3.3-4.4-3.3h-35v-3.8z"/></g></svg>