<svg viewBox="0 0 362 100" xmlns="http://www.w3.org/2000/svg"><g><path d="m49.8 2h-47.8v59.7h32.8v-17.9h15c20.9 0 41.8-4.8 41.8-20.9s-20.9-20.9-41.8-20.9zm10.7 20.9c0 5.4-4.1 6.6-10.7 6.6h-15v-13.2h15c6.6 0 10.7 1.2 10.7 6.6z"/><path d="m190.1 39.6v-37.6h-32.9v35.8c0 8.1-5.4 11.4-16.4 11.4s-16.4-3.3-16.4-11.4v-35.8h-32.8v5.9c3.8 3.8 5.9 8.7 5.9 15s-2.1 11.2-5.9 15v1.7c0 17.9 13.7 25.1 49.2 25.1s49.3-7.2 49.3-25.1z"/><path d="m272.6 2h-41.8l-34.8 20.1v24.1l12.4-7.2 27.1 22.7h37.1l-42.1-35.4z"/><path d="m360 2h-37.1l-25.3 21.2-20.3-17.1-22 12.7 25.9 21.8.1 21.1h32.8v-21.1z"/></g><g><path d="m2 73.9v23.6h6.7v-6.2h3.6l4.3 6.2h7.1l-5.1-7.4c1.9-.9 4.7-3 4.7-7.4 0-5.1-3.7-8.8-10.5-8.8zm10.4 5.3c1.9 0 4.1.6 4.1 3.5s-2.3 3.4-4.1 3.4h-3.7v-6.9z"/><path d="m37.6 79.1h11.9v-5.2h-18.5v23.6h19v-5.1h-12.4v-4.3h10.5v-5h-10.5z"/><path d="m65.8 73.9-10.4 23.6h6.8l1.9-4.5h10l1.8 4.5h7l-10.5-23.6zm3.3 6.6 3 7.5h-6z"/><path d="m99.9 97.5c7.7 0 13.2-4.5 13.2-11.8 0-7.5-5.7-11.8-13.2-11.8h-11.1v23.6zm-4.5-18.2h4.3c4 0 6.7 2.2 6.7 6.4 0 4-2.5 6.5-6.7 6.5h-4.3z"/><path d="m115.9 73.9 9 15.2v8.4h6.7v-8.4l9-15.2h-6.5l-5.6 9.4-5.6-9.4z"/><path d="m167.4 79.1h11.8v-5.2h-18.5v23.6h6.7v-8.1h10.4v-5.1h-10.4z"/><path d="m210.9 85.7c0-6.6-5.1-12.2-13.1-12.2-7.7 0-13.1 5.2-13.1 12.2s5.5 12.3 13.1 12.3c7.9 0 13.1-5.5 13.1-12.3zm-19.5 0c0-4 2.7-6.7 6.4-6.7 3.6 0 6.4 2.6 6.4 6.7 0 4-2.7 6.8-6.4 6.8-3.8 0-6.4-2.9-6.4-6.8z"/><path d="m218.4 73.9v23.6h6.7v-6.2h3.6l4.3 6.2h7.1l-5.1-7.4c1.9-.9 4.7-3 4.7-7.4 0-5.1-3.7-8.8-10.5-8.8zm10.4 5.3c1.9 0 4.1.6 4.1 3.5s-2.3 3.4-4.1 3.4h-3.7v-6.9z"/><path d="m268.5 73.9h-6.7v23.6h18v-5.2h-11.3z"/><path d="m292.7 97.5v-23.6h-6.7v23.6z"/><path d="m308.2 79.1h11.8v-5.2h-18.5v23.6h6.7v-8.1h10.4v-5.1h-10.4z"/><path d="m333.9 79.1h11.9v-5.2h-18.5v23.6h19v-5.1h-12.4v-4.3h10.5v-5h-10.5z"/><path d="m360 94c0-2.4-1.7-3.8-3.8-3.8-1.9 0-3.9 1.3-3.9 3.8 0 2.4 1.9 3.8 3.9 3.8 2.1 0 3.8-1.5 3.8-3.8z"/></g></svg>