<svg viewBox="0 0 237 100" xmlns="http://www.w3.org/2000/svg" xmlns:xlink="http://www.w3.org/1999/xlink"><g><path d="m126 2c1 0 2.7.2 2.8.2-7.2 8.6-14.8 17-20.4 26.8 1.5 0 5.7-1 12.3-.5 16.5 1.2 25.2 11.7 25.2 12.4 0 .5-7 5.2-7.2 5.2-.5 0-7-8.7-22.1-9.3-14.8-.2-25.3 7.8-26.8 8.2.2-3.7 1.4-7.2 3-10.5 4.3-8.7 12.3-18.8 24.3-32.1.3-.3.6-.4 1.3-.4z"/><path d="m2.1 98h7.7v-14.7h13.6l11 14.7h7.5c.5 0 1-.2 1.4-.3l-11.5-14.4c6.9-.4 11.1-4.8 10.7-11.6-.6-10.5-10.3-10.8-11.5-10.8h-28.9zm27.9-30c5.7 0 6.1 8.9-.2 8.9h-20v-8.9z"/><path id="a" d="m88.8 60.9v7.1h-32.5v7.6h27.2v6.6h-27v8.7h32.3v7.1h-40.2v-37.1z"/><use transform="translate(47.9)" xlink:href="#a"/><path d="m150.9 60.9 16.3 29.8h1l16.6-29.8h10.3l-22.4 37.1h-9.7l-22.3-37.1z"/><path d="m203.5 60.9-21.5 37.1h10l4.8-8.9h22.9l5.1 8.9h8.9c.4 0 1.2-.3 1.2-.3l-21.6-36.8zm12.8 21h-15.7l7.5-14.2h.7z"/></g></svg>