<svg viewBox="0 0 286 100" xmlns="http://www.w3.org/2000/svg" xmlns:xlink="http://www.w3.org/1999/xlink"><g fill="#231f20"><path d="m2 93.9h8.3v-9.3h-8.3z"/><path d="m13.1 93.9h20.3v-9.3h-20.3z"/><path d="m38 93.9h97.9v-9.3h-97.9z"/><path d="m183.8 29.7h-8.1v48.3h-12.4v-48.3h-8.4v-11.8h28.9z"/><path d="m205.8 55.6-3.3-26.5h-1.5l-2.8 26.5zm15.2 22.4h-12.4l-1.4-11.1h-10.2l-1.3 11.1h-12.4l9-60.1h19z"/><path d="m242.8 29.1h-7.7v17.3h7.7zm12 19.7-9.5 8.7h-10.2v20.5h-12v-60.1h22.2l9.5 9z"/><path d="m258.7 17.9v60.1h25.3v-11.2h-13.4v-14.9h11.4v-11.2h-11.4v-11.6h13.4v-11.2z"/><path d="m154.9 86.7c-1.6-1.6-3.4-1.8-4-1.8-2.5 0-4.7 1.9-4.7 4.6 0 2.4 2 4.6 4.9 4.6 2.3 0 3.8-1.5 4.1-3.4h-3.4v-1h4.6c0 3.3-2.1 5.5-5.3 5.5-3.9 0-6-2.9-6-5.7 0-2.9 2.2-5.7 5.8-5.7 2.2 0 3.7.9 4.9 2.1z"/><path d="m158.9 90.9c0 1.7 1.3 3.2 3.1 3.2s3-1.5 3-3.2c0-1.8-1.3-3.2-3-3.2s-3.1 1.4-3.1 3.2zm7.1 0c0 2.1-1.4 4.2-4 4.2s-4.1-2.2-4.1-4.2c0-2.2 1.6-4.2 4.1-4.2 2.4 0 4 2 4 4.2z"/><path d="m175.3 88.5c-.5-.5-1.1-.8-1.6-.8-.7 0-1.2.5-1.2 1.1 0 .7.9 1.2 1.5 1.5 1.5.8 2 1.5 2 2.4 0 1.3-1.1 2.4-2.4 2.4-.9 0-1.8-.4-2.4-1.2l.7-.7c.5.6 1.1.9 1.7.9.8 0 1.4-.6 1.4-1.3 0-.6-.5-1.2-1.5-1.7-.9-.5-1.9-1.1-1.9-2.3s.9-2.1 2.2-2.1c.7 0 1.5.4 2.2 1.1z"/><path d="m178.6 83.9h1v3h1.6v.9h-1.6v7.1h-1v-7.1h-1.3v-.9h1.3z"/><path id="g2a" d="m182.4 86.9h1.1v1.2c.5-.9 1.3-1.4 2.1-1.4.3 0 .6.1.8.3l-.5.8c-1-.5-1.8.3-2.2 1.6-.1.4-.2 1.4-.2 2.8v2.7h-1.1z"/><g id="g2b"><path d="m187.8 90.9c0 1.7 1.3 3.2 3.1 3.2s3-1.5 3-3.2c0-1.8-1.3-3.2-3-3.2s-3.1 1.4-3.1 3.2zm7.2 0c0 2.1-1.5 4.2-4.1 4.2s-4.1-2.2-4.1-4.2c0-2.2 1.6-4.2 4.1-4.2 2.4 0 4.1 2 4.1 4.2z"/><path d="m196.8 86.9h1v1.4c.4-.5.9-.9 1.4-1.2s1-.4 1.6-.4 1.1.2 1.6.5.8.7 1 1.2.3 1.3.3 2.4v4.1h-1v-3.8c0-.9 0-1.6-.1-1.9-.3-1.2-1.1-1.6-2-1.6-1.3 0-2.3 1-2.6 2.2-.1.4-.2 1.1-.2 2.2v2.9h-1z"/><path d="m206.5 90.9c0 1.7 1.2 3 3.1 3s3.1-1.3 3.1-3.1c0-2-1.5-3.1-3-3.1-1.8 0-3.2 1.4-3.2 3.2zm6.1-4h1v6.4c0 1.1 0 1.9-.2 2.4-.6 1.6-2.1 2.3-3.8 2.3-.8 0-2.1-.2-3.1-1.1-.3-.3-.6-.8-.9-1.4h1.1c.6 1.1 1.6 1.6 2.9 1.6.5 0 2.1-.1 2.7-1.4.2-.4.3-1 .3-1.9v-.4c-1.1 1.4-2.5 1.5-3.1 1.5-2.1 0-4-1.7-4-4.1s1.9-4.1 4-4.1c1.5 0 2.4.8 3.1 1.6z"/><path d="m222.4 90.1c-.5-2.2-2.3-2.4-3-2.4-1.9 0-2.6 1.4-2.8 2.4zm.9 2.6c-.7 1.4-1.9 2.4-3.8 2.4-3 0-4.1-2.6-4.1-4.2 0-2 1.4-4.2 4.1-4.2 2.3 0 4 1.7 4 4.3h-7c0 1.9 1.3 3.1 2.9 3.1 1.4 0 2.3-.8 3-1.9z"/><use transform="translate(42.6)" xlink:href="#g2a"/></g><path d="m229.3 92.9 1 .5-1.5 2.7-.7-.3z"/><path d="m236.4 94.9h1v-11.1h-1z"/><use transform="translate(52.3)" xlink:href="#g2b"/></g><g fill="#dd1731"><path d="m275.4 11.4h8.6v-9.4h-8.6z"/></g><g fill="#e71834"><path d="m149.6 11.4h98v-9.4h-98z"/><path d="m252.2 11.4h20.3v-9.4h-20.3z"/><path d="m23.2 29.1h-8.7v13.8h8.7zm12.1 48.9h-12.1v-24h-8.7v24h-12v-60.1h23.1l9.2 9v15.3l-6.8 6 7.3 6.3z"/><path d="m61.4 29-8.4.1v37.7h8.4zm12 40-8.9 9h-14.6l-9.4-9v-42.1l9.4-9h14.1l9.4 9z"/><path d="m111.9 69-9.1 9h-14.4l-9.1-9v-42.1l9.1-9h13.9l9.6 9v13.8h-12.1v-11.6h-8.5v37.7h8.5v-14.5h12.1z"/><path d="m154 78h-13.6l-10.6-26.7v26.7h-11.9v-60.1h11.9v27.5l9.7-27.5h13l-11.6 28z"/></g><g fill="#fff"><path d="m280.2 8.5c-.2-.3-.2-.7-.2-1-.1-.6-.4-.6-.8-.6h-.2v1.6h-.7v-3.7h1.2c.9 0 1.5.3 1.5 1 0 .5-.4.7-.7.8.1.1.2.1.2.2.2.2.2.5.3.8 0 .1 0 .5.2.9m-1.4-2.3c.3 0 .6 0 .6-.4s-.3-.4-.6-.4h-.6v.8"/><path d="m279.6 3.5c-1.8 0-3.2 1.4-3.2 3.2s1.4 3.1 3.2 3.1 3.1-1.3 3.1-3.1-1.3-3.2-3.1-3.2zm0 .5c1.5 0 2.6 1.2 2.6 2.7s-1.1 2.6-2.6 2.6-2.7-1.1-2.7-2.6 1.2-2.7 2.7-2.7z"/></g></svg>