<svg viewBox="0 0 494 100" xmlns="http://www.w3.org/2000/svg"><g fill="#373435" transform="scale(.1)"><path d="m449.5 20 432 242.8v191.8l-432-243.1-240 136v38l222.5 125-166.5 98.5-245.5-138.5v-208.5z"/><path d="m881.5 529v208l-432 243-429.5-243.5v-191l429.5 242.5 58-33.5-176-101 166-98.5 183 103 11-6.5v-62.5l-381.5-215 151-82.5z"/><path d="m1391 306h263.3v76.5h-246c-27.5 0-62.8 7.1-62.8 40.6 0 32.6 39.1 37.2 62.8 37.2h112.8c49.3 0 133.2 9.4 133.2 115.9 0 97.3-68.6 117.3-124.6 117.3h-261.5v-77.5h252c21.1 0 59-3 59-39.8 0-30-35.7-38.2-59-38.2h-126.3c-101.6 0-125.7-59.7-125.7-114.9 0-61.5 29.5-117.1 122.8-117.1z"/><path d="m2118.9 306.3-212.3 192.7 215.1 194.5h-114l-214.5-194.5 214.4-192.7z"/><path d="m2588 306.3h-385v76.2h385zm0 154h-385v77.7h385zm-385 155.7v77.8h385v-77.8z"/><path d="m2743.7 306.3v309.7h311.9v77.6h-385.9v-387.3z"/><path d="m3263.9 305.8h256.5v75.7h-247.9c-55.4 0-61.8 43.3-61.8 59.4v118.5c0 28.7 18.7 56.4 61.8 56.4h247.9v77.8h-256.5c-63.3 0-128.9-24.5-128.9-128.5v-138.4c0-82.6 48.3-120.9 128.9-120.9z"/><path d="m3730.3 306.3c-91.1 0-129 50.2-129 125.8v135.8c0 75.6 37.9 125.9 129 125.9h128.2c91.1 0 129.7-50.3 129.7-125.9v-135.8c0-75.6-38.6-125.8-129.7-125.8zm5.9 76.2h116.4c43.5 0 58.8 31.9 58.8 72.6v89.8c0 40.7-15.4 70.9-58.8 70.9h-116.4c-43.5 0-58.1-30.2-58.1-70.9v-89.8c0-44.5 8.4-72.6 58.1-72.6z"/><path d="m4066.6 306.3h259c94.5 0 129.6 47.6 129.6 109.2v10.5c0 87.9-61.7 111.1-153.5 111l180 156.6h-115.5l-183.5-157.1-116.1.3v-76.3h264c25.7 0 47.4-13.6 47.8-38.6.4-26.1-25.4-40.4-50.8-40.4h-261z"/><path d="m4920 306.3h-385v76.2h385zm0 154h-385v77.7h385zm-385 155.7v77.8h385v-77.8z"/></g></svg>