<svg viewBox="0 0 106 100" xmlns="http://www.w3.org/2000/svg" xmlns:xlink="http://www.w3.org/1999/xlink"><defs><path id="x1" d="m24.63 56.16.84 1.58c13.57.86 18.31 1.06 27.65 1.04 9.03-.01 17.1-.17 27.49-1.12l.84-1.58c-9.75.74-18.99 1-28.49 1-7.27 0-14.97.17-28.34-.92z"/><path id="x2" d="m25.24 35.44c-.02.07-.05.1 0 .19.11.09-.2-.2-.45-.55-.25-.41-.59-1.7-.59-1.87s.16-.7.18-.89c.02-.2.37-.61.43-.69s.28.05.36-.03c.14-.08.42-.43.51-.46.7-.3 1.52-.15 1.83-.12 1.35.03 1.43 1.01 1.39.9-.05-.11-.23-.25-.36-.14-.08.15-.15.21-.16.3-.03.17.55.89.55 1.04 0 .11-.23.18-.22.27.01.08.39.54.39.54s.62.06.69-.04c.07-.09-.1-.05 0-.36.1-.25.87-.99.93-1.2.12-.86.72-1.52.97-2.01.24-.43 1.07-1.84 1.04-1.96-.03-.11-.02-.17.01-.3.03-.15.13-.1.2-.27.07-.23-.15-1.33-.11-1.51s.13-.09.16-.26c.03-.18-.08-.4 0-.54.07-.14.43-.44.54-.52s.32-.19.32-.1c0 .19-.14.22-.17.28-.02.05.04.16 0 .27-.03.1-.11.2-.14.34-.03.08.13.46.08.53-.06.08.12.04.18-.05.06-.1-.06-.32.01-.6.07-.22.24-.32.28-.35.05-.02.3.06.2.14-.04.07-.2.37-.21.51 0 .15.15.83.06 1.08s-.36.72-.4.84c-.04.13-.61 2.69-.82 3.45-.22.76-.4 1.23-.57 1.6-.23.3-.44.44-.52.55-.07.11-.47.83-.84 1.19-.31.43-1.17 1.17-1.28 1.35s0 1.15.06 1.71c.07.63.56 2.24.67 2.99.11.81.05 1.81-.01 2.56-.06.76-.31 1.31-.4 1.73-.09.36-.09.75-.09.75s.2.07.3.03c.17-.04-.07.29.12.27.13-.03 1.06.5.61-.05-.4-.61.5-.37.75-.4.25-.04.77-.02.95-.17s.52-.29.69-.28c.11.01.24.32.32.32s.49-.31.74-.34c.18-.04.42.11.47.1.06-.01.3-.11.38-.15.14-.03.71-.09.83-.04.13.05.79.57.82.68.03.12.04.49.02.78-.01.29-.1.66-.18.84-.54.96-1.21 2.14-1.21 2.14s-1.12 1.52-1.52 2.12c-.76 1.3-.96 1.8-1.1 2.17-.06.23-.05.65.01.75.06.09.89.76 1.01.86.13.1-.06.12.06.24s1.14.61 1.41.64c.2.03.31-.11.35-.01.09.22-.12.23-.22.32s0 .24-.06.31c-.08.06-.42.07-.5.19-.08.06 0 .08-.23.08s-1.17-.52-1.53-.59c-.29-.07-.72-.33-1.08-.27-.3.06-.9.01-1.13.01s-.49-.03-.62-.16c-.19-.13 0-.47.16-.82.82-1.44 1.39-2.9 1.99-4.44.06-.22.19-.73.13-.91-.05-.23-2.14-.1-2.47.12-.26.15-.56.28-.86.32-.36.04-.61-.17-.85-.11-.3.06-.55.14-.9.15-.41 0-.28-.18-.67-.2-.33-.02-2 .05-2.25.18s-.49.23-.65.32c-.16.08-.58.04-.76.12-.25.15-.89.96-1.1 1.33-.15.31-.34-.1-.49-.09-.15 0-.41 0-.82-.03-.35-.03-1.03-.42-1.18-.39-.14.04-1.36.53-2.09.65s-1.38-.12-1.38-.12-.2-.1-.38-.06c-.18.03-.54.15-.95.21-.35.06-.39 0-.57-.03-.25-.03-1.26-.27-1.46-.27-.19 0-.27.01-.44.02-.17 0-.55.1-.84.2-.29.09-.79.08-.92.11-.18-.06-.27-.07-.37.01-.1.09-1.49.94-1.58 1.08-.09.13-.33.16-.46.28-.19.13-.35.26-.51.13-.16-.06-.23-.45-.22-.29 0 .17.05-.3-.01-.36s-.1-.11-.09-.24c0-.19-.04-.24.08-.39.21-.27.28-.87.34-.97.08-.14.5-.33.79-.37s1.06-.12 1.25-.2c.18-.08.23-.24.42-.24.12 0 .44.4.6.37s.22-.09.44-.13c.16-.03.18.07.37.04s1.36-.58 1.91-.74c.5-.16 1.22-.43 1.5-.51.35-.02.44.26.58.25.14 0 .29-.07.42-.01.19.04.36.33.51.31.14-.03.99-.39 1.39-.76.46-.31.62-.45 1.29-.96.61-.45 1.52-1.13 2.03-1.36.45-.23.86-.26 1.12-.4.2-.19.32-.14.49-.36.18-.23.78-1.19 1.06-1.51.34-.4.88-.78.86-.99-.03-.27-.02-.51-.15-.83-.14-.32-.25-1.14-.35-1.54-.17-.34-.54-1.19-.64-1.06-.1.14-1.15-.05-1.32 0-.22.06-.28.05-.56.02-.28-.02-.56-.55-.7-.92-.08-.31-.14-.71-.13-1.06 0-.3 0-.56-.06-.53s-.12-.29-.25-.28c-.13 0-.28.12-.43.09-.23-.03-.28-.19-.19-.24.09-.04.43-.24.55-.33s.22-.09.11-.22-.34-.2-.43-.31c-.15-.17-.14-.32-.02-.36.06-.04.08-.06.14 0s.4.14.45.05c.04-.08-.22-.27-.32-.52-.06-.14-.11-.35-.06-.41.05-.05.27-.06.29.02.07.23.24.41.29.46.05.04.2-.03.2-.13 0-.09-.29-.41-.32-.55-.03-.13-.06-.28 0-.37.08-.08.18-.13.28-.04.05.13.11.22.26.47.15.26.22.56.45.62.09.03.14.02.22-.04.13-.06.23-.06.21-.19-.01-.18-.01-.28.02-.44.04-.16.2-.35.31-.37s.29.03.27.11-.14.51-.15.74c0 .17-.09.35-.07.46.01.11-.01.54-.03.61-.02.08.02.17-.05.27s-.3.31-.36.35c-.06.05-.06.32-.02.46.03.14.41.68.53.68s.56-.34.68-.36c.12-.01.12.08.26.07s.19-.07.25-.14c.06-.06-.32-.09-.34-.14s.33-.3.4-.34c.07-.1.09-.25.13-.26.11 0 .64-.32.77-.44s.41-.48.45-.55.12-.12.15-.24c.02-.13.06-.52.04-.71-.04-.3-.31-.3-.33-.22z"/><path id="x3" d="m38.29 55.64c.06-.05.3-.16.17-.17-.19-.01-.52-.04-.49.11 0 .02.25.14.33.06zm12.53-33.45c.08.71 0 1.99 0 1.99s.76 1.2.82 1.76c.03.14.49.29.49.29s-.07.37 0 .39c0 0 .3-.06.65-.35 0 0-.22-.48-.48-.53.24-.41.24-.31.43-.73 0 0 .37 0 .47-.04s.02-.22.02-.22c-.22.11-.66-.09-.46-.13s.04-.24.25-.5c.24-.32.08-.33.18-.55.11-.17.39-.69.73-.84.21-.15.55-.41.87-.51.25-.1.87.04 1.07.04.21 0 .3.28.3.28l.58.28s-.33.2-.32.09c0-.11-.16.28-.16.28l.34.06c.11-.08.18-.18.27-.27.25.27.53.52.86.83l-.1.33s-.04.07-.01.18-.21.19-.22.28c-.01.15.18.65.05.8-.07.16-.33.06-.3.23.02.23.2.74.2.74s.04.09-.04.15c-.08.05-.4.04-.4.04-.1.25-.23.42-.34.6-.11.04-.24.12-.24.12s.01.12-.01.22c-.03.1-.28.44-.49.48s-.8-.48-.93-.41-.57.53-.54.73c.04.2.98.87.98.87s-.31 0-.28.08c.03.07.04.17.18.26s.55-.02.77.06.7.35.96.73c.27.38.84 1.69.89 1.8.05.12.78.62 1.33 1.25.61.64 1.51 1.64 1.51 1.64s-.47 0-.48.07c-.01.08-.05.17-.05.17s.15.14.33.17c.24.02.44 0 .7.05.16.09.29.2.29.2s.47 0 .7.09c.23.16 1.09.86 1.35 1.1.33.19 1.36.61 1.46.78-.04.13.11.32.11.32l.66.19s.29.13.43.24c.13.12.74.51.74.51s.15.04.04-.16c-.11-.14-.86-.53-.86-.53s.37.13.44.14c.13 0 .18-.02.34.06s.33.3.48.52c.15.16.52.23.57.5s.02.45.04.36c-.1.42-.14.22-.19.29s0 .52-.14.59c-.2.06-.3-.02-.3-.02s.09.12.02.27c-.06.09-.09.16-.21.12s-.69-.79-.78-.93c-.11-.11-.16-.1-.11.09.13.15.24.3.28.47.11.24.1.32-.04.45-.05.09-.14.16-.27-.06-.04-.08-.16-.3-.24-.47s-.22-.46-.33-.52c-.18-.06-.88-.72-1.02-.91-.2-.19-.11-.29-.34-.51-.2-.14-.55-.14-1.04-.27-.42-.12-1.89-.68-2.52-1.05-.69-.37-1.81-1.59-2.17-1.87-.41-.28-1.27-.62-1.74-1.11-.54-.44-.97-1.41-1.14-1.48-.23-.08-.39-.2-.6 0-.21.13-.47.3-.8.68-.26.43-.32.54-.58 1.03-.32.55-.51.47-.62 1.14-.11.74-.03 1.59-.1 1.84-.06.3-.11.1-.16.33-.06.17-.07.19 0 .32.09.13.14.04.22.23.07.19-.04.34.03.52.07.12.93.32.85.42-.09.09-.32.26-.2.37.12.16.18.02.31.02s.36.23.36.23.03.05.33.09c.24.05.21.02.37 0 .16-.03.13-.06.31-.04.24.02.29.02.56.18s.79.49.87.66c.08.1-.16.05-.28.01-.17-.1-.25-.18-.42-.23s-.69-.09-.81-.03-.26.09-.15.16c.12.14 1.01.09 1.04.18.04.09-.23.04-.21.12.01.08.07.06.15.26s-.05.21.15.23c.27.01 0 0 .3-.05.24-.05.46-.15.58-.02.12.12.38.42.21.46-.09-.17-.2-.28-.32-.3-.13-.01.06.31 0 .38-.06.06-.24.04-.31.08s-.04.18.09.15.25.02.44.06c.24.06.77.9 1.1 1.1.39.2 1.56.9 1.69 1.38.14.55-.32 1.76-.32 2.19 0 .37-1.05 4.69-1.39 5.22-.1.51-.15.43-.19.78-.04.29-.18 1.46-.09 1.63s.47.67.76.75.28.01.44.07.15.27.38.34c.16.07.63.05.76.12.18.13.16.32.36.32.12 0 .07.02.19.08s.19.04.28.02c.08 0 .36.03.25-.06-.05-.09-.15-.08-.23-.09-.69-.1-.6-.34-.78-.43-.11-.09.17-.02.26.02s.35.24.43.27c.08.04-.06-.23.05-.23.1 0 .25.24.41.34.11.09.36.26.28.38-.08.11-.24.3-.54.51-.24.15-.58-.11-.75-.12-.23 0-1.68-.04-2 .12-.38.1-.9.55-1.2.65-.23.1-.58-.04-.74-.13s-.41-.88-.52-1.22c-.11-.32.39-2.49.36-4.12.01-.89-.25-1.9-.19-2.54.06-.59.89-3.12.82-3.39s-1.33-.96-1.49-.95c-.16 0-.48.18-.66.27-.19.1-.87-.17-1.05-.27-.9-.4-1.18-.7-1.88-1.07-.71-.37-2.5-1.45-2.71-1.39-.14 0-.48 1.15-.55 1.45-.06.31-.06.71-.16.79-.44.29-2.66 2.25-2.66 2.25s-.45 1.02-.68 1.37c-.46.67-1.48 1.24-1.67 1.55-.2.31-.43 1.24-.8 1.86-.37.57-1.8 1.2-2.11 1.87-.31.6-.22.71-.49 1.03-.2.26-.21.22-.3.37-.24.37-.65.35-.85.5-.2.2-.38.33-.59.48-.28.15-.38.13-.55.37-.17.3-.19.27-.31.43-.12.15-.47.23-.69.2-.21-.03-.22-.13-.26-.26-.04-.2.09-.36.02-.38-.06-.02-.07-.02-.16-.06-.09-.05-.08-.24-.14-.38s-.06-.18-.08-.3c0-.46.12-.78.22-.87s.42-.21.42-.21c.11 0 .19.17.1.2-.08.04-.29.14-.33.21s.1.12.2.04c.1-.09.22-.11.51-.09.22.02.09.08.11.16.01.08.17.06.24.01s0-.12.17-.18.13.01.38-.04c.19-.06.18-.11.42-.24.25-.19.23-.23.26-.33s.11-.08.11-.19-.07-.16-.14-.17c-.06 0-.32 0-.26-.12.07-.11.34-.44.51-.56.23-.13.19-.3.28-.46s.09-.79.3-1.34c.21-.5.26-.62.62-1.24.3-.55 1.11-1.45 1.37-1.79.26-.27.22-.37.29-.44.27-.23.2-.08.42-.16.16-.08.1-.06.19-.2.09-.2.07-.25.13-.41s.28-.99.32-1.4c.04-.48.05-1.04.14-1.21.36-.63.29-.19.4-.39.04-.06-.14-.15-.15-.32-.01-.16-.08-.2.01-.28s1.37-1.97 1.44-2.04.06-.32-.05-.27c-.11.04-.29.34-.32.28s.06-.52.14-.58.17.1.3.06.09-.04.11-.13.11-.25.06-.35-.32.25-.36.18c-.04-.06.01-.55.12-.65.1-.1.98-.6 1.14-.81.16-.15.31-.5.13-.41-.12.09-1.12.86-.99.65.19-.27.79-.57.86-.73s-.19-.19-.29-.17c-.11.03-.31.33-.54.49-.17.16-.13.16-.21.06s-.1-.3 0-.42.13-.15.21-.24c.15-.14.14-.42.21-.63s.05-.1.15-.2.14-.08.24-.09h.54c.12 0 .11.1.23.13s.37-.16.22-.19-.96-.24-.96-.24.23-.08.28-.15c.06-.08-.06-.18-.06-.18s-.06-.74.01-.66c.07.14.23.04.3.02.07-.01.25-.09.25-.09.03-.06.28-1.55.35-2.06.04-.15 0-1.37.2-2.35.26-.98.57-2.1.62-2.46.04-.43-.04-1.24.16-1.83.21-.65.82-1.05.8-1.32-.01-.21-.38-1.98-.44-3.27-.13-1.29-.12-3.99.2-4.23.12 0 .4-.13.4-.13s.12-.06 1.4-1.03c1.38-.72 2.77-1.6 3.03-1.78.24-.21 1.23-1 1.43-1.03.2-.04.3 0 .16.15-.14.14-.51.46-.72.6-.14.14 0 .15.25.09.19-.06.6-.43.88-.47.22-.04.38.17.27.24-.36.22-.38.25-.62.33-.21.08-.18.2-.03.13.13-.06.19-.17.56-.32.18-.09.45 0 .25.14-.17.11-.27.24-.4.34-.35.29-.55.44-.49.44.25 0 .86-.58 1.06-.58.32-.01.13.14.05.25-.15.25-.72.48-.77.6-.07.16.46.17.61.26.16.08.39.59.14.49-.24-.11-.06.04-.73-.16-.6-.26-1.5-.24-1.61-.24s-1.21.72-1.84 1.31c-.62.53-1.68 1.4-1.76 1.71 0 0 .5 1.03.58 1.74z"/><path id="x4" d="m81.31 29.52c-.26-.11-.64-.36-.47-.49.11-.13.32-.1.14-.24-.18-.21-.7-.59-.82-.87-.12-.34-.3-.97-.47-1.06-.11-.1-.3-.29-.28-.51s.23-.17.41-.16c.12.01.48.37.49.47 0 .16.1.41.1.41s.16.12.19.02c.03-.09.2-1 .04-1-.09-.01.03-.28-.08-.17-.11.1-.34.16-.37.05-.03-.1.35-.42.3-.46s-.24.05-.26-.09.12-.22.12-.22.17-.16.28-.13c.18.03.65.45.72.79.06.29.3.05.46.06.1.02.63.99.53 1.11-.11.13.12.89.05.98-.06.09.76.76.57.89-.25.14-.25.16-.27.32-.01.16-.04.16-.05.29-.01.14.58 1.38.82 2.18.24.86.57 1.99.66 2.1.09.05.09.79-.1 1.14-.19.3-.28 1.92-.2 2.11.02.18.21.34.22.52 0 .18-.17.86-.14 1 .02.14.12.57.16 1.33.04.7.03.06.16.34.12.27.79 1.24.88 1.64.09.33-.08.83 0 1.07.08.17.94 2.01 1.52 3.8.64 1.86.69 3.28.59 3.68s1.11.7 1.11 1.03c0 .34.06.33-.02.62-.08.23-.27.38-.31.56-.04.17-.25.39-.19.58.12.18.24.28.28.44.04.17-.17.14-.11.49.06.29-.05.31-.05.31s.34.04.28.21-.69.55-.73.49c-.03-.06-.03-.3-.11-.29-.08 0-.31.58-2.08 1.06-1.78.54-.58-.14-1.19-.09-.66.05-1.71.04-1.91-.21-.21-.24-1.48-.89-1.48-.89s-1.41-.92-1.57-.87c-.16.04.35.74.35.74s.2.66-.04.81c-.25.15-1.75.11-1.94.1-.19 0-1.18.59-1.65.53-.54-.11-.47-.17-.78-.22-.3-.06-.65.29-.87 0-.23-.23-.34-.28-.34-.28s-.24.08-.26-.1-.12-.32.17-.43c.22-.17.4.2.53.08.13-.19.63-.2.88-.52.25-.33.18.14.27.03s.8-.27.81-.39.21-.11.08-.17-.43 0-.32-.06c.1-.13.54-.41.78-.45.18-.04.5.01.55-.11.06-.13.18-.26 0-.26-.19 0 0-.18-.18-.14s-.35.12-.51.09c-.09-.03-.18-.14-.29-.35-.34-.5-.57-2-.87-2.06-.24-.07-.06-.19-.16-.12-.11.06-.18.64-.79 1.07-.55.49-1.08.96-2.91 1.99-1.77 1.04-2.31 1.67-2.45 1.7-.14.02-.22.41-.29.52-.07.17-.11.84-.42 1.07-.26.29-.49.42-.73.41-.31-.01-.63-.13-.83-.43-.2-.24-.3-.32-.85-.37-.61-.04-1.82-.32-1.94-.43s.02-.28-.24-.21c-.32.13-.18-.08-.38-.2-.14-.12-.51-.28-.54-.4-.02-.13.36-.3.36-.3s-.02.2.1.15.69-.07 1.02-.17c.4-.16.76 0 .93-.22.09-.08 0-.13.05-.23.05-.09.28-.12.31 0 .03.13.05.08.16.09s.22-.17.42-.13c.27.06.66 0 .83-.15.17-.14.05-.09.45-.25.47-.21 1-.5 1.77-1.14.77-.69 1.27-1.31 2.15-2.53s.52-.48.9-1.04c.44-.55.38-.72.95-1.33.63-.67.7-.76 1.18-1.1.54-.41.6-.4.95-.46.42-.06.47 0 .65.07.19.06.37.16.29.04-.05-.09-.14-.23-.29-.29-.28-.12-.34-.14-.65-.13-.25.02-.44-.06-.55.06-.13.15-.57.39-.79.69-.06.06-.12.22-.19.32-.05.08-.19 0-.18-.13.03-.36-.13-.09.01-.54.08-.39.01-.3.26-.57.24-.33.31-.22.38-.39.08-.17.19-.2 0-.2s-.32.08-.09-.07c.23-.16.17-.16.47-.21.24-.05.4-.17.82-.08.47.09 1.27.55 1.45.73.17.24.72.75 1.02.93.31.24.09.03.49.32.46.23.41.32.59.44s.4.21.51.52c.17.25.18.12.39.22.2.1.3.06.45.23.16.18.04.13.31.15.21.02.24.11.31 0 .06-.11-.61-.9-.85-1.42-.25-.59-.71-1.05-.83-1.6-.12-.49-.21-.96-.36-1.06-.14-.1-.16-.91-.12-1.05s.11-.15.2-.43c.09-.35.1-.29 0-.48-.09-.19-.09-.57 0-.68.09-.17.21-.21.24-.13.03.14.04.38.04.52s.03.66.03.66c.14.08.17.34.2-.08.02-.47.16-.27.01-.73-.08-.53-.13-1.15-.22-1.18s-.25 0-.29.21c-.04.19 0 .42-.15.48-.14.06-.12-.09-.17.12-.04.27.07.49-.07.56-.21.09-.29-.42-.5-.8-.22-.33-.17-.19-.49-.44-.38-.32-1.25-.86-1.59-1.21-.35-.4-.09.09-.39-.2-.37-.23-1.67-1.81-2.23-2.86-.51-1.12-.36-.83-.67-1.1-.08-.05-.16-.27-.2-.42-.18-.42.12-.07-.37-.3-.44-.29-.85-.75-1.08-1.01-.22-.32-.05-.04-.34-.44-.35-.33-.5-.41-.3-.48.26-.08.38-.02.5.05.23.14.06.11.22.27s.29.59.36.25c0-.28.14-.08-.11-.4-.2-.32.17-.1-.21-.38-.32-.33-.2-.3-.37-.34-.29-.06-.43-.12-.43-.12s-.08-.16.35-.15c.33 0 .17-.06.43.06.26.11.04-.06.49.15.38.21.26-.09.38.21.12.35.31.77.49 1.06.12.35-.18.21.11.47.22.26.11.26.32.36.06.03.17.06.23.15.15.25.47.76.91 1.19.51.37 1.04.77 1.56 1.24.45.41.56.48.71.78.21.24.21.24.27.36.06.13.13.2-.06.22-.26.01-.22-.1-.37.04s-.32.06-.22.33c.09.21.59.46.73.53.14.08.28.04.48.04.19 0 .21 0 .27.15.12.15.23.04.22.32 0 .22.03.26.04.4 0 .14-.15.1 0 .22.14.11.08.39.14.11.06-.21.07-.1.07-.31 0-.2-.22.01.09-.27.3-.34.34-.08.39-.41.05-.27.33-.19.04-.35-.23-.17-.14-.29-.29-.17s.3.1-.15.12c-.51.03-.32.08-.58-.02-.2-.1-.36-.28-.39-.56-.04-.22.01-.34-.08-.49-.1-.15-.07-.03-.11-.27-.03-.3.09-.19-.03-.3-.12-.12-.05.07-.11-.21s.11-.31.02-.32c-.1 0-.53-.11-.56-.18-.03-.06.11-.33.2-.46s.13-.28.21-.34c.03-.06.24-.23.18-.24-.06 0-.2.04-.29-.04-.03-.14.01-.18.02-.23 0-.06.2-.25.2-.25s.12-.19.09-.29-.09-.31 0-.44.16-.24.13-.29c-.09-.17-.17-.06-.17-.06l-.06.19-.36.04c-.13.04.32-.32.32-.32s-.43.06-.48-.03.59-.3.57-.52c-.02-.16.7-.04.87-.18.11-.15.56-.41 1.03-.4.4 0 .8.13 1.04.07.18-.06.53-.06.57.03.05.08-.04-.09.35.17l.34.26s.11.04.17.08c.05.05.15.4.25.43.09.03-.08.21.08.33.22.12.03.26.28.24.2-.01.18.2.21-.15.04-.29.05-.31-.04-.7-.09-.45-.36-.81-.36-1.43 0-.56-.03-1.01-.1-1.44-.06-.49-.3-1.41-.3-1.41"/><g id="a"><path d="m2 97.24.61-2.04c.28.25.89.61 1.72.61.84 0 1.43-.57 1.43-1.34 0-.94-.44-1.5-1.63-2.53-1.37-1.21-1.98-2.28-1.98-3.7 0-2.19 1.4-3.58 3.38-3.58 1.02 0 1.93.3 2.44.76l-.47 1.75c-.29-.25-.86-.5-1.57-.5-.77 0-1.31.5-1.31 1.37s.37 1.4 1.54 2.42c1.45 1.26 2.21 2.22 2.21 3.84 0 2.24-1.43 3.7-3.17 3.7s-2.64-.31-3.2-.76z"/><path d="m9.6 97.83v-12.98h2.53v10.97h2.21v2.01z"/><path d="m19.2 87.93h-.03l-1.19 5.41h2.36zm2.13 9.9-.64-2.77h-3.09l-.67 2.77h-2.18l3.49-12.98h2.24l3.41 12.98z"/><path d="m23.83 91.33c0-3.45 1.37-6.66 4.22-6.66 1.04 0 1.79.28 2.3.76l-.5 1.72c-.26-.21-.66-.38-1.28-.38-1.7 0-2.18 2.38-2.18 4.57 0 2.13.61 4.45 2.18 4.45.66 0 1.01-.17 1.28-.38l.52 1.83c-.48.47-1.25.76-2.39.76-2.86 0-4.16-3.1-4.16-6.67z"/><path d="m36.6 97.83-2.71-6.64v6.64h-2.5v-12.98h2.5v6.03l2.74-6.03h2.47l-2.91 6.03 3.2 6.96z"/><path d="m40.16 97.83v-12.98h2.5v10.97h2.68v2.01z"/><path d="m46.33 84.84v2.42h2.53v-2.42zm0 3.44v9.55h2.53v-9.55z"/><path d="m57.21 97.83-4.05-8.7v8.7h-2.1v-12.98h2.21l3.73 7.92v-7.92h2.1v12.98z"/><path d="m61.32 97.83v-12.98h5.44v2.01h-2.94v3.38h2.53v1.95h-2.53v3.64h2.94v2.01z"/><path d="m69.23 92.15h-1.89v-1.92h1.89z"/><path d="m71.85 86.15v11.67h-1.63v-11.67h-2.1v-1.31h5.82v1.31z"/><path id="x9" d="m75.98 91.31c0 2.6.43 5.3 2.3 5.3 1.89 0 2.3-2.7 2.3-5.3 0-2.64-.49-5.36-2.3-5.36s-2.3 2.72-2.3 5.36zm-1.63.03c0-3.62 1.09-6.66 3.93-6.66s3.93 3.04 3.93 6.66c0 3.64-1.09 6.67-3.93 6.67s-3.93-3.03-3.93-6.67z"/><use transform="translate(9.3)" xlink:href="#x9"/><path d="m93.36 97.83v-12.98h1.63v11.67h2.5v1.31z"/><path d="m98.1 97.24.44-1.34c.35.3.99.64 1.92.64 1.06 0 1.86-.71 1.86-1.86 0-1.21-.6-1.89-1.95-3-1.39-1.15-2.13-2.26-2.13-3.7 0-2.04 1.34-3.32 3.06-3.32 1.01 0 1.8.32 2.24.76l-.35 1.16c-.33-.28-.89-.61-1.72-.61-.99 0-1.66.68-1.66 1.83 0 1.13.53 1.76 1.86 2.85 1.41 1.15 2.33 2.21 2.33 3.81 0 2.11-1.34 3.52-3.32 3.52-1.19 0-2.01-.29-2.59-.76z"/></g><path id="b" d="m53.04 5.16c-18.3 0-33.16 14.99-33.16 33.54s14.86 33.62 33.16 33.62 33.08-15.07 33.08-33.62-14.79-33.54-33.08-33.54z"/><g id="c"><path d="m23.86 57.44-1.99-.14c6.26 10.89 17.94 18.19 31.24 18.22 13.45.03 25.21-7.38 31.46-18.44l-1.92.22c-6.12 10.01-17.1 16.61-29.54 16.59-12.32-.03-23.14-6.57-29.25-16.45zm-6.9-18.78c-.01 6.3 1.54 12.14 4.2 17.36l1.92.14c-2.89-5.13-4.5-11.12-4.49-17.5.04-19.4 15.54-35.06 34.67-35.02s34.62 15.77 34.58 35.23c-.01 6.2-1.6 11.97-4.41 17.02l1.92-.22c2.6-5.04 4.04-10.74 4.06-16.8.04-20.36-16.14-36.83-36.15-36.87-20.02-.04-36.26 16.36-36.3 36.66z"/><path d="m103.43 51.47c.01-3.07-4.95-4.38-11.81-5.2 0 0 10.94 1.38 10.6 4.77-.51 4.41-18.55 7.33-45.05 7.41-23.8.07-52.94-1.31-53.59-5.76-.45-3.31 10.96-5.27 10.96-5.27-6.5.85-11.97 2.77-11.96 5.83 0 5.05 32.65 7.14 54.52 6.97 21.59-.16 46.31-3.66 46.33-8.75z"/><use transform="translate(.8 .3)" xlink:href="#x2"/><use transform="translate(.7 .1)" xlink:href="#x3"/><use transform="translate(.8 .3)" xlink:href="#x4"/></g><mask id="m"><use fill="#fff" xlink:href="#b"/><use xlink:href="#x1"/><use xlink:href="#x2"/><use xlink:href="#x3"/><use xlink:href="#x4"/></mask></defs><use fill="#fff" xlink:href="#a"/><use fill="#f79210" xlink:href="#b" mask="url(#m1)"/><use fill="#050505" xlink:href="#c"/></svg>