<svg viewBox="0 0 332 100" xmlns="http://www.w3.org/2000/svg" xmlns:xlink="http://www.w3.org/1999/xlink"><g fill="#fff"><path d="m64.8 87.9c2.4 0 3.5-1.1 3.5-2.6 0-1.7-1.5-2-2.8-2h-2.6l-1.1 4.6zm2.6-8.5c3.3 0 5.2 2 5.2 5.5 0 4.6-3.4 7-7.8 7h-4.4l-1.5 6.1h-4.6l3.8-18.6z"/><path d="m91.7 79.4c3.5 0 5.6.9 5.6 4.6 0 2.8-1 4.6-4.3 5.3 1.5.2 1.9 1.5 1.9 3.2 0 1.1-.2 2.4-.2 3.5 0 .7 0 1.6.2 2h-4.8v-4.4c0-1.6-.6-2.6-2.2-2.6h-3.2l-1.6 6.6h-4.8l3.7-18.2zm-2.7 7.9c2 0 3.5-.7 3.5-2.4 0-1.5-1.5-2-2.6-2h-3.5l-.8 4.4z"/><path id="b" d="m115.9 78.8c2.8 0 7.5 1 7.5 7.6 0 3.8-3.1 11.6-10.7 11.6-6.7 0-7.5-5.2-7.5-7.4 0-7.2 4.9-11.8 10.7-11.8zm-2.6 15.3c3.5 0 5.5-4.1 5.5-7 0-3.7-2.8-4-3.7-4-3.8 0-5.5 4.5-5.5 7 0 1.4.7 4 3.7 4z"/><path d="m134.1 79.4-3.7 18.4h5l1.3-7.2h7.9l.6-3.5h-7.6l.6-3.5h9l.9-4.2z"/><path d="m156.4 79.4-3.7 18.4h14.8l.9-4.2h-10.3l.9-3.5h9l.9-3.7h-9l.4-2.8h10.1l.9-4.2z"/><path id="c" d="m176.8 91.7c0 4 3.4 6.3 7.6 6.3 5.2 0 8.3-2.8 8.3-6.1 0-3.5-2.8-4.8-5.4-5.5s-3.5-.7-3.5-2c0-1.1 1-1.5 2.4-1.5 2 .1 2.9.8 2.7 2.2h4.6c0-3.7-2.2-6.1-7.1-6.1-3.7 0-7.4 1.9-7.4 6.1 0 2.8 1.8 4 4.2 4.6 2 .5 4.8.8 4.8 2.8 0 1.1-.9 1.8-2.9 1.8-2.4 0-3.2-.6-3.2-2.6z"/><use transform="translate(24)" xlink:href="#c"/><path d="m228.1 79.4-3.9 18.4h4.8l3.9-18.4z"/><use transform="translate(135)" xlink:href="#b"/><path d="m269 79.4-3.7 18.4h4.6l2.2-12.3 4.3 12.3h5.1l3.7-18.4h-4.4l-2.2 12h-.4l-4.4-12z"/><path d="m301.4 84.4.6 6.6h-3.9zm-12.4 13.4h4.8l2.1-3.5h6.4l.2 3.5h4.8l-3.3-18.4h-4.2z"/><path d="m319.5 79.4-3.7 18.4h13.3l.9-4.2h-8.7l3-14.2z"/></g><g fill="#e1001a"><path d="m279.3 2c6.1 0 10.9 4.8 10.9 10.7v36.8c0 5.7-4.8 10.7-10.9 10.7h-266.4c-6.1 0-10.9-4.8-10.9-10.7v-36.8c0-5.9 4.8-10.7 10.9-10.7zm0 55.3c4.2 0 7.4-3.9 7.4-7.8v-36.8c0-4.2-3.5-7.2-7.4-7.2h-266.4c-3.9 0-7.2 3-7.2 7.2v36.8c0 3.7 3.3 7.8 7.2 7.8z"/><path d="m30.4 40.5-11.6-10.1c-2.3-1.8-3.3-4.4-3.3-7.1.1-5 4.6-9.9 9.7-9.9h21.6c1.5 0 2.4 1.1 2.4 2.4v2.6c0 1.1-1.1 2.4-2.4 2.4h-11.8l11.4 8.7c2.5 2.1 4.1 5.5 4.1 8.7.1 3.8-3 9.9-11.3 9.9h-20.8c-1.1 0-2.4-1.1-2.4-2.4v-2.6c.2-1.5 1.3-2.6 2.4-2.6z"/><path d="m72 20.8c-1.1 0-2 1.5-2.4 3.7 0 0-.2 2.6-.2 5.7s.2 5.7.2 5.7c.2 2.6 1.5 3.7 2.4 3.7h7c1.1 0 2-1.1 2.4-3.7 0 0 .2-2.7.2-5.5 0-3.3-.2-5.9-.2-5.9-.2-2.6-1.3-3.7-2.2-3.7zm17.7-7.4c4.2 0 6.1 2.4 7.2 7 .8 3.3 1.5 4.6 1.5 10.5s-.7 7.3-1.5 10.5c-1.1 4.4-3.3 6.5-7.2 6.5h-27.1c-3.7 0-6.1-2.3-7.2-6.5-.8-3.1-1.6-4.8-1.6-10.5s.8-7.2 1.6-10.5c1.1-4.6 3.3-7 7.2-7z"/><path id="a" d="m128.4 13.4c1.5 0 2.4 1.1 2.4 2.4v2.6c0 1.1-1.1 2.4-2.4 2.4h-9.6v6.3h9.6c1.5 0 2.4 1.2 2.4 2.5v2.6c0 1.5-1.1 2.4-2.4 2.4h-9.6v6.3h9.6c1.5 0 2.4 1.1 2.4 2.4v2.7c0 1.5-1.1 2.4-2.4 2.4h-23.2c-1.1 0-2.4-1.1-2.4-2.4v-30.4c0-1.3 1.1-2.2 2.4-2.2z"/><path d="m149.4 13.4c1.5 0 2.4 1.1 2.4 2.4v11.6h8.3v-11.8c0-1.1 1.1-2.4 2.4-2.4h11.4c1.1 0 2.4 1.1 2.4 2.4v29.7c0 1.5-1.1 2.4-2.4 2.4h-11.4c-1.1 0-2.4-1.1-2.4-2.4v-11.4h-8.3v11.4c0 1.5-.9 2.4-2.4 2.4h-11.4c-1.1 0-2.4-1.1-2.4-2.4v-29.7c0-1.1 1.1-2.2 2.4-2.2z"/><path d="m213.9 13.4c1.5 0 2.4 1.1 2.4 2.4v29.7c0 1.5-1.1 2.4-2.4 2.4h-11.2c-1.5 0-2.8-.2-3.7-1.5l-10.9-16.4v15.5c0 1.5-1.1 2.4-2.4 2.4h-2.4c-1.5 0-2.4-1.1-2.4-2.4v-29.9c0-1.5 1.1-2.4 2.4-2.4h10.3c1.7 0 3.2 0 4.1 1.5l11.6 16.8v-15.9c-.2-1.1.9-2.2 2.2-2.2z"/><path d="m235.3 13.4c1.5 0 2.4 1.1 2.4 2.4v25.1h4.8c1.5 0 2.5 1.1 2.5 2.4v2.4c0 1.5-1.2 2.4-2.5 2.4h-18.5c-1.5 0-2.4-1.1-2.4-2.4v-30.1c0-1.1.9-2.2 2.4-2.2z"/><use transform="translate(145.6)" xlink:href="#a"/></g></svg>