<svg viewBox="0 0 676 100" xmlns="http://www.w3.org/2000/svg"><g fill="#b52319"><path d="m673.9 2h-671v7.5h671z"/><path d="m5.9 97.4h44.5c16.2 0 24.3-2.8 28.4-9.7 1.3-2.1 2-4.9 2-7.9 0-5-2.8-10.5-9.6-15.1l-23.1-15.6c-1.5-1-2-2.2-1.7-4 .3-1.7 1.7-2.3 4-2.3h26.6c2.3 0 2.9-1.1 2.9-4v-2.3c0-2.3-.6-4-2.9-4h-45.1c-16.2 0-23.8 2.8-27.8 9.7-1.2 2.1-2 4.7-2 7.6 0 5.1 2.6 11 9.6 15.4 10.4 6.9 23.7 15 23.7 15 1.7 1.1 2.3 2.3 1.7 4s-2.3 2.3-4 2.3h-26.6c-2.3 0-2.9 1.1-2.9 4v2.3c0 2.9 0 4.6 2.3 4.6z"/><path d="m158 79c-.6 5.7-2.3 8.1-5.2 8.7-2.3.5-17.4.3-20.3 0-2.4-.3-4.6-2.4-5.2-8.7-.3-3.3-1.1-7.4-1.1-14.3s.8-11.1 1.1-14.4c.6-5.7 2.3-8 5.2-8.6 2.3-.5 17.3-.3 20.2 0 2.3.3 4.7 2.3 5.3 8.6.3 3.3 1.1 7.5 1.1 14.7s-.8 10.7-1.1 14zm35.8-13.8c0-10.3-3-16-5.2-19.5-3.6-5.7-11.7-10.6-20.2-12.7-2.1-.5-15.1-.5-25.5-.5s-23.2.1-25.4.5c-8.7 1.8-16.6 7-20.2 12.7-2.2 3.5-5.2 9.2-5.2 19.5s3 16.1 5.2 19.6c3.6 5.7 11.6 10.7 20.2 12.6 1.5.3 15 .6 25.4.6s22.7-.1 25.4-.6c8.7-1.5 16.9-6.8 20.3-12.6 2.4-4 5.2-9.3 5.2-19.6z"/><path d="m280.6 42.2c2.3 0 2.9-1.1 2.9-4v-2.3c0-2.3-.6-4.3-2.9-4.3h-65.9c-4 0-7.6 3.8-7.6 7.8v49.4c0 5.2 4.7 7.5 7.6 7.5h65.9c2.3 0 2.9-1.1 2.9-4v-2.3c0-2.3-.6-4.1-2.9-4.1h-37.6c-2.9 0-4.1-1.2-4.1-3.5v-10.9c0-2.8 1.1-4 3.4-4h37.1c2.3 0 2.9-1.1 2.9-4v-2.3c0-2.3-.6-4-2.9-4h-35.8c-2.9 0-4.1-1.2-4.1-3.5v-7.4c0-2.9 1.2-4.1 3.5-4.1z"/><path d="m304.9 32.5h17.9c5.2 0 8.1 1.7 8.1 7.4v16.7c0 2.3 1.1 3.4 4 3.4h26.6c2.3 0 4.1-.5 4.1-3.4v-16.7c0-4.6 2.3-7.4 7.5-7.4h17.9c4.6 0 7.6 1.7 7.6 7.4v49.5c0 4.6-2.4 7.5-7.6 7.5h-17.9c-4 0-7.5-1.8-7.5-7.5v-16.7c0-2.9-1.2-3.4-4.1-3.4h-26.6c-2.9 0-4 1.1-4 3.4v16.7c0 5.2-2.3 7.5-7.5 7.5h-18c-5.2 0-7.5-1.8-7.5-7.5v-48.9c0-5.2 1.8-8 7-8z"/><path d="m445.4 35.3c-4.6-2.8-8.7-2.8-10.4-2.8h-13.3c-4 0-6.7 2.8-6.7 7.4l-.2 54.6c0 2.3 1.1 2.9 4 2.9h2.9c2.3 0 4-.2 4-2.8v-23.6c0-2.3.7-4 2.4-4.6 2.3-.6 4.6 1.2 6.3 2.3l37 25.3c5.2 3.4 8.7 2.9 10.4 2.9h13.3c4 0 7-2.9 7-7.5v-54.1c0-2.3-1.2-2.8-4.1-2.8h-2.9c-2.3 0-4 .5-4 2.8v23.6c0 2.3-.6 4-2.3 4.6-2.3.6-4.9-1.3-6.4-2.3z"/><path d="m587.7 97.4c2.3 0 2.9-1.1 2.9-4v-2.3c0-2.3-.6-4-2.9-4h-27.8c-5.2 0-7.5-2.3-7.5-7.5v-39.1c0-5.7-2.9-7.5-7.5-7.5h-19.1c-5.8 0-7.5 2.9-7.5 7.5v49.4c0 5.7 3.4 7.5 7.4 7.5z"/><path d="m670.9 42.2c2.3 0 3-1.1 3-4v-2.3c0-2.3-.7-4-3-4h-65.9c-4 0-7.5 3.5-7.5 7.5v49.4c0 5.2 4.6 7.5 7.5 7.5h65.9c2.3 0 3-1.1 3-4v-2.3c0-2.3-.7-4.1-3-4.1h-37.5c-2.9 0-4.1-1.1-4.1-3.4v-10.9c0-2.9 1.2-4.1 3.5-4.1h36.4c2.3 0 2.9-1.1 2.9-4v-2.3c0-2.3 0-4-2.9-4h-35.8c-2.9 0-4.1-1.2-4.1-3.5v-7.4c0-2.9 1.2-4.1 3.5-4.1z"/></g></svg>