<svg viewBox="0 0 650 100" xmlns="http://www.w3.org/2000/svg"><g><path d="m96.9 2c-36.5 0-66.1 12.2-66.1 27.3 0 7.5 7.3 14.2 19.1 19.2l34.3 14.5c5.4 2.3 8.7 5.2 8.7 8.3 0 6.6-12.8 11.9-28.7 11.9h-41.9c-2.4 0-4.8.7-6.5 2.3l-13.8 12.5h63.1c39 0 70.6-13.1 70.6-29.1 0-8.5-8.7-16.2-22.8-21.5l-34-12.7c-5.2-1.9-8.3-4.8-8.3-8 0-6.1 11.9-11 26.6-11h43.1c2.3 0 4.6-.9 6.3-2.5l12.4-11.2z"/><path d="m246.6 2h-75.2c-2.8 0-5.2 1.8-6 4.5l-27.1 91.4h29c2.8 0 5.2-1.8 6-4.4l12.4-42.7 5.2 8.1c1.2 1.8 3.2 2.8 5.4 2.8h27.8c33.6 0 50.5-12.5 56.5-32.5 1.9-6.3.5-13.9-4.9-19.5-4.8-5-14.5-7.7-29.1-7.7zm-34.1 46.2h-25.9l9.7-32.6h24c9.3 0 18.7.5 23 5.3 2.2 2.4 2.6 5.9 1.6 9-4.3 13.5-19.4 18.3-32.4 18.3z"/><path d="m331.7 2h-28.3c-2.8 0-5.2 1.8-6 4.5l-27 91.4h28.3c2.8 0 5.2-1.8 6-4.5z"/><path d="m426 2h-75.9c-2.7 0-5.1 1.6-5.9 4.2l-27.1 91.3h29.5c2.8 0 5.2-1.8 6-4.5l13.7-45.6 30 46.1c1.8 2.8 5 4.4 8.3 4.4h33l-26.6-39.9c29.3-1.1 43.4-9.9 49-28.8 2-6.9.1-14.3-4.9-19.5-4.8-5-14.5-7.7-29.1-7.7zm-32.8 42.5h-26.1l8.3-29h24.1c9.3 0 18.6.5 22.9 5.3 2.2 2.4 3 5.9 2 9-4.3 13.5-18.2 14.7-31.2 14.7z"/><path d="m511.4 2h-28.3c-2.8 0-5.2 1.8-6 4.5l-27 91.4h28.3c2.8 0 5.2-1.8 6-4.5z"/><path d="m525.6 2c-2.7 0-5.1 1.9-5.9 4.5l-2.8 9.1h45.3l-24.8 82.3h28c2.8 0 5.3-1.8 6.1-4.5l23.3-77.8h33.8c2.4 0 4.7-.8 6.5-2.4l12.9-11.2z"/></g></svg>