<svg xmlns:xlink="http://www.w3.org/1999/xlink" viewBox="0 0 264 100" xmlns="http://www.w3.org/2000/svg"><defs><clipPath id="cp"><path id="a" d="m13.7 2-10.3 6.5 47.8 31.9 10.8-7.4zm-11.7 8.4v55.3l47.9 32.3v-17.3l-13.7-8.7v-22.1l13.6 8.8.1-16.3zm60.9 25-10.8 7v16.7l10.8-7zm0 38.2-10.8 7.1v17.3l10.8-7.2z"/><path id="b" d="m87.1 2-33.7 22.7 10.7 6.9 32.5-22.2zm10.9 9.4-33 22.3v19.6l-12.9 8.3v16.3l12.9-8.7v20.1l33-22.6zm-59.6 42.7v16.5l11.4 7.3v-16.4z"/></clipPath></defs><use fill="#cd693b" xlink:href="#a"/><use fill="#af9274" xlink:href="#b"/><g fill="#b44e2b"><path d="m108.2 15.1c-.7 1-.8 2.5-.8 4.2 0 3.1 1.1 4.5 2.5 5.5 4 2.9 5.2 2.8 5.3 5.9 0 1.1-.4 1.9-1.3 1.9-1 0-1.1-.5-1.1-2v-2.7h-5.2v1.5c0 1.7-.1 3.3.5 4.4.9 1.8 3.1 2.6 6.2 2.6 2.4 0 4.6-.6 5.6-2.2.7-1 .8-2.5.8-4 0-4-1-5.4-2.9-6.7-3.6-2.4-4.9-2.6-4.9-5 0-1.1.2-1.7 1-1.7s1.1.4 1.1 1.7c0 .6 0 1.9.4 2.5h5.1v-.8c0-2.2.3-4.2-.9-5.4-1.3-1.3-3-1.8-5.7-1.8s-4.7.7-5.7 2.1z"/><path d="m122.4 13.5v22.5h5.7v-9.1h1.9c5.2 0 5.3-2.6 5.3-5.2v-1.9c0-4.6-.1-6.3-6.8-6.3zm5.6 2.8c1.5 0 2.3.4 2.3 1.9v3.8c0 1.9-1 2-2.3 2z"/><path d="m143.5 13c-5.6 0-6.3 2.5-6.3 6.8v9.8c0 4.3.7 6.8 6.3 6.8 5.7 0 6.7-2.5 6.7-6.8v-9.8c0-4.3-1-6.8-6.7-6.8zm.9 4.2v14.9c0 1.1-1.9 1.1-1.9 0v-14.9c0-1.1 1.9-1.1 1.9 0z"/><use transform="matrix(1 0 0 1 -55.4 0)" xlink:href="#u4"/><path id="u1" d="m166.2 13.5v3.1h3.6v19.4h5.6v-19.4h3.6v-3.1z"/><path id="u2" d="m187 13c-6.2 0-6.6 2.2-6.6 7.3v10c0 4 1.2 6.2 5.6 6.2 1.9 0 3.7-1.4 4.1-2.1l.5 1.6h2.9v-11.5h-6.7v3.4h1.1v3.8c0 1.6-2 1.9-2 0v-14.5c0-1.4 2-1.3 2 0v4h5.6v-.9c0-5.5-1.4-7.3-6.5-7.3z"/><path id="u3" d="m195.5 13.5v22.5h10.2v-3.6h-4.9v-7.4h4.8v-3.2h-4.8v-5.2h4.9v-3.1z"/><path id="u4" d="m207.8 13.5v22.5h5.3v-10.4c.6 0 1 0 1.4.3.7.5.5 2 .5 2.7 0 2.5-.1 7.2.5 7.4h5.5c-.5-2-.4-4-.4-6 0-5.1-.5-5.8-3.6-6.2 3-1.1 3.6-1.8 3.6-4.8 0-5.1-2-5.5-7-5.5zm5.3 2.8c1.4 0 2.3.5 2.3 1.8v2.2c0 1.7-.8 2-2.3 2z"/><path id="u5" d="m226.3 13.5-4.4 22.5h4.8l1.2-6h2.4l.8 6h5.9l-3.5-22.5zm3 3.4c.6 4.2.9 7.6 1.1 9.7h-2.5c.1-2 .8-5.4 1.4-9.7z"/><path d="m225.6 9.3v2.8h3.3v-2.8zm5.2 0v2.8h3.3v-2.8z"/><use transform="matrix(1 0 0 1 71.3 0)" xlink:href="#u1"/><use transform="matrix(1 0 0 1 56.3 0)" xlink:href="#u3"/><path d="m108.3 52.3v22.4h10.5v-3.4h-5v-19z"/><use transform="matrix(1 0 0 1 -101.2 38.7)" xlink:href="#u5"/><path d="m137.1 52.3v22.4h4.3v-17.2l3.8 17.2h6.5v-22.4h-4.2v15.6l-2.8-15.6z"/><g transform="matrix(1 0 0 1 -26.5 38.8)"><use xlink:href="#u2"/><use xlink:href="#u3"/><use xlink:href="#u4"/></g><path d="m206.1 62.1c-1.7 0-3.5.6-3.5 2.5v8.2c0 1.5 1.9 2.2 3 2.2 1.3 0 1.8-.5 2-1l.3.8h1.9v-6.2h-3.5v1.5h.6v2.5c0 1-1.3 1.1-1.3 0v-8c0-.9 1.2-.8 1.2 0v2h3v-2.1c0-1.6-1.6-2.4-3.7-2.4z"/><path d="m213.5 65.4v-.7h-2.4v9.9h2.4v-7.5c0-.7 1.3-.7 1.3 0v7.5h2.3v-7.5c0-.6 1.3-.7 1.3 0v7.5h2.6v-7.8c0-.8-.1-2.2-1.6-2.2-.9 0-1.6.4-2.2.8-.4-.4-.9-.8-1.6-.8-.8 0-1.5.4-2.1.8z"/><path d="m222.1 62.3v12.3h2.6l.2-.7c.1.2.8.9 1.8.9 1.7 0 1.8-1.5 1.8-2.9v-4.5c0-1.6-.2-2.7-1.8-2.7-.6 0-1.2.2-1.8.8v-3.2zm3.7 4.8v5.5c0 .8-1.1.7-1.1 0v-5.5c0-.7 1.1-.8 1.1 0z"/><path d="m229.6 62.2v12.4h3v-5.6h1.1v5.6h3v-12.4h-3v4.6h-1.1v-4.6z"/></g><g clip-path="url(#cp)"><g transform="matrix(.349 0 0 .349 -19.7 -2.8)"><path fill="#c06338" d="m95.9 13.9c13.1 8.5 27.1 16.9 40 25.7 5.5 3.6 11.7 6.9 16.8 11.2 1.4 2.8 3.8 3.9 6.2 5.9 5.2 3.7 11.1 6.9 15.9 11.1 7.5 6.6 16.4 11.3 23.9 18l-1.1.4c-8.3-5.7-16.6-11.5-24.7-17.4-2.8-2.8-6.1-4.6-9.3-6.7-9.1-6.5-17.7-13.8-27.4-19.5-3-2-5.7-4.5-8.7-6.4-1.9-.1-1.9.7-2.5 2.2 3.3 4.7 9.3 5.4 12.2 10.1-.2 1-.4 1.9-.7 2.9-9.4-6.2-18.2-13-27.3-19.7-2-.8-2.1-.6-2.2 1.4-1.1-.2-2.2-.6-3.3-.9-1.8-2.5-6.9-3.7-7.2-6.8 2.1.9 3.8 2.1 5.9 2.8-3.2-4.3-8.4-6.9-12.6-10.2z"/><path fill="#b44e2b" d="m89.7 17.8c4.2 3.4 9.6 5.8 12.8 10.1-2.1-.7-3.9-1.9-5.9-2.8.3 3.1 5.4 4.3 7.2 6.8-6.8-1.7-12.1-8.2-18.3-11.4 1.3-1 2.9-1.8 4.3-2.7z"/><path fill="#c15c33" d="m85.3 20.7c6.2 3.2 11.6 9.6 18.4 11.3 1.1.3 2.2.7 3.3.9.1-2 .1-2.2 2.2-1.4 9.1 6.7 17.9 13.5 27.3 19.7 7.6 6 15.7 11.2 23.3 17.2-3.1 1.7-5.3-5.2-9.4-2.5-8.3-3.4-14.8-10.5-22.6-14.6-.5.5-.8 1.1-.9 1.6 7.9 6.4 16.6 12.2 24.9 18.1 2.5 2 5.2 3.3 6.8 6.1-4.4-2-8.5-5.6-12.6-8.3-1.3-.8-3.9-3.7-5.1-1.5 3.5 3.7 8.8 5.4 11.7 9.5-.9.3-1.8.5-2.8.8 2.4 3 6.5 4.5 8.9 7.5-2.7-.3-4.3-1.9-6.4-3.5-3.4-2.7-7-4.9-10.5-7.3-1.1.5-2 1.2-3.1 1.7-3.3-1.9-7-5.7-10.9-5.8 5.8 5.1 12.7 8.9 18.5 14.1l.1 1c-6.8-4.3-13.4-8.8-20.7-13.1-5.4-4.4-10.7-7.6-17.2-11.8-1.1-2.2-3-3.3-4.7-4.9 1-1.7-.9-2.5-2-3.5-5.1-2.8-8.6-7-14.2-8.9-2.9-3.9-8.1-6.3-11.8-9.3-.9-3.2 2-.8 3.2-.2 3.5 1.9 6.6 5.8 10.5 6.4-1.5-3.5-7.6-4.2-7.9-7.8 8.4 4.4 16.1 10.6 23.8 16.1 1.7 1.1 3.2 2.3 5.2 2.7-1.1-2-2.9-3-4.6-4.3-4.3-3-8.5-6.2-12.9-9.1-1-.7-1.7-1.5-2.3-2.5 2.4-.3 3.7 1.1 5.6 2.3 4.3 2.7 8.4 7 13.3 8.6-5.6-6.3-14.6-10-20.8-15.8l1-.9c4.2 1.5 7.5 5.5 11.7 6.7-1.9-3.6-5.2-4.3-8.3-6.6-3.4-2.3-6.5-5-9.8-7.5.7-.4 1.3-.8 2-1.3z"/><path fill="#b54f2c" d="m83.2 21.9c3.3 2.5 6.5 5.1 9.9 7.5 3.1 2.2 6.4 2.9 8.3 6.6-4.3-1.3-7.5-5.2-11.7-6.7l-1 .9c6.2 5.8 15.2 9.6 20.8 15.8-4.9-1.6-9-5.9-13.3-8.6-1.9-1.2-3.2-2.6-5.6-2.3.6 1 1.3 1.9 2.3 2.5 4.4 2.9 8.6 6.1 12.9 9.1 1.8 1.3 3.5 2.3 4.6 4.3-2-.5-3.5-1.6-5.2-2.7-7.7-5.5-15.4-11.7-23.8-16.1.3 3.6 6.5 4.3 7.9 7.8-3.9-.6-7.1-4.5-10.5-6.4-1.2-.6-4.1-3-3.2.2 3.7 3 8.8 5.4 11.8 9.3-4.2-.8-6.2-4.3-10.2-5.9-2.6-2.2-6-3.9-8.4-6.2z"/><path fill="#c06c41" d="m68.7 31c2.4 2.3 6.1 3.9 8.7 6 3.9 1.7 5.9 5.2 10.2 5.9 3.9 5.2 11.7 8.1 16.1 12.4 1.7 1.6 3.6 2.7 4.7 4.9-13.4-9.4-26.8-17.6-41.9-27.7z"/><path fill="#ca6c3d" d="m127.4 36c3 1.9 5.7 4.4 8.7 6.4 9.6 5.7 18.3 13.1 27.4 19.5-2.7 4.6 1.9 6.5 5.5 7.7 4.1 5.9 11.3 7.9 15.5 13.3-4.9-1.3-9.4-7.6-15-7.9-3.3-2.2-6.3-4.8-9.7-6.8-7.6-5.9-15.8-11.1-23.3-17.2.3-1 .5-1.9.7-2.9-2.9-4.7-8.8-5.4-12.2-10.1.7-1.5.6-2.2 2.5-2.2z"/><path fill="#df814f" d="m62.5 38.5c6.2 3 12.6 8.5 18.6 11.9 2.1 1.2 3.9 2.6 5.6 4.4-8.4-2.3-15.9-8-24.1-11-.1-1.7 0-2.8 0-5.3z"/><path fill="#b54b29" d="m87.5 43c5.6 1.9 9.1 6.1 14.2 8.9 1.1 1 3 1.8 2 3.5-4.5-4.3-12.3-7.1-16.1-12.4z"/><path fill="#d26339" d="m62.6 43.8c8.2 3 15.7 8.7 24.1 11 3.6 1.8 7 3.8 10.1 6.3-2.3 1.5-5.3-2.5-8.1-2.4-8.9-3.9-17.5-8.4-26.2-12.8z"/><path fill="#e0844f" d="m62.5 45.9c8.6 4.5 17.3 8.9 26.2 12.8-3.6.8-7.1-3.3-10.1-1.4-1.8-.3-3.6-1.3-5.3-2.1-3.2-1.4-6.3-3.5-9.7-4.3 2 2.9 6.5 4.1 9.6 5.3 7.8 4.7 16.8 7.7 24.8 12.1 2.9 1.3 5.8 2.7 8.7 4.1-3.5.9-1.7 3-4 4.4-1.6-.9-2.6-3.1-4.6-1.9-3.5-1.2-7.3-1.9-9.2-5.2-1.7-1.6-2.2-1-4.2-.4-4.6-1.8-9-3.7-13.3-6.2-1-.3-1.2.2-.5 1.4 4.9 3 10.4 4.7 15.5 7.5 10.1 4.4 19.9 9.7 29.9 14.3-1.1 1.6-2.6 2.6-4.2 3.8-8.3-4.1-16.8-7.6-25-11.8-7.5-2.8-14-7.3-21.6-9.3.7 1.1 1.3 1.7 2.6 2.2 7.4 2.7 13.9 7 21.3 9.8 6.1 3.1 12.2 6 18.3 8.8-.2 1-.4 2-.5 3-2.2-2.8-4.9-2.1-7.6-3.9-8.2-3.5-16.2-7.8-24.6-10.8-2.8-2.2-6.1-4-9.6-5-1 .5-2 1.2-2.9 1.8-.1-9.7-.1-19.3 0-29z"/><path fill="#e0844f" d="m62.5 86 .8-.2c1.5 2 3.1 1.5 5.2 2.3 3.3 1.5 6.6 2.8 9.4 5.2 3.8.1 7.3 3 10.7 4.7 1.3 2 2.4 4 3.6 5.9.3-.9.5-1.9.8-2.8 1.2.9 1.4 2.2 1.9 3.5 1.4-1.2 4.1-2.9 3.7.5.4 2.4-2.3 3-4 2-2.7-1.5-5.8-1.4-8.6-2.8-1.5-.9-2.3.2-3.8.6-.2-2.4-2.3-3.3-4.3-3.9-1.3.9-1.8-.9-2.8-1.5-1.8-.2-3.6-.4-4.1 1.8-2.9-.9-5.6-2.3-8.4-3.4-.1-4-.1-7.9-.1-11.9z"/><path fill="#cd6539" d="m127.6 51.2c7.8 4.2 14.4 11.2 22.6 14.6 1.7 2.4 3.2 3.8 6.2 4.2-1.4-2.1-3.9-3.3-6.2-4.2 4.1-2.7 6.3 4.2 9.4 2.5 3.5 2 6.4 4.6 9.7 6.8 11.2 8 22 16.3 33 24.6-.8.2-1.7.5-2.5.7.4.9.9 1.9 1.3 2.8-6.3-3.7-12.1-8.5-18.1-12.7-4.2-3.8-9.4-5.6-13.6-9.5-.7.4-1.3.8-1.9 1.2 5.6 4.8 12 8.3 17.4 13.3 6 4.4 12.2 8.5 18.1 12.9 1 .7 1.7 1.6 2.3 2.6-2.9-.6-5.5-3.4-8-4.9-5.2-3-12.4-9.5-17.9-11.8-.4 2.8 4.7 4.6 6.5 6.3 4.2 3.6 10 6.1 13.4 10.5-4.1-1-7.1-5-10.9-6.8.6 3.4 6.1 4.8 8 7.7-3.3.6-6.4-3.3-8.9-5-5.1-3.2-9.7-7-15.2-9.7.5 3.4 4.3 3.6 6 6.7-5.3-.9-8.1-6.9-13.7-8 .4 1.1 2.1 2 2.6 3.1-3.3-1.9-6.8-4.2-9.9-6.5-3.8-2.5-7-3.8-10.5-6.8l-.7-1.7c-5.8-5.2-12.7-9-18.5-14.1 3.9.1 7.6 3.9 10.9 5.8 1-.5 2-1.2 3.1-1.7 3.5 2.5 7.2 4.6 10.5 7.3 2.1 1.6 3.7 3.2 6.4 3.5-2.4-3-6.5-4.5-8.9-7.5.9-.3 1.8-.5 2.8-.8-2.9-4-8.2-5.8-11.7-9.5 1.2-2.2 3.8.8 5.1 1.5 4.1 2.7 8.2 6.3 12.6 8.3-1.6-2.9-4.2-4.2-6.8-6.1-8.3-5.9-17-11.7-24.9-18.1.2-.6.5-1.1.9-1.6z"/><path fill="#db8653" d="m152.6 50.8c2.1.9 3.9 1.9 5.7 3.3 9.9 6.4 19.9 12.9 29.9 19.1 14.9 10.3 30.7 19.4 45.3 29.8l-4.6 3.2c-4-4.4-10.6-5.8-14.8-10-2.2-2.2-4.8-3.4-7.6-4.9-2.6-1.9-5.2-4.1-8.1-5.6-7.5-6.7-16.4-11.4-23.9-18-4.9-4.2-10.7-7.4-15.9-11.1-2.3-2-4.8-3.2-6.2-5.9z"/><path fill="#d97544" d="m73.3 55.3c1.7.7 3.5 1.8 5.3 2.1 3-1.9 6.5 2.2 10.1 1.4 2.8-.1 5.8 3.9 8.1 2.4 9 6 18 12 26.9 18.2-5.5.9-11.9-5.1-17.1-6.8-2.9-1.4-5.8-2.7-8.7-4.1-8-4.4-17-7.4-24.8-12.1z"/><path fill="#d77242" d="m163.5 61.9c3.3 2.1 6.6 3.9 9.3 6.7 8.1 5.9 16.4 11.8 24.7 17.4 2.4 1.5 6.2 6.4 9.2 5.2 2.7 1.5 5.3 2.7 7.6 4.9 4.2 4.2 10.2 6 14.2 10.4l-.9.5c-3.5-1.4-6.4-3.4-10-4.8-.4.5-.8 1-1.1 1.5 1.5 2.4 6.6 4.1 5.4 7.3l-8.2 5.5c-1.2-1.9-2.8-3.3-5.1-3.7 1.1 1.9 2.7 2.9 4.4 4.1-3.2 2.2-6.5 4.4-9.6 6.7-11.7-8.7-23.7-16-36-24.4-.5-1.1-2.2-2.4-2.6-3.5 5.6 1.1 8.4 7.1 13.7 8-1.7-3.1-5.5-3.4-6-6.7 5.5 2.7 10.1 6.5 15.2 9.7 2.5 1.7 5.6 5.6 8.9 5-1.9-2.9-7.4-4.4-8-7.7 3.9 1.8 6.9 5.8 10.9 6.8-3.3-4.4-9.1-7-13.4-10.5-1.8-1.6-6.9-3.5-6.5-6.3 5.5 2.4 12.7 8.8 17.9 11.8 2.5 1.6 5 4.4 8 4.9-.6-1-1.3-1.9-2.3-2.6-6-4.4-12.1-8.5-18.1-12.9-5.4-5-11.9-8.6-17.4-13.3.6-.4 1.2-.8 1.9-1.2 4.2 3.8 9.4 5.7 13.6 9.5 6 4.2 11.8 8.9 18.1 12.7-.4-.9-.9-1.9-1.3-2.8.8-.2 1.7-.5 2.5-.7-11-8.3-21.8-16.5-33-24.6 5.7.3 10.1 6.6 15 7.9-4.2-5.5-11.4-7.5-15.5-13.3-3.6-1.2-8.2-3.1-5.5-7.7z"/><path fill="#d87e4a" d="m71.4 63.2c4.3 2.5 8.7 4.4 13.3 6.2 2-.6 2.5-1.2 4.2.4 1.9 3.3 5.7 4 9.2 5.2 2-1.2 2.9 1 4.6 1.9 2.3-1.4.5-3.5 4-4.4 5.2 1.7 11.6 7.7 17.1 6.8 4.7 3 9.7 5.9 13.9 9.6-5.2.5-8.7-4.6-14.1-4.8 1.7 2.8 7.3 2.6 8.8 5.7-2.3 1-4.4.3-6.9.4 5.8 3.4 12.5 6.8 18.7 9.2-1.3 2.2-1.8 3.7-4.7 3.8-8.8-5.1-18.3-8.4-27.3-13 1.5-1.2 3-2.2 4.2-3.8-10-4.6-19.8-9.9-29.9-14.3-5.1-2.8-10.6-4.5-15.5-7.5-.6-1.2-.4-1.7.5-1.4z"/><path fill="#c5562f" d="m150.3 65.8c2.3.9 4.8 2 6.2 4.2-3-.3-4.6-1.8-6.2-4.2z"/><path fill="#d0683b" d="m65.6 69.1c7.6 2 14.1 6.5 21.6 9.3 8.2 4.3 16.7 7.7 25 11.8 9 4.6 18.6 7.9 27.3 13 5.6 2.8 11.7 5.2 17 8.7-5.1-.2-9.8-4.5-14.6-6-7.4-2.9-13.4-7.8-21.2-9.8-3.9-1.5-7.5-3.6-11.3-5.3-.5-.3-1-.6-1.6-.9-6.2-2.8-12.3-5.7-18.3-8.8-7.4-2.7-13.9-7.1-21.3-9.8-1.3-.5-1.9-1.1-2.6-2.2z"/><path fill="#d87745" d="m65.5 73.1c3.5 1 6.7 2.8 9.6 5 8.4 3 16.4 7.3 24.6 10.8 2.7 1.9 5.5 1.1 7.6 3.9.2-1 .4-2 .5-3 .5.3 1 .6 1.6.9-.4 1.2-1.7 2.6.1 3.3 3.6 1.4 7.1 3.9 10.7 4.9.2-1 .3-1.9.5-2.9 7.8 2 13.8 6.9 21.2 9.8-.6 2.2.2 4-2.5 4.7-5.1-1.8-9.6-4.7-14.5-6.8-3.8-1.5-7.4-3.3-11.1-5.1-10.2-4.8-20.6-9.3-30.9-14-6.5-3.2-13.2-6.9-20.2-8.8v-.9c.9-.6 1.9-1.3 2.9-1.8z"/><path fill="#cd5a32" d="m62.6 75.8c7 1.9 13.7 5.6 20.2 8.8 10.3 4.7 20.7 9.2 30.9 14l-1.4 1.4c-7.4-3-14.5-6.8-21.9-9.9-9-5-18.9-7.8-27.8-13.2z"/><path fill="#dc7d49" d="m62.6 76.9c8.9 5.4 18.8 8.2 27.8 13.2 7.4 3.1 14.5 6.9 21.9 9.9 4.9 2.4 10 3.9 14.6 6.9-2.9 1.6-6.5-1.4-9.7.1-2.9-.9-5.8-2.1-8.6-3.3-6.9-3-13.9-6.5-21.1-8.9-4.7-1.9-9-4.6-14-6-3-.8-7.3-4.3-10.3-3.1l-.8.2c0-3 0-6 .1-9.1z"/><path fill="#cf7846" d="m123.5 84.1c5.4.2 8.9 5.3 14.1 4.8 4.9 2.3 8.8 5.9 13.5 8.6 15.7 10.4 31.1 20.9 46.8 31.5-.3 1.1-.7 1.7-1.4 1.8-2.8-1.5-5.8-2.6-8.6-4.1 0-.9.1-1.7.1-2.6-1.4.6-2 1.9-3.5 1-5.6-1.4-10.3-6.8-16-7 5.7 4.1 12.5 7.1 18.8 10.4-1.5 2.2-2.8 1.7-4.7.4-3.2-2.5-7.3-2.9-10.3-5.6-4.8-2.2-9.6-4.4-14.5-6.4-4.6-1-8.3-4.6-13-5.6l-.6 1.7c-1.6-.8-3.3-1.6-4.9-2.5 2.7-.7 2-2.5 2.5-4.7 4.9 1.6 9.6 5.9 14.6 6-5.2-3.5-11.3-5.9-17-8.7 2.9-.1 3.4-1.6 4.7-3.8-6.3-2.4-13-5.8-18.7-9.2 2.4-.1 4.5.6 6.9-.4-1.5-3.2-7.1-2.9-8.8-5.7z"/><path fill="#d16539" d="m73.6 88.8c5 1.4 9.3 4.1 14 6 7.2 2.4 14.1 5.9 21.1 8.9l-1.2 1.3c-2.7 1.3-6-2.5-8.7-3.1-4.3-.7-5.5-4.5-10.3-4-3.4-1.7-6.9-4.6-10.7-4.7-2.8-2.4-6.1-3.7-9.4-5.2-2.1-.8-3.7-.3-5.2-2.3 3-1.2 7.3 2.3 10.3 3.1z"/><path fill="#cd6237" d="m197.5 86.1 1.1-.4c2.9 1.5 5.4 3.7 8.1 5.6-2.9 1.1-6.8-3.8-9.2-5.2z"/><path fill="#db834e" d="m109.4 90.7c3.8 1.7 7.4 3.9 11.3 5.3-.1 1-.3 1.9-.5 2.9-3.6-1-7.1-3.5-10.7-4.9-1.8-.7-.5-2.1-.1-3.3z"/><path fill="#d06136" d="m62.6 97.9c2.8 1.1 5.5 2.5 8.4 3.4 6.1 4 13.9 5.1 20.5 8.4l-.4 1.1c5.3 4 12.3 4.4 17.8 8.4-1.8 1.1-3.4-.8-5.2-1.3-2.8-1.3-5.6-1.6-8.7-1.7-1.6-2.1-3.9-2.6-6.2-3.5-2.1-.9-4.2-1.8-6.1-3-6-3.4-12.3-7.1-19.1-8.7l-.8-1.3z"/><path fill="#d97f4a" d="m88.5 97.9c4.7-.5 6 3.3 10.3 4 2.7.6 6 4.4 8.7 3.1 2.7 1.5 5.2 2.8 8.1 3.8-.1 3.3 6.2 2.6 8 5.1 1.8 2.3 4.7 1.4 6.7 3.3-.1 1.2-.4 2.4-.5 3.7 1.6-.8 2.2-.9 2.5-2.8 2 1.1 5.6 2.3 6 4.7.9-.3 1.7-.6 2.6-1 .5 1.4 1.1 2.8 1.5 4.2-.4 1-1.9 1.5-2.7 2.1-.8-1.7-3.3-5.5-5.5-4-4.1-1.4-7.6-2.8-10.8-5.8-3.1-.3-6.3-1.9-9-.1-.2-1.6.7-3-1.2-3.7-5.8-2.6-12.1-3.8-18.1-5.9l-.5-1.5c1.7 1 4.3.4 4-2 .5-3.4-2.3-1.7-3.7-.5-.6-1.3-.8-2.5-1.9-3.5-.3.9-.5 1.9-.8 2.8-1.2-2-2.4-4-3.6-5.9z"/><path fill="#d97543" d="m75.1 99.4c1 .6 1.5 2.3 2.8 1.5 2 .6 4.1 1.5 4.3 3.9 1.5-.4 2.3-1.5 3.8-.6 2.7 1.4 5.9 1.4 8.6 2.8l.5 1.5c6 2.2 12.3 3.3 18.1 5.9 1.9.7 1 2.1 1.2 3.7-4.2-.7-7.8-2.6-11.5-4.5-3.6-1.8-7.7-2.3-11.4-4-6.6-3.3-14.4-4.4-20.5-8.4.5-2.2 2.3-2 4.1-1.8z"/><path fill="#be522d" d="m113.7 98.7c3.7 1.8 7.3 3.6 11.1 5.1 4.9 2.2 9.4 5 14.5 6.8 1.6.9 3.2 1.7 4.9 2.5 11.1 6.6 23.7 10.7 34.7 17.5 3 1.9 6.4 3 9.6 4.6 3.4 2 7.1 4.1 11 5.1v2.8c-5.3-3-10.8-4.6-15.8-8.2-7.7-3-14.3-7.8-21.9-11.1-11.8-5.3-22.9-11.6-34.9-16.7-4.6-3-9.7-4.5-14.6-6.9z"/><path fill="#e18852" d="m62.6 99.8.8 1.3c.1 1.1.2 2.2.3 3.2 3.9.1 6.7 2.4 10.6 3.1 1.9.2 2.4 1.7 3.7 2.8 1.5-.7 2.9-.5 4.5-.4 2 1.2 4 2.1 6.1 3-.9 1.3-1.5 2.5-1.9 4-1.6-.8-3.4-2.2-5-.7.5 1 1 2 1.4 3-2.5.1-2.8-.8-4.2-2.6-1.2.4-1.9 1.6-2.6 2.5 1 .7 2.1 1.3 3 2-.5 1-1.1 1.9-1.6 3 1.1 1.9 1.3 3.9 1.4 6.1-1.5-1.1-1.5-3.7-3.4-3.9 0 2.5-.1 5.2-.7 7.6-1.3 1.9-3.4-.2-4.6 2.4-2.6 2.4-.5 7.2-4.8 7.4-2.3-.2-2.2 2.1-3.2 3.6 0-1.6 0-3.3.1-4.9 1.3-4.6 1.1-10.7.1-15.3v-.7c.9-5.4 1.2-13.1-.1-18.3-.3-2.7-.2-5.3-.1-8z"/><path fill="#da7644" d="m63.4 101.1c6.8 1.6 13.1 5.3 19.1 8.7-1.6-.1-3-.3-4.5.4-1.4-1.1-1.9-2.5-3.7-2.8-3.9-.7-6.7-3-10.6-3.1-.1-1.1-.2-2.2-.3-3.2z"/><path fill="#de824e" d="m217.6 102.4c3.6 1.3 6.4 3.5 10 4.9-2.1 1.4-3.4 2.3-5.6 3.8 1.2-3.2-4-4.7-5.5-7.1.3-.5.7-1.1 1.1-1.5z"/><path fill="#cf5b33" d="m206.5 103.1c3.4.6 8.2 3.9 9.9 6.9-1.8-.4-2.9-1.5-4.4-2.5-1.8-1.4-4.2-2.6-5.5-4.4z"/><path fill="#c75d33" d="m108.7 103.8c2.8 1.2 5.6 2.4 8.6 3.3 6.3 4.2 13.7 5.8 20.1 10.1 6.9 3.3 13.7 7 20.5 10.7l-.4 1.1c-5.9-1.4-10.3-6.1-16.6-7.1-1.9-3.4-7.5-4.2-10.7-6.4-4.6-2.7-9.5-4.7-14.5-6.6-2.9-1-5.4-2.3-8.1-3.8z"/><path fill="#cf7543" d="m127 107c12 5.1 23.1 11.4 34.9 16.7 7.5 3.3 14.2 8.1 21.9 11.1-1 .9-1.8 3.7-3.5 3-.3-3.4-2.8-1.7-4.7-3.8-1.6-1.9-2.1.2-3.4 1.1-5-2.1-9.6-4.7-14.3-7.3-6.8-3.6-13.6-7.4-20.5-10.7-6.3-4.3-13.7-5.9-20.1-10.1 3.2-1.5 6.8 1.5 9.7-.1z"/><path fill="#e69665" d="m62.7 107.8c1.3 5.3 1.1 13 .1 18.3-.6-6.1-.4-12.3-.1-18.3z"/><path fill="#d27442" d="m115.6 108.9c5 1.9 9.9 3.9 14.5 6.6 3.2 2.2 8.8 2.9 10.7 6.4-.8.4-1.7.7-2.6 1-.5-2.5-4.1-3.6-6-4.7-.3 1.9-.9 2-2.5 2.8.2-1.2.4-2.4.5-3.7-1.9-1.9-4.8-1-6.7-3.3-1.8-2.5-8.1-1.8-8-5.1z"/><path fill="#c75730" d="m91.4 109.6c3.7 1.7 7.8 2.2 11.4 4 3.7 2 7.3 3.8 11.5 4.5 7.2 4 15.1 7.3 22 11.9 4.8 3.5 13.2 5.4 16.3 10.5-1-.2-2-.4-3-.6-2-3.5-5.4-3.4-8.8-5.4-5.6-2.5-10-7-15.7-9.3-5-1.8-9.2-4.7-14.5-5.6-.6-.2-1.2-.4-1.8-.6-5.4-4-12.5-4.5-17.8-8.4z"/><path fill="#ca875e" d="m236.4 109.9c.2 14.3 0 28.8.1 43.1-.1 1.8.3 3.6-.9 5.1-.5-11.1.2-22.3-.4-33.4.4-4.7.3-9.4 0-14z"/><path fill="#c66b3c" d="m144.8 111.3c4.7 1 8.4 4.6 13 5.6 4.9 2 9.7 4.2 14.5 6.4 3 2.7 7.1 3.1 10.3 5.6 1.9 1.3 3.3 1.8 4.7-.4-6.3-3.2-13.1-6.3-18.8-10.4 5.6.1 10.4 5.6 16 7 1.5.9 2.1-.4 3.5-1-.1.9-.1 1.7-.1 2.6 2.8 1.5 5.8 2.7 8.6 4.1.6-.2 1.1-.8 1.4-1.8.6.4 1.1.8 1.6 1.1.1 3.4 0 6.7-.1 10.1-3.9-1-7.5-3.1-11-5.1-3.2-1.5-6.5-2.6-9.6-4.6-11-6.8-23.7-10.9-34.7-17.5z"/><path fill="#b76237" d="m235.2 110.8c.4 4.7.5 9.4.1 14-1.8 5.3.1 11.4-1.2 16.9-1 4.1-.6 8.1.2 12.2l-1.6-.1c-.9-7 1.1-13-1.7-19.6.4-2.2 1.2-3.8.7-6.2-.1-1.6.8-5.6-1.9-2.7-.7 10.8.1 21.7-.4 32.5h-.7c-.4-9.2.1-18.5-.2-27.7.2-1.3-.5-2-1.9-2.2-.1-3.7 0-7.5-.3-11.2z"/><path fill="#de814c" d="m88.7 112.8c2.4.9 4.6 1.3 6.2 3.5-1.5.1-2.9-.5-4.3-.8-.7 1.6-.6 3.2-.9 4.8-3.2.6-5.4 4.3-8.1 1.1-.3 1.4-1 2.9-.8 4.3 1.3 1.3 2.9 2.4 4 3.8-.8 1.2-.2 2 0 3.3-1.7 5-7.5 6.5-10.5 10.8-2.4-1.8-1.6-1.5-1.9 1.3-1 .9-2 1.8-3.1 2.6-.9-.4-1.7-.9-2.5-1.4 0 1.5.3 2.8-.2 4.2-1.3-.5-2.7-1-4-1.4v-1.8c1-1.5 1-3.8 3.2-3.6 4.3-.2 2.2-5 4.8-7.4 1.2-2.7 3.2-.6 4.6-2.4.6-2.4.6-5.1.7-7.6 1.9.2 1.8 2.8 3.4 3.9-.1-2.2-.3-4.2-1.4-6.1.4-1 1.1-2 1.6-3-1-.7-2.1-1.3-3-2 .7-1 1.5-2.1 2.6-2.5 1.4 1.8 1.7 2.7 4.2 2.6-.5-1-1-2-1.4-3 1.7-1.5 3.5-.2 5 .7.4-1.5 1-2.7 1.9-4z"/><path fill="#ce5831" d="m208.6 113c2.2.3 4 1.8 5.2 3.7l-.8.5c-1.7-1.2-3.4-2.3-4.4-4.1z"/><path fill="#da7c48" d="m90.6 115.4c1.5.3 2.8.9 4.3.8 3 .1 5.9.3 8.7 1.7 1.8.5 3.4 2.4 5.2 1.3.6.2 1.2.4 1.8.6.6.9 1.2 2.4 2.3 2.8 3.9 1.4 7.7 2.7 11.6 4.1-1.7 3-1.1 3.8 1.5 5.8-1.7 3-1.1 3.7.5 6.6 0 1.4.1 2.7.1 4l-.7.1c-.6-1.5-1.2-2.9-2.6-3.9-1.5.1-3 .5-4.5.7.6-.7 1.2-1.4 1.7-2.1-3.3-3-5.7-6.6-9.2-9.4-2 .7-2.4 1.6-4.4.3-2.1 2.2-3.7-.4-5.7-1.5-1.4-1.4-4.2-.1-5.7-1.4-2.5-1.9-3.8-4.1-7.3-3.6-2.1-.3-2 1.1-2.7 2.6.3 1.4 2.3 1.8 3.4 2.4.1 1.1.2 2.2.2 3.3-.9-.1-1.7-.2-2.6-.3.5 2.3 2 2.2 3.9 3-1.1 1.6-4.9 2.1-2.3 4.1-2.7 2.4-6.4 2.1-9.2 4.7-1.9 1.1-1.7 1.3-1.7 3.3-1.6 0-3.1-.4-4.7-.7.3-2.8-.5-3.1 1.9-1.3 3-4.4 8.8-5.9 10.5-10.8-.2-1.3-.9-2.1 0-3.3-1.1-1.4-2.7-2.5-4-3.8-.2-1.4.5-3 .8-4.3 2.7 3.2 4.9-.5 8.1-1.1.3-1.6.2-3.2.9-4.8z"/><path fill="#d47442" d="m123.3 118.3c3.2 3.1 6.7 4.4 10.8 5.8 2.2-1.5 4.8 2.4 5.5 4-1.1.7-2.2 1.4-3.3 2-6.9-4.7-14.7-7.9-22-11.9 2.7-1.8 5.9-.2 9 .1z"/><path fill="#b04e2b" d="m226.3 116.6c.3 3.7.2 7.5.3 11.2-.2 12.2-.1 24.2-.2 36.4-.8-1.5-1-2.4-1-4.1 0-10.7.1-21.4 0-32-.3-3.5.1-6.9-1.1-10.2z"/><path fill="#bc683a" d="m224.5 117.7c1.1 3.3.7 6.8 1 10.3.1 10.7 0 21.4 0 32 0 1.7.1 2.7.9 4.2l-4 2.7c.3-5.3-.5-10.5-.4-15.8-1.1-10.3-.2-20.9-.6-31.3z"/><path fill="#ce6d3d" d="m110.6 119.8c5.3.9 9.5 3.8 14.5 5.6 5.7 2.3 10.1 6.8 15.7 9.3 3.3 1.9 6.7 1.9 8.8 5.4-1.1.3-2.6 1.3-3.7.6-6.3-2.6-11-8-17.4-10.7-1.8-.6-2.3-2.6-4.1-3.3-3.8-1.4-7.7-2.7-11.6-4.1-1.1-.4-1.6-1.9-2.3-2.8z"/><path fill="#b34b29" d="m221.4 119.8c.4 10.3-.5 21 .6 31.2-.1 5.3.7 10.4.4 15.7l-1.9 1.2c-.3-7.7.1-15.3 0-23-.1-8 .2-16.4-.2-24.4z"/><path fill="#ba5f34" d="m220.5 144.9c-.6-.2-1.3-.5-1.9-.7 1 8.3-.9 16.6.1 25l-1.3.8c.3-15.8.1-31.8 0-47.6l3-1.9c.2 4 0 16.4.1 24.4z"/><path fill="#d67241" d="m88.3 122.4c3.5-.6 4.7 1.7 7.3 3.6 1.5 1.2 4.3-.1 5.7 1.4 2 1.1 3.6 3.6 5.7 1.5 2 1.3 2.4.4 4.4-.3 3.6 2.7 5.9 6.4 9.2 9.4-.6.7-1.2 1.4-1.7 2.1 1.5-.2 3-.6 4.5-.7 1.4 1 2 2.4 2.6 3.9-1.5.7-3-1.4-4.4-2 .6 2.1 1.6 3.9 3.8 4.6 0 .8-.2 1.7-.6 2.5-9.6-6.5-20-13.4-32.1-12.2-3.4 1.2-2.8 2.9-2.2 5.8-3 3.4-7.5 6.1-11 8.9-.5.5-.8 1.1-1 1.8 2.8-1.2 5.7-1.9 8.2-3.4 5.1-1 9.3-3.2 14.8-2.5 2 .2 2.9.5 4.7-.5 0 1.8-.5 4.5 1.9 4.8-.2-1.2-.4-2.4-.6-3.6 2.1 1 4.9 1 6.1 3 1.1 2.3 2.5 4.2 3.9 6.2-1.3-.4-2.5-1-3.8-1.4-.2 1.2-.3 2.3-.5 3.5-2.2-1-3.8-1.2-3.3-4.1.5-.9-2.3-2.5-1.9-1.1.4 2.2-2.1.4-3.3.5l1.5 2.7c-1.1-.2-2.2-.5-3.3-.7.2 3.1 1.2 3.6-2.3 4.7-1.4-2.2-1.5-4.5-4.1-5.8-.2 1.9.9 2.7 1.8 4.1-1.1 2.1-2.3 2.8-4.7 2.9-.6-.6-1.2-1.2-1.9-1.8-.2.8-.5 1.6-.7 2.5-2.3-.6-4.5-1.6-6.8-2-2.9 1.9-5.3-.1-7.7 2.6-.1 2.1.7 3.9 1.3 5.8-1.8 1.3-3.6 1.4-5.7 1.6-.2-2.1-.8-4.2-1.1-6.2 1.4-2 3-4 4-6.2-.7-1-1.5-2-2.2-2.9 1.2-.7 2.4-1.3 3.5-2.1-4.1-.4-6.9.7-9.8-2.9.5-1.4.2-2.8.2-4.2.9.4 1.7.9 2.5 1.4 1.1-.8 2.1-1.7 3.1-2.6 1.6.4 3.1.7 4.7.7.1-2-.2-2.2 1.7-3.3 2.8-2.6 6.5-2.3 9.2-4.7-2.6-2 1.2-2.5 2.3-4.1-1.9-.8-3.4-.7-3.9-3 .9.1 1.8.2 2.6.3 0-1.1-.1-2.2-.2-3.3-1.1-.7-3.1-1.1-3.4-2.4.8-1.5.7-2.9 2.7-2.6z"/><path fill="#ce7946" d="m140.8 121.8c6.2 1 10.6 5.8 16.6 7.1 1.9 2.6 5.4 3.5 8.2 5.1.5 1.2.9 2.4 1.4 3.5 2.8 1.2 5.9.7 6.6 4.4.1 1.4 1.4-.8 1.9.2 2.4 2.4 7.5 2.5 9.9 4.9-1.1 2-1.4 3-1.2 5.4-2.9-1.2-5-3.6-8-4.5-3.5-1.2-6.2-2.9-9-5.3-7.7-3.1-15-7.2-22.5-10.7-2.5-.3-3.4-2.1-5-3.7.8-.6 2.4-1.1 2.7-2.1-.5-1.4-1-2.8-1.5-4.2z"/><path fill="#af4325" d="m217.4 122.4c.1 15.8.2 31.9 0 47.6-1.5-3.3-.7-7.5-.9-11.1-.2-11.7.2-24-.4-35.7z"/><path fill="#be6337" d="m216.1 123.3c.6 11.7.3 24 .4 35.7.2 3.6-.7 7.8.8 11.1l-3.8 2.3c-.2-15.7.2-31.6-.4-47.3z"/><path fill="#bf6f40" d="m231.6 128c.6 2.4-.3 4-.7 6.2 2.9 6.6.8 12.7 1.7 19.6l1.6.1c-.8-4.1-1.2-8.1-.2-12.2 1.3-5.5-.6-11.6 1.2-16.9.6 11.1-.1 22.3.4 33.4l-9.2 6c.1-12.2-.1-24.1.1-36.3 1.4.2 2 1 1.9 2.2.3 9.2-.2 18.5.2 27.7h.7c.5-10.8-.3-21.8.4-32.5 2.7-2.8 1.8 1.1 1.9 2.7z"/><path fill="#b04526" d="m213.1 125.2c.6 15.7.3 31.6.4 47.3-.6.4-1.2.8-1.8 1.2-.2-5.7-.4-11 .3-16.7-1.1-10-.3-20.5-.8-30.5z"/><path fill="#e59564" d="m62.9 126.9c.9 4.7 1.2 10.8-.1 15.3-.3-5.1-.5-10.3.1-15.3z"/><path fill="#d27c49" d="m124.4 126.7c1.8.8 2.3 2.7 4.1 3.3 6.4 2.7 11.1 8.1 17.4 10.7 1.1.7 2.6-.3 3.7-.6.1.8.4 1.5.8 2.1 3.6 2.8 8 4.7 11.9 7.2 2 1.4 4.6 2 7.1 1.9l.4.6c.1 2.8 2.9 3.5 2 6.2-3.7-2.5-6.8-5.4-11.2-6.9h-.8c-.3 2.6-.3 5.3-.3 8-.9-1.5-.8-2.9-2.8-3.2-2.9-.6-5.3-2.1-7.5-4.1-3.8.4-4.4-2.2-7.6-3.4-1.2-1.8-2.5-.2-3.4-2.8-3.2-.1-6-1.5-9-2.3-.6-1.9-.7-3.1-2.5-4.2-1.6-2.9-2.2-3.6-.5-6.6-2.5-1.9-3.2-2.7-1.5-5.8z"/><path fill="#bd6136" d="m211.3 126.4c.5 10-.4 20.7.6 30.6-.7 5.7-.6 11.1-.4 16.8l-5.1 3.3c-.2-10.9-.2-22 .3-32.9 1.2-3.8 1.2-9.6 0-13.4l-.5-1.2z"/><path fill="#c96b3c" d="m139.6 128.1c1.6 1.6 2.5 3.4 5 3.7 7.5 3.5 14.8 7.6 22.5 10.7 2.9 2.3 5.5 4.1 9 5.3 3.1.9 5.1 3.3 8 4.5 1.9 1.3 3.8 2.4 5.6 3.9-4.7 1.5-7.6-1.8-11.6-3.7-7.2-3.5-13.9-7.6-21.4-10.5 1.3 5.2 9.9 4.6 12.6 9.2-2.4.2-5.1-.4-7.1-1.9-3.9-2.4-8.3-4.3-11.9-7.2-.4-.6-.7-1.3-.8-2.1l3 .6c-3.2-5.1-11.5-7.1-16.3-10.5 1.2-.6 2.3-1.2 3.3-2z"/><path fill="#bd5830" d="m157.8 127.9c4.7 2.6 9.4 5.2 14.3 7.3 6.3 4 13.1 7.2 19.8 10.6 2.6 1.3 4.7 3 7.6 3.5 0 .9 0 1.9.1 2.8-5.1-3.1-10.7-5.5-16.1-7.9-5.6-4.1-11.7-6.9-17.8-10.1-2.8-1.6-6.3-2.5-8.2-5.1z"/><path fill="#b04a28" d="m206.8 130.8c1.1 3.9 1.2 9.6 0 13.4-.4-4.5-.4-8.9 0-13.4z"/><path fill="#c57140" d="m175.5 134c1.9 2.2 4.4.5 4.7 3.8 1.7.7 2.5-2.2 3.5-3 4.9 3.7 10.5 5.3 15.8 8.2.1 2.1 0 4.1 0 6.2-2.9-.6-5-2.3-7.6-3.5-6.6-3.4-13.5-6.6-19.8-10.6 1.4-.9 1.9-3 3.4-1.1z"/><path fill="#c57140" d="m165.5 134c6.1 3.1 12.3 6 17.8 10.1 5.4 2.5 10.9 4.8 16 7.9v10.1c-3-2.8-6.8-3-9.6-5.8-1.7-1.6-3.6-2.6-5.6-3.9-.2-2.3.1-3.4 1.2-5.4-2.4-2.4-7.4-2.4-9.9-4.9-.5-1-1.8 1.2-1.9-.2-.7-3.7-3.8-3.2-6.6-4.4-.5-1.2-1-2.3-1.4-3.5z"/><path fill="#c7542e" d="m92.6 136.1c12.2-1.2 22.5 5.7 32.1 12.2 2.8 3.4 4.7 5.9 3.6 10.5-.8.1-1.6.2-2.5.2 2.2-3.3-.3-4.1-1.3-7.1-3.9-3-8.9-5.3-13.3-7.4-3.9.5-7.5.4-11.3 0-.8-2.1-.1-4.7-3-2.4 2.8 2.4-1.6 3-3.4 3.8-3.1.1-4.6 1.5-6.8 3.4-2.6 1.5-5.5 2.2-8.2 3.4.2-.7.5-1.3 1-1.8 3.5-2.9 8-5.5 11-8.9-.6-3-1.2-4.6 2.2-5.8z"/><path fill="#d07241" d="m126.4 139.1c1.8 1.1 1.9 2.4 2.5 4.2 3.1.8 5.9 2.2 9 2.3.9 2.6 2.2 1.1 3.4 2.8 3.2 1.3 3.8 3.8 7.6 3.4 2.2 2 4.6 3.5 7.5 4.1 2 .2 2 1.7 2.8 3.2v3c-2.4-.5-2.5-.2-3.2-2.7-2.3 2.3-3.6-.3-6.5.1.1-1.5.4-3 .5-4.6-1.2 1-1.6 2.4-2.2 3.8-2.4-3.2-3.3-3.7-7.2-4.4-2.2-.2-.1-1.7.1-3-2.4-1.5-4.9-3.4-7.5-4.4-2.1-.2-1.6 1-2.2 2.5-1.8-1.6-2.5-1.3-4.8-1.1.9-2.7 1.9-2.8.1-5.4 0-1.4-.1-2.7-.1-4z"/><path fill="#bf5c33" d="m156.7 142c7.5 2.9 14.2 7 21.4 10.5 4.1 1.9 6.9 5.2 11.6 3.7 2.8 2.8 6.7 3 9.6 5.8v6.1c-5.9-.9-10.9-6.1-15.9-9-4.6-2.4-9-5.3-13.8-7.4l-.4-.6c-2.7-4.6-11.4-4-12.6-9.2z"/><path fill="#ce5c34" d="m62.6 148.9c1.4.5 2.7.9 4 1.4 2.9 3.6 5.7 2.5 9.8 2.9-1.1.7-2.3 1.4-3.5 2.1.7 1 1.5 1.9 2.2 2.9-1 2.2-2.6 4.2-4 6.2.3 2.1 1 4.1 1.1 6.2-1.6 2 .8 3 1.9 4.5 1.1 1.6 2.7 1.7 4.3 2.7-4.4 1-4.3-1.1-7.4-2.9-.1 1-.1 2.1-.2 3.1-1-1.1-2-2.2-3.3-3 .4 2.8 1.7 4.5 3.9 6.2l-1.1 1c-2.6-2-4.3-5.3-6.1-8-1.2-1.6-.7-3.3-.7-5.2 1 1.3 1.8 2.6 2.7 3.9.7-7.2.2-13.9-3.7-20.1-.1-1.3-.1-2.6-.1-3.9z"/><path fill="#c77746" d="m169.7 151.8c4.8 2.1 9.1 5 13.8 7.4 5 3 10 8.1 15.9 9v8.3c-8.9-6.2-18.6-12.4-27.6-18.5.9-2.7-1.9-3.5-2-6.2z"/><path fill="#d67744" d="m62.7 152.8c3.9 6.3 4.4 12.9 3.7 20.1-.9-1.3-1.8-2.6-2.7-3.9 0 1.9-.5 3.6.7 5.2 1.8 2.7 3.5 6 6.1 8 4.8 3.5 10.3 4.3 16.1 3.8 3.6.1 6-3.2 9.6-1.5 3.2 1.6 6.9 2.4 9.8 4.5-1.4 1.3-2.9 2.4-4.6 3.4-3.1-.8-6.1-2.1-9.2-2.9-5.7-1.1-11.8-1.1-17.3-2.9s-7.8-6.1-12.2-9.7c-.2-8-.2-16.1.1-24.1z"/><path fill="#d17342" d="m134.2 159.3c1.4 1 .5 2 .5 3.4.9-.5 1.8-1 2.7-1.4 4.2 1.6 8.9 2.7 13 4.8 1.1 1.3 1.7 2.3 3.3 2.9 1.5.2-2 2-.1 2.1 2.4.4 4.5 3 5.9 0v6.2c-2.3-3.4-5.3-3.7-8.3-5.7-2.2-3.3-5.2-3.5-8.4-5.1.2 1.2.5 2.4.6 3.6-2.3.3-2-5-4.2-3.4-2.2 2.6-3.1-1.6-5.8-1.1-2.1.6-3.9 2.4-6.2 2.9-1.3-.8-2.4-2.2-3.6-3.2-1.1.6-2 1.2-3.1 1.8-1.4-.3-1.8-2.4-2.5-3.4-1.5-.2-3.2-.4-4.7-.2-.8 2.3-2.2 4.3-3.4 6.4 5.2 3.7 11.8 2.3 16.8 7.2-6-.7-11.6-2.6-17.1-4.9-2.3-2.1-4-4.6-6.4-6.5.1-2.1.9-4.1 2.7-5.3 3.2-.9 6.6 0 9.7.6 3.7.6 7.2-.1 10.8-.6 3.3 3.2 4.5-2.2 7.9-1z"/><path fill="#cb5a32" d="m84.4 160.6c2.3.4 4.5 1.5 6.8 2 .2-.8.5-1.6.7-2.5.6.6 1.3 1.2 1.9 1.8 2.9 3.7 1.3 6.8.9 10.9 4.4-1.9 1.6-7 6.2-7.8.7 2.2 2 3.6.7 5.9-.7-.3-1.4-.6-2.1-.8.4 1.8 1.7 2.4 2.9 3.6-1 .3-4.7-.3-4.6 1 1.9.3 4.3-.1 5.9 1-1.3.1-2.5.1-3.7.3.6.9 1.2 1.8 1.7 2.7-2.5.2-4.7 1-7 1.9.6-2 1.5-3.7 1.9-5.6-3 .6-5.2 3.9-8.4 4.5-1.4-4.6-9.1-5-9.9-10.5-.7-2-1.4-3.7-1.3-5.8 2.3-2.7 4.8-.7 7.7-2.6z"/><path fill="#cf7c48" d="m113.3 163.3c1.5-.2 3.2-.1 4.7.2.7 1.1 1.1 3.1 2.5 3.4 1.1-.6 2-1.2 3.1-1.8 1.2 1 2.3 2.4 3.6 3.2 2.3-.5 4-2.2 6.2-2.9 2.7-.5 3.6 3.7 5.8 1.1 2.2-1.6 1.9 3.7 4.2 3.4-.2-1.2-.4-2.4-.6-3.6 3.3 1.6 6.3 1.8 8.4 5.1 3.1 2 6.1 2.3 8.3 5.7.1 5.7.2 11.4 0 17.1-4.1-1.4-7.3-4.3-11.3-5.9-1.9-1.9-1.9-1.9-4.6-1.4-4-2.3-6-5.7-10.9-6.2-1.9-1.6-4-2.7-6.1-3.9-5-4.9-11.6-3.5-16.8-7.2 1.2-2.1 2.6-4.1 3.4-6.4z"/><path fill="#d0683a" d="m78.1 169.1c.8 5.5 8.5 6 9.9 10.5 3.3-.7 5.4-3.9 8.4-4.5-.4 2-1.2 3.7-1.9 5.6 2.3-.9 4.5-1.7 7-1.9 1.9 3.2 3.1 6.6 5.9 9.2-.5.3-1 .6-1.4 1-2.9-2.1-6.6-2.9-9.8-4.5-3.6-1.7-6 1.6-9.6 1.5-5.9.5-11.3-.3-16.1-3.8l1.1-1c3 1.3 5.8 2.8 8.9 3.6 1.6-1.5 3.1-2.7 5-3.8-5.5.6-10.1 1.4-14.6-3 .1-1 .1-2.1.2-3.1 3.1 1.8 3 3.9 7.4 2.9-1.5-1-3.2-1.1-4.3-2.7-1.1-1.5-3.5-2.5-1.9-4.5 2.2-.2 3.9-.3 5.7-1.6z"/><path fill="#ce6f3e" d="m99.4 170.3c.7.3 1.4.5 2.1.8 2.7 2.2 5.7 2.2 8.9 3.1 4.9 1.8 9.7 4.6 14.8 5.7 2.5 1.3 5.1 2.6 7.6 3.9-1.9.5-2.4 3.9-.8 3.6 2.4-2.5.8 2.8 3.5 2.3 2.7-.3 5 3 7.2 4.3 1.7.9.8 3.3 2.6 3.6 1.5.1.6 1.6.8 2.7 1.8-.1 2.3-5.1 3.7-3.3 2.2 1.9-2.8 2.5-.5 4.4 1.9 1.6 5.6 4.3 7.9 2.2.2 1.7.6 3.2.5 4.9-3 .9-7.2-7.5-10.6-4.1-1.2-.2-2.3-1.5-3.2-2.3-6.7-4.7-13.7-8.3-20.8-12.2.5-.8 1-1.6 1.5-2.4-1.2.4-2.5.9-3.7 1.2-.9-.7-1.7-1.4-2.6-2.1-1.1-.1-2.2 1.2-3.2 1.7-2.3-1.3-2.6-.6-1-3-1.6-1.9-3.4-3.5-5.2-5.1-1.7-1.5-3.4-3-5.3-4.2-1.6-1.1-4-.7-5.9-1-.1-1.3 3.7-.6 4.6-1-1.2-1.2-2.5-1.8-2.9-3.6z"/><path fill="#c85f35" d="m101.5 171.1c2.7.4 5.3.8 8 1 5.5 2.3 11.1 4.2 17.1 4.9 2.2 1.1 4.3 2.3 6.1 3.9-2.8-.3-5-2.4-7.5-1-5.2-1.1-9.9-3.9-14.8-5.7-3.2-.9-6.2-.8-8.9-3.1z"/><path fill="#d77643" d="m67.6 175.1c1.3.9 2.3 1.9 3.3 3 4.4 4.3 9 3.6 14.6 3-1.9 1.1-3.4 2.3-5 3.8-3.1-.8-6-2.4-8.9-3.6-2.2-1.7-3.6-3.3-3.9-6.2z"/><path fill="#c2502c" d="m99.8 176.1c1.3-.1 2.5-.2 3.7-.3 1.9 1.3 3.6 2.7 5.3 4.2-.8.3-3.4-.1-3.3 1 2.3 2.7 8.4 7.5 8 11.4-2.3-.9-4.3-2.8-6.3-4.4-2.8-2.7-4-6-5.9-9.2-.5-.9-1.1-1.8-1.7-2.7z"/><path fill="#c5542e" d="m62.6 176.9c4.5 3.6 6.7 7.9 12.2 9.7 5.6 1.7 11.6 1.8 17.3 2.9 3.1.8 6.1 2.2 9.2 2.9 1.5.4 3.2-.4 4.6.1.9 2 1.6 3.2 3.5 4.4-.8.4-1.5.7-2.2 1.1-9.5-5-20.3-6.7-30.6-9.2-6.1-1.8-9.9-5.5-14-10z"/><path fill="#d17846" d="m62.6 178.8c4.1 4.5 8 8.3 14 10 10.3 2.4 21.1 4.2 30.6 9.2 4.7 1.9 9 4.2 13.3 6.8.4 2.2 2.6 4.2 4.8 4.8 4.4 2.1 7 5.9 12 6.8 1.9.3 1.8 1.5 2.5 3 1.3-.5 2.5-1 3.8-1.5.1 1.8.2 3.6.1 5.4-1.1 0-2.2-.1-3.4-.1-1.1-.6-2-1.3-2.9-2.1-2.7-3.8-8.6-5.9-13-7.1-.6-.4-1.1-.8-1.7-1.2-2.4-2.4-5.2-3.4-8.2-4.9-6.6-3.1-13-6.9-19.8-9.4-6.2-1.9-12-4.7-18.1-6.7-4.8-1.6-9.1-5.2-14.1-6-.1-2.4 0-4.7.1-7.1z"/><path fill="#bf552e" d="m132.7 180.8c4.9.5 6.9 3.9 10.9 6.2 4.5 4.3 10.6 6.8 15.8 10.1.3 1.1.6 2.1.9 3.1v.9l-.9.1c-8.7-5.9-17.2-12.7-26.7-17.5-2.5-1.3-5-2.6-7.6-3.9 2.5-1.4 4.7.6 7.5 1z"/><path fill="#c55f34" d="m108.9 180c1.8 1.6 3.6 3.2 5.2 5.1-1.6 2.4-1.3 1.7 1 3 3 3.8 6.9 4.5 11 6.4 4.1 4.1 10.1 6 14.9 9 .6.8 1.1 1.5 1.7 2.3.2 1.2.3 2.3.5 3.5-6.1-3.1-11.1-7.9-17.6-10.5-3.9-2.6-7.6-4.8-12.1-6.4.4-3.8-5.7-8.6-8-11.4-.1-1.1 2.5-.7 3.3-1z"/><path fill="#c8683a" d="m132.8 183.7c9.4 4.7 18 11.5 26.7 17.5.1 3 .1 5.9 0 8.9-2.7 1.1-1.6.5-1.8-1.8.1-1.7-.2-3.2-.5-4.9-2.3 2.2-6-.6-7.9-2.2-2.3-2 2.7-2.5.5-4.4-1.4-1.8-2 3.2-3.7 3.3-.2-1 .8-2.5-.8-2.7-1.8-.2-1-2.7-2.6-3.6-2.2-1.4-4.5-4.6-7.2-4.3-2.7.5-1.1-4.8-3.5-2.3-1.6.3-1.1-3.1.8-3.6z"/><path fill="#c95f35" d="m62.6 185.9c4.9.8 9.3 4.4 14.1 6 6.1 2.1 11.9 4.9 18.1 6.7 6.8 2.6 13.2 6.3 19.8 9.4 3 1.5 5.8 2.5 8.2 4.9-3.7.1-5.7-2.3-9.1-3.4-6.3-3.3-12.9-5.9-19.2-9.3-11-4-21.8-7.3-31.8-13.3z"/><path fill="#cb7846" d="m118.2 186.4c.9.7 1.7 1.4 2.6 2.1 1.3-.3 2.5-.8 3.7-1.2-.5.8-1 1.6-1.5 2.4 7.1 4 14.2 7.5 20.8 12.2.9.8 2 2.1 3.2 2.3 3.4-3.5 7.5 4.9 10.6 4.1.2 2.3-.9 2.9 1.8 1.8.2 1.3-.4 4.2 1.1 4.8 6.1 3.9 12.3 7.7 18.2 12-4.9 1-7.5-3.5-11.2-5.8-8.3-4.9-15.8-12.3-24.8-15.3-.5-.8-1.1-1.6-1.7-2.3-4.9-3-10.8-5-14.9-9-4.2-1.8-8.1-2.6-11-6.4.9-.5 2.1-1.8 3.2-1.7z"/><path fill="#c46739" d="m148.1 188.3c4 1.6 7.2 4.5 11.3 5.9v2.9c-5.2-3.3-11.3-5.9-15.8-10.1 2.7-.6 2.7-.6 4.6 1.4z"/><path fill="#d57f4b" d="m62.6 186.9c10 6 20.8 9.4 31.8 13.3 6.3 3.4 12.9 6 19.2 9.3l-.7 1.3c2.9 1.4 5.5 3.2 8.6 4.3 1.5.7 4.8 3.2.9 3.1l-.8-.5c-7.1-3.5-14-7.1-21-10.7-9-5.3-19.2-8-28.6-12.5-2.7-1-5.4-3-8.3-3.5-.1.9-.1 1.8.2 2.6 9.4 4.3 19.4 9.3 28.7 13.7-.8.6-4.2.7-2.1 1.8 3.7 2 6.9 5.6 10.9 6.6-.1.8-.8 1.4-1.9 1.7-4.1-2.1-8-4.3-12.3-5.9-.6-.1-1.3 0-1.9.2-7.5-4.9-14.9-10.1-22.3-15.2-1-2.9-.3-6.6-.4-9.7z"/><path fill="#cd7342" d="m107.4 188c2 1.6 3.9 3.4 6.3 4.4 4.5 1.6 8.1 3.8 12.1 6.4 6.4 2.6 11.5 7.4 17.6 10.5l1.3.8c-.6.9-1.3 1.8-1.8 2.8 2.2.7 4.3 1.2 6.2 2.7 3.5 2.6 6.9 3.2 9.4 6.7 1 1.4 1.5 1.5.3 3.1-7-3.7-13-8.8-20.1-12.4-9.3-6-19.3-11-29.1-16.1-1.9-1.2-2.6-2.4-3.5-4.4-1.5-.4-3.1.4-4.6-.1 1.6-1 3.2-2.1 4.6-3.4.5-.3 1-.6 1.4-1z"/><path fill="#c75f34" d="m63.6 191.1c2.9.4 5.5 2.4 8.3 3.5 9.5 4.5 19.6 7.2 28.6 12.5 7 3.6 14 7.2 21 10.7-2.8 1.9 2.6 3 3.2 5.1-5.5-1.5-9.9-4.9-15.2-6.9-5.9-2.5-11-6.3-17-8.6-9.4-4.4-19.3-9.4-28.7-13.7-.3-.8-.3-1.6-.2-2.6z"/><path fill="#b74c2a" d="m109.5 196.9c9.8 5.1 19.8 10 29.1 16.1 7.1 3.6 13.1 8.7 20.1 12.4 12.5 7.9 24.8 15.2 37.9 22.1 1 .5 2 1.1 2.9 1.6v2c-6.8-3.9-13.5-7.9-20.5-11.5-4.7-3.6-10.3-5.4-14.8-9.1-3-2.2-6.2-4-9.5-5.7-3.5-2.5-7.4-4.6-11-6.9-7.7-4.4-14.8-9.6-23-13.1-4.3-2.6-8.7-4.9-13.3-6.8.7-.4 1.5-.7 2.2-1.1z"/><path fill="#ca6b3c" d="m120.6 204.8c8.3 3.5 15.3 8.7 23 13.1-1.3.5-2.5 1-3.8 1.5-.8-1.5-.6-2.8-2.5-3-5-.8-7.6-4.7-12-6.8-2.1-.6-4.3-2.7-4.8-4.8z"/><path fill="#bc6136" d="m142.7 205.8c9 3 16.5 10.4 24.8 15.3 3.8 2.3 6.3 6.7 11.2 5.8 6.9 4.8 14.4 8.9 21 14.1-.1 2.7-.1 5.4-.2 8.1-1-.6-2-1.1-2.9-1.6l.6-1.3c-2.7-2.5-5.6-4.8-9.2-5.7-7.8-5.5-15.2-11.2-23-16.8-1.4.9-1 1.4-1.7-.5-.2-1.2-2.3-1.4-3.3-2.1-4.5-4.4-10.3-7.5-15.6-11l-1.3-.8c-.2-1.2-.4-2.3-.5-3.5z"/><path fill="#cf7845" d="m92.5 207.3c6 2.3 11.1 6.1 17 8.6 5.3 2 9.7 5.3 15.2 6.9 2.2 1.4 4.5 2.7 6.8 4.1 1 1 2 1.9 2.9 3.1-3.8-.8-7.2-3.4-10.9-4.7.2 1.2-.3 2.1 1.2 2.4 1.5 1 2.4 2.5-.3 2.8-6.7-3-13-6.7-19.8-9.6-1.7-1.1-3.4-2.3-5.2-3.4 1.2-.3 1.8-.9 1.9-1.7-4.1-1-7.3-4.6-10.9-6.6-2.1-1.2 1.3-1.2 2.1-1.8z"/><path fill="#c87443" d="m113.6 209.5c3.4 1.1 5.4 3.5 9.1 3.4.6.4 1.2.8 1.7 1.2 3.5 3.4 8.7 5 13 7.1.9.8 1.9 1.5 2.9 2.1 5.5 3.7 11.6 6.2 17.1 9.8 5 3.1 9.2 6.9 14.6 8.8-.5 1.1-1.3 1.9-2.3 2.3-6.4-4.3-12.9-8.2-19.8-11.6-4.3-3.2-9.5-4.3-14-7-4-3.6-9.2-4.3-13.6-7.4 3.9.1.6-2.4-.9-3.1-3.1-1.1-5.7-2.9-8.6-4.3z"/><path fill="#c26f3f" d="m144.5 210.1c5.2 3.6 11 6.6 15.6 11 1 .6 3.1.8 3.3 2.1.7 1.9.2 1.4 1.7.5 7.8 5.6 15.2 11.2 23 16.8 3.6.9 6.5 3.2 9.2 5.7l-.6 1.3c-13.1-6.9-25.4-14.2-37.9-22.1 1.1-1.6.7-1.7-.3-3.1-2.4-3.5-5.9-4.1-9.4-6.7-1.9-1.5-4-2-6.2-2.7.6-1 1.2-1.9 1.8-2.8z"/><path fill="#cb693d" d="m87.2 211.5c4.3 1.6 8.2 3.8 12.3 5.9 1.8 1.1 3.5 2.3 5.2 3.4l-2.3.5c-1 0-2-.1-2.9-.1-4.8-3-9.5-6.2-14.1-9.4.7-.3 1.3-.3 1.9-.2z"/><path fill="#c35f35" d="m124.4 214.1c4.4 1.2 10.3 3.3 13 7.1-4.3-2.1-9.5-3.8-13-7.1z"/><path fill="#b9562f" d="m121.5 217.7.8.5c4.4 3.1 9.6 3.7 13.6 7.4 4.5 2.7 9.7 3.8 14 7 6.9 3.5 13.4 7.3 19.8 11.6 4.8 3.2 10.2 5.3 14.9 8.7-.4 1-.8 2-1.2 2.9-2.8-1.3-5.1-3-7.4-4.9-5.7-2.5-11.1-5.9-16.7-8.9-7.9-4.9-16-9.2-24.1-13.8-1.2-.7-2.5-1-3.8-1.3-2.3-1.4-4.6-2.6-6.8-4.1-.6-2.1-6-3.2-3.2-5.1z"/><path fill="#c57241" d="m143.6 217.9c3.7 2.4 7.5 4.4 11 6.9-.1 3.3 5 4.7 7 7 5.1 2.4 9.8 5.3 14.3 8.7l.4 1.8c-10.9-5.8-21.9-12.7-32.7-19 .2-1.8 0-3.6-.1-5.4z"/><path fill="#c06538" d="m236.4 219.6c.5 8.2-.3 17 .4 25.2-.4 4.7-.2 9.5-.2 14.2 0 1.1-.1 2.1-.1 3.2l-1.6-.6c-1.4-9.2 1.2-17.5.7-26.6 0-3.2.1-6.5-.1-9.8h-.7c-.4 4.4.3 9.1-.6 13.4s-.4 8.7-1 13.1c-.1 5-1.3 9.9-1.1 15-.4.4-.8.9-1.2 1.2-.7-5 .2-9.9.3-14.9-.7-1.4-1.4-2.8-2-4.3.6-8.4.4-17 1.4-25.4z"/><path fill="#ca7846" d="m99.4 221.2c1 0 2 0 2.9.1 5.6 2.4 10.4 5.8 16.2 7.8 11.3 6.7 23.5 11.5 34.4 18.9-.8.4-1.5.8-2.3 1.2-5.5-3.5-11-6.7-17-9.3-3.4-2.2-7-3.7-10.7-5.2-3.1-1.2-5.3-3.9-8.6-3.4-5.2-2.9-9.8-6.9-14.9-10.1z"/><path fill="#bb562f" d="m102.3 221.2 2.3-.5c6.7 2.9 13.1 6.6 19.8 9.6 13.2 6.9 26.2 14 39.3 20.9 5.9 4.6 13.2 6.5 18.9 11.6l-1.2 1c-9.6-4.9-18.4-12-28.5-16-10.9-7.4-23.1-12.2-34.4-18.9-5.7-2-10.6-5.5-16.2-7.8z"/><path fill="#b85b32" d="m140.3 223.3c1.1 0 2.2 0 3.4.1 10.8 6.3 21.8 13.1 32.7 19 7 5.9 15.8 7.4 23.1 13v2c-2.1.7-3.5-1.9-5.2-3-1.8-1.7-4.5-1.2-6.1-2.9-2.6-2.4-5.8-3.2-8.8-5.2-2.4-1.6-4.6-3.2-7.3-4.3-5.4-1.9-9.7-5.7-14.6-8.8-5.5-3.7-11.6-6.1-17.1-9.8z"/><path fill="#b04627" d="m230.4 223.9c-1.1 8.4-.8 16.6-1.4 25-1.3 6.3.3 12.3-1.1 18.5-.5 2.2-.3 5-.2 7.2l-1.7 1.1c-.1-2.3-.6-5.1-.1-7.4 1.4-5.8-.1-12.3 1-18 1.4-6.2-.3-12.4 1.1-18.7.4-2.2.5-4.7.5-6.9.6-.4 1.2-.8 1.9-1.2z"/><path fill="#c67342" d="m123.5 225.2c3.7 1.3 7.1 3.9 10.9 4.7-.9-1.1-1.9-2.1-2.9-3.1 1.3.3 2.6.6 3.8 1.3 8 4.6 16.2 8.9 24.1 13.8-.4 2.4-2 3.3 1.2 3.9.1 2.8 4.1 3.4 3.1 5.4-13.1-7-26.1-14-39.3-20.9 2.8-.2 1.8-1.8.3-2.8-1.5-.3-1-1.2-1.2-2.4z"/><path fill="#bd693b" d="m154.6 224.8c3.3 1.7 6.5 3.5 9.5 5.7 4.6 3.7 10.1 5.5 14.8 9.1 7 3.6 13.7 7.6 20.5 11.5v4.2c-7.3-5.6-16.1-7.1-23.1-13l-.4-1.8c-4.5-3.4-9.2-6.3-14.3-8.7-2-2.2-7.1-3.7-7-7z"/><path fill="#bd6337" d="m228.5 224.7c-.1 2.2 0 4.7-.5 6.9-1.4 6.3.3 12.5-1.1 18.7-1.2 5.7.4 12.2-1 18-.5 2.3-.3 5.2-.1 7.5l-2.7 1.8c.9-6.8.5-13.7.4-20.6.7-8.3 1.3-16.6 1-25 0-1.2-.5-2.8-1.1-3.9 1.7-1.1 3.4-2.3 5.1-3.4z"/><path fill="#b75831" d="m234.6 225.2h.7c.3 3.2.1 6.5.1 9.8.5 9.1-2.2 17.4-.7 26.6l1.6.6c.1 1.9.3 4.5.2 6.4l-8.8 6c0-2.3-.4-5 .1-7.2 1.4-6.2-.2-12.2 1.1-18.5.6 1.5 1.3 2.8 2 4.3-.1 5-1 9.8-.3 14.9.5-.4.9-.8 1.2-1.2-.2-5.1 1-9.9 1.1-15 .6-4.4.1-8.8 1-13.1s.2-9 .6-13.4z"/><path fill="#be6539" d="m223.4 228.2c-.1 4.5.5 9.8-.4 14.2-1.1 5.7.2 11.8-.7 17.5-1.3 5.8-.1 12.7-.3 18.6l-1.9 1.2c-.9-10 0-19.8.4-29.7.1-6.4.1-13.4-.1-19.8z"/><path fill="#b14928" d="m223.4 228.2c.6 1.1 1.1 2.7 1.1 3.8.3 8.4-.3 16.7-1 25 .1 6.9.7 13.7-.2 20.5l-1.5 1.1c.2-5.9-1-12.9.3-18.7.9-5.7-.4-11.8.7-17.5 1-4.4.4-9.7.5-14.2z"/><path fill="#bc5932" d="m114.3 231.2c3.3-.4 5.5 2.2 8.6 3.4 3.8 1.5 7.3 3 10.7 5.2 6 2.5 11.6 5.7 17 9.3 1.9 1.4 4 2.5 6 3.7l-1.2 1c-1.9-1.1-3.8-2.2-5.8-3-9.6-4.8-16.4-10.7-26.2-13.7-3.2-1.6-6.4-3.5-9.1-5.8z"/><path fill="#b34f2b" d="m220.4 230.2c.2 6.4.2 13.5.1 19.8-.5 9.9-1.4 19.8-.5 29.8-1 .5-1.7 1.1-2.5 1.7-1.2-2.1.2-5.1 0-7.5-.1-4.1 1.2-7.9 1.1-12-.1-10.1-.3-21.1.6-31.1z"/><path fill="#c27343" d="m214.6 233.9c-.1 2.1-.1 4.9-.2 7-.8 1.3-1 2.6-2.4 3.2-.2-1.7 1.6-5.9-1.2-2.8-1 6.8 1 14.3-1.6 20.7-2-3.2-1.1-8.5-.1-11.9-.6-3.4-.2-8.2-1.6-11.4z"/><path fill="#b2542e" d="m214.6 233.9c.7 1.5 1 3.5.9 5.1 0 8.4.3 16.7-.9 25-.9 6.4 1.1 12.9.2 19.2-.7.4-1.2.7-1.9 1.3-.3-5.4-.2-11.1.5-16.5.4-5.2-.5-10.4.7-15.4.8-3.8.4-7.9.3-11.8.1-2.1.1-5 .2-7z"/><path fill="#c67646" d="m123.4 237.1c9.8 3 16.6 8.9 26.2 13.7 1.5 3.4 5.9 4.8 8.8 7-1.7-.1-3.4-.3-5.1-.1-5.4-3-9.9-7.2-15.4-10.2-4.7-3.7-10.2-6.4-14.6-10.5z"/><path fill="#ba683b" d="m159.4 242c5.5 3 10.9 6.4 16.7 8.9 2.4 1.9 4.6 3.7 7.4 4.9 5.5 2.4 10.5 5.9 16.1 8.2.1 2.4 0 4.7 0 7.1-6.1-1.5-11.2-5.6-16.9-8.2-5.7-5-13-6.9-18.9-11.6 1-2-3-2.6-3.1-5.4-3.2-.5-1.7-1.5-1.2-3.9z"/><path fill="#bb6a3c" d="m172 241.9c2.7 1.1 4.9 2.7 7.3 4.3 3.1 2 6.2 2.9 8.8 5.2 1.6 1.7 4.4 1.1 6.1 2.9 1.7 1 3.1 3.7 5.2 3v2.9c-5-2.4-10.1-4.6-14.8-7.3-4.7-3.5-10.1-5.5-14.9-8.7 1-.4 1.8-1.2 2.3-2.3z"/><path fill="#bc6a3c" d="m152.9 247.9c10.1 4 18.9 11.1 28.5 16 5 2.7 10.3 5.9 14.6 9.6 1.6 1.7-1.2 1.8-2.1 1.1-5.2-3.3-10.7-5.8-15.8-9.1-7.3-4-14.1-8.8-21.5-12.6-2-1.2-4.1-2.4-6-3.7.8-.4 1.5-.8 2.3-1.2z"/><path fill="#ba673b" d="m149.6 250.8c2 .9 3.9 1.9 5.8 3 7.3 4.4 14.8 8.7 22.2 13 7.1 4.5 13.9 9.2 21.8 12.2v2c-4.1-.8-7.1-3.5-11-4.8 1.3 3.6 7.7 5.3 11 6.8v5.9c-.7-.3-1.2-.9-1.8-1.3-14.5-10.3-29.8-19.7-44.4-29.9 1.7-.2 3.4.1 5.1.1-2.9-2.2-7.3-3.6-8.8-7z"/><path fill="#ae4d2a" d="m156.6 252.8c7.4 3.8 14.2 8.7 21.5 12.6 5.2 3.3 10.7 5.8 15.8 9.1 1 .7 3.7.6 2.1-1.1-4.3-3.7-9.7-6.8-14.6-9.6l1.2-1c5.7 2.7 10.8 6.7 16.9 8.2.1 2.7.1 5.3 0 7.9-7.9-3.1-14.7-7.7-21.8-12.2-7.4-4.3-14.9-8.6-22.2-13z"/><path fill="#ae4e2a" d="m184.6 252.9c4.8 2.7 9.9 4.9 14.8 7.3 0 1.3.1 2.6.1 3.9-5.6-2.3-10.5-5.8-16.1-8.2.4-1 .8-2 1.2-2.9z"/><path fill="#af552e" d="m188.5 276.2c4 1.3 6.9 4 11 4.8v2c-3.3-1.4-9.7-3.2-11-6.8z"/><g fill="#bda284"><path d="m312.3 18.5c-5.8 3.9-11.9 8.5-17.4 12.8-1.1.4-2.2.8-3.4 1.1 3.3 2.8 5.4-1.3 8.7-2.3.3 1.2.7 2.4.9 3.7-1.7 1.8-4.1 3-6.1 4.5.3.8.6 1.6.9 2.4-2.7 2.4-6 4.3-8.3 7.1 1.8-.1 4.3.4 5.7-1 2.2-1.8 4.7-2.5 5.7-5.3.7.2 1.5.4 2.2.7-.3 1.3-2.2 2.7-.5 3.5 4.9-.4 5.7-5.1 10.7-5.6.4 1.6-1.8 2.2-2.8 3-4.3 3.1-8.2 6.6-12.7 9.3-2.6 2.1-6.3 3.5-5.3 7.5 7.6-5.9 16.1-10.7 24-16.4 2.8-1.3 5.1-3.3 7.9-4.6-.2 2.3-1.5 2.8-3.1 3.9-4.2 2.5-6.9 5.9-11.5 7.3.2.6.4 1.3.7 1.9-3.8.1-8.8 3.8-11 7-2.2.8-4.6 1.5-5 4.1l-14.5 10c-.2-.9-.6-1.9-.8-2.8-1.1-.4-2.2.9-3.1 1.4-4.2 3-8.7 5.6-13 8.4-2.9 2.7-6.1 5.1-9.6 7-.7-.3-1.3-.7-1.9-1.1 2.1-2.2 4.9-3.3 6.9-5.7 7.4-5.8 15.3-10.9 23.1-16.1.3-.2 3.2-2.7 1.1-1.8-6.7 2.5-12.4 8.2-18.8 11.7-1.1-.1-2.2-.2-3.3-.4 3.5-3.7 9-5.5 11.8-9.6-3.2.7-4.7 3.5-8.2 3.5-.9 3.2-3.8 4.1-6.5 2.3.8-1.3 1.8-2.5 2.6-3.8-2.8.8-4.8 4-7.7 3.9-.7-3.3 5.7-2.9 6.3-6.4-.6-.5-.9-1-.9-1.4 2.3-2.7 6.1-4.2 8.4-7-1.8.2-3.3 1.1-4.8 2.1-5.7 3.8-11.2 7.9-17.1 11.5-5.8 3.4-11.2 7.2-17.2 10.2-2.6-.1.6-2.1 1.4-2.5 7.2-5.1 14.9-9.2 21.9-14.6 6.5-4.4 14-8.3 19.8-13.6-3.1-.6-4.2 3.2-6.3 0 3.4-2.4 7.1-4.6 10.3-7.1-.3-1.8-2-.3-2.9.2-5.8 3.9-12.6 9-19.4 10.6l56-37.9z"/><path d="m296.9 74.8c-1.7 1.7-3.7 2.9-5.7 4.2-1.5.9-3 1.5-4.7 2 2.1-2.8 6.7-6.4 10.4-6.2z"/><path d="m263.5 152.9c-.4 2 .5 2.6-1.9 2.7-.2 2.4.6 1.9 2.5 2.7-1.9 4.3-5.3 3.1-8.6 5.5 3.3.2 6.3.4 8.9-1.9 1.5-1.4 3-.2 4.9-.2.2-1.2.5-2.5.7-3.7 3.5 2-1 4.9-.3 8-.5 2.4 1.1-1.1 1.5-1.4 1.6-.7 4.6.4 2-2.1 1.5-2 4.4-1.9 1.7-4.5 2.6.4 5.3.2 7.8.9-1.1 2.2-.6 1.6 1.2 2.9-1.8 2.2-2.5 4.7-5.9 4.6-.8-.8-1.5-1.6-2.2-2.3.1 1.3.8 2.9.4 4.1-2.7 2.4-6 3.4-8.8 5.6-2.2 1.2-4.3 3.2-6.7 4-2.1-2.1-3.3-.2-5.8-.3-3.6-.4-6.4 1.7-10.1 1.5l-.4-.7c1.1-1.9 4.7-2.8 1.9-5-1.8.2-3.7.8-5.5.5-.7-2.3-.8-4.7-1.8-6.8 1.8.1 3.6.4 5.3.6.1-1.2 0-2.5.1-3.7 2.5 0 1.6-2.5 3.8-2.4s2.7-3 5.1-2.8c2.2.3 1.4-1.6 3.5-2 2.7-.7 4.3-2.7 6.8-3.7z"/></g><g fill="#c5ab8e"><path d="m312.3 18.6 13.8 10.7c-4.2 3.1-8.6 6.3-13.1 9l.2 1.2c.3 1.5.6 2.8 1.3 4.1-7.9 5.7-16.3 10.4-24 16.4-1-4 2.7-5.4 5.3-7.5 4.5-2.7 8.4-6.2 12.7-9.3 1-.8 3.2-1.4 2.8-3-5 .4-5.8 5.2-10.7 5.6-1.7-.9.2-2.3.5-3.5-.7-.3-1.4-.5-2.2-.7-1 2.9-3.5 3.6-5.7 5.3-1.4 1.4-3.8.8-5.7 1 2.3-2.8 5.7-4.6 8.3-7.1-.3-.8-.6-1.6-.9-2.4 2-1.5 4.5-2.6 6.1-4.5-.2-1.2-.5-2.5-.9-3.7-3.3 1-5.3 5.1-8.7 2.3 1.2-.3 2.3-.7 3.4-1.1 5.5-4.3 11.6-8.9 17.3-12.8z"/><path d="m170.3 183c.6 4.4-.2 9 .5 13.3 2.1.5 2.5 2.5 4.7 2-.1 4.1-.7 8.3-1 12.4.7 1.8 1.1 3.7 1.2 5.6l-9-5.8c.2-4.1.6-8.5.2-12.6.3-2.9-.1-5.9 0-8.8 1 .2 1.6.5 2.6.7-.5-.9-1.1-1.8-1.7-2.7.7-1.5 1.3-2.8 2.4-4z"/></g><g fill="#c2a78a"><path d="m335.5 51.1c-1.1 2.1-4.4 2.4-6.3 3.6-5.4 3.2-11.3 4.9-16.7 8.2 8 .8 15-6.5 23-6.7-3.4 2.7-8.1 4-12.1 5.7-4.8 1.8-9.1 4.6-13.9 6.4-1.4.5-2.7 1.2-3.9 1.9-1.2-3.1-3.6-1.8-2.4-5.3.7-.4 1.4-.7 2.2-1 1.6-.3 3-.7 4.4-1.6 6.7-3.8 14.1-6.4 20.9-10.1 1.6-.7 3.1-1.2 4.8-1.1z"/><path d="m333.9 159c0 1.4.6 1.7-1 2.3-4.7 1.8-7.4 5.8-12.3 6.8.6-2.3 3.5-3.1 4.9-5-.6-.8-1.1-1.5-1.7-2.2 1.7.3 3.1 2.1 4.6.8 2.3-1.1 2.6-4 5.5-2.7z"/></g><g fill="#d1b89b"><path d="m337.5 69.5-.1 6.8c-3.8-.7-7.7 1.7-11.2 2.9-2.3-1.3-2.9.9-5 1.5-3.9 1.2-7.7 3.1-11.6 3.9-.9-.4-1.7-.9-2.4-1.6 2.1-1.6 4.5-2.7 6.7-4.1 3.1-1.9 6.7-1.3 9-4.1 5.3 0 10.1-3 14.6-5.3z"/><path d="m337.5 111.7c.2 9.3.1 18.7.1 28-3.7.1-5.8-.9-8.7-2.8.4-.9.9-1.8 1.3-2.7-2.2-2.1-4.7-2.8-5.5-6 .9-.3 1.8-.6 2.8-.8-.5-2.1-2.5-3.9-2.7-5.9 1.1-.2 2.3-.5 3.4-.7-.3-2.3-.3-4.2.7-6.4 1.8-.5 3.8 1.2 5.5 1.8-.6-1-1.2-1.9-1.8-2.8 1.3-.4 3.7-1.1 5-1.5z"/></g><g fill="#c3a88b"><path d="m273.5 91c-1.3 1.6-2.7 3.1-3.8 4.9 1.2 2 1.9-.8 3.5-.6.2 1 .4 2 .6 3-5.7 3.5-11.2 7-16.9 10.3-4.2 2.7-10.3 4.5-13.9 8 0-2.5 1.1-5.7.1-8 0-1.9 0-2.7 1.9-3.8-.2 1.5-.7 2.7.4 4 6.4-3.9 12.9-7.3 18.9-11.8 2.6-2.6 5.9-4.4 9.1-5.9z"/><path d="m301.8 109.2c1.8-.5 4 1.3 5.9 1.5 3.5 1.2 2.9 5 5.7 6.5 1.1.6 1.1 2.4 1.7 3.4 1.3.7.8-.5 1.3-1.3 1-2.9 3.3-4.2 5.8-5.5-.5 2.4.2 2.3 1.9 3.6-1.5 1.5-2.1 1.7-1.9 4-2.6.1-1 .6-.3 2 1.2.8-3.5 2.3-1.3 2.5 2.6.1 1.5 3.1 1.8 4.9.4 1.2-3.3.7-2.2 1.8 1.9 2.8 1.4 4.3.5 7.3-1.2-.4-2.5-.8-3.7-1.4-.8-3.2-2.4-7.3-1.2-10.5.4-1.7.8-5.4-1.9-5-.6 4.6-1 9.2-1.5 13.8-.1 1.1-1 2.1-1.6 3.1-2.3 1.5-2.7 4.3-4.5 6.4-2.2.3-4.9-.3-6.3 1.9 0 1.6.2 3.3.1 4.9l-.5.8c-1 0-1.9-.1-2.8-.2.6-3.3 2-6.3 2-10.1-.5-2.1-1.9-3.2-3.1-4.8 1.1-5.6 5-3.8 8.7-7.5-1.4-.8-2.8-1.6-4.2-2.4.7 2.4-.8 5.8-2.8 2.4 1.9-3.4 3.9-6.2 7.2-8.2-1.1-.7-4.5-.2-3.7-2.1 1.2 0 2.4.2 3.7.3 0-2.7-1.5-3.2 1.9-3.9-1.8-2.3-2.5-3.5-5.6-2.9.1-1.9.1-3.7 1.1-5.5z"/></g><g fill="#c4aa8c"><path d="m310.3 95.4c2.9.5 5.8.2 8.7.7-4.2 1.7-9.1 4.2-13.7 3.7-3.6.2-7.1.1-10.7.4-2.7 1.2-5.5 3.2-7 5.8 3.4-.9 6.4-5.4 10.8-4.9-.3.8-1 3.4-2 3.4-2.7-.5-2.4 2.6-4.4 4-1.1-2.5-2.9 1.5-4.2 2.1-.6-1.2-1.1-2.3-1.7-3.5-3.5 2-4.5 7.6-5.3 11.2-1.5 2.4-3.8 1.7-4.9 4-1.8 1.5-5.2 1.5-7.4 1.8-.2-.7-.4-1.4-.6-2.1 4.8-3.8 9.3-7.8 13.2-12.6 3.1-4.3 6.9-8 11.8-10.2 4.3-1.8 9.2-1.3 13.7-2.7 1.3-.4 2.5-.9 3.8-1.3z"/><path d="m337.5 160.8c.1 1.1.1 2.1.1 3.2-.7.2-2.5 1.4-3.2 1.7-3 2.9-7.7 4.5-10.9 7.4.3 1.9.8 3.8 1.3 5.6 1.8.2 2.1-3.8 3.9-4 2.9-.2 6.1-2.6 8.7-3.6l-.1 2c.1 2.9.1 5.9.1 8.8l-.8-.2c-1.6-.7-3.4 2-4.9 2.5-3.3 1.7-6.6 3.2-9.5 5.6-3.6 3.1-8.2 4.3-11.8 7.3-1.4-.1-2.7-.2-4-.4 3.3-2.7 7.9-3.8 11.2-6.8-.7-.5-1.5-.9-2.3-1.4 4.1-2 7.6-4.8 11.5-7.2 2.2-1.3 4.3-2 5.5-4.4-4.9.9-8.4 5.7-13.1 6.6-.6.5-1 1.1-1.7 1.5-5-.6-9 5-14.2 4.9-1.9.2-2.1-1.5-3-2.8.9-1.7.9-3.8 2.8-4.6 4-2.8 8.5-4.4 12.7-6.5 6.5-5.2 14.5-10.9 21.5-15.4z"/></g><g fill="#b19376"><path d="m282.6 124.1c1.8.6 3.6 1.3 5.5 1.7 1.1 2.1 2.2 4.2 3.3 6.3-.4 1.2-1.6 2.1-2.5 2.8-.5-1.7-.4-3.3-1.8-4.5-1.4-1.1-.4-2.8-2.3-3.4-.8-.9-1.5-1.9-2.2-2.9z"/><path d="m258.3 134.3c.3.8.6 1.6.8 2.4-2.9 1.8-5.3 3.7-8.8 4-2 .9-3.7 2.6-5.8 3.5 0-1 0-2 0-3 4.8-1.9 8.8-5.3 13.7-6.9z"/></g><g fill="#c2a88a"><path d="m289.2 138.2c-.6 3.3-.4 4.5 1.6 7.3-1.3 2.8-6.4 5.3-5.8 8.5-.8 1.7-1.6 3.4-2.5 5-2.5-.7-5.2-.5-7.8-.9 2.7 2.6-.2 2.5-1.7 4.5 2.5 2.5-.4 1.4-2 2.1-.4.3-2 3.8-1.5 1.4-.7-3.1 3.8-6 .3-8-.2 1.2-.4 2.5-.7 3.7-1.8-.1-3.4-1.2-4.9.2-2.6 2.3-5.6 2.1-8.9 1.9 3.3-2.4 6.7-1.2 8.6-5.5-1.9-.7-2.7-.3-2.5-2.7 2.4-.2 1.5-.7 1.9-2.7 1.6-1 3.2-2 4.8-3 3.5-.6 3.9-1.3 5.4-4.4 2 1.5 2.5.2 4.3-.8-.4-.9-.9-1.8-1.2-2.7 3.9-2.4 7.6-5 12.4-4z"/><path d="m322.7 140.8c.7 2.7 4.4 2.9 6 4.9.4.9 3.1 1.4 1.8 2.3-2.8 2 4.9.1 3.6 1.7-3.4.3-6.3 1.3-8.7 3.8-1.2 3.2-4.9.8-6.9-.2.5 1.1 1 2.2 1.5 3.3-2.5 1.3-3.7 2.7-5.1 5.1.8.2 1.6.4 2.5.5-1.2.8-2.4 1.7-3.8 2.2-2.1-.5-4.5-1.6-6.3.2-.4 1-.8 2-1.1 3-1.4-1.6-2.1-3.3-4.4-3.8.9 2.5 1.8 5.1 2.5 7.6 1.1 1 2.3 1.8 3.5 2.6 1.9-.7 3.8-.9 5.8-1.1-1.8 2.8-4.6 3.8-7.6 4.8-5.6 1.6-11.1 4.1-15.4 8.1-1 1-3.5-.6-3.6 1.3-.3 2.4-2.4.6-4.1 1.1-2.9 1.4-4.3 3.9-7.8 3.8 0-2.6 1.8-3.4 3.3-5.2-.3-1.2-.6-2.4-1-3.6-.9.2-3.9 2.6-3.8.7 3.5-3 7.4-5.4 11.5-7.7 3-2.3 5.5-5.1 8.1-7.8 1.9-1.7 5.6-1.8 7.3-4-1.4-.7-2.7-1.3-3.9-2.2 4.7-1.4 8.7-4 12.6-6.9 5.3-3.8 11.9-8.2 11.6-15.5 1.7-.5 1.4-1 2.1.9z"/></g><g fill="#bca183"><path d="m310.7 140c.5 1.9 1.4 3.6.2 5.4-3.3 3.7-6.7 5.6-11 7.8.1-1.7 0-3.3-.1-4.9 1.5-2.1 4.1-1.6 6.3-1.9 1.8-2.2 2.2-4.9 4.5-6.4z"/><path d="m296.4 162.3c1.2.9 2.6 1.6 3.9 2.2-1.7 2.2-5.4 2.3-7.3 4-2.6 2.7-5.1 5.6-8.1 7.8-4 2.3-7.9 4.6-11.5 7.7-.1 2 3-.5 3.8-.7.4 1.2.7 2.4 1 3.6-1.5 1.8-3.3 2.6-3.3 5.2.3 3.7-5.3 1.6-5.6 5.9-3.9 1.3-7.4 3-10.9 5-1.7-2.8-3.2-.4-5.6-.2-.2-1-.5-2-.9-3-2.5-1.2-4.3-3.8-6.5-5.6 2.6.4 5.2.5 7.8.4-1.3-2.3-2.9-1.2-5.1-1.2 1.3-1.6 3.5-2.4 5.1-3.6 1.3-.3 2.8-.3 4.1-.7.4-.6.5-1.7 1.2-1.9 4-1.2 4.8-5.2 9.4-3.5-.6-1.1-1.2-2.1-1.7-3.2.8-.2 2.5.4 2.8-.7 1.3-2.6 3-3.6 5.9-3.6 3.6-3 7.6-4.6 11.8-6.4-1.1-2.1-.3-4.1-.6-6.3.8.6 1.6 1.2 2.4 1.7 2.4-1.3 4.8-2.3 7.5-2.9z"/></g><g fill="#b89d7f"><path d="m241.4 162.2c1 .6 2 1.1 3 1.7-.1 1.2-.1 2.5-.1 3.7-1.8-.2-3.5-.5-5.3-.6 1.1 2.2 1.2 4.5 1.8 6.8 1.8.3 3.7-.4 5.5-.5 2.8 2.2-.8 3-1.9 5-1 1.9-1.3 4-3.3 5.1-4-1.6-7.6-2.1-12-2.1.2 3.4-1.1.5-2.7 0-1.3-.1-2.6 1.2-3.8 1.6-1.2-.5-2.9-3.2-4.1-1.8-1.5 1.7-1.5-1.6-2.1-2.4 8.2-5.6 16.7-11.1 25.1-16.4z"/><path d="m311.6 198.6.4 1.2c-2 2.3-3.6 4.6-6.9 5-3.1.2-1.8 2.9-4.3 4.4-.6 1.1-2.1-1.6-2.5-.3-1.8 2.8-3.7 4-6.5 5.4-1.3 2.7 2.7.5 4 .9.5 1.2.9 2.4 1.3 3.6-3.8 1.4-5.1 4-9.6 2.4 1.1 1.4 2.3 2.1 4 2.7 3-1.2 5.6-3.1 8.6-4.4 3.2-1.3 4.7-4 8.3-4.5-1.9 2.2-2.9 1.9-1.8 5.1l-1.1.8c-2.8.3-5.5 1.4-7.6 3.2.2.6.3 1.3.5 1.9-7.3 4.8-14.6 9.7-21.6 14.8-.6-1.2-1.4-1.5-2.6-2.1.6-1.4.7-1.2-.2-2.5 2.2-.5 4.7.1 4.5-3.1-4.3.5-7.8 5-11.8 4.7-.6-2.9 5-2.8 5.9-5.2-2.8.1-4.1-1.9-7.1-1.2-.1-3.3 1-2.8 3.7-2.9 2.2-2.6 4.4-3.9 7.1-5.8.9-1.9 7.3-3.8 5.3-6.2 5.2-2.5 9.7-5.9 14.6-8.9 5.4-2.7 9.8-6.9 15.4-9.1z"/></g><g fill="#c3a98b"><path d="m184.2 190.8c.2 1.5.3 3.1.6 4.6 1.2.6 2.3 1 3.7.9-.7 9-1.3 18.2-1.5 27.3l-3.7-2.4c.7-10-.8-20.5.8-30.3z"/><path  d="m190 197.9c.7 1 1.5 1.8 1.4 3.1-.4 2.5.7 4.6.8 7 1.3 0 2-.2 3.1-1-.5-.8-1-1.5-1.4-2.2 1.6-1 3-2.1 4.6-3 .1 1.1.1 2.2.2 3.2.1 8.1-.3 16.2.3 24.2l-.5 1.5-9.6-6.2c2.3-2.7.9-7.2 1.3-10.6.3-4.9-1.3-10.7 0-16z"/></g><path fill="#b89b7e" d="m326.2 29.3.7.6c-3.7 3.9-8.9 7.2-13.6 9.6l-.2-1.2c4.4-2.7 9-5.9 13.1-9z"/><path fill="#ceb599" d="m327 29.9 6.7 5.2c-2.9 2-6.5 3.9-9 6-5.5 3.5-10.5 7.8-16.2 10.9-.2-.6-.5-1.3-.7-1.9 4.6-1.4 7.3-4.8 11.5-7.3 1.7-1.1 3-1.7 3.1-3.9 2.7-.5 4.7-1.2 6-3.9-2.4.4-4.3 2.2-6 3.9-2.8 1.3-5.1 3.3-7.9 4.6-.7-1.3-1.1-2.6-1.3-4.1 4.7-2.4 10-5.6 13.7-9.5z"/><path fill="#bea285" d="m328.4 35c-1.3 2.6-3.2 3.3-6 3.9 1.6-1.6 3.6-3.5 6-3.9z"/><path fill="#d3bb9f" d="m337.5 41.9v13.8l-.1 11.4c-1.6.5-4.1 1.8-5.7 2-2.3-1.2-3.8.2-6 .7-.2-1 1.2-3.9-.7-2.2-1.3 1.4-2.8-1.1-4.5-.7-2.3.7-4.2 1.9-6.6 2.3 1 1.6 2.3 1.5-.2 2.5-2.1-2-4.5 0-4.2-3.5 4.8-1.8 9.1-4.6 13.9-6.4 4-1.7 8.7-3 12.1-5.7-8 .3-15 7.6-23 6.7 5.3-3.3 11.3-5 16.7-8.2 1.9-1.2 5.2-1.5 6.3-3.6-1.8-.1-3.2.4-4.8 1.1-6.8 3.7-14.2 6.2-20.9 10.1-1.4.9-2.8 1.3-4.4 1.6 4-3.4 8.3-6.6 13-9.1 4.4-.3 9.5-3.3 13.2-5.7-2.6.1-4.7 1.2-7.2 1.7 3.7-3.3 8.7-7.1 13.2-8.9z"/><path fill="#b79b7d" d="m262.2 48.1c2.1 3.2 3.2-.5 6.3 0-5.7 5.3-13.3 9.2-19.8 13.6-3.6-1.7-4.9 4-8.4 1.1 2.1-2.4 4.4-4.3 7.7-4.7 4.1-4.1 9.5-6.7 14.2-10.1z"/><path fill="#c5aa8e" d="m331.5 49.1c-3.7 2.4-8.8 5.3-13.2 5.7 1.9-1.6 3.8-2.9 6-4 2.5-.5 4.6-1.6 7.2-1.7z"/><path fill="#ceb79d" d="m308.5 52.1c-3.4 2.7-6.5 4.6-11 7 2.2-3.1 7.2-6.8 11-7z"/><path fill="#b5997b" d="m264.5 55.1c-2.2 2.9-6.1 4.3-8.4 7 0 .4.3.9.9 1.4-.6 3.5-7 3.1-6.3 6.4 2.9.1 4.9-3.2 7.7-3.9-.8 1.3-1.8 2.5-2.6 3.8 2.7 1.8 5.7.9 6.5-2.3 3.4 0 5-2.8 8.2-3.5-2.8 4.1-8.4 5.9-11.8 9.6 1.1.1 2.2.2 3.3.4-2.2 2.2-5.1 3.6-7.3 5.7l1.9.5c-1.9 2.5-4.7 3.5-6.9 5.7.6.4 1.2.8 1.9 1.1 3.5-2 6.7-4.3 9.6-7 4.4-2.8 8.8-5.4 13-8.4.9-.5 2-1.7 3.1-1.4.2.9.4 1.8.6 2.8-.7-.2-1.3-.3-2-.4-3.6 2.3-7.2 4.7-11 6.6.3.7.6 1.4.9 2.1l-25.2 17.6-16.2-10.6c1.7-1 3.4-1.9 5-2.9-1-.4-2-.9-3-1.5 6.7-4.9 15.3-8.2 21.2-13.9-1.3.2-2.4.6-3.6 1.3-6.6 4.4-13.5 8.5-20.4 12.4.3-1.6.7-2 2-2.8 6-3.4 12-7.1 17.6-11.2l-.5-1.2c5.8-3.6 11.4-7.7 17.1-11.5 1.5-1 3-1.9 4.8-2.1z"/><path fill="#cdb599" d="m297.5 59c-1.3 2-2.9 2.5-5 4.1.5-2.6 2.9-3.3 5-4.1z"/><path fill="#b69b7d" d="m240.3 62.8c.6 3.6-2.1 3.9-4.5 5.4-5.1 2.2-8.6 5.8-14.3 6.6 1.2-1.6 2.9-2.3 4.5-3.4 4.8-2.8 9.3-6.2 14.3-8.7z"/><path fill="#c9af93" d="m303.1 64.8c-1.2 3.5 1.3 2.3 2.4 5.3-2.8 1.5-5.5 4-8.7 4.6-3.7-.2-8.2 3.4-10.4 6.2-2.2.9-4.3 1.9-6.5 2.9-2.6 1.9-5 4.5-7.9 5.8-1.8.8-2.5 0-3-1.7 11.3-8 22.5-15.5 34-23.2z"/><path fill="#cfb699" d="m320.5 67c1.7-.5 3.2 2.1 4.5.7 1.9-1.7.5 1.3.7 2.2 2.3-.5 3.7-1.9 6-.7-4.4 2-9.1 3.1-13.6 4.6-4.4 2.1-9.2 3.4-13.6 5.5-3.7-3.2-8-1.4-11 1.8-1.5 2-1.7-1.2-2.5-2.1 2-1.4 3.9-2.6 5.7-4.2 3.2-.6 5.9-3.1 8.7-4.6 1.3-.7 2.6-1.4 3.9-1.9-.3 3.5 2 1.5 4.2 3.5 2.5-1 1.3-.9.2-2.5 2.4-.4 4.4-1.6 6.6-2.3z"/><path fill="#c3a98d" d="m275.8 72.6c.7.1 1.4.4 2.1.6l-12.1 8.2c-.3-.7-.7-1.5-1-2.2 3.8-2 7.4-4.4 11-6.6z"/><path fill="#c8ae90" d="m337.5 76.6v1c-4.2 1.5-9.6 2.4-13.5 4.6-3 1-6 .8-8.9 2.5-2.4 1.3-6.2 1.8-7.6 4.3 4 .9 6.1-2.4 9.8-2.3 6.6-.4 13.9-4 20.2-6 0 1.4 0 2.7-.1 4.1-10.7 1.6-22.1 6-32.1 9.9-3.8 1.2-7.6 2.3-11.6 2.6-.4-.7-.8-1.4-1.2-2.1 4.3-3.3 9.5-4.9 13.9-8-2.3-.2-4 .9-6 1.8-6.7 3.2-13.3 6.2-19.2 10.8-4.3 2.3-7.5 6-11.7 8.3-1.6.1-4.3 2.9-4.4-.1 5.8-4.3 11.8-8.5 17.5-13 1.3-.3 2.3-.7 3.3-1.5 4.9-3.5 10.4-6.1 15.3-9.7 3.9-2.6 7.6-5.4 12.6-5-2.2 1.5-4.6 2.5-6.7 4.1.7.7 1.6 1.2 2.4 1.6 4-.9 7.7-2.7 11.6-3.9 2.1-.6 2.7-2.8 5-1.5 3.5-1.2 7.4-3.3 11.2-2.6z"/><path fill="#c9af92" d="m304.6 79.3c-5.8 3.5-13.1 5.8-17.7 10.8-1.9.8-3.8 1.3-5.5 2.6-2.5 1.8-4.9 4-7.7 5.4-.2-1-.4-2-.6-3-1.6-.2-2.3 2.5-3.5.6 1.1-1.7 2.5-3.2 3.8-4.9 1.8-1.1 4-2 5.4-3.6 2.3-2.8 5.8-3.2 7.6-6.3 1.7-.5 3.2-1.1 4.7-2 .8.9 1 4.1 2.5 2.1 3-3.2 7.3-5 11-1.8z"/><path fill="#d0b79a" d="m337.5 77.5v3c-6.3 2-13.5 5.7-20.2 6-3.8-.1-5.8 3.2-9.8 2.3 1.4-2.5 5.3-2.9 7.6-4.3 2.8-1.7 5.9-1.5 8.9-2.5 3.9-2.2 9.3-3.1 13.5-4.6z"/><path fill="#bb9f82" d="m286.5 81c-1.9 3.2-5.4 3.6-7.6 6.3-1.4 1.6-3.6 2.5-5.4 3.6-3.3 1.5-6.6 3.4-9.1 5.9-6 4.5-12.5 7.9-18.9 11.8-1.2-1.3-.6-2.5-.4-4 3.5-2.4 6.5-5.1 10.2-6.9 3.2.2 9.1-1.7 8.2-5.9.9 3.7 6.5-.5 4.1-2.9.5-.3 1-.7 1.5-1 .5 1.7 1.2 2.5 3 1.7 2.9-1.4 5.3-3.9 7.9-5.8 2.1-1 4.3-2 6.5-2.9z"/><path fill="#ceb598" d="m337.5 85.7c.1 1.7-.2 3.7.2 5.4l-.4.8c-1.3 3.2-1.1 5.8-.7 9.2-2.5.7-2.9-.3-2.5 2.8-1.9 0-3.3-1.9-3.1 1.1-2.2-1.5-2.4-2.5-4.9-.6-.1 2.2-.4 3.7-1.4 5.6h-1c-.1-1.2-.3-2.5-.4-3.7-3-1.1-6.3-1.7-9.5-1.4 2.7-2 2.2-3 2.4-6.1 4.5-2.6 10.6-2.1 14.3-5.7-4.1-.5-7.4 2.5-11.5 2.9-2.9-.5-5.7-.2-8.7-.7 5.2-4.3 12.2-4.9 18.2-7.3 2.5-1 6.3-1.6 8.9-2.3z"/><path fill="#cbb399" d="m267.6 89c2.4 2.4-3.2 6.6-4.1 2.9 1.3-1 2.7-2 4.1-2.9z"/><path fill="#c9b195" d="m263.5 91.9c.9 4.2-5 6-8.2 5.9 2.6-2.1 5.5-3.9 8.2-5.9z"/><path fill="#d7c4af" d="m337.5 91.4v18.7l-1.1-1.1c.1-2.7.2-5.3.1-8-.4-3.4-.2-6.5 1.1-9.7z"/><path fill="#bba082" d="m330.5 93.1c-3.8 3.5-9.8 3.1-14.3 5.7-2.7 1.1-5.2 2.7-8 3.5-1 .3-1.9.3-2.5 1.3 4.1 1.9 7.6 3.9 10.8 7 2.4-.4 4.7-.7 7.2-.7h1c4.2-1.5 7.4-1.5 11.8-.9l1 1.1v.8l-1 1.1c-1.3.4-2.6.8-3.9 1.2-3.9-.3-6.8-1.6-10.4.6-2.5 1.4-4.9 2.7-5.8 5.5-.5.8.1 2-1.3 1.3-.5-1-.6-2.8-1.7-3.4-2.7-1.5-2.2-5.3-5.7-6.5-1.9-.2-4.1-1.9-5.9-1.5-1 1.8-.9 3.5-1.1 5.5-1.1-.4-2.1-1-3.2-1.4-1.2 1.5-.5 4.6-2.8 2.2-1.1 1.9-1.8 6-4 6.6.4-2.6 1.2-4.8 2.4-7.1-3.9-.8-3.9 5.4-4.6 8 1.5 4.2 4.3 7.2 8.6 8.6 2 3.4 3.5-.1 2.8-2.4 1.4.8 2.8 1.6 4.2 2.4-3.8 3.6-7.7 1.9-8.7 7.5 1.2 1.7 2.7 2.7 3.1 4.8 0 3.7-1.4 6.8-2 10.1 1 .1 1.9.1 2.8.2 1.4.1 2.7.2 4.1.4-1.9.9-3.6 1.5-5.2 3-2.9-1.3-6.5 1.5-8.9 2.7-2.8.7-3.3-4.3-4.3-6-.6-3.2 4.5-5.7 5.8-8.5-2-2.8-2.2-4-1.6-7.3-4.8-1-8.5 1.5-12.4 4 .4.9.9 1.8 1.2 2.7-1.9 1-2.3 2.3-4.3.8-1.5 3.1-1.9 3.7-5.4 4.4 1.3-4 4.6-5 7.1-7.9-3.8.3-5 3.2-8.1 4.7-4.3 2.2-7.5 5-12.3 6-2 3.2-8.8 4.2-12 5.7v-13.7c2.1-.9 5.3-3.2 7.3-4.1 3.4-.4 5.9-2.3 8.8-4-.2-.8-.5-1.6-.8-2.4-4.9 1.7-10.5 5.9-15.3 7.8v-6.9c4.2-2.5 10-4.8 14.1-7.5 4.2-2.9 6.3-3.3 11.3-3.4 2.2-.3 5.6-.3 7.4-1.8 1.1-2.4 3.5-1.7 4.9-4 .8-3.6 1.9-9.2 5.3-11.2.6 1.2 1.1 2.3 1.7 3.5 1.3-.7 3.1-4.6 4.2-2.1 2-1.4 1.7-4.5 4.4-4 1 0 1.7-2.7 2-3.4-4.4-.5-7.4 4-10.8 4.9 1.5-2.7 4.3-4.6 7-5.8 3.5-.3 7.1-.2 10.7-.4 4.6.5 9.5-2.1 13.7-3.7 4.2-.4 7.4-3.4 11.5-2.9z"/><path fill="#c0a688" d="m292.5 95.1c.4.7.8 1.4 1.2 2.1-5.2 2.3-9.2 5.9-13.4 9.7-2.4 3.4-4.7 5.7-8 8.1-7.8 7.4-19.8 12.4-29.3 18v-6c2.9-1.6 6.9-4.3 10.1-5.4 1-2.2-.9-1.5-2.2-1.1-2.1 1.2-5.7 3.1-7.8 4.3v-4c3.4-1.9 8-5 11.4-6.8 3.7-1.9 7.4-3.4 10.8-5.9 0 3 2.8.1 4.4.1-1 2.3-5.1 2.5-5 4.8 5.2.6 5.3-3.8 9.2-5.6 6.3-4 11.5-9.3 18.7-12.2z"/><path fill="#c6ab8e" d="m316.2 98.8c-.2 3 .3 4.1-2.4 6.1 3.2-.3 6.5.3 9.5 1.4.2 1.2.3 2.5.4 3.7-2.4 0-4.8.3-7.2.7-3.2-3.2-6.7-5.1-10.8-7 .6-1 1.5-1 2.5-1.3 2.7-.8 5.3-2.4 8-3.5z"/><path fill="#c7ad90" d="m336.5 101c.1 2.7 0 5.3-.1 8-4.4-.6-7.6-.6-11.8.9 1-1.9 1.3-3.5 1.4-5.6 2.6-1.9 2.7-.9 4.9.6-.3-3 1.2-1.1 3.1-1.1-.4-3.1 0-2.1 2.5-2.8z"/><path fill="#cab093" d="m332.5 113.2c.6.9 1.3 1.9 1.8 2.8-1.7-.5-3.8-2.3-5.5-1.8-.9 2.2-.9 4.1-.7 6.4-1.1.2-2.3.5-3.4.7.2 2.1 2.2 3.8 2.7 5.9-.9.3-1.9.5-2.8.8.8 3.2 3.4 3.9 5.5 6-.4.9-.9 1.8-1.3 2.7 2.9 2 4.9 3 8.6 2.8.1 5.3.2 10.7-.1 16-.8 1-2.6 2.4-3.5 3.4-2.9-1.3-3.2 1.6-5.5 2.7-1.5 1.3-2.9-.5-4.6-.8.6.7 1.1 1.5 1.7 2.2-1.4 1.9-4.3 2.7-4.9 5-2.2 1.9-4.8 3.1-7 4.9-2 .2-3.9.5-5.8 1.1-1.2-.8-2.5-1.6-3.5-2.6-.7-2.6-1.5-5.1-2.5-7.6 2.2.4 3 2.2 4.4 3.8.3-1 .7-2 1.1-3 1.8-1.8 4.2-.7 6.3-.2 1.3-.5 2.5-1.5 3.8-2.2-.8-.2-1.6-.4-2.5-.5 1.4-2.4 2.6-3.8 5.1-5.1-.4-1.1-1-2.2-1.5-3.3 2 1 5.7 3.4 6.9.2 2.4-2.4 5.3-3.5 8.7-3.8 1.3-1.6-6.4.3-3.6-1.7 1.4-.9-1.4-1.4-1.8-2.3-1.7-2.1-5.4-2.2-6-4.9-.7-1.9-.5-1.4-2.1-.9.8-3.1 1.4-4.5-.5-7.3-1.1-1.1 2.7-.7 2.2-1.8-.3-1.8.8-4.8-1.8-4.9-2.2-.2 2.5-1.7 1.3-2.5-.7-1.5-2.3-1.9.3-2-.2-2.3.3-2.5 1.9-4-1.6-1.4-2.3-1.3-1.9-3.6 3.6-2.2 6.5-.9 10.4-.6z"/><path fill="#b39679" d="m250.9 120.5c1.3-.4 3.2-1.1 2.2 1.1-3.2 1.1-7.2 3.9-10 5.5l.1-2.1c2.1-1.2 5.7-3.2 7.8-4.4z"/><path fill="#af9174" d="m277.5 128c2.6.7 4.7-.5 7.3-1-1.7 5.7-10.1 7.1-15.2 7.8-4-3.7-5.8.5-10.2-.2l.5-1.2c5.2-4 10.9-6.8 17.5-5.5z"/><path fill="#b69a7c" d="m337.3 155.8c.3 1.1 0 2.5.4 3.6v.8c-.3.6-1.1 1.1-1.4 1.7-7 4.5-13.8 9.3-20.3 14.5-4.3 2.2-8.7 3.8-12.7 6.5-1.9.8-1.9 2.9-2.8 4.6-1.5-3.5-4.3-1.4-4.1 1.6.3 1.7-1.5-.6-2.1-.7-1 3.5-4.6 4.4-7.5 6-3.1 1-4.9 3.5-7.8 4.9-1.8.9-3.9 1.7-5.3 3.1-.8 2.1.7 3.2 2 4.5 2-.2 5.3-4.7 6-1.1-2.9 1.1-5.8 5.2-8.9 2.6-.1 1.4.8 2.3-.9 3-2.8 2.3-5.9 1.7-8.4 4.1-2.1.1-2.4-.3-3.6 1.7-2.3 1.1-4.1 3.3-6.6 3.4-.7 2.1-2.4 1.7-4.1 2.3-1.8.5-4.7 1.9-6.1 3.1 0-3-.1-6 0-8.9 1.4-.4 4.2.3 4.7-1.3.6-1.8 3.9-3.9 5.5-2.2 1.5-2.4 1.7-5 4.5-6.1 5.7-2.3 10.4-7.4 16.2-8.2 1.5-1.3 2.9-2.7 4.2-4l-1-.8c-2.8.9-5.1 2.8-7.9 3.8.2-4.3 5.9-2.2 5.6-5.9 3.6 0 4.9-2.4 7.8-3.8 1.7-.5 3.8 1.3 4.1-1.1.2-1.9 2.6-.3 3.6-1.3 4.3-3.9 9.9-6.5 15.4-8.1 3.1-1 5.8-2 7.6-4.8 2.2-1.8 4.8-3 7-4.9 4.9-1 7.7-5.1 12.3-6.8 1.6-.6 1-.9 1-2.3.9-1 2.6-2.2 3.4-3.2z"/><path fill="#b89c7e" d="m283.8 161.8c.9.5 1.8 1.1 2.6 1.7.3 2.3-.5 4.2.6 6.3-4.3 1.8-8.3 3.4-11.8 6.4-2.9.1-4.6 1-5.9 3.6-.3 1.1-2 .5-2.8.7.5 1.1 1.1 2.2 1.7 3.2-4.6-1.7-5.4 2.3-9.4 3.5-.7.2-.8 1.3-1.2 1.9-1.3.4-2.8.4-4.1.7-.6-.9-1.3-1.8-1.8-2.7 3.4-.7 4.3-3.5 7.3-4.8 1.1-1.1.3-3.2-.7-4.3-2.1 1.2-3.9 2.7-6 3.8-2.5.5-6.2-.9-7.7-3 3.7.3 6.5-1.8 10.1-1.5 2.5.1 3.7-1.8 5.8.3 2.4-.9 4.4-2.8 6.7-4 2.8-2.1 6.1-3.2 8.8-5.6.4-1.2-.3-2.9-.4-4.1.7.8 1.4 1.6 2.2 2.3 3.4.1 4.1-2.4 5.9-4.6z"/><path fill="#decebb" d="m166.7 163.2 2.2 1.5c-1.4 3-.6 7.4-1.9 10.5-.3-3.4-.3-8.5-.4-12.1z"/><path fill="#cbb294" d="m334.4 165.7c.7-.3 2.4-1.3 3-1.5.1 2.3.1 4.5-.1 6.8-2.6 1.1-5.7 3.6-8.6 3.8-1.9.2-2.2 4.3-3.9 4-.5-1.9-1-3.7-1.3-5.6 3.1-3 7.8-4.5 10.9-7.4z"/><path fill="#ccb295" d="m168.9 164.7 7.7 5c.4 5.5-1.3 11.9-1.2 17.3 0 3.7.1 7.5 0 11.2-2.2.6-2.6-1.5-4.7-2-.8-4.3.1-8.9-.5-13.3-1.1 1.2-1.7 2.5-2.4 4 .5.9 1.1 1.8 1.7 2.7-1-.2-1.6-.5-2.6-.7-.1-4.6-.2-9.2.2-13.8 1.2-3.1.4-7.5 1.9-10.5z"/><path fill="#cab193" d="m178 170.6 5.4 3.6c-1.2 2.7-.8 6.6-1.1 9.6-1.3 2-1.3 2.9-1 5.2.4 2.2-1.7 2.9-.5 4.9-.4.9-1.1 1.8-1.6 2.7 1.4 2.4.6 5.4.5 8.1.2 1.4-1.2 1.7-2 2.6.8.7 1.6 1.3 2.3 2-.6 1.2-1.3 2.3-2 3.4-.6-.6-1.1-1.2-1.7-1.8-.2-4.2.1-8.1 1.2-12.1-2.2-4.3.3-10.5 0-15.2-.4-4-.1-9.1.2-13.1z"/><path fill="#cab194" d="m184.8 175.1c1.7 1.2 3.4 2.4 5.1 3.3-1.2 6-1.7 11.7-1.4 17.9-1.4.2-2.5-.3-3.7-.9-.4-1.5-.5-3.1-.6-4.6.6-5 .2-10.7.6-15.8z"/><path fill="#b49679" d="m332.4 177c-1.2 2.4-3.4 3.1-5.5 4.4-3.9 2.4-7.4 5.1-11.5 7.2-6.7 4.1-13.7 7.6-20 12.3-.8.7-1.9.6-2.9.8-.7-.3-1.4-.5-2.1-.8 2.2-2.2 7.1-2.4 7.9-5.4 6.8-2.7 13.4-6.1 19.4-10.3.6-.4 1.1-1 1.7-1.5 4.7-.9 8.2-5.8 13.1-6.6z"/><path fill="#b4997b" d="m244.3 178.2.4.7c1.4 2.1 5.2 3.5 7.7 3 2.1-1.1 3.9-2.6 6-3.8.9 1.1 1.8 3.1.7 4.3-3.1 1.3-4 4.1-7.3 4.8.6.9 1.2 1.8 1.8 2.7-1.6 1.2-3.9 2-5.1 3.6 2.2 0 3.7-1.1 5.1 1.2-2.7.1-5.2-.1-7.8-.4 2.2 1.8 3.9 4.3 6.5 5.6.3 1 .6 2 .9 3 2.5-.2 3.9-2.6 5.6.2-.1 4.6-6.8 1.2-8.9 5.1-1.7 2.4-2.6 1.4-5 .8-.5-1.6.5-3.9-2-2.3-6 4.1-12.2 8-18 12.2-.5-1.2-1.1-2.3-1.6-3.5 1-.6 2-1.1 2.9-1.8.5-3.4 4-6.2 7.5-5.9-1.4-.9-2.7-1.7-4-2.7 2.2-2.1 4.5-3.9 6.9-5.8-.8-.2-1.6-.4-2.4-.5.6-1.4 1.3-2.8 2-4.1 1.1-.1 2.3-.1 3.4-.1-.1-1.5-.3-2.9-.8-4.3-1.8 1.9-2.3 2.7-5 2.5.4-1.4 1.5-1.5 2.6-2.2 1-1 .2-2.4-.8-3.1-3.2 0-6.4 2.1-9.6 2.4-.4-1.2-.6-2.4-.9-3.6-1.3-.2-2.6-.2-3.9-.3.6 1.4 1.1 1.4.2 2.8 1 .7 2.5 1.1 3.2 2.1-2.4 1.4-3.2-.5-5.6-1 .9 1.6 2.4 1.9.7 3.7-2.2-1.6-3.8-.4-6.2-.2-2.3-.7-4.5-1.6-6.8-2.4 0-2 0-4 0-6 3.1-2.4 6.5-4.4 9.8-6.5.7.8.7 4.2 2.1 2.4 1.2-1.5 2.9 1.3 4.1 1.8 1.2-.4 2.5-1.7 3.8-1.6 1.6.6 2.9 3.4 2.7 0 4.4 0 7.9.5 12 2.1 2.1-1.1 2.3-3.2 3.3-5.1z"/><path fill="#c9b092" d="m190.7 178.9 8 5.3c0 5.9-.1 11.8-.3 17.6-1.6.9-3 2-4.6 3 .4.8 1 1.5 1.4 2.2-1 .8-1.8 1-3.1 1-.2-2.4-1.2-4.5-.8-7 .2-1.3-.7-2.1-1.4-3.1 1.6-3.5-.4-7.9.8-11.6.6-2.3.2-5.1-.1-7.4z"/><path fill="#ac8e71" d="m336.7 181.8-.2 1c-1.6 1.2-3.2 2.3-4.9 3.3-6.9 3.7-13.4 8.4-20.1 12.5-5.6 2.2-10 6.4-15.4 9.1-4.9 3-9.4 6.4-14.6 8.9-3.9 1.7-7.4 4.9-11.1 6.6-.7-.5-1.3-1-2-1.5 2.8-1.2 5.2-2.9 7.7-4.6 7.3-4.1 15-7.9 21.9-12.6 3.7-3.3 8.4-4.6 12.5-7.4 3.7-3 8.2-4.2 11.8-7.3 2.9-2.4 6.2-3.8 9.5-5.6 1.6-.5 3.3-3.2 4.9-2.5z"/><path fill="#c7ad8f" d="m337.6 182.7c-.1 2-.1 4-.1 6.1-3.9 2.8-7.9 6.2-12.9 7-1.3-6 7-4 7.1-9.7 1.7-1 4.4-2.2 5.9-3.4z"/><path fill="#c2a88b" d="m182.3 183.8c.2 3.6.4 7.5 0 11.1-1.4 8.2-.6 16.7-.8 25l-5.3-3.4c.1-1.8.3-3.8.3-5.6.5.6 1.1 1.2 1.7 1.8.7-1.1 1.4-2.2 2-3.4-.8-.7-1.6-1.3-2.3-2 .8-.9 2.2-1.3 2-2.6 0-2.6.9-5.7-.5-8.1.5-.9 1.1-1.7 1.6-2.7-1.2-2 .9-2.7.5-4.9-.4-2.3-.3-3.2 1-5.2z"/><path fill="#bfa486" d="m300.5 187.3c.9 1.2 1.1 2.9 3 2.8 5.1.1 9.2-5.4 14.2-4.9-6 4.2-12.6 7.6-19.4 10.3-.8 3-5.6 3.2-7.9 5.4-3 1.6-6.1 2.8-8.8 4.9-.7-3.7-4 .8-6 1.1-1.3-1.4-2.8-2.4-2-4.5 1.4-1.4 3.5-2.2 5.3-3.1 2.9-1.4 4.7-3.9 7.8-4.9 2.9-1.6 6.5-2.5 7.5-6 .6.1 2.4 2.4 2.1.7-.1-3 2.7-5.1 4.1-1.6z"/><path fill="#bfa587" d="m331.7 186.1c-.2 5.7-8.5 3.7-7.1 9.7 5-.9 9-4.1 13-6.9v3c-5.3 3.1-11.8 5.7-16.6 9.6.7 1.3 1.5 2.6 2.6 3.7 4.3-2.1 9.5-5.9 14-7.5v2.1c-9.9 6.7-20.9 13.9-30.9 20.5-1.1-3.2-.2-2.9 1.8-5.1-3.6.5-5.1 3.2-8.3 4.5-3 1.3-5.6 3.2-8.6 4.4-1.7-.5-2.9-1.3-4-2.7 4.5 1.6 5.8-1.1 9.6-2.4-.4-1.2-.8-2.4-1.3-3.6-1.4-.4-5.3 1.8-4-.9 2.9-1.4 4.7-2.7 6.5-5.4.5-1.2 1.9 1.4 2.5.3 2.5-1.5 1.2-4.2 4.3-4.4 3.2-.3 4.9-2.6 6.9-5l-.4-1.2c6.7-4.2 13.2-8.8 20.1-12.5z"/><path fill="#bca184" d="m315.5 188.6c.8.4 1.5.9 2.3 1.4-3.3 3-8 4.1-11.2 6.8 1.3.2 2.7.3 4 .4-4 2.8-8.7 4.1-12.5 7.4-6.9 4.7-14.6 8.5-21.9 12.6-.8-2.3-1.1-3 1.5-4 2.3-.5 1.6-2.2 2-4.1 4.5-2.2 8.6-5.1 12.9-7.5 1-.2 2.1-.1 2.9-.8 6.3-4.7 13.3-8.2 20-12.3z"/><path fill="#c6ac8f" d="m337.5 191.7c0 2 .1 4 0 6-4.6 1.6-9.7 5.3-14 7.4-1.1-1-1.9-2.3-2.6-3.7 4.8-3.9 11.3-6.6 16.6-9.7z"/><path fill="#aa8c6f" d="m216.9 196.7c1.9.3 1.1 1.6 1.1 3-.8 1.3-3.7 2-1.7 3.5.9 1.5 4-.7 4.9 1.1.8 2.1-2.9 2.1-4 1.1-1.5 2.3-2.7 4.4-3 7.3-.6-.5-1.2-.9-1.8-1.4.3 2.7 2.7 3.4 1.9 6.4.1 3.1-3.3 4.3-5.9 3.9 1 1.1 2.3 1.7 3.2 2.8-1.7.1-3.3-.9-3.9 1.4.7 1.2 1.3 2 1.3 3.5l-1.6 1c-1.1-2-.9-4.1-.9-6.3.1-6 .1-12 0-18 0-2.7 0-5.3.1-8 2.7 3.3 7.1-1.6 10.4-1.3z"/><path fill="#ac8f71" d="m290.5 200.9c.7.3 1.4.5 2.1.8-4.4 2.4-8.4 5.2-12.9 7.5-4.5 2.6-9.9 4.6-13.8 8.2-3.2 2.1-8.1 3.2-10.5 6.2-.7 1.6-3 1-4.5 1.5.5 1.2 2 1.7.4 2.8-1.6 2.4-4.6-1.3-4.9 2.2 0 1.9-2.8-.8-3.3-1 0-1 0-1.9 0-2.8 1.4-1.1 4.3-2.8 6.1-3.3 1.7-.7 3.4-.3 4.1-2.3 2.5-.1 4.3-2.2 6.6-3.4 1.2-2 1.5-1.6 3.6-1.7 2.6-2.5 5.6-1.8 8.4-4.1 1.7-.7.8-1.6.9-3 3.1 2.6 6-1.5 8.9-2.6 2.8-2.1 5.8-3.3 8.8-4.9z"/><path fill="#b4997a" d="m279.6 209.1c-.5 1.9.3 3.5-2 4.1-2.5 1-2.2 1.7-1.5 4-2.5 1.6-4.9 3.4-7.7 4.6-2.9 1.4-5.1 3.9-8.1 5.1-5.5 2.3-12 6.2-17.2 9.3 0-2.4 0-4.8 0-7.2.5.2 3.2 3 3.2 1.1.3-3.5 3.3.2 4.9-2.2 1.6-1.1.1-1.5-.4-2.8 1.5-.5 3.7.1 4.5-1.5 2.4-3 7.3-4.1 10.5-6.2 3.8-3.6 9.2-5.6 13.8-8.2z"/><path fill="#c7b095" d="m305.5 221c-2.3 1.7-4.8 3.4-7.1 5-.2-.6-.4-1.3-.5-1.9 2.2-1.8 4.8-2.9 7.6-3.2z"/><path fill="#a48568" d="m268.4 221.7c.7.5 1.3 1 2 1.5-4.6 1.9-8.9 4.9-13 7.6-4.3 2.4-9.8 5.9-14.3 8v-1.9c5.2-3 11.8-7.7 17.3-10 3-1.3 5.2-3.8 8.1-5.1z"/><path fill="#ae9173" d="m257.4 230.8c-.1 2.2 0 2.9-1.9 4.2-1.5.8-3.2 3.3-4.7 1.5-.8 3-1.3 3-4.1 4 1.3 2.3 4.2.6 5.9-.4 2.7-1 5-4.2 7.9-4.1-1.6 2.8-4.9 3.6-6.8 6.3-2.4.4-4 1.2-5.9 2.8.8 1.7 1.6 3.4 2.7 4.9 3-2.1 5.9-4.1 9.1-5.9-.4 2.3-2.2 3-3.7 4.5 1.7 1.3 2.5 1.9 2.8 4.1-4.5 3.2-9.1 6.6-13.9 9.4-.5-8-.2-16.1-.2-24.2 4.5-2 8.5-4.9 12.8-7.3z"/><path fill="#b29678" d="m281.5 216.6c2.1 2.4-4.4 4.3-5.3 6.2-2.7 1.9-4.9 3.2-7.1 5.8-2.7.1-3.8-.4-3.7 2.9 3-.8 4.3 1.2 7.1 1.2-1 2.4-6.6 2.3-5.9 5.2 4 .2 7.5-4.2 11.8-4.7.2 3.2-2.3 2.6-4.5 3.1.9 1.3.9 1.1.2 2.5 1.1.6 2 .9 2.6 2.1-6.2 3.8-11.9 8.2-18.1 12.1-.3-2.3-1.2-2.8-2.8-4.1 1.5-1.5 3.3-2.3 3.7-4.5-3.2 1.7-6.2 3.7-9.1 5.9-1-1.5-1.9-3.2-2.7-4.9 1.9-1.6 3.5-2.4 5.9-2.8 1.9-2.7 5.2-3.5 6.8-6.3-2.9-.1-5.2 3-7.9 4.1-1.7 1-4.5 2.6-5.9.4 2.8-1 3.3-1 4.1-4 1.5 1.8 3.3-.8 4.7-1.5 1.9-1.3 1.8-2 1.9-4.2 4.2-2.7 8.4-5.7 13-7.6 3.7-1.7 7.2-4.9 11.1-6.6z"/></g></g></svg>