<svg xmlns:xlink="http://www.w3.org/1999/xlink" viewBox="0 0 264 100" xmlns="http://www.w3.org/2000/svg"><defs><path id="a" d="m13.7 2-10.3 6.5 47.8 31.9 10.8-7.4zm-11.7 8.4v55.3l47.9 32.3v-17.3l-13.7-8.7v-22.1l13.6 8.8.1-16.3zm60.9 25-10.8 7v16.7l10.8-7zm0 38.2-10.8 7.1v17.3l10.8-7.2z"/><path id="b" d="m87.1 2-33.7 22.7 10.7 6.9 32.5-22.2zm10.9 9.4-33 22.3v19.6l-12.9 8.3v16.3l12.9-8.7v20.1l33-22.6zm-59.6 42.7v16.5l11.4 7.3v-16.4z"/></defs><use fill="#cd693b" xlink:href="#a"/><use fill="#af9274" xlink:href="#b"/><g fill="#050505"><path d="m108.2 15.1c-.7 1-.8 2.5-.8 4.2 0 3.1 1.1 4.5 2.5 5.5 4 2.9 5.2 2.8 5.3 5.9 0 1.1-.4 1.9-1.3 1.9-1 0-1.1-.5-1.1-2v-2.7h-5.2v1.5c0 1.7-.1 3.3.5 4.4.9 1.8 3.1 2.6 6.2 2.6 2.4 0 4.6-.6 5.6-2.2.7-1 .8-2.5.8-4 0-4-1-5.4-2.9-6.7-3.6-2.4-4.9-2.6-4.9-5 0-1.1.2-1.7 1-1.7s1.1.4 1.1 1.7c0 .6 0 1.9.4 2.5h5.1v-.8c0-2.2.3-4.2-.9-5.4-1.3-1.3-3-1.8-5.7-1.8s-4.7.7-5.7 2.1z"/><path d="m122.4 13.5v22.5h5.7v-9.1h1.9c5.2 0 5.3-2.6 5.3-5.2v-1.9c0-4.6-.1-6.3-6.8-6.3zm5.6 2.8c1.5 0 2.3.4 2.3 1.9v3.8c0 1.9-1 2-2.3 2z"/><path d="m143.5 13c-5.6 0-6.3 2.5-6.3 6.8v9.8c0 4.3.7 6.8 6.3 6.8 5.7 0 6.7-2.5 6.7-6.8v-9.8c0-4.3-1-6.8-6.7-6.8zm.9 4.2v14.9c0 1.1-1.9 1.1-1.9 0v-14.9c0-1.1 1.9-1.1 1.9 0z"/><use transform="matrix(1 0 0 1 -55.4 0)" xlink:href="#u4"/><path id="u1" d="m166.2 13.5v3.1h3.6v19.4h5.6v-19.4h3.6v-3.1z"/><path id="u2" d="m187 13c-6.2 0-6.6 2.2-6.6 7.3v10c0 4 1.2 6.2 5.6 6.2 1.9 0 3.7-1.4 4.1-2.1l.5 1.6h2.9v-11.5h-6.7v3.4h1.1v3.8c0 1.6-2 1.9-2 0v-14.5c0-1.4 2-1.3 2 0v4h5.6v-.9c0-5.5-1.4-7.3-6.5-7.3z"/><path id="u3" d="m195.5 13.5v22.5h10.2v-3.6h-4.9v-7.4h4.8v-3.2h-4.8v-5.2h4.9v-3.1z"/><path id="u4" d="m207.8 13.5v22.5h5.3v-10.4c.6 0 1 0 1.4.3.7.5.5 2 .5 2.7 0 2.5-.1 7.2.5 7.4h5.5c-.5-2-.4-4-.4-6 0-5.1-.5-5.8-3.6-6.2 3-1.1 3.6-1.8 3.6-4.8 0-5.1-2-5.5-7-5.5zm5.3 2.8c1.4 0 2.3.5 2.3 1.8v2.2c0 1.7-.8 2-2.3 2z"/><path id="u5" d="m226.3 13.5-4.4 22.5h4.8l1.2-6h2.4l.8 6h5.9l-3.5-22.5zm3 3.4c.6 4.2.9 7.6 1.1 9.7h-2.5c.1-2 .8-5.4 1.4-9.7z"/><path d="m225.6 9.3v2.8h3.3v-2.8zm5.2 0v2.8h3.3v-2.8z"/><use transform="matrix(1 0 0 1 71.3 0)" xlink:href="#u1"/><use transform="matrix(1 0 0 1 56.3 0)" xlink:href="#u3"/><path d="m108.3 52.3v22.4h10.5v-3.4h-5v-19z"/><use transform="matrix(1 0 0 1 -101.2 38.7)" xlink:href="#u5"/><path d="m137.1 52.3v22.4h4.3v-17.2l3.8 17.2h6.5v-22.4h-4.2v15.6l-2.8-15.6z"/><g transform="matrix(1 0 0 1 -26.5 38.8)"><use xlink:href="#u2"/><use xlink:href="#u3"/><use xlink:href="#u4"/></g><path d="m206.1 62.1c-1.7 0-3.5.6-3.5 2.5v8.2c0 1.5 1.9 2.2 3 2.2 1.3 0 1.8-.5 2-1l.3.8h1.9v-6.2h-3.5v1.5h.6v2.5c0 1-1.3 1.1-1.3 0v-8c0-.9 1.2-.8 1.2 0v2h3v-2.1c0-1.6-1.6-2.4-3.7-2.4z"/><path d="m213.5 65.4v-.7h-2.4v9.9h2.4v-7.5c0-.7 1.3-.7 1.3 0v7.5h2.3v-7.5c0-.6 1.3-.7 1.3 0v7.5h2.6v-7.8c0-.8-.1-2.2-1.6-2.2-.9 0-1.6.4-2.2.8-.4-.4-.9-.8-1.6-.8-.8 0-1.5.4-2.1.8z"/><path d="m222.1 62.3v12.3h2.6l.2-.7c.1.2.8.9 1.8.9 1.7 0 1.8-1.5 1.8-2.9v-4.5c0-1.6-.2-2.7-1.8-2.7-.6 0-1.2.2-1.8.8v-3.2zm3.7 4.8v5.5c0 .8-1.1.7-1.1 0v-5.5c0-.7 1.1-.8 1.1 0z"/><path d="m229.6 62.2v12.4h3v-5.6h1.1v5.6h3v-12.4h-3v4.6h-1.1v-4.6z"/></g></svg>