<svg viewBox="0 0 848 100" xmlns="http://www.w3.org/2000/svg" xmlns:xlink="http://www.w3.org/1999/xlink"><defs><mask id="x"><path d="m2 2v98h187v-98z" fill="#fff"/><path d="m50 12c-21.1 0-38 16.9-38 38s16.9 38 38 38h90c21.1 0 38-16.9 38-38s-16.9-38-38-38z"/></mask><mask id="y"><path d="m2 2v98h187v-98z" fill="#fff"/><path d="m58.7 38.9-5.3 22.2 22.7-9.9zm29 0-5.3 22.2 22.7-9.9zm31.5 0-5.3 22.2 22.7-9.9z"/></mask></defs><g fill="#fff"><path d="m251.1 24.5h45.3l-3.7 16.6h-45.7c-4 0-4.8 5.5-.5 5.5h27.7c16.4 0 20.6 3.2 17 20.5-3.1 14.8-11.1 16.6-30.3 16.6h-45.2l5.1-16.3h47.5c5 0 5.5-5.9.5-5.9h-30.4c-16.2 0-16.7-8.1-14.1-20.6 2.9-13.9 12.9-16.4 26.8-16.4z"/><path id="a" d="m366.6 24.5-3.9 16.8h-21.9l-9.7 42.2h-19.9l9.7-42.2h-24l4-16.8z"/><path id="b" d="m377.9 24.5-45.6 59h22.6l7-10h33.8l3 10h21.9l-18.7-59zm13.3 34.3h-17.8l12.7-17z"/><path id="c" d="m435.6 24.5-13.6 59h20l3.3-14.6h26.3c3 0 5.1.4 4.1 4.9l-2.2 9.7h20l2.5-11.2c.6-2.6.8-5.8-.2-8.4-.7-1.7-2-2.9-3.6-3.8 2.7-1.1 5.1-2.9 6.7-5.3 2.2-3.2 3-7 3.8-10.7.6-2.6 1.2-5.3 1.2-8-.1-9.7-7.9-11.6-15.4-11.6zm41.8 16.7c6.1 0 6.4 1.1 5.5 4.8-.9 3.9-1.6 6.2-7 6.2h-26.8l2.6-11z"/><use transform="translate(226.7)" xlink:href="#a"/><use transform="translate(162.2)" xlink:href="#c"/><use transform="translate(324.2)" xlink:href="#b"/><path d="m826.3 36.5c0 3.1-.6 6.8-1.8 11.5h-20c.3-1.4.8-2.9.9-4.3.1-2.3-2.7-2.5-5.6-2.5h-18.9c-9.3 0-11.2 4.7-12.8 12.1-.6 2.6-1.7 7.5-1.6 10.2.1 2.5 1.6 3.8 6.1 3.8h21c2.1 0 4.9-.1 6.5-1.6s2-4.2 2.5-6.2h19.9c-1.6 7.7-3.1 15.8-9.9 20.6-4.8 3.4-11.2 4.4-17 4.4h-27.9c-6.9 0-15-.7-19.4-5-2.6-2.6-3.5-6.3-3.5-10 0-3 .6-5.9 1.3-8.8l3.5-15c1.9-8.2 5-12.3 7.5-14.7 4.1-4 10.6-6.8 22.6-6.8h21.9c8.2 0 18.1 1 21.1 4.1s3.6 5.8 3.6 8.2z"/><path d="m838 25.5c-4.4 0-8 3.6-8 8s3.6 8 8 8 8-3.6 8-8-3.6-8-8-8zm0 1.3c3.6 0 6.7 3.1 6.7 6.7s-3.1 6.7-6.7 6.7-6.7-3.1-6.7-6.7 3.1-6.7 6.7-6.7z"/><path d="m837.4 28.9c1.7 0 3.4.4 3.4 2.6 0 1.6-1 2.2-1.8 2.5l2.5 4.1h-1.4l-2.2-3.8h-1.8v3.8h-1.2v-9.2zm0 1h-1.3v3.4h1.3c.9 0 2.2-.2 2.2-1.8 0-.9-.3-1.6-2.2-1.6z"/></g><g fill="#961b1e"><path d="m50 2c-26.6 0-48 21.4-48 48s21.4 48 48 48h90c26.6 0 48-21.4 48-48s-21.4-48-48-48z" mask="url(#x)"/><path d="m51 20c-17.2 0-31 13.4-31 30s13.8 30 31 30h88c17.2 0 31-13.4 31-30s-13.8-30-31-30z" mask="url(#y)"/></g></svg>