<svg viewBox="0 0 121 100" xmlns="http://www.w3.org/2000/svg" xmlns:xlink="http://www.w3.org/1999/xlink"><defs><clipPath id="c1"><path d="m60.3 4.9a55.4 51 0 00-55.4 51 55.4 51 0 0020.3 39.3h70.3a55.4 51 0 0020.3-39.3 55.4 51 0 00-55.5-51z"/></clipPath><clipPath id="c2"><path d="m89 71.6c.4-.4.7-.9.7-1.5-.7-.7-1.3-1.3-1.9-2.1s-1-1.6-1.3-2.6c-.4-2.3.4-4.9.8-7.2 1-3.1 1.4-6.3 1.2-9.5-.1-.6-.2-1.4-.2-2l.1-.1c.7-.3 1.3-.6 2-.8l.1.2c-.2 1.6-.1 3.2.7 4.7.7 1.3 2 2.1 3.4 2.1 1.5.1 3.1-.3 4.1-1.5 1-1.1 1.2-2.6 1.5-4 .5-2 .4-4.2-.7-5.9-1.3-2.2-3.5-3.2-5.8-4.1l-.1-.2c.1-.6.2-1.2.3-1.8.1-2.5.1-4.8-.5-7.2-.5-2.2-1.6-4.3-2.9-6.2 0-1.4-.3-2.8-1.3-3.9-.9-1-2.1-1.7-3.4-2-2.3-.3-4.7-.4-7-.6-.6-.5-1.1-1.1-1.7-1.7-2-2-4.5-3.9-7.2-4.7-2-.6-4.3-.7-6.3-.2-2.7.6-5.2 2.2-7.3 4h-.1c-1.5-1-3.2-2-4.9-2.7-1.5-.7-3.2-1.3-4.9-1.4-.9 0-1.7.1-2.2.9-.2.2-.1.5-.1.8.1 1-.3 2.1-.5 3.1-.5 1.6-1 3.3-1.8 4.8-.3.4-.2 1-.2 1.5s.1 1 .5 1.4c.5.3 1.2 0 1.6-.3.8-.5 1.4-1.2 2-1.9 1.1-1.3 2.2-2.6 3.3-3.9h.1c.5.6 1.2 1.2 1.6 1.8v.1c-2.9 2.4-5.7 5-8.2 7.9-.1.1-.3.4-.5.5-.2-.1-.3-.2-.5-.3-1.2-.7-2.6-1.1-4-1.4-1.8-.2-3.7-.3-5.4.2-3 .8-5.7 2.3-8.6 3.2-.4 0-.9-.3-1.3-.4-.7-.2-1.3-.3-2-.5-1-.2-1.9.3-2.4 1.1-.7 1.1-.8 2.7-.8 3.9.1 1.4 0 2.7-.2 4.1-.1 1.1-.1 2.4 0 3.5.1.4.2.9.5 1.2.5.3 1.2-.2 1.5-.6 1.1-1.2 1.9-2.7 2.8-4.1.5-1 .9-1.9 1.5-2.8.4-.6 1-.9 1.6-1.2 2.4-1.1 5.2-1.6 7.9-1.5h1.1c2.1.1 4.3.8 6 2 0 .2-.1.2-.2.2-2.2.7-4.3 1.9-6.1 3.3-2.1 1.8-3.7 4-5.2 6.3-.4.7-.1 1.3.3 1.9 2.7 4.4 4.5 8.8 8.2 12.6-.1.5-.3.9-.4 1.4 1 .9 2 1.8 2.5 3.1.4 1.2-.2 2.7-1.3 3.3-1 .3-1.8 1-2.7 1.5-.1.1 0 .2-.1.3-.8.4-1.6.9-2.3 1.3-.5.5-.1.9-.2 1.5.5.3 1.2-.1 1.7-.2.7-.2 1.3-.1 2-.3 1-.3 1.9-.4 2.9-.7.4-.1.9-.3 1.3-.4 1.2-.4 2.3-.9 3.4-1.5.5-.5 1.2-.8 1.7-1.3.4-.6.2-1.4-.1-2s-.1-1.2-.5-1.7c-.3-.3-.7-.5-1-.8-.9-.9-1.3-2.1-1.6-3.3-.7-4.1-2-8.2-4.8-11.4v-.1c2.3-.9 4.8-1.8 6.9-3.3.6 0 1.4.4 2 .6.5.2 1.3.3 1.7.7.2 1.1.6 2 1.2 2.9.6.8 1.6 1 2.2 1.8-.1 1.6 0 3.3.5 4.8.4 1.6 1.1 3 2.2 4.3.2.5-.2 1.3-.2 1.9-.3 2.3-.6 4.6-.3 6.9.1.7.2 1.4.6 2 .4.7 1 1.3 1.8 1.5 1.1.2 2.2-.3 3.2-.8.2-.8-.1-1.8 0-2.7-.2-.4 0-.8-.3-1.2-1.2-1.8-1.4-4-.8-6.1.2-.6.2-1.2.3-1.8.2-2.2 0-4.4-.5-6.5-.4-1.6-1.5-2.7-2.2-4.1-.3-.6-.1-1.3-.1-1.9.5-.3 1.1-.3 1.6-.7.9-.7 1.1-1.7 1.3-2.7h.2c2.1 1.1 4.5 1.7 6.7 2.3 1.5.3 3 .8 4.6.9.2 0 .5 0 .6.2.7 1.7 1.7 3.3 3.3 4.3 1.1.6 2.5.9 3.8.7.9-.2 1.6-.9 2.4-1.4 1-.7 1.9-1.7 2.2-2.9.3-1.5-.3-3-.6-4.5.1-.7.4-1.2.4-1.9.6-.2 1.3-.4 1.9-.6h.1c.2.3.1.6.2.9.4 2.3.8 4.7 1.1 7-.3 4.2-.7 8.5-1.1 12.7-1 2.4-1.8 4.7-1.6 7.3.1 2.5 1.3 4.6 3.1 6.3.2.1.2.2.5.3.9.2 1.7.2 2.2 0s.6-.3.7-.4z"/><path d="m7.7 72h105.3l-.6 1.5h-104.1z"/></clipPath><path id="a" d="m60.3 4.2a56.2 51.7 0 00-56.1 51.7 56.2 51.7 0 0020.8 40h70.6a56.2 51.7 0 0020.9-40 56.2 51.7 0 00-56.2-51.7z"/><path id="b" d="m4.2 4.5h112.6v31h-112.6z" clip-path="url(#c1)"/><path id="c" d="m4.2 35.4h112.6v30h-112.6z" clip-path="url(#c1)"/><path id="d" d="m4.2 65.3h112.6v30h-112.6z" clip-path="url(#c1)"/><use id="e" xlink:href="#a" clip-path="url(#c2)"/></defs><path fill="#383536" d="m60.3 2a58.3 53.9 0 00-58.3 53.9 58.3 53.9 0 0022 41.9h72.7a58.3 53.9 0 0022-41.9 58.3 53.9 0 00-58.4-53.9z"/><path fill="#f3f3f3" d="m60.3 2.7a57.6 53.1 0 00-57.6 53.2 57.6 53.1 0 0021.8 41.4h71.7a57.6 53.1 0 0021.7-41.4 57.6 53.1 0 00-57.6-53.2z"/><use fill="#c7975e" xlink:href="#a"/><use fill="#f3f3f3" xlink:href="#b"/><use fill="#05a54f" xlink:href="#c"/><use fill="#ed1d25" xlink:href="#d"/><use fill="#c7975e" xlink:href="#e"/><g fill="#f3f3f3"><path d="m48 9.6c1.7.2 3.1 1 4.5 1.9 1.1.7 2.4 1.7 3.2 2.8.3.4.4.9 0 1.2-.8.6-2 .5-2.9.6 2.3 1.2 4.2 2.9 6.5 4 .3.2.1.4 0 .6-.5 1-1.2 1.9-2 2.7-1.6 1.5-3.8 2.4-6 2.7-.3.1-.8 0-1.1.2-.3.3-.5.6-.9.8-.9.5-1.9.2-2.9.6-.7.3-.9.8-1.5 1.2-1.3 1-2.8 1.4-4.3 1.8-.3.1-.9 0-1 .4-1.4-.9-2.7-1.6-4.4-1.7-1.4 0-2.9 0-4.3.2-.6 0-1.7.4-2.2.1-.1-1 .3-2.2.6-3.2.2-.4.2-1.1.7-1.2 1.6-.5 3.3-1 5-1 2.6.1 4.9 1.2 7 2.7.1.1.3.2.4.2 1-1 1.7-2.4 2.5-3.5.7-.9 1.3-2 2.4-2.5 1.3-.9 2.9-1.9 3.7-3.3.3-.6.7-1.1.9-1.8.1-.1.2-.1.3-.2-.1 0-.3-.1-.4-.1-.9-1.4-1.4-2.9-1.2-4.6-.3.4-.2 1.1-.8 2.4-.9.1-2-.2-2.9-.1-.7.1-1.1.7-1.3 1.3-.5 1.2-.5 2.6-.4 3.9-.5.7-1.3 1.3-2 1.8-.4.3-.9.4-1-.1-.2-.7-.2-1.7.3-2.3.9-1.6 1.5-3.4 1.9-5.2.2-.9.2-1.8.1-2.7.1-.5.6-.7 1.2-.7s1.5.1 2.3.1z"/><path d="m28 26c-1.5.5-3.1 1.1-4.6 1.6-1.2-.3-2.2-.7-3.4-1-.6.1-1.1.8-1.3 1.3-.4 1.1-.5 2.4-.7 3.6-.3 1.5-.1 3.1-.5 4.5-.2 1-.6 2.1-.1 3.1.2.4.5.6.9.3.7-.6 1.2-1.5 1.7-2.3.5-.9 1-1.8 1.5-2.8.4-.7.8-1.6 1.4-2.2.1-.1.3-.3.3-.5-.7-.1-1.2-.3-1.9-.4v-.2c.6-1.1 1.3-2.2 2.2-3 .5-.1 1.3 0 1.3.6-.1.9-.7 1.8-.8 2.7.2.1.6-.1.8-.2 1.3-.6 2.1-1 3.4-1.6.2-1.1-.1-2.3-.1-3.4zm-7 5.4c-.1.6-.4 1-.6 1.6-.4 1.1-.9 2.1-1.3 3.2-.1.3-.2.6-.5.9.1-1.3.8-2.6 1.3-3.8.4-.6.6-1.4 1-1.9z"/><path d="m44.3 32.3c.1.2.1.6.1.9-.1 2.5-.2 4.9-.3 7.3 0 .5-.4.7-.8.9-.8.3-1.6.5-2.4.7-3.7.9-7.3 1.1-11.1 1.2-.3 0-.7 0-.9-.1-.3-.4-.4-.9-.2-1.4.4-.7.9-1.3 1.4-2 2.4-3.4 5.6-6 9.6-7.3.4-.1.8-.4 1.6-.4s1.9.1 3 .2z"/><path d="m36.3 44.7c2.6 2.6 3.9 6.1 4.6 9.6 0 .1-3.3 1.5-3.7 1.4-.3-.6-.4-1.2-.7-1.8-1.4-3.2-3.9-5.5-6-8.3-.1-.1-.1-.2-.1-.3 2.1-.2 3.8-.5 5.9-.6z"/><path d="m41.3 55.9c.3 1.6.9 3.3 2.2 4.3 1.1.6 1.4 2.2.8 3.3s-1.8 1.8-2.9 2.4c-1.6.7-3.3 1.3-5.1 1.4-.4 0-.8 0-1.2.1-.7.2-1.4.5-2.1.7-.3.1-.6.1-.7-.2.1-.3 0-.6.1-.9.7-.4 1.5-.9 2.3-1.3 1.5-.6 3.2-.9 4.7-1.6.6-.3 1.4-.8 1.5-1.5.1-.6-.2-1.1-.5-1.6-.9-1.4-2.3-2.3-3.5-3.6 0-.4.3-.8.4-1.2.5-.1 4-.5 4-.3z"/><path d="m65.2 22.5c.6 0 1.3.2 1.3.9 0 .8-.3 1.6-.7 2.3-.4.3-.9.5-1.3.8-1.1.8-2.2 1.8-3.2 2.8-1.9 2-3.8 4.2-5.2 6.7-.2.2.1.4.2.6l.2.3c.4.6 1.2 2.1 1.3 2.3 0 .4-.1.8-.1 1.2h-.1c-.9-1.2-2.1-2.1-3.3-2.9-.6-.6-1.4-1.2-1.6-2-.1-.6.3-1.1.7-1.5.7-.7.7-1.8.7-2.8l-.2.1c-.4.7-.8 1.2-.9 2-.1.4-.2.6-.6.8-1.2-2.5 1.1-4.7 2.5-6.5.7 0 .9-.8 1.5-1.1 2.2-1.5 4.6-2.6 7-3.8.6-.3 1.2-.2 1.8-.2z"/><path d="m54.7 56.5c.8.5 1.7.9 2.6 1.1.1.1.2.3.2.5 0 1.5-1.5 3.1-1.3 4.6.4.7 1.5.9 2 1.6.2.7.2 1.4.3 2.1 0 .4.2.7-.2.9-.7.5-1.8 1.1-2.7.9-.8-.2-1.2-1.1-1.4-1.8-.4-1.7-.3-3.5-.2-5.2.1-1.5.3-3 .4-4.5 0-.1.1-.3.3-.2z"/><path d="m84.7 58.6c.5.2 1 .4 1.5.6.3.1.4.2.3.5-.4 2.1-.9 4.2-.4 6.3.5 1.8 1.6 3 2.9 4.2.2.6-.6 1.3-1.2 1.3s-1.3.1-1.8-.2c-1.2-1.1-2.2-2.5-2.6-4-.9-2.8-.1-5.9 1-8.5.1-.1.1-.2.3-.2z"/><path d="m87.9 35c.4.4 1 .8 1.5 1.1.8.4 1.9.9 2.8.6.4-.1.7-.4 1-.6.1.5-.2 1-.1 1.5 2 1 3.9 2.2 5.4 3.8.7.8 1.4 1.9 1.4 3 0 .7-.3 1.3-.9 1.8-1.4 1.2-3.5 1.1-4.9-.1-.4-.4.1-1-.1-1.5-.5-.3-1-.4-1.4-.9-.9-1.1-1-2.6-1-4h-.2c-1.1.7-2.1 1.4-3.2 2.1-.1.1-.4.2-.4.4.6.2 1.3.3 1.6.9s-.1 1.3-.4 1.8c-.4.5-.8 1-1.3 1.4-.6-.1-1.3-.2-1.9-.5-.4-2.9-.9-5.8-1.3-8.7.1-.5.9-1.3 1.1-1.5.8-.1 1.5-.4 2.3-.6z"/><path d="m80.4 21.1c-1.3.8-2.7 1.6-4 2.5v.1c.8 1.4 1.5 2.9 2.3 4.3.2.3.5.6.6 1 0 .1-.2.2-.3.3-.3 0-.6-.1-.8-.3-1.5-1.1-2.6-2.6-4-3.8-.1-.1-.1-.1-.2-.1-.9 1.9-2 3.8-3 5.7-.2.3.1.7.3 1 1 1.4 2.1 2.6 3.1 4 .2.3.5.6.3.9-.8-.2-1.6-1.1-2.5-1.2-.5 0-.8.4-.9.9v1.3c1.2 1.1 1.9 2.6 1.6 4.2-.7.4-1.4.6-2.1 1-.2.8.5 2.1 1.4 2 .7-.2.9-1.3 1.5-1.6.2-.1.3.3.3.5.1.3-.1.9.1 1.1.7.5 1.5.7 2.3.9 1 .1 2 .1 2.9-.5 1.1-.7 1-1.9 2.1-2.6l.1-.1c0-.3-.2-.6-.1-.9 0-.3.1-.6 0-.9-.5.1-1 .7-1.6.7-.1-.1 0-.3.1-.5.4-.9 1.2-1.8 1.3-2.7-.6-.5-1.8-.2-2.5-.2-.7.1-1.2-.4-1.7-.9-.8-.8-1-2-1.5-3-.2-.3-.1-.7-.1-1.1.2-.3.4-.1.6.1 1 1.2 2.1 2.5 3.4 3.3.7.4 1.6.6 2.4.4v-.1c-.7-1.2-1.5-2.4-2.2-3.6-.1-.2-.5-.4-.5-.7 1.4 1 2.6 2 4.3 2.6.8.3 1.6.4 2.4.3.2 0 .4-.1.5-.2.1-.5.4-.9.8-1.2.1 0 .4.2.5.2.3-.4.6-.8.8-1.2-.7-.3-.5.5-1 .5.5-1.6.4-3.4.1-5-.5-2.3-1.5-4.6-3.1-6.3-.8-.8-1.8-1.4-2.9-1.4-.5 0-.8.1-1.1.3zm-.9 20.7c-.1.4-.5.8-.9 1-.5.3-1.3-.3-1.1-.9.1-.4.1-.8.4-1.1.3-.2.6.1 1 .3.2.1.7.3.6.7z"/><path d="m78.7 16c1.8 0 3.6.2 5.4.4-1.6 1.4-3.4 2.8-5.1 4.1-.2.2-.4.4-.7.5-2 .1-4 .4-5.7 1.5-1.9 1.1-3.2 3-3.9 5-.1.4-.5.9 0 1.1.8-.4 1.4-1.1 2.2-1.4-.1.8-.5 1.7-.9 2.3-1.3 1.9-3.7 2.9-5.9 3.4-.2-.1-.4-.3-.5-.5-.1-.5 0-.9 0-1.4 0-.2.2-.4.3-.6 2.2-2.8 4.3-5.9 5.8-9.2.4-.9.7-1.8 1.2-2.6.2-.5.6-.9.8-1.4 1-1.9 4.1-1.4 7-1.2z"/><path d="m68.3 33.3c-.1 1.9-.4 3.7-.5 5.6-.1.1-.3.1-.5 0-1.4-.3-2.6-.7-4-1-.2-.1-.5-.9-.4-1.1 1.7-1.2 3.5-2.4 4.4-3s1-.6 1-.5z"/><path id="s" d="m36.1 78.6c.8.8 1.1 1.9 1.1 3l-1.9.2c-.1-.6-.3-1.5-1-1.8s-1.8-.2-2.2.5c-.2.5-.2 1.2.3 1.6 1.2.8 2.6.9 3.8 1.8 1.1.9 1.2 2.4 1.2 3.3 0 1.2-.3 2.4-1.2 3.3-.7.6-1.6.9-2.5.9-1.3 0-2.6-.4-3.3-2-.3-.8-.6-1.4-.6-2.6l1.8-.2c.1.7.3 1.5.8 2s1.4.6 2.1.3c1.1-.5 1.4-2.3.3-2.9s-2.7-.9-3.6-1.8c-1.3-1.3-1.5-3.7-.5-5.2.6-1 1.8-1.4 2.9-1.4.9 0 1.8.3 2.5 1z"/><path d="m39.2 77.9h1.9v8.6c0 .9.5 2.6 1.9 2.6 1.6 0 1.8-1.7 1.8-2.6v-8.6h1.9v8.4c0 2.6-.5 5.1-3.7 5.1-3.3 0-3.8-3.2-3.8-5.1z"/><path d="m48.9 91.2h1.9v-5.1h2.6c1.7 0 2.7-2.3 2.7-4.3 0-2.4-1.3-3.9-2.7-3.9h-4.5zm3.8-11c1.3 0 1.5 1.2 1.5 1.6 0 .6-.3 2.1-1.5 2.1h-1.9v-3.7z"/><path d="m59.8 77.9v10.8l.2.2h4.6v2.3h-6.7v-13.3z"/><path d="m66.1 78.1.2-.2h6.6l.2.2v2.1h-5.1v2.9h4.7v2.3h-4.7v3.3l.2.2h5.1v2.3h-7.2z"/><use xlink:href="#s" transform="translate(44.8)"/><path d="m88.2 77.6a3 3 0 00-3 3 3 3 0 003 3 3 3 0 003-3 3 3 0 00-3-3zm0 .4a2.6 2.6 0 012.6 2.6 2.6 2.6 0 01-2.6 2.6 2.6 2.6 0 01-2.6-2.6 2.6 2.6 0 012.6-2.6z"/><path d="m86.8 78.9v3.4h.5v-1.4c.3 0 .7 0 .8.1.4.3.8.9 1.1 1.3h.6c-.2-.6-.7-1.1-1.1-1.5.9 0 1-.7 1-1 0-.5-.4-.9-1-.9zm1.9.4c.5 0 .6 1.1 0 1.1h-1.4v-1.1z"/></g><g fill="#056eba"><path d="m66.9 9c2.6 0 5.1 1.1 7.2 2.7 2 1.4 4.8 4.4 4.8 4.7-2.5-.3-4.9-.1-7.2.8-1.5.8-2 2.2-2.7 2.9-.5.6-1 1.1-1.8 1.2-.6.1-1.1-.2-1.6-.5-.9-.7-1.7-1.6-2.4-2.5-.5-.7-.7-1.3-1.5-1.7-.7-.2-1.2.3-1.6.8s-.6 1.4-1.1 1.8c-.3.2-.7.2-.9-.1-.5-.7-.4-1.4-.5-2.2.1-.9.1-1.8.1-2.7 0-.3-.2-.6-.1-.9 2.8-2.6 5.7-4.3 9.3-4.3z"/><path d="m83.7 19.7c.3 0 3.3 1 5.6 3.1 1.7 1.5 2.9 3.4 3.5 5.5.4 1.4.5 2.8.3 4.2-.1.6-.5 2.7-1 3.1-.6-.4-1.1-.8-1.8-.9-.9-.1-1.6.1-2.4.4-.8.2-1.6.5-2.4.6.1-.1.2-.3.3-.4.2 0 .4-.1.5-.2.4-.3 1-.7 1.3-1 .3-.4.5-.7.7-1.1 1.1-1.8 1-4.2.2-6.1-1.1-2.7-2.8-5.1-4.8-7.2z"/></g><g fill="#ed1d25"><path d="m47.5 30.6c.2.2.2.5.2.8.1 1.2.6 2.2 1.3 3.1 1.2 1.5 2.8 2.2 4.4 3.1.2.1.4.2.5.4-.2.9-.9 1.6-1.7 2-1.2.7-2.5.8-3.8.8-.8 0-1.7.1-2.5-.1-.4-.9-.2-2.1-.5-3.1-.1-2-.3-4.2.1-6.2 0-.5.2-1.1.7-1.4s.9.2 1.3.6z"/><path d="m53.5 27.3c.5-.1 1.1-.3 1.4.3-.2 1.3-1.5 2.4-2.1 3.5-.5.9-.8 2-.4 3-.4.5-1.1 1.2-1.8 1-.5-.3-.6-1.1-.8-1.6-.3-1.5.1-2.8 1-4 .7-.9 1.6-1.7 2.7-2.2z"/><path d="m54.9 39.8c.1 0 .3.1.4.2.5.5.9 1.2 1.2 1.8.1.2.2.5.1.7-.9.2-1.7.3-2.6.4-.6.1-1.3 0-1.9-.1-.3-.1-.4-.2-.2-.5.4-.4 1-.6 1.5-1 .6-.4 1-1 1.5-1.5z"/><path d="m62.2 30.9c.3-.1.4 0 .5.3.2.9-.2 1.6-.5 2.4-.5 1.3-.7 2.7-.6 4.1 0 .2 0 .3-.1.4-1.9.2-3.3-.8-5-1.2l-.2-.3c1.2-1.6 2.6-3 4-4.4.5-.5 1.2-1 1.9-1.3z"/><path d="m72 34.7c-.2.2-.5.3-.7.5-.1.4.1.8.1 1.2v1.3c-.2.8-.4 1.5-1 2.1-.5.5-1.3.8-2 .6-.3-.1-.3-.5-.2-.8.3-.6.8-.9 1.2-1.4.8-1.1 1-2.6 1.2-3.9.2-.3.7-.7 1.1-.6s.5.7.3 1z"/></g></svg>