<svg viewBox="0 0 311 100" xmlns="http://www.w3.org/2000/svg"><g fill="#d22030"><path d="m43.3 29.1h59.8c1.1 0 1.5.7 1.5 1.6 0 .7-.2 1.4-.5 2l-4.8 11.1c-.8 1.9-2.1 2.1-4 2.1h-52.1c-1.6 0-2.7 3.2 0 4.2 10.8 3.9 21.6 7.6 32.4 11.6 13.4 5 13.4 16 13.1 19.5-.7 7.6-6.7 16.8-21.3 16.8h-63.8c-1.3 0-1.6-.9-1.6-1.9 0-.7.4-1.9.7-2.7l4.7-10.8c.4-.8 1.1-1.4 2-1.4h57.9c3.1 0 3.4-3.3.2-4.5l-32.5-12.2c-6.9-2.6-11.2-10.3-11.3-16.7-.1-8.7 6.4-18.7 19.6-18.7z"/><path d="m127.9 29.1c2.8 0 3 1.7 2.2 3.6l-14.5 32.7c-4.5 10.1-2.8 14.7.7 14.8 3.6.1 9.1-6.2 10.7-9.9l17-38.4c.7-1.7 1.3-2.8 3.2-2.8h12.5c2.8 0 3 1.8 2.1 3.8l-15.3 35c-3.6 8.2 0 12.4 2 12.5 3.1.1 8.6-5.5 10.7-10.3l17.6-39.6c.6-1.4 1.4-1.4 2.5-1.4h12c2.4 0 2.9 1.2 2.9 1.9 0 .4-.1.6-.1.7l-15.4 36c-5.1 11.9-12.8 30.3-27.4 30.3h-11.4c-4.4 0-5.8-6.8-8.4-6.8-2.2 0-7 6.8-13.9 6.8h-13.2c-2.5 0-10.3-8.2-10.3-19.7 0-3.8 1.2-7.4 2.7-10.9l15.6-36.8c.4-.9 1.1-1.5 2.1-1.5z"/><path d="m207.5 29.1h13c1.1 0 2.4.5 2.4 1.9 0 .5-.1 1.2-.5 2l-26.8 63.4c-.7 1.6-1.9 1.6-3.4 1.6h-11.4c-2.4 0-3.2-.7-3.2-1.9 0-.7.3-1.5.7-2.4l26.6-63.1c.8-1.8 2.3-1.5 2.6-1.5z"/><path d="m219.8 2c-6.2 0-11.3 5.1-11.3 11.3s5.1 11.3 11.3 11.3 11.3-5.1 11.3-11.3-5.1-11.3-11.3-11.3z"/><path d="m228.8 29.1h14c2 0 2.3 1.1 3 2.4l9.8 17.3c1.2 2.1 3 1.1 4.1.2l24.3-18.9c1.2-.9 2.4-1 3.8-1h18.7c1.8 0 2.5 1.1 2.5 2.1 0 .7-.3 1.4-.7 1.7l-40.5 32.1c-2.2 1.7-1.1 2.8.4 5.4l13.8 23.9c1 1.8-.4 3.7-2.1 3.7h-13.8c-1.5 0-2.6 0-3.4-1.4l-9.5-16.8c-.9-1.6-2.1-1.8-3.9-.4l-22.4 17.4c-1.3 1-1.6 1.2-2.2 1.2h-21.2c-1.5 0-2.4-1.1-2.4-2.2 0-.6.3-1.2.8-1.6l39.9-31.1c1.6-1.2.7-2.6-.2-4.2l-14.8-26.1c-1.3-2.2.1-3.7 2-3.7z"/></g></svg>