<svg viewBox="0 0 390 100" xmlns="http://www.w3.org/2000/svg" xmlns:xlink="http://www.w3.org/1999/xlink"><g fill="#00497b"><g id="x1"><path d="m66 6c0-2.2-1.8-4-4-4h-56c-2.2 0-4 1.8-4 4v14.6c0 2.2 1.8 4 4 4h14.7v69.4c0 2.2 1.8 4 4 4h18.5c2.2 0 4-1.8 4-4v-69.4h14.8c2.2 0 4-1.8 4-4z"/><path d="m110.6 5.6c-.5-2.1-2.4-3.6-4.6-3.6h-22.2c-2.2 0-4.1 1.5-4.6 3.6l-21.9 87.1c-.1.3-.1.7-.1 1 0 2.3 1.9 4.3 4.3 4.3h15.3c2.3 0 4.3-1.7 4.7-3.9l2.6-13.8h21.6l2.6 13.8c.4 2.2 2.3 3.9 4.6 3.9h15.3c2.4 0 4.3-2 4.3-4.3 0-.3 0-.7-.1-1zm-23.5 58.7 7.8-41.4 7.8 41.4z"/></g><path d="m191.7 2c-2.6 0-4.7 2.1-4.7 4.7v39.2l-19.1-39.6c-1.4-2.5-3.9-4.2-6.7-4.3h-18.7c-2.6 0-4.8 2.1-4.8 4.7v86.6c0 2.6 2.2 4.7 4.8 4.7h16.7c2.6 0 4.7-2.1 4.7-4.7v-39l18.4 39.4c1.3 2.5 3.9 4.2 6.7 4.3h19.4c2.6 0 4.7-2.1 4.7-4.7v-86.6c0-2.6-2.1-4.7-4.7-4.7zm13.1 82.9c0 2.6-2.1 4.8-4.7 4.8h-7.5c-1.8 0-3.5-1.1-4.3-2.8l-30.5-63.3c-.5-1-2.2-.8-2.2.4v60.9c-.2 6.1-9.3 5.8-9.5-.3v-69.5c0-2.6 2.1-4.8 4.7-4.8h6.9c1.8 0 3.4 1.1 4.2 2.7l31.1 62.6c.5 1 2.3.7 2.3-.5v-60c.2-6.1 9.3-6.1 9.5 0z"/><path d="m228.7 2c-2.6 0-4.7 2.1-4.7 4.7v86.6c0 2.6 2.1 4.7 4.7 4.7h16.7c2.6 0 4.7-2.1 4.7-4.7v-86.6c0-2.6-2-4.7-4.6-4.7zm13.2 82.9c0 6.2-9.5 6.2-9.5 0v-69.8c0-6.2 9.5-6.2 9.5 0z"/><path d="m321.4 20.6v-14.6a4 4 0 00-4-4h-55.9a4 4 0 00-4 4v14.6a4 4 0 004 4h14.7v69.4a4 4 0 004 4h18.5a4 4 0 004-4v-69.4h14.7a4 4 0 004-4"/><path d="m387.8 92.7-21.8-87.1a4.8 4.8 0 00-4.6-3.6h-22.2a4.8 4.8 0 00-4.6 3.6l-21.8 87.1a4.3 4.3 0 004.2 5.3h15.3a4.8 4.8 0 004.7-3.9l2.6-13.8h21.6l2.6 13.8a4.7 4.7 0 004.6 3.9h15.3a4.3 4.3 0 004.1-5.3m-45.3-28.3 7.8-41.4 7.8 41.4z"/><use transform="translate(255.5)" xlink:href="#x1"/></g></svg>