<svg viewBox="0 0 392 100" xmlns="http://www.w3.org/2000/svg" xmlns:xlink="http://www.w3.org/1999/xlink"><g fill="#6f6f6e"><path d="m154.6 8.7h35.4v9.4h-11.8v28h-11.4l-.4-28h-11.8z"/><path d="m215.2 40h-13l-2 6.1h-11.8l14.2-37.4h12.6l13.8 37.4h-12.2l-2-6.1zm-2.4-8.1-4.1-13.4-4.1 13.4z"/><path id="u" d="m255.9 8.7h11.4v22.4a18.7 18.7 0 01-1.2 6.1 13 13 0 01-3.3 5.3 12.6 12.6 0 01-4.5 3.3 22.8 22.8 0 01-8.1 1.2 53.3 53.3 0 01-6.1-.4 16.3 16.3 0 01-5.3-1.6 14.2 14.2 0 01-4.1-3.3 11.4 11.4 0 01-2.4-4.1 23.2 23.2 0 01-.8-6.5v-22.4h11.8v22.8a6.5 6.5 0 001.6 4.9 6.5 6.5 0 004.9 1.6 6.5 6.5 0 004.9-1.6 6.5 6.5 0 001.6-4.9v-22.8z"/><path d="m275.4 46.1v-37.4h19.1a28.5 28.5 0 018.1.8 9.4 9.4 0 014.5 3.3 10.6 10.6 0 011.6 6.1 10.6 10.6 0 01-1.2 5.3 10.6 10.6 0 01-3.7 3.7 13.4 13.4 0 01-4.1 1.6 14.2 14.2 0 012.8 1.2 13.8 13.8 0 012 2 14.6 14.6 0 011.6 2.4l5.7 11h-12.8l-6.1-11.4a8.9 8.9 0 00-2-2.8 4.9 4.9 0 00-2.8-.8h-1.2v15zm11.8-22.4h4.9a18.7 18.7 0 002.8-.4 3.3 3.3 0 001.6-1.2 3.7 3.7 0 00.8-2 3.7 3.7 0 00-1.2-2.8 6.9 6.9 0 00-4.1-.8h-5.3z"/><use transform="translate(83.8)" xlink:href="#u"/><path d="m356.7 33.9 11-.8a8.5 8.5 0 001.6 4.1 6.1 6.1 0 005.3 2.4 5.7 5.7 0 003.7-1.2 3.7 3.7 0 001.2-2.8 3.3 3.3 0 00-1.2-2.4 14.2 14.2 0 00-6.1-2 25.2 25.2 0 01-11-4.5 9.4 9.4 0 01-3.3-7.3 9.8 9.8 0 011.6-5.3 11 11 0 014.9-4.1 23.6 23.6 0 019.4-1.6 18.7 18.7 0 0111 2.8 11.8 11.8 0 014.5 8.5l-11 .8a6.1 6.1 0 00-2-3.7 6.1 6.1 0 00-4.1-1.2 4.9 4.9 0 00-3.3.8 2.8 2.8 0 00-1.2 2 2 2 0 00.8 1.6 9.4 9.4 0 004.1 1.2 48 48 0 0111 3.3 11 11 0 014.9 4.1 10.2 10.2 0 011.6 5.7 11.8 11.8 0 01-2 6.5 12.2 12.2 0 01-5.7 4.5 22 22 0 01-8.9 1.6 18.7 18.7 0 01-13.4-3.7 14.6 14.6 0 01-4.1-9.4z"/></g><g fill="#70c1b3"><path d="m70.8 1c-11.4 15.5-19.5 32.5-19.5 53.3 10.2 11.8 15.9 23.1 19.5 37.4 3.7-14.3 9.4-25.6 19.6-37.4 0-20.8-8.2-37.8-19.6-53.3zm-41 2.4c-3.3 9.4-5.3 19.6-5.3 29.7 7.7 4.5 15.4 9.8 21.9 15.9.9-9.4 2.9-18.7 6.5-27.3-6.9-7.3-14.6-13.4-23.1-18.3zm81.7 0c-8.5 4.9-16.3 11-23.2 18.3 3.7 8.5 5.7 17.9 6.5 27.2 6.5-6.1 14.2-11.4 22-15.9 0-10.2-2-20.3-5.3-29.7zm-110.2 25.3c0 41 32.5 69.1 65.9 70.3-6.9-40.3-36.2-61-65.9-70.3zm139.1 0c-29.7 9.3-59 30-65.9 70.3 33.3-1.2 65.9-29.3 65.9-70.3z"/><path d="m191.2 96.2h-12.2l-4.1-26-4.1 26h-11.4l-5.3-35h9.4l2.8 28.1 4.5-28.1h9.8l3.7 28.1 3.7-28.1h8.9z"/><path id="e" d="m220.5 67.7h-11.8v7.3h10.6v6.5h-10.6v8.1h12.6v6.5h-22v-34.9h22.4z"/><path id="l" d="m235.1 88.8h13.4l-1.2 7.3h-21.5v-34.9h9.4z"/><use transform="translate(26)" xlink:href="#l"/><path d="m305.5 96.2h-11.8l-9-26.5a91.9 91.9 0 011.2 14.6v11.8h-8.1v-34.9h11.4l9.4 26.4a78.5 78.5 0 01-1.2-13.8v-12.6h8.1z"/><use transform="translate(111.4)" xlink:href="#e"/><path id="s" d="m361.6 64.8-4.1 4.9a11.8 11.8 0 00-7.7-2.8c-2.8 0-4.1 1.2-4.1 2.8 0 2 1.2 2.8 6.5 4.5 6.9 2 10.6 5.3 10.6 11.4 0 6.5-5.3 11.4-14.2 11.4a18.7 18.7 0 01-13.8-5.3l4.5-5.3a12.6 12.6 0 008.5 3.7c3.3 0 4.9-1.6 4.9-3.7 0-2.4-1.2-3.3-6.1-4.9-8.1-2.4-10.6-6.1-10.6-11 0-6.5 5.7-10.6 13-10.6a17.1 17.1 0 0112.2 4.5z"/><use transform="translate(28.9)" xlink:href="#s"/></g></svg>