<svg viewBox="0 0 412 100" xmlns="http://www.w3.org/2000/svg"><g fill="#4c4c4c"><path d="m86.9 1v21.3l-28.7 1.2v64l-28.1 11.5-.1-74.4-28.7.7v-24.3z"/><path d="m121.3 40.4-6.8-22.6-7.3 23.7zm-18.7 15.9-4.7 15.6-23.9 8.6 29.8-79.3h21.8l22.8 60.9-19.6 3.2-3.3-11.5z"/><path d="m200.2 1-.1 33.3c.2 3.3-.1 6.4-.9 9.4s-2.2 5.6-4.3 7.9c-2 2.3-4.2 4-6.5 5.1-3.2 1.5-7.2 2.4-11.8 2.7-2.7.2-5.6.2-8.8 0s-5.9-.7-8.1-1.7-4.3-2.4-6.2-4.4c-1.9-1.9-3.3-4-4.1-6.1-1.3-3.4-2-6.5-2.2-9.2v-37h17l.1 36.6c.2 3 1.2 5.3 3 6.9s4.2 2.3 7.1 2.1 5.2-1.2 6.7-3c1.6-1.8 2.2-4.2 2-7.3v-35.3z"/><path d="m224.9 23.1 7.3.4c1.5 0 3.2 0 4.7-.5 1.1-.3 1.9-1.1 2.6-2s1.1-2 1.1-3.2c0-1.8-.6-3.2-1.7-4.1-1.1-1-3.3-1.4-6.4-1.4l-7.6-.2zm-17.1-22.1h28.5c5.3 0 9.3.5 12.1 1.4s5 2.6 6.8 5.1c1.7 2.5 2.6 5.5 2.6 9 0 3.1-.7 5.7-2 8-1.3 2.2-3.1 4.1-5.4 5.4-1.5.9-3.5 1.6-6 2.2 2 .7 3.5 1.4 4.4 2 .6.5 1.5 1.4 2.7 2.9s2 2.6 2.4 3.4l11.7 22.5-20.5-2.3-11.4-21.1c-1.2-2.2-2.2-3.6-3.1-4.3-1.2-.8-2.6-1.3-4.2-1.3h-1.5v25.2l-17.1-.6z"/><path d="m325.5 1.2v38.3c-.2 12.5-2.3 15.3-4.3 18.3-4.3 6.4-10.1 8.8-15.4 10-4 .9-9 .9-14.3 0-4.2-.7-6.2-1.4-9.8-2.5s-6.2-2.3-8.4-4-4.3-4.3-5.9-7-2.6-5.4-2.9-8c-.5-4.2-.5-3.5-.5-6.7v-38.4h19.8v39.2c0 3.5.4 6.3 2 8.6 1.7 2.2 3.6 2.9 7 3.5s6.4.3 8.6-1.2c2.3-1.6 4.3-4.3 4.3-10.8v-39.3z"/><path d="m351.4 58.1c0 3.5.3 7.2 2.1 9.9 1.9 2.6 5.7 5.5 10.9 6.8 5.8 1.4 10.9 1 14.1-.4 2.7-1.2 4.6-3.7 5-6.6.3-2.3-1-4.5-3.1-6.3-2-1.9-6.8-3.6-14.4-5.3-12.3-2.8-21.1-6.5-26.4-11-5.3-4.6-7.9-10.4-7.9-17.5 0-4.7 1.4-9.1 4.1-13.2 2.7-4.2 6.8-7.4 12.2-9.8 5.4-2.5 12.9-3.7 22.3-3.7 11.6 0 20.5 2.2 26.6 6.5s10.1 11.7 11.2 21.2l-27.4-.4c-.7-4.1-1.6-5.6-3.9-7.5s-5.4-2.8-9.3-2.8c-3.3 0-5.7.7-7.4 2.1s-2.5 3.1-2.5 5.1c0 1.4.7 2.8 2 3.9 1.3 1.2 4.4 2.3 9.4 3.3 12.3 2.7 21.1 5.3 26.4 8s9.2 6.1 11.6 10.1 3.6 8.5 3.6 13.5c0 5.8-1.6 11.2-4.8 16.1s-7.6 9-13.5 11.2c-12 4.6-25.7 2.6-34.2.3-14.9-4-22.1-8.7-27.4-16.4-4.7-6.9-5.2-14.1-3.6-23.2z"/><path d="m67.4 98s44.5-26.5 136.5-26.5c91.5 0 136.9 26.5 136.9 26.5v-9.8s-45.5-26.4-136.9-26.5c-92-.1-136.5 26.5-136.5 26.5z"/></g></svg>