<svg viewBox="0 0 239 100" xmlns="http://www.w3.org/2000/svg" xmlns:xlink="http://www.w3.org/1999/xlink"><defs><mask id="m"><path d="m2 2h237v237h-237z" fill="#fff"/><path d="m220.1 11.5c-2.2 0-3.7 1.1-4.6 3.2-.1.2-.4.3-.7.3h-27.8l-10.9-10.9h-171c-.8 0-1 .3-1 1.1v20.9l8.7 8.9h4.1c.4 0 .6.3.6.8v13l8.1 8h16.2c.6 0 .9-.4.9-1v-1.6c0-.5.3-.6.8-.6h37l11 11.1h94.8c.5 0 .8-.3 1.1-.8l5.7-10.3h38c.8 0 1.1-.3 1.1-1.1v-21.9c1.7-.8 2.7-2.3 2.7-4.1 0-1.3-.4-2.5-1.4-3.6l-10.2-10.3c-.8-.8-2-1.1-3.2-1.1z"/></mask></defs><g fill="#fff"><path mask="url(#m)" d="m5.2 2c-1.6 0-3.2 1-3.2 3.2v21.8l10 10.1h3.4v12.5l9.3 9.2h17.1c.9 0 3-.7 3-3.1h34.8l11 11.1h95.7c1.3 0 2.5-1 3-1.9l5-9.2h36.8c1.9 0 3.1-1.3 3.1-3.2v-21c1.6-1.2 2.8-2.9 2.8-5 0-1.7-.5-3.6-2-5.1l-10.2-10.3c-1.4-1.4-3.2-1.7-4.7-1.7-2.5 0-4.7 1.3-6 3.5h-26.2l-11-10.9z"/><path d="m9.6 12.7-.4.4v4.1l.4.4h15.1l.2.2v25.8l.5.5h3.9l.5-.5v-25.8l.2-.2h113.1l.5-.5v-3.9l-.5-.5z"/><path d="m38.3 28.3v1.7h7.7l.5.5v3.3l-.5.5h-7.7v1.7l.2.2h12.6l.4.4v4.1l-.4.4h-17.3l-.3-.3v-17.1l.3-.3h17.1l.3.3v4.1l-.3.3h-12.4z"/><path d="m68.7 23.3h-10.2c-2.4 0-4.8 2.3-4.8 5v7.6c0 3.4 3.3 5 4.8 5h10.3c2.8 0 5-2.4 5-5v-1.3l-.4-.4h-3.9l-.4.4c0 1-.3 1.5-1.1 1.5h-8.5c-.8 0-1.1-.6-1.1-1.2v-5.7c0-.8.4-1.1 1.2-1.1h8.4c.8 0 1.1.6 1.1 1.6l.4.4h3.9l.4-.4v-1.2c0-3-2.7-5.2-5.1-5.2z"/><path d="m82 23.8v5.9l.2.2h8.7l.2-.2v-6l.4-.3h4.1l.4.3v17l-.4.4h-4.1l-.4-.4v-6.2l-.2-.2h-8.7l-.2.2v6.2l-.4.4h-4l-.4-.4v-16.9l.4-.4h4z"/><path d="m120.3 23.7v17l-.4.4h-5.7l-.8-.3-9.4-12v11.9l-.4.4h-4l-.4-.4v-17l.3-.3h5.9l.6.3 9.4 12v-12l.3-.3h4.3z"/><path d="m128.8 23.4c-3.2 0-5.4 2.5-5.4 5.3v7c0 2.6 2.2 5.2 5.4 5.2h9.4c2.8 0 5.4-2.1 5.4-5.2v-7c0-3.1-2.6-5.3-5.4-5.3zm.6 4.7h8.2c.8 0 1.2.5 1.2 1.3v5.6c0 .8-.4 1.3-1.2 1.3h-8.2c-.8 0-1.3-.2-1.3-1v-5.9c0-.8.5-1.3 1.3-1.3z"/><path d="m167.7 17.5v4.2l-.3.3h-14.5c-.8 0-1.3.5-1.3 1.5v11.2c0 .9.5 1.5 1.3 1.5h10.9v-3.4h-4.1l-.4-.4v-3.9l.4-.4h8.6l.3.3v12.3l-.4.4h-15.7c-2.1 0-5.6-1.8-5.6-6.4v-11.1c0-3 2-6.4 5.4-6.4h15.1z"/><path d="m91.6 51.7-.5-.5v-3.8l.5-.5h79.4l5.6-10.5v-.4l-6.7-12.4.2-.2h5.1l4.3 7.9 4.3-7.9h4.9l.3.3-14.8 27.6-.6.4z"/><path d="m215.4 23.8v16.9l-.4.4h-3.8l-.4-.4v-10.1l-5 10.1-.7.4h-3.2l-.7-.4-4.9-10.1v10.1l-.4.4h-4.1l-.4-.4v-16.9l.5-.4h5.8c.3 0 .6 0 .7.3l5.1 10.5 5.2-10.5c.1-.3.2-.3.5-.3h5.8z"/><path d="m220.2 13.6c-1.8 0-3.2 1.4-3.2 3.2s1.4 3.2 3.2 3.2 3.2-1.4 3.2-3.2-1.4-3.2-3.2-3.2zm0 .5c1.5 0 2.7 1.2 2.7 2.7s-1.2 2.7-2.7 2.7-2.7-1.2-2.7-2.7 1.2-2.7 2.7-2.7z"/><path d="m220.9 18.6c-.2-.3-.3-.6-.3-.9-.1-.6-.3-.7-.7-.7h-.3v1.6h-.7v-3.7h1.3c.9 0 1.4.3 1.4 1 0 .5-.4.8-.7.9.5.2.4.6.5 1 0 .1.1.5.3.8m-1.5-2.2c.3 0 .6 0 .6-.4s-.3-.5-.6-.5h-.6v.9"/><path d="m15.9 84h2.9v-3.3h-9.8v3.3h2.9v10.5h4z"/><path d="m19.6 94.5h4v-5.9c0-1.2.5-1.8 1.3-1.8.6 0 .8.6.8 1.6v6.1h4v-6.3c0-2.6-.5-4.2-3.3-4.2-1.4 0-2 .5-2.8 1.4v-4.7h-4z"/><path id="c1" d="m36.6 94.7c2.6 0 4.5-1.1 5.3-3.7l-3.7-.2c-.2.8-.7 1.2-1.6 1.2-1.1 0-1.7-.6-1.6-1.8h6.9v-.6c0-4.4-3.1-5.6-5.5-5.6-2.7 0-5.6 1.8-5.6 5.4 0 2.9 2.3 5.3 5.8 5.3zm1.2-6.5h-2.8c-.1-1.3.5-1.8 1.4-1.8 1 0 1.4.5 1.4 1.8z"/><path d="m63.4 80.7-1.9 7.9-2.1-7.9h-3.3l-1.8 7.9-1.9-7.9h-4l3.7 13.8h3.6l1.8-7.7 1.9 7.7h3.6l3.6-13.8z"/><use transform="translate(35)" xlink:href="#c1"/><path d="m88.2 80.7h-4v13.8h4zm-6 0h-4v13.8h4z"/><path id="c2" d="m90 94.5h3.9v-6c0-1.2.4-1.8 1.2-1.8.6 0 .9.6.9 1.6v6.2h3.9v-6.3c0-2.6-.5-4.2-3.3-4.2-1.4 0-2.4.6-2.8 1.7v-1.5h-3.8z"/><use transform="translate(70.3)" xlink:href="#c1"/><path id="c3" d="m122.8 86.6c-.6-1.8-2.1-2.6-4.5-2.6-3.2 0-5 1.5-5 3.5 0 2.8 2.6 2.9 4.8 3.4.5.1 1.6.3 1.6.7s-.5.7-1.4.7c-1.3 0-2.1-.3-2.2-1.1l-3.3.3c.6 2 2.5 3.2 5.3 3.2 2.5 0 5.1-1.1 5.1-3.7 0-2.5-1.6-2.9-4.2-3.4-1-.2-2.3-.2-2.3-.7 0-.4.4-.5 1.3-.5s1.5.3 1.8.9z"/><use transform="translate(10.8)" xlink:href="#c3"/><path d="m147.8 86.2 4-.2c-.3-2.7-1.5-5.5-5.7-5.5-5.1 0-6.3 4.3-6.3 7.2 0 4.1 2.4 7 6.3 7 1.8 0 5.2-1 5.7-5.3l-3.9-.2c-.1 1.6-.6 2.3-1.8 2.3-1.3 0-2-1.3-2-3.8 0-2.7.7-4 2-4 1.5 0 1.4 1.3 1.7 2.5z"/><path d="m158.4 92.3c-.9 0-1.5-1.3-1.5-2.9s.6-2.9 1.5-2.9 1.5 1.4 1.5 2.9-.6 2.9-1.5 2.9zm0-8.3c-2.9 0-5.6 2-5.6 5.4 0 3.6 3.1 5.3 5.6 5.3 2.4 0 5.6-1.6 5.6-5.3 0-3.6-2.7-5.4-5.6-5.4z"/><path d="m165.3 84.2v10.3h3.9v-6.2c0-1 .4-1.5 1-1.5s.8.5.8 1.5v6.2h3.9v-6.2c0-1 .3-1.5 1.1-1.5.7 0 .9.5.9 1.5v6.2h3.9v-6.8c0-2.2-1-3.7-3.2-3.7-1.4 0-2.4.6-3 1.7-.6-1.1-1.6-1.7-2.9-1.7s-2.3.6-2.8 1.7h-.1v-1.5z"/><path d="m188.9 84c-1.6 0-2.5.6-2.9 1.8v-1.6h-3.8v13.5h4v-4.3c.6.8 1.5 1.3 2.7 1.3s3.8-.9 3.8-5.4c0-2.4-.9-5.3-3.8-5.3zm-1.5 2.5c.8 0 1.2 1 1.2 2.9 0 1.5-.3 2.7-1.2 2.7-.8 0-1-.5-1-1.6v-2.4c0-1 .2-1.6 1-1.6z"/><path d="m199 84c-3.1 0-4.8 1.1-5.3 3.2l3.5.3c.1-.8.6-1.1 1.6-1.1.8 0 1.2.4 1.2 1.3l-4 .7c-1.1.2-2.6 1.2-2.6 3.2 0 3 2.9 3.1 3.6 3.1 1.4 0 2.5-.7 3.3-1.7l.1 1.5h3.8c-.2-.5-.3-1.4-.3-2.4v-3.5c0-3.2-1.4-4.6-4.9-4.6zm.9 7.5c-.3.5-.7.8-1.4.8-.6 0-1.1-.4-1.1-1 0-.9.9-1.5 2.6-1.7 0 .6-.1 1.3-.1 1.9z"/><use transform="translate(115.3)" xlink:href="#c2"/><path d="m223.8 84.2-1.8 5.4-1.6-5.4h-4.5l3.7 9.3c.6 1.6-.5 1.7-1.5 1.7-.2 0-.8-.1-1.4-.2v2.8c.7.1 1.4.2 2 .2 2.3 0 3.3-1.1 4-3l3.9-10.8z"/></g></svg>