<svg viewBox="0 0 502 100" xmlns="http://www.w3.org/2000/svg"><g><path d="m44.9 2c-23.7 0-42.9 19.2-42.9 42.9s19.2 42.9 42.9 42.9 42.9-19.2 42.9-42.9-19.2-42.9-42.9-42.9zm36.6 42.9c0 6.5-1.8 12.9-5.1 18.5l-24.9-31.2h27.7c1.5 4.1 2.3 8.4 2.3 12.7zm-36.6-36.5c12.7 0 24.6 6.5 31.2 17.4h-62.4c6.6-10.9 18.5-17.4 31.2-17.4zm-34.3 23.8h27.7l-24.9 31.2c-5.5-9.5-6.6-20.9-2.8-31.2zm6.6 36.5 24.5-30.6v43.2c-9.5-.8-18.3-5.4-24.5-12.6zm30.9 12.6v-43.2l24.5 30.6c-6.2 7.2-15 11.8-24.5 12.6z"/><path d="m445 10.3v22.4c-6.2-2.2-13.1.1-16.7 5.5h7.2c5.3 0 9.5 4.3 9.5 9.6v27.3h9.5v-64.8zm-18.2 28.8c-5.7 2-9.6 7.3-9.6 13.4v9.6c0 6.3 4.2 11.9 10.2 13.7s12.5-.6 16-5.8h-7.1c-5.3 0-9.5-4.2-9.5-9.5z"/><path d="m493.1 33.1-11.6 28-11.5-28h-10.4l16.8 40.4-10.2 24.5h6.9l26.9-64.9z"/><path d="m121.7 17.9h19.1v57.2h9.5v-57.2h16.4l2.7-6.4h-45.1z"/><path d="m195.1 31.9c-4.7 0-8.9 2.3-11.4 6.3h5.9c5.3 0 9.5 4.3 9.5 9.6v27.3h9.5v-29.7c0-8.9-7.7-13.5-13.5-13.5zm-22.5-21.6h9.5v64.8h-9.5z"/><path d="m238.7 31.9c-4.5 0-8.7 2.5-11 6.4h6.2c4.4 0 8 3.5 8 7.9v2.5h-15.8v-10c-5.6 1.4-9.5 6.5-9.5 12.3v7.9c0 7.4 4.7 14 11.6 16.5s14.7.3 19.4-5.4h-7.1c-7.9 0-14.3-6.4-14.3-14.3v-1.9h25.2v-9.2c0-8.4-7.2-12.7-12.7-12.7z"/><path d="m277.4 31.9c-4.1 0-7.8 2.4-9.3 6.3h4.1c3.1 0 5.6 2.5 5.6 5.6v4.4l9.5-6.4c0-4.8-3.4-8.9-8.1-9.8-.6-.1-1.2-.1-1.8-.1zm-19.6 1.3v41.9h9.5v-41.9z"/><path d="m304.5 31.9c-5 0-9.8 2.3-12.8 6.3h9.6c2.5 0 4.9 1 6.7 2.8s2.8 4.3 2.8 6.8v3.2h-12.7c-6.2 0-11.4 4.4-12.5 10.5s2.3 12 8.1 14.1 12.3-.3 15.4-5.6h-4.6c-3.3 0-6.5-1.7-8.2-4.6s-1.9-6.4-.3-9.4h14.8v19.1h9.5v-27.3c0-8.8-7-15.9-15.8-15.9z"/><path d="m329.9 10.3v51.8c0 6.3 4.1 11.9 10.1 13.7s12.6-.6 16.1-5.8h-7.2c-5.3 0-9.5-4.2-9.5-9.5v-50.2zm23 21.6c-4.8 0-9.3 2.3-11.9 6.3h7.1c5.3 0 9.6 4.3 9.6 9.6v21.4c5.7-2 9.5-7.4 9.5-13.5v-9.5c0-7.9-6.4-14.3-14.3-14.3z"/><path d="m396.6 31.9c-4.8 0-9.3 2.3-11.9 6.3h7.1c5.3 0 9.5 4.3 9.5 9.6v21.4c5.7-2 9.6-7.4 9.6-13.5v-9.5c0-7.9-6.4-14.3-14.3-14.3zm-13.5 28.6v-21.4c-5.7 2-9.5 7.3-9.5 13.4v9.6c0 6.3 4.1 11.9 10.1 13.7s12.5-.6 16-5.8h-7.1c-5.2 0-9.5-4.2-9.5-9.5z"/></g></svg>