<svg viewBox="0 0 332 100" xmlns="http://www.w3.org/2000/svg"><g><path d="m141.5 50.1 48.2-48.1v94.5h-22.4v-39.9l-25.8 25.2-25.8-25.2v39.9h-22.4v-94.5z"/><path d="m295.4 18.4-31.4 31.5 31.7 31.7-16.5 16.4-31.6-31.4-32 31.4-16.4-16.4 47.8-47.7h-32.5l-15.3-15.4 16.4-16.5 31.7 31.5 31.7-31.5z"/><path d="m2 5.6h80.7v23.3h-27.6v67.6h-25v-67.6h-28.1z"/><path d="m319.2 5.7c-6 0-10.8 4.8-10.8 10.8s4.8 10.8 10.8 10.8 10.8-4.8 10.8-10.8-4.8-10.8-10.8-10.8zm0 1.4c5.2 0 9.4 4.2 9.4 9.4s-4.2 9.4-9.4 9.4-9.4-4.2-9.4-9.4 4.2-9.4 9.4-9.4zm-4.4 3.1v12.2h2.1v-5.2h2.7l2.5 5.2h2.4l-2.7-5.5c.7-.2 1.3-.4 1.8-1 1.2-1.1 1.3-3.1.4-4.3-.9-1.1-2.4-1.3-3.7-1.4zm2.1 1.3c1.5 0 3.4 0 4.3.3 1.5.4 1.4 2.7 0 3.4-1 .5-2.5.5-4.3.5z"/></g></svg>