<svg viewBox="0 0 504 100" xmlns="http://www.w3.org/2000/svg" xmlns:xlink="http://www.w3.org/1999/xlink"><g fill="#fff"><g id="a"><path d="m141.7 90.5-8.3-14.2h-9.7c-2.3 0-9-.8-9-9.3v-21.4h18.7l7.3-12.8h-26v-23.3l-14.3 9.8v12.8h-9v14.2h9v19.4c0 21.2 18 24.8 22 24.8z"/><path d="m156.7 60.8c0-9 7.3-15.5 15.6-15.6s15.6 7.1 15.6 15.6-7 15.5-15.6 15.5-15.6-6.5-15.6-15.5zm15.6-29.8c-16.4 0-29.8 13.4-29.8 29.8s13.4 29.7 29.8 29.7 29.8-13.3 29.8-29.7-13.4-29.8-29.8-29.8z"/><path d="m291.6 90.5v-36.1c0-13.1-10.7-23.5-23.4-23.5-4.7 0-10.6.8-15.8 5.7l-.5.4-.5-.4c-4.9-3.9-10-5.7-15.8-5.7-12.2 0-23.3 9.6-23.3 23.5v36.1h14.2v-35.5c0-5 4.1-9 9.1-9s9.2 4 9.2 9v35.5h14.3v-35.5c0-5 4.1-9 9.1-9s9.2 4 9.2 9v35.5z"/></g><use transform="translate(210.4)" xlink:href="#a"/></g><g fill="#df1b12"><path d="m35.2 2c-18.3 0-33.2 14.9-33.2 33.2s14.9 33.2 33.2 33.2 33.2-14.9 33.2-33.2-14.9-33.2-33.2-33.2zm0 16c9.5 0 17.2 7.7 17.2 17.2s-7.7 17.2-17.2 17.2-17.2-7.7-17.2-17.2 7.7-17.2 17.2-17.2z"/><path d="m35.2 98 12.7-22h-25.4z"/></g></svg>