<svg viewBox="0 0 674 100" xmlns="http://www.w3.org/2000/svg"><g fill="#fff"><path d="m5 2.8-3 17.3c3.9-2.5 8.9-3.4 13.5-3.4h16.6v56c0 5-.3 10.1-3 14.5h42.5c-2.7-4.4-3-9.5-3-14.5v-56h16.9c4.6 0 9.6.9 13.5 3.4l-3-17.3z"/><path d="m123.9 2.8c-23 0-24.2 16.8-24.2 25v34.7c0 10.7 2.3 24.7 24.2 24.7h55c21.9 0 24.2-14 24.2-24.7v-34.7c0-8.2-1.2-25-24.2-25zm19.5 13.9h15.6c4.5 0 7.6 1.2 7.6 5.7v45.5c0 3.3-2.3 5.4-7.6 5.4h-15.6c-5.3 0-7.2-2.1-7.2-5.4v-45.5c0-4.5 2.7-5.7 7.2-5.7z"/><path d="m244.6 36.7h20.7c4.7 0 6-1 6-4.7v-10.3c0-3.3-.9-5-6-5h-20.7zm0 14v22.1c0 9.7 1.7 12.1 3 14.4h-42.5c1.4-2.3 3-6.1 3-14.4v-55.5c0-9.6-1.9-12.1-3.8-14.5h78.9c22.8 0 24.8 10 24.8 18.8v15.5c0 7.9-1.2 12.4-14.6 13.6l12.9 23.6c2.6 4.3 4.3 9.4 8 12.9h-41.1l-17.4-36.5z"/><path d="m379.8 60.9.5-38.5c.1-4-1.8-5.7-7.2-5.7h-15.8c-4.5 0-7.1 1.2-7.1 5.7v45.5c0 4.3 3.5 5.4 7.1 5.4h7.2l-8-12.4zm.6 37.1-6.9-10.8h-35.6c-22.1 0-24.2-14.3-24.2-24.7v-34.7c0-8 .7-25 24.2-25h54.9c23.4 0 24.3 16.9 24.3 25v34.7c0 10.8-2.5 24.6-24.3 24.7h-4.6z"/><path d="m499.1 73.3c9.7 0 10.9-1.1 10.9-8.4v-47c0-8.9-.8-11.4-3.6-15.1h23c-3.7 4.2-3.6 6.1-3.6 15.1v43.3c0 21.1-8.5 26-26.7 26h-48.7c-16.7 0-26.5-6.3-26.5-26v-43.9c0-8.4-1.5-12-3-14.5h42.4c-2.5 5-2.9 7-2.9 14.5v48.1c0 4.5 1.4 7.9 9.1 7.9z"/><path d="m602.6 73.3c10.2 0 14.6-1.9 16.4-2.3l-3.2 16.2h-84.6c2.6-4.5 2.9-8.7 2.9-14.4v-55.5c0-8.7-1.7-12.2-3-14.5h83.1l3 16.2c-7.8-2-12.2-2.3-16.9-2.3h-29.7v20h26c9.7 0 13.8-1.4 16.8-2.2v18.4c-.9-.3-7.3-2.2-16.8-2.2h-26v22.6z"/></g><g fill="#ff6d0f"><path d="m629.9 87.6v-9.7h31c2 0 3.7-.6 3.7-3.3 0-2.5-2.3-3.3-4-3.3h-30.7v-9.6h29.7c7 0 12.4 3.1 12.4 13 0 8.2-4 12.9-12.4 12.9z"/><path d="m657.2 49.6h2.9c2.4 0 4.5-.7 4.5-3.8 0-2.2-2-3.3-4.1-3.3-7.7 0-6.3 15.5-19.9 15.5-7.7 0-11.7-4.6-11.7-12.1 0-7.6 4.2-12.3 13.3-12.2v8.8c-2.4.1-5.9.1-5.9 3.2 0 2 1 3.4 2.8 3.4 8.7-.1 5.4-15.5 20.6-15.5 7.9 0 12.3 4.4 12.3 12.4 0 8.8-5 12.6-10.4 12.6h-4.4z"/><path d="m637.3 16.7v.2l18.4 2.7v-5.5zm33.7 14.8-41.1-8.9v-11.7l41.1-8.9v9.8l-8 1.3v7.6l8 1.1z"/></g></svg>