<svg viewBox="0 0 167 100" xmlns="http://www.w3.org/2000/svg" xmlns:xlink="http://www.w3.org/1999/xlink"><defs><path id="a" d="m164.7 67.5v30.5h-162.4v-30.5z"/><mask id="m"><use xlink:href="#a" fill="#fff"/><path d="m21.8 71.9v3.7h-8.9v5.3h8.3v3.7h-8.3v9.7h-4.9v-22.4z"/><path d="m36 71.9v22.4h-5v-22.4z"/><path d="m62 71.9v3.7h-5.4v18.7h-5v-18.7h-5.4v-3.7z"/><path d="m76.7 71.9c2 5.1 4.2 10.2 6.2 15.3v-15.3h4.5v22.4h-5.6c-2-5.2-4.2-10.5-6.2-15.7v15.7h-4.6v-22.4z"/><path d="m110.9 71.9v3.7h-8.8v5.3h8.2v3.7h-8.2v6h9.1v3.7h-14.1v-22.4z"/><path id="x" d="m134.6 78.1-4.8.1c-.4-1-.4-2.6-1.5-3.1-1.3-.5-3.5-.3-4 1.2-.3 1.1-.2 2.6.9 3.3 2.5 1.5 6.3 2.2 8.5 4.2 1.2 1 1.6 2.6 1.6 4.2 0 4.2-2.8 6.7-8.6 6.7-2.2 0-4.8-.3-6.3-1.9s-1.5-3.4-1.7-5.5l5 .1c.2 1.2.1 2.8 1.3 3.5 1.3.8 3.2.7 4.3-.3 1.2-1.2.9-3.7-.6-4.5-2.3-1.4-5.7-1.7-7.9-3.7-1.9-1.7-2-5-1.2-7.2 1.3-3.3 5-3.7 7.6-3.7 2.3 0 4.6.5 5.9 2.1 1.3 1.5 1.3 3 1.5 4.6z"/><use transform="translate(23.7)" xlink:href="#x"/></mask></defs><g fill="#e30613"><path d="m2 4.7h9.7v36.4c0 5.4 2.1 9.3 8 9.4 6.3.1 8.7-3.9 8.7-9.4v-36.4h9.6v36.4c0 11.2-4.3 19.4-18.3 19.4-12.5 0-17.7-7.6-17.7-19.4z"/><path d="m43.5 52.6c-2.1 0-3.9 1.8-3.9 3.9s1.8 3.9 3.9 3.9 3.9-1.8 3.9-3.9-1.8-3.9-3.9-3.9z"/><path d="m60.7 4.7h11.2l16.9 34v-34h10.3l.3 55.8h-11l-17.3-36.3v36.3h-10.4z"/><path d="m108.2 52.6c-2.1 0-3.9 1.8-3.9 3.9s1.8 3.9 3.9 3.9 3.8-1.8 3.8-3.9-1.7-3.9-3.8-3.9z"/><path d="m138.3 4.6c-19.3 0-23 15.2-23 27.8 0 17 8.9 28.1 22.2 28.1 10.6 0 22.8-7 22.8-27.9 0-11.5-3.1-28-22-28zm-.4 8.2c5.9.2 12 6.7 11.8 20.3-.1 5.6-1.3 19-12.1 19-11.3 0-12.1-15.1-12-20 .1-13.8 6.7-19.5 12.3-19.3z"/><path d="m161.1 52.6c-2.1 0-3.8 1.8-3.8 3.9s1.7 3.9 3.8 3.9 3.9-1.8 3.9-3.9-1.8-3.9-3.9-3.9z"/><path d="m160.2 2c-2.7 0-4.9 2.1-4.9 4.8s2.2 4.9 4.9 4.9 4.8-2.2 4.8-4.9-2.1-4.8-4.8-4.8zm0 .7c2.3 0 4 1.8 4 4.1s-1.7 4.2-4 4.2-4.2-1.9-4.2-4.2 1.9-4.1 4.2-4.1z"/><path d="m158.2 3.9v5.7h.9v-2.3h1.1l1.2 2.3h1.2l-1.2-2.3c.8-.4 1.1-.9 1.1-1.8 0-1.2-.5-1.6-2.1-1.6zm.9.8h1c.8 0 1.3.2 1.3.9 0 .6-.6.8-1.3.8h-1z"/><use xlink:href="#a" mask="url(#m)"/></g></svg>