<svg viewBox="0 0 100 100" xmlns="http://www.w3.org/2000/svg"><g fill="#1c1a1b"><path d="m50 2a48 48 0 00-48 48 48 48 0 0048 48 48 48 0 0048-48 48 48 0 00-48-48zm0 5a43 43 0 0143 43 43 43 0 01-43 43 43 43 0 01-43-43 43 43 0 0143-43z"/><path d="m28.4 57.9c.4.5.7 1 .7 1.7.1 2.7.9 5.2 1.1 7.8-.2 0-.5.2-.7.2-4.4-6.2-9-12.1-14.2-17.6-.8-.9-.7-2.4.1-3.3s2.5-1 3.5-.1c2.5 2.1 8.4 9.9 9.5 11.3z"/><path d="m39.9 24.9c1 .8 1 2.3.6 3.3-3 7.1-4.4 14.8-4.8 22.5-.2 4.2-.2 11.4 1.6 18.6.2.9.5 1.8.2 2.6-.5 1.5-2.5 2-3.8 1-.7-.6-.9-1.4-1.1-2.3-1.7-6.5-1.8-13.2-1.8-19.9 0-2.1.2-11.6 4.6-23 .3-.7.5-1.5.9-2.2.7-1.2 2.5-1.5 3.6-.6z"/><path d="m44 50.6c.7 4.5 2.6 8.6 3.8 12.9.1.9-.3 1.8-1 2.3-1 .7-2.5.5-3.3-.5-1.5-2-3.5-10-4-12.3-.2-.8-.2-1.8.3-2.6.9-1.4 3.5-1.4 4.2.2z"/><path d="m43.2 43.4c1.4 1 1.4 3.5 0 4.5-1.2.8-3 .5-3.9-.7-.4-.6-.4-1.3-.4-2 0-.8.7-1.5 1.5-2s1.9-.4 2.8.2z"/><path d="m47.9 39.5c-.8.3-1.4 1-1.6 1.8-.4 2 0 4.1.5 6 1.9 7.8 6.5 17.9 7.1 19 .8 1.5 3.1 1.4 4 0 .6-.9.4-1.9 0-2.8-1.6-3.5-2.9-7.2-4.2-10.8 2.3-2.3 4.4-4.4 6.1-7.2.6-1.1 1.1-2.2 1.2-3.5.1-2.6-2.1-4.6-5.1-4.6-2.5 0-5.3.8-8 2.1zm8.1 2.8c-1 1.9-2.5 3.6-4.1 5-.4-1.3-.6-2.5-.8-3.8 1.6-.7 3.2-1.2 4.9-1.2z"/><path d="m74.2 35c-2 0-5.6 1.1-8.8 2.8-1.3.7-2.6 1.4-3.2 2.9-.6 1.4-.1 3.3.3 4.8 1.4 5.7 3.3 11.2 5.3 16.7.3.9.7 1.7 1.6 2.1 1 .4 2.2.1 2.9-.7.6-.8.7-1.7.3-2.6-1.3-3.4-2.5-6.8-3.6-10.3.5-.5 1-1.1 1.5-1.6 2.9 1.9 5.8 3.9 8.7 5.9 1 .7 2 1.4 3.2 1.1 1.3-.4 1.8-1.6 1.7-2.9-.1-1-1.3-1.7-2.1-2.2-2.7-1.8-5.4-3.7-8.1-5.6 1.4-2.1 3.2-3.8 3.9-6.4.4-1.5-.3-4-3.6-4zm-3 5.6c-1.1 1.6-2.4 3.1-3.8 4.4-.2-.8-.4-1.6-.5-2.4 1.4-.8 2.8-1.5 4.3-2z"/><g transform="matrix(.8 0 0 .8 15 13)"><path d="m70.7 67.1.3.8-1.5.5 1.2 3.6-.9.3-1.2-3.6-1.5.5-.2-.8z"/><path d="m71 67 1.5 4.4.9-.3-.8-2.5 1.7 2.2.9-.3.1-2.8.8 2.5 1-.3-1.5-4.4-1.2.4v3.6l-2.2-2.9z"/></g></g></svg>