<svg viewBox="0 0 525 100" xmlns="http://www.w3.org/2000/svg" xmlns:xlink="http://www.w3.org/1999/xlink"><g fill="#918a6f"><path id="a" d="m113.8 19.7-46.4 73.7c-1.4 2.2-4 4.6-8 4.6s-6.7-2.5-8-4.6l-45.8-73.7c-2.4-3.8-3.6-6.6-3.6-8.8 0-5.9 5.9-8.9 9.5-8.9 4 0 7.1 3.2 8.2 5l39.7 64 39.8-64c1.7-2.8 4.1-5 8.1-5 3.4 0 9.7 2.5 9.7 9 0 2.7-1.4 5.8-3.2 8.7z"/><path d="m197.5 98c-25.5 0-48-19.8-48-48v-38.7c0-2.6 1.8-9.3 9.3-9.3s9.5 6.7 9.5 9.3v38.7c0 20.7 18.3 29.4 29.2 29.4 2.7 0 8.9 2.5 8.9 9.4s-6.5 9.2-8.9 9.2z"/><path d="m335.7 11.3v38.9c0 22.3-17.8 47.8-47.8 47.8-29.7 0-47.9-25.2-47.9-47.8v-38.9c0-3.8 2.9-9.3 9.3-9.3 6.3 0 9.3 5.5 9.3 9.3v38.7c0 8.1 6.4 29.4 29.3 29.4 22.6 0 29.3-21.4 29.3-29.4l-.1-38.7c0-3.8 3-9.3 9.4-9.3s9.2 5.5 9.2 9.3z"/><use transform="translate(366.4)" xlink:href="#a"/><path d="m514 7.5h-1.1v2.5h1c1.1 0 1.7-.3 1.7-1.3 0-.7-.3-1.2-1.6-1.2zm3.1 7.8c-1.1 0-1.2-.2-1.3-.6l-.5-1.5c-.4-1.2-.8-1.5-2.4-1.5v3.1c0 .3-.1.5-1 .5s-1.2-.2-1.2-.5v-8c0-.4.2-1 1-1h2.6c1.5 0 3.7.4 3.7 2.7 0 1.1-.6 2.1-2.2 2.5.9.3 1.5.8 1.8 1.7l.6 1.6c.3.9.2 1-1.1 1zm-2.8-11.5c-3.9 0-6.8 3-6.8 6.9 0 4.3 3.1 6.9 6.8 6.9 3.9 0 6.7-3 6.7-6.9 0-4.1-2.7-6.9-6.7-6.9zm0 15.6c-4.6 0-8.8-3.3-8.8-8.7 0-5.3 4.4-8.7 8.8-8.7 5.7 0 8.7 4.4 8.7 8.7 0 5.4-4.3 8.7-8.7 8.7z"/></g></svg>