<svg viewBox="0 0 361 100" xmlns="http://www.w3.org/2000/svg"><g fill="#2d365f"><path d="m49.6 78.7-7.4-18.1c-1.1-2.8-1.9-5.3-5.7-5.3-4 0-4.6 2.5-5.8 5.3l-7.4 18-9.3-23.4h-12l16.6 39.6c.7 1.7 1.3 3.1 4.8 3.2 2.5 0 4.1-1.6 4.8-3.2l8.3-20 8.3 20c.7 1.6 2.6 3.2 4.9 3.2 2.4 0 4.1-1.5 4.8-3.2l16.5-39.6h-11.6z"/><path d="m102.6 87.1h-10.6c-5.8 0-10.6-4.8-10.6-10.6s4.8-10.6 10.6-10.6h10.6v-10.6h-10.6c-11.8 0-21.3 9.5-21.3 21.3s9.5 21.4 21.3 21.4h21.2v-42.7l-10.6 10.6z"/><path d="m134.5 28.7-10.6 10.6v58.6h10.6z"/><path d="m155.7 2-10.7 10.7v85.2h10.7z"/><path d="m189.4 2-10.7 10.6v85.3l10.7-10.8v10.7h10.6c11.8 0 21.5-9.6 21.4-21.4 0-11.6-9.6-21.1-21.4-21.1h-10.6zm0 63.9h10.6c5.9 0 10.6 4.8 10.6 10.6s-4.8 10.6-10.6 10.6h-10.6z"/><path d="m259.6 87.1h-10.6c-5.8 0-10.6-4.8-10.6-10.6s4.8-10.6 10.6-10.6h10.6v-10.6h-10.6c-11.8 0-21.3 9.5-21.3 21.3s9.5 21.4 21.3 21.4h21.2v-42.7l-10.6 10.6z"/><path d="m278.1 76.5v21.4h10.6v-21.4c0-5.8 4.8-10.6 10.6-10.6h10.6v-10.6h-10.6c-11.7 0-21.2 9.5-21.2 21.2z"/><path d="m357.4 64.4c.4-.4 1.6-1.8 1.6-3.9 0-2.9-2.3-5.3-5.3-5.3h-35.8v10.6h22.9l-22.8 22.8c-1 1-1.4 2.3-1.5 3.7 0 2.2 1.8 5.4 5.4 5.4h35.7v-10.6h-22.8z"/></g><path fill="#050505" d="m178.7 23.4v10.6l10.7-10.6zm0 21.3v10.6l10.7-10.6zm0 21.2v10.6l10.7-10.6z"/><path fill="#f46a40" d="m162.5 12.7v10.7h26.9v-10.7zm0 21.3v10.7h26.9v-10.7zm0 21.3v10.6h26.9v-10.6z"/></svg>