<svg viewBox="0 0 598 100" xmlns="http://www.w3.org/2000/svg"><g fill="#fff"><path d="m112.3 29.1-25.7 47.7h-.3l.7-47.7h-31.6l-26.9 47.7h-.3l1.4-47.7h-27.6l4.4 66.3h30.7l28.3-48h.3l-.9 48h30.7l42.3-66.3z"/><path d="m166.5 71.9c-2.7 8.8-12.8 11.3-17.9 11.3-6 0-9.8-2.6-8.1-8 2.5-8.1 14.2-10.7 28.2-10.6zm-23.3-42.2-11.6 18.2c7.1-2.9 19.7-6.1 27.6-6.1 13.2 0 14.1 5.1 13 8.7l-.3.9c-30.3-.1-53 8.4-58.4 25.9-.5 1.7-.7 3.4-.7 5 0 8.7 7.5 15.7 22.1 15.7 10.2 0 19.8-2.9 27.1-8.3h.6l-2 6.8h26.4c1.4-4.7 10.6-36.8 11.2-39.6.7-2.9 1.1-5.8 1.1-8.5 0-11.9-7.6-21-30.9-21-10 0-18.4.6-25.2 2.3z"/><path d="m299.9 45.1h18.4l4.6-16h-18.5l6.3-21.9-28 7-4.3 14.9h-31.8l6.3-21.9-28 7-4.2 14.9h-27c5.7 2.8 9.4 7.3 10 16h11.9l-7.7 27c-4.5 15.8-1.4 24.8 22.2 24.8 6.2 0 11.2-.7 16-1.2l4.3-14.9c-2.7.4-5.7.9-8.3.9-8.3 0-9.4-4.1-7.1-12.1l7-24.5h31.4l-7.7 27c-4.5 15.8-1.4 24.8 22.2 24.8 6.2 0 11.1-.7 16-1.2l4.3-14.9c-2.7.4-5.7.9-8.3.9-8.4 0-9.4-4.1-7.1-12.1z"/><path d="m352.1 62.4c-2.8 9.7 2.5 16.9 11.3 16.9 10 0 18.1-7.2 21.1-17.8 2.5-8.8-1-16.4-11.3-16.4-9.7 0-18.3 7.4-21.1 17.3zm-15.6-53.8 28.4-6.6-10.2 35.6h.3c8.9-7.4 18.6-10.4 29.1-10.1 4.6.1 22.4 2 22.4 24.1 0 11.8-8.5 45.3-44.5 45.3-12.2 0-21.3-6-22.6-13.4l-3.5 11.9h-24.3z"/><path d="m419.7 29.1h26.4l-19 66.3h-26.4z"/><path d="m458.9 8.6 28.3-6.6-15.7 55h.2l30-27.9h28.9l-35.2 30.4 18.4 35.9h-32l-11.7-32.8h-.2l-9.4 32.8h-26.5z"/><path d="m541.4 55.6c4.2-9.3 10.7-13.2 19.2-13.2 10.8 0 13.1 5.9 10.9 13.2zm22.8-26.8c-37.1 0-52.4 28.8-52.4 46 0 18.8 21.4 22.7 32.5 22.7 28.5 0 42.4-16.1 44.6-21.3l.6-1.4h-24.4l-.4.5c-2.4 3-7.1 6.7-15.8 6.7-6 0-14.9-1.9-12.3-13.5h55.7l.3-.8c2.5-6.7 3.4-11.7 3.4-16 0-21.1-23.4-22.9-31.8-22.9z"/></g><g fill="#ed1c24"><path d="m453.8 2-28.2 6.6-3.3 11.3h26.4z"/><path d="m421.8 21.7-.8 2.8h26.4l.8-2.8z"/></g></svg>