<svg viewBox="0 0 100 100" xmlns="http://www.w3.org/2000/svg"><g><path d="m78.6 44.6c5.1 19.1-6.1 24.9-12.5 26.6-3.5.9-7 .9-10.5-.2-2.5 2.7-5.5 4.5-9.1 5.4-7.4 1.9-19.2 1.6-24.1-16.8l-5.2-19.5 13.9-3.7 5.7 20.9c.8 2.9 1.8 6.4 5.2 5.6 3.6-.8 2.7-4.7 1.9-7.5l-5.6-20.9 14-3.8 5.6 21c.8 3 2 6.4 5.4 5.5 3.5-1 2.4-4.8 1.7-7.5l-5.6-20.9 14-3.7zm12-5.4c-.1-5.3-1.1-10.6-3.3-15.5 6.5 9.1 9.2 19.6 8.2 30.5-.6-5.2-2.4-10.3-4.9-15zm-25.7 49c15-10.1 24.5-27.1 25.6-44.4 9.6 22.7-4.5 41.5-25.6 44.4zm-19.1 7.4c5.3-.6 10.4-2.3 15.1-4.9 5.9-.3 11.7-1.7 16.9-4.3-4.9 3.8-16.2 10.6-32 9.2zm-34-30.5c13.3 20.2 35.2 25 44.4 25.5-21.3 9-41.3-3.2-44.4-25.5zm-2.5-4.1c.3 5.8 1.7 11.6 4.2 16.7-7.1-9.5-10.5-21.6-9-33.5.4 7 2.7 12.9 4.8 16.8zm25.7-49.2c-14.6 9.6-24.5 26.8-25.7 44.1-8.9-23 4.3-41.9 25.7-44.1zm20.7-7.2c-6.7.4-12.3 2.5-16.6 4.8-5.4.1-11.2 1.4-16.1 3.6 5.6-4 17.4-10.4 32.7-8.4zm4.7 84c-23.4.6-41.9-14.9-49-28.3-.5-23.3 14.9-41.7 28.3-48.8 19.9-.2 39.5 11.3 48.8 28.1.2 19.8-11.3 39.7-28.1 49zm27.8-53.4c-10.1-15-26.8-24.4-44.2-25.7 22.4-9 41.7 3.7 44.2 25.7zm-38.2-33.2c-26.2 0-48 21.5-48 48 0 26.9 21.3 48.1 48 48 27.5-.1 47.9-22.4 48-48 .1-26.5-22.6-48-48-48z"/></g></svg>