<svg viewBox="0 0 634 100" xmlns="http://www.w3.org/2000/svg"><g><path d="m26.6 18.2 46.1 33.8-69.1 26.8-.4 1.1c-.8 2.1-1.2 4.1-1.2 6 0 7 5.2 12.2 13.5 12h2.5l76.6-29.7 40.4 29.7h40.5l-125.3-95.8c-10.2 1.1-19.1 7.2-23.6 16.1z"/><path d="m408.8 79.4 7.5-19.9h-54l-7 18.2h-151.5l-40.7-29.9 69.2-26.8.4-1.1c3.7-9.9-1.8-17.9-12.4-17.9h-2.5l-76.6 29.7-40.4-29.7h-35l125.4 95.9h191.6c10.1 0 21.9-7.7 26-18.5z"/><path d="m273.7 70.2 25.8-68.2h-33.6c-10 0-21.8 7.5-26 18.5l-18.9 49.7z"/><path d="m485.1 2c-23 0-46.8 19-53.8 37.4l-8 21.2c-1.2 3.1-2 6.3-2.3 9.6h51.3l18.1-47.8h84.4l-6.9 18.2h54.2l7.5-19.9c.8-2.2 1.2-4.2 1.2-6.2 0-7.2-5.4-12.5-14-12.5"/><path d="m554 77.5h-135.2c-1.3 4.1-4 14.6-18.4 20.4h180.1c10.6 0 23-8 27-18.7l7.5-19.9h-54.1z"/><path d="m621.4 90.2v4h-1.5v-9.5h3.8c1.7 0 3.5.5 3.5 2.8 0 .3 0 1.1-.7 1.7-.5.5-1.2.7-1.9.8l2.8 4.2h-1.7l-2.6-4zm0-1.2h2.4c1.2 0 1.8-.4 1.8-1.4s-.8-1.4-2.2-1.4h-2z"/><path d="m623.4 80.8c-4.7 0-8.6 3.9-8.6 8.6 0 4.8 3.9 8.6 8.6 8.6 4.8 0 8.6-3.8 8.6-8.6 0-4.7-3.9-8.6-8.6-8.6zm0 1.2c4.1 0 7.4 3.3 7.4 7.4s-3.3 7.4-7.4 7.4-7.4-3.3-7.4-7.4 3.3-7.4 7.4-7.4z"/></g></svg>