<svg viewBox="0 0 873 100" xmlns="http://www.w3.org/2000/svg" xmlns:xlink="http://www.w3.org/1999/xlink"><g id="figure" fill="#fff"><g transform="scale(.1)"><path d="m447.6 20c-237 0-427.6 193.4-427.6 427.3s190.6 426.8 427.6 426.8h1038.5v-854.1zm1083.1 0v854.1h538.7c-237.5 0-429.8-193.4-429.8-427.3 0-233.3 192.3-426.8 429.8-426.8zm-604.7 4.4c238.1 0 429.8 189.1 429.8 422.4s-192.3 422.9-429.8 422.9-429.9-189-429.9-422.9 191.8-422.4 429.9-422.4z"/><path id="a" d="m2530.4 701.2c-27.6 6.1-56.4 10-86.3 10-50.8 0-96.5-18.8-96.5-67.6 0-122.5 93.1-370.3 135.4-415.2 29.9-31.6 49.7-37.1 98.2-37.1 28.2 0 49.6 18.8 49.6 34.3 0 12.6-16.9 38.9-16.9 70.4 0 47.7 45.7 79.2 102.1 79.2 66.6 0 108.9-38.7 108.9-92.5 0-99.2-147.8-132.4-243.1-132.4-221.7 0-473.3 170.1-473.3 360.2 0 139.7 141 240.6 304.6 240.6 133.1 0 249.9-51.5 335.6-130.8 19.7-15 38.4-31.6 54.2-51.6h-175.4s-5.1 95.3-96.5 131.9"/><path d="m3393 150.8c-226.8 0-511.7 155.7-511.7 358.6 0 125.3 102.1 242.2 311.4 242.2 329.9 0 522.4-202.8 522.4-357.5 0-144.1-155.1-243.3-322.1-243.3zm-19.2 40.5c63.2 0 102.1 18.9 102.1 69.3 0 79.3-73.1 314.9-109.5 391.8-25.1 52.8-68.2 58.8-137 58.8-44 0-108.9-2.8-108.9-47.7s70.4-331.5 94.8-387.4c25.8-59.4 77.3-84.8 158.5-84.8z"/><path d="m4431.5 685.1h-1.1c-15.8 0-34-12.7-29.9-27.1l102.1-357c32.6-113.9-88-150.2-165.3-150.2-135.4 0-209.3 83.7-290.5 158.5l-3.4-2.7 52.5-153h-214.4l-188.4 575.9h230.1l67.1-231.7c28.2-94.8 47.3-142.6 133.7-217.3 31.5-27.3 86.3-80.9 133.7-80.9 21.4 0 41.4 20.4 23.2 81.2l-91.4 305.1c-35.8 119.5 53 149.7 142.7 149.7 35.5 0 66-3.9 93.1-10.6l6.7-40.4z"/><use transform="translate(2452)" xlink:href="#a"/><path d="m5662.9 293.3c29.8-81.9 73.9-102 126.4-102 70.5 0 94.8 27.1 94.8 82 0 135.2-128.1 181.2-177.7 181.2h-102.1zm202.5 276s-4.5 84.8-81.2 124.7c-40.1 10.5-82.9 16.6-128 16.6-56.4 0-93.7-16-93.7-67.6 0-51.5 19.2-99.2 29.9-148.5h142.7c87.2 0 328.8-31.4 328.9-191.3.1-112.5-147.7-152.9-258.3-152.9-227.3 0-485.7 179-485.7 373.5 0 144.1 140.5 227.3 306.3 227.3 175.4 0 317.6-61.5 416.3-181.8z"/><path d="m6565.5 633.6c-21.3 36.1-44 77.6-98.7 77.6-89.7 0-123-72.1-123-133.6 0-73.7 21.1-147.1 54.7-213.4 33-65 105.5-172.9 206-172.9 36.6 0 86.2 11.6 86.2 46 0 82-65.3 294.9-125.2 396.3zm-522.4 212.8h230.8l45.7-191.2c53 70.4 106 96.4 204.1 96.4 140.5 0 388.8-155.2 388.8-373 0-133.6-111.2-227.8-274.8-227.8-104.4 0-188.4 68.1-230.1 140.2l-3.4-3.3c15.8-43.2 33.2-87.5 52.4-134.1l-239.1-1.4z"/><path d="m7365.6 570.4c-19.2 54.3-73.6 123-136.2 123-23.1 0-37.1-10.1-23-57.6l125.2-420.7h126.9l8.4-40.5h-123.5l24.9-73.1-221.2 1.1-28.7 72h-108.9l-10.8 40.5h105.5l-93 324.3c-12.4 43.3-24.9 86.4-24.9 103.6 0 69.3 86.3 99.8 158.5 99.8 143.3 0 266.4-67.1 305.8-172.4z"/><path d="m8436.8 390.2c-90 68.5-140.1 108.4-213.8 160.2l-53.6 37.7c76.2 26.6 189 58.2 384.2-39.9l-51.4 161.3c-100 43.4-173.7 58.1-234.3 58.1-162.4-.1-231-106.4-460.7-53.1 103.3-78.2 193.7-168.9 259-217.3 65-48.1 130.9-97.9 205.3-154.6 124.6-94.9 66.7-163.1-19.1-163-120.5.1-136.2 47.1-142.2 93.1-63.7-1.7-191.3 0-191.3 0-.2-5.4.4-10.7 1.2-16 18-125.8 177.1-183.8 347.5-184 161.1-.3 286.8 49.7 286.9 152.1.1 72-60 121.5-117.6 165.4z"/><path d="m8609.6 881.3c14.1-.3 26-5 26-17.7 0-9.4-6.8-18.8-26-18.8-5.6 0-9.6.5-12.4 1.1v35.7zm-29.3 58.8v-105.3c9-1.7 17.5-2.8 30.5-2.8 38.7 0 42.8 17.4 42.8 29.9 0 13.9-9.6 22.2-20.8 25.5 9.6 2.8 15.8 11.1 18 26.6 2.3 16.6 5.1 22.8 6.8 26.1h-18.1c-2.8-3.3-5.1-13.3-7.3-27.2-2.2-13.3-9-18.8-23.1-18.8h-11.9v45.7zm35-134.7c-42.9 0-77.3 35.5-77.3 79.8s34.4 80.4 77.3 80.4 77.2-35.5 77.2-79.8-34.3-80.4-77.2-80.4zm0-15c52.5 0 94.7 42.1 94.7 94.8s-41.7 94.8-94.7 94.8-95.4-41.6-95.4-94.8 42.9-94.8 95.4-94.8z"/></g></g></svg>