<svg viewBox="0 0 100 100" xmlns="http://www.w3.org/2000/svg"><path d="m481.1 183.5c21.8 0 114.3.4 114.3 77.1 0 43.3-55.7 67.2-85.3 67.2-39.2 0-52.8-23.5-52.8-43.5.1-24.6 14.8-21.8 14.9-46.7 0-16.6-19-23-34.9-23-27.7 0-48.9 18.7-61.1 41.4-41.7 78-64.7 175.8-79.2 264.9-7.7 47.5-10.3 95.1 58.8 95.1 36.8 0 79.9-11 98-51.3 20.6-45.9 15.3-118.7 64.5-166.2 61.8-59.5 141-72.3 182.9-72.3 34.1 0 136.7 6.4 136.4 105.9-.1 37.5-9.3 56.6-28.1 83.9-34.7 50.5-92.4 109.6-174.8 183.3 6.6 7.5 31.6 21 61.7 20.7 46.3-.4 102.5-27.9 138.3-60.9 6.6-6.1 10.7-10.7 18-16.1 4-3 9.2 2.3 6.8 7.3-19.1 39.8-37.1 76-55.7 114-.6 1.1-1.4 1.6-2.6 2.2-57.4 31-100.9 50-165.5 50-64.5 0-156.4-46.1-236.2-5.9-2.9 1.5-4.5-.6-2.1-3 91.1-95.2 182.9-189.5 273.8-285 51.7-54.4 50.1-113.8-1.8-113.8-58.7 0-84.4 34.8-90.9 83.2-8.1 60.6-71.2 161.8-246.9 161.8-74.8 0-191.7-34.7-191.8-171.7-.1-184.3 207.5-298.5 341.3-298.6z" transform="scale(.1)"/></svg>