<svg viewBox="0 0 381 100" xmlns="http://www.w3.org/2000/svg" xmlns:xlink="http://www.w3.org/1999/xlink"><g fill="#fff"><path d="m2 6.5h36.9c18 0 23.9 15 23.8 22.7 0 2.8-.1 12.7-11.7 19.7v.9l18.9 47.1-44.9-60h13.2c6.6 0 9.4-4.5 9.4-7.7-.1-6.5-5.5-7.7-9.3-7.7h-36.3z"/><path d="m112.2 6.5v11h-25.3v11.3h25.3v11.4h-25.3v15.4h25.3v11.5h-37.9v-60.6z"/><path d="m142.9 2-30.4 65.1h13.4l6.7-14.8h20.5l6.7 14.8h20.3l12.8-20.1 11.7 20.1h14.5l-19.6-31.7 18.3-29h-13.5l-11.4 17.9-10.9-17.9h-13.7l17.8 29-16 25zm5.6 39.4h-10.8l5.2-12.4z"/><path d="m239.3 6.5v60.6h-12.6v-60.6z"/><path d="m249.5 2.1 38.6 39.1v-34.6h12.7v64.9l-38.5-40.7v36.3h-12.8z"/><path d="m363.1 17-9.2 7c-4.9-6.4-10.8-7.3-14.4-7.3-9.3.1-19.6 5.4-19.6 19.4 0 15.2 10 20.9 18.9 20.9 8.3 0 15.8-2.6 16.3-11.5h-13.9v-11.1h26v10.4c0 7.5-4.3 23.6-28.5 23.6-23.2 0-31.9-17.3-31.9-32.3 0-13.2 10.1-31 32.3-31 8.7 0 16.4 2.1 24 11.9z"/><path d="m373.1 6.5c-3.3 0-5.9 2.6-5.9 5.9s2.6 5.9 5.9 5.9 5.9-2.6 5.9-5.9-2.6-5.9-5.9-5.9zm0 .8c2.9 0 5.1 2.2 5.1 5.1s-2.2 5.1-5.1 5.1-5.1-2.2-5.1-5.1 2.2-5.1 5.1-5.1z"/><path d="m370.7 15.5v-6.4h2.2c1.5 0 2.6.4 2.6 1.8 0 .8-.5 1.6-1.7 1.7.3.1.7.3 1.5 1.6l.7 1.3h-1.2l-.6-1.1c-.9-1.6-1.2-1.8-1.9-1.7h-.6v2.8zm.9-3.6h1.4c.9 0 1.5-.2 1.5-1 0-1-.7-1-1.6-1h-1.3z"/><path d="m88.2 82.6v2.5h-3.6v12.5h-3.2v-12.5h-3.6v-2.5z"/><path id="a" d="m99.2 82.7v14.9h3.1v-7c1.5 2.2 2.8 4.7 4.2 7h3.4c-1.3-2.3-2.7-4.5-4-6.8 1.3-.5 2.4-.9 3-2.3.6-1.3.6-2.3 0-3.6-1.1-2.3-3.6-2.3-5.9-2.3-1.3 0-2.5 0-3.8.1zm7 3.5c.2.5.2 1.2 0 1.7-.8 1.3-2.5 1.1-3.9 1.1l.1-4.1c2.5-.1 3.6.7 3.8 1.3z"/><path id="b" d="m124.7 82.6-5.7 15h3.2l1.4-3.3h5.7l1.4 3.3h3.4l-5.9-15zm4 9.4h-4.4l2-7z"/><path d="m147.7 82.6v15h-3.1v-15z"/><path d="m163.1 82.6 3.3 4.2 4.8 7.1v-11.3h2.9v15h-3.1l-8.4-11.5.3 3.9v7.6h-3v-15z"/><path d="m210.6 82.6v2.5h-3.6v12.5h-3.2v-12.5h-3.6v-2.5z"/><path d="m220.9 90c0 4.6 3.7 8 8.3 8 4.1 0 7.8-3.5 7.8-8 0-3.7-3-7.7-7.8-7.7-4.6 0-8.3 3.4-8.3 7.7zm8.3 5.3c-3.3 0-5-2.7-5.1-5.3-.1-2.3 1.6-5 5.1-5.1 2.5 0 4.6 2.6 4.6 5.1 0 2.4-1.3 5.3-4.6 5.3z"/><use transform="matrix(1 0 0 1 164.5 0)" xlink:href="#a"/><path d="m293.9 82.6v2.5h-5.5v3.4h5.5v2.5h-5.5v4h5.5v2.6h-8.7v-15z"/><use transform="matrix(1 0 0 1 185.2 0)" xlink:href="#b"/><path d="m337.3 82.3c1.6 0 3.1.3 4.6.9v3.1c-1.3-1.2-2.8-1.6-4.5-1.6-3.3.1-5.2 2.8-5.2 5.3 0 1.2.6 5.4 5.1 5.4 1.6 0 3.2-.5 4.6-1.5v3c-1.6.8-3.1 1.1-4.7 1.1-4.8 0-8.1-3.6-8.1-8 0-3 2-7.7 8.2-7.7z"/><path d="m362.8 82.6v2.5h-3.6v12.5h-3.2v-12.5h-3.6v-2.5z"/></g></svg>