<svg viewBox="0 0 907 100" xmlns="http://www.w3.org/2000/svg"><g id="figure" fill="#fff" transform="scale(.1)"><path d="m323.9 20.5h651.5v189.3h-608.7c-68 0-155.3 17.5-155.3 100.4 0 80.7 96.7 92.1 155.3 92.1h279.1c122 0 329.6 23.2 329.6 286.7 0 240.7-169.7 290.3-308.3 290.3h-647v-191.8h623.5c52.2 0 146-7.4 146-98.5 0-74.2-88.4-94.5-146-94.5h-312.5c-251.4 0-311-147.7-311-284.3 0-152.2 73-289.7 303.8-289.7z"/><path d="m2124.1 21.2-525.3 476.8 532.3 481.3h-282.1l-530.7-481.3 530.4-476.8z"/><path d="m3284 21.2h-952.6v188.6h952.6zm0 381.1h-952.6v192.2h952.6zm-952.6 385.2v192.5h952.6v-192.5z"/><path d="m3668.4 21.2v766.3h771.7v192h-954.8v-958.3z"/><path d="m4954.7 20h634.7v187.3h-613.4c-137.1 0-152.9 107.2-152.9 147v293.2c0 71 46.3 139.5 152.9 139.5h613.4v192.5h-634.7c-156.6 0-318.9-60.6-318.9-317.9v-342.5c0-204.4 119.5-299.1 318.9-299.1z"/><path d="m6107.9 21.2c-225.4 0-319.2 124.2-319.2 311.3v336c0 187.1 93.8 311.5 319.2 311.5h317.2c225.4 0 320.9-124.4 320.9-311.5v-336c0-187.1-95.5-311.3-320.9-311.3zm14.6 188.6h288c107.6 0 145.5 78.9 145.5 179.6v222.2c0 100.7-38.1 175.4-145.5 175.4h-288c-107.6 0-143.8-74.7-143.8-175.4v-222.2c0-110.1 20.8-179.6 143.8-179.6z"/><path d="m6939.2 21.2h640.8c233.8 0 320.7 117.8 320.7 270.2v26c0 217.5-152.7 274.8-379.8 274.6l445.3 387.5h-285.7l-454.1-388.7-287.2.7v-188.7h653.2c63.6 0 117.2-33.6 118.2-95.5 1-64.6-62.8-100-125.6-100h-645.8z"/><path d="m9049.9 21.2h-952.6v188.6h952.6zm0 381.1h-952.6v192.2h952.6zm-952.6 385.2v192.5h952.6v-192.5z"/></g></svg>