<svg viewBox="0 0 163 100" xmlns="http://www.w3.org/2000/svg"><g id="figure" transform="scale(.1)"><path d="m814.2 20 297.5 167.3v132.2l-297.5-167.5-167.3 94.2v25.7l154 86.6-114.8 67.4-169.9-95.4v-143z"/><path d="m1111.7 370.8v143.3l-297.5 167.5-298-167.7v-132l298 167.5 41.5-23.5-123.5-69.5 115-67.4 125.9 70.9 8.1-4.4v-43.4l-262.7-147.6 103.7-56.2z"/><path d="m71.8 816.4h111.1v32.7h-103.8c-11.6 0-26.5 2.6-26.5 16.7 0 13.8 16.5 15.7 26.5 15.7h47.6c20.8 0 56.2 4 56.2 48.9 0 41-29 49.5-52.6 49.5h-110.3v-32.8h105.5c8.9 0 24.8-1.2 24.8-16.7 0-12.6-15-16.1-24.8-16.1h-52.5c-42.8 0-53-25.2-53-48.5 0-25.9 12.4-49.4 51.8-49.4z"/><path d="m386.6 816.5-90.4 81.4 90.7 82h-48.9l-90.3-82 90.4-81.4z"/><path d="m590.3 816.5h-162.4v32.6h162.4zm0 65h-162.4v32.8h162.4zm-162.4 65.6v32.9h162.4v-32.9z"/><path d="m664.4 816.5v130.7h130v32.7h-162.6v-163.4z"/><path d="m890.1 816.3h108.2v32.8h-104.6c-23.4 0-25.4 17.4-25.4 24.2l.1 50c0 12.1 7.1 23.8 25.3 23.8h104.6v32.8h-108.2c-26.7 0-54.4-10.3-54.4-54.2v-58.4c0-34.9 20.4-51 54.4-51z"/><path d="m1093.6 816.5c-38.4 0-54.4 21.2-54.4 53.1v57.3c0 31.9 16 53.1 54.4 53.1h54.1c38.4 0 54.4-21.2 54.4-53.1v-57.3c0-31.9-16-53.1-54.4-53.1zm2.5 32.9h49.1c18.3 0 24.5 12.7 24.5 29.9v37.9c0 17.2-6.2 29.9-24.5 29.9h-49.1c-18.3 0-24.5-12.7-24.5-29.9v-37.9c0-17.2 6.2-29.9 24.5-29.9z"/><path d="m1243.5 816.5h109.3c41.9 0 53.4 25.5 53.4 46.1v4.4c0 37.1-25.7 49.9-64.4 47.4l76.4 65.5h-50l-76.6-65.6h-48.1v-32.8h109.5c10.8 0 20-5.6 20.2-16.2.2-11-10.7-16.2-21.4-16.2h-108.3z"/><path d="m1610 816.5h-162.4v32.6h162.4zm0 65h-162.4v32.8h162.4zm-162.4 65.6v32.9h162.4v-32.9z"/></g></svg>