<svg viewBox="0 0 240 100" xmlns:xlink="http://www.w3.org/1999/xlink" xmlns="http://www.w3.org/2000/svg"><defs><path id="a" d="m111.9 94.7c-58.1 0-105.2-19.8-105.2-44.3s47.1-44.4 105.2-44.4 105.1 19.9 105.1 44.4-47 44.3-105.1 44.3z"/><mask id="b"><use xlink:href="#a" fill="#fff"/><path d="m70 33.2c-2.4 0-4.6 1.2-6 4.5h-.1l2.3-13.8h-8.3l-4.2 24.6-.6-24.6h-10.9l-15.2 42.1h9.3l2.1-7.4h6.9l-.4 7.4h14l.7-4.4h.1c.4 3.5 1.8 5.2 4.8 5.2 5.6 0 8.5-5.6 10.5-17.4.5-3.1.8-5.6.8-7.7 0-6.3-2.2-8.5-5.8-8.5zm-24.4 17.2h-4.8l5.4-17.9zm17.1 8.5c-1.9 0-2-2-.9-8.8 1.2-6.9 2-8.9 3.9-8.9 2 0 2.1 2 .9 8.9-1.1 6.8-1.9 8.8-3.9 8.8z"/><path d="m87.8 23c-6.3 0-10 3.8-12.5 11.9 1.8 2.1 2.3 6.6 1 14.5-.9 5.5-2 9.5-3.5 12.4 1.1 3.4 3.4 5.1 7.5 5.1 7.8 0 11.9-7.4 12.9-15.1l.1-.9h-5.3l-.1.7c-.6 3.9-2.3 10.2-6.7 10.2-3.9 0-5.1-3.4-2.8-17s4.6-16.7 8.5-16.7 4.2 4.3 3.4 8.2l-.2.7h5.3l.2-.7c.4-1.3.6-3 .6-4.7 0-4.2-1.7-8.6-8.4-8.6z"/><path d="m106.9 33.4c5.5 0 7.1 3.9 7.1 10 0 2-.2 4.2-.6 6.7-1.7 9.9-5.1 16.7-12.1 16.7-5.2 0-7.2-3.9-7.2-10 0-2 .2-4.3.6-6.7 1.7-9.9 4.9-16.7 12.2-16.7zm1.5 16.7c1.2-7 1.3-12-2.4-12-3.6 0-5 5-6.2 12-1.4 8.1-1.4 12 2.2 12 3.7 0 5-3.9 6.4-12z"/><path d="m130.2 59.4c-.2 1.2.3 2.2 1 2.2.3 0 .6 0 .8-.1l-.7 4.1c-.7.4-1.6.8-2.6.8-2.2 0-3.9-1.1-3.5-4.2h-.1c-1.9 3.1-4.1 4.6-7 4.6-3.3 0-5.3-2.1-5.3-6 0-.9.1-1.8.3-2.9 1.2-7.1 4-8.9 7.5-10l4.1-1.3c1.9-.6 3.1-1.3 3.6-4.1.5-2.9.1-4.7-2.6-4.7-3.4 0-4.4 3-4.9 6.1h-4.7c1.1-6.7 3.9-10.5 10.5-10.5 3.8 0 6.9 1.7 6.9 5.7 0 .6-.1 1.3-.2 2.1zm-3-10.2c-1.5 1.3-4.5 2.1-6.1 3s-2.5 2.7-2.9 5.1c-.4 2.7.2 4.8 2.3 4.8 3 0 5-2.8 5.8-7.5z"/><path d="m147.6 43.5.1-.8c.3-2.6.1-4.9-2.5-4.9-2 0-3.7 1.1-4.2 4.1-.4 2.5.2 3.5 2.7 4.7l3 1.4c3.5 1.6 4.7 4.2 3.9 9.2-1.1 6.8-5.5 9.6-10.6 9.6s-6.9-2.4-6.9-6.5c0-1 .1-2.1.3-3.3l.2-1.2h4.5l-.2 1c-.7 3.6.1 5.7 3 5.7 2.7 0 4.3-1.8 4.8-4.7.4-2.4-.3-3.9-1.9-4.7l-3.8-1.8c-3.5-1.7-4.7-4-3.8-9.1 1-6 4.8-8.8 10-8.8 5.1 0 6.6 3.1 6.6 6.3 0 .8-.1 1.6-.2 2.4l-.3 1.4z"/><path d="m154.8 34.2h3.4l1.6-9h5l-1.5 9h4.1l-.8 4.8h-4.1l-3.2 18.9c-.4 2.5 0 3.4 1.7 3.4.7 0 1.4-.1 1.9-.2l-.8 4.7c-1.1.4-2.6.6-4.2.6-2.7 0-4.1-.8-4.1-4.2 0-.9.1-2.1.3-3.5l3.4-19.7h-3.5z"/><path d="m169.8 51-.3 1.8c-.7 4.3-1.2 9.7 2.6 9.7 3.6 0 4.9-5.2 5.2-7.1h4.7c-1.2 7-5.3 11.4-10.7 11.4-3.3 0-7.1-1-7.1-9.3 0-1.9.2-4.2.7-6.9 1.4-8.3 4.2-17.2 12.1-17.2 5.2 0 7.1 2.9 7.1 8 0 1.8-.2 3.9-.6 6.2l-.6 3.4zm8.8-4.4.3-1.7c.7-4 .1-7.1-2.7-7.1-3.2 0-4.6 4-5.5 8.1l-.1.7z"/><path d="m187.7 34.2h5l-.8 5h.1c1.7-3.5 4-5.8 6.8-5.8.6 0 .8.2 1.1.3l-1.1 6.5c-.4-.1-1.2-.4-2-.4-2.3 0-5.2 1.3-6.2 7.2l-3.2 19h-5.1z"/><path d="m207.6 42.1c0 1.6-1.2 2.8-2.8 2.8s-2.8-1.2-2.8-2.8 1.2-2.9 2.8-2.9 2.8 1.3 2.8 2.9zm-5.1 0c0 1.4 1 2.4 2.3 2.4s2.3-1.1 2.3-2.4-1-2.5-2.3-2.5-2.3 1.2-2.3 2.5zm1.2 1.6v-3.2h.9c.5 0 .8.1 1 .2s.3.4.3.7c0 .4-.3.6-.6.7v.1c.3.1.4.2.5.7s.1.7.2.8h-.5c-.1-.1-.1-.4-.1-.8-.1-.4-.3-.5-.7-.5h-.4v1.3zm.5-1.7h.4c.4 0 .8-.2.8-.6 0-.3-.2-.5-.8-.5h-.4z"/></mask></defs><g id="figure" fill="#fff"><path d="m119.9 2c-65 0-117.7 21.5-117.7 48s52.7 48 117.7 48 117.7-21.5 117.7-48-52.7-48-117.7-48zm-8 2.1c59.8 0 108.3 20.5 108.3 45.8s-48.5 45.8-108.3 45.8-108.3-20.5-108.3-45.8 48.5-45.8 108.3-45.8z"/><use xlink:href="#a" mask="url(#b)"/></g></svg>