<svg viewBox="0 0 134 100" xmlns="http://www.w3.org/2000/svg" xmlns:xlink="http://www.w3.org/1999/xlink"><g fill="#fdfdfd"><path d="m67 2c-22.4 0-40.6 18.2-40.6 40.6s18.2 40.6 40.6 40.6 40.6-18.2 40.6-40.6-18.2-40.6-40.6-40.6z"/></g><g fill="#575756"><path d="m67 13.5c-16.1 0-29.1 13-29.1 29.1s13 29.1 29.1 29.1 29.1-13 29.1-29.1-13-29.1-29.1-29.1z"/></g><g fill="#025ca8"><path d="m95.1 42.6c0 15.5-12.6 28.1-28.1 28.1s-28.1-12.6-28.1-28.1 12.6-28.1 28.1-28.1 28.1 12.6 28.1 28.1z"/></g><g fill="#fdfdfd"><path d="m49.4 33.6c-2.2 0-4.4.6-6.3 1.7.1.7.4 2.1.8 2.5 2.1-1.3 4.9-1.8 7.3-1.1 1.6.6 2.4 2.3 2.4 3.9 0 .8-1.4.7-2.2.8-2.9.2-6 .9-8.1 3-1.1 1.1-1.7 2.7-1.7 4.3 0 1 .3 2 .7 2.9 1.1 2 3.2 3 5.4 3 1.1 0 4-.3 6.1-2.9.2-.3.4 1.1.4 1.5.1 1.4 1.4 1.1 2.2 1 .6-.1 1.2-.1 1.1-.5 0-.4-.1-.8-.1-1.2-.3-4.2.1-8.6-.3-12.8-.3-2.1-1.4-4.2-3.4-5.2-1.3-.7-2.8-.9-4.3-.9zm4.2 10.3c.3 1.3.2 2.7.1 4.1-.1 1.9-1.9 3.3-3.7 3.7-1.5.4-3.5.1-4.3-1.4-.9-1.7-.4-4.2 1.4-5.2 1.9-1.1 4.3-1.2 6.5-1.2z"/><path d="m59.2 54c.7.1 2.5.1 3.1.1.2-.9.2-2.7.4-3.1 1.4 2.5 4.1 3.6 7.1 3.6 3.1 0 5.8-2 7.2-4.7 1-1.8 1.4-3.9 1.4-6 0-1.2-.1-2.3-.4-3.4-.7-2.9-2.7-5.6-5.6-6.5-3-.9-6.6-.3-8.6 2.2-.4.5-.8 1.6-.8.4 0-3.9 0-7.8 0-11.7-1 0-2.7.1-3.7.2zm9.8-17.5c2.4 0 4.5 1.9 5.2 4.2.9 2.9.7 6.4-1.1 8.9-2 2.7-6.5 2.8-8.6.2-1.3-1.4-1.5-3.4-1.5-5.2 0-1.9-.2-4 1.1-5.6 1.1-1.5 3-2.6 4.9-2.5z"/><path d="m79 53.3c-.2-.1-.2-.2-.2-.3s.1-.3.1-.4c.3-.7.4-1.2.6-1.9.1-.2.1-.3.3-.2 1.3.7 2.6 1.2 4 1.3 1.1.1 2.2 0 3.1-.5 1.6-.9 2.2-3.4.8-4.6-1.7-1.5-4.2-1.5-6.5-3.3-1.2-1-2-2.3-2-3.9 0-1.8.8-3.4 2.3-4.5.9-.7 2.3-1.4 4.8-1.4 2.3 0 3.8.8 4.3 1 .4.2.5.2.3.7-.2.7-.4 1.3-.6 2-.1.2-.2.2-.4.1-1.4-.8-2.8-1.1-4.4-1-.8.1-1.5.3-2.1 1-1 1.1-.8 2.8.4 3.7 1.6 1.2 3.5 1.5 5.5 2.8 1.7 1.2 2.5 2.7 2.5 4.6 0 1.6-.5 4.1-3.6 5.4-1.2.5-2.5.7-3.9.7-1.9 0-3.6-.5-5.3-1.3z"/></g><g fill="#575756"><path d="m67 2c-22.4 0-40.6 18.2-40.6 40.6s18.2 40.6 40.6 40.6 40.6-18.3 40.6-40.7-18.2-40.5-40.6-40.5zm0 1.1c21.8 0 39.5 17.6 39.5 39.4s-17.7 39.6-39.5 39.6-39.5-17.7-39.5-39.5 17.7-39.5 39.5-39.5z"/><path id="a" d="m32.3 39.8c1.4 0 2.5 1.2 2.5 2.5 0 1.4-1.1 2.4-2.5 2.4s-2.4-1-2.4-2.4 1-2.5 2.4-2.5z"/><use transform="translate(69)" xlink:href="#a"/><path d="m59.1 5.2-5.1 1.5c-.2.1-.2.1-.2.3l.2.9c0 .2.1.3.3.2l1.5-.4c.2-.1.2 0 .3.2.5 1.8 1.1 3.4 1.6 5.2.1.3.2.4.4.3.3-.1.7-.2 1-.3.2-.1.4-.2.3-.4-.5-1.8-1.1-3.5-1.6-5.3-.1-.2 0-.3.2-.4l1.5-.5c.1 0 .1-.1.1-.2l-.3-1c0-.1-.1-.1-.2-.1z"/><path d="m70.3 11.8c0 .2-.1.3-.3.3l-1.2-.1c-.1 0-.2-.1-.2-.2v-2.6c0-.2-.1-.3-.3-.3l-2.3-.1c-.1 0-.2.2-.2.3l-.1 2.6c0 .2-.1.3-.3.3h-1.2c-.1 0-.2-.1-.2-.2l.1-7.1c0-.2.1-.3.3-.3h1.2c.2 0 .3.1.3.3l-.1 2.4c0 .1.1.2.2.2l2.3.1c.3 0 .3 0 .3-.3l.1-2.4c0-.1.1-.2.2-.2h1.3c.1 0 .2.1.2.2"/><path d="m79.8 7.9c0 .1-.2.2-.4.1l-2.3-.7c-.2 0-.2 0-.3.2l-.3.9c-.1.2 0 .3.2.4l2.1.6c.2.1.3.2.2.4l-.2.8c-.1.2-.2.3-.4.2l-2.1-.7c-.2-.1-.2 0-.3.2l-.4 1.2c-.1.2 0 .3.2.4l2.4.7c.2 0 .2.2.2.3l-.3.9c0 .1-.1.2-.3.2l-4.1-1.3c-.2-.1-.3-.2-.2-.4l1.9-6.2c.2-.6.3-.7.9-.5l3.6 1c.2 0 .2.2.2.3z"/><path d="m41.3 61.2c1 0 2 .4 2.9 1.4.5.5.8 1 1 1.6.1.2.1.3-.1.4-.3.1-.5.3-.8.4-.2.1-.3 0-.4-.2-.3-.7-.7-1.2-1.3-1.6-1.6-1-3.4.2-3.7 1.9-.3 1.4 1.1 2.4 1.5 2.7.1.1.2.2.1.3-.2.2-.4.4-.5.6-.2.3-.4.3-.6.1-1.4-.9-2.2-2.2-2.2-3.8 0-1.5 1.7-3.8 4.1-3.8z"/><path d="m47.4 68.6c-1.1.5-1.7 1.5-1.9 2.7-.2 1.3 1 2.3 2.2 1.8 1.1-.4 2-1.9 2-3 0-1.2-1.2-2-2.3-1.5zm-3.6 2.8c-.1-1.9 1.5-4 3.4-4.4 2.1-.4 5.1 1.6 4 4.6-.5 1.5-1.4 3.1-3.5 3.1s-3.8-1.5-3.9-3.3z"/><path d="m59.9 73c.4-.6.4-.7 1.1-.5l1.2.4c.2.1.2.1.2.3l-1.5 6.8c-.1.3-.1.4-.4.3l-1-.3c-.2-.1-.2-.2-.2-.4.4-1.8.9-3.5 1.2-5.3-1 1.5-2 3.2-3 4.8-.1.1-.2.2-.4.1l-1-.4c-.2-.1-.1-.6-.1-1l.1-4.7-1.7 5.2c-.1.2-.2.3-.4.2l-1-.3c-.2 0-.3-.1-.2-.3l2.2-6.6c.1-.3.3-.3.5-.3l1.8.5c.2.1.2.2.2.3l-.1 5.1z"/><path d="m69.4 75.1c-.1-.5-.5-.7-.9-.8-.3-.1-.6 0-.9 0-.2 0-.3.1-.3.3l.1 1.8c0 .2 0 .2.2.2.5 0 .9-.1 1.3-.3s.6-.7.5-1.2zm-1.9 5.3c0 .2 0 .2-.2.2l-1.2.1c-.2 0-.3 0-.3-.2l-.2-7c0-.2 0-.3.2-.3 1.1-.1 2.1-.4 3.2-.2s2 1 2.1 2c.2 1.3-.4 2.1-1.5 2.6-.6.2-1.3.3-1.9.3-.3 0-.3.2-.3.4"/><path d="m76.1 75.9c0 .2.1.2.2.2l1.1-.3c.3-.1.3-.2.2-.3l-1.6-2.4zm-1.3 4.1c-.2 0-.2-.1-.2-.2v-7.4c0-.2.1-.3.3-.4l1.7-.5c.2 0 .2-.1.3.1l4.2 6.2c.1.2.1.2-.1.3l-1.3.4c-.2.1-.3 0-.4-.2l-.9-1.2c-.1-.1-.1-.2-.3-.2l-1.6.5c-.2.1-.2.1-.2.3v1.6c0 .1 0 .3-.2.3"/><path d="m86.6 74.9c.2.2.1.2-.1.4l-.8.6c-.2.1-.3.1-.4-.1l-3.9-5.9c-.1-.2-.2-.2 0-.3l1.3-.9c.1-.1.2-.1.4 0l5 2.7-2.8-4c-.1-.2-.1-.4.1-.5l.8-.5c.2-.1.4-.1.5.1l3.9 5.8c.1.2 0 .3-.1.4l-1.2.8c-.1.1-.2.1-.3 0l-5.3-2.8z"/><path d="m88.2 64.8 1.2-1.3c.1-.1.2-.1.3-.1l3.1 1-1.4-2.9c-.1-.2-.1-.2 0-.4l1.1-1.3 1.7 4.5c.1.2.2.4.3.5l1.9 1.6c.2.2.3.3.1.5l-.8.9c-.1.1-.2.1-.3 0l-2-1.6c-.1-.2-.4-.3-.6-.3"/></g><g fill="#fff"><path d="m3.3 94.2h.1l1.6-4.3c.1-.2.2-.3.5-.3h.8c.3 0 .4 0 .4.3v4.3h.1l1.6-4.4c0-.1.2-.2.3-.2h1.2l-2.7 6.1c0 .1-.2.2-.3.2h-1c-.2 0-.3-.1-.3-.3l-.1-4.1h-.1l-1.6 4.2c0 .1-.2.2-.3.2h-1.1c-.2 0-.2-.1-.2-.3l-.2-5.6c0-.3.1-.4.4-.4h.9z"/><path id="b" d="m10.6 92.8c-.3.5.4.4 1 .3.3-.1.5-.3.5-.6s-.3-.4-.5-.4c-.4 0-.8.3-1 .7zm2.1 2c0 .5.1.9-.2 1s-1.1.1-1.3.1c-1.4 0-2.1-.8-2.1-2 0-1.5 1.3-2.7 2.7-2.7.5 0 1.5.3 1.5 1.3 0 .6-.1 1.1-.9 1.3-.5.1-1.1.2-1.6.2s-.5.2-.3.6c.1.2.3.3.7.3"/><path id="c" d="m19.9 95.7c-.5.1-1.1.2-1.6.2s-1.1-.1-1.6-.3c-1.1-.6-1.4-1.7-1.4-2.3 0-1.4.7-3.9 4-3.9.9 0 1.4.3 1.4.3-.1.3-.1.6-.2.9 0 .1-.3.1-.4.1-1.6-.3-2.7.1-3.2 1.6-.2.7-.2 1.3.2 1.9.6.8 1.1.7 2.6.6.1 0 .2.1.2.2"/><path id="d" d="m20.8 95.9c-.2 0-.3-.1-.3-.3l1.2-5.9c.1-.3.1-.5.4-.5h.6c.2 0 .3.1.3.3l-.5 2.3c.3-.2.7-.4 1.2-.6.8-.2 1.5.3 1.5 1.2 0 .4 0 .7-.1 1.1l-.5 2.2c0 .1 0 .2-.2.2h-.8c-.2 0-.2-.1-.2-.3l.4-2.1c.2-1-.2-1.5-.8-1.2-.5.3-.7.6-.8 1.1l-.4 2.3c0 .1-.1.2-.2.2z"/><path d="m27.1 94.3c0 .5.5.8.9.5.5-.3.7-.4 1.1-2.3.1-.3-.5-.5-.8-.3-.9.5-1.2 1.1-1.2 2.1zm1.5.7c-.3.6-.9.9-1.5.9s-1.4-.3-1.4-1.6c0-.6.3-1.2.6-1.7.9-1.4 2.1-1.4 2.7-1.4.5 0 .9 0 1.3.1.1 0 .2.2.2.3s-.1.2-.1.5c-.3 1.1-.4 2.3-.5 3.5 0 .2-.2.3-.4.3s-.5 0-.7-.1c-.1-.1-.1-.5-.1-.7"/><path d="m31.1 95.9c-.2 0-.3-.1-.3-.3l.7-3.9c.1-.3.1-.5.4-.5h.6c.2 0 .3.1.3.3v.3c.6-.4 1.2-.6 1.5-.6.6 0 1.2.4 1.2 1.2 0 .4 0 .7-.1 1.1l-.5 2.2c0 .1 0 .2-.2.2h-.8c-.2 0-.2-.1-.2-.3l.4-2.1c.2-1-.2-1.5-.8-1.2-.5.3-.7.6-.8 1.1l-.4 2.3c0 .1-.1.2-.2.2z"/><path d="m37.5 94.2c0 .5.5.9.9.6.5-.3.6-.4 1-2.3.1-.3-.5-.5-.8-.3-.9.5-1.1 1-1.1 2zm1.4 1c-.1.2-.8.7-1.4.6s-1.4-.4-1.4-1.5c0-.6.2-1.2.5-1.7.9-1.4 2.1-1.4 2.7-1.4.5 0 .9.1 1.3.2.1 0 .3.1.3.2s-.1.2-.1.5c-.2 1-.6 3-.7 3.5-.3 2.1-2.2 2.3-2.7 2.3s-1.4-.3-1.4-.4c0-.2.2-.6.2-.6.1-.1.2-.2.3-.2 1.1.4 2 .2 2.4-.8.1-.2.1-.4.1-.6"/><use transform="translate(32.2)" xlink:href="#b"/><path d="m47.8 95.9c-.3 0-.4-.2-.4-.3l1.1-5.7c0-.2.1-.3.3-.3h.8c.2 0 .2.1.2.3l-.8 4.5c-.1.3 0 .4.3.4h2l-.1.8c0 .2-.1.3-.3.3"/><path d="m52.8 90.1c0 .4.4.6.7.6.4 0 .7-.3.7-.7s-.3-.7-.7-.7-.7.4-.7.8zm1 1.2h-1c-.1 0-.2.1-.2.2l-.7 3.6c0 .2-.1.5-.1.6s0 .2.2.2h.8c.2 0 .3-.1.3-.3l.8-4.1c0-.1-.1-.2-.1-.2z"/><path d="m55.5 91.3c.1 0 .2.1.2.2l.4 2.9h.1l1.4-2.9c0-.1.1-.2.2-.2h1c.1 0 .2.1.2.2l-2.3 4.1c0 .1-.2.3-.4.3h-1c-.1 0-.2-.2-.2-.3l-.7-4.1c0-.1.1-.2.2-.2"/><use transform="translate(49.8)" xlink:href="#b"/><path d="m65.5 93.1c.4.2.8.4 1 .8.3.7-.1 1.5-.8 1.8-.4.1-.7.2-1.1.2s-.8-.1-1.2-.2c-.1 0-.2-.1-.2-.2s.1-.3.2-.5c.1-.1.2-.2.5-.1.4.1.7.1 1 .1.4-.1.5-.4.2-.7-.2-.2-.4-.4-.6-.5-.4-.3-.8-.5-.8-1.1 0-.5.3-.9.8-1.2.4-.2.8-.3 1.2-.3.3 0 .7 0 1 .1.2.1.1.2.1.2l-.2.5s-.1.1-.3.1c-.4-.1-1.1-.1-1.2.3s.2.6.4.7z"/><path d="m69.4 92.7c.1-.4.1-.5-.1-.5h-.3c-.1 0-.1-.1-.1-.1l.1-.6c0-.1.1-.1.2-.1h.3c.2 0 .2-.1.2-.3 0-.3.1-.7.3-1 .3-.6 1.2-1 1.9-1 .1 0 .6 0 .6.2s0 .5-.1.7c0 .1-.2.1-.3.1-.9 0-1 .2-1.1 1 0 .1 0 .2.1.2h.7c.1 0 .1.1.1.2l-.1.6c0 .1-.1.1-.2.1h-.5c-.2 0-.4.2-.4.4l-.6 2.9c-.1.3-.2.4-.3.4h-.7c-.3 0-.3-.3-.3-.3z"/><path id="e" d="m72 95.9c-.3 0-.3-.3-.3-.3 0-.3.5-1.9.7-4 0-.2.1-.3.3-.3h.6c.1 0 .2.1.2.2l-.1.7c.4-.6 1-1 1.8-1l-.2 1c0 .1-.1.2-.3.2-.7.1-1.3.6-1.4 1.3-.1.6-.2 1.3-.3 1.9 0 .2-.2.3-.4.3"/><path id="f" d="m77 92.4c-.5.6-.7 1.4-.5 2.1.2.5.7.6 1.1.4.6-.3.8-1.1.9-1.7.1-.9-.9-1.5-1.5-.8zm2.8.7c0 .3-.2 1.3-.6 1.8-.6.8-1.2 1-2.2 1-1.3 0-1.9-1-1.9-1.9 0-.5.3-1.6 1-2.2.5-.4 1.1-.6 1.7-.6 1.8 0 2 1.7 2 1.9z"/><path d="m85.9 95.9c-.3 0-.2-.2-.2-.3l.3-2.1c.2-1.2-.2-1.5-.8-1.1-.5.3-.6 1-.7 1.5l-.3 1.8c0 .1-.1.2-.3.2h-.8c-.3 0-.2-.3-.2-.4l.4-2c.2-.9-.2-1.6-.8-1.2-.5.3-.7 1-.8 1.6l-.3 1.8c0 .1-.1.2-.3.2h-.7c-.3 0-.2-.5-.2-.5l.6-3.7c0-.3.1-.4.3-.4h.8c.1 0 .1.1.1.2l-.1.4c.4-.5 1.2-.8 1.7-.8.4 0 .8.3 1.2.8.4-.5 1-.8 1.6-.8s1 .4 1 1.3c0 .4 0 .8-.1 1.2l-.4 2c0 .1-.1.3-.3.3z"/><path d="m91.8 94.9c.1 0 .1.2.1.2l-.1.6c0 .2-.6.2-.9.2-1 0-1.2-.5-1-1.5l.4-2c0-.1 0-.2-.1-.2h-.2c-.2 0-.2-.1-.2-.2v-.5c0-.1 0-.2.2-.2h.3c.2 0 .2-.1.2-.2v-.4c0-.2.1-.3.5-.4l.8-.2s.1 0 .1.1l-.1.8c0 .3 0 .3.2.3h.6c.1 0 .1.2.1.2l-.1.6c0 .1-.1.1-.2.1h-.6c-.1 0-.3.1-.3.2l-.4 2.3c0 .1 0 .2.2.2"/><use transform="translate(72.1)" xlink:href="#d"/><path d="m99.4 92.8c-.2.3.1.4.3.4.3 0 .5-.1.8-.1.3-.1.5-.3.5-.6s-.3-.4-.5-.4c-.4 0-.8.3-1 .7zm2.1 2c0 .5.1.9-.2 1s-1.1.1-1.3.1c-1.4 0-2.1-.8-2.1-2 0-1.5 1.3-2.7 2.7-2.7.5 0 1.5.3 1.5 1.3 0 .6-.1 1.1-.9 1.3-.5.1-1.1.2-1.6.2s-.5.2-.3.6c.1.2.3.3.7.3"/><use transform="translate(88.8)" xlink:href="#c"/><use transform="translate(34.3)" xlink:href="#f"/><use transform="translate(42.7)" xlink:href="#e"/><use transform="translate(108.8)" xlink:href="#b"/><path d="m128 87.6c-1.7 0-3.1 1.5-3.1 3.1 0 1.7 1.4 3 3.1 3s3-1.4 3-3-1.3-3.1-3-3.1zm0 .5c1.4 0 2.3 1.2 2.3 2.6s-.9 2.4-2.3 2.4c-1.3 0-2.4-1-2.4-2.4s1-2.6 2.4-2.6zm1.6 3.7c-.6 0-1-.6-1.1-1 .4-.1.7-.3.7-1s-.6-.8-1.1-.8h-1.5v.4c.4 0 .4 0 .4.4v1.7c0 .2 0 .3-.4.3v.4h1.4v-.4c-.4 0-.4-.1-.4-.3v-.6h.1c.1 0 .2 0 .3.1.1.2.2.4.4.7.3.4.7.5 1.2.5zm-2-1.3v-.8c0-.2.1-.3.3-.3s.6 0 .6.5c0 .2-.1.4-.3.5-.1.1-.2.1-.3.1z"/></g></svg>