<svg viewBox="0 0 585 100" xmlns="http://www.w3.org/2000/svg"><g id="figure"><path d="m411 84.7c-3.7 0-8.4 2.5-8.5 6.6.1 4.2 4.8 6.6 8.5 6.6s8.1-2.4 8.2-6.6c-.1-4.2-4.5-6.6-8.2-6.6zm0 1.6c2.8 0 6 1.7 6.1 5-.1 3.3-3.4 5.1-6.1 5-2.8 0-6.6-1.8-6.7-5 .1-3.2 4-5 6.7-5z"/><path d="m468.7 84.7c-3.7 0-8.4 2.5-8.5 6.6.1 4.2 4.8 6.6 8.5 6.6s8.1-2.4 8.2-6.6c-.1-4.2-4.5-6.6-8.2-6.6zm0 1.6c2.8 0 6 1.7 6.1 5-.1 3.3-3.4 5.1-6.1 5-2.8 0-6.6-1.8-6.7-5 .1-3.2 4-5 6.7-5z"/><path d="m85.3 5.1-2.9 18c-6.9-2.3-13.6-4-20.9-4.2-8.4-.3-17 1.7-23.7 6.9-6.4 5.1-10.5 12.6-11.8 20.7-1.3 8.9 2 15.7 10.8 17.6 5.3 1.1 11 .4 16.3-.8.9-4 2-8 2.9-12l-9.9-.4 3.7-15.7h32.6l-10.7 42.8c-7.4 1.4-14.8 2.1-22.3 2.7-13.7.9-34.7-.4-42.6-10.7-3.4-4.4-4.8-10.4-5-15.9-.3-10.5 3.4-21.2 9.5-29.7 8-11 20.2-18.7 33.5-21.1 13.3-2.4 27.5-1.2 40.5 1.8z"/><path d="m102.9 3.5h23.8l-10.9 42.6c-1.5 7.7-3.3 15.4 6.4 17.3 10.9.9 16.7-3.6 19.7-13.5l11.9-46.4c8.1.1 16.2 0 24.3 0-5.3 19.2-8.8 38.1-14.6 55.4-6.1 16.7-22.9 21.4-38.4 22.1-15 .6-39.2-4-35.9-21.7z"/><path d="m190.7 3.5h28.2l16.9 49.5 11.6-49.5h21.6l-19.1 76.2h-27.6l-17.2-48.4-11.4 48.5h-21.7z"/><path d="m352 5c-1.1 6-2.1 12.1-2.9 18.1-6.9-2.3-13.6-4.3-20.9-4.3-7.6-.4-15.6 1.4-21.9 5.7-5.9 3.8-10.1 10.1-12.3 16.6-1.5 5.2-2.4 10.5-.4 15.7 1.6 4 5.9 6.3 9.9 7.1 5.3.9 11 .4 16.3-.9.9-4 2-8 2.9-12-3.3-.2-6.6-.3-9.9-.3 1.4-5.2 2.7-10.4 3.8-15.7 10.9.1 21.7.1 32.6 0-3.9 14.2-7.5 28.5-10.7 42.8-9.6 2-19.3 2.5-29.1 3.1-5.1.2-10.1-.4-15.2-1-5.8-.9-12-2.7-16.7-6.3-5.4-4.1-7.7-10.2-8.6-16.8-1.2-11.3 2.4-23.1 9-32.2 8-11.5 20.6-19.4 34.3-21.8 13.1-2.3 27-.9 39.9 1.8z"/><path d="m370.3 3.6c9.4-.1 18.8 0 28.2-.1 5.4 16.6 11.7 32.9 16.8 49.5 4.2-16.5 8-33 11.6-49.6 7.2.2 14.4 0 21.5.1-3 10.7-5.9 21.5-8.5 32.3-3.6 14.6-7.5 29.1-10.6 43.8-9.2-.1-18.4-.1-27.6 0-1.5-5.1-3.5-10.1-5.4-15.1-4.3-11-8.5-22.2-12-33.5-.8 4.2-1.9 8.3-2.8 12.4-3 12-5.6 24.1-8.3 36.2-7.3-.1-14.5-.1-21.8 0 3.3-11 6-22.2 8.8-33.4 3.6-14 7.2-28.4 10.1-42.6z"/><path d="m461.8 3.6 24.6-.1-18 76.2h-24.8z"/><path d="m500.1 3.5c9.6.1 19.3 0 28.9-.3 9.9-.3 26.2-.7 31.7 7 5.8 8.2 1.7 19.7-3.9 26.2-4.2 4.9-9.6 7.3-15.6 9.6l7.9 33.7h-25.3l-6-42.8c7.6 1 16.4.5 20.2-6.2 2.6-4.5 2.1-9.3-3.1-10.6-5.5-1.4-10.6-.5-16.2-.4l-13.6 60h-23.5z"/><path d="m576.9 16.1c-.4-.6-.5-1.5-.5-2.2-.3-1.4-.9-1.6-1.8-1.6h-.6v3.8h-1.8v-8.8h3c2.1 0 3.5.6 3.6 2.4 0 1.3-1 1.8-1.8 2 .3.2.5.3.7.4.5.5.6 1.3.7 2 0 .2.1 1.3.5 2m-3.6-5.4c.8 0 1.5-.1 1.6-1 0-.9-.8-1.1-1.6-1.1h-1.4v2.1"/><path d="m575.4 4c-4.3 0-7.7 3.5-7.7 7.7 0 4.3 3.4 7.7 7.7 7.7s7.7-3.5 7.7-7.7c0-4.3-3.4-7.7-7.7-7.7zm0 1.3c3.5 0 6.4 2.9 6.4 6.4s-2.8 6.4-6.4 6.4c-3.5 0-6.4-2.9-6.4-6.4s2.8-6.4 6.4-6.4z"/><path d="m422.9 85h11.1v1.2h-9.2v4.9h8.2v1.3h-8.2v5.2h-1.8z"/><path d="m444.2 85 10.6 10.4v-10.4h1.8v12.7h-1.5l-10.2-9.9v9.9h-1.7v-12.7z"/><path d="m480.5 85v12.7h1.9v-3.9h5.6l3.4 3.9h2.1l-3.6-3.9c1.4-.8 3.4-1.7 3.4-4.3-.1-4.2-3.9-4.4-7.4-4.5zm1.9 1.5h3.5c2.3.1 5.7.2 5.7 3 0 2.7-2.6 3-5.7 3h-3.5z"/><path d="m495.5 85h1.8l4.5 10.7 4.5-10.7h1.5l4.5 10.7 5-10.7h1.8l-5.6 12.7h-2l-4.5-10.3-4.5 10.3h-2z"/><path d="m526.4 85-7.4 12.7h2.1l1.7-3h8.8l1.7 3h2.3l-7.5-12.7zm4.5 8.2h-7.4l3.7-6.2z"/><path d="m548.8 85-6.3 8.3v4.5h-1.8v-4.5l-6.3-8.3h1.9l5.3 7 5.5-7z"/></g></svg>