<svg viewBox="0 0 100 100" xmlns="http://www.w3.org/2000/svg"><g id="figure"><path d="m20 20v960h960v-960zm40 40h363.2l-250.7 358.1 250.7 358h-363.2zm411.4 0h481.1l-77 109.9h-481.2zm-84.9 121.2h481.2l-77.1 109.9h-481.2zm-84.9 121.2h481.1l-77 110h-481.2zm-77.1 121.2h481.2l77 110h-481.1zm84.9 121.3h481.2l77.1 109.9h-481.2zm84.9 121.2h481.2l77 110h-481.1zm-334.3 135.9h51.5v51l31.3-51h62.6l-49.3 67.6 49.3 70.4h-62.6l-31.3-51.8v51.8h-51.5zm150.5 0h112.6v39.5h-60.2v16.7h60.2v32.2h-60.2v14.7h60.2v34.9h-112.6zm118.4 0h240.4v39.5h-36.9v98.5h-52.4v-98.5h-61.8v98.5h-52.5v-98.5h-36.8zm245.9 0h52.4v103.1h49.6v34.9h-102zm108.2 0h113.1v39.5h-60.6v16.7h60.6v32.2h-60.6v14.7h60.6v34.9h-113.1zm124 0h102.3c50.2 0 50.2 79.4 0 79.4 14.4 19.5 28.8 39.1 43.2 58.6h-60.9c-10.7-15.7-21.4-31.5-32.1-47.2v47.2h-52.5zm52.5 35.6v27.9h22.1c15.5 0 15.9-27.9 0-27.9z" transform="scale(.1)"/></g></svg>