<svg viewBox="0 0 100 100" xmlns="http://www.w3.org/2000/svg"><g id="figure" fill="#fff"><g transform="scale(.1)"><path d="m944 944h-888v-888h888zm-924-924v960h960v-960z"/><path d="m429 93h-336v662.4h336l-231.9-331.2z"/><path d="m140.6 907v-47.9l29 47.9h57.9l-45.6-65.1 45.6-62.6h-57.9l-29 47.2v-47.2h-47.6v127.7z"/><path d="m336.4 874.7v32.3h-104.2v-127.7h104.2v36.6h-55.7v15.4h55.7v29.8h-55.7v13.6z"/><path d="m564.1 815.9v-36.6h-222.4v36.6h34.1v91.1h48.5v-91.1h57.2v91.1h48.5v-91.1z"/><path d="m617.7 779.3v95.4h45.8v32.3h-94.3v-127.7z"/><path d="m773.9 815.9h-56.1v15.4h56.1v29.8h-56.1v13.6h56.1v32.3h-104.6v-127.7h104.6z"/><path d="m853 838.1h-20.5v-25.8h20.5c14.7 0 14.3 25.8 0 25.8zm25.6-58.8h-94.6v127.7h48.5v-43.6c9.9 14.6 19.8 29 29.7 43.6h56.4c-13.3-18.1-26.7-36.1-40-54.2 46.5 0 46.5-73.5 0-73.5z"/><path d="m473.5 93-71.3 101.7h445.1l71.3-101.7z"/><path d="m395 205.1-71.3 101.7h445.1l71.3-101.7z"/><path d="m316.5 317.2-71.3 101.8h445.1l71.2-101.8z"/><path d="m245.2 429.3 71.3 101.8h445l-71.2-101.8z"/><path d="m323.7 541.5 71.3 101.7h445.1l-71.3-101.7z"/><path d="m918.6 755.4h-445.1l-71.3-101.8h445.1z"/></g></g></svg>