<svg viewBox="0 0 625 100" xmlns="http://www.w3.org/2000/svg"><g id="figure" fill="#fff"><g transform="scale(.1)"><path d="m378.4 980v-360.6l217.6 360.6h435.2l-342.2-489.4 342.2-470.6h-435.2l-217.6 354.6v-354.6h-358.4v960z"/><path d="m1432.1 736.8h418.6v243.2h-783.5v-960h783.5v275.2h-418.6v115.2h418.6v224h-418.6z"/><path d="m3563 295.2v-275.2h-1671.1v275.2h256v684.8h364.7v-684.8h429.7v684.8h364.7v-684.8z"/><path d="m3967.4 20v716.8h344.2v243.2h-709v-960z"/><path d="m4720.5 736.8h421.6v243.2h-786.5v-960h786.5v275.2h-421.6v115.2h421.6v224h-421.6z"/><path d="m5736.8 462.1h-153.6v-194.8h153.6c110.6 0 107.8 194.8 0 194.8zm192.6-442.1h-710.9v960h364.8v-328.3c74.3 109.5 148.5 218.9 222.8 328.3h423.9c-100.2-135.9-200.3-271.7-300.6-407.5 349.3 0 349.3-552.5 0-552.5z"/></g></g></svg>