<svg viewBox="0 0 472 100" xmlns="http://www.w3.org/2000/svg"><g id="figure" fill="#fff"><path d="m53.9 4.6c4.5 4.4 8.8 8.9 13.3 13.3-13.1 0-26.2 0-39.4 0l12-12c1-1 1.9-1.9 3.1-2.6 3.5-2 8.1-1.5 11 1.3z"/><path d="m137.3 30.5h60.5c2.2 0 4.2-.2 6.2.9 2.8 1.5 4.3 4 5.6 6.8-28.8 0-57.5 0-86.3 0 3.1-4.7 8.3-7.6 14-7.6z"/><path d="m215.4 30.6h15c1-.1 1.6.6 2.4 1.1 5.2 3.8 10.5 7.4 15.7 11.1 1 .7 2 1.5 3.1 2.1.7-.1 1.3-.3 1.9-.6 9.6-4.4 19.2-8.8 28.7-13.2 1.1-.6 2.2-.5 3.5-.5h15.7c-14.2 6.5-28.4 13-42.5 19.5 8.9 6.3 17.8 12.6 26.7 18.8-4.6 0-9.2 0-13.9 0-1.1 0-2 .2-2.9-.6-6.2-4.4-12.6-8.9-18.8-13.3-.9-.8-1.6-.2-2.5.2-9.1 4.2-18.3 8.3-27.4 12.6-1.2.6-2.3 1.2-3.7 1.1-5.6 0-11.3 0-16.9-.1 14.2-6.4 28.4-13 42.6-19.5-8.9-6.3-17.8-12.6-26.7-18.9z"/><path d="m319.4 30.5h55.9c2.4 0 4.6-.3 6.8.8 2.8 1.5 4.4 4 5.6 6.8-28.8 0-57.5 0-86.3 0 2.4-3.6 6.1-6.2 10.3-7.2 2.6-.6 5.1-.4 7.8-.5z"/><path d="m409.3 30.5c-1.2 2.6-2.3 5.1-3.5 7.7-4.3 0-8.5 0-12.8 0 1.7-2.4 3.8-4.5 6.5-5.8 3.1-1.6 6.4-2 9.8-1.9z"/><path d="m15.1 30.7c21.6-.1 43.3 0 64.9 0 3.9 3.9 7.8 7.8 11.7 11.7 1.4 1.4 2.6 2.7 3.2 4.6 1.2 3.4.3 7.2-2.2 9.7-4.2 4.3-8.5 8.5-12.7 12.8-21.7-.1-43.3-.1-64.9-.1-4.3-4.3-8.6-8.6-12.9-13h15.6c2 0 3.9.2 5.9-.4 8.5-2 17-4 25.5-6.1-6.2-1.7-12.3-3.4-18.5-5.2-1.7-.4-3.3-1.1-5.2-1-7.8 0-15.6 0-23.4-.1 4.3-4.3 8.6-8.7 13-12.9z"/><path d="m120.5 46c1.4-.2 2.9-.1 4.3-.1h65.7c1.1 0 2.1.2 3.1.5 3.7 1.1 7.4 2.1 11.1 3.2-5.4 1.2-10.8 2.7-16.3 3.8-23.7.1-47.6 0-71.3.1 1.1-2.5 2.1-5.1 3.3-7.5z"/><path d="m298.6 46c1.6-.2 3.2 0 4.7-.1h65.2c1.1 0 2.1.2 3.1.5 3.8 1.1 7.5 2.1 11.3 3.2-4.1 1-8.2 1.9-12.3 2.9-1.7.4-3.3.9-5.2.9-23.4 0-46.8 0-70.1 0 1.1-2.5 2.1-5.1 3.3-7.5z"/><path d="m390.3 46c4.1-.2 8.3 0 12.4-.1-1.1 2.5-2.2 5-3.3 7.5-4.3 0-8.6.1-12.9 0 1.3-2.5 2.3-5.1 3.7-7.5z"/><path d="m114.8 61.2c28.8 0 57.5 0 86.3.1-2.9 3.3-6.4 5.9-10.7 7.1-2.4.6-4.6.5-7 .5-20 0-40 0-60 0-2.6 0-6.2-.4-8-2.5-1.3-1.6-.9-3.3-.5-5.1z"/><path d="m292.9 61.2c28.7-.1 57.5 0 86.3 0-2.9 3.3-6.3 5.9-10.6 7-2.6.7-5.1.5-7.8.6-19.5 0-39 0-58.5 0-2.4 0-5-.1-7.2-1.2-1.2-.6-2.1-1.4-2.5-2.7s-.1-2.4.3-3.7z"/><path d="m383.7 61.2c28.7.1 57.5 0 86.2.1-3.6 4.2-8.7 7.5-14.5 7.6-21 0-42.1 0-63.1 0-2.6 0-6.3-.4-8.1-2.5-1.4-1.6-1.1-3.3-.5-5.2z"/><path d="m27.9 82.2h39.3c-4.5 4.4-8.8 8.9-13.3 13.3-3.4 3.4-9.3 3.4-12.8 0-4.5-4.4-8.8-8.9-13.3-13.3z"/></g></svg>