<svg viewBox="0 0 236 100" xmlns="http://www.w3.org/2000/svg"><g id="figure"><path d="m24.8 48.8 23.3-28.5v28.5h21.7l23.3-28.5v28.5h20.3l29-24.8-25.3-22h-26c-4.9 0-8.2 1.6-11.3 5.7-1.7 2.2-6 7.6-11 13.8v-19.5h-23.4c-4 0-7.6 1.7-10.5 5.6-4.4 5.9-27.7 34.8-32.9 41.2z"/><path d="m141.5 2 14.3 12.5 14.4-12.5z"/><path d="m171.1 48.8-15.6-13.2-14.9 13.2z"/><path d="m194.6 2-25.4 22 29.1 24.8h2.3s12.9 1 17.9-10.2l15.5-36.6z"/><path d="m28.2 64.6c0-.4-.1-.6-.5-.6h-1.4c-.3 0-.5.2-.6.4l-9.7 23.1c-.3.8-.8 2.3-.8 2.3s-.4-1.3-.8-2.3l-9.8-23.1c-.1-.3-.3-.4-.6-.4h-1.2c-.4 0-.7.2-.7.6v32.4c0 .4.3.6.7.6h1.2c.4 0 .6-.1.6-.5v-27.3c.1.2.5 1.5.8 2.2l8.4 19.9c.1.4.3.6.7.6h1.4c.4 0 .6-.2.8-.6l8.1-19.6.9-2.6v27.3c0 .4.2.6.6.6h1.4c.4 0 .5-.2.5-.6zm19.7 16 9.3-16c.2-.3 0-.6-.4-.6h-1.6c-.4 0-.6.3-.8.6l-7.9 13.8-8.2-13.8c-.2-.3-.4-.6-.8-.6h-1.8c-.4 0-.5.4-.3.7l9.5 15.8-9.6 16.5c-.2.4-.1.6.3.6h1.6c.4 0 .6-.3.9-.6l8.1-14 8.4 14c.2.3.5.6.9.6h1.8c.4 0 .5-.3.3-.6zm44.9-7.6c0 .4.1.6.5.6h1.5c.4 0 .6-.2.6-.6v-2.4c0-3.8-2.3-7-10-7s-9.9 3.2-9.9 7v2.7c0 3.1 2.3 5 4.3 5.8l9.1 3.6c1.9.7 4.1 1.8 4.1 4.5v3.5c0 3-1.8 5.1-7.6 5.1s-7.7-2.1-7.7-5.1v-2.2c0-.4-.2-.7-.6-.7h-1.4c-.4 0-.6.3-.6.7v2.5c0 3.9 2.5 7 10.3 7s10.2-3.1 10.2-7v-4.3c0-3.4-2.5-5.3-4.9-6.2l-9.5-3.6c-1.3-.5-3.1-1.7-3.1-4.2v-1.8c0-3 1.6-5 7.3-5s7.4 2 7.4 5zm29.1 24.6c.4 0 .6-.2.6-.6v-1.1c0-.4-.3-.6-.7-.6h-15.3v-14.2h13.9c.4 0 .6-.2.6-.6v-1c0-.4-.2-.7-.6-.7h-13.9v-12.5h14.8c.4 0 .6-.2.6-.6v-1.1c0-.4-.2-.6-.6-.6h-16.8c-.4 0-.6.2-.6.6v32.4c0 .4.2.6.5.6zm10.6-33c0-.4-.2-.6-.6-.6h-1.4c-.4 0-.6.2-.6.6v32.4c0 .4.2.6.5.6h16.7c.4 0 .6-.2.6-.6v-1.1c0-.4-.2-.6-.6-.6h-14.6zm39.8 33c.4 0 .6-.2.6-.6v-1.1c0-.4-.2-.6-.6-.6h-15.4v-14.2h13.9c.4 0 .6-.2.6-.6v-1c0-.4-.2-.6-.6-.6h-13.9v-12.6h14.8c.4 0 .6-.2.6-.6v-1.1c0-.4-.2-.6-.6-.6h-16.8c-.4 0-.6.2-.6.6v32.4c0 .4.2.6.5.6zm27.6-9.8c0-.4-.2-.5-.6-.5h-1.4c-.4 0-.6.1-.6.5v2.8c0 3-1.7 5.1-7.5 5.1s-7.4-2.1-7.4-5.1v-19.6c0-3 1.6-5.1 7.4-5.1s7.5 2.1 7.5 5.1v2.2c0 .4.2.6.6.6h1.4c.4 0 .6-.2.6-.6v-2.6c0-3.8-2.1-7-10.1-7s-10 3.1-10 7v20.4c0 3.9 2 7 10 7s10.1-3.1 10.1-7zm4.2-23.8c-.4 0-.5.2-.5.6v1.1c0 .4.1.6.5.6h9v30.7c0 .4.2.6.6.6h1.4c.4 0 .6-.2.6-.6v-30.7h9c.4 0 .6-.2.6-.6v-1.1c0-.4-.2-.6-.6-.6z"/></g></svg>