<svg viewBox="0 0 408 100" xmlns="http://www.w3.org/2000/svg" xmlns:xlink="http://www.w3.org/1999/xlink"><g id="figure" fill="#fff"><g transform="scale(.2)"><path d="m399.5 10c.6 3.5 1.3 6.9 1.9 10.4-7.3 4.6-15 8.8-22.1 13.6-3.5 8-6 16.7-9.1 24.9 7-3.2 13.9-6.6 20.9-9.7v8.5c-9.4 7.9-18.7 15.6-28.1 23.5-3.8 26.5-7.7 52.9-11.5 79.4-.3 4.2-2.7 6.7-4.7 10.2-9.7 15.6-19.3 31.4-29 47 17.9 3.4 35.7 7 53.5 10.6 4.1 6.7 8.2 13.3 12.3 20-4.1 5.8-8.1 11.6-12.3 17.4 2.9 3.3 5.7 6.7 8.6 10-3.7 5.6-7.3 11.2-11 16.7-20.9 1.5-41.8 3.1-62.7 4.6-2.1.1-3.8 1.1-5.6 2.2-8 5-16.2 9.7-24.2 14.7-3.6 2.2-7.4 3-11.4 4.2-16.1 4.8-32.2 9.5-48.2 14.4 6.4.9 12.9 1.7 19.3 2.6 3 .3 5.8 2.6 8.4 4.1 14.6 8.9 29.2 17.9 43.8 26.8 2.3 7.2 4.5 14.3 6.7 21.5-11.8 21-23.8 42-35.7 63 4.7 4.6 9.3 9.1 14 13.7 1.3 1.2 1.6 2.6 2.1 4.2 1.8 6.6 3.7 13.2 5.5 19.8-3.3.6-6.6 1.1-9.9 1.7-4.5-6.3-8.7-13.1-13.6-19.2-7.1-5.8-14.7-11.1-22-16.7-1.4-19.1-3.1-38.2-4.4-57.4-13-7.3-26.1-14.4-39.1-21.5-3.5 11.9-7.1 23.7-10.6 35.6-21 6-42 12.2-63.1 18.2-4.2 7.2-8.3 14.5-12.4 21.8-1.2 2.2-3.2 3-5.2 4.2-5.4 3-10.6 6.2-16 9.2-3.8-1.7-7.6-3.4-11.3-5.1 7.7-7.3 15.4-14.7 23-22.2.7-8.1 1.2-16.3 2-24.4.1-1.8.9-2.6 2.1-3.8 13.7-13.8 27.7-27.3 41.4-41.1-1.5-18-3.2-36-4.8-54 11.5-11.6 23.2-22.8 34.6-34.4 1.4-1.5 3.1-1.9 5-2.5 11.7-3.4 23.4-7 35.1-10.5-19.4-3.2-38.8-6.5-58.3-9.3-4.5-.8-8.7.6-13.4 1.1-24.8 3.4-49.6 6.4-74.4 9.5-2.8.5-5.8.2-7.9 2.3-6.5 5.8-13 11.7-19.5 17.5 3.7 4.6 7.4 9.2 11 13.9 4.5-.8 9.1-1.6 13.6-2.5 2.6 3.1 5.2 6.2 7.8 9.4-7 3.1-13.9 6.3-20.9 9.3-13.3-13.3-26.3-26.8-39.7-40 10.4-9.5 20.6-19.1 30.9-28.6 1.2-1.1 2.5-1.7 4-2.2 29.1-9.2 58.3-18.5 87.4-27.8 4.3-1.3 9.3-.5 13.8-.9 46.1-.6 92.4-1.2 138.5-1.8-14.5-3-28.9-5.9-43.4-8.8 8.3-6.6 16.7-13.1 25.1-19.7 2.4-1.9 5.5-3.7 7.2-6.3 18.9-28.8 38.1-57.4 57.2-86.1 2.4-3.8 5.4-7.4 7.2-11.5 8.7-19.9 17.4-39.8 26.1-59.7 11.8-4.7 23.6-9.4 35.5-14z"/><path d="m753.1 274.3h-58.5c-9.9-31.4-37.5-37-55-37.1-43.8-.4-63.5 34.5-63.2 76 .4 58.4 34.7 77.3 68.5 75.8 25.4-1.2 49.1-17 53.7-45.2h-53.1v-44.7h110.6v133.9h-40c-2.3-10.4-4.7-20.7-7-31.1-18.1 25.7-44.9 36.6-77.5 36.6-67.3 0-114.8-47.5-114.8-126 0-74.8 45.3-124.8 122-124.8 62.5 0 107 33.8 114.3 86.6z"/><path d="m806.1 193.2h57v239.8h-57z"/><path id="a" d="m916.6 193.2v239.8h122.4c63.5 0 81.9-37 81.8-68.9-.1-29.2-18.5-50.1-41.4-58.7 22.6-11.4 29.9-29.2 31.3-44.7 2.7-29.4-13.4-67.5-75.9-67.5zm137.6 69.7c0 19.4-12 26.8-30.3 26.8h-50.3v-50.7h50.3c14.8 0 30.3 5 30.3 23.9zm7.7 99.4c0 19.2-16.1 25.2-35.5 25.2h-52.8v-54.4l52.8.1c23 0 35.5 5.9 35.5 29.1z"/><use transform="translate(245.4)" xlink:href="#a"/><path d="m1396.4 312.2c0 80.8 52.4 126.2 118.2 126.2 78.2 0 127.6-47.2 127.6-125.2 0-91.6-67.9-125.4-121.3-125.4-61.3 0-124.5 34.8-124.5 124.4zm124.5-74.7c58.5 0 62.1 62.3 62.2 74.5.6 55.5-33.1 77.6-68.1 76.6-36.6-1.1-58.5-28.9-59.2-78.5-.3-22.9 11-72.6 65.1-72.6z"/><path d="m1685.5 193.2h61.6l59.9 97.9c12.6 20.6 24.7 41.4 35.7 62.9-1.6-62.1-1.4-64.4-1.4-81.5v-79.3h54.4v239.8h-61.4l-62.7-102.3c-11.7-19.1-22.9-38.1-33-58.1 1.6 53.5 1.3 106.9 1.3 160.4h-54.4z"/><path d="m1991.3 193c-21.4 0-38.7 17.3-38.7 38.7s17.3 38.7 38.7 38.7 38.7-17.3 38.7-38.7-17.3-38.7-38.7-38.7zm0 6.4c17.8 0 32.3 14.5 32.3 32.3s-14.5 32.3-32.3 32.3-32.3-14.5-32.3-32.3 14.5-32.3 32.3-32.3zm-16.2 9.5v45.3h9.9c.1-6.5.1-12.9-.3-19.4 2.5.1 5.6-.5 7.9.6 3 1.5 3.2 4.8 3.6 7.7.6 3.8 1.1 7.5 2.3 11.1h11.4c-2.7-5.4-3.2-11-4.4-16.8-.6-2.8-2.4-4.3-4.5-6 4.7-1.9 8.1-4.7 8.1-10.3 0-10.1-8.7-12.2-13.6-12.2zm9.9 7.6h6.2c4.9 0 8.1.6 8.1 5.2s-5 5.2-8.1 5.2h-6.2z"/></g></g></svg>