<svg viewBox="0 0 416 100" xmlns="http://www.w3.org/2000/svg"><g id="figure"><path d="m32.7 31.2h-16.1v15.8h-14.7v-45h34.9v10.5h-20.2v8.2h16.1z"/><path d="m101.2 46.9 1.6-5.9h14.7l1.8 5.9h14.6l-16.1-44.9h-15l-16.1 44.9zm13.8-15.3h-9.4l4.6-16.1z"/><path d="m222.2 46.9h-35v-44.9h14.7v34.4h20.3z"/><path d="m305.2 18.9 18.1 28h-17.6l-10.8-17.9-3.5 3.7v14.2h-14.8v-44.9h14.8v14.5l12.9-14.5h17.3z"/><path d="m391.3 18.9h18.5v10.5h-18.5v7.1h22.8v10.4h-37.5v-44.9h36.6v10.5h-21.9z"/><path d="m87.7 90.7h6.1c-.2 3.1-2 5.2-5.5 5.2s-6-2.2-6-6.8c0-4.3 2.5-6.9 6-6.9 3.2 0 4.8 1.7 5.2 3.3h2.5c-.5-2.4-3-5.2-7.7-5.2s-8.3 3.6-8.3 8.9c0 5.6 3.4 8.8 8.3 8.8 5.2 0 7.9-3.5 7.9-8.3v-.9h-8.5z"/><path d="m118.4 89.8v-2h-8.3v-5.3h9v-1.9h-11.2v16.9h11.2v-2h-9v-5.7z"/><path d="m138.9 80.5h-7.9v17h2.2v-6.7h4.4l4.6 6.7h2.6l-4.8-6.8c2.5-.3 4.3-2.5 4.3-5.2s-2.5-5-5.4-5zm-5.7 2.1h5.5c4.6 0 4.5 6.1 0 6.2h-5.5z"/><path d="m159.3 80.5h-3.6v17h2.1v-15.1l5.5 15.1h2.4l5.4-15.1v15.1h2.2v-17h-3.7l-5.1 14.6z"/><path d="m188.2 91 3.1-8.2 3.2 8.2zm1.9-10.4-6.7 16.9h2.3l1.7-4.5h7.8l1.7 4.5h2.5l-6.7-16.9z"/><path d="m211.6 97.5v-14.7l8.7 14.7h2.7v-16.9h-2.2v13.7l-8.2-13.7h-3.2v16.9z"/><path d="m241.5 90.4 6.1-9.8h-2.5l-4.6 7.5-4.8-7.5h-2.6l6.2 9.8v7.1h2.2z"/><path d="m270.7 80.5-4.6 4.4v2.5h.1l4.3-4.1h.1v14.2h2.1v-17z"/><path d="m288.7 89.5c2 0 3.4 1.3 3.4 3.2s-1.4 3.2-3.4 3.2c-4.3 0-4.3-6.4 0-6.4zm2-6.7c1.9 1.8.6 5-2 5-1.6.1-2.9-1.2-2.9-2.8-.1-2.6 3-4 4.9-2.2zm.7 5.8c1.4-.7 2.4-2.2 2.4-3.8 0-2.6-2.1-4.6-5.1-4.6s-5.1 2-5.1 4.6c0 1.6.9 3.1 2.3 3.8v.1c-1.7.7-2.9 2.3-2.9 4.2 0 2.9 2.3 5 5.7 5s5.6-2.1 5.6-5c0-1.9-1.2-3.5-2.9-4.2z"/><path d="m305.5 85.9c0-2.2 1.5-3.8 3.4-3.8s3.4 1.5 3.4 3.8-1.5 3.9-3.4 3.9-3.4-1.7-3.4-3.9zm-2.2.1c0 3.4 2.1 5.7 5.4 5.7 1.6 0 3.2-.8 4-2.2h.1c-.2 4.1-3.3 7.3-8.1 6.4v2c6.4.9 10.3-3.6 10.3-9.8 0-4.3-2-7.9-6.2-7.9-3.2 0-5.5 2.4-5.5 5.8z"/><path d="m327.1 87.8h-.1l.6-5.3h7.4v-1.9h-9.3l-.8 9.7h2.2c.5-1.3 1.7-2.1 3.1-2 2.2.1 3.8 1.8 3.6 3.8-.2 2.4-1.3 3.6-3.6 3.8-1.6.1-3-1.1-3.2-2.7h-2.2c0 2.2 1.8 4.7 5.4 4.7 3.2 0 5.7-2.6 5.8-5.8.1-3.1-2.3-5.7-5.4-5.7-1.3 0-2.6.4-3.5 1.4z"/></g></svg>