<svg viewBox="0 0 415 100" xmlns="http://www.w3.org/2000/svg"><g id="figure" fill="#fff"><path d="m72.8 2.3c.6-.6 1-.2.3 1.4-1.7 3.3-3 6.7-4.4 10.2 1.4 0 2.9 0 4.3-.1.6 0 .7 1 .1 1-1.6.1-3.4-.2-5 .5-1.9 4.1-2.9 8.4-4.4 12.7-2.7 1.8-4.7 4.3-6.7 6.8-4.3 5.2-8.1 10.8-11.9 16.3-1.1 2.1-1.1 4.6-1.7 6.9-.5 3.6-1.3 7.2-1.1 10.9 0 .5.2 1.1-.3 1.4-3.4 2.4-6.9 4.6-10.3 7-.4.5-1-.3-.6-.7 1.8-5.2 3.6-10 5.2-14.9-4.4 5.6-8.7 11-12.8 16 4.3 4.5 13.8 7.9 18.9 9.3 6.4 1.7 12.7 1.8 18.8 1.8 1 0 1 .5.6.7-1 .5-2.2.5-3.3.6-10.2.9-17.2.1-26.6-2.3-4.4-1.3-8.7-3-12.6-5.3-5.5 6.2-10.1 10.7-16.4 15.2-.6.4-1.2 0-.7-.6 3.8-6.2 8.2-13.1 10.8-19.2-6.3-6-9.2-13-9.2-19.6-.2-4.5 1.2-9 3.1-13 8.4-15.7 24.3-23.7 40-28.3 4.8-1.4 9.7-2.1 14.6-2.5.8-.1 1.5-.4 1.9-1.1 2.8-4 5.9-7.7 9.4-11.1zm-18.7 15.5c-10.8 3.1-21.1 8.3-29.3 16.1-5.2 5-9.5 11.3-11 18.4s.2 15.3 4.2 19.9c6.7-5.9 13.7-12.5 18.8-18.9 1.4-4.8.9-10.4.6-15 0-.9-.7-2.1.2-2.8 2.9-2.7 5.8-5.3 8.7-7.9.3-.4 1 0 .8.5-1 4.9-2.1 9.8-3.2 14.7 6-8.7 11.9-17.9 17-26.6-2.4.3-4.7.9-7 1.5z"/><path d="m196.3 34.8c3.7 0 4.5 1.6 5.6 3.8l13.3 25.5 13.3-25.5c1.1-2.1 2.2-3.9 5.6-3.8 1.4.1 3.4 1.9 4.1 4.7l8.8 36.2c.2 1-.7 1.5-1.5 1.5l-6.3-.1c-.8-.1-1.2-.4-1.5-1.5l-5.4-25.2-12.1 23.1c-2.7 4.8-7.3 5-10.1 0l-12.1-23.1-5.4 25.2c-.3.7-.5 1.4-1.5 1.5h-6.3c-1.3 0-1.7-.5-1.5-1.5l8.8-36.2c.5-2.1 1.5-4.8 4.1-4.7zm-68.7 1.9c0-.9.7-1.3 1.5-1.4h5.4c1 0 1.4.7 1.5 1.4v32.1h26.1c.8 0 1.5.9 1.5 1.5v5.5c0 .5-.4 1.3-1.5 1.4h-33c-1-.1-1.5-.6-1.5-1.4zm41.5 0c0-.7.8-1.4 1.5-1.4h5.2c.8.1 1.5.7 1.5 1.4v39c.1.7-.7 1.4-1.5 1.4h-5.2c-.8-.1-1.5-.5-1.5-1.4zm102.9 4.3c1.4-2.6 3.9-5.9 7-5.9 3.3 0 5.8 3.6 7.1 5.9l20.1 34.7c.6 1.2-.2 1.5-1.5 1.4h-7.5c-1 .1-1.3-.8-1.7-1.4l-5.9-10h-19.2l4.8-8.4h9.3l-5.8-9.5-16.9 27.8c-.6 1-1 1.3-1.5 1.5h-7.7c-2.1.1-1.9-.6-1.5-1.4zm92.1-5.6h7.6c1.6 0 2.1.6 2.8 1.4l7.9 9.9c2.2 2.8 4.4 5.4 6 8.1 1.4-2.8 3.3-5.3 5.8-8.1l7.9-9.9c.5-.8 1.3-1.4 2.2-1.4h8.3c1.1 0-.1 1.8-.7 2.5l-15 18.7 15 18.8c.6.8 1.1 1.6-.2 1.6h-8c-.7 0-1.4-.3-2.2-1.4l-7.3-9.2c-2.6-3.1-4.5-5-5.8-8.1-1.5 3-4 5.5-6 8.1l-7.3 9.2c-1.2 1.4-1.7 1.4-2.2 1.4l-8.1-.1c-.8-.1-1.3-.4-.2-1.5l15-18.8-15-18.7c-1.4-1.6-1.4-2.5-.5-2.5zm-264.5 0h23c.9 0 1.4.6 1.5 1.5v5.4c0 .9-.6 1.5-1.5 1.5h-22.6c-8 0-12.1 6.3-12.2 12.6-.1 6.2 3.9 12.5 12.2 12.5h22.5c1 0 1.5.4 1.5 1.5v5.5c0 1-.4 1.4-1.5 1.5h-23c-10.6-.3-19.9-7.8-19.9-21.1 0-12.2 7.5-20.8 19.9-20.9zm227.8 0h14.1c5.1 0 10.3 2 13.9 5.6 7.8 7.8 7.6 21.7.3 29.7l5 5.1c1 .9.5 1.3-.6 1.4l-9.2.1c-.6.1-1.3-.3-1.6-.7l-.8-.8c-6.5 2-13.3 1.5-20 1.4-5.2 0-10.6-1.8-14.3-5.6-7.7-7.4-8.6-20.7-2.1-29 3.6-4.6 9.4-7.1 15.2-7.2zm-10.8 17.2c-2.1 6.3 1.6 14.1 8.2 15.7 5.4.9 11.6.7 17 .4l-3.9-4.2c-.3-.3-.2-.6.3-.6h9.8c.3 0 .7.2.9.4l.8.9c4.1-4.6 4.2-12.4.3-17.1-2.3-2.9-6-4.4-9.7-4.2h-12.9c-5 .2-9.5 4-10.8 8.8z"/></g></svg>