<svg viewBox="0 0 395 100" xmlns="http://www.w3.org/2000/svg" xmlns:xlink="http://www.w3.org/1999/xlink"><g id="figure"><g transform="scale(.1)"><path d="m1206.5 708.6v19.8h2675.9v-19.8z"/><path d="m522.9 20c-264.7 0-503 201.3-502.9 473.9.1 334.8 291 486 502.7 486.1 287.9.1 510-211.5 510-480v-33.3h-471.5v-446.7zm26.3 12v446.7h471.5v21.3c0 261.9-215.9 468.1-498 468-202.2-.1-490.6-143.2-490.7-474.1-.1-265.7 232.2-461.9 490.9-461.9zm-51.9 45.7c-167.1 0-422.8 157.5-423 415.4-.1 233.3 189.7 428.7 447.4 430 231.6 1.1 433.1-163.9 453.7-392.9l.6-6.6h-472.7v-445.9zm-6 12v445.9h471.6c-23.2 219.3-217.5 376.6-441.2 375.5-251.8-1.2-435.7-191.1-435.5-418 .2-261.2 265.4-403.4 405.1-403.4z"/><path d="m791.5 36a207.5 207.5 0 00-207.5 207.5 207.5 207.5 0 00207.5 207.5 207.5 207.5 0 00207.5-207.5 207.5 207.5 0 00-207.5-207.5zm0 12a195.5 195.5 0 01195.5 195.5 195.5 195.5 0 01-195.5 195.5 195.5 195.5 0 01-195.5-195.5 195.5 195.5 0 01195.5-195.5z"/><path d="m1414.5 131c-131.6 0-242.9 102.3-243 249.9-.1 139.4 97.4 246.7 248.1 246.5 96.4-.1 158.7-23.6 191.9-44.8.5-41.3-2.6-82.7 5.1-123.6 2.3-10.3 8.9-14.4 18.9-17.7 14.7-4.9 23.8-4.4 39.4-10.5l-7.9-24h-240.1l-1.7 26.8 4.9 1.1c18.4 4.1 38 2.5 51.4 9.2 9 4.5 13.8 12.9 13.9 31.8l.2 69.8c.1 25.6-9 35.3-20.4 40.2-13.2 5.7-33.7 5.8-57.5 5.4-32.3-.6-59-19.5-76.3-46.5-26.6-41.4-40.9-120.2-37.2-194.7s25.8-144.1 66.2-169.6c28.6-18 69.1-18.2 99.5-3.5 50.4 24.4 76.5 65.9 112.9 133.6l20.5-10.4-.6-165.8-24.5.7c-6.5 9-9.1 21.5-18.5 28.1-4.6 2.6-10.1 2.7-18.1.6s-18.1-6.3-30-11.1c-23.9-9.6-55.5-21.5-97.1-21.5zm-.1 11.9c39.4.1 69.2 11.1 92.8 20.6 11.8 4.8 22 9.2 31.5 11.6s18.7 2.8 26.8-1.8c11.3-6.4 15.3-18.5 19.7-26.8l5.7-.1.5 146.3-3.7 1.9c-27.4-50.8-57-101.5-112.6-128.4-34.1-16.5-78.3-16.7-111 4-46.8 29.5-68 102.8-71.8 179.1s10 156.3 39.1 201.7c18.9 29.5 49.3 51.2 86.1 51.9 23.9.4 45.8.9 62.7-6.4 23.8-10.2 27.4-33.1 27.3-51.1l-.2-69.7c0-11.6-1.4-32.9-20.5-42.4-16-7.9-34.2-7.2-49.1-9.5l.3-5.2h220.5l1.4 4.3c-8.5 2.2-18.5 3.9-28.2 7.1-11.8 3.9-23.4 11.6-26.7 26.4-8.8 39.7-4.9 80-5.3 119.3-50.6 29.6-121.6 39.8-180.2 39.9-145.1.1-236.3-100.7-236.2-234.7.1-141.7 105.6-238.3 231.1-238z"/><path id="a" d="m1840.9 279.2c-29.2 0-96.9 5.6-126.8 56.8-9.6 16.5-9.6 37.6-6 54.6 4 19.4 21.1 29.4 38.1 31.9s34.8-.9 45.5-10.3c11.1-9.7 15-20.9 15.4-35.1.3-10.5-3.8-18.5-8.1-25.1s-8.5-12-10.5-18.5c-.3-.9-.9-22.2 45.8-18.4 17.6 1.4 33.2 10.6 37.9 27.5 5.8 20.7 3.1 45.2 3.3 69-45 16.8-91.3 25-134.5 53.8-24.7 16.5-49.6 39-49.6 79.8 0 41.9 34.9 78.7 79.8 78.7 46.1 0 76.9-15.9 105.9-41.4 4.7 12.6 9.9 22.5 18 29.5 9.8 8.5 23.1 12.1 41.4 12.1 43.2 0 73.2-26.2 85.9-50.2l-18.7-12.4c-4.3 3-8.4 6.4-13.4 8-2.7.8-3.8.8-5.8-1-6.4-7.1-5.3-18.3-5.3-27.2v-156.3c0-77.1-64.6-105.7-138.3-105.8zm126.4 105.8v156.3c-.1 12.5-.2 26.6 9.3 36 4.9 4.4 11.6 5.1 16.9 3.6 3.9-1.1 7.2-3 10.4-5.1l2.1 1.4c-16 22.4-42.4 35-69.5 35-16.9 0-26.5-3-33.6-9.2-11.5-10.9-15.6-26.9-20.4-41.5-31.8 30.2-57.5 50.5-111.3 50.5-38.4 0-68-31.6-68-66.8 0-36.2 20.7-54.1 44.4-69.9 41.9-27.9 88.3-35.6 135.9-53.9l4-1.5-.2-4.2c-.6-23.7 3.4-51-3.7-76.3-6.3-22.4-27-34.4-48.3-36.1-50.5-4.1-62.1 20.5-58.1 33.7 2.8 9.1 7.9 15.6 11.8 21.5s6.5 11 6.3 18.3c-.4 12.6-2.3 18.6-11.4 26.5-6.4 5.6-22.1 9.5-36 7.4s-25.3-8.7-28.2-22.5c-3.1-15-2.6-33.7 4.7-46.2 26.9-46 87.2-51 116.5-51 44.9 0 126.4 12.2 126.4 94zm-83.7 52.2-6.5.6c-13.6 1.3-33.9 9.1-52.1 23.5s-34 35.8-34.3 63.5c-.2 18.6 8.4 40.5 28.2 47.7 12.8 4.7 25.7 2.9 36.5-2.5 13.9-6.9 22.8-18 28.2-25.2zm-11.9 13.7v89.7c-6.1 7.8-13.5 14.8-21.6 18.8-8.6 4.3-17.5 5.5-27.1 2-13.2-4.8-20.6-21.7-20.4-36.4.3-23.3 13.4-41.5 29.7-54.4 13.4-10.6 28.8-17.1 39.4-19.7z"/><path d="m2173.1 331.1-.8-42.7h-139.8l.7 24.6c16.2 6.7 24.8 10.2 29.8 15.6 4.7 5.1 7.2 12.3 7.2 27.6v185.1c0 20.7-2.9 28.9-7.8 33.9-9.1 7.3-20.6 10.8-31.1 15.7l1.6 24.1h191.1l3.1-24.6c-13.4-5-28.8-6.1-40.8-14.3-5-3.9-10-10.8-10-34.8v-131.8c0-19.6 5.6-33.9 12.3-43.4 2.4-3.4 15.4-20.6 26.9-12 10.7 8 17 27.2 33.8 33.5 13.4 5.1 30.5 5.7 44.1-.8 17.8-8.5 27.1-28.8 27.1-47.6 0-39.2-31.6-60-64.3-60-35.4 0-62.5 25.8-83.1 51.9zm135.6 8.1c0 14.7-8.1 31-20.4 36.9-9.6 4.6-24.4 4.3-34.8.4-11.2-4.2-19.4-23.2-30.9-31.9-14.1-10.5-31-3.4-43.7 14.6-8.2 11.6-14.4 28.4-14.4 50.3v131.8c0 18.8 2.5 34.8 14.5 44.2 9 7 20.8 9.4 35.1 13.4l-.5 4.2h-169.6l-.3-4.7c10.9-4.7 20.1-7.7 27.2-14.9 7.9-8.1 11.2-20.4 11.2-42.2v-185.1c0-16.7-3.1-27.9-10.4-35.7-6.6-7-15.7-10.8-26.8-15.4l-.2-4.8h115.9l1.2 65.4c23.5-34.3 55.7-74.7 94-74.7 33.6 0 52.9 19.2 52.9 48.2z"/><path d="m2322.3 140.1v27.4c14.6 4.7 24.1 7.9 29.3 13.5 4.5 4.8 7.1 12.2 7.1 27.5v336.9c0 13.8-2.4 22.4-7.1 28.7-6.9 9-17.7 13.1-27.9 16.9l1.3 24h175.2l2.7-23.8c-15.9-6.5-26.9-11.1-31.1-17.3-3.2-4.8-3.9-12.6-3.9-28.5v-405.3zm11.9 11.9h121.8v393.4c0 16.1.2 26.6 6 35.2 5.2 7.7 14.5 12.3 28.2 18l-.6 4.5h-153.4l-.2-4.2c10.7-4.4 19.2-9.8 25.1-17.7 6.6-8.9 9.4-20.6 9.4-35.8v-336.9c0-16.7-2.9-27.9-10.2-35.6-6.4-6.8-15.4-10.2-26.1-13.8z"/><use transform="translate(826.6)" xlink:href="#a"/><path d="m3092.1 278.4c-47.6 0-71.2 21.4-94.4 45.3l-1-35.3h-143.4l.7 25c15.1 4.5 26.8 8.3 31.8 14.5 3.8 4.8 5.2 12.6 5.2 28.3v185.1c0 16.6.1 24.9-3 30-4.1 6.8-16.6 12.3-34 19.5l1.6 24.2h174.4l3-24.3c-9-3.6-19.2-5.5-26.3-12.6-4.8-5.3-8.4-15.1-8.4-36.8v-168.3c0-10.8 29.8-34 51.5-34.2 23.9-.2 29.8 21.4 29.8 42.5v160c0 20.8-2.3 29.4-6.4 34.2-8.2 7.4-21.2 11.3-29.2 15.4l1.7 24.1h174.7l3-24.6c-10.1-3.7-29.8-7.5-35.1-17.5-2.6-5-1.6-14.6-1.6-31.6v-164.4c0-45.9-36.3-98.5-94.6-98.5zm82.7 98.5v164.4c0 16.3-2.1 26.9 2.9 36.9 5.2 10.5 17.6 15.5 32.8 20.5l-.6 4.4h-153.2l-.3-4.8c10.8-4.7 19.5-7.8 25.8-15.1 7.1-8.2 9.3-20.2 9.3-41.9v-160c0-16.3-4-54.6-41.7-54.3-26.5.2-63.4 26.3-63.4 46v168.3c0 23 3.9 36.3 11.5 44.7 6.4 7.1 14.4 9.8 22.2 12.5l-.6 4.6h-152.8l-.3-4.7c16.9-7.1 26.6-12.4 31.8-21 5.6-9.3 4.7-19.7 4.7-36.1v-185.1c0-16.3-1.2-27.3-7.9-35.7-6-7.5-15.8-11.5-29.4-15.7l-.1-4.5h119.7l1.4 52c32.4-33.4 53-62 105.9-62.1 50.2-.1 82.3 46.6 82.3 86.7z"/><path d="m3394.7 142.3v25.7c13.2 3 30.7 3.1 40.3 8.6 4.5 2.6 10.1 8.1 10.1 31.8v102.7c-21.5-17.6-44-32.1-73.8-32.1-31.3 0-135.6 24.2-135.6 182.3 0 135 92.3 162.6 127.4 162.6 48.1 0 68-20.6 85.4-35.8l.6 33.7c37.1-5.3 41.1-7.7 64.8-11.4 34.2-5.4 48.8-5.8 80.7-12.1v-16c-21.5-12-26.4-11.3-33.8-16.3-4.3-2.9-8.7-7.3-8.7-24.5v-399.2zm11.8 11.8h133.8v387.4c0 14.6 2.5 26.6 13.9 34.3 7.5 5.1 16.5 7.8 26.7 12.8-20.2 3.5-45.1 6.3-68.8 10-16.9 2.6-30.5 5.9-51.4 9.3l-.8-43.6-9.2 6.5c-23.5 16.6-35 41.2-87.6 41.2-19 0-115.7-14.3-115.6-150.7.1-164.5 115.9-170.3 121.4-170.3 37.8 0 62.8 23.6 88 45.7v-128.3c0-16.9-2.3-33.6-15.7-41.9-9.4-5.8-21.1-6.7-34.7-8.6zm-71.1 306.5c.2 40.2 4 122.8 58.5 122.8 40.5 0 63.1-35.1 63.2-83l.2-122.5c0-30.2-27.2-59.3-55.2-59.3-44.5 0-67.1 34.1-66.7 142zm110.1-82.7-.2 122.8c0 21.7-6.5 71-51.4 70.8-41.5-.2-46.4-69.6-46.6-111.1-.5-127.1 34.9-129.9 53.8-129.9 24.1 0 44.4 25.2 44.4 47.4z"/><path d="m3770.2 279c-77.5 0-159.8 65.7-159.8 172.4s82.2 174.4 159.8 174.4 159.8-67.7 159.8-174.4-82.3-172.4-159.8-172.4zm0 11.8c70.8 0 148 60 148 160.6s-77.3 162.6-148 162.6-147.9-62-147.9-162.6 77.1-160.6 147.9-160.6zm0 11.1c-52.8 0-57.7 65.8-57.7 112v77c0 46.2 4.9 112 57.7 112s57.7-65.8 57.7-112v-77c0-46.2-4.9-112-57.7-112zm0 11.8c36.5 0 45.8 42.4 45.8 100.2v77c0 57.8-9.3 100.2-45.8 100.2-36.4 0-45.8-42.3-45.8-100.5v-76.7c0-58.2 9.4-100.2 45.8-100.2z"/><path id="b" d="m1305 806.8h-12c-3.8-14.3-14.8-14.7-30.4-14.7-11.1 0-29.2-.3-29.1 13.3.1 11.3 6.5 13.5 28.3 14.8 22.9 1.4 43.8-1.2 43.8 21.9 0 22.5-20.4 22.5-43.2 22.5-28.3 0-44.5-.1-44.5-25.2h12.7c.5 18.9 8.3 17.3 31.8 17.3 24 0 29.7-.3 29.6-14.6-.1-14-8.6-13.2-30.2-14.4-27.4-1.5-41.2-.4-41.5-22.3-.2-20.2 13.9-20.4 41.5-20.4 30.3 0 40.8.1 43.2 21.8z"/><path d="m1390 786v77.9h14v-30.7h48.4c13.8 0 26.5-6.4 26.4-24.5-.1-19-14.8-22.7-26.4-22.7zm74.4 22.7c0 7.4-1.7 16.6-12 16.6h-48.4v-31.4h48.4c11.5 0 12 8.5 12 14.8z"/><path d="m1606.1 785c-44.6 0-49.4 1.7-49.4 39.7s4.8 39.7 49.4 39.7 49.3-1.7 49.3-39.7-4.7-39.7-49.3-39.7zm0 7.9c34.4 0 36.5 2 36.5 31.8s-2.1 31.8-36.5 31.8-36.6-2-36.6-31.8 2.2-31.8 36.6-31.8z"/><path id="c" d="m1741.4 786v77.9h14v-31.7l43.8.2c7.4 0 17.8 1.6 17.8 12.7v18.8h13.7v-18.6c0-10.6-3.6-12.8-13.1-16.6 7.9-1.5 15.5-9.1 15.4-20-.1-19-14.3-22.7-25.9-22.7zm14 7.9h51.7c11.5 0 12.1 8.5 12.1 14.8 0 7.4-5.5 15.9-15.8 15.8l-48-.2z"/><path d="m1909.1 786h91v7.7h-38.3v70.2h-13.6v-70.2h-39.1z"/><path d="m2219.8 786-44.3 77.9 14.9-.6 8.8-16.2h60.5l10.3 16.2 13.4.6-44.1-77.9zm35.5 54.1h-52.1l26.5-47.6z"/><path d="m2361 786h21.7l62.9 69.4v-69.4h13.8v77.9h-21.7l-63.2-70.4v70.4h-13.5z"/><path d="m2592.7 786h-45.8v77.9h45.8c37 0 51.4-4.3 51.4-39.6.1-37.4-12.9-38.3-51.4-38.3zm0 7.7c28.5 0 37.7.4 37.6 30.6-.1 32.3-11.5 32-37.6 32h-32v-62.6z"/><path d="m2851.1 786v69.4h59.5v8.5h-73.1v-77.9z"/><path id="d" d="m3066.6 786v7.7h-61.8v26.1h58.8v7.3h-58.8v29.2h61.8v7.6h-75v-77.9z"/><path d="m3168.7 786v77.9h-13v-77.9z"/><use transform="translate(2037.5)" xlink:href="#b"/><path d="m3441.5 786v51.6c0 19.3 12.9 19.5 31.1 19.3 21.5-.3 33.3.3 33.3-19.3v-51.6h13.8v51.6c0 24.6-6.8 26.7-47.4 26.8-36.3 0-44.5-2.6-44.5-26.8v-51.6z"/><use transform="translate(1866.7)" xlink:href="#c"/><use transform="translate(796)" xlink:href="#d"/></g></g></svg>