<svg viewBox="0 0 398 100" xmlns="http://www.w3.org/2000/svg" xmlns:xlink="http://www.w3.org/1999/xlink"><g id="figure"><g transform="scale(.1)"><path d="m523.2 20c-265 0-503.3 201.3-503.2 473.8.1 333.3 288.4 486.1 503 486.2 288.6.1 510.4-211.5 510.4-480v-27.6h-477.4v-452.4zm-26 510h478.2c-20.6 228.7-221.8 393.5-453.4 392.4-257.9-1.3-447.2-196.4-447-429.4.2-257.4 256.2-415.2 422.2-414.6z"/><path d="m793 37.6c-111 0-201 91.2-201 203.8s90 203.8 201 203.8 201-91.2 201-203.8-90-203.8-201-203.8z"/><path d="m1419 132.4c82 .2 124.3 46 150 31.6 9.6-5.4 13.5-18.5 19.2-27.8l15.4-.4.6 158-12.2 6.5c-28.5-53.1-58-105.7-114.2-132.9-32.7-15.8-75.5-15.8-106.6 3.8-88.3 55.7-87.6 289.2-31.2 377.2 18.3 28.6 47.2 49.2 82.2 49.8 48.4.9 85.1.6 85-52.2l-.2-70.6c0-14.7-2.7-30.3-17.4-37.6-15.8-7.8-36.2-5.9-53.4-9.8l1-16.4h233.2l4.8 14.6c-20.6 7.1-51.8 5.6-57.4 31-8.9 40.1-4.5 81.6-5.2 123-53 32.2-127.3 42.7-188.4 42.8-149.7.2-245.3-105.2-245.2-243.6.1-146.4 109.8-247.4 240-247z"/><path id="a" d="m1850.8 282.4c-23.2 0-93.3 3.4-123.2 54.6-8.6 14.7-8.8 34.8-5.4 51 7 33.6 57.5 33.7 74.8 18.6 10.2-8.9 13.2-17.6 13.6-31.2.5-18-13.8-26.4-18.6-42.2-2.2-7.1 3.4-30.4 52.6-26.4 19.7 1.6 38 12.3 43.6 32.2 6.7 24 2.9 51 3.6 75.8-47.5 18.3-95.1 26.1-138.8 55.2-24.5 16.3-47.6 36.8-47.6 75.8s32.7 73.6 74.8 73.6c48.8 0 79.1-17.3 109.9-46.2 10.8 33.3 21.9 46.4 57.5 46.4 31.3 0 62-15.3 78.8-43l-10.6-7c-7.9 5.7-16.6 10.4-23.6 4.2-7.9-7-7.4-21.4-7.4-32v-158.2c0-85.8-81.3-101.1-134-101.2zm37.2 261c-13.5 18.1-34.6 32.7-57.4 24.4-16.7-6.1-24.8-25.7-24.6-42.6.7-51.6 58.4-80.1 82-82.2z"/><path d="m2330.4 337.2c0 17-8.7 35.5-24 42.8-11.7 5.6-27.9 5.2-40 .6-18.7-7.1-25.9-39.3-45.4-36.8-12.7 1.6-36.6 22.5-36.6 64.6v133.4c0 45.2 16.2 43.5 50.8 54l-1.8 14.6h-182.6l-1-14.6c26.5-12.3 39.2-11 39.2-54v-187.4c0-32.5-11.2-37-37.6-47.8l-.4-14.8h129.4l1 54.2c21.6-29.9 50.6-63.6 90.8-63.6 33.9 0 58.2 22.4 58.2 54.8z"/><path d="m2479.6 141.6v404.4c0 32.4 1.7 36.7 35 50.2l-1.6 14.2h-166.4l-.8-14.2c24.7-9.3 35.2-20.8 35.2-50.2v-341.2c0-32.4-11-37.4-36.8-45.8v-17.4z"/><use transform="translate(837)" xlink:href="#a"/><path d="m3016.4 335.8-1.2-44h-133.2l.4 14.8c32.5 9.7 37.6 15.3 37.6 47.8v187.4c0 33.4 2 37.9-37.2 54l1 14.6h165.6l1.8-14.6c-19.2-7.1-34.6-8.8-34.6-54v-170.4c0-15.5 33.8-40.4 58.2-40.6 22.8-.2 36.2 16.4 36.2 49v162c0 43-9.3 41.7-35.8 54l1 14.6h166l1.8-14.6c-42.7-13.2-36.6-20.3-36.6-54v-166.4c0-42.9-33.8-93.8-89.8-93.8-49.7 0-72.3 23.6-101.2 54.2z"/><path d="m3430 143.8v15c33.2 5.5 51 2.2 51 46v116.6c-23.6-20.7-50.7-40.5-83.4-39-35.2 1.7-128.9 28.9-128.6 178.4.3 131.8 88.7 158.6 123 158.6 55.2 0 70.1-26.9 92.2-42.8l.8 39.8c26.3-3.8 40.1-7.7 58.8-10.6 26.3-4.1 54.9-7 76.6-11.2v-7.8c-26.7-15-43-10.1-43-44.8v-398.2zm51.4 232.6-.2 124c-.1 39.6-16.6 78-58 78-50.5 0-52.8-85-53.2-118.4-1.6-130.6 37-137.2 60.8-137.6 25.3-.4 50.6 26.5 50.6 54z"/><path d="m3804.2 282.2c-75.1 0-155.8 63.7-155.8 168.6s80.7 170.6 155.8 170.6 155.8-65.7 155.8-170.6-80.7-168.6-155.8-168.6zm0 23.2c47 0 52.4 59.5 52.4 107.4v78c0 47.9-5.4 107.4-52.4 107.4s-52.4-59.5-52.4-107.4v-78c0-47.9 5.4-107.4 52.4-107.4z"/><path id="b" d="m1308.2 810.6h-12.2c-3.8-14.4-15-14.8-30.8-14.8-11.2 0-29.5-.4-29.4 13.4.1 11.5 6.5 13.7 28.6 15 23.2 1.4 44.4-1.2 44.4 22.2 0 22.8-20.7 22.8-43.8 22.8-28.6 0-45-.2-45-25.6h12.8c.5 19.1 8.4 17.6 32.2 17.6 24.3 0 30.1-.3 30-14.8-.1-14.2-8.7-13.4-30.6-14.6-27.7-1.5-41.7-.4-42-22.6-.2-20.4 14-20.6 42-20.6 30.7 0 41.4 0 43.8 22z"/><path d="m1394.2 789.6v78.8h14.2v-31h49c14 0 26.9-6.5 26.8-24.8-.1-19.2-15.1-23-26.8-23zm75.4 23c0 7.5-1.8 16.8-12.2 16.8h-49v-31.8h49c11.6 0 12.2 8.6 12.2 15z"/><path d="m1613 788.6c-45.1-.1-50.1 1.7-50 40.2-.1 38.5 4.9 40.3 50 40.2 45.1.1 50.1-1.7 50-40.2.1-38.5-4.9-40.3-50-40.2zm0 8c34.8 0 36.5 2 37 32.2-.5 30.2-2.2 32.2-37 32.2s-36.5-2-37-32.2c.5-30.2 2.2-32.2 37-32.2z"/><path id="c" d="m1750 789.6v78.8h14.2v-32l44.4.2c7.5 0 18 1.5 18 12.8v19h13.8v-18.8c0-10.7-3.6-12.9-13.2-16.8 8-1.5 15.7-9.2 15.6-20.2-.1-19.2-14.5-23-26.2-23zm14.2 8h52.4c11.6 0 12.2 8.6 12.2 15 0 7.5-5.6 16-16 16l-48.6-.2z"/><path d="m1919.8 789.6h92.2v7.8h-38.8v71h-13.8v-71h-39.6z"/><path d="m2234.4 789.6-44.8 78.8 15-.6 9-16.4h61.2l10.4 16.4 13.6.6-44.6-78.8zm10 6.6 26 48.2h-52.8z"/><path d="m2377.4 789.6h22l63.6 70.2v-70.2h14v78.8h-22l-64-71.2v71.2h-13.6z"/><path d="m2612 789.6h-46.4v78.8h46.4c37.5 0 52-4.2 52-40 .1-37.9-13-38.8-52-38.8zm0 7.8c28.9 0 38.1.4 38 31-.1 32.7-11.5 32.4-38 32.4h-32.4v-63.4z"/><path d="m2873.6 789.6.2 70.2h60v8.6h-74v-78.8z"/><path id="d" d="m3091.8 789.6v7.8h-62.6v26.4h59.6v7.4h-59.6v29.6h62.6v7.6h-76l.2-78.8z"/><path d="m3195.2 789.6v78.8h-13.2v-78.8z"/><use transform="translate(2063)" xlink:href="#b"/><path d="m3471.4 789.6v52.2c0 19.6 12.8 20 31.2 19.6 21.8-.1 34 .2 34-19.6v-52.2h14v52.2c0 24.9-6.9 27.1-48 27.2-36.8 0-45.3-2.7-45.2-27.2l.2-52.2z"/><use transform="translate(1890)" xlink:href="#c"/><use transform="translate(806)" xlink:href="#d"/><path d="m1208.4 711.2v20h2709.4v-20z"/></g></g></svg>