<svg viewBox="0 0 398 100" xmlns="http://www.w3.org/2000/svg" xmlns:xlink="http://www.w3.org/1999/xlink"><g id="figure" fill="#ed1b24"><g transform="scale(.1)"><path d="m523.2 20c-265 0-503.3 201.3-503.2 473.8.1 333.3 288.4 486.1 503 486.2 288.6.1 510.4-211.5 510.4-480v-27.6h-477.4v-452.4z"/><path d="m793 37.6c-111 0-201 91.2-201 203.8s90 203.8 201 203.8 201-91.2 201-203.8-90-203.8-201-203.8z"/><path d="m1419 132.4c82 .2 124.3 46 150 31.6 9.6-5.4 13.5-18.5 19.2-27.8l15.4-.4.6 158-12.2 6.5c-28.5-53.1-58-105.7-114.2-132.9-32.7-15.8-75.5-15.8-106.6 3.8-88.3 55.7-87.6 289.2-31.2 377.2 18.3 28.6 47.2 49.2 82.2 49.8 48.4.9 85.1.6 85-52.2l-.2-70.6c0-14.7-2.7-30.3-17.4-37.6-15.8-7.8-36.2-5.9-53.4-9.8l1-16.4h233.2l4.8 14.6c-20.6 7.1-51.8 5.6-57.4 31-8.9 40.1-4.5 81.6-5.2 123-53 32.2-127.3 42.7-188.4 42.8-149.7.2-245.3-105.2-245.2-243.6.1-146.4 109.8-247.4 240-247z"/><path id="a" d="m1850.8 282.4c-23.2 0-93.3 3.4-123.2 54.6-8.6 14.7-8.8 34.8-5.4 51 7 33.6 57.5 33.7 74.8 18.6 10.2-8.9 13.2-17.6 13.6-31.2.5-18-13.8-26.4-18.6-42.2-2.2-7.1 3.4-30.4 52.6-26.4 19.7 1.6 38 12.3 43.6 32.2 6.7 24 2.9 51 3.6 75.8-47.5 18.3-95.1 26.1-138.8 55.2-24.5 16.3-47.6 36.8-47.6 75.8s32.7 73.6 74.8 73.6c48.8 0 79.1-17.3 109.9-46.2 10.8 33.3 21.9 46.4 57.5 46.4 31.3 0 62-15.3 78.8-43l-10.6-7c-7.9 5.7-16.6 10.4-23.6 4.2-7.9-7-7.4-21.4-7.4-32v-158.2c0-85.8-81.3-101.1-134-101.2zm37.2 261c-13.5 18.1-34.6 32.7-57.4 24.4-16.7-6.1-24.8-25.7-24.6-42.6.7-51.6 58.4-80.1 82-82.2z"/><path d="m2330.4 337.2c0 17-8.7 35.5-24 42.8-11.7 5.6-27.9 5.2-40 .6-18.7-7.1-25.9-39.3-45.4-36.8-12.7 1.6-36.6 22.5-36.6 64.6v133.4c0 45.2 16.2 43.5 50.8 54l-1.8 14.6h-182.6l-1-14.6c26.5-12.3 39.2-11 39.2-54v-187.4c0-32.5-11.2-37-37.6-47.8l-.4-14.8h129.4l1 54.2c21.6-29.9 50.6-63.6 90.8-63.6 33.9 0 58.2 22.4 58.2 54.8z"/><path d="m2479.6 141.6v404.4c0 32.4 1.7 36.7 35 50.2l-1.6 14.2h-166.4l-.8-14.2c24.7-9.3 35.2-20.8 35.2-50.2v-341.2c0-32.4-11-37.4-36.8-45.8v-17.4z"/><use transform="translate(837)" xlink:href="#a"/><path d="m3016.4 335.8-1.2-44h-133.2l.4 14.8c32.5 9.7 37.6 15.3 37.6 47.8v187.4c0 33.4 2 37.9-37.2 54l1 14.6h165.6l1.8-14.6c-19.2-7.1-34.6-8.8-34.6-54v-170.4c0-15.5 33.8-40.4 58.2-40.6 22.8-.2 36.2 16.4 36.2 49v162c0 43-9.3 41.7-35.8 54l1 14.6h166l1.8-14.6c-42.7-13.2-36.6-20.3-36.6-54v-166.4c0-42.9-33.8-93.8-89.8-93.8-49.7 0-72.3 23.6-101.2 54.2z"/><path d="m3430 143.8v15c33.2 5.5 51 2.2 51 46v116.6c-23.6-20.7-50.7-40.5-83.4-39-35.2 1.7-128.9 28.9-128.6 178.4.3 131.8 88.7 158.6 123 158.6 55.2 0 70.1-26.9 92.2-42.8l.8 39.8c26.3-3.8 40.1-7.7 58.8-10.6 26.3-4.1 54.9-7 76.6-11.2v-7.8c-26.7-15-43-10.1-43-44.8v-398.2zm51.4 232.6-.2 124c-.1 39.6-16.6 78-58 78-50.5 0-52.8-85-53.2-118.4-1.6-130.6 37-137.2 60.8-137.6 25.3-.4 50.6 26.5 50.6 54z"/><path d="m3804.2 282.2c-75.1 0-155.8 63.7-155.8 168.6s80.7 170.6 155.8 170.6 155.8-65.7 155.8-170.6-80.7-168.6-155.8-168.6zm0 23.2c47 0 52.4 59.5 52.4 107.4v78c0 47.9-5.4 107.4-52.4 107.4s-52.4-59.5-52.4-107.4v-78c0-47.9 5.4-107.4 52.4-107.4z"/><path d="m1297.6 843.2h-5.4c-9.5 21.9-18.2 37.4-50.2 37.4-11.5 0-14.9-2.5-14.9-10.7v-89.9c0-14.8 3.1-17.1 19.2-17.7v-4.6h-66.5v4.6c12.4.8 16.3 3.8 16.3 13.7v92.1c0 9.9-2.9 12-16.3 13.6v4.7h110.1z"/><path id="b" d="m1382.4 862.7c-7.6 9.1-13.4 12.6-21.6 12.6-18.7-.5-21.7-20.9-22.7-35.6h48c-1.2-15.9-4-24.9-10.1-32.2s-15-11.1-25.7-11.1c-23.5 0-39.6 18.8-39.6 46.6s15.6 46.1 39.3 46.1c15.4 0 24.7-6 37.1-23.9zm-45.3-30c.6-22.9 3.9-30.5 13.4-30.5 5.4 0 9 2.8 10.5 8.9.9 3.7 1.6 12.3 1.6 18.7v2.9z"/><path id="c" d="m1482.8 874.1c-1.2 1.2-2.1 2.6-3.9 2.8-2.7 0-4.1-1.6-4.1-4.7v-49.8c0-16.1-14.4-26-37.7-26-21.6 0-36 9.7-36 23.9 0 8 4.4 12.6 12.2 12.6s13.1-4.5 13.1-11.1c0-6.4-5.7-8.9-5.7-12.4 0-3.9 5.3-7 12.1-7 11.1 0 15.9 5 15.9 16.7v14c-22.8 6.8-32 10.5-39 15.4-8.4 5.8-12.3 12.2-12.3 20.4 0 11.7 8.8 20.2 21.2 20.2 10.9 0 19.6-3.9 30.1-13.4 1.9 9.7 6.3 13.4 15.6 13.4 8.4 0 14.2-2.9 21.4-10.9zm-34.3-6.8c-5.3 6-8.9 8.2-13.6 8.2-5.8 0-9.7-5.2-9.7-12.8 0-10.9 7.9-18.9 23.3-23z"/><path id="d" d="m1591.7 878.2c-8.8-.6-11.3-3-11.3-11v-109.5h-40.9v4.4c11.6.8 14.4 1.8 14.4 11.1v34.8c-8.2-8.8-13.9-11.6-22.7-11.6-21 0-36.6 20.4-36.6 48 0 26.1 14.4 44.7 34.6 44.7 10.1 0 16.4-3.1 25.3-12.6v12.4c12.3-3.7 25.1-4.7 37.2-6.4zm-37.8-13.2c0 1.6-6.2 13.4-16.3 13.4s-14.8-11.3-14.8-35.6c0-24.5 5.1-35.7 16.2-35.7 6.4 0 12.4 4.6 14.9 11.6z"/><use transform="translate(291.9)" xlink:href="#b"/><path d="m1740.2 881.7c-11.5-.6-13.8-2.8-13.8-14.9v-36c0-9.9 5.3-18.1 11.5-18.1 5.4 0 5.9 11.1 16.9 11.1 7.2 0 12.1-5 12.1-12.4 0-8.6-6.5-15-15.4-15-9.9 0-16.8 4.7-25.9 17.7v-15.6h-35.9v4.5c7.8 1 10.3 3.8 10.3 11.3v56.2c0 7.5-2.1 10-10.3 11.2v4.7h50.5z"/><path d="m1867.4 881.7c-6.6-.6-8.9-3.5-8.9-10.7v-72.5h-36.6v4.5c8.4 1.6 9.9 3.5 10.1 11.3v56.2c-.2 8-1.5 9.4-10.1 11.2v4.7h45.5zm-22.4-126.9c-8.2 0-14.7 6.5-14.7 14.7 0 8.4 6.1 14.8 14.5 14.8 8.6 0 15-6.2 15-14.6s-6.6-14.9-14.8-14.9z"/><path id="e" d="m1975.9 881.7c-7-.4-9.3-3-9.3-10.6v-48.1c0-16.3-9.9-26.6-25.7-26.6-11.7 0-20 5-27.2 16.5v-14.4h-36.4v4.5c8.4 1.4 9.9 3.1 10.1 11.3v56.2c-.2 8.2-1.7 9.8-10.1 11.2v4.7h45.9v-4.7c-6.8-.8-9.3-3.7-9.3-10.7v-50.9c0-1.4 7.6-11.1 16.3-11.1 6.6 0 9.9 5.3 9.9 15.8v46.2c-.2 7.2-2.7 10.3-8.9 10.7v4.7h44.7z"/><path d="m2085.6 921.4c-11.3-.4-14.6-3.9-14.8-17.1v-26.8c9.1 8.9 14 11.4 22.4 11.4 21.6 0 36.7-19.8 36.7-48 0-26.6-14.2-44.5-35.4-44.5-11.5 0-18.1 4.2-24.1 15.3v-13.2h-36.3v4.5c8.4 1.4 10.1 3.3 10.3 11.3v95.6c-.2 7.8-1.8 9.5-10.7 10.9v4.7h51.9zm-14.8-100.9c0-2.6 7.1-13.4 16.3-13.4 10.1 0 14.6 11.4 14.6 36.3 0 23.7-5.2 35-16.3 35-6.2 0-11.7-4.4-14.6-11.6z"/><path id="f" d="m2185.9 796.4c-24.3 0-42.9 20-42.9 46.1 0 27.2 18 46.6 43.1 46.6 24.7 0 42.8-19.7 42.8-46.3 0-26.8-18.3-46.4-43-46.4zm.2 5.8c11.1 0 14.8 10.5 14.8 41.8 0 29.4-3.7 39.3-14.8 39.3-11.3 0-15.1-9.7-15.1-37.7 0-33.4 3.4-43.4 15.1-43.4z"/><use transform="translate(97.2)" xlink:href="#f"/><path id="g" d="m2380.8 881.7c-6 .2-9.4-3.6-9.4-11.2v-112.8h-36.1v4.4c6.4.4 9.5 3.9 9.7 11.1v97.3c-.2 7.2-3.7 11.2-9.7 11.2v4.7h45.5z"/><use transform="translate(1042.7)" xlink:href="#c"/><use transform="translate(659.2)" xlink:href="#e"/><use transform="translate(1150.8)" xlink:href="#d"/><path d="m2799.6 886.4h52.9v-4.7c-13.2-.2-15.3-2.3-15.5-14.9v-59.9h16.5v-8.4h-16.5v-23.1c0-10.5 2.7-14.8 9.5-14.8 3.3 0 5.4 1.4 5.4 3.5 0 3.1-4 6.3-4 11.1 0 6 4.8 10.5 11.2 10.5 7.2 0 11.9-4.9 11.9-11.9 0-11.3-11.1-19-27.2-19-12.6 0-22.6 4.6-27.8 12.8-4.1 6.6-5.5 14.4-5.5 30.9h-10.9v8.4h10.9v63.6c-.2 8.4-2.3 10.4-10.9 11.2z"/><use transform="translate(718.2)" xlink:href="#f"/><use transform="translate(815.4)" xlink:href="#f"/><path id="h" d="m3106.7 798.5h-17.9v-32.3h-4.9c-11.5 16.3-19.1 24.9-31.5 35.6v5.1h9.9v61.8c0 12.3 8.2 20 21.2 20 12.8 0 20.6-5.8 28.2-21.4l-4.6-2.1c-3.9 7.4-6.8 9.9-10.9 9.9-5.3 0-7.4-3.3-7.4-10.9v-57.3h17.9z"/><path id="i" d="m3117 762.1c8.6 1.6 10.3 3.5 10.5 11.1v115.7h2.3l15-10.7c8.8 8 15.6 10.9 25.1 10.9 25.5 0 43.2-19.6 43.2-48.2 0-26.3-14.6-44.5-36-44.5-9.1 0-16 3.1-23.2 10.7v-49.4h-36.9zm36.9 55.7c3.3-8 7.1-11.1 13.3-11.1 11.9 0 17.9 12.6 17.9 37.7 0 26.4-5.8 38.7-18.1 38.7-8 0-13.1-6.1-13.1-15.2z"/><use transform="translate(1829.3)" xlink:href="#c"/><use transform="translate(986.5)" xlink:href="#g"/><use transform="translate(1040.5)" xlink:href="#g"/><use transform="translate(426.9)" xlink:href="#h"/><use transform="translate(2149.7)" xlink:href="#c"/><use transform="translate(525.8)" xlink:href="#i"/><use transform="translate(1415.1)" xlink:href="#g"/><use transform="translate(2495.7)" xlink:href="#b"/><path d="m3953 824.4v-27.7h-4.3c-1 2.7-2.2 3.7-4.7 3.7-4.1 0-10.8-4-21-4-17.1 0-29.7 11.7-29.7 27.8 0 29.9 45.5 28.1 45.5 46.1 0 7.6-5.8 12.4-14.4 12.4-13.2 0-22.2-8.6-26.3-25.3h-5.2v31.5h4.8c1.9-4.3 3.1-5.4 4.9-5.4 3.2 0 13 5.6 25.1 5.6 17.3 0 29.3-11.8 29.3-28.9 0-31.9-44.7-27.3-44.7-46.5 0-6.4 5.3-11.1 12.7-11.1 10.8 0 19.9 9.4 23.1 21.8z"/></g></g></svg>