<svg viewBox="0 0 144 100" xmlns="http://www.w3.org/2000/svg" xmlns:xlink="http://www.w3.org/1999/xlink"><g fill="#1d1d1b"><path d="m76.3 70c0 .3-.1.4-.1.7h-1.7c0-.4 0-.6-.2-.9-.3-.3-.7-.5-1.1-.5-.6 0-1.2.2-1.5.7-.2.3-.4.8-.2 1.1.2.2.5.3.8.4.8.2 1.6.4 2.3.7.5.2 1 .7 1 1.3 0 .9-.4 3.8-4.1 3.8-.9 0-2.9-.2-2.9-2.1 0-.3 0-.6.1-.9h1.7c0 .3-.1.6.1.9.2.4.6.6 1 .6.5 0 1.2 0 1.7-.3.4-.2.6-.7.6-1.2 0-.3-.2-.5-.5-.6-.9-.4-1.8-.5-2.7-.9-.5-.2-.9-.7-.9-1.3 0-2 1.5-3.7 3.9-3.7 1.6 0 2.7.6 2.7 2.2z"/><path d="m78.4 68.1h1.8l-1.4 5.7c-.2.8-.3 1.9.7 2 1.9.2 2.2-1.3 2.4-1.9l1.5-5.7h1.7l-1.4 5.7c-.4 1.7-1.6 3.5-4.3 3.5-.9 0-2.7-.3-2.7-2.1 0-.4.1-1 .2-1.4z"/><path id="u" d="m86.8 68.2-2.3 9h1.8l.8-3.2h2.3c1 0 1.8-.6 2.4-1.4.5-.7.8-1.6.8-2.5 0-.5-.1-1.9-1.7-1.9zm3.1 1.6c.4 0 .9.2.9.7.1.8-.3 1.9-1.2 1.9h-2.1l.7-2.6z"/><use transform="translate(7.8)" xlink:href="#u"/><path d="m106 68.1c-1.1 0-2.8.4-3.9 1.9-1.3 1.6-1.5 3.9-1.5 4.7 0 2.4 1.9 2.9 3.1 2.9 1 0 2-.4 2.8-1 2.1-1.6 2.6-4.6 2.6-5.4 0-2.8-2.3-3.1-3.1-3.1zm-.3 1.6c.5 0 .9.1 1.2.5.9 1.2.1 3.8-.9 4.9-.5.6-1.2.9-2 .9-.5 0-1-.2-1.3-.6-.8-1.1-.1-3.3.6-4.3.9-1.3 2.1-1.4 2.4-1.4z"/><path d="m111.4 68.4-2.3 9.1h1.7l.9-3.6h2.2c.3 0 .6.2.6.5.1.5-.1 1.2-.2 1.7s-.2.9-.2 1.4h2c-.1-.2-.2-.5-.2-.7.1-.9.6-1.9.5-2.8 0-.4-.3-.6-.6-.8 1.1-.4 1.8-1.7 1.8-2.9 0-1.6-1.2-1.9-2-1.9zm1.3 1.6h2.3c.4 0 .7.2.8.6s-.1.9-.3 1.2c-.3.4-.8.6-1.3.6h-2.1z"/><path d="m119 68.4h6.8l-.4 1.7h-2.5l-1.9 7.4h-1.8l1.9-7.4h-2.5z"/></g><g fill="#312682"><path d="m24.2 2h117.8l-14.4 62.7h-117.8z"/></g><g fill="#fff"><path d="m30.3 7.5h15.9l.4.4-9.1 42.4h24.6l-2.7 11.4h-41.8z"/><path d="m76.8 7.6-12.1 54.7h17.2l4-18.5c5.4.1 10.9-.3 16.2-1.3 4.7-.9 11.5-2.7 14.9-6.6 4.9-5.5 5.3-11.8 5.3-14.1 0-4.2-1-7.9-4.5-10.5-4.5-3.3-11.2-3.6-14.7-3.6zm23 12.4c1.9 0 5.1.7 4.5 5.1-.6 4.1-3.5 5.2-7.3 5.9-2.7.5-5.5.4-8.2.2l2.7-11.2z"/><path d="m128.7 6.5c-3.4 0-6.1 2.7-6.1 6.1s2.7 6.1 6.1 6.1 6.1-2.7 6.1-6.1-2.7-6.1-6.1-6.1zm0 1c2.8 0 5 2.3 5 5.1s-2.2 5-5 5-5-2.2-5-5 2.2-5.1 5-5.1z"/><path d="m126.6 9.5v6.5h1.4v-2.5l2 2.5h1.6l-2-2.4c.5-.1.9-.3 1.3-.6.5-.5.9-1.4.6-2.1-.3-.8-1.1-1.3-2-1.4-1-.1-1.9 0-2.9 0zm3.2 2.8c-.5.3-1.3.3-1.9.3l.1-2c.6 0 1.3-.1 1.8.3s.5 1.1 0 1.4z"/></g><g fill="#e30713"><path d="m8.5 70.3h57.9v7.1h-59.5z"/><path d="m6 80.5h117.6l-1.6 6.7h-117.5z"/><path d="m121.2 91-1.7 7h-117.5l1.7-7z"/></g></svg>