<svg viewBox="0 0 1234 100" xmlns="http://www.w3.org/2000/svg"><g id="figure" fill="#fff"><path d="m124.7 2c-32.2 0-92.8 3.5-115.6 43.6-3.7 6.7-7.1 14.9-7.1 22.8 0 7.5.6 29.6 81.1 29.6 66.5 0 93.2-15.6 106.5-26.8 12.5-10.6 21.7-26.8 21.7-39.9 0-28.9-61.6-29.2-86.6-29.3zm30.3 34.6c-1.8 5.5-4.5 10.7-7 15.9-10.3 24.8-35.5 32.4-60.7 32.7-27.4.3-36.6-6.5-26.7-31.8 3.5-8.3 8-16.6 14.3-23.1 11.2-12.8 29-15.1 45.2-15.5 14.1-.6 40.1 1.3 34.9 21.8z"/><path d="m357.1 70.1 32.6-68.1h39.3l-46.3 96h-62.4l-50.6-72.3-34.8 72.2h-37.4l46.4-95.8h65.9z"/><path d="m446.7 2.1h158.2l-5.2 11h-105.1l-13.6 29h87l-5.8 12.7h-87.7l-14.5 30.4h106.5l-6 12.7h-160.3z"/><path d="m681.2 2 3.9 57.1 79.3-57h41.3l9.8 56.6 71.6-56.7h43l-124.1 95h-37.3l-11.2-61.5-88.6 61.5h-37.9l-6.3-95z"/><path d="m826.1 98h37.6l29-23.6h94.3l8 23.6h53.7l-35.3-95.9h-60.7zm156.3-36.5h-70.9l54.6-40.6z"/><path d="m1091.6 2.1 35.4 36 71.2-36.1h33.8l-99.5 50.6-19.8 45.4h-53.6l22.7-47.1-50.9-48.8z"/></g></svg>