<svg viewBox="0 0 464 100" xmlns="http://www.w3.org/2000/svg" xmlns:xlink="http://www.w3.org/1999/xlink"><g id="figure" fill="#fff"><path d="m72.2 20.9-16.7-16.6c-1.5-1.5-3.4-2.3-5.4-2.3s-4.1.8-5.6 2.3l-40.2 40.2c-1.5 1.5-2.3 3.4-2.3 5.4s.7 4 2.3 5.6l40.2 40.2c1.5 1.5 3.4 2.3 5.4 2.3s4-.8 5.6-2.3l16.7-16.6 16.6 16.6c1.5 1.5 3.6 2.3 5.6 2.3s4-.8 5.5-2.3l40.2-40.2c1.6-1.6 2.3-3.6 2.3-5.6s-.8-3.9-2.3-5.4l-40.2-40.2c-1.5-1.5-3.5-2.3-5.5-2.3s-4.1.8-5.6 2.3zm-3.3 18.3 24-23.9c.8-.8 2.1-.8 2.9 0l33.3 33.2c.8.8.8 2.2 0 3l-33.3 33.2c-.8.8-2.1.8-2.9 0l-13.2-13.2 21.6-21.5-7.6-7.6-10.7 10.8zm-20.4 45.5-33.2-33.2c-.8-.8-.8-2.2 0-3l33.2-33.2c.8-.8 2.2-.8 3 0l13.1 13.2-21.5 21.5 7.5 7.5 10.8-10.7 14 14-23.9 23.9c-.4.4-2 1-3 0z"/><path d="m169.8 64.5v-1.2h292.2v1.2z"/><path d="m196.9 12.3v17.6h-17.1v-17.6h-9.7v42.2h9.7v-16.6h17.1v16.6h9.6v-42.2z"/><path id="c1" d="m218.1 33.1c0 12.6 9.9 21.8 22.6 21.8s22.6-9.2 22.6-21.8-9.9-21.8-22.6-21.8-22.6 9.2-22.6 21.8zm9.8 0c0-7.5 5.5-13.6 12.8-13.6s12.8 6.1 12.8 13.6-5.5 13.6-12.8 13.6-12.8-6.1-12.8-13.6z"/><path d="m274.9 12.3v42.2h28v-8.4h-18.4v-33.8z"/><use transform="matrix(1 0 0 1 91.6 0)" xlink:href="#c1"/><path d="m366.5 12.3v42.2h9.6v-16.6h19v-8.2h-19v-9.2h20v-8.2z"/><path d="m407.7 54.5h9.6v-42.2h-9.6z"/><path d="m427.7 12.3v8.1h12.2v34.1h9.7v-34.1h12.1v-8.1z"/><path d="m170.1 85.6v-9.9c0-.4.1-1.5 1.6-1.5h7.4v1.7h-6.4c-.3 0-.5.1-.5.6v2.5h5v1.7h-5v4.9z"/><path d="m186.2 74.2h2.2v11.4h-2.2z"/><path d="m199.7 85.6v-9.7h-4.4v-1.7h10.9v1.7h-4.4v9.7z"/><path id="c2" d="m224 84.1c0 1.1-.8 1.6-1.7 1.6-.7 0-1.3-.1-1.8-.9l-4.8-7.6c-.3-.4-.5-.2-.5 0v8.4h-2.1v-10c0-1 .7-1.5 1.8-1.5 1 0 1.5.4 1.8.9l4.8 7.6c.3.5.4.2.4 0v-8.4h2.1z"/><path id="c3" d="m233.7 85.6c-.8 0-1.7-.1-1.7-1.7v-8c0-1.2.7-1.7 1.8-1.7h7.2v1.7h-6.1c-.7 0-.7.4-.7.8v2.2h6.7v1.7h-6.7v2.7c0 .6.2.6.8.6h6.1v1.7z"/><path id="c4" d="m248.3 83.9h6.3c1 0 1.1-.9 1.1-1.3 0-.5-.1-.9-1.1-1.2l-4.5-1.5c-1.8-.6-2-1.9-2-2.9 0-1.4.6-2.8 2.7-2.8h6.5v1.7h-5.8c-.5 0-1.2.1-1.2 1.2 0 .5.2.9 1.1 1.2l4.1 1.4c1.2.4 2.4.8 2.4 2.9 0 2-.9 3-2.6 3h-7z"/><use transform="matrix(1 0 0 1 16.7 0)" xlink:href="#c4"/><path d="m282.2 83.5h1.9v2.1h-1.9z"/><path d="m292.2 76.2c0-1.3.7-2 1.8-2h5.4c2 0 3 1 3 3.6 0 1.7-.4 3.7-2.7 3.7h-1.4v.1l4.3 4h-2.7l-3.7-3.7c-.2-.2-.6-.7-.6-1v-.3c0-.4.4-.7 1-.7h2.1c1.1 0 1.5-.5 1.5-2.1 0-1.7-.6-1.9-1.6-1.9h-3.5c-.8 0-.8.5-.8.8v8.9h-2.1z"/><use transform="matrix(1 0 0 1 78.1 0)" xlink:href="#c3"/><path d="m326.7 74.2h2.2v11.4h-2.2z"/><use transform="matrix(1 0 0 1 123.8 0)" xlink:href="#c2"/><path d="m360.1 83.4c.1.3.3.3.4 0l3.4-9.2h2.3l-4.1 10.3c-.2.5-.7 1.2-1.8 1.2-.5 0-1.4-.1-1.8-1.2l-4.1-10.3h2.3z"/><use transform="matrix(1 0 0 1 140.8 0)" xlink:href="#c3"/><use transform="matrix(1 0 0 1 176.3 0)" xlink:href="#c2"/><path d="m411.6 85.6v-9.7h-4.4v-1.7h10.9v1.7h-4.4v9.7z"/><use transform="matrix(1 0 0 1 193.1 0)" xlink:href="#c3"/><path d="m443.8 83.1c0 .5.1.8.7.8h2.5c2.2 0 3-1 3-4.3 0-1.4-.1-3.7-3.2-3.7h-2.2c-.6 0-.8.3-.8.7zm-.4 2.5c-.6 0-1.7-.1-1.7-1.5v-8c0-1.5.7-1.9 1.5-1.9h4.8c3.4 0 4.2 2.9 4.2 5.4 0 2.1-.2 6-4.2 6z"/><path d="m459.9 83.5h1.9v2.1h-1.9z"/></g></svg>