<svg viewBox="0 0 100 100" xmlns="http://www.w3.org/2000/svg"><g id="figure" fill="#fff"><g transform="scale(.1)"><path d="m500 301-114.2-113.5c-10.3-10.2-23.2-15.7-36.9-15.7s-28 5.4-38.3 15.7l-274.9 274.9c-10.3 10.3-15.7 23.2-15.7 36.9s4.8 27.4 15.7 38.3l274.9 274.9c10.3 10.3 23.2 15.7 36.9 15.7s27.7-5.1 38.3-15.7l114.2-113.5 113.5 113.5c10.3 10.3 24.6 15.7 38.3 15.7s27.3-5.4 37.6-15.7l274.9-274.9c10.9-10.9 15.7-24.6 15.7-38.3s-5.4-26.6-15.7-36.9l-274.9-274.9c-10.3-10.3-23.9-15.7-37.6-15.7s-28 5.4-38.3 15.7zm-22.6 125.2 164.1-163.5c5.5-5.5 14.4-5.5 19.9 0l227.7 227c5.5 5.5 5.5 15.1 0 20.6l-227.7 227c-5.5 5.5-14.4 5.5-19.9 0l-90.2-90.3 147.7-147-52-52-73.2 73.9zm-139.5 311.1-227-227c-5.5-5.5-5.5-15.1 0-20.6l227-227c5.5-5.5 15.2-5.5 20.6 0l89.5 90.3-147 147 51.3 51.3 73.9-73.2 95.7 95.7-163.4 163.5c-2.7 2.7-13.8 6.8-20.6 0z"/></g></g></svg>