<svg viewBox="0 0 167 100" xmlns="http://www.w3.org/2000/svg" xmlns:xlink="http://www.w3.org/1999/xlink"><defs><linearGradient id="f1" x1="0" x2="1" y1="51.5" y2=".5" gradientUnits="userSpaceOnUse"><stop offset="0" stop-color="#f25939"/><stop offset=".1" stop-color="#f25939"/><stop offset="1" stop-color="#ef3330"/></linearGradient></defs><g fill="url(#f1)"><path d="m85.2 11.9-8.7-8.7c-.8-.8-1.9-1.2-2.9-1.2-1.1 0-2.1.4-2.9 1.2l-21 21c-.8.8-1.2 1.9-1.2 2.9 0 1.1.4 2.1 1.2 2.9l21 21c.8.8 1.8 1.2 2.8 1.2 1.1 0 2.1-.4 2.9-1.2l8.8-8.7 8.6 8.7c.8.8 1.9 1.2 2.9 1.2 1.1 0 2.2-.4 3-1.2l21-21c.8-.8 1.1-1.8 1.1-2.9 0-1-.3-2.1-1.1-2.9l-21-21c-.8-.8-1.8-1.2-2.9-1.2s-2.1.4-2.9 1.2zm-1.7 9.6 12.5-12.6c.4-.4 1.1-.3 1.5.1l17.4 17.3c.4.4.4 1.2 0 1.6l-17.4 17.3c-.4.4-1.1.4-1.5 0l-6.9-6.8 11.3-11.3-4-4-5.6 5.7zm-28 6.4c-.4-.4-.5-1.2-.1-1.6l17.4-17.3c.4-.4 1.1-.4 1.5 0l6.9 6.8-11.3 11.3 4 3.9 5.6-5.6 7.3 7.3-12.5 12.5c-.4.4-1.1.4-1.5 0z"/></g><g fill="#f9f9f9"><path d="m2 86.7v-.8h163v.8z"/><path d="m16 59.3v9.2h-9v-9.2h-5v22.1h5v-8.7h9v8.7h5v-22.1z"/><path id="u1" d="m27.1 70.2c0 6.6 5.2 11.4 11.8 11.4s11.8-4.8 11.8-11.4-5.2-11.4-11.8-11.4-11.8 4.8-11.8 11.4zm5.1 0c0-3.9 2.8-7.1 6.6-7.1s6.8 3.2 6.8 7.1-2.9 7.1-6.7 7.1-6.7-3.2-6.7-7.1z"/><path d="m56.8 59.3v22.1h14.6v-4.4h-9.6v-17.7z"/><use transform="translate(47.9)" xlink:href="#u1"/><path d="m104.7 59.3v22.1h7.7c4.3 0 7.5-1 9.6-3s3.1-4.8 3.1-8.2-1.1-6.1-3.2-8-5.3-2.9-9.3-2.9zm5 4.3h2.8c2.6 0 4.5.6 5.7 1.8s1.8 2.8 1.8 5-.6 3.8-1.8 4.9-3 1.7-5.3 1.7h-3.2z"/><path d="m131.3 81.4h5v-22.1h-5z"/><path d="m150.4 59.3-9.7 22.1h5.3l2.1-4.8h9.5l2.1 4.8h5.3l-9.7-22.1zm2.5 6.6 2.8 6.4h-5.7z"/></g><g fill="#ec683a"><path d="m2.1 97.9v-5.6c0-.3.1-.9.9-.9h4.3v1h-3.7c-.2 0-.3.1-.3.3v1.4h2.9v1h-2.9v2.8z"/><path d="m11.1 91.4h1.2v6.5h-1.2z"/><path d="m18.5 97.9v-5.5h-2.5v-1h6.3v1h-2.5v5.5z"/><path id="u2" d="m32.3 97.1c0 .7-.5.9-1 .9-.4 0-.8-.1-1.1-.6l-2.7-4.3c-.2-.3-.3-.2-.3 0v4.8h-1.2v-5.7c0-.6.4-.9 1-.9s.8.2 1 .5l2.8 4.4c.2.3.3.2.3 0v-4.8h1.2z"/><path id="u3" d="m37.6 97.9c-.5 0-1-.1-1-1v-4.6c0-.6.4-.9 1-.9h4.2v1h-3.5c-.4 0-.5.2-.5.4v1.3h3.9v1h-3.9v1.5c0 .3.3.3.6.3h3.4v1z"/><path id="u4" d="m45.7 96.9h3.6c.6 0 .6-.5.6-.7 0-.3-.1-.5-.7-.7l-2.5-.8c-1-.3-1.1-1.1-1.1-1.7 0-.8.3-1.6 1.5-1.6h3.8v1h-3.4c-.3 0-.6 0-.6.6 0 .3.1.5.6.7l2.3.8c.7.2 1.4.5 1.4 1.7 0 1-.5 1.7-1.5 1.7h-4z"/><use transform="translate(9.4)" xlink:href="#u4"/><path d="m64.6 96.7h1.2v1.2h-1.2z"/><path d="m70.1 92.5c0-.7.4-1.1 1.1-1.1h3.1c1.2 0 1.7.5 1.7 2 0 1-.2 2.2-1.5 2.2h-.9l2.5 2.3h-1.5l-2.2-2.1c-.1-.1-.3-.3-.3-.5v-.2c0-.3.2-.4.6-.4h1.2c.6 0 .8-.3.8-1.2 0-1-.3-1.1-.9-1.1h-2c-.4 0-.5.2-.5.4v5.1h-1.2z"/><use transform="translate(43.6)" xlink:href="#u3"/><path d="m89.5 91.4h1.2v6.5h-1.2z"/><use transform="translate(69)" xlink:href="#u2"/><path d="m108.1 96.7c.1.2.2.2.3 0l1.9-5.3h1.3l-2.3 5.9c-.3.7-.8.7-1.1.7s-.7-.1-1-.7l-2.4-5.9h1.3z"/><use transform="translate(78.5)" xlink:href="#u3"/><use transform="translate(98.4)" xlink:href="#u2"/><path d="m136.9 97.9v-5.5h-2.5v-1h6.3v1h-2.5v5.5z"/><use transform="translate(107.8)" xlink:href="#u3"/><path d="m154.9 96.5c0 .3 0 .4.4.4h1.4c.7 0 1.1-.1 1.4-.6.2-.3.4-.7.4-1.8 0-.6-.1-1.3-.5-1.7s-1-.4-1.4-.4h-1.3c-.3 0-.4.1-.4.4zm-.2 1.4c-.4 0-1-.1-1-.9v-4.6c0-.8.4-1 .9-1h2.6c.9 0 1.4.2 1.9.8s.6 1.6.6 2.4c0 .7 0 1.8-.5 2.5-.3.3-.9.8-1.9.8z"/><path d="m163.7 96.7h1.2v1.2h-1.2z"/></g></svg>