<svg viewBox="0 0 157 100" xmlns="http://www.w3.org/2000/svg" xmlns:xlink="http://www.w3.org/1999/xlink"><g id="figure"><path d="m87.2 3.2-8.7 8.7-8.8-8.7c-.8-.8-1.9-1.2-3-1.2s-2 .4-2.8 1.2l-21 21.1c-.8.8-1.2 1.7-1.2 2.7 0 1.1.4 2.3 1.2 3.1l21 21c.8.8 1.9 1.2 3 1.2 1 0 2-.4 2.8-1.2l8.8-8.7 8.7 8.7c.8.8 1.9 1.2 3 1.2 1 0 2.1-.4 2.9-1.2l21-21c.8-.8 1.2-2 1.2-3.1 0-1-.4-1.9-1.2-2.7l-21.1-21.1c-.8-.8-1.8-1.2-2.8-1.2-.8 0-2 .2-3 1.2zm2.1 5.8c.4-.4 1.2-.4 1.6 0l17.4 17.4c.4.4.4 1.1 0 1.5l-17.4 17.5c-.4.4-1.1.4-1.5 0l-7-6.9 11.3-11.3-4-4-5.6 5.7-7.3-7.4zm-40.7 18.9c-.4-.4-.4-1.1 0-1.5l17.5-17.4c.4-.4 1.1-.4 1.5 0l6.9 6.9-11.3 11.3 4 3.9 5.6-5.6 7.4 7.3-12.6 12.6c-.4.4-1.1.4-1.5 0z" /><path d="m2 86.9v-.7h153v.7z"/><path d="m16 59.5v9.2h-9v-9.2h-5v22.1h5v-8.7h9v8.7h5v-22.1z"/><path id="u1" d="m27.1 70.4c0 6.6 5.2 11.4 11.9 11.4s11.8-4.8 11.8-11.4-5.1-11.4-11.8-11.4-11.9 4.8-11.9 11.4zm5.2 0c0-3.9 2.8-7.1 6.7-7.1s6.7 3.2 6.7 7.1-2.9 7.1-6.7 7.1-6.7-3.2-6.7-7.1z"/><path d="m56.9 59.5v22.1h14.7v-4.4h-9.6v-17.7z"/><use transform="matrix(1 0 0 1 48.1 0)" xlink:href="#u1"/><path d="m105 59.5v22.1h5v-8.6h9.9v-4.4h-9.9v-4.8h10.5v-4.3z"/><path d="m126.6 81.6h5.1v-22.1h-5.1z"/><path d="m137.2 59.5v4.3h6.4v17.8h5v-17.8h6.4v-4.3z"/><path d="m2.5 97.9v-5.1c0-.2 0-.8.8-.8h3.9v.9h-3.3c-.1 0-.3 0-.3.3v1.3h2.6v.9h-2.6v2.5z"/><path d="m10.9 92h1.1v5.9h-1.1z"/><path d="m18 97.9v-5h-2.3v-.9h5.7v.9h-2.3v5z"/><path id="u2" d="m30.7 97.2c0 .6-.4.8-.9.8-.4 0-.6-.1-.9-.5l-2.5-4c-.1-.2-.3-.1-.3.1v4.3h-1.1v-5.2c0-.5.4-.8 1-.8.5 0 .7.2.9.5l2.5 4c.1.2.2.2.2 0v-4.4h1.1z"/><path id="u3" d="m35.9 97.9c-.4 0-1-.1-1-.9v-4.2c0-.6.4-.8 1-.8h3.8v.9h-3.2c-.3 0-.4.2-.4.4v1.2h3.5v.8h-3.5v1.4c0 .3.1.3.4.3h3.2v.9z"/><path id="u4" d="m43.5 97h3.3c.5 0 .5-.5.5-.7s0-.5-.5-.6l-2.4-.8c-.9-.3-1-.9-1-1.5 0-.7.3-1.4 1.4-1.4h3.4v.9h-3.1c-.3 0-.6 0-.6.6 0 .3.1.4.6.6l2.2.7c.6.2 1.2.5 1.2 1.6 0 .9-.5 1.5-1.4 1.5h-3.6z"/><use transform="translate(8.8)" xlink:href="#u4"/><path d="m61.2 96.8h1.1v1.1h-1.1z"/><path d="m66.5 93c0-.7.3-1 .9-1h2.9c1.1 0 1.5.4 1.5 1.8 0 .9-.1 2-1.3 2h-.8v.1l2.2 2h-1.4l-1.9-1.9c-.1-.1-.3-.3-.3-.5v-.2c0-.2.2-.3.5-.3h1.1c.6 0 .8-.3.8-1.1 0-.9-.4-1-.9-1h-1.8c-.4 0-.4.2-.4.4v4.6h-1.1z"/><use transform="translate(41)" xlink:href="#u3"/><path d="m84.6 92h1.1v5.9h-1.1z"/><use transform="translate(64.9)" xlink:href="#u2"/><path d="m102.1 96.8c.1.2.1.2.2 0l1.8-4.8h1.2l-2.1 5.3c-.1.3-.4.7-1 .7-.5 0-.9-.4-1-.7l-2.1-5.3h1.2z"/><use transform="translate(73.9)" xlink:href="#u3"/><use transform="translate(92.5)" xlink:href="#u2"/><path d="m129.1 97.9v-5h-2.3v-.9h5.7v.9h-2.3v5z"/><use transform="translate(101.2)" xlink:href="#u3"/><path d="m146 96.6c0 .3.1.4.4.4h1.3c.6 0 .9-.1 1.2-.5.1-.2.3-.7.3-1.7 0-.5 0-1.1-.4-1.5-.3-.4-.8-.4-1.2-.4h-1.2c-.3 0-.4.1-.4.3zm-.2 1.3c-.3 0-.9 0-.9-.7v-4.3c0-.8.4-.9.8-.9h2.4c.8 0 1.3.3 1.7.7.6.6.6 1.5.6 2.2 0 .6 0 1.7-.5 2.3-.2.3-.8.7-1.7.7z"/><path d="m154.4 96.8h1.1v1.1h-1.1z"/></g></svg>