<svg viewBox="0 0 358 100" xmlns="http://www.w3.org/2000/svg" xmlns:xlink="http://www.w3.org/1999/xlink"><g id="figure"><g fill="#fff"><path d="m50.7 16.7c0-12.1-12.6-13.4-12.6-13.4h-35.7s5.2.6 5.2 5.7l-.3 47.7s.8 6.4-5.4 8.3l40.5-8.3s8.6-2.2 8.6-13.4c0-10.5-8.7-13.8-8.7-13.8 8.5-4.4 8.4-12.8 8.4-12.8zm-30 35.7c2.7-1.1 2.7-4 2.7-4v-17.2c5.6 0 13.1 4.6 13.1 11.3 0 6.4-5.4 7.8-5.4 7.8zm2.7-24.1v-12.1c0-3.5-3-4.8-3-4.8l11 .3c1.3.1 5.7.5 5.4 7.7-.3 7-13.4 8.9-13.4 8.9z"/><path id="a" d="m53.4 33.6c0 17.4 11.8 31.7 26 31.7 14.5 0 26-14.3 26-31.7s-11.5-31.6-26-31.6-26 14.2-26 31.6zm16.6 0c0-13.7 4.3-24.9 9.4-24.9 5.4 0 9.4 11.2 9.4 24.9.3 13.7-4 25-9.4 25s-9.4-11.3-9.4-25z"/><use transform="translate(55.8)" xlink:href="#a"/><path d="m172.4 65.3 20.1-4.3s16.9-3.2 16.9-16.9c0-19.5-30-13-30-28.4 0 0 .6-4.6 6.2-4.6h29.7s3.5-.5 3.5 5.4v43.2s.3 2.7-5.6 5.1l18.2-3.8s2.9-.3 2.9-5.6v-39.2s.2-4.5-1.7-4.5h12.7s4.5-4.6 5.3-8.4h-70.5s-18 .3-18 13.2c.1 17.4 26.8 17.2 26.8 30 0 5.9-5 7.2-10.1 8.3-5.1 1.3-16.7 3.8-16.7 3.8z"/><path d="m252.3 3.6s4.8.8 4.8 4.8v42.9s.8 4.1-5.6 7l39.7 7 12.6-8.6s-6.2.8-12.9 0-19.8-2.7-19.8-2.7 1.9-1.6 1.9-2.4v-15.3h17.4l3.5-8.8h-20.7v-11.3s-.3-4.3-1.6-4.3h28.7v-8z"/><path d="m356.1 60.7c-4 0-4.8-4.8-4.8-4.8v-13.1c0-8.6-8.6-12.6-8.6-12.6s8.6-2.2 8.6-14c0-13.7-16.1-12.6-16.1-12.6h-33c6.2.5 5.9 4.6 5.9 4.6v49.6c0 5.4-5.6 7.8-5.6 7.8s13.6-2.5 17.9-3.8 3.8-5.9 3.8-5.9v-24.4c13.4 0 13.7 14.2 13.7 14.2v15zm-31.9-45.6s-.3-2.9-3-3.4h10.5s6.2-.3 6.2 6.1c0 6.2-9.4 10.7-13.7 10.7z"/><path d="m5.2 81.7s0-3 4.6-3h21.2s-1.1 2.7-4.9 2.7h-13.9v2.7h14.5s0 2.6-4.3 2.6h-10.5v3.5c0 .3.3 2.7-6.7 2.7z"/><path d="m46.8 76v2.4h5.9v-2.4zm-.3 4.8v11.8c5.9 0 6.2-2.9 6.2-2.9v-8.9z"/><path d="m91 80.8h-15c-6.7 0-7 2.7-7 2.7v5.4c0 3.2 5.4 4 5.4 4h10.2v2.7h-4.3c-3.5 0-4 2.4-4 2.4h10.2c4.5 0 4.5-4 4.5-4zm-6.1 10h-9.4v-7.5h9.4z"/><path d="m106.9 92.6v-13.4s0-3.2 6.4-3.2v4.6h9.4s6.4.3 6.4 5.1v7.2s-6.4-.8-6.4-2.9v-6.7h-8.9v9.3z"/><path d="m154.9 83.3v7.5h4.8c0 1.7-3.8 1.8-3.8 1.8h-3.5c-3.5 0-3.7-2.9-3.7-2.9v-6.4h-3.5v-2.5h3.5v-4.8s6.4 0 6.4 2.7v2.1h4.6c-.3 0-.9 2.5-3.8 2.5z"/><path d="m213.6 89.2s0 3.7 4 3.7h19.8s4.3-.3 4.3-2.7v-5.6h-18.2s1.1 2.9 4.6 2.9h6.7v2.7h-14v-8.3h21.5s-3-3.2-5.4-3.2h-19c-1.6 0-4.3.8-4.3 3.2z"/><path d="m275.3 88.1c3.8 0 4-1.6 4-1.6v-2.7c0-2.7-4.3-3-4.3-3h-12.1c-5.1 0-5.3 3.3-5.3 3.3v5.6c0 2.1 4.5 2.9 4.5 2.9h12.9c2.7 0 4.6-2.1 4.6-2.1h-15.9v-2.4zm-12.1-2.2v-2.6h9.6v2.6z"/><path d="m297 80.8c0 1.9 3.5 2.5 3.5 2.5h10.2v2.6h-12.7c-2.7 0-2.9 2.2-2.9 2.2v2.4c0 1.9 4 2.1 4 2.1h18v-8c0-3.6-4.9-3.8-4.9-3.8zm13.7 9.7h-9.4v-2.4h9.4z"/><path d="m332.9 92.9h6.2v-9.4h7.8s1.1 1.9 2.4 1.9h3.5v-1.6s-1.1-3.2-8.1-3.2c0 0-4.8 0-6.1 1.6.3 0-1.9-1.7-5.7-1.7z"/></g></g></svg>