<svg viewBox="0 0 136 100" xmlns="http://www.w3.org/2000/svg" xmlns:xlink="http://www.w3.org/1999/xlink"><defs><path id="p1" d="m2 2 22.75 16.85 9.41-.1.54 39.38.62-.88 28.21 23.49-.21-41.32.47-.01.33-8.94h.35l.01-11.06 17.69-.09.01-.27 9.92.06 8.85 6.51.24 11.06-18.73 9.27 20.02 10.09.73 18.07-12.8 9.04-24.5.06 17.02 12.8 29.75-.14 20.7-13.31-.69-29.42-19.26-8.42 12.22-6.82.12-19.87-21.87-15.74z"/><mask id="m1"><use xlink:href="#p1" fill="#fff"/><path d="m11.41 4.51 15.35 11.22 10.81-.08v39.67l22.9 19.21-19.66-20.2.16-40.75-12.01.09zm90.43 20.7-.41.53.3 11.17-18.17 8.93 18.99 9.7v-.77l-17.76-8.86 17.28-8.76zm4.07.93-.67 11.68-15.64 8.4 16.38 8.35.58 11.8 1.75-13.18-14.88-7.52 13.81-6.78zm23.53 55.79-17.75 9.98-25.4-.09-13.23-7.15 11.8 9.35 27.35.09z"/><path d="m10.16 4.19-.96 1.04.09.09 1.04-1.13zm5.91 0-3.34 3.49.09.09 3.43-3.58zm5.85 0-5.9 5.99.09.09 5.99-6.07zm5.59 0-7.93 8.44.09.09 8-8.52zm5.93 0-10.61 10.94.09.09 10.7-11.03zm5.86 0-12.45 12.8.09.09 12.55-12.89zm5.75 0-12.21 12.77.09.09 12.3-12.86zm5.85 0-15.02 15.34.09.09 15.12-15.43zm5.9 0-20.64 21.29.09.09 20.74-21.37zm5.65 0-26.09 27.28.09.09 26.19-27.37zm5.82 0-26.4 27.35h.17l26.43-27.35zm5.74 0-26.24 27.35h.17l26.27-27.35zm5.9 0-12.36 12.89h.19l12.36-12.89zm6.06 0-12.61 12.89h.17l12.64-12.89zm5.69 0-12.45 12.89h.17l12.47-12.89zm5.9 0-12.58 12.89h.17l12.58-12.85-.05-.04zm5.83 0-12.14 12.54.1.07 12.16-12.57-.05-.04zm3.33 2.38-11.95 12.64.1.07 11.94-12.63zm3.49 2.5-12.05 12.49.1.07 12.05-12.49h-.01zm3.37 2.54-11.93 12.41.1.07 11.93-12.41zm3.29 2.56-14.51 15.01.09.09 14.51-15.01zm3.49 2.54-13.72 14.13.09.09 13.73-14.14zm3.39 2.55-14.7 14.98.05.04h.09l14.67-14.93zm-61.6 3.43-8.52 8.86h.17l8.44-8.77zm61.82 2.29-9.12 9.32h.17l9.03-9.23zm-61.66 3.79-2.7 2.78h.17l2.62-2.7zm61.82 2.41-3.2 3.12h.17l3.11-3.03z"/></mask><g id="p2"><path d="m33.61 67.13-.1 9.59 24.93 21.28 22.45-.15-45.8-38.01.14 1.74 40.27 33.56-17.13-.07-24.26-19.99-.09-7.87z"/><path d="m67.43 89.49q.21.17.32.46.11.27.05.57-.06.3-.25.51-.19.21-.47.32-.28.1-.57.05-.28-.06-.51-.25-.21-.19-.32-.46-.1-.28-.04-.57.06-.3.25-.51.19-.22.47-.32.28-.1.57-.04.3.06.5.25zm-.12.14q-.17-.15-.42-.2-.25-.05-.48.04-.24.09-.4.27-.15.19-.21.42-.05.25.04.48.09.24.27.38.19.15.42.2.25.05.47-.04.24-.09.38-.27.16-.19.2-.43.05-.25-.04-.48-.09-.24-.26-.38zm-1.35.84.77-.89.31.26q.16.14.21.22.05.09.04.19-.01.1-.07.16-.09.1-.22.11-.14.01-.26-.07.03.06.04.11.01.1-.03.28l-.04.27-.17-.15.04-.21q.05-.25.03-.33-.01-.06-.09-.14l-.09-.07-.32.38zm.58-.38.17.15q.12.11.2.11.07 0 .14-.06.04-.04.04-.09 0-.05-.03-.1-.03-.05-.14-.14l-.16-.14z"/><path d="m40.33 67.15-3.66 4.16.99.84 3.55-4.22zm1.03.9-.59.71.98.85c.4.32-.1 1.18-.63.78l-1.05-.8-.77.89 1.04.9c.4.32-.1 1.18-.63.78l-1.11-.84-.8.94 1.18.99c1.58 1.32 3.32-.85 2.15-2.15.99.95 3.11-.71.99-2.39z"/><path d="m48.65 74.92c-.51-.01-1.09.16-1.79.63-1.44 1.01-1.39 3.03-.25 4.31l.71-.85c-.37-.75-.45-1.68.24-2.51.72-.64 1.55-.52 2.02-.19l.67-.8c-.43-.33-.95-.57-1.58-.58zm1.77.71-.71.85c.76.67.55 1.69-.24 2.51-.68.62-1.56.51-2.02.16-.22.26-.47.56-.68.83.77.61 1.79 1.01 3.4-.05 1.46-1.14 1.52-3.18.25-4.31z"/><path d="m44.3 71.06c-.51-.01-1.09.16-1.79.63-1.44 1.01-1.39 3.03-.25 4.31l.71-.85c-.37-.75-.45-1.68.24-2.51.72-.64 1.53-.52 2-.19l.67-.79c-.42-.33-.94-.57-1.58-.58zm1.77.71-.71.85c.58.74.53 1.73-.24 2.51-.74.66-1.58.51-2.04.16-.22.26-.43.52-.64.79.77.61 1.78 1.05 3.38-.01 1.46-1.14 1.39-3.02.25-4.31z"/><path d="m52.56 78.27c-.33.01-.64.11-.89.31-.76.73-.78 1.45.4 2.59l.66-.78c-.85-1.24.35-1.32.87-1.06l.5-.59c-.46-.31-1.03-.5-1.54-.47zm1.71.61-.5.58c.46.43.33.95.06 1.25l.79.69c.24-.75.78-1.45-.36-2.52zm-4.29 1.42c-.64 1.61.42 2.6.57 2.72l.56-.67c-.51-.45-.41-1.05-.38-1.63zm2.88.26-.63.75c1.11 1.2.27 1.95-.98 1.15l-.56.67c.73.54 1.91.9 2.54.28.88-1.03.32-1.95-.37-2.86z"/><path d="m56.04 80.4-.77.96 2.93 2.57.85-.95zm.15 2-2.61 3.18.94.73 2.62-3.12z"/><path d="m59.48 83.35-3.56 4.12 1 .83 3.49-4.16zm1.08.93-.58.73 1.72 1.47.61-.73zm-1.4 1.58-.58.73 1.72 1.47.61-.73zm-1.5 1.79-.58.73 1.72 1.47.61-.73z"/><path d="m62.83 86.11-3.59 4.13 1 .83 3.53-4.21zm1.16.89-.62.72.56.48c.9.83-.09 2.13-1.08 1.3l-.59-.49-.63.69.62.52c.78.67-.15 1.57-.58 2.08l.84.69c.72-.72 1.11-1.35 1.08-2.56 1.47.58 2.34-1.78 1.35-2.59z"/><path d="m40.21 75.18-1.35 1.58.32.28.56-.64.59.51.24-.27-.59-.51.32-.37.89.77.25-.28zm1.86 1.6-1.35 1.58.32.28 1.35-1.58zm1.08 1.25c-.05 0-.1.01-.15.01-.42.06-.79.41-.87.83-.09.38.07.8.37 1.05.04.03.07.06.11.09.28.2.69.24 1 .07.19-.09.34-.24.46-.38-.27-.24-.54-.47-.82-.71-.09.1-.16.19-.25.28.15.12.3.25.43.37.06.05-.11.1-.16.11-.22.06-.46-.03-.59-.2-.2-.2-.22-.53-.09-.78.12-.22.38-.38.64-.36.36.03.64.37.62.73.14 0 .27-.01.41-.01.01-.26-.09-.51-.25-.71-.21-.27-.56-.45-.9-.43zm2.17 1.53-1.35 1.58.32.28.56-.64.73.62-.56.64.32.28 1.35-1.58-.32-.28-.54.63-.73-.62.54-.63zm1.99 1.71-.25.28.53.46-1.1 1.29.32.28 1.1-1.29.53.46.25-.28zm2.91 2.82c-.05 0-.1.01-.15.01-.42.06-.79.41-.87.83-.09.38.07.8.37 1.05.04.03.07.06.11.09.28.2.69.24 1 .07.19-.09.33-.24.46-.38-.27-.24-.54-.47-.82-.71-.09.1-.16.19-.25.28.15.12.3.25.43.37.06.05-.11.1-.16.11-.22.06-.46-.03-.59-.2-.2-.2-.22-.53-.09-.78.12-.22.38-.38.64-.36.36.03.64.37.62.73.14 0 .27-.01.41-.01.01-.26-.09-.51-.25-.71-.21-.27-.56-.45-.9-.43zm2.17 1.53-1.35 1.58 1.23 1.05.25-.28-.89-.77.32-.37.58.49.24-.27-.58-.49.31-.36.89.75.25-.28zm2.4 2.05-2 1.03.33.3.52-.27.66.56-.2.56.36.31.71-2.13zm-.1.47-.27.78-.45-.38zm1.67.88-1.35 1.58.32.28.52-.61.36.31-.21.87.37.31.21-.95c.21.07.5.05.68-.17.27-.32.16-.71-.12-.95zm.09.56.42.36c.16.14.16.3.06.42s-.27.14-.42 0l-.42-.36z"/></g></defs><g id="figure"><use mask="url(#m1)" xlink:href="#p1"/><use xlink:href="#p2"/></g></svg>