<svg viewBox="0 0 326 100" xmlns="http://www.w3.org/2000/svg"><g transform="scale(.1)"><g fill="#fddd04"><path d="m997.6 172.8 30.5-143.4h-318c-146.1 0-174.3 89.2-179.1 111.8l-45.6 214.9h-265.9l69.6-327.1h-193.9l-71.7 337.2c-2.5 11.6-3.5 22-3.5 31.5 0 75.2 64.8 103.6 168.7 103.6h277.2l15.6-69.8c22.7 69.4 128.5 69.5 159.5 69.5h286.9l30.7-144.7h-280.1l4.2-20h280.2l30.7-144.6h-280.1l2.9-13.7c1-4.7 7.9-5.2 13.6-5.2z"/><path d="m1049.9 29-100.4 472.3h358.4c130.1 0 170.9-62.8 182-115.6l8.8-41.8c6.7-31.6 1.4-58.3-14.6-77.7 23.3-18.6 38.7-44.4 45.6-76.5l7.2-33.6c3.3-15.3 4.9-28.2 4.9-39.2-.1-76-84.9-87.9-138.9-87.9zm163.2 144.1h128.1l-3 13.9c-1.1 5.3-7.7 4.4-11.8 4.4h-117.2zm-34.7 163.6h126.2l-3.3 15.9c-.5 2.3-4.5 3.5-10.8 3.5h-116.3z"/><path d="m2029.2 172.8 30.5-143.4h-318c-146.1 0-174.3 89.3-179.1 111.8l-51 240.1c-1.8 8.3-2.7 16.3-2.7 23.9.2 62.6 57.7 83.8 98.6 90.9l358.2-24.8 24.4-114.9h-280l4.2-20.1h280.1l30.8-144.6h-280.2l2.9-13.7c1-4.7 8.4-5.2 10.1-5.2z"/><path d="m2084.3 29.1-94.1 440.5 524.8-36.2 20.5-104c4.8-24.4-2.5-45.1-17.1-61.3 19.2-15.6 37.3-39.1 46.9-76.2.6-2.3 1.9-8.8 4-19.1h117.3l-53.6 252.5 196-13.6 50.8-238.9h137.8l30.5-143.4h-468l-10.8 51c-13.2-28.6-43.7-51.3-107.3-51.3zm163 143.7h128.7l-3.4 16.2c-.4 1.8-6.4 2.7-11.1 2.7h-118.3zm-58.5 283.1 24.1-121.3h129.6l-23.5 112.4z"/></g><path d="m953 224.6-16.8 78.8h-280.1l-10.8 51c-4.8 22.4 11.9 34.9 35.7 34.9h237l-16.7 78.8h-260.3c-123.8 0-136.7-42.6-128.8-79.9l51-240.1c5.2-24.5 32.2-85.9 146.9-85.9h277.4l-16.5 77.7h-239c-8.1 0-41.2 0-47.8 31.3l-11.3 53.4zm-513.7 243.5h-250.6c-120.9 0-144.2-41-132.7-95l66.1-310.9h125.9l-64.1 301.5c-4.7 22.2 20.6 25.6 36.5 25.6h236.4zm558.3-295.3 30.5-143.4h-318c-146.1 0-174.3 89.2-179.1 111.8l-45.6 214.9h-265.9l69.6-327.1h-193.9l-71.7 337.2c-2.5 11.6-3.5 22-3.5 31.5 0 75.2 64.8 103.6 168.7 103.6h277.2l15.6-69.8c22.7 69.4 128.5 69.5 159.5 69.5h286.9l30.7-144.7h-280.1l4.2-20h280.2l30.7-144.6h-280.1l2.9-13.7c1-4.7 7.9-5.2 13.6-5.2z"/><path d="m1049.9 29-100.4 472.3h358.4c130.1 0 170.9-62.8 182-115.6l8.8-41.8c6.7-31.6 1.4-58.3-14.6-77.7 23.3-18.6 38.7-44.4 45.6-76.5l7.2-33.6c3.3-15.3 4.9-28.2 4.9-39.2-.1-76-84.9-87.9-138.9-87.9zm26.9 33.2h326.1c60.3 0 95.3 13.9 104 41.2 2.9 9 2 24.4-2.5 45.7l-7.1 33.7c-8.1 38.4-30.5 63.2-68.3 75.7l-17.4 5.8 17.5 5.3c32.5 9.9 44.6 31.9 37.1 67.4l-8.8 41.8c-12.7 60.1-61.7 89.3-149.5 89.3h-317.4zm109.4 77.7-18 84.7h155.9c27.8 0 42.3-11.1 45.7-26.7l6-27.8c3.8-17.6-13.7-30.2-32.8-30.2zm26.9 33.2h128.1l-3 13.9c-1.1 5.3-7.7 4.4-11.8 4.4h-117.2zm-61.6 130.3-18.3 85.9h156.8c24 0 39.7-11.1 43.3-27.8l5.7-26.7c4-18.7-11-31.4-39.5-31.4zm26.9 33.3h126.2l-3.3 15.9c-.5 2.3-4.5 3.5-10.8 3.5h-116.3z"/><path d="m1984.5 224.6-16.7 78.8h-280.2l-10.8 51c-4.7 22.3 11.4 34.9 35.4 34.9h237.3l-16.7 78.8h-260.3c-123.8 0-136.7-42.6-128.8-79.9l51-240.1c3.3-15.4 26.9-85.9 147-85.9h277.4l-16.6 77.7h-242.5c-18.3 0-39.2 8-44.2 31.3l-11.4 53.4zm44.7-51.8 30.5-143.4h-318c-146.1 0-174.3 89.3-179.1 111.8l-51 240.1c-1.8 8.3-2.7 16.3-2.7 23.9.2 62.6 57.7 83.8 98.6 90.9v11.9h347.5l10.7-36.7 24.4-114.9h-280l4.2-20.1h280.1l30.8-144.6h-280.2l2.9-13.7c1-4.7 8.4-5.2 10.1-5.2z"/><path d="m2084.3 29.1-94.1 440.5 14.8 10.4 19.3-12.7 86.6-405.3h351.1c80.1 0 87.7 40.5 80.9 74.4l-9.5 47.4c-8.3 41.3-45.3 76-87.1 80.5 0 0 65.4 15.4 57 58.2l-22.2 113.2 17.4 14.3 16.5-16.6 20.5-104c4.8-24.4-2.5-45.1-17.1-61.3 19.2-15.6 37.3-39.1 46.9-76.2.6-2.3 1.9-8.8 4-19.1h117.3l-53.6 252.5 15 14.7 19.1-17.1 60.1-283h-136.9l16.5-77.7h400.7l-16.5 77.7h-137.9l-58.2 274.2 17.6 15.9 16.5-18.3 50.8-238.9h137.8l30.5-143.4h-468l-10.8 51c-13.2-28.6-43.7-51.3-107.3-51.3zm136.4 110.8-18.1 84.7h159.7c23.8 0 38.6-10.7 42-26.6l5.9-27.9c1.5-7.1 4.3-30.2-32.8-30.2zm26.6 32.9h128.7l-3.4 16.2c-.4 1.8-6.4 2.7-11.1 2.7h-118.3zm-61.4 128.9-31.1 156.6 18.2 11.7 15.8-14.1 24.1-121.3h129.6l-23.5 112.4 17.5 13 16.6-15.4 23.3-111.1c.5-2.2 6.8-31.8-36.1-31.8z"/><g fill="#fff"><path d="m3125.1 391.3-2176.4 150.2-92.1 438.5 2177.3-150.3zm-210 117.4-8.6 41-133.7 9.9c-16.9 1.2-23.5 10.5-24.9 17.5l-3.4 16.4c-3.1 15.2 11.4 20.1 22.8 19.3l61.6-4.2c7.8-.5 66.2-3.2 57.8 36.9l-10.4 49.6c-9.2 43.8-66.1 51.1-83.6 52.3l-147.7 10.2 8.7-41.7 131.9-9.1c9.3-.6 24.3-8.7 26.7-20.4l3.7-17.7c2.2-10.4-5.7-17.8-19.9-16.8l-65.1 4.5c-45.6 3.2-61.4-19.5-57.8-36.9l10.8-51.8c2.6-12.5 17.6-44.3 78.8-48.5zm-282.6 19.7-8.6 41-133.7 9.9c-16.9 1.2-23.5 10.5-24.9 17.5l-3.4 16.4c-3.1 15.2 11.4 20.1 22.8 19.3l61.6-4.2c7.8-.5 66.2-3.2 57.8 36.9l-10.4 49.6c-9.2 43.8-66.1 51.1-83.6 52.3l-147.7 10.2 8.7-41.7 131.9-9.1c9.3-.6 24.3-8.7 26.7-20.4l3.7-17.7c2.2-10.3-5.7-17.8-19.9-16.8l-65.1 4.5c-45.6 3.2-61.4-19.5-57.8-36.9l10.8-51.8c2.6-12.5 17.6-44.3 78.8-48.5zm-282.6 19.7-8.5 41-137.6 9.4c-10.3.7-22.8 6.7-25.9 21.7l-7.1 34.1 159.2-10.9-8.6 41.7-159.2 10.9-6.7 31.7c-3 14 6.7 22.5 22.4 21.4l132.1-9.1-8.7 41.7-146.1 10c-5.9.4-11.4.6-16.6.6-44.2 0-55.2-14.1-55.2-29.8 0-2.9.3-6 1-9.4l29.3-140.9c2.9-14 15.9-49 81.4-53.5zm-287.4 19.8-40.7 196c-4.8 23.2-34.3 42-67.9 45.1-32 3-50-7.6-54.8-32.6l-26.3-137-6.7.5-36.3 174.6-67.6 4.3 39.4-189.8c5.9-28.3 37.2-50.5 76.8-50.9 25.6-.2 43.8 7.5 48.3 31.4l25.7 137.8 7.5-.6 36.3-174.5zm-312.9 21.5-8.5 41-78.3 5.4-40.1 192.6-66.8 4.6 40-192.6-77.8 5.3 8.5-41zm-283.5 19.5-48.6 233.6-66.8 4.6 48.6-233.7zm-127.2 8.7-8.7 41-127.4 8.8c-11 .8-31.9 4.6-35.5 22.3l-7.1 34.1 158.7-10.9-8.7 41.7-158.7 10.9-20.1 96.7-66.8 4.6 39.2-188.5c8.9-42.7 49.7-48 87.2-50.6z"/><path d="m3240 89.2c0 38.5-30.3 70-70.3 70-40.9 0-69.6-29.6-69.6-69.6 0-39.2 31-69.6 70.3-69.6 40.4 0 69.6 29.2 69.6 69.2zm-16.1 1.1c0-32-20.9-56.2-53.5-56.2-33.1 0-54.2 25-54.2 54.8 0 33.5 22.3 56.1 53.5 56.1 34.1 0 54.2-26.1 54.2-54.7zm-21.1 32.7c0 1.8-.2 2.9-10 2.9-9 0-9.7-1.1-10.7-4.3l-3.8-12.3c-3.2-10.3-8.4-11.8-13.9-11.8h-4.9v25c0 2.8-2.1 3.4-8.6 3.4-7.1 0-9.1-.7-9.1-3.4v-64.2c0-4.7 2.3-8.4 7.9-8.4h20.6c15.6 0 29.7 4.6 29.7 21.4 0 4-.1 15.8-17.2 20.1 2.9 1 5.5 2.5 8 4.8 5.8 5.8 8.1 14.1 10.8 21.6 1 2.7 1.2 4.5 1.2 5.2zm-22.2-49.5c0-6.2-3.5-9.7-12.8-9.7h-8.3v20.1h7.9c7.1.3 13-2.8 13.2-10.4z"/></g></g></svg>