<svg viewBox="0 0 799 100" xmlns="http://www.w3.org/2000/svg"><g id="figure" transform="scale(.1)"><g fill="#fff"><path d="m958.3 566.8h-938.3v377.8h50.5v-327.5h887.8c62.5 0 113.3 33.9 113.3 75.6s-50.8 75.5-113.3 75.5h-850v50.4h816.7l161.4 161.4 35.6-35.6-128.7-128.7c73.5-12.3 128.7-62.8 128.7-123 0-69.5-73.3-125.9-163.7-125.9z"/><path d="m1256.2 566.8h1064.2v50.3h-1013.7v151.1h886.5v50.5h-886.5v75.5h1013.7v50.3l-1064.2-.1z"/><path d="m3598.9 568.4-565.4 318.7-567.8-320.1-24.5 43.8 592.3 333.8 589.9-332.4z"/><path d="m3821.9 680.4h862.7c20.9 0 37.8-15.6 37.8-34.7 0-12.2-13.4-28.3-37.8-28.3h-900.5v277h900.5c59.8 0 100.7-39.4 100.7-78.7 0-46.9-45.1-85-100.7-85h-862.7zm862.7 264.4h-950.9l.6-377.8h950.2c45.2 0 88.3 31.8 88.3 78.7 0 20.6-9 39.4-23.5 53.4 51 20.7 86.4 65.2 86.4 116.6 0 75.4-71.8 129.1-151.1 129.1z"/><path d="m5882.9 894.4c86.2 0 151.1-64.8 151.1-138.5s-64.9-138.5-151.1-138.5h-751.4c-86.2 0-151.1 64.8-151.1 138.5s64.9 138.5 151.1 138.5zm0-327.4c111.2 0 201.5 84.6 201.5 188.9 0 104.2-90.3 188.9-201.5 188.9h-751.4c-111.2 0-201.5-84.7-201.5-188.9 0-104.3 90.3-188.9 201.5-188.9z"/><path d="m7297.4 559.1 29.2 41-219.8 155.8 219.8 155.8-29.2 41.1-242.1-171.7h-629.1l-242.1 171.7-29.1-41.1 219.7-155.8-219.7-155.4 29.1-41.4 242.1 171.6h629.1z"/></g><g fill="#f03d20"><path d="m7650.1 225.3 111-173.9c3.6-5.7.8-10.6-2.9-11.9-42.8-15.6-88.3-22.4-136.6-18.3-48.4 4.1-92 18.5-131.5 41.2-3.4 1.9-5.4 7.1-.8 12.2l138.8 152.6c6.5 7.1 16.9 6.2 22-1.9z"/><path d="m7750 284.9 206.1 9.2c6.9.3 9.5-4.8 8.8-8.5-7.9-44.9-24.6-87.7-52.4-127.5-27.7-39.8-62-70.3-101.4-93.2-3.3-1.9-8.9-1.1-11 5.4l-62.8 196.5c-2.9 9 3.1 17.7 12.7 18.1z"/><path d="m7748.8 399.5 95.2 183.1c3.2 6.1 8.8 5.9 11.8 3.4 34.9-29.2 63.5-65.2 84.1-109.1s30-89 30.1-134.5c0-4.1-3.8-8.3-10.2-6.9l-201.6 44c-9.2 2-13.8 11.4-9.4 20z"/><path d="m7647.8 455.7-111 173.9c-3.6 5.7-.8 10.6 2.9 11.9 42.8 15.6 88.3 22.4 136.6 18.3 48.4-4.1 92-18.5 131.5-41.2 3.3-1.9 5.6-7.2.9-12.3l-138.9-152.6c-6.4-7.1-16.8-6.1-22 2z"/><path d="m7549.1 397.4-206.1-9.2c-6.9-.3-9.5 4.8-8.8 8.5 7.9 44.9 24.6 87.7 52.4 127.5 27.7 39.8 62 70.3 101.4 93.2 3.3 1.9 9 1.1 11.1-5.4l62.7-196.5c2.9-9-3.1-17.7-12.7-18.1z"/><path d="m7550.3 281.6-95.1-183c-3.2-6.1-8.8-5.9-11.8-3.4-34.9 29.2-63.5 65.2-84.1 109.1s-29.9 88.9-30.1 134.4c0 3.8 3.4 8.4 10.2 6.9l201.6-44c9.4-2 13.7-11.5 9.3-20z"/></g></g></svg>