<svg viewBox="0 0 368 100" xmlns="http://www.w3.org/2000/svg"><g id="figure"><path d="m10.7 25.9c0-2.4-1.9-4.3-4.3-4.3-2.5-.1-4.4 1.9-4.4 4.3v40.7c0 24.1 17.6 31.4 28.5 31.4 15.5 0 28.4-12.6 28.4-28.5 0-15.7-12.8-28.5-28.5-28.5-3 0-5.5.4-8 1.1-1.5.4-3.1 1.8-3.1 4.1s1.9 4.2 4.2 4.2c.4 0 .8 0 1.3-.2.8-.2 2.9-.8 5.6-.8 10.9 0 19.8 9 19.8 20.1s-8.9 20.1-19.8 20.1c-9 0-19.8-6.2-19.8-23.1zm64.2 39.5c1.9-9.1 9.9-15.9 19.4-15.9 8.7 0 16.5 6.5 18.5 15.9zm19.3-24.3c-15.7 0-28.5 12.7-28.5 28.5 0 15.7 12.7 28.5 28.5 28.5 9.5 0 17-4.6 21.6-9.9 1.6-1.8 1.2-5-1.2-6.3-2.4-1.4-4.7 0-5.5 1-3.3 4-8.9 6.9-14.9 6.9-9.5 0-17.5-6.8-19.4-15.9h42.1c2.4 0 4.3-2.1 4.3-4.2 0-15.7-12.8-28.5-27-28.5zm44.3-15.2v71.2h-8.7v-71.2c0-2.4 1.9-4.3 4.3-4.3s4.3 1.9 4.3 4.3zm15.5-4.3c-2.4 0-4.3 1.9-4.3 4.3v71.2h8.7v-71.2c0-2.4-1.9-4.3-4.3-4.3zm19.9-19.6c-3.6 0-6.5 2.9-6.5 6.5s2.9 6.5 6.5 6.5 6.5-2.9 6.5-6.5-2.9-6.5-6.5-6.5zm0 39.1c-2.4 0-4.3 1.9-4.3 4.3v51.7h8.7v-51.7c0-2.4-1.9-4.3-4.3-4.3zm12.9 28.5c0 15.7 12.7 28.5 28.5 28.5 9.5 0 17.4-4.8 21.8-10.2 1.5-1.9 1.2-5-1.2-6.3-2.4-1.4-4.7 0-5.5 1-3.5 4.3-9.1 7.2-15.2 7.2-10.9 0-19.8-9-19.8-20.1s8.9-20.1 19.8-20.1c6.1 0 11.7 2.9 15.2 7.2.8.9 3 2.4 5.5 1 2.4-1.4 2.7-4.5 1.2-6.3-4.4-5.4-12.3-10.2-21.8-10.2-15.7 0-28.5 12.7-28.5 28.5zm85.8 20.1c-10.9 0-19.8-9-19.8-20.1s8.9-20.1 19.8-20.1 19.8 9 19.8 20.1-8.9 20.1-19.8 20.1zm0-48.5c-15.7 0-28.5 12.7-28.5 28.5 0 15.7 12.7 28.5 28.5 28.5 15.7 0 28.5-12.7 28.5-28.5 0-15.7-12.7-28.5-28.5-28.5zm93.1 56h-8.7v-27.7c0-11.1-8.9-20.1-19.8-20.1s-19.8 9-19.8 20.1v27.6h-8.7v-27.6c0-15.7 12.7-28.5 28.5-28.5 15.7 0 28.5 12.7 28.5 28.5z"/></g></svg>