<svg viewBox="0 0 570 100" xmlns="http://www.w3.org/2000/svg"><g id="figure"><path d="m125.7 76.1c-4.6 0-8.1-1.6-10.6-4.9s-3.8-7.8-3.8-13.6v-1.5c0-5.9 1.3-10.5 3.8-13.8s6-4.9 10.6-4.9c3.6 0 6.5 1.1 8.8 3.3s3.6 5.1 3.8 8.6h4.8c-.2-4.8-2-8.8-5.2-11.7-3.2-3-7.3-4.5-12.3-4.5-3.9 0-7.3.9-10.3 2.8-2.9 1.9-5.2 4.5-6.7 8-1.6 3.4-2.3 7.4-2.3 11.9v1.5c0 7 1.7 12.6 5.2 16.7s8.2 6.2 14.2 6.2c3 0 5.9-.6 8.5-1.9s4.8-3.1 6.4-5.4 2.5-4.8 2.6-7.6h-4.8c-.2 3.1-1.5 5.7-3.8 7.7-2.4 2-5.3 3-8.8 3z"/><path d="m185.9 47.6c-.1-4.5-1.6-8.1-4.5-10.6s-6.9-3.8-12-3.8c-4.9 0-9 1.3-12.4 4-3.4 2.6-5 5.8-5 9.4h5c0-2.5 1.1-4.7 3.4-6.5s5.2-2.7 8.7-2.7c3.8 0 6.8.9 8.8 2.8s3 4.4 3 7.7v5.2h-9.1c-6.6 0-11.7 1.3-15.4 3.9s-5.5 6.1-5.5 10.5c0 3.7 1.4 6.8 4.1 9.2s6.2 3.7 10.6 3.7c3 0 5.9-.6 8.7-1.9 2.7-1.2 5-3 6.7-5.3.2 2.8.5 4.9 1 6.3h5.4v-.5c-.9-2.2-1.4-5.5-1.4-9.9zm-10.7 25.8c-2.6 1.6-5.6 2.4-9 2.4-3 0-5.5-.8-7.4-2.5s-2.8-3.8-2.8-6.3c0-3.1 1.4-5.6 4.2-7.3 2.8-1.8 6.7-2.7 11.8-2.8h9v10c-1.2 2.7-3.1 4.9-5.8 6.5z"/><path d="m204.3 41.3-.1-7.2h-4.9v45.4h5v-31.2c.9-3.3 2.5-5.9 4.6-7.6 2.2-1.7 4.8-2.6 8-2.6 1.2 0 2.3.1 3.4.3l.1-4.6c-.8-.4-1.9-.5-3.3-.5-5.9 0-10.1 2.7-12.8 8.1z"/><path d="m257 15v25.5c-3.2-4.8-7.9-7.3-14-7.3-5.4 0-9.7 2.1-12.8 6.3-3.2 4.2-4.7 9.8-4.7 16.9v.6c0 7.2 1.6 12.9 4.8 17.1s7.4 6.3 12.7 6.3c6.2 0 11-2.3 14.2-6.9l.2 6h4.7v-64.5zm-13.2 61c-4.2 0-7.5-1.7-9.8-5s-3.5-7.9-3.5-13.7c0-6.5 1.2-11.4 3.5-14.7s5.6-5 9.9-5c6.1 0 10.5 3 13.1 8.9v21.3c-2.6 5.5-7 8.2-13.2 8.2z"/><path d="m275.9 79.5h5v-45.4h-5zm2.6-62c-1.1 0-1.9.3-2.5 1s-.9 1.4-.9 2.4c0 .9.3 1.7.9 2.4.6.6 1.4 1 2.5 1s1.9-.3 2.5-1c.6-.6 1-1.4 1-2.4s-.3-1.7-1-2.4c-.6-.7-1.5-1-2.5-1z"/><path d="m312 33.2c-3.9 0-7.4 1-10.5 2.9-3.1 2-5.5 4.7-7.2 8.2s-2.5 7.4-2.5 11.8v1c0 7 1.9 12.6 5.7 16.9 3.8 4.2 8.7 6.4 14.7 6.4 3.9 0 7.5-1 10.5-2.9 3.1-1.9 5.5-4.6 7.2-8.1s2.5-7.5 2.5-11.9v-1.1c0-7-1.9-12.6-5.6-16.9-3.8-4.2-8.7-6.3-14.8-6.3zm11.1 37.7c-2.8 3.5-6.5 5.2-11 5.2-4.6 0-8.2-1.7-11.1-5.2-2.8-3.5-4.2-7.9-4.2-13.4v-.9c0-5.7 1.4-10.3 4.2-13.8s6.5-5.3 11-5.3c3 0 5.7.8 8 2.4s4.1 3.8 5.4 6.7 1.9 6.1 1.9 9.5v1c0 5.7-1.4 10.3-4.2 13.8z"/><path d="m347.4 16c-2.1 0-3.8.6-5 1.8s-1.8 2.7-1.8 4.5.6 3.4 1.9 4.5c1.2 1.2 2.9 1.8 4.9 1.8s3.7-.6 4.9-1.8 1.9-2.7 1.9-4.5-.6-3.3-1.8-4.5-2.9-1.8-5-1.8zm-5.8 66c0 3.9-1.8 5.8-5.5 5.8-1.1 0-2.4-.1-3.8-.4v9.6c1.9.5 3.9.7 6 .7 5 0 8.8-1.4 11.5-4.2s4-6.7 4-11.7v-47.8h-12.2z"/><path d="m390 66.3c-1.5 2.9-4.4 4.3-8.5 4.3-4.3 0-6.5-2.4-6.5-7.1v-29.5h-12.1v29.8c.1 5.4 1.4 9.5 3.9 12.3 2.6 2.8 6.3 4.2 11.2 4.2 5.3 0 9.4-1.8 12.4-5.5l.3 4.6h11.4v-45.4h-12.2z"/><path d="m461.9 33.2c-5.9 0-10.5 2.3-13.7 6.9-2.2-4.6-6.2-6.9-12.1-6.9-5.5 0-9.8 2-13.1 5.9l-.4-5.1h-11.4v45.4h12.1v-32.1c1.5-2.9 4-4.3 7.5-4.3 2.5 0 4.2.6 5.3 1.8 1 1.2 1.6 3.1 1.6 5.7v29h12.1v-31.3c1.4-3.5 3.9-5.2 7.6-5.2 2.5 0 4.3.6 5.3 1.8s1.5 3.1 1.5 5.7v29h12.2v-29c0-5.8-1.2-10.1-3.6-13s-6.1-4.3-11-4.3z"/><path d="m509 33.2c-4.7 0-8.6 1.8-11.5 5.3l-.4-4.5h-11.3v62.9h12.1v-21.4c2.8 3.2 6.5 4.8 11.1 4.8 5.4 0 9.7-2.1 12.9-6.3s4.8-9.8 4.8-16.8v-.6c0-7.3-1.5-13-4.7-17.1-3.1-4.2-7.5-6.2-13.1-6.2zm-3.1 37.3c-3.8 0-6.5-1.5-7.9-4.5v-18.6c1.4-2.9 4.1-4.4 7.9-4.4 2.9 0 5 1.1 6.5 3.5 1.5 2.3 2.2 5.6 2.2 9.8 0 9.5-2.9 14.3-8.7 14.3"/><path d="m546.8 19.4h2.1c2.5 0 4.4-.8 4.4-2.8 0-1.8-1.3-2.9-4.1-2.9-1.2 0-2 .1-2.5.2zm-.1 10.9h-4.4v-19.2c1.8-.4 4.2-.6 7.4-.6 3.6 0 5.3.6 6.7 1.4 1.1.8 1.9 2.3 1.9 4.2 0 2.1-1.6 3.7-4 4.4v.2c1.9.7 2.9 2.1 3.5 4.7.6 2.9.9 4.1 1.4 4.8h-4.8c-.6-.7-.9-2.5-1.5-4.7-.4-2.1-1.5-3-4-3h-2.1zm-11.8-10.1c0 8.5 6.3 15.3 15 15.3 8.4 0 14.6-6.8 14.6-15.2 0-8.5-6.2-15.5-14.7-15.5s-14.9 6.9-14.9 15.3zm14.9 19.4c-11 0-19.8-8.5-19.8-19.4-.1-10.7 8.7-19.2 19.7-19.2 11.1 0 19.7 8.5 19.7 19.2 0 10.9-8.5 19.4-19.7 19.4z"/><path d="m43.2 99c-23.5 0-42.6-19.1-42.6-42.6 0-20.2 14.1-37.2 33.1-41.5-3.9 4.8-6.8 10.4-8.5 16.8-5 18.7-1 35.9 9.6 51.8 2.6 3.8 5.7 7.2 9.5 10-4.8-7.1-9.1-14.3-7.2-23.7 5.2 9.3 9.5 18.7 9.7 29.1-1.2 0-2.4.1-3.6.1z"/><path d="m37.6 14.2c-4.6 6.5-3.9 14.1-3.7 22.2.3 3.1 2.7 4.8 5.7 5.7 3.3.9 6.8 1.1 10.2 1.6 6.6.9 12.6 3 16.2 9.2.9 1.5 1 2 1.3 4-2.2-1.2-3.9-2.9-6.1-3.9-3.6-1.5-7.2-2.2-11.1-1.8-5.5.5-8.4 4.4-7.2 9.9.6 2.8 1.9 5.3 3.2 7.8 4.9 9.6 7.1 19.4 4.6 29.5 19.9-3.5 35.1-21 35.1-41.9 0-23.5-19.1-42.6-42.6-42.6-1.9 0-3.8.1-5.6.4zm-1.5 21.2c-.1-3.8 2.7-8 6.2-9.4 3.8-1.5 6.9.7 6.9 4.8 0 3.7-2.8 7.8-6.2 9.1-3.7 1.5-6.8-.6-6.9-4.6z"/></g></svg>