<svg viewBox="0 0 609 100" xmlns="http://www.w3.org/2000/svg"><g id="figure" fill="#fff"><path d="m21.9 49.3c.06-11.08 2.67-20.49 9.4-26.4 4.93-4.34 10.33-5.58 16.6-5.2 7.37.44 12.98 3.76 16.95 10.11 1.49 2.38 2.46 4.94 3.55 7.39h19.9c-.82-6.55-3.19-12.68-7.1-17.8-4.01-5.25-9.3-9.25-15.3-11.7-6.24-2.54-12.41-3.69-18.8-3.7-8.35-.01-26.34 1.84-36.7 16.8-5.57 8.04-8.89 19.81-8.9 31.1 0 3.84.61 23.09 12.7 35.3 10.57 10.67 25.51 11.98 32.1 12 5.44.01 18.1-.86 27.9-8.4 9.31-6.96 13.68-19.02 14.7-28.8h-18.9c-1.09 0-1.45.22-1.6 1.3-.94 6.57-3.54 12.31-9 16.4-3.52 2.64-7.29 3.99-11.2 4.2-2.46.13-13.78.14-20.3-9.5-5.68-8.4-6.02-19.86-6-23.1z"/><path d="m131.4 26.2c-16.27 0-35.09 12.05-35.2 34.9-.12 26.14 19.32 36.43 35.4 36.4 21.57-.04 36.59-14.13 36.9-34.2.35-22.18-14.24-37.1-37.1-37.1zm18.8 35.1c.45 14.5-6.48 22.86-19.1 22.3-9.12-.4-16.54-7.88-16.2-22.5.21-8.78 3.06-20.86 17.6-20.9 9.77.04 17.22 5.6 17.7 21.1z"/><path d="m294.8 49.3c0-8.41-7.37-23.21-23.9-23.2-15.15.01-21.25 8.31-24.9 18.1h-.6c-.27-5.18-.23-10.62-.5-15.8h-17.5v66.8h18v-33.8c0-19.68 12.93-22.13 22.4-19.7 8.21 2.11 9 11.35 9 14.8v39h18z"/><path d="m221.4 42.3v-15.3c-4.36-.27-8.71.24-12.8 1.6-4.91 1.64-8.7 4.7-10.9 9.6-1.52 3.39-3.6 11.08-3.6 11.2h-.5c-.27-7.09-.23-13.91-.5-21h-17.5v67.1h18v-25.1c0-3 .06-6.02.5-9 2.12-14.45 13.04-16.87 18.9-18 2.73-.53 5.67-.83 8.4-1.1z"/><path d="m305.2 40.1-.5 55.1h18.3l.5-55.1z"/><path d="m314.5 4.1c-6.17 0-10.6 5.19-10.6 10.6 0 4.77 4.17 10.4 10.6 10.4 4.19 0 10.7-3.19 10.7-10.4 0-5.63-4.37-10.6-10.7-10.6z"/><path d="m352.2 95.5.6-91.1h-18l-.6 91.1z"/><path d="m363.8 95.5h18.2v-91.4h-18.2z"/><path d="m389.6 60.9c.02 10.68 2.75 18.65 7 24.3 6.88 9.16 18.92 12.4 27.2 12.4 20.22.01 32.12-12.35 33.2-25.3h-15.2c-.77 0-.85.66-1.1 1.3-.82 3-2.96 5.81-5.7 7.7-5.99 4.11-15.28 3.57-21-.8-4.64-3.54-6.63-8.5-6.9-14.5l50.5-.5v-6.9c0-19.61-15.96-32.7-33-32.7-30.33 0-35.02 25.71-35 35zm34.4-20.8c10.37-.14 15.87 7.86 15.6 15.5h-32.5c.27-8.73 6.81-15.37 16.9-15.5z"/><path d="m465.2 53.2h18c0-.55.3-1.15.3-1.7 2.41-9.65 10.66-11.18 15.6-11.2 8.49-.04 12.9 4.22 13.6 7.7 1.44 7.22-4.59 11.3-9.6 11.5-4.64.19-9.25.53-13.9.5-14.83-.09-25.3 5.46-25.3 19.47 0 17.76 18.28 18.53 21.5 18.53 14.82.02 24.38-9.47 26.7-18.4l.6.3v16.1l18.5-.5v-46.3c0-11.81-10.59-22.84-32.1-22.8-8.53.02-30.67 2.01-33.9 26.8zm47.22 6.8.27.27c.82 4.91.76 9.79-1.64 14.46-3.34 6.51-10.91 11.08-18.28 10.63-4.56-.28-10.33-1.95-10.09-8.73.13-6.35 5.56-7.73 10.64-7.64 4.7.08 12.55-.27 15.55-3.27 2.49-2.49 2.62-4.8 3.55-5.73z"/><path d="m538.9 72.5c0 11.74 7.67 25.01 24.2 25 15.15-.01 20.58-8.39 24.8-18.1h.6c.27 5.18.43 10.92.7 16.1l17.3-.3v-66.8h-18.2v33.8c0 19.68-11.73 22.53-21.2 20.1-8.21-2.11-10.2-11.75-10.2-15.2v-38.7h-18z"/></g></svg>