<svg viewBox="0 0 638 100" xmlns="http://www.w3.org/2000/svg" xmlns:xlink="http://www.w3.org/1999/xlink"><g id="figure" fill="#fff"><path d="m45 2c-19.5 0-43 10.7-43 26.6 0 10.2 11.3 16.8 23.3 17.8 10.1 1 20-.2 30-1.8-9.1 8-18.3 16-27.4 24 7.3-1.1 14.7-2.4 22-3.6.4 0 .7-.2 1-.5 8.8-8.5 17.6-16.9 26.5-25.3 4.9 2.6 9.5 5.7 13.8 9.2-11.3-21.3-36.3-28.3-52.7-26.1-1.3 3.2 1.8 8.2 3.9 9 7.8.6 15 .6 23.1 3.1-6.1 1.5-37.8 3.8-49.3-3.4 7.6-11.3 19.6-17.5 33.3-17.6 19.1.5 42.9 10.8 58.5 29.3-7.6-21.8-31.6-40.7-63-40.7zm54.5 10.5c-1.3 5.5 2.5 9.7 3.9 9.8 8.7.5 13.5 2 20.2 6.3-.6-9.5-10.7-15.2-24.1-16.1z"/><path d="m155.1 13.8v35h31.2v12.1h-45.7v-47.1z"/><path d="m234.8 25.5v8h-27.6v5.5h26.1v7.5h-26v5.5h28.2v8.9h-39.1v-35.4z"/><path d="m245.4 13.8v47.1h13.9v-33.8l18.9 33.8h9.8l17.9-33.8v33.8h13.9v-47.1h-21.3l-15.4 30.7-16.4-30.7z"/><path d="m340.4 25.3c-5.5 0-10 4.5-10 10v16c0 5.5 4.5 10 10 10h28.1c5.5 0 10-4.5 10-10v-16c0-5.5-4.5-10-10-10zm6 9h16c2.8 0 5 2.2 5 5v7.9c0 2.8-2.2 5-5 5h-16c-2.8 0-5-2.2-5-5v-7.9c0-2.8 2.2-5 5-5z"/><path d="m404.8 25.5 20.4 24.9v-24.9h11.3v35.4h-17l-20.1-25.9v25.9h-10.8v-35.4z"/><path d="m446.1 25.5v35.6h37.5c5.5 0 10-4.5 10-10v-15.6c0-5.5-4.5-10-10-10zm31.4 8.8c2.8 0 5 2.2 5 5v7.4c0 2.8-2.2 5-5 5h-20.2v-17.4z"/><path d="m502.6 32.9c-.2-.4-.3-.9-.4-1.3-.1-.8-.5-1.1-1.1-1h-.3v2.3h-1.1v-5.3h1.8c1.3 0 2.1.3 2.2 1.4 0 .8-.7 1.1-1.1 1.2.2.1.3.2.4.3.3.3.3.8.4 1.2 0 .1.1.7.4 1.2m-2.2-3.2c.5 0 1-.1 1-.6s-.5-.7-1-.7h-.8v1.3"/><path d="m501.6 25.6c-2.6 0-4.7 2.1-4.7 4.7s2.1 4.7 4.7 4.7 4.7-2.1 4.7-4.7-2.1-4.7-4.7-4.7zm0 .8c2.1 0 3.9 1.8 3.9 3.9s-1.8 3.9-3.9 3.9-3.9-1.8-3.9-3.9 1.8-3.9 3.9-3.9z"/><path d="m335.3 66.7-3 6.4h-16.1l-2.8 6.2h15.1l-3 6.4h-15.2l-5.2 11.4h-13.7l14.2-30.4z"/><path d="m337.9 66.8-2.9 6.3h13.3l2.9-6.3zm-4.2 9.3-9.9 21h13.3l9.8-21z"/><path d="m366.2 76.1h6.6l-2.8 5.9h-6.6l-3 6.3c-.3.9-.8 2 .1 2.8 1.4 1 3.6.6 5.2.4l-2.7 5.7c-2.7.4-5.2.7-8 .7-8 0-9.6-1.6-9.6-3.9 0-1.1.4-2.4.8-3.3l4-8.8h-3.7l2.8-5.8h3.6l1.7-3.7 15.1-3.8z"/><path id="a" d="m407.1 80.5c0 1.5-.5 2.9-1.1 4.2l-5.9 12.4h-13.3l5.8-12.4c.3-.9.5-2-.5-2.6-1.1-.5-2.5-.3-3.6 0-2.1.7-3.5 2.6-4.4 4.5l-5 10.5h-13.2l9.5-21h13.1l-1.5 3.6c3.5-2.8 7.8-4.3 12.2-4.3 3.5 0 7.9.9 7.9 5.1z"/><path d="m406.6 90.3c0 5.5 6.8 6.9 13.9 6.9 6.8 0 15.2-.9 19.5-6.9h-12.9c-.5.6-1.3 1.2-2.1 1.6-1.8.9-4.7 1.6-5.5.1-.7-1.6-.1-2.9.5-4.4h21.6c.9-1.9 1.7-3.8 1.7-5.9 0-1.6-.5-4-3.4-5.4-2.9-1.5-6.6-1.8-10.9-1.8s-10.1 1-14.2 3.6c-7.1 4.5-8.2 10.6-8.2 12.2zm23.9-6.9h-8.7c.9-1.7 2.9-4.4 6.7-4.4 2.8.1 2.7 2.3 2 4.4z"/><path id="b" d="m476.7 76c1.7.8 2.6 1.8 2.6 3.2 0 .9-.3 1.6-.6 2.5l-12.1-.1c.2-2.4-1.9-2.4-3.8-2.4s-3.9.6-4.4 2.6c-.3 1.2 3.7 1.2 5.5 1.5 3 .4 6.1.8 9 1.7 1.2.4 2.7 1.1 3.2 2.4.5 1.9-.6 3.7-1.8 5.1-1.5 1.8-3.8 2.8-6 3.5-4 1.2-8.4 1.4-12.6 1.4-12.1 0-14.9-2-14.9-4.7 0-.8.3-1.6.5-2.3l12.1-.1c.1.5-.1 1.2.2 1.7.6.8 2 .7 2.9.8 1.7 0 3.8.1 5.2-1 1.9-1.7.2-2.5-1.7-2.8-3.6-.7-7.4-1.1-11-1.8-1.5-.3-2.9-.8-3.5-2.3-.5-1.6.5-3.4 1.4-4.6 2.1-2.7 5.2-3.9 8.5-4.7 3.2-.7 6.5-.9 9.4-.9s8.9.1 11.9 1.3z"/><use transform="translate(36.3)" xlink:href="#b"/><path d="m556.9 66.7-14.1 30.4h-14l14.4-30.4z"/><use transform="translate(181.5)" xlink:href="#a"/><path d="m625.5 81.3c0 1.1-.4 2.1-.8 3.2h-12.7c.9-2.6-.4-4.4-3.1-3.8-2.3.5-4 2.5-5.1 4.5-1.8 3.3-3.2 6.9-.5 7.5 2.9.4 5.4-1.3 6.6-3.8h13c-1.1 2.3-2.9 4.1-5.1 5.4-5 3-11.9 3.7-16.6 3.7-5.2 0-13-1-13-7.1 0-2.7 2.1-8 7.3-11.4 5.5-3.6 12.1-4.1 17.1-4.1 4.9 0 12.9.8 12.9 5.9z"/><path d="m636 90.4-3.3 6.7h-12.4l3.2-6.7z"/></g></svg>