<svg viewBox="0 0 452 100" xmlns="http://www.w3.org/2000/svg"><g id="figure"><path d="m23.3 58.7v-6.8h12.1c3.9 0 8.5-2 8.5-5.5s-3.2-5.6-7.1-5.6h-11.6c-7 0-12.7 5-12.7 11.2v21.1h-10.5v-21.1c0-10 9.2-17.4 20.4-17.4h17.1c8.2 0 14.9 4.5 14.8 11.8-.1 7.7-5.9 11-14.5 11h-6v1.9c0 4.4 4.4 7.7 9.3 7.7h11.4v6.1h-14.1c-8.1 0-17.1-4.7-17.1-14.4z"/><path d="m97.2 53v5.4h-26.7c.3 4.3 4.4 8.6 9.3 8.6h17.6v6.1h-20.4c-9.4 0-17.1-6-17.1-14.4v-5.9c0-8.4 7.7-14.5 17.1-14.5h20.4v6.2h-17.6c-5 0-8.8 3.8-9.2 8.6z"/><path d="m133.6 38.3h10.5v34.8h-10.5v-14.7h-17.1v14.7h-10.5v-34.8h10.5v14.7h17.1z"/><path d="m174.5 38.3c6.1 0 11.4 3.6 11.4 9 0 2.4-1.7 6-4 6.3 4.1.7 9.7 2.5 9.7 9.8 0 5.8-5.6 9.7-11.3 9.7h-26.5v-34.8zm2.3 28.7c2.4 0 4.3-1.9 4.3-4s-1.9-4.6-4.3-4.6h-12.5v8.6zm-12.5-14h7.6c3.2 0 4.4-2.5 4.4-4.6s-2-4-4.4-4h-7.6z"/><path d="m234.5 73.1h-19.8c-9.2 0-18.1-5.9-18.1-14.2v-5.9h27.4c-.3-4.3-4.4-8.6-9.3-8.6h-18.1v-6.1h20.8c9.4 0 17.1 6.1 17.1 14.5zm-18-6.1h7.5v-8.6h-16.9c.3 4.4 4.4 8.6 9.4 8.6z"/><path d="m253.4 73.1h-10.5v-34.8h20.8c9.4 0 17.1 6.1 17.1 14.5v20.3h-10.5v-20.3c0-4.6-4.2-8.4-9.3-8.4h-7.6z"/><path d="m289.3 38.3h19.8c9.4 0 18.1 6.1 18.1 14.5v5.9c0 8.4-8.7 14.4-18.1 14.4h-19.8zm10.5 28.7h7.6c5.1 0 9.3-3.7 9.3-8.3v-5.9c0-4.6-4.2-8.4-9.3-8.4h-7.6z"/><path d="m384.6 26.9c17.1-9.7 42-5.2 44.7 9.7 2.1 11.5-4.9 17-11.4 18.5-5.1 1.1-11.6.4-11-1.2.4-1.1 7.7-1.5 9.5-7.6 2.3-7.6-5.4-12.1-16.4-11.5-20.2 1.2-30.2 31.8-32.8 40.8 5.8 8 15.2 13.1 25.7 13.1h16c7.1 0 14-2.4 19.6-6.8-2 .1-4.6.2-7.8.2-8.1 0-19.3-2-26.2-9.7-7.3-8.2-4.1-19.2-.5-22.6 5.6-5.2 10.8-4 11.5-1.9.5 1.6-1.1 1.7-2.7 3.9-1.7 2.4-2.5 11.1 4.6 16.7 8.9 7.1 20.1 8.6 25.5 9.1 5.1-6 8-13.5 8-21.4v-12.4c0-18-14.3-32.5-32-32.5h-16c-17.7 0-32 14.5-32 32.5v12.4c0 5.7 1.4 11 3.9 15.7.5-11.9 3-35.5 19.8-45zm24.3-24.9c22.7 0 41.1 18.7 41.1 41.8v12.4c0 23-18.4 41.8-41.1 41.8h-16c-22.7 0-41.2-18.7-41.2-41.8v-12.4c0-23.1 18.5-41.8 41.2-41.8z"/></g></svg>