<svg viewBox="0 0 776 100" xmlns="http://www.w3.org/2000/svg"><g transform="scale(.1)"><path d="m6930.4 493.4v309c0 130.2 97.5 177.6 230.9 177.6h345.8c137.6 0 231-50.3 231-177.6v-309h-140.1v310c0 45.3-29.6 67.9-90.9 67.9h-345.8c-61.3 0-91.9-22.6-91.9-67.9v-310zm-959 0v28.9c0 158.6 145 177.7 230.6 177.7h463.9v103.4c0 45.3-30.7 68-92 68h-562.6v108.6h562.6c134.1 0 230.9-47.8 230.9-177.6l-.4-309h-138.5v98h-463.9c-61.3 0-91.9-22.7-91.9-68v-30z" fill="#f68c1f"/><path d="m7349.3 129.6-3.7 118.4h-51.2l-2.6-118.4zm-927.7 0-3.6 118.4h-51.4l-2.5-118.4zm1318.4 0v-109.6h-1770.4v109.6h309.4l11.5 118.4h-88.5c-114 0-231 34.8-230.6 177.6v16.6h138.7v-17.7c0-45.3 30.6-67.8 91.9-67.8h371.9c61.3 0 92 22.5 92 67.8v17.7h138.9v-16.6c.1-142.2-115.7-177.6-230.9-177.6h-78.5l11.6-118.4h699.7l11.6 118.4h-57c-212.2 0-231.1 118.4-230.9 177.6v16.6h139v-17.7c0-45.3 30.6-67.8 91.9-67.8h345.8c61.3 0 90.9 22.5 90.9 67.8v17.6l140.1.1v-16.6c0-127.4-93.4-177.6-231-177.6h-83.9l11.5-118.4z"/><path d="m1091.1 980-483.4-732h-100.9l-486.8 732h153.7l384-589.5 377.4 589.5z"/><path d="m2128.2 980v-732h-120.5v543.7l-729.2-543.7h-119.6v732h120.5v-569.9l781 569.9z"/><path d="m2842.9 980c174 0 260.7-52 260.7-156v-243.4h-138.3v243.4c0 31.9-40.6 48.1-122.4 48.1h-323.7c-81.9 0-122.9-16.7-122.9-50v-416.2c0-33.3 41.1-49.5 122.9-49.5h573.2v-108.4h-573.2c-174.1 0-260.2 52.5-260.2 157.9v416.2c0 105.4 86.1 157.9 260.2 157.9z"/><path d="m3965 980v-107.9h-593.7v-624.1h-139.7v732z"/><path d="m4814.7 980v-107.9h-615.3l.5-224.7h583.5v-108.4h-583.5v-182.6h614.8v-108.4h-753.1v732z"/><path d="m5578 980c111.8 0 229.8-33.7 229.8-176.6v-90.6c0-142.9-117.8-176.6-229.8-176.6h-430.7c-61 0-91.6-22.7-91.6-67.7v-44.9c0-45.1 30.6-67.2 91.6-67.2h619.9v-108.4h-619.9c-112.1 0-229.9 33.8-229.9 176.6v43c0 142.9 118 176.5 229.9 176.5h430.7c61 0 91.6 22.7 91.6 67.7v92.5c0 45.1-30.5 67.7-91.5 67.7h-636.7v107.9z"/></g></svg>