<svg viewBox="0 0 135 100" xmlns="http://www.w3.org/2000/svg"><g id="figure" fill="#fff"><path d="m2.1 2v2.55h20.5v-2.55zm0 6.4v2.52h20.5v-2.52zm0 6.37v2.51h20.5v-2.51z"/><path d="m28.16 2.23 6.75 5.68 6.74-5.68h4.35l-9.04 7.4 8.95 7.61h-3.76l-7.24-5.93-7.28 5.93h-3.76l8.97-7.61-9.04-7.4z"/><path d="m51.93 2.15c-1.43 0-4.08.34-4.08 3.69v7.91c0 2.71 2.16 3.57 4.08 3.57h10.29c1.92 0 4.08-.86 4.08-3.57v-7.91c0-3.35-2.65-3.69-4.08-3.69zm0 2.51h10.29c.58 0 1.37.2 1.37 1.18v7.91c0 .92-.75 1.02-1.37 1.02l-10.29-.01c-.62 0-1.37-.09-1.37-1.01v-7.91c0-.98.79-1.18 1.37-1.18z"/><path d="m86.36 2.19h-16.88v15.24l2.63.01v-4.73h14.25c3.27 0 3.25-2.41 3.25-4.96 0-3 0-5.56-3.25-5.56zm.56 2.59v5.3h-14.81v-5.3z"/><path d="m92.48 2v2.55h20.5v-2.55zm0 6.4v2.52h20.5v-2.52zm0 6.37v2.51h20.5v-2.51z"/><path d="m118.8 2.08v5.54l9.64-5.38h4.46l-13.08 7.33 12.87 7.71h-3.98l-9.91-5.95v5.91h-2.55v-15.16z"/><path d="m30.1 26.12v17.04h-28v5.52h45v-5.52h-11.42v-11.51h63.64v11.51h-11.42v5.52h45v-5.52h-28v-17.04zm-28 33.35v5.52h45v-5.52zm85.8 0v5.52h45v-5.52zm-85.8 16.16v5.52h28v16.85h74.8v-16.85h28v-5.52h-45v5.52h11.42v11.32h-63.64v-11.32h11.42v-5.52z"/></g></svg>