<svg viewBox="0 0 818 100" xmlns="http://www.w3.org/2000/svg"><g id="figure" fill="#fff"><path d="m2 2v15.9h127.5v-15.9zm0 39.8v15.7h127.5v-15.7zm0 39.6v15.6h127.5v-15.6z"/><path d="m728.3 2.5v34.5l59.9-33.5h27.8l-81.4 45.5 80 48h-24.7l-61.6-37v37h-15.9v-94.5z"/><path d="m164.1 3.4 42 35.4 41.9-35.4h27l-56.2 46.1 55.7 47.3h-23.4l-45.2-36.9-45.1 36.9h-23.4l55.8-47.4-56.2-46z"/><path d="m312 2.9c-22.5 0-25.3 10.2-25.3 31.6v37c0 18.7 7.4 25.8 22.5 25.8h70.2c19.4 0 22-14.4 22-22v-50.3c0-16.4-10.6-22.1-24.9-22.1zm64.1 15.7c5.7 0 8.5 2.6 8.5 7.3v49.4c0 5.3-2.8 6.1-7.1 6.1h-66.4c-6.3 0-7.6-1.5-7.6-7.1v-48.6c0-4.3 3.3-7.1 7.6-7.1z"/><path d="m524.4 3.2h-103.1v94.8h16.4v-29.4h87.7c12.3 0 21.1-5.9 21.1-20v-22.7c0-16.5-8.3-22.7-22.1-22.7zm5.7 16.1v33h-92.4v-33z"/><path d="m564.5 2v15.9h127.5v-15.9zm0 39.8v15.7h127.5v-15.7zm0 39.6v15.6h127.5v-15.6z"/></g></svg>