<svg viewBox="0 0 604 100" xmlns="http://www.w3.org/2000/svg"><g id="figure" fill="#fff"><path d="m218.6 27.4v7.5h60v-7.5zm0 18.7v7.4h60v-7.4zm0 18.7v7.3h60v-7.3z"/><path d="m294.9 28.1 19.7 16.6 19.7-16.6h12.8l-26.5 21.6 26.2 22.3h-11l-21.2-17.3-21.3 17.3h-11l26.3-22.3-26.5-21.6z"/><path d="m364.4 27.8c-4.2 0-11.9 1-11.9 10.8v23.2c0 7.9 6.3 10.4 11.9 10.4h30.4c5.6 0 11.7-2.5 11.7-10.4v-23.2c0-9.8-7.8-10.8-12-10.8zm0 7.4h30.1c1.7 0 4.1.5 4.1 3.4v23.2c0 2.7-2.3 3-4.1 3h-30.1c-1.8 0-4-.3-4-3v-23.2c0-3.1 2.2-3.4 4-3.4z"/><path d="m465.2 28h-49.4v44.6h7.7v-13.8h41.7c9.6 0 9.5-7.1 9.5-14.6 0-8.8-.1-16.2-9.5-16.2zm1.6 7.5v15.6h-43.3v-15.6z"/><path d="m483.1 27.4v7.5h60v-7.5zm0 18.7v7.4h60v-7.4zm0 18.7v7.3h60v-7.3z"/><path d="m560.1 27.6v16.3l28.3-15.8h13l-38.3 21.5 37.7 22.5h-11.6l-29.1-17.4v17.4h-7.4v-44.5z"/><path d="m39.4 2v22.8h-37.4v7.3h60.1v-7.3h-15.3v-15.4h85v15.4h-15.2v7.3h60.1v-7.3h-37.4v-22.8zm-37.4 44.5v7.4h60.1v-7.4zm114.6 0v7.4h60.1v-7.4zm-114.6 21.6v7.4h37.4v22.5h99.9v-22.5h37.4v-7.4h-60.1v7.4h15.2v15.1h-85v-15.1h15.3v-7.4z"/></g></svg>