<svg viewBox="0 0 475 100" xmlns="http://www.w3.org/2000/svg"><g id="figure" fill="#fff"><path d="m74.5 50.3c8.6-9.5 13.2-20.4 13.2-29.6 0-11.6-7.6-18.7-18.8-18.7-17.2-.1-37.9 15.8-45.1 34.8 14.9-2.8 35 1.3 50.7 13.5z"/><path d="m74.5 50.3c-28.4 30.1-62.4 19.1-50.7-13.5-6.3 1.1-21.8 6-21.8 21.1 0 20.2 28.7 40.1 56.4 40.1 20.3 0 31.4-9.8 31.4-22 0-10.8-7.9-19.9-15.3-25.7z"/><path d="m95.9 82.2v.6h-1.1v2.5h-.7v-2.5h-1.1v-.6zm4.5 0v3.1h-.7v-2.4l-1.1 2.4h-.4l-1.2-2.4v2.4h-.7v-3.1h1.1l1 2.1.9-2.1z"/><path d="m114.8 21.3h26.9c14 0 20.7 7.2 20.7 15.6 0 4.3-1.8 7.4-4.9 9.8-1 .6-1.6 1.4-1.6 2.2s.6 1.6 1.6 2.2c5.6 3.1 8.2 8.3 8.2 14.6 0 10.9-7.9 19.6-24.3 19.6h-26.6zm27.8 23.9c4.5 0 7.5-2.9 7.5-7s-3-7.1-7.5-7.1h-9.8c-3.6 0-5.7 1.9-5.7 5.5v3.1c0 3.5 2.1 5.5 5.7 5.5zm-.4 30.3c6.6 0 11.1-4.2 11.1-10.3s-4.5-10.5-11.1-10.5h-9.4c-3.6 0-5.7 2-5.7 5.6v9.6c0 3.6 2.1 5.6 5.7 5.6z"/><path d="m169 62.5c0-13.1 10.1-23.8 25.7-23.8s25.7 10.7 25.7 23.8-10.2 23.9-25.7 23.9-25.7-10.8-25.7-23.9zm25.7-14.6c-8.5 0-13.9 6.5-13.9 14.6s5.3 14.7 13.9 14.7 13.9-6.5 13.9-14.7-5.4-14.6-13.9-14.6z"/><path d="m229.9 39.6 9.5 27.8c.9 2.8 3.3 2.7 4.2 0l9.2-27.8h12.9l9 28c.9 2.8 3.3 2.9 4.3 0l9.6-28h9.9l-16.2 45.7h-12.3l-9.4-27.7c-.8-2.5-3.4-2.5-4.2 0l-9.3 27.7h-12.2l-16.6-45.7z"/><path d="m302.3 21.3h42.6v9.8h-25.1c-2.9 0-5.1 2.1-5.1 4.9v4.2c0 2.8 2.2 5 5.1 5h25.1v9.8h-25.1c-3.2 0-5.1 2.4-5.1 5v25.3h-12.4z"/><path d="m350.3 21.3h11.6v64h-11.6z"/><path d="m389.3 38.7c13.2 0 22.5 9.1 22.5 21.9 0 1.2-.1 2.6-.3 3.8h-32c-1.6 0-2.3.7-2.3 2.7 0 4.8 4.4 10.9 12.2 10.9 4.9 0 9.3-2.5 11.1-6.6h11.3c-2.4 8.8-10.7 15-22.2 15-14.7 0-23.9-10.4-23.9-24 0-14.3 9.9-23.7 23.6-23.7zm9 18.1c1.5 0 2.1-.9 2.1-1.9 0-2.8-3.6-7.8-11.4-7.8s-11.6 5-11.6 7.8c0 1.1.6 1.9 2 1.9z"/><path d="m426.4 65c1.8-1.9 1.8-4 0-6l-18.4-19.4h13.5l11.5 12.5c1.9 2.1 4.2 2.1 6 0l11.5-12.5h12.5l-18.3 19.4c-1.8 1.9-1.7 4.1 0 6l19.2 20.3h-13.6l-12.1-13.3c-1.8-2-4.3-2.1-6.2 0l-11.9 13.3h-12.6z"/><path d="m468.8 82.2h1.6c.6 0 .9.4.9.8s-.3.8-.9.8h-.2l1.2 1.5h-.7l-1.3-1.5h-.1v1.5h-.5zm.6 1.1h.9c.3 0 .4-.2.4-.3 0-.2-.1-.3-.3-.3h-1z"/><path d="m469.9 80.6c-1.7 0-3.1 1.4-3.1 3.1s1.4 3.1 3.1 3.1 3.1-1.4 3.1-3.1-1.4-3.1-3.1-3.1zm0 .6c1.4 0 2.5 1.1 2.5 2.5s-1.1 2.5-2.5 2.5-2.5-1.1-2.5-2.5 1.1-2.5 2.5-2.5z"/></g></svg>