<svg viewBox="0 0 609 100" xmlns="http://www.w3.org/2000/svg"><g id="figure" fill="#e2000f"><path d="m72.3 96.3v-8.7h-1.2c-4.8 8-11.5 10.4-29.5 10.4s-26.6-1.9-32.4-7.1c-5.5-5.1-7.2-11.8-7.2-28.4 0-16.9 2.6-25.1 9.7-29.8 6.1-3.9 13-4.9 30.2-4.9 17.5 0 23.3 2.2 28.1 10.7h.9v-36.2h25v94zm-45.4-34.1c0 14.7 2.8 16.9 21.6 16.9 9.2 0 15.9-1.1 18.8-3.1 2.8-1.8 3.8-5.3 3.8-13.1 0-13.8-3.3-16.3-21-16.3-19.7 0-23.2 2.3-23.2 15.7z"/><path d="m195.5 75c-1.8 18.5-11 23-46.7 23-19.3 0-28.4-1.7-34.5-6.2-6.5-4.9-8.5-11.5-8.5-28.6 0-17.9 2-24.6 9-29.5 6.5-4.5 14.9-5.9 36.6-5.9 22.6 0 30.4 1.4 36.5 6.3 5.9 4.9 8.2 12.4 8.2 27.5 0 .8-.1 4-.2 6.8h-65.1c0 6.8.7 9.1 3.1 10.9 2.7 2 7.9 2.8 16.9 2.8 15.9 0 18.9-1.2 19.9-7.1zm-24.5-20.3c-.1-5.2-.4-6.5-2-8-2.3-2.4-7.3-3.4-17.2-3.4-16.8 0-20.7 2.1-21 11.4z"/><path d="m272.3 86.3h-1.3c-3.8 8.5-11.7 11.7-28.5 11.7-15.5 0-23.6-2.4-29.7-8.5-6.1-6.2-7.4-11.2-7.4-29.4v-30.5h25v30.5c0 9.7.7 12.8 3.4 15.3 3 2.8 6.7 3.7 16.2 3.7 8.9 0 13.4-1 16.5-3.7 3.5-3.1 4.3-6.6 4.3-19v-26.8h25v66.7h-23.5z"/><path d="m330.7 75c.4 5.8 5.3 7.5 20.9 7.5 16.2 0 20.8-1.4 20.8-6.2 0-2.7-2.1-4.5-5.8-4.9-3.4-.3-9.6-.5-34.1-.5-18.9-.3-26.8-6.2-26.8-20.4 0-10.3 3.7-16.5 11.6-19.5 5.4-2.1 17-3.1 34.5-3.1 22.7 0 31.1 1.4 36.7 6.2 3.5 2.8 4.8 6.4 5.4 14.4h-25.4c-.6-2.1-.9-2.5-1.7-3.1-2.1-1.4-7.2-2-15.7-2-15.7 0-20.4 1.3-20.4 5.5 0 2.7 2 4.1 5.9 4.4 4.1.3 8.4.5 34.1.6 19.3.1 26.7 5.7 26.7 20.7 0 19-9 23.4-47.7 23.4-24.2 0-32.5-1.4-38.4-6.9-4.1-3.7-5.9-8.3-6-16.1z"/><path d="m494.9 75c-1.8 18.5-11 23-46.7 23-19.3 0-28.4-1.7-34.5-6.2-6.5-4.9-8.5-11.5-8.5-28.6 0-17.9 2-24.6 9-29.5 6.5-4.5 14.9-5.9 36.6-5.9 22.6 0 30.4 1.4 36.5 6.3 5.9 4.9 8.2 12.4 8.2 27.5 0 .8-.1 4-.2 6.8h-65.1c0 6.8.7 9.1 3.1 10.9 2.7 2 7.9 2.8 16.9 2.8 15.9 0 18.9-1.2 19.9-7.1zm-24.5-20.3c-.1-5.2-.4-6.5-2-8-2.3-2.4-7.3-3.4-17.2-3.4-16.8 0-20.7 2.1-21 11.4z"/><path d="m528.8 29.6v10h1.2c4.6-8.5 11.7-11.7 25.7-11.7 20.2 0 26.8 6.8 26.9 26.8v4.5h-23.5c0-9.9-2.8-12.5-13.1-12.5-5.6 0-10.3 1.7-12.7 4.8-2.4 3.2-3.1 6.9-3.1 17.2v27.6h-25v-66.7z"/><path d="m580.1 15.5c0 7.4 5.9 13.4 13.4 13.4s13.5-5.9 13.5-13.4c0-7.3-5.9-13.5-13.5-13.5s-13.4 6.2-13.4 13.5zm24.3 0c0 5.9-4.9 10.8-10.9 10.8-5.9 0-10.8-4.7-10.8-10.8 0-5.9 4.7-10.9 10.8-10.9 6.2 0 10.9 5 10.9 10.9zm-14 1.3h.7c.8 0 1.5.2 2 .6s1.2 1.5 2 3l1.2 2.2h3.6l-1.7-2.8c-.6-1-1-1.6-1.1-1.7-.4-.5-.7-1-.9-1.1-.2-.2-.5-.4-1-.6 1.2-.2 2.1-.6 2.8-1.3s1-1.7 1-2.7c0-1.4-.6-3.7-4.1-4-.3 0-1.9 0-4.6 0h-2.8v14.2h2.9zm1.1-6.2c1.7 0 2.7.1 3.1.2 1.1.4 1.4 1.3 1.4 1.8 0 .7-.4 1.5-1.3 1.8-.4.1-1.5 0-3.2.1h-1.1v-3.9z"/></g></svg>