<svg viewBox="0 0 1008 100" xmlns="http://www.w3.org/2000/svg"><g id="figure"><path d="m2 3.4v93.4h124.8v-93.4zm62.6 10.2c20.1 0 36.4 16.3 36.4 36.4s-16.3 36.4-36.4 36.4-36.4-16.3-36.4-36.4 16.3-36.4 36.4-36.4zm-3 6.6c-11.8 1.1-21.7 9-25.6 19.7 3-1.1 5.7-2.7 8.7-3.5 2.4-.7 4.8-1.5 7-2.7 1.7-.9 2.8-3.2 4.6-3.8 2.1-.8 4.2-1.4 6.3-2.3-.5-2.5-1-4.9-1-7.4zm6.4 0c0 2.5-.5 4.9-1 7.4 2.1.9 4.2 1.5 6.3 2.3 1.8.6 2.9 2.9 4.6 3.8 2.2 1.2 4.6 2 7 2.7 2.8.8 5.4 2.1 8.1 3.2-3.9-10.4-13.5-18.1-25-19.4zm-10.9 16.6c-2 .4-5 1.5-7.1 2.1-4.8 2-9.7 2.4-14.8 3.8-.6 2.4-.9 4.8-.9 7.3 0 10.6 5.5 19.9 13.8 25.2 1-2.9 1.5-5.4 2.4-8.3.6-2.1 2.2-3.4 2.8-5.4.9-3.1 1.7-6.1 2.7-9.2.6-2 1.8-3.8 2.5-5.7.7-3.4.1-6.7-1.4-9.8zm15.4 0c-1.5 3.1-2.1 6.4-1.4 9.8.7 1.9 1.9 3.7 2.5 5.7 1 3.1 1.8 6.1 2.7 9.2.6 2 2.2 3.3 2.8 5.4.9 2.8 1.4 5.3 2.3 8.1 8.1-5.4 13.5-14.6 13.5-25 0-2.6-.4-5-1-7.4-4.9-1.3-9.7-1.7-14.3-3.7-2.1-.6-5.1-1.7-7.1-2.1zm-7.7 15.8s-2.2 2.9-3.1 4.5c-1.5 3-3.3 6-4.6 9.1-1.3 4.1-4.5 6.5-6.8 10.3 4.4 2.2 9.2 3.5 14.2 3.5 5.3 0 10.4-1.3 14.7-3.7-2.3-3.7-5.4-6-6.7-10.1-1.3-3.1-3.1-6.1-4.6-9.1-.9-1.6-3.1-4.5-3.1-4.5z"/><path d="m191.7 2.5 39.7 73.5 41.3-73.5h47.9v95.4h-29.1v-70.3l-40.3 70h-39.3l-40-69.2v69.5h-29v-95.4z"/><path d="m420.3 2.5h-30.3l-65.4 95.3h34.4l16.6-25.2h59.5l18 25.2h33.3zm-14.8 24.5 14.1 21.1h-28.4z"/><path d="m614.5 2.5c16.4 0 30.8 13.8 30.8 29.7 0 16.7-15.2 29.9-30.8 29.9h-22.7l58.9 35.9h-47.3l-64.7-40.8v-18.9h72.7c4.9 0 6.5-3.6 6.5-6.1-.1-3-2.3-5.9-6.5-5.9h-87.8v71.3h-31.6v-95.1z"/><path d="m807 2.2v24h-119.6v47.6h119.6v24.2h-118.5c-15.8 0-31-11.9-31-25.5v-44.7c0-13.3 16-25.6 31-25.6z"/><path d="m851.5 2.5 45 43.6 45.3-43.6h38.6l-69.1 67.4v28.1h-30.1v-28.1l-68.3-67.4z"/><path d="m990.7 7.3v11.8h2.5v-4.9h1.9l2.6 4.9h2.9l-2.8-4.9c2.1-.4 3.1-1.2 3.1-3.4 0-1.8-.3-3.5-4.4-3.5zm5.8 2c1.4 0 2 .4 2 1.5 0 1-.6 1.5-2 1.5h-3.3v-3z"/><path d="m995.2 2a11.3 11.3 0 00-11.3 11.3 11.3 11.3 0 0011.3 11.3 11.3 11.3 0 0011.3-11.3 11.3 11.3 0 00-11.3-11.3zm0 2a9.3 9.3 0 019.3 9.3 9.3 9.3 0 01-9.3 9.3 9.3 9.3 0 01-9.3-9.3 9.3 9.3 0 019.3-9.3z"/></g></svg>