<svg viewBox="0 0 186 100" xmlns="http://www.w3.org/2000/svg" xmlns:xlink="http://www.w3.org/1999/xlink"><g id="figure"><path d="m106.5 2.5c.7-.1 1.4-.6 2.1 0 1.1-.1 2 0 2.9.6-.1.1-.2.3-.3.4.7 1.1.5 2.7.5 3.9 0 .6-.3 1-.4 1.5-.1.6 0 1.2-.1 1.7-.1.2-.4.3-.6.4-.1.5-.1 1.2.3 1.6.3.3.6.1.9-.1.9-.6 1.6-1.4 2.5-1.9 1.3-.8 2.9-1.3 3.9-2.5.2-.3.4-.5.8-.6.6-.2.8-.6 1.2-1-.7-1-2.6-1.5-3.5-1.2-.3.4-.3.7-.7 1-.5.3-1 .8-1.6.7-.3 0-.5-.4-.5-.7-.3.1-.6.4-.9 0-.1-.3-.2-.7-.2-1.1 0-.5.2-.9.2-1.4.6-.4.9-.9 1.6-1.1 1.2-.2 2.4.1 3.6.4 2.2.4 4.8.5 6.7 1.7.3.2.6.3.8.5.1.2.1.4.1.6 0 .8-.4 1.5-.9 2.1-.4.4-.2.9-.7 1.3-.5.5-1.1.8-1.5 1.4-.7 1.1-1.8 1.5-2.7 2.5-1.7 1.9-3.1 4.2-4.4 6.3-.7 1-.6 2.5-1 3.7-.9 3.1-2.6 6.1-5 8.3-.4.4-.2.9-.6 1.3-.9.9-1.1 2.1-1.4 3.3-.1.6.3.9.7 1.2 2.5 1.6 4.9 5.1 5.4 6 .2.4.4.8.3 1.3s-.2 1.2-.4 1.7c-.3.5-.8.6-1.3.7-.6.1-.9.6-1.6.6-1.1 0-2.4-.1-3.6-.3-1.6-.3-3-1.1-4.6-1.5-1.7-.5-5.4-1.4-5.8-1.4-.5 0-.8.2-1.3.2-.4-.1-.7-.1-1.1 0-.7.2-1.3.2-2 .4-.6.2-1.2.6-1.9.7-.4-.1-.8-.3-1.2-.5.1-.7.4-1.4.5-2.1.1-.3.1-.7.3-.9.3 0 .6-.1.9-.1.4-.2.6-.6 1-.8.9 0 1.8.5 2.6.9 1 .3 2.4.5 3.3 0 .4-.4.8-1.1 1-1.7-.1-.5-.6-.9-.8-1.4-.2-.3-.4-.9-.8-1-.7 0-1.5.1-2.2.2-3.3.5-6.6.6-7.8.9-1.2.4-2.3 1-3.5 1.4-3.2 1.1-6.5 1.5-9.9 1.7-.9 0-2-.3-2.8-.7-.6-.2-.4-1-1-1.2s-1.2-.2-1.8-.1-1.1.4-1.7.7c-.5.2-1.3.2-1.8.4-.8.3-1.8.6-2.7.6-.5-.2-.7-.4-1.3-.3-.1-.2-.1-.5-.2-.7-.1-.9-.2-1.6-.2-2.5v-.4c.3-.2.6-.3.9-.3.6.2 1.1.8 1.8.9.4 0 .8.1 1.2.2 1.1-.4 2.4-.4 3.5-.8 1.2-.2 1.8-1.5 2.8-2.1.8-.6 1.8-.1 2.7-.6.8-.5 1.4-1.2 2.4-1.5 1.4-.4 2.7-.3 4.1 0 1.2.3 2.4 0 3.6 0 .4 0 .6-.6 1-.6.9-.1 2-.3 2.6-.9.1-.1.2-.3.4-.4 1.4-.5 2.9-.4 4.2-1.1 1.1-.4 2-1 3-1.7 1.1-.8 2.4-.7 3.7-1.4.5-.3.9-.5 1.4-.6.1-.4.3-.8.4-1.2 0-.3 0-.7 0-1 .1-.5.7-.7.7-1.3 0-1-.4-2.1-.8-3-.2-.3-.4-.8-.8-.8-.9-.1-1.8-.1-2.7 0-1 .1-1.9.5-2.9.4s-2.1-.1-3.1-.2c-.6 0-1.3.1-1.9.1s-.7-.6-1.3-.5c-1.8.2-3.6-.3-5.3-.8-1.3-.4-2.7-.5-4.1-.2-.7-.1-1.3-.6-1.9-.8-.1 0-.3 0-.4 0-.3-.2-.4-.3-.7-.3-.4-.4-.5-.7-.6-1.2.7-.3 1.5-.5 2.2-.8.3-.1.6 0 .9.1.6.2.9 1.1 1.5 1.1 2 .1 4.3-.3 6.2-.8 1-.2 1.9-.4 2.9-.5.4 0 .7-.3 1.1-.3 1.1-.1 2.4 0 3.5.2.6.1 1.1 0 1.7-.1 1.4-.3 2.8-.6 4.2-1 .8-.2 1.5-.4 2.3-.5 1.2-.1 2.5-.1 3.7-.4-.3-.6-.5-1.3-.9-1.8-.3-.3-.3-.7-.4-1.1-.2-.2-.4-.4-.5-.7-.1-.5.2-1-.2-1.4-.3-.4-.7-.7-.7-1.2s-.1-1-.1-1.5c.1-.4.4-.7.7-1 .5-.5.6-1.1 1.2-1.5.9-.6 1.9-1.1 3-1.2z"/><path d="m2 57.6c3.9-.6 6.1-.8 9.6-.8 4.9 0 10.1 1.1 10.1 5.8 0 1.6-.7 3.5-2.8 5-.6.4-2.1 1.2-2.1 1.2s2.2.4 3.6 1.4c2.1 1.4 2.4 3.6 2.4 4.7 0 1.8-.7 3.9-3.7 5.7-1.9 1.2-4.7 1.4-6.9 1.4-2.9 0-3.9-.2-7-.2-.3 0-.5-.3-.5-.6v-20.8c0-1.2-.6-1.5-1.7-1.7-.3 0-.6.1-.9.1zm6.9 22.4c.7.2 2.3.2 3.3.2 4.5 0 5.8-3.1 5.8-4.5 0-4.5-3.4-5.7-7.9-5.7h-1.2zm0-11.7h.8c5.8 0 7.4-1.8 7.4-4.9 0-4.2-3.9-4.9-6.5-4.9-1.5 0-1.7.2-1.7.9z"/><path d="m32.7 69.2c1.1-.1 2-.3 2.8-.5 2.8-.6 4-2.6 4.1-5.3-.2-4.4-4.6-4.9-6.4-4.9-1.5 0-1.7.3-1.7.9v21.8c0 .3-.2.5-.5.6-1.1.1-2.2.2-3.3.2-.3 0-.4-.2-.4-.5v-21.1c0-1.2-.7-1.7-1.8-1.7-.3 0-.6.1-.9.1l-.1-1.2c2-.5 5.3-.9 8.9-.9 4.7 0 10.7.6 10.9 6 0 .8-.1 2.5-1.6 4.1-1 1.1-2.6 1.8-3.9 2.5 1.8.7 3.2 1.3 4.1 3.6l1.8 4.8c.8 2.2.9 2.6 2.7 3l.1 1.1c-1.2.3-2.4.4-3.6.4-.8 0-2-.2-2.8-1.9-1.3-2.9-1.5-4-2.3-6.6-.7-2.3-1.8-3-3.7-3.2-.6-.1-1.4-.1-2.3-.1z"/><path d="m53.9 74.1c0 2.9 1.3 5.5 5.5 5.6 2.3 0 4.3-.8 6.4-1.7v-20c0-.3.3-.5.6-.6 1.1-.2 2.1-.2 3.2-.3.3 0 .5.3.5.6v23.5c0 .3-.2.5-.5.6-1 .2-2.1.2-3.1.2-.3 0-.5-.1-.5-.5v-1.6c-2.9 1.4-6.1 2.3-9.3 2.4-2.6 0-6.9-1.1-6.9-6.3v-15.3c0-1.5-.7-1.9-1.7-1.9-.3 0-.7.1-1 .1l-.1-1.2c2-.4 4.6-.7 6.1-.7.4 0 .8.2.8.6z"/><path d="m97 80.1c-3.3 1.8-8.1 2.3-9.1 2.3-8.7 0-14.4-5.6-14.4-13 0-8.3 6.7-12.7 14.5-12.7 1.9 0 4.9.3 7.2.8.3.1.5.4.5.5.1 1.1.2 4.8.2 5.1l-1 .1c-.9-4.3-5.2-4.7-6.9-4.7-9.2.1-10 7.6-10 9.9 0 6.9 4.6 11.8 12 11.7.9 0 2.9-.1 6.3-1.4z"/><path id="a" d="m104.8 79.4c0 .6.5.6 1.5.6h3.7c4.1 0 5.1-.9 6.7-4.4l1 .2-1 5.3c-.1.5-.6.7-1.1.7-4.8 0-9.6-.1-14.4-.1-.5 0-.5-.3-.5-.5v-20.1c0-1.4-.8-1.7-2-1.8-.3 0-.6.1-.9.1l-.1-1.2c1.1-.3 5.3-.8 7.1-.8h10.9c.2 0 .4.2.4.4l.2 5.3-1.1.1c-.9-3.9-1.6-4-5.3-4h-4.2c-.7 0-.9.1-.9.5v8.6l8.7-.2c.4 0 .5.2.5.6l-.1 1.7-9.1-.2z"/><path d="m131.6 79.1c0 .7.1.7 1.6.7 1.8 0 3.7 0 5.5-.1 2.4-.2 3.4-2.2 4.3-4.2l1.1.2-1.1 5.4c-.1.5-.5.7-1 .7-4.6 0-9.3-.1-13.9-.1-.5 0-.5-.3-.5-.5v-20.5c0-1.9-.5-1.9-2-1.9-.3 0-.6.1-.9.1l-.1-1c2.1-.7 5.3-.9 6.4-.9.4 0 .6.3.6.7z"/><use transform="translate(46.3)" xlink:href="#a"/><use transform="translate(66.3)" xlink:href="#a"/><path d="m57.9 87.9c1.2-.2 2.4-.3 3.6-.3 2 0 4 .5 4 2.4 0 1.1-.9 1.8-1.2 2-.2.2-.8.5-.8.5s.8.2 1.4.6c.9.6 1 1.5 1 1.9 0 .3-.1 1.5-1.3 2.3-.8.5-1.7.6-2.6.6-1.2 0-1.5-.1-2.8-.1-.1 0-.2-.2-.2-.3v-8.4c0-.8-.6-.7-1-.7zm2.7 9.1c.4.1 1 .1 1.3.1 2 0 2.2-1.4 2.2-1.8 0-.8-.1-2.3-3-2.3h-.5zm0-4.7h.3c1.7 0 2.8-.4 2.8-2 0-1.7-1.4-2-2.4-2-.6 0-.7.1-.7.4z"/><path id="b" d="m70.6 92.3 2.1-4.2c.1-.2.2-.2.3-.2.3-.1.6-.1.9-.1.1 0 .1 0 .1.1v.1l-3.1 5.2v4.3c0 .1-.1.3-.2.3-.3.1-1 .1-1.2.1-.1 0-.2-.1-.2-.2v-4.4l-2.3-4.2c-.3-.5-.5-.7-.9-.7-.1 0-.2 0-.4 0v-.4c.7-.1 1.8-.3 2.1-.3.1 0 .2 0 .3.1z"/><path d="m88.3 90-3.2 7.7c0 .1-.1.1-.2.1-.2 0-.5.1-.7.1-.1 0-.2-.1-.2-.2l-3-7.8-.9 7.8c0 .1-.1.1-.2.1s-.5.1-.9.1c-.1 0-.1 0-.1-.1 0 0 .1-.5.1-.5l1.6-8.7-.3-.8c0-.1.1-.2.2-.2.3 0 .9-.1 1.2-.1.1 0 .1 0 .2.2l3.1 8.1 3.1-7.2-.1-.8c0-.1.1-.2.2-.2s.9-.1 1.2-.1c.1 0 .2.1.2.2l1.2 9.8v.1c0 .1-.1.2-.2.2-.5.1-1.1.1-1.2.1 0 0-.2 0-.2-.1z"/><path d="m94.1 94.2-1.3 3.5c0 .1 0 .1-.1.1-.1.1-.4.1-.8.1-.1 0-.2 0-.2-.1 0 0 .3-.7.3-.7l3.6-8.7-.1-.5c0-.1-.1-.2.1-.3.2 0 .9-.1 1.2-.1.1 0 .2.1.3.2l3.8 9.8v.1c0 .1-.1.2-.2.2-.5.1-1 .1-1.2.1-.1 0-.2 0-.2-.1l-1.4-3.7zm.3-.8h3.2l-1.6-4.2z"/><path d="m104.8 92.6c.4 0 1-.1 1.3-.2.8-.2 1.3-.7 1.3-2.1 0-1.3-.9-1.8-1.4-1.9-.3-.1-.7-.1-1-.1-.6 0-.7.2-.7.4v8.8c0 .1-.1.3-.2.3-.3.1-1 .1-1.2.1-.1 0-.2-.1-.2-.2v-8.6c0-.6-.2-.7-.6-.7-.1 0-.3 0-.4 0l-.1-.5c.8-.1 2.3-.3 3.7-.3.6 0 1.1.1 1.7.2 1.1.2 2.2.8 2.2 2.2 0 1.2-.7 1.9-1.3 2.3-.3.2-.9.4-.9.4.9.2 1.4.7 1.7 1.5l.6 1.9c.3 1.1.5 1.2 1.1 1.2l.1.5c-.5.1-1.3.1-1.3.1-.9 0-1.2-.4-1.4-1.3l-.7-2.3c-.2-.7-.7-1-1.3-1.1-.2 0-.6-.1-1-.1z"/><path d="m119.7 97.1c-1.3.8-3.3.9-3.7.9-3.2 0-5.3-2.3-5.3-5.3 0-3.4 2.5-5.1 5.7-5.1.8 0 1.6.1 2.6.3.1 0 .2.1.2.2 0 .4.1 2 .1 2.1l-.5.1c0-.4-.2-1.2-.9-1.6-.6-.4-1.4-.4-1.8-.4-3.4 0-3.7 3.2-3.7 4.1 0 1.8.6 3.6 2.5 4.4 1.6.7 3.3.3 4.5-.2z"/><use transform="translate(54.1)" xlink:href="#b"/></g></svg>