<svg viewBox="0 0 147 100" xmlns="http://www.w3.org/2000/svg"><g id="figure"><path d="m80.1 78.6c3.8 0 6.9 3.1 6.9 6.9s-3.1 6.9-6.9 6.9-6.9-3.1-6.9-6.9 3.1-6.9 6.9-6.9zm28.2 0c3.8 0 6.9 3.1 6.9 6.9s-3.1 6.9-6.9 6.9-6.9-3.1-6.9-6.9 3.1-6.9 6.9-6.9zm-65.3 0c3.8 0 6.9 3.1 6.9 6.9s-3.1 6.9-6.9 6.9-6.9-3.1-6.9-6.9 3.1-6.9 6.9-6.9zm-21.2 6.9c0 3.8-3.1 6.9-6.9 7-3.8 0-6.9-3.1-6.9-6.9s3.1-6.9 6.9-6.9 6.9 3.1 6.9 6.9zm43-12.3h-6v24.2h6zm-43.1 24.3h6v-24.3h-6v2c-2.1-1.5-4.6-2.2-7.2-2.2-6.9 0-12.5 5.6-12.5 12.5s5.5 12.5 12.4 12.5h.1c2.6 0 5.1-.8 7.2-2.2zm93.4 0h6v-24.3h-6v2c-2.1-1.5-4.6-2.2-7.2-2.2-6.9 0-12.5 5.6-12.5 12.5s5.6 12.5 12.5 12.5h.1c2.6 0 5.1-.8 7.2-2.2zm8.2-7.9c.2 4.9 4.4 8.3 11.3 8.3 5.7 0 10.4-2.5 10.4-7.9 0-3.8-2.1-6-7.1-7l-3.8-.8c-2.5-.5-4.2-1-4.2-2.4 0-1.6 1.7-2.3 3.7-2.3 3 0 4.3 1.5 4.4 3.3h6.1c-.3-4.7-4.1-7.9-10.2-7.9-6.3 0-10.1 3.5-10.1 8 0 5.5 4.5 6.4 8.3 7.1l3.2.6c2.3.4 3.3 1.1 3.3 2.4 0 1.2-1.1 2.4-3.8 2.4-3.9 0-5.2-2-5.3-3.8zm-73.5-24.6v10.2c-2.1-1.5-4.6-2.2-7.2-2.2-6.9 0-12.5 5.6-12.5 12.5s5.6 12.5 12.4 12.5h.1c2.6 0 5.1-.8 7.2-2.2v1.7h6v-32.5zm37.1 0v10.2c-2.1-1.5-4.6-2.2-7.2-2.2-6.9 0-12.5 5.6-12.5 12.5s5.5 12.5 12.4 12.5h.1c2.6 0 5.1-.8 7.2-2.2v1.7h6v-32.5zm-69.3-7.1 21.1-12.1 11.1 19.2h-28.1zm47.2 13.1h-6v-6l-16.5-28.8 21.1-12.1 23.6 40.9h-22.1zm31.1-6-29.3-50.9 21.1-12.1 36.4 63z"/></g></svg>