<svg viewBox="0 0 128 100" xmlns="http://www.w3.org/2000/svg"><g id="figure" transform="scale(.1)"><path d="m693 639.2v216.4c0 91.2 68.2 124.4 161.7 124.4h242.2c96.4 0 161.8-35.3 161.8-124.4v-216.4h-97.4v217.1c0 31.7-21.5 47.6-64.4 47.6h-242.2c-42.9 0-64.4-15.9-64.4-47.6v-217.1zm-671.7 0v20.2c0 111.1 101.6 124.5 161.5 124.5h324.9v72.4c0 31.7-21.5 47.6-64.4 47.6h-394.1v76.1h394.1c93.9 0 161.7-33.5 161.7-124.4v-216.4h-97.3v68.6h-324.9c-42.9 0-64.4-15.9-64.4-47.6v-21z"/><path d="m986.4 384.4-2.6 82.9h-35.9l-1.8-82.9zm-649.8 0-2.5 82.9h-36l-1.8-82.9zm923.4 0v-76.8h-1240v76.8h216.7l8.1 82.9h-62c-79.8 0-161.5 24.3-161.5 124.4v11.6h97.1v-12.4c0-31.7 21.5-47.5 64.4-47.5h260.5c42.9 0 64.4 15.8 64.4 47.5v12.4h97.3v-11.6c0-99.6-81-124.4-161.7-124.4h-55l8.1-82.9h490.1l8.1 82.9h-39.9c-148.6 0-161.7 82.9-161.7 124.4v11.6h97.3v-12.4c0-31.7 21.5-47.5 64.4-47.5h242.2c42.9 0 63.3 15.8 63.3 47.5v12.4h98.5v-11.6c0-89.3-65.4-124.4-161.8-124.4h-58.8l8.1-82.9z"/><path d="m249.8 176.7-103.5-156.7h-21.6l-104.2 156.7h32.9l82.2-126.2 80.8 126.2z"/><path d="m471.8 176.7v-156.7h-25.8v116.4l-156.1-116.4h-25.6v156.7h25.8v-122l167.2 122z"/><path d="m624.8 176.7c37.2 0 55.8-11.1 55.8-33.4v-52.1h-29.6v52.1c0 6.8-8.7 10.3-26.2 10.3h-69.3c-17.5 0-26.3-3.6-26.3-10.7v-89.1c0-7.1 8.8-10.6 26.3-10.6h122.7v-23.2h-122.7c-37.3 0-55.5 11.2-55.6 33.8l-.3 89.1c-.1 22.6 18.6 33.8 55.9 33.8z"/><path d="m865 176.7v-23.1h-127.1v-133.6h-29.9l-.1 156.7z"/><path d="m1046.9 176.7v-23.1h-131.6v-48.1h124.9v-23.2h-124.9v-39.1h131.6v-23.2h-161.2v156.7z"/><path d="m1210.3 176.7c23.9 0 49.2-7.2 49.2-37.8v-19.4c0-30.6-25.2-37.8-49.2-37.8h-92.2c-13.1 0-19.6-4.9-19.6-14.5v-9.6c0-9.6 6.5-14.4 19.6-14.4h132.7v-23.2h-132.7c-24 0-49.2 7.2-49.2 37.8v9.2c0 30.6 25.2 37.8 49.2 37.8h92.2c13.1 0 19.6 4.9 19.6 14.5v19.8c0 9.7-6.5 14.5-19.6 14.5h-136.3v23.1z"/></g></svg>