<svg viewBox="0 0 437 100" xmlns="http://www.w3.org/2000/svg"><g id="figure"><path d="m35.2 56.5c-.6 0-1.2-.3-1.3-.6l-3.2-7.2h-15.7l-3.2 7.2c-.1.3-.7.6-1.3.6h-7.3c-.6 0-1.2-.3-1.2-.6 0 0 .1-.1.1-.2l11.2-23.7c1.7-3.5 6.6-3.9 9.5-3.9 3 0 7.9.3 9.5 3.9l11.2 23.7c0 .1.1.2.1.2 0 .4-.6.6-1.2.6zm-11.2-23.3c-.2-.5-.4-.6-1.1-.6s-.9.2-1.1.6l-4.9 11.2h12.1z"/><path d="m81.4 56.5c-.8 0-1-.4-1.4-.8l-9.9-10.1h-1c-1.8 0-4.5-.1-6.1-.2v10.2c0 .4-.6.8-1.3.8h-6.9c-.8 0-1.4-.3-1.4-.8v-26c0-.8.8-1 2.2-1.1 3.6-.3 8.4-.5 13.4-.5 10.6 0 19.7 2.1 19.7 8.5v.3c0 4-3.6 6.5-9.3 7.7l10.8 11c.1.1.1.2.1.3 0 .3-.3.5-.8.5zm-1.9-19.8c0-2.8-3.4-4-10.3-4-1.4 0-4.9.1-6.1.2v8.5c1.1 0 4.9.1 6.1.1 7.1 0 10.3-1.1 10.3-4.4z"/><path d="m121.2 32.8v22.9c0 .4-.6.8-1.4.8h-6.8c-.8 0-1.4-.3-1.4-.8v-22.9h-11.9c-.8 0-1.4-.3-1.4-.7v-3c0-.4.6-.7 1.4-.7h33.5c.8 0 1.4.3 1.4.7v3c0 .4-.6.7-1.4.7z"/><path d="m146 56.5c-2 0-3.5-.4-3.5-1.4v-2.1c0-.5.2-.9.9-1.4l21.7-17.9c.1-.1.2-.2.2-.3 0-.2-.2-.3-.7-.3h-19.1c-.8 0-1.3-.3-1.3-.7v-3.2c0-.4.5-.7 1.3-.7h27.6c2 0 3.6.5 3.6 1.4v2.2c0 .5-.4 1.1-1 1.6l-21.4 17.6c-.2.2-.3.3-.3.4 0 .2.1.2.6.2h21.1c.8 0 1.4.3 1.4.7v3.2c0 .4-.6.8-1.4.8z"/><path d="m208.1 32.8v22.9c0 .4-.6.8-1.4.8h-6.8c-.8 0-1.4-.3-1.4-.8v-22.9h-12c-.8 0-1.4-.3-1.4-.7v-3c0-.4.6-.7 1.4-.7h33.5c.7 0 1.4.3 1.4.7v3c0 .4-.6.7-1.4.7z"/><path d="m278.1 21.4c-4 2-7.9 4-11.7 6s-6.8 3.6-9.2 4.9c.1 1.6.3 3.9.6 6.6s.6 4.1.9 5.9c.5 2.9 1 4.9 1.7 7.6.7 2.6 1.6 4.7 2.5 6.1 1 1.7 1.2 2.6.6 2.7s-1.3-.5-2.3-1.7c-.7-1.2-1.5-3.1-2.4-5.4-.9-2.4-1.5-4.3-2.3-7s-.8-3.1-1.4-5.8-1.1-5.1-1.4-7c-2.3 1.2-5 2.6-7.9 4.4-2.9 1.7-6 3.7-9.3 5.8-3.2 2.2-6.6 4.5-10 7s-6.8 5.1-10.1 7.9c-1.6 1.4-3.6 3.2-5.9 5.4s-4.3 4.6-6.1 7.2-3.1 5.3-3.9 8.2-.6 5.7.7 8.4c.8 2.2 2 3.9 3.5 5.1s3.1 2.2 4.7 2.9c.8.4 1 .8.7 1.2s-.8.3-1.6-.1c-1.5-.5-3-1.5-4.7-3s-3-3.2-3.9-5c-1.4-2.9-2-5.7-1.7-8.5s1.2-5.6 2.6-8.3c1.5-2.7 3.4-5.3 5.9-7.9 2.4-2.6 5-5.1 7.8-7.7 2.9-2.5 6.1-5.1 9.5-7.6s6.8-5 10.2-7.3c3.4-2.4 6.8-4.5 10.1-6.6 3.3-2 6.3-3.8 9-5.5-.2-1.6-.3-3.5-.4-5.8s-.2-4.7-.2-7c-.1-2.4-.1-4.7 0-6.9 0-2.2.1-4.1.2-5.6 0-.6.2-1.2.6-1.7s.8-.9 1.2-1c.4-.2.9-.2 1.2 0 .4.2.6.8.5 1.7.1 1.6.1 3.6.1 5.8v6.6c0 2.2.1 4.4.1 6.5.1 2.1.2 3.9.5 5.4 2.1-1.2 5.1-2.8 8.9-4.9 3.8-2 7.7-4.1 11.8-6.1s8-3.9 11.7-5.6 6.6-2.9 8.8-3.6c.8-.3 1.4-.3 1.8.1.5.4.8.8 1 1.4.2.5.1 1.1-.2 1.7s-.9 1.1-1.7 1.4c-2.3.6-5.4 1.7-9.1 3.4s-7.6 3.5-11.6 5.6z"/><path d="m300.1 36.1c-2 1.3-3.9 2.8-5.5 4.5-.9.8-1.6 1.8-2.5 2.6-5.3 5.3-8.9 14.5-15 12.5-2.7-1.9-5.4-7.6-5.1-12.7.1-.8.3-1.7.6-2.6s.8-2.7 1.3-2.8c.5 0 .9 1.4 1.2 2.1.3.8.5 1.6.7 2.4 1 4 .6 8.7 3.9 8.8 4.5 0 7.7-6.6 11.8-9.8.7-.6 1.4-1.3 2.1-1.9 1.4-1.2 2.9-2.4 4.7-3.4.9-.5 1.8-1 2.8-1.4s2.5-1.2 3.2-1.2 0 1.1-.9 1.2c-.8.2-2.2 1-3.2 1.6z"/><path d="m305.6 26.5c0-2.2 1.2-3.5 2.2-3.6 2.5-.4 2.5 4.2 1.7 5s-2.4.9-2.9.8c-.6-.1-1-1.5-1-2.1zm-6.4 29.7c-.7.1-1.2.2-1.7-.5-.4-.6.4-4.3 1.9-7.4.9-1.7 3.2-7.1 3.8-7.5s1-.2 1.1.1-.3 3.9-.6 7c-.3 2.9-.9 5.2-1.8 6.9-.7.8-2 1.3-2.7 1.4z"/><path d="m315.5 45.3c.1-2.6 2.1-6.6 1.1-7.1-.9-.6-3.9.7-7.6.7-1.3-.8-.2-2.3 1.1-2.9 1.2-.6 3.3-.6 4.5-.5 1.3.1 2.6.2 3.1.4 1.6-3.4 3.5-7.3 5.8-11.7.5-1 1.2-2.1 2.1-3.5.6-.9 1.3-1.9 2.1-2.8 1.4-1.8 3.5-3.2 4.1-2.8s-1.5 3.4-3.4 6.3c-.5.8-4.3 7-4.8 7.8-1.6 2.5-2.7 5.1-3.5 7 1.8.6 2.1.4 5.6.8 4 .4 6.2.4 6.5.6.3.3 0 1.1-.2 1.5-.3.5-1 .7-1.9.6-1.7-.2-1.1-.3-2.8-.4-1.7-.2-.4-.1-2.8-.2l-5-.4c-1.1 4.4-1.4 7.7-.7 10 .7 2.5 3.5 4.9 4.5 5s2.1 0 3.2-.1h.5c.5.2.4.9-.2 2 0 0-3.1 1.2-5.9.7-2.8-.6-5.3-4.9-5.1-10.9z"/><path d="m339.5 56.1c-1.5.4-2.6.2-3.2 0-1.1-.4-1.6-.9-2-2-.4-1-.4-2.2 0-3.4.6-2.2 2.8-4.4 6.8-6.5 3.8-2.1 8.7-4 9.7-2.4.2.2-.2 1.5-.6 2.1-1.4 1.6-2.4 2.7-5.3 2.5-.8 0-1.5.2-2.2.4-.7.1-1.4.3-2 .6-.7.3-1.2.6-1.7 1.1-1 .8-1.6 2.5-1.7 3.1s.2 1.1.5 1.4.7.5 1.1.6c.5 0 1-.1 1.5-.2 7-2.5 21.3-11.4 19.4 3.1-.1.9-.2 1.3-.5 1.9-2.2-11.4-17.6-2.4-19.6-2z"/><path d="m368.9 39.1c-1 3.9-.9 5.9-1.2 8.4-.1.6.3 3.5 1.5 4.5 3.7 3 6.4 1.1 6.5 2.8.1 1.8-8.9 2.8-10.5-.2-1-1.8-.6-4.8-.4-5.6.7-4 .9-7.2 2.9-13s3.8-10.7 8.2-17.7c1.6-2.5 3.8-2.4 2.2 1.3-1.9 3.2-6.6 10.1-9.1 19.6z"/><path d="m389.9 29.3c-.9-.7-1.9-2.2-1.2-3.6.7-1.3 1.8-1.6 2.5-1.9s1.2.3 1.6 1.4c.4 1.2 0 1.9-.6 2.9s-1.4 1.8-2.3 1.1zm-6.2 27.2c-.3 0-1.1.1-1.7-.5-.7-.5.3-4.3 1.7-7.4.8-1.7 3.1-7.1 3.5-7.7s1-.3 1.1.1-.2 3.9-.4 7c-.2 3-.7 5.3-1.5 7-.7.7-2.4 1.5-2.7 1.5z"/><path d="m398 49.7c.1-.9 2.3-9.9 2-10.1-.5-.3-2.4-.4-3.9-.4-3.8.5-3.5-1.1-3.1-1.8.4-.8 7.5-.2 7.7-.5.2-.4 2.4-7.8 4.7-13 .7-1.7 3-6.5 4.7-6.4s.3 1.8-.2 3c-2.9 5-6.9 15-6.5 16.4.1.4 1.3.8 2.7.8 2-.2 5.8-.6 5.4.5-.9 2.8-4.2 1.8-6 1.7-1.1-.1-2.7-.3-3.1-.1-.4.3-.9 4.5-1.2 6.1-.4 1.6-1.7 8.2 6.5 8.2 1.7.7.8 1.6-.2 1.8 0 0-9.8 2.7-9.4-6.1z"/><path d="m434.9 37.4c-5.3 10.8-11.6 17.4-18.9 26.1-.8 1.1-1.5 2.1-2.3 3.2-.8 1-1.6 2-2.4 3-.5.8-1 1.4-1.3 1.8-.7.9-1.1 1.2-1.5 1.3-.5.1-.7-.3-.6-1 .1-.5 1.1-2.2 2.6-4.4.7-1.1 1.5-2.1 2.3-3 .8-1 1.7-1.9 2.4-2.8 3.8-4.6 4.1-8.5 3.1-12.5-.3-1.1-1.1-3.5-1.5-4.5-1.2-3-1.7-3.6-1.4-5.5.4-3 2.7-.9 4.3 2.8.4.9.7 1.6 1.1 3 1.1 3.3 0 7.3.8 7.3 1.3 0 6.9-8.3 10-13.3.6-.9 1-1.5 1.2-1.6 1.1-.6 2.3-.7 2.3.1z"/></g></svg>