<svg viewBox="0 0 401 100" xmlns="http://www.w3.org/2000/svg"><g id="figure"><path d="m294.2 11.1c0 3.5 2.7 5.9 5.7 5.9 3.2 0 5.8-2.7 5.8-5.9 0-3.5-2.9-5.8-5.8-5.8-3.2 0-5.7 2.6-5.7 5.8zm5.8 6.8c-3.7 0-6.8-3.1-6.8-6.8s3.1-6.7 6.8-6.7 6.7 3 6.7 6.7c0 4-3.1 6.8-6.7 6.8zm-.4-9.5h-1.1v2.7h1.2c1.1 0 2-.4 2-1.4s-.3-1.3-2.1-1.3zm3.4 1.1c0 1.2-.7 1.7-1.8 1.8.6.1.9.4 1.2.8s.4.8.4 1.1v1c0 .2 0 .5.1.6h-1.2v-1c0-1.7-.9-2-2.2-2h-1.1v2.9h-1.3v-7.4h3.1c.1 0 2.8 0 2.8 2.2z"/><path d="m39 39.4 14.5 17-22.3 40.4h-29.2l50.1-94.7h30.3l-19.7 37.3z"/><path d="m109.7 2c3.1 0 16 5.2 16 18 0 10.8-10.3 18.6-20.9 18.6h-19.8v-36.6z"/><path d="m80.9 96.5c16.3 0 33-13.3 33-34.2 0-4.9-1.5-17.8-13.7-21l-16.8 14.4-.1 33.3-17.8-18.9-30.3 26.4z"/><path d="m128.7 98c-8.9 0-14.1-6.8-14.1-12.5 0-4.6 5.8-17.4 9.7-23 4.9-7.1 13.1-20.1 33.2-20.1h42.4l-29.9 54.5h-23.2l26.6-47.4h-9.6c-8.8 0-15 11.9-19.2 19.9l-5 9.4c-3.1 5.8.9 8 2.5 7.9 4.8-.4 8.8-3.2 6.7.4-6 10.4-18.4 10.9-20.1 10.9z"/><path d="m200.5 97.8c-8.9 0-14.1-6.9-14.1-12.6 0-4.6 5.8-17.4 9.7-23 4.9-7.1 13.1-20.1 33.2-20.1h18.7l21.9-38.9h23.8l-51.8 93.5h-23.3l26.3-47.3h-9.6c-8.8 0-14.7 11.7-18.9 19.7l-5 9.4c-3.1 5.8.9 8 2.5 7.9 4.8-.4 8.8-3.2 6.7.4-6 10.4-18.4 11-20.1 11z"/><path d="m327.3 53.2c-4.9 15.5-9.5 18.8-12.9 18.9l-24.4.4 1.5-3.3c11.6-1 10.2-1.3 17.1-13.7 3.1-5.6.7-8.9-2.3-9-8.6-.2-12 6.6-16.5 14.3-9.1 15.4-13.9 30.2 1 30.2 7.9.1 11.4-6.7 15-12.7h12c-10.7 18.7-17 19.4-28.8 19.4-12.1 0-28.8 1.3-29-13.7-.1-9.9 9.6-29.5 18.7-37.1 5.8-4.8 16.5-5.3 27-5.3 10 0 24.6 2.1 21.6 11.6z"/><path d="m343.9 42.6h39.4c12.4 0 15.7 6.5 15.7 11.2 0 1.4-.3 2.7-.8 3.5l-21.5 39.7h-21.4l19.8-37.1c3.1-5.9 3.6-10-6.2-9.9h-5.2l-25 47h-24z"/></g></svg>