<svg viewBox="0 0 546 100" xmlns="http://www.w3.org/2000/svg"><g id="figure"><path d="m37.7 80.6c-4.8 0-8.5 4.2-8.4 9 .1 4.6 3.8 8.4 8.4 8.4h57.8c12.6 0 22.8-10.2 22.8-22.8s-10.2-22.8-22.8-22.8h-84.6c-4.8 0-8.9 3.6-8.9 8.4s3.6 8.9 8.4 8.9h85.1c3 0 5.4 2.5 5.4 5.5s-2.4 5.4-5.4 5.4zm0-61.2c-4.8 0-8.5-4.2-8.4-9 .1-4.6 3.8-8.4 8.4-8.4h57.8c12.6 0 22.8 10.2 22.8 22.8s-10.2 22.8-22.8 22.8h-84.6c-4.8 0-8.9-3.6-8.9-8.4s3.6-8.9 8.4-8.9h85.1c3 0 5.4-2.5 5.4-5.5s-2.4-5.4-5.4-5.4z"/><path d="m150.2 53.9c4 0 6.3 2 6.3 5.6 0 3.7-2.3 5.7-6.3 5.7h-7.9v-11.3zm-7.9-8.9v-10.5h7.4c3.9 0 6 1.8 6 5.2s-2.2 5.3-6 5.3zm24.7-6.5c0-8.5-5.8-13.4-15.9-13.4h-15.2c-3 0-5 2-5 5.1v39.4c0 3 2 5 5 5h14.6c11.1 0 17.3-5.2 17.3-14.6 0-5.6-3-9.5-6.1-11.1 3.4-2.1 5.3-5.8 5.3-10.4z"/><path d="m196.5 55.5h-10.3l5.1-15.5zm2.6-24.4c-1.5-4.3-4.1-6.5-7.7-6.5s-6 2.1-7.6 6.5l-13.2 36.4c-.2.7-.4 1.4-.4 2.1 0 3 2.4 5.4 5.2 5.4s4.8-1.7 5.6-4l1.9-5.7h16.8l1.9 5.7c.8 2.3 2.8 4 5.3 4 3 0 5.4-2.4 5.5-5.4 0-.4-.1-1.4-.4-2.1z"/><path d="m241.9 30.7v25.8c0 5.4-2.8 8.7-7.6 8.7-4.7 0-7.8-3.4-7.8-8.7v-25.8c0-3.5-2.3-6-5.6-6s-5.7 2.5-5.7 6v25.5c0 12 7.2 19.2 19.1 19.2 11.7 0 19-7.4 19-19.2v-25.5c0-3.5-2.3-6-5.7-6-3.3 0-5.7 2.5-5.7 6z"/><path d="m288.7 35c3.1 0 5.3-2 5.3-4.9s-2.2-5-5.3-5h-23.6c-3 0-5 2-5 5.1v39.3c0 3.1 2 5.1 5 5.1h23.6c3.1 0 5.3-2 5.3-5s-2.2-5-5.3-5h-17.3v-10.1h13.8c3.1 0 5.3-2 5.3-4.9s-2.2-4.9-5.3-4.9h-13.8v-9.7z"/><path d="m319 46.3h-8.6v-11.3h8.6c3.8 0 6.2 2.2 6.2 5.7 0 3.4-2.5 5.6-6.2 5.6zm.5-21.2h-15.4c-3 0-5 2-5 5.1v38.8c0 3.5 2.3 6 5.7 6s5.6-2.5 5.6-6v-12.9h6.9l8.1 15.4c1.2 2.3 3.1 3.5 5.5 3.5 2.9.1 5.3-2.2 5.4-5.1.1-1.2-.2-2.4-.8-3.5l-6.8-12.4c5-2.6 7.8-7.8 7.8-13.4-.1-9.3-6.8-15.5-17-15.5z"/><path d="m347.3 25.1c-3 0-5 2-5 5.1v38.8c0 3.5 2.3 6 5.7 6s5.6-2.5 5.6-6v-13.9h13.7c3.2 0 5.3-1.9 5.3-4.9s-2.1-4.9-5.3-4.9h-13.7v-10.3h17.2c3.1 0 5.3-2 5.3-4.9s-2.1-5-5.2-5z"/><path d="m409.3 35c3.1 0 5.3-2 5.3-4.9s-2.2-5-5.3-5h-23.6c-3 0-5 2-5 5.1v39.3c0 3.1 2 5.1 5 5.1h23.6c3.1 0 5.3-2 5.3-5s-2.2-4.9-5.3-4.9h-17.3v-10.2h13.8c3.1 0 5.2-2 5.2-4.9s-2.1-4.9-5.2-4.9h-13.8v-9.7z"/><path d="m419.7 30.7v38.3c0 3.5 2.3 6 5.7 6s5.6-2.5 5.6-6v-38.3c0-3.5-2.3-6-5.6-6-3.4 0-5.7 2.5-5.7 6z"/><path d="m466 30.2v25.5l-14.4-25.7c-2.2-3.8-4.3-5.3-7.3-5.3-3.8 0-6.3 2.6-6.3 6.7v38.1c0 3.3 2 5.5 5.2 5.5s5.2-2.2 5.2-5.5v-25.5l14.4 25.6c2.2 3.8 4.3 5.4 7.3 5.4 3.8 0 6.3-2.6 6.3-6.7v-38.1c0-3.3-2-5.5-5.2-5.5s-5.2 2.2-5.2 5.5z"/><path d="m499.7 64.4h-4.9l-.1-29.1h5c5 0 8 1.7 9.1 5.2.6 1.8.9 4.9.9 9.3s-.3 7.5-.9 9.3c-1.1 3.5-4.1 5.4-9.1 5.3zm.2-39.3h-11.5c-3 0-5 2-5 5.1v39.4c0 3 2 5 5 5h11.5c10.9 0 17.2-3.6 19.8-11.5.9-2.6 1.5-5.9 1.5-13.3s-.6-10.6-1.5-13.2c-2.6-7.9-8.8-11.5-19.8-11.5z"/><path d="m534.2 21.1c-5.4 0-9.8 4.4-9.8 9.8s4.4 9.8 9.8 9.8 9.8-4.4 9.8-9.8-4.4-9.8-9.8-9.8zm0 1.6c4.5 0 8.2 3.7 8.2 8.2s-3.7 8.2-8.2 8.2-8.2-3.7-8.2-8.2 3.7-8.2 8.2-8.2zm-3.1 2.6c-.4 0-.6.4-.6.8v9.3c0 .5.4.9.9.9s.8-.4.8-.9v-3.6c0-.1 0-.2.1-.2h2.3l2.1 4.2c.2.3.5.5.8.5.6 0 1-.6.7-1.2l-1.9-3.6c1.4-.3 2.2-1.6 2.2-3 0-1.9-1.3-3.2-3.5-3.2zm1.2 1.4h2.6c1.4 0 1.9.6 1.9 1.7s-.5 1.7-1.9 1.7h-2.6c-.1 0-.1 0-.1-.1v-3.2c0-.1 0-.1.1-.1z"/></g></svg>