<svg viewBox="0 0 543 100" xmlns="http://www.w3.org/2000/svg" xmlns:xlink="http://www.w3.org/1999/xlink"><g id="figure"><path d="m141.3 79.4c-1.1 0-2 .9-2 2v14.6c0 1.1.9 2 2 2h397.7c1.1 0 2-.9 2-2v-14.6c0-1.1-.9-2-2-2z"/><path d="m4 2c-.9 0-2 1-2 2v91.9c0 1 .8 2 2 2h39.8c30.2 0 32.3-22.1 32.3-30.4 0-13.9-8.3-19-13.3-20.9 4.5-3.1 9.3-7.6 9.3-17.1 0-15.9-9.9-27.5-27.9-27.5zm35.2 22.3c2.3 0 4.6 1.2 5.6 3.4s1 5.1 0 7.3-3.3 3.4-5.6 3.4h-11.1v-14.1zm1.7 34.1c2.8 0 5.5.8 7.2 3.2 1.8 2.7 1.9 7.7 0 10.3-1.6 2.2-4.4 3.1-7 3.1h-13v-16.6z"/><path d="m92 2h21.2c1 0 2.5.9 2.5 2.5v32.9h23.8v-32.9c0-1.6 1-2.5 2.5-2.5h21c2 0 2.5.6 2.5 2.5v63.4c0 3.2-.9 3.7-5 3.7h-17.6c-2.7 0-3.4-.7-3.4-3.7v-6h-24v33.1c0 2.2-1 3-4 3h-18c-3 0-4-1.1-4-3v-90.5c0-1.6 1-2.5 2.5-2.5z"/><path d="m183.9 3.2c-.6 0-1 .4-1 1v65c0 .6.4 1 1 1h9.2c.6 0 1-.4 1-1v-26h26.2c.6 0 1-.4 1-1v-8.3c0-.6-.4-1-1-1h-26.2v-19.4h30.2c.6 0 1-.4 1-1v-8.3c0-.6-.4-1-1-1z"/><path d="m236.5 3.2c-.6 0-1 .4-1 1v65c0 .6.4 1 1 1h9.4c.6 0 1-.4 1-1v-65c0-.6-.4-1-1-1z"/><path d="m256.6 3.2c-.6 0-1 .4-1 1v8.3c0 .6.4 1 1 1h19.3v55.7c0 .6.4 1 1 1h9.4c.6 0 1-.4 1-1v-55.7h19.1c.6 0 1-.4 1-1v-8.3c0-.6-.4-1-1-1z"/><path d="m317.2 3.2c-.6 0-1 .4-1 1v65c0 .6.4 1 1 1h9.1c.6 0 1-.4 1-1v-34.8l-.9-13.1c8.4 16.5 18.5 32.2 28.1 48.2.3.5 1.1.7 1.7.7h9.5c.6 0 1-.4 1-1v-65c0-.6-.4-1-1-1h-9.2c-.6 0-1 .4-1 1v32.1l1 17.1c-4.6-8-18.5-32.8-27.7-48.9-.3-.5-1.6-1.3-2.2-1.3z"/><path d="m383.1 3.2c-.6 0-1 .4-1 1v65c0 .6.4 1 1 1h40.8c.6 0 1-.4 1-1v-8.4c0-.6-.4-1-1-1h-30.5v-18.6h26.7c.6 0 1-.4 1-1v-8.3c0-.6-.4-1-1-1h-26.7v-17.4h29.2c.6 0 1-.4 1-1v-8.3c0-.6-.4-1-1-1z"/><path id="x" d="m459 2c5.1 0 13.4 1.2 21.9 7.6 1.1.8.2 1.9-.4 2.7l-3.9 5.6c-.7 1-3.1-.6-4.2-1.2-4.8-2.8-10.3-4.3-15.9-4.1-3.1.1-6.7 1-9.1 3.2-2.6 2.4-2.9 6.8-.5 9.4 1.6 1.8 4.2 2.8 6.4 3.5 5.1 1.6 10.3 2.2 15.4 4.1 4.5 1.6 14.6 5.6 14.6 18.3 0 18.5-19.5 20.1-25.8 20.1-8.7 0-18.2-3.3-24.2-9.8 0 0 .3-1.3.8-2l3.1-4.2c1.4-1.9 1.8-2.4 2.9-1.7 3.1 1.9 5.9 3.9 9.3 5.2 5.2 2 10.8 2.5 16 .5 7.8-3 7.5-10.4 3.6-13.6-2.9-2.3-7.1-3.3-10.7-4.1-6.7-1.4-13.8-3.3-19-8-3.6-3.2-5.4-8-5.4-12.9.1-17.4 19.9-18.6 25.1-18.6z"/><use transform="translate(57.7)" xlink:href="#x"/></g></svg>