<svg viewBox="0 0 325 100" xmlns="http://www.w3.org/2000/svg" xmlns:xlink="http://www.w3.org/1999/xlink">
 <defs><path id="p1" d="m0 100h325v-100h-325z"/><path id="p2" d="m0 100h100v-100h-100z"/><g id="p3"><path d="m21.4 51.8c-.9 0-1.9.3-2.7.9-1.9 1.5-2.2 4.2-.7 6 7.8 9.8 19.5 15.5 32 15.5s24.2-5.6 32-15.5c1.5-1.9 1.2-4.6-.7-6-1.9-1.5-4.6-1.2-6 .7-6.2 7.8-15.4 12.2-25.3 12.2s-19.1-4.5-25.3-12.2c-.9-1.1-2.1-1.6-3.4-1.6"/><path d="m31.2 40.5c4.1 0 7.4-3.3 7.4-7.4s-3.3-7.4-7.4-7.4-7.4 3.3-7.4 7.4 3.3 7.4 7.4 7.4"/><path d="m68.8 40.6c4.1 0 7.4-3.3 7.4-7.4s-3.3-7.4-7.4-7.4-7.4 3.3-7.4 7.4 3.3 7.4 7.4 7.4"/></g><g id="p4"><path d="m299.9 51.2c0 1.2-1 2.2-2.2 2.2s-2.2-1-2.2-2.2 1-2.2 2.2-2.2 2.2 1 2.2 2.2"/><path d="m190.1 52.8c0-.9.7-1.6 1.6-1.6s1.6.7 1.6 1.6-.7 1.6-1.6 1.6-1.6-.7-1.6-1.6"/><path d="m190.1 64c0-.9.7-1.6 1.6-1.6s1.6.7 1.6 1.6-.7 1.6-1.6 1.6-1.6-.7-1.6-1.6"/><path d="m194.8 67.8c0-.9.7-1.6 1.6-1.6s1.6.7 1.6 1.6-.7 1.6-1.6 1.6-1.6-.7-1.6-1.6"/><path d="m183.7 67.8c0 .9-.7 1.6-1.6 1.6s-1.6-.7-1.6-1.6.7-1.6 1.6-1.6 1.6.7 1.6 1.6"/><path d="m182.1 49.6c0 .9-.7 1.6-1.6 1.6s-1.6-.7-1.6-1.6.7-1.6 1.6-1.6 1.6.7 1.6 1.6"/><path d="m167.2 49.6c0 .9-.7 1.6-1.6 1.6s-1.6-.7-1.6-1.6.7-1.6 1.6-1.6 1.6.7 1.6 1.6"/><path d="m182.1 55.7c0 .9-.7 1.6-1.6 1.6s-1.6-.7-1.6-1.6.7-1.6 1.6-1.6 1.6.7 1.6 1.6"/><path d="m222.2 67.2c0 .9-.7 1.6-1.6 1.6s-1.6-.7-1.6-1.6.7-1.6 1.6-1.6 1.6.7 1.6 1.6"/><path d="m227.4 67.8c0 .9-.7 1.6-1.6 1.6s-1.6-.7-1.6-1.6.7-1.6 1.6-1.6 1.6.7 1.6 1.6"/><path d="m294.4 49c0 .9-.7 1.6-1.6 1.6s-1.6-.7-1.6-1.6.7-1.6 1.6-1.6 1.6.7 1.6 1.6"/><path d="m294.2 68.3c0 .9-.7 1.6-1.6 1.6s-1.6-.7-1.6-1.6.7-1.6 1.6-1.6 1.6.7 1.6 1.6"/><path d="m289 67.8c0 .9-.7 1.6-1.6 1.6s-1.6-.7-1.6-1.6.7-1.6 1.6-1.6 1.6.7 1.6 1.6"/><path d="m285.4 64.2c0 .9-.7 1.6-1.6 1.6s-1.6-.7-1.6-1.6.7-1.6 1.6-1.6 1.6.7 1.6 1.6"/><path d="m220.6 61.8c0 .9-.7 1.6-1.6 1.6s-1.6-.7-1.6-1.6.7-1.6 1.6-1.6 1.6.7 1.6 1.6"/><path d="m127.3 67.8c0 .9-.7 1.6-1.6 1.6s-1.6-.7-1.6-1.6.7-1.6 1.6-1.6 1.6.7 1.6 1.6"/><path d="m127.3 37.4c0 .9-.7 1.6-1.6 1.6s-1.6-.7-1.6-1.6.7-1.6 1.6-1.6 1.6.7 1.6 1.6"/><path d="m154.9 31.3c0 .9-.7 1.6-1.6 1.6s-1.6-.7-1.6-1.6.7-1.6 1.6-1.6 1.6.7 1.6 1.6"/><path d="m154.9 37.4c0 .9-.7 1.6-1.6 1.6s-1.6-.7-1.6-1.6.7-1.6 1.6-1.6 1.6.7 1.6 1.6"/><path d="m154.9 43.5c0 .9-.7 1.6-1.6 1.6s-1.6-.7-1.6-1.6.7-1.6 1.6-1.6 1.6.7 1.6 1.6"/><path d="m133.2 67.8c0 .9-.7 1.6-1.6 1.6s-1.6-.7-1.6-1.6.7-1.6 1.6-1.6 1.6.7 1.6 1.6"/><path d="m133.2 37.4c0 .9-.7 1.6-1.6 1.6s-1.6-.7-1.6-1.6.7-1.6 1.6-1.6 1.6.7 1.6 1.6"/><path d="m139.3 38.3c0 .9-.7 1.6-1.6 1.6s-1.6-.7-1.6-1.6.7-1.6 1.6-1.6 1.6.7 1.6 1.6"/><path d="m140 67.1c0 .9-.7 1.6-1.6 1.6s-1.6-.7-1.6-1.6.7-1.6 1.6-1.6 1.6.7 1.6 1.6"/><path d="m127.3 49.6c0 .9-.7 1.6-1.6 1.6s-1.6-.7-1.6-1.6.7-1.6 1.6-1.6 1.6.7 1.6 1.6"/><path d="m127.3 55.7c0 .9-.7 1.6-1.6 1.6s-1.6-.7-1.6-1.6.7-1.6 1.6-1.6 1.6.7 1.6 1.6"/><path d="m127.3 61.8c0 .9-.7 1.6-1.6 1.6s-1.6-.7-1.6-1.6.7-1.6 1.6-1.6 1.6.7 1.6 1.6"/><path d="m127.3 49.6c0 .9-.7 1.6-1.6 1.6s-1.6-.7-1.6-1.6.7-1.6 1.6-1.6 1.6.7 1.6 1.6"/><path d="m127.3 43.5c0 .9-.7 1.6-1.6 1.6s-1.6-.7-1.6-1.6.7-1.6 1.6-1.6 1.6.7 1.6 1.6"/><path d="m167.2 55.7c0 .9-.7 1.6-1.6 1.6s-1.6-.7-1.6-1.6.7-1.6 1.6-1.6 1.6.7 1.6 1.6"/><path d="m271.8 50.2c0-.9.7-1.6 1.6-1.6s1.6.7 1.6 1.6-.7 1.6-1.6 1.6-1.6-.7-1.6-1.6"/><path d="m258.5 67.8c0-.9.7-1.6 1.6-1.6s1.6.7 1.6 1.6-.7 1.6-1.6 1.6-1.6-.7-1.6-1.6"/><path d="m194.2 49c0-.9.7-1.6 1.6-1.6s1.6.7 1.6 1.6-.7 1.6-1.6 1.6-1.6-.7-1.6-1.6"/><path d="m200.8 68.7c0-.9.7-1.6 1.6-1.6s1.6.7 1.6 1.6-.7 1.6-1.6 1.6-1.6-.7-1.6-1.6"/><path d="m206 66.7c0-.9.7-1.6 1.6-1.6s1.6.7 1.6 1.6-.7 1.6-1.6 1.6-1.6-.7-1.6-1.6"/><path d="m273.5 67.8c0-.9.7-1.6 1.6-1.6s1.6.7 1.6 1.6-.7 1.6-1.6 1.6-1.6-.7-1.6-1.6"/><path d="m273.5 61.8c0-.9.7-1.6 1.6-1.6s1.6.7 1.6 1.6-.7 1.6-1.6 1.6-1.6-.7-1.6-1.6"/><path d="m273.5 55.7c0-.9.7-1.6 1.6-1.6s1.6.7 1.6 1.6-.7 1.6-1.6 1.6-1.6-.7-1.6-1.6"/><path d="m232.7 52.8c0-.9.7-1.6 1.6-1.6s1.6.7 1.6 1.6-.7 1.6-1.6 1.6-1.6-.7-1.6-1.6"/><path d="m232.7 64c0-.9.7-1.6 1.6-1.6s1.6.7 1.6 1.6-.7 1.6-1.6 1.6-1.6-.7-1.6-1.6"/><path d="m237.4 67.8c0-.9.7-1.6 1.6-1.6s1.6.7 1.6 1.6-.7 1.6-1.6 1.6-1.6-.7-1.6-1.6"/><path d="m236.7 49c0-.9.7-1.6 1.6-1.6s1.6.7 1.6 1.6-.7 1.6-1.6 1.6-1.6-.7-1.6-1.6"/><path d="m243.3 68.7c0-.9.7-1.6 1.6-1.6s1.6.7 1.6 1.6-.7 1.6-1.6 1.6-1.6-.7-1.6-1.6"/><path d="m248.6 66.7c0-.9.7-1.6 1.6-1.6s1.6.7 1.6 1.6-.7 1.6-1.6 1.6-1.6-.7-1.6-1.6"/><path d="m156.3 68.9c-1 0-1.8-.3-2.3-.7-.9-.6-2-2-2-4.9v-14.3c0-.8.6-1.4 1.4-1.4s1.4.6 1.4 1.4v14.4c0 1.3.3 2.2.8 2.6s1.3.2 1.9 0c.7-.3 1.5.1 1.8.8s-.1 1.5-.8 1.8c-.8.3-1.5.4-2.1.4"/><path d="m170.1 69.2c-6 0-6-5.8-6-8 0-.8.6-1.4 1.4-1.4s1.4.6 1.4 1.4c0 4.8 1.5 5.2 3.2 5.2 4 0 6.6-2.5 9.4-5.6.5-.6 1.4-.6 2-.1s.6 1.4.1 2c-3 3.3-6.3 6.6-11.5 6.6"/><path d="m225 51h-12c-.8 0-1.4-.6-1.4-1.4s.6-1.4 1.4-1.4h12c.8 0 1.4.6 1.4 1.4s-.6 1.4-1.4 1.4"/><path d="m219 57.1c-.8 0-1.4-.6-1.4-1.4v-12.2c0-.8.6-1.4 1.4-1.4s1.4.6 1.4 1.4v12.2c0 .8-.6 1.4-1.4 1.4"/><path d="m260.1 63.1c-.8 0-1.4-.6-1.4-1.4 0-6.3-.8-9.5-1.6-11.7-.3-.7.1-1.5.8-1.8s1.5.1 1.8.8c.9 2.5 1.8 5.9 1.8 12.7 0 .8-.6 1.4-1.4 1.4"/><path d="m260.1 57.1-.7-.2c-.7-.4-.9-1.2-.6-1.9 1.8-3.3 5.4-6.6 9.6-6.8.8 0 1.4.6 1.4 1.3 0 .8-.6 1.4-1.3 1.5-3 .1-5.9 2.9-7.2 5.4-.3.5-.7.7-1.2.7"/><path d="m297.3 68.8c-.6 0-1.1-.4-1.3-1-.2-.7.2-1.5.9-1.7 1-.3 1-1.4 1-1.7 0-1.9-3.6-3.3-6.7-4.4-4-1.5-8.1-3-8.1-6.6 0-2 1.4-4.4 4.3-4.8.7-.1 1.5.4 1.6 1.2s-.4 1.5-1.2 1.6c-1.9.3-2 2-2 2.1 0 1.6 3.3 2.9 6.3 4 4 1.5 8.5 3.2 8.5 7 0 2.1-1.2 3.8-3 4.4z"/><path d="m131.6 53.9c-.8 0-1.4-.6-1.4-1.4s.6-1.4 1.4-1.4c9.1 0 9.1-3.5 9.1-5.7 0-.6-.1-1.2-.4-1.8-.3-.7-.1-1.5.6-1.9.7-.3 1.5-.1 1.9.6.5 1 .7 2 .7 3.1 0 3.6-1.2 8.4-11.8 8.4"/><path d="m143.4 63.7h-.3c-.7-.2-1.2-.9-1-1.7.1-.4.1-.9.1-1.4 0-3.5-4.4-6.8-9.1-6.8-.8 0-1.4-.6-1.4-1.4s.6-1.4 1.4-1.4c6.3 0 11.8 4.5 11.8 9.5 0 .7-.1 1.4-.2 2s-.7 1.1-1.4 1.1"/><path d="m207.6 59.9h-17.5c-.8 0-1.4-.6-1.4-1.4s.6-1.4 1.4-1.4h16c-.4-3.1-2.2-5.6-5.1-6.8-.7-.3-1-1.1-.7-1.8s1.1-1 1.8-.7c4.3 1.8 6.8 5.9 6.8 10.8 0 .8-.6 1.4-1.4 1.4"/><path d="m250.1 59.9h-17.5c-.8 0-1.4-.6-1.4-1.4s.6-1.4 1.4-1.4h16c-.4-3.1-2.2-5.6-5.1-6.8-.7-.3-1-1.1-.7-1.8s1.1-1 1.8-.7c4.3 1.8 6.8 5.9 6.8 10.8 0 .8-.6 1.4-1.4 1.4"/></g><mask id="m2"><use xlink:href="#p2" fill="#fff"/><use xlink:href="#p3"/></mask><mask id="m1"><use xlink:href="#p1" fill="#fff"/><use xlink:href="#p3"/><use xlink:href="#p4"/></mask></defs>
 <g><use mask="url(#m1)" xlink:href="#p1"/><use mask="url(#m2)" xlink:href="#p2"/></g>
</svg>
