<svg viewBox="0 0 724 100" xmlns="http://www.w3.org/2000/svg" xmlns:xlink="http://www.w3.org/1999/xlink"><defs><path id="a" d="m722.2 84h-297.1v-68.9h297.1z"/><mask id="b"><use fill="#fff" xlink:href="#a"/><path d="m458.4 34.7v30.7h5.3v-13.1h12.9v13.1h5.4v-30.7h-5.4v13h-12.9v-13z"/><path d="m511.5 34.7v1.7l10.5 16.8v12.2h5.4v-12.4l10.5-16.6v-1.7h-4.9l-8.3 13.6-8-13.6z"/><path d="m566.5 34.7v30.7h5.3v-11.8h6.1l6.4 11.8h5.3v-1.7l-5.8-10.7c3.7-1.54 5.5-4.92 5.5-8.9 0-5.88-3.26-9.4-9.4-9.4zm5.3 4.6h7.1c3.12 0 4.9 1.48 4.9 4.9s-1.79 4.89-4.9 4.9l-7.1.03z"/><path d="m629.7 34c-7.48 0-12.3 4.12-12.3 11.1v9.9c0 6.98 4.82 11.1 12.3 11.1s12.2-4.12 12.2-11.1v-9.9c0-6.98-4.72-11.1-12.2-11.1zm6.9 10.8v10.5c0 3.29-2.28 5.9-6.9 5.9s-6.9-2.61-6.9-5.9v-10.5c0-3.29 2.28-5.9 6.9-5.9s6.9 2.61 6.9 5.9z"/><path d="m688.2 34.7-7.3 10.7-6.9-10.7h-5.4v1.7l9 13.1-9.8 14.2v1.7h5.2l7.8-11.7 7.8 11.7h5.4v-1.7l-9.8-14.2 9.1-13.1v-1.7z"/></mask></defs><g id="figure"><path d="m44.8 71.8c-6.77 0-16.37-4.1-25.2-11.5-2.45-2.06-4.75-4.21-6.7-6.4-4.72 6.36-6.88 11.63-5.1 13.4 1.49 1.49 5.51.23 10.5-3 .3-.19.65-.15.9.1.34.34.3.83-.1 1.1-7.36 4.86-13.55 6.75-16 4.3-.73-.72-1.1-1.79-1.1-3.1 0-3.84 2.99-9.89 8-16.5-6.09-8.13-8.22-16.11-4.7-20.3 3.11-3.7 9.9-3.51 17.7-.3.34.14.43.52.3.8-.12.25-.49.41-.8.3-5.48-2.02-10-2.1-12.1.4-2.45 2.91-.94 8.56 3.3 14.6 1.43-1.64 2.96-3.36 4.6-5 9.93-9.92 20.36-16.2 26-16.2 1.32 0 2.37.28 3.1 1 3.98 3.97.24 12.24-7.8 21-.3.33-.79.31-1.1 0-.28-.28-.34-.59-.1-.9 5.63-7.13 8.4-13.38 6.47-15.31-2.65-2.65-13.14 3.49-23.37 13.71-1.8 1.8-3.38 3.63-4.9 5.4 1.91 2.22 4.08 4.39 6.6 6.5 10.9 9.13 22.88 12.85 26.7 8.3 2.18-2.59 1.23-7.32-2-12.6-.15-.25-.12-.52.1-.7.25-.2.71-.19.9.1 3.08 4.69 4.79 9.26 4.8 12.9.02 5.15-3.3 7.9-8.9 7.9z"/><path d="m98.9 54.1h6.4c.47 0 .91.44.8.9-2.03 8.68-8.17 13.5-18 13.5-10.75 0-19.2-7.32-19.2-18.3 0-10.91 8.45-18.4 19.2-18.4 11.06 0 16.48 7.19 18.1 14 .11.46-.23.9-.7.9h-6.4c-.32 0-.6-.2-.7-.5-1.48-4.71-5.44-7.7-10.3-7.7-6.12 0-11.1 4.76-11.1 11.7 0 6.88 4.74 11.6 11.1 11.6 5 0 8.6-2.97 10.1-7.2.1-.29.39-.5.7-.5z"/><path d="m130.2 53.1v8.1h20.9c.46 0 .8.34.8.8v5.1c0 .46-.34.9-.8.9h-28.3c-.39 0-.7-.41-.7-.8v-34.1c0-.39.31-.7.7-.7h28c.46 0 .8.34.8.8v5.1c0 .46-.34.8-.8.8h-20.6v7.3h18.8c.46 0 .8.34.8.8v5.1c0 .46-.34.8-.8.8z"/><path d="m203.9 32.4h-6.7c-.39 0-.7.31-.7.7l-.01 21.99-22.39-22.69h-5.5c-.39 0-.7.31-.7.7v3.2c0 .37.14.73.4 1l30.1 30.7h5.5c.35 0 .7-.44.7-.8v-34.1c0-.36-.35-.7-.7-.7zm-35.3 35.6h6.7c.39 0 .7-.41.7-.8v-15.6c0-.19-.07-.37-.2-.5l-7.9-8.1v24.2c0 .43.31.8.7.8z"/><path d="m218.9 39.1c-.46 0-.8-.34-.8-.8v-5.1c0-.46.34-.8.8-.8h33.8c.46 0 .8.34.8.8v5.1c0 .46-.34.8-.8.8h-12.8v28.1c0 .39-.41.8-.8.8h-6.6c-.39 0-.7-.41-.7-.8v-28.1z"/><path d="m267 33.1c0-.39.41-.7.8-.7h16.5c8.67 0 14.8 4.63 14.8 12.4 0 5.4-3.25 9.04-8 10.7v.1s1.07 1.15 1.9 2.4l6 8.8c.29.42.4.58.4.7 0 .24-.14.5-.5.5h-7.9c-.3 0-.76-.25-1-.6l-7.2-10.6h-7.7v10.4c0 .39-.31.8-.7.8h-6.6c-.39 0-.8-.41-.8-.8zm8.1 6v11.3h8.6c4.46 0 7.3-2.1 7.3-5.6s-2.84-5.7-7.3-5.7z"/><path d="m357.2 98v-96h4.9v96z"/><use mask="url(#b)" xlink:href="#a"/></g></svg>