<svg viewBox="0 0 147 100" xmlns="http://www.w3.org/2000/svg"><g id="figure"><path d="m99.5 2.2c.4-.4.8-.2.2 1-1.3 2.4-2.3 5-3.3 7.5 1.1 0 2.1 0 3.2-.1.4 0 .5.7.1.8-1.2.1-2.5-.1-3.7.4-1.4 3-2.2 6.3-3.2 9.4-2 1.3-3.5 3.2-5 5-3.2 3.9-6 8-8.9 12.1-.8 1.6-.8 3.4-1.3 5.1-.4 2.7-1 5.4-.8 8.1 0 .3.1.8-.2 1.1-2.5 1.8-5.1 3.4-7.7 5.2-.3.3-.7-.2-.4-.5 1.4-3.8 2.7-7.4 3.9-11-3.3 4.2-6.5 8.1-9.5 11.9 3.2 3.3 10.3 5.9 14 6.9 4.8 1.2 9.4 1.4 13.9 1.3.7 0 .8.3.5.5-.8.4-1.6.3-2.5.5-7.6.6-12.8.1-19.7-1.7-3.3-1-6.4-2.2-9.4-4-4 4.6-7.5 7.9-12.2 11.3-.5.3-.9 0-.5-.5 2.8-4.6 6.1-9.7 8-14.2-4.6-4.4-6.8-9.7-6.9-14.6-.1-3.3.9-6.6 2.3-9.6 6.3-11.7 18.1-17.7 29.7-21.1 3.5-1.1 7.2-1.5 10.9-1.9.6 0 1.1-.3 1.4-.8 2.1-2.9 4.4-5.7 7-8.2zm-13.9 11.5c-8 2.3-15.7 6.2-21.7 12-3.8 3.7-7 8.4-8.2 13.7-1.1 5.3.1 11.4 3.1 14.7 5-4.4 10.1-9.3 14-14 1-3.6.7-7.7.5-11.1 0-.7-.6-1.6.2-2.1 2.1-2 4.3-3.9 6.5-5.9.3-.3.8 0 .6.4-.8 3.6-1.6 7.3-2.4 10.9 4.5-6.5 8.8-13.3 12.6-19.7-1.8.2-3.5.6-5.2 1.1z"/><path d="m52 79.8c1.6 0 1.9.7 2.4 1.6l5.7 11 5.7-11c.5-.9.9-1.7 2.4-1.6.6 0 1.5.8 1.8 2l3.8 15.5c.1.5-.3.7-.6.7h-2.7c-.4 0-.5-.2-.6-.6l-2.3-10.8-5.2 9.9c-1.2 2.1-3.1 2.1-4.3 0l-5.2-9.9-2.3 10.8c-.1.3-.2.6-.6.6h-2.7c-.6 0-.7-.2-.6-.6l3.8-15.5c.2-.9.6-2 1.8-2zm-29.5.8c0-.4.3-.6.6-.6h2.3c.4 0 .6.3.6.6v13.8h11.2c.3 0 .6.4.6.6v2.3c0 .2-.2.6-.6.6h-14.2c-.4-.1-.6-.3-.6-.6zm17.8 0c0-.3.3-.6.6-.6h2.2c.3 0 .6.3.6.6v16.7c0 .3-.3.6-.6.6h-2.2c-.3 0-.5-.2-.6-.6zm44.2 1.9c.6-1.1 1.7-2.5 3-2.5 1.4 0 2.5 1.6 3.1 2.5l8.6 14.9c.2.5-.1.6-.6.6h-3.2c-.4 0-.5-.3-.7-.6l-2.5-4.3h-8.2l2-3.6h4l-2.5-4.1-7.3 11.9c-.3.4-.4.6-.6.6h-3.3c-.9 0-.8-.3-.6-.6zm39.5-2.4h3.3c.7 0 .9.3 1.2.6l3.4 4.3c1 1.2 1.9 2.3 2.6 3.5.6-1.2 1.4-2.3 2.5-3.5l3.4-4.3c.2-.3.5-.6 1-.6h3.6c.5 0-.1.8-.3 1.1l-6.4 8 6.4 8.1c.3.4.5.7-.1.7h-3.4c-.3 0-.6-.1-1-.6l-3.1-3.9c-1.1-1.3-1.9-2.2-2.5-3.5-.7 1.3-1.7 2.3-2.6 3.5l-3.1 3.9c-.5.6-.7.6-1 .6h-3.5c-.4 0-.6-.2-.1-.7l6.4-8.1-6.4-8c-.6-.7-.6-1.1-.2-1.1zm-113.5 0h9.8c.4 0 .6.3.6.6v2.3c0 .4-.2.6-.6.6h-9.6c-3.4 0-5.2 2.7-5.2 5.4s1.7 5.4 5.2 5.4h9.6c.4 0 .6.2.6.6v2.3c0 .4-.2.6-.6.6h-9.8c-4.5 0-8.5-3.2-8.5-8.9 0-5.2 3.2-8.9 8.5-9zm97.7 0h6c2.2 0 4.4.9 6 2.4 3.3 3.3 3.3 9.3.1 12.7l2.2 2.2c.4.4.2.6-.3.6h-4c-.3 0-.5-.1-.7-.3l-.3-.3c-2.8.8-5.7.6-8.6.6-2.2 0-4.5-.8-6.1-2.4-3.3-3.2-3.7-8.9-.9-12.4 1.5-2 4-3.1 6.5-3.1zm-4.6 7.4c-.9 2.7.7 6 3.5 6.7 2.3.4 5 .3 7.3.2l-1.7-1.8c-.1-.1-.1-.3.1-.3h4.2c.1 0 .3.1.4.2l.3.4c1.7-2 1.8-5.3.1-7.3-1-1.2-2.6-1.9-4.2-1.8h-5.5c-2.1.1-4.1 1.7-4.6 3.8z"/></g></svg>