<svg viewBox="0 0 874 100" xmlns="http://www.w3.org/2000/svg" xmlns:xlink="http://www.w3.org/1999/xlink"><g id="figure"><path d="m91.9 87.7c-23.9 0-43.2-19.3-43.2-43.2 0-23.8 19.3-43.2 43.2-43.2 23.8 0 43.2 19.3 43.2 43.2s-19.3 43.2-43.2 43.2zm-47.9-86.7c-23.7.3-43 19.8-43 43.5 0 24 19.3 43.4 43 43.7h104.1v-87.2z"/><path id="p2" d="m163.5 44.5c0-23.7 19.3-43.5 43.2-43.5h-54.1v87.2h54.1c-23.9 0-43.2-19.8-43.2-43.5"/><path id="p3" d="m253 70.6c-2.8.7-5.7 1-8.7 1-5 0-9.7-1.9-9.7-6.9 0-12.5 9.4-37.8 13.5-42.3 2.9-3.3 5-3.8 9.9-3.8 2.8 0 5 1.9 5 3.5 0 .3-.3 1.6-.9 2.9-.5 1.4-.9 2.8-.9 4.3 0 4.9 4.5 8.2 10.2 8.2 6.8 0 10.9-4 10.9-9.4 0-10.2-14.7-13.5-24.5-13.5-22.2 0-47.5 17.3-47.5 36.8 0 14.2 14.2 24.6 30.5 24.6 13.4 0 25-5.2 33.6-13.4 1.9-1.6 3.8-3.3 5.4-5.2h-17.7s-.5 9.7-9.7 13.5"/><path id="p4" d="m339.6 14.4c-22.7 0-51.3 16-51.3 36.6 0 12.8 10.2 24.6 31.2 24.6 5.6 0 9.7-.3 15.3-1.4 18-3.6 37.1-18.6 37.1-35 0-14.7-15.6-24.8-32.3-24.8zm-1.9 4.2c6.4 0 10.2 1.9 10.2 7.1 0 8.2-7.3 32.3-10.9 40.1-2.4 5.4-6.8 6.1-13.7 6.1-4.3 0-10.9-.3-10.9-4.9 0-4.3 7.1-33.8 9.5-39.5 2.6-6.1 7.8-8.7 16-8.7"/><path id="p5" d="m443.8 69s0 0-.2 0c-1.6 0-3.5-1.2-2.9-2.8l10.2-36.4c3.1-11.6-8.8-15.3-16.7-15.3-13.5 0-21 8.5-29.1 16.1l-.3-.3 5.4-15.6c-6.1 0-15.4 0-21.5 0l-18.9 58.8h23.1l6.8-23.6c2.8-9.7 4.9-14.6 13.4-22.2 3.1-2.8 8.7-8.3 13.4-8.3 2.1 0 4.2 2.1 2.3 8.3l-9.2 31.2c-3.5 12.3 5.4 15.3 14.4 15.3 3.6 0 6.6-.3 9.4-1z"/><use id="a" xlink:href="#p3" transform="translate(246.2)"/><path id="p7" d="m567.3 28.9c2.9-8.3 7.5-10.4 12.7-10.4 7.1 0 9.5 2.8 9.5 8.3 0 13.9-12.8 18.6-17.9 18.6h-10.2zm20.3 28.3c0 .2-.5 8.7-8.2 12.7-4 1-8.3 1.7-12.8 1.7-5.7 0-9.4-1.6-9.4-6.9 0-5 1.9-10.1 2.9-15.1h14.2c5.2 0 10.6-1.2 15.4-2.4 9.9-2.8 17.7-7.6 17.7-17 0-11.4-14.7-15.6-26-15.6-22.7 0-48.7 18.2-48.7 38.2 0 14.7 14 23.2 30.7 23.2 17.5 0 31.9-6.2 41.8-18.6h-17.7"/><path id="p8" d="m658 63.6c-2.1 3.6-4.3 8-9.9 8-9 0-12.3-7.3-12.3-13.7 0-7.5 2.1-14.9 5.6-21.9 3.3-6.6 10.6-17.7 20.6-17.7 3.6 0 8.7 1.2 8.7 4.7 0 8.3-6.6 30.2-12.5 40.4zm-35-49.1-17.5 70.8h23.1l4.5-19.4c5.4 7.3 10.6 9.9 20.5 9.9 14 0 39-15.8 39-38.2 0-13.7-11.1-23.2-27.6-23.2-10.4 0-18.9 6.9-23.1 14.2l-.3-.3c1.6-4.3 3.3-9 5.2-13.7l-23.9-.2"/><path id="p9" d="m738.3 57.2c-1.9 5.6-7.5 12.7-13.7 12.7-2.3 0-3.6-1-2.3-5.9l12.5-43h12.7l.9-4.2h-12.3l2.4-7.5-22.2.2-2.9 7.5h-10.9l-1 4.2h10.6l-9.4 33.1c-1.2 4.3-2.4 8.8-2.4 10.6 0 7.1 8.7 10.2 16 10.2 14.4 0 26.7-6.8 30.7-17.7h-8.5"/><path d="m845.9 38.8c-9 6.9-14.2 10.9-21.5 16.3l-5.4 3.8c7.6 2.8 18.9 5.9 38.5-4.2l-5.2 16.5c-36.9 16.3-38.2-6.9-69.7.5 10.4-8 19.4-17.3 26-22.2s13.2-10.1 20.6-15.8c4.3-3.5 6.2-5.6 7.1-9.9.5-3.8-2.8-6.8-9-6.9-6.8 0-13.2 1.4-14 8.2 0 .5-.2.9-.2 1.2-6.4-.2-19.3 0-19.3 0v-.3c0-.3.2-.9.2-1.2 1.7-12.3 17.7-18.2 34.9-18.4 16.8.2 29.8 5.6 28.8 17-.9 6.2-5.6 10.6-11.8 15.4"/><path d="m861.8 88.9h1.2c1.4 0 2.6-.5 2.6-1.9 0-.9-.7-1.9-2.6-1.9-.5 0-.9 0-1.2.2zm0 5.9h-1.7v-10.8c.9-.2 1.7-.3 3.1-.3 1.6 0 2.8.3 3.3.9.7.5 1 1.2 1 2.3 0 1.4-.9 2.3-2.1 2.6v.2c1 .2 1.6 1 1.9 2.6.2 1.7.5 2.3.7 2.6h-1.7c-.2-.3-.5-1.4-.7-2.8s-.9-1.9-2.3-1.9h-1.2zm1.7-13.7c-4.3 0-7.8 3.6-7.8 8.2 0 4.5 3.5 8.2 7.8 8.2s7.8-3.6 7.8-8.2c0-4.5-3.5-8.2-7.8-8.2zm0-1.6c5.4 0 9.5 4.3 9.5 9.7s-4.2 9.7-9.5 9.7c-5.4 0-9.5-4.3-9.5-9.7s4.3-9.7 9.5-9.7z"/></g></svg>