<svg viewBox="0 0 434 100" xmlns="http://www.w3.org/2000/svg"><g id="figure"><path d="m63.8 25.3h-14.1c-2.42-5.88-5.74-11.96-15.9-12.2-11.4-.27-17.22 9.46-17.2 22.4.01 9.95 3.94 22.04 17.4 22.3 9.49.18 14.86-6.88 16-15.1h14.3c-1.84 12.8-8.87 26.07-30.2 26.1-22.56.03-32.09-15.72-32.1-33.7-.01-12.3 5.48-33.11 31.9-33.1 3.98 0 26.29.47 29.9 23.3z"/><path d="m95.1 18.8c-10.96-.01-25.71 7.34-25.7 24.3.01 15.32 10.5 25.62 25.1 25.7 15.09.09 26.35-9.74 26.3-25.7-.04-15.26-11.88-24.29-25.7-24.3zm.4 9.8c7.18.02 12.06 5.03 12.1 14.5.03 6.66-1.89 15.89-13.1 15.9-11.59.01-12.1-12.95-12.1-15.9 0-10.47 6.34-14.52 13.1-14.5z"/><path d="m158.4 30.4c-5.66.52-11.63.79-15.9 5.2-3.8 3.92-3.96 10.66-3.94 17.4l.04 14.3h-12.9v-46.9h12.5l.4 14.8c2.1-3.09 1.57-10.28 8.8-13.7 3.45-1.63 7.01-2.01 11-2z"/><path d="m210.4 67.3h-12.9v-23.5c0-5.51.02-11.8-5.9-13.9-3.77-1.34-8.77-1.55-12.9 2.5-2.51 2.46-3.39 5.57-3.4 14.4v20.5h-12.9v-46.9h12.5l.5 11.3c3.55-7.89 7.79-12.82 18.1-12.8 12.32.02 16.91 10.78 16.9 15.6z"/><path d="m218 28.6v38.7h13v-38.7z"/><path d="m224.7 3.4c-4.2 0-7.6 3.4-7.6 7.6s3.4 7.6 7.6 7.6 7.6-3.4 7.6-7.6-3.4-7.6-7.6-7.6z"/><path d="m238.9 3.5h13v63.8h-13z"/><path d="m259.9 3.5h13v63.8h-13z"/><path d="m303.1 68.9c13.78.04 22.59-9.12 23.2-17.9h-10c-1.79 0-1.79 1.4-2.5 2.7-2.04 3.74-6.46 5.49-10.6 5.4-3.44-.08-6.91-1.48-9.3-4-3.06-3.22-3.02-6.96-3.1-8.7h35.8c.04-.83.1-1.56.1-2.4.02-19.75-14.11-25.2-24.5-25.2-15.15 0-23.92 10.51-23.9 25.7.08 16.86 11.88 24.36 24.8 24.4zm0-40.3c6.74.1 10.94 5.52 10.7 10.8h-23c-.06-6.11 5.22-10.9 12.3-10.8z"/><path d="m332.2 37.7h12.8c1-5.9 5.03-9.05 11.4-9.1 7.03-.06 9.63 3.56 9.8 6.7.14 2.62-1.35 5.74-6.1 6.5-1.78.29-8.9.4-11.2.4-10.64.02-17.28 4.44-17.3 13.7-.02 9.94 8.91 12.88 14.8 12.9 9.48.03 17.35-5.03 19.4-12.7.16-.01.34.11.5.1v11.1h12.7v-31.9c0-11.14-9.55-16.51-22.7-16.5-5.52.01-22.06.98-24.1 18.8zm33.9 4.7c1.68 14.52-9.49 17.87-13.4 17.9-2.82.02-7.96-.65-8-5.6-.02-4.22 2.75-5.41 6.9-5.6 9.23-.41 11.57-.44 14.5-6.7z"/><path d="m384.4 20.3h12.9v23.4c0 5.51-.02 11.8 5.9 13.9 3.77 1.34 8.77 1.55 12.9-2.5 2.51-2.46 3.39-5.57 3.4-14.4v-20.4h12.5v47h-12.1l-.5-11.5c-3.55 7.89-7.79 12.92-18.1 12.9-12.32-.02-16.91-10.88-16.9-15.7z"/><path d="m8.2 85.2h10.2v2.2h-3.9v10.2h-2.4v-10.2h-3.9z"/><path d="m35.7 91.6c0 1.91.64 6.41 5.9 6.4 4.65-.01 6.09-3.67 6.1-6.4.02-4.3-2.85-6.7-6-6.7-3.12 0-5.99 2.2-6 6.7zm5.9-4.4c1.75-.01 3.6 1.08 3.6 4.4 0 .97-.22 4.16-3.6 4.1-3.24-.05-3.6-2.96-3.6-4.1 0-2.83 1.55-4.39 3.6-4.4z"/><path d="m71.9 84.9c-2.99-.01-6.01 2.03-6 6.4.01 5.34 3.27 6.7 6 6.7 1.11 0 2.55-.37 3.2-.8.14.25.48.4.9.4h1.4v-6.7h-5.2v2.1h3.1c-.24.6-.44 1.22-.9 1.7-1.28 1.33-3.66 1.3-5 0-.83-.8-1.18-1.79-1.2-2.9-.02-1.17.24-2.47 1-3.4 1.21-1.48 3.75-1.62 5.1-.3.39.38.63.93.9 1.4l2.2-.8c-.64-1.67-2.12-3.79-5.5-3.8z"/><path d="m96.3 85.2h8.4v2.2h-6v2.9h5.6v2.1h-5.6v3.2h6v2h-8.4z"/><path d="m122.5 85.2h10.2v2.2h-3.9v10.2h-2.4v-10.2h-3.9z"/><path d="m158.6 85.2h2.3v12.4h-2.3v-5.2h-5.3v5.2h-2.4v-12.4h2.4v5h5.3z"/><path d="m180.1 85.2h8.4v2.2h-6v2.9h5.6v2.1h-5.6v3.2h6v2h-8.4z"/><path d="m207.3 85.2v12.4h2.3v-5c.51.01 1.09.08 1.6.1l2.8 4.9h2.8l-3.2-5.3c1.97-1.05 2.11-2.06 2.1-3.4-.01-1.36-.23-3.7-4.5-3.7zm6.1 3.7c0 1.45-1.24 1.6-2.5 1.6h-1.3v-3.2h1.3c1.33 0 2.5.01 2.5 1.6z"/><path d="m257 85.2h2.4l2.6 8.9 2.4-8.2h2.3l2.4 8.2 2.6-8.9h2.4l-3.7 12.4h-2.4l-2.4-8.1-2.5 8.1h-2.4z"/><path d="m292.3 85.2h8.4v2.2h-6v2.9h5.6v2.1h-5.6v3.2h6v2h-8.4z"/><path d="m342 85.2v12.4h2.3v-5c2.87.18 6.19-.01 6.2-3.7 0-1.77-.8-3.7-4.3-3.7zm3.5 2.2c1.31 0 2.6.03 2.6 1.6 0 1.27-1.33 1.5-2.6 1.5h-1.2v-3.1z"/><path d="m371.2 85.2v10.4h5.3v2h-7.7v-12.4z"/><path d="m398.7 85.2-5 12.4h2.7l.8-2.2h4.9l.8 2.2h2.6l-5-12.4zm1 3.6 1.6 4.4h-3.3l1.6-4.4z"/><path d="m420.8 85.2 4.4 7.6v4.8h2.4v-4.8l4.4-7.6h-2.7l-2.9 5.2-2.9-5.2z"/></g></svg>