<svg viewBox="0 0 156 100" xmlns="http://www.w3.org/2000/svg"><g id="figure"><path d="m105.9 2c-26.5 0-48.1 21.5-48.1 48s21.6 48 48.1 48 48.1-21.5 48.1-48-21.6-48-48.1-48zm0 2.6c25.1 0 45.5 20.3 45.5 45.4s-20.4 45.4-45.5 45.4-45.5-20.3-45.5-45.4 20.4-45.4 45.5-45.4z"/><path d="m2 42v17.3h16.4c1.9 0 3.4-.8 4.3-2.3s1.2-3.6 1.2-6.5c0-2.7-.3-4.8-1.2-6.3s-2.4-2.2-4.7-2.2zm1 1h15c2.1 0 3.2.5 3.9 1.7s1 3.2 1 5.8c0 2.8-.4 4.8-1.1 6s-1.8 1.8-3.4 1.8h-15.4zm4.7 3.9v7.5h7.7c.9 0 1.7-.2 2.2-.9s.6-1.6.6-2.9c0-1.2-.1-2.1-.6-2.8s-1.4-.9-2.4-.9zm1 1h6.5c.9 0 1.4.2 1.6.5s.4 1 .4 2.2c0 1.3-.1 1.9-.4 2.3s-.6.6-1.4.5h-6.7z"/><path d="m25.9 42v17.3h7v-3.8h7v3.8h6.9l-.1-4.9c0-1-.4-1.6-1.2-2.1.6-.7 1-1.5 1.2-2.1.2-.8.2-1.5.2-2.5 0-1.8-.6-3.2-1.7-4.2s-2.6-1.5-4.5-1.5zm1 1h13.8c1.7 0 2.9.4 3.8 1.2s1.4 1.9 1.4 3.5c0 1 0 1.7-.2 2.3-.3 1-.9 1.6-1.6 2.3l1.3 1.2c.2.2.3.4.3.9 0 1 .1 2.3.1 3.9h-4.9v-3.3c0-.2-.2-.5-.5-.5h-8c-.2 0-.5.2-.5.5v3.3h-5zm4.9 4v3.7h7.2c1 0 1.8-.8 1.8-1.8 0-.9-.8-1.9-1.8-1.9zm1 1h6.2c.5 0 .8.4.8.9s-.3.8-.8.8h-6.2z"/><path d="m48.3 52.9v6.4h6.4v-6.4zm1 1h4.4v4.4h-4.4z"/><path d="m62.3 58.5h5l.1-6.2 2.1.1 7.7 6.1h6.7l-10.1-8 9.1-8h-6.5l-7.1 6.1h-1.9v-6.1h-5.1z"/><path d="m119.3 42.5c3.5 0 5.9 1.8 5.9 5.2 0 1.9-.4 3-2 4.6.9.6 1.8 1.3 1.8 2.3 0 1.1.1 2 .1 3.9h-4.8c0-1.5.1-2.8-.6-3.5s-2.5-.6-4.5-.6h-5.1v4.1h-4.9v-16zm-9 8.1h8.6c.9 0 1.4-1.2 1.4-2.1 0-1-.4-2-1.4-2h-8.6z"/><path d="m102.5 42.5v4h-12.8v2.5h11.9v3.1h-11.9v2.9h12.8v3.5h-17.7v-16z"/><path d="m127.5 42.5h7.1l10 11.8-.1-11.8h4.7v16h-7l-9.9-11.2v11.2h-4.8z"/></g></svg>