<svg viewBox="0 0 936 100" xmlns="http://www.w3.org/2000/svg" xmlns:xlink="http://www.w3.org/1999/xlink"><g id="figure"><path id="u1" d="m95 29c.9-3-2-4.2-5.9-4.2h-33.6c-5 0-8.3.4-9.5 4.2l-3.3 10h49.4zm15.2 32.6h-75.6l-2.1 6.2c-1.9 5.6-.1 7.6 4 7.6h68.9l-7.9 22.6h-74.4c-14.1 0-21.1-4.4-21.1-13.2 0-2.5.9-6.3 2.7-11.4l21.9-63.7c1.7-5 6-7.4 12.8-7.4h70.6c10.1 0 15.1 4.1 15.1 12.4 0 3.1-.8 7.1-2.4 11.7z"/><path d="m206.8 98h-25.8l22.8-65.7c.7-1.9 1.3-7.5-3.8-7.5h-34.8c-4.7 0-7.9 2.4-9.6 7.2l-22.8 66h-26.2l33.4-95.7h80.1c9.6 0 14.5 4.1 14.5 12.3 0 3.4-1 7.8-2.8 13z"/><use transform="translate(219.9)" xlink:href="#u1"/><path d="m438.9 2.2-8.1 22.6h-43.2c-6 0-10.2 3.2-11.3 6.2l-23.7 67h-26.2l28.8-81.8c3.3-9.3 10.4-14 21.5-14z"/><path d="m540.4 2.2-8 22.6h-59c-5 0-8.4 1.7-9.8 5.2s-4.1 10.6-7.9 21.5c-4.3 12.2-6.5 19-6.5 20.1 0 2.6 2 3.8 6 3.8h27.4c5.1 0 8.3-1.9 9.8-5.4l2.4-5.5h-29.8l8-22.6h55.9l-16.1 45.4c-2.6 7.4-6.2 10.7-13.8 10.7h-63.2c-8.2 0-16.5-3.6-16.5-13.2 0-2.1.6-4.5 1.5-7.2l22.5-64.7c2.7-7.9 6.8-10.7 13.7-10.7z"/><path d="m649 2.2-28.8 81.8c-3.3 9.3-10.4 14-21.4 14h-75.1l8-22.6h56.1c5.6 0 10.2-2.8 11.4-6.3l1.9-5.7h-45.5c-14.1 0-21.2-4.4-21.2-13.2 0-2.5.9-6.3 2.7-11.4l12.7-36.6h26.2l-11.1 31.1c-1.5 4.2-1.3 7.5 4 7.5h34.7c3.9 0 6.3-1.7 7.5-5l11.9-33.6z"/><path d="m730.4 36.8-7.8 22.4h-48.2l-13.7 38.8h-26.2l33.9-96h74.2l-7.8 22.6h-48.3l-4.3 12.2z"/><path d="m778.6 2-33.9 96h-26.2l33.9-96z"/><path d="m793.6 98 25.8-73.2h-39.4l8.2-22.8h103.6l-8 22.8h-38.2l-25.8 73.2z"/><path d="m898.2 2-.9 2.8h4.9l-3.2 9.4h3.4l3.3-9.4h4.7l1-2.8z"/><path d="m912.6 2-4 12.2h3.8l3.2-9.4h4.5c.3 0 .5.4.4.9l-2.6 8.5h3.7l3-9.4h4.9c.2 0 .4.4.3.9l-2.6 8.5h3.9l2.8-8.8c.1-.5.1-.9.1-1.2 0-.6-.3-2.2-1.7-2.2z"/></g></svg>