<svg viewBox="0 0 250 100" xmlns="http://www.w3.org/2000/svg" xmlns:xlink="http://www.w3.org/1999/xlink"><g><path d="m75.3 56.6c1.6-1.9 1.8-2.9-.6-4.1-3.2-1.7-5.8-4.3-8.6-7.1-.9 3.4-1.5 6.6-3.1 9.3-.6 1-1.1 2.6-2.6 1.9s-.3-2 .1-2.9c3.8-8 3-15.6-1.7-23-1.2-1.9-2.1-3.9-3.1-5.8-1-2-.1-3.6 1.6-4.4 1.8-.9 2 1.2 2.6 2.2 1.9 3.5 3.6 7 5.6 10.8 3.7-7.8 7.9-15 12.9-21.7.3-.4.6-.9 1-1.3.8-.9 1.5-2.3 2.9-1.3-.3 1-.4 2.1-.5 3.2-3.8 5.8-7.7 11.6-10.7 17.9-3.3 7-2.7 9.8 3.4 14.5 4.8 3.7 6 4.5 7.8 1.7 3.1-5.1 4.8-10.1 6.6-15.9v-13.4c0-8.4-6.8-15.2-15.2-15.2h-56.4c-8.4 0-15.2 6.8-15.2 15.2v57.9c.6 2.8 6.8 28.5 39.3 10.5 12.5-7.7 24.9-18.4 33.9-28.9zm-7.5-46.1c1.6.3 1.2 1.6 1.1 2.7-.3 2.5-2.8 5.5-4.4 5.2-1.3-.3-1.3-1.3-1.2-2.3.3-2.7 2.8-5.9 4.4-5.5zm-38.6 4.9c1.3.3 2 1.2 1.8 2.4-.5 2.8-1.6 5.3-4.1 6.9-.9.6-2 .8-2.6-.3-1-1.9-.1-3.6.8-5.3s2.1-3.1 4.1-3.7zm-11.7 11.8c1.3-.3 1.7 1.2 2.2 2.1 2.4 4.2 4.6 8.5 6.8 13.8 4.4-9.6 9.4-17.9 15.1-25.7.6-.8 1.1-1.7 1.8-2.4.8-.8 1.5-2.2 3-1 1.3 1.1.5 2.2-.2 3.2-.7 1.1-1.5 2.2-2.2 3.3-4.3 6.6-8.6 13.2-11.7 20.4-2.4 5.6-1.7 9.3 3 13.3 5 4.2 10.5 7.7 16.2 10.9 2.5 1.4 2.6 2.9 1.3 5.1-1.2 2-2.6 3.2-5 1.5-6.9-4.7-14.7-8.3-20.3-15.2-1 3.5-1.7 6.9-3.1 10-.5 1-1.1 1.9-1.7 2.8-.5.6-1.1 1.2-2 .6-.8-.5-.7-1.2-.3-2 .9-2.5 1.9-5 2.6-7.5 2-6.5.3-12.6-2.8-18.4-1.6-2.9-3.1-5.9-4.7-8.8-.5-1-.9-2-.5-3.2.4-1.3 1.1-2.5 2.5-2.8z"/><path d="m86.4 49.3c-1.1 1.4-1.6 2.5.6 3.4 2.2 1 1.5 2.7.6 4.2-.9 1.6-2.2 2.7-4 1.2-1.9-1.6-3-1-4.5.7-10.9 11.7-23.3 21.7-36.8 27.7-13.8 6.4-28.4 9.6-37.9 4.2 2.6 4.4 7.4 7.3 12.9 7.3h56.5c8.3 0 15.2-6.8 15.2-15.2v-37.5"/><path d="m126.9 49.4h-16.9v10.6h19.9v8.3h-30.6v-44.5h30.7v8.3h-20v9.4h16.9z"/><path d="m169.9 32.1h-13.4v36.2h-10.7v-36.2h-13.1v-8.3h37.2z"/><path d="m192.2 60h-14.7l-2.6 8.3h-11.5l16.3-44.5h10.1l16.4 44.5h-11.5zm-12.1-8.3h9.6l-4.8-15.4z"/><path d="m248 68.3h-10.7l-15.8-27.7v27.7h-10.7v-44.5h10.7l15.8 27.7v-27.7h10.7z"/><path d="m106.2 80.7h-4.8v5h-1.5v-11.3h7.1v1.2h-5.6v3.9h4.8z"/><path id="u" d="m116.5 74.4v7.8c0 1.1-.4 2-1 2.6-1 .9-2 1.1-3.1 1.2-1.2 0-2.2-.3-3-1-.7-.7-1.1-1.6-1.1-2.8v-7.8h1.5v7.7c0 .8.2 1.5.7 1.9.5.5 1.1.7 1.9.7.9 0 1.5-.2 2-.7s.7-1.1.7-1.9v-7.7z"/><path id="n" d="m127.3 85.8h-1.5l-5.7-8.8v8.8h-1.5v-11.4h1.5l5.8 8.8v-8.8h1.5z"/><path d="m136.8 80.1 3-5.7h1.7l-3.9 7.2v4.3h-1.5v-4.3l-3.9-7.2h1.7z"/><path d="m151.2 80.4c0 1.1-.2 2.1-.6 2.9s-.9 1.5-1.6 1.9-1.5.7-2.4.7-1.7-.2-2.4-.7c-.7-.4-1.2-1.1-1.6-1.9s-.6-1.8-.6-2.8v-.8c0-1.1.2-2.1.6-2.9s.9-1.5 1.6-1.9 1.5-.7 2.4-.7 1.7.2 2.4.7c.7.4 1.2 1.1 1.6 1.9s.6 1.8.6 2.9zm-1.5-.7c0-1.4-.3-2.4-.8-3.1s-1.3-1.1-2.3-1.1-1.7.4-2.3 1.1c-.5.7-.8 1.7-.8 3v.8c0 1.3.3 2.3.8 3.1.6.8 1.3 1.1 2.3 1.1s1.7-.4 2.3-1.1c.5-.7.8-1.7.8-3z"/><use transform="translate(44.7)" xlink:href="#u"/><path d="m175.3 82.2c-.1 1.2-.6 2.1-1.3 2.8-.8.7-1.8 1-3 1-1.3 0-2.4-.5-3.2-1.5s-1.2-2.3-1.2-3.9v-1.1c0-1.1.2-2 .6-2.8s.9-1.4 1.6-1.8 1.5-.6 2.4-.6c1.2 0 2.2.3 2.9 1s1.2 1.6 1.3 2.8h-1.5c-.1-.9-.4-1.6-.9-2-.4-.4-1-.6-1.8-.6-1 0-1.7.4-2.3 1.1-.5.7-.8 1.7-.8 3v1.1c0 1.2.3 2.2.8 3 .5.7 1.2 1.1 2.2 1.1.8 0 1.5-.2 1.9-.6s.7-1 .9-2z"/><path d="m183.3 82.8h-4.8l-1.1 3h-1.6l4.4-11.4h1.3l4.4 11.4h-1.5zm-4.3-1.2h3.9l-1.9-5.3z"/><use transform="translate(68.6)" xlink:href="#n"/><path id="t" d="m209.5 75.6h-3.7v10.2h-1.5v-10.2h-3.6v-1.2h8.8z"/><path d="m215 81.2h-2.7v4.6h-1.5v-11.4h3.8c1.3 0 2.3.3 3 .9s1 1.4 1 2.6c0 .7-.3 1.3-.6 1.9-.4.5-.9.9-1.6 1.2l2.7 4.8v.1h-1.6zm-2.7-1.2h2.3c.8 0 1.3-.2 1.8-.6.4-.4.7-.9.7-1.6s-.3-1.2-.6-1.6c-.4-.4-1-.6-1.8-.6h-2.3z"/><use transform="translate(111.9)" xlink:href="#u"/><path d="m230.2 77.3c0-2.1 2.1-3.1 3.9-3.1 1.6 0 2.8.6 3.5 1.7.3.5.5 1.1.5 1.8h-1.5c-.2-1.6-1.3-2.2-2.5-2.2-1.5 0-2.3.6-2.4 1.9.1 1.3 1.6 1.8 2.6 2.1 2.4.6 3.8 1.4 3.8 3.5 0 2.2-2.1 3-4 3.1-1.6 0-2.9-.6-3.8-1.7-.4-.5-.6-1.1-.6-1.8h1.5c.1 1.7 1.5 2.2 2.8 2.2 1.5 0 2.4-.6 2.5-1.8.1-1.4-1.6-1.9-2.7-2.2-2-.5-3.7-1.6-3.7-3.4z"/><use transform="translate(38.1)" xlink:href="#t"/></g></svg>