<svg viewBox="0 0 120 100" xmlns="http://www.w3.org/2000/svg"><g id="figure"><path d="m62.4 2c-6.2 0-38.7 1.2-55.3 30.6 8.2-12.5 23.2-22.1 41.3-24.9 28.5-4.3 45.5 10.2 48.6 13.1-2.7-.6-5.6-.7-8.5-.3-7.8 1.2-14.1 6.1-17.6 12.7-4.3-5.1-11.6-7.9-19.1-6.8-6.5 1-12.1 3.1-15.1 8.1-4.4-3.9-10.4-4.2-16.9-3.2-10.3 1.6-17.8 10-17.8 19.3 0 39.1 39.2 47.5 54.9 47.4 6.4 0 14.5-1 23-4.2-1.1-.8-2-1.7-2.8-2.8-8.2 2.1-14.5 2-19.4 2-11.5.1-25.4-5.7-32.2-11.4-8.6-7.2-13.2-13.8-14.4-22-1.5-10 3.6-18.5 11.6-20.1 7.3-1.4 15.3 4.5 16.7 12.6-.3-9.1 4.9-16.3 12.3-17 3-.3 6 .3 8.6 1.9-9.8 8.4-21.3 20.6-18.3 29.8 4.1 12.7 31.8 10 34.2-3.1 5.9 4.8 12.1 7.1 19.8 6 12-1.7 20.5-12.4 20.5-24.4 0-10.9-3.8-18-10.6-25.7-1.3-1.4-16.2-17.6-43.5-17.6zm28.9 26c8.5-.4 16.2 5.8 17.5 14.6 1.4 9.4-4.9 18.1-14 19.5s-17.7-5.1-19.1-14.5c-1.7-11.3 7.1-19.2 15.6-19.6zm-24.1 31.6c1 6.7-6.3 7.9-10.3 7.8-4.7-.1-9.2-2.9-7.4-7 1.9-4.3 7-10 15.2-17.3zm44.5 7.3c-2.3 3.5-5 6.8-8.2 9.8.2.3.3.5.5.8 3-3.3 5.6-6.8 7.7-10.6z"/><path d="m91.2 72c-7.3 0-14.9 5.4-14.9 12.6 0 5.6 4.8 11 12.8 11 7.6 0 15.1-5.4 15.1-12.7 0-5.5-5-10.9-13-10.9zm-11.2 7.6h2.8l.5 5.3 2.4-5.3h2.9l-1.6 7.9h-1.8l1.1-5.8-2.8 5.8h-1.5l-.5-5.8-1.2 5.8h-1.8zm11.4 0h2l1.4 7.9h-2l-.2-1.3h-2.7l-.6 1.3h-2.1zm5.1 0h2.3c1.7 0 3.8.6 3.8 3.4 0 .6-.2 4.5-4.7 4.5h-2.9zm1.7 1.8-.9 4.3h.6c1.6 0 2.7-.7 2.7-2.6 0-1.7-1.4-1.7-2.1-1.7zm-6.2.4-1.3 2.8h1.7z"/><path d="m42.9 79.6h-4.2l-1.5 7.9h1.9l.6-3.1h2.3l.3-1.7h-2.2l.2-1.3h2.3z"/><path d="m44 79.6-1.6 7.9h2l1.6-7.9z"/><path d="m47.1 79.6-.4 1.8h1.4l-1.2 6.1h2l1.2-6.1h1.4l.4-1.8z"/><path d="m56.2 84.5-1.7-4.9h-2l-1.5 7.9h1.9l1-4.8 1.7 4.8h2l1.5-7.9h-1.9z"/><path d="m64.5 79.6h-4.4l-1.5 7.9h4.4l.4-1.7h-2.5l.2-1.4h2.4l.4-1.7h-2.4l.2-1.3h2.4z"/><path d="m69.8 81.5c0-1.2-1-2-2.4-2-1.7 0-2.8 1-2.8 2.5 0 .9.5 1.5 1.4 2 .6.3 1.3.6 1.3 1.2 0 .3-.3.8-.7.8s-.8-.3-.8-.7c0-.1 0-.2 0-.3h-1.9c0 .3-.1.4-.1.6 0 1.3 1 2.1 2.6 2.1 1.7 0 2.9-1.1 2.9-2.6 0-1.3-1.1-2-1.8-2.3-.8-.4-.9-.7-.9-1 0-.5.3-.6.7-.6.3 0 .5.1.5.5v.4h1.9c0-.2.1-.5.1-.6z"/><path d="m75.5 81.5c0-1.2-1-2-2.4-2-1.7 0-2.8 1-2.8 2.5 0 .9.5 1.5 1.4 2 .6.3 1.3.6 1.3 1.2 0 .3-.3.8-.7.8s-.8-.3-.8-.7c0-.1 0-.2 0-.3h-1.9c0 .3-.1.4-.1.6 0 1.3 1 2.1 2.6 2.1 1.7 0 2.9-1.1 2.9-2.6 0-1.3-1.1-2-1.8-2.3-.8-.4-.9-.7-.9-1 0-.5.3-.6.7-.6.3 0 .5.1.5.5v.4h1.9c0-.2.1-.5.1-.6z"/></g></svg>