<svg viewBox="0 0 356 100" xmlns="http://www.w3.org/2000/svg" xmlns:xlink="http://www.w3.org/1999/xlink"><g id="figure"><path d="m18.5 17v9.4h16.5v12.2h-16.5v23.5h-16.4l.2-59.1h37.1v14z"/><path d="m46.2 3h16.3v59.1h-16.3z"/><path d="m98.4 16.8v45.3h-16.3v-45.3h-12.9v-13.8h42.3v13.8z"/><path d="m139.8 25.3c-5.7-.8-8.9-1.6-8.9-5.3 0-2.3 1-5.5 9.3-5.5 4 0 9.2.5 15.3 1.5l.7.2v-12.9l-.6-.1c-1.1-.2-2.1-.2-3.2-.3-4-.4-8.1-.9-12.6-.9-15.7 0-23.6 6.2-23.6 18.4 0 13.3 8.3 16.3 16.4 17.6.7.1 1.4.2 2 .3 5.8.9 9.2 1.6 9.2 5.7 0 4-3 6.1-9.3 6.1-5 0-11.5-1.1-16.7-2.1l-.8-.2v12.9l.5.1c6.6 1.3 12.1 1.8 18 1.8 15.3 0 23.4-6.6 23.4-19.2 0-15.2-10.2-16.8-18.4-18z"/><path d="m194 16.8v45.3h-16.3v-45.3h-12.8v-13.8h42.2v13.8z"/><path d="m226.8 32.3c0-8.9-.1-16 6.8-16 6.8 0 6.9 7.1 6.9 16s-.1 16.1-6.9 16.1-6.8-7.2-6.8-16.1zm-15.9 0c0 12.8 0 30.4 23.1 30.4 22.3 0 22.2-17.6 22.2-30.4s.1-30.3-22.2-30.3c-23.1 0-23.1 17.5-23.1 30.3z"/><path d="m263.9 3v59.1h16.3v-19.3c2 .1 3.2.1 4.2.1l9.3 19.2h15.9l-10.2-22.1c6.7-3.5 10.2-10 10.2-17.6 0-14.9-12.2-19.4-27.5-19.4zm16.4 13.1h4.6c6.6 0 9.2 1.6 9.2 6.8 0 5.1-2.6 6.8-9.2 6.8h-4.6z"/><path d="m316.6 3v59.1h37.2v-14h-20.9v-9.5h18.3v-12.2h-18.3v-9.4h21v-14z"/><g transform="matrix(1.081 0 0 1.081 -1 -8)"><path d="m3.6 77.3c-.2 0-.8 0-.8.8v14.5c0 .8.7.8.8.8h7.7c.4 0 .5-.7.5-.9s-.1-.9-.5-.9h-6.4v-5.8h5.4c.3 0 .5-.3.5-.8 0-.2-.1-.9-.5-.9h-5.4v-5h6.4c.4 0 .4-.6.4-.9 0-.1 0-.9-.4-.9z"/><path d="m22.9 81.4c-.3 0-.5.3-.5.4v7.8c-1 1.2-2 2.2-3.2 2.2-2-.1-2.4-1.7-2.4-3.4v-6.6c0-.3-.3-.4-.5-.4h-1c-.3 0-.5.2-.5.4v6.8c0 2.7.9 5 4 5 1.6 0 2.8-.8 3.8-2v1.5c0 .4.4.4 1 .4s.8-.1.8-.4v-11.3c0-.3-.3-.4-.5-.4z"/><path id="a" d="m33.2 81.3c-1.4 0-2.4 1.1-3.1 2.2v-1.7c0-.3-.2-.4-.4-.4h-.9c-.3 0-.6.3-.6.4v11.3c0 .4.7.4 1.1.4.6 0 1-.1 1-.4v-7.4l.8-1.1c.5-.6 1.3-1.3 2-1.3 1 0 1 .3 1.4.3s.3-.6.3-1c0-.3 0-.8-.2-1-.4-.3-.9-.3-1.4-.3z"/><path id="b" d="m41.5 81.3c-3.4 0-5.7 2.2-5.7 6.3 0 2.7.9 6.1 5.5 6.1 3.1 0 5.8-1.8 5.8-6.3 0-2.2-.8-6.1-5.6-6.1zm0 1.8c2.8 0 3.4 2.3 3.4 4.4 0 1.8-.5 4.4-3.5 4.4-2.9 0-3.5-2.4-3.5-4.4 0-1.6.5-4.4 3.6-4.4z"/><path d="m52.9 82.4-1 1v-1.5c0-.4-.4-.4-.5-.4h-.8c-.3 0-.5.1-.5.4v15.7c0 .2.1.4.9.4.5 0 1.1 0 1.1-.4v-5.7c.9 1 2 1.7 3.4 1.7 2.6 0 4.9-1.7 4.9-6.3 0-1.2-.2-5.9-4.3-6-1.3 0-2 .1-3.2 1.1zm2.5.6c2.3 0 2.8 2.4 2.8 4.5 0 2.8-1.3 4.3-2.9 4.3-1.4 0-2.6-1.4-3.2-2.1v-4.5c1.2-1.5 2.4-2.2 3.3-2.2z"/><path id="c" d="m62.5 87.5c0 3.2 1.2 6.1 5.6 6.1 1.7 0 3.5-.5 4-.9.2-.2.3-.3.3-.5v-.7c0-.2 0-.4-.3-.4-.4 0-1.5.9-3.8.9-2.6 0-3.5-1.8-3.6-4.1h7.4c.1 0 .8 0 .8-.9v-.4c0-3.8-2.2-5.3-4.9-5.3-3.7 0-5.5 2.8-5.5 6.2zm5.4-4.6c2.2 0 3 1.7 2.9 3.5h-6.1c0-1.4.9-3.5 3.2-3.5z"/><path d="m76.7 75.9c-.3 0-1 0-1 .4l.3 5.8c0 .4.6.5.8.5.3 0 .8-.1.8-.5l.2-5.8c0-.4-.6-.4-1.1-.4z"/><path id="d" d="m80.7 84.6c0 1.7 1.3 2.6 1.9 2.9 1.1.6 2.2.8 2.9 1.3s.9.9.9 1.4c0 1.6-1.6 1.8-2.3 1.8-1 0-2-.3-2.9-.9-.2-.1-.4-.2-.5-.1s-.2.3-.2.8v.6c0 .1.2.3.3.4 1 .7 2.1.8 3.3.8 3.2 0 4.4-1.6 4.4-3.6 0-1.7-1.3-2.4-1.9-2.7-1.8-.9-2.3-.8-3-1.3-.6-.4-1-.8-1-1.4 0-1 .9-1.7 2.2-1.7 1.2 0 2.2.6 2.4.7.1.1.2.2.3.2.3 0 .2-.5.2-.5v-.7c0-.1 0-.3 0-.4-.5-.5-1.7-.9-3.1-.9-2.1 0-3.9 1.3-3.9 3.3z"/><path d="m107.3 77.6v12.9c-2-4.1-4.1-8-6.3-12-.6-1-.9-1.3-1.9-1.3h-1c-.2 0-.9 0-.9.9v15c0 .4.4.4 1 .4.4 0 1.1 0 1.1-.4v-13.5c0 .2 5.4 10.4 7 13 .1.2.6.9 1.5.9h.7c.5 0 .9-.2.9-1v-14.9c0-.4-.7-.4-1.1-.4-.3 0-1 0-1 .4z"/><use transform="translate(76.8)" xlink:href="#b"/><path d="m128.1 90.6c-1.2 0-1.4.7-1.4 1.5 0 1.2.5 1.5 1.4 1.5 1.3 0 1.4-.8 1.4-1.6s-.1-1.5-1.3-1.5z"/><path d="m143.1 77.1c-.2 0-.7.3-.8.3l-3.5 2.2c-.3.1-.4.5-.4.6v.3c0 .8.3.9.4.9s.3-.1.5-.2l3.1-1.8v12.3h-3.4c-.5 0-.4.9-.4.9 0 .1-.1.8.4.8h8.4c.4 0 .5-.5.5-.8 0-.2-.1-.9-.5-.9h-3v-14.2c0-.3-.4-.4-.9-.4z"/><path d="m157.3 80.4v1.2h-1.6c-.4 0-.5.4-.5.8 0 .6.1.9.4.9h1.6v9.8c0 .4.6.5 1 .5.3 0 1.1-.1 1.1-.5v-9.8h2.5c.4 0 .4-.8.4-.9 0-.3 0-.8-.4-.8h-2.5v-1.3c0-2.5.9-2.7 1.7-2.7.9 0 1.3.4 1.6.4s.3-.5.3-.8c0-.5 0-.6-.2-.8-.2-.1-.8-.5-1.9-.5-2.7 0-3.5 1.8-3.5 4.5z"/><use transform="translate(127.2)" xlink:href="#b"/><use transform="translate(149)" xlink:href="#a"/><path d="m191.9 77.6v15.5c0 .4.6.4 1.1.4.4 0 1.1 0 1.1-.4v-7.2h7.3v7.2c0 .4.8.4 1.1.4.4 0 1.1 0 1.1-.4v-15.5c0-.5-.7-.5-1.1-.5-.3 0-1.1.1-1.1.5v6.4h-7.3v-6.4c0-.4-.7-.5-1.1-.5s-1.1.1-1.1.5z"/><use transform="translate(170.9)" xlink:href="#b"/><path d="m229.8 83.5c-.6-1.6-1.9-2.2-3.5-2.2-1.5 0-2.7.9-3.6 2v-1.5c0-.3-.2-.4-.4-.4h-1c-.3 0-.5.2-.5.4v11.2c0 .4.5.5 1 .5.3 0 1.1 0 1.1-.4v-7.9c1.1-1.2 1.9-2.2 3-2.2 1.9 0 2.3 1.8 2.3 3.2v6.9c0 .4.6.4 1 .4.2 0 1 0 1-.4v-7.9c1.3-1.7 2.1-2.2 3-2.2 1.9 0 2.3 1.7 2.3 3.2v6.9c0 .3.5.4 1 .4.6 0 .9-.2.9-.4v-7.1c0-4.3-2.6-4.7-3.6-4.7-1.7 0-2.9 1.1-4 2.2z"/><use transform="translate(177.9)" xlink:href="#c"/><path d="m260.4 77.2c-.2 0-.8 0-.8.8v15c0 .4.6.5 1.1.5s1.1-.1 1.1-.5v-6.7h5.6c.3 0 .4-.4.4-.5v-.8c0-.1-.1-.5-.4-.5h-5.6v-5.4h5.9c.3 0 .4-.3.4-.5v-.9c0-.2-.1-.5-.4-.5z"/><path d="m272.1 76.8c-1 0-1.3.3-1.3 1.2s.3 1.3 1.3 1.3 1.3-.4 1.3-1.3-.3-1.2-1.3-1.2zm-1 5v11.3c0 .4.7.4 1 .4.4 0 1 0 1-.4v-11.3c0-.4-.6-.4-1-.4s-1 0-1 .4z"/><path d="m277.4 78.8v2.7h-1.6c-.4 0-.4.5-.4.8 0 .2 0 .9.4.9h1.6v6.6c0 2 .5 3.8 3.3 3.8.9 0 1.6-.2 1.8-.4.2-.4.3-.8.3-1.3 0-.2-.1-.4-.3-.4-.3 0-.5.3-1.4.3-.6 0-1.6-.1-1.6-2.3v-6.3h2.9c.3 0 .4-.5.4-.9 0-.2 0-.8-.4-.8h-2.9v-2.7c0-.4-.7-.4-1.1-.4-.2 0-1 0-1 .4z"/><path d="m287.1 83.4v-1.5c0-.3-.3-.4-.4-.4h-.9c-.3 0-.5.2-.5.4v11.2c0 .4.6.4 1 .4.3 0 1 .1 1-.4v-7.8c1.3-1.6 2.2-2.2 3.2-2.2 2 .1 2.4 1.7 2.4 3.4v6.6c0 .4.5.4 1 .4s1 0 1-.4v-6.8c0-2.2-.7-4.9-4-4.9-2 0-3.4 1.5-3.9 2.1z"/><use transform="translate(235.4)" xlink:href="#c"/><use transform="translate(229.8)" xlink:href="#d"/><use transform="translate(239.7)" xlink:href="#d"/></g></g></svg>