<svg viewBox="0 0 331 100" xmlns="http://www.w3.org/2000/svg" xmlns:xlink="http://www.w3.org/1999/xlink"><g id="figure"><path d="m146 26.3-.8-.1c-5.9-.9-9.2-1.7-9.2-5.5 0-2.4 1-5.7 9.6-5.7 4.2 0 9.6.5 15.9 1.6l.8.1v-13.4h-.6c-1.1-.1-2.3-.2-3.4-.3-4.1-.4-8.5-1-13.1-1-16.3 0-24.5 6.4-24.5 19.1 0 13.8 8.7 17.1 17.1 18.4.7.1 1.3.2 2 .3 6.1.9 9.8 1.7 9.8 5.9s-3.4 6.3-9.9 6.3c-5.2 0-11.9-1.2-17.3-2.2l-.9-.2v13.4l.6.1c6.8 1.3 12.6 2 18.7 2 15.9 0 24.3-6.9 24.3-20-.1-15.9-10.6-17.5-19.1-18.8zm-126.8-8.7v9.8h17.2v12.7h-17.2v24.3h-17v-61.4h38.7v14.6zm28.8 46.8v-61.4h16.9v61.4zm54.2-47v47h-17v-47h-13.3v-14.4h43.9v14.4zm100.4 47v-24.5h-14.3v24.5h-17v-61.4h17v21.8h14.3v-21.8h17v61.4zm102.9-20c-2.8 0-3.5.1-7.2 0v20h-17v-61.4h19c15.9 0 28.5 4.7 28.5 20.2 0 11.8-8.3 21.1-23.3 21.2zm-2.4-27.8h-4.8v14.2h4.8c6.9 0 9.6-1.8 9.6-7 0-4.2-1.3-7.2-9.6-7.2zm-52.2-14.6c-24 0-24 18.2-24 31.5s0 31.5 24 31.5c23.1 0 23.1-18.2 23.1-31.5s0-31.5-23.1-31.5zm-.3 48.2c-7.1 0-7.2-7.5-7.2-16.7s.1-16.7 7.2-16.7 7.1 7.5 7.1 16.7 0 16.7-7.1 16.7z"/><path d="m3.6 77.3c-.2 0-.8 0-.8.8v14.5c0 .8.7.8.8.8h7.7c.4 0 .5-.7.5-.9s-.1-.9-.5-.9h-6.4v-5.8h5.4c.3 0 .5-.3.5-.8 0-.2-.1-.9-.5-.9h-5.4v-5h6.4c.4 0 .4-.6.4-.9 0-.1 0-.9-.4-.9z"/><path d="m22.9 81.4c-.3 0-.5.3-.5.4v7.8c-1 1.2-2 2.2-3.2 2.2-2-.1-2.4-1.7-2.4-3.4v-6.6c0-.3-.3-.4-.5-.4h-1c-.3 0-.5.2-.5.4v6.8c0 2.7.9 5 4 5 1.6 0 2.8-.8 3.8-2v1.5c0 .4.4.4 1 .4s.8-.1.8-.4v-11.3c0-.3-.3-.4-.5-.4z"/><path id="a" d="m33.2 81.3c-1.4 0-2.4 1.1-3.1 2.2v-1.7c0-.3-.2-.4-.4-.4h-.9c-.3 0-.6.3-.6.4v11.3c0 .4.7.4 1.1.4.6 0 1-.1 1-.4v-7.4l.8-1.1c.5-.6 1.3-1.3 2-1.3 1 0 1 .3 1.4.3s.3-.6.3-1c0-.3 0-.8-.2-1-.4-.3-.9-.3-1.4-.3z"/><path id="b" d="m41.5 81.3c-3.4 0-5.7 2.2-5.7 6.3 0 2.7.9 6.1 5.5 6.1 3.1 0 5.8-1.8 5.8-6.3 0-2.2-.8-6.1-5.6-6.1zm0 1.8c2.8 0 3.4 2.3 3.4 4.4 0 1.8-.5 4.4-3.5 4.4-2.9 0-3.5-2.4-3.5-4.4 0-1.6.5-4.4 3.6-4.4z"/><path d="m52.9 82.4-1 1v-1.5c0-.4-.4-.4-.5-.4h-.8c-.3 0-.5.1-.5.4v15.7c0 .2.1.4.9.4.5 0 1.1 0 1.1-.4v-5.7c.9 1 2 1.7 3.4 1.7 2.6 0 4.9-1.7 4.9-6.3 0-1.2-.2-5.9-4.3-6-1.3 0-2 .1-3.2 1.1zm2.5.6c2.3 0 2.8 2.4 2.8 4.5 0 2.8-1.3 4.3-2.9 4.3-1.4 0-2.6-1.4-3.2-2.1v-4.5c1.2-1.5 2.4-2.2 3.3-2.2z"/><path id="c" d="m62.5 87.5c0 3.2 1.2 6.1 5.6 6.1 1.7 0 3.5-.5 4-.9.2-.2.3-.3.3-.5v-.7c0-.2 0-.4-.3-.4-.4 0-1.5.9-3.8.9-2.6 0-3.5-1.8-3.6-4.1h7.4c.1 0 .8 0 .8-.9v-.4c0-3.8-2.2-5.3-4.9-5.3-3.7 0-5.5 2.8-5.5 6.2zm5.4-4.6c2.2 0 3 1.7 2.9 3.5h-6.1c0-1.4.9-3.5 3.2-3.5z"/><path d="m76.7 75.9c-.3 0-1 0-1 .4l.3 5.8c0 .4.6.5.8.5.3 0 .8-.1.8-.5l.2-5.8c0-.4-.6-.4-1.1-.4z"/><path id="d" d="m80.7 84.6c0 1.7 1.3 2.6 1.9 2.9 1.1.6 2.2.8 2.9 1.3s.9.9.9 1.4c0 1.6-1.6 1.8-2.3 1.8-1 0-2-.3-2.9-.9-.2-.1-.4-.2-.5-.1s-.2.3-.2.8v.6c0 .1.2.3.3.4 1 .7 2.1.8 3.3.8 3.2 0 4.4-1.6 4.4-3.6 0-1.7-1.3-2.4-1.9-2.7-1.8-.9-2.3-.8-3-1.3-.6-.4-1-.8-1-1.4 0-1 .9-1.7 2.2-1.7 1.2 0 2.2.6 2.4.7.1.1.2.2.3.2.3 0 .2-.5.2-.5v-.7c0-.1 0-.3 0-.4-.5-.5-1.7-.9-3.1-.9-2.1 0-3.9 1.3-3.9 3.3z"/><path d="m107.3 77.6v12.9c-2-4.1-4.1-8-6.3-12-.6-1-.9-1.3-1.9-1.3h-1c-.2 0-.9 0-.9.9v15c0 .4.4.4 1 .4.4 0 1.1 0 1.1-.4v-13.5c0 .2 5.4 10.4 7 13 .1.2.6.9 1.5.9h.7c.5 0 .9-.2.9-1v-14.9c0-.4-.7-.4-1.1-.4-.3 0-1 0-1 .4z"/><use transform="translate(76.8)" xlink:href="#b"/><path d="m128.1 90.6c-1.2 0-1.4.7-1.4 1.5 0 1.2.5 1.5 1.4 1.5 1.3 0 1.4-.8 1.4-1.6s-.1-1.5-1.3-1.5z"/><path d="m143.1 77.1c-.2 0-.7.3-.8.3l-3.5 2.2c-.3.1-.4.5-.4.6v.3c0 .8.3.9.4.9s.3-.1.5-.2l3.1-1.8v12.3h-3.4c-.5 0-.4.9-.4.9 0 .1-.1.8.4.8h8.4c.4 0 .5-.5.5-.8 0-.2-.1-.9-.5-.9h-3v-14.2c0-.3-.4-.4-.9-.4z"/><path d="m157.3 80.4v1.2h-1.6c-.4 0-.5.4-.5.8 0 .6.1.9.4.9h1.6v9.8c0 .4.6.5 1 .5.3 0 1.1-.1 1.1-.5v-9.8h2.5c.4 0 .4-.8.4-.9 0-.3 0-.8-.4-.8h-2.5v-1.3c0-2.5.9-2.7 1.7-2.7.9 0 1.3.4 1.6.4s.3-.5.3-.8c0-.5 0-.6-.2-.8-.2-.1-.8-.5-1.9-.5-2.7 0-3.5 1.8-3.5 4.5z"/><use transform="translate(127.2)" xlink:href="#b"/><use transform="translate(149)" xlink:href="#a"/><path d="m191.9 77.6v15.5c0 .4.6.4 1.1.4.4 0 1.1 0 1.1-.4v-7.2h7.3v7.2c0 .4.8.4 1.1.4.4 0 1.1 0 1.1-.4v-15.5c0-.5-.7-.5-1.1-.5-.3 0-1.1.1-1.1.5v6.4h-7.3v-6.4c0-.4-.7-.5-1.1-.5s-1.1.1-1.1.5z"/><use transform="translate(170.9)" xlink:href="#b"/><path d="m229.8 83.5c-.6-1.6-1.9-2.2-3.5-2.2-1.5 0-2.7.9-3.6 2v-1.5c0-.3-.2-.4-.4-.4h-1c-.3 0-.5.2-.5.4v11.2c0 .4.5.5 1 .5.3 0 1.1 0 1.1-.4v-7.9c1.1-1.2 1.9-2.2 3-2.2 1.9 0 2.3 1.8 2.3 3.2v6.9c0 .4.6.4 1 .4.2 0 1 0 1-.4v-7.9c1.3-1.7 2.1-2.2 3-2.2 1.9 0 2.3 1.7 2.3 3.2v6.9c0 .3.5.4 1 .4.6 0 .9-.2.9-.4v-7.1c0-4.3-2.6-4.7-3.6-4.7-1.7 0-2.9 1.1-4 2.2z"/><use transform="translate(177.9)" xlink:href="#c"/><path d="m260.4 77.2c-.2 0-.8 0-.8.8v15c0 .4.6.5 1.1.5s1.1-.1 1.1-.5v-6.7h5.6c.3 0 .4-.4.4-.5v-.8c0-.1-.1-.5-.4-.5h-5.6v-5.4h5.9c.3 0 .4-.3.4-.5v-.9c0-.2-.1-.5-.4-.5z"/><path d="m272.1 76.8c-1 0-1.3.3-1.3 1.2s.3 1.3 1.3 1.3 1.3-.4 1.3-1.3-.3-1.2-1.3-1.2zm-1 5v11.3c0 .4.7.4 1 .4.4 0 1 0 1-.4v-11.3c0-.4-.6-.4-1-.4s-1 0-1 .4z"/><path d="m277.4 78.8v2.7h-1.6c-.4 0-.4.5-.4.8 0 .2 0 .9.4.9h1.6v6.6c0 2 .5 3.8 3.3 3.8.9 0 1.6-.2 1.8-.4.2-.4.3-.8.3-1.3 0-.2-.1-.4-.3-.4-.3 0-.5.3-1.4.3-.6 0-1.6-.1-1.6-2.3v-6.3h2.9c.3 0 .4-.5.4-.9 0-.2 0-.8-.4-.8h-2.9v-2.7c0-.4-.7-.4-1.1-.4-.2 0-1 0-1 .4z"/><path d="m287.1 83.4v-1.5c0-.3-.3-.4-.4-.4h-.9c-.3 0-.5.2-.5.4v11.2c0 .4.6.4 1 .4.3 0 1 .1 1-.4v-7.8c1.3-1.6 2.2-2.2 3.2-2.2 2 .1 2.4 1.7 2.4 3.4v6.6c0 .4.5.4 1 .4s1 0 1-.4v-6.8c0-2.2-.7-4.9-4-4.9-2 0-3.4 1.5-3.9 2.1z"/><use transform="translate(235.4)" xlink:href="#c"/><use transform="translate(229.8)" xlink:href="#d"/><use transform="translate(239.7)" xlink:href="#d"/></g></svg>