<svg viewBox="0 0 1665 100" xmlns="http://www.w3.org/2000/svg"><g id="figure"><path d="m113.4 3.5v13.7c-2.6-.5-5.6-.8-9-.8h-40.1v27.2h30.8c4.1 0 7.6-.2 10.4-.7v14.3c-2.5-.4-5.4-.7-8.6-.8h-32.6v35.5c.1 1.9.6 3.4 1.7 4.5h-64c1.1-1.1 1.7-2.6 1.8-4.5v-83.8c-.1-1.9-.7-3.4-1.8-4.6z"/><path d="m234.1 96.5h-111.4c1.1-1 1.7-2.6 1.8-4.6v-83.7c-.1-2-.7-3.6-1.8-4.7h64c-1 1.1-1.6 2.7-1.7 4.7v74.3h36.8c5.8-.1 10-.4 12.4-1z"/><path d="m359.5 3.5v13.5c-2.9-.4-5.9-.7-9.2-.7h-42.6v26.8h42.3c4.1 0 7.2-.2 9.5-.5v14c-2.2-.4-5.3-.7-9.2-.7h-42.6v26.5h41.2c4.8 0 8.4-.2 10.6-.7v14.6h-114.1c1.1-1.1 1.7-2.7 1.8-4.6v-83.6c-.1-2-.7-3.6-1.8-4.6z"/><path d="m416.4 51.6-39.6-43.4c-1.8-2-3.7-3.6-5.7-4.7h69.6c-.1.3-.2.4-.2.5 0 1 .8 2.3 2.4 4.1l18.9 21.1 22.7-21.1c2.1-1.9 3.3-3.5 3.7-4.6h33.5c-2.4 1.1-4.8 2.6-7 4.6l-39.3 35.6 44.1 48.1c2.1 2.3 4 3.9 5.7 4.7h-69.8c0-1.1-.9-2.6-2.6-4.6l-22.7-25-27.6 24.9c-2.2 2-3.3 3.6-3.4 4.7h-34.6c3.3-1.4 5.9-2.9 7.8-4.6z"/><path d="m595.9 3.5c-1.1 1.1-1.7 2.6-1.8 4.7v83.7c.1 2 .7 3.5 1.8 4.6h-64.1c1.1-1 1.7-2.6 1.8-4.6v-83.7c-.1-2.1-.7-3.6-1.8-4.7z"/><path d="m609.7 66.2 10.8-20.8h61l-10.6 20.8z"/><path d="m691 90.6 9-18.8c6.4 2.7 11.2 4.5 14.3 5.6 10.3 3.6 20.7 5.4 31.3 5.4 6.5 0 11.7-.8 15.5-2.3 4.3-1.7 6.5-4 6.5-6.9 0-3.2-2.7-5.6-8.1-7.3-2.3-.7-10.8-2.6-25.5-5.7-16.1-3.5-26.9-7.4-32.7-11.8-6-4.6-9-9.8-9-15.7 0-6.1 3.1-11.7 9.4-16.7 12.1-9.6 32.8-14.4 62.4-14.4 17.1 0 34 1.9 50.6 5.7l-7.7 17.7c-16.4-6.3-30.2-9.4-41.4-9.4-5.1 0-9.3.7-12.6 2.2s-4.9 3.4-4.9 5.7c0 2.5 1.7 4.4 5 5.5 3.3 1.2 13.3 3.4 29.8 6.7 17 3.4 28.3 7.6 33.9 12.6 4.8 4.2 7.2 9.1 7.2 14.8 0 7-3 13.3-9.1 18.8-11.7 10.5-33.1 15.7-64.5 15.7-10.9 0-20.7-.6-29.4-1.7s-18.7-3-30-5.7"/><path d="m896.9 62.8v29.1c0 1.3.8 2.8 2.3 4.6h-64.6c1.1-1.2 1.7-2.7 1.8-4.6v-83.7c-.1-2.1-.7-3.7-1.8-4.7h80.8c10.1 0 18.3.4 24.6 1.2s12.2 2.2 17.7 4.2c13.4 4.9 20 12.7 20 23.5 0 11.1-6.8 19.1-20.3 24.2-6.4 2.4-13.2 4-20.4 4.9s-16.5 1.4-27.9 1.4zm0-14h4.4c6.2 0 10.5-1.1 12.7-3.4 2.2-2.2 3.3-6.6 3.3-13 0-6.1-1.3-10.4-3.8-12.8-2.5-2.3-6.3-3.4-11.5-3.4h-5.1z"/><path d="m1078.2 2c26.3 0 47.6 3.2 63.9 9.5 20.7 7.9 31 20.8 31 38.6 0 16.5-9 28.8-26.9 36.9-16.6 7.4-40 11-70.3 11-20.7 0-37.1-1.6-49.3-4.8-15.8-4.2-27.4-10.6-34.7-19.2-5.7-6.8-8.6-15.1-8.6-24.8 0-5.1 1.2-10.2 3.6-15.1 2.4-5 5.6-9.2 9.7-12.7 15.3-12.7 42.5-19.1 81.6-19.4m0 13.2c-11 0-19.1 2.7-24.3 8.2s-7.8 14.1-7.8 25.9 2.4 20.6 7.3 26.5 13.2 8.9 24.9 8.9c11 0 19.1-2.8 24.3-8.3s7.8-14.2 7.8-26c0-12-2.4-20.8-7.3-26.5-5-5.8-13.3-8.7-24.9-8.8"/><path d="m1243.4 56v35.9c.1 1.9.7 3.4 1.8 4.6h-64.1c1.1-.9 1.7-2.4 1.8-4.6v-83.8c-.1-1.8-.7-3.4-1.8-4.6h89.4c16.3 0 29.3 2.2 38.9 6.7 9.9 4.4 14.8 10.9 14.8 19.5 0 5.7-2.1 10.3-6.2 13.9-4.2 3.6-11.3 7-21.3 10.1l32.7 38.3c1.7 1.9 3.7 3.4 5.7 4.6h-69.2c.1-.3.1-.6.1-.7 0-.8-.6-2.1-1.7-3.9zm0-9.4h3.9c11 0 16.5-4.9 16.5-14.7 0-10.6-5-15.9-15.1-15.9h-5.3z"/><path d="m1330.1 3.5h142.9v16.2c-3.2-.4-6.4-.7-9.6-.7h-31.6v72.9c.1 2 .7 3.5 1.8 4.6h-64.1c1.1-1 1.7-2.6 1.8-4.6v-72.9h-29.3c-3.8 0-7.7.2-11.9.7z"/><path d="m1473.8 90.6 9-18.8c6.4 2.7 11.2 4.5 14.3 5.6 10.2 3.6 20.7 5.4 31.3 5.4 6.5 0 11.7-.8 15.5-2.3 4.3-1.7 6.5-4 6.5-6.9 0-3.2-2.7-5.6-8.1-7.3-2.3-.7-10.8-2.6-25.5-5.7-16.1-3.5-26.9-7.4-32.7-11.8-6-4.6-9-9.8-9-15.7 0-6.1 3.1-11.7 9.4-16.7 12.1-9.6 32.9-14.4 62.4-14.4 17.1 0 34 1.9 50.6 5.7l-7.7 17.7c-16.4-6.3-30.2-9.4-41.4-9.4-5.2 0-9.4.7-12.6 2.2-3.3 1.5-4.9 3.4-4.9 5.7 0 2.5 1.7 4.4 5 5.5 3.4 1.2 13.3 3.4 29.8 6.7 17 3.4 28.3 7.6 33.9 12.6 4.8 4.2 7.2 9.1 7.2 14.8 0 7-3 13.3-9.1 18.8-11.6 10.5-33.1 15.7-64.4 15.7-10.9 0-20.7-.6-29.4-1.7s-18.8-3-30-5.7"/><path d="m1636 2c4.7 0 9.2.8 13.4 2.5 4.3 1.7 7.7 3.9 10.1 6.7 2.5 2.9 3.7 5.9 3.7 9.2s-1.2 6.4-3.7 9.2c-2.5 2.9-5.8 5.1-10.1 6.7s-8.9 2.5-13.8 2.5-9.6-.8-13.8-2.5c-4.3-1.7-7.7-3.9-10.1-6.7-2.5-2.9-3.7-6-3.7-9.4 0-5.3 3.1-9.8 9.2-13.5 5.1-3.1 11.4-4.7 18.8-4.7m-.5 3.3c-6.2 0-11.5 1.5-15.9 4.4s-6.7 6.5-6.7 10.7 2.2 7.8 6.7 10.7c4.4 3 9.7 4.5 16 4.5s11.6-1.5 16-4.5c1.4-.9 2.6-2 3.6-3.1 2-2.4 3-4.9 3-7.4 0-4.3-2.2-8-6.6-10.9s-9.8-4.4-16-4.4m-1.2 16.9v7.1c0 .4.2.8.5 1.2h-13.4c.4-.4.6-.8.6-1.2v-18.1c0-.4-.2-.9-.5-1.4h17.6c3.3 0 6 .5 7.9 1.6s2.9 2.5 2.9 4.4c0 1.2-.4 2.3-1.2 3.1s-2.1 1.6-3.9 2.2l5.5 8c.2.3.7.7 1.4 1.4h-13.8c0-.1.1-.2.1-.3s-.1-.4-.3-.9zm0-2.7h.4c2.1 0 3.2-1 3.2-3 0-2.2-1-3.3-3-3.3h-.6z"/></g></svg>