<svg viewBox="0 0 1114 100" xmlns="http://www.w3.org/2000/svg"><g id="figure"><path d="m101.7 15.3v12.2c-2.4-.5-5.1-.7-8.2-.7h-36.1v23.6h27.7c3.7 0 6.8-.1 9.4-.5v12.6c-2.2-.4-4.8-.6-7.8-.6h-29.3v31.9c.1 1.7.6 3.1 1.5 4.1h-56.9c1-1.1 1.6-2.5 1.6-4.1v-74.5c-.1-1.7-.6-3-1.6-4z"/><path d="m217.3 98h-99.7c1-.9 1.5-2.3 1.6-4v-74.8c-.1-1.7-.6-3.1-1.6-4h56.9c-.9.9-1.4 2.2-1.5 4v66.4h33.2c5.3 0 9-.3 11.2-.9z"/><path d="m331.5 15.3v12.1c-2.6-.4-5.3-.6-8.3-.6h-38.2v23.6h38c3.6 0 6.5-.1 8.5-.5v12.6c-2-.4-4.8-.6-8.2-.6h-38.3v23.6h36.9c4.3 0 7.5-.2 9.5-.6v13.1h-101.7c1-1 1.6-2.3 1.6-4v-74.7c-.1-1.8-.6-3.1-1.6-4z"/><path d="m382.1 57.9-35.4-38.5c-1.6-1.8-3.3-3.2-5.1-4.2h62.2c-.2 1.6 1.2 3.2 2 4.1l16.8 18.7 20.3-18.7c1.9-1.7 3-3.1 3.3-4.1h29.9c-2.2.9-4.3 2.3-6.3 4.1l-35.1 31.5 39.4 43.1c1.9 2 3.6 3.4 5.1 4.1h-62.3c0-1-.8-2.4-2.3-4.1l-20.3-22.4-24.7 22.4c-1.9 1.7-3 3.1-3 4.1h-30.9c3-1.2 5.3-2.6 7-4.1z"/><path d="m544.7 15.3c-1 .9-1.6 2.2-1.6 4v74.7c.1 1.8.6 3.1 1.6 4.1h-57c1-.9 1.6-2.3 1.6-4.1v-74.8c-.1-1.7-.6-3.1-1.6-4z"/><path d="m559.5 70.9 9.7-18.5h54.5l-9.4 18.5z"/><path d="m720 15.3c16.8 0 42.3 2.5 42.4 21 .1 14.4-15.6 16.4-26.8 18.4 15.2 1.7 29.5 6 29.5 20-.1 19.8-28.2 23.3-44.6 23.4h-83c1-1 1.6-2.4 1.6-4.1v-74.7c-.1-1.8-.6-3.1-1.6-3.9zm-27.1 35.5h4.4c11.3-.2 13.2-4.2 13.3-12.4 0-8.7-5.4-11.7-13.7-11.5h-4.1zm0 35.7h5.8c10.3-.1 12.1-4.6 12.4-11.3.2-8.6-3.4-13.1-12.2-12.9h-6.1z"/><path d="m809 77-11.2 16.9c-1 1.4-1.6 2.7-1 4.1h-28.8c1.8-.9 3.3-2.3 4.5-4.1l50-74.6c.9-1.4 1.8-2.7 1.2-4.1h45.1c-.6 1.5.8 3.2 1.4 4.1l51.3 74.6c1.3 1.8 3 3.2 5 4.1h-61.3c.4-1.5-.4-3.1-1-4.1l-10.4-16.9zm8.5-12.4h28.4l-13.9-24z"/><path d="m991.4 61.8v32.1c.1 1.7.6 3.1 1.6 4.1h-57.2c1-.8 1.5-2.1 1.6-4.1v-74.6c-.1-1.6-.6-2.9-1.6-4h79.9c17.9.1 47.6 3.1 48 23.1 0 14.4-14.5 18.3-24.6 21.4l29.2 34.2c1.6 1.7 3.3 3.1 5.1 4.1h-61.9c0-1.6-.9-3.1-1.5-4.1zm-.3-8.4h3.8c9.7 0 14.5-4.3 14.5-12.9 0-9.3-4.4-14-13.2-14h-5z"/><path d="m1099.5 4.3c3.9 1.5 6.9 3.6 9.1 6.1 2.2 2.6 3.4 5.4 3.4 8.3 0 3-1.1 5.8-3.4 8.3-2.2 2.6-5.3 4.6-9.1 6.1-3.9 1.5-8 2.2-12.5 2.2s-8.6-.7-12.5-2.2-7-3.5-9.2-6.1-3.4-5.4-3.4-8.5c0-4.8 2.8-8.9 8.3-12.2 4.8-2.9 10.5-4.3 17.2-4.3 4.3 0 8.3.8 12.1 2.3zm-26.9 4.7c-4 2.7-6 5.9-6 9.7s2 7 6 9.7 8.8 4 14.4 4 10.5-1.3 14.4-4c1.3-.8 2.3-1.8 3.2-2.8 1.8-2.1 2.7-4.4 2.7-6.7 0-3.9-2-7.2-6-9.8-4-2.7-8.8-4-14.5-4-5.6 0-10.4 1.3-14.4 4zm13.3 11.3v6.4c0 .4.1.7.4 1.1h-12.1c.3-.3.5-.7.5-1.1v-16.4c0-.4-.1-.8-.4-1.2h15.9c3.8 0 9.6 1.2 9.7 5.4-.2 2.8-2.6 4.1-4.6 4.8l5 7.2c.2.2.6.7 1.3 1.3h-12.5c.2-.4-.1-.8-.2-1.1zm0-2.5h.3c2 0 2.9-.9 2.9-2.7 0-2-.9-3-2.7-3h-.6z"/></g></svg>