<svg viewBox="0 0 435 100" xmlns="http://www.w3.org/2000/svg"><g id="figure"><path d="m2.5 89.6c-.4 0-.5-.2-.5-.6l8.4-51c.1-.5.3-.6.7-.6h45.3c.7 0 .6.3.5.7l-1.6 9.7c-.2.9-.3.9-.9.9h-32.2c-.6 0-.7.1-.8.6l-1.2 8.1c-.2 1.1-.1 1.3 1 1.3h26.5c.3 0 .4.2.3.6l-1.6 10.4c-.1.3-.3.3-.5.3h-27.4c-.3 0-.3.5-.4.8l-3.1 18.2c-.1.4-.2.5-.6.5"/><path d="m63.8 38.1c.1-.3.3-.6.5-.6h12c.5 0 .6.3.5.6l-6.3 39.6c-.1.4.2.4.4.4h30.5c.3 0 .3.3.3.3l-1.7 10.7c-.1.3-.3.5-.7.5h-42.7c-.5 0-.7-.2-.7-.7z"/><path d="m114.6 37.3h11.1c.7 0 .7.7.7.7l-5.2 35.1c-.5 4.5 4 5.8 7.9 6 1.7.1 3.3.1 4.9.1 4.4-.1 9.8-1.1 10.8-5.4l6.3-35.8c.1-.3.1-.7.5-.7h11.4c.5 0 .7.3.5.8l-5.1 32.8c-2.6 14.3-9.1 19.8-23.6 19.8-1.9 0-3.7.1-5.5.1-5.6 0-12.7-.5-17.5-4.2-3-3-4.2-7.5-3.9-10.7l5.3-37.6c.1-.5.6-.9 1.4-.9z"/><path d="m165.8 89 8.4-51.2c.1-.3.2-.6.6-.6h11.8c.5 0 .7.1.6.7l-8.1 51.1c-.1.4-.2.5-.6.5h-12.1c-.3 0-.6-.3-.6-.5z"/><path d="m205.5 78.3h6.5c1.1 0 7.3 0 10.1-.4 1.8-.3 3.6-.7 5.2-1.6 2.5-1.4 3.9-3.6 4.7-6.2 1.5-4.5 2.3-9.1 2.1-13.8-.1-2.1-.6-4.1-2.4-5.3-2.8-2-6.5-2.2-9.6-2.3l-11.9-.1c-.4 0-.7.3-.7.7l-4.4 28.2c-.1.5.2.8.5.8zm-14.9 11.4c-.3 0-.4-.2-.3-.4 3-16.8 5.5-36.1 8.3-51.6.1-.3.1-.4.5-.4l26.3.1c11.8.1 22.3 5.1 22.2 16.5.1 3.8-.3 7.7-.9 11.4-1.1 6.5-3.5 13.8-7.8 17.9-5.5 4.7-13.5 6.5-20.3 6.5"/><path d="m390.3 98c-11.3-.3-22.6-4.3-31.9-8.5-5.1-2.5-9.9-4.8-14.1-7.3-.3-.1-.2-.4 0-.6 4.3-3 8.2-6.1 12.1-9.1.3-.3.6-.2.9 0 5.3 2.7 10.7 5.2 16.4 6.7 11.3 2.9 23.1 2.6 31.7-4.1 8.2-7.9 11-15.1 10.1-25.4-1.1-9.3-4.9-16.6-9.1-23.9-.2-.3-.2-.5.1-.8 3.9-4.3 8.2-8.7 11.3-12.3.5-.5.7-.3 1 .1 3.6 5.9 6.7 12.2 9.1 18.7 2.9 8.7 5.4 18 5 26.5-.1 7.1-1.8 14.7-4.7 20.3-8.8 15.1-23 19.8-37.9 19.7z"/><path d="m265.4 72.5c.1-4.8 1.9-9.7 4.5-13.3 4.6-6.4 12.7-10.8 19.4-12.3 10.8-1.9 21.7.5 30.9 4.5 6.3 2.7 12.1 6.4 17.5 9.7.3.2.3.7-.1 1.1l-11.9 8.3c-.3.2-.5.3-.8.1-4.5-2.8-9.3-6.1-13.6-8.2-3.1-1.8-6.5-2.8-9.7-3.3-5.5-1.1-11.5-.1-15.9 2.8-3.5 2.5-6.3 6.7-6 11.1.1 3.5 1.2 6.8 3.7 9.4 2.3 2.5 5.2 3.8 8.5 4.5 8.7 1.2 16.9-1.5 24.1-4.9 12-6.7 22.1-13.6 31.6-20.9 23.3-18.4 43.7-39.2 63.2-58.8.3-.3.7-.1.9.1l3.5 4.9c.2.2.2.6-.1.9-30.2 31.2-59.7 65-96 83.3-8.2 4.2-17.4 6.5-25.5 6.5-15.5-.1-28.1-9.9-28.2-25.4z" /></g></svg>