<svg viewBox="0 0 395 100" xmlns="http://www.w3.org/2000/svg" xmlns:xlink="http://www.w3.org/1999/xlink"><g transform="matrix(.198 0 0 .198 125.6 -21.1)"><path d="m-26.8 465.6v10h1354.7v-10z"/><g transform="translate(-631 110)"><g fill="none" stroke="#000" stroke-width="6"><path d="m261.6 10c-132.5-.2-251.6 100.7-251.6 236.9 0 166.7 144.2 243.1 251.5 243.1 144.3.1 255.3-105.7 255.2-240v-13.8h-238.7v-226.2zm-13 255h239.1c-10.3 114.3-110.9 196.8-226.7 196.2-129-.6-223.6-98.2-223.5-214.7.1-128.7 128.1-207.6 211.1-207.3z"/><path d="m396.5 18.8c-55.5 0-100.5 45.6-100.5 101.9s45 101.9 100.5 101.9 100.5-45.6 100.5-101.9-45-101.9-100.5-101.9z"/><path d="m709.5 66.2c41 .1 62.2 23 75 15.8 4.8-2.7 6.8-9.2 9.6-13.9l7.7-.2.3 79-6.1 3.1c-14.2-26.5-29-52.7-57.1-66.3-16.3-7.9-37.8-7.9-53.3 1.9-44.2 27.8-43.8 144.6-15.6 188.6 9.2 14.3 23.6 24.6 41.1 24.9 24.2.4 42.6.3 42.5-26.1l-.1-35.3c0-7.3-1.4-15.2-8.7-18.8-7.9-3.9-18.1-3-26.7-4.9l.5-8.2h116.6l2.4 7.3c-10.3 3.5-25.9 2.8-28.7 15.5-4.5 20-2.2 40.8-2.6 61.5-26.5 16.1-63.7 21.4-94.2 21.4-74.9.1-122.6-52.6-122.6-121.8 0-73.2 54.9-123.7 120-123.5z"/><path id="b" d="m925.4 141.2c-11.6 0-46.7 1.7-61.6 27.3-4.3 7.3-4.4 17.4-2.7 25.5 3.5 16.8 28.8 16.9 37.4 9.3 5.1-4.5 6.6-8.8 6.8-15.6.3-9-6.9-13.2-9.3-21.1-1.1-3.6 1.7-15.2 26.3-13.2 9.8.8 19 6.2 21.8 16.1 3.4 12 1.5 25.5 1.8 37.9-23.8 9.1-47.6 13-69.4 27.6-12.2 8.2-23.8 18.4-23.8 37.9s16.3 36.8 37.4 36.8c24.4 0 39.6-8.7 55-23.1 5.4 16.6 10.9 23.2 28.7 23.2 15.7 0 31-7.7 39.4-21.5l-5.3-3.5c-4 2.8-8.3 5.2-11.8 2.1-3.9-3.5-3.7-10.7-3.7-16v-79.1c0-42.9-40.7-50.6-67-50.6zm18.6 130.5c-6.8 9-17.3 16.3-28.7 12.2-8.4-3-12.4-12.9-12.3-21.3.3-25.8 29.2-40.1 41-41.1z"/><path d="m1165.2 168.6c0 8.5-4.4 17.8-12 21.4-5.9 2.8-14 2.6-20 .3-9.4-3.5-13-19.7-22.7-18.4-6.4.8-18.3 11.3-18.3 32.3v66.7c0 22.6 8.1 21.7 25.4 27l-.9 7.3h-91.3l-.5-7.3c13.3-6.1 19.6-5.5 19.6-27v-93.7c0-16.2-5.6-18.5-18.8-23.9l-.2-7.4h64.7l.5 27.1c10.8-14.9 25.3-31.8 45.4-31.8 17 0 29.1 11.2 29.1 27.4z"/><path d="m1239.8 70.8v202.2c0 16.2.8 18.4 17.5 25.1l-.8 7.1h-83.2l-.4-7.1c12.4-4.6 17.6-10.4 17.6-25.1v-170.6c0-16.2-5.5-18.7-18.4-22.9v-8.7z"/><use transform="translate(418.5)" xlink:href="#b"/><path d="m1508.2 167.9-.6-22h-66.6l.2 7.4c16.3 4.8 18.8 7.7 18.8 23.9v93.7c0 16.7 1 18.9-18.6 27l.5 7.3h82.8l.9-7.3c-9.6-3.5-17.3-4.4-17.3-27v-85.2c0-7.8 16.9-20.2 29.1-20.3 11.4-.1 18.1 8.2 18.1 24.5v81c0 21.5-4.6 20.9-17.9 27l.5 7.3h83l.9-7.3c-21.4-6.6-18.3-10.2-18.3-27v-83.2c0-21.5-16.9-46.9-44.9-46.9-24.9 0-36.1 11.8-50.6 27.1z"/><path d="m1715 71.9v7.5c16.6 2.7 25.5 1.1 25.5 23v58.3c-11.8-10.3-25.3-20.2-41.7-19.5-17.6.9-64.4 14.5-64.3 89.2.1 65.9 44.4 79.3 61.5 79.3 27.6 0 35.1-13.5 46.1-21.4l.4 19.9c13.1-1.9 20-3.8 29.4-5.3 13.1-2 27.5-3.5 38.3-5.6v-3.9c-13.4-7.5-21.5-5.1-21.5-22.4v-199.1zm25.7 116.3-.1 62c0 19.8-8.3 39-29 39-25.3 0-26.4-42.5-26.6-59.2-.8-65.3 18.5-68.6 30.4-68.8 12.6-.2 25.3 13.3 25.3 27z"/><path d="m1902.1 141.1c-37.5 0-77.9 31.8-77.9 84.3s40.4 85.3 77.9 85.3 77.9-32.8 77.9-85.3-40.4-84.3-77.9-84.3zm0 11.6c23.5 0 26.2 29.8 26.2 53.7v39c0 23.9-2.7 53.7-26.2 53.7s-26.2-29.8-26.2-53.7v-39c0-23.9 2.7-53.7 26.2-53.7z"/></g><g><path id="c" d="m654.1 405.3h-6.1c-1.9-7.2-7.5-7.4-15.4-7.4-5.6 0-14.8-.2-14.7 6.7 0 5.7 3.3 6.8 14.3 7.5 11.6.7 22.2-.6 22.2 11.1 0 11.4-10.3 11.4-21.9 11.4-14.3 0-22.5-.1-22.5-12.8h6.4c.2 9.5 4.2 8.8 16.1 8.8 12.1 0 15.1-.2 15-7.4-.1-7.1-4.3-6.7-15.3-7.3-13.9-.8-20.9-.2-21-11.3-.1-10.2 7-10.3 21-10.3 15.3 0 20.7 0 21.9 11z"/><path d="m697.1 394.8v39.4h7.1v-15.5h24.5c7 0 13.4-3.2 13.4-12.4 0-9.6-7.5-11.5-13.4-11.5zm37.7 11.5c0 3.7-.9 8.4-6.1 8.4h-24.5v-15.9h24.5c5.8 0 6.1 4.3 6.1 7.5z"/><path d="m806.5 394.3c-22.6-.1-25 .8-25 20.1s2.4 20.2 25 20.1c22.6.1 25-.8 25-20.1s-2.4-20.2-25-20.1zm0 4c17.4 0 18.2 1 18.5 16.1-.3 15.1-1.1 16.1-18.5 16.1s-18.2-1-18.5-16.1c.3-15.1 1.1-16.1 18.5-16.1z"/><path id="d" d="m875 394.8v39.4h7.1v-16l22.2.1c3.7 0 9 .8 9 6.4v9.5h6.9v-9.4c0-5.4-1.8-6.5-6.6-8.4 4-.8 7.8-4.6 7.8-10.1 0-9.6-7.2-11.5-13.1-11.5zm7.1 4h26.2c5.8 0 6.1 4.3 6.1 7.5 0 3.7-2.8 8-8 8l-24.3-.1z"/><path d="m959.9 394.8h46.1v3.9h-19.4v35.5h-6.9v-35.5h-19.8z"/><path d="m1117.2 394.8-22.4 39.4 7.5-.3 4.5-8.2h30.6l5.2 8.2 6.8.3-22.3-39.4zm5 3.3 13 24.1h-26.4z"/><path d="m1188.7 394.8h11l31.8 35.1v-35.1h7v39.4h-11l-32-35.6v35.6h-6.8z"/><path d="m1306 394.8h-23.2v39.4h23.2c18.7 0 26-2.1 26-20 0-18.9-6.5-19.4-26-19.4zm0 3.9c14.4 0 19 .2 19 15.5 0 16.3-5.8 16.2-19 16.2h-16.2v-31.7z"/><path d="m1436.8 394.8.1 35.1h30v4.3h-37v-39.4z"/><path id="e" d="m1545.9 394.8v3.9h-31.3v13.2h29.8v3.7h-29.8v14.8h31.3v3.8h-38l.1-39.4z"/><path d="m1597.6 394.8v39.4h-6.6v-39.4z"/><use transform="translate(1031.5)" xlink:href="#c"/><path d="m1735.7 394.8v26.1c0 9.8 6.4 10 15.6 9.8 10.9-.1 17 .1 17-9.8v-26.1h7v26.1c0 12.4-3.5 13.6-24 13.6-18.4 0-22.6-1.3-22.6-13.6l.1-26.1z"/><use transform="translate(945)" xlink:href="#d"/><use transform="translate(403)" xlink:href="#e"/></g></g></g></svg>