<svg viewBox="0 0 512 100" xmlns="http://www.w3.org/2000/svg"><g id="figure"><path d="m382.8 2c-2.9 0-5.7 1.4-7.5 2.8-3 2.4-4.1 5.8-5.2 10.1l-19.9 69.2c-.4 1.5-.6 3.2-.6 4.9 0 4.6 7.5 9 12 9h85.7c5.5 0 9.4-3.5 11-8.8l20.2-70.3c.5-1.8 1.2-3.6 1.2-5.4 0-6.3-7.5-11.5-13.1-11.5zm90.2 6.9-21.9 75.6c-1.7 5-6.5 7.3-11 7.4h-82.6c-4.8-.1-6.6-4.9-5.3-8.9l20.2-70.5c.7-2.9 2.2-5.1 4.2-6.7 2.1-1.7 4.7-2.3 7.4-2.4h81.7c3.9.1 8.4 1.9 7.3 5.4z"/><path d="m74.5 29.5h-34.4c-15.5 0-38.1 12.3-38.1 29.7 0 8.4 8.4 11.6 22.9 11.5h27.9l12.7-24.1-16.5.1-8 15.2c-.9 1.4-2.4 1.6-4 1.6l-10.6.1c-5.5 0-7.4-4.6-6.9-7.7 1.2-8.3 10.9-18.5 21.2-18.7h29.9z"/><path d="m81.5 29.5h16.6l1.1 17.6h.8l19-17.6h18.6l-36.2 30.8-4.9 10.4h-17.3l6.4-11.4z"/><path d="m161.7 31.3.5-2h-16.5l-21.6 41.4h16.5l12.1-23.3c3.4-6.5 12-10.1 16.8-10.2 1.7.1 1.4 2 .7 3.4l-16.1 30h16.7l12.2-23.3c2.2-4.2 11.2-10.4 16.6-10.3 2.1.1 1.8 2.3.9 3.8l-15.7 29.7h16.2l12.3-23.5c.8-1.7 1.1-3.5 1.1-5 0-7.6-5.8-12.9-12.8-12.9-2.8 0-8 1.1-9.9 2.4-2.1-1.7-7.8-2.4-13.9-2.4-5.3 0-11.3.4-16.4 2z"/><path d="m230.7 29.3-21.5 41.4h38.1c16.4 0 23.6-6.4 27.2-11.3 1.3-1.8 2-6.6-1.9-9.4 7.7-3.3 11.9-6.5 11.8-10.9 0-5.8-7.3-9.8-14.4-9.8zm28.8 7.5c10.6 0 6.4 9.5-3.4 9.5h-17.3l4.6-9.5zm-8.7 16.8c10.2 0 6.3 9.5-3.5 9.5h-17.2l4.6-9.5z"/><path d="m323.3 29.3c-16.3 0-40.1 12.2-40.1 29.3 0 8.2 8.6 12 19.1 12h11c17.3 0 41.3-12.9 41.3-29.6 0-5.2-5.4-11.7-21.5-11.7zm2.8 7.9c15.5.3 12.6 11.3 4.9 18.9-7 6.4-12.1 6.9-20.8 7-13.8-.2-10.4-11.5-3.3-18.3 7.5-6.7 9.8-7.5 19.1-7.6z"/><path d="m369 70.5 20.9-22.3-10.6-22.7 19.7-4 7 16.8 18.3-20.9 32.2-6.1-39.1 35.8 19.1 36.2-30.4-5.9-8.1-18.4-14.6 14.5z"/><path d="m499.7 24.8c-.7-1-.8-2.5-1-3.7-.3-2.3-1.3-2.7-2.9-2.7h-.9v6.4h-3v-14.7h5.2c3.6-.1 5.7.9 5.9 3.9 0 2.1-2 3-3.1 3.4.7.3 1 .5 1 .7.9.9.9 2.3 1.1 3.4 0 .4.3 2 1 3.3m-6-8.9c1.3 0 2.5-.2 2.6-1.7 0-1.5-1.3-2-2.6-2h-2.3v3.6"/><path d="m497.1 4.6c-7.1 0-13 5.8-13 13 0 7.1 5.9 12.9 13 12.9s12.9-5.7 12.9-12.9c0-7.1-5.8-13-12.9-13zm0 2.3c6 0 10.7 4.8 10.7 10.7s-4.7 10.6-10.7 10.6-10.7-4.7-10.7-10.6 4.7-10.7 10.7-10.7z"/></g></svg>