<svg viewBox="0 0 479 100" xmlns="http://www.w3.org/2000/svg"><g id="figure"><path d="m5.8 13-1.8 10.3c-.8 4.5 2.6 8.9 11.4 9.4 0 0 23 1.2 38 1.4 11.7.1 23.4.6 23.4.6 3.9 0 7.8 1.1 7.1 4.5l-.5 2.9c-.5 3-3.9 4.3-8.8 4.8 0 0-12.5.9-23.5.9-15.8 0-33.1-1.3-43.7-2.7-4.8-.6-5.3 3.1-5.3 4.5 0 2.5 1.8 3.9 3.9 4.3 0 0 13.7 2.9 43.5 2.9 17.1 0 38.7-1.3 38.7-1.3 8.9-.5 14-4.9 14.8-9.4l1.8-10.3c.8-4.5-3.3-9-11.2-9.4 0 0-25.8-1.4-38.4-1.4-12.1 0-23.2-.6-23.2-.6-4-.2-7.7-1-7.1-4.6l.6-2.8c.5-3 3.7-4.5 8.6-4.9 0 0 7.6-.8 24-.8 24.3 0 43.3 2.7 43.3 2.7 4.9.6 5.3-3.4 5.3-4.6 0-2.5-1.9-3.9-3.9-4.3 0 0-13.7-2.9-43.5-2.9-17.1 0-38.7 1.4-38.7 1.4-8.9.5-14 4.9-14.8 9.4z"/><path d="m130.8 13-5.9 32.9c-.1.4-.1.9-.1 1.3 0 4 3.6 7.5 11.5 8 0 0 21.1 1.4 38.2 1.4s38.7-1.4 38.7-1.4c8.9-.5 13.9-4.8 14.7-9.3l5.9-32.9c.1-.5.1-.9.1-1.4 0-4-3.6-7.5-11.4-8 0 0-21.1-1.3-38.2-1.3s-38.8 1.3-38.8 1.3c-8.9.5-13.9 4.9-14.7 9.4zm15.2 28 4.2-23.2c.5-2.7 3.5-5.3 8.9-5.6 0 0 13.2-.9 23.5-.9s23.2.9 23.2.9c2.2.1 7.7 1.2 6.9 5.6l-4.2 23.2c-.5 2.7-3.5 5.4-8.9 5.7 0 0-13.1.9-23.5.9-10.3 0-23.2-.9-23.2-.9-3.3-.2-7.6-1.4-6.9-5.7z"/><path d="m252.6 45.3c-.1.4-.2 1.2-.2 1.6 0 4.1 3.5 7.8 11.5 8.3 0 0 21.1 1.4 38.2 1.4 29.8 0 46.3-2.9 46.3-2.9 2.1-.4 4-1.8 4-4.3 0-1-.3-5.1-5.3-4.5 0 0-19.1 2.7-43.3 2.7-10.3 0-23.2-.9-23.2-.9-3.3-.3-7.6-1.2-6.9-5.7l5-28c.9-5-.2-10.7-8.2-10.7-8.2 0-11.1 5.7-12 10.7z"/><path d="m373.8 12.8-5.9 33c-.1.4-.1.9-.1 1.3 0 4 3.5 7.6 11.4 8.1 0 0 15.3 1.4 38.2 1.4 30.7 0 46.3-2.9 46.3-2.9 2.3-.4 4.4-2 3.9-5.1-.5-3.2-2.6-4-5.2-3.7 0 0-19.1 2.7-43.3 2.7-13.7 0-23.2-.9-23.2-.9-6.6-.6-7.3-2.8-7-4.8l.5-2.9c.5-3.2 4.3-4.5 8.7-4.5l53.6-.7c2.2 0 4.8-2.1 5.2-4.5s-1.2-4.6-3.6-4.6l-53.3-.5c-1.6 0-7.9-.3-7.1-4.6l.5-2.9c.5-3 3.9-4.3 8.8-4.8 0 0 10.3-.9 23.4-.9 19.3 0 43.3 2.7 43.3 2.7 5 .6 5.3-3.5 5.3-4.6 0-2.5-1.9-3.8-3.9-4.2 0 0-13.6-2.9-43.4-2.9-19.6 0-38.3 1.4-38.3 1.4-8.9.5-14 4.9-14.7 9.4z"/><path d="m340 70.7v22h12.7v-22z"/><path d="m469.4 53.5v.6h1v2.9h.7v-2.9h1v-.6z"/><path d="m472.6 53.5v3.5h.7v-2.7l.7 2.7h.3.3l.7-2.7v2.7h.7v-3.5h-1.1l-.6 2.4-.6-2.4z"/><path d="m328.6 92.8-.4 1.5c-.5 1.7-1.4 2.2-2.5 2.2-.4 0-.8-.1-1.2-.1v1.5c.4 0 .8.1 1.3.1 2.5 0 3.4-.9 4.3-4.1l4.8-17.6h-2l-3.3 14.1-3.7-14.1h-2zm-11.4-15.3c1.8 0 3.6 1 3.6 7s-1.7 7-3.6 7-3.6-1-3.6-7 1.7-7 3.6-7zm-5.4 15.1h1.7v-2.7c.5 1.9 2.1 3.1 4 3.1 3.6 0 5.2-2.9 5.2-8.5s-1.6-8.5-5.2-8.5c-2 0-3.4 1.1-3.8 2.8v-8.1h-1.9z"/><path d="m360.1 79.3h-7.4v4.3h7.4v9.1h4.7v-22h-4.7z"/><path d="m379.6 70.7 8.2 22h-4.9l-1.5-4.2h-8.4l-1.4 4.2h-4.9l8-22zm-5.2 13.7h5.6l-2.8-8.1z"/><path d="m394.5 70.7 6.3 13.9 6.3-13.9h4.5v22h-4.6v-11.3l-5.4 11.3h-1.9l-5.4-11.5v11.5h-4.6v-22z"/><path d="m420.2 70.7 6.3 13.9 6.3-13.9h4.5v22h-4.6v-11.3l-5.4 11.3h-1.9l-5.4-11.5v11.5h-4.6v-22z"/><path d="m455.7 75h-10v4.4h9.3v4.1h-9.3v4.9h10v4.3h-14.6v-22h14.6z"/><path d="m468 70.7c4.7 0 7.9 2.3 7.9 6.9 0 3.3-1.7 5.4-4.3 6.4l5.3 8.7h-5.2l-4.7-8.2h-3.6v8.2h-4.6v-22zm-4.6 9.9h4.7c2 0 3.4-.9 3.4-2.9s-1.4-2.8-3.4-2.8h-4.7z"/></g></svg>