<svg viewBox="0 0 374 100" xmlns="http://www.w3.org/2000/svg"><g id="figure"><path d="m 351.395,43.1963 c 0,0 -11.031,-0.051 -11.96,-0.063 -0.511,0.8473 -20.745,34.6068 -20.745,34.6068 l -27.243,-0.1432 c 0,0 19.18,-32.1287 20.667,-34.6074 -2.437,0 -13.316,-0.071 -13.316,-0.071 L 308.896,25.59 361.49,25.7333 Z m -81.807,-0.431 c -1.902,-0.011 -4.056,-0.1703 -5.264,0.6189 0,0 -0.197,0.1698 -0.365,0.3113 0.57,0.3069 1.984,0.5794 2.583,0.6888 l 5.482,1.0273 c 6.742,1.2562 11.221,2.6806 12.699,5.8966 0.93,2.0229 0.519,4.4891 -1.246,7.5398 -6.983,12.0584 -25.069,18.5755 -39.37,18.5005 l -30.224,-0.1608 11.084,-16.6209 26.096,0.1388 c 2.668,0.017 5.164,-0.6352 5.743,-1.4193 -0.229,-0.3215 -1.711,-0.6961 -2.505,-0.8958 0,0 -5.188,-1.21 -5.188,-1.2122 -6.303,-0.9184 -10.664,-3.2673 -12.283,-6.6125 -1.146,-2.3664 -0.864,-5.0516 0.836,-7.9878 6.071,-10.4805 19.607,-16.9959 36.204,-17.4218 3.106,-0.076 26.064,0.2533 26.064,0.2533 l -10.717,17.4608 z m 16.514,51.3394 h -2.762 l 1.489,-6.661 h -0.03 l -3.168,6.661 h -2.206 l -0.352,-6.661 h -0.03 l -1.326,6.661 h -2.762 l 2.017,-9.6666 h 4.156 l 0.122,5.1989 h 0.03 l 2.641,-5.1989 h 4.237 l -2.058,9.6666 z m -12.906,-3.3706 c -0.257,0.7125 -0.623,1.3381 -1.096,1.8746 -0.474,0.537 -1.045,0.959 -1.713,1.2658 -0.668,0.3069 -1.413,0.4603 -2.234,0.4603 -0.686,0 -1.3,-0.09 -1.841,-0.2707 -0.542,-0.1805 -1.002,-0.4491 -1.381,-0.8056 -0.379,-0.3565 -0.67,-0.7988 -0.873,-1.3262 -0.204,-0.5286 -0.305,-1.1401 -0.305,-1.8345 0,-0.8128 0.129,-1.575 0.386,-2.2885 0.257,-0.7131 0.623,-1.3381 1.096,-1.8751 0.474,-0.5365 1.045,-0.9585 1.713,-1.2653 0.667,-0.3069 1.413,-0.4609 2.234,-0.4609 0.686,0 1.299,0.084 1.841,0.2505 0.542,0.1669 1.002,0.4225 1.381,0.7649 0.379,0.343 0.67,0.7807 0.873,1.3132 0.203,0.5325 0.305,1.1689 0.305,1.909 0,0.8123 -0.129,1.5749 -0.386,2.2885 m -17.632,-0.1968 c 0.03,0.2397 0.109,0.4603 0.217,0.6634 0.108,0.203 0.265,0.3751 0.467,0.5144 0.203,0.1405 0.476,0.2099 0.819,0.2099 0.47,0 0.838,-0.1399 1.104,-0.4197 0.266,-0.2793 0.449,-0.6363 0.548,-1.0696 h 2.925 c -0.03,0.1625 -0.08,0.3723 -0.15,0.6296 -0.07,0.2572 -0.18,0.5302 -0.324,0.8196 -0.145,0.2883 -0.332,0.5794 -0.562,0.8727 -0.231,0.2933 -0.526,0.5551 -0.887,0.7852 -0.361,0.2302 -0.79,0.4197 -1.286,0.5687 -0.497,0.1489 -1.079,0.2233 -1.747,0.2233 -0.704,0 -1.315,-0.1083 -1.834,-0.3249 -0.519,-0.2166 -0.95,-0.519 -1.293,-0.9071 -0.343,-0.3881 -0.6,-0.8506 -0.772,-1.3877 -0.171,-0.5364 -0.257,-1.1304 -0.257,-1.7803 0,-0.7852 0.119,-1.5231 0.359,-2.2135 0.239,-0.6905 0.582,-1.2975 1.028,-1.821 0.447,-0.5235 0.996,-0.9364 1.645,-1.2388 0.65,-0.3018 1.386,-0.4535 2.207,-0.4535 0.542,0 1.058,0.063 1.55,0.1895 0.492,0.127 0.928,0.3385 1.307,0.6363 0.379,0.2979 0.681,0.6933 0.907,1.1847 0.226,0.4924 0.347,1.0989 0.366,1.8209 h -2.817 c 0.02,-0.4603 -0.08,-0.8123 -0.304,-1.056 -0.221,-0.2437 -0.562,-0.3655 -1.022,-0.3655 -0.416,0 -0.765,0.106 -1.05,0.3181 -0.283,0.2121 -0.514,0.4789 -0.69,0.7988 -0.176,0.3204 -0.304,0.6724 -0.386,1.056 -0.08,0.3836 -0.122,0.7469 -0.122,1.0899 0,0.1985 0.02,0.4174 0.06,0.6566 m -5.991,3.5674 h -2.761 l 0.555,-2.6807 h 2.762 z m -9.027,-6.5391 c 0.162,0.1083 0.364,0.1985 0.603,0.2707 0.239,0.073 0.498,0.1377 0.778,0.1963 0.28,0.059 0.537,0.1287 0.772,0.2099 0.84,0.2978 1.423,0.6724 1.753,1.1237 0.329,0.4513 0.495,0.9663 0.495,1.5434 0,0.5867 -0.13,1.0943 -0.387,1.5231 -0.257,0.4287 -0.593,0.7829 -1.008,1.0627 -0.416,0.2798 -0.882,0.4897 -1.401,0.6296 -0.52,0.1399 -1.041,0.2098 -1.564,0.2098 -0.56,0 -1.092,-0.065 -1.598,-0.1963 -0.505,-0.1308 -0.949,-0.3362 -1.333,-0.616 -0.384,-0.2792 -0.682,-0.6408 -0.894,-1.0831 -0.212,-0.4417 -0.305,-0.9702 -0.277,-1.584 h 2.883 c 0,0.2618 0.03,0.4784 0.09,0.6499 0.06,0.1715 0.151,0.3204 0.278,0.4468 0.126,0.1083 0.28,0.176 0.46,0.203 0.181,0.028 0.393,0.039 0.636,0.039 0.145,0 0.294,-0.017 0.447,-0.056 0.154,-0.034 0.293,-0.092 0.42,-0.1692 0.127,-0.077 0.23,-0.1738 0.312,-0.2911 0.08,-0.1173 0.122,-0.2572 0.122,-0.4197 0,-0.1715 -0.06,-0.3136 -0.177,-0.4265 -0.117,-0.1128 -0.28,-0.2098 -0.487,-0.2905 -0.208,-0.082 -0.454,-0.163 -0.738,-0.2442 -0.285,-0.081 -0.593,-0.176 -0.927,-0.2843 -0.298,-0.099 -0.584,-0.2167 -0.86,-0.3521 -0.276,-0.1353 -0.522,-0.3046 -0.738,-0.5076 -0.217,-0.2031 -0.39,-0.4468 -0.521,-0.7311 -0.131,-0.2843 -0.197,-0.629 -0.197,-1.0357 0,-0.5416 0.12,-1.0132 0.359,-1.4148 0.239,-0.4017 0.553,-0.7333 0.941,-0.9951 0.388,-0.2617 0.824,-0.4552 1.306,-0.5822 0.483,-0.1263 0.969,-0.1895 1.456,-0.1895 0.515,0 1.007,0.051 1.476,0.1563 0.469,0.1032 0.884,0.2798 1.246,0.5274 0.36,0.2482 0.642,0.5737 0.846,0.9753 0.202,0.4011 0.299,0.8998 0.29,1.4955 h -2.748 c 0.01,-0.1986 -0.02,-0.361 -0.08,-0.4874 -0.06,-0.1264 -0.149,-0.2301 -0.257,-0.3114 -0.109,-0.081 -0.237,-0.1371 -0.386,-0.1692 -0.149,-0.034 -0.309,-0.045 -0.481,-0.045 -0.126,0 -0.257,0.011 -0.392,0.034 -0.136,0.023 -0.26,0.063 -0.373,0.1224 -0.113,0.058 -0.205,0.1377 -0.277,0.2364 -0.07,0.099 -0.109,0.2301 -0.109,0.3926 0,0.1805 0.08,0.3249 0.244,0.4332 m -10.22,0 c 0.163,0.1083 0.363,0.1986 0.603,0.2708 0.239,0.073 0.498,0.1376 0.778,0.1963 0.28,0.059 0.537,0.1286 0.772,0.2099 0.84,0.2978 1.424,0.6724 1.754,1.1237 0.328,0.4512 0.494,0.9663 0.494,1.5434 0,0.5866 -0.129,1.0943 -0.387,1.523 -0.257,0.4288 -0.593,0.783 -1.008,1.0628 -0.416,0.2798 -0.882,0.4897 -1.401,0.6296 -0.52,0.1399 -1.041,0.2098 -1.564,0.2098 -0.56,0 -1.092,-0.065 -1.598,-0.1963 -0.505,-0.1309 -0.949,-0.3362 -1.333,-0.616 -0.384,-0.2792 -0.682,-0.6408 -0.894,-1.0831 -0.211,-0.4417 -0.305,-0.9703 -0.277,-1.584 h 2.883 c 0,0.2617 0.03,0.4784 0.09,0.6499 0.06,0.1714 0.151,0.3204 0.278,0.4467 0.126,0.1083 0.28,0.176 0.46,0.2031 0.181,0.028 0.393,0.04 0.636,0.04 0.145,0 0.294,-0.017 0.447,-0.056 0.154,-0.034 0.294,-0.092 0.42,-0.1693 0.127,-0.077 0.23,-0.1737 0.312,-0.291 0.08,-0.1174 0.121,-0.2573 0.121,-0.4197 0,-0.1715 -0.06,-0.3137 -0.176,-0.4265 -0.117,-0.1128 -0.28,-0.2098 -0.487,-0.2905 -0.208,-0.082 -0.454,-0.163 -0.738,-0.2443 -0.284,-0.081 -0.594,-0.176 -0.927,-0.2843 -0.298,-0.099 -0.585,-0.2166 -0.86,-0.352 -0.275,-0.1354 -0.521,-0.3046 -0.737,-0.5077 -0.218,-0.2031 -0.391,-0.4467 -0.522,-0.7311 -0.131,-0.2843 -0.197,-0.6289 -0.197,-1.0357 0,-0.5415 0.12,-1.0131 0.359,-1.4147 0.239,-0.4017 0.553,-0.7334 0.941,-0.9951 0.388,-0.2618 0.824,-0.4553 1.307,-0.5822 0.482,-0.1263 0.968,-0.1895 1.455,-0.1895 0.514,0 1.006,0.051 1.476,0.1562 0.469,0.1033 0.884,0.2798 1.245,0.5275 0.361,0.2482 0.643,0.5737 0.846,0.9753 0.203,0.4011 0.3,0.8998 0.291,1.4955 h -2.748 c 0.01,-0.1986 -0.02,-0.3611 -0.08,-0.4874 -0.06,-0.1264 -0.149,-0.2302 -0.257,-0.3114 -0.109,-0.081 -0.237,-0.1371 -0.386,-0.1692 -0.149,-0.034 -0.309,-0.045 -0.481,-0.045 -0.126,0 -0.257,0.011 -0.392,0.034 -0.136,0.023 -0.26,0.063 -0.373,0.1224 -0.113,0.058 -0.204,0.1376 -0.277,0.2363 -0.07,0.099 -0.109,0.2302 -0.109,0.3927 0,0.1805 0.08,0.3249 0.244,0.4332 m -5.364,-0.6499 h -5.009 l -0.257,1.205 h 4.643 l -0.474,2.3015 h -4.657 l -0.257,1.205 h 5.117 l -0.514,2.4775 h -8.096 l 2.017,-9.6665 h 7.988 z m -12.361,7.189 h -2.925 l -1.773,-5.4154 h -0.03 l -1.124,5.4154 h -2.83 l 2.004,-9.6665 h 2.951 l 1.814,5.28 h 0.03 l 1.083,-5.28 h 2.83 l -2.031,9.6665 z m -11.872,-7.189 -1.49,7.189 h -2.978 l 1.49,-7.189 h -2.682 l 0.515,-2.4775 h 8.34 l -0.515,2.4775 z m -9.064,7.189 h -2.979 l 2.004,-9.6665 h 2.978 z m -3.661,-7.189 h -4.481 l -0.257,1.205 h 3.804 l -0.474,2.3015 h -3.804 l -0.772,3.6825 h -2.978 l 2.017,-9.6665 h 7.46 z m -9.48,0 h -2.681 l -1.49,7.189 h -2.978 l 1.49,-7.189 h -2.682 l 0.515,-2.4775 h 8.34 z m -15.061,0.6499 c 0.163,0.1083 0.363,0.1986 0.603,0.2708 0.239,0.073 0.498,0.1376 0.778,0.1963 0.279,0.059 0.537,0.1286 0.772,0.2098 0.839,0.2979 1.423,0.6724 1.753,1.1237 0.329,0.4513 0.494,0.9663 0.494,1.5434 0,0.5867 -0.128,1.0944 -0.386,1.5231 -0.257,0.4287 -0.593,0.783 -1.008,1.0628 -0.416,0.2798 -0.883,0.4896 -1.402,0.6295 -0.519,0.1399 -1.04,0.2099 -1.563,0.2099 -0.56,0 -1.092,-0.066 -1.598,-0.1963 -0.505,-0.1309 -0.95,-0.3362 -1.333,-0.616 -0.384,-0.2793 -0.682,-0.6409 -0.894,-1.0831 -0.212,-0.4417 -0.305,-0.9703 -0.277,-1.584 h 2.883 c 0,0.2617 0.03,0.4783 0.09,0.6498 0.06,0.1715 0.151,0.3204 0.278,0.4468 0.126,0.1083 0.28,0.176 0.46,0.2031 0.181,0.028 0.393,0.04 0.636,0.04 0.145,0 0.294,-0.017 0.447,-0.056 0.154,-0.034 0.294,-0.092 0.42,-0.1692 0.126,-0.077 0.23,-0.1737 0.311,-0.2911 0.08,-0.1173 0.122,-0.2572 0.122,-0.4197 0,-0.1714 -0.06,-0.3136 -0.176,-0.4264 -0.117,-0.1128 -0.28,-0.2099 -0.487,-0.2905 -0.208,-0.082 -0.454,-0.1631 -0.738,-0.2443 -0.284,-0.081 -0.594,-0.176 -0.928,-0.2843 -0.297,-0.099 -0.584,-0.2166 -0.859,-0.352 -0.275,-0.1354 -0.521,-0.3046 -0.738,-0.5077 -0.217,-0.2031 -0.39,-0.4468 -0.521,-0.7311 -0.131,-0.2843 -0.197,-0.629 -0.197,-1.0357 0,-0.5415 0.12,-1.0131 0.359,-1.4148 0.239,-0.4016 0.553,-0.7333 0.941,-0.995 0.388,-0.2618 0.824,-0.4553 1.307,-0.5822 0.482,-0.1264 0.968,-0.1895 1.455,-0.1895 0.514,0 1.006,0.051 1.476,0.1562 0.469,0.1032 0.884,0.2798 1.245,0.5275 0.361,0.2482 0.643,0.5736 0.846,0.9753 0.203,0.4011 0.3,0.8997 0.291,1.4954 h -2.748 c 0.01,-0.1985 -0.02,-0.361 -0.08,-0.4874 -0.06,-0.1263 -0.149,-0.2301 -0.257,-0.3113 -0.109,-0.081 -0.237,-0.1371 -0.386,-0.1693 -0.149,-0.034 -0.309,-0.045 -0.481,-0.045 -0.126,0 -0.257,0.011 -0.392,0.034 -0.136,0.023 -0.26,0.063 -0.373,0.1225 -0.113,0.058 -0.205,0.1376 -0.277,0.2363 -0.07,0.099 -0.109,0.2302 -0.109,0.3926 0,0.1806 0.08,0.325 0.244,0.4333 m -6.926,6.5391 h -2.978 l 2.003,-9.6665 h 2.979 z m -4.742,-3.3705 c -0.258,0.7124 -0.623,1.338 -1.096,1.8745 -0.475,0.537 -1.046,0.959 -1.713,1.2658 -0.669,0.3069 -1.413,0.4604 -2.234,0.4604 -0.687,0 -1.3,-0.09 -1.842,-0.2708 -0.541,-0.1805 -1.001,-0.449 -1.38,-0.8056 -0.38,-0.3565 -0.67,-0.7987 -0.874,-1.3262 -0.203,-0.5285 -0.305,-1.14 -0.305,-1.8345 0,-0.8128 0.129,-1.5749 0.386,-2.2885 0.258,-0.7131 0.623,-1.3381 1.097,-1.8751 0.474,-0.5365 1.045,-0.9584 1.713,-1.2653 0.667,-0.3069 1.412,-0.4609 2.233,-0.4609 0.686,0 1.3,0.084 1.842,0.2505 0.541,0.1669 1.001,0.4225 1.381,0.7649 0.379,0.343 0.67,0.7807 0.873,1.3132 0.203,0.5326 0.305,1.1689 0.305,1.909 0,0.8123 -0.129,1.575 -0.386,2.2886 M 135.977,76.7167 c -12.226,-0.063 -21.219,-3.5641 -24.677,-9.5949 -2.603,-4.545 -2.029,-10.3175 1.658,-16.6886 8.547,-14.7581 30.36,-25.3898 51.863,-25.2753 11.987,0.063 20.882,3.6249 24.399,9.7624 1.127,1.9721 1.685,4.1439 1.673,6.4759 -0.02,3.1794 -1.091,6.6559 -3.204,10.3051 -8.594,14.8439 -29.858,25.1299 -51.712,25.0154 m 3.07,17.3846 h -2.978 l 0.798,-3.8314 h -2.721 l -0.799,3.8314 h -2.978 l 2.017,-9.6665 h 2.979 l -0.704,3.3581 h 2.721 l 0.704,-3.3581 h 2.978 z M 90.4425,76.5367 62.4662,76.3878 c 0,0 12.7996,-21.6623 15.2388,-25.7673 -4.3284,2.0624 -26.7325,12.728 -27.1855,12.9474 -0.2611,0.462 -7.1805,12.72 -7.1805,12.72 L 15.2781,76.1396 45.9271,24.0697 73.2812,24.213 c 0,0 -10.4732,17.0225 -11.8924,19.328 2.6146,0.028 18.3661,0.093 19.2461,0.1021 0.4993,-0.8129 11.9433,-19.3274 11.9433,-19.3274 l 27.8538,0.1455 z m 119.5815,-51.6056 26.1,0.1393 -31.096,52.0676 -26.125,-0.1365 z m 63.581,-2.3591 c -9.612,0.246 -18.275,2.4691 -25.22,6.2836 l -10.885,-0.058 3.579,-5.9818 -32.967,-0.1726 -3.578,5.9812 -17.763,-0.093 c -5.023,-3.832 -12.618,-5.9107 -22.135,-5.9621 -9.746,-0.051 -19.562,2.0404 -28.289,5.697 L 121.89,28.1888 125.492,22.0316 97.099,21.8832 68.6804,1 1,49.6395 19.5738,63.2898 10.3044,79.0368 40.8288,79.1976 68.1642,99 95.027,79.6895 h 0.559 C 107.283,91.3186 118.915,99 142.167,99 h 144.831 c 11.037,0 16.325,-10.7823 16.325,-10.7823 l 4.651,-7.8987 12.598,0.067 20.734,-34.371 11.446,0.1608 13.789,-23.1115 c 0,0 -90.081,-0.5624 -92.936,-0.4919"/><path d="m 155.604,42.8189 c -6.873,-0.039 -14.047,3.7079 -17.052,8.9005 -0.589,1.0205 -1.156,2.3326 -1.164,3.6108 0,0.616 0.126,1.227 0.45,1.7916 0.957,1.6726 3.428,2.6028 6.956,2.6198 6.987,0.034 13.972,-3.572 16.981,-8.7742 1.244,-2.1374 1.476,-4.0926 0.667,-5.5068 -0.962,-1.685 -3.391,-2.6248 -6.838,-2.6417"/><path id="p3" d="m 148.885,87.1662 c -0.113,-0.167 -0.266,-0.3001 -0.46,-0.3994 -0.194,-0.099 -0.436,-0.1495 -0.725,-0.1495 -0.451,0 -0.828,0.1179 -1.13,0.352 -0.302,0.2352 -0.544,0.5286 -0.724,0.8806 -0.181,0.352 -0.312,0.7356 -0.393,1.1507 -0.08,0.4152 -0.122,0.8033 -0.122,1.1638 0,0.2172 0.02,0.4315 0.07,0.6436 0.04,0.2121 0.126,0.4017 0.244,0.5687 0.117,0.1669 0.273,0.3001 0.467,0.3993 0.194,0.099 0.435,0.149 0.724,0.149 0.442,0 0.817,-0.1168 1.124,-0.352 0.307,-0.2347 0.55,-0.528 0.731,-0.88 0.18,-0.352 0.311,-0.7356 0.392,-1.1508 0.08,-0.4152 0.122,-0.8033 0.122,-1.1649 0,-0.216 -0.02,-0.4304 -0.07,-0.6425 -0.05,-0.2121 -0.131,-0.4017 -0.244,-0.5686"/><path id="p4" d="m 270.285,87.1662 c -0.112,-0.167 -0.266,-0.3001 -0.46,-0.3994 -0.194,-0.099 -0.435,-0.1495 -0.724,-0.1495 -0.452,0 -0.828,0.1179 -1.131,0.352 -0.303,0.2352 -0.544,0.5286 -0.724,0.8806 -0.181,0.352 -0.311,0.7356 -0.393,1.1507 -0.08,0.4152 -0.122,0.8033 -0.122,1.1638 0,0.2172 0.02,0.4315 0.07,0.6436 0.05,0.2121 0.127,0.4017 0.244,0.5687 0.117,0.1669 0.272,0.3001 0.467,0.3993 0.194,0.099 0.435,0.149 0.724,0.149 0.442,0 0.817,-0.1168 1.124,-0.352 0.306,-0.2347 0.551,-0.528 0.731,-0.88 0.181,-0.352 0.311,-0.7356 0.393,-1.1508 0.08,-0.4152 0.122,-0.8033 0.122,-1.1649 0,-0.216 -0.02,-0.4304 -0.07,-0.6425 -0.05,-0.2121 -0.131,-0.4017 -0.244,-0.5686"/><path id="p5" d="m 370.108,25.458 c 0.119,0 0.23,0 0.341,-0.011 0.107,-0.011 0.202,-0.028 0.284,-0.067 0.08,-0.034 0.151,-0.092 0.203,-0.1686 0.04,-0.075 0.07,-0.1822 0.07,-0.3188 0,-0.1139 -0.03,-0.2064 -0.07,-0.273 -0.05,-0.071 -0.101,-0.123 -0.174,-0.1602 -0.07,-0.034 -0.151,-0.059 -0.243,-0.072 -0.09,-0.017 -0.18,-0.023 -0.269,-0.023 h -0.706 v 1.091 z m 0.233,-1.5253 c 0.408,0 0.712,0.081 0.906,0.2443 0.197,0.163 0.295,0.4078 0.295,0.7401 0,0.3091 -0.09,0.5353 -0.261,0.6803 -0.171,0.1427 -0.387,0.2273 -0.643,0.2561 l 0.979,1.5135 h -0.571 l -0.931,-1.474 h -0.565 v 1.474 h -0.533 v -3.4343 z m -2.422,2.7088 c 0.123,0.3058 0.292,0.572 0.509,0.7982 0.217,0.2223 0.473,0.4011 0.769,0.528 0.297,0.1292 0.618,0.193 0.964,0.193 0.339,0 0.654,-0.064 0.946,-0.193 0.294,-0.1269 0.551,-0.3057 0.768,-0.528 0.215,-0.2262 0.387,-0.4924 0.51,-0.7982 0.122,-0.308 0.182,-0.6425 0.182,-1.0035 0,-0.3486 -0.06,-0.6752 -0.182,-0.9793 -0.123,-0.3024 -0.295,-0.5658 -0.51,-0.7903 -0.217,-0.2217 -0.474,-0.3971 -0.768,-0.5241 -0.292,-0.1292 -0.607,-0.1946 -0.946,-0.1946 -0.346,0 -0.667,0.065 -0.964,0.1946 -0.296,0.127 -0.552,0.3024 -0.769,0.5241 -0.217,0.2245 -0.386,0.4879 -0.509,0.7903 -0.123,0.3041 -0.182,0.6307 -0.182,0.9793 0,0.361 0.06,0.6955 0.182,1.0035 m -0.482,-2.1582 c 0.157,-0.3566 0.373,-0.6668 0.642,-0.9263 0.268,-0.2606 0.583,-0.4682 0.938,-0.6183 0.359,-0.1489 0.738,-0.2217 1.144,-0.2217 0.4,0 0.778,0.073 1.135,0.2217 0.355,0.1501 0.665,0.3577 0.932,0.6183 0.268,0.2595 0.48,0.5697 0.636,0.9263 0.157,0.3559 0.237,0.7395 0.237,1.1536 0,0.4253 -0.08,0.8168 -0.237,1.1739 -0.156,0.3587 -0.368,0.6718 -0.636,0.933 -0.267,0.2657 -0.577,0.471 -0.932,0.6166 -0.357,0.1466 -0.735,0.2211 -1.135,0.2211 -0.406,0 -0.785,-0.075 -1.144,-0.2211 -0.355,-0.1456 -0.67,-0.3509 -0.938,-0.6166 -0.269,-0.2612 -0.485,-0.5743 -0.642,-0.933 -0.156,-0.3571 -0.233,-0.7486 -0.233,-1.1739 0,-0.4141 0.08,-0.7977 0.233,-1.1536"/></g></svg>