<svg viewBox="0 0 392 100" xmlns="http://www.w3.org/2000/svg"><g id="figure"><path d="m2 78.4c2.7-.5 15.5-2.1 16.9-2.2v-29c0-4.4 3.6-7.5 8.2-7.5 4.2 0 8.1 3.7 8.1 7.5l.2 26.9c5.5-.7 11.1-1.2 16.7-1.8v-24.4c0-13.1-5.3-23.2-19.4-23.2-7.8 0-11.5 2.2-14 4.3v-27h-16.7z"/><path d="m56 26.3 22 45.4-10.9 25.1c1.1.7 5.9 1.2 10.1 1.2 3.5 0 6.6-.3 7.1-.9l31.6-70.8h-17.6l-11.5 26.7-12.2-26.7z"/><path d="m157 29.3c-2.7-2.3-5.9-4.6-14.4-4.5-11.2.1-25.3 7.4-25.2 27.6 0 7.8 1.9 12.1 5.3 17.3 24.8 0 47.5 3 50.7 3v-70.7h-16.4zm.2 22.9c0 6.5-3.6 13-11.5 13-8.6 0-11.5-7.1-11.5-13.7s4.6-11.6 11-11.8c6.6-.2 12 4.6 12 12.5z"/><path d="m254.5 24.6c-21.7 0-28.2 18.6-28.2 28.3 0 12.5 8.3 23.1 17.4 25.8 3.5.2 7.3.3 10.8.3 3.7 0 7.1-.2 10.8-.3 9.1-2.7 17.4-13.3 17.4-25.8 0-9.7-6.5-28.3-28.2-28.3zm0 15c7.1 0 11.4 6.3 11.4 13.3 0 7.6-5.4 12.4-11.4 12.4s-11.4-4.8-11.4-12.4c0-7 4.3-13.3 11.4-13.3z"/><path d="m202.9 26.1h-16v48.3c5.5.7 11.2 1.5 16.7 1.9v-12.3c0-7.9-1.5-17.6 7.3-21.5 3.2-1.1 6.7-.8 10-.3v-12.8c0-.8-.2-3.4-.4-3.5-.3-.2-1.7-.3-3.4-.3-6.5 0-10.3 2-14.1 5.9z"/><path d="m285.1 26.3 16 51c1.2 0 17.2-1.3 18.4-1.5l9.9-30.1 9.3 27.9c5.6-.2 20.2-2.3 20.7-2.5l14-44.8h-16.5l-8.6 29.4-9.7-29.4h-17.7l-9.9 29.4-8.6-29.4z"/><path d="m381 30.3c0-2.2 1.9-3.9 4.1-3.9s3.9 1.7 3.9 3.9-1.7 4.1-3.9 4.1-4.1-1.9-4.1-4.1zm-1 0c0 2.8 2.3 5.1 5.1 5.1 2.9 0 4.9-2.3 4.9-5.1s-2-4.9-4.9-4.9c-2.8 0-5.1 2.1-5.1 4.9z"/><path d="m384.3 30.1v-1.4c.5-.1 1.7-.2 1.7.7 0 .5-.5.7-1.1.7zm1.8.5v-.1c.6-.2 1.1-.7 1.1-1.2-.1-1.3-1-1.5-2.2-1.5-.8 0-1.3.1-1.8.2v4.9h1.1v-2h.5c.6 0 .9.3 1 .8.2.6.3 1 .5 1.2h1.1c-.1-.2-.1-.4-.3-1.2-.1-.7-.5-.9-1-1.1z"/></g></svg>