<svg viewBox="0 0 470 100" xmlns="http://www.w3.org/2000/svg"><g id="figure"><path d="m2 4.7v6.9h5.6c6.9 0 7.6 1.6 7.6 6.4v65.5c0 4.8-.7 6.4-7.6 6.4h-5.6v6.8h49.2v-6.8h-5.6c-6.9 0-7.7-1.6-7.7-6.4v-65.5c0-4.8.8-6.4 7.7-6.4h5.6v-6.9z"/><path d="m55.5 4.7v6.9c5.9 0 10.8 2.3 14 6.9v55.4c0 11.9-2.2 15.5-14 16v6.8h36.7v-6.9c-11.9-.5-14-4-14-15.9v-47.6h.2l59.7 71.7h8.3v-70.5c0-11.9 2.2-15.4 14-15.9v-6.9h-36.7v6.9c11.9.5 14 4.1 14 15.9v35.8l-49.3-58.6z"/><path d="m165.1 4.7-2.1 34.7h6.3c1.5-11.6 8-28.4 21.5-28.4 4.1 0 4.8 1 4.8 4.6v67.9c0 4.8-.7 6.4-7.6 6.4h-7.1v6.8h52.2v-6.8h-7.1c-6.9 0-7.7-1.6-7.7-6.4v-67.9c0-3.6.8-4.6 4.9-4.6 13.5 0 20 16.8 21.5 28.4h6.3l-2.1-34.7z"/><path d="m255.4 4.7v6.9h5.6c6.9 0 7.6 1.6 7.6 6.4v65.5c0 4.8-.7 6.5-7.6 6.4h-5.6v6.8h86.4l1.4-33.9-6.4-.5c-5.3 18.6-13 27.5-31.3 27.5-13.1 0-14.2-1.3-14.2-8.3v-29.1h1.5c10.8 0 18.2 7.8 18.6 19.5h7.2l-.4-44.8h-6.7c-1.3 11.1-7.3 18.4-17.7 18.4h-2.4v-24.9c0-7.3 2-9 11.8-9 20.4 0 26.7 7.9 32.2 26.5h6.4l-.9-33.4z"/><path d="m348.1 4.7v6.9c5.4.5 6.9.9 9.8 5l27.3 38.8-21.8 26.8c-3.8 4.7-9.1 7.2-15.3 7.7v6.8h41.8v-6.8h-3.5c-7.1 0-10.5-2.7-10.5-6.4s1.1-5.4 14-21.6l14.3 20.6c1.5 2.2 2.3 3.3 2.3 4.7 0 1.7-1.6 2.7-6.2 2.7h-2.9v6.8h45.8v-6.8c-6.4-.3-8.7-1.8-13.3-8.3l-25.7-36.7 17.6-22.1c7-8.7 11.4-10.9 18.2-11.2v-6.9h-39.4v6.9c8.2 0 12.7 2 12.7 6.5 0 1.9-1.4 5.4-13.8 19.6l-13.5-19.2c-1.3-1.7-1.8-2.9-1.8-3.8 0-1.9 1.2-3 7.1-3.1h1.8v-6.9z"/><path d="m455.8 2c-6.6 0-11.8 5.1-11.8 12 0 7 5.2 12.1 11.8 12.1s12.2-5.1 12.2-12.1c0-6.9-5.6-12-12.2-12zm0 2c5.5 0 10.2 4.3 10.2 10 0 5.8-4.7 10.1-10.2 10.1s-9.8-4.3-9.8-10.1c0-5.7 4.3-10 9.8-10zm-4.6 3.1v13.9h2.1v-6h2.4l3.7 6h2.3l-3.9-6.1c2-.3 3.6-1.3 3.6-3.8 0-2.7-1.6-4-4.9-4zm2.1 1.8h2.8c1.5 0 3.1.3 3.1 2 0 2.1-1.6 2.3-3.4 2.3h-2.5z"/></g></svg>