<svg viewBox="0 0 396 100" xmlns="http://www.w3.org/2000/svg"><g id="figure"><path d="m21.6 69.7h12.2v-39.5h-12.2z"/><path d="m56.2 48.3h-6.1v-7.4h6c2.2 0 4.8.6 4.8 3.8 0 2.3-1.8 3.6-4.7 3.6zm13.3-13.8c-2.9-2.9-7.2-4.3-12.9-4.3h-18.7v39.5h12.2v-11.5h3.3l7.6 11.4h14.1l-9.4-13.7c4.7-2.4 7.3-6.6 7.3-12.1 0-3.9-1.2-7-3.6-9.4z"/><path d="m95.6 59.3c-5 0-8.8-4-8.8-9.4 0-5.3 3.8-9.2 8.7-9.2 5 0 8.8 4 8.8 9.4 0 5.3-3.7 9.3-8.7 9.3zm-21.3-9.3c0 11.5 9.3 20.5 21.1 20.5 11.9 0 21.3-9 21.3-20.6 0-11.4-9.3-20.4-21.1-20.4-11.9 0-21.3 9-21.3 20.5z"/><path d="m144.6 48.5-14.3-18.3h-11v39.5h12.1v-19.1l14.9 19.1h10.4v-39.5h-12.1z"/><path d="m181.5 44-8.5-13.8h-12.4v39.5h12v-19.6l8.3 12.7h1.2l8.3-12.7v19.6h12.1v-39.5h-12.4z"/><path d="m229.2 53h-5.9l3-7.5zm-8.5-23.1-16.7 39.7h12.8l2.7-6.8h13.4l2.7 6.8h13.1l-16.8-39.7z"/><path d="m262 41.5c0-1.4 2.2-1.6 2.9-1.6 3.3 0 6.9 1.3 10.1 3.6l.7.5 6.2-8.8-.6-.5c-4.4-3.5-9.6-5.2-16.1-5.2-9.3 0-15.5 5.2-15.5 13.1 0 8.5 7.1 10.9 14.9 12.7 5.3 1.3 5.8 2 5.8 2.9 0 1.5-2.2 1.7-3.5 1.7-4.1 0-8-1.5-11.7-4.3l-.7-.5-6.9 8.2.6.6c4.7 4.2 11.2 6.5 18.3 6.5 9.8 0 16.1-5.2 16.1-13.3 0-8.2-7.1-10.9-14.7-12.6-5.5-1.2-5.9-1.9-5.9-2.9z"/><path d="m282.8 41.1h11.3v28.6h12.2v-28.6h11.3v-10.9h-34.8z"/><path d="m332.5 54.8h18.1v-10h-18.1v-4h20v-10.6h-32.1v39.5h32.4v-10.7h-20.3z"/><path d="m374.7 48.3h-6.1v-7.4h6c2.2 0 4.8.6 4.8 3.8 0 2.3-1.8 3.6-4.7 3.6zm9.6 7.7c4.7-2.4 7.3-6.6 7.3-12.1 0-3.9-1.2-7-3.6-9.4-2.9-2.9-7.2-4.3-12.9-4.3h-18.7v39.5h12.2v-11.5h3.3l7.6 11.4h14.1z"/><path d="m42.7 98h-30.1v-3.8h30.1z"/><path d="m12.6 2h30.1v3.8h-30.1z"/><path d="m2.4 8.1h50.6v4.9h-50.6z"/><path d="m2.4 15.2h50.6v4.9h-50.6z"/><path d="m2.4 22.4h50.6v4.9h-50.6z"/><path d="m53 77.7h-50.6v-4.9h50.6z"/><path d="m53 84.8h-50.6v-4.9h50.6z"/><path d="m53.6 91.9h-50.6v-4.9h50.6z"/><path d="m122.3 93.6c1.2 1 2.6 1.5 4 1.5.9 0 1.4-.3 1.4-.9s-.4-.8-2.1-1.2c-2.6-.6-4.7-1.3-4.7-3.8 0-2.4 1.8-4.1 4.8-4.1 2.1 0 3.8.6 5.1 1.6l-1.7 2.4c-1.1-.8-2.4-1.2-3.5-1.2-.8 0-1.2.3-1.2.9 0 .5.4.8 2.2 1.2 2.8.6 4.6 1.5 4.6 4 0 2.4-2 3.9-5 3.9-2.2 0-4.3-.7-5.8-2.1z"/><path d="m134.9 88.4h-3.7v-3h10.9v3h-3.7v9.4h-3.4z"/><path d="m142.5 85.4h5.9c1.9 0 3.2.5 4 1.3.7.7 1.1 1.7 1.1 3.2 0 1.6-1 2.8-2.5 3.5l3 4.3h-3.9l-2.5-3.8h-1.5v3.8h-3.4zm5.7 5.9c1.2 0 1.8-.6 1.8-1.5 0-1-.7-1.5-1.9-1.5h-2.3v3z"/><path d="m154.6 85.4h10v2.9h-6.6v1.9h5.9v2.7h-5.9v2h6.7v2.9h-10.1z"/><path d="m165.7 85.4h3.2l5.1 6.5v-6.5h3.4v12.4h-3l-5.3-6.8v6.8h-3.4z"/><path d="m184.8 85.1c2.2 0 3.7.7 5 1.8l-2 2.4c-.9-.7-1.8-1.2-3-1.2-1.8 0-3.2 1.5-3.2 3.5s1.4 3.4 3.4 3.4c.9 0 1.5-.2 2-.5v-1.5h-2.4v-2.5h5.7v5.6c-1.3 1.1-3.1 1.9-5.4 1.9-3.9 0-6.7-2.7-6.7-6.4s2.8-6.5 6.7-6.5z"/><path d="m194.3 88.4h-3.7v-3h10.9v3h-3.7v9.4h-3.4z"/><path d="m202.2 85.4h3.4v4.6h4.4v-4.6h3.4v12.4h-3.4v-4.7h-4.4v4.7h-3.4z"/><path d="m224.9 85.4h3.6l3 4.8 3-4.8h3.6v12.4h-3.4v-7.1l-3.2 4.9h-.1l-3.2-4.8v7.1h-3.4z"/><path d="m239.4 85.4h3.5v6.9c0 1.8.9 2.6 2.3 2.6s2.3-.8 2.3-2.5v-7h3.5v6.9c0 4-2.3 5.8-5.8 5.8s-5.7-1.8-5.7-5.7z"/><path d="m252.3 85.4h3.4v9.4h6v3h-9.4z"/><path d="m262.7 88.4h-3.7v-3h10.9v3h-3.7v9.4h-3.4z"/><path d="m270.7 85.4h3.4v12.4h-3.4z"/><path d="m275.7 85.4h5.3c3.1 0 5.1 1.6 5.1 4.5s-2.2 4.4-5.3 4.4h-1.7v3.5h-3.4zm5.1 6.2c1.2 0 2-.7 2-1.7s-.8-1.6-2-1.6h-1.6v3.3z"/><path d="m286.9 85.4h3.4v9.4h6v3h-9.4z"/><path d="m297.2 85.4h3.4v12.4h-3.4z"/><path d="m302.2 85.4h10v2.9h-6.6v1.9h5.9v2.7h-5.9v2h6.7v2.9h-10.1z"/><path d="m313.4 85.4h4.8c4.4 0 7 2.5 7 6.1s-2.6 6.3-7 6.3h-4.7zm3.4 3v6.3h1.4c2.1 0 3.4-1.1 3.4-3.1s-1.4-3.2-3.4-3.2z"/></g></svg>