<svg viewBox="0 0 107 100" xmlns="http://www.w3.org/2000/svg"><clipPath id="a"><path d="m200 95v101h690v-101z"/><path d="m200 206.5v102h690v-102z"/><path d="m200 319v102h690v-102z"/><path d="m200 536v-102h690v102z"/><path d="m200 648.5v-102h690v102z"/><path d="m200 760v-101h690v101z"/></clipPath><g id="figure" transform="scale(.1)"><path d="m20 20v960h924v-960zm40 40h844v880h-844z"/><path d="m92 95v665h334.6l-237.6-332 233.2-333z"/><path clip-path="url(#a)" d="m460.9 95-233.2 333 237.6 332h422l-237.6-332 233.2-333z"/><path d="m138 783.7v44.2l27.3-44.1h55.6l-43.7 59.7 44.6 62.3h-56.9l-26.9-45.1v45.1h-46.3v-122.1z"/><path d="m324.3 783.7v35.3h-53.3v14.9h53.3v28.1h-53.3v12.4h53.3v31.4h-100.3v-122.1z"/><path d="m541.1 783.7v35.3h-32.2v86.7h-46.7v-86.7h-54.7v86.6h-46.8v-86.6h-32.1v-35.3z"/><path d="m590.9 783.7v90.7h44.6v31.4h-90.3v-122.1z"/><path d="m740.6 783.7v34.9h-53.3v14.6h53.3v28.1h-53.3v13.1h53.3v31.4h-100.1v-122.1z"/><path d="m748.5 905.8h46.5v-41.2l28.2 41.2h54.2l-38.1-51.5c26.5-1.9 33.2-21.8 33-35.8-.5-30.4-23.9-34.8-35.3-34.8h-88.5zm59.5-93.8c8.2 0 16.5 1.6 16.5 10.8 0 10.1-7.7 13.3-16.5 13.2h-13v-24z"/><path d="m1009.8 21c-22.2 0-40.2 18-40.2 40.2s18 40.2 40.2 40.2 40.2-18 40.2-40.2-18-40.2-40.2-40.2zm0 6.6c18.6 0 33.6 15 33.6 33.6s-15 33.6-33.6 33.6-33.6-15-33.6-33.6 15-33.6 33.6-33.6zm-15.2 11.6v45h6.5v-21h8l11.1 21h8l-10.8-20.8c6.6-.8 11.4-4 11.5-11.4 0-4.2-.1-12.8-13.7-12.8zm6.5 6.1h12c6.4 0 9.4.7 9.4 6.1 0 4.3-3 5.5-9.6 5.5h-11.8z"/></g></svg>