<svg viewBox="0 0 635 100" xmlns="http://www.w3.org/2000/svg" xmlns:xlink="http://www.w3.org/1999/xlink"><g id="figure"><path d="m37.5 62.2 22.3 36.8h44.3l-34.8-49.9 34.8-48.1h-44.3l-22.3 36.2v-36.2h-36.5v98h36.5z"/><path id="a" d="m145 74.2h42.7v24.8h-79.9v-98h79.9v28h-42.7v11.8h42.7v22.8h-42.7z"/><path d="m336.3 29h26.1v-28h-170.5v28h26.1v70h37.2v-70h43.9v70h37.2z"/><path d="m403.7 1v73.2h35.1v24.8h-72.4v-98z"/><use xlink:href="#a" transform="translate(335.5)"/><path d="m603.5 57.4c35.6 0 35.6-56.4 0-56.4-24.1 0-48.4 0-72.5 0v98h37.2c0-11.2 0-22.3 0-33.5 7.6 11.2 15.2 22.3 22.8 33.5h43.2c-10.2-13.9-20.5-27.7-30.7-41.6zm-19.6-11.3c-5.3 0-10.5 0-15.6 0 0-6.6 0-13.3 0-19.9h15.6c11.3 0 11 19.9 0 19.9z"/></g></svg>