<svg viewBox="0 0 94 100" xmlns="http://www.w3.org/2000/svg" xmlns:xlink="http://www.w3.org/1999/xlink"><defs><path id="a" d="m23.6 2-21.6 96h68.4l21.6-96z"/><mask id="m"><use xlink:href="#a" fill="#fff"/><path id="b" d="m66.9 32.1c-3 0-4.5 1.5-4.5 4.4 0 1.4.4 2.6 1.6 3.4l2.9 1.9c.7.5 1.2.8 1.2 1.4v.7c0 .7-.3 1.2-1.2 1.2-.7 0-1.2-.6-1.2-1.3v-.9c0-.4-.4-.8-.8-.8h-1.8c-.4 0-.7.4-.7.8v.8c0 3 2 4.1 4.4 4.1 3.1 0 4.7-1.3 4.7-4.5 0-2-.4-2.6-2-3.7l-2.6-1.6c-.8-.5-1.1-.7-1.2-1.4v-.5c-.1-.8.5-1.2 1.2-1.2.6 0 1.2.4 1.2 1.3v.5c0 .4.4.8.8.8h1.7c.4 0 .8-.4.8-.8v-.5c0-2.7-1.9-4.1-4.5-4.1zm-35.5.5c-.4 0-.8.4-.8.8v13.2c0 .4.4.8.8.8h6.1c.4 0 .7-.3.7-.7v-1.5c0-.4-.3-.8-.7-.8h-3.5v-11c0-.4-.4-.8-.8-.8zm8.7 0c-.4 0-.7.3-.7.7v13.4c0 .4.4.7.8.7h6.6c.4 0 .8-.3.8-.7v-1.5c0-.4-.4-.8-.8-.8h-4.1v-3.3h3.6c.4 0 .7-.3.7-.7v-1.4c0-.4-.3-.7-.7-.7h-3.6v-2.7h4c.4 0 .7-.4.7-.8v-1.5c0-.4-.3-.7-.7-.7zm9.1 0c-.4 0-.7.4-.7.8v1.3c0 .4.3.8.7.8h1.9v11.1c0 .4.4.8.8.8h1.8c.4 0 .8-.4.8-.8v-11.1h1.8c.4 0 .8-.4.8-.8v-1.3c0-.4-.4-.8-.8-.8zm9.6.1c-.4 0-.7.4-.7.8v4c0 .4.3.8.7.8h1.9c.4 0 .7-.4.7-.8v-4c0-.4-.3-.8-.7-.8zm8.1 18.1c-3 0-4.5 1.5-4.5 4.4 0 1.4.4 2.5 1.6 3.3l2.9 1.9c.7.5 1.2.9 1.2 1.5v.7c0 .7-.3 1.2-1.2 1.2-.7 0-1.2-.7-1.2-1.4v-.8c0-.4-.4-.8-.8-.8h-1.8c-.4 0-.8.4-.8.8v.9c0 3 2.1 4 4.5 4 3.1 0 4.7-1.4 4.7-4.5 0-2-.4-2.5-2-3.6l-2.7-1.7c-.8-.5-1.1-.8-1.1-1.4v-.5c0-.8.5-1.3 1.2-1.3.6 0 1.2.5 1.2 1.4v.5c0 .4.4.8.8.8h1.7c.4 0 .8-.4.8-.8v-.5c0-2.7-1.9-4.1-4.5-4.1zm-47.8.4c-.4 0-.8.4-.8.8v13.3c0 .4.4.8.8.8h5.3c1.6 0 3.1-1.2 3.1-2.8v-2.4c0-1.5-.7-2.3-2.1-2.6 1.4-.5 1.7-1.3 1.7-2.9v-1.4c0-1.5-1.3-2.8-2.9-2.8zm21.5 0c-.4 0-.8.4-.8.8v13.3c0 .4.4.8.8.8h1.8c.4 0 .8-.4.8-.8v-7.2l3.1 7.2c.2.4.3.8.8.8h2c.4 0 .9-.4.9-.8v-13.3c0-.4-.4-.8-.8-.8h-1.8c-.4 0-.8.4-.8.8v7.4l-3.1-7.4c-.2-.4-.4-.8-.9-.8zm12 0c-.4 0-.8.4-.8.8v13.3c0 .4.4.8.8.8h5.4c1.5 0 3-1.4 3-2.9v-9.3c0-1.5-1.5-2.7-3-2.7zm-20.8 0c-.4 0-.7.4-.8.8l-2.9 13.3c-.1.4.4.8.8.8h9.1c.7 0 .9-.5.8-.8l-2.8-13.3c-.1-.4-.4-.8-.8-.8zm-10.2 2.7h1.5c.5 0 .9.3.9.9v1.5c0 .7-.4.8-.9.8h-1.5zm33.5.1h1.5c.5 0 1 .4 1 .9v7.5c0 .5-.5 1-1 1h-1.5zm-21.6 1.1 1.6 8.3h-3.2zm-11.9 4.6h1.7c.5 0 .9.1.9.9v1.9c0 .7-.4.9-.9.9h-1.7z"/></mask></defs><g id="figure"><use xlink:href="#a" mask="url(#m)"/></g></svg>