<svg viewBox="0 0 208 100" xmlns="http://www.w3.org/2000/svg"><g><path d="m198.5 70.1v-3.2h-1.5v-.5h3.7v.5h-1.5v3.2zm2.9 0v-3.7h1.1l1.2 3 1.3-3h1v3.7h-.6v-3.1l-1.4 3.1h-.7l-1.2-3.1v3.1z"/><path d="m10.4 5.3 7.9 1.8v8.2l-3.1-.6v70s40.1-13.3 88.7-13.3 93.1 15.8 93.1 15.8v-15.7c1.5-.3 4.4-.7 9 2.7v23.8s-39.9-19.7-102.1-19.7-101.7 19.7-101.7 19.7v-9l2.7-2v-74.5l-2.9-1.5v-9z"/></g><g><path d="m195.5 2.9-24.4 7.2v8.2l2.9.4v50l-1.8-.7v7.5l21.8 7.3v-23.5l-7-2.3v15.1l-3.5-1.5v-25.4l3.4.5.3 4.5 7.6 1.5v-20.1l-7.6-.2v6.4l-3.7-.3v-21.9l3.5-.4v10.5l8.1-2zm-166.6 7.9c-9.1.2-8.6 7-8.6 7v54.3s-.2 6.4 10.5 5.5 11.3-9.5 11.3-9.5v-46.1c0-3.7-4.1-11.4-13.2-11.2zm133.8.3-12.8 3.3-.2 7.7 2.5-.4v42.4l-1.4.3v7.3l18.4 3.8v-21.6l-6-.6v12.6h-2v-44.7l1.5-.6zm-118.7 3.8-.1 7.5 2.7 1.2v42.7l-2.4.8v6.9l13.6-1.8v-7.5l-3.6.4v-20.9l9.1 26.9 8.6-1.6v-6.6l-2.2.6v-37l1.6.3v-6.1l-10.9-2.2v6.5l3.1 1.2v15.1l-9.6-24.1zm99.6 1-18.8 3.4v6.8l3.2-.8-6.2 36.5-1.6-.2v5.9l11 1.3v-5.7l-2.5-.7 1.6-7.4h6.4l1.6 8-3.3-.1v6.8l13.3 1.9v-7.1l-2.1-.8-5.6-39.7 3-.9zm-113 3.8c1.6 0 3 1.7 3 2.6v44.4s.1 1.8-2.5 2.2-3.1-3.4-3.1-3.4v-43.2c.1-1.5 1.3-2.6 2.6-2.6zm51.5.2c-1.9.1-8.7 2.8-8.6 10.9s3.2 9.9 3.2 9.9 9.1 10.2 10 12.2 2.4 8-1.4 8.7-5-5.1-5-5.1l-.1-5-5.9-.1v17.8l5.8-.4s0-2.2 1.5-2.3 2.9 1.8 5.9 1.6 8.4-2.7 7.8-10.7-2.6-10.2-2.6-10.2l-10.4-12.5s-2.4-5.3-.3-7.6 6 2 6.5 3.5.2 4.4.2 4.4h4.9v-13.7l-4.5-.6s-.3 1.6-1.6 1.7-.2-2.5-5.4-2.5zm27.4.8-13.4.4v6l2 .3v33.5h-1.3v6.7l13.5-.2s11.4-3.6 11.4-25.1-12.2-21.6-12.2-21.6zm-2.9 6.1s6.3 2 6.3 16.7-6.3 17.8-6.3 17.8zm27 10.2 2.4 11.3h-4.9z"/></g></svg>