<svg viewBox="0 0 557 100" xmlns="http://www.w3.org/2000/svg" xmlns:xlink="http://www.w3.org/1999/xlink"><g id="figure"><path d="m105 97.5h-7.3c-.6-.9-2.8-3.9-5.6-6.1-2.1-1.6-3-3.3-2-4.6.3-.4.9-.7 1.7-.7 1.8 0 4.3 1.2 6.6 3.2 2.6 2.3 4 3.7 6.6 8.2zm-2.4-40.8c-.7.1-1 0-2.6 0-6.3 0-17.2-12-23-24.6-.9-1.9-1.7-3.6-2.4-5.1-3.6-8-5.1-11.7-8.5-15.2-3-3-7.2-4.5-13.1-4.5-20.6 0-51 15.4-51 31.8 0 6.2 4.7 10.1 9.1 11.4 3.6 1.1 13.1 1.9 22.3 2.5 7.4.5 11.8 1 14.3 1.3 2.7.4 2.5 2.1 1.9 2.9-1.8 2.6-8.7 8.2-11.4 10.9-8.5 8.4-16.2 18.4-19.7 29.4h5.4c3-7.7 9.1-19.3 27.9-31.9 6.8-4.5 8.3-9 7-13.2-1.4-4.5-6.8-7-16.9-8-5.1-.5-20.9-2-24.2-2.5-3.1-.5-6.8-4.3-2.6-10.3 9-12.9 35.9-20.3 42.4-18.7 5.7 1.4 8.2 5.4 12 14.5 4.7 11.5 12.1 25 18.1 30-2.9 0-12-.1-15.5 3.1-3.4 3-3.2 7-2.5 9.7.8 3.3 2.4 7 3.2 8.1-13.9 0-25.9 8-31.7 19.2h7.3c5.2-7.7 14.2-13.3 24.4-13.1 1.3 0 2.6.1 3.9.1 2.1 0 3.4-1.4 3.4-3.1 0-1.5-4.4-6.7-5.5-12.8-.3-1.8 0-3.2.7-4.2 2.4-2.4 6.1-2.3 9.3-2.3 5 0 6.1.5 17.5 1.2 5 .3 4.9-3.2 4.9-3.5 0-2.5-2-3.3-4.4-3.1zm-14.3-47.7c3.1 2.7 1.8 8.5-.4 12.4-1 1.9-.8 3.2-.4 3.9.6 1 2.3 1.7 3.8 1.4 2.1-.4 4.5-3.2 5.6-10.4.6-4.2-.5-7.6-2.5-9.8-2.5-2.7-6.3-4.5-12.7-4.5-10 0-21.1 3.1-21.2 3.1l2.8.9c8.1 0 20.2-1.1 25 3z"/><path d="m147 55.5c-2.9-.6-3.6-1.2-3.1-3.5l.2-1.5c.8-4.3 2.3-4.5 7-4.5h28.3l3-11.5s-14.1-1.2-27.7-1.2c-15.4 0-21.8 4.6-24.6 16l-1.4 5.5c-2.6 10.6 2.5 11.5 12.8 13.4 2.2.4 15.3 3 18.4 3.6 2.5.5 2.5 2 2.1 3.8l-.9 3.7c-1.2 4.8-3.3 5.9-9.5 5.9h-30l-2.9 11.5s18 1.3 31.5 1.3c15.5 0 21.7-5 24.4-16.4l2.1-7.9c2.2-8.5.6-12.4-8.9-14.2-3.1-.6-20.8-4-20.8-4z"/><path d="m225.7 58.6c-1.3 5-4.1 7.6-9.6 7.6h-17.8l5.1-20.6h17.8c5.5 0 7.1 2.6 5.9 7.6zm16.1-8.6c2.4-9.7-2.3-16.2-14.1-16.2h-35.4l-15.7 63.7h14l4.8-19.4h21.4c11.8 0 19.7-6.7 22.1-16.4z"/><path id="i" d="m252.8 33.8-15.7 63.7h14l15.7-63.7z"/><path id="n" d="m318.9 33.8-10.3 41.7h-.3l-17.4-40.2c-.6-1.1-.5-1.5-3.6-1.5h-11.2l-15.6 63.7h14l10-41h.5l16.9 38.7c.8 1.8 1.3 2.3 3.8 2.3h11.7l15.6-63.7z"/><use transform="translate(66)" xlink:href="#n"/><g transform="translate(155.4)"><use xlink:href="#i"/><use xlink:href="#n"/></g><path d="m512.6 72.5 15.4.6-3.3 12.3-19.2.1c-5.5.1-7.2-2.5-5.9-7.5l6.1-24.7c1.3-5 4.1-7.6 9.6-7.6h28.8l3-11.7s-16-.7-32.4-.7c-11.8 0-20.1 7.9-22.5 17.7l-7.2 29.3c-2.4 9.8 1.9 17.7 13.7 17.7 15 0 33.7-1.1 33.7-1.1.2 0 2.3-.1 2.9-2.4l8.7-33.5h-28.8z"/><path d="m547.1 90.5h1c.9 0 1.8-.1 1.8-1.1s-.9-1-1.8-1h-1zm-1.5-3.3h3c1.9 0 2.8.8 2.8 2.3 0 1.3-.8 2-1.9 2.1l2 3.3h-1.5l-1.9-3.2h-1v3.2h-1.5zm8.2 3.9c0-3.1-2.5-5.6-5.6-5.6s-5.6 2.5-5.6 5.6 2.5 5.7 5.6 5.7 5.6-2.6 5.6-5.7zm1.2 0c0 3.7-3.1 6.8-6.8 6.8s-6.7-3.1-6.7-6.8 3-6.8 6.7-6.8 6.8 3.1 6.8 6.8z"/></g></svg>