<svg viewBox="0 0 251 100" xmlns="http://www.w3.org/2000/svg" xmlns:xlink="http://www.w3.org/1999/xlink"><defs><path id="a" d="m9.5 60.4c-4.1 0-7.5 4.3-7.5 9.6v18.4c0 5.3 3.4 9.6 7.5 9.6h232c4.1 0 7.5-4.3 7.5-9.6v-18.4c0-5.3-3.4-9.6-7.5-9.6z"/><path id="b" d="m9.3 62.4c-3 0-5.3 3.1-5.3 7.1v19.4c0 4 2.3 7.2 5.3 7.2h111.2c9.5-7.7 9.9-14.1 9.9-16.9s-.4-9.1-9.9-16.8z"/><mask id="ma"><use xlink:href="#a" fill="#fff"/><path d="m9.3 62.4h232.3c3 0 5.4 3.1 5.4 7.1v19.4c0 4-2.4 7.2-5.4 7.2h-232.3c-3 0-5.3-3.2-5.3-7.2v-19.4c0-4 2.3-7.1 5.3-7.1z"/></mask><mask id="mb"><use xlink:href="#b" fill="#fff"/><path d="m11.9 71.8v14.1h2.3v-4.1h14.7c2.3 0 2.8-1.2 2.8-2.9v-4.2c0-1.9-1-2.9-2.8-2.9zm17.4 4.4v1.2c0 1.5-.7 1.7-1.7 1.7h-13.4v-4.6h13.4c1 0 1.7.2 1.7 1.7z"/><path id="x2" d="m36.1 71.8c-1.8 0-2.7 1-2.7 2.9v8.1c0 1.7.4 2.9 2.7 2.9h14.3c2.3 0 2.7-1.2 2.7-2.9v-8.1c0-1.9-.9-2.9-2.7-2.9zm1.4 2.7h11.6c1 0 1.7.2 1.7 1.7v5.1c0 1.5-.7 1.7-1.7 1.7h-11.6c-1 0-1.8-.2-1.8-1.7v-5.1c0-1.5.8-1.7 1.8-1.7z"/><path d="m54.7 71.8v11c0 1.7.4 2.9 2.7 2.9h14.3c2.3 0 2.7-1.2 2.7-2.9v-11h-2.3v9.5c0 1.5-.7 1.7-1.7 1.7h-2.9c-1 0-1.8-.2-1.8-1.7v-9.5h-2.3v9.5c0 1.5-.7 1.7-1.7 1.7h-2.9c-1 0-1.8-.2-1.8-1.7v-9.5z"/><path d="m76 71.8v13.9h19.7v-2.7h-17.4v-2.9h17.4v-2.7h-17.4v-2.9h17.4v-2.7z"/><path d="m97.5 71.8v14.1h2.3v-4.1h12c2.7 0 2.6 3 2.7 4.1h2.5c0-3.1-.1-3.7-1.5-5 .3-.1 1.5-.8 1.5-2v-4.2c0-1.9-.9-2.9-2.7-2.9zm2.3 2.7h13.4c1 0 1.7.2 1.7 1.7v1.2c0 1.5-.7 1.7-1.7 1.7h-13.4z"/></mask></defs><g id="figure"><use xlink:href="#a" mask="url(#ma)"/><use xlink:href="#b" mask="url(#mb)"/><path d="m38.9 5.4h2.3v-2.9h-12.8l-6.4 27.8-6.8-27.8h-13.2v2.9h2.7v43.6h-2.7v3h10.1v-3h-3.2v-30.6l8 33.6h4.7l7.9-33.9v30.9h-3v3h14.7v-3h-2.3z"/><path id="x1" d="m52.9 18.9c1.6 0 2.4 1.3 2.4 11.7h-5.4c.2-10.4 1.1-11.7 3-11.7zm6.5 20.8v1.2c0 5.1-1.4 7.5-4.4 7.5-3.4 0-5.1-2.3-5.1-13.8v-.8h13.4c0-13.5-2.9-18.8-10.4-18.8s-12.3 7.6-12.3 19.5c0 11.8 4.6 18.2 12.5 18.2 6.8 0 10-3.9 9.8-12v-1z"/><path d="m87.6 49v-26c0-5.4-2.4-7.9-6.6-7.9-5.2 0-7.2 3.8-7.2 3.8v-3.8l-11 1.2v3h2.5v29.7h-2.6v3h13v-3h-1.7v-22.7c0-4 1-5.6 3-5.6 1.4 0 2 .8 2 3v25.3h-2v3h12.4v-3z"/><path d="m86.3 10.2h2.2v6.4h2.7l2.5-10.1.1-4.1h-7.5z"/><path d="m110.4 42.2c0-11.6-12.5-12.4-12.5-20.1 0-2.6 1.4-4 3.5-4 3.2 0 4.8 3.3 5 10h2.8v-11.1s-3.2-1.9-8-1.9c-5.8 0-10.5 3.3-10.5 10 0 11 12.1 12.5 12.1 20 0 3-1.3 4.4-3.6 4.4-3.5 0-5.3-3.1-5.5-10.7h-2.9v11.9s3.5 2 8.7 2c6.4 0 10.9-3.7 10.9-10.5z"/><path d="m142.2 49v-43.6h2.6v-2.9h-15.1v2.9h3.1v20.5h-9.7v-20.5h3.2v-2.9h-15.3v2.9h2.7v43.6h-2.7v3h15.3v-3h-3.2v-19.8h9.7v19.8h-3.1v3h15.1v-3z"/><use transform="translate(103.4)" xlink:href="#x1"/><path d="m189.3 24.7c0-6.8-3.1-9.6-9.7-9.6s-11.1 4.7-11.1 10.3v2.2h7.6v-5.2c0-3 .7-4 2.3-4s2.3 1 2.3 4.1v6c-10 3.4-13 5.9-13 14.4 0 6.6 2.6 9.8 7.1 9.8 3.8 0 5.6-2.7 6.6-4.3v3.6h9.7v-3h-1.8zm-8.6 6.9v11.2c0 3.3-.6 4.6-2.5 4.6-1.4 0-2.1-1.2-2.1-5.2 0-6.7.5-8.3 4.6-10.6z"/><path d="m202.7 49v-47l-11.3 1.2v2.9h2.7v42.9h-1.7v3h12.9v-3z"/><path d="m214.8 52.7c4.9 0 6.8-3.1 6.9-7.5l.1-5.5h-3.3v5.5c0 2.3-.3 3.1-1.4 3.1-1 0-1.3-.7-1.3-2.8v-26.3h6v-3.5h-5.9v-10.2h-3.4l-5.1 10.7h-3v2.9h2.7v24.3c0 6.4 1.1 9.3 7.7 9.3z"/><path d="m246.5 49v-26c0-5.4-2.4-7.9-6.7-7.9-5.2 0-7.2 3.8-7.2 3.8v-16.9l-10.9 1.2v2.9h2.5v42.9h-1.7v3h12v-3h-1.7v-22.7c0-4 1.2-5.6 3.1-5.6 1.4 0 1.9.8 1.9 3v25.3h-1.9v3h13.1v-3z"/><path d="m147.4 85.7v-11.2h9v-2.7h-19.8v2.7h8.5v11.2z"/><use xlink:href="#x2" transform="translate(124.5)" /><use xlink:href="#x2" transform="translate(146)" /><path d="m200.5 71.8v13.9h19.8v-2.7h-17.5v-11.2z"/><path d="m224.7 71.8c-2.1 0-2.7.6-2.7 2.9v2.5c0 2.3.6 3.1 2.7 3.1h12.8c1.6 0 1.9.2 1.9 1.4s-.3 1.3-1.9 1.3h-15.5v2.7h16.8c2.1 0 2.8-.6 2.8-2.9v-2.3c0-2.3-.7-3.1-2.8-3.1h-12.7c-1.6 0-2-.2-2-1.4 0-1.3.4-1.5 2-1.5h15.5v-2.7z"/></g></svg>