<svg viewBox="0 0 340 100" xmlns="http://www.w3.org/2000/svg" xmlns:xlink="http://www.w3.org/1999/xlink"><g id="figure"><path d="m52.3 2c-17.8 0-35 1.2-50.3 4.8v27.4c3.1-.9 6.4-1.4 10.4-1.4 8.5-.1 12.4 6.1 20.9 6.2 8.7.1 12.7-6.3 21.4-6.2 8.5.1 12.4 6.1 20.9 6.2 8.7.1 12.8-6.3 21.5-6.2 8.5.1 12.4 6.4 20.9 6.5s12.4-6.2 20.9-6.1c8 .1 11.7 5.6 19.7 5.8 9.5.2 13-6.6 22.8-6.1-2.8-17-59.5-30.9-129.1-30.9z"/><path d="m2 46.6c3.1-.8 6.4-1.2 10.4-1.2 8.5-.1 12.4 5.4 20.9 5.5 8.7.1 12.7-5.6 21.4-5.5 8.5.1 12.4 5.4 20.9 5.5 8.7.1 12.8-5.6 21.5-5.5 8.5.1 12.4 5.8 20.9 5.8s12.4-5.6 20.9-5.5c8 .1 11.7 5 19.7 5.2 7.8.2 19.1-5.9 22-11.4-8.9-.1-13.1 5.7-22 5.5-8-.2-11.7-5.1-19.7-5.2-8.5-.1-12.4 5.5-20.9 5.5s-12.4-5.7-20.9-5.8c-8.7-.1-12.8 5.6-21.5 5.5-8.5-.1-12.4-5.4-20.9-5.5-8.7-.1-12.7 5.6-21.4 5.5-8.5-.1-12.4-5.6-20.9-5.5-4 0-7.3.4-10.4 1.2z"/><path d="m138.9 57.8c2.9 0 4.9.8 7.6.5 2.6-.3 5.4-2.5 5.4-2.9 0-.7-3.2-1.6-4.1-2-3.2-1.4-4.5-1.6-8.9-1.6-8.5-.1-12.4 5.5-20.9 5.5s-12.4-5.7-20.9-5.8c-8.7-.1-12.8 5.6-21.5 5.5-8.5-.1-12.4-5.4-20.9-5.5-8.7-.1-12.7 5.6-21.4 5.5-8.5-.1-12.4-5.6-20.9-5.5-4 0-7.3.4-10.4 1.2v5.9c3.1-.8 6.4-1.2 10.4-1.2 8.5-.1 12.4 5.4 20.9 5.5 8.7.1 12.7-5.6 21.4-5.5 8.5.1 12.4 5.4 20.9 5.5 8.7.1 12.8-5.6 21.5-5.5 9 .1 12.2 5.8 20.9 5.8 9.2 0 10.9-5.4 20.9-5.4z"/><path id="a" d="m14.9 95.5-3.2-12.8-3 12.8c0 .1 0 .1-.1.1h-2.2c-.1 0-.2 0-.2-.1l-4-15.5c0-.1 0-.1.1-.1h1.9c.1 0 .1 0 .1.1l3.3 13.2 3.1-13.2c0-.1 0-.1.1-.1h2.1c.1 0 .2 0 .2.1l3.1 13.4 3.3-13.3c0-.1.1-.2.2-.2h1.6c.1 0 .1.1.1.2l-4 15.4c0 .1 0 .1-.1.1h-2.3c-.1 0-.1 0-.1-.1z"/><path d="m34.5 89.1-2.6-7.7-2.7 7.7zm2.4 6.5c-.1 0-.2 0-.2-.1l-1.6-4.6h-6.5l-1.5 4.6c0 .1-.1.1-.2.1h-1.8c-.1 0-.1 0-.1-.1l5.6-15.5c0-.1 0-.1.1-.1h2.5c.1 0 .1 0 .1.1l5.5 15.5c0 .1 0 .1-.1.1z"/><path d="m46.4 95.5.1-7.7-.1-6.3h-4.4c-.1 0-.1 0-.1-.1v-1.4c0-.1 0-.1.1-.1h11c.1 0 .1 0 .1.1v1.4c0 .1 0 .1-.1.1h-4.4l-.1 6.3.1 7.7c0 .1 0 .1-.1.1h-2c-.1 0-.1 0-.1-.1z"/><path id="b" d="m58.7 95.5.1-8-.1-7.5c0-.1 0-.1.1-.1h9.7c.1 0 .1 0 .1.1v1.4c0 .1 0 .1-.1.1h-7.7v4.9h7.1c.1 0 .1 0 .1.1v1.4c0 .1 0 .1-.1.1h-7.1v5.9h7.9c.1 0 .1 0 .1.1v1.5c0 .1 0 .1-.1.1h-9.9s-.1 0-.1-.1z"/><path id="c" d="m76.6 81.5v6h3.8c2.1 0 3.5-.9 3.5-3 0-2-1.3-3-3.5-3zm5.7 11.4-2.4-3.7h-3.3v6.3c0 .1 0 .1-.1.1h-1.9c-.1 0-.1 0-.1-.1l.1-8-.1-7.5c0-.1 0-.1.1-.1h5.6c3.6 0 5.8 1.5 5.8 4.6 0 2.5-1.5 4-3.9 4.5l4.2 6.5s0 .1-.1.1h-2.1c-.1 0-.2 0-.2-.1z"/><use transform="translate(17.4)" xlink:href="#c"/><path id="d" d="m121.5 87.8c0-4-2-6.5-5.4-6.5s-5.3 2.5-5.3 6.5 2 6.4 5.3 6.4 5.4-2.4 5.4-6.4zm-12.9 0c0-5 2.9-8.2 7.5-8.2 4.7 0 7.6 3.1 7.6 8.2 0 4.9-3.1 8.1-7.6 8.1s-7.5-3.2-7.5-8.1z"/><use transform="translate(126.2)" xlink:href="#a"/><use transform="translate(94.4)" xlink:href="#b"/><use transform="translate(94.4)" xlink:href="#c"/><path d="m216.1 98h-1.4v-19.7h1.4z"/><path d="m315.5 43.3c.6 0 .9-.7.6-1.2l-21.8-39.4c-.3-.5-1.1-.5-1.4 0l-21.5 39.4c-.3.5 0 1.2.6 1.2 3.5.3 41.7.1 43.5 0"/><path d="m293.3 46.3c-1.5.2-2.7.4-3.6.7-.4.1-.5.2-.5.4v16h9.1v-17.2c0-.2-2.9-.2-5 .1z"/><path d="m251.5 95.5c0 .1 0 .1-.1.1h-1.8c-.1 0-.1 0-.1-.1l.1-7.9-.1-7.6c0-.1.1-.1.2-.1h2.1c.1 0 .2 0 .2.1l8.4 13.2-.1-1.5v-11.7c0-.1 0-.1.1-.1h1.7c.1 0 .1 0 .1.1l-.1 7.6.1 7.9c0 .1 0 .1-.1.1h-2.3c-.1 0-.2 0-.2-.1l-8.2-12.8.1 1.4"/><use transform="translate(159.4)" xlink:href="#d"/><path d="m299.3 95.6c-.1 0-.1 0-.1-.1v-7.5h-8.3v7.5c0 .1 0 .1-.1.1h-1.9c-.1 0-.1 0-.1-.1l.1-7.7-.1-7.8c0-.1 0-.1.1-.1h1.9c.1 0 .1 0 .1.1v6.3h8.3v-6.3c0-.1 0-.1.1-.1h2c.1 0 .1 0 .1.1l-.1 7.8.1 7.7c0 .1 0 .1-.1.1z"/><use transform="translate(233)" xlink:href="#c"/><path d="m330.3 93.9c2.8 0 5.5-1.8 5.5-6.2 0-4.2-2.5-6.1-5.6-6.1l-3.2-.1s-.1 4.6-.1 6c0 1.5.1 6.4.1 6.4zm-5.5 1.6.1-8-.1-7.5c0-.1.1-.1.2-.1h5c4.5 0 8 2.6 8 7.8 0 5.4-3.7 7.9-7.9 7.9h-5.2c-.1 0-.1 0-.1-.1z"/></g></svg>