<svg viewBox="0 0 485 100" xmlns="http://www.w3.org/2000/svg" xmlns:xlink="http://www.w3.org/1999/xlink"><defs><path id="a" d="m12.3 67.1c-5.7 0-10.3 4.6-10.3 10.3v20.6h470.7c5.7 0 10.3-4.6 10.3-10.3v-20.6z"/><mask id="m"><use xlink:href="#a" fill="#fff"/><path d="m45.6 75.3c1.5 0 2.3.5 2.3 1.4s-.8 1.4-2.3 1.4h-18.2v3.6h18.2c1.5 0 2.3.5 2.3 1.4s-.8 1.4-2.3 1.4h-18.1l-.1 5.1c0 .9-.8 1.4-2.3 1.4s-2.3-.5-2.3-1.4v-12.9c0-.7.6-1.4 2.3-1.4"/><path d="m97 89.6c0 .9-.8 1.4-2.3 1.4s-2.3-.5-2.3-1.4v-12.9c0-.9.8-1.4 2.3-1.4s2.3.5 2.3 1.4"/><path d="m166.8 78.1h-8v11.5c0 .9-.7 1.4-2.3 1.4-1.5 0-2.3-.5-2.3-1.4v-11.5h-8c-1.5 0-2.3-.5-2.3-1.4s.8-1.4 2.3-1.4h20.5c1.5 0 2.3.5 2.3 1.4s-.8 1.4-2.3 1.4z"/><path d="m239.4 89.7c0 .9-1.2 1.7-2.3 1.7-.7 0-1.7-.7-2.2-1l-16.3-10.1v9.3c0 .9-.5 1.4-2 1.4s-2.3-.8-2.3-1.7v-12.7c0-1.4 1.1-1.7 1.8-1.7.9 0 1.5.6 2.5 1.2l16.2 10.2v-9.6c0-.9.8-1.4 2.3-1.4 1.6 0 2.3.5 2.3 1.4"/><path d="m309.3 91h-20.5c-.6 0-2.2-.1-2.3-1.4v-12.9c.1-1.3 1.3-1.4 2.3-1.4h20.5c1.5 0 2.3.5 2.3 1.4s-.8 1.4-2.3 1.4h-18.2v3.6h18.2c1.5 0 2.3.5 2.3 1.4s-.8 1.4-2.3 1.4h-18.2v3.7h18.2c1.5 0 2.3.5 2.3 1.4s-.8 1.4-2.3 1.4z"/><path d="m382 89.6c0 1.2-1.3 1.4-2.3 1.4h-20.5c-1.5 0-2.3-.5-2.3-1.4s.8-1.4 2.3-1.4h18.2v-3.6h-18.4c-1.8 0-2.1-.8-2.1-1.7v-6.2c0-1.3 1.7-1.4 2.3-1.4h20.5c1.5 0 2.3.5 2.3 1.4s-.8 1.4-2.3 1.4h-18.2v3.7h18.4c2.2 0 2.1 1.2 2.1 2.1"/><path d="m453.5 89.6c0 1.2-1.3 1.4-2.3 1.4h-20.5c-1.5 0-2.3-.5-2.3-1.4s.8-1.4 2.3-1.4h18.2v-3.6h-18.4c-1.8 0-2.1-.8-2.1-1.7v-6.2c0-1.3 1.7-1.4 2.3-1.4h20.5c1.5 0 2.3.5 2.3 1.4s-.8 1.4-2.3 1.4h-18.2v3.7h18.4c2.2 0 2.1 1.2 2.1 2.1"/></mask></defs><g><use xlink:href="#a" mask="url(#m)"/><path d="m43.6 2c-13 0-22.5 4.8-28.2 17.1l-11.5 24.6c-.7 1.5-1.7 4.1-1.7 6.5 0 8.8 8.5 10 15.4 10h44.1c13.8 0 22.9-5 28.5-17l10.7-23.1c1.2-2.9 2.4-5.7 2.4-8 0-9.4-9.7-10.1-15.6-10.1zm41.5 9.8c3.4 2.8.4 8.1-1.6 11-3.6 5.2-10.3 11.3-19.1 16.8-8.8 5.6-18 9.6-25.7 11.5s-13.9 1.5-16.4-.6c-3.4-2.8-.6-8.1 1.5-11 3.6-5.2 10.3-11.4 19.1-16.9s18.1-9.5 25.8-11.4c3.2-.8 12.5-2.7 16.4.6z"/><path d="m218.1 7.9h-31.3l-4.1 8.8h-58.9c-5.4 0-18 1.3-23.7 13.2l-7.8 16.7c-.8 1.8-1.2 3.5-1.2 5.1 0 7.6 8.8 8.5 13 8.5h46.3l9-13.6-3.5 1.3s-4.7 1.7-11.2 1.8h-18.3c-2.1 0-4.4 0-3.4-2.5 2.6-5.5 5.2-11.1 7.8-16.6 1.3-2.6 4.2-3.3 6.9-3.4h40.1l-9.6 20.6c-.9 1.8-1.7 5.5.3 8.3 1.8 2.6 5.8 4.1 13.1 4.1h36.1l6.5-9.9c-.8 2.6-.5 5.2 1.4 7.3 2.3 2 6 2.6 11.3 2.6h22.7c4.7 0 8-1 10.4-2.6l-.4 2.6h32.2c-.7-1.1-1.6-2.1-2.1-3.3 0-2.6 8.5-20 10-23.1 1.3-3 2.5-6 2.5-8.8-.1-7.3-8.9-8.2-15.3-8.3h-83zm61.1 19.3c.7 0 2.2-.1 1.9.9s-2 2-4.5 2h-27.3c-3.1 0-6.9.1-10.7 1.5s-7.7 4.2-10.2 9.1c0 .1-2.2 4.4-3.2 6.8l-2.4.8s-3.9 1.5-8.8 1.5h-12.3c-1.5 0-3.2-.2-2.8-1.1l10.2-21.5zm-3.8 13.3-1.9 4.2c-2.3 4.8-3.3 5.1-6 5.1h-8.2c-1.6 0-4.4.4-3.4-1.8l2.3-4.8c1.2-2.7 4.1-2.7 5.6-2.7z"/><path d="m318.8 16.7c1.5 3.9 1.8 5.1 0 9l-10.9 23.5c-1.9 4-3.5 6.5-4.5 7.4-.7.6-2 1.5-2.8 1.9l1.2 1.7 36.3.1-.8-1.8c-.7-1.5-.9-2.5-.8-3.2s.8-2.5 2-5.1c3.1-6.7 6.3-13.6 9.4-20.3.9-2 1.7-2.7 5.2-2.7h10.4c1.6 0 3-.1 2.1 1.7-3.1 6.7-6.3 13.5-9.4 20.2-1.3 2.7-2.6 4.8-3.8 6.3-2.1 1.6-4.3 3.2-6.4 4.8h41l-1.4-1.7c-1-1.2-1.3-3 .6-7.1l8.3-17.9c1.2-2.6 2-4.9 2-7 0-8.9-10.1-9.8-15-9.8h-22.9c-3 0-5.5.8-7.7 2.5l.7-2.5z"/><path d="m423.1 16.7c-6.3 0-11.1 1-14.6 3s-6.3 5.4-8.5 10.1l-7.6 16.3c-.5 1.1-2 4.5-2 7.3 0 5.9 6.6 6.8 13.6 6.8h57.5l9-13.3-3.4 1.1c-2.6.8-4.6 1.5-5.8 1.6-1.3.1-3.8.2-7.5.2h-27.5c-1.9 0-4.3-.1-3.5-2.4l1.5-3.1h47.7l6.2-13.4c1.1-2.4 1.9-4.5 1.9-6.3 0-7.4-8-7.9-13.6-7.9zm12.5 10.5h11.7c2.2 0 1.9.6 1.5 1.6l-2.3 4.9h-17.3l1.8-3.8c.8-1.6 1.5-2.7 4.6-2.7z"/><path d="m469.6 53.6v.8h2.1v6.4h1.1v-6.4h2.2v-.8zm6.5 0-.5 7.2h.9l.4-6.3 2 6.2h.8l2-6.2.4 6.3h.9l-.5-7.2h-1.4l-1.8 5.9-1.8-5.9z"/></g></svg>