<svg viewBox="0 0 530 100" xmlns="http://www.w3.org/2000/svg"><g id="figure"><path id="p1" d="m284.2 2-41.4 96h-5.3l41.4-96z"/><path d="m40.5 22.7c-14.7 0-26.7 12-26.7 26.7s12 26.6 26.7 26.6 26.7-11.9 26.7-26.6-12-26.7-26.7-26.7zm0 8.3c10.2 0 18.4 8.2 18.4 18.4s-8.2 18.4-18.4 18.4-18.4-8.2-18.4-18.4 8.2-18.4 18.4-18.4z"/><path d="m99.3 21.6c.5-.1 1.1-.2 1.6.2.7.6 1.3 1.4 2 2.1 7.8 8 15.6 16.1 23.4 24.1 3.4 3.5 6.8 7.1 10.3 10.5.1-1.5 0-3.1 0-4.6v-29.9c2.7-.1 5.5-.1 8.2 0v54.5c-.6-.1-1.2-.1-1.6-.5-.6-.5-1.2-1.1-1.7-1.7-10.4-10.7-20.8-21.3-31.2-32-.9-1-1.7-1.9-2.7-2.8-.1 2.2-.1 4.5-.1 6.7 0 9.3.1 18.5 0 27.8-2.7 0-5.5 0-8.2 0 0-16.9 0-33.9 0-50.8z"/><path d="m184 26h38.3v7.5h-30.8v12.8h19.6v7.5h-19.6v12.7h30.8v7.5h-38.3z"/><path d="m304 26 11.8 27.6 1.6 3.6 1.5-3.3 6.5-15.3 2.1-4.8h1.1l2 4.6 6.6 15.3 1.5 3.4 1.5-3.2 9.8-23 2.2-4.9h8.5l-3.1 7.3-18.4 42.9h-.8l-2.2-4.9-6-13.9-2.1-4.8-1.9 4.2-8.4 19.4h-.8l-1.6-3.6-19-44.2-.9-2.4z"/><path d="m410.2 21.7h-1.2l-24.5 54.3h9.4l4.8-10.2h21.9l4.9 10.2h9.4zm7.3 36.7h-15.6l7.7-17z"/><path d="m475.5 26 15.8 25.8 15.7-25.8h9.2l-28.9 48h-9.3l8.7-14.4-20.3-33.6z"/></g></svg>