<svg viewBox="0 0 372 100" xmlns="http://www.w3.org/2000/svg"><g><path d="m2 98v-77.5h17v6.2c5.4-5.2 10.1-7 16.9-7 15.1 0 27.4 13 27.4 30.5 0 16.8-12 29.5-28.1 29.5-7 0-11.1-1.8-16.2-6.6v24.9zm17.3-47.8c0 6.4 3.8 14 13.1 14 7.8 0 14-5.8 14-14s-6.3-14.5-13.8-14.5c-8.6 0-13.3 7.1-13.3 14.5z"/><path d="m108.3 61.4c-3.1 3.1-6.8 4.7-11.1 4.7-4.7 0-11.2-2.6-13.2-10.7h43.2c0-4-.1-6.7-.4-10.1-.6-8.8-8-26.2-29.1-26.2-16.5 0-29.7 13.5-29.7 31.1s12.8 30.6 30.5 30.6c15.9 0 24.4-10.8 27.2-19.4m-40.6-18.1c2.2-7.2 8.5-8.8 12-8.8 4.8 0 11 2.6 13.7 8.8z"/><path d="m176.5 74.4c-4.4 4.4-8.7 5.9-15.3 5.9-16.5 0-29.1-12.7-29.1-29.9 0-16.3 12.4-30.3 28.4-30.3 7.1 0 11.8 2.4 16 6.3v-24.4h16.7v77.1h-16.7zm-26.7-23.8c0 6.8 4.3 14 13.3 14 7.6 0 13.8-5.3 13.8-14.2s-6.5-14.5-13.4-14.5c-9.7 0-13.7 8.2-13.7 14.7z"/><path d="m245.2 74.5c-4.4 4.4-8.5 6.1-15.2 6.1-16.6 0-29.7-13.2-29.7-30.7 0-17 12.7-31 29.3-31 6.5 0 11 1.7 15.6 6v-4.6l16.4.2v58.6h-16.4zm-27.3-24.7c0 6.3 3.7 14.2 12.9 14.2 8.1 0 14.3-5.9 14.3-14.1s-6.2-14.6-14-14.6c-8.9 0-13.2 7.3-13.2 14.5z"/><path d="m269.9 2h16.7v77.1h-16.7z"/><path d="m293.8 50.2c0 17.2 13.3 30.8 30.3 30.8 16.1 0 29.9-13.9 29.9-31.3 0-17.1-13.4-30.6-30.1-30.6-16.4 0-30.1 13.7-30.1 31.1zm43.2 0c0 6.3-3.9 13.6-12.9 13.6-7.5 0-13.5-5.8-13.5-13.6 0-8.1 6-14.1 13.3-14.1 8.5 0 13.1 6.8 13.1 14.1z"/><path d="m370 22.9c0 4.9-4 8.9-8.9 8.9-5 0-8.8-4-8.8-8.9 0-5 3.9-8.9 8.8-8.9 4.8 0 8.9 3.9 8.9 8.9zm-16.3 0c0 4.1 3.3 7.4 7.4 7.4s7.4-3.3 7.4-7.4c0-4.2-3.4-7.4-7.4-7.4-4.1 0-7.4 3.3-7.4 7.4zm3.5 4.9v-9.5h3.3c2.2 0 4 .4 4.1 2.7 0 1.4-.9 2.4-2.7 2.5.5.2 1 .4 2.2 2.4l1.2 1.9h-1.9l-.9-1.5c-1.3-2.3-1.8-2.5-2.8-2.5h-.9v4zm1.6-5.4h1.8c1.3 0 2.4-.1 2.4-1.4s-1.2-1.4-2.4-1.4h-1.8z"/></g></svg>