<svg viewBox="0 0 72 100" xmlns="http://www.w3.org/2000/svg"><g><path d="m65.8 13c2-3.5.8-8-2.7-10-1.2-.7-2.4-1-3.6-1-2.5 0-5 1.3-6.4 3.7l-6.9 12c-14.8-4.7-31.4 1.4-39.5 15.4-3.1 5.4-4.5 11.2-4.5 17 0 3.8.7 7.6 1.9 11.1l12.8-22.2c1.5-2.6 7.7-8.8 13.4-10.3s11.6-.7 16.7 2.2c10.5 6.1 14.2 19.6 8.1 30.1s-19.6 14.2-30.1 8.1l7.3-12.7c3.5 2 8.1.8 10.1-2.7s.8-8.1-2.7-10.1-8-.8-10 2.7l-23.5 40.7c-2 3.5-.8 8 2.7 10 1.2.7 2.4 1 3.7 1 2.5 0 4.9-1.4 6.3-3.7l7-12c14.8 4.7 31.3-1.4 39.4-15.4 3-5.3 4.5-11 4.5-16.7 0-9.4-3.8-18.6-10.9-25.1z"/></g></svg>