<svg viewBox="0 0 331 100" xmlns="http://www.w3.org/2000/svg"><g><path d="m58.8 25.1 6.9-12.1c2-3.5.8-8-2.7-10-1.2-.7-2.4-1-3.6-1-2.5 0-5 1.3-6.4 3.7l-7 12c-14.8-4.7-31.4 1.4-39.5 15.4-3 5.2-4.5 11-4.5 16.6 0 3.9.7 7.8 2 11.5l12.7-22.2c1.7-2.9 5.2-8 13.4-10.3 5.7-1.6 11.7-.8 16.8 2.2 10.5 6.1 14.1 19.7 8 30.2s-19.5 14.1-30.1 8l7.3-12.7c3.5 2 8.1.8 10.1-2.7s.8-8-2.7-10-8-.9-10 2.6l-23.5 40.7c-2 3.5-.8 8 2.7 10 1.2.7 2.4 1 3.7 1 2.6 0 5.1-1.3 6.4-3.7l6.9-12c14.8 4.7 31.4-1.3 39.5-15.3 3-5.3 4.5-11 4.5-16.7 0-9.5-3.8-18.6-10.9-25.2z"/></g><g><path d="m89.8 33.8v32.4h6.7v-10.6h4.7c6.6 0 12.1-3.3 12.1-10.9s-5.5-10.9-12.1-10.9zm6.7 5.9h4.5c3.2 0 5.4 1.4 5.4 5s-2.1 5-5.4 5h-4.5z"/><path d="m123 33.8v32.4h22.2v-5.9h-15.5v-7.5h13v-5.7h-13v-7.4h14.8v-5.9z"/><path d="m156.3 33.8v32.4h21.3v-5.9h-14.6v-26.5z"/><path d="m201.9 33.4c-9.3 0-16.8 7-16.8 16.6s7.5 16.6 16.8 16.6 16.8-7 16.8-16.6-7.5-16.6-16.8-16.6zm0 5.9c5.9 0 9.9 4.6 9.9 10.7s-4 10.7-9.9 10.7-9.9-4.6-9.9-10.7 4-10.7 9.9-10.7z"/><path d="m225.8 33.8v5.9h9.2v26.5h6.7v-26.5h9.3v-5.9z"/><path d="m274.9 33.4c-9.3 0-16.8 7-16.8 16.6s7.5 16.6 16.8 16.6 16.7-7 16.7-16.6-7.4-16.6-16.7-16.6zm0 5.9c5.9 0 9.9 4.6 9.9 10.7s-4 10.7-9.9 10.7-9.9-4.6-9.9-10.7 4-10.7 9.9-10.7z"/><path d="m302.3 33.5v32.7h6.3v-13.6c0-2.3-.5-5.9-.5-5.9s2.3 3 3.9 4.5l16.3 15.3h.7v-32.7h-6.3v13.6c0 2.2.4 5.9.4 5.9s-2.2-2.9-3.8-4.4l-16.3-15.4z"/></g></svg>