<svg viewBox="0 0 562 100" xmlns="http://www.w3.org/2000/svg" xmlns:xlink="http://www.w3.org/1999/xlink"><g><path d="m47.8 2.2h-45.7v53h13.7v-20h31.2c7.1 0 12.5-3 12.5-10.4v-12.9c0-5.8-3.9-9.7-11.7-9.7zm-7.1 10.6c2.6 0 5.8-.3 5.8 3.3v4.7c0 3.8-2.8 3.6-5.8 3.6h-24.9v-11.6z"/><path d="m90.4 2.2v22h35.4v-22h14v53h-14v-19.7h-35.4v19.7h-13.8v-53z"/><path d="m153.6 2.2h15.4l14.5 24.3 14.4-24.3h15.4l-31.2 53h-15.2l8.9-15.6z"/><path d="m240.2 2.2h42.7l-6.1 10.7h-38.1v9.6h31c12.6 0 13.8 4.5 13.8 16.7 0 13.1-2.5 16-14.6 16h-47.7l6.1-11.6h43.6v-9.2h-30c-12.5 0-14.8-2.8-14.7-16.5.1-15.2 4.1-15.7 14-15.7z"/><path d="m305.7 2.2h13.9v53h-13.9z"/><path d="m354.3 2.2h39.6l-6.2 10.9h-33v30.5h39.4l-6.5 11.6h-33.3c-9.3 0-13.5-2.3-13.5-12.9v-27.2c0-12.5 5.7-12.9 13.5-12.9z"/><path d="m435.6 2.2h14.7l31.2 53h-48.6l6.8-11.7h19.5l-16.3-27.5-23.1 39.2h-15.2z"/><path d="m494.6 2.2h13.9v41.4h38.4v11.6h-52.3z"/><path d="m554.1 2c3.2 0 5.9 2.6 5.9 5.9 0 3.2-2.6 5.9-5.9 5.9s-5.9-2.7-5.9-5.9c0-3.3 2.7-5.9 5.9-5.9zm0 1c-2.7 0-4.9 2.2-4.9 4.9s2.2 4.9 4.9 4.9 4.9-2.2 4.9-4.9-2.2-4.9-4.9-4.9zm-2.6 8.1v-6.3h2.2c.7 0 1.3.1 1.6.2.8.3 1.1.9 1.1 1.5 0 .5-.2.9-.5 1.2s-.8.6-1.3.6c.2.1.4.2.5.3.3.2.6.7 1 1.3l.7 1.2h-1.2l-.6-1c-.4-.8-.8-1.2-1.1-1.4-.2-.1-.4-.3-.8-.3h-.6v2.7zm1-3.5h1.2c.6 0 1.1-.1 1.3-.3s.3-.4.3-.7c0-.4-.2-.7-.6-.8-.2-.1-.5-.1-1-.1h-1.2z"/><path d="m2 81.3h13.2v3.9h-8.6v2.9h7.7v3.7h-7.7v5.9h-4.6z"/><path d="m23.4 81.3h4.6v16.4h-4.6z"/><path id="a" d="m37.2 81.4v16.3h4.6v-4.9h1.9l3.3 4.9h5.3l-3.8-5.6v-.3c1.8-.6 3.3-2.7 3.3-4.9 0-2.8-.7-5.5-9.1-5.5zm4.7 3.6c2 0 5.4-.3 5.4 2.3 0 2.5-3.6 2.3-5.4 2.3z"/><path id="b" d="m72.9 83.3-1.9 2.9c-2.1-1.7-6.8-3-6.8-.6 0 4 9.2 1 9.2 7.1 0 4.8-4.7 5.3-6.7 5.3-2.7 0-5.3-1-7.7-2.6l2.3-2.8c2.9 2.1 8.7 3.1 8.6.7-.1-2.8-10-1.1-10-6.9 0-3.1 2.6-5.3 6.3-5.3 2.4 0 5.1.9 6.7 2.2z"/><path d="m80.4 81.4h14.4v4h-4.8v12.3h-4.5v-12.3h-5.1z"/><path d="m115.9 81.3h13.2v3.9h-8.6v2.9h7.7v3.7h-7.7v5.9h-4.6z"/><path id="c" d="m145.8 81.1c-5 0-9 4.1-9 8.7s3.5 8.2 9.1 8.2 8.5-4.1 8.5-8.2c0-4.7-3.6-8.7-8.6-8.7zm0 4.1c2.2 0 4 2.2 4 4.6 0 2.3-1.8 4.2-4 4.2-2.3 0-4.4-1.5-4.4-4.2 0-2.6 1.8-4.6 4.4-4.6z"/><use transform="matrix(1 0 0 1 125.9 0)" xlink:href="#a"/><path d="m198.9 81.3h13.2v3.9h-8.6v2.9h7.7v3.7h-7.7v5.9h-4.6z"/><path d="m220.5 81.3h4.6v16.4h-4.6z"/><path d="m233.4 81.4h14.4v4h-4.9v12.3h-4.5v-12.3h-5z"/><path id="d" d="m256 81.4h4.3l6.7 8.7v-8.7h4.4v16.3h-4l-6.9-8.9v8.9h-4.5z"/><path d="m280.7 81.4h13.1v3.8h-8.7v2.6h7.9v3.5h-7.9v2.6h8.9v3.8h-13.3z"/><use transform="matrix(1 0 0 1 242.2 0)" xlink:href="#b"/><use transform="matrix(1 0 0 1 263.6 0)" xlink:href="#b"/><use transform="matrix(1 0 0 1 297.8 0)" xlink:href="#b"/><use transform="matrix(1 0 0 1 242.4 0)" xlink:href="#c"/><path d="m405.5 81.3h4.5v12.5h7.9v3.9h-12.4z"/><path d="m425.6 81.3h4.6l.1 11c0 2.4 5.7 2.4 5.7 0v-11h4.7v11c0 5.2-6 5.7-7.5 5.7-1.6 0-7.6-.5-7.6-5.7z"/><path d="m448.7 81.4h14.4v4h-4.9v12.3h-4.5v-12.3h-5z"/><path d="m471.5 81.3h4.6v16.4h-4.6z"/><use transform="matrix(1 0 0 1 348 0)" xlink:href="#c"/><use transform="matrix(1 0 0 1 255.1 0)" xlink:href="#d"/><use transform="matrix(1 0 0 1 475.5 0)" xlink:href="#b"/></g></svg>