<svg viewBox="0 0 583 100" xmlns="http://www.w3.org/2000/svg"><g><path d="m31.3 43.4h51.5c3.6 0 6.6-2.9 6.9-6.4.3-3.7-2.5-6.7-6.2-6.7h-61.7c2.6-7.6 5.3-15.1 7.9-22.7.7-1.9 2.5-3.3 4.6-3.3h54.3c18.5 0 32.4 15.2 30.7 33.5-1.6 17.5-17 31.5-34.7 31.5-11.3 0-22.7 0-34 0-3.2 0-5.8 2-6.8 4.8-2.1 5.9-4.1 11.9-6.2 17.8-.7 1.9-2.5 3.3-4.6 3.3h-24.9c-4.4 0-7.1-4.2-5.7-8.3 3.5-10.1 7-20.2 10.5-30.3 2.7-7.7 10.2-13.2 18.4-13.2z"/><path d="m282.7 30.3c2.3-6.7 4.7-13.5 7-20.2 1-2.9-.9-5.8-4-5.8h-27.5c-2.1 0-3.9 1.4-4.6 3.3-2.6 7.6-5.2 15.1-7.8 22.7z"/><path d="m305.5 95.2h-73.5c-4.4 0-7.2-4.2-5.8-8.3 5-14.5 10.1-29 15.1-43.5h36.9c-1.7 5-3.5 9.9-5.2 14.9-1.4 4.1 1.4 8.3 5.8 8.3h31.4c4.4 0 7.2 4.2 5.8 8.3-2 5.7-3.9 11.3-5.9 17-.7 1.9-2.5 3.3-4.6 3.3z"/><path d="m390.4 6.1c-6.8 8.1-13.5 16.1-20.3 24.2h54.7c-.7-7.4-1.3-14.8-2-22.2-.2-2.2-2.1-3.8-4.3-3.8h-24.3c-1.5 0-2.9.7-3.8 1.8z"/><path d="m397.8 95.2h27.7c2.8 0 5.1-2.5 4.8-5.3-1.4-15.5-2.9-31-4.3-46.5h-66.8c-11.5 13.8-23.1 27.5-34.6 41.3-3.5 4.2-1.1 10.5 4.5 10.5h22c1.4 0 2.9-.7 3.8-1.8 6.1-7.2 12-14.5 18.1-21.7 1.3-1.6 3.3-2.4 5.4-2.4h7.4c3.2 0 5.9 2.2 6.2 5.4.5 5.5 1 11.1 1.5 16.6.2 2.2 2.1 3.9 4.3 3.9z"/><path d="m509.6 95.2c-1.9-7.2-3.9-14.3-5.8-21.5-.7-2.7-3-4.4-5.8-4.4-2.7 0-5.4 0-8.1 0-3.2 0-5.8 2-6.8 4.8-2.1 5.9-4.1 11.9-6.2 17.8-.7 1.9-2.5 3.3-4.6 3.3h-25c-4.4 0-7.1-4.2-5.7-8.3 3.5-10.1 7-20.2 10.5-30.3 2.7-7.7 10.1-13.2 18.4-13.2h51.5c3.6 0 6.7-2.9 7-6.4.3-3.7-2.5-6.7-6.2-6.7h-61.7c2.6-7.6 5.3-15.1 7.9-22.7.6-1.9 2.5-3.3 4.6-3.3h54.3c18.5 0 32.4 15.2 30.7 33.5-1.2 12.4-9.2 22.9-20 28.1 2.6 9.7 5.3 19.4 7.9 29.3z"/><path d="m567.3 84.6v-4.4h3.6c1.5 0 3.1.3 3.1 2.2s-1.6 2.2-3.1 2.2zm8.3-2.4c-.1-2.6-2.2-3.1-4.4-3.1h-5.4v12.4h1.5v-5.7h2.8c1.2 1.9 2.3 3.8 3.5 5.7h1.8c-1.3-1.9-2.4-3.8-3.7-5.7 2.4-.1 4-1 3.9-3.6z"/><path d="m569.9 94.9c-5.3 0-9.4-4.4-9.4-9.6s4.1-9.6 9.4-9.6 9.3 4.4 9.3 9.6-4 9.6-9.3 9.6zm0-20.7c-6.2 0-11.2 5-11.2 11.1s5 11.1 11.2 11.1c6.1 0 11.1-5 11.1-11.1s-5-11.1-11.1-11.1z"/></g><g><path d="m220.9 30.3c-7-18-24-28.3-43.6-28.3-18.9 0-36.1 11.7-44.7 28.3z"/><path d="m223.9 43.4c2.2 28.6-21.5 54.6-49.9 54.6-29.3-.1-52-25.2-46-54.6z"/></g></svg>