<svg viewBox="0 0 353 100" xmlns="http://www.w3.org/2000/svg"><g transform="scale(.1)"><g><path d="m526.8 193.5-506.8 773.2h150.9l435.7-645.2c51-75.5 164.5-165.4 293.1-164.4 232.8 1.9 347.1 184.4 347.1 318.5 0 167.6-126.7 357.1-333.9 360.1-72.3 1.1-171.5-10.8-225.2-50.7l-79.2 114.1c72.9 51.4 168.6 70.4 265.2 70.4 290.7-.1 498.9-212.3 499-474.8.1-224-178.1-474.7-475.2-474.7-201.9 0-331.6 113.9-370.7 173.5z"/><path d="m900.8 211.3c-44.3.1-156.1 13.7-222.8 113.2l-439.4 655.5h109.8l388.8-581.8c38.4-57.4 92.5-96.3 166-96.3 105.4 0 190.8 85.6 190.8 191.6s-85.2 192.1-190.6 192.1c-42.7 0-82.5-14.1-114.3-38l-51.7 79.2c47.1 33.5 104.6 52.9 166 52.2 128.7-1.6 279.7-104.8 279.8-284.5 0-132-103.8-283.5-282.4-283.2z"/><path d="m1864.2 902.8v-191.3l-141.9 185.4c-6.6 8.7-15.8 12.2-28.6 12.2s-21.9-3.5-28.5-12.2l-141.5-185.4v191.3h-58.9v-270.6c0-18.3 15-26.5 35-26.5 15.3 0 23.3 3.9 30.7 13.7l164.1 217.8 165.3-217.8c7.1-9.4 14.1-13.7 29-13.7 19.6 0 35 8.2 35 26.5v270.6z"/><path d="m2208.5 740c0-15.3-6.8-19.2-26-19.2h-105.7c-32 0-42.2 3.5-42.2 36.7v12.3h173.9zm-173.9 70.8v10.6c0 28.1 8.5 33.2 38.4 33.2h75v48.2h-75c-73.3 0-101.9-26.4-101.9-87.8v-53.3c0-67.3 23.4-89.9 104.8-89.9h111.8c66 0 84.3 26.4 84.3 63.1v75.9z"/><path d="m2378.9 801.4c0 40.5 11.1 47.7 56.3 47.7h70.8c40 0 49.4-9 49.4-47.3v-75.4h-120.6c-44.7 0-55.9 6.3-55.9 47.7zm48.2 101.5c-86.5 0-111.6-26.5-111.6-99.8v-31.1c0-73.7 25.1-100.2 111.6-100.2h128.3v-74.6h63.5v205.9c0 73.3-25.1 99.8-111.2 99.8z"/><path d="m2667.9 677.8h64.8v225h-64.8zm21.7-19.2c-15.8 0-21.7-6-21.7-19.6v-24.8c0-13.6 5.9-19.1 21.7-19.1h20.9c16.2 0 22.2 5.5 22.2 19.1v24.8c0 13.6-6 19.6-22.2 19.6z"/><path d="m2891.6 902.8c-85.7 0-110.8-26.4-110.8-99.7v-31.1c0-73.7 25.1-100.2 110.8-100.2h167.1v54.6h-165c-40.1 0-49.4 9.7-49.4 47.7v27.3c0 36.7 9.7 47.7 49.4 47.7h165.4v53.7z"/></g><g><path d="m855.3 341.2v93.1h-92.9v102.6h92.8v93.1h105.3v-93.1h92.8v-102.6h-92.8v-93.1z"/><path d="m1741.9 355.2c0-31.5-11.1-40.5-46-40.5h-166.3v99.4h167.1c34.1 0 45.2-8.1 45.2-38.8zm-212.3 111.3v83.1h-64.8v-290.7h232.8c83.1 0 109.1 25.2 109.1 93.8v25.2c0 69.5-24.3 88.6-109.1 88.6z"/><path d="m2080.7 420.9c0-39.2-10.3-47.8-56.3-47.8h-60.1c-45.2 0-55.8 8.6-55.8 47.8v27.3c0 38.4 10.6 47.7 55.8 47.7h60.1c46 0 56.3-9.3 56.3-47.7zm-124.9 128.7c-85.7 0-110.8-26.4-110.8-99.7v-31.2c0-73.7 25.1-100.1 110.8-100.1h77.1c86.1 0 111.3 26.4 111.3 100.6v30.7c0 73.3-25.2 99.7-111.3 99.7z"/><path d="m2463.8 488.2c0 45.6-13.2 61.4-78 61.4h-198.6v-49.9h190.5c17 0 23-4.6 23-20.4v-7.7c0-17.1-6-19.2-21.3-19.2h-129.6c-52.4 0-62.2-20.4-62.2-60.9v-17.5c0-40.1 15-55.4 64.4-55.4h87.8v48.2h-72.5c-12.4 0-17.5 3.7-17.5 15.7v10.7c0 12.8 5.1 16.6 16.2 16.6h125.3c59.3 0 72.5 17.9 72.5 66.5z"/><path d="m2516.6 549.6v-179.4h-32.4v-51.6h32.4v-65.2h64.8v65.2h72.9v51.6h-72.9v179.4z"/><path d="m2794.5 549.6c-85.7 0-110.8-26.4-110.8-99.7v-131.3h63.9v129.6c0 39.2 13.2 47.3 52 47.3h66.5c41.4 0 52-8.1 52-47.3v-129.6h63v131.3c0 73.3-25.1 99.7-111.6 99.7z"/><path d="m3030.1 549.6v-133.8c0-69 30.3-97.2 108.3-97.2h41.3v51.6h-39.6c-35.4 0-46.5 9.3-46.5 46v133.4z"/><path d="m3446.5 386.8c0-15.3-6.8-19.2-26-19.2h-105.7c-32 0-42.2 3.5-42.2 36.7v12.3h173.9zm-173.9 70.8v10.6c0 28.1 8.5 33.2 38.4 33.2h75v48.2h-75c-73.3 0-101.9-26.4-101.9-87.8v-53.3c0-67.3 23.4-89.9 104.8-89.9h111.8c66 0 84.3 26.4 84.3 63.1v75.9z"/><path d="m3152.3 673.7c7.7 0 11.9-1.6 11.9-10.3 0-8.2-8.7-8.4-15.4-8.4h-17v18.7zm24.3 39.4h-16.4l-15.4-28.3h-13v28.3h-14.4v-69.1h34.6c15.9 0 26.9 3 26.8 21.3 0 12.8-6.5 17.9-18.8 18.7z"/><path d="m3144.8 614a64.2 64.2 0 0 0 -64.2 64.2 64.2 64.2 0 0 0 64.2 64.2 64.2 64.2 0 0 0 64.2-64.2 64.2 64.2 0 0 0 -64.2-64.2zm0 12a52.2 52.2 0 0 1 52.2 52.2 52.2 52.2 0 0 1 -52.2 52.2 52.2 52.2 0 0 1 -52.2-52.2 52.2 52.2 0 0 1 52.2-52.2z"/></g></g></svg>