<svg viewBox="0 0 262 100" xmlns="http://www.w3.org/2000/svg" xmlns:xlink="http://www.w3.org/1999/xlink"><g transform="matrix(.43 0 0 .43 2 2)"><g><path d="m270.7.6h-12c-.7 0-1.3.6-1.3 1.3v33c0 .7.6 1.2 1.3 1.2h5.8c.7 0 1.3-.5 1.3-1.2v-11.3h4.9c6.3 0 11.4-5.2 11.4-11.6.1-6.3-5-11.4-11.4-11.4zm3.1 11.4c0 2-1.6 3.6-3.6 3.6h-4.4v-7h4.4c2 0 3.6 1.5 3.6 3.4z"/><path id="a" d="m303.6.2c-10 0-18.2 8.2-18.2 18.2 0 10.3 7.9 18.3 18.2 18.3s18.3-8 18.3-18.3c0-10.1-8.3-18.2-18.3-18.2zm0 8.5c5.3 0 9.6 4.3 9.6 9.7 0 5.3-4.3 9.6-9.6 9.6s-9.5-4.3-9.5-9.6 4.2-9.7 9.5-9.7z"/><path d="m365.4.6h-5.9c-.6 0-1.2.4-1.3 1l-4 16.1-7.4-16.9c-.1-.4-.5-.8-1.1-.8h-1c-.4 0-.9.4-1 .8l-7.4 16.9-4.2-16.2c-.1-.6-.6-1-1.3-1h-5.8c-1.1 0-1.3.6-1.3 1.5l9.4 33.4c.1.6.6 1 1.2 1h1c.4 0 1-.3 1.1-.7l8.9-19.8 8.8 19.8c.3.4.7.7 1.1.7h.9c.6 0 1.2-.4 1.3-1l9.4-33.4c.2-1.2-.6-1.4-1.4-1.4z"/><path id="b" d="m393.2.6h-20.6c-.7 0-1.2.6-1.2 1.3v32.9c0 .7.5 1.3 1.2 1.3h20.6c.7 0 1.3-.6 1.3-1.3v-5.4c0-.7-.6-1.3-1.3-1.3h-13.4v-6h10.9c.7 0 1.3-.5 1.3-1.2v-5.5c0-.7-.6-1.2-1.3-1.2h-10.9v-5.6h13.4c.7 0 1.3-.6 1.3-1.3v-5.4c0-.7-.6-1.3-1.3-1.3z"/><path d="m427.9 11.7c0-6.1-5-11.1-11.3-11.1h-14.9c-.7 0-1.2.6-1.2 1.3v32.9c0 .7.5 1.3 1.2 1.3h6c.7 0 1.3-.6 1.3-1.3v-12.2h2.9l6.5 12.9c.1.3.6.6 1.2.6h6.5c1.3 0 1.6-.9 1.2-1.8l-6.6-12.3c4.4-2 7.2-5.9 7.2-10.3zm-8.5.2c0 2-1.5 3.6-3.4 3.6h-7v-7h7c1.9 0 3.4 1.5 3.4 3.4z"/><path d="m463.1.6h-6c-.7 0-1.3.6-1.3 1.3v12.1h-13.6v-12.1c0-.7-.5-1.3-1.2-1.3h-5.9c-.8 0-1.4.6-1.4 1.3v33c0 .7.5 1.2 1.2 1.2h6.1c.7 0 1.2-.6 1.2-1.3v-12.7h13.6v12.7c0 .7.9 1.3 1.6 1.3h5.7c.7 0 1.2-.6 1.2-1.3v-32.9c0-.7-.5-1.3-1.2-1.3z"/><use transform="matrix(1 0 0 1 184.3 0)" xlink:href="#a"/><path d="m538.6.6h-6.1c-.7 0-1.3.6-1.3 1.3v20.1c0 3.4-2.4 5.8-5.7 5.8s-5.8-2.5-5.8-5.8v-20.1c0-.7-.6-1.3-1.3-1.3h-6.1c-.7 0-1.3.6-1.3 1.3v20.5c0 7.8 6.5 14.2 14.5 14.2s14.6-6.3 14.6-14v-20.7c-.1-.7-.8-1.3-1.5-1.3z"/><path d="m558.9 14.3c-3.7-1.4-5.1-2.9-5.1-4.6 0-1.1 1.3-2.1 2.7-2.1 2.6 0 5.5 2 6.3 2.5 1.1.8 2.1.3 2.8-.4l2.6-3.7c.3-.4.4-1.6-.5-2-2-1.4-6-3.8-10.8-3.8-8.1 0-11.8 5.3-11.8 10.3 0 6.1 5.4 9.5 9.8 11.2 3.3 1.3 4.9 2.8 4.9 4.7 0 1.6-1.3 2.6-3.2 2.6-3.4.1-7.2-3-8.1-3-.4 0-.7.2-1 .6l-2.2 4.3c-.6.9-.3 1.2.3 1.8.9.9 4.4 4 11.4 4 7.6 0 12.2-5.4 12.2-10.7 0-7.6-7.7-10.7-10.3-11.7z"/><use transform="matrix(1 0 0 1 203.2 0)" xlink:href="#b"/><path d="m93.5 47.9c-2.3 0-4.4-2.1-4.4-4.2v-17.8c0-2.3 1.7-4 4-4h20c2.3 0 4 1.9 4 4v17.8c.1 2.3-1.7 4.2-4 4.2zm-32.6-6.9c-9.7 0-12 2.3-12 12.1v10h63.6c2.3 0 4 1.9 4 4l-.4 106.3c0 2.3-1.5 4.2-3.6 4.2h-18.7c-2.3 0-4-1.9-4-4.2v-90.2h-40.9v90.2c0 2.3-1.9 4.2-4 4.2h-18.5c-2.3 0-4.3-1.9-4.3-4.2v-90.2l-18.1-2.8c-2.1-.4-4-1.8-4-3.9v-9.4c0-2.3 1.9-4 4-4h18.1v-10c0-26.2 14-32.5 35.1-32.5 4.8 0 8.2.9 12.1 1.6 1.6.4 3.7 1.4 3.7 3.3v11.9c.1 2.6-1.4 3.6-2.8 3.6z"/><path d="m181.7 179.2c-23 0-32.2-5.1-32.2-32.2v-63.9l-19.1-2.7c-2.1-.4-4-1.9-4-4.2v-9.1c0-2.3 1.9-4 4-4h19.1v-16.7c0-2.3 1.9-3.7 4-4l19.6-3.3c1.9 0 3 1 3 3v21h18.6c2.3 0 4 1.9 4 4v12c0 2.3-1.9 4-4 4h-18.6v63.7c0 10.1.9 11.4 8.3 11.4h10.7c2.7 0 4.3 1 4.3 3v12.9c0 2.1-1.2 3.3-3.9 3.7-4.8.9-9.2 1.4-13.8 1.4z"/><path d="m282.7 177.6c-2.3 0-4-1.9-4-4.2v-66.2c0-17.7-1.6-22.7-17.3-22.7-6.8 0-14.3 2.9-22.9 7.3v81.6c0 2.3-2 4.2-4.1 4.2h-18.6c-2.3 0-4-1.9-4-4.2v-106.3c0-2.3 1.9-4 4-4h17.7c2.3 0 4 1.9 4 4v4.3c11.8-7.6 19.8-9.7 33.2-9.7 29.2 0 34.8 19.7 34.8 45.5v66.1c0 2.3-1.8 4.3-4.1 4.3z"/><path d="m369.1 84.8c-12.5 0-21.7 9.1-21.7 25.8h43.1c0-16.8-8.9-25.8-21.4-25.8zm-22 44.9c0 12.5 4.9 26.4 24.4 26.4 12.7-.1 25.5-1 38-2 2 0 3.7 1 3.7 3v13.4c0 3.3-.6 4.7-4.3 5.3-13.3 2.1-21.1 3.4-39.4 3.4-20.3 0-49.2-11-49.2-50.9v-15c0-31.7 17.7-51.6 48.8-51.6 31.2 0 48.3 21.2 48.3 51.6v11.4c-.1 3.1-1.4 5-4.1 5z"/><path id="c" d="m433 175.2c-2.4-.6-3.3-2.3-3.3-4.7v-12.1c0-1.6.9-3.3 2.9-3.3 11.6.9 23.2 2.2 34.9 2.3 12.6 0 14.4-4.3 14.4-9.7 0-3.9-2.4-6.3-9-10.4l-27.8-17.1c-10-6.1-17.1-16.3-17.1-28 0-20.3 12.8-30.5 38.5-30.5 16.4 0 25.8 1.9 36.1 4 2.4.6 3.7 2.3 3.7 4.7v11.8c0 2.4-1.3 4.1-3.3 3.9-11.5-.5-48.1-7.8-48.3 6.1 0 3.3 3 5.3 8.1 8.3l26.5 16.2c17.1 10.4 19.6 20.5 19.6 30.8 0 17.4-13 31.7-39.5 31.7-8 0-25-1-36.4-4z"/><use transform="matrix(1 0 0 1 91.1 0)" xlink:href="#c"/><path id="d" d="m23.3 204.4c0-.3.3-.6.6-.6h11.1c.3 0 .6.3.6.6v3c0 .3-.3.5-.6.5h-7.4v3.3h6.1c.3 0 .6.3.6.6v3c0 .3-.3.6-.6.6h-6.1v3.7h7.4c.3 0 .6.2.6.5v3c0 .3-.3.6-.6.6h-11.1c-.3 0-.6-.3-.6-.6z"/><path d="m43.8 203.8c-.3 0-.5.3-.5.6v11.1c0 4.1 3.5 7.6 7.8 7.6s7.9-3.5 7.9-7.6v-11.1c0-.3-.3-.6-.6-.6h-3.3c-.3 0-.6.3-.6.6v11c0 1.9-1.4 3.4-3.4 3.4s-3.4-1.6-3.4-3.4v-11c0-.3-.3-.6-.6-.6z"/><path id="e" d="m77.9 209.8c0-1.1-1-2-2-2h-4v4.3h4.1c1 0 1.9-1 1.9-2.3zm-9.5-6h8.1c3.3 0 5.8 2.6 5.8 5.9 0 2.4-1.6 4.4-3.9 5.4l3.5 6.8c.1.3 0 .7-.4.7h-3.6c-.3 0-.4-.2-.4-.3l-3.6-7.1h-2v6.9c0 .3-.2.5-.5.5h-3.2c-.3 0-.5-.2-.5-.5v-17.7c0-.4.3-.6.7-.6z"/><path id="f" d="m104.2 213.2c0-3-2.5-5.4-5.5-5.4s-5.4 2.4-5.4 5.4 2.4 5.4 5.4 5.4 5.5-2.4 5.5-5.4zm4.2 0c0 5.4-4.3 9.7-9.7 9.7s-9.7-4.3-9.7-9.7c0-5.3 4.3-9.7 9.7-9.7s9.7 4.3 9.7 9.7z"/><path d="m123 211.9c1.1 0 2.1-.8 2.1-2.1 0-1.1-1-2-2.1-2h-2.6v4.1zm-6.9-7.5c0-.3.3-.6.6-.6h6.6c3.3 0 6 2.7 6 6s-2.7 6.1-6 6.1h-2.9v6.3c0 .3-.2.6-.5.6h-3.2c-.3 0-.6-.3-.6-.6z"/><use transform="matrix(1 0 0 1 113.2 0)" xlink:href="#d"/><path d="m156.1 210.5c.3-.3 1.9-1.4 1.9-3.3 0 0-.5.2-1.2.2-1 0-2-.9-2-1.9s.8-2 2.1-2c1 0 2.5.8 2.5 3.2 0 2.9-1.9 4.2-2.6 4.8-.3.2-.4 0-.6-.3s-.2-.6-.1-.7z"/><path id="g" d="m167.1 217.9c.3-.3.7-.2.8-.1.1 0 2 1.4 3.9 1.4 1.1 0 1.8-.7 1.8-1.6 0-1.1-.9-2-2.8-2.7-2.3-.9-5.3-2.7-5.3-6 0-2.7 2.2-5.4 6.3-5.4 2.9 0 4.9 1.4 5.8 2 .3.1.3.8.2.9l-1.5 2.1c-.2.3-.5.5-.8.3-.3-.1-2.3-1.6-3.9-1.6-1 0-1.7.8-1.7 1.5 0 1 .9 1.6 3 2.5s5.4 2.5 5.4 6.2c0 2.9-2.4 5.5-6.4 5.5-3.6 0-5.4-1.4-6.1-2.1-.1-.1-.1-.3 0-.6z"/><path id="h" d="m198.7 204.1c0-.3.1-.4.4-.4h.8l10.8 10.7v-9.9c0-.3.3-.6.6-.6h3.3c.3 0 .5.3.5.6v18.1c0 .3-.3.5-.6.5h-.8l-10.6-10.5v9.7c0 .3-.2.6-.5.6h-3.3c-.3 0-.6-.3-.6-.6z"/><path d="m225.1 209.4c0 1.6 1.3 2.8 2.9 2.8s2.8-1.2 2.8-2.8-1.2-2.9-2.8-2.9-2.9 1.3-2.9 2.9zm-3.1 0c0-3.3 2.7-6 6-6s5.9 2.6 5.9 5.9c0 3.4-2.6 6-5.9 6s-6-2.5-6-5.9z"/><path d="m242.6 220.5c0 1.4-1.1 2.5-2.5 2.5s-2.6-1.1-2.6-2.5 1.2-2.6 2.6-2.6 2.5 1.2 2.5 2.6z"/><path d="m250.5 210.1h-2.6c-.3 0-.4-.3-.4-.6v-1.7c0-.1 0-.3.1-.4l4-3.2h2.5c.3 0 .4.3.4.6v17.4c0 .3-.3.6-.4.6h-3c-.3 0-.6-.3-.6-.6z"/><path id="i" d="m276.2 204.4c0-.3.2-.6.5-.6h11.2c.3 0 .5.3.5.6v3c0 .3-.2.5-.5.5h-7.5v3.9h6.2c.3 0 .5.3.5.6v3c0 .3-.2.5-.5.5h-6.2v6.6c0 .3-.2.6-.5.6h-3.2c-.3 0-.5-.3-.5-.6z"/><use transform="matrix(1 0 0 1 205.4 .2)" xlink:href="#f"/><use transform="matrix(1 0 0 1 254 0)" xlink:href="#e"/><path d="m356.7 204.4c0-.3.3-.6.6-.6h3.3c.3 0 .6.3.6.6v6.8h7.7v-6.8c0-.3.2-.6.5-.6h3.3c.3 0 .6.3.6.6v17.8c0 .3-.3.6-.6.6h-3.3c-.3 0-.5-.3-.5-.6v-7.1h-7.7v7.1c0 .3-.3.6-.6.6h-3.3c-.3 0-.6-.3-.6-.6z"/><use transform="matrix(1 0 0 1 291.7 0)" xlink:href="#f"/><path d="m409.9 203.9c.1-.3.4-.4.5-.4h.4c.1 0 .3.1.4.3l6.3 11.7 6.3-11.7c.1-.2.3-.3.4-.3h.4c.3 0 .4.1.5.4l3 18.2c0 .3-.2.5-.6.5h-3.2c-.3 0-.4-.3-.5-.4l-1.3-8.3-4.6 8.7c-.1.2-.3.3-.4.3h-.4c-.2 0-.3 0-.5-.3l-4.5-8.7-1.2 8.3c0 .3-.2.4-.5.4h-3.2c-.3 0-.5-.2-.5-.5z"/><use transform="matrix(1 0 0 1 412.7 0)" xlink:href="#d"/><use transform="matrix(1 0 0 1 193 0)" xlink:href="#i"/><path d="m488.8 204.4c0-.3.3-.6.6-.6h3.3c.3 0 .5.3.5.6v17.8c0 .3-.2.6-.5.6h-3.3c-.3 0-.6-.3-.6-.6z"/><path d="m500.9 207.8c-.3 0-.5-.3-.5-.6v-3c0-.3.2-.5.5-.5h12c.3 0 .6.2.6.5v3c0 .3-.3.6-.6.6h-3.8v14.4c0 .3-.3.6-.6.6h-3.3c-.3 0-.6-.3-.6-.6v-14.4z"/><use transform="matrix(1 0 0 1 322 0)" xlink:href="#h"/><use transform="matrix(1 0 0 1 522.7 0)" xlink:href="#d"/><use transform="matrix(1 0 0 1 399.5 0)" xlink:href="#g"/><use transform="matrix(1 0 0 1 418.9 0)" xlink:href="#g"/></g></g></svg>