<svg viewBox="0 0 278 100" xmlns="http://www.w3.org/2000/svg"><g id="figure" transform="scale(.1)"><path d="m1879.1 20-201.8 177.5h-247l-177.9 781.8h-170.3l177.9-781.8h-121.8l-46.6 216.6c-23.3 108.1-128.7 184.1-224.9 184.1h-599.4l-42.4 204.2-204.9 177.6 72.9-358.7c22.8-112.1 124.5-197.8 226.8-197.8h600.4l47.8-226h-587l204.4-177.5z"/><path d="m2409.9 20c73.6 0 143.2 55.6 143.2 138 0 24.5-6.5 52-8.5 61.5l-41.1 194.8c-22.3 105.8-119 184.2-234.4 184.2h-589.8l-41.9 204.8-205.4 176.7 73.5-361.1c21.8-107 121.7-195.4 227.1-195.4h599.5l47.8-226h-586.8l204.5-177.5z"/><path d="m2658.8 31.1v16.5h-21.4v111.8h-21.5v-111.8h-21.2v-16.5z"/><path d="m2693.7 31.1 18.3 72.8 15.8-72.8h18.9l13.3 128.3h-21.5l-5.3-75-15.1 72.7h-14.8l-14.6-73.8-5.7 76.1h-21.5l13.5-128.3z"/></g></svg>