<svg viewBox="0 0 204 100" xmlns="http://www.w3.org/2000/svg" xmlns:xlink="http://www.w3.org/1999/xlink"><g id="figure"><path d="m2 37.5v-35.5h26.6c8.2 0 15.3 3.1 15.3 12.5s-7.1 12.6-15.3 12.6h-21.1v10.4zm5.5-30.4v14.9h21.5c5.2 0 9.2-1.9 9.2-7.5 0-5.5-4-7.4-9.2-7.4z"/><path d="m91.7 2h5.5v21.3c0 10.5-7.1 14.9-21.3 14.9s-21.3-4.4-21.3-14.9v-21.3h5.5v21.3c0 7.7 6.1 9.8 15.8 9.8 9.6 0 15.8-2.1 15.8-9.8z"/><path d="m109.5 2h28.1c7.6 0 13.7 2.9 13.7 11.4 0 8.4-6.3 11.3-13.8 11.2h-2.1l17.4 12.9h-8.6l-16.5-12.7h-12.8v12.7h-5.4zm28.2 17.7c4.6 0 8-1.6 8-6.3s-3.4-6.3-7.9-6.3h-22.9v12.6z"/><path d="m162.5 37.5v-35.5h38.5v5.1h-33v9.6h29.9v5.1h-29.9v10.6h34v5.1z"/><path d="m2.2 67.5v-17.8h8.7c9.3 0 13.2 3.6 13.2 8.9s-3.9 8.9-13.2 8.9zm2.1-15.9v14h6.6c7.9 0 11.1-2.8 11.1-7s-3.2-7-11.1-7z"/><path d="m42 67.5v-17.8h19.3v1.9h-17.3v5.8h15.8v1.9h-15.8v6.3h17.8v1.9z"/><path d="m79.8 64.2c3.3 1.1 6.6 1.8 10.4 1.8 2.9 0 8-.6 8-3.5 0-2.4-3.4-2.5-8-2.8-5.1-.3-10.4-.7-10.4-5.1 0-4.6 5.5-5.3 9.5-5.3 3.2 0 6.9.5 9.6 1.2l-.4 1.9c-2.5-.6-6-1.2-9.5-1.2-2.1 0-7.2.3-7.2 3.3 0 2.7 4.2 3 8.5 3.2 5 .2 10 .6 10 4.7 0 4.4-5.9 5.5-10.5 5.5-3.6 0-7.2-.7-10.6-1.9z"/><path d="m118.2 49.7h2v17.8h-2z"/><path d="m150.2 59.5v-1.9h12.2v1.5c0 6.6-5.5 8.7-12.2 8.7-8 0-12-4-12-9.3s3.9-9.3 13.1-9.3c4.7 0 7.9 1.1 9 1.5l-.4 1.8c-1.8-.6-4.8-1.4-8.6-1.4-7.9 0-11.1 3.2-11.1 7.4s3.3 7.4 10 7.4c5.9 0 10.1-2 10.1-6.2v-.3z"/><path d="m199.7 49.7h2.1v17.8h-2.1l-17.2-15.2.1 2.3v12.9h-2v-17.8h2l17.2 15.2-.1-2.5z"/><path d="m4 89.5v8.1h-2v-17.5h19v1.8h-17v5.7h15.5v1.9z"/><path d="m33.6 80.1h2v17.5h-2z"/><path d="m59.4 81.9v15.7h-2v-15.7h-9.2v-1.8h20.3v1.8z"/><path d="m100.1 80.1h2v17.5h-2l-17-15v15h-2v-17.5h2l17 15z"/><path d="m115.6 97.6v-17.5h19.1v1.8h-17.1v5.7h15.6v1.9h-15.6v6.2h17.6v1.9z"/><path id="a" d="m148.3 94.4c3.3 1.1 6.6 1.7 10.3 1.7 2.8 0 7.9-.5 7.9-3.4 0-2.4-3.3-2.6-7.9-2.8-5-.3-10.3-.6-10.3-5 0-4.5 5.6-5.2 9.5-5.2 3.1 0 6.7.4 9.4 1.1l-.4 1.9c-2.5-.6-6-1.1-9.4-1.1-2.1 0-7 .2-7 3.2 0 2.7 4.1 3 8.3 3.2 5 .2 9.8.5 9.8 4.6 0 4.4-5.8 5.4-10.3 5.4-3.5 0-7-.6-10.4-1.8z"/><use transform="translate(33.5)" xlink:href="#a"/></g></svg>