<svg viewBox="0 0 324 100" xmlns="http://www.w3.org/2000/svg" xmlns:xlink="http://www.w3.org/1999/xlink"><g id="figure"><path d="m162 98c-88.2 0-160-2.6-160-5.6s71.9-5.5 160-5.5c88.2 0 160 2.5 160 5.5s-71.9 5.6-160 5.6z"/><path d="m54.2 63.6c.7 9.2 6.7 13.8 18.1 13.8s16.9-3.6 16.8-10.8c0-4.2-2.6-7-8-8.5-5.2-1.5-10.9-3.1-17.3-4.8-17.1-4.4-25.7-12.3-25.7-23.9.3-18.4 11.3-27.4 32.9-27.4 20.6 0 31.4 9.1 32.4 27.2h-10c-3.7 0-6.4-1.8-8-5.1-3-5.1-8.3-7.5-15.9-7.5-9.2.2-14 3.6-14.3 10.3 0 5.6 5.7 9.5 17.1 12 6.5 1.5 13.5 3.6 20.8 6.1 9.3 3.2 13.9 9.9 13.9 20.1 0 12.1-5.9 27.2-34.7 27.2-23.1 0-34.9-9.6-35.4-28.7z"/><path id="x1" d="m134.9 92.4c-6.8 0-24.4-1.9-24.4-21.5 0-14.1 9.4-20.6 29.4-22.4 7.4-.8 11.1-3 11.1-6.7-.3-3.9-4-5.8-11-5.8-6.1 0-9.6 1.6-10.4 4.8h-17.1c2-12.6 10.8-18.8 26.6-18.8 18.8 0 28.6 6.4 28.7 18.8v23.1c0 23.2-17.6 28.5-32.9 28.5zm-7.5-22.1c0 5.4 3.4 8.1 8.5 8.1 4.7 0 8.5-1.4 11.3-4.1 2.7-2.7 4.1-6.2 4.1-11.3v-6.2c-4 1.7-8.6 2.9-13.6 4-7.2 1.6-10.3 5-10.3 9.5z"/><path d="m174.8 91v-87.5h8.9c4.4 0 8.3 3.6 8.3 8.3v79.2z"/><path d="m217.8 36.1c4.8 0 8.9-3.8 8.9-8.9v-4.2h-10.7v-11.2c0-4.4-3.5-8.2-8.2-8.2h-8.9v74.4c0 12.6 6.3 13.1 17.6 13.1 3.9 0 6.9-.2 10.2-.5v-13.3h-5.6c-2.5 0-5.2-.7-5.1-5.1v-36.1z"/><use transform="translate(119.3)" xlink:href="#x1"/></g></svg>