<svg viewBox="0 0 500 100" xmlns="http://www.w3.org/2000/svg" xmlns:xlink="http://www.w3.org/1999/xlink"><defs><path id="r" d="m-4.3-8.6c-2.385 0-4.3 1.786-4.3 4.3s1.915 4.3 4.3 4.3c2.368 0 4.3-1.786 4.3-4.3s-1.932-4.3-4.3-4.3zm0 .6c1.962 0 3.6 1.609 3.6 3.7s-1.638 3.7-3.6 3.7c-1.983 0-3.6-1.609-3.6-3.7s1.617-3.7 3.6-3.7zm-1.6 1.2v5h.7v-2.2h.9l1.3 2.2h.9l-1.4-2.2c.734-.09 1.2-.504 1.2-1.4 0-.987-.55-1.4-1.7-1.4zm.7.6h1.1c.529 0 1 .182 1 .8 0 .769-.56.801-1.2.8h-.9z"/><mask id="c1"><circle cx="50" cy="50" r="48" fill="#fff"/><circle cx="50" cy="50" r="47" /><circle fill="#fff" cx="50" cy="50" r="44.7"/><circle cx="50" cy="50" r="32.4"/><path d="m13.6 27.6c.5.5.9 1.1 1.3 1.6-1.1 1.8-2.4 3.1-2.4 5.3 1.1-1.7 2.1-3.3 3.7-4.6.8-.6 1.7-.8 2.5-.1.9.9.9 2.7.6 3.9-.7 2.8-2.2 5.5-4.2 7.6-.5-.5-.9-.9-1.4-1.4 1.1-1.6 2.7-3.6 2.7-5.6-1.4 1.5-2.4 4.2-4.5 4.9-1.8.3-2.5-1.5-2.3-3 .3-3.1 2.1-6.1 4-8.6z"/><path d="m24.2 15.7c.2.5.5 1.1.7 1.7-1.3 1.1-3 2.4-3.5 4.1-.3 1.3.9 2.1 2.1 1.9 1.6-.3 3-1.7 4-3 .7.2 1.3.5 2 .7-1.1 1.6-2.4 2.9-4 4-1.4 1-3.5 2.2-5.3 2.1-2 0-3.2-2.6-2.5-4.4 1-3 4.1-5.3 6.5-7.1z"/><path d="m39.6 8.6c.8 2.4 1.5 4.8 2.3 7.2-1.1.3-2.3.8-3.4 1.1-.2-.7-.5-1.5-.7-2.2-1.4.6-2.8 1.2-4.2 1.8.3.6.6 1.3.9 1.9-1 .5-1.9 1.2-2.9 1.7-1.2-2.2-2.4-4.4-3.6-6.6 1.1-.6 2.1-1.2 3.2-1.8.4.9.8 1.7 1.2 2.6l4.7-2c-.3-.9-.7-1.7-1-2.6 1.2-.4 2.3-.8 3.5-1.1z"/><path d="m52.3 7.5c1.3 0 2.6.2 3.9.3.4 1.5.9 3 1.4 4.5.8-1.2 1.6-2.5 2.4-3.7.9.3 1.8.5 2.7.8-1.5 2.2-3 4.3-4.5 6.5-1.1-.2-2.3-.5-3.4-.7-.5-1.5-.9-3-1.4-4.5-.9 1.4-1.8 2.8-2.7 4.2h-3.3c-1.1-2.4-2.2-4.7-3.3-7.1 1.3-.1 2.6-.2 3.9-.3.6 1.4 1.2 2.7 1.8 4.1.9-1.4 1.6-2.8 2.5-4.1z"/><path d="m66.2 10.7c1.2.6 2.4 1.1 3.6 1.7-1.1 2.2-2.3 4.5-3.4 6.7-1.1-.6-2.1-1.1-3.2-1.7 1-2.3 2-4.4 3-6.7z"/><path d="m74.4 15.2c1 .7 1.9 1.5 2.9 2.2.1 2.1.2 4.2.3 6.3 1-1 2.1-2 3.1-3 .8.9 1.5 1.7 2.3 2.6-1.9 1.6-3.7 3.3-5.6 4.9-.8-.9-1.5-1.8-2.3-2.7-.1-1.8-.1-3.7-.2-5.5-.8 1-1.8 2-2.6 3-.8-.7-1.7-1.3-2.5-2 1.5-1.9 3-3.9 4.6-5.8z"/><path d="m86.3 27.8c.6 1.1 1.1 2.1 1.7 3.2-.8 1.9-1.5 3.9-2.3 5.8 1.4-.5 2.7-.9 4.1-1.4.3 1.1.6 2.3.9 3.4-2.4.7-4.8 1.3-7.2 2-.3-1.1-.6-2.3-.9-3.4.7-1.7 1.4-3.4 2.1-5.1-1.2.6-2.3 1.2-3.5 1.7-.5-1-.9-1.9-1.4-2.9 2.2-1.1 4.3-2.2 6.5-3.3z"/><path d="m14.8 72.4c.4 2.2 1.6 4.1 3.2 5.6v.7l2.2 2.2c0-.5 0-.9 0-1.4 2 .8 4.1.8 4.8-1.4.5-1.7-.3-3.6-1.2-5.1-1.1-1.8-2.8-3.5-4.8-4.2-.6-.2-1.1-.3-1.7-.3-1.6 0-2.9 1.4-2.5 3.9zm5.7-.3c1.2.9 2.3 2.4 2.1 3.9-.2.8-.9 1.1-1.7 1-1.5-.2-2.8-1.5-3.4-2.8-.4-.9-.6-2.1.3-2.7.4-.2 1.6-.3 2.7.6z"/><path d="m27.8 77.2c1 .6 1.9 1.4 2.9 2.1-.9 1.3-1.8 2.8-2.7 4.1.7 1.3 2 2 3.5 2.2.9-1.4 1.6-2.9 2.4-4.4 1.1.5 2 1 3.1 1.5-.7 1.4-1.5 2.9-2.2 4.3-.3.5-.5 1-1 1.2-1.1.6-2.6 0-3.7-.4-1.7-.6-3.4-1.8-4.6-3.1-.7-.8-1.4-1.9-.8-3 1-1.5 2-3 3.1-4.5z"/><path d="m41.3 84.2c-2 1.9-4 3.9-6 5.8 1.1.5 2.3.9 3.5 1.2.3-.3.5-.6.8-.9 1.9.5 3.7.9 5.7 1.1.1.3.3.7.4 1 1.2.2 2.4.3 3.6.3-1.2-2.6-2.3-5.1-3.5-7.7-1.5-.3-3-.6-4.5-.8zm1.9 2.4c.4.8.7 1.6 1.1 2.4-1-.2-1.9-.3-2.9-.5.6-.6 1.2-1.3 1.8-1.9z"/><path d="m51 85.3c1.1-.1 2.1-.1 3.2-.2.2 1.6.5 3.2.7 4.8 1.3-.2 2.6-.4 3.9-.8.2.9.5 1.8.7 2.7-2.7.4-5.3.8-8 1-.1-2.5-.4-5-.5-7.5z"/><path d="m63.2 82.8c.8 2.3 1.7 4.7 2.5 7-1.2.4-2.5.9-3.7 1.3-.7-2.4-1.5-4.7-2.2-7.1 1.1-.4 2.3-.8 3.4-1.2z"/><path d="m72.4 77.4c.6.6 1.2 1.3 1.8 1.9-.8.6-1.6 1.2-2.4 1.8.9 1.3 1.9 2.6 2.8 3.9-1 .7-2.1 1.4-3.1 2.1-.9-1.4-1.7-2.9-2.6-4.3-.9.5-1.7.9-2.6 1.4-.4-.7-.7-1.5-1.1-2.2 2.6-1.2 4.9-2.9 7.2-4.6z"/><path d="m80.7 67.7c.6 2.3 1 4.6 1.6 6.8.5.6 1.2 1 1.8 1.5-.8 1-1.6 1.9-2.4 2.9-.6-.5-1.2-1.2-1.9-1.6-2.2-.2-4.5-.3-6.7-.5.8-.8 1.7-1.6 2.5-2.4 1.3.1 2.7.1 4 .2-.3-1.3-.6-2.6-.9-3.9.6-1 1.3-2 2-3z"/></mask><mask id="c2"><circle fill="#fff" cx="50" cy="50" r="30.4"/><path d="m50 18-6.6 25.4-25.4 6.6 25.4 6.6 6.6 25.4 6.6-25.4 25.4-6.6-25.4-6.6z"/></mask></defs><g><path d="m50 18v32l6.6-6.6zm0 32v32l6.6-25.4z" opacity=".1"/><path d="m18 50 25.4 6.6 6.6-6.6zm32 0 6.6 6.6 25.4-6.6z" opacity=".2"/><use xlink:href="#r" transform="translate(94.6 94.6)"/><use xlink:href="#r" transform="translate(498 46)"/><circle mask="url(#c1)" cx="50" cy="50" r="48"/><circle mask="url(#c2)" cx="50" cy="50" r="30.4"/><path d="m118.5 60.401-4.2 5.599c4.231 1.735 13.587 3.12 23.1 3.101 10.173-.02 20.507-1.65 25.1-6.4 3.603-3.727 4.863-10.431-2.6-13.3-7.464-2.87-15.727-2.8-19.6-2.8s-3.314-3.882-.3-4.6c3.013-.717 13.649-2.501 24.7.8l4-5.4c-3.415-1.25-11.008-3.135-20.2-3.1-6.642.03-14.126 1.004-21.4 4.1-3.312 1.41-9.557 6.605-6.6 12.7 2.297 4.733 16.298 4.814 22.9 5.1 4.017.175 4.731 4.107 1 5.4s-16.714 2.243-25.9-1.2z"/><path d="m211.6 68.401c-2.168.124-5.418.304-9.2.3-14.176-.02-34.111-1.886-34.1-14 .01-12.729 20.791-19.279 39.9-19.3 4.159 0 8.204.284 12 .9l-4.4 5.5c-11.768-1.435-25.455-.03-28.9 10.3-3.445 10.333 13.614 11.063 22.8 10.2z"/><path d="m223.5 37.401h14.7l-3.5 11.8h22.1l3.5-11.8h14.7l-9.1 31h-15l3.6-11.7h-22.1l-3.4 11.7h-14.8z"/><path d="m292 37.401 4 19.3 13.5-19.3h16.2l3.9 19.4 13.6-19.4h10.9l-21.9 31h-14.4l-4.3-21.3-14.8 21.3h-14.5l-6.3-31z"/><path d="m357.3 37.401h14.8l-9.4 31h-14.8z"/><path id="n" d="m367.9 68.401 9.2-31h15.9l15.4 18.7 5.4-18.7h14.8l-9.2 31h-13.8l-16.9-20.5-6.2 20.5z"/><use xlink:href="#n" transform="translate(57.3)"/></g></svg>