<svg viewBox="0 0 382 100" xmlns="http://www.w3.org/2000/svg" xmlns:xlink="http://www.w3.org/1999/xlink"><defs><path id="i" d="m50.4 2a48.4 48 0 00-48.4 48 48.4 48 0 0048.4 48 48.4 48 0 0048.4-48 48.4 48 0 00-48.4-48z"/><mask id="m"><use xlink:href="#i" fill="#fff"/><path d="m28.7 50.4c-4.9 8.1-12.4 14.9-21.8 19.2 9.8-4.5 19.7-5.6 28.9-4 2.3 9.2 1.9 19.1-1.7 28.8 3.8-10 9.9-17.7 17.4-23 8.1 4.9 14.9 12.2 19.3 21.5-4.5-9.7-5.7-19.4-4.2-28.4 9.2-2.3 19.3-1.7 29 1.8-10.1-3.7-17.9-9.8-23.2-17.3 4.9-8.1 12.4-14.8 21.8-19.1-9.8 4.4-19.6 5.6-28.7 4-2.3-9.2-1.8-19.1 1.8-28.8-3.8 10-9.9 17.7-17.5 23-8.2-4.9-14.8-12.4-19.2-21.7 4.5 9.7 5.6 19.5 4 28.5-9.3 2.3-19.4 1.8-29.1-1.7 10.1 3.7 17.8 9.7 23.2 17.2z"/></mask></defs><g id="figure"><path d="m66.3 43.3c-.5 1.4-2.1 2.5-3.5 2.5h-6.8c-2.1 0-1.7-1.8-1.5-2.5l1-2.9h-3.2l-2.5 6.8h12.5c2.3 0 1.7 2.2 1.6 2.5l-4 10.9c-.5 1.4-2 2.5-3.4 2.5h-21.8c-1.2 0-1.7-.5-1.7-1.6 0-.3 0-.6.1-.9l2.4-6.4c.5-1.4 2.1-2.4 3.4-2.4h6.8c2.3 0 1.6 2.1 1.5 2.4l-1.9 5.4h3.2l3.2-8.9h-12.4c-2.3 0-1.7-2.2-1.6-2.5l3.2-8.8c.5-1.4 2.1-2.5 3.5-2.5h21.8c1.2 0 1.7.5 1.7 1.6 0 .3-.1.6-.2.9z"/><path id="a" d="m142.8 50.2c-.5 1.5-2.1 2.5-3.6 2.5h-7c-2.1 0-1.9-1.7-1.6-2.5l1.1-3h-3.3l-2.6 7h12.9c2.4 0 1.7 2.4 1.6 2.6l-4.1 11.2c-.5 1.4-2.1 2.6-3.5 2.6h-22.5c-1.2 0-1.8-.6-1.8-1.7 0-.3.1-.6.2-.9l2.4-6.5c.6-1.5 2.2-2.6 3.5-2.6h7c2.4 0 1.8 2.3 1.7 2.6l-2.1 5.5h3.3l3.4-9.2h-12.9c-2.3 0-1.8-2.1-1.6-2.5l3.3-9.2c.5-1.4 2.1-2.5 3.6-2.5h22.4c1.2 0 1.8.6 1.8 1.7 0 .3-.1.5-.2.8z"/><path d="m151.9 68c-.5 1.5-2.1 2.6-3.5 2.6h-7c-1.2 0-1.9-.6-1.9-1.7 0-.3.1-.6.2-.9l11.8-32.1c.6-1.5 2.2-2.5 3.5-2.5h7c1.2 0 1.9.6 1.9 1.7 0 .3-.1.5-.2.8z"/><path id="b" d="m181.9 70.6h-25c-1.2 0-1.8-.6-1.8-1.7 0-.3.1-.6.2-.9l4.3-11.6c.5-1.5 2.1-2.6 3.5-2.6h12.9l2.4-6.6h-3.3l-1.1 3c-.5 1.4-2 2.5-3.5 2.5h-7c-1.5 0-2.1-.9-1.6-2.5l1.4-4.1c.5-1.4 2.1-2.5 3.6-2.5h22.4c1.2 0 1.8.6 1.8 1.7 0 .3-.1.5-.2.8zm-6.1-13.2h-3.3l-3.5 9.6h3.3z"/><path d="m220.1 53.2c-.6 1.5-2.1 2.6-3.5 2.6h-4.5c-2.6 0-4.3-2-3.2-5.1l1.1-3h-3.3l-6.9 18.8h3.3l1.1-3c1-2.8 4.1-5.1 7-5.1h4.4c2.4 0 1.8 2.2 1.7 2.5l-1.7 4.6c-1 2.8-4.1 5.1-7 5.1h-17.3c-2.3 0-3.6-1.5-3.6-3.4 0-.5.1-1.1.3-1.7l6.2-16.8c1-2.8 4.1-5.1 7-5.1h17.3c2.3 0 3.6 1.5 3.6 3.4 0 .5-.1 1.1-.3 1.7z"/><path d="m252.8 49.2c-.5 1.4-2.1 2.5-3.5 2.5 1.2 0 1.8.6 1.8 1.7 0 .3-.1.6-.2.9l-5 13.7c-.6 1.6-2.2 2.6-3.5 2.6h-7c-2.3 0-1.8-2.2-1.7-2.6l5.1-13.7h-3.3l-5.1 13.7c-.5 1.5-2.1 2.6-3.5 2.6h-7c-1.2 0-1.8-.6-1.8-1.7 0-.3.1-.6.2-.9l11.8-32.1c.6-1.5 2.2-2.5 3.5-2.5h7c2.3 0 1.7 2.1 1.6 2.5l-4.9 13.3h3.4l1-3.1c.5-1.5 2.2-2.5 3.6-2.5h7c1.2 0 1.8.6 1.8 1.7 0 .3-.1.5-.2.8z"/><use transform="translate(140.9)" xlink:href="#a"/><path d="m313.4 40-1.3 3.6h-9.9l-8.4 22.9h10.3l-1.5 4.1h-17.3c-2.3 0-3.6-1.6-3.6-3.4 0-.5.1-1.1.3-1.7l10.8-29.6c.5-1.5 2.2-2.5 3.6-2.5h7c2.2 0 1.8 1.9 1.6 2.5l-1.5 4.1z"/><use transform="translate(152)" xlink:href="#b"/><path d="m372.4 50.7c-.5 1.5-2.2 2.5-3.5 2.5h-4.4c-2.3 0-3.6-1.4-3.6-3.3 0-.5.1-1.2.3-1.8l.1-.4h-3.3l-6.5 17.8c-1 2.8-4.1 5.1-7 5.1h-4.4c-1.2 0-1.8-.6-1.8-1.7 0-.3.1-.8.2-1.1l7-19.1c1-2.8 4.2-5.1 7.1-5.1h17.3c2.3 0 3.6 1.5 3.6 3.4 0 .5-.2 1.1-.4 1.7z"/><path d="m108.8 77.6c-1.1 0-1.9.8-1.9 1.9s.8 2 1.9 2h251.3c1.1 0 2-.9 2-2s-.9-1.9-2-1.9z"/><path d="m376.1 33.7c-2.1 0-3.8 1.7-3.8 3.8s1.7 3.8 3.8 3.8 3.9-1.7 3.9-3.8-1.8-3.8-3.9-3.8zm0 .4c1.9 0 3.5 1.5 3.5 3.4s-1.6 3.4-3.5 3.4-3.4-1.5-3.4-3.4 1.5-3.4 3.4-3.4zm-1.7 1v4.7h.6v-2h1.5c.6 0 .8.2.8 1.2 0 .3.1.6.2.8h.7c-.2-.4-.3-.4-.3-1.1 0-.6 0-.8-.5-1.2.5-.3.6-.6.6-1.2 0-.9-.5-1.2-1.5-1.2zm.6.5h1.5c.6 0 .9.3.9.8 0 .3-.1.8-.9.8h-1.5z"/><use xlink:href="#i" mask="url(#m)"/></g></svg>