<svg viewBox="0 0 509 100" xmlns="http://www.w3.org/2000/svg"><g><path d="m35.5 26c8.8 0 19.1 1.7 25.8 8 3.1 2.9 5.4 6.4 5.6 10.3v3.1h-22.2c-1.4-2-2.7-4.4-4.8-5.7-3-1.7-7.4-1.9-10.4-.2-2.7 1.6-4.6 5.8-.2 7.8 9.9 4.1 21 1.8 31.8 9.2 5.2 3.4 7.6 9.5 7.6 15.6.1 22-24.7 23.8-33.2 23.8-15.4 0-30-6.4-33.5-22.3v-1.8h23.5c1.6 2.8 2.4 6 5.6 7.2 3.7 1.5 8.7 1.1 11.9-1.5 2.4-2.2 1.8-6.5-1.5-7.5-10.3-3.8-21.4-3.1-31.2-10-9.3-6.8-8.8-22 0-29 6.7-5.4 16.8-7 25.2-7z"/><path d="m71.6 2h25.3v94.3h-25.3z"/><path d="m137.3 26c-10.4 0-22.1 1.5-28.9 7.9-4.2 4-5 9-6.2 14.4l23 .1c1.9-2.6 2.9-5.8 6.4-6.5 4-.8 9.1-.8 11.5 3.1 1.7 3.2.3 7.1-3.3 8-9.5 2.8-22.4 2.1-31.7 8-5.7 3.3-8.5 9.6-8.5 16 0 7.4 3.3 14.9 10.1 18.1 4.2 1.9 8.9 2.9 13.6 2.9 7.8 0 15.7-2.7 21.3-8.2.1 2.1.2 4.4.4 6.5 8.6.1 17.2-.1 25.8 0-1.2-3.6-2.3-6.8-2.5-10.6-.6-14.2.7-28.6-.7-42.7-1.6-14.1-16-17-30.3-17zm6.8 39.7c-.4 4.8.2 10.4-3.5 14.1-3.8 3.7-11.8 3.9-14.5-1-1.7-3.1-.6-6.8 2.4-8 5-2.2 10.5-3.2 15.6-5.1z"/><path d="m239.7 53.7h-23.7c-1.8-4.8-3.7-8.9-9.2-9-9.2-.1-11.8 5.1-11.6 16.7.2 13.1 3.2 17.6 10.4 17.7 7 .1 8.8-4.9 11-10.1l23.8.1c-3.4 18.1-15.7 28.8-34.8 28.8-20.9.1-35.8-15.5-35.7-36.5.1-21.3 16.4-35.5 36.9-35.5 18.2-.1 29 10.9 32.9 27.8z"/><path d="m268 2v45.6l16-19.7h28.7l-23.7 25.8 27.3 42.6h-30.5l-13.4-24.7-4.4 4.9v19.8h-25.3v-94.3z"/><path d="m306.4 61.6c0 9.5 2.8 19.5 9.8 26.2 6.8 6.9 16.9 10.1 26.9 10.1 11.2 0 27.1-3.5 34.8-21.7h-23.2c-1.5 2.7-3.8 5.4-11.1 5.2-8.2-.1-12.7-6.4-13.4-13.6h49c-.6-8.7-1.2-17.5-5.4-25.4-6.8-12.2-18.5-16.5-32.2-16.5-24.4 0-35.2 19.9-35.2 35.7zm36.9-19c7.7 0 11.8 5.5 12.2 11.4h-25.4c.4-6.6 4.7-11.4 13.2-11.4z"/><path d="m432.2 26.8-.2 11.3c4.2-5.6 11.8-12.1 30.1-12.1 8.3 0 17.3 1.6 23.7 6.4 4.5 3.3 7.8 7.5 7.8 12.7v2.5h-22.5c-2.2-3.3-3.7-6.5-8.1-7-3.2-.4-8.3.3-9.5 4-1 3.9 2.7 5.2 5.7 6 10 2.8 20 2 28.8 8.4 4.9 3.4 7.3 9.4 7.2 15.3-.1 6.7-3.1 13.4-8.4 17-7 5.1-16.4 6.6-25 6.6-8.4 0-20.8-1.7-28.2-10.3-2.6-2.9-4.4-8.3-4.6-11.6v-2.1h22.8c2.2 3.6 3.3 7.1 8.1 7.8 3.8.6 11.2-.4 11.2-5.2-.1-4.1-3.6-5-6.9-5.8-9.5-2.3-20.6-3.1-28.5-9.5-4-3.3-4.8-7.7-6.2-12.3-5.1-.4-12-1.2-16.4 2.1-5.1 3.9-6 10.4-6.2 16.4v28.9h-25.3v-68.4h24.3v10.8c2.7-4 4.7-7.8 9-10.3 5.4-3.3 11.4-2.3 17.3-1.6z"/><path d="m503 47.2c-.2-.4-.3-1-.4-1.4-.2-.8-.5-1-1.1-1h-.3v2.4h-1.1v-5.5h1.8c1.3 0 2.2.4 2.2 1.5 0 .8-.7 1.1-1.1 1.2.2.1.3.2.4.3.3.3.3.9.4 1.3 0 .1.1.7.4 1.2m-2.2-3.3c.5 0 1 0 1-.6s-.5-.7-1-.7h-.8v1.3"/><path d="m502 39.7c-2.7 0-4.8 2.1-4.8 4.8s2.2 4.8 4.8 4.8c2.7 0 4.8-2.1 4.8-4.8s-2.2-4.8-4.8-4.8zm0 .8c2.2 0 4 1.8 4 4s-1.8 4-4 4-4-1.8-4-4 1.8-4 4-4z"/></g></svg>