<svg viewBox="0 0 500 100" xmlns="http://www.w3.org/2000/svg" xmlns:xlink="http://www.w3.org/1999/xlink"><defs><path id="x1" d="m31.2 72.8 1.1 1.8c17.72 1.12 23.9 1.12 36.1 1.1 11.79-.02 22.33.04 35.9-1.2l1.1-1.8c-12.73.97-24.8 1.3-37.2 1.3-9.49 0-19.54.22-37-1.2z"/><path id="x2" d="m31.83 45.68c-.03.1-.07.14-.01.26.06.13-.28-.28-.63-.77-.35-.48-.73-2.19-.73-2.42 0-.24.14-.89.17-1.15.03-.27.51-.77.6-.87s.4.07.51-.04c.12-.11.5-.59.62-.63.88-.42 2.03-.2 2.37-.17 1.79.04 1.91 1.31 1.84 1.17-.07-.15-.32-.26-.51-.19-.11.21-.21.29-.22.41-.04.23.76 1.16.77 1.36.02.15-.32.25-.3.37s.54.67.54.67.77.09.87-.05c.1-.13-.14-.07-.01-.42s1.12-1.29 1.21-1.58c.16-1.11.92-2.03 1.26-2.62.34-.6 1.4-2.39 1.36-2.55-.04-.15-.03-.23.02-.42.04-.2.18-.14.28-.37s-.21-1.67-.15-1.92c.06-.24.18-.12.23-.36s-.1-.47 0-.67c.1-.19.51-.61.66-.72.16-.11.45-.27.45-.14-.01.26-.19.31-.23.39-.03.07.05.23.01.37-.04.15-.16.28-.2.38-.04.12.18.63.11.74-.08.11.16.06.25-.07.09-.14-.08-.44.02-.75.1-.3.33-.45.4-.48s.33.08.28.19c-.06.1-.28.42-.29.63s.21 1.07.08 1.42c-.12.35-.5.91-.56 1.07-.06.17-.76 3.57-1.05 4.54-.3.97-.56 1.63-.79 2.05-.24.42-.53.61-.64.77-.1.15-.65 1.07-1.08 1.57-.43.51-1.54 1.45-1.69 1.7s-.01 1.51.08 2.29c.1.79.69 2.86.85 3.9.15 1.04.07 2.34-.02 3.31s-.35 1.74-.46 2.23c-.12.5-.13 1.04-.13 1.04s.27.11.41.04c.15-.06-.1.32.08.29.18-.04 1.39.7.84-.07-.56-.77.61-.43.96-.48s.98-.03 1.24-.24c.25-.2.73-.41.87-.39.15.02.33.44.44.44.12.01.69-.42.94-.48.25-.05.58.15.65.13.08-.02.41-.16.52-.2.12-.04.9-.13 1.07-.07.18.07 1.01.79 1.05.95s.05.59.03 1-.14.83-.25 1.08c-.67 1.24-1.6 2.81-1.6 2.81s-1.47 1.94-1.94 2.78c-.97 1.72-1.25 2.33-1.45 2.84-.08.23-.07.82.02.95s1.15.97 1.32 1.11c.18.14-.08.17.08.33.16.17 1.51.77 1.79.81s.44-.15.49-.02c.12.31-.16.32-.3.45s.01.34-.09.43c-.11.09-.49.1-.6.18s-.01.11-.32.11c-.32 0-1.55-.63-1.96-.74-.41-.1-1-.46-1.42-.38s-1.17.02-1.49.02-.68-.04-.86-.22c-.19-.18 0-.56.23-1.05 1.06-1.83 1.85-3.78 2.6-5.75.09-.3.26-1.02.18-1.26-.07-.24-2.81-.05-3.17.16s-.78.39-1.19.44c-.42.05-.76-.23-1.09-.15s-.68.2-1.16.21c-.49.01-.39-.25-.84-.28-.46-.03-2.61.07-2.96.25-.35.19-.59.32-.81.44s-.8.05-1.06.17-1.15 1.25-1.36 1.68c-.21.42-.47-.14-.68-.13s-.57-.01-1.06-.04c-.49-.04-1.35-.5-1.55-.45s-1.8.65-2.73.81c-.94.16-1.84-.16-1.84-.16s-.2-.14-.44-.1c-.25.04-.75.21-1.24.29s-.54 0-.8-.04-1.59-.37-1.85-.38c-.26 0-.37.02-.62.03-.24 0-.68.14-1.08.27s-1.01.12-1.2.15c-.25-.08-.37-.1-.51.02s-1.89 1.23-2.02 1.42c-.13.18-.46.21-.64.39-.17.18-.4.28-.63.19-.22-.08-.32-.63-.31-.4.01.24.07-.41-.02-.5s-.14-.15-.13-.33-.05-.25.12-.46c.29-.37.39-1.12.47-1.26.12-.2.61-.46 1.01-.51.41-.05 1.39-.16 1.65-.27s.32-.24.49-.25.61.47.83.43.3-.13.53-.18c.22-.04.25.1.52.06.26-.04 1.8-.73 2.49-.95s1.6-.59 2.01-.62c.4-.03.52.27.72.26.19-.01.4-.09.59-.02.18.06.42.46.63.42.2-.04 1.29-.54 1.85-.98s.78-.63 1.62-1.25 2.03-1.49 2.66-1.81c.63-.33 1.19-.36 1.47-.55s.44-.11.68-.42c.25-.31 1-1.56 1.39-2.02.38-.47 1.14-1 1.11-1.29-.04-.29-.03-.63-.21-1.07-.19-.44-.35-1.5-.49-1.97-.15-.48-.66-1.57-.8-1.39-.14.19-1.52-.07-1.75.01-.22.09-.3.07-.69.03-.39-.03-.78-.76-.89-1.19-.11-.44-.2-.98-.19-1.39s0-.77-.08-.74c-.08.04-.16-.41-.34-.39-.18.01-.38.17-.6.13-.23-.04-.3-.18-.18-.25s.51-.33.68-.45c.17-.13.31-.12.15-.31-.15-.18-.48-.28-.6-.43s-.11-.36-.03-.42.11-.09.2-.01.55.19.62.07c.06-.12-.3-.37-.44-.72-.09-.2-.16-.4-.08-.48.07-.07.37-.08.41.03.1.24.34.49.41.55s.19-.04.19-.18c0-.13-.32-.48-.36-.68-.04-.18-.09-.39.02-.51.11-.11.25-.18.3-.05.07.17.15.3.36.65.22.35.3.69.63.78.12.04.2.04.3-.05.1-.08.23-.09.21-.26s-.02-.31.03-.53.28-.48.42-.51c.15-.03.4.04.37.15-.03.12-.2.71-.21.95s-.13.49-.1.64c.02.15-.02.66-.04.77-.03.11.03.24-.07.38s-.42.43-.5.49c-.09.07-.08.36-.03.56.04.2.57.95.74.94s.69-.47.86-.5c.17-.02.17.12.37.1s.26-.1.34-.19c.09-.09-.44-.12-.48-.2-.03-.07.46-.41.55-.47.1-.06.13-.27.19-.28.07-.01.8-.45.98-.61.18-.17.48-.59.54-.68.06-.1.17-.16.2-.33.03-.18.08-.72.06-.9-.05-.41-.43-.42-.46-.31z"/><path id="x3" d="m48.87 72.06c.08-.07.32-.22.14-.24s-.64-.05-.6.15c.01.03.34.19.45.08zm16.32-43.69c.11.91-.01 2.59-.01 2.59s.97 1.58 1.05 2.28c.04.19.68.4.68.4s-.1.52.01.54c.01 0 .41-.09.82-.49 0 0-.3-.67-.59-.73.25-.48.24-.35.52-.93 0 0 .52.01.65-.05s.03-.31.03-.31c-.3.15-.91-.04-.64-.1.28-.06.07-.34.34-.7.34-.44.11-.46.25-.68.15-.23.45-.96.93-1.16.29-.12.76-.48 1.13-.63.35-.14 1.12.06 1.41.06s.42.39.42.39l.72.31s-.37.28-.36.13-.23.39-.23.39l.39.08c.15-.11.25-.25.38-.38.35.37.73.72 1.11 1.07l-.14.45s-.06.1-.02.25-.21.26-.23.39.17.81.07 1.03-.46.09-.42.33c.03.24.27.94.27.94s.05.13-.06.2-.55.06-.55.06c-.13.26-.32.5-.48.75-.07.05-.24.17-.24.17s.02.16-.02.3c-.05.14-.39.53-.68.58-.29.06-1.02-.58-1.21-.48s-.71.65-.66.93 1.28 1.13 1.28 1.13-.43.01-.38.12c.04.1.06.24.25.36s.68-.03.99.08.89.4 1.25.93c.37.53 1.08 2.18 1.15 2.34s1 .86 1.77 1.66 1.92 2.11 1.92 2.11-.56-.01-.57.1c-.02.11-.07.24-.07.24s.21.2.46.24c.25.03.53 0 .89.07.22.12.4.28.4.28s.57-.01.89.12 1.42 1.11 1.79 1.37 1.72.84 1.86 1.08c-.06.18.16.36.16.36l.83.26s.41.18.59.34c.18.17.95.62.95.62s.21.06.06-.14-1.1-.74-1.1-.74.51.18.61.2c.1.01.16-.03.39.09s.45.41.66.64.63.31.71.69c.07.38.04.54.06.5-.14.49-.19.22-.26.32s-.02.72-.2.81c-.19.09-.33-.03-.33-.03s.12.17.03.3c-.09.12-.13.22-.3.17-.17-.06-.87-1.02-.99-1.2-.15-.15-.22-.14-.16.13.19.21.33.42.39.66.06.25.05.36-.06.54-.08.12-.2.22-.37-.08-.06-.11-.22-.33-.34-.56-.14-.26-.33-.68-.49-.75-.17-.08-1.14-.92-1.33-1.18-.19-.27-.06-.4-.38-.62-.27-.19-.77-.2-1.36-.37s-2.45-.86-3.33-1.38c-.88-.51-2.35-2.04-2.85-2.43-.49-.39-1.59-.85-2.25-1.45s-1.27-1.87-1.5-1.98-.46-.2-.75-.01c-.29.18-.66.42-1.02.94s-.45.67-.81 1.35-.63.56-.78 1.49c-.15.94-.04 2.04-.14 2.38-.09.34-.15.14-.22.37-.08.24-.1.27.01.44.12.18.2.06.31.32.1.26-.06.47.04.64s1.21.45 1.09.58c-.12.12-.44.36-.28.52.17.14.25.03.42.03.18 0 .5.24.5.24s.04.07.37.12c.33.07.3.03.52 0 .22-.04.19-.1.43-.06.24.03.31.03.69.25s1.02.68 1.12.83c.1.14-.22.07-.38.02-.16-.06-.26-.16-.5-.24-.24-.07-.87-.12-1.04-.04-.17.09-.36.12-.21.22.16.11 1.32.04 1.36.17.05.13-.32.05-.29.17.02.12.1.09.21.36.11.28-.07.29.21.32.29.02 0 0 .34-.07s.64-.21.81-.03c.17.17.44.5.29.56-.12-.15-.27-.3-.44-.33-.18-.02.09.34.01.44-.08.09-.34.06-.43.11-.1.05-.06.25.13.21s.35.03.61.09c.25.08.99 1.16 1.45 1.44.46.27 2 1.16 2.18 1.84.19.68-.45 2.27-.45 2.79 0 .51-1.37 6.18-1.76 6.83-.14.71-.21.6-.26 1s-.25 1.94-.12 2.18.57.85.97.96.39.02.61.1.21.37.44.48c.22.11.88.07 1.05.16s.14.36.41.36c.16 0 .1.03.26.11.16.09.27.05.39.03.12-.01.42.04.35-.08s-.21-.11-.32-.13c-.96-.15-.84-.38-1-.52-.16-.13.15-.03.28.02.13.06.49.25.59.3.11.05-.08-.23.07-.24.14-.01.35.25.49.38.15.13.5.35.39.52-.11.16-.34.42-.66.62-.33.21-.8-.07-1.04-.08-.23-.01-2.16-.06-2.61.08-.45.13-1.17.76-1.49.9s-.8-.06-1.03-.18c-.22-.12-.48-1.14-.63-1.61-.16-.45.45-3.2.42-5.38.02-1.14-.27-2.47-.17-3.28.09-.81 1.15-4.08 1.05-4.45s-1.76-1.25-1.98-1.24-.58.24-.84.38c-.26.13-1.12-.23-1.38-.37-1.17-.56-1.55-.89-2.45-1.4-.9-.52-3.31-1.85-3.52-1.85-.2.01-.67 1.51-.76 1.93s-.09.9-.22 1.01c-.53.4-3.45 2.96-3.45 2.96s-.63 1.33-.87 1.82c-.64.85-1.97 1.55-2.24 1.98s-.52 1.64-1.02 2.42c-.51.79-2.33 1.59-2.76 2.43-.42.84-.3.99-.59 1.34-.28.36-.3.31-.42.52-.34.52-.82.49-1.09.69s-.52.38-.83.58c-.3.2-.44.18-.67.52-.24.34-.27.29-.43.51-.16.21-.57.31-.87.27s-.31-.18-.36-.37c-.06-.19.13-.41.03-.44-.09-.03-.1-.03-.22-.09-.14-.07-.12-.34-.21-.54-.08-.19-.08-.25-.11-.42.01-.55.17-1 .3-1.13.14-.13.58-.21.58-.21.16.01.26.15.14.2-.11.06-.4.2-.46.3-.05.1.14.17.28.06.14-.12.31-.15.62-.12s.13.11.15.23c.02.11.23.08.33.02.1-.07 0-.17.24-.25.24-.09.18.02.45-.06.26-.08.25-.15.59-.33s.32-.24.36-.38.15-.11.14-.27c-.01-.15-.1-.23-.2-.23-.09-.01-.45-.01-.36-.17.1-.16.47-.53.71-.7.23-.18.18-.42.31-.64s.13-1.01.42-1.7.36-.86.78-1.63 1.46-1.93 1.82-2.31.31-.51.4-.61c.29-.33.28-.11.5-.23.22-.11.14-.08.26-.27.13-.19.1-.26.18-.48.09-.22.38-1.29.45-1.87.06-.59.07-1.36.2-1.59.42-.79.31-.18.47-.45.05-.08-.19-.21-.21-.44s-.11-.28.02-.39 1.82-2.56 1.92-2.67c.1-.1.08-.36-.07-.3-.15.05-.41.39-.45.3s.08-.63.2-.72c.12-.08.24.14.42.08.18-.05.13-.07.16-.18.03-.12.15-.35.09-.48-.07-.14-.44.34-.5.25s.02-.68.16-.82 1.28-.84 1.5-1.04c.23-.21.35-.69.19-.57s-1.47 1.11-1.29.82 1.02-.71 1.11-.93c.1-.22-.26-.26-.41-.23-.15.04-.43.45-.67.68-.24.22-.17.22-.29.08s-.15-.42 0-.58c.14-.17.18-.21.3-.34.12-.12.12-.51.21-.8.1-.3.07-.14.22-.27.14-.14.2-.11.34-.12.15-.01.5.01.66 0 .16 0 .15.14.32.18s.51-.22.3-.27c-.2-.04-1.25-.25-1.25-.25s.32-.11.39-.21c.08-.11-.08-.25-.08-.25s-.08-.94.02-.83.23.05.33.03.34-.12.34-.12c.04-.1.38-2.06.49-2.69.06-.21.01-1.82.28-3.1s.71-2.74.77-3.25-.06-1.55.23-2.37c.3-.82 1.05-1.38 1.03-1.67-.03-.29-.53-2.59-.62-4.29s-.08-5.21.28-5.54c.17.01.56-.18.56-.18s.17-.1 1.78-1.34c1.83-.91 3.68-2.06 3.96-2.31.33-.3 1.63-1.31 1.9-1.35.27-.06.42.01.22.21-.2.19-.71.56-.91.75s-.01.21.26.12.84-.51 1.14-.57.52.16.38.25c-.42.3-.44.34-.77.46-.29.1-.25.28-.05.18.19-.08.26-.23.69-.44.25-.12.62.01.35.19-.23.16-.38.33-.56.47-.4.32-.69.53-.6.53.34-.01 1.12-.72 1.39-.73.44-.02.18.19.07.35-.21.27-.92.58-.99.75-.1.22.55.24.76.36.22.11.54.74.19.6-.34-.15-.09.05-.93-.23-.84-.27-2-.25-2.15-.24s-1.6.92-2.38 1.65c-.78.74-2.17 1.86-2.28 2.29 0 0 .61 1.35.72 2.25z"/><path id="x4" d="m105.02 37.97c-.36-.15-.8-.51-.65-.68s.45-.14.2-.33c-.25-.2-.89-.74-1.06-1.12s-.42-1.26-.57-1.39c-.15-.14-.42-.32-.39-.63.03-.3.32-.23.48-.22.16.02.67.52.68.65.01.14.14.49.14.49s.22.17.26.03c.04-.13.2-1.3.06-1.31-.13-.02.04-.39-.11-.24s-.48.22-.52.07c-.04-.14.49-.49.41-.56-.07-.06-.33.07-.36-.13s.17-.31.17-.31.24-.22.39-.18c.16.04.82.62.91 1.01.09.4.42.07.55.09.14.03.88 1.28.73 1.46-.16.18.16 1.15.07 1.28s.97.97.7 1.16c-.26.19-.26.22-.29.44-.02.22-.05.21-.07.41-.02.19.72 1.74 1.05 2.86.33 1.11.71 2.59.83 2.66.13.07.12 1.09-.14 1.5-.26.42-.3 2.5-.28 2.76.03.25.3.47.3.72s-.23 1.11-.2 1.3c.03.2.16.71.22 1.68s.04.09.22.47c.17.37 1.02 1.64 1.14 2.1.13.46-.11 1.16 0 1.4.11.23 1.22 2.62 2.02 5.03.81 2.42.88 4.22.73 4.78-.14.56 1.46.89 1.46 1.35 0 .47.08.45-.03.77-.12.32-.38.53-.44.78-.05.24-.26.46-.18.72.08.25.25.39.31.61.05.23-.24.19-.15.59s-.07.43-.07.43.47.06.39.29c-.08.24-.88.68-.92.59s-.04-.33-.15-.32-.43.72-2.72 1.39c-2.3.67-.73-.19-1.57-.13-.84.07-2.2.05-2.48-.29-.29-.34-1.89-1.15-1.89-1.15s-1.88-1.19-2.1-1.13c-.22.05.48.94.48.94s.28.84-.06 1.05-2.26.15-2.53.14c-.27 0-1.56.73-2.21.65-.66-.07-.57-.15-.99-.22-.42-.08-.81.32-1.12.01-.32-.31-.47-.39-.47-.39s-.25.11-.28-.14c-.03-.26-.17-.44.15-.59.31-.16.56.28.74.12.18-.18.8-.19 1.14-.64.34-.46.24.19.37.04.12-.15 1.03-.38 1.05-.54s.29-.16.11-.23c-.18-.08-.59.01-.45-.09.14-.09.75-.49.99-.54.25-.05.7.02.77-.16.08-.19.25-.36-.01-.36-.27 0 0-.25-.25-.2-.25.06-.49.17-.63.12-.13-.04-.24-.2-.41-.41-.47-.7-.79-2.61-1.12-2.7-.34-.1-.08-.26-.22-.17-.15.09-.25.8-1.01 1.4s-1.42 1.25-3.79 2.59c-2.37 1.36-3.05 2.16-3.24 2.19-.2.03-.3.57-.4.72s-.15 1.09-.5 1.41c-.36.31-.68.5-1.02.49-.35-.02-.78-.17-1.07-.51-.28-.33-.33-.45-1.1-.51s-2.36-.44-2.53-.6.03-.3-.33-.2-.25-.11-.45-.27-.71-.38-.74-.55.5-.42.5-.42-.03.28.14.21.87-.1 1.34-.23c.47-.14.97-.01 1.2-.22.12-.11 0-.18.07-.32.07-.12.3-.16.34.01.04.18.07.11.23.13s.31-.23.58-.18c.37.08.83-.01 1.07-.2.24-.2.07-.13.63-.34.57-.21 1.3-.62 2.29-1.5.98-.88 1.68-1.65 2.82-3.26s.63-.67 1.17-1.36c.53-.68.45-.91 1.24-1.76s.88-.97 1.55-1.45.75-.47 1.24-.55.56.01.82.1.51.23.4.05c-.08-.12-.19-.32-.41-.41-.39-.16-.47-.19-.82-.18-.35.02-.61-.09-.76.08-.19.21-.71.54-1.01.88-.08.1-.17.31-.26.45-.07.11-.26.01-.25-.18.04-.42-.09-.12.02-.66s.02-.41.35-.79c.34-.37.43-.23.53-.46.1-.24.27-.27 0-.28s-.44.11-.12-.1.24-.22.57-.29.56-.24 1.14-.11c.57.12 1.6.76 1.84 1.01s.91.96 1.34 1.21c.43.24.13.04.68.35.55.32.48.45.74.61.25.17.56.29.71.63.15.35.17.16.45.3.27.14.42.08.63.32.22.25.06.17.35.21.29.03.33.15.43-.01.09-.15-.76-1.17-1.1-1.89-.35-.73-.9-1.38-1.06-2.06-.17-.68-.29-1.25-.5-1.38-.19-.13-.22-1.18-.17-1.37s.15-.21.28-.6c.13-.4.14-.32 0-.58-.13-.26-.13-.79 0-.94s.29-.21.33-.1c.04.12.06.45.06.64s.04.83.04.83c.2.11.24.47.28-.11.03-.57.14-.29.02-.93-.12-.65-.18-1.51-.31-1.55s-.35.01-.4.28c-.06.27-.01.58-.21.66-.19.09-.17-.12-.23.17-.06.3.1.6-.1.7-.2.12-.31-.59-.61-1.03-.3-.45-.24-.26-.68-.61s-1.56-1.11-2.05-1.59c-.48-.47-.12.12-.54-.2s-2.14-2.43-2.85-3.81-.5-1.07-.93-1.35c-.11-.07-.22-.37-.28-.58-.16-.58.17-.09-.44-.41s-1.1-.96-1.41-1.32c-.31-.37-.07-.06-.48-.53-.4-.46-.61-.56-.33-.67s.45-.03.61.07c.32.19.09.15.31.37s.4.73.42.35.2-.11-.07-.56c-.28-.45.15-.15-.29-.53s-.28-.33-.52-.39c-.41-.09-.52-.17-.52-.17s-.11-.22.41-.21c.46.01.24-.08.6.08.36.15.06-.08.59.21.53.28.36-.12.53.28s.43.98.6 1.39-.16.2.15.57c.31.36.15.36.45.49.09.04.23.08.33.21.21.26.57.97 1.17 1.49.62.51 1.36 1.07 2 1.64.63.57.78.66.99.99.2.33.2.33.29.5.09.18.18.27-.09.3-.27.02-.23-.14-.43.06-.21.19-.44.09-.31.38s.73.64.94.74c.2.11.4.05.66.05.27 0 .3.01.38.21.08.21.24.05.23.36-.01.3.04.36.05.56s-.2.14-.01.3c.2.16.11.45.2.16s.1-.15.1-.43c0-.27-.3.02.12-.37s.47-.11.54-.49.38-.26.05-.49c-.32-.23-.2-.41-.4-.24-.21.17.41.13-.21.17s-.44.11-.72-.03-.49-.39-.54-.7.02-.47-.11-.68c-.14-.21-.1-.04-.15-.38-.04-.33.13-.18-.04-.33-.17-.16-.07.1-.16-.3-.09-.39.15-.43.03-.44-.14-.01-.65-.16-.7-.25-.04-.09.15-.37.27-.55.13-.18.18-.39.21-.47.04-.08.33-.32.25-.33s-.27.05-.31-.06c-.04-.12.02-.17.03-.24.01-.09.2-.34.2-.34s.16-.26.12-.4c-.04-.15-.12-.34.01-.52s.22-.33.18-.4c-.13-.23-.23-.08-.23-.08l-.09.26-.41.06c-.19.06.35-.45.35-.45s-.51.08-.58-.04.74-.41.71-.64c-.03-.22.97-.05 1.12-.25.16-.2.79-.57 1.35-.56s1.11.18 1.36.1.73-.08.8.04c.07.11-.06-.12.4.24l.47.36s.16.05.23.11c.07.07.22.47.35.51s-.11.29.11.45.04.37.31.34c.27-.02.25.2.29-.21.05-.41.07-.43-.06-.97s-.42-1.04-.42-1.82c0-.77-.04-1.33-.14-1.92-.09-.59-.41-1.79-.41-1.79"/><g id="a"><path d="m146.4 70.3 2.1-7c.94.84 3.07 2.1 5.9 2.1 2.89 0 4.9-1.95 4.9-4.6 0-3.24-1.51-5.14-5.6-8.7-4.72-4.15-6.8-7.84-6.8-12.7 0-7.52 4.81-12.3 11.6-12.3 3.52 0 6.64 1.04 8.4 2.6l-1.6 6c-1.01-.84-2.95-1.7-5.4-1.7-2.64 0-4.5 1.72-4.5 4.7s1.28 4.8 5.3 8.3c4.97 4.34 7.6 7.62 7.6 13.2 0 7.71-4.93 12.7-10.9 12.7s-9.05-1.05-11-2.6z"/><path d="m172.5 72.3v-44.6h8.7v37.7h7.6v6.9z"/><path d="m205.5 38.3h-.1l-4.1 18.6h8.1zm7.3 34-2.2-9.5h-10.6l-2.3 9.5h-7.5l12-44.6h7.7l11.7 44.6z"/><path d="m221.4 50c0-11.86 4.69-22.9 14.5-22.9 3.58 0 6.14.98 7.9 2.6l-1.7 5.9c-.88-.71-2.26-1.3-4.4-1.3-5.85 0-7.5 8.18-7.5 15.7 0 7.32 2.09 15.3 7.5 15.3 2.26 0 3.46-.59 4.4-1.3l1.8 6.3c-1.64 1.62-4.31 2.6-8.2 2.6-9.81 0-14.3-10.65-14.3-22.9z"/><path d="m265.3 72.3-9.3-22.8v22.8h-8.6v-44.6h8.6v20.7l9.4-20.7h8.5l-10 20.7 11 23.9z"/><path d="m277.5 72.3v-44.6h8.6v37.7h9.2v6.9z"/><path d="m298.7 27.7v8.3h8.7v-8.3zm0 11.8v32.8h8.7v-32.8z"/><path d="m336.1 72.3-13.9-29.9v29.9h-7.2v-44.6h7.6l12.8 27.2v-27.2h7.2v44.6z"/><path d="m350.2 72.3v-44.6h18.7v6.9h-10.1v11.6h8.7v6.7h-8.7v12.5h10.1v6.9z"/><path d="m377.4 52.8h-6.5v-6.6h6.5z"/><path d="m386.4 32.2v40.1h-5.6v-40.1h-7.2v-4.5h20v4.5z"/><path id="x5" d="m400.6 49.9c0 8.94 1.49 18.2 7.9 18.2 6.47 0 7.9-9.26 7.9-18.2 0-9.07-1.68-18.4-7.9-18.4-6.23 0-7.9 9.33-7.9 18.4zm-5.6.1c0-12.44 3.75-22.9 13.5-22.9 9.74 0 13.5 10.46 13.5 22.9 0 12.51-3.76 22.9-13.5 22.9-9.75 0-13.5-10.39-13.5-22.9z"/><use xlink:href="#x5" transform="translate(32)"/><path d="m460.3 72.3v-44.6h5.6v40.1h8.6v4.5z"/><path d="m476.6 70.3 1.5-4.6c1.19 1.04 3.39 2.2 6.6 2.2 3.65 0 6.4-2.45 6.4-6.4 0-4.15-2.05-6.48-6.7-10.3-4.78-3.95-7.3-7.77-7.3-12.7 0-6.99 4.59-11.4 10.5-11.4 3.46 0 6.19 1.11 7.7 2.6l-1.2 4c-1.13-.97-3.07-2.1-5.9-2.1-3.39 0-5.7 2.35-5.7 6.3 0 3.89 1.81 6.04 6.4 9.8 4.84 3.95 8 7.59 8 13.1 0 7.26-4.61 12.1-11.4 12.1-4.09 0-6.89-.98-8.9-2.6z"/></g><g id="b"><path d="m30 74.4-2.6-.2c8.19 14.2 23.41 23.76 40.8 23.8 17.59.04 32.92-9.67 41.1-24.1l-2.5.3c-8 13.07-22.32 21.73-38.6 21.7-16.1-.04-30.21-8.62-38.2-21.5zm-9-24.5c-.02 8.16 1.97 15.86 5.5 22.6l2.5.2c-3.76-6.71-5.92-14.53-5.9-22.8.05-25.35 20.32-45.86 45.3-45.8 24.99.06 45.16 20.65 45.1 46-.02 8.1-2.06 15.7-5.7 22.3l2.5-.3c3.37-6.58 5.28-14.08 5.3-22 .06-26.51-21.07-48.04-47.2-48.1-26.12-.06-47.34 21.39-47.4 47.9z"/><path d="m133.9 66.6c.02-4.01-6.46-5.75-15.4-6.8 0 0 14.28 1.83 13.8 6.2-.63 5.79-24.17 9.6-58.8 9.7-31.12.09-69.18-1.73-70-7.5-.62-4.34 14.3-6.9 14.3-6.9-8.44 1.09-15.62 3.6-15.6 7.6 0 6.6 42.67 9.33 71.2 9.1 28.23-.23 60.47-4.75 60.5-11.4z"/><use transform="translate(1 .6)" xlink:href="#x2"/><use transform="translate(1 .2)" xlink:href="#x3"/><use transform="translate(1.3 .6)" xlink:href="#x4"/></g></defs><g><use xlink:href="#a"/><use xlink:href="#b"/></g></svg>