<svg viewBox="0 0 522 100" xmlns="http://www.w3.org/2000/svg" xmlns:xlink="http://www.w3.org/1999/xlink"><g><path d="m15.5 82.6c16.7 3.5 65.2 15.4 179.5 15.4 21.2 0 85.7-4.5 106.5-6 35.7-2.6 77.9-6.6 115.3-7.9 31.1-1.1 58.8-.4 76.7 4.5-10.5-5.8-42.3-8.6-76.7-8.6-40.5 0-76.7 2.8-115.3 5.7-35.8 2-67.6 5.4-107.5 5.9-61.8 1.8-117.5-3-178.5-9z"/><path d="m13.7 20.7c-7.9-5.9-4.7-16.2 5-16.2 7.8.1 11.6 5.2 13.8 11.7l3.7-1.8c-.8-3.1-4.1-12.4-17.1-12.4-9.8 0-16.2 5.9-16.2 14.3-.1 4.4 2.3 7.6 4.3 9.6 5.2 5.2 12.9 7.6 18.7 12.2 1.9 1.6 4.4 4.2 4.3 7.8.1 8-7.1 9.2-10 9.2-10.3.3-13.2-10-13.7-11.9l-4.5 1.9c1.7 5.3 5.9 12.5 17.6 12.5 10.9 0 17.9-6.2 17.8-15.2 0-4-2.1-7.1-4.4-9.3-5.5-5.2-13-7.7-19.3-12.4z"/><path d="m55.3 2.7h-8.3v54.1h30.6v-3.6c-5 .7-10 1-15.1 1h-7.2z"/><path id="a" d="m120.8 53.2c-5 .7-10.1 1-15.2 1h-11.1v-25.6h17.6v-2.6h-17.6v-20.7h7.2c5.1 0 10.1.4 15.1 1v-3.6h-30.6v54h34.6z"/><path id="b" d="m166.7 42.2h-.3l-32.6-39.5h-3.7v54h2.8v-42.6h.3l35.3 43.9h.9v-55.3h-2.7z"/><path d="m196.9 2.7h-16.6v54h18.5c4.9.1 14.2-.8 21.4-8 6.7-6.9 7.5-15.7 7.5-19.5 0-6.8-2.2-14.2-8.5-20-5.9-5.3-14.5-6.6-22.3-6.5zm15.1 45.5c-2.1 2.2-6.8 6.1-14.5 6h-8.8v-49h8.9c5-.1 10.5 1.8 14.5 6.4 3.6 4.1 5.7 9.8 5.8 17.8-.2 6.8-1.4 13.5-5.9 18.8z"/><use transform="translate(149.8)" xlink:href="#a"/><path d="m314.5 16.8c.1-9.2-7.3-14.1-18.1-14.1h-17.1v54h8.3v-51.5h7.3c4.1 0 10.3 2.5 10.5 11.9-.1 5-3 9.1-7.8 10.7-1.9.6-3.9.8-5.9.8l1.7 2.7 17.3 25.4h9.7l-18.1-26.2c1.7-.4 3.4-1.1 4.9-2 4.3-2.3 7.3-6.6 7.3-11.7z"/><path d="m320.4 2.7v3.5c5-.8 10-1.1 15.1-1v51.5h8.3v-51.5c5-.1 10.1.2 15.1 1v-3.5z"/><path d="m386.3 2c-7.4 0-14.5 2.6-19.6 7.7-5.9 6-7.9 13.8-7.9 19.6-.1 6.6 2.5 14.2 7.9 19.8 6 6.1 13.6 8.2 19.6 8.2 6.1 0 13.7-2.2 19.4-8.2 5.2-5.3 8-12.8 7.9-19.8.1-7.9-3.3-14.9-7.9-19.6-6.9-7-15.1-7.7-19.4-7.7zm0 53.4c-8.6-.1-14.7-6.5-16.6-15.2-.8-3.6-1.1-7.2-1.1-10.9s.4-7.3 1.1-10.9c2-8.6 8-14.7 16.6-14.7 8.6.2 14.6 6.8 16.4 14.7.8 3.6 1.1 7.2 1.1 10.9s-.3 7.3-1.1 10.9c-1.9 8.6-8.1 15.1-16.4 15.2z"/><use transform="translate(291.6)" xlink:href="#b"/><use transform="translate(386.8)" xlink:href="#a"/><path d="m514.1 2.1c-3.3 0-5.9 2.6-5.9 5.9s2.6 5.9 5.9 5.9 5.9-2.6 5.9-5.9-2.6-5.9-5.9-5.9zm0 .9c2.8 0 5 2.2 5 5s-2.2 5-5 5-5-2.2-5-5 2.2-5 5-5zm.7 2h-3.1v6.3h.9v-2.7h2c.6 0 1 .5 1 1.1 0 .5.1 1.1.3 1.6h.9c-.3-.5-.4-1.1-.4-1.7s-.3-1.2-.9-1.3c.7-.2 1.1-.8 1.1-1.6 0-1.1-1-1.7-1.8-1.7zm-.1.7c.6 0 1 .5 1 1.1 0 .8-.6 1.1-1.4 1.1h-1.7v-2.2z"/></g></svg>