<svg viewBox="0 0 450 100" xmlns="http://www.w3.org/2000/svg" xmlns:xlink="http://www.w3.org/1999/xlink"><g><path d="m311.6 50.7h23v8.4h-23zm0-16.3h23v8.2h-23zm0-16.3h23v8.2h-23z"/><path d="m60.4 2.7h-1.3v-1h3.9v1h-1.6v4h-1zm3.2-1h1.5l1.3 3.4 1.3-3.4h1.5v5h-.9v-3.5l-1.7 3.3h-.3l-1.7-3.3v3.5h-1z"/><path d="m32 92.5 7.9-4.5 3.5 2.2 34.7-20.1v-40.1l-14.5-8.4 7.7-4.5 14.6 8.2v49.2l-42.4 24.5zm-14.4-8.3 51.5-29.7v14l-39.2 22.6zm-16.6-9.7v-49l42.5-24.5 11.4 6.5-7.9 4.6-3.5-2-34.8 19.9v39.9l14.6 8.4-7.9 4.5zm38.4-14.9 20.5-11.8 7.9 4.5-20.3 11.8zm-10-6.1 20.3-11.7 7.9 4.7-20.4 11.6zm-10.3-5.8 20.2-11.8 8 4.7-20.3 11.6zm-1.3-16.3 39.2-22.7 12.1 7.1-51.3 29.7z"/></g><g><path d="m112.4 59.9c-4.5-.8-7.4-2-10.6-5l6.5-7c3.7 4.5 12.4 5.4 13.9.2.7-2.5-1.2-4-7.7-6.2-8.6-2.9-11.1-4.7-11.4-10.7-.7-13.3 18-18.6 28.2-9.6l-6.2 6.7c-2.9-3.9-12.1-3.7-12.4 1.5 0 2.3 1.2 3.4 7.2 5.2 8.1 2.5 10.9 5 11.4 10.2.8 9.7-7.2 16.4-19 14.8zm316.8-.2c-11.2-2.9-16.8-10.2-16.8-21.8 0-9.4 6.2-18.8 16.8-20.3 8.1-1 14.3.3 19 5.5l-6.9 5.7c-2.5-2.7-5-3.2-8.7-3.2-5 .2-10.6 4.5-10.7 12.9 0 8.1 5.2 12.9 10.7 13.1 4 .2 6.5-.7 8.9-4.4l7.6 5.7c-4.5 5.9-10.9 8.1-19.8 6.7zm-292.4-.6v-41h13.8l9.4 26.3 9.4-26.3h13.6v40.9h-9.1v-30.8l-10.7 30.9h-6.9l-10.3-30.9v30.9zm51.5 0 17.6-40.9h7.6l17.8 40.9h-10.2l-3.5-8.6h-15.8l-3.4 8.6zm25.8-16.4-4.7-12.3-4.7 12.3zm22.3-24.5h9.7c8.4 0 12.4.3 15.8 2 8.7 4.5 7.2 20-2 21.5l-1 .2 10.4 17.3h-10.9l-8.5-16.4h-4.4v16.3h-9.1zm21.8 12.3c-.2-5-5.2-4.5-12.8-4.5v9.2c7.4 0 12.8 1 12.8-4.7zm26.3-4.2h-11.6v-8.1h32.4v8.1h-11.6v32.9h-9.2zm67.5 32.9v-33h-11.6v-8.1h32.2v8.1h-11.6v32.9zm26-40.9h28v8.4h-18.8v7.6h17.6v8.4h-17.6v8.1h19.6v8.6h-28.9z"/><path d="m102.5 70.3h2.3c3.9 0 5 .8 5 3.4 0 2-1.3 3-4.2 3.2h-1.8v5.7h-1.3zm1.3 1.2v4.2h2.4c2.2 0 2.5-1.2 2.5-2 0-.7-.5-2.2-2.5-2.2z"/><path id="b1" d="m118.3 70.3h7.4v1.2h-6v4.2h5.7v1.2h-5.7v4.5h6.4v1.2h-7.7z"/><path id="b2" d="m134.4 70.3h2.9c3.2 0 4.7 1.5 4.7 3.4 0 1.8-1.3 2.9-3 3.2l3.4 5.7h-1.3l-3.4-5.7h-2v5.7h-1.2zm2.9 1.3h-1.7v4h1.7c3.4-.2 3.4-1.2 3.4-2 0-1.3-.7-2-3.4-2z"/><path d="m150.5 70.3h7.4v1.2h-6v4.2h5.7v1.2h-5.7v5.7h-1.3z"/><path id="b3" d="m172.5 70c-3.4 0-6.2 2.9-6.2 6.4s2.9 6.4 6.2 6.4c3.4 0 6.2-3 6.2-6.4 0-3.5-2.9-6.4-6.2-6.4zm0 1.2c2.9 0 5 2.2 5 5.2 0 2.9-2.2 5.4-5 5.4-2.9 0-5-2.3-5-5.4 0-2.9 2.2-5.2 5-5.2z"/><use transform="translate(52.7)" xlink:href="#b2"/><path d="m203.4 70.5v12.1h1.3v-10.3l4.4 10.1h.8l4.4-10.1v10.2h1.3v-12h-1.8l-4.2 9.6-4.4-9.6z"/><path d="m229.1 70.5h1.3l5.2 12.1h-1.5l-1.3-3.2h-6.2l-1.3 3.2h-1.3zm.7 1.3-2.7 6.4h5.2z"/><path id="b4" d="m243.8 70.5h1.5l7.2 10.2v-10.2h1.3v12.1h-1.7l-7-10.4v10.4h-1.3z"/><path d="m268.3 70c-3.4 0-6.2 2.9-6.2 6.4s2.5 6.4 6.2 6.4c2.7 0 3.5-.8 4.7-2.2l-1-.7c-.8 1-2.2 1.7-3.7 1.8-3 0-4.9-2.3-4.9-5.4 0-2.9 2-5.2 4.9-5.2 1.5 0 2.5.5 3.4 1.7l1-.8c-1.2-1.2-2.5-2-4.4-2z"/><use transform="translate(162.9)" xlink:href="#b1"/><use transform="translate(64.8)" xlink:href="#b4"/><path d="m331.4 82.9c-4 0-4.5-2.2-4.5-7.9v-4.5h1.3v4c0 5.5.3 7 3.2 7 2.7 0 3.2-1.5 3.2-7v-4h1.3v4.5c0 5.5-.7 7.9-4.5 7.9z"/><path d="m348.2 71.6h-4v-1.2h9.6v1.2h-4.2v10.9h-1.3z"/><use transform="translate(227.7)" xlink:href="#b2"/><path d="m378.2 70.5h1.3v12.1h-1.3z"/><path d="m392 71.6h-4v-1.2h9.6v1.2h-4.2v10.9h-1.3z"/><path d="m405.8 70.5h1.3v12.1h-1.3z"/><use transform="translate(249.2)" xlink:href="#b3"/><use transform="translate(192.5)" xlink:href="#b4"/></g></svg>