<svg viewBox="0 0 545 100" xmlns="http://www.w3.org/2000/svg"><g><path d="m38.5 43.3c.3-1.6.1-2.8-.6-3.6-1.2-1.4-5-1.3-6.6-1.2-1.4.1-5.5.6-5.5 4.8 0 2.9 3.1 3.1 4.1 3.3 3.3.5 6.7 1 10 1.4 7.1.8 13.6 3.5 13.2 9.7-.6 9-11.8 17.6-27.5 17.6-14 0-20.3-4.3-21.5-8.6 0 0 23.9 5.7 25.1-4.2.6-5-5.5-5.4-11.9-6.1-7.3-.8-15.3-2.1-15.3-11.1 0-8.6 6.9-11.9 14.8-14.4 4.8-1.6 10.8-2.4 15.3-2.4 16.7 0 26.1 3.7 26.1 11.9 0 .8-.1 1.7-.3 2.6-5 .2-10.1.3-19.4.3z"/><path d="m111.4 63.4c-3 4.7-8.1 9.9-19.2 9.9-11.4 0-14.7-4-16.6-6.4 0-.2-.4 0-.4 0l-9.2 27.1h-21.7l16.7-50.7 2.8-15h21.6l.4 7.3h.3c3.5-2.4 9-7.2 21.3-7.3 11.2-.1 12.5 5.2 12.6 9.9.1 4.8-5.5 20.3-8.6 25.2zm-18.5-24.6c-3.8-.1-9.8 4.7-10.6 7.3l-2.9 9c-.8 2.4.9 7.7 4.5 7.8 5.5.2 8.3-5.9 8.8-7.5l2.8-8.4c.6-1.7 2.9-8-2.6-8.2z"/><path d="m164.3 43.9s-17.4-5.5-22.5 9.5l-6.9 20.2h-21.5l11.1-32.2 2.6-13.1h19.2l-.2 5.7h.4c8.6-6.2 11.5-6.5 16.3-6.5 3.8 0 6.9.6 6.9.6z"/><path d="m193.7 2c-6.4 0-12.6 4.9-13.8 10.6s2.9 10.3 9.3 10.3 12.5-4.8 13.8-10.5-2.7-10.4-9.3-10.4zm-19.9 26.5-3.1 12.9-11.4 32.2h22.3l15.9-45.1z"/><path d="m248.5 73.6h-23.8s5.4-16.3 8.1-24.4c.5-1.6 2.8-7.9-2.9-7.9-3.6 0-9.2 5.2-10.1 7.7l-8.5 24.6h-23.5l11.1-32.3 3.5-13h24l-1.7 6.9c3.6-2.4 9.3-7.1 21.6-7.1 11.2 0 12.4 5.2 12.4 9.9 0 .2-.2 4.8-10.2 35.6z"/><path d="m309.6 73.1c-3.1 9.3-11.6 20.9-31.7 20.9s-21.2-8.8-21.2-8.8c6.8 2.4 26.3 1.7 30.6-11.4l2.2-6.8c-3.6 2.6-9.5 6.6-21.1 6.6-11.2 0-12.6-4.5-12.6-9.2 0-5.2 5.8-21.5 9-26.2 3.3-4.8 8-9.9 19.2-9.9 12.3 0 14.9 4.5 16.8 6.9l2.6-6.7h21.2zm-17-34.9c-5.5 0-7.5 6.3-8.1 7.7l-4 9.4c-.6 1.4-2.6 7.8 3.1 7.8 3.6 0 9.1-5.3 10.1-7.7 1.6-3.7 2.9-7.6 4.3-11.4-.5-2.4-2.5-5.8-5.4-5.8z"/><path d="m365.8 25.2c-.3 0-6-4.7-8.8 2.7l-.4.7h5.1l-3.7 9.9h-4.5l-12.4 35.1h-22.5l12.1-35.3h-5.9l3.3-9.7h5.9v-.3c5.2-14.7 18.4-19.4 29.9-19.4 4.5 0 7.7.9 8.4 1.2z"/><path d="m403 42.3s-17.6-4.2-22.8 10.7l-7.1 20.4h-21.5l11.3-32.3 2.6-12.9h19.2l-.2 5.6h.3c9.7-6.4 12.5-7.1 19.1-7.1 2.5 0 4.5.2 4.5.2z"/><path d="m425.3 53c-5.5 20.1 31.8 9.5 31.8 9.5 0 .5-9.5 11.3-28.3 11.3-8 0-28-2.3-28-19.4 0-10.2 11.8-27.8 37.2-27.8 18.1 0 26.5 7.9 26.6 14.6 0 4.2-.4 7.3-2.8 11.8zm11.3-15.9c-1.5 0-7.9.7-10.1 10.6h15.4c4.9-10.3-3.9-10.6-5.3-10.6z"/><path d="m490.2 53c-5.5 20.1 31.8 9.5 31.8 9.5 0 .5-9.5 11.3-28.3 11.3-8 0-28-2.3-28-19.4 0-10.2 11.8-27.8 37.2-27.8 18.1 0 26.5 7.9 26.6 14.6 0 4.2-.4 7.3-2.8 11.8zm11.3-15.9c-1.5 0-7.9.7-10.1 10.6h15.4c4.9-10.3-3.9-10.6-5.3-10.6z"/><path d="m543 27.1c0 3.1-2.4 5.5-5.5 5.5s-5.6-2.4-5.6-5.5c0-2.9 2.5-5.4 5.6-5.4s5.5 2.5 5.5 5.4zm-9.9 0c0 2.4 2 4.5 4.4 4.5s4.3-2.1 4.3-4.5-1.9-4.3-4.3-4.3c-2.2 0-4.4 2.1-4.4 4.3zm2.3 2.7v-5.3c.5-.2 1.2-.2 2.1-.2 2.1 0 2.4.7 2.4 1.6 0 .5-.5 1-1 1.2.7.3.8.8 1 1.4.2.9.3 1.1.3 1.3h-1.3c-.2-.2-.3-.6-.4-1.3-.1-.5-.3-.9-1-.9-.2 0-.6 0-.6 0v2.2zm1.7-2.9c.7 0 1.2-.2 1.2-.9 0-.5-.3-.8-1.2-.8-.2 0-.6 0-.6 0v1.7z"/><path d="m324.6 81h-5.7v-2h13.9v2h-5.7v16.7h-2.5z"/><path d="m340.6 79.3c1.2-.2 2.9-.3 4.6-.3 2.7 0 6.8.7 6.8 5 0 2.4-1.6 4.1-3.5 4.8 1.6.7 2.3 2.2 2.8 3.8.7 2.6 1.1 4.3 1.4 5.2h-2.5c-.3-.5-.7-2.1-1.2-4.5-.5-2.6-1.9-3.6-3.8-3.6h-2.2v8.1h-2.4zm4.8 8.5c2.6 0 4.2-1.4 4.2-3.5 0-2.4-1.8-3.4-4.4-3.4-1.2 0-2.1.1-2.4.1v6.8z"/><path d="m364.3 91.8-1.9 5.9h-2.5l6.4-18.7h3l6.4 18.7h-2.6l-2.1-5.9zm6-1.9-1.9-5.4c-.3-1.2-.7-2.3-1-3.5-.3 1.1-.6 2.3-.9 3.5l-1.9 5.4z"/><path d="m399.5 89.5c-.2-2.6-.3-5.7-.3-8.1-.7 2.4-1.5 4.8-2.4 7.1l-3.3 9h-1.9l-3-8.8c-.9-2.6-1.5-5.1-2-7.3 0 2.8-.2 5.5-.4 8.3l-.5 8h-2.2l1.3-18.7h3.2l3.1 9c.7 2.2 1.4 4.3 1.9 6.2.6-2.1 1.3-4.1 1.9-6.2l3.3-9h3.1l1.2 18.7h-2.6z"/><path d="m411.6 79.3c1.2-.2 2.8-.3 4.7-.3 2.4 0 4.1.5 5.2 1.5 1 .9 1.6 2.3 1.6 4s-.5 3-1.4 4c-1.2 1.4-3.3 2.1-5.7 2.1-.7 0-1.4 0-1.9-.2v7.4h-2.5zm4.5 9.2c2.9 0 4.7-1.4 4.7-4 0-2.4-1.7-3.6-4.3-3.6-1 0-2-.1-2.3.1v7.3c.3.2 1.4.2 1.9.2z"/><path d="m448.2 88.5c0 5.9-4 9.5-8.7 9.5-4.8 0-8.3-3.8-8.3-9.5 0-5.9 3.5-9.9 8.5-9.9s8.5 3.9 8.5 9.9zm-14.6 0c0 4 2.1 7.6 5.9 7.6s6-3.6 6.1-7.6c.1-3.6-1.8-7.8-6.1-7.8-3.9 0-5.9 3.6-5.9 7.8z"/><path d="m457 79h2.4v16.6h7.9v2.1h-10.3z"/><path d="m478.1 79v18.7h-2.5v-18.7z"/><path d="m487.9 79h2.6l6.1 9.5c1.4 2.2 2.4 4.1 3.3 6 0 0-.4-3.7-.4-7.6v-7.7h2.3v18.6h-2.5l-5.8-9.5c-1.4-2.1-2.6-4.1-3.5-6.2.2 2.6.2 5.2.2 7.8v7.9h-2.3z"/><path d="m521.5 89h-7.3v6.8h8.2v2.1h-10.6v-18.9h10v2h-7.6v5.9h7.3z"/></g></svg>