<svg viewBox="0 0 706 100" xmlns="http://www.w3.org/2000/svg"><g><path d="m691.8 3.3h-19.7c-.6 0-1.2.5-1.2 1.2v3.2c0 .6.5 1.2 1.2 1.2h5.8c.6 0 1.2.5 1.2 1.2v23.6c0 .6.5 1.2 1.2 1.2h3.4c.6 0 1.2-.5 1.2-1.2v-23.6c0-.6.5-1.2 1.2-1.2h5.8c.6 0 1.2-.5 1.2-1.2v-3.2c0-.7-.5-1.2-1.2-1.2m-31.8 0h-3.4c-.6 0-1.2.5-1.2 1.2v18.4c0 .4-.1.6-.3.6-.1 0-.3-.1-.5-.3l-15.5-19c-.4-.5-1.3-.9-1.9-.9h-1.7c-.7 0-1.2.5-1.2 1.2v29.2c0 .6.5 1.2 1.2 1.2h3.4c.6 0 1.2-.5 1.2-1.2v-18.4c0-.4.1-.6.3-.6.1 0 .3.1.5.3l15.5 18.9c.4.5 1.3.9 1.9.9h1.7c.6 0 1.2-.5 1.2-1.2v-29.1c0-.7-.5-1.2-1.2-1.2m-42.7 0h-3.4c-.7 0-1.2.5-1.2 1.2v29.2c0 .6.5 1.2 1.2 1.2h3.4c.7 0 1.2-.5 1.2-1.2v-29.2c0-.7-.5-1.2-1.2-1.2m-36.3.1h-58.1c-1.6 0-2.9 1.3-2.9 3v6.8c0 1.6 1.3 2.9 2.9 2.9h19.4c1.6 0 3 1.3 3 3v74.6c0 1.6 1.3 2.9 3 2.9h7.4c1.6 0 3-1.3 3-2.9v-74.8c0-1.6 1.3-3 3-3h19.4c1.6 0 2.9-1.3 2.9-2.9v-6.7c0-1.6-1.3-3-2.9-3m-97.7 0h-7.4c-1.6 0-3 1.3-3 3v87.4c0 1.6 1.3 2.9 3 2.9h7.4c1.6 0 3-1.3 3-2.9v-87.4c0-1.6-1.3-3-3-3m-45.6 0h-47.4c-1.6 0-2.9 1.3-2.9 3v87.4c0 1.6 1.3 2.9 2.9 2.9h7.4c1.6 0 3-1.3 3-2.9v-38.1c0-1.6 1.3-2.9 3-2.9h24.8c1.6 0 3-1.3 3-2.9v-6.8c0-1.6-1.3-2.9-3-2.9h-24.8c-1.6 0-3-1.3-3-3v-18.1c0-1.6 1.3-3 3-3h34.1c1.6 0 3-1.3 3-2.9v-6.8c0-1.6-1.3-3-3-3m-193.7 0h-7.4c-1.6 0-3 1.3-3 3v87.4c0 1.6 1.3 2.9 3 2.9h48.8c1.6 0 2.9-1.3 2.9-2.9v-6.8c0-1.6-1.3-2.9-2.9-2.9h-35.4c-1.6 0-3-1.3-3-3v-74.7c0-1.6-1.3-3-2.9-3m-60.3 0h-7.5c-1.6 0-2.9 1.3-2.9 3v87.4c0 1.6 1.3 2.9 2.9 2.9h7.5c1.6 0 3-1.3 3-2.9v-87.4c0-1.6-1.3-3-3-3m-45.7 0h-58.5c-1.6 0-3 1.3-3 3v6.8c0 1.6 1.3 2.9 3 2.9h19.4c1.6 0 2.9 1.3 2.9 3v74.8c0 1.6 1.3 2.9 3 2.9h7.5c1.6 0 2.9-1.3 2.9-2.9v-74.9c0-1.6 1.3-3 2.9-3h19.4c1.6 0 3-1.3 3-2.9v-6.7c0-1.6-1.3-3-3-3m562.2 24.4c-2.1 0-3.7 1.7-3.7 3.8s1.6 3.7 3.7 3.7 3.8-1.6 3.8-3.7-1.6-3.8-3.8-3.8m-355.4 29.6h-34.1c-1.6 0-2.9 1.3-2.9 3v4.8c0 1.6 1.3 3 2.9 3h34.1c1.6 0 2.9-1.3 2.9-3v-4.8c0-1.6-1.3-3-2.9-3m-311.2-55.3c-16.2 0-28.2 11.2-28.2 24.8 0 9.7 5.2 16.1 11.9 20.5 12.4 8.1 32.1 9.7 32.1 24 0 8.4-7.6 14-16.3 14-8.4 0-15.4-4.1-20.7-9.7l-.3-.3c-.5-.6-1.2-.8-1.9-.8-.6 0-1.3.2-1.8.7l-5.4 5.4c-1.1 1-1.1 2.7-.1 3.7l.1.2c8.1 8.7 18.9 13.5 30.8 13.5 16.3 0 28.9-10.7 28.9-27.1 0-10.7-5.9-17.2-12.1-21.3-12-8-31.9-10.5-31.9-22.4 0-8.1 7.7-12.5 15.5-12.5 4.9 0 9.8 1.5 14.2 4.6l.3.2c.5.4 1.1.6 1.7.6.8 0 1.5-.3 2-1l4.6-5.7c.9-1.1.7-2.8-.4-3.7l-.2-.1c-5.1-3.7-12.6-7.6-22.9-7.6"/></g></svg>