<svg viewBox="0 0 195 100" xmlns="http://www.w3.org/2000/svg"><g id="figure"><path d="m9.5 34.2v-12.4l1.7-3.2 1.6.6 1.7 4.1v6.9l7.4 3.6-.1-14.1-6-13.8-7.8-3.4-5.8 10.4v27.5l12.7 9v13.4l-1.9 4h-1.8l-1.8-3.9-.1-9.4-7.3-2.7v18.6l6.1 12.7 8.1-1.3 6.1-12.6-.2-25.6z"/><path d="m38.3 62.3-1.8 3.4h-1.4l-1.9-3.4-.3-50.1-7.5-2.4.4 57.7 6.1 11.1 8.1-.9 5.9-11.1-.4-51.1-7.6-1.8z"/><path d="m49.3 16.4.5 60.1 7.5-.6-.1-17.5h6l6.3-9.5-.1-20.2-6.6-9.9zm10.6 31c-.9 0-1.9-.1-2.8-.1 0-6.1-.1-12.1-.1-18.1 1 .1 1.9.2 2.9.3.7 1 1.4 2.1 2 3.1 0 3.9 0 7.8.1 11.7-.7 1-1.4 2.1-2.1 3.1z"/><path d="m83.9 64.3c-1.1 0-2.1 0-3.2 0l-.1-11.1c2.7 0 5.5.1 8.2.1l-.1-10.3c-2.7 0-5.4-.1-8.1-.2l-.1-11.6c.9 0 2 0 2.9.1v5.7c2.5.1 5.1.2 7.6.2v-16c-6-.2-12.1-.5-18.1-1.1l.3 55c6.1-.2 12.2-.4 18.3-.5l-.1-15.4c-2.5-.1-5 0-7.5 0z"/><path d="m114.2 48.6.1-18.9c-2.2-2.9-4.3-5.7-6.5-8.6-4.3.2-8.6.2-12.9.2v53.2h7.6c0-5.5 0-10.9 0-16.4h1.2c1.9 5.5 3.7 10.9 5.5 16.5 2.8.1 5.5.2 8.3.3-2.3-7.1-4.6-14-6.9-20.9 1.2-1.8 2.4-3.6 3.6-5.4zm-9.6-.8h-2.1v-16.2h2.2c.7.9 1.3 1.8 2 2.7v10.4z"/><path d="m126.8 19.5-.3 55.8c2.5.1 5 .3 7.5.4l.2-17.3h6c2.2-3.4 4.3-6.9 6.5-10.5l.1-21.8c-2.2-2.9-4.3-5.8-6.4-8.6-4.5.8-9.1 1.4-13.6 2zm10.2 27.8c-.9 0-1.9 0-2.8.1l.2-17.9c1-.1 1.9-.2 2.9-.3.7.9 1.3 1.8 1.9 2.7l-.1 12c-.7 1.1-1.4 2.3-2.1 3.4z"/><path d="m169.2 45.7.1-24.2c-2.1-3.3-4.2-6.4-6.3-9.4-4.2 1.3-8.4 2.3-12.6 3.3l-.5 61.6c2.5.2 5 .5 7.5.7l.1-19.8h1.2c1.8 6.6 3.6 13.5 5.4 20.6 2.8.3 5.5.6 8.2 1-2.3-9.4-4.5-18.4-6.7-26.9 1.2-2.3 2.4-4.5 3.6-6.9zm-9.6-.4c-.7.1-1.3.1-2 .2l.1-19.5c.7-.1 1.4-.3 2.1-.4.7 1 1.3 1.9 2 2.9l-.1 12.8c-.7 1.4-1.4 2.7-2.1 4z"/><path d="m179 5.5c-2.1 4.8-4.2 9.4-6.3 13.9l-.3 48.2c2.1 4.1 4.1 8.5 6.2 13 2.7.4 5.5.8 8.2 1.2 2.1-4.2 4.1-8.5 6.2-13.1v-56.3c-2-3.6-4.1-7.1-6.1-10.4-2.6 1.3-5.2 2.4-7.9 3.5zm.9 56.9.1-39.3c.6-1.4 1.3-2.9 1.9-4.4.6-.2 1.3-.4 1.9-.6.6 1.1 1.3 2.2 1.9 3.3l-.1 41c-.7 1.4-1.3 2.8-2 4.2-.6 0-1.2 0-1.8 0z"/><path d="m97.5 79.1c30.7 0 60.6 1.6 89.6 8.8-29.8-3-72.8-4.5-89.6-4.6-16.8 0-44.7-.3-89.6 4.6 25.4-5.9 58.8-8.8 89.6-8.8z"/><path d="m72.2 13.5c.7 0 .9-.3.9-.8 0-.4-.3-.6-1-.8-1-.3-1.5-.7-1.5-1.6 0-1.1.8-1.6 1.9-1.6.6 0 1 .2 1.5.4v1.2l-.8.1v-.5c0-.2-.2-.3-.6-.3s-1 .1-1 .7c0 .2.1.3.2.4.4.3.9.3 1.5.6.8.4.9.9.9 1.5 0 1-.7 1.6-2 1.6-.6 0-1.2-.1-1.7-.3v-1.3l.9-.1v.5c0 .4.5.3.8.3z"/><path d="m76.9 9.5-.5-.1v-.6h2v.6c-.5 0-.5.3-.5.4v3.7l.5.1v.7h-2v-.7c.5 0 .5-.2.5-.3z"/><path d="m80.5 13.6c.4 0 .5-.1.5-.3v-3.8l-.5-.1v-.6h1.6l2.3 3.7v-3l-.6-.1v-.6h2v.6c-.5 0-.5.1-.5.3v4.5h-1l-2.3-3.8h-.1v3.1l.5.1v.6h-1.9z"/><path d="m90.6 9.5c-1.1 0-1.5.8-1.5 2 0 1.4.5 2.1 1.5 2.1.7 0 .8-.2.8-.4v-.6l.8.1v1.4c-.4.2-1 .3-1.6.3-2.1 0-2.6-1.5-2.6-2.8 0-.5.1-.9.2-1.3.4-1 1.3-1.5 2.4-1.5.6 0 1 .1 1.5.3v1.4l-.8.1v-.7c0-.3-.1-.4-.7-.4z"/><path d="m94.6 14.2v-.6c.5 0 .5-.2.5-.3v-3.8l-.5-.1v-.6h3.8v1.3l-.8.1v-.3c0-.3-.1-.3-.3-.3h-1.2v1.4h1.9v.8h-1.9v1.6h1.3c.2 0 .2-.2.2-.3v-.4l.9.1v1.4z"/><path d="m105.5 10-1 .5-.3-.6 1.5-.9h.8v4.5l.8.1v.7h-2.9v-.7l.8-.1c.2 0 .3-.1.3-.2z"/><path d="m110.3 14.3-.2-.7c.6-.1 1.8-.3 2-1.6-.3.2-.6.3-1.1.3s-.9-.1-1.1-.4-.4-.7-.4-1.2.2-1 .5-1.3.8-.5 1.4-.5 1 .2 1.3.6.4 1 .4 1.7c0 1.9-.9 2.9-2.8 3.1zm.3-3.7c0 .6.2 1 .6 1 .5 0 .9-.2 1-.3v-.2c0-1-.2-1.5-.8-1.5-.8 0-.8.8-.8 1z"/><path d="m118.8 9v.6l-1.9 4.6h-1l1.9-4.4h-1.5c-.1 0-.2 0-.2.2v.3l-.8-.1v-1.2z"/><path d="m120.9 12.9c0-.6.3-1.1 1-1.5-.6-.3-.8-.7-.8-1.2 0-.9.8-1.3 1.7-1.3 1.4 0 1.5.9 1.5 1.2 0 .4-.3.8-.8 1.3.7.4 1 .8 1 1.4 0 .4-.1 1.5-1.8 1.5-1.6 0-1.8-1.1-1.8-1.4zm1.8.7c.5 0 .8-.4.8-.8 0-.6-.5-.8-.9-1-.4.3-.7.5-.7 1s.4.8.8.8zm.7-3.5c0-.5-.3-.5-.6-.5s-.7.2-.7.6c0 .3.2.6.7.8.4-.2.6-.6.6-.9z"/><path d="m56 94.4c0 1.5.5 2.6 2 2.6.7 0 .9-.3.9-.4v-.8l1 .1v1.6c-.5.2-1.2.4-2 .4-2 0-3.2-1.1-3.2-3.4 0-2.6 1.6-3.5 3.2-3.5.6 0 1.4.1 1.9.4v1.6l-1 .1v-.7c0-.4-.3-.4-.8-.4-1.3.1-2 .9-2 2.4z"/><path d="m62.6 94.6c0-2.6 1.6-3.5 3-3.5 1.5 0 2.8.9 2.8 3.5 0 2.3-1 3.4-2.8 3.4s-3-1.1-3-3.4zm4.6 0c0-1-.3-2.5-1.6-2.5-1.2 0-1.7 1.3-1.7 2.5 0 1.1.3 2.4 1.7 2.4 1.3 0 1.6-1.2 1.6-2.4z"/><path d="m75 95.7 1.7-4.5h2v.8c-.6 0-.5.1-.5.3l.3 4.7.5.1v.8h-2.3v-.8c.4 0 .6 0 .6-.4l-.2-3.7-1.7 4.1h-.9l-1.5-4.1h-.1l-.2 4 .5.1v.8h-2.2v-.8c.6 0 .6-.2.6-.4l.3-4.7h-.5v-.8h2z"/><path d="m85.7 94.3c.8.2 1.3.7 1.3 1.6 0 1.3-.9 2-2.5 2h-2.7v-.8c.5 0 .5-.1.5-.3v-4.8h-.5v-.8h2.8c1.1 0 2.1.4 2.1 1.6 0 .8-.4 1.3-1 1.5zm-1.4-.3c.9 0 1.2-.4 1.2-1.1s-.5-.9-1.2-.9h-.8v2zm-.8 3h1c1 0 1.3-.5 1.3-1.1 0-.7-.5-1.1-1.3-1.1h-1z"/><path d="m89.5 97.1c.5 0 .5-.1.6-.3l1.6-4.8-.5-.1v-.8h2.2l2.1 5.9.5.1v.7h-2.4v-.7c.5 0 .6-.1.5-.4l-.3-.8h-2.3l-.3 1.1.5.1v.7h-2.2zm2.2-2h1.9l-.9-2.8z"/><path d="m98.7 92.1c-.2 0-.3.1-.3.2v.6l-.9-.1v-1.6h5.4v1.6l-1 .1v-.6c0-.2-.1-.3-.3-.3h-.8v5l.7.1v.7h-2.7v-.7c.8 0 .8-.2.8-.4v-4.6z"/><path d="m113.8 95.2-.6-.1v-.7h2.3v.7c-.5 0-.5.3-.5.4v1.9c-.6.4-1.4.6-2.3.6-1.9 0-3-1.1-3-3.4 0-2.6 1.6-3.5 3.3-3.5.8 0 1.5.2 2 .4v1.5l-1 .1v-.7c0-.3-.5-.3-1-.3-1.4 0-2 .9-2 2.4 0 1.6.5 2.5 1.8 2.5.4 0 .8-.1 1-.2z"/><path d="m118.3 97.1c.6-.1.6-.2.6-.4v-4.7l-.6-.1v-.7h4.6v1.5l-1 .1v-.5c0-.2-.1-.3-.3-.3h-1.5v2h2.4v.9h-2.4v2h1.6c.2 0 .3-.1.3-.3v-.5l1 .1v1.6h-4.7z"/><path d="m125.5 97.1c.5 0 .5-.1.6-.3l1.6-4.8-.5-.1v-.8h2.2l2.1 5.9.5.1v.7h-2.4v-.7c.5 0 .6-.1.5-.4l-.3-.8h-2.3l-.3 1.1.5.1v.7h-2.2zm2.2-2h1.9l-.9-2.8z"/><path d="m134.5 97.1c.5-.1.5-.1.5-.3v-4.8l-.5-.1v-.7h2.8c1.5 0 2.4.5 2.4 1.8 0 1.1-.6 1.6-1.3 1.8.4.1.4.4.6.7l.8 1.6.5.1v.7h-2.3v-.8c.6-.1.6-.1.5-.3l-.6-1.1c-.2-.3-.3-.5-.8-.5h-.9v1.8l.5.1v.8h-2.2zm2.7-2.7c.7 0 1.3-.4 1.3-1.2 0-.9-.5-1.1-1.5-1.1h-.7v2.3z"/></g></svg>