<svg viewBox="0 0 586 100" xmlns="http://www.w3.org/2000/svg" xmlns:xlink="http://www.w3.org/1999/xlink"><g id="figure" transform="scale(.1)"><path d="m431 202v286h-88.1c-1.9-105.4-37.3-188.8-46.2-188.8l-11.3 7.6s39.3 56.6 43.3 181.2h-170.7v16h171c.7 124-37.1 196.9-40.4 197.5l11.3 9c5.9-.3 41.8-72.7 43-206.5h88.1v287.7h16v-287.7h84.5c1.2 133.8 37.1 206.2 43 206.5l11.3-9c-3.3-.6-41.1-73.5-40.4-197.5h174.6v-16h-174.3c4-124.6 43.3-181.2 43.3-181.2l-11.3-7.6c-8.9 0-44.3 83.4-46.2 188.8h-84.5v-286z"/><path d="m145.7 192.9-22.6 33c-13-4.5-16.8-3.7-25.2 7.4-7.7 11.3-20 22.8-5.3 33.3 9.6 6.6 14.1 1.3 21.8-8.3 9.8-12.1 19.2-24 30.2-34.9 22.3-22.2 39.6-10.4 64 7.6 9.2 6.8 15.3 16.7 15.2 28-1.4 25.5-36.4 92.2-71.7 92.3-12.9 0-24-6.2-34-14.2l22.1-32.7c15.6 5.9 20.5 2.6 30-10.9 13.3-18.9 14.9-23.9 8-30.6-10.2-10.2-16-8-24.2 2.3-9.5 11.6-18.2 24.1-28.6 34.8-12.4 14.6-27.6 19-46.6 9.3-18.4-9.4-35.1-23.3-35.1-44 0-21 40.1-88.4 68.1-88.2 10.7.1 24.9 7.2 33.9 15.8z"/><path d="m362 20 33.3 95.8c3.9 11.1 7.4 22.7 7.1 34.6-.4 12.6-7.4 23.7-17.7 30.9-20.3 14.1-60.3 26.1-79.4 26.2-14.4.1-24.1-4-32-19.5-6.3-12.4-10.2-25.4-14.6-38.5l-28.4-84.8 40.6-13.8 33.2 97.7c2.9 8.7 7.7 18.5 18.3 16.9 6.8-1.1 13.5-3.6 20.1-5.9 18.5-6.6 17.1-13.9 13-26.2l-33.9-100.4z"/><path d="m467.9 175.2 40.5 13.3 14.7-39.1 27.3 9.3c9.2 3.1 19.1 9.2 16.2 18.4l-9.4 30.4 40.4 13.6 10.6-29.8c6.9-19.5-1.2-31-17.2-39 9.3-.2 17.5 1 26-3.6 14-7.6 26.3-45.4 24.6-63.6-1.1-11.6-8.3-19.7-17.8-25.5-32.2-16.3-67.4-26.3-101.5-38.1zm82.6-103.1 22.3 7.4c12.9 4.3 25.6 6.9 20.6 23.2-2 6.5-3.8 14-8.1 19.3-7.9 9.7-23.4.2-32.5-3.4l-16.6-6.6z"/><path d="m771.7 163.1 68.3 96.3-29.3 20.8-43-59.1-23.2 16.4 39.4 56.9-24.7 16.7-40-55.4-25.4 17.8 43.2 60.9-29.1 20.7-69.4-96.4z"/><path d="m202 710c0 17.2-7.4 28.9-31.1 39.1l-20-40.1c11.6-10.4 11.2-13.7 4.6-27.3-3.8-7.9-8-17.3-14.5-23.3-7.9-7.4-21.9 3.6-21.4 9.7 1.3 16.6 34.8 65.4 24 92.5-6.5 16.4-39.2 29.7-52.3 29.7-35 0-71.3-82.2-71.3-108.2 0-19.2 15.2-31.5 31.1-39.2l20.6 40.6c-4.9 4.3-11.9 7.5-10.7 15.2 1 6.7 13.2 36.9 23.5 42.1 6.1 3.1 23-5.7 20.6-13.8-7-23.6-28.6-56-25.9-82.9 2.2-22.4 39.4-37.3 55.3-37.3 35.2 0 67.5 85.6 67.5 103.2z"/><path d="m262 771.7 43.9 16.9-21.1 57.4 57 22.9 22.5-57.5 44.2 16.9-58.1 151.7-44.2-16.3 21.9-60.2-56.8-21.8-23.4 59.2-44.4-16.9z"/><path d="m509.9 812.8c-17 9.7-29.2 25.1-29.1 44.6.1 24.9 13.5 47.6 22.4 70.3 12.3 31.6 33.7 36.8 46.5 36.8 25.5 0 59.9-15 73.3-21.6 36.8-18 38.9-38.4 39.1-49.4.5-18.3-8.4-35-14.8-51.7-10.9-28.5-20.4-55.7-54.1-55.6-35.8.1-76.6 22.8-83.3 26.6zm70.8 14.9c6 1.5 10.6 7.6 12.9 13 8.1 19.2 13.4 33.6 19.1 52.3 1.9 6.2-2.4 11.5-7.6 15-3.4 2.3-31.5 17.8-44.4 13.6-4.3-1.4-7.7-5.5-9.9-9.2-5.5-9.3-18.6-44.3-20.2-50.1-1.7-5.9-1-12.1 3.3-16.7 8.2-8.7 37.5-20.2 46.8-17.9z"/><path d="m753.7 628.8-22.8 42.2 108.3 61.6-23.5 42.7-108.7-61.7-22.5 40.7-33.4-19.6 69.2-125.5z"/></g><g><path id="a" d="m126.2 21.1c6.9 0 17.8.2 21.5 5.3 2.5 3.5 2.3 7.6 2.5 11.7h-11.6c-.6-2.6-.5-6.8-3.6-7.6-4.2-1.1-8.9-1.2-14.2-.6-2.3.3-5.5.6-6.7 3-1.3 2.6-1.1 6.1-.2 8.8 1.7 5 16.7 1.9 29.2 5.2 3.5.9 8.5 2.4 8.5 13.9 0 12.8-2.4 18.1-25.7 18.1-9.2 0-18-.1-22.3-5.5-2.8-3.6-2.6-8.8-2.8-13.1h11.6c.4 2.6-.1 7.5 2.6 8.7 4.5 2 19.8 2.2 22.9-.5 2.5-2.2 2.2-7.2 1.5-10.2-1.4-6.1-15.6-2.6-29.4-6-8.4-2.1-8.8-8.1-8.9-14.7 0-12.6 5-16.5 25.1-16.5z"/><path d="m171.9 21.7v39.5c0 6.5 4.2 8.4 13.3 8.4 11.4-.1 15.1-1.7 15.1-8.4v-39.5h12v37.5c0 15.1-4 19.7-27.1 19.6-22.2 0-25.3-5-25.3-19.6v-37.5z"/><path d="m223.3 21.6v56.7h11.9v-19.1h16.7c5.9 0 9.8 2.5 9.9 7.2v11.9h12.1v-13.3c.2-6.9-4.4-9.7-10.8-10.5 10.7-1.6 11.3-6.7 11.4-14.9 0-8.3-.3-18-18.5-18zm28.6 9c7.4 0 10.7.8 10.6 8.6-.1 9.6-3.2 10.9-10.6 10.9h-16.7v-19.5z"/><path d="m325.8 21.6v9h-31.1v14.7h29.5v7.9h-29.5v16.1h31.4v9h-43.3v-56.7z"/><use transform="translate(254.9)" xlink:href="#a"/><path d="m503.7 21.1c-23.4 0-27.5 4.8-27.6 28.9-.1 25 5.4 28.9 27.6 28.9 24.8 0 28.5-4.8 28.5-28.9 0-27.2-7.5-28.9-28.5-28.9zm16.5 28.9c0 19.3-3 19.7-16.5 19.6-14.8-.1-15.7-2.1-15.5-19.6.2-17.9.6-19.7 15.5-19.7 16.2 0 16.5 2.3 16.5 19.7z"/><path d="m414.7 21.6h12v23.2h29.4v-23.2h12v56.7h-12v-24.5h-29.4v24.5h-12z"/><path d="m584 21.6v9.7h-18.9v47h-11.9v-47h-18.1v-9.7z"/></g></svg>