<svg viewBox="0 0 278 100" xmlns="http://www.w3.org/2000/svg" xmlns:xlink="http://www.w3.org/1999/xlink"><g><path d="m119.9 28.9c-.1.1-.1.2-.1.3 0 .3.3.6.6.6h37.3c.3 0 .5-.3.5-.6 0-.1 0-.2-.1-.3l-18.6-26.7c-.1-.1-.3-.2-.5-.2s-.4 0-.5.2z"/><path d="m12.7 65.2c0-4.2 6.4-5.2 10.1-5.2 6.4 0 10.1 2.8 11.3 4.1l.8.8c.2.2.5.3.8.1l5.9-4.2c.3-.2.4-.7.1-1-3.5-3.6-8.7-7.3-18.3-7.3-12.9 0-19.8 6.5-19.8 14.2 0 5.8 5.4 10 17.1 11 11.4 1 13.9 3.5 13.9 6.7s-3.2 5.6-10.3 5.6-11.1-1.3-13.8-3.7c-.4-.3-.7-.7-1-1.1-.2-.2-.5-.3-.8-.1l-6.4 4.2c-.2.1-.3.3-.3.5 0 .1.1.4.2.5l.8 1s5.3 6.7 19.2 6.7 21.6-6.4 21.6-14.8c0-7.5-7.3-10.9-15.7-12-13.4-1.8-15.4-3.1-15.4-6z"/><path id="a" d="m68.7 98c-10.4 0-18.7-4.8-18.7-14.7v-28.9c0-.3.3-.7.6-.7h7.8c.3 0 .7.4.7.7v27.2s-.4 8.4 9.5 8.4h1.4c9.9 0 9.5-8.4 9.5-8.4v-27.2c0-.3.3-.7.6-.7h7.8c.3 0 .6.4.6.7v28.9c0 9.9-8.1 14.7-18.5 14.7z" stroke-width=".7"/><use transform="matrix(1 0 0 1 46.4 0)" xlink:href="#a"/><path d="m152 54.1c-.2-.2-.4-.4-.7-.4h-7.8c-.3 0-.7.4-.7.7v41.8c0 .3.3.7.6.7h7.9c.3 0 .6-.4.6-.7v-27.3c0-.3.4-.4.6-.2l20 27.8c.2.2.4.4.7.4h7.5c.3 0 .6-.4.6-.7v-41.8c0-.3-.3-.7-.6-.7h-7.8c-.3 0-.6.4-.6.7v26.3c0 .3-.4.5-.6.3z"/><path d="m201.9 62c.3 0 .6.3.6.6v33.5c0 .3.3.6.6.6h7.7c.3 0 .7-.3.7-.6v-33.5c0-.3.3-.6.6-.6h13.4c.3 0 .6-.3.6-.6v-7c0-.3-.3-.7-.6-.7h-37c-.3 0-.6.4-.6.7v7c0 .3.3.6.6.6z"/><path d="m227.9 75.2c0 12.9 10.3 22.8 24.1 22.8s24-9.9 24-22.8-10.2-22.7-24-22.7-24.1 9.8-24.1 22.7zm9.7 0c0-9.1 5.7-14.7 14.4-14.7s14.4 5.6 14.4 14.7-5.7 14.8-14.4 14.8-14.4-5.7-14.4-14.8z"/></g></svg>