<svg viewBox="0 0 158 100" xmlns="http://www.w3.org/2000/svg"><defs><mask id="m"><path d="m49.1 1.9v59.8h59.8v-59.8z" fill="#fff"/><path d="m73.1 12.6c-2.6 0-4.7 2.1-4.7 4.7s2.1 4.7 4.7 4.7 4.7-2.1 4.7-4.7-2.1-4.7-4.7-4.7zm18.4 5.9c-5.5 0-22.2 7-22.2 13.8 0 5.4 10.5 9.2 10.5 11.4 0 2.1-3.9 7.1-6.2 10 3.1-.3 13.5-7.2 13.5-12.5 0-3.4-9.8-8.5-9.8-10.8.1-4.5 12-11 14.2-11.9z"/></mask></defs><g id="figure"><path d="m16.7 72.6c9.1 0 12.5 1.3 12.5 6.5 0 .5-.3.5-.4.5h-2.3c.1-4.3-1.8-4.7-9.8-4.8s-11.7.6-11.7 4.5c0 4.3 2.2 4.6 5.8 4.7 4.6.1 8.6.1 13.2.1 5.9 0 6.1 5.3 6.1 6.6 0 6.6-4 7.3-15.9 7.3-6.7 0-9.9-.5-11.3-2.6-.7-1.1-.9-2.6-.9-5h2.8c0 1.7 0 2.9.6 3.7 1.2 1.6 5.1 1.5 8.7 1.5 12.5 0 13-.9 13-4.9 0-3-.9-4.2-5.3-4.2h-9.3c-6.1 0-10.5-.6-10.5-7 0-5.9 4.3-6.9 14.7-6.9z"/><path d="m31.6 79.9h3.1l8.6 15.3c.1.2.5.2.6 0l8.7-15.3h3.1l-10.2 17.5c-.1.3-.4.3-.6.3h-2.6c-.5 0-.5-.1-.7-.5z"/><path d="m68.9 98c2.5 0 7.1 0 9.2-2.2.9-.9 1.3-2.2 1.3-3.5h-2.8c0 .8-.2 1.7-.9 2.2-1.3 1.1-3.3 1-6.8 1-7.5-.1-9.4-.4-9.4-6.2h19.9c0-8.1-2.6-9.7-10.2-9.7s-12.7.2-12.7 8.8 3.6 9.6 12.4 9.6zm7.5-11h-16.8c.7-5.8 4.6-4.9 8.8-4.9s7.7 0 8 4.9z"/><path d="m86.1 74.3v23.4h-2.4c-.3 0-.3-.3-.3-.5v-22.5c0-.2.2-.4.3-.4z"/><path d="m90.3 74.3h2.6v5.6h12.3c.1 0 .3.2.3.3v1.7c0 .1-.2.3-.3.3h-12.3l.1 10.7c0 2.4 2.7 2.5 4.7 2.6 2.6 0 4.7.1 5.2-1.9.3-1.2.2-2.6.2-3.9h2.7c0 1.7 0 3.8-.5 5.2-1.1 2.9-5.3 3.1-7.4 3.1-7.4 0-7.6-3.5-7.6-5.8z"/><path d="m109 79.9h2.4v11.2c.2 4.1 3.6 4.4 6.9 4.4 4.9 0 9.3-.1 9.3-5.1v-10.2c0-.2.1-.3.3-.3h2.4v17.8h-2.5c-.2 0-.2-.2-.2-.4v-2.4c-.4.6-.9 1-1.4 1.4-1.3 1-2.9 1.7-7.9 1.7-7.8 0-9.6-2.2-9.6-7.8v-10.1c0-.1.2-.2.3-.2z"/><path d="m145.4 79.6c4.5 0 10 .2 10 5 0 .2 0 .7-.3.7h-2.5c0-.8 0-1.6-.6-2.1-1.8-1.4-4.4-1.2-6.6-1.2-4.2 0-8.8-.5-8.8 2.9 0 1.5.5 2.3 3.1 2.4 4.1.2 6.8.1 9.2.2 5.7.2 7.1 1.7 7.1 5.4 0 4.8-3.4 5.1-11.3 5.1-5.5 0-8.7-.1-10.3-2.1-.9-1.1-1-2.4-1-4.4h3c0 .9-.2 2.3.5 3 .9 1 2.9 1 7.8 1 7.6 0 8.4 0 8.4-3.2 0-2-1.7-2.4-3.4-2.4-3.6-.1-7.1-.1-10.7-.2-3.1-.1-5.2-1.2-5.2-4.9 0-5 4.6-5.2 11.6-5.2z"/><path d="m79 2a29.8 29.8 0 00-29.8 29.8 29.8 29.8 0 0029.8 29.8 29.8 29.8 0 0029.8-29.8 29.8 29.8 0 00-29.8-29.8z" mask="url(#m)"/></g></svg>