<svg viewBox="0 0 600 100" xmlns="http://www.w3.org/2000/svg"><g id="figure"><path d="m68.8 54.4c9.4 9.1 10.6 16.6 10.7 23.2 0 11.2-9.1 20.4-20.2 20.4-11.3 0-20.3-9.2-20.3-20.3h4.6c0 8.8 7.4 15.7 15.7 15.7 8.5 0 15.6-7.2 15.6-15.7.1-5.7-1.9-11.1-5.3-15.6-7.1-9.1-17.7-13.9-24.8-23-3.8-4.9-5.7-10.7-5.8-16.8 0-11.8 9.7-20.3 20.3-20.3 11.8 0 20.2 9.7 20.2 20.2h-4.6c0-8.1-6.9-15.6-15.6-15.6-8.4 0-15.7 7-15.7 15.6 0 2.5-.2 11.4 11.9 21.1"/><path d="m198 2.6-18.5 47.5v47.2h-4.6v-47.2l-18.5-47.5h5l15.7 40.6 15.9-40.6z"/><path d="m313.8 2.6v94.7h-4.6l-29.6-82v82h-4.7v-94.7h4.6l29.7 81.8v-81.8z"/><path d="m429.5 77.7h4.6c0 10.6-8.5 20.3-20.1 20.3-11 0-20.4-8.9-20.4-20.3v-55.4c0-11.1 9.1-20.3 20.4-20.3s20.1 9.1 20.1 20.2h-4.6c0-8.5-7.1-15.6-15.5-15.6-8.5 0-15.7 7.1-15.7 15.6v55.4c0 8.8 7.3 15.8 15.7 15.8 8.9 0 15.5-7.6 15.5-15.7z"/><path d="m536 6.3-20.2 91h-4.8l21-94.7h8l21 94.7h-4.8z"/></g></svg>