<svg viewBox="0 0 264 100" xmlns="http://www.w3.org/2000/svg" xmlns:xlink="http://www.w3.org/1999/xlink"><g transform="scale(.1)"><path id="a" d="m449.7 46.7c0-14.7-12-26.7-26.8-26.7h-376c-14.8 0-26.9 12-26.9 26.7v97.3c0 14.6 12.1 26.7 26.9 26.7h98.9v462c0 14.7 12.2 26.6 27 26.6h124.2c14.9 0 26.9-11.9 26.9-26.6v-462h98.9c14.8 0 26.9-12.1 26.9-26.7z"/><path id="b" d="m750.7 44c-3.6-14.1-16.3-24-31-24h-149.2c-14.6 0-27.4 9.9-31 24l-146.5 579.9c-4.5 17.9 9.1 35.4 27.8 35.4h102.9c15.4 0 28.6-10.8 31.4-25.8l17.4-91.8h145.2l17.4 91.8c2.8 15 16 25.8 31.4 25.8h102.9c18.7 0 32.4-17.5 27.9-35.4zm-157.9 391.2 52.3-275.9 52.4 275.9z"/><path d="m1296.7 20c-17.4 0-31.7 14.1-31.7 31.4v260.7l-128-263.8c-7.5-15.5-27.9-28.3-45.3-28.3h-125.9c-17.4 0-31.6 14.1-31.6 31.4v576.5c0 17.3 14.2 31.4 31.6 31.4h112.5c17.4 0 31.6-14.1 31.6-31.4v-259.5l123.8 262.5c7.4 15.6 27.6 28.4 45 28.4h130.3c17.4 0 31.7-14.1 31.7-31.4v-576.5c0-17.3-14.3-31.4-31.7-31.4zm88.1 552.3c0 17.5-14.3 31.6-31.9 31.6h-49.9c-12.3 0-23.5-7.3-28.9-18.3l-204.9-422c-1.4-2.8-4.2-4.5-7.2-4.5-4.2 0-8 3.3-8 7.9v405.3c0 17.5-14.3 31.6-31.9 31.6s-32-14.1-32-31.6v-465.3c0-17.5 14.3-31.6 31.9-31.6h46c12.2 0 23.4 7.1 28.8 17.9l209 416.7c1.4 2.7 4.1 4.4 7.1 4.4 4.1 0 8-3.3 8-7.9v-399.5c0-17.5 14.3-31.6 31.9-31.6s32 14.1 32 31.6z"/><path d="m1547.9 20c-17.4 0-31.5 14.1-31.5 31.4v576.5c0 17.3 14.1 31.4 31.5 31.4h112.5c17.4 0 31.6-14.1 31.6-31.4v-576.5c0-17.3-14.2-31.4-31.6-31.4zm88.2 552.3c0 17.4-14.3 31.6-31.9 31.6s-32-14.2-32-31.6v-465.3c0-17.4 14.4-31.6 32-31.6s32 14.2 32 31.6z"/><use transform="translate(1721.9)" xlink:href="#a"/><use transform="translate(1721.9)" xlink:href="#b"/><path id="c" d="m116.2 870h-58.8v66.3h-22.4v-151.7h22.4v65h58.8v-65h22.5v151.7h-22.5z"/><path id="d" d="m184.1 890.5c0 19.1 12.9 26.7 25.2 26.7 8.6 0 16.3-3.5 23.1-10.5l15.4 13.4c-10.8 11.8-23.5 17.4-38.1 17.4-26.7 0-46.8-17.1-46.8-54.9 0-53.2 35.9-55.8 43.5-55.7 21.3.2 43.5 14.6 43.5 45.7v17.9zm44.6-17.9c-.3-8.2-3.1-25.3-22.3-25.3-8.5 0-21.3 3.6-22.3 25.3z"/><path id="e" d="m331.1 926.7h-.4c-4.4 8.2-13.9 10.8-26 10.8-25.3 0-37.4-16.5-37.4-32.9 0-15.2 9.4-32 34.4-32h29.4v-11.4c0-9.6-7.1-14.1-21.7-13.9-9.9.1-15.9 1.4-20 8.4l-16.7-13c8.1-10.8 20-15.8 35.7-15.8 38.6.1 43.9 19.2 43.9 35.3v74.1h-21.2zm0-36.2h-25.5c-12.4 0-18.4 4.6-18.3 13 .1 12.8 16.4 13.7 19.9 13.7 19.7.2 23.9-4 23.9-18.9z"/><path d="m383.2 784.6h21.2v123.9c0 4.9 2.6 7.4 7.9 7.4h7.4v20.4h-9.5c-10.6 0-27-3.6-27-26.1z"/><path id="f" d="m444.2 795.4h21.2v32.9h15.4v16.6h-15.1l-.3 62.9c0 5.5 2.3 8.1 7.5 8.1h7.9v20.4h-11.1c-11.6 0-25.5-6.8-25.5-26.6v-64.8h-10.7v-16.6h10.7z"/><path d="m506.9 784.6h21.2v55.1h.4c7-8.5 16.2-12.8 27.5-12.8 8.3 0 35.2 5.5 35.2 37.6v71.8h-21.2v-64.4c0-18.2-11.9-23.3-20.8-23.3-8.8 0-21.1 5-21.1 23.3v64.4h-21.2z"/><path d="m607.2 828.3h22.5l25 75.6h.4l24.9-75.6h22.5l-45.4 130.4c-5.3 15.2-15.2 21.3-29.8 21.3h-7v-20.4h6.3c2.2 0 9.8-.7 12.6-9.4l5.8-18.1z"/><use transform="translate(736.1)" xlink:href="#c"/><use transform="translate(628.7)" xlink:href="#e"/><path d="m1011.8 784.6h21.2v55.1c7.3-7.2 16.5-13 27.2-12.8 13.8.3 22.1 5.3 28.4 14.2 5.7 8 7.5 12.9 7.5 41.1 0 25.7-1.7 33.8-7.5 41.3-8.8 11.4-18.9 14.1-28.4 14-11.1-.1-20.2-4.4-27.2-12.5v11.3h-21.2zm24.3 74.9c-3.9 11.2-4.1 35.2 0 45.3 5.7 14.2 29.2 15.5 35.8.5 3.9-8.9 4.5-34.1.1-46.4-5.1-14.1-30.8-13.9-35.9.6z"/><path id="g" d="m1119.7 784.6h21.2v21.6h-21.2zm0 43.7h21.2v108h-21.2z"/><use transform="translate(732)" xlink:href="#f"/><path id="h" d="m1237.8 903.3c8.6 9.2 19.7 13.9 33.4 13.9 10.7 0 20.8-4.2 20.8-13.9.2-7.8-6.2-10.1-12.9-10.7l-18.8-1.7c-14.2-1.3-30.4-9.8-30.4-30.7 0-26.1 22.7-33.3 39.4-33.3 9.7 0 25.6.7 41.5 14.8l-13.1 15.7c-12.8-9.4-21.7-10.1-28.5-10.1-9-.3-17.6 3.2-18.1 13.1-.2 7.9 10 9.9 13.9 10.2l17.6 1.3c15.8 1.2 30.8 8.6 30.6 32.4s-23 33.2-43.7 33.3c-17.2.1-32.7-6.5-46.5-19.4z"/><path d="m1392.6 844.9h-10.7v-16.6h10.7v-14.3c0-25.6 18.1-29.4 28.8-29.4h13.7v20.4h-12.1c-6.4 0-9.2 2.8-9.2 9v14.3h21.3v16.6h-21.3v91.4h-21.2z"/><path d="m1455.3 840.8c11.5-12.9 24.3-13.9 32-13.9 16.1 0 24.2 5.2 32.1 13.9s11.4 16.2 11.4 41.4c0 22.2-2.8 32.1-11.5 41.5-10.9 11.7-22.7 13.8-32 13.8-18.6 0-29.4-10.8-32-13.8-9.4-10.7-11.5-22.3-11.5-41.5 0-22.1 2.9-31.8 11.5-41.4zm49.1 15.7c-2.2-2.9-7.3-7.9-17.1-7.9-2.5 0-11.7.5-17.1 7.9-4.2 5.7-5.3 12.7-5.3 25.7 0 9.7.6 19.8 5.3 25.9.5.7 6.2 7.8 17.1 7.8 10.4 0 15.8-6.1 17.1-7.8 3.9-5.2 5.2-10.4 5.2-25.7 0-16.9-1.3-20.6-5.2-25.9z"/><path d="m1556.5 828.3h21.2v11.5h.5c7-8.5 16.1-13 27.4-12.9 8.5.1 15.9 2.9 22.2 8.3l-15.5 18.8c-4.5-3.6-9.1-5.4-13.9-5.4-2.5 0-20.7 1.3-20.7 22.6v65.1h-21.2z"/><use transform="translate(1658.5)" xlink:href="#c"/><use transform="translate(1555.3)" xlink:href="#e"/><path id="i" d="m1934.1 828.3h21.2v11.2c7.1-8 16.2-12.6 27.3-12.6 12.9 0 22 5.3 28.3 14.2 5.7 8 7.5 13.5 7.5 41.3 0 25.7-1.6 33.3-7.5 41.1-6.1 8.1-15 13.9-28.3 14s-24.4-9.7-27.3-12.6v55.1h-21.2zm60.2 77c3.3-7.2 2.8-15.2 2.9-22.9.1-8.3.1-15.9-2.9-23.5-3.4-8.6-10.4-10.3-18.1-10.3-11.5 0-16.3 6.7-18 10.9-2.4 5.8-2.9 13.2-2.9 22.9 0 8 .8 16.4 3.2 22.4 1.5 3.6 5.9 11.1 17.7 11.1 7.9.2 14.9-3.2 18.1-10.6z"/><use transform="translate(107.3)" xlink:href="#i"/><use transform="translate(1034)" xlink:href="#g"/><path d="m2204.6 828.3h21.2v11.5h.4c7-8.5 16.1-12.9 27.4-12.9 13.1 0 35.3 9.2 35.3 37.6v71.8h-21.2v-64.4c0-17.8-11.4-23.3-20.8-23.3-9.2 0-21.1 5.4-21.1 23.3v64.4h-21.2z"/><use transform="translate(2147.7)" xlink:href="#d"/><use transform="translate(1188.6)" xlink:href="#h"/><use transform="translate(1291.8)" xlink:href="#h"/></g></svg>