<svg viewBox="0 0 498 100" xmlns="http://www.w3.org/2000/svg" xmlns:xlink="http://www.w3.org/1999/xlink"><g id="figure" transform="scale(.1)"><path d="m20 49 437.5.2.2 63.6-183.8-1.3.3 572.8-70.7-.6 1-572-183.9 1.2-.6-63.9z"/><path d="m562.5 49.7h318.7l-.2 63.3-247.8-1.3-1.3 218.2 231.2-1.2-.2 64-229.7-1.6-1.6 230.4 264.4-1.5.3 64.2-333.9.3v-634.9z"/><path d="m1451 62.2 1.7 80.2c-48.3-33.5-104.5-41.7-162.2-40.6-135.8 2.8-230.2 112.3-235.1 245.7-8.6 231.7 139.1 273.2 182.6 280.4 71.5 11.8 154.8 2.1 215.5-39.9l-2.7 72.1c-52.9 22.7-110 34.1-167.2 34.1-220.6 0-301.8-162.6-302-319.8-.3-177.6 118.8-334.9 319-335 51.5 0 103.6 7.9 150.4 23z"/><path d="m2465.3 108.9c-13.7-19.2-50.2-29-76.3-39.3-36.1 2.3-66.1-23.5-103.2-6.2-22.8 14.9-45.8-4.9-71.3 1.2-32.8.7-64.2 9.8-96.4 14.3-22-4.4-42.8 5.9-65 8.1-29.5-1.1-52.4 25.2-82.7 19.6-10 15.4-33 4.8-43.4 18.7-34.1 24.2-82.7 33.2-94.6 67.9-11.7 10.7-5.3 27.4-20.2 32.9-1.7 17.5-5.5 38 7.3 53.3 3.6 8.7 1.9 19.5 16 26.9 18.5 8.6 34.6 19.5 49.9 31.1 23.1 8.5 45.5 18.1 66.7 28.4 16.6 3.8 35.4 3.5 49.3 12.3 12.4-.7 27.9 5.7 34 15 18.8-4.8 23.7 11.9 38.3 12.7 14.4 1.4 29.7 5.1 43.3 4.7 10.5 11.7 30.2 11.8 43.9 18.8 11.2 15.3 41.8 8.9 54.5 23.7 10.4 12.1 27.6 15.2 44.6 18.7 20.7 16.4 38.3 36 39.7 59.8 3.2 7.3-7.9 32.6-28.1 31.5-11 18.6-42 28.2-69.2 32.4-8.2 10.9-24.6 11.3-33 21.1-21.5 1.6-45.5 4.7-64.5 14.7-17.6 1-36.9 4.4-50.9 12.3-29.3 10.3-70.2 3.2-104 9-23-3.6-48.2-.3-71.2 2.8-14 6.6-29.1 7.5-44.9 5.1-31.9-3-64.9-1.8-95.8-8.1-11.7-12.1-25.2 4.6-33.5-12.3-14.7-3.3-34.5-.4-41.1-13.8-11.1-16-40-12-56.3-23.6-26.5-11.8-25.1-40.3-2.3-53.9 4.8-10.7 12.9-18.1 27-23 30-16.4-12.6-27.3-30-11-16.4 2.2-20.4 17-33 20.5-15.5 5 9.6 20.9-3.8 29.3-12.2 14.8 1 32.5 11 46.2 4.2 15.1 24.3 19.4 36.8 29.5 18.1-.7 21.6 13.4 32.5 20.8 27.9-3.9 32.4 3.6 51.1 16.8 16.5-9.9 24.5 5.4 39.9 3.3 13.8-3.4 30 12.7 40.5 5.7 9.2 1.7 24.2 8.8 37.9 5 19.8-5.7 39.7-3.1 59.7.4 5.2 11.6 35.4-13.7 52.5-4.9 12.4 4.9 25.7 1.2 40.7 3.6 14.8 6 28.3-3.1 42.7 1.7 8.4-10.1 21.6-.5 31.9-10.7 15.3-7.2 32-9.1 49.6-7.8 24.5.2 47.9-9 67.8-19.6 16.8-3.2 35.7-5.7 49.7-12.8 15.2.3 34.8-2.2 40.4-14.9 29.6-3.5 59.7-11.4 68-34.7 21.6 6.7 6.6-16.5 16.3-23.8 11.2-8.6 18.1-18.8 18.4-31.3 2.2-12.2 9.4-25-2.9-35.3-17.9-5.2-8.3-24.7-26.2-30.2-23.6-.8-25.2-22.2-44.7-26.8-16.1-3.6-27.3-13.5-40.1-20.6-15.3-1.5-29.4-4.3-35.5-16.6-17.4-12.2-43.3-18.5-67.6-19.1-21.6 4.7-19.8-21.6-34.8-14.9-34.4-15.1-75.3-18.3-107.8-36.8-39.4-10.4-81.1-18.2-111.4-42.3-25-14.3-38.2-56.8-11.8-74.4 10.6-4.4 12.8-19.6 28.6-22 3.6-15.4 19.9-11.1 30.5-19.3 10.7-10.7 33.3-8.3 40.4-22.2 9.4-7.8 23.7-13 35.8-17.9 25-2.2 50-4.3 74.9-6.5 4.5-14.4 26.1-6.1 33.9-16.1 14.8 1.6 30.3-3.6 43.8-.6 13.6-5.3 27-4.8 40.1-6.2 10.4-.5 26.2-.5 40.2-4.4 19.3-3.3 39.5-.8 59.2-1.6 14.3 15.5 75.5-6.5 69.2 18.3-17.1 8.6 1.7 19.5 10.3 27.3 8.7 11.9 27.6 3 41.6 4.1 18.7 2.6 15.5-11.2 33.9-13.4 21.9-2.5.5-22.1 13.4-30.5z"/><path d="m3292 74.9c-17.3-19.1-47.2-20.3-71.8-25.6-23.3-6.3-51.1 6.1-71.2-6.2-8.5 9.6-17 9.5-31 6.3-13.9-8-30.9 6.3-48.1.3-18.8 3.6-26.2-3.4-42.5 4-14.4 1.8-27.1-9.1-41.8-3.1-20.7 0-33.2 12.2-57.3 7-17.4-6.4-44 11.4-54 4-14.9-3.6-27.8 5.8-42.4 3.5-23.1.5-47.1 7.5-69.5 9-15 10.5-34.3 3.6-51.3 5.1-16.5-5-20.1 13.9-18.9 26-6.6 23.4 43.4 21.7 27.2 44.9-10.9 16.7-25.3 35.2-30.9 52.4-13.2 29.1-29.3 58.9-40 89.9-2.3 13.9-6.8 25.7-14.1 38.1 2 12.3-3.7 21.3-10.9 29.4 3.6 12.8-4.2 20.9-11.1 29.4 3.9 17.3-8.3 22.7-10.8 36-4.5 13.1 1.7 26.2-7.2 39.5-6.1 16-12.9 31.5-9.1 48.9-4.2 52.5 5 111.6 42.8 150.7 16.9 12.8 27.4 25.5 44.3 38.3 14.3-5.7 27.2 2.7 40.5 7.4 13.8-13.9 16-3.1 33.6-9.4 21.9 4.8 20.1-12.4 40.9-7.3 14.4 6.2 16-16.1 28-9.3 13.4 1.5 22.6-15.1 39.4-14.9 17.5.6 17-16.1 40.2-8.6 3.3-12.3 18.2-15.7 20.3-28.6 21.5-5.2 12.6-2.1 30.7-16.6 15.3.6 19.4-19.7 36.4-15.3 21.5-3.6 24.6-28.7 46.9-33.1 13.7-3.3 1.5-26.7 20.1-15.2 9.1-2.9-.9-26.7 11.2-26.6 5.2-11.2 20-3 27.5-12.2 10.5-13.3 8.9-18.5-8.1-13.2-22.6 8-28.1 25.6-50.8 37.7-20.4 10.6-25.4 26.6-48.1 34.7-11.6 1.2-22.6 3.5-28.6 14.7-13-1-11.8 0-23 7.4-21.8-.7-19 29.5-43.3 25.8-24.1-1.2-18.2 21.8-41.1 18.4l-34.4 6.4c-9.7 16.9-35.5 9-58.6 13.4-26.2 3.2-36.1.2-61.5 1.7-10.9 2.6-14.5-10.6-26.7-10.2-5-13.1-15.8-8.6-18.3-22-1.9-13.4-18.9-12.7-12.2-27.9-15.6-33.7-12.8-73.8-12.4-109.6 6.2-29.1 19.3-55.1 25.5-83.8-.3-33.9 34.8-30.3 58.7-26.6 27 10.4 34.8-23.9 60.8-5.9 10.5-12.7 17 .6 29.2-1.2 10.6-3.6 19.6-10.2 31.8-3.8 14-12.2 35.9-.2 48.2-13.4 10.7 2.7 21.3 1.9 31.3-.8 18.5 6.7 38-2.4 57-3.1 12.9-3.8 25.7 8.9 37.8-.1 13.2-6.6 28 .3 42 .3-3-5.5 20.2-6 24.9-.9 12.6-1.2 28.2-10.3 42.6-.4 11.1-4.9 23.4-2.1 30.5 2.1 5.3-8 19.5-6.6 29-6.8 15.7 5.6 31.5-6.4 47.7-1.4 21.1-23.8-35.9-17.9-46.7-15.1-10.4-17.7-28.1 2.8-43.5-4.1-17 5.2-21-13.8-40.1-3.3-25.6 1.8-51.5-1.3-76.8-.1-13.8-1.9-26.1-3.2-43.3-2-10.6-.4-25.3 8.7-33.1 2-14.4-1.4-48.1 2.3-70.3 4.4-26.9-3.1-61.3 4.7-92-3.7-27.6 5.9-55.6 3.8-83.9 5.7-22.3 3.2 5-25.7 3.7-36.6-5.1-13.6 12.2-17.4 11.9-30.9 1.9-15.9 19.8-22.8 21.7-38.8 14-4.3 4.5-19.8 14.3-28.3 7.5-13.1 15-27.2 22.5-40.2 15.1 5.2 15.4-11.6 19.6-21.9 10.8 8 12.6-16.9 26.4-10.6 10.2-3.7 19-3.8 29.3-10.3 16.7-12.4 38.3-1.4 55.1-4.1 10.9-1.7 23.2-19.2 32.9-10.2 17.5 20.8 20.3-13.9 44 1 16.3-1.5 32.9-14.1 48.2-5.7 11.6 5.8 21.3-11.9 33.6-5.1 20.7 4.8 41.6-20.5 60.5-1.6 11.1-3.9 22.2-10.1 33.8-4.3 13 6.5 32.1-17.8 38.3-4.2 16.6 1.7 36.1-10.1 51.4 1.2 18.7 8 38-.2 56.8-2.7z"/><path d="m3805.9 148.6c-2.1 18.3 8.3 37.7 2.5 54.9 7 13.6-6.3 24.1-2.4 37 1.5 12.8.6 24.7 5.6 38.1-11.9 10.8 4.7 26.3-7.9 35-3.3 17.3 5 48.8-8 61-13.7-6.6-48.5 5.9-62.9 3.5-19.6-.7-65.6 24.2-81.6 8.1-29.5-9.7-112.3 21.4-133.1-12.9 2-21.4 27.8-36.5 46.8-42.7 16.7 1 12.2-37.5 28.9-37.1 6.9-10.5 30.1-18.9 41.6-24.8 1-28.5 42.7-31.2 50.6-57.8 16.5-6.5 21.8-29 41.1-31.7 11.6-8.7 7.2-25.4 23.1-26.9 12.5-5.8 36.2-27.1 55.8-23.4 0 6.4-7.4 15.5 0 19.6zm177.6 223.5c-21.9-4.7-32.7 13-51.8 8-14.1-14.1-16.8 10.8-32.3 3.4-11.1 6.3-33.8-5.8-46.3-11.1-13.3-9.4-12.6-9.3-5.9-23.4.7-13.9.7-42.2-3.8-55.7 12.7-22.2 2.7-48 8.8-72.4-2.9-36.6-3.2-72.1 2.7-107.9 10.4-12.3-6.2-26.4 6.3-39.8 1.7-13-1.1-24-2.3-37.9-4-7.3-21.7-15.3-37.2-15.3-8.7 0-16.8 2.4-21.5 9 2.2 21.9-18.5 19.5-25.2 34.9-8.8 9.9-19.7 14.4-31.5 22.6-14.4 12.4-36.3 25.5-42.6 44.9-16 18.4-41.6 26.6-46.9 50.8-13 14.9-42.4 25-44.2 46.8-7.7 27.3-58.9 19.4-59.3 52-15.9-8.5-32.7 52.4-52.2 56.2-12.4 29.8-42.5 40.1-74.1 36.3-23.6-6.5-76.7 8.3-40.7 31.5 9 9.9 14.4 2.2 25.2 9.7 11 19-33.1 30.3-41.8 44.4-15.4 7.8-38.8 26.8-53 36.6-8.1 15.2-11 30.6-29.5 34.1-2.8 13.9-18.5 15-22.9 27.4-7 11.6-8.6 28.6-24.3 31.2-16.7 1-34.9 20.6-49.1 24.8-19 10.4-15.2 15.5-32.5 28.4-5.3 12.5-40.6 24.5-52.6 36.1-7.3 10.2-21.6 16-33.4 13-19.7 4.5 11.5 41 28.5 18.9 18.5-34.9 32.4-5.8 51.9-34.2 8.6-11.9 33.2-14.1 37.5-30.1 9.8-9.9 8.5 3 11.7-12 8.8-12.4 48.1-11 52-28.5 9.3-10.2 23.5-23.5 38.3-25.4 3.7-15.4 5.4-20.8 11.9-34.3 14.5-8 28.3-24.9 40.2-35 17.3-1.5 19-27.3 36.4-29.7 15.9-3.3 13.7-20.2 30.1-22.7 13.8-10.1 18.6-23.4 36.5-25.5 2.2-15.4 64.8 2 77.7-8.4 18.7 2 38.8-3 56.1 6 17.2.5 63.7-9.5 81-2.5 13.5-.8 45-15.4 58.5-16.3 4.8 21.9 28.2-3.5 41.3 2.1 11.1-10.6 49.6 8 36.4 15.9-2.2 13.1 2.2 32.5 1.7 49-2.3 13.9 7.2 27.9 1.6 40.9 8.5 4.9 4.6 26.7-8.2 30.3 11.6 8-3.4 22.1 6.1 32.4 11.4 19.6-.4 43.5 12.6 63 7.3 13.8 14.4 30.2 19 43.3-5.2 16.7 13 21.2 21.3 31.7 8 13 16.8 20.1 28.6 6.5-10.5-10.5-9-18.4-12.4-29.7-8.7-24.2-38.4-56.2-31.2-81.3 3.8-21.1-15.4-40.7-6.1-60.1 10.1-20-.1-40.9 4.7-62-.4-19.5.9-34.3-1.6-54.9 2.6-11.3.6-31.1 18.5-26.5 15.5-5.6 45.7.5 59.3-8.4 11.3-4.9 27.2 3.2 39.2-.7 10.4-20.3 42.3 11.2 39.6-20.4l-1.1-4.2z"/><path d="m4964 83c-14.3-.4-31-1.4-47.3 1.1-14.6-.2-31.7-2.5-44.7-2.4-23 21.9-44.1-14.4-66.2-1.2-21.3 6.4-48.2-6.8-62.6 3.7-10.9.5-32.1-5.4-46.7-7.1-15.1 11.3-32.2-6.1-46.3 9.7-12.1 8.9-24.9-9.1-38.7-5-11.2-18.2-10.2 10.7-27.7 5.3-12.7.5-23.3-9.3-37.5-4.5-21.9 5.2-45.9 20.5-38.7-12.6 7-21.1-16.6-5.9-22.1-20.5-1.7 19.8-33.8 19.1-17.2 41.5 5.8 19.2-9.9-2.1-20.7.6-33.4-1.2-57.5 9.9-89.9-.8-14 6.3-8.6 16.7-23.2 7.8-23.4-.6-42.8 2.6-65.5-2.2-17.4-1.4-15.8 14.4-26.1-3.4-13.7 1.2-20.7 6.9-29.4-8.3-5.7-6.9-32.4-.1-29.4 10.8-2.5 14-9.3 22.5 7.6 32.1 10 15 28.8 1.1 40 15.3 22-5.2 29.4 13.9 51.7 3.7 12.3-11.4 18.2 13.7 31.7-3.1 29.4 1.5 49.2-4.7 80.1-5.7 22.5.3 34-10.6 55.9-5.7 26.4 12.8-9.3 25.9-3.4 45 .5 21.2-18.8 32.9-14.4 54.8.7 12.4-11.9 19.8-16.3 22.9 8.1 14.8-9.3 24.6-8.7 39.6-5.6 27.3-12.3 53-25.5 77.8-10.9 2.3-.4 23.3-12.8 31.6-6.3 21-12.8 25.5-12.6 49.4-18.9 9.7-13.8 27.7-20.1 44.1-7.3 14.6-7.4 34.2-21.3 43.9-17.1 17.6-13 39.8-18.7 53.6-16.3 3.3-8.4 22.1-12.6 34.5 1.9 15.1-12.5 21.3-15 35-8.2 14.7 4.3 39-17.8 41 17.6 18-23.6 22.3-3.1 46 17 25 19.7-5.8 29.9-16.9 8.2-12.1 4.3-26.8 16.1-36.9-.7-13.9 7-25.6 10.8-37.8-.8-12.5 19.9-8 14.8-27.5 14.5-9.1 6.5-24.5 16.1-39.7 3.8-13.5 15.1-22.5 11.6-37.4 19.4-18.1 26.3-46.1 31.3-72.8 5.8-14.4 13.7-28.4 12.5-44.4 11.8-6.1 11.1-21.4 20-31.1 7.9-15.4 1.9-33.5 16-46.6 10.9-9.8 10.1-22.2 13.5-34.2 11.5-10.1.7-27.8 15.6-36.4 11.5-10.3 2.9-25.6 15.5-36 4.3-20.1 16.9-31 18.4-52.3 4.4-23.5 10.8-40.7 15.2-64.3 17.4-13.1 37.4-5.4 57.2-11.9 16-4.3 31.7 7.5 47.9 1.2 19.4-2.7 32.6-6.8 43.8-7.8 21 2.1 43 1.9 63.3-4.8 24.7 1 47.2 1.9 70.5-3.9 15.6-4.4 30.9-3 46 2.7 16.8-7.9 37-.7 55.2-2.5 23.7-8.3 63.3 3.6 72.8-18.9z"/></g><path id="a" d="m3111.2 851.5h13.2l-19.7 90.3h-13.2zm3.2-27.4c.6-2.8 1.9-5.1 4-7 2.2-2 4.6-3.1 7.3-3.1 2.6 0 4.7 1 6.1 3.1 1.5 1.9 1.9 4.3 1.3 7-.6 2.8-2 5.1-4.3 6.9s-4.7 2.7-7.4 2.7c-2.6 0-4.6-.9-6-2.7-1.3-1.8-1.6-4.1-1-6.9z"/><path id="b" d="m3185.9 941.7 11.2-51.5c5.6-25.9-3.5-28.3-11.2-28.3-5.8 0-11.1 1.7-15.7 5.2-4.5 3.4-8.1 7.6-10.7 12.8l-13.5 61.7h-13.2l19.7-90.3h9.2l.1 11h.7c3.5-3.9 7.7-7 12.6-9.4 5.1-2.5 10.7-3.8 16.8-3.8 17.9 0 20.9 9 21.2 19.5.1 4.8-.6 11-2.2 18.4l-11.9 54.5z"/><use transform="translate(90.2)" xlink:href="#b"/><path id="c" d="m3365.3 849.3c15.6 0 27.9 7.7 27.9 28 0 16.8-7.5 66.6-48.6 66.6-13.4 0-27.9-5.7-27.9-27.8 0-18.8 8.8-66.8 48.6-66.8zm-32.8 47.3c-2.3 10.6-5.2 34.6 15 34.7 14.9.1 25-11.4 30-34.7 3.3-15.6 2.9-34.6-14.9-34.7-14.9-.1-25.1 11.4-30.1 34.7z"/><path d="m3432.1 904.4 1 17.2 8-17.5 30-52.5h14.2l-55.3 92.3h-5.6l-15.7-92.3h15.2z"/><path id="d" d="m3496.7 858.1c12.3-7.2 27.1-8.1 33.8-8.1 18.7 0 21.5 10.4 21.4 16.7 0 2.9-.2 6.8-1.1 11-4.3 19.5-6.7 26.1-9.8 40.6-2.2 10.1-3.1 17.5-2.9 23.6h-9.7l-.7-12.6h-.8c-4.9 6-14.2 13.8-28.7 13.8-13 0-20-8.1-20-19.4 0-16.7 11.1-26.6 22-30.5 11-4 28.7-3.7 34.6-3.1 2.6-8.5 5.3-18.9 2-23.6-1.8-2.6-6-4-12.3-4-6.6 0-18.1 2.2-25.8 6.3zm7.7 72.4c10.2 0 17.1-5.2 20.8-9.4 1.6-1.7 2.8-3.3 3.7-4.9l3.3-15c-1.7-.1-8.3-.4-9.4-.4-25.6 0-29.1 10.4-30.1 15.1-2 9 3.4 14.6 11.7 14.6z"/><path id="e" d="m3570.5 851.5h12.9l3.9-17.9 14.1-4.2-4.8 22h22.5l-2.8 12.6h-22.5l-10.9 50c-2.8 13-.9 17.2 5.6 17.2 5.1 0 7.4-.6 14.7-3.6l.6 11c-8.4 4.1-16.2 5.2-22.3 5.2-8.9 0-14.2-3.1-14.2-14 0-3.5.6-7.8 1.7-13l11.5-52.7h-12.9z"/><use transform="translate(529)" xlink:href="#a"/><use transform="translate(348.2)" xlink:href="#c"/><use transform="translate(617.8)" xlink:href="#b"/><path d="m3895.5 851.5h12.9l1.1-5.1c3.4-15.8 9.4-32.1 30.6-32.1 6.3 0 11.2.6 17.1 3.4l-5.6 12.1c-4-2.2-8.5-2.7-13-2.8-12.6-.4-14.2 12.4-16.5 22l-.6 2.5h22l-2.8 12.6h-22l-16.9 77.6h-13.2l16.9-77.6h-12.9z"/><use transform="translate(622.3)" xlink:href="#c"/><path d="m4080 865.4c-3-1.2-6-1.8-9-1.8-12 0-17.6 9.5-19.6 15l-13.8 63.2h-13.2l19.7-90.3h9.2l.1 11h.7c8.1-11.1 15.6-12.8 21.5-12.8 3.2 0 6.6.6 10.3 1.8z"/><path d="m4166.4 917.1c4.5-21.1-37.4-11.3-30.5-42.8 2.9-13.1 11-25.1 31.1-25.1 6.2 0 16.2.9 24.2 5.8l-5.7 11.9c-1.1-.6-8.8-5-19.5-5-11.5 0-15.1 4.9-16.7 12.1-4.1 18.5 37.4 10.2 30.4 42.6-3.7 17.4-17.9 27.3-34.7 27.3-7.8 0-18-1.2-25.6-6.7l6.6-12.3c1.8 1.3 10.1 6.3 21 6.3 9.4 0 17.1-3.5 19.4-14.1z"/><path d="m4256 934.5c-5.2 3.9-16 9.4-30.4 9.4-26.4 0-28.3-19.6-28.2-30.5 0-10.5 6.3-64.1 48.8-64.1 19.4 0 25.2 10.2 25.2 22.5 0 9.3-3.4 20.1-5.5 26.2h-53c-1.2 5.3-1.7 10-1.6 14.1.4 14.9 9.2 19.2 20.9 19.2 7.7 0 16.8-3.4 21.2-7.3zm-29.5-67c-4.7 3.7-8.4 10.1-11.1 19.1h41c2-9.1 1.8-15.5-.6-19.1-2.7-4.1-7.2-5.6-12.3-5.6-6.1 0-11.9 1.6-17 5.6z"/><use transform="translate(798.3)" xlink:href="#d"/><use transform="translate(798.4)" xlink:href="#e"/><use transform="translate(1327.4)" xlink:href="#a"/><use transform="translate(1327.3)" xlink:href="#b"/><path d="m4612.9 945.9c-3 13.7-11.1 34.1-41.1 34.1-9.8 0-18.2-1-25.2-4.8l6.1-12.3c6.1 3.2 12.6 4.4 19.5 4.5 17.9 0 24.4-6.7 28.6-25.7l1.9-8.7h-.7c-3 3.5-6.4 6.2-10.2 8.1-3.8 1.8-8.5 2.7-14 2.7-22.5 0-29-15.3-22.1-46.8 6.8-30.8 24-47.1 50.1-47.1 9.3-.2 18.5 1.6 26.9 5.4zm-30-14.8c10.7 0 18.5-5.3 24.1-18.9l10.1-46.2c-3.9-2.3-9.3-3.4-16.1-3.4-19.6 0-28 17.9-31.6 34.3-3.9 17.6-3.1 34.2 13.5 34.2z"/></svg>