<svg viewBox="0 0 400 100" xmlns="http://www.w3.org/2000/svg" xmlns:xlink="http://www.w3.org/1999/xlink"><g id="figure"><path d="m4.2 3.5c-1.4 0-2.2.9-2.2 2.5 0 1.7.8 2.5 2.2 2.5h18.8v59.1c0 1.7 1.1 2.7 2.7 2.7s2.7-1 2.7-2.7v-59.1h18.8c1.4 0 2.2-.8 2.2-2.5 0-1.6-.8-2.5-2.2-2.5z"/><path d="m101.4 3.5h-32.4c-5.6 0-8.4 4-8.4 8.6v48.2c0 4.3 2.6 8.5 8.4 8.5h33.6c1.8 0 2.8-1.1 2.8-2.4 0-1.6-1.2-2.6-2.8-2.6h-32.6c-2.8 0-3.9-2-3.9-3.9v-22.4h32.2c1.8 0 2.8-1.2 2.8-2.5 0-1.5-1.1-2.5-2.8-2.5h-32.2v-20c0-2.2 1.2-4 3.9-4h31.4c1.7 0 2.8-1.2 2.8-2.5 0-1.5-1.2-2.5-2.8-2.5z"/><path d="m145.9 2c19.8 0 34.3 16.7 34.3 33.6 0 8.7-2.7 16-7.2 21.8-1.4-1.1-2.7-2.4-4.2-3.6 3.7-4.8 5.9-10.9 5.9-18.2 0-14.1-12.1-28.1-28.8-28.1-15.9 0-28.7 13-28.7 28.8 0 17.3 14.8 28.8 27.5 28.8 6.7 0 11.7-1.5 16-4.1 1.8 1.5 2.9 2.4 4.4 3.7-5.5 3.7-12.1 5.9-20.4 5.9-15.9 0-33-14-33-34.3 0-18.8 15.2-34.3 34.2-34.3z"/><path d="m132.2 40c-1.3-.6-1.9-2.3-1.3-3.6s2.3-1.9 3.6-1.3c12.6 6 24 13.4 34.3 22.2 10.2 8.8 19.3 18.8 27.4 30.1.9 1.2.6 2.9-.6 3.8s-2.8.5-3.7-.7c-7.8-11-16.7-20.6-26.6-29.1-9.9-8.4-20.9-15.6-33.1-21.4z"/><path d="m219.9 63.8h-20c-2.9 0-3.9-2.1-3.9-3.9v-23h23.4c8.4 0 13.5 6.2 13.5 13.5 0 7-4.5 13.4-13 13.4zm-1.8-31.7h-22.1v-19.6c0-2.1 1.1-4 3.9-4h18.2c7.8 0 11.8 5.7 11.8 11.8 0 5.9-4 11.8-11.8 11.8zm-19.2-28.6c-5.5 0-8.4 3.8-8.4 8.6v48.2c0 4.4 2.6 8.5 8.4 8.5h21.1c12 0 18.4-8.8 18.4-18.4 0-3.4-1-11.8-10.7-16.4 6.9-4.1 7.7-10.7 7.7-13.7 0-8.7-5.9-16.8-16.8-16.8z"/><path d="m270 6.2-22 60.1c-.2.5-.3 1-.3 1.4 0 1.5 1.4 2.7 2.7 2.7.9 0 2.3-.6 2.9-2.3l7.5-20.7h28.5l7.5 20.7c.7 1.9 2 2.3 2.8 2.3 1.4 0 2.7-.9 2.7-2.7 0-.4-.1-1-.2-1.4l-22-60.1c-.5-1.3-1.7-4.1-5-4.1-3.4 0-4.6 2.8-5.1 4.1zm-7.4 36.3 12.3-33.7h.3l12.2 33.7z"/><path d="m314.1 4.9v55.4c0 4.3 2.6 8.5 8.4 8.5h28.3c1.8 0 2.9-1.1 2.9-2.4 0-1.6-1.3-2.6-2.9-2.6h-27.3c-2.9 0-3.9-2.1-3.9-3.9v-55c0-2-1.4-2.9-2.7-2.9-1.4 0-2.8.8-2.8 2.9z"/><path d="m358.4 4.9v55.4c0 4.3 2.6 8.5 8.4 8.5h28.3c1.8 0 2.9-1.1 2.9-2.4 0-1.6-1.3-2.6-2.9-2.6h-27.3c-2.9 0-3.9-2.1-3.9-3.9v-55c0-2-1.4-2.9-2.7-2.9-1.4 0-2.8.8-2.8 2.9z"/><path d="m215.3 84h2l2.7 11 .2 1.7.2-1.6 2.9-11.1h2.5l2.8 11.1.2 1.6.2-1.6 2.9-11.1h1.8l-3.7 13.8h-2.5l-2.9-11.3-.2-1.5-.2 1.5-2.9 11.3h-2.4z"/><path d="m240.9 83.7c3.8 0 6.3 2.6 6.3 7.1s-2.5 7.2-6.3 7.2-6.2-2.7-6.2-7.2c0-4.4 2.3-7.1 6.2-7.1zm0 1.5c-2.5 0-4.2 2.1-4.2 5.6s1.7 5.6 4.2 5.6c2.6 0 4.3-2.2 4.3-5.6s-1.7-5.6-4.3-5.6z"/><path id="a" d="m253 84c2 0 4.7.4 4.7 3.5 0 1.7-1 2.9-3 3.3.9.2 1.3.9 1.8 2l2.1 4.9h-2.1l-1.8-4.5c-.5-1.2-1.2-1.6-2.4-1.6h-1.1v6.1h-1.9v-13.7zm-1.8 1.5v4.6h1.5c1.9 0 3.1-.8 3.1-2.3 0-1.8-1.4-2.2-3.2-2.3z"/><path d="m261 84h1.9v12.1h5.5v1.6h-7.4z"/><path id="b" d="m273.7 84c6.7 0 7.7 3.9 7.7 6.9 0 4.6-3 6.8-7.8 6.8h-3.2v-13.7zm-1.3 12.1h1.5c3.4 0 5.5-1.9 5.5-5.3 0-4.4-2.9-5.3-5.4-5.3h-1.6z"/><path d="m290 84h1.9v13.7h-1.9z"/><path d="m302.4 84.3-.2 1.7c-.9-.5-1.8-.6-2.7-.6-1.9 0-2.7.8-2.7 1.7 0 2.6 6.2 2.9 6.2 6.7 0 2.4-1.9 4.1-4.6 4.1-1.3 0-2.5-.3-3.6-.7l.2-1.8c1.2.7 2.4.9 3.2.9 1.7 0 2.7-.9 2.7-2 0-2.6-6-3.3-6-7 0-2.2 1.8-3.5 4.6-3.5 1.1 0 2 .2 2.9.5z"/><path d="m321.3 84.5-.1 1.6c-1.6-.7-2.5-.6-3.1-.6-3.3 0-5.4 1.9-5.4 5.3 0 3.5 2.3 5.4 5.5 5.4.7 0 1.8-.1 3-.6l.1 1.7c-1.2.4-2.5.5-3.3.5-4.7 0-7.3-2.8-7.3-6.9 0-4.3 2.9-7 7.4-7 2 0 3 .6 3.2.6z"/><path d="m325.3 84v8c0 3.3 1.4 4.4 3.3 4.4 3 0 3.3-2.6 3.3-4.4v-8h1.8v8c0 3.5-1.3 6-5.2 6-4.2 0-5.1-3.2-5.1-6v-8z"/><use transform="matrix(1 0 0 1 87.9 0)" xlink:href="#a"/><path d="m347.1 84h2l4.1 11.9 4.1-11.9h2l-5.1 13.7h-2.2z"/><path d="m361.1 84h7.5v1.5h-5.6v4.3h5.3v1.6h-5.3v4.8h5.7v1.6h-7.6z"/><use transform="matrix(1 0 0 1 101.3 0)" xlink:href="#b"/></g></svg>