<svg viewBox="0 0 926 100" xmlns="http://www.w3.org/2000/svg"><g><path d="m194.2 2v10.7h-31.9v85.3h-11.9v-85.3h-32v-10.7z"/><path d="m205.3 2h11.6v42.3h54.1v-42.3h11.8v96h-11.8v-42.9h-54.1v42.9h-11.6z"/><path d="m366.3 2v10.6h-58.1v31.7h51.8v10.6h-51.8v32.6h58.6v10.5h-70.4v-96z"/><path d="m377.3 98h11.5v-36.8h26.6l27.5 36.8h20.8l11.3-24.8h50.9l11.1 24.8h12.4l-43.5-96h-10.6l-41.5 91.5-25.7-34.6c9.8-2.1 25.4-5.5 25.4-30.4 0-12.3-10.9-26.5-34-26.5h-42.2zm40.1-85.3c18.2.3 24.1 9.5 24.2 15.8 0 17.2-12.1 22-23.4 22.2h-29.4v-38zm83.1 3.2 20.7 46.7h-41.6z"/><path d="m554 2v96h45.6c12 0 30.7-7 30.7-26.3 0-18.5-18.8-22.3-21.6-22.9 2.8-1 16.3-7.3 16.3-21.7 0-23.9-24.4-25.1-28.1-25.1zm36 6.7c5.5 0 27.6-1.1 27.7 18.4.1 15.3-16.2 19.4-23.7 19.4h-32.7v-37.8zm7 44.5c10.1 0 25.9 3.9 25.8 18.5-.1 16.9-15.8 19.8-30 19.8h-31.5v-38.3z"/><path d="m676.7 2-44.3 96h7.2l12.1-26.6h56.3l12.1 26.6h7.7l-44.3-96zm3.3 7.9 24.9 55.1h-49.9z"/><path d="m812.9 2v96h-5.8c-22.4-28.5-45-56.9-67.5-85.3v85.3h-6.8v-96h6.7c21.9 28 44.6 55.3 66.2 83.5l.1-83.5z"/><path d="m825.8 2v96h31.8c33.8 0 51.4-22.9 51.4-48.1.1-28.5-20.8-47.9-50.5-47.9zm34 6.7c20.1 0 41.8 14.7 41.8 40.9 0 24.3-18.1 41.9-44.4 41.9h-24.3v-82.8z"/><path d="m912 7.6v1.6h-3v7.7h-2v-7.7h-3v-1.6z"/><path d="m913.4 7.6h2.6l2.3 6.8 2.3-6.8h2.6l.8 9.3h-2l-.3-8.1-2.7 8h-1.7l-2.6-8-.2 8.1h-2z"/><path d="m43.9 2.1h63.1v14.3h-69.3z"/><path d="m36.5 18.6h70.5v14h-76.8z"/><path d="m107 35v14.1h-83.5l5.9-14.1z"/><path d="m22 51.1h85v14.4h-90.7z"/><path d="m15 67.4h92v14.4h-97.9z"/><path d="m7.8 83.8h99.2v14.2h-105z"/></g></svg>