<svg viewBox="0 0 911 100" xmlns="http://www.w3.org/2000/svg"><g><path d="m2 3.2v19.4h79.2v-19.4zm29.2 36.7v56.9h21v-56.9z"/><path d="m115.4 3.7v92.8h20.5v-37.4h37.8v37.4h20.4v-92.8h-20.4v36.7h-37.8v-36.7z"/><path d="m236.8 3.7v92.8h70.7v-18.2h-50.5v-19.5h43.8v-18.1h-43.8v-18.9h49.7v-18.1z"/><path d="m382.6 66.8h-16v29.7h-20.4v-92.8h42.5c11 0 19.6 2.7 25.8 8 6.2 5.4 9.2 13.7 9.2 22.5s-1.7 14-5.4 18.6c-3.7 4.7-8.8 8.3-14.4 10.4l22.7 33.3h-24zm16.2-41.4c-2.9-2.3-6.8-3.3-11.8-3.3h-20.4v26.6h20.7c5 0 8.9-1.2 11.6-3.6s4.3-5.9 4.2-10-1.4-7.4-4.3-9.7z"/><path d="m529.6 96.5-8.5-20.9h-39.3l-8.5 20.9h-20.8l39.9-93.5h18.9l39.9 93.5zm-28.3-69-12.4 30.1h24.8z"/><path d="m625.8 98c-30 0-48.8-21.6-48.8-47.8 0-25.4 18.9-48.2 48.7-48.2 20.6 0 31.5 8.3 36.6 12.7l-12.9 15.6c-3.4-3.1-11.9-9.6-24.1-9.3-17.5.4-26.8 15.8-26.8 28.9 0 19.3 13.8 29.9 28.2 29.9 7.6 0 14.1-1.7 19.4-5.5v-13.3h-11.2v-17.7h31v40.2c-16.5 12.3-28.7 14.5-40.1 14.5z"/><path d="m744.8 97.8c-19.6 0-40.7-8-40.7-41.8v-52.3h20.6v52.4c0 10.5 3.2 22.7 20.1 22.8s20.1-13.5 20.1-22.8v-52.4h20.4v52.3c0 32.6-20.9 41.8-40.5 41.8z"/><path d="m826.3 3.7v92.8h20.2v-59l45.1 59h17.4v-92.8h-20.1v57.1l-43.7-57.1z"/></g></svg>