<svg viewBox="0 0 556 100" xmlns="http://www.w3.org/2000/svg"><g id="figure"><path d="m66.8 19.6v20.7h-19.8v41.4l-.3 8.4h-24.6l-.3-8.4v-41.4h-19.8v-20.7z"/><path d="m72.1 19.6h24.9v70.5h-24.9z"/><path d="m102.7 19.6v70.4h34.1c23.8 0 30.7-9.5 30.7-21.6 0-7.2-3.1-12.7-9.2-16.3 4-3.7 6.8-8.4 6.8-13.8 0-15.4-14.1-18.7-28.3-18.7zm33.6 18.8c7.4 0 7.6 8.3 0 8.3h-8.6v-8.3zm1.8 23.3c8.6 0 9.1 9.6 0 9.6h-10.4v-9.6z"/><path d="m195.8 42.4h17.9v-22.8h25v70.4h-25v-26.2h-17.9v26.2h-25.1v-70.4h25.1z"/><path d="m267 19.6-25.2 70.4h24.6l2.6-8.9h19.8l2.7 8.9h25.1l-25.2-70.4zm11.7 28h.6l4.7 16.6h-9.8z"/><path d="m319.6 90.1h24.9v-23.6h8.8c2 0 4.5.8 5.7 2.7 1.9 3 .9 11.2 1.6 16 .2 1.7.5 3.2 1.1 4.8h25v-5h-2.2c-.6-5.6.2-10.8-.7-16.8-.8-5.5-3.4-9.8-8.1-11.4 6.3-3.5 8.2-9.7 8.4-16.4 0-8.1-1.5-20.8-30.8-20.8h-33.7zm33.7-51.7c9.6 0 10.3 10.4 0 10.4h-8.8v-10.4z"/><path d="m426.4 2c-2.1 0-4.1.1-6.2.4 2.1.2 4.2 1 6.2 1.8 15.9 5.8 31.4 11.7 47.3 17.5 4.2 1.4 12 4.8 13.2 4.8s8.3-3.4 12.5-4.8c15.9-5.8 32.1-11.7 48-17.5 2-.8 4.1-1.6 6.2-1.8-2.4-.4-4.4-.4-6.2-.4z"/><path d="m478.6 98v-55.6l-58-23.7z"/><path d="m496 98v-55.6l58-23.7z"/></g></svg>