<svg id="svg" viewBox="0 0 376 100" xmlns="http://www.w3.org/2000/svg"><g id="figure" transform="scale(.1)"><path d="m20 20h390v69.5l-154-.1v305.9h-82v-306.2l-154 .2z"/><path d="m463.4 20h81.1v375.3h-81.1z"/><path d="m753.5 20 94.8 238.4 90.1-238.4h74.2l61.8 375.3h-76.3l-34.4-235.3-93.9 235.3h-44.1l-95.8-236.9-36.8 236.9h-68l55.1-375.3z"/><path d="m1149.6 20h320.2v67h-239.5v82.4h210.9v67.3l-210.9 1v90.2h239.5v67.4h-320.3l-.1-375.3z"/><path d="m1599.1 20 84.1 122.4 85.3-122.4h85.8l-128 183.7 133 191.6h-83.7l-92.4-130.8-89.5 130.8h-84.7l133.1-191.6-127.4-183.7z"/><path d="m1809.5 219c-1.7-2.8-2.1-6.9-2.5-10-1-6.1-3.8-6.9-8-7h-2.5v17h-8v-39.5h13.5c9.5-.1 15.6 2.5 16 10.5.1 5.6-4.8 8-8 9 1.6.8 2.3 1.3 3 2 2.3 2.4 2.5 6 3 9 .2 1 .6 5.6 2.5 9m-16-24c3.6 0 6.8-.5 7-4.5-.1-4-3.4-5.1-7-5h-6v9.5"/><path d="m1802.5 165c-19.1 0-34.5 15.4-34.5 34.5s15.4 34.5 34.5 34.5 34.5-15.4 34.5-34.5-15.4-34.5-34.5-34.5zm0 6c15.7 0 28.5 12.8 28.5 28.5s-12.8 28.5-28.5 28.5-28.5-12.8-28.5-28.5 12.8-28.5 28.5-28.5z"/><path d="m322 452.9v526.5h-211v-526.5z"/><path d="m366.2 452.9v527.1h206.6v-223.5l35.1 1c21.9.6 29.6 9.5 29.7 42.6l.4 179.2h203v-138.5c0-106.8 2-113.7-55.7-145 51.8-41.9 55.7-45.6 55.7-126.4 0-67.4-6.8-117.2-90-117.1zm237.7 205.9c-7 0-25.6-.2-31.1 0v-100.2h31.1c66.5 0 70 100.6 0 100.2z"/><path d="m948 452.1c-38.7 0-72 37.3-72 76.5v374.7c0 39.2 33.3 76.5 72 76.5h331c42.6 0 72-37.6 72-76.5v-374.7c0-38.9-29.4-76.5-72-76.5zm203.5 172v201.3c0 60.7-75 61.7-75 0v-201.3c0-61.6 75-60.7 75 0z"/><path d="m1591.3 452.7 75.8 145.4v-145.9h196.2l.3 527.2h-176.7l-95.6-181.1v180.4h-197.8v-526z"/><path d="m1913.5 452.9v527.1h186.2v-157.6l66.3 151.6h115.1l60.8-151.6v157.6h186.2v-527.1zm18.5 18.5h577.6v490.1h-149.2v-187.1h-20.1l-74.5 181.1h-84.5l-80-181.1h-20.1v187.1h-149.2z"/><path d="m2224.2 146.2c-77.3 0-140 61.8-140 138s62.7 138 140 138 140-61.8 140-138-62.7-138-140-138zm0 17.3c67.9 0 123 54 123 120.7s-55.1 120.7-123 120.7-123-54-123-120.7 55.1-120.7 123-120.7z"/><path d="m2673.3 453.3-105.4 526.1h199.6l19.3-121.4h85.5l18.2 121.4h201l-111.1-526.1zm166.2 149.4 33 161.9h-78.4l27.1-161.9z"/><path d="m3323.3 452.7 75.8 145.4v-145.9h196.2l.3 527.2h-176.7l-95.6-181.1v180.4h-197.8v-526z"/><path d="m3696.2 535c-2.7-4.4-3.3-10.9-4-15.9-1.6-9.7-6.1-11-12.8-11.1h-4v27h-12.7v-62.9h21.5c15.1-.2 24.9 4 25.5 16.8.1 9-7.6 12.7-12.7 14.3 2.5 1.3 3.6 2.1 4.7 3.2 3.7 3.9 4 9.5 4.8 14.3.2 1.7 1 8.9 4 14.3m-25.5-38.2c5.7 0 10.9-.8 11.2-7.1-.1-6.3-5.5-8.3-11.2-8.1h-9.6v15.2"/><path d="m3685 449c-30.4 0-55 24.6-55 55s24.6 55 55 55 55-24.6 55-55-24.6-55-55-55zm0 9.6c25.1 0 45.4 20.3 45.4 45.4s-20.3 45.4-45.4 45.4-45.4-20.3-45.4-45.4 20.3-45.4 45.4-45.4z"/></g></svg>
