<svg viewBox="0 0 379 100" xmlns="http://www.w3.org/2000/svg"><g id="figure"><path d="m50.3 37.7c7.2 0 13 6 13 13.1 0 7.2-5.8 13.1-13 13.1s-13.2-5.9-13.2-13.1c0-7.1 6-13.1 13.2-13.1z"/><path d="m28.1 56.8c0-12 9.8-21.8 21.8-21.8s21.7 9.8 21.7 21.8-9.7 21.7-21.7 21.7-21.8-9.7-21.8-21.7zm-15.7 0c0 16.9 13.7 30.5 30.5 30.5 16.9 0 30.4-13.6 30.4-30.5 0-16.7-13.5-30.4-30.4-30.4-16.8 0-30.5 13.7-30.5 30.4z"/><path d="m4 49.8c0-22.4 17.9-40.4 40.1-40.4s40.3 18 40.3 40.4c.1 22.3-18.1 40.5-40.3 40.5s-40.1-18.2-40.1-40.5zm-1.9.1c0 26.4 21.5 47.9 47.9 47.9s47.9-21.5 47.9-47.9c0-26.5-21.5-47.9-47.9-47.9s-47.9 21.5-47.9 47.9z"/><path d="m106.8 44.9v20.2h14.8v31.3h25.3v-31.3h14.8v-20.2z"/><path d="m231.1 69.3c0-20.2-16.3-25.9-34.5-25.9s-34.5 5.7-34.5 25.9c0 11.8 2.5 28.6 34.5 28.6 31.9 0 34.5-16.8 34.5-28.6zm-43.1 2c0-6.6 2.2-10.8 8.6-10.8 6.2 0 8.6 4.2 8.6 10.8s-2.3 10.9-8.6 10.9c-6.4 0-8.6-4.3-8.6-10.9z"/><path d="m294.9 70.2h-23v14.2h-3.7c-6.4 0-10.9-3.1-10.9-11.1 0-9.7 9-10.7 16.2-10.7 6.4 0 14.5.6 20.7 1.5v-18.1c-10.6-1.6-16.9-2.7-28.3-2.7-18.2 0-33.8 6.4-33.8 27.5 0 19.2 13 27.1 32.7 27.1 12.7 0 21-1.4 30.1-4.6z"/><path d="m334.4 44.9v32.1c0 4.9-3 5.8-5.6 5.8s-5.2-.9-5.2-5.8v-32.1h-25.3l.1 33.7c0 16.4 15.9 19.4 30.4 19.4 15.1 0 30.2-3 30.2-19.4v-33.7z"/><path d="m369.7 32.8c-4 0-7.2 3.2-7.2 7.2s3.2 7.2 7.2 7.2 7.2-3.2 7.2-7.2-3.2-7.2-7.2-7.2zm0 1.2c3.3 0 6 2.7 6 6s-2.7 6-6 6-6-2.7-6-6 2.7-6 6-6zm-2.6 2.1v8h1.4v-3.5h1l2 3.5h1.7l-2.1-3.5c1.1-.2 2-.7 2-2.1 0-1.7-1.1-2.4-3.1-2.4zm1.4 1.1h1.4c.7 0 1.7.3 1.7 1.1 0 1.1-.7 1.2-1.6 1.2h-1.5z"/></g></svg>