<svg viewBox="0 0 234 100" xmlns="http://www.w3.org/2000/svg"><g id="figure"><path d="m51 25.6-49 13.2v18l14-3.8v42l22.4-6v-42l12.6-3.4z"/><path d="m84 16.8c-16.6 0-30.1 13.5-30.1 30.1s13.5 30.1 30.1 30.1 30.1-13.5 30.1-30.1-13.5-30.1-30.1-30.1zm3.5 5.1v48l-7 1.9v-48.1z"/><path d="m139.5 2-22.4 6v90l22.4-6v-28.4l25.2 21.6 23.8-6.3-26.6-22.9 11.2-33-21 5.6-8.9 26.4-3.7 1z"/><path d="m201.9 15.2c-16.6 0-30.1 13.5-30.1 30.1s13.5 30.1 30.1 30.1 30.1-13.5 30.1-30.1-13.5-30.1-30.1-30.1zm3.5 5.1v48l-7 1.9v-48.1z"/></g></svg>