<svg viewBox="0 0 562 100" xmlns="http://www.w3.org/2000/svg" xmlns:xlink="http://www.w3.org/1999/xlink"><g id="figure"><path d="m38.5 10c7.4 1.3 14.4 2.1 21.6 4.4 4.2 1.3 8.1 3.3 10.8 6.9-6.9 2.4-14 5.3-21 7.4-3.6 1.1-7.3 1.5-11 2.2.5 4.5.3 8.9 1 13.4 1.3 8.8 3.7 17.2 6.1 25.7 1.8 6.4 3.4 12.4 3.1 19.2-.1 2.2-.3 8.8-8.3 8.8-2 0-3.8-.4-5.3-2.2-4.5-5.2-6.7-13.1-7.9-19.8-.9-5.2-1.7-10.5-1.7-15.8 0-9.3-.1-18.4.1-27.7-6.5.2-13 .3-19.4.1-2.3-.1-3.8-2.5-4-4.6-.3-2.6-.6-5.4-.6-8 0-4.5.7-8.9 2.6-13.1 2.3 0 4.7-.2 7 0 5.6.4 9.4 1.2 14.2 1.2.8-1.4 1.4-3 2.4-4.2 1.1-1.3 2.8-1.9 4.4-1.9 4.2 0 4.9 2.8 5.9 8z"/><path d="m81.1 32.5c-14.3 0-28.9 9-28.8 28 .1 19.2 14.5 28.1 28.8 28.1h14.5c14.3 0 29-9 28.8-28.1-.1-19-14.8-28-29.1-28zm15.5 9.8c5.5 0 17.8 2.7 17.8 18.2s-12.3 18.3-17.8 18.3-11 0-16.5 0-17.8-2.8-17.8-18.3 12.3-18.2 17.8-18.2z"/><path id="c1" d="m143.4 31.7c-2.7 0-5.2 2.5-6.1 6.1l-11.9 50.8h10.9l7.9-38.6 16.7 32.1c1.7 3.2 3.6 7.3 7.5 7.4 3.9-.1 5.8-4.2 7.5-7.4l16.7-32.1 7.9 38.6h10.9l-11.9-50.8c-.9-3.6-3.4-6.1-6.1-6.1-2.3 0-4.2 1.8-5.2 3.7l-19.8 37.8-19.8-37.8c-1-1.9-2.9-3.7-5.2-3.7z"/><path id="c2" d="m251.9 32.5c4.7 0 7.4 5 9.5 8.6l27.9 47.4h-12.7l-9.5-15.5h-26.4l6.2-10h14.1l-9.1-16-25.3 41.5h-12.5l28.2-47.4c2.3-3.8 4.7-8.6 9.6-8.6z"/><path d="m348.4 32.5h-9.9v22.6h-33.6v10.4h33.6v23.1h9.9zm-46.4 0h-10.4v56.1h10.4z"/><use transform="matrix(1 0 0 1 136.2 0)" xlink:href="#c2"/><use transform="matrix(1 0 0 -1 288.9 121.2)" xlink:href="#c1"/><path d="m503.4 32.5v56.1h10v-56.1zm43.3 0c-1 0-2.1.9-2.9 1.6l-23.8 20.8c-3.9 3.4-4.4 4.1-4.5 6.1.1 2 .5 2.8 4.5 6.1l23.8 19.9c.8.6 1.9 1.6 2.9 1.6h13.3l-32.9-27.6 32.9-28.5z"/></g></svg>