<svg viewBox="0 0 490 100" xmlns="http://www.w3.org/2000/svg" xmlns:xlink="http://www.w3.org/1999/xlink"><g id="figure"><g id="a"><path d="m61.6 98-9.8-16.8h-11.5c-2.7 0-10.7-1-10.7-11.1v-25.3h22.2l8.6-15.2h-30.8v-27.6l-16.9 11.6v15.2h-10.7v16.8h10.7v23c0 25.1 21.3 29.4 26 29.4z"/><path d="m79.2 62.8c0-10.6 8.7-18.4 18.5-18.5s18.5 8.4 18.5 18.5-8.3 18.4-18.5 18.4-18.5-7.8-18.5-18.4zm18.5-35.3c-19.5 0-35.3 15.9-35.3 35.3s15.8 35.2 35.3 35.2 35.3-15.8 35.3-35.2-15.8-35.3-35.3-35.3z"/><path d="m238.9 98v-42.8c0-15.5-12.8-27.8-27.8-27.8-5.5 0-12.5.9-18.7 6.7l-.6.5-.6-.5c-5.7-4.7-11.9-6.7-18.7-6.7-14.5 0-27.6 11.4-27.6 27.8v42.8h16.8v-42.1c0-5.9 4.9-10.6 10.8-10.6s10.9 4.7 10.9 10.6v42.1h17v-42.1c0-5.9 4.8-10.6 10.7-10.6s10.9 4.7 10.9 10.6v42.1z"/></g><use transform="translate(249.1)" xlink:href="#a"/></g></svg>