<svg viewBox="0 0 474 100" xmlns="http://www.w3.org/2000/svg" xmlns:xlink="http://www.w3.org/1999/xlink"><g id="figure"><path d="m2 2.3v16.4h31.4v51.4h21.2v-51.4h31.6v-16.4z"/><path id="a" d="m111.9 70.1c-12.7 0-19.2-3.1-19.2-17.5v-12.2h20.9v12.6h45.9v-12.6h20.9v12.2c0 14.4-6.5 17.5-19.2 17.5zm-19.2-38.3v-12.1c0-14.4 6.4-17.4 19.2-17.4h49.3c12.7 0 19.2 3 19.2 17.4v12.1h-20.9v-13.1h-45.9v13.1z"/><use transform="translate(95.1)" xlink:href="#a"/><path d="m282.4 70.5v-68.5h68.9c7 0 17.9 1.2 17.9 14.5v15.1c0 13.3-10.9 14.5-17.9 14.5h-14.1l27.2 24.4h-26l-26.3-24.4h-9.7v24.4zm20-39.4h41.5c2.8 0 5.5 0 5.5-3.2v-7.6c0-3.3-2.9-3.2-5.5-3.2h-41.5z"/><path d="m369.4 70.1 36.9-33.9-36.9-33.9h28.9l22.4 21.7 22.4-21.7h28.9l-36.8 33.9 36.8 33.9h-29.4l-21.9-21.2-21.8 21.2z"/><path d="m22.5 84.1c-2.9-1.1-6-1.3-9.1-1.3h-3c-1.8 0-3.4.4-3.4 1v3.5h7.4v1.6h-7.4v9.1h-5v-14.2c0-1.4 3.7-2.6 8.4-2.6h3c4.2 0 9.7.6 12.5 1.8z"/><path id="b" d="m42.5 96.5h7.3v1.5h-19.7v-1.5h7.4v-13.7h-7.4v-1.6h19.7v1.6h-7.3z"/><path id="c" d="m66.3 82.8v15.2h-4.9v-15.2h-7.4v-1.6h19.7v1.6z"/><path id="d" d="m90.2 81.2c-3.5 0-12.3.4-12.3 4.1v12.7h4.9v-12.7c0-.9 1-2.5 7.4-2.5s7.4 1.6 7.4 2.5v12.7h4.9v-12.7c0-3.7-8.8-4.1-12.3-4.1z"/><path d="m130.6 96.2c-4 1.5-8.3 1.8-12.6 1.8h-2.9c-4.2 0-8.5-1-8.5-2.6l.1-11.6c0-1.4 3.7-2.6 8.4-2.6h2.9c4.4 0 8.9.4 12.5 1.8l-3.3 1c-2.9-1.1-6.1-1.2-9.2-1.2h-2.9c-1.9 0-3.5.4-3.5 1v3.5h7.4v1.6h-7.4v6.5c0 .6 1.4 1.1 3.5 1.1h2.9c4.7 0 6.2-.4 9.2-1.3z"/><path id="e" d="m159.4 93.9c0 3.6-7.6 4.1-12.4 4.1-4.2 0-8.2-.5-11.6-1.8l3.6-1c2.6 1 5.2 1.3 8 1.3 3.5 0 7.5-.4 7.5-2.6v-2.5c0-1.2-1.1-2.5-7.5-2.5-2.8 0-12.3-.3-12.3-3.9s9.8-3.8 12.3-3.8c4.1 0 8.2.6 11.7 1.8l-3.5 1.1c-2.6-1-5.4-1.3-8.2-1.3-6.3 0-7.4 1.2-7.4 2.2 0 2.3 5.1 2.3 7.4 2.3 4.6 0 12.4.5 12.4 4.1z"/><use transform="translate(28.8)" xlink:href="#e"/><use transform="translate(191.4)" xlink:href="#b"/><use transform="translate(167.5)" xlink:href="#d"/><path d="m337.9 98h-4.9v-12.7c0-1.8-3.2-2.5-5-2.5-.6 0-4.9.2-4.9 2.5v12.7h-5v-12.7c0-2.3-3-2.5-4.9-2.5-1.7 0-4.9.7-4.9 2.5v12.7h-4.9v-12.7c0-3.6 7.9-4.1 9.8-4.1 2.5 0 5 .4 7.4 1.3.6-.2 3.6-1.3 7.4-1.3 1.8 0 9.9.5 9.9 4.1z"/><path id="f" d="m366.7 93.9c0 3.6-7.6 4.1-12.4 4.1-5.5 0-12.2-.7-12.2-4.1v-8.6c0-3.6 7.7-4.1 12.2-4.1 3.2 0 12.4.3 12.4 4.1zm-4.9-8.6c0-1.4-1.5-2.5-7.5-2.5-5.1 0-7.4.7-7.4 2.5v8.6c0 1.5 1.4 2.6 7.4 2.6 3.6 0 7.5-.4 7.5-2.6z"/><use transform="translate(316.8)" xlink:href="#c"/><use transform="translate(364.6)" xlink:href="#b"/><use transform="translate(76.5)" xlink:href="#f"/><use transform="translate(369.5)" xlink:href="#d"/></g></svg>