<svg viewBox="0 0 211 100" xmlns="http://www.w3.org/2000/svg" xmlns:xlink="http://www.w3.org/1999/xlink"><defs><path id="x" d="m139.2 56c0 8.3-5.3 13.2-12 13.2h-43.4c-6.7 0-12-5-12-13.2v-40.8c0-7.6 5.3-13.2 12-13.2h43.4c6.7 0 12 5 12 13.2z"/><mask id="m"><use xlink:href="#x" fill="#fff"/><path d="m85.9 5.1h39.5c6 0 10.9 4.5 10.9 11.9v37.2c0 7.5-4.9 11.9-10.9 11.9h-39.5c-6 0-10.9-4.5-10.9-11.9v-37.2c0-6.9 4.9-11.9 10.9-11.9z"/></mask></defs><g id="figure"><path d="m108.2 15 18.1 17.9v-14.5c0-1.7-1.7-3.4-3.8-3.4z"/><path d="m90.7 15c-1 0-2.5 3-1.5 4l12.5 12.4-15.5 15.5c-1.2 1.2-1.9 2.8-1.9 4.4 0 3.2 2.3 5.9 5.6 5.9 1.7 0 3.5-.5 4.8-1.8l15.4-15.5 12.3 12.3c1 1 3.9-.1 3.9-2v-8.7l-26.7-26.5z"/><path d="m143.4 4.6c.2 0 .4-.2.4-.4 0-.3-.2-.4-.4-.4h-.6v.8zm-.6 1.3c0 .3-.1.4-.3.4-.3 0-.3-.2-.3-.4v-2.2c0-.2 0-.3.3-.3h.8c.6 0 1 .1 1 .8 0 .5-.2.8-.7.8l.5.9c.1.2-.1.4-.3.4s-.3-.2-.4-.4l-.4-.8h-.2zm2.4-1c0-1.1-.8-2.1-2-2.1-1.1 0-2.1.9-2.1 2.1 0 1.1.9 2 2.1 2 1.1 0 2-.9 2-2zm.7 0c0 1.5-1.2 2.7-2.7 2.7s-2.7-1.2-2.7-2.7 1.2-2.7 2.7-2.7 2.7 1.2 2.7 2.7z"/><path id="a" d="m6.3 84.2h-2.6c-1.2 0-1.7-.8-1.7-1.6s.7-1.6 1.7-1.6h9c1 0 1.7.8 1.7 1.6s-.5 1.6-1.7 1.6h-2.7v11.8c0 1.2-.7 1.8-1.8 1.8-1 0-1.9-.6-1.9-1.8z"/><path id="b" d="m23.8 88.4h2.5c1.4 0 2.3-.8 2.3-2.1 0-1.4-.9-2.1-2.3-2.1h-2.5zm-3.7-5.6c0-1.1.7-1.8 1.9-1.8h4.3c3.8 0 6.1 1.5 6.1 5.2 0 2.6-2 4.1-4.5 4.5l4.2 4.3c.3.4.5.7.5 1 0 .9-.8 1.8-1.9 1.8-.4 0-1-.1-1.4-.6l-5.5-6.3.1 5.1c0 1.2-.8 1.8-1.9 1.8-1 0-1.9-.6-1.9-1.8z"/><path id="c" d="m38.7 82.7c0-1.2.7-1.9 1.8-1.9 1 0 1.9.7 1.9 1.9v13.3c0 1.2-.8 1.8-1.9 1.8-1 0-1.8-.6-1.8-1.8z"/><path id="d" d="m62.6 87.8c1.5 0 2.2.7 2.2 2.2 0 4.5-3.2 8-8.1 8-5 0-8.4-3.8-8.4-8.7s3.4-8.7 8.4-8.7c3.7 0 6.8 1.7 6.8 3.4 0 1-.6 1.6-1.5 1.6-1.7 0-2-1.7-5.2-1.7-3.1 0-4.6 2.5-4.6 5.4s1.5 5.5 4.6 5.5c1.9 0 4.2-1.1 4.2-3.8h-2.6c-1 0-1.7-.6-1.7-1.6s.8-1.6 1.7-1.6z"/><use transform="translate(21.7)" xlink:href="#d"/><path d="m92.4 83c0-1.2.6-2 1.9-2h6.1c1.2 0 1.8.8 1.8 1.6s-.6 1.6-1.8 1.6h-4.3v3.4h4c1.2 0 1.8.9 1.8 1.7s-.6 1.6-1.8 1.6h-4v3.5h4.6c1.2 0 1.7.9 1.7 1.7s-.5 1.6-1.7 1.6h-6.4c-1.1 0-1.9-.7-1.9-1.8z"/><use transform="translate(88.6)" xlink:href="#b"/><path d="m130.9 89h2.5c1.5 0 2.5-1 2.5-2.4s-1-2.6-2.5-2.6h-2.5zm-3.7-6.2c0-1.1.8-1.8 2-1.8h4.3c3.6 0 6.3 2.2 6.3 5.6s-2.8 5.5-6.2 5.5h-2.7v3.9c0 1.2-.8 1.8-1.9 1.8-1 0-1.8-.6-1.8-1.8z"/><path d="m151.6 83.9c-3.1 0-4.6 2.5-4.6 5.4s1.5 5.5 4.6 5.5 4.6-2.6 4.6-5.5-1.5-5.4-4.6-5.4zm0-3.2c4.9 0 8.4 3.8 8.4 8.6 0 4.9-3.4 8.7-8.4 8.7s-8.4-3.9-8.4-8.7c0-4.9 3.4-8.6 8.4-8.6z"/><use transform="translate(126.8)" xlink:href="#c"/><path d="m176.1 82.7c0-1.2.8-1.9 1.9-1.9.5 0 1.2.4 1.5.8l7.9 9.9v-8.8c0-1.2.7-1.9 1.8-1.9 1 0 1.9.7 1.9 1.9v13.3c0 1.2-.8 1.8-1.9 1.8-.5 0-1.2-.4-1.5-.8l-7.9-9.8v8.8c0 1.2-.7 1.8-1.8 1.8-1 0-1.9-.6-1.9-1.8z"/><use transform="translate(194.6)" xlink:href="#a"/><use xlink:href="#x" mask="url(#m)"/></g></svg>