<svg viewBox="0 0 256 100" xmlns="http://www.w3.org/2000/svg" xmlns:xlink="http://www.w3.org/1999/xlink"><g><path d="m8.2 86.8c-3.4 0-6.2 2.5-6.2 5.6s2.8 5.6 6.2 5.6h239.6c3.4 0 6.2-2.5 6.2-5.6s-2.8-5.6-6.2-5.6z"/><path d="m8 45.5v-7.7c0-3.5 2.4-4.8 5.6-4.8 3 0 5.4 1.6 5.4 4.8v7.7h4.3c3 0 3.7 2.4 3.7 4.7 0 2.8-1.5 4.7-3.7 4.7h-4.3v21.1c0 3.1-1.9 4.6-5.1 4.6-3.6 0-5.9-1.8-5.9-4.8v-20.9h-2c-3.5 0-3.8-2.9-3.8-4.7 0-1.9.8-4.7 3.8-4.7z"/><path d="m32.8 49.6v25.1c0 4.8 2.8 5.9 5.4 5.9 3.5 0 5.8-1.1 5.8-5.1v-17.4c1.1-.8 2.7-1.6 5.1-2.2 1.2-.3 6.8-2.3 6.8-7.3 0-1.7-1.6-4.3-4.4-4.3-1.3 0-4.5.9-7.5 3.7-1.1-2.5-2.3-3.7-5.8-3.7-3.4 0-5.4 1.4-5.4 5.3z"/><path id="a" d="m66.6 2c-9.3 0-16.8 8.1-16.8 18.1s7.5 18.1 16.8 18.1 16.8-8.1 16.8-18.1-7.5-18.1-16.8-18.1zm0 8.8c4.4 0 7.9 4.1 7.9 9.2s-3.5 9.2-7.9 9.2-7.9-4.1-7.9-9.2 3.5-9.2 7.9-9.2z"/><path id="b" d="m66 44.3c-3 0-5.4 1.1-5.4 4.5v26.8c0 3.4 2.4 5 5.4 5s5.5-.9 5.5-4.3v-27.3c0-3.4-2.5-4.7-5.5-4.7z"/><path d="m109 47.9c3.2-2.3 6.8-4.4 10.9-4.4 2.3 0 12.3.6 12.3 10v22.8c0 3-2.4 4.3-5.3 4.3-4.5 0-5.6-2.6-5.6-5.3v-16.9c0-2.8-1.3-5.5-4.1-6-3.1-.6-5.8 2.5-5.8 5.4v18.7c0 3.1-3.2 4.1-5.5 4.1-4.4 0-5.4-2.8-5.4-4.4v-16.7c0-4.6-1.2-7.4-5.6-7.1-1.8.1-3.1 1.2-4.5 2.2v21.9c0 2.7-2.3 4.1-5.6 4.1-2.1 0-5.5-.8-5.5-5.3v-25.6c0-3.7 1.5-5.1 4.6-5.4 2.5-.3 4.5.4 6 2.3 2.5-2.3 5.5-3.1 8.7-3.1 4.4 0 7.4 1.1 10.4 4.4z"/><use transform="translate(77.7)" xlink:href="#a"/><use transform="translate(80.7)" xlink:href="#b"/><path d="m166.5 30c-3 0-5.4 1.1-5.4 4.5v41.1c0 3.4 2.4 5 5.4 5s5.5-.9 5.5-4.3v-41.6c0-3.4-2.5-4.7-5.5-4.7z"/><use transform="translate(121.7)" xlink:href="#a"/><use transform="translate(120.6)" xlink:href="#b"/><path d="m222.9 43.5c9.5 0 11.8 7.8 11.8 12.2v21c0 3.4-3.6 3.9-5.5 3.9-3.8 0-5.4-2.5-5.4-4.8v-17.4c0-1.9-.8-4-2.2-5.2-1.6-1.4-4.2-1.1-5.8.2s-2.8 3.4-2.8 5.5v17.9c0 1.5-1 3.8-5.5 3.8-2.8 0-5.4-1.5-5.4-4.8v-26.6c0-3.5 1.8-4.7 4.7-4.9 2.5-.3 3.9.1 6 2.4 3.6-2.1 5.8-3.2 10.1-3.2z"/><path d="m245.6 64.4c-4.5 0-8.2 3.7-8.2 8.2s3.7 8.2 8.2 8.2 8.2-3.7 8.2-8.2-3.7-8.2-8.2-8.2zm0 1.2c3.9 0 7 3.1 7 7s-3.1 7-7 7-7-3.1-7-7 3.1-7 7-7z"/><path d="m242.2 67.6v9.7h1.7v-3.9h1.7l2.1 3.9h2.1l-2.2-4c1.4-.6 1.9-1.3 1.9-2.9 0-2-.9-2.8-3.6-2.8zm1.7 1.4h1.5c1.3 0 2.2.4 2.2 1.5s-1 1.4-2.2 1.4h-1.5z"/></g></svg>