<svg viewBox="0 0 334 100" xmlns="http://www.w3.org/2000/svg"><path d="m2 2.1v10.4c0 6 4.9 10.9 10.9 10.9h76.6v-10.4c0-6-4.9-10.9-10.9-10.9z"/><path d="m45.8 27.2h-10.9v59.9c0 6 4.9 10.9 10.9 10.9h10.8v-59.9c0-6-4.8-10.9-10.8-10.9z"/><path d="m161.2 2.1h-61.9v10.4c0 6 4.9 10.9 10.9 10.9h51.5c4.7 0 8.3 3.4 8.3 8 0 4.4-3.5 8-8.3 8h-62.4v58.6h10.8c6 0 10.9-5 10.9-11v-26.3h30.9l15.4 30.3c2.2 4.3 6.6 7 11.5 7h16.2l-20.4-40.1c10.1-4.8 16.8-15.6 16.8-26.5 0-19.7-16.2-29.3-30.2-29.3z"/><path d="m247.3 38.1 6.4-7.1-22.1-24.3c-2.7-3-6.3-4.6-10.2-4.6h-21.4l32.8 36c3.9 4.3 10.4 4.5 14.5 0z"/><path d="m315 2.1h-22.3c-3.9 0-7.5 1.6-10.2 4.6l-83.4 91.3h22.3c3.9 0 7.5-1.6 10.2-4.6l25.9-28.4 25.9 28.4c2.7 3 6.3 4.6 10.2 4.6h21.4l-43.8-48z"/><path d="m327.3 2c2.6 0 4.7 2.1 4.7 4.8s-2 4.8-4.7 4.8-4.8-2-4.8-4.8 2.2-4.8 4.8-4.8zm0 8.9c2.2 0 3.9-1.7 3.9-4.1 0-2.3-1.7-4.1-3.9-4.1s-4 1.8-4 4.1 1.7 4.1 4 4.1zm.3-6.9c1.2 0 1.9.4 1.9 1.6s-.7 1.4-1.4 1.5l1.6 2.5h-1l-1.5-2.4h-.9v2.4h-.9v-5.6zm.1 2.5c.5 0 1-.3 1-.9s-.4-.9-.8-.9h-1.6v1.8z"/></svg>