<svg viewBox="0 0 870 100" xmlns="http://www.w3.org/2000/svg" xmlns:xlink="http://www.w3.org/1999/xlink"><g id="figure"><path id="a" d="m12.9 8.6h115.1l-10.6 25h-40.4l-24.2 62.7h-32.9l23.8-62.7h-41.7z"/><path id="b" d="m169.9 8.6-21.4 55.1c-1.4 3.3-1 9.1 9.3 9.4h28.6c8.7-.1 12.3-3.6 15.5-10.9l20.8-53.6h33l-25.9 66.9c-4.7 11.2-12.4 22.4-28 22.5h-67.5c-10.7 0-23.8-3.7-23.8-16.5 0-2.8.6-6.1 2.1-9.9l24.4-63z"/><path d="m269.8 8.9h37.9l26.7 56.8 22-56.8h33.6l-34.1 87.4h-38.4l-26.8-56.8-22.4 57h-32.1z"/><use transform="translate(386.1)" xlink:href="#a"/><use transform="translate(386)" xlink:href="#b"/><path d="m747.6 8.6c6.1-.1 13.2 2.2 16 9.2.6 1.5.9 3.2.9 5.1 0 9.3-6.7 22.9-12 35.1-1.7 3.4-4.8 10.8-18.9 11.3h-13.9l27.4 27h-36.8l-29.5-28.7 7.3-19 34.6.1c1.4 0 2.6.1 3.5-.4 2.8-1.4 8.8-12.9 7.7-15.4-.5-1.1-1.2-1.3-6-1.3-9.3 0-46.6.1-46.6.1l-25.8 64.6h-33.8l34.1-87.7z"/><path d="m817.7 8.6-31.8 87.7h-32.4l31.6-87.7z"/><path d="m846.4 16.4h.5c1.7 0 3.6.3 3.6 2.4s-2 2.4-3.6 2.4h-.5zm5.1 7.6c2.8-.5 4.3-2.8 4.3-5.5 0-4.2-3-6-6.9-6h-7.6v19.6h5.1v-7.6h.1l4.8 7.6h6.3"/><path d="m828.3 21.9c0-11 8.8-19.9 19.8-19.9s19.9 8.9 19.9 19.9-8.9 19.8-19.9 19.8-19.8-8.8-19.8-19.8zm19.8 15.7c8.7 0 15.8-7 15.8-15.7s-7.1-15.8-15.8-15.8-15.7 7.1-15.7 15.8 7 15.7 15.7 15.7z"/></g></svg>