<svg viewBox="0 0 280 100" xmlns="http://www.w3.org/2000/svg"><g><path d="m24.4 2h32.9l-19.6 70.5c-.7 2.6 1.3 4.4 4.1 4.4h5.1c3.3 0 6.8.1 7.8-3.5l19.8-71.4h32.7l-23 83c-3.1 11.3-13.5 13-22.8 13h-41c-12.7 0-18.4-6.8-18.4-12.5 0-2.9.2-3.1 2.5-11.2z"/><path d="m193 2-5.9 21.1h-70.7l5.9-21.1z"/><path d="m95.6 98 16.8-60.3h70.7l-5.9 21.1h-38l-10.7 39.2z"/><path d="m224.4 2h53.6l-5.8 21.1h-34.8c-4.5 0-6.4.5-7.4 3.9l-12.7 45.8c-.6 2.2 1.2 4.1 4.7 4.1h37.9l-5.8 21.1h-53.7c-8.9 0-19.5-6-16.7-16.2l18.2-65.6c3.5-12.5 12.7-14.2 22.5-14.2z"/></g></svg>