<svg viewBox="0 0 278 100" xmlns="http://www.w3.org/2000/svg" xmlns:xlink="http://www.w3.org/1999/xlink"><g id="figure"><path d="m173.2 2c-11 0-23 8.2-32.6 21.7-4 5.7-7.5 11.8-10.6 18.1-1.4 3-2.9 5.9-5.1 8.5-1.6 1.9-5 6.1-9.9 6-5.8-.1-10.1-6.1-11-7.4-1.8-2.5-3.1-5.4-4.6-8.1-1.2-2.3-2.1-4.9-3.2-7.3-1.2-2.6-3.5-4.2-6.1-4.3-3.3 0-6.8 2.5-6.8 6.7 0 1.5.4 4.4 3.8 6 2.9 1.4 5.7 3 8.4 4.9 6.1 4.3 8.3 7.9 10.8 10.5 3.4 3.5 6 5.4 10.2 5.4 8.4 0 13-8.3 17-14.6 6.2-9.5 12.9-17.5 19.6-21.5 2.7-1.6 5.5-2.8 8.8-2.7 5.1.2 7.5 4.3 7.7 7.2.4 6.9-4.9 9.1-7.8 9.3-.5 0-.9.1-1.2.7 4.7 5.3 13.9 4.4 14.9 4.4 9.4-.2 20-8.5 20-22.4.1-5.9-4.4-21.1-22.3-21.1z"/><path d="m2 71.1h6.9l4.6 14.8c.1.3.7 2.3 1 4.3h.1c.3-1.7.6-3.2 1-4.3l4.6-14.7h6.8l-9.1 26h-6.7z"/><path d="m27.4 97.2v-26.1h6.4v26.1z"/><path d="m35.7 84.1c0-7.5 5.5-13.4 13.7-13.4 3.1 0 7 1 9.7 3.7l-2.9 4.8c-1.2-1.1-3.7-2.6-6.5-2.6-7 0-7.4 6.2-7.4 7.4 0 3.5 2 7.8 7.4 7.8 2.5 0 4.7-1 6.9-3.2l3.3 4.6c-2.8 2.9-6.3 4.4-10.5 4.4-8.7 0-13.7-6.1-13.7-13.5z"/><path d="m67.5 97.2v-20.6h-7.9v-5.4h22.2v5.4h-7.9v20.6z"/><path d="m81 84c0-7.2 5.1-13.3 13.6-13.3s13.7 6.1 13.7 13.3c0 7.5-5.3 13.6-13.7 13.6-8.1 0-13.6-5.9-13.6-13.6zm6.6 0c0 4.5 2.9 7.8 7 7.8s7.1-3.4 7.1-7.8c0-4.3-3-7.4-7.1-7.4s-7 3.1-7 7.4z"/><path d="m109.6 71.1h9c2.8 0 6.3.1 8.6 3.5 1.6 2.4 1.7 6.1.3 8.9-.7 1.3-1.7 2.3-2.9 2.9v.1c.2.3.6.8 1 1.5l5 9.1h-7.1l-4.6-8.7h-3v8.8h-6.3zm6.3 11.8h2.8c1.7 0 3.3-.6 3.3-3.1 0-1.8-.7-3.2-3.9-3.2h-2.2z"/><path d="m136.1 97.2v-10.7l-8.6-15.3h7.3l2.9 6.2 1.5 3.8h.1c.5-1.3 1.1-2.6 1.6-3.8l2.9-6.2h7.3l-8.6 15.3v10.7z"/><path id="a" d="m160 72.2c-3.6 0-6.1 2.2-6.1 5.2 0 3.3 3 4.5 6.2 5.8 3.7 1.5 7.8 3.2 7.8 7.9 0 3.8-3 6.8-8.2 6.8-3.8 0-6.8-2-8.2-4.5l1.5-1c1.5 2.4 3.7 3.9 7 3.9 3.6 0 6.2-2 6.2-5.2 0-3.7-3.4-5.1-6.8-6.5-3.6-1.5-7.2-3.1-7.2-7.3 0-3.6 2.8-6.7 7.8-6.7 3.1 0 5.8 1.2 7.3 3.8l-1.3.9c-1.3-2-3.3-3.1-6-3.1z"/><path d="m180 71.1c4.2 0 7.8 3.3 7.8 7.8s-3.6 7.8-7.8 7.8h-7.3v10.8h-1.6v-26.4zm-.1 14.1c3.3 0 6.2-2.7 6.2-6.3 0-3.5-2.9-6.3-6.2-6.3h-7.2v12.6z"/><path d="m216.1 84.3c0 7.8-5.8 13.7-13.4 13.7s-13.6-5.9-13.6-13.7 6-13.7 13.6-13.7c7.5 0 13.4 5.9 13.4 13.7zm-25.3 0c0 6.8 5.3 12.1 11.9 12.1s11.7-5.3 11.7-12.1-5.1-12-11.7-12-11.9 5.2-11.9 12z"/><path d="m219.2 71.1h9c3.9 0 7.3 3.2 7.3 7.5 0 3.6-2.4 6.3-5.5 7.2l5.5 11.7h-1.8l-5.4-11.4h-7.6v11.4h-1.5zm1.5 13.5h7.4c3.1 0 5.8-2.6 5.8-6 0-3.3-2.7-5.9-5.8-5.9h-7.4z"/><path d="m238.2 71.1h19.1v1.5h-8.8v24.9h-1.6v-24.9h-8.7z"/><use transform="translate(108.1)" xlink:href="#a"/></g></svg>