<svg viewBox="0 0 324 100" xmlns="http://www.w3.org/2000/svg"><g id="figure"><path d="m88.2 12.6c-8.7 14.5-14.3 21.7-19.8 28.7-6.5 8.2-12.9 11.9-13.6 12-9.4 1.3-19.1-6.8-25.2-13.3-2.1-2.5-3-5.8-.3-8 3.9-3.2 16.3-9.6 39.8-12l2.1-.2.4-1.4c.5-1.7-1.6-1.7-1.8-1.7-24.1-1.3-49.5 5.6-50.6 5.9-1.3-3-2.6-6-3.5-9.1-.8-2.9 1.9-4.5 3.8-4.8 8.4-1.5 19.5-3.2 26.8-3.4 14.3-.5 22.8.1 39.6 2.9 2 .3 3.2 2.9 2.3 4.4zm-.3-6.5c-18.7-3.3-29.1-4.1-41.3-4.1-16 0-24.5 1.2-41.3 4.1-2.3.4-3.3 2.5-3.3 3.9 0 .6 0 1.2.3 1.8 12 25.5 21.6 38.8 41.5 58.1 1 1 2.1 1.1 2.8 1.1.6 0 1.8-.1 2.8-1.1 19.9-19.3 29.5-32.6 41.5-58.1.3-.6.3-1.2.3-1.8 0-2.2-1.8-3.6-3.3-3.9z"/><path d="m103.9 39.9h10.2l-21 38.2h-8.7l-14.1-27.3 5.1-6.7 11.9 22 1.4 3 1.3-3z"/><path d="m119.5 78.1h9.5v-38.2h-9.5z"/><path d="m158.9 55.8c-5.3-1.5-10.3-2.9-10.3-5.5 0-2.1 3.4-4.4 8.9-4.4 6.6 0 11.5 3 11.5 3l.7.4 4.6-5.6-.8-.6c-.2-.2-5.7-3.8-16-3.8-10.5 0-18.5 4.8-18.5 11.1 0 6.8 8.3 9.2 15.6 11.3 5.6 1.6 10.8 3.1 10.8 6 0 3-4.4 4.4-8.5 4.4-7.7 0-13.3-3.7-13.4-3.7l-.5-.4-5.7 5.1.9.6c.3.2 6.9 5 18.6 5 10.7 0 18.1-4.6 18.1-11.2 0-7.2-8.5-9.6-16-11.7z"/><path d="m184 73.3v4.8h9.5v-28.5s-2 11-9.5 23.7zm9.5-33.4h-9.5v24.3c1-1.5 6-6.9 9.5-18.3z"/><path d="m260.5 58.8c0 11.2-12.6 19.9-28.8 19.9s-28.9-8.7-28.9-19.9c0-10.9 12.7-19.5 28.9-19.5s28.8 8.6 28.8 19.5zm-48 0c0 7.5 8.4 13.4 19.2 13.4 10.7 0 19.1-5.9 19.1-13.4 0-7.3-8.4-13-19.1-13s-19.2 5.7-19.2 13z"/><path d="m303.9 39.9v24.6l.1 2.3-2.7-3-24.5-23.9h-8.9v38.2h9.5v-24.5l-.1-2.4 2.7 3.1 24.6 23.8h8.7v-38.2z"/><path d="m319.2 39.2c-1.5 0-2.8 1.3-2.8 2.8s1.3 2.8 2.8 2.8 2.8-1.3 2.8-2.8-1.3-2.8-2.8-2.8zm0 .6c1.2 0 2.2 1 2.2 2.2s-1 2.2-2.2 2.2-2.2-1-2.2-2.2 1-2.2 2.2-2.2zm-1.2.7v3h.5v-1.2h.2c.1 0 .3 0 .4.1s.3.3.4.6l.2.5h.8c-.2-.3-.4-.7-.6-1-.1-.2-.2-.2-.4-.3.2 0 .4-.1.6-.3.1-.2.2-.4.2-.6 0-.4-.4-.8-1-.8zm.5.5h.6c.3 0 .5.1.5.2.1.1.1.3 0 .4s-.2.2-.5.2h-.6z"/><path d="m175.8 83.9h9.3v2.2h-6.7v3.6h6.3v2.3h-6.3v5.7h-2.6z"/><path d="m197.5 97.7h2.5v-13.8h-2.5z"/><path d="m216.2 86.1h-4.4v-2.2h11.3v2.2h-4.4v11.6h-2.5z"/><path d="m234.9 83.9h3.4l6.9 10.2v-10.2h2.6v13.8h-3.2l-7.2-10.6v10.6h-2.5z"/><path d="m261.1 83.9h9.4v2.2h-6.9v3.4h6.6v2.2h-6.6v3.7h7.3v2.3h-9.8z"/><path d="m290.5 86.9c-.5-.7-1.5-1.1-2.5-1.1-1.2 0-2.3.5-2.3 1.8 0 2.8 6.8 1.1 6.8 6 0 2.9-2.5 4.4-5.3 4.4-1.8 0-3.4-.5-4.6-1.8l1.9-1.8c.6.9 1.7 1.4 2.8 1.4 1.2 0 2.5-.6 2.5-1.9 0-3-6.8-1.3-6.8-6.2 0-2.8 2.6-4.1 5.2-4.1 1.5 0 3.1.4 4.2 1.4z"/><path d="m312.1 86.9c-.5-.7-1.5-1.1-2.5-1.1-1.2 0-2.3.5-2.3 1.8 0 2.8 6.8 1.1 6.8 6 0 2.9-2.5 4.4-5.3 4.4-1.8 0-3.4-.5-4.6-1.8l1.9-1.8c.6.9 1.7 1.4 2.8 1.4 1.2 0 2.5-.6 2.5-1.9 0-3-6.8-1.3-6.8-6.2 0-2.8 2.6-4.1 5.2-4.1 1.5 0 3.1.4 4.2 1.4z"/></g></svg>