<svg viewBox="0 0 398 100" xmlns="http://www.w3.org/2000/svg"><g id="figure"><path d="m40.2 69.4 14.9-31.5h12.4l14.9 31.5 14.9-31.5h23.2l-30.9 58.2h-13.7l-14.6-31.9-14.7 31.9h-13.6l-30.9-58.2h23.3zm142 26.7h-21v-6.5h-.2c-3.8 5.8-11 8.4-18 8.4-17.5 0-29.8-14.4-29.8-31.1s12.1-30.9 29.7-30.9c6.8 0 14 2.5 18.3 7.6v-5.7h21v58.1zm-47.3-29c0 7.4 5 13 13.5 13s13.5-5.7 13.5-13c0-7.4-5-13.2-13.5-13.2s-13.5 6-13.5 13.2zm71.6-65.1v43.3h.2c4.8-6.3 10.7-9.3 18.9-9.3 15 0 22.3 9.7 22.3 24.5v35.6h-20.9v-29.8c0-6.8-1-13.8-9.5-13.8-8.4 0-11 7-11 13.8v29.8h-21v-94.1zm115.3 65.1c0 19.7-16.6 30.9-35.6 30.9-19.1 0-35.7-11.1-35.7-30.9s16.6-31.1 35.7-31.1c19 0 35.7 11.2 35.7 31.1zm-49.2 0c0 7.4 5 13 13.5 13s13.5-5.7 13.5-13c0-7.4-5-13.2-13.5-13.2s-13.5 6-13.5 13.2zm123.2 0c.1 19.7-16.5 30.9-35.6 30.9-19 0-35.6-11.1-35.6-30.9s16.6-31.1 35.7-31.1c19 0 35.7 11.2 35.7 31.1zm-49.2 0c0 7.4 5 13 13.5 13s13.5-5.7 13.5-13c0-7.4-5-13.2-13.5-13.2s-13.5 6-13.5 13.2z"/></g></svg>