<svg viewBox="0 0 186 100" xmlns="http://www.w3.org/2000/svg" xmlns:xlink="http://www.w3.org/1999/xlink"><g id="figure"><path d="m184.2 33.6c-2.8-17.3-60.5-31.4-131.3-31.4-18.1 0-35.6 1.2-51.1 4.9v27.8c3.1-.9 6.5-1.3 10.5-1.3 8.6-.1 12.6 6.2 21.2 6.2 8.9.1 13-6.3 21.8-6.2 8.6.1 12.6 6.2 21.2 6.2 8.9.1 13-6.4 21.8-6.2 8.7.1 12.6 6.5 21.2 6.6s12.6-6.3 21.2-6.2c8.2.1 11.9 5.7 20.1 5.9 9.1.2 13.3-6.4 22.4-6.2h.8"/><path d="m1.8 47.5c3.1-.8 6.5-1.2 10.5-1.2 8.6-.1 12.6 5.5 21.2 5.6 8.9.1 13-5.6 21.8-5.6 8.6.1 12.6 5.5 21.2 5.6 8.9.1 13-5.7 21.8-5.6 8.7.1 12.6 5.8 21.2 5.9s12.6-5.6 21.2-5.5c8.2.1 11.9 5.1 20.1 5.2 4.8.1 8.3-1.5 11.8-3l.4-.2c5.2-2.6 8.7-5.4 10.3-8.4-9.1-.1-13.4 5.7-22.4 5.5-8.2-.2-11.9-5.2-20.1-5.2-8.6-.1-12.6 5.6-21.2 5.5-8.7 0-12.6-5.8-21.2-5.9-8.9-.1-13 5.6-21.8 5.6-8.6-.1-12.6-5.5-21.2-5.6-8.9-.1-13 5.6-21.8 5.6-8.6-.1-12.6-5.6-21.2-5.6-4 0-7.4.4-10.5 1.2v6"/><path d="m116.9 64.3c2.5.4 3.9.2 5.8-.1 1.7-.2 3.3-.6 5.1-1.4 3.9-1.8 7.7-3.9 13.1-3.8 1.5 0 2.9.2 4.1.5.2 0 2.6.2 3.7.1 2.1-.2 4.4-2.2 5.2-2.6 1.3-.8-2.8-2-3.9-2.4-3.3-1.4-4.6-1.5-9.1-1.5-8.6-.1-12.6 5.6-21.2 5.5-8.7 0-12.6-5.7-21.2-5.9-8.9-.1-13 5.6-21.8 5.6-8.6-.1-12.6-5.5-21.2-5.6-8.9-.1-13 5.6-21.8 5.6-8.6-.1-12.6-5.6-21.2-5.6-4 0-7.4.4-10.6 1.2v6c3.1-.8 6.5-1.2 10.6-1.2 8.6-.1 12.6 5.5 21.2 5.6 8.9.1 13-5.6 21.8-5.6 8.6.1 12.6 5.5 21.2 5.6 8.9.1 13-5.7 21.8-5.6 7.7.1 11.6 4.6 18.4 5.6z"/><path d="m14.9 97.5c-.1 0-.2-.1-.2-.1l-3.2-13-3.1 13c0 .1-.1.1-.2.1h-2.2c-.1 0-.2-.1-.2-.1l-4-15.8c0-.1.1-.1.1-.1h1.9c.1 0 .2.1.2.1l3.3 13.4 3.2-13.4c0-.1.1-.1.2-.1h2.2c.1 0 .2.1.2.1l3.2 13.6 3.3-13.6c0-.1.1-.1.2-.1h1.7c.1 0 .1.1.1.1l-4.2 15.8c0 .1-.1.1-.2.1h-2.2"/><path d="m34.7 90.9-2.7-7.9-2.7 7.9zm2.4 6.6c-.1 0-.2 0-.2-.1l-1.6-4.6h-6.6l-1.6 4.6c0 .1-.1.1-.2.1h-1.9c-.1 0-.1-.1-.1-.1l5.7-15.8c0-.1.1-.1.2-.1h2.5c.1 0 .2 0 .2.1l5.6 15.8c0 .1 0 .1-.1.1z"/><path d="m46.9 97.5c-.1 0-.1-.1-.1-.1l.1-7.8-.1-6.4h-4.5c-.1 0-.1-.1-.1-.1v-1.4c0-.1.1-.1.1-.1h11.2c.1 0 .1.1.1.1v1.4c0 .1-.1.1-.1.1h-4.5l-.1 6.4.1 7.8c0 .1-.1.1-.1.1h-1.9"/><path id="a" d="m59.5 97.5c-.1 0-.1-.1-.1-.1l.1-8.1-.1-7.6c0-.1.1-.1.1-.1h9.8c.1 0 .1.1.1.1v1.4c0 .1-.1.1-.1.1h-7.8v4.9h7.3c.1 0 .1.1.1.1v1.4c0 .1-.1.1-.1.1h-7.3v6h8c.1 0 .1.1.1.1v1.4c0 .1-.1.1-.1.1h-10"/><path id="b" d="m81.4 83.2h-3.8l-.1 6.1h3.9c2.1 0 3.6-.9 3.6-3 0-2-1.3-3.1-3.6-3.1m2 11.6-2.5-3.8h-3.4l.1 6.4c0 .1-.1.1-.1.1h-1.9c-.1 0-.1-.1-.1-.1v-8.1-7.6c0-.1.1-.1.1-.1h5.7c3.7 0 5.9 1.6 5.9 4.7 0 2.6-1.5 4.1-3.9 4.6l4.2 6.6s0 .1-.1.1h-2.2c-.1 0-.2 0-.2-.1z"/><use transform="translate(17.7)" xlink:href="#b"/><path d="m117.8 96.1c3.4 0 5.4-2.5 5.4-6.5 0-4.1-2-6.6-5.5-6.6-3.4 0-5.4 2.5-5.4 6.6s2.1 6.5 5.5 6.5m0 1.8c-4.6 0-7.6-3.3-7.6-8.3 0-5.1 3-8.3 7.7-8.3 4.6 0 7.6 3.2 7.6 8.3 0 5-3 8.3-7.7 8.3"/><path d="m130.2 81.5c-.1 0-.1.1-.1.1l4.1 15.8c0 .1.1.1.2.1h2.3c.1 0 .2-.1.2-.1l3.1-13 3.3 13c0 .1.1.1.2.1h2.2c.1 0 .2-.1.2-.1l4.1-15.8c0-.1 0-.1-.1-.1h-1.7c-.1 0-.2.1-.2.1l-3.3 13.6-3.2-13.6c0-.1-.1-.1-.2-.1h-2.2c-.1 0-.2.1-.2.1l-3.2 13.4-3.3-13.4c0-.1-.1-.1-.2-.1z"/><g transform="translate(96)"><use xlink:href="#a"/><use xlink:href="#b"/></g></g></svg>