<svg viewBox="0 0 442 100" xmlns="http://www.w3.org/2000/svg" xmlns:xlink="http://www.w3.org/1999/xlink"><g id="figure"><path d="m69.9 43.5c0 4.5 0 10.4-5.7 10.4-5.6 0-5.7-6-5.7-10.4v-39.8h-22.6v39.8c0 5.8-.4 10.4-5.8 10.4-5.5 0-5.7-6.1-5.7-10.4v-39.8h-22.4v37.5c0 29.8 18.5 34.8 29.4 34.9 5.6 0 10.9-1.5 15.8-4.5 4.9 3 10.1 4.5 15.7 4.5 10.3 0 29.4-4.2 29.4-34.9v-37.5h-22.4z"/><path d="m122.2 3.8h-22.4v70.5h22.4z"/><path d="m159 2c-6.2 0-29.3 2.2-29.3 34.2v38.1h22.5v-38.5c0-5.1.6-11.8 6.8-11.7 6.4.1 6.8 6.8 6.8 11.7v38.5h22.5v-38.1c0-31.8-22.6-34.2-29.3-34.2z"/><path d="m262.9 34.6c0-4.5 0-10.4-5.7-10.4-5.6 0-5.7 6-5.7 10.4v39.8h-22.6v-39.8c0-5.8-.4-10.4-5.8-10.4-5.5 0-5.7 6.1-5.7 10.4v39.8h-22.4v-37.5c0-29.8 18.5-34.8 29.4-34.9 5.6 0 10.9 1.5 15.8 4.5 4.9-3 10.1-4.5 15.7-4.5 10.3 0 29.4 4.2 29.4 34.9v37.5h-22.4z"/><path d="m328.3 38.9h-13.8c-.1-5.9-1.2-15.1 6.6-14.8 8.1.3 7.2 9.1 7.2 14.8zm-6.9-36.9c-9.1 0-29.3 3.5-29.3 34.9v37.5h22.4v-15.6h13.8v15.6h22.5v-37.5c0-31.7-20.9-34.9-29.4-34.9z"/><path d="m388.5 76.1c-6.2 0-29.3-2.2-29.3-34.2v-38.1h22.5v38.5c0 5.1.6 11.8 6.8 11.7 6.4-.1 6.8-6.8 6.8-11.7v-38.5h22.5v38.1c0 31.8-22.6 34.2-29.3 34.2z"/><path d="m425.8 13.5c0-3.5 2.7-6.3 6.2-6.3s6 2.8 6 6.3-2.5 6.3-6 6.3c-3.6 0-6.2-2.8-6.2-6.3zm-2 0c0 4.5 3.7 8 8.2 8 4.6 0 8-3.5 8-8 0-4.4-3.4-7.8-8-7.8-4.5 0-8.2 3.4-8.2 7.8z"/><path d="m430.7 13.2v-2.3c.2-.1.5-.1 1-.1 1.2 0 1.7.6 1.7 1.3 0 .8-.8 1.1-1.8 1.1zm3 .5c1-.3 1.7-.9 1.7-1.8 0-2.1-2.1-2.4-3.5-2.4-1.3 0-2.4.2-3.1.3v7.9h1.8v-3.2h.9c1 0 1.4.3 1.6 1.2s.5 1.7.7 2h1.9c-.2-.3-.3-.8-.5-2-.2-1.1-.7-1.6-1.5-1.9"/><path id="a" d="m2 89.7h2.9l-1.7 8h2l1.8-8h2.9l.3-1.7h-7.9z"/><path id="b" d="m27.2 91.7h-3.8l.8-3.7h-2.1l-2 9.7h2l.9-4.3h3.8l-.9 4.3h2l2.1-9.7h-2z"/><path id="c" d="m40.2 97.7h7.4l.3-1.7h-5.4l.6-2.5h4.7l.4-1.7h-4.8l.5-2.1h5.1l.4-1.7h-7.1z"/><path d="m74.5 97.7h2.1l.8-4.1h4.3l.4-1.7h-4.3l.5-2.2h4.8l.4-1.7h-6.9z"/><path d="m101.1 94.1c-.5 1.1-1.4 2.2-2.8 2.2-1.5 0-2.2-.7-2.2-2.2 0-.6.1-1.3.3-1.9.5-1.8 1.7-2.7 3.2-2.7 1.7 0 2 1.4 2 2.3 0 1-.3 1.8-.5 2.3zm-6.4-2.8c-.7 1.6-.7 2.9-.7 3.1 0 3.3 2.8 3.6 3.6 3.6 1 0 2.9-.3 4.4-2.1.7-.8 1.6-2.3 1.6-4.4 0-3.7-2.8-3.7-3.9-3.7-1.9 0-4 1.2-5 3.5z"/><path id="d" d="m120.4 92.3h-2.4l.5-2.6h2.7c.5 0 1.1.3 1.1 1 0 1-1 1.6-1.9 1.6zm1.7-4.3h-5.2l-2 9.7h2l.8-3.8h2.3c.8 0 1.1.2 1.1.9s-.2 1.3-.3 2v.9h2.2l.1-.2c-.2-.1-.3-.3-.3-.5 0-.3.1-.5.1-.8.1-.4.3-1.1.3-1.9 0-.6-.3-1-.9-1.2.6-.1 1.2-.7 1.4-1 .5-.6.7-1.2.7-1.9s-.5-2.2-2.3-2.2z"/><path d="m141.7 87.8c-.9 0-2.5.2-3.7 1.4-1.6 1.5-2.2 3.8-2.2 5.2 0 .9.2 2.3 1.5 3.1.7.4 1.5.5 2.2.5.5 0 2-.1 3.2-1.2.3-.3 1.2-1.1 1.7-2.4h-2.1c-.1.3-.1.5-.3.7-.6.8-1.6 1.2-2.2 1.2-.7 0-1.9-.5-1.9-2.2 0-.2.1-1.5.9-3 .7-1.3 1.8-1.6 2.5-1.6.4 0 1.1.1 1.5.8.1.3.2.6.2.9h2.1v-.3c0-1-.5-3.1-3.4-3.1z"/><use transform="translate(115.8)" xlink:href="#c"/><path d="m195.9 91.8h-2.4l.5-2.1h2.4c.8 0 1.3.3 1.2.9-.1 1.1-1.3 1.2-1.7 1.2zm-.7 4.2h-2.6l.6-2.5h2.6c.4 0 1.2.1 1.2 1 0 .8-.8 1.5-1.8 1.5zm2-8h-4.8l-2.1 9.7h4.5c1.8 0 3.9-.7 4.2-3.3.1-1-.3-1.5-1.1-1.9 1.2-.4 1.8-1.6 1.8-2.4 0-1-.7-2.1-2.5-2.1z"/><use transform="translate(170.7)" xlink:href="#c"/><path d="m251.1 97.7h2l2.1-9.7h-2z"/><use transform="translate(210.6)" xlink:href="#b"/><path d="m272.4 94.9-2.5-6.9h-2.1l-2.1 9.7h1.9l1.5-6.9 2.5 6.9h2l2.1-9.7h-1.9z"/><path id="e" d="m291.5 95.6c-.4.3-.8.4-1.3.4h-2l1.4-6.3h2.2c1.2 0 1.4 1 1.4 1.8s-.3 3.1-1.7 4.1zm-3.6-7.6-2 9.7h4.3c.9 0 1.8-.2 2.5-.8s1.4-1.3 1.8-2.2c.6-1.1.8-2.3.8-3.5 0-1.1-.3-1.9-.8-2.4s-1.2-.8-2-.8"/><use transform="translate(35.1)" xlink:href="#e"/><path d="m344.9 94 2.1-3.8.4 3.8zm1.4-6-5.5 9.7h2.1l1.1-2h3.6l.2 2h2.2l-1.4-9.7z"/><use transform="translate(247.2)" xlink:href="#d"/><use transform="translate(381.5)" xlink:href="#a"/><path d="m407.1 87.8c-3 0-4.4 1.9-4.4 3.7 0 .8.2 1.1.7 1.4 1.1.8 3 .9 4 1.4.5.3.5 1 0 1.4-.4.4-1.1.6-1.8.6s-1.1-.1-1.4-.3-.5-.7-.5-1.3h-1.9l-.1.7c0 2 1.7 2.6 3.4 2.6 3.4 0 4.8-2.2 4.8-3.7 0-1.3-.7-1.7-1.6-2-1.1-.4-2.2-.4-3.3-.9-.7-.3-.2-2 1.8-2 .6 0 1.5.2 1.5 1.5h2l.1-.6c0-2-1.5-2.5-3.3-2.5z"/><path d="m414.4 87.8v.5h.9v2.4h.6v-2.4h.9v-.5z"/><path d="m417.1 87.8v2.9h.6v-2.4l.5 2.4h.3.3l.5-2.4v2.4h.6v-2.9h-.9l-.5 2.2-.5-2.2z"/></g></svg>