<svg viewBox="0 0 100 100" xmlns="http://www.w3.org/2000/svg"><defs><mask id="x1"><path fill="#fff" d="m6.6 6.6h210.8v210.8h-210.8z"/><circle cx="112" cy="112" r="86"/><path d="m0 76.4v71.2h224v-71.2z"/></mask><clipPath id="x2"><circle cx="112" cy="112" r="106.5"/></clipPath><mask id="m1"><path fill="#fff" d="m0 0h224v224h-224z"/><circle cx="112" cy="112" mask="url(#x1)" r="105.4"/><path clip-path="url(#x2)" d="m0 79.8v64.4h224v-64.4z"/></mask></defs><g id="figure" transform="matrix(.428 0 0 .428 2 2)"><circle mask="url(#m1)" r="112" cx="112" cy="112"/><path d="m55.4 87.5-17.2 31-.4-19.3h-5.6l-11.5 18.9 2.9-30.6h-5.7l-5 46.3h6.4l12.2-19.5.5 19.5h6.3l25-46.3z"/><path d="m68.5 99.2-11.5 34.6h-7l11.5-34.6z"/><path d="m69.4 96.6 3-9.1h-7l-3.1 9.1z"/><path d="m99.3 106c.2-.6.4-1.5.4-2.6 0-1.9-.7-4.2-4.4-4.2h-20.8c-3.8 11.5-7.7 23.1-11.5 34.6h7.2c2.7-8 5.3-15.9 8-23.9h12.6c-2.7 8-5.2 15.9-7.9 23.9h7.2c3.1-9.3 5.9-17.9 9.2-27.8z"/><path d="m107.4 109.9h-6.4c1.2-3.5 2.6-7.2 3.8-10.7h6.2c1.3-3.9 2.6-7.8 3.9-11.7h7.1c-1.3 3.9-2.6 7.8-3.9 11.7h6.2c-1.1 3.5-2.2 7.2-3.3 10.7h-6.4c-1.5 4.6-3.1 9.2-4.6 13.8h6.3c-1.2 3.4-2.2 6.7-3.4 10.1h-7.3c-6.1 0-3.3-8.5-3.3-8.5 1.7-5.1 3.4-10.3 5.1-15.4z"/><path d="m119.1 133.8h6.9c2.7-8 5.3-15.9 8-23.9h12.6c-2.7 8-5.3 15.9-8 23.9h7c3.1-9.3 6-17.9 9.3-27.9.1-.4.4-1.3.4-2.4 0-2-.8-4.3-4.5-4.3h-13.3c1.3-3.9 2.6-7.8 3.9-11.7h-6.9c-5.1 15.4-10.3 30.9-15.4 46.3z"/><path d="m189 105.9c.1-.3.3-1.1.3-2.5 0-1.9-.7-4.2-4.4-4.2h-17.1c-2.4 0-3.3 1.5-3.5 1.9-1.4 2.4-2.9 5.5-4.2 8.8-2 5.3-3.4 11.1-4.3 17.2 0 0-.1.9-.1 1.9 0 2.1.6 4.8 3.1 4.8h20.9c1.2-3.5 2.2-6.9 3.4-10.4h-20.1c1.5-4.5 3-9 4.5-13.5h13.2c-.3.8-.6 1.7-.9 2.5h-11c-1 2.9-1.8 5.7-2.8 8.6h15.3c.4 0 2.6 0 4.2-4.8 1.1-3.4 2.4-6.8 3.5-10.3z"/><path d="m214.5 105.9c.1-.4.4-1.1.4-2.5 0-1.9-.8-4.2-4.5-4.2h-13.5c-3.8 11.5-7.7 23.1-11.5 34.6h7.2c2.7-8 5.3-15.9 8-23.9h6.2c-1.2 3.6-2.4 7.2-3.6 10.8h6.3c1.6-4.9 3.3-9.8 5-14.8z"/><path d="m62.7 29.5c1.2 2.3 3.5 3.6 5.7 2.4s2.3-3.8 1.1-6.1-3.5-3.5-5.7-2.3c-2.1 1.1-2.4 3.7-1.1 6zm6.7 4.2c-3.6 1.9-7.2.7-9.1-2.8-1.9-3.6-.9-7.3 2.6-9.2 3.4-1.9 7.1-.7 9 2.8s1.1 7.3-2.5 9.2z"/><path d="m78 17.4 1.2 3.5c1.6-.5 3.4-1.6 2.7-3.1-.8-1.7-2.5-.9-3.9-.4zm6.9 8.4c-1.2-1.5-2.4-2.6-3.9-3.5-.4.2-.8.3-1.2.4l1.4 4.3c.3.7.1 1.1-.9 1.4s-1.4.2-1.6-.5l-3.6-10.6c-.3-.7-.1-1 .6-1.3l3.3-1.1c2.3-.8 4.6-.5 5.5 2 .6 1.8-.3 3.5-1.4 4.1 2 .9 3.5 2.6 4.8 4.3.1.3-.1.5-1.1.9s-1.4.2-1.9-.4z"/><path d="m92.3 12.4 2.3 10.9c.2.8 0 1-1.1 1.2s-1.3.2-1.5-.6l-2.3-10.9c-.2-.8.1-1 1.1-1.3 1.1-.3 1.3-.1 1.5.7z"/><path d="m105.2 11.6c-2.6.2-4 2.2-3.8 5 .2 2.5 1.7 4.7 4.4 4.5.8-.1 1.6-.3 2.4-.7l-.1-2.6-1.3.1c-.8.1-1-.1-1.1-.9s.1-1.1.9-1.2l2.9-.2c.8-.1 1 .2 1.1 1l.3 3.7c.1.8 0 1.1-.8 1.5-1.4.7-2.9 1.2-4.3 1.3-4 .3-6.9-2.2-7.2-6.2-.3-3.6 1.9-7.1 6.2-7.4 1.9-.1 3.6.5 4.8 1.9.2.2.3.4.3.5 0 .2-.2.5-.5.7s-.4.3-.6.3-.4-.2-.7-.4c-.8-.7-1.8-1-2.9-.9z"/><path d="m119 10.8-.6 11.1c0 .8-.3 1-1.4.9s-1.3-.3-1.3-1.1l.6-11.1c0-.8.3-1 1.4-.9s1.3.3 1.3 1.1z"/><path d="m134.3 13c.1-.8.4-1 1.4-.8s1.1.4 1 1.2l-2 11c-.1.7-.4 1-1.2.8s-1-.4-1.4-1.1l-4.6-9.3-1.5 7.9c-.1.8-.4 1-1.4.8s-1.1-.4-1-1.2l2-11c.1-.8.5-.9 1.5-.7s1.2.3 1.6 1.1l4.3 8.5z"/><path d="m147 19.9-3.1 3.3 3.3 1.3zm.2 6.7-4.9-1.8-1.5 1.6c-.6.6-.9.7-1.8.3s-1.1-.5-1-.8c0-.1.1-.2.3-.4l9-8.9c.5-.5.7-.5 1.3-.3s.8.4.8 1.1l.7 12.5v.5c-.1.3-.4.3-1.5-.1s-1.3-.6-1.3-1z"/><path d="m160.7 34.5c.7.4.7.6.3 1.3s-.6.8-1.3.4l-5.7-3.1c-.7-.4-.8-.7-.4-1.4l5.5-9.7c.4-.7.7-.8 1.7-.2s1 .8.6 1.5l-4.9 8.8z"/><path d="m34.9 176.1 1.3 1.4c1.8 2 4.3 2.1 6.3.3 1.7-1.5 2.8-3.9.5-6.5l-1.2-1.3zm-2.5-1.4 8.4-7.4c.6-.5.9-.5 1.4.1l2.6 2.9c2.9 3.3 2.4 7-.4 9.5-2.9 2.5-6.7 2.5-9.6-.8l-2.5-2.8c-.5-.6-.5-1 .1-1.5z"/><path d="m53.1 184-4 2.1 2.7 2.2zm-2.5 8.6.6-2.2-4.1-3.3-1.9 1.1c-.7.4-1 .3-1.7-.2l-.5-.4c-.4-.3-.5-.6-.3-.8.1-.1.2-.2.4-.3l11.3-5.7c.6-.3.9-.2 1.4.2s.6.7.4 1.3l-3.3 12.2c-.1.2-.1.3-.2.4-.2.2-.5.2-.9-.1l-.7-.6c-.7-.5-.7-.8-.5-1.6z"/><path d="m70.6 192c.4-.7.6-.8 1.5-.3s1 .8.6 1.5l-5.5 9.8c-.4.7-.7.7-1.4.3s-.9-.6-1-1.4l-1.4-10.4-3.9 7c-.4.7-.7.8-1.6.3s-1-.8-.6-1.5l5.5-9.7c.4-.7.8-.7 1.7-.2s1 .7 1.1 1.6l1.3 9.5z"/><path d="m79.7 196-4.2 10.4c-.3.7-.6.8-1.6.4s-1.2-.7-.9-1.4l4.2-10.4c.3-.7.6-.8 1.6-.4s1.2.7.9 1.4z"/><path d="m88.6 197.6c1.6.4 2.8 1.7 3.2 3.3.1.2 0 .4 0 .5-.1.2-.3.4-.6.5s-.6 0-.7 0c-.2-.1-.3-.2-.5-.6-.4-.8-.9-1.4-1.7-1.6-1.1-.3-2.2-.1-2.5 1-.3.9.4 1.6 1.4 2.2 1.9 1.2 4.1 2.3 3.3 5.1-.7 2.5-3.3 3.4-5.9 2.7-2.1-.6-3-2-3.4-3.6-.1-.2-.1-.4-.1-.5.1-.2.3-.4.7-.5s.5 0 .6 0c.2.1.4.3.6.7.4.9 1.1 1.6 2.1 1.9 1.2.3 2.4 0 2.7-1.2.3-1-.4-1.6-2.4-2.8-1.6-.9-2.8-2.3-2.2-4.6s3.1-3.1 5.4-2.5z"/><path d="m96.4 213.1c-1.1-.1-1.2-.4-1.2-1.2l1.3-11c.1-.8.4-1 1.5-.9s1.3.4 1.2 1.2l-.5 4.3 5.4.6.5-4.3c.1-.8.3-.9 1.4-.8s1.3.3 1.2 1.1l-1.2 11.1c-.1.8-.4 1-1.5.9s-1.3-.4-1.2-1.2l.5-4.8-5.3-.6-.6 4.8c-.1.8-.4.9-1.5.8z"/><path d="m122.4 211.8 1.9-.2c2.7-.3 4-2.4 3.7-5.1-.3-2.3-1.6-4.4-5-4l-1.7.2zm-2.5 1.4-1.4-11.2c-.1-.8 0-1 .8-1.1l3.9-.5c4.4-.6 7.1 2 7.6 5.7.5 3.8-1.8 6.9-6.1 7.5l-3.7.4c-.8.1-1 0-1.1-.8z"/><path d="m144.7 209.1-6.4 1.9c-.7.2-1.1.1-1.3-.7l-3.1-10.7c-.2-.8-.1-1 .6-1.2l6.4-1.9c.7-.2 1.1-.1 1.3.7s0 1-.7 1.2l-4.8 1.4.9 3.2 4.3-1.2c.7-.2 1-.2 1.2.6s.1 1.1-.6 1.3l-4.3 1.2 1.1 3.7 4.9-1.4c.7-.2 1-.1 1.2.7s0 1-.7 1.2z"/><path d="m146.7 198.3c-1-2.3.3-4.5 2.5-5.5 1.5-.7 3.2-.4 4.5.5.2.1.3.3.4.4.1.2 0 .4-.2.7s-.3.4-.4.5c-.2.1-.4 0-.8-.2-.8-.4-1.6-.4-2.4-.1-1 .5-1.7 1.4-1.2 2.4.4.9 1.2.9 2.4.7 2.2-.3 4.6-.8 5.8 1.9 1.1 2.4-.2 4.7-2.7 5.8-2 .9-3.7.5-5-.5-.2-.1-.3-.3-.4-.4-.1-.2 0-.5.2-.8s.4-.3.5-.4c.2-.1.5-.1.9.1.9.4 1.9.6 2.8.2 1.1-.5 1.8-1.6 1.3-2.7-.4-.9-1.3-1-3.6-.6-1.8.3-3.7 0-4.6-2z"/><path d="m159.8 188.6 5.8 9.6c.4.7.3 1-.7 1.6s-1.3.5-1.7-.2l-5.7-9.6c-.4-.7-.4-1 .6-1.6s1.3-.5 1.7.2z"/><path d="m169.5 182.8c-2.1 1.6-2.1 4.2-.4 6.4 1.5 2 4 2.9 6.2 1.2.7-.5 1.1-1.1 1.6-1.9l-1.6-2.1-1 .8c-.6.5-.9.5-1.4-.1s-.5-1 .1-1.5l2.4-1.8c.6-.5.9-.4 1.4.2l2.3 3c.5.7.6 1 .2 1.7-.7 1.3-1.8 2.5-2.9 3.4-3.2 2.5-7 2.1-9.5-1.1-2.2-2.8-2.3-7 1.1-9.7 1.5-1.1 3.4-1.5 5.1-1 .2.1.4.1.5.2.1.2.1.5 0 .8s-.3.5-.4.6c-.2.1-.4.1-1.1 0-1.3 0-2 .4-2.6.9z"/><path d="m181.8 169.7c-.6-.5-.7-.9 0-1.6s1-.8 1.6-.3l8.4 7.5c.6.5.5.8 0 1.4s-.8.8-1.6.7l-10.7-.8 6.3 5.4c.6.5.6.8-.1 1.5s-.9.8-1.5.3l-8.4-7.5c-.6-.5-.6-.8.1-1.6s.9-1 1.8-.9l9.6.8z"/></g></svg>