<svg viewBox="0 0 428 100" xmlns="http://www.w3.org/2000/svg" xmlns:xlink="http://www.w3.org/1999/xlink"><g id="figure"><path d="m55.6 57.3 38.9-41.2h-16.9l-22.3 22.9-.9-22.9h-11.8l-24 22.6 3.6-22.6h-12.1l-7.9 41.2h13.6l25.4-23.1 1.1 23.1z"/><path d="m111.8 2-6.2 11h14.7l6.5-11zm-8.2 14.1-24 41.2h15l24-41.2z"/><path d="m183.3 24s.8-1.4.8-3c0-2.5-1.6-4.9-9.3-4.9h-43.8c-7.9 13.8-16.1 27.7-24 41.5h15c5.6-9.6 11.1-19.2 16.7-28.5h26.5c-5.6 9.6-11.1 19.2-16.7 28.5h15.3c6.3-11.2 12.9-22.4 19.5-33.6z"/><path d="m200.2 28.8h-13.3c2.5-4.2 5.1-8.5 7.9-12.7h13c2.8-4.8 5.4-9.3 8.2-14.1h14.7c-2.8 4.8-5.4 9.3-8.2 14.1h13c-2.3 4.2-4.7 8.5-7 12.7h-13.3c-3.1 5.6-6.5 11.1-9.6 16.7h13.2c-2.5 4-4.8 8.1-7.3 12.1h-15.2c-12.7 0-6.8-10.4-6.8-10.4 3.7-6.2 7-12.5 10.7-18.4z"/><path d="m256.7 2c-10.7 18.4-21.5 36.9-32.2 55.3h14.7c5.6-9.6 11-19.2 16.6-28.5h26.6c-5.6 9.6-11.1 19.2-16.7 28.5h14.7c6.5-11 13-22.3 19.5-33.3 0 0 .8-1.4.8-3 0-2.4-1.4-4.9-9.3-4.9h-27.9c2.8-4.8 5.3-9.3 8.1-14.1z"/><path d="m370.8 24s.8-1.4.8-3c0-2.7-1.5-4.9-9.3-4.9h-35.6c-9.1 0-11.9 6.2-16.1 12.7-6 9.3-9.3 20.3-9.3 23 0 4.8 4.4 5.5 6.5 5.5h43.8c2.5-4.2 4.8-8.2 7.3-12.4h-42.1c3.1-5.4 6.2-10.7 9.3-16.1h27.7c-.6 1.1-1.1 2-1.7 3.1h-23.1c-2 3.4-4 6.8-6 10.2h32.5c.5 0 5.1-.1 8.2-5.7 2.3-4.2 4.8-8.2 7.1-12.4z"/><path d="m413.9 42.1c3.4-5.9 6.8-12.2 10.5-18.1 0 0 .8-1.4.8-3 .1-2.3-1.4-4.9-9.3-4.9h-28.2c-7.9 13.8-16.1 27.7-24 41.5h15.2c5.6-9.6 11.1-19.2 16.7-28.5h13.3c-2.5 4.2-5.2 8.8-7.7 13z"/><path d="m419.2 49.5c3.9 0 6.8 2.8 6.8 6.7s-2.9 6.8-6.8 6.8c-4.6 0-6.8-3.9-6.8-6.8 0-3.9 2.9-6.7 6.8-6.7zm0 1.1c-2.5 0-5.7 2-5.7 5.6 0 2.5 2.1 5.7 5.7 5.7 2.5 0 5.7-2.1 5.7-5.7 0-2.5-2.1-5.6-5.7-5.6zm3.6 9.3h-1.7c-.8-1.4-1-2.2-1.3-2.5s-.6-.3-.9-.3h-.8v3h-1.5v-7.2h3.7c.6 0 1.2.1 1.7.5.3.2.6.8.6 1.4s-.3 1.1-.6 1.4-.8.6-1.4.6c.3 0 .6.3.6.3.7.8 1 1.9 1.6 2.8zm-4.7-3.9h1.4c.8 0 1.4-.4 1.4-1.2 0-.6-.6-1.1-1.4-1.1h-1.4z"/><path d="m7.6 93.2h10.2c1.7 0 2 .6 2 2 0 1.7-.6 2-2 2h-13.5c-1.7 0-2.3-.6-2.3-2.3v-23.4c0-1.4.6-1.7 2.3-1.7h1.4c1.4 0 1.9.2 1.9 1.9z"/><path d="m42.1 95.5c0 1.7-.6 1.9-2 1.9h-14.1c-1.7 0-2.3-.5-2.3-2.2v-23.5c0-1.7.6-2.2 2.3-2.2h14.1c1.7 0 2 .6 2 2 0 1.7-.6 1.9-2 1.9h-10.7v7.7h9.3c1.7 0 2 .5 2 1.9 0 1.7-.6 2-2 2h-9.3v8.2h10.7c1.7 0 2 .6 2 2.3z"/><path d="m57.3 78-3.6 8.7h7.3zm10.5 19.4c-1.7 0-2.3-.2-3.1-1.9l-2-4.3h-11l-1.7 4.3c-.6 1.7-1.1 1.9-2.8 1.9h-1.4c-1.1 0-1.5-.2-1.5-.8 0-.3 0-.5.3-1.1l11-24.3c.6-1.1.9-1.4 2.3-1.4s1.7.3 2.3 1.4l10.7 24.3c.3.6.3.8.3 1.1 0 .6-.6.8-1.7.8z"/><path d="m80.2 74v7.9c3.4 0 7.6-.8 7.6-4.2 0-2.3-2.2-3.7-4.5-3.7zm11.3 23.4c-1.7 0-2.2-.2-2.8-1.9-1.4-3.7-3.1-6.8-5.4-9.6-.9 0-1.9 0-2.8 0v9.6c0 1.7-.6 2.2-2.3 2.2h-1.4c-1.7 0-2.2-.5-2.2-2.2v-23.5c0-1.7.5-2.2 2.2-2.2h7.4c5.1 0 9.6 2 9.6 7.6 0 4-3.2 6.7-5.7 7.3 3.7 3.7 5.1 6.8 6.5 10.8.3.3.3.8.3 1.1 0 .6-.6.8-1.7.8z"/><path id="a" d="m118 87.6v-15.6c0-1.7.6-2.2 2.3-2.2h.9c1.7 0 2.2.5 2.2 2.2v23.8c0 1.7-.6 1.9-2 1.9-1.7 0-2.3-.3-3.4-1.7l-13.2-17.5v17c0 1.7-.6 2.2-2.3 2.2h-.8c-1.7 0-2.3-.5-2.3-2.2v-23.5c0-1.7.6-2.2 2.3-2.2h1.1c2 0 2.3.3 3.4 1.7z"/><path id="b" d="m133 69.8c1.7 0 2.3.5 2.3 2.2v23.5c0 1.7-.6 2.2-2.3 2.2h-1.4c-1.7 0-2.3-.5-2.3-2.2v-23.5c0-1.7.6-2.2 2.3-2.2z"/><use transform="translate(41.8)" xlink:href="#a"/><path id="c" d="m184.7 73.4c-5.6 0-9.1 4.3-9.1 9.9 0 5.4 2.9 10.2 8.8 10.2 1.7 0 3.4-.3 5.1-1.1v-5.4h-2.8c-1.7 0-2.3-.6-2.3-2.3s.6-2.2 2.3-2.2h6.2c1.7 0 2.2.5 2.2 2.2v7.9c0 1.7-.2 2.3-1.9 3.1-3.1 1.4-6.3 2-9.4 2-8.5 0-14.4-5.6-14.4-14.1 0-7.6 5.1-14.6 14.4-14.6 4 0 7.7 1.5 9.9 4.7.4.5.6.8.6 1.1 0 .6-.2 1-1.1 1.5-.5.3-.9.5-1.2.5s-.8-.2-1.4-.8c-1.7-1.7-3.6-2.6-5.9-2.6z"/><path d="m215.4 85v8.2h3.6c2.5 0 5.1-1.2 5.1-4 0-3.7-3.7-4.2-6.5-4.2zm0-11v7.1h2.2c2.3 0 5.2-1 5.1-4-.1-2.8-2.5-3.1-4.8-3.1zm3.9-4.2c4.2 0 9.1 2.2 9.1 7 0 2.8-2.9 5.7-4.6 6 2.5 0 6.3 2.2 6.3 6.4 0 5.6-4.8 8.5-10.2 8.5h-8c-1.7 0-2.2-.5-2.2-2.2v-23.5c0-1.7.6-2.2 2.3-2.2z"/><path d="m230.9 71.5c-.3-.5-.6-.9-.6-1.2 0-.6.7-.8 1.5-.8h2.2c1.7 0 2.3.3 3.1 1.7l5.9 9.9 6.3-9.9c.9-1.4 1.4-1.7 3.3-1.7h1.7c.8 0 1.4.2 1.4.8 0 .3-.3.7-.6 1.2l-9.6 14.6v9.1c0 1.7-.6 2.2-2.3 2.2h-1.1c-1.7 0-2.3-.5-2.3-2.2v-9.1z"/><path d="m273.5 80.2-1.2 15c-.1 1.7-.5 2.2-2.2 2.2h-.9c-1.4 0-2-.3-2-1.7v-.5l1.7-23.5c.1-1.7.6-2.2 2.3-2.2h.8c1.7 0 2.2.3 2.9 2l7 17.2 7.1-17.2c.7-1.7 1.1-2 2.8-2h.9c1.7 0 2.1.5 2.2 2.2l2 23.5v.5c0 1.1-.6 1.7-2 1.7h-1.4c-1.7 0-2.2-.5-2.3-2.2l-1.1-15-6.2 15.5c-.6 1.4-.9 1.7-2.3 1.7s-1.7-.3-2.2-1.7z"/><path d="m315.5 93.8c5.4 0 8.2-4.8 8.2-10.2s-2.9-10.2-8.2-10.2c-5.1 0-8.2 4.6-8.2 10.2 0 5.4 2.8 10.2 8.2 10.2zm-.3 4.2c-8.5 0-14.1-5.9-14.1-14.4s5.7-14.4 14.2-14.4 14.1 5.9 14.1 14.4-5.4 14.4-14.2 14.4z"/><path d="m346.3 95.7c-.6 1.4-1.1 1.7-2.5 1.7s-2-.3-2.6-1.7l-10.1-24.2c-.2-.6-.3-.9-.3-1.2 0-.6.6-.8 1.7-.8h1.9c1.7 0 2.2.3 2.9 2l7 17.2 7.1-17.2c.7-1.7 1.1-2 2.8-2h1.4c1.1 0 1.7.2 1.7.8 0 .3 0 .6-.3 1.2z"/><use transform="translate(230.5)" xlink:href="#b"/><use transform="translate(272.7)" xlink:href="#a"/><use transform="translate(230.9)" xlink:href="#c"/></g></svg>