<svg viewBox="0 0 368 100" xmlns="http://www.w3.org/2000/svg" xmlns:xlink="http://www.w3.org/1999/xlink"><g id="figure"><path d="m85.1 13.8c0 1.6-1 3.8-2.9 6.7l-27.4 40.9v24.2c0 7.8-1.3 11.1-11.3 11.1s-11.2-2.9-11.2-11.1v-24.2l-27.4-40.9c-1.9-2.9-2.9-5.1-2.9-6.7 0-6.3 11.3-11.5 13.5-11.5s4.7.3 8.4 6.2l19.6 31.4 19.7-31.4c2.8-4.4 4.9-6.2 8.4-6.2 3.1 0 13.5 5.5 13.5 11.5z"/><path id="a" d="m106.1 50.3c0 17 13.4 25.3 23.6 25.3 9.6 0 23.4-7.4 23.4-25.2 0-17.7-13.7-25.5-23.5-25.5-10.2 0-23.5 8.4-23.5 25.4zm69.4-.6c0 26.6-19.4 48.3-45.6 48.3-26.3 0-46.2-21.6-46.2-47.1 0-29.5 22.7-48.4 45.5-48.4 24 0 46.3 19 46.3 47.2z"/><path id="b" d="m113.9 50c0 11.4 9 16.9 15.8 16.9 6.4 0 15.6-4.9 15.6-16.8 0-11.8-9.2-17-15.7-17-6.8 0-15.7 5.5-15.7 16.9z"/><path d="m256.6 40.5c7.4 0 9.6 3 9.6 10.6v27.9c0 6.4-10.1 18.7-35.5 18.7-24.8 0-46.7-20.9-46.7-48.6 0-28.4 23.1-47.1 47.6-47.1 15.9 0 31.7 9.9 31.7 15.5 0 4.9-7 13.9-11.9 13.9-5.1 0-8.4-7-20.4-7-11.1 0-24.6 8.1-24.6 24.5 0 15.5 12.6 26.3 24.8 26.3 4.6 0 8.9-.8 12.6-2.3v-13.8h-10c-6.8 0-8.3-1.9-8.3-9.3 0-6.4 1-9.3 8.8-9.3z"/><g transform="translate(190.5)"><use xlink:href="#a"/><use xlink:href="#b"/></g></g></svg>