<svg viewBox="0 0 418 100" xmlns="http://www.w3.org/2000/svg"><g id="figure"><path d="m65.3 66 38.9-64h-86.3c-8.8 0-15.9 7.2-15.9 16s7.2 16 15.9 16h10.7l-24.3 40.1s-2.3 3.4-2.3 8.2c0 8.7 7 15.7 15.6 15.7h58.5c8.8 0 15.9-7.2 15.9-16s-7.2-16-15.9-16z"/><path d="m370.4 18.8-11.1 18h16.9v44.5h20.7v-44.5h19.1v-18zm-61.8 0v62.5h21v-19.3h21.5v-17.5h-21.5v-7.7h22.3l11.3-18zm-29.2 62.5h21.5v-62.5h-21.5zm-26.7-62.5-4.5 33.4-8-33.4h-17.2l-8.1 33.4-4.5-33.4h-20.9l10.3 62.5h23l8.7-28.1 8.7 28.1h23l10.2-62.5zm-116.2 0v18h18l-19.5 31.3v13.2h51.7v-18h-24.7l27.7-44.5z"/></g></svg>