<svg viewBox="0 0 146 100" xmlns="http://www.w3.org/2000/svg"><g id="figure"><path d="m98.7 2-19.5 32h5.4c4.6 0 8.1 3.8 8 8.2-.1 4.3-3.7 7.8-8 7.8h-29.4c-4.7 0-7.9-3.6-7.9-7.8 0-1.4.4-2.9 1.1-4.1l12.3-20.1h-5.5c-4.1 0-7.9-3.5-7.9-8s3.6-8 7.9-8z"/><path d="m2.7 66h26.6v.4l-13.7 22.4h12.5v9.2h-26.1v-6.3l.2-.7 9.6-15.8h-9.1z"/><path d="m29.8 66h10.6l2.3 17.1 4.1-17.1h8.6l4.1 17.1 2.3-17.1h10.6l-5.2 32h-11.7l-4.4-14.3-4.4 14.3h-11.7z"/><path d="m74.7 66h10.6v32h-10.6z"/><path d="m89.6 66h27.3l-5.6 9.2h-11.2v4h10.8v8.9h-10.8v9.9h-10.5z"/><path d="m120.9 66h23.1v9.2h-9.7v22.8h-10.5v-22.8h-8.5z"/></g></svg>