<svg viewBox="0 0 203 100" xmlns="http://www.w3.org/2000/svg"><g id="figure"><g transform="scale(.1)"><path d="m621.2 37 1.4 2.9-10.4 2c-1.2.2-2.1-1.5-2.1-3.1 0-1.8 1.4-3.9 5.3-4.1 4.1-.2 4.8 1.3 5.8 2.3zm870.6 542c-30.2-14.7-91.5-53.5-160.4-116.4-69.1-63-130.3-181.9-208.8-241.5-78.3-59.5-164.7-70.3-247.7-64.3-82.8 6-136.1 44.3-182 68.1-27.5 14.3-60.1 24.3-91.1 25.5-3.9 1.6-8.6 3.6-11.4 5.7-12 8.7-21 23.3-25.9 28.6-5.1 5.5 2.3-9.8 14.9-22.9 4.5-4.7 9.5-8.5 13.8-11.2-6.6 0-13.4-.8-14.7-1-5.9 3.3-9.5 9.4-15.4 17.1-5.3 6.7 3.3-9.5 11-18.1-27.5-6.7-44.3-34.3-43.9-66.5.6-41 67.1-86.3 78.3-88.9 11.2-2.4 62.6-5.4 68.5-8.9 2.4-1.4 4.5-3.7 6.1-6.3l-.8-.7c-1-1-14.7-1.8-16.9-1.8s-20-1.4-20-1.4 19.8-.4 28.8-1.4c5.7-.6 9-.7 11.2-1.9.4-2.7.2-5.1-.8-7.7-5.7-14.7-21.3-18.7-41-27.3-18.9-8.3-26.7-15.8-44.5-15.8-18.8 0-54.6 14.2-87.2 42.9-30.8 27.1-52 50.4-65.9 89.1-7.6 21.2-12 42.9-12 64.6 0 18.9 2.9 37.8 9.8 56.2 14.7 39.4 34.5 64.6 65.6 94 31 29.3 65.9 52.8 68.1 59.5 5.1 15.5 23.2 82.7 28.5 101.7 5.1 19 3.5 70.8-1.8 89.8-5.1 19-23.6 21.5-15.7 36.2 4.3 7.8 74.7 5.7 85.9 2.1 15.1-4.8 18.4-12.1 18.3-19.7-.1-10.3-3.7-27.8-2.9-32.9.8-7.1 13.3-86.7 14.5-94.4 4.3-24.3 17.8-80.5 19.8-88.9 1-3.7-26.7 175.6-26.1 188.4.8 13.9 1 22.4.8 27.9 74.6 2 66.1-6.3 67.1-23.4.8-15.3-2.7-28.4-2.7-45.9 0-20.2 5.4-34.2 7.2-38.7-8-1.1-34.5-5.8-45.3-18.2 34.9 19.2 77.3 16.7 84 16.7 49.9-.4 74.8-3 83.6-4.2-14.5-35.5-42.8-113 9.8-159.3 1.6-1.6-46.9 42.7 3 165.8 4.5 6.3 12.3 28.9 18.6 47.7 6.1 18.8-.4 48.5-6.3 57.3-6.1 8.6-15.5 16.4-10.6 24.8 6.3 10.2 29.9 7 55 6.8 36.1-.2 43.6-5.4 47.9-12.3s-1-23.6-1-32.4c0-8.6 1.8-12.8 3.5-30.1 1.3-13.7 4-54.7 5-70.6 1-27.7 13.5-86 17.2-94.2 2.5-5.5-10.4 37.4-10.2 87.3l.6-.2 13.6-.8c11-1.8 43-8.2 46.5-9.2 5.7-1.4-13.6 5.7-40.1 12.4 3.7 4.7 11.4 13.9 24 24.5 19 15.5 37.7 37.9 37.7 48.3 0 10.2-10.2 29.9-22.4 38.5-12 8.6-4.7 20-1.4 22 5.3 3.3 58.9 3.4 77 .7s33.9-34.7 39.8-56.3c3.9-14.3-6.5-58.7-9.2-74-.2-1.4-31.7-22.6-29.7-21.6.2 0 19.9 11.8 30.3 17.3 10.6 5.9 102.8 53.6 145.2 71 44.1 18.1 218.5 68.7 222.8 71.3 4.3 2.5 11.6 5.1-47.3 25.3-24.5 8.4-69.7 15.9-88.7 19.4s-77.4 9.9-75.8 14.2c1.1 2.7 21.6 5.7 51.1 5.7 78.4 0 211.6-26.7 211.8-68 0-2.8-.5-6.9-1.3-10.2-5.1-21.6-87.1-50.2-117.3-64.9z"/><path d="m76.5 935.6h36.9c56.9 0 73.8-38.6 73.8-71.8 0-38.9-20.9-72-74.5-72h-36.2zm43.6-185.3c82.8 0 125.4 51.5 125.4 113.7 0 65.2-41.4 113.2-131.7 113.2h-93.8v-226.9z"/><path d="m345.6 977.1h-56.7v-226.8h56.7z"/><path d="m627.3 977.1h-47.5l-125.4-145.3v145.3h-56.5v-226.8h52l120.9 138.6v-138.6h56.5z"/><path d="m726.7 863.8c0 41.4 28.6 69.1 71.8 69.1 43 0 71.6-27.7 71.6-69.1 0-41.6-28.6-69.3-71.6-69.3-43.2 0-71.8 27.7-71.8 69.3zm-58 0c0-55 44.4-116.4 129.8-116.4s129.7 61.8 129.7 116.4c0 58.1-48.2 116.2-129.7 116.2-83 0-129.8-58.5-129.8-116.2z"/><path d="m1223.7 957.4c-31.6 16.3-55.5 22.6-89.1 22.6-87.9 0-131.7-57.1-131.7-115.6 0-60.5 49.4-117 136-117 31.6 0 59.9 6.5 82.1 20v50.3c-24.9-13.9-50.1-23.2-78-23.2-48.3 0-82 28.5-82 68.9 0 40.6 33.4 69.5 80.5 69.5 29.6 0 49.6-9.4 82.2-25.1z"/><path d="m1369.2 804.5-33.2 88h69.9zm132.7 172.6h-60.7l-18.8-45h-101.3l-16.9 45h-59.9l91.5-226.8h65.4z"/><path d="m1584.7 843.4h30c15.5 0 31-6.8 31-25.9 0-16.9-11.1-25.7-32.5-25.7h-28.5zm44.8-93.1c46.7 0 74.3 31.4 74.3 65.2 0 24.9-13.1 43.6-39 55.4 23.2 11.6 30.2 39.5 62.2 106.2h-62.2c-24.3-48.7-33.2-92.1-63.8-92.1h-16.3v92.1h-56.5v-226.8z"/><path d="m1905.6 809.2c-33-14.7-52.6-20.2-71.8-20.2-20.4 0-33.4 7.1-33.4 18.5 0 34.2 115.4 24.7 115.4 103.8 0 43.4-36.5 68.7-87.1 68.7-39.5 0-59.1-10.2-81.7-21.8v-48.9c32.6 21.6 52.5 29.1 77.4 29.1 21.6 0 33.3-7.5 33.3-20.8 0-37.3-115.4-23.7-115.4-105.2 0-39.1 33.8-65 86.4-65 25.3 0 48.4 5.3 76.9 17.5z"/><path d="m1969.3 728.4c-22.5 0-40.7 18.2-40.7 40.7s18.2 40.7 40.7 40.7 40.7-18.2 40.7-40.7-18.2-40.7-40.7-40.7zm0 8c18.1 0 32.7 14.6 32.7 32.7s-14.6 32.7-32.7 32.7-32.7-14.6-32.7-32.7 14.6-32.7 32.7-32.7zm-18.6 11.2v43.1h8.8v-17.7h1.7c3.9 0 5.2.4 7 2.2 1.6 1.6 4.3 5.3 5.7 8.4l3.5 7.1h10.8l-4.9-8.8c-4.5-7.5-5.5-8.7-9.4-9.9v-.2c7.3-1 11.9-5.7 11.9-12.2 0-6.7-4.5-12-13.7-12zm8.8 6.7h7.9c5.9 0 9 2 9 5.9 0 3.1-1.9 5.9-8 5.9h-8.9z"/></g></g></svg>