<svg viewBox="0 0 340 100" xmlns="http://www.w3.org/2000/svg"><g id="figure" fill="#fff"><path d="m54.4 9.2c9.1 0 10.2 7.6 10.2 10.8 0 6.2-2.8 16.6-7 20.6-2.9 2.8-6.6 4.5-10.6 4.8l11.7 16.8h-17.1l-11.3-16.7h-8.8l-4.3 16.7h-15.2l8.7-32.2h34c3.4 0 4.6-2.7 5.1-5.6.4-2.3-1.5-2.6-3.4-2.6h-38.3l3.4-12.6z"/><path d="m75.1 9.2-3.4 13h51.1l3.5-13zm38.8 20.3h-44.2l-3.3 12.3h44.2zm1.7 19.8h-58l9.1 12.9h45.4z"/><path d="m150.5 9.2 19 36.2 9.7-36.2h13.8l-14.2 53h-16.6l-18.8-35.7-9.6 35.7h-13.8l14.2-53z"/><path d="m211.4 9.2c-9.2 0-13.8 12.9-15 17.4l-4 14.8c-.8 3.1-1.6 6.5-1.6 9.8 0 8.2 4.5 11 8.4 11h34.2c9 0 14-8.3 16.6-18.2l3.6-13.6c.9-3.3 1.7-6.8 1.7-10.2 0-5-1.7-11-9.9-11zm4.5 13h23.3c2.9 0 1.9 3.1 1.4 5.1l-4.2 15.8c-1.3 4.7-2 6.1-5.6 6.1h-23.1c-3.1 0-3-2.9-2.4-5.2l4-14.9c1.2-4.3 1.5-6.9 6.6-6.9z"/><path d="m327.4 2-35.4 21.6-8.9-17.1h-26.5l18 34.3 63.4-38.8zm-28.2 28.3-63.6 39.1h10.4l35.7-21.8 9.1 17.3h26.4z"/><path d="m111.9 82.8v1.6h-12.1c-1.2 0-2.7 1-2.7 2.2v3.1h14.8v4.5c0 2-1.9 3.8-3.8 3.8h-12.4v-1.6h11.6c1.7 0 2.7-1.3 2.7-2.6v-2.7h-14.3v-4.6c0-1.9 1.9-3.7 3.8-3.7z"/><path d="m121.6 86.7v11.3h1.6v-4.8h11.8c2 0 3.7-1.7 3.7-3.8v-6.6h-13.4c-1.9 0-3.7 1.7-3.7 3.9zm15.6-2.3v5c0 1.3-1.2 2.2-2.4 2.2h-11.6v-4.9c0-1.2 1.2-2.3 2.4-2.3z"/><path d="m152.6 82.8c-3.1 0-4.1 2.3-4.1 3.9v7.4c0 2.1 1.8 3.9 3.9 3.9h9.2c2 0 3.7-1.9 3.7-3.9v-11.3zm11.1 1.6v9.7c0 1.2-.9 2.3-2.1 2.3h-9.2c-1.2 0-2.3-1.1-2.3-2.3v-7.4c0-1.3.9-2.3 2.2-2.3z"/><path d="m175.1 86.7v11.3h1.6v-5.5h10.3l2.9 5.5h1.4l-2.7-5.3c1.9-.5 3.6-1.9 3.6-3.8v-6.1h-13.3c-2 0-3.8 1.6-3.8 3.9zm15.5-2.3.1 3.5c.1 1.8-.9 2.9-2.6 2.9h-11.4v-4.1c0-1.3 1.2-2.3 2.5-2.3z"/><path d="m218.4 84.4h-7.3v13.6h-1.6v-13.6h-7.6v-1.6h16.5z"/><path d="m244.3 82.8v1.6h-12.1c-1.2 0-2.7 1-2.7 2.2v3.1h14.8v4.5c0 2-1.9 3.8-3.8 3.8h-12.4v-1.6h11.6c1.7 0 2.7-1.3 2.7-2.6v-2.7h-14.3v-4.6c0-1.9 1.9-3.7 3.8-3.7z"/></g></svg>