<svg viewBox="0 0 1371 100" xmlns="http://www.w3.org/2000/svg" xmlns:xlink="http://www.w3.org/1999/xlink"><g fill="#4c4c4c" transform="translate(-2 -2)"><path d="m173.1 16.8c-4.8-6.9-12.6-10.9-21-10.9h-115.4c-8 .6-8 12.3 0 12.9h115.4c4.2 0 8 2 10.5 5.4 2.4 3.4 3 7.7 1.6 11.7-2.7 7.6-9.8 12.6-17.9 12.6h-113.5c-8.1 0-15.3 5.1-18 12.8l-10.4 30.2c-1.5 4.2 1.6 8.5 6 8.5 2.7 0 5.2-1.7 6.1-4.3l10.5-30.2c.9-2.5 3.2-4.1 5.8-4.1h113.6c13.5 0 25.5-8.5 29.9-21.2 2.8-7.8 1.6-16.6-3.2-23.4"/><path id="a" d="m320.4 6h-115.4a6.4 6.4 0 000 12.8h115.4c4.2 0 8 2 10.5 5.4 2.4 3.4 3 7.7 1.6 11.7a19 19 0 01-17.8 12.6h-113.6c-8.1 0-15.3 5.1-18 12.8l-10.5 30.2a6.4 6.4 0 00.3 4.9c.8 1.5 2 2.7 3.6 3.3a6.4 6.4 0 008.2-3.9l10.5-30.2a6.2 6.2 0 015.8-4.2h80.2l30.2 36.3c2.2 2.6 6.5 3 9 .8a6.4 6.4 0 00.8-9l-23.3-28.1h16.8a31.8 31.8 0 0029.9-21.3 25.3 25.3 0 00-3.2-23.3 25.4 25.4 0 00-21-10.8"/><path id="b" d="m516.5 37.7-7.9 22.7c-5.6 16-20.7 26.7-37.7 26.7h-91.6c-4.6 0-9-2.2-11.6-6-2.7-3.8-3.4-8.6-1.8-13l7.9-22.6c5.6-16 20.7-26.7 37.6-26.8h91.7c4.7 0 8.9 2.2 11.6 6s3.4 8.5 1.9 13m-13.5-31.8h-91.7c-22.4.1-42.4 14.3-49.8 35.4l-7.9 22.7c-2.9 8.3-1.6 17.5 3.5 24.6 5.1 7.2 13.3 11.4 22.1 11.4h91.6c22.4 0 42.4-14.2 49.8-35.4l7.9-22.6c2.9-8.3 1.6-17.5-3.5-24.6-5-7.2-13.2-11.5-22-11.5"/><path d="m599.6 48.5h-52a6.4 6.4 0 000 12.8h52a6.4 6.4 0 100-12.8"/><path d="m771.7 48.5h-132.7l4.4-12.8a24.9 24.9 0 0123.6-16.9h126.6a6.4 6.4 0 100-12.8h-126.7a37.7 37.7 0 00-35.7 25.5l-20.4 59.9a6.4 6.4 0 004 8.1 6.4 6.4 0 008.1-4l11.7-34.3h137.1a6.4 6.4 0 100-12.8"/><use transform="translate(442)" xlink:href="#b"/><use transform="translate(800)" xlink:href="#a"/><path d="m1336.4 5.9a11.7 11.7 0 00-14.4 1.3l-83.4 78.5a4.1 4.1 0 01-3.6 1 4.1 4.1 0 01-3-2.3l-33.5-72.4a14.1 14.1 0 00-13.3-8 13.8 13.8 0 00-12.4 9.4l-26.5 78a6.4 6.4 0 004 8.1 6.4 6.4 0 008.2-4l26.5-78c.1-.2.2-.7.9-.7.9 0 1 .4 1.1.6l33.5 72.4c2.3 5 6.7 8.5 12.2 9.5 5.4 1 10.8-.5 14.8-4.3l80.2-75.6-24.3 72a6.4 6.4 0 008.9 7.8 6.4 6.4 0 003.3-3.7l25.7-76a11.6 11.6 0 00-4.8-13.7"/><path d="m1363.7 9.9c0-2-1.3-3.2-3.4-3.2h-4.9v11h1v-4.6h3.6l2.5 4.6h1.2l-2.6-4.6a3.1 3.1 0 002.7-3.1m-3.4 2.2h-4v-4.5h3.9c.9 0 2.4.3 2.4 2.2 0 1.5-1.2 2.2-2.4 2.2m-1.3-9.8a9.9 9.9 0 100 19.8 9.9 9.9 0 000-19.8m0 18.8a8.9 8.9 0 01-8.8-8.9c0-5 4-8.9 8.9-8.9s8.9 4 8.9 8.9a8.9 8.9 0 01-8.9 8.9"/></g></svg>