<svg viewBox="0 0 188 100" xmlns="http://www.w3.org/2000/svg"><g id="figure" fill="#fff"><path d="m23.2 25.16-5.25-1.35v-8.48l-4.1-1.45v27.77h7.5v7.74h-7.59l.01 35.94 4.23-1.5v-13.78l6.03-2.05v20.36l-22.02 8.83v-6.91l3.94-1.82-.01-77.74-3.93-1.79-.01-6.93 21.2 8.57z"/><path d="m36.43 20.6-2.18-.53s3.3 34.24 3.46 34.16c-.02.02 2.61-32.76 2.61-32.76l-1.95-.43v-6.32l10.6 2.2v6.25l-2.1-.38-6.15 61.14-6.23 1.48-7.32-67.2-1.93-.55v-6.45l11.2 3.05z"/><path d="m68.99 33.05-4.76-.49v-7.22l-3.58-.42v18.39l6.22-.01.01 6.82h-6.23v24.17l3.82-.44.01-10.94 5.52-.54v17.09l-19.71 2.59v-6.23l3.17-.51v-51.4l-2.38-.38v-6.23l17.91 2.36z"/><path d="m81.16 44v-17.38l4.37.16v17.22zm11.01 9.27c-.04-4.02-2.42-4.93-2.42-4.93 1.02-.76 2.36-1.99 2.37-3.95 0-2.21-.01-11.94-.01-17.23-.15-2-.53-5.91-6.62-6.46-2-.23-14.2-.86-14.2-.86v6.16l3.18.24-.02 46.7-2.34.17.01 6.15 11.46-.66-.01-6.13-2.48.09v-20.94c0-.01 4.85 0 4.85 0l.01 19.79c.16 4.64.43 7.28 8.11 7.02 0 0 .01-6.1 0-6.11-1.86-.01-1.89-1.5-1.89-1.5z"/><path d="m108.24 26.44-2.88.14.01 46.02 4.09.23v-11.81l5.61.3v18.08l-19-.93v-6.13l2.35.03.01-45.55-2.92.04v-6.11l12.74-.45z"/><path d="m127.78 59.26 1.61-17.48 1.77 17.93zm11.96 17.32-7.59-58.87-5.78.85-6.8 55.11-2.32-.21v6.15l11.08 1.33v-6.22l-1.83-.24.67-8.19 4.39.6.66 8.4-2-.31v6.23l11.72 2.09v-6.28z"/><path d="m158.25 26.97-5.31 1.76v-9.02l-3.93.97v12.41c0 .37-.01.89.2 1.47 1.71 4.8 9.81 15.81 11.11 19.36.1.27.17 1.05.17 1.3 0 4.91.01 26.81.01 29.87 0 1.45-1.56 2.37-2.77 2.11-2.37-.49-9.19-2.27-11.9-3.06-.6-.18-1.73-1.27-1.73-2.72-.01-3.8 0-13.93 0-13.93l5.74 1.26v9.99l3.77.93v-22.59c0-.27-.09-.93-.16-1.13-1.33-3.41-9.19-14.7-11.01-18.95-.35-.8-.4-1.51-.4-2.12v-16.33c0-1.3 1.19-2.73 2.35-3.14 2.28-.82 8.63-2.71 11.71-3.39 1.07-.24 2.15.59 2.14 1.75z"/><path d="m183.74 17.88-4.86 1.94v-8.71l-3.34 1.37.03 74.25 2.79 1.13v6.73l-12.85-4.99v-6.49l3.1 1.05-.01-69.11-3.34 1.13v8.49l-4.68 1.6.01-15.08 23.12-9.17z"/><path d="m183.26 93.56h-.51v1.24h.54c.61-.01.92-.25.93-.61-.01-.59-.46-.61-.96-.63zm.08-.42c.42 0 .73.04.94.12.35.15.53.44.53.87 0 .31-.11.53-.34.67-.11.08-.29.14-.5.17.27.05.46.16.59.34s.19.36.19.53 0 .36.01.51c0 .1.04.15.06.22h-.57c-.04-.06-.03-.12-.03-.18v-.28c0-.39-.11-.65-.33-.78-.13-.08-.35-.11-.67-.11h-.47v1.34h-.61v-3.43zm-1.83-.17c-.52.53-.78 1.16-.78 1.9 0 .75.26 1.39.77 1.91.52.52 1.16.79 1.9.79s1.38-.27 1.89-.79c.52-.52.78-1.16.78-1.91 0-.74-.26-1.37-.78-1.9-.52-.52-1.15-.79-1.89-.79s-1.37.27-1.89.79zm1.88 5.03c-.87 0-1.6-.31-2.21-.91-.6-.61-.9-1.35-.9-2.22 0-.86.3-1.59.91-2.2s1.34-.91 2.2-.91 1.6.3 2.21.91c.61.6.92 1.34.92 2.2 0 .87-.31 1.61-.92 2.22-.61.6-1.35.91-2.21.91z"/></g></svg>