<svg viewBox="0 0 457 100" xmlns="http://www.w3.org/2000/svg"><g id="figure" fill="#fff"><path d="m32.7 95.6v-33.4h30.2c0-7.7 1.9-14.7 6.6-21.2h-36.8v-15.2h371.1v-23.8h-401.8v93.6zm56.9-61.2c-9.7 3.2-16.3 9.6-18.9 19.6-1.3 5.1-1.4 10.2-1.1 15.5.9 12.5 8.2 21.9 20.1 25.8 7.4 2.4 15 2.8 22.7 2.8 8.1 0 16.2-.3 24-2.9 10.2-3.4 16.8-10.1 19.2-20.7 1.1-4.9 1.1-9.9.7-14.9-1.1-12.4-8.4-21.5-20.3-25.3-7.5-2.4-15.3-2.7-20.4-2.7-8.9-.1-18.5.4-26.1 2.9zm7.4 24c1.4-5.9 5-9.6 11-10.8 3.9-.8 7.8-.7 11.6.4 6 1.7 8.9 6.2 9.9 12.1.7 4.2.3 8.2-.7 12.1-1.2 4.6-4.2 7.6-8.8 9s-9.3 1.4-13.9 0-7.4-4.6-8.7-9.1-1.5-9.1-.4-13.7zm133.1 6.6c9.4-2.2 10.6-11.9 9.1-18.7-2.9-12.5-11-13.3-23.6-13.4h-52.5v62.7h25.2v-19.2h16.5c5.4 0 7.4 1.9 7.7 7.3.2 3.3.4 6.8.7 9.7.2 2.2.5 2.3 2.7 2.3h25.5c-2.1-2.7-3-5.4-3.2-8.3-.3-3.9-.8-7.9-1-11.8-.6-5.6-3-9.1-7.1-10.6zm-22.9-4.5h-18.9v-11.6h18.9c4.3 0 5.7 2.3 5.8 6.2-.2 3-2.6 5.4-5.8 5.4zm196.5-12.4v-15.1h-68v62.4h68v-15.1h-42.3v-8.5h42.3v-15.2h-42.3v-8.5zm-102 25.2c-1.4 3.7-3.9 6.5-7.6 7.8-9.6 3.2-20.3-.4-22.7-9.2-1.5-5.3-1.5-10.6.4-15.8 3.5-9.4 15.7-10.3 23-7.4 3.6 1.4 5.8 4 7 7.6l26.5.2c-2.5-13.2-12.5-21.3-24.3-23.6-14.5-2.9-30.4-2.9-43.3 2.8-6.7 3-11.4 7.8-13.9 14.6-2.9 8-3.2 16.2-1.3 24.5 1.6 7 5 13.1 11.3 16.8 12.5 7.5 28.2 6.8 41.3 5.7 6.6-.6 13.1-2.1 18.7-5.8 7-4.6 10.4-11.4 11.7-19.5-8.6-.3-17.7-.2-25.1-.1-1.1 0-1.4.7-1.7 1.4zm109.6-6.6v12.6h31c1.4 0 3.2.1 3.3 1.8 0 1.9-2 1.8-3.3 1.8h-31v12.6h30.4c7.1-.2 13.1-6.3 13.1-14.4 0-8.8-5.8-14.5-13.1-14.4zm42.7-33.6v-9.6c0-.3-.8-.8-1.2-.9l-6.2-1v-7.9l6.2-1c.5-.1 1.2-.5 1.2-.8v-9.5l-42.9 6.6v17.1zm-17.9-13.3-12.4-1.9v-.3l12.4-2.1zm-3.9 39.2c3.1-3.4 5.1-7.3 7.8-10.6 1.1-1.3 2.7-1.5 4.3-1.3 2.4.4 2.1 2.9.1 3.3-1 .2-2.1.3-3.2.4l.1 12.3c9.3-1.5 13.8-7.2 13.7-13.6 0-5-1.6-10.5-5.5-13-5.8-3.6-14-2.5-18.4 2.7-2.6 3.2-4.4 6.6-6.7 9.7-.9 1.2-2.3 1.7-3.7 1.4-2.1-.6-1.6-2.9-.1-3.1l3.2-.4v-11.6c-10.1 1.4-13.9 6.1-13.4 14.4.2 4.4 1.8 9.1 5.2 11.3 5.2 3 12.9 1.8 16.6-1.9z"/></g></svg>