<svg viewBox="0 0 448 100" xmlns="http://www.w3.org/2000/svg"><g id="figure"><g transform="scale(.1)"><path d="m40 35h96.2c10.3 0 14.4 7.8 24.4 23.9l168.6 272.2c6.4 9.4 10.2 19.4 22.8 21.6v-314.2c9.5-2.4 19.2-3.5 28.7-3.5 44-.1 75.3 37 75.3 77.3v402.7h-116.6c-7 0-11.5-3.6-15-9.3l-168-273.2c-9.6-14.7-15.4-29.5-31.2-38.8l-.3 321.3h-48.8c-12.3 0-56.1-18.4-56.1-71v-396c0-6.4 9-13 20-13z"/><path d="m892.2 22.4c-190.1 0-267 136.6-267 246.3-.1 147.8 105.6 259.1 263.2 259.1 156.7 0 260.7-120.5 260.6-251-.1-127.1-91.9-254.4-256.8-254.4zm0 98.9c73.7.1 137.5 62.1 137 147.4-.8 132.7-91.5 160.7-137.9 160.5-60.1-.2-149.4-31.7-149.5-161.7-.1-72.9 50.5-146.3 150.4-146.2z"/><path d="m1401.4 35.6c-62.2-.1-81 60.3-81 79.2v396.4l171.5.7c48.6.2 196.7-1.3 197.1-129.6.2-79.9-49.1-100.7-99-118.6 37.5-23.3 78.1-51.6 78.6-104.6.8-87-69.4-109.6-91.8-114.6-63.5-14-156.1-8.9-175.4-8.9zm51.7 85.4c88.5 5.8 107.7 7.1 110.2 43.3 1.9 28 0 48.1-33.8 57.5-34.7 9.7-68.3 9.3-103.9 8.4v-111.2c8.2-.7 19.5 1.5 27.5 2zm.5 187.6c27.2-.4 66.6.5 83.8 5 34.6 9.1 41.7 21.9 41.8 59.6 0 20.7-13.4 41.9-33.3 47.7-38.5 11.3-80.3 8.1-120.3 8.8v-120.7z"/><path d="m1858.3 36.1 111.3-.1v385.2h186.8v93.4h-206.6c-39.4 0-91.5-24.2-91.5-92.1v-386.6z"/><path d="m2435.4 35h335.1l-29.5 89h-274.8c-17.5 0-29 5.5-29 22v79.5h268.3l-29.3 86.5h-239v109l201 .4-34 93.6h-271v-387c0-18.3 5.5-93 102.2-93z"/><path d="m2867.2 226h79l-28 86h-96l24-73.9c4-12.3 14.6-12.1 21-12.1z"/><path d="m3218.9 32.6c60.1 0 151.9 23.2 151.7 120-.2 82.7-67.6 128.3-148.8 128.4h-110.1v229h-23v-248h105.8c148.2 0 153.1-77.8 153.1-109.4-.1-73.4-56.7-99.6-128.6-99.6h-61.8l11-20.4z"/><path d="m3531.9 31v478.7l24 .3v-236.7h89.3c9.5 0 15.5 3.7 20.4 11.8l135 224.9h22l-137.8-233.5c72.7-11.3 133.3-39 133.2-127.6 0-49.6-26.1-117.9-170.2-117.9zm24 19.2c77.9 11.4 239-21.7 238.8 98.7-.2 126.5-147.8 98.3-238.8 105.3z"/><path d="m3966.6 271.5c0 143.4 98.8 254.4 245.4 254.5 149 .1 247.9-115.9 248-254.5.1-124.5-88-251.7-245.3-251.5-144.3.2-248.2 110.6-248.1 251.5zm469.3-5.4c-.8 160.7-107.7 238-222.9 236.8-118.8-1.2-220.4-72.8-223.2-236.8-2-119.1 90.3-226.4 225.9-225.5 106.1.7 221 77.3 220.2 225.5z"/><path d="m899.3 699.8h216.4v15.6h-99.6v263.6h-18.5v-263.6h-98.3z"/><path d="m1209.5 699.9 123.7-.1c68.8-.1 78.6 54.4 78.6 88-.1 45.6-22.5 71.9-66 82l65.9 109.2h-19.8l-65.6-108.4h-98.2v108.4h-18.6v-105.4c0-13.9 4.3-18.7 16.5-18.9h101.9c21.2 0 43.1-9.7 54.1-28.3 17.6-30 12.9-74.2-13.4-97.7-12.3-11-27.4-13.4-43.3-13.4l-115.8-.1z"/><path d="m1508 699.8v15h171v-15zm0 126.5v15h125v-15zm0 138.7v15h171v-15z"/><path d="m2006 979h-19l-38.5-88h-130.2l-35.3 88h-19.6l36.1-89.7c4.9-12.1 14.1-15.3 23.2-15.3h123.3l-66-173.8 17-.1z"/><path d="m2123.5 700h76.5c34 0 122.4 16.6 122.5 132 .1 73.8-32.5 148-122.5 148h-100v-15.8h90c97.2 0 113.5-79.3 114.2-132.4.4-28.6-6.9-115.2-114.2-115.2h-71v125.4h-20v-117c0-19.6 6.7-25 24.5-25z"/><path d="m2433.7 699.8c-7.8 0-14.5 3.3-14.5 19.9v259.3h18.8v-245.2h2.1l100.3 236.1c5 11.8 21.7 12 26.8 0l99.8-236.1 2.1.1v245.1h18.8v-259.3c0-16.6-6.7-19.9-14.5-19.9-8.7 0-10.9 1.8-14.8 11l-102.8 242.9h-4l-103.3-242.9c-3.9-9.2-6-11-14.8-11z"/><path d="m2803.1 700.3v278.7h-18.5v-278.7z"/><path d="m2916 700.3v252c0 8.1 4.7 12.1 13.2 12.1h144.8v15.6h-163.2c-8.9 0-13.8-6.4-13.8-14.6v-265.1z"/><path d="m3187.4 700.3v252c0 8.1 4.7 12.1 13.2 12.1h144.8v15.6h-163.2c-8.9 0-13.8-6.4-13.8-14.6v-265.1z"/><path d="m3568.5 753-17.7 2c-.4-11.3-11.9-51.9-83.4-53.1-42.7-.7-72.4 21.9-75.2 46.4-4.2 37.3 12.2 52.2 44.9 63.1 30.2 9.3 66.1 12 96.1 23.9 40.8 16.1 49.8 43.6 49.8 64.7 0 34.5-28.2 80-96.5 80h-13.5l-.4-15s20.7-.7 31.2-2.8c18.7-3.7 38-11.9 49.4-27.9 12.4-17.4 15-41.1 3.7-59.8-9-14.9-24.2-22-40-27.3-25.9-8.6-53.8-11.4-80.2-18.8-31-8.6-63.4-26.3-63.2-58.9.1-11.5-.6-23.6 3.7-34.5 11.4-28.8 44.5-48.8 85.8-48.8 100.2 0 105.8 54.2 105.5 66.8z"/></g></g></svg>