<svg viewBox="0 0 633 100" xmlns="http://www.w3.org/2000/svg"><g id="figure" fill="#fff"><g transform="scale(.1)"><path d="m1556.4 351-22.9 103.5h-197.3l94.8-103.5zm-277.3 103.5h-197.8l22.2-103.5h125.4zm249 28.8-45.6 212.7h-125.2l30.1-143.9-131.7 143.9-70.4-145.2-30.4 145.2h-125.2l45.5-212.7z"/><path d="m1974.4 351-22.8 103.5h-125.2l22.8-103.5zm-258 0-22.8 103.5h-125.2l22.8-103.5zm229.8 132.3-28.2 132.2c-9.7 45.4-61.1 80.5-115 80.5h-188.1c-62.2 0-87.8-43.7-80.1-80.5l27.5-132.2h125.9l-23.3 109.2h132.8l23.3-109.2z"/><path d="m2392.5 351-22.8 103.5h-382.7l4.9-23c9.6-45.3 60.9-80.5 114.9-80.5zm-45.4 212.7-11 51.8c-9.6 45.3-61.1 80.5-115 80.5h-285.7l22.3-103.5h258l6.2-28.7h-160.3c-50.2 0-82.3-29.4-82.3-66.7 0-4.6.5-9.2 1.4-13.8h285.7c64.9 0 88.1 45.5 80.7 80.4z"/><path d="m2810.5 351-22.3 103.5h-383.2l4.9-23c9.6-45.2 61-80.5 115-80.5zm-51.5 241.5-22.3 103.5h-285.7c-60.8 0-88.1-42-80.1-80.5l27.3-132.2h125.9l-23.1 109.2z"/><path d="m2971.3 351-22.9 103.5h-124.5l22.2-103.5zm171.6 241.5-22.3 103.5h-348.4l45.5-212.7h124.6l-22.7 109.2z"/><path d="m3576.9 351-22.2 103.5h-348.3l22.2-103.5zm-28.5 132.3-16.8 80.5h-223.3l-6.2 28.7h223.3l-22.3 103.5h-348.4l45.5-212.7z"/><path d="m4222.1 431.5-4.9 23h-383l22.1-103.5h285.7c55.2 0 89.3 37 80.1 80.5zm-11.1 51.8c-9.3 44.6-59.8 80.5-114.5 80.5h-160.5l-28.3 132.2h-125.2l45.5-212.7z"/><path d="m4639.5 431.5-4.9 23h-383.2l4.9-23c9.6-45.2 60.9-80.5 114.9-80.5h188.1c57.4 0 89 39.3 80.2 80.5zm-11 51.8-28 132.2c-9.6 45.2-61 80.5-115 80.5h-188.1c-56.1 0-89-37.9-80.2-80.5l27.4-132.2h125.9l-23.2 109.2h132.1l23.2-109.2z"/><path d="m5287.4 351-53.5 103.5h-125.7l53.5-103.5zm-234.8 103.5h-188l53.6-103.5h125.4zm-243.8 0h-125.4l-9.1-103.5h125.4zm409.5 28.8-109.2 212.7h-160.3l-12.6-138.6-71 138.6h-160.2l-18.8-212.7h124.7l6.2 63.2 32.1-63.2h205.6l6.3 63.8 32.2-63.8z"/><path d="m5653.3 351-22.3 103.5h-348.3l22.2-103.5zm-28.6 132.3-16.8 80.5h-223.3l-6.2 28.7h223.3l-22.3 103.5h-348.4l45.5-212.7z"/><path d="m6054.5 431.5-4.8 23h-383.1l22.1-103.5h285.7c57.4 0 88.8 39.3 80.1 80.5zm-11 51.8c-2.4 11.9-14.2 25.2-35.6 40.2 16 16.7 22 27.6 19.2 40.4l-29 132.1h-124.5l28.2-132.2h-133.3l-28.3 132.2h-125.3l45.5-212.7z"/><path d="m6163.2 218.3h15c17.1 0 27.8-9.1 27.8-22.9 0-15.2-10.7-22.2-27.2-22.2-8 0-13.1.6-15.6 1.2zm-25.2-61.4c9.4-1.6 23.7-2.9 38.3-2.9 34.3 0 54.8 11.5 54.8 39 0 17.9-12.2 30.1-25.1 34.8v.6c9.9 3.7 15.9 13.4 19.3 26.8 4.4 17.3 8.1 33.3 11 38.7h-26.2c-2-4.1-5.5-15.5-9.3-32.8-4-18.1-10.5-24.3-24.9-24.3h-12.7v57.1h-25.2z"/><path d="m6183 120.3c-57.1 0-103.6 46.6-103.6 103.7s46.5 103.6 103.6 103.6 103.7-46.5 103.7-103.6-46.6-103.7-103.7-103.7zm0 230.7c-70.1 0-127.1-56.8-127.1-127s57-127.1 127.1-127.1 127 56.9 127 127.1-56.9 127-127 127z"/><path d="m500 20c-265.1 0-480 214.9-480 480s214.9 480 480 480 480-214.9 480-480-214.9-480-480-480zm-335.4 297.4h109.7l43.9 109.4h-172.9zm286.3 0h109.7l-19.5 109.4h-172.9zm147 0h249.7c55 0 76.9 46.6 70.1 85.1l-4.3 24.3h-334.8zm-458.2 139.9h395.8l-39.6 225.3h-109.5l26.8-152.8-115.1 152.8-61.6-152.8-26.7 152.8h-108.9zm433.3 0h335c-8.4 48.1-52.7 85.4-99.8 85.4h-140.2l-24.9 139.9h-108.9z"/></g></g></svg>