<svg viewBox="0 0 441 100" xmlns="http://www.w3.org/2000/svg"><g id="figure"><path d="m33.67 47.76h-19.27v-17.19h-12.2v44.72h12.2v-18.21h19.27v18.21h12.19v-44.72h-12.19zm29.24-17.19-8.52 26.26h-5.88l2.94 9.02h.06l-3.06 9.45h11.76l2.73-9.45h15.21l2.73 9.45h12.25l-14.1-43.31a1.96 1.96 0 00-1.86-1.42zm2.6 26.26 5.07-17.5 4.99 17.5zm50.98-26.26-9.35 19.43-9.42-19.43h-13.06l16.39 30.16v14.56h12.04v-14.56l16.31-30.16zm19.56 0-9.15 26.26h-6.34l3.14 9.02h.04l-3.29 9.45h12.64l2.94-9.45h16.39l2.94 9.45h13.15l-15.13-43.31a2.14 2.14 0 00-2.01-1.42zm2.79 26.26 5.47-17.5 5.36 17.5zm64.7-4.4c4.12-1.22 5.29-3.71 5.29-10.29 0-8.75-3.31-11.57-10.14-11.57h-28.37v44.72h28.96c6.86 0 10.14-2.87 10.14-12.07 0-6.77-1.4-9.9-5.88-10.79zm-21-13.04h12.74c1.03 0 1.4.25 1.4 4.47 0 4.21-.42 4.47-1.4 4.47h-12.74zm13.28 27.09h-13.28v-9.97h13.3c.98 0 1.4.25 1.4 4.98 0 4.72-.39 4.99-1.42 4.99zm45.28-1.79c0 .83-.36 1.22-1.39 1.22h-11.98c-.98 0-1.4-.38-1.4-1.22v-34.12h-12.2v35.91c0 5.81 3.46 8.82 10.14 8.82h18.89c6.76 0 10.14-3 10.14-8.82v-35.91h-12.2zm44.99-15.27-13.66-2.87c-1.62-.32-2.06-.65-2.06-1.67v-4.16c0-.98.36-1.21 1.39-1.21h10.59c1.03 0 1.39.25 1.39 1.21v4.03h12.06v-5.36c0-6.01-3.3-8.82-10.14-8.82h-17.34c-6.86 0-10.14 2.81-10.14 8.82v7.34c0 6.08 3.74 7.73 10.59 9.2l13.66 2.87c1.55.32 2.06.65 2.06 1.67v4.67c0 .89-.36 1.22-1.39 1.22h-11.61c-1.03 0-1.39-.32-1.39-1.22v-4.54h-12.07v5.88c0 5.94 3.3 8.82 10.14 8.82h18.38c6.86 0 10.14-2.87 10.14-8.82v-7.84c0-6.09-3.74-7.74-10.59-9.22zm43.71-18.85h-15.32l-9.15 26.26h-6.34l3.14 9.02h.07l-3.29 9.45h12.64l2.94-9.45h16.39l2.94 9.45h13.15l-15.16-43.31a2.14 2.14 0 00-2.01-1.42zm-12.53 26.26 5.42-17.5 5.36 17.5zm91.37-10.03 17.43 2.06-.81-4.43 1.72-2.73a48.92 48.92 0 00-18.34 5.1zm-8.84-3.67c6.07-3.92 13.25-9.16 24.9-10.9l-.28 4.48 2.04 3.4a124.11 124.11 0 00-26.66 3.02zm-23.27-24.43c1.1-.41 3.67-1.11 4.61-1.39l-4.12-1.1-.53-2.56a86.25 86.25 0 00-19.39 7.2c1.13 2.41 2.29 4.63 3.37 6.55a68.31 68.31 0 0116.05-8.7zm-20.05.74a87.89 87.89 0 0118.62-7.04l-4.07-1.48-.47-2.61h-.25c-3.76.43-10.51 2.53-16.59 4.81a61.25 61.25 0 002.75 6.31zm57.42 13.08c3.32-.74 6.34-1.29 8.7-1.67l.54-.15-5.59-.93-1.47-5.44a63.2 63.2 0 00-17.25 10.47.74.74 0 01-.13.12c-1.66 1.41-3.28 2.88-4.67 4.29a89.8 89.8 0 0119.86-6.69zm-23.34-4.32c-1.49-1.6-2.87-3.03-4.1-4.26-1.06.31-2.26.71-3.55 1.22a57.41 57.41 0 00-16.8 10.58 56.41 56.41 0 015 5.09 60.77 60.77 0 0116.39-11.31c1.09-.51 2.12-.94 3.06-1.3zm28.99 37.26-2.83-1.65-1.33-2.63-.98.58a60.92 60.92 0 00-16.25 15.01c.71.79 2.22 2.47 4.34 4.57a66.65 66.65 0 0117.05-15.87zm-23.72-31.22c-1.46-1.69-2.82-3.37-4.16-4.83-1.09.4-2.29.9-3.59 1.5a59.61 59.61 0 00-16 11.08 58.93 58.93 0 014.01 5.88 71.67 71.67 0 0119.73-13.63z"/><path d="m387.28 47.07a64.09 64.09 0 00-7.77 13.72l2.94-.88a53.91 53.91 0 018.42-10.98 64.58 64.58 0 0113.34-10.41 80.37 80.37 0 018.48-4.38c-7.16 1.73-15.57 4.28-21.56 8.19-1.37 1.55-2.91 3.48-3.84 4.73zm-2.03-24.35-2.11-1.68-.48-2.62c-1.22.33-4.14 1.13-5.69 1.71a66.93 66.93 0 00-15.76 8.55c1.96 3.35 3.48 5.59 3.78 6.02a59.14 59.14 0 0117.48-10.99c.98-.39 1.96-.72 2.77-.99zm40.63 55.66-2.23-1.22-.13-3.31a65.4 65.4 0 00-13.41 14.28c1.8 1.45 3.74 2.94 5.78 4.25 2.73-5.6 7.33-11 9.99-14.01z"/><path d="m377.66 61.32a64.24 64.24 0 018.47-15.14 71.74 71.74 0 019.97-10.68c-7.2 3.72-16.51 10.89-19.75 14.7l-3.92 5.73-.28 3.46.4 5.17 3.23-2.78zm-8.23-54.44-6.56-3.67-.98 2.6-4.73-2.83-.83 2.94-5.04-3.92a48.69 48.69 0 002.01 9.8c5.6-2.21 12.38-4.42 16.13-4.92zm44.94 16.74-5.81.09-3.8-3.09-6.98 13.39a65.15 65.15 0 0116.59-10.39zm12.28 56.18c-2.52 2.94-6.91 8.13-9.49 13.46a48.76 48.76 0 009.49 4.74l-2.79-6.4 3.59.2-1.96-5.26 2.74-.13zm-12.95-19.35q.49-.3.98-.59c-.98-1.71-2.11-3.71-3.46-5.88-.98.57-2.15 1.26-3.39 2.11a73.32 73.32 0 00-14.28 12.94c1.19 1.83 2.44 3.92 3.7 6.41a62.27 62.27 0 0116.45-14.99zm9.1 12.01-2.68-1.77v-3.84a65.81 65.81 0 00-16.58 15.52c1.56 1.49 3.36 3.14 5.37 4.8a66.05 66.05 0 0113.89-14.71zm-15.82-24.86a54.61 54.61 0 00-18.48 14.7 52.06 52.06 0 014.22 5.46 74.31 74.31 0 0114.33-12.95c1.23-.82 2.35-1.52 3.36-2.09-1.06-1.66-2.22-3.37-3.46-5.1"/><path d="m397.01 51.93a57.27 57.27 0 0122.96-10.41c-8.15.44-16.81 1.79-22.85 3.92-1.91 1.54-3.76 3.1-5.14 4.48a55.34 55.34 0 00-7.4 9.3l1.32.45a20.79 20.79 0 011.53 1.47 54.28 54.28 0 019.57-9.21z"/><path d="m427.79 76.5a42.69 42.69 0 0011.01-28.69 43.12 43.12 0 00-43.12-43.04 42.54 42.54 0 00-20.58 5.38l3.16 1.14a39.51 39.51 0 0118.32-4.41 40.48 40.48 0 0129.02 68.52zm-23.01 10.46a38.47 38.47 0 01-8.21.81 40.62 40.62 0 01-36.92-56.92l-1.83-3.23a42.82 42.82 0 0037.86 63.18 43.26 43.26 0 0011.76-1.64z"/></g></svg>
