<svg viewBox="0 0 296 100" xmlns="http://www.w3.org/2000/svg"><g id="figure" fill="#fff"><path d="m40.7 2c-17.82 27.81-17.03 65.25 37.6 52.1 11.85-2.85 189.4-50.8 189.4-50.8s-123.85 54.62-184.9 81.3c-15.39 6.73-31.5 12.63-48.8 12.5-23.29-.17-31.96-15.41-32-29.1-.05-17.31 12.87-40.17 38.7-66"/><path d="m127.2 87.9c.83 1.59 2.43 3.2 4.4 3.2 1.06 0 2.3-.65 2.5-1.9.18-1.15-.33-1.79-1.4-2.7-1.35-1.15-2.52-2.32-3.3-3.7-.74-1.32-1.14-2.91-.8-5 .54-3.34 3.6-9.4 10.2-9.4 1.86 0 3.82.63 5.3 1.5l-1.4 8.6c-.68-1.44-2.22-3-4-3-.91 0-2.2.59-2.3 1.7-.11 1.27.79 2.05 1.7 2.8 1.41 1.17 2.62 2.21 3.3 3.5s.94 2.74.6 4.9c-.84 5.31-5.21 9.6-10.6 9.6-1.97 0-3.89-.44-5.6-1.2z"/><path d="m147 97.5 3.4-21.6h-4.2l1.1-7h16.4l-1.1 7h-4.4l-3.5 21.6z"/><path d="m172.8 82.1c2.05 0 3.51-1.75 3.8-3.6.39-2.51-.98-3.51-3.1-3.4l-1.2 7zm1.4 15.4-2.4-11.9-.1.1c-.15 1.4-.37 2.8-.6 4.2l-1.2 7.6h-7.7l4.5-28.6h7.5c6.71 0 11.28 1.95 10.1 9.5-.49 3.15-2.34 5.99-5.6 7.2l3.8 11.9z"/><path d="m189.5 68.9h14.4l-1.1 6.8h-6.6l-.6 3.9h5.9l-1.1 6.8h-5.9l-.7 4.4h6.6l-1.1 6.7h-14.3z"/><path d="m208.3 68.9h7.4l3.5 17.2c.11-1.64.17-6.6.7-9.9l1.1-7.3h7.5l-4.5 28.6h-7.5l-3.1-16.5-.1.1c-.27 2.69-.28 5.31-.7 8l-1.4 8.4h-7.4z"/><path d="m251.6 81-.1 1.2c-1.1 7.05-3.85 15.8-12.8 15.8-8.42 0-10.05-7.36-8.9-14.6 1.13-7.09 5.02-15 13.4-15 4.63 0 7.68 2.97 8.7 7.1l-7.9 2.7c.11-1.14-.33-2.9-1.7-2.9-3.56 0-4.43 6.53-4.7 8.7-.26 2.04-1.2 7.1 1.8 7.1 2.05 0 3.07-2.43 3.3-4.1h-2.8l1-6z"/><path d="m255.2 97.5 3.4-21.6h-4.2l1.1-7h16.4l-1.1 7h-4.5l-3.4 21.6z"/><path d="m281.8 97.5 1.8-11.6h-3.7l-1.8 11.6h-7.7l4.5-28.6h7.7l-1.6 10.3h3.7l1.6-10.3h7.7l-4.5 28.6z"/></g></svg>