<svg viewBox="0 0 565 100" xmlns="http://www.w3.org/2000/svg" xmlns:xlink="http://www.w3.org/1999/xlink"><path d="m2 2h60.3v39l27.7 8.4-27.7 8.5v40.1h-60.3z" fill="#e3001b"/><path d="m90.4 2.5h24.2v95.4h-24.2v-40h-28.4v-16.9h28.4z"/><path d="m179.4 2.5h-32.4l-20.2 95.4h23.7l3.6-21.8h18.5l3.5 21.8h23.5zm-16 15.3 6.8 42.2h-13.5z"/><path id="a" d="m211.6 2.5h32.3l11.1 50.8 4.2 21.9 3-18.4 11.6-54.3h32.8v95.4h-21.6v-61.3l.4-8.4-15.8 69.7h-21.3l-15.9-70.2.4 15.7v54.5h-21.2z"/><use transform="translate(111)" xlink:href="#a"/><path d="m433.6 2.5h51.7v16.7h-27.5v21.9h26v16.9h-26v23h27.5v16.9h-51.7z"/><path d="m499.7 2.5v95.4h22.7v-40.7h4.7c8.56 0 11.01 1.47 10.9 9.1l-.2 14.3c-.12 8.52-.19 11.28 3.3 17.3h21.9v-.3c-2.15-2.5-3.13-4.48-3.1-11l.1-20.9c.03-6.88-.77-11.85-5.2-14.7-2.26-1.45-4.9-2.29-7.5-2.9 12.01-6.76 12.19-10.3 12.2-25.5.01-14.6-9.29-20.1-25.9-20.1zm28.5 16.6c8.33 0 9.91.71 9.9 10.5-.01 9.29-1.37 11.2-9.9 11.2h-5.9v-21.7z"/></svg>