<svg viewBox="0 0 727 100" xmlns="http://www.w3.org/2000/svg"><g transform="scale(.1)" id="figure" fill="#fff"><path d="m221.4 344.4c0-46.7 98.3-62.5 179.6-62.5 243 0 364.4 94.9 364.4 94.9v-166.2c-85.1-53.5-230.6-80.8-364.4-80.8-220.2 0-381 81.3-381 230.2s187.6 200.7 393.9 218.2c142.8 12.1 198.5 26.7 198.5 71.5s-59.6 67.4-178.6 67.4c-186.1 0-335.5-81.5-400.9-130.6v176.9c104.6 68.8 239.7 106.5 397.1 106.5 252 0 383.8-97.3 383.8-240.1 0-140.7-156-204.8-388-223.3-126.1-10-204.4-15.4-204.4-62.1z"/><path d="m1320.1 870.2c122.3 0 237-29.2 313.6-82.5v-197.1c-42.1 36.7-149.4 114.9-310.9 114.9s-259.6-77.4-259.6-205.4 109.7-205.3 259.6-205.3 268.6 78.1 310.9 114.6v-197.1c-76.6-53.3-192.7-82.5-313.6-82.5-283.2 0-462.7 151.1-462.7 370.2s180.6 370.1 462.7 370.2z"/><path d="m2340.2 411.8h-416.7v-258.8h-202.5v694.3h202.5v-268.8h416.7v268.8h202.4v-694.3h-202.4z"/><path d="m3627.9 153-149.1 468.5-162.8-468.5h-193.6l-162.8 468.5-149.1-468.5h-207.6l254.3 694.3h199.2l162.8-483.2 162.7 483.2h199.5l254-694.3z"/><path d="m4098.2 153h-202.4v694.5h202.4z"/><path d="m4824.9 153v448.8l-417.3-448.8h-209.9v694.3h195.6v-442.8l417 442.8h209.9v-694.3z"/><path d="m5747.2 153v448.8l-417.3-448.8h-209.9v694.3h195.6v-442.8l417 442.8h209.9v-694.3z"/><path d="m6044.4 152.3c-20.5 0-37.1 16.7-37.1 37.4s16.6 37.4 37.1 37.4 37.1-16.7 37.1-37.4-16.6-37.4-37.1-37.4zm0 5.4c17.7 0 32 14.3 32 32s-14.3 32-32 32-32-14.3-32-32 14.3-32 32-32zm-14.3 11.3v40.6h7v-15.8h5.6c7.7 0 12 1.4 12 10.5v5.3h6.3v-.4c-.2-.5-.3-1.2-.3-2.2v-5.9c0-3.9-2.6-9.2-9.2-10.2 8.3-1.7 9.7-4.5 9.7-10 0-11.3-10.1-11.9-17.4-11.9zm6.3 5.1h6.1c10.6 0 11.2 4.2 11.2 7.3-.3 6-5.8 7.5-11 7.3h-6.3z"/><path d="m6770 20c-265.1 0-480 214.9-480 480s214.9 480 480 480 480-214.9 480-480-214.9-480-480-480zm-12.2 25.1v425.2l-82.7-82.5zm24.4 0 82.7 342.7-82.7 82.5zm-124.1 360 82.5 82.7h-425.3zm223.8 0 342.8 82.7h-425.3zm-566.6 107.1h425.3l-82.5 82.7zm484.1 0h425.3l-342.8 82.7zm-41.6 17.5v425.2l-82.7-342.7zm24.4 0 82.7 82.5-82.7 342.7z"/><path d="m7200.7 154.8v6.5h-12.9v33.9h-7.1v-33.9h-12.7v-6.5zm42.3 40.4-3.2-32.1-10.7 32.1h-7l-9.8-32.4-2.6 32.4h-7.1l3.9-40.4h9.7l9.5 30.4 10-30.4h9.5l4.6 40.4z"/></g></svg>