<svg viewBox="0 0 151 100" xmlns="http://www.w3.org/2000/svg"><g id="figure" fill="#fff" transform="scale(.1)"><path d="m68.9 852.3c0-11.3 23.9-15.2 43.6-15.2 59 0 88.5 23.1 88.5 23.1v-40.4c-20.7-13-56-19.6-88.5-19.6-53.5 0-92.5 19.7-92.5 55.9s45.6 48.8 95.7 53c34.7 2.9 48.2 6.5 48.2 17.4s-14.5 16.3-43.4 16.3c-45.2 0-81.5-19.8-97.4-31.7v43c25.4 16.7 58.3 25.8 96.5 25.8 61.2 0 93.2-23.6 93.2-58.3 0-34.2-38-49.7-94.3-54.2-30.6-2.4-49.6-3.8-49.6-15.1z"/><path d="m335.4 980c29.7 0 57.6-7.1 76.2-20v-47.9c-10.2 8.9-36.3 27.9-75.5 27.9s-63.1-18.8-63.1-49.9 26.7-49.8 63.1-49.8 65.2 18.9 75.5 27.8v-47.9c-18.6-12.9-46.8-20-76.2-20-68.8 0-112.3 36.7-112.3 89.9s43.8 89.9 112.3 89.9z"/><path d="m582.8 868.7h-101.2v-62.9h-49.1v168.6h49.1v-65.2h101.2v65.2h49.2v-168.6h-49.2z"/><path d="m895.2 805.8-36.2 113.8-39.5-113.8h-47l-39.5 113.8-36.2-113.8h-50.5l61.8 168.6h48.4l39.5-117.3 39.5 117.3h48.5l61.6-168.6z"/><path d="m1009.2 805.8h-49.2v168.7h49.2z"/><path d="m1185.3 805.8v109l-101.3-109h-51v168.6h47.5v-107.5l101.3 107.5h51v-168.6z"/><path d="m1409 805.8v109l-101.3-109h-51v168.6h47.5v-107.5l101.3 107.5h50.9v-168.6z"/><path d="m1481 805.7c-5 0-9 4.1-9 9.1s4 9.1 9 9.1 9-4.1 9-9.1-4-9.1-9-9.1zm0 1.3c4.3 0 7.8 3.5 7.8 7.8s-3.5 7.8-7.8 7.8-7.8-3.5-7.8-7.8 3.5-7.8 7.8-7.8zm-3.5 2.8v9.8h1.7v-3.8h1.4c1.9 0 2.9.3 2.9 2.5v1.3h1.5v-.1c0-.1 0-.3 0-.5v-1.4c0-.9-.7-2.3-2.3-2.5 2-.4 2.4-1.1 2.4-2.5 0-2.7-2.4-2.8-4.2-2.8zm1.6 1.2h1.4c2.6 0 2.8 1 2.8 1.8 0 1.5-1.4 1.7-2.7 1.7h-1.5z"/><path d="m1057.4 114.6v4.6h-9.1v23.8h-5v-23.8h-8.9v-4.6zm29.7 28.4-2.3-22.6-7.5 22.6h-4.9l-6.9-22.8-1.8 22.8h-5l2.7-28.4h6.8l6.7 21.3 7-21.3h6.7l3.2 28.4z"/><path d="m755 20c-186.1 0-337 150.9-337 337s150.9 337 337 337 337-150.9 337-337-150.9-337-337-337zm-8.6 17.6v298.6l-58-58zm17.2 0 58 240.6-58 58zm-87.2 252.8 58 58h-298.6zm157.2 0 240.6 58h-298.6zm-397.8 75.2h298.6l-58 58zm339.8 0h298.6l-240.6 58zm-29.2 12.2v298.6l-58-240.6zm17.2 0 58 58-58 240.6z"/></g></svg>