<svg viewBox="0 0 146 100" xmlns="http://www.w3.org/2000/svg"><g id="figure" fill="#fff"><path d="m76.2 6.1c5.7.8 9.3 3.3 11.1 7.9.7 1.7.9 3.7 1 5.9.1 3.1-.6 4.8 1 6.8.6.8 2 2 3.4 1.3 4.4-2.4 2.9-11.8 1-15.4-4.2-8.3-14-10.8-26.8-10.6-5.8.1-12.2 1.2-17.4 2.9-17.5 6.3-31.3 15-45.9 23.4-1.2.7-2.8 2-1.6 3.3.6.5 4.4-1.5 5.7-2.2 15.3-8.8 30.8-18.2 47.3-22.4 7-1.7 14.1-1.7 21.2-.9z"/><path d="m143.9 26.9h-9.3c.8-4.1 1.7-8.3 2.5-12.4-12.5 8.4-25.1 17.1-35.8 24.4.6-3.8 1.3-7.6 1.9-11.4-.6.3-1.2.6-1.8.9-5.7 2-12.8 2.4-18.4.3-.8-.4-1.6-.8-2.3-1.2-2.5 14.6-5.1 29.2-7.6 43.8 2 .1 4.2.1 6 .1h9.4c-1.4.5-3 1.1-4.4 1.5-1.7.5-3.8 1-4.1 2.5-.1.6.1 1.2.5 1.7.5.6 1.1.8 1.8.7 1.4-.3 2.7-.8 4-1.3s2.7-1.1 4.1-1.3l-.8 5.1c-2.5.7-6.4 1.6-6.3 3.5.1 1.2.8 1.8 2 1.8 1.3-.1 2.5-.6 3.7-1-.1.4-.2.9-.3 1.4-.3 1.5-.7 3.2-.1 4.2.3.4.7.7 1.2.8h.4c.8 0 1.4-.5 1.7-.9.3-.5.4-1.2.4-1.9.1-1.6.5-3.2.8-4.9l2.2-.7c.1 1.4.7 2.8 1.7 3.9 1 1 2.2 1.5 3.4 1.5.6 0 1.2-.1 1.8-.4 1.4-.6 1.9-1.8 2.5-2.9.2 1.6.7 3.1 2 3.1.2 0 .3 0 .5-.1.5-.1 1-.3 1.3-.7.4-.6.3-1.5.1-2.1-.1-.4-.2-1.1-.3-1.9-.3-2.5-.6-4.4-1.3-4.9-.3-.2-.6-.3-1-.3-.6 0-1.3.3-1.6.8-.4.6-.7 1.4-1 2.2-.5 1.5-1 2.8-2.4 3.1-.7.1-1.2.1-1.4-.2-.4-.5-.3-1.6-.2-2.7.1-1 .2-1.9-.1-2.5-.2-.4-.7-.6-1.4-.6-1.4 0-3.3.8-4.4 1.1l.9-5.1c2-.7 4.1-1.5 6-2.1.7-.2 1.3-.4 1.8-.8.6-.6.8-1.5.4-2.3-.4-.9-1.3-1.5-2.3-1.5l-4.2 1.6c1.6-9.6 3.2-19.3 4.8-28.9 2.9 0 5.8 0 8.6-.1-.8 5.6-1.7 11.2-2.5 16.7-.2 1.1 0 2.5.2 3.4 1 5.3 3.6 8.1 7.9 10.1 1.4.6 3.1 1.3 4.9 1.6-.4 2.6-.9 5-1.4 7.6l-2-3.1-2.7-4.9c-.3-.6-1-1.1-1.7-1.1-.3 0-.6.1-.9.3-1.1 1.2-1 2.5-1.2 3.9l-1 6.3c0 .2-.1.4-.1.5-.2.6-.4 1.4-.2 2.1.1.6.5 1.2 1 1.5.3.2.6.3.9.3 2.1 0 2.7-4.9 2.8-7 1.5 2.3 2.9 4.7 4.2 6.9.2.4 1 1.5 2 1.5.3 0 .6-.1.9-.3.8-.6.9-2 1-3.3.4-3.6 1-7.3 1.6-10.9 5.3.2 9.9-.8 13.8-3.5 1-5.9 2-11.8 3-17.7-1.6 1.7-2.9 2.5-5 3-2 .4-4.1-.2-4.2-1.6-.4-4.1.8-8.7 1.4-12.3l9.3-.1z"/><path d="m38.1 52.4c-1 6.2-2.1 12.4-3.1 18.5h22.7c1-6.2 2.1-12.4 3.1-18.5 4.2 0 8.4 0 12.7-.1.7-4 1.4-8 2.1-12.1-4.1-.1-8.4-.1-12.6-.1.7-6.6 10.6-7.4 12.8-2 1.5-6.9 2.7-15.3 3.7-21.6-5.9-1.8-11.9-2.5-18.1-1-8.3 2.1-13.8 6.7-17.4 13.4-1.4 2.6-2.3 5.3-3.2 8.6-.2.8-.3 1.7-.5 2.5-1.8 0-3.6 0-5.4.1-.7 4-1.4 8-2.1 12.1 1.8.1 3.8.1 5.4.1z"/><path d="m54.6 92.5c-.2 0-.4 0-.5-.1-.7-.3-.9-1.7-.6-2.8.5-2.1 2.5-4.1 3.4-4.2.3-.1.7.2 1 .5.4.5.5 1.2.3 2.1-.3 1.3-1.8 4.5-3.5 4.5zm-6.9-7.6 1-5.2c1.4-.3 7.1-2.3 7.6-2.9.5-.7.6-1.6.2-2.3-.4-.8-1.6-1.6-2.1-1.3l-4.1 1.5c-2.4.9-4.9 1.8-7.3 2.6-1.3.4-2.6.9-3.9 1.3-.4.1-.8.2-1.3.4-1.6.4-3.7.9-4 2.2-.2.7 0 1.4.4 1.9s1 .8 1.6.8c.1 0 .3 0 .5-.1l8-2.6-.8 5.1c-.6.2-1.4.4-1.9.5-2.4.7-4.7 1.3-5 2.3-.2.6 0 1.4.3 1.8.4.6.9.9 1.7.9.9 0 1.9-.4 2.8-.8.5-.2 1-.4 1.4-.5-.1.4-.2 1-.3 1.6-.4 1.9-.9 4.2 0 5.2.3.4.7.5 1.3.5.2 0 .4 0 .6-.1 1.7-.3 2-2.9 2.2-5.4.1-1.3.3-2.6.6-3.3.3-.3 2-.7 2.7-.9.1 0 .3-.1.4-.1-.9 3.2-.8 5.7 2 7.3.7.4 1.4.6 2.8.6 1.4-.1 3.5-1.4 5.1-3.4s2.3-4.2 2.1-6c-.4-3.1-1.8-4.8-4.5-4.6-3.5.4-6.6 1.7-10 2.9z"/><path d="m67.3 78.1c.1-.2.2-.3.5-.4.3-.2.6-.2 1.3-.1.8 0 1.4.3 1.6.8.3.5.2 1.1-.2 1.8-.7 1.1-1.7 1.9-3.4 2.5zm3.4 6.9c1.3-.9 2.4-2.3 3-3.6 1-2.4.5-4.1-.2-5-1.1-1.6-3.2-2.6-4.9-2.5-1.8 0-3.1.4-3.1.4-.9.3-4.1 1.5-5.3 3.8-.3.6-.3 1.4.1 2 .5.8 1.3 1.2 2.2 1.1.5-.1.8-.2 1.1-.4l-.9 7.8c-.1.7-.4 2-.1 2.8.3.7 1.2 1.3 2.1 1.3.6 0 1.1-.3 1.5-.7.4-.6.4-1.9.4-2.9l4.2 2.5c.4.3.9.6 1.5.8h.4c.9 0 1.6-.7 1.9-1.4.8-1.9-1.6-2.9-3.4-3.8-.8-.4-1.6-.7-1.8-.9z"/></g></svg>