<svg viewBox="0 0 596 100" xmlns="http://www.w3.org/2000/svg" xmlns:xlink="http://www.w3.org/1999/xlink"><g id="figure" fill="#d31d2d"><path d="m2 98 16.9-96h29.3l-6.5 36.5 32.3-36.5h38.5l-36.5 41.3 23.5 54.7h-31.4s-12.7-29.6-13.9-32.4-3.9-4.1-6.2-4.1h-10.3l-6.5 36.5z"/><path id="u" d="m211.1 2h-73.4c-12.1 0-21.7 8.9-23.6 19.8s-5.2 29.4-8.5 48c-.3 1.6-.4 3.3-.4 4.8 0 13.3 10.7 23.4 24.1 23.4h64.9l4.1-23h-56.3c-5.5 0-7.2-5.2-6.7-7.9.5-2.9 1-5.6 1-5.6h64.3l4.1-23h-64.3s.9-4.3 1.4-7.9 4-5.6 6.6-5.6h58.7z"/><path d="m255.2 2h-29.3l-16.9 96h29.3z"/><path d="m360.1 2h-71.5c-14.6 0-22.2 12.1-23.6 19.8-.6 3.6-1.3 7-2.1 11.6-3.1 17.7 12.2 28.1 23.6 28.1h27.8c5.9 0 6.7 6.7 6.7 6.7s-.6 6.8-6.7 6.8h-56.8l-4 23h71.5c15.7 0 22.4-13 23.6-19.8s-1.1 6.9 2-11.5-12-28.2-23.6-28.2h-27.7c-6.2 0-6.8-6.7-6.8-6.7s.4-6.8 6.8-6.8h56.7z"/><use transform="translate(256.5)" xlink:href="#u"/><path d="m505.3 38.5 2.4-13.5h27s7 .5 6.8 6.8c-.3 6.5-6.8 6.7-6.8 6.7zm-22.8-36.5-16.9 96h29.2l6.4-36.5h10.4c3.1 0 5.3 2 6.2 4s13.9 32.5 13.9 32.5h31.3l-17-39.7c6.8.2 21.3-5 23.6-19.8l1.5-8.3c1.5-9.7-4.4-28.2-23.6-28.2z"/><path d="m576.7 11.5c0-4.3 3.5-7.9 7.8-7.9s7.8 3.6 7.8 7.9c0 4.4-3.5 7.9-7.8 7.9s-7.8-3.6-7.8-7.9zm-1.7 0c0 5.3 4.2 9.5 9.5 9.5s9.5-4.2 9.5-9.5-4.2-9.5-9.5-9.5-9.5 4.2-9.5 9.5z"/><path d="m582.1 10.8v-2.9h2.7s1.9-.1 1.8 1.4c-.1 1.6-2 1.5-2 1.5zm5 2.7c-.7-1.2-1.1-1.5-1.7-1.7 0 0 2.6 0 2.6-2.4 0-2.3-1.8-2.5-3.1-2.5l-4.1-.1v9.3h1.3v-4.2h1.7c.6 0 1.4.8 2.2 2.2.9 1.6 1.2 2 1.2 2h1.5z"/></g></svg>