<svg viewBox="0 0 109 100" xmlns="http://www.w3.org/2000/svg"><g id="figure" fill="#fff"><path d="m88.7 98c-13.7-.1-33-8.5-50.9-23.5-5-4.2-9.6-8.5-13.5-12.9-9.5 12.9-13.9 23.6-10.3 27.2 3 3 11 .4 21.1-6.2.6-.4 1.4-.3 1.9.2.7.7.6 1.9-.2 2.4-14.9 9.9-27.4 13.7-32.4 8.7-1.5-1.5-2.2-3.6-2.2-6.3 0-7.8 6-20 16.1-33.4-12.3-16.5-16.6-32.7-9.5-41.2 6.3-7.5 20-7.2 35.8-.7.7.3.8 1.1.6 1.6s-.9.8-1.5.6c-11.1-4.1-20.3-4.1-24.5 1-5 5.9-2 17.3 6.6 29.5 2.9-3.3 6.1-6.7 9.4-10 20.1-20.1 41.3-33 52.7-33 2.7 0 4.7.7 6.2 2.2 8.1 8.1.5 24.6-15.8 42.4-.6.7-1.7.6-2.3 0s-.6-1.5-.1-2.1c11.4-14.5 17-26.8 13.1-30.7-5.4-5.4-26.5 7.1-47.2 27.8-3.6 3.6-7 7.2-10.1 10.8 3.9 4.5 8.4 9 13.5 13.3 22.1 18.5 46.2 26 53.9 16.8 4.4-5.3 2.5-14.8-4-25.5-.3-.4-.2-.9.1-1.3.5-.6 1.5-.6 1.9.1 6.2 9.5 9.7 18.6 9.7 26 0 8.5-5 16.3-18.1 16.2z"/></g></svg>