<svg viewBox="0 0 119 100" xmlns="http://www.w3.org/2000/svg"><g id="figure" fill="#fff"><path d="m81.9 62.1c-8.59 0-20.73-5.23-31.9-14.6-3.11-2.61-5.93-5.42-8.4-8.2-5.98 8.08-8.75 14.85-6.5 17.1 1.89 1.89 6.97.2 13.3-3.9.38-.25.88-.22 1.2.1.43.43.31 1.16-.2 1.5-9.34 6.18-17.19 8.61-20.3 5.5-.92-.92-1.3-2.23-1.3-3.9 0-4.87 3.74-12.61 10.1-21-7.72-10.33-10.47-20.47-6-25.8 3.94-4.7 12.51-4.47 22.4-.4.47.19.66.79.4 1.1s-.61.31-.9.2c-6.95-2.56-12.74-2.57-15.4.6-3.1 3.7-1.18 10.82 4.2 18.5 1.82-2.09 3.72-4.12 5.8-6.2 12.6-12.6 25.84-20.7 33-20.7 1.67 0 3.08.48 4 1.4 5.04 5.04.19 15.37-10 26.5-.38.42-1 .4-1.4 0-.35-.35-.41-.91-.1-1.3 7.14-9.06 10.66-16.74 8.2-19.2-3.36-3.36-16.53 4.43-29.5 17.4-2.28 2.28-4.47 4.56-6.4 6.8 2.43 2.81 5.3 5.62 8.5 8.3 13.83 11.6 28.96 16.37 33.8 10.6 2.76-3.29 1.6-9.3-2.5-16-.16-.27-.15-.6.1-.9s.83-.31 1.1.1c3.92 5.97 6.11 11.67 6.1 16.3-.01 3.43-1.48 10.11-11.4 10.1z"/><path d="m17 90.8h3.2c.24 0 .35.27.3.5-1.01 4.34-4 6.7-8.9 6.7-5.36 0-9.6-3.72-9.6-9.2 0-5.45 4.24-9.2 9.6-9.2 5.52 0 8.19 3.6 9 7 .05.23-.06.5-.3.5h-3.2c-.16 0-.35-.15-.4-.3-.74-2.35-2.67-3.8-5.1-3.8-3.05 0-5.6 2.33-5.6 5.8 0 3.44 2.43 5.8 5.6 5.8 2.48 0 4.25-1.37 5-3.5.05-.15.24-.3.4-.3z"/><path d="m32.6 90.3v4h10.4c.23 0 .4.17.4.4v2.6c0 .23-.17.4-.4.4h-14.1c-.2 0-.4-.2-.4-.4v-17c0-.2.2-.4.4-.4h13.9c.23 0 .4.17.4.4v2.6c0 .23-.17.4-.4.4h-10.2v3.6h9.3c.23 0 .5.17.5.4v2.6c0 .23-.27.4-.5.4z"/><path d="m69.3 79.9h-3.3c-.2 0-.4.2-.4.4v11l-11.1-11.4h-2.8c-.2 0-.3.2-.3.4v1.6c0 .19.07.37.2.5l15 15.3h2.7c.18 0 .4-.22.4-.4v-17c0-.18-.22-.4-.4-.4zm-17.5 17.8h3.3c.2 0 .3-.2.3-.4v-7.8c0-.09-.03-.13-.1-.2l-3.9-4v12c0 .19.12.4.4.4z"/><path d="m76.4 82.9v-2.6c0-.23.17-.4.4-.4h16.9c.23 0 .4.17.4.4v2.6c0 .23-.17.4-.4.4h-6.4v14c0 .2-.2.4-.4.4h-3.3c-.2 0-.4-.2-.4-.4v-14h-6.4c-.11 0-.4-.17-.4-.4z"/><path d="m101.2 79.9h8.2c4.33 0 7.4 2.32 7.4 6.2 0 2.7-1.53 4.47-3.9 5.3l-.1.1s.59.58 1 1.2l3 4.4c.14.21.2.34.2.4 0 .12-.12.2-.3.2h-3.9c-.15 0-.38-.12-.5-.3l-3.6-5.3h-3.8v5.2c0 .2-.2.4-.4.4h-3.3c-.2 0-.4-.2-.4-.4v-17c0-.1.2-.4.4-.4zm3.7 3.4v5.6h4.3c2.22 0 3.6-1.05 3.6-2.8s-1.38-2.8-3.6-2.8z"/></g></svg>