<svg viewBox="0 0 206 100" xmlns="http://www.w3.org/2000/svg" xmlns:xlink="http://www.w3.org/1999/xlink"><defs><path id="a" d="m657.4 431.2h-647.4v-151.5h647.4z"/><mask id="b"><use fill="#fff" xlink:href="#a"/><path d="m82.48 390.3h11.72v-28.7h28.1v28.7h11.7v-67.6h-11.7v28.7h-28.1v-28.7h-11.7l.02 67.6z"/><path d="m221.2 390.3h11.6v-27.2l23-36.5v-3.9h-10.6l-18.1 29.9-17.4-29.9h-11.5v3.9l23 37z"/><path d="m329.6 354.5v-21.6h15.4c6.8 0 10.8 3.27 10.8 10.8s-4.03 10.79-10.8 10.8zm-11.63 35.8h11.63v-26h13.4l13.96 26h11.44v-3.8l-12.7-23.5c8.07-3.39 12-10.74 12-19.5 0-12.93-7.12-20.73-20.5-20.72l-29.2.02.03 67.5z"/><path d="m470.8 368c0 7.24-5.03 13.1-15.1 13.1-10.11 0-15-5.86-15-13.1v-23c0-7.24 4.93-13.1 15-13.1 10.11 0 15.1 5.86 15.1 13.1zm-41.7-.6c0 15.35 10.31 24.4 26.6 24.4s26.7-9.05 26.7-24.4v-21.8c0-15.35-10.41-24.3-26.7-24.3s-26.6 8.95-26.6 24.3z"/><path d="m538.9 390.3h11.2l17.1-25.7 16.9 25.7h11.9v-3.8l-21.5-31.2 19.8-28.7v-3.9h-11.2l-15.7 23.6-15-23.6h-11.8l-.1 3.9 19.64 28.78-21.24 31.12z"/></mask></defs><g id="figure"><g transform="scale(.2)"><path d="m154.9 170.7c-22.98-.05-55.41-14.16-85.3-39.2-8.33-6.98-15.88-14.28-22.5-21.7-16 21.6-23.43 39.48-17.4 45.5 5.06 5.05 18.55.66 35.5-10.3 1.01-.65 2.35-.55 3.2.3 1.15 1.14.97 3.09-.4 4-25 16.5-46.08 22.91-54.4 14.6-2.47-2.47-3.61-6.02-3.6-10.5.03-13.03 10.03-33.58 27.03-55.98-20.66-27.6-27.89-54.69-15.93-68.92 10.55-12.56 33.54-12.1 60-1.21 1.19.49 1.54 1.88.93 2.86-.42.67-1.36 1.19-2.38.81-18.58-6.85-34.03-6.84-41.15 1.64-8.3 9.88-3.3 28.88 11.1 49.4 4.86-5.57 10.13-11.24 15.7-16.8 33.62-33.58 69.01-55.09 88.2-55.2 4.53-.03 8.11 1.11 10.6 3.6 13.5 13.48.77 41.26-26.5 71-1.03 1.12-2.74 1.16-3.8.1-.94-.94-1.02-2.46-.2-3.5 19.12-24.21 28.47-44.93 21.9-51.5-8.99-8.98-44.49 11.83-79.2 46.5-6.1 6.1-11.74 12.21-16.9 18.2 6.5 7.52 14.14 15.03 22.7 22.2 37 31 77.44 43.73 90.4 28.3 7.4-8.8 4.25-24.89-6.7-42.8-.54-.89-.26-2.02.6-2.6s2.09-.33 2.7.6c10.29 15.66 16.12 30.74 16.3 43 .09 6.27-1.73 27.66-30.5 27.6z"/><path d="m445.5 107.2v27.4h71c1.55 0 2.8 1.25 2.8 2.8v17.3c0 1.55-1.25 2.8-2.8 2.8h-96c-1.33 0-2.4-1.07-2.4-2.4v-115.9c0-1.33 1.07-2.4 2.4-2.4h94.8c1.55 0 2.8 1.25 2.8 2.8v17.3c0 1.55-1.25 2.8-2.8 2.8h-69.8v24.6h63.7c1.55 0 2.9 1.25 2.9 2.8v17.3c0 1.55-1.35 2.8-2.9 2.8z"/><path d="m695.6 36.8h-22.5c-1.34 0-2.5 1.06-2.5 2.4v74.7l-76-77.1h-18.5c-1.33 0-2.4 1.07-2.4 2.4v11c0 1.27.51 2.59 1.4 3.5l102 103.9h18.5c1.2 0 2.4-1.28 2.4-2.5v-115.9c0-1.21-1.2-2.4-2.4-2.4zm-119.5 120.8h22.6c1.33 0 2.4-1.17 2.4-2.5v-53.1c0-.64-.25-1.25-.7-1.7l-26.7-27.2v82c0 1.12 1.06 2.5 2.4 2.5z"/><path d="m746.9 59.7c-1.55 0-2.8-1.25-2.8-2.8v-17.3c0-1.55 1.25-2.9 2.8-2.9h114.5c1.55 0 2.8 1.35 2.8 2.9v17.3c0 1.55-1.25 2.8-2.8 2.8h-43.5v95.4c0 1.33-1.06 2.4-2.4 2.4h-22.63c-1.33 0-2.37-1.07-2.37-2.4v-95.4z"/><path d="m339.3 110.6h21.8c1.6 0 2.77 1.54 2.4 3.1-6.9 29.46-27.63 45.9-61 45.9-36.48 0-65.1-25.25-65.1-62.5 0-37.04 28.62-62.4 65.1-62.4 37.54 0 56.09 24.58 61.6 47.7.37 1.56-.8 3.1-2.4 3.1h-21.9c-1.09 0-1.97-.76-2.3-1.8-5.03-15.97-18.49-26-35-26-20.76 0-37.7 15.85-37.7 39.4 0 23.35 16.13 39.5 37.7 39.5 17.13 0 29.34-10.06 34.4-24.3.35-1 1.34-1.7 2.4-1.7z"/><path d="m910.3 39.2c0-1.33 1.07-2.4 2.4-2.4h56c29.43 0 50.5 15.83 50.5 42.2 0 18.32-11.17 30.66-27.3 36.3v.4s3.68 3.77 6.5 8l20.3 29.8c1.01 1.41 1.3 2.2 1.3 2.6 0 .81-.49 1.5-1.7 1.5h-26.8c-1.01 0-2.39-.89-3.2-2.1l-24.6-35.8h-26v35.4c0 1.33-1.07 2.5-2.4 2.5h-22.6c-1.33 0-2.4-1.17-2.4-2.5zm27.4 20.5v38.1l29.2.1c15.12.05 24.8-7.02 24.8-18.9s-9.68-19.3-24.8-19.3z"/><path d="m887.2 490c-73.22 0-132.8-59.58-132.8-132.8s59.58-132.8 132.8-132.8 132.8 59.58 132.8 132.8-59.58 132.8-132.8 132.8zm0-257.1c-68.56 0-124.3 55.74-124.3 124.3s55.74 124.3 124.3 124.3 124.3-55.74 124.3-124.3-55.74-124.3-124.3-124.3z"/><path d="m832.6 279.8c-2.26 1.59-4.31.95-5.3-.5l-3.9-5.7c-.98-1.43-.96-3.41 1.3-5s4.19-1.04 5.2.4l4 5.7c1 1.42.96 3.51-1.3 5.1zm2.1 3.1c4.08-2.87 5.03-6.86 2.4-10.7l-3.7-5.4c-2.63-3.84-6.84-4.15-10.9-1.3-4.05 2.85-5.12 6.91-2.4 10.7l3.8 5.3c2.72 3.79 6.75 4.25 10.8 1.4zm11.21-7.51 3.79-1.59-3.3-7.6 7.4-3.1-1.4-3.2-7.3 3.2-2-4.7 8.6-3.7-1.4-3.3-12.5 5.3 8.09 18.71zm16.88-6.59 4.01-.8-1.6-8.1 7.8-1.6-.7-3.3-7.8 1.6-1-5 9.2-1.9-.8-3.6-13.2 2.8 4.11 19.9zm17.91-2.9 4.1-.2-.9-20.3-4.2.2zm25.7-5.3v-.3l-4.1-.5v.3c-.28 2.46-2.2 3.11-4.1 2.9-2.42-.27-3.42-1.61-3.2-3.6l.8-7.1c.23-2.01 1.58-3.08 4-2.8 1.87.21 3.58 1.31 3.3 3.7l-.1.3 4.1.5.1-.3c.58-5.01-2.72-7.54-6.7-8-5.14-.6-8.23 1.79-8.8 6.4l-.8 6.5c-.57 4.59 1.93 7.68 6.5 8.2s8.43-1.19 9-6.2zm4 8.1 3.9 1.1 5.6-19.6-3.9-1.1zm8.2 2.11 3.5 1.69 3.6-3.6 6.2 3-.6 5 3.7 1.8.6-1.3 1.9-20.2-3.7-1.7-14.6 14.1-.6 1.19zm9.61-4.51 4.99-5-.9 7-4.11-1.99zm21.09 23.3 2.2-2.9-7.4-5.7 10.3-13.3-3.3-2.5-12.5 16.1zm14.2 9.6c1.85 2.44 4.31 2.87 6.91.89 2.6-1.99 2.73-4.45.89-6.89-1.85-2.42-4.29-2.91-6.9-.96-2.61 1.96-2.75 4.53-.9 6.96zm18 29.6.3-.1-1.5-3.9-.3.1c-2.3.9-3.81-.43-4.5-2.2-.89-2.28-.17-3.77 1.7-4.5l6.7-2.6c1.88-.73 3.51-.16 4.4 2.1.69 1.77.44 3.81-1.8 4.7l-.2.1 1.5 3.8.2-.1c4.69-1.83 5.36-5.85 3.9-9.6-1.88-4.82-5.5-6.49-9.8-4.8l-6.1 2.4c-4.31 1.7-5.68 5.6-4 9.9s4.8 6.55 9.5 4.7zm-.5 14.5c-.4-2.74.99-4.15 2.7-4.4l6.9-1c1.74-.25 3.5.76 3.9 3.5s-.96 4.15-2.7 4.4l-6.9 1c-1.74.25-3.5-.76-3.9-3.5zm-3.8.6c.72 4.93 3.9 7.71 8.5 7l6.5-1c4.61-.71 6.83-4.17 6.1-9.1-.72-4.89-3.88-7.71-8.5-7l-6.5 1c-4.61.71-6.82 4.2-6.1 9.1zm13.4 29.2-13-1.4-.4 4 20.3 2.1.4-3.9-8.4-6.2 9.5-4.5.4-3.9-20.3-2.1-.4 4 12.9 1.3-7 3.3-.3 2.6zm-16.4 12.1 7.1 2.5-1.6 4.7c-1.18 3.47.42 6.4 4.1 7.7 3.71 1.31 6.79.06 8-3.4l3-8.6-19.2-6.8zm15.9 5.6-1.5 3.9c-.44 1.15-1.57 2.06-3.4 1.4-1.86-.67-2.32-2.05-1.9-3.2l1.4-4zm-28.7 20.2 3.1 1.9 4.8-7.9 4.2 2.6-4.1 6.6 3 1.8 4-6.6 4.2 2.5-4.8 7.8 3.1 1.9 6.9-11.4-17.4-10.6zm-6.2 7.2-2.8 3 12.2 11.5-3.9 4.2 2.6 2.5 10.7-11.4-2.6-2.4-4 4.1zm-10.3 9.8-3.2 2.6 12.5 16.1 3.2-2.6zm-15.3 10.1 8.2 14.7-5 2.8 1.7 3.1 13.6-7.5-1.7-3.2-5 2.8-8.2-14.7zm-9.1 4.2-3.9 1.4 7 19.1 3.9-1.4zm-16.2 8c2.72-.5 4.18.89 4.5 2.6l1.3 6.9c.32 1.71-.69 3.5-3.4 4-2.72.51-4.2-.88-4.5-2.6l-1.2-6.8c-.31-1.73.57-3.6 3.3-4.1zm-.7-3.7c-4.89.89-7.56 4.12-6.7 8.7l1.2 6.4c.86 4.58 4.4 6.69 9.3 5.8 4.86-.89 7.56-4.12 6.7-8.7l-1.2-6.4c-.86-4.58-4.42-6.69-9.3-5.8zm-13.2 2.2-4.1-.2-.7 12.7-7.1-13.1-3.8-.2-1.1 20.3 4.1.3.7-12.7 7.1 13.1 3.8.2zm-41.2 1.7c-1.07 3.06.12 5.28 3 6.3 2.9 1.01 5.23.08 6.3-3s-.11-5.29-3-6.3-5.23-.06-6.3 3zm-12.3-17.1-4.4 6.2-4.1-2.9c-3-2.12-6.16-1.29-8.4 1.9-2.26 3.21-1.89 6.46 1.1 8.6l7.4 5.3 11.7-16.7zm-6.5 9.2-3.2 4.6-3.4-2.5c-.98-.72-1.52-2.01-.4-3.6 1.14-1.62 2.59-1.6 3.6-.9zm-8.7-21.7-5.7 5.2-2.1-2.4 2.8-8.3-2.7-2.9-1 .9-2.5 7.3c-2.09-.82-4.46-.44-6.6 1.5-2.94 2.66-3.27 5.8-.5 8.9l5.9 6.6 15.2-13.7zm-8.2 7.49-4.2 3.81-2.6-3c-1.18-1.36-1.42-2.54.1-3.9 1.54-1.38 2.77-1.12 4 .2l2.7 2.91zm-8.9-24.99c1.35 2.41.52 4.25-1 5.1l-6.1 3.4c-1.53.86-3.55.62-4.9-1.8s-.52-4.35 1-5.2l6.1-3.4c1.53-.85 3.55-.53 4.9 1.9zm3.3-1.9c-2.44-4.35-6.32-5.79-10.4-3.5l-5.7 3.2c-4.07 2.28-4.93 6.36-2.5 10.7 2.42 4.32 6.32 5.79 10.4 3.5l5.7-3.2c4.06-2.28 4.92-6.39 2.5-10.7zm-10.99-14.7-12.61 3.6-.9-3.1c-.74-2.55.32-4.32 2-4.8l6.3-1.8c1.67-.48 3.59.34 4.3 2.9l.89 3.2zm2.59-4.2c-1.35-4.79-4.65-7.01-9-5.8l-6.1 1.7c-4.34 1.21-5.91 5.04-4.5 9.8l2.1 7.1 19.5-5.7zm-10.2-24c1.63-.08 3.26.92 3.4 3.5.14 2.62-1.38 3.82-3 3.9l-13.9.7.3 4.2 13.6-.7c4.52-.23 6.95-3.5 6.7-8.3s-2.98-7.73-7.5-7.5l-13.7.7.2 4.2zm2.7-26.1-.3-.1-.7 4.1.3.1c2.44.43 3.02 2.34 2.7 4.2-.42 2.41-1.91 3.34-3.9 3l-7-1.2c-1.98-.34-3.02-1.78-2.6-4.2.32-1.86 1.52-3.41 3.9-3h.3l.7-4-.3-.1c-4.95-.86-7.61 2.24-8.3 6.2-.89 5.1 1.25 8.43 5.8 9.2l6.5 1.1c4.57.77 7.8-1.67 8.6-6.2s-.73-8.24-5.7-9.1zm9.79-7.8 1.61-3.8-15.6-6.3 2.1-5.3-3.3-1.4-5.8 14.5 3.3 1.3 2.2-5.3 15.51 6.3zm9.11-25.4c1.85-2.44 1.68-5.02-.91-6.96-2.6-1.94-5.14-1.47-6.99.96-1.85 2.44-1.6 4.9 1.01 6.91 2.6 2.01 5.05 1.54 6.89-.91z"/><path d="m887.2 436.3c-43.6 0-79.1-35.49-79.1-79.1s35.5-79.1 79.1-79.1c43.61 0 79.1 35.49 79.1 79.1s-35.49 79.1-79.1 79.1zm0-149.7c-38.94 0-70.6 31.66-70.6 70.6s31.66 70.6 70.6 70.6 70.6-31.66 70.6-70.6-31.66-70.6-70.6-70.6z"/><path d="m900.9 333.9-51.2-.4 2.5-4.2 51.1.4z"/><path d="m895.9 342.4-51-.4 2.4-4.2 51 .4z"/><path d="m891 351-51-.6 2.4-4.2 51 .4z"/><path d="m937.1 359.9-102.2-1 2.5-4.2 102.1.8z"/><path d="m932.2 368.3-51.1-.4 2.4-4.2 51.1.4z"/><path d="m927.2 376.8-51.1-.4 2.5-4.2 51 .4z"/><path d="m922.3 385.3-51-.5 2.4-4.2 51 .4z"/><use mask="url(#b)" xlink:href="#a"/><path d="m36.1 474.3h4.1l3.3-9.5 3.3 9.5h4l4.3-19.8v-1.4h-4.1l-2.8 14.4-3.3-9.3h-2.7l-3.2 9.2-3-14.3h-4.1v1.4z"/><path id="c" d="m69.8 470.8c-2.88 0-4.2-1.69-4.2-3.5v-7.2c0-1.81 1.28-3.5 4.2-3.5 2.88 0 4.2 1.69 4.2 3.5v7.2c0 1.84-1.32 3.5-4.2 3.5zm0 4c5.18 0 8.5-2.85 8.5-7.7v-6.8c0-4.85-3.29-7.6-8.5-7.6-5.18 0-8.5 2.75-8.5 7.6v6.8c0 4.85 3.35 7.7 8.5 7.7z"/><path id="d" d="m85.9 474.3h4.3v-8h3.2l4.5 8h4.2v-1.4l-3.9-7c2.11-1.03 3.5-3.2 3.5-6.2 0-4.14-2.23-6.6-6.6-6.6h-9.2zm4.3-11.6v-5.8h4.1c1.88 0 3 .77 3 2.9 0 2.16-1.12 2.9-3 2.9z"/><path d="m109.2 474.3h14.1v-3.7h-9.7v-17.5h-4.4z"/><path d="m134.2 470.6v-13.7h3.4c2.75 0 4.2 1.59 4.2 3.4v6.9c0 1.81-1.41 3.4-4.2 3.4zm-4.3 3.7h7.7c5.18 0 8.5-2.61 8.5-7.3v-6.6c0-4.69-3.29-7.3-8.5-7.3h-7.7z"/><path id="e" d="m172.2 474.8c5.51 0 8.3-2.78 8.3-6.5 0-3.88-3.51-5.11-7.3-6.5l-.8-.3c-2.04-.74-3.6-1.12-3.6-2.7 0-1.36 1.36-2.2 3.5-2.2 1.94 0 3.7.78 3.7 3.2h4.3c0-5.14-3.4-7.2-8-7.2-4.89 0-7.9 2.55-7.9 6.4 0 3.62 3.01 5.07 5.7 6.1l.9.3c3.21 1.23 4.9 1.58 4.9 3.1 0 1.33-1.23 2.3-3.5 2.3-1.75 0-4.2-.65-4.2-3.4h-4.3c.03 4.91 3.73 7.4 8.3 7.4z"/><path id="f" d="m187.85 474.3h13.9v-3.7h-9.6v-5.1h8.1v-3.6h-8.1v-5.1h9.6v-3.7h-13.9z"/><use transform="translate(122.8)" xlink:href="#d"/><path id="g" d="m232.15 474.3h4.3v-21.2h-4.3z"/><use transform="translate(56.6)" xlink:href="#f"/><use transform="translate(100.6)" xlink:href="#e"/><use transform="translate(238.1)" xlink:href="#c"/><path id="h" d="m323.85 474.3h4.3v-8.5h8.3v-3.6h-8.3v-5.3h9.8v-3.8h-14.1z"/><use transform="translate(32.4)" xlink:href="#h"/><use transform="translate(145.1)" xlink:href="#g"/><path d="m394.2 474.3h4.3v-17.4h6v-3.8h-16.3v3.8h6z"/><path id="i" d="m411.1 474.3h4.3v-13.2l8.2 13.2h3.9v-21.2h-4.3v13.2l-8.1-13.2h-4z"/><use transform="translate(247.7)" xlink:href="#f"/><use transform="translate(291.8)" xlink:href="#e"/><use transform="translate(315)" xlink:href="#e"/><use transform="translate(428.5)" xlink:href="#d"/><path d="m536.8 474.3h4l1.7-4.9h7.3l1.7 4.9h4.2v-1.4l-7.3-19.8h-4.3l-7.3 19.8zm7-8.5 2.4-6.9 2.3 6.9z"/><path d="m569.8 474.8c4.18 0 7.9-2.27 7.9-7.5v-.2h-4.3v.2c0 2.58-1.82 3.5-3.8 3.5-2.56 0-3.8-1.3-3.8-3.4v-7.4c0-2.1 1.27-3.4 3.8-3.4 1.98 0 3.59.99 3.8 3.5v.3h4.3v-.3c0-5.22-3.69-7.5-7.9-7.5-5.41 0-8.3 2.88-8.3 7.7v6.9c0 4.82 2.89 7.6 8.3 7.6z"/><use transform="translate(352.9)" xlink:href="#g"/><use transform="translate(186.1)" xlink:href="#i"/><path d="m629 474.78c2.01.07 3.94-.73 5.3-2.18l1.2 1.7h2.2v-11.4h-8v3.5h3.7v2.3c-.94 1.33-2.48 2.1-4.1 2.1-2.49 0-3.8-1.27-3.8-3.6v-7.1c0-2.16 1.25-3.5 3.9-3.5 2.36 0 4 1.24 4 3.4h4.3c0-4.85-3.5-7.4-8.1-7.4-5.34 0-8.5 2.79-8.5 7.6v6.9c.03 4.75 3.01 7.68 7.9 7.68z"/></g></g></svg>