<svg viewBox="0 0 606 100" xmlns="http://www.w3.org/2000/svg"><g id="figure" fill="#fff"><path d="m88.5 98c-13.71-.05-33.03-8.5-50.9-23.5-4.97-4.17-9.55-8.47-13.5-12.9-9.54 12.9-13.9 23.6-10.3 27.2 3.02 3.02 10.99.35 21.1-6.2.6-.39 1.39-.31 1.9.2.68.68.62 1.86-.2 2.4-14.91 9.86-27.44 13.67-32.4 8.7-1.47-1.47-2.2-3.62-2.2-6.3 0-7.76 5.96-20.02 16.1-33.4-12.32-16.48-16.63-32.7-9.5-41.2 6.29-7.5 20.02-7.2 35.8-.7.66.27.84 1.05.6 1.6-.23.52-.86.84-1.5.6-11.08-4.09-20.25-4.06-24.5 1-4.95 5.9-1.99 17.25 6.6 29.5 2.9-3.33 6.08-6.68 9.4-10 20.1-20.1 41.27-33 52.7-33 2.67 0 4.73.73 6.2 2.2 8.05 8.05.47 24.64-15.8 42.4-.61.67-1.67.63-2.3 0-.56-.56-.59-1.48-.1-2.1 11.4-14.46 17.02-26.78 13.1-30.7-5.36-5.36-26.5 7.09-47.2 27.8-3.64 3.64-7.02 7.22-10.1 10.8 3.87 4.49 8.4 9.02 13.5 13.3 22.07 18.52 46.17 26.02 53.9 16.8 4.41-5.26 2.53-14.81-4-25.5-.25-.41-.23-.9.1-1.3.49-.59 1.47-.55 1.9.1 6.23 9.49 9.7 18.62 9.7 26 0 8.48-5.02 16.25-18.1 16.2z"/><path d="m198.2 62.1h13c.96 0 1.62.87 1.4 1.8-4.12 17.6-16.4 27.4-36.3 27.4-21.76 0-38.9-15.05-38.9-37.3 0-22.12 17.14-37.2 38.9-37.2 22.39 0 33.42 14.59 36.7 28.4.22.93-.44 1.9-1.4 1.9h-13.1c-.65 0-1.21-.48-1.4-1.1-3-9.54-10.96-15.5-20.8-15.5-12.38 0-22.5 9.43-22.5 23.5 0 13.95 9.63 23.6 22.5 23.6 10.12 0 17.46-5.92 20.5-14.5.21-.59.77-1 1.4-1z"/><path d="m261.5 60.1v16.3h42.3c.93 0 1.7.77 1.7 1.7v10.3c0 .93-.77 1.7-1.7 1.7h-57.2c-.79 0-1.4-.61-1.4-1.4v-69.3c0-.79.61-1.4 1.4-1.4h56.5c.93 0 1.7.77 1.7 1.7v10.3c0 .93-.77 1.7-1.7 1.7h-41.6v14.7h38c.93 0 1.7.67 1.7 1.6v10.4c0 .93-.77 1.7-1.7 1.7z"/><path d="m410.6 18h-13.4c-.8 0-1.5.6-1.5 1.4v44.7l-45.3-46.1h-11.1c-.79 0-1.4.61-1.4 1.4v6.6c0 .76.27 1.56.8 2.1l60.9 62h11c.71 0 1.5-.67 1.5-1.4v-69.3c0-.72-.79-1.4-1.5-1.4zm-71.3 72.1h13.5c.79 0 1.4-.61 1.4-1.4v-31.8c0-.38-.13-.73-.4-1l-15.9-16.2v49c0 .4.6 1.4 1.4 1.4z"/><path d="m441.1 31.7c-.93 0-1.6-.77-1.6-1.7v-10.3c0-.93.67-1.7 1.6-1.7h68.3c.93 0 1.7.77 1.7 1.7v10.3c0 .93-.77 1.7-1.7 1.7h-25.9v57c0 .79-.7 1.4-1.5 1.4h-13.4c-.79 0-1.5-.61-1.5-1.4v-57z"/><path d="m538.5 19.4c0-.79.71-1.4 1.5-1.4h33.4c17.55 0 30.1 9.55 30.1 25.3 0 10.94-6.68 18.23-16.3 21.6v.2s2.22 2.27 3.9 4.8l12.1 17.8c.58.86.8 1.36.8 1.6 0 .48-.28.8-1 .8h-16c-.6 0-1.41-.49-1.9-1.2l-14.7-21.4h-15.5v21.2c0 .79-.71 1.4-1.5 1.4h-13.4c-.79 0-1.5-.61-1.5-1.4zm16.4 12.3v22.8h17.4c9.02 0 14.8-4.21 14.8-11.3s-5.78-11.5-14.8-11.5z"/></g></svg>