<svg viewBox="0 0 415 100" xmlns="http://www.w3.org/2000/svg" xmlns:xlink="http://www.w3.org/1999/xlink"><g transform="scale(.1)"><g fill="#57b235"><path d="m4130 878.4h-1643.4v-24.4h1643.4z"/><path d="m390.7 703c-19.7 21.8-19.8 45.9 5.8 69 11.5 10.4 20.6 16.2 30.6 19.3l81-89.5 124.1 112.2-150.1 166c-49.7-19.5-109.6-53.1-164.5-102.8-57.5-52.1-77.5-96.9-85.9-131.2-34.5-6.8-93.7-31.2-146.1-78.6-44.3-40.1-65.6-84-65.6-127.4 0-36 15.6-71.6 45.5-104.6l66.5-73.7 124 112.1-53.3 59c-19.6 21.7-19.6 46.1 5.9 69.2 10.2 9.3 20.5 16.4 30.4 19.5l81-89.7 124 112.2z"/><path d="m2917.7 130.4-72.3 262.5c-9.9 36.1-17.2 80.5-17.2 80.5h-1.7s-7.3-44.4-17.2-80.5l-72.2-262.8h-181.5l-69 594.5h151.1l26.3-306.2c3.5-41 5.7-88.7 5.7-88.7h1.7s8.6 46.6 20.5 88.4l87.1 306.5h96.8l87.1-306.2c11.9-41.8 20.5-88.7 20.5-88.7h1.6s2.3 47.7 5.8 88.7l26.3 306.2h150.7l-68.6-594.5z"/><path d="m3448.8 656.6-19.7-30.9c-5 .3-10.4.4-15.6.4-37.8 0-64.9-14.8-64.9-45.2 0-38.6 36.2-47.5 100.2-50zm-224.2-352.4 37.8 105.1c33.7-13.1 84.6-26.3 128.1-26.3 40.3 0 58.3 14.8 58.3 38.6v11.5c-133 8.2-248 37.8-248 152 0 97.7 82.7 150.2 228.9 150.2 74.7 0 134-15.5 168.5-32.8v-260.3c0-121.5-59.1-170.8-188-170.8-73.9 0-144.5 17.2-185.6 32.8z"/><path d="m3980.6 495.5 136.3-213.5h-179l-55.8 114.2h-1.7l-55.8-114.2h-179l136.3 213.5-149.5 229.1h183.2l64.8-123.1h1.7l64.8 123.1h183.1z"/></g><g fill="#55595f"><path id="a" d="m2489.8 794.1h17.7c8.2 0 12.4-1.7 12.4-7.3s-4.2-7.4-12.4-7.4h-17.7zm-5-19.1h24c8.3 0 15.9 2.5 15.9 11.8 0 9.4-7.6 11.7-15.9 11.7h-19v17.5h-5z"/><path id="b" d="m2541.1 775h36.5v4.4h-31.6v13.1h26.4v4.4h-26.4v14.7h32.2v4.4h-37.1z"/><path id="c" d="m2599.2 793.5h17.6c7.2 0 12.5-1.1 12.5-7.1s-5.3-7-12.5-7h-17.6zm-5-18.5h23.7c6.5 0 16.1 1.5 16.1 11.5 0 8.5-8 11-12.9 11.2l13.5 18.3h-6.1l-13.2-18.2h-16.1v18.2h-5z"/><path d="m2653.7 775h37.4v4.4h-32.5v13h27.4v4.4h-27.4v19.2h-4.9z"/><path id="d" d="m2747 794.9c0-9.1-7.1-16.7-19-16.7s-18.9 7.6-18.9 16.7c0 12.4 8.8 17.7 18.9 17.7 10 0 19-5.3 19-17.7zm5.1.9c0 14.5-12.3 21.2-24.1 21.2s-23.9-6.7-23.9-21.2c0-13.6 10-21.8 23.9-21.8s24.1 8.2 24.1 21.8z"/><use transform="translate(175.1)" xlink:href="#c"/><path id="e" d="m2828.7 775h7.7l15.2 34.5 15.1-34.5h7.7v41h-4.6v-36.6h-.1l-16 36.6h-4.1l-16.2-36.6h-.1v36.6h-4.6z"/><path d="m2925.1 801-11-22.1-11 22.1zm-14-26h6.1l21 41h-5.6l-5.3-10.7h-26.4l-5.4 10.7h-5.5z"/><path d="m2953.8 775h7.1l30.5 33.7v-33.7h4.9v41h-4.9l-32.8-36.6v36.6h-4.8z"/><path id="f" d="m3058.9 805.1c-4.4 8.5-11.9 11.9-21.9 11.9-15.9 0-23.4-9.5-23.4-21.4 0-14.1 9.5-21.6 23.3-21.6 8.8 0 17.7 3.4 21.4 11.7l-4.3 2c-2.9-6.7-9.2-9.5-17-9.5-11.7 0-18.3 6.3-18.3 18 0 9.4 6.3 16.4 18.7 16.4 8.1 0 13.8-3.4 17.2-9.6z"/><use transform="translate(534.7)" xlink:href="#b"/><path d="m3153.9 775h5.3l9.7 33.3h.1l10.1-33.3h4.7l10.1 33.1h.1l9.9-33.1h5.1l-12.7 41h-4.7l-10-33.4h-.1l-10 33.4h-4.8z"/><path d="m3224.3 775h5v41h-5z"/><path id="g" d="m3265 779.4h-19.8v-4.4h44.5v4.4h-19.8v36.6h-4.9z"/><path d="m3305.7 775h5.1l-.1 17.4h32.2v-17.4h5v41h-5v-19.2h-32.2v19.2h-5z"/><use transform="translate(661.3)" xlink:href="#d"/><path d="m3472.9 799.2c0 14.8-11.6 17.8-21.1 17.8s-21-3-21-17.8v-24.2h4.9v24.2c0 9.4 6 13.6 16.1 13.6s16.2-4.2 16.2-13.6v-24.2h4.9z"/><use transform="translate(243.8)" xlink:href="#g"/><use transform="translate(562.7)" xlink:href="#f"/><use transform="translate(931.6)" xlink:href="#d"/><use transform="translate(872.2)" xlink:href="#e"/><use transform="translate(1281.8)" xlink:href="#a"/><use transform="translate(1228.7)" xlink:href="#c"/><use transform="translate(1175.4)" xlink:href="#d"/><use transform="translate(1116)" xlink:href="#e"/><path d="m4010.5 775h4.9v41h-4.9z"/><path d="m4035.9 804.3c2.4 3.1 6.3 8.3 18.6 8.3 6.3 0 14.9-1.7 14.9-8.1 0-12.4-35.7-1.6-35.7-18.2 0-8.7 8-12.3 19.2-12.3 10.8 0 17.5 4.5 20.3 8.4l-3.6 3c-1.7-1.9-5.6-7.2-16.8-7.2-8.2 0-14 2.1-14 7.3 0 12.4 35.7.6 35.7 19 0 6.9-6.7 12.5-20.6 12.5-13.4 0-18.3-5.6-21.8-9.5z"/><use transform="translate(1550.6)" xlink:href="#b"/><path d="m522.5 687.6 199.5-220.6c19.7-21.8 19.6-46.2-6-69.4-10.2-9.2-20.2-16-30.1-19.2l-227.4 251.4-124.1-112.2 199.6-220.7c19.6-21.8 19.6-46.2-6-69.3-11.5-10.4-20.3-16.1-30.2-19.3l-227.4 251.4-124-112.2 296.1-327.5c49.9 19.5 109.6 52.5 164.5 102.2 57.6 52.1 77.5 96.9 86 131.3 34.4 6.8 93.8 31.3 146.2 78.7 81.3 73.5 86.1 159.2 20.2 232.2l-212.8 235.5z"/><path d="m1157.3 630.4h47.8c59.3 0 90.6-34.6 90.6-86.5 0-56.8-39.7-84.9-99-84.9h-39.4zm0-265.2h39.4c51.1 0 85-29.8 85-70.2 0-43.7-25.5-71.5-79-71.5h-45.4zm-113.6-235.6h159.8c121.9 0 191.9 51.1 191.9 153.2 0 51.9-25.5 94.8-73.3 123.6 62.6 39.5 87.3 72.5 87.3 146.6 0 117.8-79 171.3-199.3 171.3h-166.4z"/><path d="m1668.1 589.2c0 34.6-24.8 52.8-61 52.8s-60.9-18.2-60.9-52.8l.1-230.6h62.8c35.2 0 59 18.7 59 52.7zm-225.7-151.5v125.2c0 118.6 60.9 169.7 164.7 169.7s164.8-51.1 164.8-169.7v-125.2c0-118.6-61-169.7-164.8-169.7s-164.7 51.1-164.7 169.7z"/><path d="m2022.4 615.3c-20.6 22.2-41 31.9-64.1 31.9-28 0-70.5-10.2-70.4-99.2l.1-95.5c.1-88.9 40.4-102.5 68.4-102.5h66zm-.1-485.7v138.4h-103.8c-80.7 0-113.7 62.6-113.7 177.9v108.7c0 115.3 33 178 113.7 178 41.3 0 82.6-5.3 103.8-31.2v31.2h103.8v-603z"/><path d="m2176.4 790.2c9.9 1.7 19.7 1.7 30.4 1.7 45.3 0 75-39.6 75-59.4 0-26.4-8-56.9-18.9-94.7l-103.8-361.6h105.4l70 296.6h1.7l65.1-296.6h105.4l-119.5 446.5c-32.4 121-74.1 159.8-177.9 159.8-9.9 0-21.4-.9-32.9-1.7z"/></g></g></svg>