<svg viewBox="0 0 250 100" xmlns="http://www.w3.org/2000/svg" xmlns:xlink="http://www.w3.org/1999/xlink"><clipPath id="a"><path d="m171.5 980c-83.3 0-151.5-68.2-151.5-151.5v-657c0-83.3 68.2-151.5 151.5-151.5h564.5c83.3 0 151.5 68.2 151.5 151.5v657c0 83.3-68.2 151.5-151.5 151.5z"/></clipPath><g transform="scale(.1)"><path fill="#95c11f" clip-path="url(#a)" d="m174 272c13.4-2.4 16.9 11.6 22.3 20.8 24.3 41.9 46 85 67.5 138.2 44-95.8 94.3-178.6 151.3-257.3 5.8-8.1 10.9-16.8 17.7-24 7.8-8.3 15.3-22.2 29.6-10.4 12.9 10.6 4.5 22.1-1.8 32.4-51.4 75.9-101.2 153.2-138.8 237-24 56-16.7 93.4 29.7 132.8 49.9 42.4 105.4 76.9 162.2 109 24.5 13.9 26.4 29.2 13.2 51-12.4 20.4-26 32-50.5 15.4-69.2-46.8-146.5-82.6-202.7-151.8-11.5 44.4-21.2 90.5-48.4 128.4-4.6 6.3-11.2 11.9-19.7 6.1-7.8-5.3-6.5-12.3-3.4-20.4 9.4-24.7 18.6-49.6 26.5-74.8 20.7-65.9 3.7-126.4-27.7-184.7-15.7-29.2-31-58.6-46.6-87.8-5.3-10-9.6-20.1-5.7-31.6 4.4-13 11.4-25.8 25.3-28.3zm116.7-117.8c12.9-1.1 19.5 12.4 17.6 23.9-4.6 27.8-15.6 52.8-40.7 68.8-9.1 5.8-19.6 8.4-25.6-3.2-14.6-28 18.5-86.9 48.7-89.5zm385.8-48.9c15.6 3.5 12.2 16.3 11.1 26.8-2.7 25.1-28.3 55.4-43.5 51.8-12.5-2.9-12.9-13.1-11.8-23.5 2.9-26.8 28-58.7 44.2-55.1zm74.9 460.6c13.9-20 17.5-29.2-6.1-41.5-32.2-16.7-57.8-42.7-85.8-71.4-9.1 34.4-15.1 65.8-31.1 93.4-5.8 10-10.6 26.1-25.6 18.7-14.7-7.2-3-19.6 1.2-28.6 37.7-79.9 29.8-156.2-16.5-230.2-11.7-18.6-21.2-38.6-31.4-58.2-10.5-20.1-1.1-36 15.6-44.1 17.7-8.5 20.2 11.5 25.6 21.5 18.8 34.7 36.4 70.1 55.7 107.6 37.4-78.4 84.8-162.5 138.7-230.8 7.1-9.1 14.6-23.3 28.5-13.1-2.5 10.4-3.9 21.2-4.5 31.9-38.2 58.1-76.5 116-106.5 179-33.3 69.8-26.6 97.9 34.1 144.7 46.7 36 60.9 46.3 77.9 16.5 29.6-52 49.9-100.1 66.3-159l-.5-282.3h-867v730.1c4.3 20.9 40.1 168.3 190.8 168.6 222.6.4 509.7-308.4 540.6-352.8z"/><g fill="#878787"><path clip-path="url(#a)" d="m862.3 492.8c-10.9 14.2-15.8 24.7 5.8 34.3 21.7 9.6 14.9 26.8 6.3 41.9-9 16-21.7 27.4-39.7 12.2-19.2-16.1-30.1-10.1-45.5 7.3-249.6 283.3-597.2 403.9-746.7 318.9v72.6h845v-527.1c-7.6 13.7-15.7 27.2-25.2 39.9z"/><path d="m1269.8 494h-168.6v106.3h199.1v82.5h-306.3v-444.7h307v82.8h-199.8v93.7h168.6z"/><path d="m1699.2 320.9h-133.4v361.9h-107.2v-361.9h-131.1v-82.8h371.7z"/><path d="m1801.4 517h95.6l-48-154.3zm121.2 82.7h-146.9l-25.7 83.1h-114.5l163.1-444.7h100.8l164.3 444.7h-115.1z"/><path d="m2480 682.8h-106.6l-157.6-276.7v276.7h-107.2v-444.7h107.2l157.3 276.7v-276.7h106.9z"/><path d="m1063.2 807.3h-47.9v50.4h-15v-114.1h70.6v12.3h-55.6v39.1h47.9z"/><path id="b" d="m1166 743.6v77.7c0 22.4-15.8 38-41.4 38-24.9 0-41.2-14.4-41.2-38v-77.7h14.9v77.3c0 8.4 2.9 26.1 26.3 26.1 18.5 0 26.3-11.1 26.3-26.1v-77.3z"/><path id="c" d="m1274.2 857.7h-15.1l-57.4-87.9v87.9h-15.2v-114.1h15.2l57.6 88.3-.1-88.3h15z"/><path d="m1369 800.9 29.8-57.3h17.1l-39.3 71.5v42.6h-15.1v-42.5l-39.3-71.6h17.2z"/><path d="m1467.1 742.1c-27.4 0-46 21.3-46 55v8.2c0 30.3 17 54 46 54s46-23.7 46-54v-8.2c0-33.7-18.6-55-46-55zm0 12.9c29.2 0 31 33.1 31 40.9v8.4c0 26.5-11.8 42.2-31 42.2s-31-15.7-31-42.2v-8.4c0-7.8 1.8-40.9 31-40.9z"/><use transform="translate(446.4)" xlink:href="#b"/><path d="m1753.5 821.5c-2.8 23.8-18 37.7-43.3 37.7-26.7 0-44.5-20.2-44.5-53.2v-11c0-31.8 17.7-52.9 45.9-52.9 25.5 0 39.6 15.5 41.9 38.2h-15.1c-2.1-14.9-8.5-25.9-26.8-25.9-27.9 0-30.8 29.1-30.8 41v11c0 23.6 9.9 40.5 29.4 40.5 18.9 0 25.7-9.3 28.2-25.4z"/><path d="m1790.5 815.5h38.8l-19.4-53.3zm43.3 12.3h-47.8l-10.7 29.9h-15.6l43.6-114.1h13.2l43.6 114.1h-15.4z"/><use transform="translate(685.7)" xlink:href="#c"/><path id="d" d="m2095.6 755.9h-36.6v101.8h-15v-101.8h-36.6v-12.3h88.2z"/><path d="m2124.4 799.2h23.1c15.2 0 24.4-8.5 24.4-21.3 0-15.7-10.5-22-24.5-22h-23zm26.8 12.3h-26.8v46.2h-15.1v-114.1h37.7c15.8 0 40.1 4.8 40.1 34.3 0 19.7-14.8 27.7-21.8 30.4l26.8 48.4v1h-16.2z"/><use transform="translate(1119.2)" xlink:href="#b"/><path d="m2302.4 773.2c0-17.3 14.8-31.1 38.8-31.1 24.8 0 40.2 15.8 40.2 34.5h-15.1c0-20.4-18.4-22.2-25.1-22.2-15 0-23.6 7-23.6 18.5 0 10.1 8.8 15.7 26 20.6 23.2 6.5 38.1 15.6 38.1 35.2 0 18.2-15 30.5-39.7 30.5-21.8 0-43.2-12.3-43.2-34.6h15.1c0 14.1 11.3 22.3 28.1 22.3 7 0 24.5-1.6 24.5-18 0-10.5-5.6-15.9-27.1-22.1-23.1-6.7-37-16.3-37-33.6z"/><use transform="translate(381)" xlink:href="#d"/></g></g></svg>