<svg viewBox="0 0 431 100" xmlns="http://www.w3.org/2000/svg" xmlns:xlink="http://www.w3.org/1999/xlink"><g id="figure" fill="#fff"><path d="m44.33 2h66.28c1.44.04 1.8 2.25 1.24 3.22l-6.62 11.4c-.47.84-1.29 1.14-2.22 1.12-19.01.01-38 0-57.01 0-3.15.22-6.16 2.6-7.56 4.99l-13.9 23.96c-.94 1.14-.53 2.58 1.39 2.72h55.24c2.36.1 4.14 1.33 3.13 3.28l-6.62 11.4c-.38.65-1.06 1.08-1.83 1.06h-61.44c-7.19-.09-13.06-4.38-12.14-11.46.44-3.47 1.97-6.33 3.75-9.27l14.65-25.23c5.45-8.81 14.17-17.05 23.66-17.19z"/><path d="m122.58 2.3h20.03l-13.36 23.24 44.58-.29 13.35-22.95h20l-36.31 62.56h-20.03l13.89-23.93h-44.49l-13.85 23.93h-20.12z"/><path d="m218.61 2.3h20.11l-36.3 62.56h-20.15z"/><path d="m249.3 2.27-35.86 62.59h78.93c5.08-.29 9.92-2.7 13.82-5.91 5.13-4.22 8.68-10.27 10.16-16.72.57-2.78.73-6.07-.8-8.6 4.5-2.09 8.11-5.73 10.37-10.13 1.49-2.91 2.58-6.11 2.72-9.39-.06-6.79-5.05-11.84-11.17-11.84zm59.82 17.13c-.79 3.36-5.56 6.45-8.77 6.38h-44.54l4.93-8.48h45.22c1.72.02 3.52.43 3.16 2.1zm-13.23 26.29c-1.72 2.2-4.47 4.08-7.36 4.08h-46.43l4.76-8.33 47.53-.3c3.39-.07 3.67 1.58 1.51 4.55z"/><path d="m365.62 2.3h52.58c5.79.04 10.6 3.32 10.78 9.16.15 3.93-1.65 7.7-3.54 11.08l-24.55 42.24h-20l11.52-19.88h-36.57l8.63-15.04h36.69l5.55-9.54c1.02-1.91.46-2.95-1.8-2.95h-40.17c-4.44-.04-6.64 3.74-8.63 7l-23.46 40.4h-20.2l25.82-44.34c3.37-5.77 8.28-10.65 14.04-14.02 4.02-2.33 8.63-4 13.31-4.11z"/><path id="a" d="m2 80.57h15.66v2.81h-11.32v4.43h10.72v2.51h-10.72v4.79h11.37v2.89h-15.71z"/><path d="m26.22 80.57v17.43h4.43v-5.82h6.79c1.18.08 2.46.56 2.75 1.83.24 1.3.08 2.67.12 3.99h4.37c-.04-1.59.1-3.21-.06-4.79-.34-1.74-1.87-2.37-3.49-2.45 1.2-.44 2.79-.63 3.37-1.95.57-1.52.58-3.38.24-4.96-1.14-3.63-5.5-3.28-8.12-3.28zm10.93 8.71h-6.5v-5.91h5.73c2.52.07 3.97 0 4.02 2.72s-.75 3.13-3.25 3.19z"/><path id="b" d="m69.64 80.9c.9.22 1.9.58 2.36 1.45.63 1.08.73 2.23.77 3.46h-4.46c-.16-.82-.01-1.79-.95-2.07-2.67-.59-5.88-.65-8.3-.06-1.93.63-1.71 3.68-1.74 5.46.04 1.53-.19 3.34.44 4.76.37.8 1.34 1.02 2.13 1.15 1.97.28 3.99.28 5.97.06.81-.12 1.7-.3 2.13-1.09.38-.84.38-1.93.44-2.84h-5.79v-2.48h10.1c.06 2.27.46 5.22-.68 7.27-.93 1.7-3.19 1.74-4.87 2.04h-8.42c-3.24-.69-5.01-1.07-5.73-4.49-.37-2.1-.24-4.32-.12-6.44.26-3.1 1.02-5.55 4.27-6.23 4.16-.52 8.62-.73 12.45.05z"/><path id="c" d="m84.71 80.84c-1.39.32-2.89.69-3.57 2.1-.96 1.92-1.02 4.39-1.09 6.5.02 2.05.06 4.64 1.18 6.44.94 1.61 3.3 1.85 4.96 2.13h7.86c1.55-.24 3.81-.46 4.93-1.68 1.4-1.79 1.45-4.71 1.54-6.88-.02-2.22-.05-5.11-1.39-7-1.19-1.52-3.78-1.73-5.55-1.92-1.99-.17-6.14-.16-8.86.33zm8.92 2.66c.69.13 1.64.27 1.89 1.03.66 2.69.79 7.15-.06 9.45-.27.68-.95.87-1.6 1-2.24.4-4.57.32-6.82.06-.77-.16-1.85-.35-2.07-1.18-.58-2.96-.73-6.46.03-9.16.29-.97 1.37-1.09 2.22-1.24 2.19-.22 4.37-.22 6.41.03z"/><path d="m108.72 80.57h7.01c.38.04.57.34.82.65l8.98 13.88v-14.53h4.46v17.43h-7.44l-9.48-14.33v14.33h-4.34z"/><use transform="translate(58.1)" xlink:href="#c"/><path d="m166.74 80.54h7.18l6.32 12.79 6.06-12.79h7.27v17.46h-4.43l.28-14.5-7.18 14.5h-4.05l-7.17-14.5v14.5h-4.28z"/><path d="m202.8 80.57h4.43v17.43h-4.43z"/><path d="m228.86 80.47c1.5.12 3.51.28 4.69 1.33 1.19 1.12 1.31 3.06 1.31 4.59l-4.43.02c-.02-.93.06-2.39-.92-2.67-2.58-.59-5.74-.7-8.06.06-.74.27-.9.97-1.06 1.65-.35 1.95-.23 4.08-.12 6.06.07.84.14 1.74.44 2.54.27.64 1.05.84 1.65.97 1.97.36 4.07.3 6.06.09.76-.11 1.47-.29 1.92-.97.42-.66.36-1.64.36-2.39h4.43c.01 1.54-.09 3.37-1.03 4.67-.87 1.19-2.83 1.33-4.17 1.6h-8.15c-1.49-.22-3.75-.48-4.73-1.77-1.09-1.85-1.18-4.4-1.3-6.5-.01-2.12-.28-4.76.83-6.65.71-1.33 2.1-1.85 3.49-2.16 2.86-.57 5.9-.55 8.8-.46z"/><use transform="translate(203.3)" xlink:href="#b"/><path d="m284.48 80.54h4.34v14.44h10.72v3.02h-15.07z"/><use transform="translate(225.9)" xlink:href="#c"/><path d="m332.42 80.54h4.58l6.06 14.53 6.09-14.53h4.7l-7.37 17.46h-6.77z"/><use transform="translate(358.5)" xlink:href="#a"/><path d="m395.16 80.45c1.72.06 3.96.16 5.41 1.21 1.25 1.03 1.29 2.52 1.24 4.02h-4.25c-.16-.84-.13-2.03-.92-2.22-2.27-.42-5.08-.62-7.12.03-.79.29-1.06 1.01-1.06 1.8-.03.78.11 1.92 1.06 2.07 3.23.58 6.76.21 10.01 1 .8.24 1.75.56 2.19 1.33.64 1.02.71 2.4.65 3.57-.06 1.22-.36 2.68-1.3 3.54-1.03.83-2.66 1-3.93 1.18h-8.65c-1.29-.32-2.7-.44-3.63-1.51-.97-1.22-.91-2.55-1.03-4.02h4.34c.12.97-.07 2.19 1.03 2.63 2.04.62 6.3.88 8.15-.24.75-.66.79-2.03.56-2.92-.2-.9-1.09-1.04-1.86-1.15-2.91-.29-6.2-.16-9.1-.83-.96-.25-1.86-.51-2.36-1.45-.72-1.36-.74-3.15-.47-4.64.26-1.31 1.11-2.41 2.42-2.79 2.69-.82 5.83-.66 8.62-.64z"/></g></svg>