<svg viewBox="0 0 234 100" xmlns="http://www.w3.org/2000/svg"><g id="figure" fill="#ec1d24"><path d="m33 51.7 11.7-21.1v21.1zm11.5-49.7-42.5 77.7h15.9l6.5-12.1h20.3v12.1h15.3v-77.7z"/><path d="m66.5 79.7h15.8v-59.5h-15.8z"/><path d="m104 44.7v-12h7.8c3.2 0 6.1 2.4 6.1 6 0 3.1-2.3 6-6.1 6zm28.2-6c-.2-9.6-7.1-18.3-17-18.4h-26.3v59.4h15.1v-23.9l22.9 42.2h15.7s-22.8-41.6-22.7-41.6c4.1-1.2 12.3-6.4 12.3-17.7z"/><path d="m150 56.3h14.5v-12.6h-14.4v-10.9h14.5v-12.5h-29.3v59.5h29.2v-12.6h-14.5z"/><path d="m167.8 79.7h15.8l8.2-15.2 8.2 15.2h15.8l-16.1-29.5 16.2-30h-15.5l-8.6 15.7-18.4-33.9h-15.6l26.2 48.2z"/><path d="m229.6 21.9c1.1 1.1 1.6 2.4 1.6 4s-.5 2.9-1.6 4-2.4 1.6-4 1.6c-1.5 0-2.9-.5-4-1.6s-1.6-2.4-1.6-4c0-1.5.5-2.9 1.6-4s2.4-1.6 3.9-1.6 2.9.5 4 1.6zm.6-.6c-1.3-1.3-2.8-1.9-4.6-1.9s-3.3.6-4.6 1.9-1.9 2.8-1.9 4.6.6 3.3 1.9 4.6 2.8 1.9 4.6 1.9 3.3-.6 4.6-1.9 1.9-2.8 1.9-4.6-.6-3.3-1.9-4.6zm-3.6 4.3c-.3.1-.7.2-1.2.2h-1.1v-2.6h1.1c.7 0 1.2.1 1.5.3s.5.5.5 1-.2.9-.7 1.1zm-3.6 3.9h1.3v-2.8h1c.7 0 1.1.1 1.4.2.5.3.7.8.7 1.6v.6.2.1.1h1.2v-.1c0-.1-.1-.2-.1-.4s0-.4 0-.5v-.5c0-.4-.1-.7-.4-1.1s-.7-.6-1.2-.7c.4-.1.8-.2 1-.3.5-.3.7-.8.7-1.4 0-.9-.4-1.5-1.1-1.8-.4-.2-1.1-.3-1.9-.3h-2.5z"/></g></svg>