<svg viewBox="0 0 186 100" xmlns="http://www.w3.org/2000/svg" xmlns:xlink="http://www.w3.org/1999/xlink"><defs><path id="a" d="m184.8 26.7h-27.4s-.2-6.2-.8-9.5c-4.3-4.1-26.2-15.2-63.6-15.2-37.7 0-59.7 11.1-63.6 15.3-1 2.9-1 9.4-1 9.4h-16.1l-11.3 42.2 40.5.1c17.3 18.2 46.4 28 51.4 29.6 5.5-1.8 31.8-11.2 49.9-29.6h30.6z" /><g id="b"><path d="m135.8 69c-18 12.1-42.9 19.1-42.9 19.1s-16-5.7-33.1-19.1h-13.3c25.1 19.3 41.5 23.1 46.3 24.6 4.8-1.6 27.7-10 44.9-24.6z"/><path d="m93.4 12.7c32.3 0 55.8 8.6 55.8 8.6s.7 2.1 1 5.4h2.2s0-4.6-.5-7.6c-4.8-2.7-24-12.1-59-12.1-35.2 0-54.2 9.3-59 12.1-.2 1.6-.5 4.3-.5 7.6h13.1c0-3.5.5-5.4.5-5.4s16.9-8.6 46.4-8.6z"/><path d="m22.4 44.1 1.4-5h14.6c1.5 0 2.3 1.2 1.9 2.5-.4 1.5-1.9 2.5-3.2 2.5zm-3.3 12.4 1.3-5h14.6c1.5 0 2.3 1.1 1.9 2.5s-1.7 2.5-3.2 2.5zm31.3-14.7c1.8-6.5-2.5-10.1-7.4-10.1h-27l-8.7 32.3h27c5.3 0 11.3-4.2 12.8-9.7.8-2.8 0-6.5-3.2-6.5 3.2 0 5.9-3.7 6.5-6z"/><path d="m68.3 31.7c-8 0-12.9 5.1-14.2 9.9l-3.3 12.4c-1.7 6.3 2.9 9.9 7.2 9.9h27.5l2-7.4h-25c-1.8 0-2.2-1.5-1.9-2.5l.7-2.5h27.5l2-7.4h-27.5l.7-2.5c.4-1.6 2-2.5 3.2-2.5h24.9l2-7.4z"/><path d="m106.8 44.1 1.3-5h14.7c1.6 0 2.3 1.1 1.9 2.5-.3 1-1.3 2.5-3.3 2.5zm20.6-12.4h-27l-8.6 32.3h9.8l3.3-12.4h6.3l6.8 12.4h11l-6.8-12.4c4.8 0 11.2-3.8 12.9-10 1.2-4.4-.9-9.9-7.5-9.9z"/><path d="m176.4 39.1 2-7.4h-27.4c-4.5 0-10.9 3.8-12.6 9.9l-3.3 12.5c-1.7 6.3 2.9 9.9 7.2 9.9h27.4l5.3-19.8h-22.2l-2 7.4h12.4l-1.3 5h-15c-1.4 0-2.3-1.1-1.9-2.5l3.3-12.4c.4-1.5 1.9-2.5 3.3-2.5z"/></g><mask id="m"><use xlink:href="#a" fill="#fff"/><use xlink:href="#b"/></mask></defs><g id="figure"><use fill="#fff" mask="url(#m)" xlink:href="#a"/></g></svg>