<svg viewBox="0 0 404 100" xmlns="http://www.w3.org/2000/svg" xmlns:xlink="http://www.w3.org/1999/xlink"><g id="p1" fill="#0072bb"><path d="m244 16.3c10 0 17.7 6.7 17.8 18.1v24.1c0 4.2-2.7 6.3-5.8 6.3-3.2 0-5.8-2-5.8-6.3v-24.1c0-5.4-5.2-6.7-9.7-6.8h-11v30.9c-.1 3.9-2.2 6.3-5.8 6.3-3.4 0-5.8-2-5.8-6.3v-24.1c0-5.4-5.4-6.8-9.8-6.8h-11.1v30.9c.1 4.5-2.7 6.3-5.8 6.3-3 0-5.8-2-5.8-6.3v-42.2z"/><path id="a" d="m291.8 16.2c-15.3 0-23.5 12.2-23.5 24.6 0 16.2 11.3 24.7 23.5 24.7 14.2 0 24.7-9.4 24.7-24.7 0-10.9-7-24.6-24.7-24.6zm0 11.6c4.1-.1 12.5 1.6 13 13 .1 11.4-8.9 13.1-13 13.1-5.6 0-11.4-2.6-11.8-13.1.3-10.4 7.8-12.9 11.8-13z"/><path d="m331 6.6c4 0 5.8 2.9 5.8 5.3v5.1h7.8c5.2 0 6.2 4 6.2 5.8 0 1.7-.7 5.7-6.2 5.8h-7.8v21.4c.1 5.1 2.2 4 7.8 3.3 2.8-.3 6.2 2.2 6.2 5.4 0 6.2-6 6.7-11.5 6.7-7.3 0-14-3.7-14.1-15.4v-21.4c-2.1-.1-5.1-1.8-5.1-5.5 0-2.5 1.8-4 5.1-6.2v-5c0-1.9 1.8-5.3 5.8-5.3z"/><use transform="translate(85.5)" xlink:href="#a"/><path id="b" d="m8.7 81.3c-4.3 0-6.4 2.2-6.7 6.4v10.1h2.9v-4h7.6v4h2.9v-10.1c-.3-4.2-2.4-6.4-6.7-6.4zm0 2.6c2.5 0 3.8 2 3.8 3.8v3.8h-7.6v-3.8c0-1.6 1.2-3.7 3.8-3.8z"/><path d="m24.4 81.5v16.2h3.6c2.2 0 4 0 5.6-.5 2.1-.6 3.8-2.1 4.8-4.1.5-1.1.7-2.3.7-3.5s-.2-2.4-.7-3.5c-1-2-2.7-3.5-4.8-4.1-1.6-.5-3.4-.5-5.6-.5zm8 3c1.7.5 3.5 2.1 3.6 5.1 0 3-1.9 4.6-3.6 5.1-1.1.3-3.5.2-5 .2v-10.6c1.7 0 3.7-.2 5 .2z"/><path d="m44.6 81.6 7.4 16.2h1.2l7.4-16.2h-3.1l-4.9 10.7-4.9-10.7z"/><path id="c" d="m78.2 81.6v2.6h-6.9c-.7 0-.7.2-.7.8v3.6h6.9v2.6h-6.2c-.6 0-.7.2-.7.7v3.1h7.6v2.7h-10.5v-16.1z"/><path d="m86.8 81.5c1.1 0 1.6.6 2.2 1.2l8.6 9v-10.1h2.9l.1 16.4c-1 0-1.5-.6-2.2-1.3l-8.8-8.8v9.9h-2.7z"/><path id="d" d="m107.7 81.6 13.5-.1v2.8h-5.3v13.4h-2.9v-13.4h-5.3z"/><path d="m128.2 81.5v9.7c0 5.1 3.2 6.8 6.7 6.8s6.7-1.7 6.7-6.8v-9.7h-2.8v9.2c-.1 2.9-1.1 4.5-3.9 4.6-2.8-.1-3.8-1.7-3.9-4.6v-9.2z"/><path id="e" d="m150.6 81.5v16.2h3v-4.7c.9 0 1.7-.1 2.6.1 1.1.8 1.5 2.5 2.9 3.9.8.8 2.5.8 4.2.8v-2.6c-.8 0-1.5.1-2.4-.9l-1.6-2c1.1-.7 2.1-1.5 2.6-2.8.2-.7.3-1.4.3-2.2 0-1.5-.4-3-1.4-4-1.3-1.3-3-1.8-4.8-1.8zm6.9 3.1c1.1.3 1.6 1.4 1.6 2.5 0 1.2-.4 2.5-1.6 3s-2.7.4-3.9.3v-6.1c1.3-.1 2.6-.1 3.9.3z"/><use transform="translate(103.5)" xlink:href="#c"/></g><g id="p2" fill="#ed1b24"><path d="m13.7 10.1v22l10.9-10.8c.9-1 2.2-2.7 4.8-2.7 3.4-.1 6.2 3 6.1 6.2 0 1.5-.8 2.7-1.8 3.8l-3.6 4 14.3 23.3c.5.8.9 2 .9 3.2 0 3-3 5.7-5.9 5.7-2.6 0-3.9-1.4-5.1-3.2l-12.9-21-7.7 7.5v11c0 4.5-3.7 5.7-5.7 5.7-2.2.1-6-1.1-6-5.7 0-16.3 0-32.7 0-49 0-3.7 3-5.7 6.2-5.7 3.4 0 5.4 2.5 5.5 5.7z"/><path id="f" d="m55.4 2c-3.2 0-5.8 2.6-5.8 5.8s2.6 5.8 5.8 5.8 5.8-2.6 5.8-5.8-2.6-5.8-5.8-5.8zm-5.8 21v35.8c0 4.2 2.7 6 5.9 6 2.4 0 5.7-1.5 5.7-6v-35.8c0-4.5-3.2-6-5.8-6s-5.8 1.8-5.8 6z"/><path id="g" d="m96.9 11.9v7.4c-3.4-3.3-8.7-3.3-13.1-2.3-9.8 2.4-16.4 13.2-16.4 24.6 0 13.4 8.8 23 21.6 23 4.4 0 7.9-1.3 9.2-2.1 1.1 1.3 2.8 2.1 4.5 2.1 2.9 0 5.8-2.1 5.8-4.9v-47.8c-.1-3.3-2.5-5.7-5.8-5.7-2.9.1-5.8 2.5-5.8 5.7zm-7.4 16.4c3.7 0 7.4 1.5 7.4 4.5v12.7c0 5.9-6 7.4-8.3 7.4-7.6.2-11.2-7.6-9.2-15.1.6-2.4 2-9.3 10.1-9.5z"/><use transform="translate(47.5)" xlink:href="#g"/><use transform="translate(115.2)" xlink:href="#f"/><path id="h" d="m211.2 82.4-.9 2.5s-2.9-1.4-4.8-.8c-1.1.4-1.8 1.9-.9 2.8.8.9 2.4 1.3 3.5 1.8 2.7 1.2 4 2.5 4 4.6 0 1.1-.4 2.3-1.2 3.1-1.3 1.4-3.3 1.6-4.6 1.6-2.7 0-4.6-1-5.4-1.6l1-2.5c1.8.9 4.1 1.9 6.1 1 1.1-.5 1.5-1.9.6-2.8-1.7-1.5-4.4-1.5-6.1-3.3-1.9-1.8-1.4-5.1.7-6.5 1-.7 2.4-1.1 3.7-1.1 1.5 0 3.1.5 4.4 1.2z"/><use transform="translate(110.2)" xlink:href="#d"/><use transform="translate(236.1)" xlink:href="#b"/><use transform="translate(109.9)" xlink:href="#e"/><use transform="translate(171.1)" xlink:href="#d"/><use transform="translate(97.4)" xlink:href="#h"/><path d="m329.1 81.6v16.1h2.9v-5.7c0-.3.3-.6.6-.6h6.6c.3 0 .6.3.6.6v5.7h2.9v-16.1h-2.9v7.1h-7.8v-7.1z"/><use transform="translate(284.1)" xlink:href="#c"/><use transform="translate(220.3)" xlink:href="#e"/><use transform="translate(323.8)" xlink:href="#c"/></g></svg>