<svg viewBox="0 0 272 100" xmlns="http://www.w3.org/2000/svg"><g id="figure"><g transform="scale(.1)"><path d="m317.8 20 24.5 138.3h-154.3c-13 0-20 5.4-20 17.9v441.6l80.2 3.3v-288.7h142.7v356.6c-114 14.7-228.1 29.6-342.2 44.4-27.3-22-28.7-98.6-28.7-147.7v-462.9c0-88.4 38.3-102.8 121.9-102.8z"/><path d="m448.7 21.5v659.8l146.1-18.9.5-190.9 19.1-.2 60.5 180.5 144.3-18.9-58.4-160.8c54.9-1.8 66.2-38.3 66.2-71.7v-282.3c0-65.6-27.7-96.6-98.4-96.6zm214.3 115.5c11.1 0 20 9.9 20 20v188c0 11.3-5.6 20-20 20h-67.6l.2-228z"/><path d="m1154.7 20 135.3 734.6h-149.4l-62.2-467.1-64.4 467.7h-974.9l846-105.2 115.9-630z"/><path d="m1397.7 20 62.5 470.4 62.8-470.4 1172.8 3.4-1044.8 116.9-114.1 614.3h-153.5l-134.6-734.6z"/><path d="m1859.5 136.5v618.1h-146.6v-600.3z"/><path d="m2247.7 89.7v128.8h-98.8v536.1h-150.4v-536.1l-98.8-.3v-86.3z"/><path d="m2699.9 34.2-135.4 527.1c-1.6 6.1-1.8 12.4-1.8 18.7v174.6h-155v-177.5c0-11.9-4-24.4-7-36l-117.2-456 144.3-17.6 56.8 297.3 60.4-311.6 155-19z"/><path d="m127.6 794.3 6.3 34.7h-40.5v44h30.8v32h-30.8v74.9h-38.1l-.2-185.6z"/><path d="m500.2 794.4v185.6h-37.2v-185.6z"/><path d="m915.4 794.6v34.2h-24.7v151.2h-37.9v-151.2h-24.6v-34.2z"/><path d="m1278.7 794.6 18.8 72.2v-72.2h38.3v185.4h-38.2l-19.9-75.3v75.3h-34.5v-185.4z"/><path d="m1741.3 794.6 6.2 34.1h-40.3v44h30.8v32h-30.8v40.5h39l-6.2 34.8h-71v-185.4z"/><path d="m2106.3 794.3h48.5l6.1 34.7h-46v42.3h28.1c18.2 0 18.9 11.3 18.9 25.5v53.6c0 21.9-5.3 29.6-30.2 29.6h-44.3l-6.5-34.7h43.9v-43.3h-34.1c-6.5 0-12.6-8.3-12.6-16.4v-58.8c0-22.9 4-32.5 28.2-32.5z"/><path d="m2521.3 794.3h48.5l6.1 34.7h-46v42.3h28.1c18.2 0 18.9 11.3 18.9 25.5v53.6c0 21.9-5.3 29.6-30.2 29.6h-44.3l-6.5-34.7h43.9v-43.3h-34.1c-6.5 0-12.6-8.3-12.6-16.4v-58.8c0-22.9 4-32.5 28.2-32.5z"/></g></g></svg>