<svg viewBox="0 0 305 100" xmlns="http://www.w3.org/2000/svg"><g id="figure"><g transform="scale(.1)"><path d="m629.5 130.9c-42.5 0-77 35-77 78.2s34.5 78.2 77 78.2 77-35 77-78.2-34.5-78.2-77-78.2z"/><path d="m844 706.7c12.7 2.8 39.9 15.3 20 47.5-31.9 51.7-50.9 69.1-147.7 149.4-13.4 11.1-26.5 22.6-40.2 33.3 11.6-29.5 49.4-82.8 58.6-125.9 8.1-38 .3-70.6-39.9-83.6-7.5-2.4-14.5-1.6-21.1-6.5 19.8-3.5 39.3-8.2 59.2-11 37.8-5.3 73.2-11.6 111.1-3.2z"/><path d="m981 186.5h291l-21.5 88.5h208.5l21.5-88.5h33.2l-49.4 206.5h-33.8l23-94.5h-208.5l-23 94.5h-32.5l44.3-183.5h-108.3l-44.3 183.5h-32.7l44.4-183.5h-117.5z"/><path d="m1769.7 186.5-5.4 23h-197.2l-15.4 65.5h189.8l-5.7 23.5h-189.5l-16.7 71.5h197.9l-5.6 23h-230.7l49.8-206.5z"/><path d="m503.5 20c79.5 0 280.5 32.1 398.5 218.5l-11 8.5c-8.3-5.8-65.8-103.6-199.1-158.5-67-27.6-128.4-34.5-169.9-34.5-251.5-.2-451.5 201.3-455.2 446.8-1.9 129 63.2 341.6 296.4 431.3 88.8-75.1 171.4-153 236.9-250 27-39.9 48.3-81.9 54.8-130.3 8.3-62-36.7-126.6-92.2-115.1-57.6 12-126.3 76.4-207.1 192.6-5.2 7.5-8.4 14.9-16.1 20 3-9.3 8-17 12.8-25.4 93.3-163.9 277-326.5 350.7-292.7 58 26.6 85.9 200.1-78.7 392-119.8 139.7-252.8 202.9-255.1 210.7 34.5 12.1 70.7 20 107.1 23.7 55.6 5.7 112.8-.1 166.6-15.2l4.5 14.2c-62.4 19.3-114.1 23.4-149.1 23.4-272.1-.4-478.3-223.9-478.3-481 0-239 192.3-479.1 483.5-479z"/><path d="m1043 427h75l-20 82h157.5l19.8-82h78.9l-55.3 229h-78.7l20.6-86h-157.6l-20.7 86h-79.5l54-224c.8-3.4 3.6-5 6-5z"/><path d="m1386 427h75.5l-32.5 135.5c-5.9 24.7 6 36.8 30.3 36.8h68c28.3 0 51.2-5.3 58.4-35.1l33.3-137.2h79.5l-34.7 144c-5.9 24.6-22.8 87.4-121.8 87.4h-118c-52.5 0-92.1-22.4-78.4-79.4l35.4-147c.7-2.7 2.7-5 5-5z"/><path d="m1839.3 427 54.7 143 123.7-143h112.3l-55 229h-77l38-156.5-133.5 156.5h-58.5l-58-156.5-37.5 156.5h-77l55.5-229z"/><path d="m2352 427h-96.5l-194.5 229h88l140.8-169 32.7 92.5h-79c-3.8 0-6.8-.3-9.5 3l-36.8 44.5h141.3l11 29h87z"/><path d="m2474 427-55 229h79.5l37.5-155 114 155h106l55.5-229h-79.5l-37.5 154.5-115.5-154.5z"/><path d="m1272.5 691h-297.5l-14 58h110.5l-40.5 171h79.5l40.5-171h107.5z"/><path d="m1480 860.5c19.8-.8 42-12.3 55-27 20.1-22.9 30-60.2 30-90.5 0-29.1-17.1-52-78-52h-214.5l-55 229h78.5l41.5-171h118c25.3 0 27.1 9.1 22 29.5-4.7 18.5-15.7 26.5-30.5 26.5h-103l88 115h93z"/><path d="m1779.5 691h-96.5l-194.5 229h88l140.8-169 32.7 92.5h-79c-3.8 0-6.8-.3-9.5 3l-36.8 44.5h141.3l11 29h87z"/><path d="m1847 920 55-229h80l-55 229z"/><path d="m2014.5 691-55 229h79.5l37.5-155 114 155h106l55.5-229h-79.5l-37.5 154.5-115.5-154.5z"/><path d="m2666 691h-282l-55 229h314l13-55h-234.5l29.5-121h202zm-26 88h-176.5l-13 54h181.5l11.5-48c1.2-5-.2-6-3.5-6z"/><path d="m2905 860.5c19.8-.8 42-12.3 55-27 20.1-22.9 30-60.2 30-90.5 0-29.1-17.1-52-78-52h-214.5l-55 229h78.5l41.5-171h118c25.3 0 27.1 9.1 22 29.5-4.7 18.5-15.7 26.5-30.5 26.5h-103l88 115h93z"/><path d="m3009.1 908.7c-1.3-2-1.5-4.7-1.9-7-.7-4.5-2.8-4.4-5.9-4.5h-1.8v11.5h-5.9v-28.1h9.9c7 0 11.6 1.8 11.8 7.7.1 4.1-3.5 5.9-5.9 6.6 1.2.6 1.7 1 2.2 1.5 1.7 1.8 1.8 3.9 2.2 6.1.1.8.5 3.7 1.9 6.2m-11.8-16.7c2.6 0 5.2-.4 5.2-3.3s-2.6-3.7-5.2-3.7h-4.4v7"/><path d="m3004.6 869.2c-14 0-25.4 11.4-25.4 25.4s11.4 25.4 25.4 25.4 25.4-11.4 25.4-25.4-11.4-25.4-25.4-25.4zm0 4.4c11.6 0 21 9.4 21 21s-9.4 21-21 21-21-9.4-21-21 9.4-21 21-21z"/></g></g></svg>