<svg viewBox="0 0 578 100" xmlns="http://www.w3.org/2000/svg"><defs><mask id="m"><path d="m1.9 1.9v96.1h151.6v-96.1z" fill="#fff" /><path d="m33.3 39.4c-2.2 0-3.9.8-5.5 2.2-.8.9-2.5 3.5-2.3 4.4.2 1.1 1.5 1.4 2.6 1.8s2.3 1.1 5.1 1.1 3.8-.4 3.8-.4c-5.1 3.3-7.1 3.1-7.1 3.6 0 .2.5.4.8.6.4.2 2.9.8 4.2.8 1.2.1 1.8-.2 3.8-.4s4.5.1 5.7.3 2.9 1.3 3.8 1.9c.8.7 1.3 1.6 1.8 1.4.5-.1 1.4-1 2.5-2 1-1 2.2-1.7 2.2-2.2.1-.4-1.4-2.5-3.4-4.7s-3.2-3-3.5-3.2-.5-.2-.9-.2c-.5 0-2.2 0-3.1-.2-.8-.2-.7.2-3.2-1.5-2.5-1.6-3.7-2.4-4.8-2.8-.7-.3-1.4-.5-2.5-.5zm-.8 3.1c0 .6-.5 1.1-1.1 1.1s-1.1-.5-1.1-1.1.5-1.1 1-1.1c.6 0 1.1.5 1.1 1.1z"/><path d="m48.7 57.9c-1 .2-2.6 1-4.1 2.2s-1.8 3.4-1.7 3.9.1 1 .3 1.6.7.7 1.3.9 2.5.2 3.2 0 .7-.6.5-1c-.1-.2-1.2-3.4-.2-5.4.6-1.3.9-1.6 1-1.7s.7-.7-.3-.5z"/><path d="m60.4 60.7c.4-.2.4-.7 0-1.1-1.5-1.6-3-3.2-4.2-5-.2-.3-.4-.4-.9-.1-.6.3-1.7.9-3.5 3-1.9 2.1-1.9 3.4-1.8 3.7.2 1.1 1.2 3.3 1.6 3.9s1.1 1.4 1.7 1.4c1.9 0 3.7.1 5.6 0 .7-.1.8-.6.2-1.2-.5-.6-1.3-1.5-1.3-1.8 0-.6 1.7-2.2 2.6-2.8z"/><path d="m109.9 47.6c-.2.2-6.4 4.7-12.9 8.3-7.9 4.3-14.2 6.1-21.9 4.9-6.9-1.1-10.6-5-13.8-8.5-3.3-3.5-4.4-5.6-7.3-8.6s-3.7-3.5-4.2-3.7-.7-.3-1.4-.4c-1.5-.2-2.1 1.2-2 1.5s.9 1.1 1.2 1.3 2.5.3 7.8 7.5 10.5 12 14.3 13.9c7.8 4.1 17.9.5 20.8-.7 7.5-3 12.9-7.5 16-10.2 3.2-2.7 4.4-4 4.6-4.3.1-.2-.3-1.6-1.2-1z"/><path d="m100.8 62.1c0 .7-.8 2.4-1 2.8-.2.3-1 .8-.6 1.2.3.4 2.1.6 2.6.6s1.7 0 1.9-.1.8-.7 1.1-1 .6-1.3.6-1.6-.9-1.2-1.4-1.5c-.5-.4-1.7-1.3-2.5-1.6s-.7.5-.7 1.2z"/><path d="m106.7 66.1c.3.5 1.9.5 3.1.5s2.5-.2 3.1-.5c.2-.2 1.9-2.9 1.7-4s-.6-1.6-2.6-4.3c-1.9-2.7-3-3.8-3.2-3.9s-.6-.1-.8.1-4.3 3.5-4.5 3.7-.2.6 0 .8c.2.3 3 3.8 3.5 4.5.4.7.5 1.1.2 1.6-.2.5-.7 1.3-.5 1.5z"/><path d="m117.3 49.1c-.2 0-1.6-.2-2.2-.2-.2 0-1.5 0-1.7.2-1.2.7-2.2 1.8-3.1 2.8-.2.2-.3.4-.1.6s.8.4 2.2.4 2.5-.8 3.4-1.4c.9-.7 1.4-1.2 1.7-1.7.3-.3.1-.7-.2-.7z"/><path d="m52.2 35.3c-.4.3-1.7 1.5-2 1.8s-.4 1.1-.2 1.2c1.5.9 2.8 2.3 4.3 3.1.6-.1 3.3-2 3.1-3.5-.2-.9-3.4-3.1-4-3.1-.5 0-.8.2-1.2.5z"/><path d="m59.4 40c-.6-.6-1.3-.2-1.8.2-.4.3-1.6 1.5-1.8 1.8s-.2 1 0 1.3c1.2 1.2 2.2 2.7 3.3 4 .3.2.6.3 1.2 0s1.9-2.3 2.2-2.9c.2-.7.1-1-.2-1.4s-2.6-2.7-2.9-3z"/><path d="m66.5 54.8c.3.2.6.1 1.1-.1.7-.5 2.2-3.7 2.5-5 .2-.7.1-.9-.2-1.2-.2-.3-5.2-3.8-5.8-3.8-.6.1-1.9 1.5-3 3.3-.2.4-.2.9 0 1.4.7 1.4 4.8 5.2 5.4 5.4z"/><path d="m71.1 57.8c1.1.6 2.9 1.1 3.9 1.3s2.2.4 2.9 0c1.3-.9 1.6-6.6 1.5-7.2-.1-.5-.3-.6-.8-.8-1.8-.3-6-1.5-6.3-1.5-.3.1-.6.3-.8.6-.6 1-1.1 2.9-2.3 4.8-.3.7 0 1.2.2 1.5.2.4.6.8 1.7 1.3z"/><path d="m87.3 58.4c.4-.2.7-.7.7-1.8-.1-1.1-.1-3.6-.3-4.6s-.7-1.1-1.3-1.1-2.2.2-3.6.3-1.6.3-1.8.6-.3.8-.5 1.8c-.1 1.7-.6 3.4-.4 5.1.2.4.2.5.6.6 1.6.3 5-.2 6.6-.9z"/><path d="m95.1 49.3c-.4-.4-.6-.3-1.3-.2-.7.2-3.5.9-4.2 1.3s-.7.9-.6 2.9.1 2.4.3 3.1.7 1.1 1.8.8c1-.3 4.4-1.8 5-2.3.7-.6.5-1 .3-1.8s-.9-3.3-1.3-3.8z"/><path d="m103 50.9c.2-.3.3-.9.1-1.6s-1.3-2.5-1.7-2.8-.6-.2-1-.1c-1.3.5-2.5 1-3.6 1.8-.4.6-.4 1.1-.3 1.6s1.1 3.1 1.3 3.4c.2.2.8.4 1.1.3.5-.1 2.8-1.3 4.1-2.6z"/><path d="m104.8 43.8c-.5.3-1.5 1.1-1.8 1.5-.3.3-.3.6-.1 1.1s1.2 2.3 1.5 2.5.6.4 1.1.2c.4-.2 2.1-1.7 2.3-1.9s.7-.8.3-1.8c-.4-1.1-1.6-2.1-2-2.1s-.8.2-1.3.5z"/><path d="m66.8 26.4c-.4-.2-.8-.3-1.6 0s-9.4 5.8-9.7 6.3c-.3.6-.3.8-.1 1.5.2.6 2.6 2.5 3.1 2.9.5.5 1.4.6 2.1 0s7.4-6.9 7.7-7.6.4-1.2.1-1.5c-.2-.3-1.1-1.4-1.6-1.6z"/><path d="m69.3 30c-.6.4-2 1.8-4.2 4.3-2.1 2.5-3.6 3.3-3.9 3.8s-.5.7 0 1.6c.4 1 3.3 3.6 4 4s.8.3 1.5-.1 7-9.4 7.2-10 .3-1.2-.1-1.5c-.5-.2-2.8-2.1-3.2-2.2s-.8-.3-1.3.1z"/><path d="m75.9 33.5c-.6.1-.7.2-1.3.8s-6.3 8.9-6.7 9.6-.4 1.3 0 1.8 4.8 3 6.4 3.2 2.1 0 2.5-.7 2.9-10.4 3.1-11.3c.2-1 .2-1.4-.2-1.8s-3.1-1.7-3.8-1.6z"/><path d="m84 35.3c-1.7-.1-2.4.1-2.8.9s-3 10.8-3 11.9 1 1.7 1.7 1.9 6.3-.1 7-.3 1.3-.5 1.5-1.2-1.1-12.2-1.5-12.7c-.4-.6-1.1-.4-2.9-.5z"/><path d="m94 34.6c-.4-.2-2-.2-3 0s-1.3.3-2 .7-.5.5-.6 1.6 1.1 9.9 1.3 10.5c.2.5.5 1.5 1.8 1.3s5.7-2 6.4-2.5c.7-.6.5-1.4.3-2-1.6-3.1-2.3-6.7-4.2-9.6z"/><path d="m100.5 33.9c-1.1-1.3-1.5-1.3-1.9-1.3-1.1.1-2.1.6-2.9 1.3-.3.3-.4.8-.2 1.2s2.9 6.2 3.1 6.9c.3 1 .8 2.1 1.2 2.4.3.4 1 .4 1.8.2.8-.3 3.2-1.9 3.6-2.4s.2-1.2-.2-2c-.5-.8-3.4-5-4.5-6.3z"/><path d="m78.4 23.2c-.4-.2-2.3-.1-5.6.6-3.4.7-4.5 1.4-4.3 2s.5.9 1 1.4 3.5 3 3.9 3.2 1.2.2 1.6-.2 3.5-4.7 4.2-5.6c.5-1-.4-1.2-.8-1.4z"/><path d="m85.7 24.1c-.6-.2-.7-.2-2-.4-1.2-.2-2.7-.2-3.2.2s-4.4 6.1-4.6 6.6-.2.9.2 1.3c.3.4 2.1 1.4 5 2.1s4.8.5 5.7.3c.7-.2 1-.5 1.1-1.1 0-.7-.9-7.2-1.1-7.8s-.5-1-1.1-1.2z"/><path d="m96.7 29.7c-.7-.7-3.9-3-5.6-3.8s-2.6-1-2.9-.8-.3.9-.2 1.6.7 3.6.9 4.8.1 1.5.8 2 1.5.2 4.6-.6 3.4-1.2 3.5-1.7c0-.5-.3-.8-1.1-1.5z"/><path d="m89.8 73c-1.6 0-2.7 1.2-2.7 2.6 0 1.5 1 2.3 2.2 2.3.7 0 1.2-.2 1.5-.5-.2 1.2-1.5 1.7-2.3 1.7h-.7v1.3h.7c1.1 0 2.1-.2 2.8-.9s1.2-1.9 1.2-3.4c0-1.7-.8-3.1-2.7-3.1zm-6 .1c-1.5 0-2.5.8-2.5 2 0 .7.2 1.3.9 1.6-.8.3-1.3.9-1.3 1.8 0 1 .9 2 2.7 2 1.7 0 2.8-.9 2.8-2.2 0-.9-.6-1.6-1.3-1.8.7-.3 1.1-.8 1.1-1.5 0-.9-.7-1.9-2.4-1.9zm-6.5.1-1.9.9.3 1.3 1.4-.7v5.7h1.6v-7.2zm20.1 0c-1.1.1-2.1.4-2.8 1.1-.8.7-1.3 1.8-1.3 3.2 0 1.7.9 3.1 2.9 3.1 1.6 0 2.6-1.2 2.6-2.6 0-1.6-1-2.4-2.2-2.4-.7 0-1.2.3-1.5.6.2-.8.7-1.7 2.3-1.7h.7v-1.3zm-29.5.3-1.6.5v1h-.7v1.2h.7v2.2c0 1.7 1 2.1 1.8 2.1.4 0 .9-.1 1.1-.2l-.1-1.3c-.8.2-1.2-.1-1.2-.9v-1.9h1.2v-1.2h-1.2zm15.8.7c.7 0 .9.4.9.9 0 .4-.3.8-.7.9-.6-.2-1.1-.5-1.1-1 0-.4.3-.8.9-.8zm7.1 1.6c0 .7-.8.9-1.1.9-.7 0-.9-.5-.9-1.2s.4-1.2 1.1-1.2.9.8.9 1.5zm-32.9-.9c-1.9 0-2.7 1.4-2.7 2.8 0 1.7 1 2.8 2.8 2.8.7 0 1.4-.1 2-.3l-.2-1.2c-.4.2-.9.3-1.5.3-.8 0-1.6-.4-1.6-1.1h3.5c.1-.1.1-.3.1-.6 0-1.3-.7-2.7-2.4-2.7zm5.4 0c-1.3 0-2.2.8-2.2 1.8 0 .7.4 1.2 1.5 1.6.7.2.8.4.9.6 0 .2-.2.4-.7.4s-1.2-.2-1.5-.4l-.3 1.2c.4.2 1 .4 1.7.4 1.6 0 2.4-.8 2.4-1.8 0-.7-.4-1.3-1.5-1.6-.7-.2-.9-.5-.9-.7s.3-.4.7-.4.9.1 1.1.3l.3-1.1c-.4-.2-.8-.3-1.5-.3zm-5.6 1.1c.8 0 1 .7.9 1.1h-1.9c.1-.4.3-1.1 1-1.1zm39.4 2c0 .7-.4 1.3-1 1.3-.8 0-1.1-.7-1.1-1.5 0-.2.1-1 1.1-1 .6 0 1 .5 1 1.2zm-13.6-.8c.7.2 1.2.6 1.2 1.3 0 .5-.4.8-1 .8s-1-.4-1.1-1c0-.5.3-.9.9-1.1zm-12.6 1.3c-.6 0-1 .4-1 1s.4 1 1 1 1-.4 1-1c0-.7-.4-1-1-1z"/></mask></defs><g id="figure"><path d="m148.2 44.4c-1.2-.8-62.3-40-63.4-40.7-1-.6-3.6-1.7-7.8-1.7s-6.8.8-8.3 1.7c-4.7 2.9-62.1 39.9-63.3 40.7s-3.4 2.6-3.4 5.6 2.1 4.8 3.4 5.6c1.2.8 58.6 37.8 63.3 40.7 1.5.9 4.1 1.7 8.3 1.7s6.7-1.1 7.8-1.7c1.1-.7 62.2-39.9 63.4-40.7s3.3-2.7 3.3-5.6c-.1-3-2.1-4.8-3.3-5.6z" mask="url(#m)"/><path d="m152.8 68.5c4.1 2.6 10.2 4.1 15.9 4.1 9.8 0 21.6-5.3 25.7-16.1 2.9-7.7-.7-11.5-7.1-13l-3.4-.8c-1.2-.3-3.1-.6-2.5-2.3.7-1.9 3.1-2.4 4.5-2.4 3.1 0 6.1 1.3 8.3 3.5l8.8-11.6c-3.4-2.7-7.7-4-12.9-4-9.9 0-21.8 6-25.9 16.8-2.7 7.1 1.2 10.9 7.2 12l3.1.6c1.4.3 3.5.5 2.7 2.5s-3.6 2.7-5.2 2.7c-3.4-.1-6.5-1.6-8.7-4.2l-.6-.6z"/><path d="m240.7 27.8c-3.3-1.3-6.8-1.9-10.3-1.9-13.3 0-27.7 10.6-32.7 23.8-1.1 2.9-1.7 5.7-1.7 8.3 0 8.7 6 14.6 16 14.6 2.9 0 9.3-.5 12.4-1.8l6.9-16.9c-3.6 2.6-7.2 4.2-11 4.2-4.9 0-7.7-3.8-5.8-8.8s7.3-8.9 12.2-8.9c3.7 0 6.3 2.1 8 4.6z"/><path d="m244.3 26.6-17.1 45.3h15.9l5.9-15.7h10.1l-6 15.7h15.9l17.1-45.3h-15.8l-5.8 15.3h-10.1l5.8-15.3z"/><path d="m290.1 26.6-17.1 45.3h16.4l17.1-45.3z"/><path d="m310 26.6-17.1 45.3h28.8l5.5-14.5h-12.4l11.6-30.8z"/><path d="m324.5 71.9h20.9c13.3 0 25.9-8.6 31-22 1.4-3.6 2-6.8 2-9.5 0-9.7-8.1-13.8-20-13.8h-16.7zm28.2-31.1h1.1c6 0 8.6 2.6 6.2 9-2.2 5.9-7.4 8.5-12.9 8.5h-1z"/><path d="m369.5 71.9h16l6.8-19h.4c-.3 1.9.4 3.6.7 5.3l2.7 13.7h19l-6.8-23.3 22.5-22h-18l-13.4 14.5c-1.6 1.5-3 3.2-4.2 5.1h-.4l7.8-19.6h-16z"/><path d="m416 71.9h16.1l5.5-14.5h.3l1.7 14.5h19l-4.3-14.7c-.3-1-.9-2-1.7-2.7l.1-.4c6.9-2 10.6-4.9 13.2-11.8.9-2.4 1.3-4.4 1.3-6.2 0-6.8-6.1-9.5-14.2-9.5h-19.9zm29.8-32.9c2.8 0 5.1.4 3.8 3.9-1.3 3.4-4.1 3.7-6.8 3.7h-1.2l3-7.6z"/><path d="m495.4 15.2c-2.8 0-5.8 2.2-6.8 5s.3 5 3.1 5 5.8-2.2 6.8-5-.3-5-3.1-5zm14.6 0c-2.8 0-5.8 2.2-6.8 5s.3 5 3.1 5 5.8-2.2 6.8-5-.3-5-3.1-5zm-11.4 10.7c-13.8 0-28.6 9.3-34 23.5-1.2 3.1-1.8 6-1.8 8.6 0 9.3 7.3 14.6 18.1 14.6 13.8 0 28.3-8.7 33.8-23.2 1.2-3.1 1.7-5.9 1.7-8.5 0-9.3-7-15-17.8-15zm-5.7 14.9c5.2 0 7 4 5.2 8.8-1.9 5.2-6.8 8.8-11.8 8.8s-7.1-3.5-5.2-8.7c1.8-4.9 6.6-8.9 11.8-8.9z"/><path d="m523.4 26.6-5.5 14.7 9.2-.4-11.7 31h16.4l11.8-31 8.9.4 5.5-14.7z"/><path d="m568.4 22.3c-4.2 0-7.6 3.4-7.6 7.6s3.4 7.6 7.6 7.6 7.6-3.4 7.6-7.6-3.4-7.6-7.6-7.6zm0 .9c3.7 0 6.7 3 6.7 6.7s-3 6.7-6.7 6.7-6.7-3-6.7-6.7 3-6.7 6.7-6.7zm.1 2.5h-3.1v8.3h1.4v-3.3h1.2c1.5-.1 2.5.7 2.5 2.2v1.1h1.3c-.1-.2-.1-.3-.1-.5v-1.3c0-.7-.6-2-1.9-2.1.4-.1 2-.3 2-2 0-2.2-2-2.4-3.3-2.4zm-.2 1c.5 0 1 0 1.5.3.9.7.7 2-.3 2.5-.4.2-.9.2-1.4.2h-1.3v-3z"/></g></svg>