<svg viewBox="0 0 406 100" xmlns="http://www.w3.org/2000/svg" xmlns:xlink="http://www.w3.org/1999/xlink"><g fill="#009dd6"><path d="m17.2 8.6-14.7 58.9c-2.4 9.7 3.8 17.7 13.5 17.7h58.9l14.6-58.8c2.4-9.7-3.8-17.8-13.5-17.8zm8.5 11.1h41.6c7.8 0 11.5 7.6 10.2 13.5l-10 40.7h-41.6c-7 0-12.1-7.2-10.1-13.5l5.2-20.6h40.7l1.4-5.7h-41zm6.4 32.6-1.9 7.6h26.5l1.9-7.6z"/><path d="m131.4 41.7 1.9-7.6h-26.5l-1.9 7.6zm5.9-22c8 0 11.6 6.4 10.2 13.5l-5.2 20.8h-40.4l-1.4 5.7h40.7l-3.5 14.4h-41.6c-4.2-.1-7.1-2.2-9.2-5.2.2-.5.2-.9.5-1.4l10.2-41.1c.1-.4.1-.8.2-1.2 3.3-3.2 7.6-4.7 11.8-5.2z"/><path d="m196.9 34.2h-28.4l-9.7 40h-14.4l9.9-40.7c2.4-8 9.5-13.4 17-13.5h34.5c-2.6 2.2-4.8 4.7-6.6 7.6-1 2.1-1.8 4.4-2.4 6.6"/><path d="m212 59.9h26.5l6.4-25.8h-26.7zm36.9-40.2c8.2.1 11.8 6.5 10.2 13.5l-6.6 27.2c-2.3 7.9-9.1 13.3-16.8 13.5h-27.9c-7.8.1-11.2-6.5-10.2-13.5l6.6-27.2c2.4-7.9 9.3-13.3 16.8-13.5z"/><path d="m273.7 59.9h26.5l6.4-25.8h-26.5zm36.9-40.2c7.8.2 11.2 6.5 10.2 13.5l-6.6 27.2c-2.3 7.9-9 13.5-16.8 13.5h-41.6l17.7-71.9h14.4l-4.3 17.7z"/><path d="m330.9 19.7h14.4l-13.2 54.4h-14.4zm18.7-17.7-3.5 14.4h-14.4l3.7-14.4z"/><path d="m403.1 36h-14.4l.5-1.9h-26.5l-1.2 5.7h27.2c7.8-.1 11.2 6.5 10.2 13.5l-1.9 7.1c-2.4 8.1-9.5 13.4-17 13.5h-28.2c-7.7.1-11.2-6.5-10.2-13.5l.7-2.6h14.4l-.5 1.9h26.5l1.4-5.7h-27.2c-7-.2-11.3-6.3-10.2-13.5l1.9-7.1c2.4-7.9 9.3-13.6 16.8-13.7h27.9c7.8.4 11.2 6.5 10.2 13.5z"/><path d="m79.8 97.1h4.3l1.4-5.7h7.3l.9-3.5h-7.6l.7-2.6h8.3l.9-3.8h-12.5z"/><path id="a" d="m99 97.1h4.3l4.3-15.8h-4.5z"/><path id="b" d="m114.4 97.1h4.3l3.1-11.8h4.7l.9-3.8h-13.7l-.9 3.8h4.7z"/><path id="c" d="m129.5 97.1h4.3l2.4-9 4.3 9h3.8l4.1-15.9h-4.3l-2.4 8.7-4-8.7h-4z"/><path id="d" d="m151.5 97.1h12.8l.9-3.8h-8.5l.7-2.4h7.6l.9-3.5h-7.6l.7-2.4h8.3l.9-3.8h-12.5z"/><path id="e" d="m178 97.3c4 0 6.6-2.1 6.6-5.4 0-2.4-1.7-3.5-4-4.3-2.4-.7-2.4-1.3-2.4-1.9.1-.7.7-1 1.4-.9 1.6 0 3.1.6 4.3 1.7l2.8-3.1c-1.7-1.6-4-2.4-6.4-2.4-3.8 0-6.6 2.1-6.6 5.4 0 2.4 1.7 3.3 4 4.3 2.4.9 2.6 1.2 2.6 1.9s-.7 1.2-1.9 1.2c-1.9 0-3.7-.8-5-2.1l-2.8 2.6c1.9 2.1 4.6 3.2 7.3 3.1z"/><path d="m243.2 93.5c-2.2.1-3.4-1.5-3.5-3.5-.1-2.7 1.8-5 4.5-5.2 2.3-.2 3.3 1.3 3.5 3.5 0 .9-.2 1.8-.7 2.6l-1.4-2.1-3.1 2.1 1.7 2.4c-.3.1-.6.2-.9.2zm4.7 4.5 3.1-2.1-1.2-1.7c1.7-1.7 2.6-4 2.6-6.4 0-3.7-2.7-7.1-7.6-7.1-5.2 0-9.4 4.1-9.5 9.2 0 3.9 3.2 7.1 7.1 7.1 1.5 0 3.1-.2 4.3-.7z"/><path d="m264.5 97.3c5.2 0 6.9-2.6 8-6.6l2.4-9.2h-4.5l-2.4 8.7c-.6 2.2-1.8 3.6-3.5 3.3-2.6-.6-2.6-1.8-2.1-3.8l2.1-8.3h-4.5l-2.1 8c-1.5 4.4 2.2 7.8 6.6 7.8z"/><path d="m296.2 89 1.2-4.3h1.7c1.6 0 2.4.6 2.4 1.7 0 1.4-1.2 2.6-3.3 2.6zm-6.4 8h4.3l1.2-4.5h2.6c4.7 0 7.8-2.4 7.8-6.4 0-3.9-3.6-5-6.6-5h-5.2z"/><path d="m309.2 97.1h4.3l2.4-9 2.4 6.1 5.7-6.1-2.4 9h4.3l4.3-15.8h-5l-5.4 6.1-2.1-6.1h-4.5z"/><use transform="translate(63.4)" xlink:href="#d"/><use transform="translate(181.8)" xlink:href="#d"/><use transform="translate(179.2)" xlink:href="#a"/><use transform="translate(264.4)" xlink:href="#b"/><use transform="translate(223)" xlink:href="#c"/><use transform="translate(18.4)" xlink:href="#e"/></g></svg>