<svg viewBox="0 0 501 100" xmlns="http://www.w3.org/2000/svg"><g id="figure"><path d="m337.8 98h21.9v-49.3h21.8v8.9h-17.2v17.4c0 2.3 13.4 23 14.4 23h26.3l-11.8-20.7h9.7v-39.4c0-6.2-7.5-9.9-14.4-9.9h-39c-6.2 0-11.7 4.5-11.7 10.3z"/><path d="m59.8 98h21.9v-70h-21.9z"/><path d="m90.5 87.2c0 7.6 3.8 10.8 11.2 10.8h26.5l37.2-70h-25.1l-25.1 47.9h-2.8v-47.9h-21.9z"/><path d="m243.5 98h24.5l24.3-47.5h18.6v9.5h-19.1v19.7h40.9v-39.9c0-6.9-5.6-11.8-12.1-11.8h-40.4z"/><path d="m2.2 87.7c0 6.7 7.7 10.3 14.9 10.3h35.8v-22.1h-28.8v-47.9h-21.9z"/><path d="m462.4 28c6 0 11.1 3.9 11.1 9.9v47.9c0 10.9-7.4 12.2-18.1 12.2h-33.9c-8.1 0-12.6-5-12.6-13.2v-46c0-5.9 4.4-10.8 9.8-10.8zm-31.6 47.9h20.9v-25.8h-20.9z"/><path d="m486.1 2c-7 0-12.6 5.5-12.6 12.2s5.6 12.2 12.6 12.2 12.7-5.5 12.7-12.2-5.7-12.2-12.7-12.2zm0 1.8c6 0 10.9 4.7 10.9 10.4s-5 10.4-10.9 10.4-10.7-4.7-10.7-10.4 4.8-10.4 10.7-10.4zm-4.5 3.7v13.3h2.6v-5.1h2.8c.7 0 1.2.1 1.4.4.3.3.4.9.4 1.7v1.4c0 .6.2 1.1.3 1.6h2.9v-.4c-.3-.2-.5-.7-.5-1.1l-.1-1.9c-.1-.9-.2-1.6-.4-2s-.7-.8-1.2-1c.6-.2 1-.5 1.4-1.1.3-.5.5-1.2.5-2 0-1.3-.3-2.2-1-2.8s-1.7-1-3-1zm2.6 2.3h3.2c.6 0 1 .2 1.3.5s.5.7.5 1.3-.2 1-.5 1.3-.7.4-1.4.4h-3.1z"/><path d="m178.4 44.9h79v-16.9h-79z"/><path d="m164 71.7h79v-17.4h-79z"/><path d="m149.1 98h79.5v-16.9h-79.5z"/></g></svg>