<svg viewBox="0 0 286 100" xmlns="http://www.w3.org/2000/svg" xmlns:xlink="http://www.w3.org/1999/xlink"><g fill="#fff"><path d="m16.8 2h-14.2c-.3 0-.6.3-.6.6v62.6c0 .3.3.6.6.6h14.2c.3 0 .6-.3.6-.6v-16.6h4.1c2 0 5 .8 5 5.4v11.2c0 .3.3.6.6.6h13.7c.3 0 .6-.3.6-.6v-11.7c0-3.6-.1-8.2-4.7-11.6-1-.7-2.1-1.3-3.6-1.9 1-.5 1.8-1.2 2.5-2.3.9-1.4 1.6-2.9 2.1-4.4l4-11.2c0-.1.1-.3.1-.4 0-.2-.1-.5-.6-.5h-14.6c-.2 0-.5.2-.6.4-1 3-1.9 5.4-2.6 7.1-1.4 3.4-2.6 5-3.9 5.4-.6.2-1.3.3-2.1.3v-31.8c0-.3-.3-.6-.6-.6z"/><path id="a" d="m70 20.1c-14.2 0-24.4 10.3-24.4 23.5 0 15.8 12.5 23.3 21.5 23.3 5.4 0 8-1.3 10-2.7.2-.1.3-.2.3-.4v-11.8c0-.4-.4-.7-.8-.6-2.4.9-4.6 1.3-6.7 1.3-4.2 0-8.9-2.9-8.9-9.5 0-5.2 4.4-8.9 9.3-8.9 8.8 0 9.6 6.8 9.6 10.8v20.1c0 .3.3.6.6.6h14.2c.3 0 .6-.3.6-.6v-23.4c0-13.6-10.9-21.7-25.3-21.7z"/><path d="m126.8 21.1c-5.3 0-9.7.8-12.1 5.5v-4.9c0-.3-.3-.6-.6-.6h-12.4c-.3 0-.6.3-.6.6v43.5c0 .3.3.6.6.6h14.3c.3 0 .6-.3.6-.6v-20.4c0-7.3 1-9 10.3-9.5.3 0 .5-.3.5-.6v-13c0-.3-.3-.6-.6-.6z"/><path d="m129.8 43.5c0 12.8 10.7 23.4 23 23.4 12.1 0 20.5-8.4 24.2-16.5.1-.3.4-.8.4-1.1 0-.2-.1-.4-.3-.5l-10.3-5.3c-.3-.1-.6 0-.7.3-2 4.6-7 9.4-12.3 9.4-4.8 0-9.1-4.5-9.1-10.4 0-5 3-10.7 8.6-10.7 1.6 0 3 .3 4.4 1l-10.9 7.2c-.3.2-.4.5-.2.8l5.5 8.6c.2.2.5.3.8.1l21.5-14.8c.2-.2.3-.4.2-.7-2.4-4.3-5.3-7.8-8.8-10.3-3.5-2.6-7.9-3.9-12-3.9-16.5 0-24 13.5-24 23.4z"/><path id="b" d="m197.5 2h-14.3c-.3 0-.6.3-.6.6v62.6c0 .3.3.6.6.6h14.3c.3 0 .6-.3.6-.6v-62.7c0-.3-.3-.5-.6-.5z"/><use transform="translate(25)" xlink:href="#b"/><use transform="translate(184)" xlink:href="#a"/><path d="m284 15.1c0 3.2-2.7 5.9-5.9 5.9s-5.9-2.7-5.9-5.9 2.7-5.9 5.9-5.9 5.9 2.7 5.9 5.9zm-.8 0c0-2.8-2.3-5.1-5.1-5.1s-5.1 2.3-5.1 5.1 2.3 5.1 5.1 5.1 5.1-2.3 5.1-5.1zm-1.7 2.9h-1.5l-2.2-2.4h-.8v2.4h-1.1v-6.1h2.1c.8 0 2.7 0 2.7 1.7 0 1.2-1.2 1.7-1.7 1.8zm-4.5-5.3v2.1h.9c.6 0 1.6 0 1.6-1.1 0-.9-1-1-1.5-1z"/><path d="m112 82.8c-3.9 0-5.3 2-5.6 1.7.3-.6-.2-1.1-.7-1.4-.4-.2-.9-.4-1.3-.1-.6.4-.5 1.1-.7 1.7-.8 3.2-1.7 6.5-2.6 9.7-.2.6-.5 1.2-.7 1.8-.1.2-.1.5-.1.6 0 .3.2.5.4.7.2.3.6.5.9.5.2 0 .4 0 .5-.2.6-1.4.8-2.9 1.3-4.3.1-.3.7-2.8.9-2.8.5.9 1.7 1.1 2.6 1 1-.1 1.9-.4 2.9-.8 1.4-.7 2.6-1.7 3.6-2.8.3-.3 1.5-1.9 1.5-3.3 0-.7-.5-1.4-1.2-1.7-.5-.2-1.2-.3-1.7-.3zm-7.3 6.7c.7-1.6 1.4-3.5 3.1-4.3 1-.4 2-.7 3.1-.5.8.1 1 1.1.9 1.8-.2 1-.8 1.8-1.4 2.5-.5.6-1.1 1-1.9 1.1-1 .1-2.1 0-3.1-.4.1-.3-.5-.4-.7-.2z"/><path id="e" d="m123.5 82.4c-.6 0-1 .5-1.4.9s-.4.9-.7 1.3c-.4.4-2.5 2.3-2.5 2.2.3-.7.8-1.3.9-2.1.1-.5-.1-1.1-.6-1.2-.3-.1-.6 0-.9 0s-.7.1-.8.5c-.2.6-.5 2-.6 2.3-.3 1.5-.8 2.9-1.3 4.3 0 .8.7.9 1.5.9.2 0 .4-.4.5-.6.7-1.3 2.2-3.1 4-4.8.3-.5.5.2.9.4s.9.3 1.3.3c.5 0 1-.2 1.3-.5.1-.1.3-.2.3-.4s-.2-.5-.4-.5-.5 0-.6-.1c-.4-.5-.3-1.2-.2-1.8 0-.2.2-.6 0-.8s-.5-.3-.7-.3z"/><path id="f" d="m124.3 89.3c0 .4.1.8.3 1.1.7 1.2 3.1 1.2 3.9 1.2 3.3 0 5.3-1.6 6.3-2.7.5-.6.9-1.2 1.2-1.9.1-.2.2-.8.2-1.2 0-.6-.2-1-.8-1.5-.9-.7-2.1-1-3.2-1-2.3 0-4.6 1-6.2 2.6-1 1-1.7 2.3-1.7 3.4zm7.9-4.2c1.3.3 1.7 1.6 1.1 2.8s-1.7 1.9-3 2.1c-.9.2-2.1 0-2.7-.8-.5-.6-.5-1.3-.2-2 1.5-2.8 4.5-2.2 4.8-2.1z"/><path d="m139.5 83.1c.1.7-.6.2-1 .3-.5-.1-1.1.1-1.3.6-.3.5.1 1.1.7 1.3.7.2 1.5.1 1 1-.9 3.4-2.1 6.8-2.9 10.2-.1.1-.1.3-.1.4 0 .4.3.7.7.7.3 0 .6-.1.7-.2.6-.5.7-1.5 1-2.2.7-2.3 1.3-4.5 2-6.8.3-1 .5-2 .9-3 1.1-.1 2.3-.1 3.3-.6.4-.2.7-.7.4-1.1-.7-.5-1.5.1-2.3 0-.5 0-1 .1-.7-.5.5-2 1-4.1 2.1-5.9.4-.7 1.2-1.4 2.1-.9.6.3 1.2.7 1.8-.2.1-.2.2-.4.2-.6 0-.5-.4-1-1-1-1.9 0-3.1.8-4.7 2.2s-2.4 3.9-2.9 6.3z"/><path d="m144.5 86.9c-.7.8-1.3 1.8-1.3 2.9 0 1.7 2 2.1 4 2.1 1.1 0 2.2-.1 3.2-.3 1.3-.2 2.6-.5 3.8-.9.3-.1.6-.4.6-.7 0-.2-.1-.4-.2-.4-.3-.1-.6 0-.9 0-.7.1-1.4.2-2.1.4-1.4.4-2.9.6-4.3.3-.7-.1-1.3-.7-1.4-1.4s.7-.4 1.1-.5c2.2-.3 4.5-.8 6.7-1.1.2 0 .6-.4.5-.8s-.2-.8 0-1.2c.2-.6 0-1.4-.6-1.7-.5-.3-1.1-.4-1.9-.4-1.2 0-2.4.3-3.5.8-1.5.7-2.7 1.6-3.7 2.9zm6.2-2.3c.5 0 1.3.2 1.2.8-.1.4-.3.9-.8.9-1.3.3-2.5.5-3.8.6-.2 0-1.1.2-.6-.2 1-1 2.3-2 4-2.1z"/><path id="g" d="m160.4 83.2c-2.3.7-3.1 1.5-3.6 2.6-.3.6-.1 1.4.5 1.7.9.5 1.9.4 2.9.5h1.7c.6 0 .8.6.6 1.1-.2.6-.7 1-1.4 1.1-.9.1-1.9.1-2.8-.3-.7-.3-1.3-.7-1.9-1-.7-.2-1 .8-1 1.1 0 .6.4 1.1.9 1.3.9.4 2 .4 3 .4.3 0 2.8 0 4.8-1.5.8-.6 1.4-1.4 1.4-2.7 0-.6-.9-.9-1.5-1-2-.4-2.5-.4-2.9-.4-.6-.1-1.2 0-1.7-.3-.4-.3.2-.9 1.3-1.2.9-.2 2-.2 2.9 0 .6.1 1.1.3 1.6.7.6.3 1-.5 1-.9 0-.8-.2-1.2-.9-1.3s-1.4-.2-2.2-.2-1.8.1-2.7.3z"/><use transform="translate(10.6)" xlink:href="#g"/><path d="m181.6 77.7c-.2 0-.3.1-.4.2-.7.7-.6 1.7-.7 2.6-.1.6.6.8 1 .9.3 0 .7.1.9-.3.2-.8.5-1.6.7-2.4 0-.6-1.1-1-1.5-1zm-2.5 5.5c0 .1 0 .4.1.5.2.3-.1.7-.1 1.1-.3 1.6-.8 3.2-1.2 4.8-.1.5-.3 1.1-.3 1.6s1 .6 1.3.6c.5 0 .8-.2.9-.4.1-1.3.5-2.6.9-3.8.3-1 .6-1.9.8-2.9.1-.5.3-1-.2-1.3s-.9-.7-1.5-.7c-.4 0-.7.3-.7.5z"/><use transform="translate(57.9)" xlink:href="#f"/><path d="m196.6 83.2c-.2.4.1.8-.1 1.2-.5 1.7-.9 3.4-1.4 5.1-.1.4-.3.8-.3 1.2 0 .5.7.6 1.1.6.4-.1.7-.3.9-.6.3-.6 1.6-2.5 3.2-4.1.6-.5 1.2-1.1 2-1.3.6-.1.6.6.6 1 .1 1.7-.1 3.4-.2 5.1.1.4.5.4.8.4s.8-.1 1.2-.3c.4-.1 1-.4 1-.9 0-.6-.5-.5-.5-1.1 0-.7 0-1.4.1-2.1.1-1 .2-2 0-3-.1-.6-.5-.9-1.2-.9-1 0-2 .4-2.9.8-1.2.6-2 1.6-2.9 2.6.1-.5.4-1 .6-1.5s.4-1.1.3-1.6c-.2-.5-1.1-.9-1.4-.9s-.7 0-.9.3z"/><path id="h" d="m207.5 87.5c-.5.7-1 1.4-1 2.2 0 1.2.7 1.5 1.4 1.7 1.3.3 2.8.2 4-.1 1.4-.3 2.8-.7 4-1.7v1.9c0 .3.1.5.5.5.3 0 2-.3 2.4-.9.2-.3 0-.8-.3-.8-.4 0-.3-.6-.3-.9 0-1 .3-1.9.4-2.9.2-1 .3-2 .3-3 0-.4-1.2 0-1.6.7-.5-.8-1.4-1.1-2.5-1.1s-2.4.7-3.7 1.4-2.6 1.8-3.6 3zm8.4.5c-1 1-2.3 1.5-3.6 1.9-.8.2-1.6.3-2.4 0-.5-.2-.6-.7-.4-1.1.5-1.3.9-2.1 2.3-3.2.7-.4 1.4-.8 2.1-.9s1.7-.1 2.1.4c.7 1 .1 2.7-.1 2.9z"/><path d="m224.5 76.3c-.4 2.6-1.1 5.1-1.8 7.7-.7 2.4-1.5 4.8-1.9 7.2 0 .6 1.3.6 1.4.6.2 0 .5 0 .7-.2.3-.5.2-1.1.3-1.7 1.1-4.3 2.8-9.3 3.1-10.4.4-1.1.7-2.2 1-3.3 0-.9-.9-1.4-1.5-1.4s-1.2.1-1.3 1.5z"/><path d="m237.4 76.2c-1.1.2-2.2.4-3.2.9-.2.3-.1.8.1 1.2.4 1 1.3.4 2 .1.5-.2 1.7-.7 1.7-.3l-3.3 11.6c-.9-.3-1.8-.7-2.7-.6-.1.2-.1.4-.1.7 0 1.5 1.9 1.8 3.4 1.8 4.8 0 9.3-2.1 11-2.9 1.5-.7 2.7-1.9 3.7-3.2 1.5-2.1 2.3-3.5 2.3-4.8 0-1.5-.9-2.9-2.2-3.6-2-1-4.3-1.2-6.5-1.3-.7 0-1.4.1-2.1.1-.1 0-1.2-.9-1.9-.9-.3 0-.7 0-.8.6s-.8.5-1.4.6zm3.6 1.3c2-.4 4.2-.5 6.1.2 1.8.7 2.7 2.9 2.1 4.7-.7 2.6-3 4.4-5.2 5.7-2.2 1.2-4.8 1.7-7.3 1.6z"/><use transform="translate(44.5)" xlink:href="#h"/><use transform="translate(149.7)" xlink:href="#e"/><path d="m278.4 79.3c-.3 1.1-.3 2.2-.6 3.2-.1.3-.1.6-.2.9 0 .2-.1.5-.4.4-.4 0-.8-.2-1.2-.3-.2-.1-.6-.3-.8-.1-.4.2-.4.6-.4 1 0 .3.1.6.4.7.6.2 1.2.2 1.8.2-.4 1.1-.8 2.2-1.1 3.3-.3.8-.6 1.6-.8 2.4.1.6.6.9 1.2.9.9 0 1-.5 1.2-1.3.5-1.7.9-3.5 1.4-5.2 1.1 0 2.2 0 3.2-.5.4-.2.6-.4.6-.7 0-.2-.1-.3-.4-.3-.6-.2-2.3-.1-2.4-.1-.4.1-.5.1-.3-.3.1-.2 1.1-2.6 1.2-3.3s-.3-.9-.6-1.1-.6-.4-.9-.4c-.5 0-.8.2-.9.6z"/></g><g fill="#e30613"><path d="m2.5 2.5h14.4v32.5c1.1 0 2.1-.2 2.8-.4 2.6-.8 4.3-5.5 6.8-12.9h14.7l-4 11.5c-.4 1.1-2.2 6.1-5.6 6.8 2.4.9 5.7 2.2 7.6 5.3 1.2 1.9 1.7 4.6 1.7 8.2v11.7h-13.9v-11.3c0-5.4-4.1-5.8-5.5-5.8h-4.6v17.1h-14.4z"/><path id="c" d="m80.4 65.2v-20c0-6.3-2.4-11.5-10.1-11.5-5.2 0-9.9 3.9-9.9 9.5 0 7.7 6.3 12.5 16.4 8.8v11.8c-1.9 1.3-4.3 2.5-9.7 2.5-8.7 0-21-7.2-21-22.7 0-13 10-22.9 23.9-22.9 14 0 24.7 7.7 24.7 21.1v23.4z"/><path d="m114.1 28.9h.2c2.2-6.5 6.9-7.2 12.5-7.2v13c-9.8.5-10.8 2.5-10.8 10.1v20.4h-14.3v-43.5h12.4z"/><path d="m152.5 49.4-5.4-8.6 11.7-7.7c-1.7-1.1-3.5-1.4-5.5-1.5-5.9 0-9.2 5.9-9.2 11.2 0 6.2 4.6 11 9.7 11 5.6 0 10.7-5 12.8-9.8l10.3 5.3c-3.5 8.6-12.1 17-24.1 17-12.1 0-22.5-10.4-22.5-22.8 0-12.2 10.2-22.9 22.5-22.9 5 0 9.3 1.3 12.7 3.8s6.3 5.9 8.6 10.1z"/><path id="d" d="m183.2 65.2v-62.6h14.3v62.6z"/><use transform="translate(25)" xlink:href="#d"/><use transform="translate(184)" xlink:href="#c"/></g></svg>