<svg viewBox="0 0 260 100" xmlns="http://www.w3.org/2000/svg"><g fill="#fff"><path d="m38 2c20 0 38 16.3 38 36.8 0 3.7-.1 9.3-4.1 16.9-.2.4-.4.5-.9.5h-15.6c6.8-6.9 6.9-15.4 6.9-17.7 0-11.8-11.5-22.8-24.5-22.8h-18.2l-3.1 18.2h10.1l-20.5 64.1 5.2-58h-9.3l6.2-37.2c.1-.6.3-.8.6-.8z"/><path d="m27 64.5c-.3 0-.5.1-.6.4l-5.4 21.8h8.5l2-7.9h9.4c4.2 0 5.7-3.1 6.1-4.6l1-3.9c.1-.4.4-1.9.4-2.5 0-2.6-2-3.3-4.7-3.3zm11 3.7c1.4 0 1.9.3 1.6 1.6l-.8 3.2c-.5 1.8-.9 2-2.3 2h-4.1l1.7-6.8z"/><path d="m71.5 64.5h-13.3c-4.4 0-6 3.7-6.6 6.1l-2.3 9.2c-.2.8-.5 2.2-.5 3 0 3.6 2.8 3.9 4.9 3.9h11.8c2 0 6-.1 7.5-6l2.2-8.8c.2-1 .6-2.6.6-3.6 0-3-1.8-3.8-4.3-3.8zm-6.2 3.7c1.6 0 2.2.1 1.9 1.5l-2.9 11.7c-.2 1-.8 1.5-1.5 1.5h-4.5c-.8 0-1.2-.4-.9-1.5l2.9-11.7c.2-.7.6-1.5 1.4-1.5z"/><path d="m79.9 64.5h8.5l-.1 14.2 7-14.2h8.5v14.3l7-14.3h3.8l-10.9 22.2h-8.2l-.1-14.7-7.1 14.3c-.2.4-.3.4-.7.4h-7.6z"/><path d="m118.9 64.5h18.9l-1 3.7h-10.7l-1.2 5.1h9.8l-1 3.7h-9.8l-1.5 5.9h10.7l-.9 3.8h-19.2l5.4-21.7c.1-.3.2-.5.5-.5z"/><path d="m159.5 64.5h-17.3c-.5 0-.6.4-.7.8l-5.3 21.4h8.5l2.3-9.6h2.6l1.6 9.6h9.3l-2.2-9.6c1.2-.1 3.4-.5 4.1-3.2l1.1-4.3c.1-.6.3-1.5.3-2.1 0-2.6-2.6-3-4.3-3zm-5.7 3.7c1.3 0 1.5.2 1.3 1.1l-.7 2.8c-.2 1-1 1.2-1.9 1.2h-4.5l1.3-5.1z"/><path d="m169.3 64.5c-.3 0-.5.1-.6.4l-5.4 21.8h8.5l2-7.9h9.4c4.2 0 5.7-3.1 6.1-4.6l1-3.9c.1-.4.4-1.9.4-2.5 0-2.6-2-3.3-4.7-3.3zm11 3.7c1.4 0 1.9.3 1.6 1.6l-.8 3.2c-.5 1.8-.9 2-2.3 2h-4.1l1.7-6.8z"/><path d="m195.8 64.5h8.5l-5.5 22.2h-8.5z"/><path d="m209.1 64.5h10.7l4.5 18.1 4.6-18.1h3.7l-5.6 22.2h-10.9l-4.6-18.4-4.6 18.4h-3.7l5.4-21.7c.1-.4.1-.5.5-.5z"/><path d="m241 64.5h17l-.9 3.7h-11.8c-.6 0-1.3.1-1.5.7l-.4 1.5c-.2.7.4.9 1.3.9h6.6c2.8 0 4.7 1.3 4 4.1l-1.4 5.6c-1.1 4.6-3.5 5.7-7.1 5.7h-15.7l.9-3.7h11.9c.6 0 1.2-.2 1.4-.8l.5-1.8c.2-.7-.6-.9-1.3-.9h-6.8c-4.1 0-4.3-1.8-3.5-5.1l1.2-5c.2-.7 1.4-4.9 5.6-4.9z"/></g></svg>