<svg viewBox="0 0 268 100" xmlns="http://www.w3.org/2000/svg" xmlns:xlink="http://www.w3.org/1999/xlink"><g fill="#fff"><path d="m103.8 3.8c-6.4 0-14.9 3.3-21.4 5.5 1.4.9 2.7 1.8 3.9 2.8 16.1-4.4 24.1-1.4 13.2 16.6.8 1.6 1.5 3.4 2.1 5.1 3.2-4 10.9-16.8 10.9-23.9 0-3.3-2.8-6.1-8.6-6.1z"/><path d="m14.7 68.1c-3.2 3.9-12.8 16.4-12.7 23.5 0 3.3 3.3 6.4 9.2 6.4 6.6 0 20.1-4.4 26.7-6.6-1.9-.9-3.6-1.8-5.4-2.9-17.8 5.2-27.2 2.4-15.4-15.8-.9-1.5-1.7-3-2.4-4.6z"/><path d="m137 13.6v6.7h-14.5v2.2l10.4.1c3.7 0 4.2 3.4 4.2 7.3 0 3.8-1.5 6.8-5.1 6.8h-16.1v-6.7h14.4v-2.1l-10-.1c-3.8 0-4.4-4-4.4-7.5 0-3.1 1.1-6.7 4.3-6.7z"/><path d="m143.6 13.6h16.4v7h-14.3v9.1h14.3v7h-16.4c-2.4 0-4.8-2.5-4.8-4.9v-13.5c0-2.3 2.1-4.7 4.8-4.7z"/><path d="m161.8 13.6h7v8.6h7.3v-8.6h7v23.1h-7v-8.7h-7.3v8.7h-7z"/><path d="m192.1 13.6 5.8 9.6 5.4-9.6h7v23.1h-6.8v-9l-5.6 8.8-5.8-8.8v9h-6.9v-23.1z"/><path d="m212.2 13.6h7v23.1h-7z"/><path d="m221.3 13.6v23.1h16c2.4 0 5.2-2.3 5.2-4.7v-12.8c0-2.8-2.3-5.6-5.1-5.6zm14.3 7v9.1h-7.3v-9.1z"/><path d="m244.4 13.6h21.6v6.9h-7.5v16.2h-7v-16.2h-7.1z"/><path id="c1" d="m122.4 46.7c.2.2.1.6 0 .7-.2.3-.5.1-.5.1-.5-.7-1.1-1-1.9-1-1.3 0-1.8 1.1-1.8 2.4 0 .2 0 1.2.7 1.9.7.6 1.9 1.3 2.6 1.9 1.1 1 1.2 2.2 1.2 2.9 0 2-1 3.7-3 3.7-1.3 0-2.2-.5-2.9-1.6 0 0-.1-.2-.1-.3s.1-.3.2-.4c.2-.2.4-.2.5-.1.6 1 1.3 1.5 2.3 1.5 1.2 0 1.9-1.1 1.9-2.6 0-.6 0-1.5-.8-2.2-.6-.5-1.8-1.2-2.5-1.8-1-.9-1.2-1.8-1.2-2.8 0-1.6.6-3.4 2.8-3.4 1.1-.1 1.9.4 2.5 1.1z"/><path d="m131 59.2c-.2 0-.2-.1-.2-.4v-12.7c0-.4 0-.4.2-.4h2.2c1.7 0 3.5.2 3.5 4.3 0 3.9-1.5 4.1-3.2 4.1h-1.5c-.1 0-.1.1-.1.2v4.5c0 .4-.2.4-.3.4zm2.5-6c1.5 0 2.1-.2 2.1-3.2 0-3.2-1-3.4-2.4-3.4h-1.2c-.1 0-.1 0-.1.1v6.4c0 .1.1.1.1.1z"/><path id="c2" d="m147.9 58.4c1.4 0 2.2-.6 2.2-6 0-4.6-.6-5.9-2.2-5.9s-2.1 1.5-2.1 5.9c0 5 .6 6 2.1 6zm0 .9c-2.3 0-3.2-1.3-3.2-6.9 0-5.3 1-6.8 3.2-6.8s3.2 1.3 3.2 6.8c0 5.8-.9 6.9-3.2 6.9z"/><path id="c3" d="m159.8 59.2c-.2 0-.2-.1-.2-.4v-12.7c0-.3 0-.4.2-.4h2.5c1.8 0 3.5.2 3.5 3.4 0 .9-.1 1.6-.4 2-.6.8-1.2.9-1.2 1s1 .4 1.3 1.1c.3.6.3 1.4.3 1.6v3.9c0 .3-.2.5-.3.5h-.6c-.1 0-.2-.2-.2-.5v-4.2c0-1.7-1.2-1.9-1.8-1.9h-2.1c-.1 0-.2 0-.2.1v6.1c0 .3-.1.4-.3.4zm2.6-7.4c1.9 0 2.3-.9 2.3-2.7 0-2.3-1.1-2.5-2.6-2.5h-1.4c-.1 0-.1 0-.1.1v4.9c0 .1.1.2.1.2z"/><path d="m175.8 59.2c-.2 0-.3-.1-.3-.5v-11.8c0-.2 0-.3-.1-.3h-1.6c-.2 0-.3-.2-.3-.3v-.3c0-.2.1-.3.3-.3h4.5c.2 0 .3 0 .3.3v.3c0 .3-.1.3-.3.3h-1.6c-.1 0-.1.1-.1.3v11.8c0 .3-.1.5-.3.5z"/><use transform="translate(69.1)" xlink:href="#c1"/><path d="m201.6 59.2c-.1 0-.2-.3-.3-.7l-1.7-11.6c0-.1-.1-.8-.1-.9 0-.2.1-.3.2-.3h.5c.2 0 .3.3.4.7l1.4 9.9 1.6-9.9c.1-.4.2-.5.4-.5h.6c.2 0 .3.2.4.5l1.9 10.2 1.3-10.2c.1-.4.1-.7.3-.7h.5c.1 0 .2.1.2.3 0 .1-.1.6-.1.8l-1.6 11.6c-.1.4-.2.8-.3.8h-.6c-.2 0-.3-.3-.4-.7l-1.9-10.7-1.9 10.9c-.1.4-.2.5-.3.5z"/><g transform="translate(72.4)"><use xlink:href="#c2"/><use xlink:href="#c3"/></g><path d="m247 59.2c-.1 0-.3-.1-.3-.5v-12.5c0-.3 0-.5.2-.5h.7c.2 0 .2.2.2.5v11.9c0 .1.2.2.2.2h2.4c.2 0 .3.1.3.3v.3c0 .2-.2.3-.3.3z"/><path d="m259.9 58.3h1.8c2.1 0 2.5-1.4 2.5-5.9 0-4.4-.8-5.8-2.5-5.8h-1.8c-.1 0-.1 0-.1.1v11.4c0 .1 0 .2.1.2zm-.9.9c-.1 0-.3-.1-.3-.4v-12.8c0-.2.1-.3.3-.3h2.7c2.1 0 3.6 1.2 3.6 6.7 0 5.9-1.2 6.8-3.6 6.8z"/></g><g fill="#bb2b22"><path d="m119.5 67.2h143c1.7 0 3 1.3 3 3v13.2c0 1.7-1.3 3-3 3h-143c-1.7 0-3-1.3-3-3v-13.2c0-1.7 1.3-3 3-3z"/><circle cx="57.3" cy="48.8" r="42.5"/></g><g fill="#fff"><path d="m77.9 11.6c-17.2 7.4-37.2 19.4-37 32.5.1 6.9 16.1 14.2 16.2 21.2.1 5.3-4.4 12.3-20.7 20.5 2.1 1.2 4.2 2.2 6.5 3 16.7-6.2 33.4-20.1 33.4-31.9 0-8.6-16.1-13.2-16.1-22.2 0-5 5.5-11.4 21.8-20.5-1.3-1-2.7-1.8-4.1-2.6z"/><path d="m162.8 75.4h-3.5v-2.2c0-1.1-1.2-1.1-1.2 0v7.8c0 1.2 1.3 1.2 1.3 0v-2.3h-.7v-2h4.1v7.2h-2.3l-.3-.9c-.6 1-1.4 1.2-2.1 1.2-1.9 0-3.5-1.4-3.5-3.8v-6.4c0-2.1 1.2-3.9 4-3.9 2.7 0 4.2 1.6 4.2 3.8z"/><path d="m165.7 70.4h5.9v2.7h-2.4v2.6h2.2v2.5h-2.2v3h2.6v2.7h-6.1z"/><path d="m174.3 70.4h2.6c1.7 0 2.7 0 3.3.2 1.6.4 2 1.7 2 3.4 0 1-.1 1.8-.4 2.2s-.7.6-1.5.7c.7.2 1.2.4 1.4.7.5.6.5.7.5 2.7v3.6h-3.2v-4.5c0-.7-.1-1.2-.2-1.4s-.5-.2-1-.2v6.1h-3.5zm3.5 2.3v3c.9 0 1.2-.2 1.2-1.2v-.8c0-.8-.4-1-1.2-1z"/><path d="m195.8 70.4v13.5h-3v-9.1l-1.2 9.1h-2.2l-1.3-8.9v8.9h-3.1v-13.5h4.6l.9 6.3.8-6.3z"/><path d="m204.8 70.4 2 13.5h-3.5l-.2-2.5h-1.3l-.2 2.5h-3.6l1.8-13.5zm-1.7 8.7-.6-5.7-.7 5.7z"/><path d="m216.8 70.4v13.5h-3l-1.9-6.1v6.1h-2.9v-13.5h2.9l2 6.1v-6.1z"/><path d="m227.3 70.4-2.6 8.6v4.9h-3.3v-4.9l-2.4-8.6h3.2l.9 5.3 1-5.3z"/></g></svg>