<svg viewBox="0 0 75 100" xmlns="http://www.w3.org/2000/svg"><g id="figure" fill="#fff"><path d="m29.6 63.5c1.6-2.8 1.7-6.1 0-9l-6.9-11.9c-1.1-1.8-1.1-4.2 0-6l7.8-13.2c1.3-2.3 3.5-2.9 5.1-2.9h19l10.6-18.5h-38c-3.4 0-6.6 1.6-8.1 4.3l-14 24.6c-1.8 3.2-3 7.1-3 11.1 0 4.2 1 7.7 3 11.1l15.2 26.3z"/><path d="m45.4 36.5c-1.6 2.8-1.7 6.1 0 9l6.9 11.9c1.1 1.8 1.1 4.2 0 6l-7.8 13.2c-1.3 2.3-3.5 2.9-5.1 2.9h-19l-10.6 18.5h38c3.4 0 6.6-1.6 8.1-4.3l14-24.6c1.8-3.2 3-7.1 3-11.1 0-4.2-1-7.7-3-11.1l-15.2-26.3z"/></g></svg>