<svg viewBox="0 0 476 100" xmlns="http://www.w3.org/2000/svg"><g id="figure"><path d="m29.5 63.5c1.6-2.8 1.7-6.1 0-9l-6.9-11.9c-1.1-1.8-1.1-4.2 0-6l7.8-13.2c1.3-2.3 3.5-2.9 5.1-2.9h19l10.6-18.5h-38c-3.4 0-6.6 1.6-8.1 4.3l-14 24.6c-1.8 3.2-3 7.1-3 11.1 0 4.2 1 7.7 3 11.1l15.2 26.3z"/><path d="m45.3 36.5c-1.6 2.8-1.7 6.1 0 9l6.9 11.9c1.1 1.8 1.1 4.2 0 6l-7.8 13.2c-1.3 2.3-3.5 2.9-5.1 2.9h-19l-10.6 18.5h38c3.4 0 6.6-1.6 8.1-4.3l14-24.6c1.8-3.2 3-7.1 3-11.1 0-4.2-1-7.7-3-11.1l-15.2-26.3z"/><path d="m100.6 43.2c-3.7 6.9 1.6 11.3 6.9 11.3h29.5c6.1 0 3.8 4 3 5.5l-1.6 3h-49.3l-4.6 7.9h75.5l8.1-13.9c3.9-6.7-1.7-11.3-7-11.3h-29.5c-6.1 0-3.8-4-2.9-5.5l1.8-3h47.1l4.5-7.9h-63.5c-9.7 0-13.4 5.3-16.4 10.9z"/><path d="m210.6 39.6c.6-1 1.8-2.5 4.6-2.5l29.9-.1 4.5-8.1h-49.1c-9.7 0-13.2 5.4-16.4 10.9l-11.3 19.6c-3.9 6.8 1.6 11.3 6.9 11.3h46l4.5-7.9h-26.7c-6.1 0-3.8-4.1-3-5.6z"/><path d="m327.6 40.4c3.9-6.8-1.6-11.3-6.9-11.3h-53.5c-9.7 0-13.2 5.4-16.4 10.9l-11.3 19.6c-3.9 6.8 1.7 11.3 7 11.3h53.4c9.7 0 13.3-5.4 16.5-10.9zm-38 20.2c-.6 1-1.8 2.6-4.6 2.6h-15c-6.1 0-3.9-4.1-3-5.6l10.3-17.8c.6-1 1.8-2.6 4.6-2.6h15c6.1 0 3.9 4.1 3 5.6z"/><path d="m337.3 29.1-4.5 7.9h23.1l-19.4 33.9h26.2l19.6-33.9h18.4l4.6-7.9zm74 0-4.5 7.9h17.8l-19.4 33.9h26.2l19.6-33.9h18.4l4.6-7.9z"/></g></svg>