<svg viewBox="0 0 154 100" xmlns="http://www.w3.org/2000/svg"><g id="figure"><path d="m72.1 47.7c1.2-2 1.3-4.5 0-6.7l-5.1-8.8c-.8-1.4-.8-3.1 0-4.5l5.8-9.8c1-1.7 2.6-2.2 3.8-2.2h14.2l7.9-13.7h-28.4c-2.5 0-4.9 1.2-6 3.2l-10.4 18.3c-1.4 2.4-2.2 5.3-2.2 8.2 0 3.1.7 5.8 2.2 8.3l11.3 19.5z"/><path d="m83.9 27.5c-1.2 2-1.2 4.5 0 6.7l5.1 8.9c.8 1.4.8 3 0 4.4l-5.8 9.8c-1 1.7-2.6 2.2-3.8 2.2h-14.2l-7.9 13.7h28.4c2.5 0 4.8-1.2 6-3.2l10.4-18.2c1.4-2.4 2.2-5.4 2.2-8.3 0-3.1-.8-5.7-2.2-8.2l-11.3-19.6z"/><path d="m8.3 87.6c-1.4 2.6.6 4.2 2.6 4.2h11.1c2.3 0 1.4 1.5 1.1 2.1l-.6 1.1h-18.8l-1.5 3h28.4l3.1-5.3c1.5-2.5-.6-4.2-2.6-4.2h-11.1c-2.3 0-1.4-1.4-1.1-2l.6-1.2h17.8l1.7-2.9h-23.9c-3.6 0-5.1 2-6.2 4.1z"/><path d="m50.5 86.3c.2-.4.7-1 1.7-1h11.3l1.6-3h-18.4c-3.6 0-5 2-6.2 4.1l-4.2 7.4c-1.4 2.6.6 4.2 2.6 4.2h17.3l1.6-2.9h-10c-2.3 0-1.4-1.6-1.1-2.2z"/><path d="m95.3 86.5c1.4-2.6-.6-4.2-2.6-4.2h-20.1c-3.6 0-5 2-6.2 4.1l-4.3 7.3c-1.5 2.5.7 4.3 2.7 4.3h20.1c3.6 0 5-2 6.2-4.1zm-14.3 7.6c-.2.4-.7 1-1.7 1h-5.7c-2.3 0-1.4-1.5-1.1-2.1l3.9-6.7c.2-.4.7-1 1.7-1h5.6c2.3 0 1.5 1.5 1.2 2.1z"/><path d="m99.7 82.3-1.7 2.9h8.7l-7.3 12.8h9.9l7.4-12.8h6.9l1.7-2.9zm28.9 0-1.7 2.9h6.7l-7.3 12.8h9.8l7.4-12.8h6.9l1.8-2.9z"/></g></svg>