<svg viewBox="0 0 462 100" xmlns="http://www.w3.org/2000/svg" xmlns:xlink="http://www.w3.org/1999/xlink"><g id="figure" fill="#fff"><path d="m82.7 43.7h22.6l2.6-9.6h-24.5c-10.9 0-17.5 4.1-20.3 14.4-3.1 11.6 4.2 14 12.3 14h9.8c4.7 0 5.4 1.3 4.6 4.2-.8 3-2.7 4.5-8 4.5h-23l-2.5 9.6h24.8c11 0 17.6-4.3 20.2-14.1 2.7-10-1.2-13.7-11.7-13.7h-11.2c-4.5 0-4.4-2.3-3.7-4.6s2.7-4.7 8-4.7z"/><path id="a" d="m119.1 67.1 3.4-12.8h9.3l2.2-8.2h-9.3l3.2-12h-10.4l-3.2 12h-6.2l-2.2 8.2h6.2l-4.1 15.2c-2 7.2 1.1 11.4 8.1 11.4h8.6l2.2-8.2h-4.7c-3.5 0-4.3-1.2-3.1-5.6z"/><path id="b" d="m155.1 67.3-1.4 5.3h-10.3c-3.4 0-3.7-.6-3.3-2.2.6-2.2 1.8-3.1 5.7-3.1zm1.6-21.2h-18.6l-2.2 8.5h15.6c6.3 0 6.4 1.5 5.7 4.5h-11.5c-16.1 0-16.7 12.3-16.7 14.5 0 4.3 2.7 7.3 8.9 7.3h24.2l5.7-21.4c.4-1.7.7-3.2.7-4.6 0-7.2-6.3-8.8-11.8-8.8z"/><path d="m180.6 34.1-2.6 9.8h10.8l2.7-9.8zm-3.2 12-9.3 34.8h10.8l9.3-34.8z"/><path id="c" d="m205.7 61.6h10l1.6-6.1c.4-1.4.6-2.7.6-3.8 0-3.7-2.3-5.6-8.4-5.6h-15.4l-9.3 34.8h10.4l7.2-26.8h2.5c1.4 0 2.6.7 2.2 2.2z"/><path d="m265.2 34.1-19.7 32.8-2.2-32.8h-15.3l-12.5 46.8h11.4l7.4-31.1 2.2 31.1h11.2l18.1-30.3-8.8 30.3h11l12.6-46.8z"/><use transform="matrix(1 0 0 1 146.5 0)" xlink:href="#b"/><path d="m320.1 57.1c-2.2 8.1 1.1 10.4 9.7 10.4h7.5c3.5 0 3.4 1.1 3.1 2.2-.4 1.6-1.6 2.6-4.8 2.6h-19.1l-2.3 8.6h23.7c5.7 0 10.9-4.5 12.6-11 1.8-6.6-1.2-10.9-9.3-10.9h-7.9c-2.9 0-2.9-1-2.6-2 .5-1.8 1.5-2.4 6.1-2.4h16.1l2.3-8.5h-19.9c-8.2 0-13.2 3.4-15.2 11z"/><use transform="matrix(1 0 0 1 250.1 0)" xlink:href="#a"/><path d="m404.2 59.1h-10.4c.6-1.6 1.4-2.7 2.4-3.4 1.2-.8 3.3-1.3 6.3-1.3h3.4c1.6 0 2.2.8 2 2.3-.4 1.4-1.8 2.4-3.7 2.4zm-12.7 8.5h11.7c6.8 0 12.3-5.3 13.7-10.5.3-1 .4-2 .4-3 0-4.2-2.8-8.2-8.7-8.2h-5.4c-20.9 0-22.8 20.3-22.8 23.4 0 9.4 7.6 11.4 13.9 11.4h10.2l2.2-8.5h-9.4c-5.8 0-6.5-1.1-5.8-4.6z"/><use transform="matrix(1 0 0 1 228.3 0)" xlink:href="#c"/><path d="m453.5 51.6h.6c.7 0 1.3-.2 1.3-.8s-.4-.9-1.2-.9c-.3 0-.6.1-.7.1zm0 3.1h-1.3v-5.6c.5-.1 1.2-.1 2.1-.1 1.4 0 2.5.3 2.5 1.6 0 .7-.5 1.1-1.1 1.3v.1c.5.2.7.6.9 1.3.2.8.3 1.2.4 1.4h-1.3c-.2-.2-.2-.7-.4-1.4-.1-.6-.5-.8-1.2-.8h-.6zm.9 1.5c2.4 0 4.3-2 4.3-4.4 0-2.5-1.8-4.4-4.3-4.4-2.4 0-4.3 2-4.3 4.4 0 2.5 1.8 4.4 4.3 4.4zm0 1.2c-3.2 0-5.6-2.5-5.6-5.6s2.4-5.6 5.6-5.6c3.1 0 5.6 2.5 5.6 5.6s-2.4 5.6-5.6 5.6z"/><circle cx="51.9" cy="4" r="2"/><circle cx="42.3" cy="8.9" r="2.9"/><circle cx="32" cy="16.1" r="4.4"/><circle cx="19.4" cy="27.1" r="6.6"/><circle cx="8.9" cy="41.6" r="6.9"/><circle cx="28.3" cy="41.8" r="6.6"/><circle cx="19.3" cy="58.1" r="6.9"/><circle cx="38.2" cy="57.9" r="6.9"/><circle cx="28.1" cy="73.7" r="6.9"/><circle cx="16.3" cy="86" r="4.5"/><circle cx="7" cy="95.2" r="2.8"/></g></svg>